<svg version="1.2" xmlns="http://www.w3.org/2000/svg" viewBox="0 0 1500 1000" width="1500" height="1000">
	<title>5164958-ai</title>
	<style>
		.s0 { fill: #ebebeb } 
		.s1 { fill: #a6a6a6 } 
		.s2 { fill:  #BA68C8 } 
		.s3 { fill: #ffffff } 
		.s4 { fill: #c7c7c7 } 
		.s5 { fill: #dbdbdb } 
		.s6 { fill: #ffffff;stroke: #c7c7c7;stroke-miterlimit:10 } 
		.s7 { fill: #263238 } 
		.s8 { fill: none;stroke: #c7c7c7;stroke-miterlimit:10;stroke-width: .5 } 
		.s9 { opacity: .1;fill: #000000 } 
		.s10 { fill: #455a64 } 
		.s11 { fill: #d3766a } 
		.s12 { fill: #ff9bbc } 
		.s13 { fill: #ffffff;stroke: #a6a6a6;stroke-miterlimit:10 } 
		.s14 { opacity: .6;fill: #ffffff } 
		.s15 { opacity: .2;fill: #000000 } 
		.s16 { opacity: .4;fill: #000000 } 
		.s17 { opacity: .3;fill: #000000 } 
		.s18 { fill: #37474f } 
		.s19 { fill: #000000 } 
		.s20 { fill: #ffffff;stroke: #c7c7c7;stroke-miterlimit:10;stroke-width: 2 } 
	</style>
	<g id="Background Complete">
		<g id="&lt;Group&gt;">
			<g id="&lt;Group&gt;">
				<path id="&lt;Compound Path&gt;" fill-rule="evenodd" class="s0" d="m1335.3 317h-253.3v-173.3h253.3zm-251.3-2h249.3v-169.2h-249.3z"/>
				<g id="&lt;Group&gt;">
					<path id="&lt;Path&gt;" class="s1" d="m1101.8 154.9c0 2.8-2.3 5.1-5.1 5.1-2.7 0-5-2.3-5-5.1 0-2.8 2.3-5 5-5 2.8 0 5.1 2.2 5.1 5z"/>
					<path id="&lt;Path&gt;" class="s0" d="m1122.4 154.9c0 2.8-2.3 5.1-5.1 5.1-2.8 0-5-2.3-5-5.1 0-2.8 2.2-5 5-5 2.8 0 5.1 2.2 5.1 5z"/>
					<path id="&lt;Path&gt;" class="s2" d="m1142.9 154.9c0 2.8-2.2 5.1-5 5.1-2.8 0-5-2.3-5-5.1 0-2.8 2.2-5 5-5 2.8 0 5 2.2 5 5z"/>
				</g>
				<path id="&lt;Path&gt;" class="s0" d="m1334.3 165.8h-251.3v-2h251.3z"/>
			</g>
			<g id="&lt;Group&gt;">
				<path id="&lt;Compound Path&gt;" fill-rule="evenodd" class="s0" d="m460.9 671.2h-253.2v-173.3h253.2zm-251.2-2h249.2v-169.3h-249.2z"/>
				<g id="&lt;Group&gt;">
					<path id="&lt;Path&gt;" class="s1" d="m227.5 509c0 2.8-2.3 5.1-5.1 5.1-2.8 0-5-2.3-5-5.1 0-2.7 2.2-5 5-5 2.8 0 5.1 2.3 5.1 5z"/>
					<path id="&lt;Path&gt;" class="s0" d="m248 509c0 2.8-2.2 5.1-5 5.1-2.8 0-5-2.3-5-5.1 0-2.7 2.2-5 5-5 2.8 0 5 2.3 5 5z"/>
					<path id="&lt;Path&gt;" class="s2" d="m268.6 509c0 2.8-2.2 5.1-5 5.1-2.8 0-5.1-2.3-5.1-5.1 0-2.7 2.3-5 5.1-5 2.8 0 5 2.3 5 5z"/>
				</g>
				<path id="&lt;Path&gt;" class="s0" d="m459.9 519.9h-251.2v-2h251.2z"/>
			</g>
			<g id="&lt;Group&gt;">
				<g id="&lt;Group&gt;">
					<path id="&lt;Path&gt;" class="s3" d="m891.2 459.6h-484.3v-306.7h484.3z"/>
					<path id="&lt;Compound Path&gt;" fill-rule="evenodd" class="s4" d="m891.2 459.6l-484.3 0.7h-0.7v-0.7l-0.3-306.7v-1h1l484.3 0.5h0.6v0.5zm0 0l-0.6-306-482.7 0.4-0.3 304.9zm-0.5-306h0.5l-0.5-0.6zm-482.7 0.4v-1l-1 1zm-0.3 304.9h-0.7l0.7 0.7z"/>
				</g>
				<g id="&lt;Group&gt;">
					<path id="&lt;Path&gt;" class="s4" d="m891.2 164.7h-484.3v-11.8h484.3z"/>
					<g id="&lt;Group&gt;">
						<path id="&lt;Path&gt;" class="s4" d="m418.8 158.8c0 1.4-1.1 2.6-2.5 2.6-1.4 0-2.6-1.2-2.6-2.6 0-1.4 1.2-2.5 2.6-2.5 1.4 0 2.5 1.1 2.5 2.5z"/>
						<path id="&lt;Path&gt;" class="s3" d="m429.2 158.8c0 1.4-1.1 2.6-2.6 2.6-1.4 0-2.5-1.2-2.5-2.6 0-1.4 1.1-2.5 2.5-2.5 1.5 0 2.6 1.1 2.6 2.5z"/>
						<path id="&lt;Path&gt;" class="s2" d="m439.6 158.8c0 1.4-1.2 2.6-2.6 2.6-1.4 0-2.5-1.2-2.5-2.6 0-1.4 1.1-2.5 2.5-2.5 1.4 0 2.6 1.1 2.6 2.5z"/>
					</g>
				</g>
				<g id="&lt;Group&gt;">
					<path id="&lt;Path&gt;" class="s0" d="m891.2 211h-484.3v-46.3h484.3z"/>
					<g id="&lt;Group&gt;">
						<g id="&lt;Group&gt;">
							<g id="&lt;Group&gt;">
								<path id="&lt;Path&gt;" class="s3" d="m861.4 193h-399v-11.2h399z"/>
								<path id="&lt;Compound Path&gt;" fill-rule="evenodd" class="s4" d="m861.5 193.2h-399.2v-11.6h399.2zm-399-0.2h398.8v-11h-398.8z"/>
							</g>
							<g id="&lt;Group&gt;">
								<g id="&lt;Group&gt;">
									<g id="&lt;Group&gt;">
										<path id="&lt;Path&gt;" class="s0" d="m471.1 189.8l-0.8 0.6-1.2-1.6-0.3-0.3-0.2-0.4q0.1-0.1 0.3-0.2 0 0 0 0 0.3-0.2 0.4-0.5l0.3 0.4 0.3 0.4z"/>
										<path id="&lt;Compound Path&gt;" class="s0" d="m469.9 188.2l-0.3-0.4q0.1-0.2 0.2-0.4l-0.3-0.4q0 0.1-0.1 0.2 0 0.1-0.1 0.2-0.1 0.3-0.4 0.5 0.1-0.1 0.1-0.1l0.3 0.3 0.3 0.4 0.9 1.2-0.1 0.1-0.9-1.2-0.3-0.4-0.3-0.3q0 0 0 0-0.2 0.1-0.3 0.2-0.1 0-0.1 0.1-0.2 0-0.4 0.1l0.3 0.3q0.2 0 0.4-0.1l0.3 0.3 1.2 1.6 0.8-0.6z"/>
									</g>
									<g id="&lt;Group&gt;">
										<path id="&lt;Compound Path&gt;" fill-rule="evenodd" class="s0" d="m469.8 187.4q-0.1 0.2-0.2 0.4-0.1 0.2-0.3 0.3-0.1 0.1-0.1 0.1 0 0.1-0.1 0.1-0.1 0.1-0.3 0.2-0.2 0.1-0.4 0.1c-0.8 0.3-1.8 0-2.3-0.7-0.8-1-0.6-2.3 0.4-3.1 0.9-0.7 2.3-0.5 3 0.4 0.5 0.7 0.6 1.5 0.3 2.2zm-0.3-0.4c0.1-0.5 0-1.1-0.3-1.5-0.6-0.8-1.7-0.9-2.4-0.3-0.8 0.6-0.9 1.6-0.4 2.4 0.4 0.4 0.9 0.7 1.4 0.7q0.2 0 0.3 0 0.2-0.1 0.4-0.1 0-0.1 0.1-0.1 0.1-0.1 0.3-0.2 0 0 0 0 0.3-0.2 0.4-0.5 0.1-0.1 0.1-0.2 0.1-0.1 0.1-0.2z"/>
										<path id="&lt;Compound Path&gt;" fill-rule="evenodd" class="s0" d="m469.6 187.8l0.3 0.4q-0.2 0.1-0.3 0.3-0.1 0-0.1 0.1-0.1 0-0.1 0-0.1 0.1-0.3 0.2l-0.3-0.3q-0.2 0.1-0.4 0.1c-0.8 0.3-1.8 0-2.3-0.7-0.8-1-0.6-2.3 0.4-3.1 0.9-0.7 2.3-0.5 3 0.4 0.5 0.7 0.6 1.5 0.3 2.2q-0.1 0.2-0.2 0.4zm-0.3-0.4q0.2-0.2 0.2-0.4c0.1-0.5 0-1.1-0.3-1.5-0.3-0.5-0.9-0.7-1.4-0.7q-0.6 0-1.1 0.4c-0.3 0.2-0.6 0.7-0.6 1.1-0.1 0.5 0 0.9 0.3 1.3 0.4 0.6 1.1 0.8 1.7 0.7q0.3-0.1 0.5-0.2 0 0 0 0 0.2-0.1 0.3-0.2 0 0 0 0 0.1 0 0.1-0.1 0.2-0.1 0.2-0.2 0.1-0.1 0.1-0.2z"/>
									</g>
								</g>
							</g>
						</g>
						<g id="&lt;Group&gt;">
							<path id="&lt;Path&gt;" class="s3" d="m421.9 191.3l-4.1-3.8 4.1-4 0.6 0.7-3.4 3.3 3.4 3.1z"/>
						</g>
						<g id="&lt;Group&gt;">
							<path id="&lt;Path&gt;" class="s3" d="m431.8 183.5l4.1 3.8-4.1 4-0.6-0.7 3.4-3.3-3.4-3.1z"/>
						</g>
						<g id="&lt;Group&gt;">
							<path id="&lt;Path&gt;" class="s5" d="m877.7 192q-0.7 0.5-1.5 0.7c-1.5 0.3-3 0.1-4.2-0.7-1.2-0.7-2.1-1.9-2.4-3.3-0.7-2.9 1.1-5.9 4-6.6 2.9-0.7 5.8 1.1 6.6 4 0.5 2.4-0.5 4.7-2.5 5.9z"/>
							<g id="&lt;Group&gt;">
								<path id="&lt;Path&gt;" class="s3" d="m876.5 186.8c0 0.9-0.7 1.6-1.6 1.6-0.9 0-1.7-0.7-1.7-1.6 0-0.9 0.8-1.7 1.7-1.7 0.9 0 1.6 0.8 1.6 1.7z"/>
								<path id="&lt;Path&gt;" class="s3" d="m877.7 191.3v0.7q-0.7 0.5-1.5 0.7c-1.5 0.3-3 0.1-4.2-0.7v-0.7c0-1.5 1.3-2.8 2.9-2.8 1.6 0 2.8 1.3 2.8 2.8z"/>
							</g>
						</g>
						<g id="&lt;Group&gt;">
							<path id="&lt;Path&gt;" class="s3" d="m448.2 192.3c-3 0-5.4-2.4-5.4-5.3 0-3 2.4-5.4 5.4-5.4 2.7 0 4.9 2 5.3 4.7l-1 0.1c-0.3-2.2-2.1-3.8-4.3-3.8-2.4 0-4.4 2-4.4 4.4 0 2.4 2 4.3 4.4 4.3 1.2 0 2.4-0.5 3.2-1.4l0.8 0.6c-1.1 1.2-2.5 1.8-4 1.8z"/>
							<g id="&lt;Group&gt;">
								<path id="&lt;Path&gt;" class="s3" d="m450.1 185l0.4-0.5 2.4 1.6 1.4-2.5 0.5 0.3-1.8 3.1z"/>
							</g>
						</g>
					</g>
					<g id="&lt;Group&gt;">
						<g id="&lt;Group&gt;">
							<path id="&lt;Path&gt;" class="s6" d="m745.5 335.4h-184.1v-25.1h184.1z"/>
							<path id="&lt;Path&gt;" class="s1" d="m745.5 335.4h-25.1v-25.1h25.1z"/>
							<g id="&lt;Group&gt;">
								<g id="&lt;Group&gt;">
									<path id="&lt;Path&gt;" class="s3" d="m740.9 329.9l-2.3 1.8-4.3-5.7-1.6-2.1q0.5-0.1 0.9-0.5c0.5-0.4 0.9-0.9 1.2-1.5l1.7 2.2z"/>
									<path id="&lt;Compound Path&gt;" fill-rule="evenodd" class="s3" d="m736.5 324.1q-0.6 0.7-1.4 1.3-0.4 0.4-0.8 0.6c-2.7 1.4-6.1 0.8-8-1.7-2.2-2.8-1.6-6.8 1.1-8.9 2.8-2.1 6.8-1.6 8.9 1.2 1.7 2.2 1.7 5.3 0.2 7.5zm-1.7-2.2c0.5-1.2 0.3-2.7-0.5-3.8-1.3-1.6-3.7-2-5.3-0.7-1.7 1.3-2 3.7-0.7 5.3 1 1.4 2.9 1.9 4.4 1.2q0.5-0.1 0.9-0.5c0.5-0.4 0.9-0.9 1.2-1.5z"/>
								</g>
							</g>
							<path id="&lt;Path&gt;" class="s7" d="m568 330.5h-1.4v-15.2h1.4z"/>
						</g>
						<path id="&lt;Path&gt;" class="s4" d="m603.9 358.7h-42.5v-13.5h42.5z"/>
						<path id="&lt;Path&gt;" class="s1" d="m674.7 358.7h-42.5v-13.5h42.5z"/>
						<path id="&lt;Path&gt;" class="s4" d="m746 358.7h-42.5v-13.5h42.5z"/>
						<path id="&lt;Path&gt;" class="s0" d="m712.1 291.3h-117.4v-8.2h117.4z"/>
					</g>
				</g>
			</g>
		</g>
		<g id="&lt;Group&gt;">
			<g id="&lt;Group&gt;">
				<path id="&lt;Compound Path&gt;" fill-rule="evenodd" class="s0" d="m1364.8 596.4l-26.3 0.6-13.3 0.2c-4.4 0.1-8.9 0.1-13.4 0.1h-0.9v-0.9l-0.1-22.3v-1h1l26.5 0.1c8.8 0 17.7 0.2 26.5 0.3h0.5v0.6c0 3.8-0.1 7.5-0.2 11.3zm0 0l-0.3-11.3c-0.1-3.6-0.2-7.1-0.3-10.6-8.6 0.2-17.3 0.4-25.9 0.4l-25.5 0.1-0.1 20.5c4.1 0 8.1 0 12.2 0.1l13.2 0.2zm-0.6-21.8q0.3 0 0.6 0l-0.6-0.6q0 0.3 0 0.6zm-51.4 0.4v-1l-1 1zm-0.1 20.5q-0.4 0-0.9 0l0.9 0.9z"/>
			</g>
			<g id="&lt;Group&gt;">
				<path id="&lt;Compound Path&gt;" fill-rule="evenodd" class="s0" d="m1335.2 624.7l-26.2 0.5-13.3 0.2c-4.5 0.1-9 0.1-13.4 0.2h-0.9v-0.9l-0.1-22.4v-1h1l26.5 0.1c8.8 0 17.6 0.2 26.4 0.3h0.6v0.6c0 3.8-0.2 7.6-0.3 11.3zm0 0l-0.3-11.3c0-3.5-0.2-7.1-0.2-10.5-8.7 0.1-17.3 0.3-26 0.3l-25.4 0.1-0.1 20.5c4 0 8.1 0 12.2 0.1l13.1 0.2zm-0.5-21.8q0.2 0 0.5 0l-0.5-0.5q0 0.2 0 0.5zm-51.4 0.5v-1l-1 1zm-0.1 20.5q-0.5 0-0.9 0l0.9 0.8z"/>
			</g>
			<g id="&lt;Group&gt;">
				<path id="&lt;Compound Path&gt;" fill-rule="evenodd" class="s0" d="m188.2 596.4l-26.3 0.6-13.3 0.2c-4.5 0.1-8.9 0.1-13.4 0.1h-0.9v-0.9l-0.1-22.3v-1h1l26.5 0.1c8.8 0 17.6 0.2 26.5 0.3h0.5v0.6c0 3.8-0.2 7.5-0.2 11.3zm0 0l-0.3-11.3c-0.1-3.6-0.2-7.1-0.3-10.6-8.6 0.2-17.3 0.4-25.9 0.4l-25.5 0.1-0.1 20.5c4.1 0 8.1 0 12.2 0.1l13.1 0.2zm-0.5-21.8q0.3 0 0.5 0l-0.5-0.6q0 0.3 0 0.6zm-51.4 0.4v-1l-1 1zm-0.1 20.5q-0.5 0-0.9 0l0.9 0.9z"/>
			</g>
			<g id="&lt;Group&gt;">
				<path id="&lt;Compound Path&gt;" fill-rule="evenodd" class="s0" d="m158.6 624.7l-26.2 0.5-13.3 0.2c-4.5 0.1-9 0.1-13.4 0.2h-0.9v-0.9l-0.1-22.4v-1h1l26.4 0.1c8.9 0 17.7 0.2 26.5 0.3h0.6v0.6c-0.1 3.8-0.2 7.6-0.3 11.3zm0 0l-0.3-11.3c-0.1-3.5-0.2-7.1-0.2-10.5-8.7 0.1-17.3 0.3-26 0.3l-25.5 0.1-0.1 20.5c4.1 0 8.2 0 12.2 0.1l13.2 0.2zm-0.5-21.8q0.2 0 0.5 0l-0.5-0.5q0 0.2 0 0.5zm-51.5 0.5v-1l-1 1zm-0.1 20.5q-0.4 0-0.9 0l0.9 0.8z"/>
			</g>
			<g id="&lt;Group&gt;">
				<path id="&lt;Compound Path&gt;" fill-rule="evenodd" class="s0" d="m1394.3 624.7l-26.2 0.5-13.3 0.2c-4.5 0.1-9 0.1-13.4 0.2h-0.9v-0.9l-0.1-22.4v-1h1l26.5 0.1c8.8 0 17.6 0.2 26.4 0.3h0.6v0.6c-0.1 3.8-0.2 7.6-0.3 11.3zm0 0l-0.3-11.3c-0.1-3.5-0.2-7.1-0.2-10.5-8.7 0.1-17.3 0.3-26 0.3l-25.5 0.1v20.5c4 0 8.1 0 12.1 0.1l13.2 0.2zm-0.5-21.8q0.2 0 0.5 0l-0.5-0.5q0 0.2 0 0.5zm-51.5 0.5v-1l-1 1zm-0.1 20.5q-0.4 0-0.8 0l0.8 0.8z"/>
			</g>
			<g id="&lt;Group&gt;">
				<path id="&lt;Compound Path&gt;" fill-rule="evenodd" class="s0" d="m515.8 514.3l-26.3 0.5-13.3 0.2c-4.4 0.1-8.9 0.1-13.4 0.2h-0.9v-0.9l-0.1-22.4v-1h1l26.5 0.1c8.8 0 17.7 0.2 26.5 0.3h0.5v0.6c0 3.8-0.1 7.6-0.2 11.3zm0 0l-0.3-11.3c-0.1-3.6-0.2-7.1-0.3-10.5-8.6 0.1-17.3 0.3-25.9 0.3l-25.5 0.1-0.1 20.5c4.1 0 8.1 0 12.2 0.1l13.2 0.2zm-0.6-21.8q0.3 0 0.6 0l-0.6-0.5q0 0.2 0 0.5zm-51.4 0.5v-1l-1 1zm-0.1 20.5q-0.4 0-0.9 0l0.9 0.8z"/>
			</g>
			<g id="&lt;Group&gt;">
				<path id="&lt;Compound Path&gt;" fill-rule="evenodd" class="s0" d="m486.3 542.5l-26.3 0.5-13.3 0.3c-4.5 0.1-8.9 0-13.4 0.1h-0.9v-0.9l-0.1-22.4v-1h1l26.5 0.1c8.8 0 17.6 0.3 26.5 0.4h0.5v0.5c0 3.8-0.2 7.6-0.3 11.3zm0 0l-0.2-11.3c-0.1-3.5-0.3-7-0.3-10.5-8.6 0.1-17.3 0.3-25.9 0.3l-25.5 0.1-0.1 20.5c4 0.1 8.1 0 12.2 0.1l13.1 0.3zm-0.5-21.9q0.3 0 0.5 0l-0.5-0.5q0 0.3 0 0.5zm-51.4 0.5v-1l-1 1zm-0.1 20.5q-0.5 0-0.9 0l0.9 0.9z"/>
			</g>
			<g id="&lt;Group&gt;">
				<path id="&lt;Compound Path&gt;" fill-rule="evenodd" class="s0" d="m545.3 542.5l-26.2 0.5-13.3 0.3c-4.5 0.1-9 0-13.4 0.1h-0.9v-0.9l-0.1-22.4v-1h1l26.5 0.1c8.8 0 17.6 0.3 26.4 0.4h0.6v0.5c-0.1 3.8-0.2 7.6-0.3 11.3zm0 0l-0.3-11.3c0-3.5-0.2-7-0.2-10.5-8.7 0.1-17.3 0.3-26 0.3l-25.4 0.1-0.1 20.5c4 0.1 8.1 0 12.2 0.1l13.1 0.3zm-0.5-21.9q0.2 0 0.5 0l-0.5-0.5q0 0.3 0 0.5zm-51.5 0.5l0.1-1-1 1zm-0.1 20.5q-0.5 0-0.9 0l0.8 0.9z"/>
			</g>
			<g id="&lt;Group&gt;">
				<path id="&lt;Compound Path&gt;" fill-rule="evenodd" class="s0" d="m1095.8 330.1l-26.3 0.6-13.3 0.2c-4.5 0.1-8.9 0.1-13.4 0.1h-0.9v-0.9l-0.1-22.4v-1h1l26.5 0.2c8.8 0 17.6 0.2 26.5 0.3h0.5v0.5c0 3.8-0.2 7.6-0.2 11.3zm0 0l-0.3-11.3c-0.1-3.5-0.2-7-0.3-10.5-8.6 0.1-17.3 0.3-25.9 0.3l-25.5 0.2-0.1 20.5c4.1 0 8.1 0 12.2 0.1l13.1 0.2zm-0.5-21.8q0.3 0 0.5 0l-0.5-0.6q0 0.3 0 0.6zm-51.4 0.4v-1l-1 1zm-0.1 20.5q-0.5 0-0.9 0l0.9 0.9z"/>
			</g>
			<g id="&lt;Group&gt;">
				<path id="&lt;Compound Path&gt;" fill-rule="evenodd" class="s0" d="m1361.7 112.8l-26.2 0.5-13.3 0.2c-4.5 0.1-9 0.1-13.4 0.2h-0.9v-0.9l-0.1-22.4v-1h1l26.4 0.1c8.9 0 17.7 0.2 26.5 0.3h0.6v0.6c-0.1 3.8-0.2 7.6-0.3 11.3zm0 0l-0.3-11.3c-0.1-3.6-0.2-7.1-0.2-10.5-8.7 0.1-17.3 0.3-26 0.3l-25.5 0.1-0.1 20.5c4.1 0 8.2 0 12.2 0.1l13.2 0.2zm-0.5-21.8q0.2 0 0.5 0l-0.5-0.5q0 0.2 0 0.5zm-51.5 0.4v-0.9l-1 0.9zm-0.1 20.5q-0.4 0-0.9 0l0.9 0.9z"/>
			</g>
			<g id="&lt;Group&gt;">
				<path id="&lt;Compound Path&gt;" fill-rule="evenodd" class="s0" d="m1391.3 141l-26.3 0.5-13.3 0.3c-4.5 0.1-8.9 0-13.4 0.1h-0.9v-0.9l-0.1-22.4v-1h1l26.5 0.1c8.8 0 17.6 0.3 26.5 0.4h0.5v0.5c0 3.8-0.2 7.6-0.2 11.3zm0 0l-0.3-11.3c-0.1-3.5-0.2-7-0.3-10.5-8.6 0.1-17.3 0.3-25.9 0.3l-25.5 0.1-0.1 20.5c4.1 0 8.1 0 12.2 0.1l13.1 0.2zm-0.5-21.8q0.3 0 0.5 0l-0.5-0.5q0 0.2 0 0.5zm-51.4 0.5v-1l-1 1zm-0.1 20.5q-0.5 0-0.9 0l0.9 0.9z"/>
			</g>
			<g id="&lt;Group&gt;">
				<path id="&lt;Compound Path&gt;" fill-rule="evenodd" class="s0" d="m158.7 112.8l-26.2 0.5-13.4 0.3c-4.4 0.1-8.9 0-13.3 0.1h-0.9v-0.9l-0.1-22.4v-1h1l26.4 0.1c8.9 0 17.7 0.3 26.5 0.4h0.6v0.5c-0.1 3.8-0.2 7.6-0.3 11.3zm0 0l-0.3-11.3c-0.1-3.5-0.2-7-0.2-10.5-8.7 0.1-17.3 0.3-26 0.3l-25.5 0.1-0.1 20.5c4.1 0.1 8.2 0 12.2 0.1l13.2 0.3zm-0.5-21.9q0.2 0 0.5 0l-0.6-0.5q0 0.3 0.1 0.5zm-51.5 0.5v-1l-1 1zm-0.1 20.5q-0.4 0-0.9 0l0.9 0.9z"/>
			</g>
		</g>
		<g id="&lt;Group&gt;">
			<g id="&lt;Group&gt;">
				<g id="&lt;Group&gt;">
					<path id="&lt;Path&gt;" class="s0" d="m1270.2 827.6h-195.5v-243.8h195.5z"/>
					<path id="&lt;Path&gt;" class="s5" d="m1279.7 583.8h-214.5v-10h214.5z"/>
					<path id="&lt;Path&gt;" class="s0" d="m1347.2 583.8h-67.5v-10h67.5z"/>
					<path id="&lt;Path&gt;" class="s5" d="m1336.5 827.6h-66.3v-243.8h66.3z"/>
					<g id="&lt;Group&gt;">
						<path id="&lt;Path&gt;" class="s8" d="m1248.9 697.8h-152.9v-86.2h152.9z"/>
						<g id="&lt;Group&gt;">
							<path id="&lt;Path&gt;" class="s4" d="m1180.9 653.8h-29.9v-17.1h29.9z"/>
							<path id="&lt;Path&gt;" class="s8" d="m1189.8 652.5h-29.9v-14.5h29.9z"/>
						</g>
					</g>
					<g id="&lt;Group&gt;">
						<path id="&lt;Path&gt;" class="s8" d="m1248.9 806.8h-152.9v-86.3h152.9z"/>
						<g id="&lt;Group&gt;">
							<path id="&lt;Path&gt;" class="s4" d="m1180.9 762.8h-29.9v-17.2h29.9z"/>
							<path id="&lt;Path&gt;" class="s8" d="m1189.8 761.5h-29.9v-14.6h29.9z"/>
						</g>
					</g>
				</g>
			</g>
		</g>
	</g>
	<g id="Shadow">
		<g id="&lt;Group&gt;">
			<path id="&lt;Path&gt;" class="s0" d="m1057 903.8c0 20.4-137.4 36.9-307 36.9-169.6 0-307-16.5-307-36.9 0-20.3 137.4-36.9 307-36.9 169.6 0 307 16.6 307 36.9z"/>
		</g>
	</g>
	<g id="Floor">
		<g id="&lt;Group&gt;">
			<path id="&lt;Path&gt;" class="s7" d="m117.8 827.6l158-0.5 158.1-0.2 316.1-0.3 316.1 0.3 158.1 0.2 158 0.5-158 0.5-158.1 0.1-316.1 0.4-316.1-0.4-158.1-0.1z"/>
		</g>
	</g>
	<g id="Lines">
		<g id="&lt;Group&gt;">
			<g id="&lt;Group&gt;">
				<g id="&lt;Group&gt;">
					<path id="&lt;Path&gt;" class="s7" d="m504.5 188.2c-0.8-2.1-1-4.2-1-6.3 0-2.2 0.2-4.3 1-6.4 0.8 2.1 1 4.2 1 6.4 0 2.1-0.2 4.2-1 6.3z"/>
				</g>
				<g id="&lt;Group&gt;">
					<path id="&lt;Path&gt;" class="s7" d="m491.6 191.9c-1.7-1.4-2.9-3.2-4-5-1.1-1.8-2-3.7-2.3-6 1.7 1.5 2.9 3.2 4 5 1 1.9 1.9 3.8 2.3 6z"/>
				</g>
				<g id="&lt;Group&gt;">
					<path id="&lt;Path&gt;" class="s7" d="m482.3 201.6c-2.2-0.4-4.1-1.3-6-2.3-1.8-1.1-3.5-2.3-5-4.1 2.3 0.4 4.2 1.3 6 2.3 1.8 1.1 3.6 2.3 5 4.1z"/>
				</g>
				<g id="&lt;Group&gt;">
					<path id="&lt;Path&gt;" class="s7" d="m479.1 214.6c-2.1 0.8-4.3 0.9-6.4 1-2.1-0.1-4.2-0.2-6.3-1 2.1-0.8 4.2-1 6.3-1 2.1 0 4.3 0.2 6.4 1z"/>
				</g>
				<g id="&lt;Group&gt;">
					<path id="&lt;Path&gt;" class="s7" d="m482.8 227.5c-1.5 1.7-3.2 2.9-5 4-1.8 1-3.8 1.9-6 2.3 1.4-1.8 3.2-3 5-4 1.8-1.1 3.8-2 6-2.3z"/>
				</g>
				<g id="&lt;Group&gt;">
					<path id="&lt;Path&gt;" class="s7" d="m492.4 236.8c-0.3 2.2-1.2 4.1-2.3 6-1 1.8-2.3 3.5-4 4.9 0.4-2.2 1.3-4.1 2.3-6 1.1-1.8 2.3-3.5 4-4.9z"/>
				</g>
				<g id="&lt;Group&gt;">
					<path id="&lt;Path&gt;" class="s7" d="m505.5 240c0.7 2.1 0.9 4.2 1 6.3-0.1 2.1-0.3 4.2-1.1 6.4-0.7-2.2-0.9-4.3-0.9-6.4 0-2.1 0.2-4.2 1-6.3z"/>
				</g>
				<g id="&lt;Group&gt;">
					<path id="&lt;Path&gt;" class="s7" d="m518.4 236.3c1.7 1.4 2.9 3.2 4 5 1 1.8 1.9 3.7 2.3 6-1.8-1.5-3-3.2-4.1-5-1-1.9-1.9-3.8-2.2-6z"/>
				</g>
				<g id="&lt;Group&gt;">
					<path id="&lt;Path&gt;" class="s7" d="m527.7 226.6c2.2 0.4 4.1 1.3 5.9 2.3 1.8 1.1 3.6 2.3 5 4.1-2.2-0.4-4.1-1.3-6-2.3-1.8-1.1-3.5-2.3-4.9-4.1z"/>
				</g>
				<g id="&lt;Group&gt;">
					<path id="&lt;Path&gt;" class="s7" d="m530.9 213.6c2.1-0.8 4.2-1 6.3-1 2.1 0 4.2 0.2 6.3 1-2.1 0.8-4.2 1-6.3 1-2.1 0-4.2-0.2-6.3-1z"/>
				</g>
				<g id="&lt;Group&gt;">
					<path id="&lt;Path&gt;" class="s7" d="m527.2 200.7c1.4-1.7 3.1-2.9 5-4 1.8-1 3.7-1.9 5.9-2.3-1.4 1.7-3.1 2.9-4.9 4-1.9 1-3.8 1.9-6 2.3z"/>
				</g>
				<g id="&lt;Group&gt;">
					<path id="&lt;Path&gt;" class="s7" d="m517.5 191.4c0.4-2.2 1.3-4.1 2.3-6 1.1-1.8 2.3-3.5 4.1-4.9-0.4 2.2-1.3 4.1-2.4 5.9-1 1.8-2.2 3.6-4 5z"/>
				</g>
			</g>
			<g id="&lt;Group&gt;">
				<g id="&lt;Group&gt;">
					<path id="&lt;Path&gt;" class="s7" d="m918.5 367.6c-0.8-2.1-0.9-4.2-1-6.3 0.1-2.1 0.2-4.2 1-6.3 0.8 2.1 1 4.2 1 6.3 0 2.1-0.2 4.2-1 6.3z"/>
				</g>
				<g id="&lt;Group&gt;">
					<path id="&lt;Path&gt;" class="s7" d="m905.6 371.3c-1.7-1.4-2.9-3.1-4-5-1-1.8-1.9-3.7-2.3-5.9 1.8 1.4 3 3.1 4 4.9 1.1 1.9 2 3.8 2.3 6z"/>
				</g>
				<g id="&lt;Group&gt;">
					<path id="&lt;Path&gt;" class="s7" d="m896.3 381c-2.2-0.4-4.1-1.3-5.9-2.3-1.9-1.1-3.6-2.3-5-4.1 2.2 0.4 4.1 1.3 6 2.4 1.8 1 3.5 2.2 4.9 4z"/>
				</g>
				<g id="&lt;Group&gt;">
					<path id="&lt;Path&gt;" class="s7" d="m893.1 394c-2.1 0.8-4.2 1-6.3 1-2.1 0-4.2-0.2-6.4-1 2.2-0.8 4.3-1 6.4-1 2.1 0 4.2 0.2 6.3 1z"/>
				</g>
				<g id="&lt;Group&gt;">
					<path id="&lt;Path&gt;" class="s7" d="m896.8 406.9c-1.4 1.7-3.2 2.9-5 4-1.8 1-3.7 1.9-6 2.3 1.5-1.7 3.2-2.9 5-4 1.9-1 3.8-1.9 6-2.3z"/>
				</g>
				<g id="&lt;Group&gt;">
					<path id="&lt;Path&gt;" class="s7" d="m906.5 416.2c-0.4 2.2-1.3 4.1-2.3 6-1.1 1.8-2.3 3.5-4.1 5 0.4-2.3 1.3-4.2 2.3-6 1.1-1.8 2.3-3.6 4.1-5z"/>
				</g>
				<g id="&lt;Group&gt;">
					<path id="&lt;Path&gt;" class="s7" d="m919.5 419.4c0.8 2.1 1 4.3 1 6.4 0 2.1-0.2 4.2-1 6.3-0.8-2.1-1-4.2-1-6.3 0-2.2 0.2-4.3 1-6.4z"/>
				</g>
				<g id="&lt;Group&gt;">
					<path id="&lt;Path&gt;" class="s7" d="m932.4 415.7c1.7 1.5 2.9 3.2 4 5 1 1.8 1.9 3.8 2.3 6-1.7-1.4-2.9-3.2-4-5-1-1.8-1.9-3.8-2.3-6z"/>
				</g>
				<g id="&lt;Group&gt;">
					<path id="&lt;Path&gt;" class="s7" d="m941.7 406.1c2.2 0.3 4.1 1.2 6 2.3 1.8 1 3.5 2.3 4.9 4-2.2-0.4-4.1-1.3-5.9-2.3-1.8-1.1-3.6-2.3-5-4z"/>
				</g>
				<g id="&lt;Group&gt;">
					<path id="&lt;Path&gt;" class="s7" d="m944.9 393c2.1-0.7 4.2-0.9 6.4-1 2.1 0.1 4.2 0.3 6.3 1.1-2.1 0.7-4.2 0.9-6.4 0.9-2.1 0-4.2-0.2-6.3-1z"/>
				</g>
				<g id="&lt;Group&gt;">
					<path id="&lt;Path&gt;" class="s7" d="m941.2 380.1c1.4-1.7 3.2-2.9 5-4 1.8-1 3.8-1.9 6-2.3-1.5 1.8-3.2 3-5 4.1-1.9 1-3.8 1.9-6 2.2z"/>
				</g>
				<g id="&lt;Group&gt;">
					<path id="&lt;Path&gt;" class="s7" d="m931.5 370.8c0.4-2.2 1.3-4.1 2.4-5.9 1-1.8 2.2-3.6 4-5-0.4 2.2-1.3 4.1-2.3 6-1.1 1.8-2.3 3.5-4.1 4.9z"/>
				</g>
			</g>
		</g>
	</g>
	<g id="Plant">
		<g id="&lt;Group&gt;">
			<g id="&lt;Group&gt;">
				<g id="&lt;Group&gt;">
					<path id="&lt;Path&gt;" class="s2" d="m194.1 514.6c0 0-43.9-6.2-33.7-59.2 0 0 49.1 11 33.7 59.2z"/>
					<path id="&lt;Path&gt;" class="s9" d="m194.1 514.6c0 0-43.9-6.2-33.7-59.2 0 0 49.1 11 33.7 59.2z"/>
					<path id="&lt;Path&gt;" class="s7" d="m191.9 503.5q-1.3-4-3-7.9-0.1-0.5-0.1-1-0.1-1.1-0.2-2.2-0.2-2.4-0.3-4.7c-0.2-3.2-0.4-6.4-0.5-9.6 0-0.1-0.2-0.1-0.2 0-0.1 3.2-0.1 6.4 0 9.6q0.1 2.3 0.3 4.7 0 0.6 0 1.1c-2.4-5.3-5.4-10.4-8.8-15.1q-2.2-3.1-4.8-6.1c-1.7-2-3.6-3.9-5.3-5.9-0.2-0.1-0.3 0.1-0.2 0.2 3.2 3.4 5.9 7.4 8.4 11.3q2 3 3.8 6.2-0.2-0.1-0.4-0.2-0.7-0.3-1.5-0.6-1.8-0.7-3.6-1.4-3.6-1.3-7.1-2.6c-0.1-0.1-0.2 0.2-0.1 0.2q3.5 1.5 7 3 1.7 0.7 3.4 1.4 0.8 0.4 1.7 0.7c0.4 0.2 0.8 0.4 1.2 0.4 0.8 1.6 1.7 3.2 2.5 4.9 2.1 4.1 3.9 8.3 5.4 12.6q0.2 0.5 0.3 0.9c-1.1-0.7-2.5-1.2-3.6-1.7q-2.3-1-4.5-2.1c-3.1-1.4-6.2-2.8-9.1-4.5-0.2-0.1-0.3 0.2-0.2 0.2 3.1 1.7 6 3.4 9 5.1q2.3 1.2 4.6 2.3c1.3 0.7 2.7 1.5 4.1 1.7 1.4 4.1 2.6 8.2 2.9 12.5 0.5 6 0.5 12 0.6 18 0 0.1 0.2 0.1 0.2 0 0.4-5.4 0.6-10.9 0.7-16.4 0-5.2-1-10.1-2.6-15z"/>
					<path id="&lt;Path&gt;" class="s7" d="m185.1 472.3c-0.3 3.1-0.6 6.3-0.4 9.4 0 0.1 0.1 0 0.1 0 0.2-3.1 0.2-6.2 0.6-9.3 0-0.2-0.3-0.3-0.3-0.1z"/>
					<path id="&lt;Path&gt;" class="s7" d="m172.6 475c-2-0.9-3.9-1.6-5.7-2.8-0.1-0.1-0.3 0.1-0.1 0.2 1.7 1.1 3.6 2.2 5.7 2.8 0.1 0 0.2-0.2 0.1-0.2z"/>
				</g>
				<path id="&lt;Path&gt;" class="s7" d="m195.5 598.8c0-4.9-0.1-9.7-0.2-14.6-0.1-16.1-0.2-32.2-0.5-48.4q-0.3-19.2-0.9-38.4 0-0.1-0.1-0.1 0-5.3-0.1-10.5c0-0.1-0.1-0.1-0.2-0.1-0.1 0-0.2 0-0.2 0.1q0 5.3 0 10.5-0.1 0.1-0.1 0.2c-0.7 22.7-1.3 45.5-1.4 68.3q0 7 0 13.9-0.3 22.3-0.2 44.6 0 3.5-0.1 7.1c0 13.6 0.2 27.1 0.2 40.7 0 0.8 0.8 1.1 1.7 1.2 0.9 0 2-0.4 2-1.2 0-15 0.1-30 0.1-45 0-9.4 0.1-18.9 0-28.3z"/>
				<g id="&lt;Group&gt;">
					<path id="&lt;Path&gt;" class="s2" d="m177.2 584c0 0-21.2-15.6-41.2-5.1-20.1 10.6-23.2 51.4-23.2 51.4 0 0 29.4 4.2 48-13.4 17.8-17 16.4-32.9 16.4-32.9z"/>
					<path id="&lt;Path&gt;" class="s7" d="m182.9 585c-3.8-1.6-8.1-2-12.2-1.6-0.9-0.2-1.8-0.2-2.6-0.3q-1.5-0.1-3-0.2c-2-0.1-4.1-0.3-6.2-0.4-4.1-0.3-8.3-0.6-12.5-1-0.1 0-0.1 0.2 0 0.3 4.1 0.5 8.2 1.1 12.4 1.5 2.1 0.2 4.2 0.4 6.3 0.6q0.8 0 1.6 0.1-1 0.2-1.9 0.5c-3.3 0.9-6.5 2.3-9.6 3.9-1.6 0.3-3.3 0.7-4.9 1.1q-3.9 1-7.8 2c-5.2 1.3-10.3 2.9-15.3 4.3-0.2 0.1-0.1 0.3 0 0.3 5.1-1.2 10.2-2.4 15.3-3.6q3.8-0.9 7.5-1.8 0.9-0.2 1.9-0.4c-5.7 3.5-10.8 8-15 13-4.2 5.1-7.6 10.6-10.5 16.5 0 0.1 0.2 0.3 0.3 0.1 3.4-6 7.7-11.6 12.6-16.5q-0.1 0.4-0.3 0.8-0.6 1.9-1.1 3.7-1.2 3.8-2.4 7.5c0 0.2 0.2 0.2 0.3 0.1q1.3-3.7 2.6-7.3 0.6-1.8 1.2-3.6 0.4-0.9 0.7-1.8 0.1-0.3 0.2-0.6c2.4-2.3 4.8-4.4 7.5-6.4 3.4-2.5 7.2-4.7 11.2-6.4q-0.1 0.5-0.2 1.1-0.3 1.4-0.6 2.9-0.7 3-1.2 6c-0.8 4.1-1.3 8.2-2.1 12.3 0 0.2 0.2 0.2 0.3 0.1 0.9-4.1 2.1-8.2 3.1-12.3q0.6-3.1 1.3-6.2 0.3-1.5 0.6-2.9c0.1-0.5 0.2-1.1 0.3-1.6q0.6-0.3 1.1-0.5c5.6-2 11.7-3.5 17.6-2.4 5.7 1.1 10.5 4.9 12.7 10.2 0.2 0.4 1 0.2 0.8-0.3-1.1-5.1-5.3-8.9-10-10.8z"/>
					<path id="&lt;Path&gt;" class="s7" d="m150.6 602.4q-0.9 4-1.8 8c-0.6 2.6-1.3 5.2-1.5 7.9 0 0.1 0.1 0.1 0.2 0 0.8-2.5 1.3-5.3 1.8-7.9q0.8-4 1.5-7.9c0.1-0.2-0.2-0.3-0.2-0.1z"/>
					<path id="&lt;Path&gt;" class="s7" d="m130.1 609.2c-2.7 1.4-5.3 2.9-8.1 4-0.2 0.1 0 0.4 0.1 0.3 2.7-1.4 5.5-2.6 8.1-4.2 0.1 0 0-0.1-0.1-0.1z"/>
				</g>
				<g id="&lt;Group&gt;">
					<path id="&lt;Path&gt;" class="s2" d="m181.9 555.3c0 0-25.8 1.6-37.8-15.4-12.1-17-9.4-41.4-9.4-41.4 0 0 27.2 3.3 37.9 15.6 10.8 12.2 9.3 41.2 9.3 41.2z"/>
					<path id="&lt;Path&gt;" class="s7" d="m194 580.8c-0.9-2.8-2-5.5-3-8.3q-1.5-3.9-3.2-7.7c-2.4-5.2-4.9-10.3-7.8-15.2-1.8-3.1-3.7-6.2-5.8-9.2 0-0.5-0.1-0.9-0.2-1.4q-0.1-1.2-0.3-2.4-0.4-2.4-0.8-4.9c-0.6-3.5-1.4-7.1-1.9-10.6-0.1-0.2-0.3-0.2-0.3 0 0.5 3.5 0.9 7 1.4 10.6q0.3 2.6 0.7 5.2 0.1 0.9 0.3 1.8-5.9-8.6-12.8-16.5-0.9-1.1-1.9-2.2-0.1-0.2-0.2-0.5-0.3-0.8-0.6-1.5-0.5-1.6-1.1-3.1-1.1-3-1.9-6.1c-0.1-0.2-0.3-0.1-0.3 0q0.8 3.2 1.7 6.4 0.5 1.5 1 3 0.1 0.2 0.2 0.5c-3.3-3.6-6.8-7.1-10.2-10.5-0.2-0.2-0.3 0-0.2 0.2 6.7 6.9 12.7 14.5 18.3 22.4q-1-0.3-1.9-0.5c-2-0.4-4-0.7-6-0.9-4.2-0.6-8.4-1.1-12.6-1.8-0.2 0-0.3 0.3-0.1 0.3 4 0.8 8 1.7 12 2.6 1.8 0.4 3.7 0.8 5.6 1.2 1.6 0.3 3 0.8 4.5 1.3q0.7 0.9 1.3 1.8 2.8 4.1 5.5 8.4-1.3-0.3-2.6-0.5-3-0.6-6-1.1c-4-0.7-7.9-1.4-11.8-2.2-0.2-0.1-0.3 0.2-0.1 0.2 4 0.9 7.9 2 11.8 3.1q2.8 0.7 5.7 1.4 1.4 0.3 2.9 0.6c0.4 0.1 0.8 0.2 1.1 0.2q5.7 9.2 10.6 18.7 2.2 4.3 4.2 8.6c1.4 2.9 2.6 5.9 3.8 8.9 0.3 0.5 1.2 0.3 1-0.3z"/>
					<path id="&lt;Path&gt;" class="s7" d="m167.6 521.4q-0.7-3.7-1.6-7.4c0-0.1-0.3-0.1-0.2 0.1q0.7 3.6 1.4 7.3c0.4 2.4 0.8 4.9 1.4 7.2 0 0.1 0.1 0 0.1 0-0.1-2.4-0.6-4.8-1.1-7.2z"/>
					<path id="&lt;Path&gt;" class="s7" d="m152.5 520.7c-1.2-0.6-2.4-1.1-3.7-1.6q-1-0.4-1.9-0.8-0.5-0.1-1-0.3c-0.4-0.2-0.8-0.3-1.1-0.5-0.2-0.2-0.4 0.2-0.2 0.2 0.4 0.1 0.8 0.3 1.1 0.5q0.5 0.2 1 0.4 1 0.4 1.9 0.8c1.3 0.6 2.5 1.1 3.8 1.5 0.2 0.1 0.3-0.1 0.1-0.2z"/>
				</g>
				<g id="&lt;Group&gt;">
					<path id="&lt;Path&gt;" class="s2" d="m208.3 535c0 0 15.7-29.2 39.5-33.8 23.7-4.5 38.3 20 38.3 20 0 0-17.4 22.1-39.2 26-21.8 3.9-38.6-12.2-38.6-12.2z"/>
					<path id="&lt;Path&gt;" class="s7" d="m263.7 514.3c-6.2-0.8-12.5-0.7-18.7 0.3q0.6-0.3 1.1-0.6 2.6-1.4 5.3-2.7c3.6-1.9 7.3-4 11.1-5.5 0.2-0.1 0.1-0.3-0.1-0.2-3.7 1.7-7.5 3.2-11.3 4.9q-2.8 1.3-5.5 2.7c-1.2 0.6-2.5 1.2-3.6 1.9-5.2 1.1-10.3 2.8-15.1 5.1q1.5-1.7 2.9-3.3c2.3-2.4 4.4-5 6.9-7.2 0.1-0.1-0.1-0.3-0.2-0.1-2.5 2.2-5.1 4.3-7.6 6.7q-1.7 1.7-3.3 3.5-0.9 0.9-1.6 1.9c-10.4 5.6-19.2 14.1-25 24.3-3.3 5.9-5.6 12.2-6.9 18.7-0.1 0.2 0.2 0.3 0.2 0.1 3.3-11 9.5-21.4 17.5-29.6 8.7-8.9 19.8-15.3 31.9-18.4 7.1-1.8 14.6-2.5 22-2 0.3 0 0.3-0.4 0-0.5z"/>
					<path id="&lt;Path&gt;" class="s9" d="m286.1 521.2c0 0-17.4 22.1-39.2 26-16.6 3-30.3-5.7-35.9-10l-1.2-2c0 0 11.3-9.5 32.6-14.9 21.3-5.5 43.7 0.9 43.7 0.9z"/>
					<path id="&lt;Path&gt;" class="s7" d="m249.9 503.9c-1.8 1.1-3.6 2.2-5.3 3.5-1.7 1.3-3.2 2.7-4.6 4.2-0.1 0.1 0.1 0.3 0.2 0.2 1.6-1.4 3.2-2.7 4.8-4 1.6-1.3 3.3-2.6 5-3.7 0.2 0 0-0.3-0.1-0.2z"/>
					<path id="&lt;Path&gt;" class="s7" d="m262.9 508.9c-0.9 0.3-1.8 0.6-2.6 1q-1.4 0.6-2.7 1.1c-0.2 0.1-0.1 0.4 0.1 0.3q1.3-0.5 2.7-1.1c0.9-0.3 1.7-0.7 2.6-1.1 0.2 0 0.1-0.3-0.1-0.2z"/>
				</g>
				<g id="&lt;Group&gt;">
					<path id="&lt;Path&gt;" class="s2" d="m205.2 571.7c0 0 4.2 29 26 39.1 21.8 10.1 48.3 0 48.3 0 0 0-10.4-62.7-74.3-39.1z"/>
					<path id="&lt;Path&gt;" class="s7" d="m264.5 592c-2-0.3-4-0.6-6-1q-1.5-0.2-2.9-0.5-0.8-0.2-1.5-0.3-0.9-0.9-1.8-1.7c-4.1-3.6-8.6-6.8-13.3-9.6q-3.9-2.3-8-4.1 0.2 0 0.4 0 3.6 0.1 7.2 0.3c4.7 0.2 9.5 0.3 14.3 0.6 0.2 0.1 0.2-0.2 0-0.2-4.8-0.3-9.6-0.9-14.4-1.3q-3.4-0.3-6.9-0.6-1.8-0.2-3.6-0.3-0.5-0.1-0.9-0.1-1.9-0.7-3.8-1.3c-5.9-1.9-12.3-2.6-18.4-1-5.5 1.4-11 5-12.4 10.7-0.1 0.2 0.3 0.4 0.3 0.2 2.1-4.9 7.4-7.3 12.3-8.3 3.2-0.7 6.6-0.6 9.8-0.2 0.2 1.5 0.7 3 1.1 4.4q0.9 3.1 1.9 6.1c1.2 4.1 2.6 8.1 3.8 12.2 0 0.2 0.3 0.1 0.2-0.1-1-4.1-1.9-8.2-2.8-12.2q-0.8-3-1.5-6c-0.3-1.3-0.6-2.8-1.1-4.1q2.9 0.5 5.6 1.3 5.1 1.5 9.9 3.6c0.3 2.1 0.8 4.1 1.3 6.2 0.6 2.5 1.2 5 2 7.5 0.1 0.2 0.3 0.1 0.3 0q-0.1-0.3-0.1-0.5 0 0 0 0-0.8-3.6-1.5-7.1c-0.4-1.9-0.8-3.8-1.2-5.7q4 1.8 7.9 4c0.1 0.6 0.2 1.2 0.3 1.7q0.2 1.5 0.5 3 0.6 3.3 1.4 6.7c1 4.2 2.2 8.5 3.8 12.6q-0.1 0 0 0.1 0 0.1 0.1 0.2c0.1 0.1 0.2 0 0.2-0.2-1-4.3-2.2-8.5-3.1-12.8q-0.7-3.2-1.4-6.5-0.3-1.6-0.6-3.2-0.1-0.5-0.1-1 4.4 2.6 8.4 5.7c4.7 3.5 9.1 7.5 13 11.8 0.2 0.2 0.5-0.1 0.3-0.2-1.6-2.2-3.3-4.4-5.2-6.4q-1.6-1.7-3.3-3.4 0.1 0 0.3 0.1 1.5 0.2 3.1 0.4c2 0.3 4 0.5 6 0.7 0.2 0 0.3-0.2 0.1-0.2z"/>
					<path id="&lt;Path&gt;" class="s7" d="m249.2 601.8q0 0 0 0-0.1-0.4-0.1-0.8c-0.1-0.3-0.2-0.6-0.3-0.9q0 0 0 0-0.7-2.9-1.2-5.9c0-0.1-0.2-0.1-0.2 0.1 0.1 2.6 0.7 5.1 1.6 7.5 0.1 0.1 0.2 0.1 0.2 0q0 0 0 0z"/>
					<path id="&lt;Path&gt;" class="s7" d="m231 601.3q-0.1-0.1-0.2-0.1-0.9-3.8-1.7-7.7-0.4-2.1-0.8-4.1-0.2-1.1-0.4-2.2c-0.1-0.6-0.2-1.3-0.5-1.9 0-0.1-0.2-0.1-0.2 0.1-0.2 1.2 0.3 2.7 0.5 3.8q0.4 2.2 0.9 4.3 0.9 4.3 2.1 8.5c0.1 0.2 0.3 0.1 0.3-0.1q0-0.3 0-0.6z"/>
					<path id="&lt;Path&gt;" class="s7" d="m262.5 583.6c-4-0.5-7.9-1.1-11.9-1.6-0.2 0-0.3 0.3-0.1 0.3 4 0.6 8 1.1 12 1.6 0.1 0 0.2-0.3 0-0.3z"/>
				</g>
				<g id="&lt;Group&gt;">
					<path id="&lt;Path&gt;" class="s2" d="m194.1 503.8c0 0-13.4-58.5 49.5-82.1 0 0 17.4 76.9-49.5 82.1z"/>
					<path id="&lt;Path&gt;" class="s7" d="m207.6 470.6q0.4-0.2 0.7-0.4 1.8-1 3.5-2l7.3-4c4.8-2.7 9.6-5.5 14.4-8.1 0.1-0.1 0-0.4-0.1-0.3-4.9 2.7-9.8 5.1-14.7 7.7l-7.2 3.8q-1.4 0.8-2.9 1.6c2.1-4 4.3-7.9 6.8-11.7 3.3-5 6.9-9.7 10.6-14.4 0.2-0.2-0.1-0.5-0.3-0.3-5.5 5.3-10.3 11.4-14.5 17.8q0-0.3 0-0.6 0.1-2.2 0.1-4.4c0.1-2.8-0.1-5.7 0-8.5 0-0.2-0.3-0.2-0.3 0-0.1 2.8-0.4 5.6-0.6 8.4q-0.1 2.1-0.2 4.2c0 0.7 0 1.6 0 2.4q-2 3.1-3.7 6.3c-2.1 3.8-4 7.7-5.6 11.8q-0.1-2.2-0.3-4.4c-0.2-3.2-0.6-6.4-0.7-9.6 0-0.2-0.3-0.1-0.3 0 0.1 3.2 0 6.4 0.1 9.6q0 2.4 0.2 4.8 0 0.9 0.1 1.8c-2 5.3-3.6 10.7-4.8 16.1-1.2 5.8-1.7 11.7-2.3 17.6 0 0.1 0 0.1 0 0 0.6-5.3 1.9-10.6 3.4-15.7q1.1-4.1 2.5-8.2c2.6-1.3 5.1-2.8 7.6-4.2q3.9-2.2 7.9-4.3c5.2-2.9 10.5-5.8 15.9-8.4 0.1 0 0-0.3-0.2-0.2-5.5 2.5-11 4.9-16.3 7.6q-4.1 2-8 4.2c-2.1 1.2-4.4 2.5-6.5 3.9q0.9-2.7 2-5.4 2.8-7.4 6.4-14.5z"/>
					<path id="&lt;Path&gt;" class="s7" d="m202.3 457.3c0-0.2-0.3-0.2-0.2 0 0.2 3.3 0.3 6.6 0.7 10 0 0.1 0.3 0.1 0.2-0.1-0.1-3.3-0.4-6.6-0.7-9.9z"/>
					<path id="&lt;Path&gt;" class="s7" d="m232.4 468.4c-3.9 1.6-7.9 3.1-11.8 4.7-0.1 0.1 0 0.3 0.1 0.2 4-1.5 7.9-3.1 11.8-4.6 0.2-0.1 0.1-0.3-0.1-0.3z"/>
					<path id="&lt;Path&gt;" class="s7" d="m238.4 441.5c-3.8 1.7-7.6 3.7-11.2 5.9-0.1 0.2 0 0.4 0.2 0.3 3.7-2.1 7.4-4.1 11.2-6 0.1-0.1 0-0.3-0.2-0.2z"/>
				</g>
			</g>
			<g id="&lt;Group&gt;">
				<path id="&lt;Path&gt;" class="s10" d="m237.5 725.7h-90.6v-95.5h90.6z"/>
				<path id="&lt;Path&gt;" class="s7" d="m145.3 827.6h-4.7v-163.6h4.7z"/>
				<path id="&lt;Path&gt;" class="s7" d="m243.2 827.6h-4.6v-163.6h4.6z"/>
				<path id="&lt;Path&gt;" class="s7" d="m196.7 827.6h-4.6v-163.6h4.6z"/>
				<path id="&lt;Path&gt;" class="s7" d="m240.9 732.8h-97.9v-13.2h97.9z"/>
			</g>
		</g>
	</g>
	<g id="Character">
		<g id="&lt;Group&gt;">
			<g id="&lt;Group&gt;">
				<g id="&lt;Group&gt;">
					<g id="&lt;Group&gt;">
						<g id="&lt;Group&gt;">
							<path id="&lt;Path&gt;" class="s11" d="m586.6 902.5c4.5 1.5 137.9-0.2 142.7-3.4 1.9-1.1-7.5-126.6-7.5-126.6l-86.1 0.9 9.1 83.9c0 0-49 22.7-54 26.7-4.9 4.1-8.7 17.1-4.2 18.5z"/>
							<path id="&lt;Path&gt;" class="s3" d="m586.6 902.5c4.5 1.5 137.9-0.2 142.7-3.4 0.9-0.5-0.6-27.4-2.5-56.3h-83.6l1.6 14.5c0 0-49 22.7-54 26.7-4.9 4.1-8.7 17.1-4.2 18.5z"/>
						</g>
						<g id="&lt;Group&gt;">
							<path id="&lt;Path&gt;" class="s1" d="m585.1 904.4c4.8 1.5 139.4 0.2 144.6-3.1 1.9-1.2-0.9-45.6-0.9-45.9h-83.3l0.1 1.5c0 0-51.8 23.7-57.1 28-5.2 4.2-8.1 17.9-3.4 19.5z"/>
							<g id="&lt;Group&gt;">
								<g id="&lt;Group&gt;">
									<path id="&lt;Path&gt;" class="s7" d="m585.5 899.1c22.9-0.8 115.2-1.8 137.9-0.8 0.2 0 0.2 0.1 0 0.1-22.6 1.3-115 1.5-137.9 1-0.5 0-0.5-0.3 0-0.3z"/>
									<path id="&lt;Path&gt;" class="s7" d="m635.8 855.8c8.9-1.8 20-0.5 26.9 5.8 0.3 0.3-0.1 0.7-0.4 0.6-8.9-2.8-17.2-4.5-26.5-5.3-0.7-0.1-0.7-1 0-1.1z"/>
									<path id="&lt;Path&gt;" class="s7" d="m629.3 859.7c9-1.7 20-0.4 27 5.9 0.2 0.3-0.1 0.6-0.4 0.5-8.9-2.7-17.2-4.4-26.6-5.2-0.6-0.1-0.6-1 0-1.2z"/>
									<path id="&lt;Path&gt;" class="s7" d="m622.8 863.7c9-1.7 20-0.5 27 5.9 0.3 0.2-0.1 0.6-0.4 0.5-8.9-2.7-17.2-4.4-26.5-5.2-0.7-0.1-0.7-1.1-0.1-1.2z"/>
								</g>
							</g>
						</g>
					</g>
					<g id="&lt;Group&gt;">
						<path id="&lt;Path&gt;" class="s10" d="m636.1 853.7h92.8c0 0-15.5-215.1-15-218 1-4.8 6.4-26.8 13.7-55.4 2.3-9 4.8-18.6 7.3-28.6 7-26.9 14.6-56.4 21.2-82 10-38.4 17.8-68.2 17.8-68.2h-78.6c0 0-9.2 29-20.7 66.8-18.9 61.4-44 145.9-46.5 166.5-3 24.9 8 218.9 8 218.9z"/>
						<g id="&lt;Group&gt;">
							<g id="&lt;Group&gt;">
								<g id="&lt;Group&gt;">
									<path id="&lt;Path&gt;" class="s7" d="m640.4 836.8c14.2-0.3 10.1-0.4 24.3-0.5 6.9-0.1 52.4-0.5 58.8 0.6 0.2 0 0.2 0.3 0 0.3-6.4 1.1-51.9 0.7-58.8 0.6-14.2-0.1-10.1-0.3-24.3-0.6-0.2 0-0.2-0.4 0-0.4z"/>
								</g>
							</g>
							<path id="&lt;Path&gt;" class="s7" d="m759.6 412.1l-14.4 50.8-14.1 50.9c-4.7 16.9-9.2 34-13.7 51-4.5 17-9 34-13.1 51.1-1 4.3-2.1 8.6-2.9 12.9-0.2 1.1-0.4 2.2-0.6 3.3 0 0.6-0.1 1.3-0.1 1.9l0.2 1.6 12.3 187.4-0.1 0.6 1-0.7-11.3-187.4-0.1-1.7c-0.1-0.5 0-0.9 0-1.4 0.2-1.1 0.4-2.1 0.6-3.2 0.9-4.3 1.9-8.6 2.9-12.8 8.3-34.2 17.4-68.2 26.4-102.2z"/>
						</g>
					</g>
					<path id="&lt;Path&gt;" class="s7" d="m697.1 401.5c5.5 42.2 25.3 112.3 32.8 169.8 17.8-69.6 44-169.8 44-169.8z"/>
				</g>
				<g id="&lt;Group&gt;">
					<g id="&lt;Group&gt;">
						<g id="&lt;Group&gt;">
							<path id="&lt;Path&gt;" class="s11" d="m886.6 901.9c-4.5 1.4-116.5 1.9-121.4-1.4-1.8-1.2-2.5-20.1-2.6-42.9q0-0.4 0-0.7c-0.1-4.7-10.9-83.8-10.9-83.8l84.6 1.7 9.8 83.1-0.1 1.4c0 0 31.6 19.8 36.6 23.9 4.9 4.2 8.6 17.3 4 18.7z"/>
							<path id="&lt;Path&gt;" class="s3" d="m761 842.8c0.9 7.6 1.6 13 1.6 14.1v0.7c0.1 22.8 0.8 41.7 2.6 42.9 4.9 3.3 116.9 2.8 121.4 1.4 4.6-1.4 0.9-14.6-4-18.7-5-4.1-36.6-23.9-36.6-23.9l0.1-1.4-1.8-15.1z"/>
						</g>
						<g id="&lt;Group&gt;">
							<path id="&lt;Path&gt;" class="s1" d="m892.2 904.4c-4.8 1.5-125.2 0.2-130.4-3.1-1.9-1.2 0.9-45.6 0.9-45.9h83.3l-0.1 1.5c0 0 37.6 23.7 42.9 28 5.2 4.2 8.1 17.9 3.4 19.5z"/>
							<g id="&lt;Group&gt;">
								<path id="&lt;Path&gt;" class="s7" d="m891.8 899.1c-22.9-0.8-101-1.8-123.7-0.8-0.2 0-0.2 0.1 0 0.1 22.6 1.3 100.8 1.5 123.7 1 0.5 0 0.5-0.3 0-0.3z"/>
								<path id="&lt;Path&gt;" class="s7" d="m839.2 858.2c-11.4-3.1-25.6-3.1-34.8 3.2-0.4 0.2 0 0.7 0.4 0.6 11.6-1.9 22.3-2.8 34.3-2.5 0.8 0 0.9-1.1 0.1-1.3z"/>
								<path id="&lt;Path&gt;" class="s7" d="m847.3 863.5c-11.4-3.1-25.6-3.1-34.9 3.2-0.4 0.2 0.1 0.7 0.5 0.6 11.5-1.9 22.3-2.8 34.2-2.5 0.9 0 1-1 0.2-1.3z"/>
								<path id="&lt;Path&gt;" class="s7" d="m855.3 868.9c-11.4-3.2-25.6-3.2-34.8 3.1-0.4 0.2 0 0.7 0.4 0.7 11.6-2 22.3-2.8 34.3-2.6 0.8 0.1 0.9-1 0.1-1.2z"/>
							</g>
						</g>
					</g>
					<g id="&lt;Group&gt;">
						<path id="&lt;Path&gt;" class="s10" d="m697.1 401.5c0 0 12 72.6 12.8 75 0 0 4.4 2.1 12.4 5.7l32.6 371.2 93.2 0.3-49.2-452.2z"/>
						<g id="&lt;Group&gt;">
							<g id="&lt;Group&gt;">
								<path id="&lt;Path&gt;" class="s7" d="m758.1 836.8c14.2-0.2 10.1-0.4 24.4-0.5 7 0 52.8-0.2 59.3 0.9 0.1 0 0.1 0.3 0 0.3-6.6 1-52.3 0.5-59.3 0.4-14.3-0.2-10.2-0.3-24.4-0.7-0.3 0-0.3-0.4 0-0.4z"/>
								<g id="&lt;Group&gt;">
									<path id="&lt;Path&gt;" class="s7" d="m706 474.2c9.3 3.7 18.2 8.7 26.7 14 0.3 0.2 0 0.7-0.3 0.5-9-4.4-18.2-8.6-26.9-13.4-0.7-0.4-0.2-1.4 0.5-1.1z"/>
								</g>
								<path id="&lt;Path&gt;" class="s7" d="m709.4 432.6c1.5 8.7 2.3 17.5 3.3 26.3q0.4 3.1 0.7 6.3c0.2 1.9 0.4 3.8 1.5 5.5 1.9 2.9 5.3 4.3 8.4 5.6 0.3 0.2 0.2 0.8-0.2 0.6-3.1-0.9-6.6-2.2-8.9-4.7-2.8-2.9-2.7-7.4-3.1-11.2-1.1-9.4-2.1-18.9-2.1-28.4 0-0.2 0.4-0.3 0.4 0z"/>
								<path id="&lt;Path&gt;" class="s7" d="m720 435.2c0.3 6.3 1 12.6 1.5 18.8q0.4 4.6 0.7 9.3c0.2 3.1 0.6 6.3 0.5 9.5 0 0.2-0.4 0.2-0.4 0-0.5-2.9-0.6-6-0.9-9q-0.3-4.8-0.6-9.6c-0.4-6.3-0.5-12.7-1.1-19 0-0.2 0.3-0.2 0.3 0z"/>
							</g>
							<path id="&lt;Path&gt;" class="s7" d="m724.2 491.6l5 42.6 5.2 42.6 10.7 85.2 19.1 166.3-17.1-166.6-11.2-85.1-5.7-42.5z"/>
						</g>
					</g>
				</g>
			</g>
			<g id="&lt;Group&gt;">
				<g id="&lt;Group&gt;">
					<g id="&lt;Group&gt;">
						<path id="&lt;Path&gt;" class="s11" d="m732.2 297.6c-16.9 11.6-69.6 46.4-94.5 41.3-16.5-3.4-65.9-26.8-76.9-36.3-4.5-3.9 27.4-44.9 33.4-42.1 11.2 5.1 53.5 31.2 58.5 32.3 6.4 1.4 31.1-7 72.7-14.4 21.5-3.7 21.4 9.1 6.8 19.2z"/>
						<g id="&lt;Group&gt;">
							<path id="&lt;Path&gt;" class="s11" d="m577.8 240c-7.9-3.5-16.7-8.2-25.8-8.8-9.1-0.6-17.6 10.7-17.9 14.2-0.3 3.4 1.4 25.1 10.4 25.8 9.1 0.8 5-16.1 5.5-18 0.5-1.8 1-4.2 2.7-3.9 1.7 0.3 30.5 17 30.5 17z"/>
							<g id="&lt;Group&gt;">
								<path id="&lt;Path&gt;" class="s11" d="m577.1 241.2c-0.5 0-24-11.6-33.1-12.2-9.1-0.6-17.6 10.8-17.9 14.2-0.3 3.4 1.4 25.1 10.5 25.9 9 0.7 4.9-16.2 5.4-18 0.5-1.9 1-4.3 2.7-3.9 1.7 0.3 30.5 17 30.5 17z"/>
								<path id="&lt;Path&gt;" class="s7" d="m539.7 268.2c1.3-1.4 1.6-3.5 2-5.3 0.4-1.9 0.4-3.9 0.1-5.8-0.2-1.7-0.7-3.4-0.7-5.1 0.1-1.5 0.8-3.4 1.7-4.7 0.8-1.2 2.1-0.6 3.2-0.1 1.6 0.7 3.2 1.7 4.8 2.6q2.4 1.5 4.9 3.1c1.7 1 3.5 2 5 3.3 0.1 0.1 0 0.3-0.1 0.2-1.5-0.6-3-1.6-4.4-2.4q-2.5-1.4-5-2.8c-1.6-0.9-3.1-1.8-4.7-2.6-0.5-0.3-1.6-1-2.3-0.9-0.7 0.1-1.2 1.7-1.4 2.3-0.6 1.7-0.4 3.2-0.1 4.9 0.3 1.7 0.5 3.3 0.5 5 0 1.6-0.2 3.3-0.7 4.7-0.6 1.4-1.7 2.5-2.5 3.8-0.1 0.1-0.4-0.1-0.3-0.2z"/>
							</g>
							<g id="&lt;Group&gt;">
								<path id="&lt;Path&gt;" class="s11" d="m603.9 267.4c0 0-23.2-25-28.1-30-9.7-9.9-52.4-31.7-58.5-32.8-6.2-1.2-9.4 11.3 19.5 26.9 15.2 8.2 17.3 17.5 16.6 22.5-0.7 5-6.3 13.9-14.7 13-8.4-0.9-12.9-13.7-20.5-15.7-7.7-2-3.7 12.6 1.1 21.3 4.7 8.6 14.1 16.2 21.2 19.6 7.1 3.3 28.9 14.9 28.9 14.9z"/>
								<path id="&lt;Path&gt;" class="s7" d="m528.7 260.2c3 2.7 6.3 6.2 10.5 6.7 4.3 0.5 7.3-2 9.6-5.4 2.3-3.4 3.9-7.3 3.2-11.5-0.6-3.7-2.5-7.1-5-9.9-3.1-3.5-6.9-6.2-10.8-8.6-0.2-0.1 0-0.4 0.2-0.3 3.7 2.1 15.4 8 16.9 18.9 0.7 4.5-1 8.2-3.3 11.7-2.1 3.2-5.1 6.2-9.3 6.2-5 0-8.9-4.4-12.3-7.7-0.1-0.2 0.1-0.3 0.3-0.1z"/>
							</g>
						</g>
					</g>
					<g id="&lt;Group&gt;">
						<g id="&lt;Group&gt;">
							<path id="&lt;Path&gt;" class="s2" d="m606.7 260.5l-28.1 61.4c0 0 51 25.1 66.6 22.3 15.7-2.8 64.2-27.9 88.3-46.4 16.6-12.8 10.8-25.2-12.9-21-23.3 4.2-63.8 14.3-65.9 14.8-2.2 0.5-48-31.1-48-31.1z"/>
							<path id="&lt;Path&gt;" class="s7" d="m606.3 298.8c1.8-4.6 8.9-23.2 10.3-28 0 0-0.1-0.1-0.1 0-2.3 4.3-9.8 22.4-11.6 27-3.6 9.3-7.4 18.5-10 28.1 0 0.2 0.2 0.3 0.3 0.1 4.3-8.8 7.6-18 11.1-27.2z"/>
						</g>
						<path id="&lt;Path&gt;" class="s9" d="m733.6 297.8c-24.2 18.5-72.7 43.7-88.4 46.4-2.7 0.5-6.6 0.1-11-0.8l108.3-61.7c1.7 4.2-1.1 10.1-8.9 16.1z"/>
					</g>
				</g>
				<g id="&lt;Group&gt;">
					<path id="&lt;Path&gt;" class="s2" d="m678.5 441.3c0 0 129.4 3.8 130.1 3 1.8-2.2-25-124.5-54.2-160.9-10.9-13.6-30.9-10.4-38.4 1.3-28 43.8-37.7 155.6-37.5 156.6z"/>
					<path id="&lt;Compound Path&gt;" fill-rule="evenodd" class="s9" d="m808.4 440.9l-129.7-2.5q0.1-1.4 0.3-3.3l128.8 2.5q0.4 1.9 0.6 3.3zm-1.5-8.1l-127.4-2.5q0.2-1.5 0.3-3.3l126.5 2.4q0.3 1.8 0.6 3.4zm-1.6-8.1l-124.9-2.4q0.2-1.7 0.4-3.4l123.7 2.4q0.4 1.8 0.8 3.4zm-1.9-8.1l-122-2.4q0.2-1.6 0.4-3.3l120.8 2.3q0.4 1.7 0.8 3.4zm-1.9-8.2l-119.1-2.3q0.3-1.6 0.5-3.3l117.8 2.3q0.4 1.7 0.8 3.3zm-2-8.1l-115.9-2.2q0.2-1.7 0.5-3.4l114.5 2.3q0.4 1.7 0.9 3.3zm-2.1-8.1l-112.5-2.2q0.2-1.6 0.5-3.3l111.1 2.1q0.4 1.8 0.9 3.4zm-2.2-8.1l-109-2.1q0.3-1.7 0.6-3.4l107.4 2.1q0.5 1.7 1 3.4zm-2.3-8.2l-105.3-2q0.3-1.6 0.6-3.3l103.7 2q0.5 1.7 1 3.3zm-2.4-8.1l-101.3-1.9q0.3-1.7 0.6-3.4l99.7 2q0.5 1.7 1 3.3zm-2.5-8.1l-97.2-1.9q0.4-1.6 0.7-3.3l95.4 1.8q0.6 1.7 1.1 3.4zm-2.6-8.1l-92.8-1.8q0.4-1.7 0.8-3.4l90.9 1.8q0.6 1.7 1.1 3.4zm-2.7-8.2l-88.2-1.7q0.4-1.7 0.8-3.3l86.2 1.7q0.6 1.6 1.2 3.3zm-2.9-8.1l-83.2-1.6q0.4-1.7 0.9-3.3l81.1 1.5q0.6 1.7 1.2 3.4zm-3-8.1l-77.9-1.6q0.5-1.6 1-3.3l75.6 1.5q0.6 1.6 1.3 3.4zm-3.2-8.2l-72.2-1.4q0.5-1.7 1.1-3.3l69.6 1.3c0.5 1.1 1 2.3 1.5 3.4zm-3.6-8.1l-65.8-1.3q0.6-1.7 1.2-3.3l63.1 1.2q0.8 1.6 1.5 3.4zm-3.8-8.2l-58.9-1.1q0.8-1.7 1.5-3.4l55.7 1.1q0.8 1.7 1.7 3.4zm-4.4-8.2l-50.8-1q0.9-1.7 1.8-3.3l47 1q1 1.6 2 3.3zm-5.2-8.2l-41.1-0.7q0.2-0.5 0.5-0.9 0.8-1.3 1.8-2.4l36.2 0.7q0.2 0.1 0.4 0.4 1.1 1.4 2.2 2.9zm-8-8.2l-25-0.5c3.3-1.8 7-2.9 10.8-3.1h0.1l3.7 0.1h0.2c3.5 0.3 7 1.5 10.2 3.5z"/>
				</g>
				<g id="&lt;Group&gt;">
					<g id="&lt;Group&gt;">
						<path id="&lt;Path&gt;" class="s11" d="m743.6 301.5c8 18.9 33.5 76.6 57.2 85.8 15.7 6 68.6 14.4 83 12.3 5.9-0.8 2.6-53.9-4-54.8-12.2-1.7-60.2-1.2-66.7-4.4-5.9-2.9-22.4-22.7-53.5-51.4-15.9-14.7-22.8-3.9-16 12.5z"/>
						<g id="&lt;Group&gt;">
							<g id="&lt;Group&gt;">
								<path id="&lt;Path&gt;" class="s11" d="m877.2 399.6c5.7 1 32 3.3 39.4 2.3 7.5-1 28.8-5.4 28.6-11.2-0.2-5.8-6.5-5-6.5-5 0 0 8.7-3.2 7.9-9.1-0.7-5.8-10.5-4.2-10.5-4.2 0 0 8.7-4 7.6-9.8-1.1-5.7-10.7-2.5-10.7-2.5 0 0 8.1-3.3 5.1-7.7-3.5-5.2-17.7 2.6-26 3.1-1.9 0.1-38.5-0.6-38.5-0.6z"/>
								<g id="&lt;Group&gt;">
									<path id="&lt;Path&gt;" class="s7" d="m933.8 359.8c-10.5 5.7-16.1 6.4-27.8 5.6-0.2 0-0.3 0.4-0.1 0.4 11.4 1.8 18.6 1.9 28.2-5.5 0.5-0.4 0.2-0.8-0.3-0.5z"/>
									<path id="&lt;Path&gt;" class="s7" d="m937 371.9c-11.5 5-17.5 5.8-29.9 5.9-0.1 0-0.1 0.3 0 0.3 12.2 0.9 19.3 0.9 30-5.6 0.5-0.3 0.4-0.8-0.1-0.6z"/>
									<path id="&lt;Path&gt;" class="s7" d="m938 385.7c-11.4 4-17.9 5.2-29.9 3.7-0.3 0-0.4 0.4-0.1 0.5 12.1 2.6 20.3 1.3 30.1-3.8 0.7-0.4 0.7-0.6-0.1-0.4z"/>
								</g>
							</g>
							<g id="&lt;Group&gt;">
								<path id="&lt;Path&gt;" class="s11" d="m871.1 345.2c0 0 13.5-6.5 20-8.1 6.6-1.5 33.1 1.7 32.7 7.4-0.4 7.5-16.1 8.7-23.9 8.2 0 0-1 17.3-12.1 20.5-11.1 3.3-16.7-28-16.7-28z"/>
								<path id="&lt;Path&gt;" class="s7" d="m923 346.5c-5.3 6.5-15.4 5.3-23 5.4-0.6 0.1-0.8 0.5-0.7 1-0.9 7.2-4.3 17-11.1 20.6-0.2 0.1-0.1 0.4 0.1 0.3 7.8-2.8 12-12.2 12.5-20.2 7.7 0 18 0.8 22.3-7 0-0.1 0-0.1-0.1-0.1z"/>
							</g>
						</g>
					</g>
					<g id="&lt;Group&gt;">
						<g id="&lt;Group&gt;">
							<path id="&lt;Path&gt;" class="s2" d="m869 337l-9.5 66.8c0 0-56.5-6.5-68.2-17.3-11.6-10.7-38.8-58.2-49.1-86.8-7.1-19.7 4.5-27 22.2-10.6 17.3 16.1 45.9 46.5 47.5 48.1 1.5 1.6 57.1-0.2 57.1-0.2z"/>
							<path id="&lt;Path&gt;" class="s7" d="m848.6 369.4c1-4.9 5.1-24.3 6.5-29.1 0-0.1 0.2 0 0.1 0-0.4 4.8-3.9 24.1-4.9 29-2 9.8-3.7 19.6-6.8 29.1 0 0.1-0.3 0.1-0.3-0.1 1.2-9.7 3.4-19.3 5.4-28.9z"/>
							<g id="&lt;Group&gt;">
								<g id="&lt;Group&gt;">
									<path id="&lt;Path&gt;" class="s7" d="m821.5 397.7c-4.8-0.8-9.5-1.9-14.2-3.3-4.6-1.5-9.2-3.1-13.4-5.7-2.1-1.2-4-2.9-5.6-4.7-1.7-1.8-3.2-3.6-4.7-5.6q-4.5-5.7-8.4-11.9c-5.3-8.1-10-16.6-14.5-25.2-4.5-8.6-8.6-17.4-12.3-26.3 4.6 8.5 9.1 17 13.8 25.5 2.3 4.2 4.7 8.5 7.1 12.6 2.4 4.2 4.8 8.4 7.4 12.5 2.6 4.1 5.2 8.1 8 12q2 3 4.3 5.8c1.5 1.9 3.2 3.5 5.3 4.8 4 2.5 8.6 4.3 13.2 5.8 4.5 1.5 9.2 2.8 14 3.7z"/>
								</g>
								<g id="&lt;Group&gt;">
									<path id="&lt;Path&gt;" class="s7" d="m748.2 320.2c1.1 1.1 2.1 2.2 3.1 3.3l1.5 1.7c0.5 0.6 1 1.1 1.5 1.8-1.5-0.6-2.7-1.7-3.7-2.8-1-1.2-1.9-2.5-2.4-4z"/>
								</g>
							</g>
						</g>
					</g>
				</g>
				<g id="&lt;Group&gt;">
					<g id="&lt;Group&gt;">
						<g id="&lt;Group&gt;">
							<path id="&lt;Path&gt;" class="s11" d="m723.8 296.3c6.9 2.4 20.2-7.2 25.9-15.5 0.4-0.6 0.1-7 0.2-14.8 0-4.8 0.2-10.1 0.6-14.9 0.1-1-31 4.3-31 4.3 0 0 2 10.4 1.1 18.8q-0.1 1-0.4 1.9-0.1 0.2-0.1 0.4c-1 3.7-3 17.5 3.7 19.8z"/>
						</g>
						<path id="&lt;Path&gt;" class="s7" d="m748.7 251c-2.3 8-9.3 27.2-25.5 25.9q-1.7-0.1-3.1-0.4c0-0.2 0.1-0.3 0.1-0.4q0.3-0.9 0.4-1.9c0.9-8.4-1.1-18.8-1.1-18.8 0 0 22.5-3.8 29.2-4.4z"/>
					</g>
					<g id="&lt;Group&gt;">
						<g id="&lt;Group&gt;">
							<path id="&lt;Path&gt;" class="s11" d="m754 212.3c3.7 10.7-0.9 42-8.3 49.2-10.8 10.5-28.9 12.1-37.9-0.9-8.8-12.7-2.1-53.4 6.2-60 12.3-9.7 34.5-4 40 11.7z"/>
						</g>
						<g id="&lt;Group&gt;">
							<g id="&lt;Group&gt;">
								<path id="&lt;Path&gt;" class="s7" d="m729.2 231.7c0-0.1 0.1 0.1 0.1 0.2-0.4 2.1-0.4 4.5 1.4 5.5 0 0 0 0.1-0.1 0.1-2.2-0.6-2.1-3.9-1.4-5.8z"/>
								<path id="&lt;Path&gt;" class="s7" d="m731.4 229.7c3.4 0.2 2.7 7.1-0.5 6.9-3.1-0.2-2.4-7.1 0.5-6.9z"/>
							</g>
							<g id="&lt;Group&gt;">
								<path id="&lt;Path&gt;" class="s7" d="m717 230.4c0-0.1-0.2 0.1-0.2 0.2-0.2 2.1-0.7 4.5-2.7 5 0 0 0 0.2 0 0.2 2.4-0.1 3.1-3.3 2.9-5.4z"/>
								<path id="&lt;Path&gt;" class="s7" d="m715.3 228c-3.4-0.6-4.3 6.2-1.2 6.8 3.1 0.5 4-6.3 1.2-6.8z"/>
							</g>
							<path id="&lt;Path&gt;" class="s7" d="m734.4 226.9c-0.9-0.4-1.7-0.8-2.6-1.2-1-0.5-1.8-0.8-2.4-1.8-0.3-0.5 0-1.4 0.5-1.7 1.1-0.8 2.4-0.5 3.6 0 1.3 0.6 2.2 1.3 2.8 2.6 0.6 1.2-0.7 2.5-1.9 2.1z"/>
							<path id="&lt;Path&gt;" class="s7" d="m713 224.3c1-0.1 1.8-0.3 2.8-0.4 1.1-0.2 1.9-0.3 2.8-1 0.4-0.4 0.4-1.3 0.1-1.8-0.9-1.1-2.3-1.2-3.6-1-1.4 0.1-2.4 0.6-3.4 1.7-0.9 0.9 0 2.6 1.3 2.5z"/>
							<path id="&lt;Path&gt;" class="s7" d="m728.3 251.5c-0.6 0.5-1.2 1.1-1.9 1.1-0.8 0-1.6-0.4-2.3-0.8 0 0-0.1 0.1-0.1 0.1 0.5 0.9 1.6 1.5 2.6 1.5 1-0.1 1.6-0.9 1.9-1.8 0-0.1-0.1-0.1-0.2-0.1z"/>
							<g id="&lt;Group&gt;">
								<g id="&lt;Group&gt;">
									<path id="&lt;Path&gt;" class="s7" d="m726.7 245c-1.4 1.7-3.2 2.5-5.2 2.7-0.8 0.1-1.7 0-2.6-0.2q-0.2 0-0.5-0.1-0.2 0-0.4-0.1c-0.3-0.1-0.4-0.3-0.4-0.5q0-0.1 0.1-0.2 0 0 0-0.1v-0.1c0.1-1.7 0.5-4.1 0.5-4.1-0.6 0.2-3.8 1.3-3.7 0.4 1.2-7 2.4-14.8 5-21.6 0.1-0.2 0.5-0.1 0.4 0.1-0.8 6.8-2.8 13.4-3.7 20.2 1-0.2 2.6-0.8 3.5-0.7 0.2 0.1-0.9 4.8-0.9 5.5q0 0 0 0.1c2.7 0.6 4.9 0 7.7-1.6 0.2-0.1 0.3 0.1 0.2 0.3z"/>
								</g>
							</g>
							<g id="&lt;Group&gt;">
								<path id="&lt;Path&gt;" class="s7" d="m720 246.9c0 0 1.3 2.1 3.3 2.9 0.7 0.3 1.5 0.4 2.3 0.3 1.7-0.4 1.9-1.9 1.6-3.3-0.2-1.1-0.6-2.1-0.6-2.1 0 0-2.6 2.2-6.6 2.2z"/>
								<path id="&lt;Path&gt;" class="s12" d="m723.3 249.8c0.7 0.3 1.5 0.4 2.3 0.3 1.7-0.4 1.9-1.9 1.6-3.3-1.8 0.1-3.7 1.2-3.9 3z"/>
							</g>
						</g>
						<g id="&lt;Group&gt;">
							<path id="&lt;Path&gt;" class="s7" d="m746 229.5c-2.1-6.2 1.4-16.6-1.7-19.3-6.7-6.1-20.4 5.5-29.8 5.5-9.2 0.1-12.2-5.8-10.6-13.2 1.7-7.4 8-12.4 18.2-13.9 10.6-1.6 20.3 2.7 25.6 6 0 0-2.3-3.7-1.5-4.8 0.9-1.2 5.4 2.4 6.7 3.9 1.4 1.6 2.3 4.4 2.3 4.4 0 0 1.6-0.5 4.1-0.4 2.4 0.1 5.3 1.9 5.5 2.4 0.1 0.6-3.2 1-5.5 1.1 0 0 4.3 5.8 4.2 10.7-0.1 5-7.8 28.4-9.6 28.7-2.4 0.3-7.1-8.5-7.9-11.1z"/>
							<path id="&lt;Path&gt;" class="s7" d="m758.4 200.6c-0.1 0-0.2 0.1-0.2 0.1 2.3 2 4.1 4.2 5 7 1.1 3.3 0.8 6.9 0.1 10.2-1.5 6.5-4.6 12.4-7.4 18.4-0.1 0.1 0.2 0.3 0.3 0.1 3.3-6.1 6.7-12.8 8-19.8 1.1-5.9-0.3-12.7-5.8-16z"/>
							<path id="&lt;Path&gt;" class="s7" d="m744.7 207.8c-2.7-0.4-5.7-0.2-8.3 0.5-2.6 0.6-4.8 2.3-7.1 3.5-5.2 2.8-10.9 5-16.9 4.6-0.1 0-0.1 0.2 0 0.2 5.5 0.7 10.9-1 15.7-3.4 2.5-1.2 4.8-3 7.4-3.9 2.9-1 6.1-1 9.2-1.1 0.3 0 0.3-0.4 0-0.4z"/>
							<path id="&lt;Path&gt;" class="s7" d="m742 192c-3.6-1.8-7.6-3.1-11.7-3.8-3.9-0.8-7.9-1.1-11.8-0.4-6.8 1.1-13 5.4-14.6 12.3-0.8 3.5-0.4 7.4 1.4 10.6 0.1 0.2 0.4 0 0.3-0.2-2.8-6.1-1.7-13.5 3.5-18 5.6-4.8 13.4-5.1 20.3-4 4.3 0.7 8.5 2 12.6 3.6 0 0 0.1 0 0-0.1z"/>
						</g>
						<g id="&lt;Group&gt;">
							<path id="&lt;Compound Path&gt;" fill-rule="evenodd" class="s2" d="m727.8 243.1c-4.7-1.4-7.4-6.4-5.9-11 1.4-4.7 6.3-7.4 11-6 4.7 1.5 7.3 6.4 5.9 11.1-1.2 3.9-4.9 6.4-8.9 6.3q-1-0.1-2.1-0.4zm-4.8-10.7c-1.2 4 1.1 8.3 5.1 9.6 4.1 1.2 8.4-1.1 9.6-5.2 1.2-4-1.1-8.3-5.1-9.5q-1-0.3-1.9-0.4c-3.4-0.1-6.7 2.1-7.7 5.5z"/>
							<path id="&lt;Compound Path&gt;" fill-rule="evenodd" class="s2" d="m709.3 240c-3.6-0.6-5.9-4.9-5.1-9.8 0.4-2.3 1.4-4.3 2.9-5.8 1.5-1.5 3.3-2.1 5.1-1.9 1.7 0.3 3.2 1.5 4.2 3.4 0.9 1.9 1.2 4.1 0.8 6.5-0.7 4.5-3.9 7.8-7.3 7.7q-0.3 0-0.6-0.1zm-1.4-14.7c-1.3 1.2-2.2 3.1-2.5 5.1-0.7 4.2 1.2 8 4.1 8.5 3 0.4 5.9-2.6 6.6-6.7 0.3-2.1 0.1-4.1-0.8-5.7-0.7-1.6-1.9-2.6-3.3-2.8q-0.3 0-0.5 0c-1.2-0.1-2.5 0.5-3.6 1.6z"/>
							<path id="&lt;Path&gt;" class="s2" d="m722 233.1l0.9-0.8c-1.2-1.3-4-3.3-6.5-1.4l0.7 1c2.3-1.8 4.8 1.1 4.9 1.2z"/>
							<path id="&lt;Path&gt;" class="s2" d="m760.6 241.7l1.1-0.4c-0.2-0.5-1.7-5.1-4.3-6-2.4-0.7-18.3-1.8-18.9-1.9l-0.1 1.2c4.5 0.3 16.8 1.2 18.6 1.9 1.7 0.5 3.2 3.9 3.6 5.2z"/>
						</g>
						<g id="&lt;Group&gt;">
							<path id="&lt;Path&gt;" class="s11" d="m748.2 237.9c0 0 6.9-10.1 11.5-7.7 4.6 2.4-0.4 17.1-5.7 19.2-5.4 2.1-7.4-2.8-7.4-2.8z"/>
							<path id="&lt;Path&gt;" class="s7" d="m758.2 234.4c0.1 0 0.1 0.1 0 0.1-3.7 1.6-5.6 5.1-7 8.8 1.1-1.5 2.6-2.2 4.5-0.9 0.1 0 0 0.2-0.1 0.2-1.5-0.3-2.6-0.1-3.7 1.2-0.7 0.9-1.2 2-1.7 3-0.1 0.4-0.8 0.2-0.6-0.2q0-0.1 0-0.1c-0.2-4.8 3.4-11.6 8.6-12.1z"/>
						</g>
					</g>
				</g>
			</g>
		</g>
	</g>
	<g id="Windows">
		<g id="&lt;Group&gt;">
			<g id="&lt;Group&gt;" style="opacity: .8">
				<path id="&lt;Path&gt;" class="s13" d="m628.1 419h-484.3v-306.6h484.3z"/>
				<path id="&lt;Path&gt;" class="s2" d="m619.5 216.7h-475.7v-92.5h475.7z"/>
				<g id="&lt;Group&gt;">
					<path id="&lt;Path&gt;" class="s7" d="m628.1 124.2h-484.3v-11.8h484.3z"/>
					<g id="&lt;Group&gt;">
						<path id="&lt;Path&gt;" class="s4" d="m155.7 118.3c0 1.4-1.2 2.6-2.6 2.6-1.4 0-2.5-1.2-2.5-2.6 0-1.4 1.1-2.5 2.5-2.5 1.4 0 2.6 1.1 2.6 2.5z"/>
						<path id="&lt;Path&gt;" class="s3" d="m166.1 118.3c0 1.4-1.2 2.6-2.6 2.6-1.4 0-2.5-1.2-2.5-2.6 0-1.4 1.1-2.5 2.5-2.5 1.4 0 2.6 1.1 2.6 2.5z"/>
						<path id="&lt;Path&gt;" class="s2" d="m176.4 118.3c0 1.4-1.1 2.6-2.5 2.6-1.4 0-2.5-1.2-2.5-2.6 0-1.4 1.1-2.5 2.5-2.5 1.4 0 2.5 1.1 2.5 2.5z"/>
					</g>
				</g>
				<g id="&lt;Group&gt;">
					<path id="&lt;Path&gt;" class="s5" d="m628.1 419h-8.6v-294.8h8.6z"/>
					<path id="&lt;Path&gt;" class="s1" d="m623.8 226.4c-1.3 0-2.3-1-2.3-2.2v-96c0-1.3 1-2.3 2.3-2.3 1.2 0 2.2 1 2.2 2.3v96c0 1.2-1 2.2-2.2 2.2z"/>
				</g>
				<g id="&lt;Group&gt;">
					<g id="&lt;Group&gt;">
						<path id="&lt;Path&gt;" class="s2" d="m505.2 307.6h91.8v-70.4h-91.8z"/>
						<path id="&lt;Path&gt;" class="s14" d="m514.3 252.6c-1.1 5.9 4 10.9 9.8 9.8 3.3-0.6 6-3.3 6.6-6.5 1.1-5.9-4-11-9.8-9.9-3.3 0.7-6 3.3-6.6 6.6z"/>
						<g id="&lt;Group&gt;">
							<path id="&lt;Path&gt;" class="s2" d="m535.5 292.4h61.5l-30.8-37.9z"/>
							<path id="&lt;Path&gt;" class="s15" d="m535.5 292.4h61.5l-30.8-37.9z"/>
						</g>
						<g id="&lt;Group&gt;">
							<path id="&lt;Path&gt;" class="s2" d="m505.2 292.5h54.5l-27.2-24.7z"/>
							<path id="&lt;Path&gt;" class="s9" d="m505.2 292.5h54.5l-27.2-24.7z"/>
						</g>
						<g id="&lt;Group&gt;">
							<path id="&lt;Path&gt;" class="s2" d="m597 307.6h-91.8v-15.2h91.8z"/>
							<path id="&lt;Path&gt;" class="s9" d="m597 307.6h-91.8v-15.2h91.8z"/>
						</g>
					</g>
					<g id="&lt;Group&gt;">
						<path id="&lt;Path&gt;" class="s4" d="m505.2 318.4c6.2-0.3 12.4-0.5 18.7-0.6 6.2-0.1 12.5-0.1 18.7-0.2 6.2 0.1 12.5 0.1 18.7 0.2 6.2 0.1 12.5 0.3 18.7 0.6-6.2 0.3-12.5 0.4-18.7 0.6-6.2 0.1-12.5 0.1-18.7 0.1-6.2 0-12.5 0-18.7-0.1-6.3-0.2-12.5-0.3-18.7-0.6z"/>
					</g>
					<g id="&lt;Group&gt;">
						<path id="&lt;Path&gt;" class="s4" d="m505.2 326.2c4.7-0.4 9.3-0.5 14-0.6 4.7-0.1 9.4-0.1 14.1-0.2 4.7 0.1 9.4 0.1 14 0.2 4.7 0.1 9.4 0.2 14.1 0.6-4.7 0.3-9.4 0.4-14.1 0.5-4.6 0.2-9.3 0.1-14 0.2-4.7-0.1-9.4 0-14.1-0.2-4.7-0.1-9.3-0.2-14-0.5z"/>
					</g>
					<g id="&lt;Group&gt;">
						<path id="&lt;Path&gt;" class="s2" d="m597 335.9v83.1h-91.8v-83.1z"/>
						<path id="&lt;Path&gt;" class="s15" d="m597 335.9v83.1h-91.8v-83.1z"/>
						<path id="&lt;Path&gt;" class="s14" d="m514.3 367.2c-1.1 5.8 4 10.9 9.8 9.8 3.3-0.7 6-3.3 6.6-6.6 1.1-5.8-4-10.9-9.8-9.8-3.3 0.6-6 3.3-6.6 6.6z"/>
						<g id="&lt;Group&gt;">
							<path id="&lt;Path&gt;" class="s2" d="m535.5 407h61.5l-30.8-37.9z"/>
							<path id="&lt;Path&gt;" class="s16" d="m535.5 407h61.5l-30.8-37.9z"/>
						</g>
						<g id="&lt;Group&gt;">
							<path id="&lt;Path&gt;" class="s2" d="m505.2 407h54.5l-27.2-24.6z"/>
							<path id="&lt;Path&gt;" class="s17" d="m505.2 407h54.5l-27.2-24.6z"/>
						</g>
						<path id="&lt;Path&gt;" class="s9" d="m597 407v12h-91.8v-12z"/>
					</g>
					<g id="&lt;Group&gt;">
						<path id="&lt;Path&gt;" class="s2" d="m483.2 373.6v45.4h-91.8v-45.4z"/>
						<path id="&lt;Path&gt;" class="s14" d="m400.6 389c-1.1 5.9 3.9 11 9.8 9.9 3.3-0.7 5.9-3.3 6.5-6.6 1.2-5.9-3.9-10.9-9.8-9.8-3.3 0.6-5.9 3.3-6.5 6.5z"/>
						<g id="&lt;Group&gt;">
							<path id="&lt;Path&gt;" class="s2" d="m475.2 419h-45.5l2.3-2.7 20.5-25.3z"/>
							<path id="&lt;Path&gt;" class="s15" d="m475.2 419h-45.5l2.3-2.7 20.5-25.3z"/>
						</g>
						<g id="&lt;Group&gt;">
							<path id="&lt;Path&gt;" class="s2" d="m435.1 419h-32.7l16.3-14.8 13.3 12.1z"/>
							<path id="&lt;Path&gt;" class="s9" d="m435.1 419h-32.7l16.3-14.8 13.3 12.1z"/>
						</g>
					</g>
					<g id="&lt;Group&gt;">
						<path id="&lt;Path&gt;" class="s10" d="m391.4 345.6h91.8v-108.2h-91.8z"/>
						<path id="&lt;Path&gt;" class="s14" d="m400.6 268.7c-1.1 5.9 3.9 10.9 9.8 9.8 3.3-0.6 5.9-3.2 6.5-6.5 1.2-5.9-3.9-10.9-9.8-9.8-3.3 0.6-5.9 3.2-6.5 6.5z"/>
						<g id="&lt;Group&gt;">
							<path id="&lt;Path&gt;" class="s7" d="m421.7 308.6h61.5l-30.7-37.9z"/>
						</g>
						<g id="&lt;Group&gt;">
							<path id="&lt;Path&gt;" class="s18" d="m391.4 308.6h54.6l-27.3-24.7z"/>
						</g>
						<g id="&lt;Group&gt;">
							<path id="&lt;Path&gt;" class="s18" d="m483.2 345.6h-91.8v-37h91.8z"/>
						</g>
					</g>
					<g id="&lt;Group&gt;">
						<path id="&lt;Path&gt;" class="s4" d="m391.4 356.4c6.3-0.3 12.5-0.4 18.8-0.6 6.2-0.1 12.4-0.1 18.7-0.1 6.2 0 12.4 0 18.7 0.1 6.2 0.1 12.4 0.3 18.7 0.6-6.3 0.3-12.5 0.5-18.7 0.6-6.3 0.1-12.5 0.1-18.7 0.2-6.3-0.1-12.5-0.1-18.7-0.2-6.3-0.1-12.5-0.3-18.8-0.6z"/>
					</g>
					<g id="&lt;Group&gt;">
						<path id="&lt;Path&gt;" class="s4" d="m391.4 364.2c4.7-0.3 9.4-0.5 14.1-0.6 4.7-0.1 9.4-0.1 14-0.2 4.7 0.1 9.4 0.1 14.1 0.2 4.7 0.1 9.4 0.3 14.1 0.6-4.7 0.3-9.4 0.4-14.1 0.5-4.7 0.2-9.4 0.2-14.1 0.2-4.6 0-9.3 0-14-0.2-4.7-0.1-9.4-0.2-14.1-0.5z"/>
					</g>
					<g id="&lt;Group&gt;">
						<path id="&lt;Path&gt;" class="s2" d="m278.1 307.6h91.8v-70.4h-91.8z"/>
						<path id="&lt;Path&gt;" class="s14" d="m287.2 252.6c-1.1 5.9 4 10.9 9.8 9.8 3.3-0.6 6-3.3 6.6-6.5 1.1-5.9-4-11-9.8-9.9-3.3 0.7-6 3.3-6.6 6.6z"/>
						<g id="&lt;Group&gt;">
							<path id="&lt;Path&gt;" class="s2" d="m308.4 292.4h61.5l-30.8-37.9z"/>
							<path id="&lt;Path&gt;" class="s15" d="m308.4 292.4h61.5l-30.8-37.9z"/>
						</g>
						<g id="&lt;Group&gt;">
							<path id="&lt;Path&gt;" class="s2" d="m278.1 292.5h54.5l-27.2-24.7z"/>
							<path id="&lt;Path&gt;" class="s9" d="m278.1 292.5h54.5l-27.2-24.7z"/>
						</g>
						<g id="&lt;Group&gt;">
							<path id="&lt;Path&gt;" class="s2" d="m369.9 307.6h-91.8v-15.2h91.8z"/>
							<path id="&lt;Path&gt;" class="s9" d="m369.9 307.6h-91.8v-15.2h91.8z"/>
						</g>
					</g>
					<g id="&lt;Group&gt;">
						<path id="&lt;Path&gt;" class="s4" d="m278.1 318.4c6.2-0.3 12.5-0.5 18.7-0.6 6.2-0.1 12.5-0.1 18.7-0.2 6.2 0.1 12.5 0.1 18.7 0.2 6.2 0.1 12.5 0.3 18.7 0.6-6.2 0.3-12.5 0.4-18.7 0.6-6.2 0.1-12.5 0.1-18.7 0.1-6.2 0-12.5 0-18.7-0.1-6.2-0.2-12.5-0.3-18.7-0.6z"/>
					</g>
					<g id="&lt;Group&gt;">
						<path id="&lt;Path&gt;" class="s4" d="m278.1 326.2c4.7-0.4 9.4-0.5 14-0.6 4.7-0.1 9.4-0.1 14.1-0.2 4.7 0.1 9.4 0.1 14 0.2 4.7 0.1 9.4 0.2 14.1 0.6-4.7 0.3-9.4 0.4-14.1 0.5-4.6 0.2-9.3 0.1-14 0.2-4.7-0.1-9.4 0-14.1-0.2-4.6-0.1-9.3-0.2-14-0.5z"/>
					</g>
					<g id="&lt;Group&gt;">
						<path id="&lt;Path&gt;" class="s2" d="m369.9 335.9v83.1h-91.8v-83.1z"/>
						<path id="&lt;Path&gt;" class="s15" d="m369.9 335.9v83.1h-91.8v-83.1z"/>
						<path id="&lt;Path&gt;" class="s14" d="m287.2 367.2c-1.1 5.8 4 10.9 9.8 9.8 3.3-0.7 6-3.3 6.6-6.6 1.1-5.8-4-10.9-9.8-9.8-3.3 0.6-6 3.3-6.6 6.6z"/>
						<g id="&lt;Group&gt;">
							<path id="&lt;Path&gt;" class="s2" d="m308.4 407h61.5l-30.8-37.9z"/>
							<path id="&lt;Path&gt;" class="s16" d="m308.4 407h61.5l-30.8-37.9z"/>
						</g>
						<g id="&lt;Group&gt;">
							<path id="&lt;Path&gt;" class="s2" d="m278.1 407h54.5l-27.2-24.6z"/>
							<path id="&lt;Path&gt;" class="s17" d="m278.1 407h54.5l-27.2-24.6z"/>
						</g>
						<path id="&lt;Path&gt;" class="s9" d="m369.9 407v12h-91.8v-12z"/>
					</g>
					<g id="&lt;Group&gt;">
						<path id="&lt;Path&gt;" class="s2" d="m256.2 373.6v45.4h-91.8v-45.4z"/>
						<path id="&lt;Path&gt;" class="s14" d="m173.5 389c-1.1 5.9 3.9 11 9.8 9.9 3.3-0.7 5.9-3.3 6.5-6.6 1.2-5.9-3.9-10.9-9.8-9.8-3.2 0.6-5.9 3.3-6.5 6.5z"/>
						<g id="&lt;Group&gt;">
							<path id="&lt;Path&gt;" class="s2" d="m248.2 419h-45.6l2.3-2.7 20.5-25.3z"/>
							<path id="&lt;Path&gt;" class="s15" d="m248.2 419h-45.6l2.3-2.7 20.5-25.3z"/>
						</g>
						<g id="&lt;Group&gt;">
							<path id="&lt;Path&gt;" class="s2" d="m208 419h-32.7l16.3-14.8 13.3 12.1z"/>
							<path id="&lt;Path&gt;" class="s9" d="m208 419h-32.7l16.3-14.8 13.3 12.1z"/>
						</g>
					</g>
					<g id="&lt;Group&gt;">
						<path id="&lt;Path&gt;" class="s10" d="m164.4 345.6h91.8v-108.2h-91.8z"/>
						<path id="&lt;Path&gt;" class="s14" d="m173.5 268.7c-1.1 5.9 3.9 10.9 9.8 9.8 3.3-0.6 5.9-3.2 6.5-6.5 1.2-5.9-3.9-10.9-9.8-9.8-3.2 0.6-5.9 3.2-6.5 6.5z"/>
						<g id="&lt;Group&gt;">
							<path id="&lt;Path&gt;" class="s7" d="m194.6 308.6h61.6l-30.8-37.9z"/>
						</g>
						<g id="&lt;Group&gt;">
							<path id="&lt;Path&gt;" class="s18" d="m164.4 308.6h54.5l-27.3-24.7z"/>
						</g>
						<g id="&lt;Group&gt;">
							<path id="&lt;Path&gt;" class="s18" d="m256.2 345.6h-91.8v-37h91.8z"/>
						</g>
					</g>
					<g id="&lt;Group&gt;">
						<path id="&lt;Path&gt;" class="s4" d="m164.4 356.4c6.2-0.3 12.4-0.4 18.7-0.6 6.2-0.1 12.4-0.1 18.7-0.1 6.2 0 12.4 0 18.7 0.1 6.2 0.1 12.4 0.3 18.7 0.6-6.3 0.3-12.5 0.5-18.7 0.6-6.3 0.1-12.5 0.1-18.7 0.2-6.3-0.1-12.5-0.1-18.7-0.2-6.3-0.1-12.5-0.3-18.7-0.6z"/>
					</g>
					<g id="&lt;Group&gt;">
						<path id="&lt;Path&gt;" class="s4" d="m164.4 364.2c4.6-0.3 9.3-0.5 14-0.6 4.7-0.1 9.4-0.1 14.1-0.2 4.6 0.1 9.3 0.1 14 0.2 4.7 0.1 9.4 0.3 14.1 0.6-4.7 0.3-9.4 0.4-14.1 0.5-4.7 0.2-9.4 0.2-14 0.2-4.7 0-9.4 0-14.1-0.2-4.7-0.1-9.4-0.2-14-0.5z"/>
					</g>
				</g>
				<g id="&lt;Group&gt;">
					<g id="&lt;Group&gt;">
						<g id="&lt;Group&gt;">
							<path id="&lt;Path&gt;" class="s3" d="m566.5 200.5v5.8q-0.1 0-0.1 0.1-0.1 0.9-1 1.1-0.1 0.1-0.2 0.1h-1.6q0-0.1 0-0.1v-3.1h1.3q0.1 0 0.1-0.1v-1.2q0 0 0-0.1h-1.4q0-0.3 0-0.6c0.1-0.2 0.2-0.3 0.4-0.3q0.4 0 0.9 0 0.1 0 0.1 0v-1.4h-1.1q-0.4 0-0.8 0.3-0.6 0.4-0.7 1.2c0 0.2 0 0.5 0 0.7v0.1h-1q0 0.1 0 0.1v1.3q0 0 0 0h1v3.2h-2.9q0 0 0 0-0.3-0.1-0.6-0.2-0.4-0.3-0.6-0.8 0-0.2 0-0.3v-5.8q0-0.1 0-0.1 0-0.3 0.2-0.5 0.3-0.5 0.8-0.6 0.1-0.1 0.2-0.1h5.7q0.1 0 0.1 0 0.9 0.2 1.1 1.1 0 0.1 0.1 0.2z"/>
						</g>
						<g id="&lt;Group&gt;">
							<g id="&lt;Group&gt;">
								<path id="&lt;Compound Path&gt;" fill-rule="evenodd" class="s3" d="m581.7 200.5v5.8c0 0.7-0.5 1.3-1.2 1.3h-5.7c-0.7 0-1.3-0.6-1.3-1.3v-5.8c0-0.7 0.6-1.3 1.3-1.3h5.7c0.7 0 1.2 0.6 1.2 1.3zm-0.8 0.8q-0.4 0.2-0.7 0.2 0.1-0.1 0.3-0.3c0.1-0.2 0.2-0.3 0.2-0.4q-0.1 0-0.1 0.1-0.3 0.1-0.7 0.2 0 0-0.1-0.1-0.5-0.4-1.1-0.3c-0.8 0.1-1.3 0.8-1.1 1.5q0 0.2-0.1 0.1-0.2 0-0.4 0-1.4-0.3-2.2-1.3c-0.1-0.1-0.1-0.1-0.1 0q-0.4 0.7 0.1 1.4 0.1 0.2 0.3 0.3-0.3 0-0.5-0.1c-0.1 0-0.1 0-0.1 0.1 0 0.5 0.4 1 0.9 1.2 0 0 0.1 0 0.2 0q-0.3 0.1-0.5 0.1c0 0-0.1-0.1-0.1 0q0 0 0 0.1 0.3 0.6 1 0.8 0.1 0 0.2 0-0.8 0.7-1.9 0.6 0.1 0.1 0.3 0.2 0.2 0.1 0.3 0.1 0.1 0.1 0.1 0.1 1.2 0.4 2.3 0.1 1.6-0.5 2.4-2 0.4-0.9 0.4-1.9 0-0.1 0.1-0.1 0.3-0.3 0.5-0.6c0 0 0.1 0 0.1-0.1z"/>
							</g>
						</g>
						<g id="&lt;Group&gt;">
							<g id="&lt;Group&gt;">
								<g id="&lt;Group&gt;">
									<path id="&lt;Compound Path&gt;" fill-rule="evenodd" class="s3" d="m597 203.3q0 1.1 0 2.1c0 0.3 0 0.7-0.2 1q-0.3 0.9-1.3 1.1-0.3 0.1-0.6 0-2 0.1-4.1 0c-0.3 0-0.7 0-1-0.2q-0.8-0.4-0.9-1.2-0.1-0.4-0.1-0.7 0-2 0-4.1c0-0.3 0-0.6 0.2-0.9q0.4-1 1.4-1.1 0.3-0.1 0.6-0.1h3.8c0.4 0 0.7 0 1 0.1q1 0.4 1.1 1.5 0.1 0.2 0.1 0.5 0 1 0 2 0 0 0 0zm-1.1-1.1q0-0.2 0-0.4c-0.2-0.8-0.9-1.5-1.7-1.5q-0.6 0-1.3 0 0 0 0 0-0.6 0-1.1 0-0.3 0-0.5 0.1c-0.8 0.2-1.4 0.9-1.4 1.8q0 1.2 0 2.3 0 0.2 0 0.4c0.2 1 0.9 1.6 1.9 1.6q1.1 0 2.2 0 0.2 0 0.4-0.1c0.9-0.2 1.5-0.9 1.5-1.9q0-1.1 0-2.3z"/>
								</g>
							</g>
							<g id="&lt;Group&gt;">
								<path id="&lt;Path&gt;" class="s3" d="m593.9 203.4c0 0.5-0.5 1-1 1-0.5 0-1-0.5-1-1 0-0.6 0.5-1 1-1 0.5 0 1 0.4 1 1z"/>
							</g>
							<g id="&lt;Group&gt;">
								<g id="&lt;Group&gt;">
									<path id="&lt;Compound Path&gt;" fill-rule="evenodd" class="s3" d="m595.4 202.2v2.4c0 0.7-0.6 1.3-1.3 1.3h-2.4c-0.7 0-1.3-0.6-1.3-1.3v-2.4c0-0.8 0.6-1.4 1.4-1.4q1.1 0 2.2 0c0.8 0 1.4 0.6 1.4 1.4zm-1 1.2c0-0.9-0.7-1.6-1.5-1.6-0.8 0-1.5 0.7-1.5 1.6 0 0.8 0.7 1.5 1.5 1.5 0.8 0 1.5-0.7 1.5-1.5zm0.5-1.7c0-0.2-0.1-0.4-0.3-0.4-0.2 0-0.4 0.2-0.4 0.4 0 0.2 0.1 0.4 0.3 0.4 0.2 0 0.4-0.2 0.4-0.4z"/>
								</g>
							</g>
						</g>
					</g>
					<g id="&lt;Group&gt;">
						<g id="&lt;Group&gt;">
							<path id="&lt;Compound Path&gt;" class="s7" d="m291.6 202.4h0.9l0.6 1.7 0.5-1.7h1l-0.9 2.3 0.6 1.7 1.5-4h1.1l-2.1 5.1h-0.9l-0.8-2.1-0.9 2.1h-0.9l-2-5.1h1.1l1.4 4 0.6-1.7z"/>
							<path id="&lt;Compound Path&gt;" fill-rule="evenodd" class="s7" d="m298.6 207.6q-0.5 0-0.9-0.2-0.3-0.1-0.6-0.4-0.2-0.3-0.4-0.6-0.1-0.4-0.1-0.8 0-0.4 0.1-0.7 0.2-0.4 0.4-0.6 0.3-0.3 0.6-0.5 0.4-0.1 0.9-0.1 0.4 0 0.8 0.1 0.3 0.2 0.6 0.5 0.3 0.2 0.4 0.6 0.1 0.3 0.1 0.7 0 0.4-0.1 0.8-0.1 0.3-0.4 0.6-0.2 0.3-0.6 0.4-0.4 0.2-0.8 0.2zm-1-2q0 0.3 0.1 0.5 0 0.2 0.2 0.4 0.1 0.1 0.3 0.2 0.2 0.1 0.4 0.1 0.2 0 0.4-0.1 0.1-0.1 0.3-0.2 0.1-0.2 0.2-0.4 0-0.2 0-0.5 0-0.2 0-0.4-0.1-0.2-0.2-0.4-0.2-0.1-0.3-0.2-0.2-0.1-0.4-0.1-0.2 0-0.4 0.1-0.2 0.1-0.3 0.2-0.2 0.2-0.2 0.4-0.1 0.2-0.1 0.4z"/>
							<path id="&lt;Compound Path&gt;" class="s7" d="m303.4 204.6q-0.4 0-0.8 0.2-0.3 0.1-0.5 0.4v2.3h-0.9v-3.7h0.9v0.8q0.1-0.2 0.2-0.4 0.1-0.1 0.3-0.3 0.2-0.1 0.3-0.1 0.2-0.1 0.3-0.1 0.1 0 0.1 0 0.1 0 0.1 0z"/>
							<path id="&lt;Compound Path&gt;" class="s7" d="m306.5 207.5l-1.1-1.6-0.5 0.5v1.1h-0.9v-5.2h0.9v3.2l1.5-1.7h1.1l-1.4 1.6 1.5 2.1z"/>
						</g>
						<g id="&lt;Group&gt;" style="opacity: .4">
							<path id="&lt;Compound Path&gt;" fill-rule="evenodd" class="s19" d="m348.6 202.4h0.4l2.2 5.1h-0.6l-0.6-1.6h-2.3l-0.7 1.6h-0.5zm1.2 3.1l-1-2.5-1 2.5z"/>
							<path id="&lt;Compound Path&gt;" fill-rule="evenodd" class="s19" d="m353.6 207.6q-0.4 0-0.8-0.2-0.4-0.3-0.6-0.6v0.7h-0.4v-5.2h0.5v2.3q0.2-0.4 0.6-0.7 0.3-0.2 0.8-0.2 0.4 0 0.7 0.2 0.3 0.1 0.5 0.4 0.3 0.3 0.4 0.6 0.1 0.4 0.1 0.8 0 0.3-0.1 0.7-0.2 0.4-0.4 0.6-0.2 0.3-0.6 0.4-0.3 0.2-0.7 0.2zm-0.1-0.4q0.3 0 0.6-0.2 0.2-0.1 0.4-0.3 0.2-0.2 0.3-0.5 0.1-0.3 0.1-0.5 0-0.3-0.1-0.6-0.1-0.3-0.3-0.5-0.1-0.2-0.4-0.3-0.2-0.2-0.5-0.2-0.3 0-0.4 0.1-0.2 0.1-0.4 0.2-0.2 0.1-0.3 0.3-0.1 0.2-0.2 0.4v1.1q0 0.2 0.1 0.4 0.2 0.2 0.3 0.3 0.2 0.1 0.4 0.2 0.2 0.1 0.4 0.1z"/>
							<path id="&lt;Compound Path&gt;" fill-rule="evenodd" class="s19" d="m357.8 207.6q-0.4 0-0.7-0.2-0.4-0.1-0.6-0.4-0.3-0.3-0.4-0.6-0.1-0.4-0.1-0.7 0-0.4 0.1-0.8 0.1-0.3 0.4-0.6 0.2-0.3 0.6-0.4 0.3-0.2 0.7-0.2 0.4 0 0.8 0.2 0.3 0.1 0.6 0.4 0.2 0.3 0.3 0.6 0.2 0.4 0.2 0.8 0 0.3-0.2 0.7-0.1 0.3-0.3 0.6-0.3 0.3-0.6 0.4-0.4 0.2-0.8 0.2zm-1.3-1.9q0 0.3 0.1 0.5 0.1 0.3 0.3 0.5 0.1 0.2 0.4 0.3 0.2 0.2 0.5 0.2 0.3 0 0.5-0.2 0.3-0.1 0.5-0.3 0.2-0.2 0.3-0.5 0.1-0.2 0.1-0.6 0-0.3-0.1-0.5-0.1-0.3-0.3-0.5-0.2-0.2-0.5-0.3-0.2-0.2-0.5-0.2-0.3 0-0.5 0.2-0.3 0.1-0.4 0.3-0.2 0.2-0.3 0.5-0.1 0.2-0.1 0.6z"/>
							<path id="&lt;Compound Path&gt;" class="s19" d="m361.7 207.6q-0.6 0-0.9-0.4-0.3-0.4-0.3-1.2v-2.2h0.4v2.1q0 1.3 0.9 1.3 0.2 0 0.4-0.1 0.2-0.1 0.4-0.2 0.2-0.2 0.3-0.3 0.2-0.2 0.3-0.5v-2.3h0.5v3.1q0 0.2 0.1 0.2v0.4q-0.1 0-0.1 0-0.1 0-0.1 0-0.2 0-0.3-0.1-0.1-0.1-0.1-0.3v-0.4q-0.2 0.4-0.6 0.6-0.5 0.3-0.9 0.3z"/>
							<path id="&lt;Compound Path&gt;" class="s19" d="m366.6 207.3q-0.1 0.1-0.2 0.1-0.1 0-0.2 0.1-0.1 0-0.2 0-0.1 0.1-0.3 0.1-0.1 0-0.3-0.1-0.1 0-0.2-0.1-0.2-0.1-0.2-0.2-0.1-0.2-0.1-0.4v-2.6h-0.5v-0.4h0.5v-1.3h0.5v1.3h0.9v0.4h-0.9v2.5q0 0.2 0.2 0.3 0.1 0.1 0.3 0.1 0.2 0 0.3-0.1 0.2 0 0.2-0.1z"/>
						</g>
						<g id="&lt;Group&gt;" style="opacity: .4">
							<path id="&lt;Compound Path&gt;" class="s19" d="m409.6 203.4q-0.3-0.3-0.6-0.4-0.4-0.2-0.8-0.2-0.7 0-1 0.3-0.3 0.2-0.3 0.7 0 0.2 0.1 0.3 0 0.2 0.2 0.3 0.2 0.1 0.4 0.2 0.3 0.1 0.7 0.1 0.4 0.1 0.7 0.2 0.3 0.2 0.6 0.3 0.2 0.2 0.3 0.4 0.1 0.2 0.1 0.6 0 0.3-0.1 0.6-0.1 0.2-0.4 0.4-0.2 0.2-0.6 0.3-0.3 0.1-0.7 0.1-1.2 0-2-0.8l0.2-0.4q0.2 0.2 0.3 0.3 0.2 0.1 0.5 0.2 0.2 0.1 0.5 0.2 0.2 0 0.5 0 0.6 0 1-0.2 0.3-0.2 0.3-0.7 0-0.2-0.1-0.4-0.1-0.1-0.3-0.3-0.2-0.1-0.5-0.2-0.2 0-0.6-0.1-0.4-0.1-0.7-0.2-0.3-0.1-0.5-0.3-0.2-0.1-0.3-0.3-0.1-0.2-0.2-0.6 0.1-0.3 0.2-0.6 0.1-0.3 0.4-0.4 0.2-0.2 0.5-0.3 0.4-0.1 0.8-0.1 0.5 0 0.9 0.1 0.4 0.2 0.7 0.5z"/>
							<path id="&lt;Compound Path&gt;" class="s19" d="m414 207.5h-0.5v-2.1q0-0.6-0.2-0.9-0.3-0.3-0.7-0.3-0.2 0-0.4 0-0.2 0.1-0.4 0.3-0.2 0.1-0.3 0.3-0.1 0.2-0.2 0.4v2.3h-0.5v-5.2h0.5v2.3q0.2-0.4 0.6-0.6 0.4-0.3 0.9-0.3 0.3 0 0.5 0.1 0.3 0.1 0.4 0.4 0.1 0.2 0.2 0.5 0.1 0.3 0.1 0.6z"/>
							<path id="&lt;Compound Path&gt;" fill-rule="evenodd" class="s19" d="m416.6 207.6q-0.4 0-0.7-0.2-0.4-0.1-0.6-0.4-0.3-0.3-0.4-0.6-0.1-0.4-0.1-0.7 0-0.4 0.1-0.8 0.1-0.3 0.4-0.6 0.2-0.3 0.6-0.4 0.3-0.2 0.7-0.2 0.4 0 0.8 0.2 0.3 0.1 0.5 0.4 0.3 0.3 0.4 0.6 0.2 0.4 0.2 0.8 0 0.3-0.2 0.7-0.1 0.3-0.3 0.6-0.3 0.3-0.6 0.4-0.4 0.2-0.8 0.2zm-1.3-1.9q0 0.3 0.1 0.5 0.1 0.3 0.3 0.5 0.1 0.2 0.4 0.3 0.2 0.2 0.5 0.2 0.3 0 0.5-0.2 0.3-0.1 0.5-0.3 0.2-0.2 0.3-0.5 0.1-0.2 0.1-0.6 0-0.3-0.1-0.5-0.1-0.3-0.3-0.5-0.2-0.2-0.5-0.3-0.2-0.2-0.5-0.2-0.3 0-0.5 0.2-0.3 0.1-0.4 0.3-0.2 0.2-0.3 0.5-0.1 0.2-0.1 0.6z"/>
							<path id="&lt;Compound Path&gt;" fill-rule="evenodd" class="s19" d="m421.2 207.6q-0.5 0-0.8-0.3-0.4-0.2-0.6-0.6v2.3h-0.5v-5.2h0.4v0.7q0.3-0.4 0.6-0.6 0.4-0.2 0.8-0.2 0.4 0 0.7 0.2 0.4 0.1 0.6 0.4 0.2 0.3 0.4 0.6 0.1 0.4 0.1 0.7 0 0.4-0.1 0.8-0.2 0.3-0.4 0.6-0.2 0.3-0.5 0.4-0.3 0.2-0.7 0.2zm-0.1-0.4q0.3 0 0.5-0.2 0.3-0.1 0.4-0.3 0.2-0.2 0.3-0.5 0.1-0.3 0.1-0.6 0-0.3-0.1-0.5-0.1-0.3-0.3-0.5-0.2-0.2-0.4-0.3-0.3-0.2-0.6-0.2-0.2 0-0.4 0.1-0.2 0.1-0.4 0.2-0.1 0.1-0.3 0.3-0.1 0.2-0.1 0.4v1.1q0.1 0.2 0.2 0.4 0.1 0.2 0.3 0.3 0.2 0.1 0.4 0.2 0.2 0.1 0.4 0.1z"/>
						</g>
						<g id="&lt;Group&gt;" style="opacity: .4">
							<path id="&lt;Compound Path&gt;" class="s19" d="m458.5 204.9q0-0.4 0.1-0.9 0.2-0.4 0.5-0.8 0.3-0.4 0.8-0.6 0.4-0.2 1-0.2 0.7 0 1.2 0.3 0.4 0.3 0.7 0.8l-0.4 0.2q-0.2-0.2-0.3-0.4-0.2-0.2-0.4-0.3-0.2-0.1-0.4-0.1-0.2-0.1-0.4-0.1-0.5 0-0.9 0.2-0.3 0.2-0.5 0.5-0.3 0.3-0.4 0.7-0.1 0.4-0.1 0.8 0 0.4 0.1 0.8 0.2 0.4 0.4 0.7 0.3 0.3 0.6 0.4 0.4 0.2 0.8 0.2 0.2 0 0.4 0 0.2-0.1 0.5-0.2 0.2-0.1 0.3-0.3 0.2-0.2 0.4-0.4l0.4 0.2q-0.2 0.3-0.4 0.5-0.2 0.2-0.5 0.3-0.2 0.2-0.6 0.3-0.3 0.1-0.6 0.1-0.5 0-0.9-0.3-0.5-0.2-0.8-0.6-0.3-0.3-0.5-0.8-0.1-0.5-0.1-1z"/>
							<path id="&lt;Compound Path&gt;" fill-rule="evenodd" class="s19" d="m465.2 207.6q-0.4 0-0.7-0.2-0.4-0.1-0.6-0.4-0.3-0.3-0.4-0.6-0.1-0.4-0.1-0.7 0-0.4 0.1-0.8 0.1-0.3 0.4-0.6 0.2-0.3 0.6-0.4 0.3-0.2 0.7-0.2 0.4 0 0.8 0.2 0.3 0.1 0.6 0.4 0.2 0.3 0.3 0.6 0.2 0.4 0.2 0.8 0 0.3-0.2 0.7-0.1 0.3-0.3 0.6-0.3 0.3-0.6 0.4-0.4 0.2-0.8 0.2zm-1.3-1.9q0 0.3 0.1 0.5 0.1 0.3 0.3 0.5 0.1 0.2 0.4 0.3 0.2 0.2 0.5 0.2 0.3 0 0.5-0.2 0.3-0.1 0.5-0.3 0.2-0.2 0.3-0.5 0.1-0.2 0.1-0.6 0-0.3-0.1-0.5-0.1-0.3-0.3-0.5-0.2-0.2-0.5-0.3-0.2-0.2-0.5-0.2-0.3 0-0.5 0.2-0.2 0.1-0.4 0.3-0.2 0.2-0.3 0.5-0.1 0.2-0.1 0.6z"/>
							<path id="&lt;Compound Path&gt;" class="s19" d="m471 207.5h-0.4v-2.1q0-0.6-0.2-0.9-0.2-0.3-0.6-0.3-0.3 0-0.5 0-0.2 0.1-0.4 0.3-0.2 0.1-0.3 0.3-0.1 0.2-0.2 0.4v2.3h-0.5v-3.7h0.4v0.8q0.3-0.4 0.7-0.6 0.4-0.3 0.9-0.3 0.3 0 0.6 0.1 0.2 0.1 0.3 0.3 0.1 0.3 0.2 0.6 0 0.3 0 0.6z"/>
							<path id="&lt;Compound Path&gt;" class="s19" d="m473.8 207.3q0 0.1-0.1 0.1-0.1 0-0.2 0.1-0.1 0-0.2 0-0.2 0.1-0.3 0.1-0.2 0-0.3-0.1-0.1 0-0.3-0.1-0.1-0.1-0.1-0.2-0.1-0.2-0.1-0.4v-2.6h-0.5v-0.4h0.5v-1.3h0.5v1.3h0.9v0.4h-0.9v2.5q0 0.2 0.1 0.3 0.2 0.1 0.3 0.1 0.3 0 0.4-0.1 0.2 0 0.2-0.1z"/>
							<path id="&lt;Compound Path&gt;" fill-rule="evenodd" class="s19" d="m475.4 207.6q-0.3 0-0.5-0.1-0.2-0.1-0.4-0.3-0.2-0.1-0.3-0.3 0-0.2 0-0.5 0-0.2 0.1-0.4 0.1-0.2 0.3-0.4 0.2-0.1 0.5-0.2 0.3-0.1 0.6-0.1 0.3 0 0.6 0 0.3 0.1 0.5 0.2v-0.3q0-0.5-0.3-0.8-0.2-0.3-0.7-0.3-0.3 0-0.6 0.1-0.3 0.1-0.6 0.3l-0.2-0.3q0.7-0.5 1.4-0.5 0.7 0 1.1 0.4 0.4 0.4 0.4 1.1v1.7q0 0.2 0.2 0.2v0.4q-0.1 0-0.2 0-0.2 0-0.3-0.1-0.1-0.1-0.1-0.2v-0.3q-0.3 0.3-0.7 0.5-0.4 0.2-0.8 0.2zm0.1-0.4q0.4 0 0.7-0.1 0.3-0.2 0.5-0.4 0.1-0.1 0.1-0.2 0 0 0-0.1v-0.6q-0.2-0.1-0.5-0.1-0.2-0.1-0.5-0.1-0.5 0-0.9 0.2-0.3 0.2-0.3 0.6 0 0.2 0.1 0.3 0.1 0.2 0.2 0.3 0.1 0.1 0.3 0.1 0.1 0.1 0.3 0.1z"/>
							<path id="&lt;Compound Path&gt;" class="s19" d="m478.1 205.6q0-0.4 0.1-0.7 0.2-0.4 0.4-0.6 0.3-0.3 0.6-0.4 0.4-0.2 0.8-0.2 0.5 0 0.9 0.2 0.4 0.3 0.6 0.7l-0.5 0.1q-0.1-0.2-0.4-0.4-0.3-0.2-0.6-0.2-0.3 0-0.6 0.2-0.2 0.1-0.4 0.3-0.2 0.2-0.3 0.4-0.1 0.3-0.1 0.6 0 0.3 0.1 0.6 0.1 0.3 0.3 0.5 0.2 0.2 0.4 0.3 0.3 0.2 0.6 0.2 0.2 0 0.3-0.1 0.2 0 0.4-0.1 0.1-0.1 0.2-0.2 0.1-0.2 0.2-0.3l0.4 0.2q0 0.2-0.2 0.3-0.1 0.2-0.3 0.3-0.2 0.1-0.5 0.2-0.2 0.1-0.5 0.1-0.4 0-0.8-0.2-0.3-0.1-0.6-0.4-0.2-0.3-0.3-0.6-0.2-0.4-0.2-0.8z"/>
							<path id="&lt;Compound Path&gt;" class="s19" d="m484.1 207.3q0 0.1-0.1 0.1-0.1 0-0.2 0.1-0.1 0-0.3 0-0.1 0.1-0.2 0.1-0.2 0-0.3-0.1-0.2 0-0.3-0.1-0.1-0.1-0.2-0.2 0-0.2 0-0.4v-2.6h-0.5v-0.4h0.5v-1.3h0.5v1.3h0.8v0.4h-0.8v2.5q0 0.2 0.1 0.3 0.1 0.1 0.3 0.1 0.2 0 0.4-0.1 0.1 0 0.2-0.1z"/>
						</g>
						<path id="&lt;Path&gt;" class="s7" d="m307.6 209.8h-18.3v-0.8h18.3z"/>
					</g>
					<g id="&lt;Group&gt;">
						<g id="&lt;Group&gt;">
							<g id="&lt;Group&gt;">
								<path id="&lt;Path&gt;" class="s3" d="m592.8 162.4h-115.6v-15.4h115.6z"/>
								<path id="&lt;Compound Path&gt;" fill-rule="evenodd" class="s4" d="m593 162.6h-116v-15.8h116zm-115.7-0.3h115.4v-15.1h-115.4z"/>
							</g>
							<path id="&lt;Path&gt;" class="s10" d="m593 162.6h-15.8v-15.8h15.8z"/>
							<g id="&lt;Group&gt;">
								<g id="&lt;Group&gt;">
									<path id="&lt;Path&gt;" class="s3" d="m590 159l-1.4 1.1-2.7-3.5-0.9-1.3q0.3-0.1 0.5-0.3 0.5-0.4 0.8-0.9l1 1.3z"/>
									<path id="&lt;Compound Path&gt;" fill-rule="evenodd" class="s3" d="m587.3 155.4q-0.4 0.5-0.8 0.9-0.3 0.2-0.6 0.3c-1.6 0.9-3.7 0.5-4.9-1-1.3-1.8-1-4.2 0.7-5.5 1.7-1.3 4.2-1 5.5 0.7 1.1 1.4 1 3.3 0.1 4.6zm-1-1.3c0.3-0.8 0.2-1.6-0.3-2.3-0.8-1.1-2.3-1.2-3.3-0.5-1 0.8-1.2 2.3-0.4 3.3 0.6 0.8 1.7 1.1 2.7 0.7q0.3-0.1 0.5-0.3 0.5-0.4 0.8-0.9z"/>
								</g>
							</g>
							<path id="&lt;Path&gt;" class="s4" d="m481.2 159.4h-0.8v-9.4h0.8z"/>
						</g>
						<g id="&lt;Group&gt;">
							<g id="&lt;Group&gt;">
								<path id="&lt;Path&gt;" class="s3" d="m471.4 162.4h-266.4v-15.4h266.4z"/>
								<path id="&lt;Compound Path&gt;" fill-rule="evenodd" class="s4" d="m471.5 162.6h-266.6v-15.8h266.6zm-266.3-0.3h266v-15.1h-266z"/>
							</g>
							<path id="&lt;Path&gt;" class="s4" d="m209.1 159.4h-0.9v-9.4h0.9z"/>
						</g>
						<g id="&lt;Group&gt;">
							<path id="&lt;Path&gt;" class="s3" d="m175.9 160l-5.6-5.2 5.6-5.4 0.9 0.9-4.7 4.5 4.6 4.3z"/>
						</g>
						<g id="&lt;Group&gt;">
							<path id="&lt;Path&gt;" class="s3" d="m189.5 149.4l5.6 5.2-5.6 5.4-0.9-0.9 4.6-4.5-4.6-4.3z"/>
						</g>
					</g>
				</g>
			</g>
			<g id="&lt;Group&gt;" style="opacity: .8">
				<path id="&lt;Path&gt;" class="s13" d="m1356.2 614.2h-484.3v-306.3h484.3z"/>
				<path id="&lt;Path&gt;" class="s2" d="m1347.6 397h-475.7v-77.3h475.7z"/>
				<g id="&lt;Group&gt;">
					<path id="&lt;Path&gt;" class="s5" d="m1356.2 614.2h-8.6v-294.6h8.6z"/>
					<path id="&lt;Path&gt;" class="s1" d="m1351.9 421.8c-1.2 0-2.2-1-2.2-2.2v-96c0-1.2 1-2.2 2.2-2.2 1.2 0 2.2 1 2.2 2.2v96c0 1.2-1 2.2-2.2 2.2z"/>
				</g>
				<g id="&lt;Group&gt;">
					<g id="&lt;Group&gt;">
						<g id="&lt;Group&gt;">
							<path id="&lt;Path&gt;" class="s3" d="m1322.8 349.5h-115.6v-15.5h115.6z"/>
							<path id="&lt;Compound Path&gt;" fill-rule="evenodd" class="s4" d="m1323 349.6h-116v-15.7h116zm-115.7-0.4h115.4v-15.1h-115.4z"/>
						</g>
						<path id="&lt;Path&gt;" class="s10" d="m1323 349.6h-15.8v-15.7h15.8z"/>
						<g id="&lt;Group&gt;">
							<g id="&lt;Group&gt;">
								<path id="&lt;Path&gt;" class="s3" d="m1320 346.1l-1.4 1-2.7-3.4-0.9-1.3q0.3-0.1 0.5-0.3 0.5-0.4 0.8-1l1 1.4z"/>
								<path id="&lt;Compound Path&gt;" fill-rule="evenodd" class="s3" d="m1317.3 342.5q-0.3 0.4-0.8 0.8-0.3 0.2-0.6 0.4c-1.6 0.8-3.7 0.4-4.9-1.1-1.3-1.7-1-4.2 0.7-5.5 1.7-1.3 4.2-1 5.5 0.8 1.1 1.3 1 3.2 0.1 4.6zm-1-1.4c0.3-0.7 0.2-1.6-0.3-2.3-0.8-1-2.3-1.2-3.3-0.4-1 0.8-1.2 2.2-0.4 3.2 0.6 0.9 1.7 1.2 2.7 0.8q0.3-0.1 0.5-0.3 0.5-0.4 0.8-1z"/>
							</g>
						</g>
						<path id="&lt;Path&gt;" class="s4" d="m1211.2 346.4h-0.8v-9.3h0.8z"/>
					</g>
					<g id="&lt;Group&gt;">
						<g id="&lt;Group&gt;">
							<path id="&lt;Path&gt;" class="s3" d="m1201.4 349.5h-266.4v-15.5h266.4z"/>
							<path id="&lt;Compound Path&gt;" fill-rule="evenodd" class="s4" d="m1201.5 349.6h-266.6v-15.7h266.6zm-266.3-0.4h266v-15.1h-266z"/>
						</g>
						<path id="&lt;Path&gt;" class="s4" d="m939.1 346.4h-0.8v-9.3h0.8z"/>
					</g>
					<g id="&lt;Group&gt;">
						<path id="&lt;Path&gt;" class="s3" d="m905.9 347l-5.6-5.2 5.6-5.3 0.9 0.9-4.7 4.4 4.6 4.3z"/>
					</g>
					<g id="&lt;Group&gt;">
						<path id="&lt;Path&gt;" class="s3" d="m919.5 336.5l5.6 5.1-5.6 5.4-0.9-0.9 4.6-4.5-4.6-4.2z"/>
					</g>
				</g>
				<g id="&lt;Group&gt;">
					<g id="&lt;Group&gt;">
						<path id="&lt;Path&gt;" class="s2" d="m1053.1 508.1h122.6v-94.1h-122.6z"/>
						<path id="&lt;Path&gt;" class="s14" d="m1065.3 434.6c-1.5 7.8 5.2 14.6 13.1 13.1 4.4-0.9 7.9-4.4 8.7-8.8 1.5-7.8-5.2-14.6-13.1-13.1-4.4 0.8-7.9 4.4-8.7 8.8z"/>
						<g id="&lt;Group&gt;">
							<path id="&lt;Path&gt;" class="s2" d="m1093.5 487.8h82.2l-41.1-50.6z"/>
							<path id="&lt;Path&gt;" class="s15" d="m1093.5 487.8h82.2l-41.1-50.6z"/>
						</g>
						<g id="&lt;Group&gt;">
							<path id="&lt;Path&gt;" class="s2" d="m1053.1 487.9h72.8l-36.4-33z"/>
							<path id="&lt;Path&gt;" class="s9" d="m1053.1 487.9h72.8l-36.4-33z"/>
						</g>
						<g id="&lt;Group&gt;">
							<path id="&lt;Path&gt;" class="s2" d="m1175.7 508.1h-122.6v-20.3h122.6z"/>
							<path id="&lt;Path&gt;" class="s9" d="m1175.7 508.1h-122.6v-20.3h122.6z"/>
						</g>
					</g>
					<g id="&lt;Group&gt;">
						<path id="&lt;Path&gt;" class="s1" d="m963 526.6h-64.8v-5.5h64.8z"/>
						<path id="&lt;Path&gt;" class="s0" d="m1173.8 539.2h-275.6v-5.4h275.6z"/>
						<path id="&lt;Path&gt;" class="s0" d="m1173.8 551.2h-275.6v-5.4h275.6z"/>
						<path id="&lt;Path&gt;" class="s0" d="m1173.8 563.2h-275.6v-5.4h275.6z"/>
						<path id="&lt;Path&gt;" class="s0" d="m1173.8 575.2h-275.6v-5.4h275.6z"/>
						<path id="&lt;Path&gt;" class="s0" d="m1173.8 587.2h-275.6v-5.4h275.6z"/>
					</g>
					<g id="&lt;Group&gt;">
						<path id="&lt;Path&gt;" class="s1" d="m1257.4 420.3h-64.8v-5.5h64.8z"/>
						<path id="&lt;Path&gt;" class="s0" d="m1330.4 432.9h-137.8v-5.4h137.8z"/>
						<path id="&lt;Path&gt;" class="s0" d="m1330.4 444.9h-137.8v-5.4h137.8z"/>
						<path id="&lt;Path&gt;" class="s0" d="m1330.4 456.9h-137.8v-5.4h137.8z"/>
						<path id="&lt;Path&gt;" class="s0" d="m1330.4 468.9h-137.8v-5.4h137.8z"/>
						<path id="&lt;Path&gt;" class="s0" d="m1330.4 491.2h-137.8v-5.5h137.8z"/>
						<path id="&lt;Path&gt;" class="s0" d="m1330.4 503.2h-137.8v-5.5h137.8z"/>
						<path id="&lt;Path&gt;" class="s0" d="m1330.4 515.2h-137.8v-5.4h137.8z"/>
						<path id="&lt;Path&gt;" class="s0" d="m1330.4 527.2h-137.8v-5.4h137.8z"/>
						<path id="&lt;Path&gt;" class="s0" d="m1330.4 539.2h-137.8v-5.4h137.8z"/>
						<path id="&lt;Path&gt;" class="s0" d="m1330.4 563.2h-137.8v-5.4h137.8z"/>
						<path id="&lt;Path&gt;" class="s0" d="m1285.5 575.2h-92.9v-5.4h92.9z"/>
						<path id="&lt;Path&gt;" class="s7" d="m1288.8 578.7h-0.6v-12.4h0.6z"/>
					</g>
					<g id="&lt;Group&gt;">
						<path id="&lt;Path&gt;" class="s1" d="m963 428.6h-64.8v-14.6h64.8z"/>
						<path id="&lt;Path&gt;" class="s0" d="m1035.8 444.1h-137.6v-5.5h137.6z"/>
						<path id="&lt;Path&gt;" class="s0" d="m1035.8 456.1h-137.6v-5.4h137.6z"/>
						<path id="&lt;Path&gt;" class="s0" d="m1035.8 468.1h-137.6v-5.4h137.6z"/>
						<path id="&lt;Path&gt;" class="s0" d="m1035.8 480.1h-137.6v-5.4h137.6z"/>
						<path id="&lt;Path&gt;" class="s0" d="m1035.8 496.1h-137.6v-5.5h137.6z"/>
						<path id="&lt;Path&gt;" class="s0" d="m1035.8 508.1h-137.6v-5.5h137.6z"/>
					</g>
				</g>
				<g id="&lt;Group&gt;">
					<path id="&lt;Path&gt;" class="s7" d="m1356.2 319.7h-484.3v-11.8h484.3z"/>
					<g id="&lt;Group&gt;">
						<path id="&lt;Path&gt;" class="s4" d="m883.8 313.8c0 1.4-1.1 2.5-2.5 2.5-1.4 0-2.6-1.1-2.6-2.5 0-1.4 1.2-2.6 2.6-2.6 1.4 0 2.5 1.2 2.5 2.6z"/>
						<path id="&lt;Path&gt;" class="s3" d="m894.2 313.8c0 1.4-1.1 2.5-2.5 2.5-1.4 0-2.6-1.1-2.6-2.5 0-1.4 1.2-2.6 2.6-2.6 1.4 0 2.5 1.2 2.5 2.6z"/>
						<path id="&lt;Path&gt;" class="s2" d="m904.6 313.8c0 1.4-1.1 2.5-2.5 2.5-1.5 0-2.6-1.1-2.6-2.5 0-1.4 1.1-2.6 2.6-2.6 1.4 0 2.5 1.2 2.5 2.6z"/>
					</g>
				</g>
			</g>
			<g id="&lt;Group&gt;" style="opacity: .9">
				<path id="&lt;Path&gt;" class="s13" d="m1024.8 805.9h-484.2v-306.7h484.2z"/>
				<g id="&lt;Group&gt;">
					<path id="&lt;Path&gt;" class="s7" d="m1024.8 511h-484.2v-11.8h484.2z"/>
					<g id="&lt;Group&gt;">
						<path id="&lt;Path&gt;" class="s4" d="m552.5 505.1c0 1.4-1.2 2.6-2.6 2.6-1.4 0-2.5-1.2-2.5-2.6 0-1.4 1.1-2.5 2.5-2.5 1.4 0 2.6 1.1 2.6 2.5z"/>
						<path id="&lt;Path&gt;" class="s3" d="m562.8 505.1c0 1.4-1.1 2.6-2.5 2.6-1.4 0-2.5-1.2-2.5-2.6 0-1.4 1.1-2.5 2.5-2.5 1.4 0 2.5 1.1 2.5 2.5z"/>
						<path id="&lt;Path&gt;" class="s2" d="m573.2 505.1c0 1.4-1.1 2.6-2.5 2.6-1.4 0-2.6-1.2-2.6-2.6 0-1.4 1.2-2.5 2.6-2.5 1.4 0 2.5 1.1 2.5 2.5z"/>
					</g>
				</g>
				<g id="&lt;Group&gt;">
					<path id="&lt;Path&gt;" class="s10" d="m1024.8 557.3h-484.2v-46.3h484.2z"/>
					<g id="&lt;Group&gt;">
						<g id="&lt;Group&gt;">
							<g id="&lt;Group&gt;">
								<path id="&lt;Path&gt;" class="s3" d="m995 539.3h-399v-11.2h399z"/>
								<path id="&lt;Compound Path&gt;" fill-rule="evenodd" class="s4" d="m995.2 539.4h-399.3v-11.5h399.3zm-399-0.2h398.7v-11h-398.7z"/>
							</g>
							<g id="&lt;Group&gt;">
								<g id="&lt;Group&gt;">
									<g id="&lt;Group&gt;">
										<path id="&lt;Path&gt;" class="s0" d="m604.8 536.1l-0.8 0.6-1.3-1.6-0.2-0.3-0.3-0.4q0.2-0.1 0.3-0.2 0 0 0.1 0 0.2-0.2 0.4-0.5l0.2 0.4 0.3 0.3z"/>
										<path id="&lt;Compound Path&gt;" class="s0" d="m603.5 534.4l-0.3-0.3q0.2-0.2 0.3-0.4l-0.3-0.4h-0.1q0 0.1 0 0.2-0.1 0.1-0.1 0.2-0.2 0.3-0.4 0.5 0-0.1 0.1-0.1l0.2 0.3 0.3 0.4 1 1.2-0.1 0.1-1-1.2-0.3-0.4-0.2-0.3q-0.1 0-0.1 0-0.1 0.1-0.3 0.2 0 0-0.1 0-0.2 0.1-0.3 0.1v0.1l0.3 0.3q0.2 0 0.4-0.1l0.2 0.3 1.3 1.6 0.8-0.6z"/>
									</g>
									<g id="&lt;Group&gt;">
										<path id="&lt;Compound Path&gt;" fill-rule="evenodd" class="s0" d="m603.5 533.7q-0.1 0.2-0.3 0.4-0.1 0.2-0.3 0.3 0 0.1-0.1 0.1 0 0.1 0 0.1-0.2 0.1-0.3 0.2-0.2 0.1-0.4 0.1c-0.9 0.3-1.8 0-2.4-0.7-0.7-1-0.5-2.4 0.4-3.1 1-0.7 2.4-0.5 3.1 0.4 0.5 0.7 0.6 1.5 0.3 2.2zm-0.4-0.4c0.2-0.5 0.1-1.1-0.3-1.5-0.5-0.8-1.6-0.9-2.4-0.3-0.8 0.5-0.9 1.6-0.3 2.4 0.3 0.4 0.8 0.7 1.4 0.7q0.1 0 0.3-0.1 0.1 0 0.3-0.1 0.1 0 0.1 0 0.2-0.1 0.3-0.2 0 0 0.1 0 0.2-0.2 0.4-0.5 0-0.1 0.1-0.2 0-0.1 0-0.2z"/>
										<path id="&lt;Compound Path&gt;" fill-rule="evenodd" class="s0" d="m603.2 534.1l0.3 0.3q-0.1 0.2-0.3 0.4 0 0-0.1 0.1 0 0-0.1 0-0.1 0.1-0.3 0.2l-0.2-0.3q-0.2 0.1-0.4 0.1c-0.9 0.3-1.8 0-2.4-0.7-0.7-1-0.5-2.4 0.4-3.1 1-0.7 2.4-0.5 3.1 0.4 0.5 0.7 0.6 1.5 0.3 2.2q-0.1 0.2-0.3 0.4zm-0.2-0.4q0.1-0.2 0.2-0.4c0.1-0.5 0-1.1-0.3-1.5-0.4-0.5-0.9-0.7-1.4-0.7q-0.6 0-1.1 0.3c-0.4 0.3-0.6 0.7-0.7 1.2 0 0.5 0.1 0.9 0.4 1.3 0.4 0.6 1.1 0.8 1.7 0.7q0.2-0.1 0.4-0.2 0.1 0 0.1 0 0.1-0.1 0.2-0.2 0.1 0 0.1 0 0-0.1 0.1-0.1 0.1-0.1 0.2-0.2 0-0.1 0.1-0.2z"/>
									</g>
								</g>
							</g>
						</g>
						<g id="&lt;Group&gt;">
							<path id="&lt;Path&gt;" class="s3" d="m555.6 537.6l-4.2-3.8 4.1-4 0.7 0.7-3.4 3.3 3.4 3.1z"/>
						</g>
						<g id="&lt;Group&gt;">
							<path id="&lt;Path&gt;" class="s3" d="m565.5 529.8l4.1 3.8-4.1 3.9-0.7-0.6 3.4-3.3-3.4-3.1z"/>
						</g>
						<g id="&lt;Group&gt;">
							<path id="&lt;Path&gt;" class="s5" d="m1011.4 538.3q-0.7 0.5-1.6 0.7c-1.5 0.3-2.9 0.1-4.1-0.7-1.2-0.7-2.1-1.9-2.5-3.3-0.7-2.9 1.1-5.9 4-6.6 2.9-0.7 5.9 1.1 6.6 4 0.6 2.4-0.5 4.7-2.4 5.9z"/>
							<g id="&lt;Group&gt;">
								<path id="&lt;Path&gt;" class="s3" d="m1010.2 533.1c0 0.9-0.8 1.6-1.7 1.6-0.9 0-1.6-0.7-1.6-1.6 0-0.9 0.7-1.7 1.6-1.7 0.9 0 1.7 0.8 1.7 1.7z"/>
								<path id="&lt;Path&gt;" class="s3" d="m1011.4 537.6v0.7q-0.7 0.5-1.6 0.7c-1.5 0.3-2.9 0.1-4.1-0.7v-0.7c0-1.5 1.2-2.8 2.8-2.8 1.6 0 2.9 1.3 2.9 2.8z"/>
							</g>
						</g>
						<g id="&lt;Group&gt;">
							<path id="&lt;Path&gt;" class="s3" d="m581.8 538.6c-2.9 0-5.3-2.4-5.3-5.3 0-3 2.4-5.4 5.3-5.4 2.7 0 5 2 5.3 4.7l-0.9 0.1c-0.3-2.2-2.2-3.8-4.4-3.8-2.4 0-4.3 1.9-4.3 4.4 0 2.4 1.9 4.3 4.3 4.3 1.3 0 2.5-0.5 3.3-1.4l0.7 0.6c-1 1.2-2.5 1.8-4 1.8z"/>
							<g id="&lt;Group&gt;">
								<path id="&lt;Path&gt;" class="s3" d="m583.8 531.3l0.3-0.5 2.4 1.6 1.4-2.5 0.5 0.3-1.7 3.1z"/>
							</g>
						</g>
					</g>
					<g id="&lt;Group&gt;">
						<g id="&lt;Group&gt;">
							<path id="&lt;Path&gt;" class="s20" d="m879.1 681.7h-184.1v-25.1h184.1z"/>
							<path id="&lt;Path&gt;" class="s2" d="m879.1 681.7h-25.1v-25.1h25.1z"/>
							<g id="&lt;Group&gt;">
								<g id="&lt;Group&gt;">
									<path id="&lt;Path&gt;" class="s3" d="m874.5 676.2l-2.3 1.8-4.3-5.7-1.6-2.1q0.5-0.2 0.9-0.5c0.6-0.4 1-0.9 1.2-1.5l1.7 2.2z"/>
									<path id="&lt;Compound Path&gt;" fill-rule="evenodd" class="s3" d="m870.1 670.4q-0.5 0.7-1.3 1.3-0.4 0.4-0.9 0.6c-2.7 1.4-6.1 0.8-8-1.7-2.1-2.8-1.6-6.8 1.2-8.9 2.8-2.1 6.7-1.6 8.9 1.2 1.7 2.2 1.7 5.3 0.1 7.5zm-1.7-2.2c0.5-1.2 0.4-2.7-0.5-3.8-1.2-1.7-3.6-2-5.3-0.7-1.6 1.3-1.9 3.7-0.7 5.3 1.1 1.4 2.9 1.8 4.4 1.2q0.5-0.2 0.9-0.5c0.6-0.4 1-0.9 1.2-1.5z"/>
								</g>
							</g>
							<path id="&lt;Path&gt;" class="s7" d="m701.6 676.8h-1.3v-15.2h1.3z"/>
						</g>
						<path id="&lt;Path&gt;" class="s4" d="m737.5 705h-42.5v-13.5h42.5z"/>
						<path id="&lt;Path&gt;" class="s2" d="m808.3 705h-42.5v-13.5h42.5z"/>
						<path id="&lt;Path&gt;" class="s4" d="m879.7 705h-42.6v-13.5h42.6z"/>
						<path id="&lt;Path&gt;" class="s18" d="m845.8 637.6h-117.4v-8.2h117.4z"/>
					</g>
				</g>
			</g>
		</g>
	</g>
</svg>