<svg version="1.2" xmlns="http://www.w3.org/2000/svg" viewBox="0 0 1500 1000" width="1500" height="1000">
	<title>8595481-ai</title>
	<style>
		.s0 { fill: #e0e0e0 }
		.s1 { fill: #ebebeb }
		.s2 { fill: #f0f0f0 }
		.s3 { fill: #e6e6e6 }
		.s4 { fill: #f5f5f5 }
		.s5 { fill:  #BA68C8 }
		.s6 { fill: #263238 }
		.s7 { fill: #fdaa6d }
		.s8 { opacity: .3;fill: #ffffff }
		.s9 { opacity: .7;fill: #ffffff }
		.s10 { fill: #6f6d6d }
		.s11 { fill: #ffffff }
		.s12 { fill: none;stroke: #407bff;stroke-linecap: round;stroke-linejoin: round;stroke-width: 2 }
		.s13 { opacity: .3;fill: #000000 }
		.s14 { opacity: .2;fill: #000000 }
		.s15 { opacity: .1;fill: #ffffff }
		.s16 { opacity: .5;fill: #ffffff }
		.s17 { opacity: .6;fill: #ffffff }
		.s18 { opacity: .4;fill: #ffffff }
		.s19 { opacity: .2;fill: #ffffff }
		.s20 { opacity: 0;fill: #ffffff }
		.s21 { opacity: .6;fill: #000000 }
		.s22 { opacity: .4;fill: #000000 }
		.s23 { fill: #af6f5b }
		.s24 { fill: #a24e3f }
		.s25 { opacity: .2;fill: none;stroke: #000000;stroke-linecap: round;stroke-linejoin: round }
		.s26 { fill: #f54948 }
		.s27 { fill: #000000 }
		.s28 { fill:  #BA68C8 }
		.s29 { opacity: .1;fill: #000000 }
		.s30 { fill: #ff7e3c }
	</style>
	<g id="Background complete">
		<g id="&lt;Group&gt;">
			<g id="&lt;Group&gt;">
				<g id="&lt;Group&gt;">
					<g id="&lt;Group&gt;">
						<g id="&lt;Group&gt;">
							<g id="&lt;Group&gt;">
								<path id="&lt;Compound Path&gt;" fill-rule="evenodd" class="s0" d="m1347.5 643.8h-361.5c-6.5 0-11.7-5.2-11.7-11.7v-526.5c0-6.5 5.2-11.7 11.7-11.7h361.5c6.4 0 11.7 5.2 11.7 11.7v526.5c0 6.5-5.3 11.7-11.7 11.7zm-361.5-549.4c-6.2 0-11.2 5-11.2 11.2v526.5c0 6.2 5 11.2 11.2 11.2h361.5c6.2 0 11.2-5 11.2-11.2v-526.5c0-6.2-5-11.2-11.2-11.2z"/>
							</g>
						</g>
						<g id="&lt;Group&gt;">
							<g id="&lt;Group&gt;">
								<path id="&lt;Compound Path&gt;" fill-rule="evenodd" class="s0" d="m930.6 643.8h-361.5c-6.4 0-11.7-5.2-11.7-11.7v-526.5c0-6.5 5.3-11.7 11.7-11.7h361.5c6.5 0 11.7 5.2 11.7 11.7v526.5c0 6.5-5.2 11.7-11.7 11.7zm-361.5-549.4c-6.2 0-11.2 5-11.2 11.2v526.5c0 6.2 5 11.2 11.2 11.2h361.5c6.2 0 11.2-5 11.2-11.2v-526.5c0-6.2-5-11.2-11.2-11.2z"/>
							</g>
						</g>
					</g>
					<g id="&lt;Group&gt;">
						<g id="&lt;Group&gt;">
							<g id="&lt;Group&gt;">
								<path id="&lt;Compound Path&gt;" fill-rule="evenodd" class="s0" d="m514 643.8h-361.5c-6.4 0-11.7-5.2-11.7-11.7v-526.5c0-6.5 5.3-11.7 11.7-11.7h361.5c6.5 0 11.7 5.2 11.7 11.7v526.5c0 6.5-5.2 11.7-11.7 11.7zm-361.5-549.4c-6.2 0-11.2 5-11.2 11.2v526.5c0 6.2 5 11.2 11.2 11.2h361.5c6.2 0 11.2-5 11.2-11.2v-526.5c0-6.2-5-11.2-11.2-11.2z"/>
							</g>
						</g>
					</g>
				</g>
				<g id="&lt;Group&gt;">
					<g id="&lt;Group&gt;">
						<path id="&lt;Path&gt;" class="s0" d="m1500 766.2h-1500v-0.2h1500z"/>
					</g>
				</g>
			</g>
			<g id="&lt;Group&gt;">
				<path id="&lt;Path&gt;" class="s1" d="m1307.3 824.7h111.4v0.9h-111.4z"/>
				<path id="&lt;Path&gt;" class="s1" d="m990.1 833.9h29.2v0.8h-29.2z"/>
				<path id="&lt;Path&gt;" class="s1" d="m81.3 799.1h145.3v0.9h-145.3z"/>
				<path id="&lt;Path&gt;" class="s1" d="m256.6 799.1h21.3v0.9h-21.3z"/>
				<path id="&lt;Path&gt;" class="s1" d="m347.2 813.4h315.2v0.8h-315.2z"/>
			</g>
		</g>
		<path id="&lt;Compound Path&gt;" fill-rule="evenodd" class="s0" d="m945.2 156.3l16.6-16.6 9.3 7.8c6.8-4.4 14.1-7.4 21.7-9l1.2-12.1h23.4l1.1 12.1c7.6 1.6 15 4.6 21.7 9l9.3-7.8 16.6 16.6-7.7 9.3c4.4 6.7 7.3 14.1 8.9 21.7l12.1 1.1v23.5l-12.1 1.1c-1.6 7.6-4.5 15-8.9 21.7l7.7 9.3-16.6 16.6-9.3-7.7c-6.7 4.4-14.1 7.3-21.7 8.9l-1.1 12.1h-23.4l-1.2-12.1c-7.6-1.6-14.9-4.5-21.7-8.9l-9.3 7.7-16.6-16.6 7.8-9.3c-4.4-6.7-7.4-14.1-9-21.7l-12.1-1.1v-23.5l12.1-1.1c1.6-7.6 4.6-15 9-21.7zm38 21.5c-12.4 12.4-12.4 32.4 0 44.8 12.4 12.4 32.4 12.4 44.8 0 12.4-12.4 12.4-32.4 0-44.8-12.4-12.4-32.4-12.4-44.8 0z"/>
		<path id="&lt;Compound Path&gt;" fill-rule="evenodd" class="s0" d="m168 513.4l19.7-19.7 11.1 9.2c7.9-5.2 16.7-8.7 25.7-10.6l1.4-14.4h27.8l1.4 14.4c9 1.9 17.8 5.4 25.7 10.6l11.1-9.2 19.7 19.7-9.2 11.1c5.3 8 8.8 16.8 10.7 25.8l14.4 1.3v27.9l-14.4 1.3c-1.9 9.1-5.4 17.8-10.7 25.8l9.2 11.1-19.7 19.7-11.1-9.2c-7.9 5.2-16.7 8.8-25.7 10.6l-1.4 14.4h-27.8l-1.4-14.4c-9-1.8-17.8-5.4-25.7-10.6l-11.1 9.2-19.7-19.7 9.2-11.1c-5.3-8-8.8-16.7-10.7-25.8l-14.4-1.3v-27.9l14.4-1.3c1.9-9 5.4-17.8 10.7-25.8zm45.1 25.5c-14.7 14.7-14.7 38.6 0 53.3 14.7 14.8 38.6 14.8 53.3 0 14.8-14.7 14.8-38.6 0-53.3-14.7-14.7-38.6-14.7-53.3 0z"/>
		<path id="&lt;Compound Path&gt;" fill-rule="evenodd" class="s0" d="m382.5 128.5l16.5-16.5 9.4 7.7c6.7-4.4 14.1-7.4 21.6-8.9l1.2-12.1h23.4l1.2 12.1c7.6 1.5 14.9 4.5 21.6 8.9l9.4-7.7 16.5 16.5-7.7 9.4c4.4 6.7 7.4 14 9 21.6l12.1 1.2v23.4l-12.1 1.2c-1.6 7.6-4.6 14.9-9 21.6l7.7 9.4-16.5 16.5-9.4-7.7c-6.7 4.4-14 7.4-21.6 8.9l-1.2 12.1h-23.4l-1.2-12.1c-7.5-1.5-14.9-4.5-21.6-8.9l-9.4 7.7-16.5-16.5 7.7-9.4c-4.4-6.7-7.4-14-8.9-21.6l-12.1-1.2v-23.4l12.1-1.2c1.5-7.6 4.5-14.9 8.9-21.6zm38 21.4c-12.4 12.4-12.4 32.5 0 44.9 12.4 12.4 32.5 12.4 44.9 0 12.4-12.4 12.4-32.5 0-44.9-12.4-12.4-32.5-12.4-44.9 0z"/>
		<path id="&lt;Compound Path&gt;" fill-rule="evenodd" class="s0" d="m871.2 86.9l7.9-7.9 4.4 3.7c3.2-2.1 6.7-3.5 10.3-4.3l0.5-5.7h11.2l0.5 5.7c3.6 0.8 7.1 2.2 10.3 4.3l4.4-3.7 7.9 7.9-3.7 4.4c2.1 3.2 3.5 6.7 4.3 10.3l5.7 0.5v11.2l-5.7 0.5c-0.8 3.6-2.2 7.1-4.3 10.3l3.7 4.4-7.9 7.9-4.4-3.7c-3.2 2.1-6.7 3.5-10.3 4.3l-0.5 5.7h-11.2l-0.5-5.7c-3.6-0.8-7.1-2.2-10.3-4.3l-4.4 3.7-7.9-7.9 3.7-4.4c-2.1-3.2-3.5-6.7-4.3-10.3l-5.7-0.5v-11.2l5.7-0.5c0.8-3.6 2.2-7.1 4.3-10.3zm18 10.2c-5.9 5.9-5.9 15.4 0 21.3 5.9 5.9 15.5 5.9 21.3 0 5.9-5.9 5.9-15.4 0-21.3-5.8-5.9-15.4-5.9-21.3 0z"/>
		<path id="&lt;Compound Path&gt;" fill-rule="evenodd" class="s0" d="m505 61.8l7.9-7.9 4.4 3.7c3.2-2.1 6.7-3.5 10.3-4.3l0.6-5.7h11.1l0.5 5.7c3.6 0.8 7.1 2.2 10.3 4.3l4.5-3.7 7.8 7.9-3.6 4.4c2 3.2 3.5 6.7 4.2 10.3l5.7 0.5v11.2l-5.7 0.5c-0.7 3.6-2.2 7.1-4.2 10.3l3.6 4.4-7.8 7.9-4.5-3.7c-3.2 2.1-6.7 3.5-10.3 4.3l-0.5 5.7h-11.1l-0.6-5.7c-3.6-0.8-7.1-2.2-10.3-4.3l-4.4 3.7-7.9-7.9 3.7-4.4c-2.1-3.2-3.5-6.7-4.3-10.3l-5.7-0.5v-11.2l5.7-0.5c0.8-3.6 2.2-7.1 4.3-10.3zm18 10.2c-5.8 5.9-5.8 15.4 0 21.3 5.9 5.9 15.5 5.9 21.3 0 5.9-5.9 5.9-15.4 0-21.3-5.8-5.9-15.4-5.9-21.3 0z"/>
		<path id="&lt;Compound Path&gt;" fill-rule="evenodd" class="s0" d="m143.1 682.8l7.9-7.9 4.4 3.7c3.2-2.1 6.7-3.5 10.3-4.3l0.6-5.7h11.1l0.6 5.7c3.6 0.8 7.1 2.2 10.2 4.3l4.5-3.7 7.9 7.9-3.7 4.4c2.1 3.2 3.5 6.7 4.2 10.3l5.8 0.5v11.2l-5.8 0.5c-0.7 3.6-2.1 7.1-4.2 10.3l3.7 4.4-7.9 7.9-4.5-3.7c-3.1 2.1-6.6 3.5-10.2 4.3l-0.6 5.7h-11.1l-0.6-5.7c-3.6-0.8-7.1-2.2-10.3-4.3l-4.4 3.7-7.9-7.9 3.7-4.4c-2.1-3.2-3.5-6.7-4.2-10.3l-5.8-0.5v-11.2l5.8-0.5c0.7-3.6 2.1-7.1 4.2-10.3zm18.1 10.2c-5.9 5.9-5.9 15.4 0 21.3 5.8 5.9 15.4 5.9 21.3 0 5.9-5.9 5.9-15.4 0-21.3-5.9-5.9-15.5-5.9-21.3 0z"/>
		<path id="&lt;Compound Path&gt;" fill-rule="evenodd" class="s0" d="m1320.8 300l7.9-7.8 4.4 3.6c3.2-2.1 6.7-3.5 10.3-4.2l0.5-5.8h11.2l0.5 5.8c3.6 0.7 7.1 2.1 10.3 4.2l4.4-3.6 7.9 7.8-3.7 4.5c2.1 3.1 3.5 6.6 4.3 10.3l5.7 0.5v11.1l-5.7 0.6c-0.8 3.6-2.2 7.1-4.3 10.3l3.7 4.4-7.9 7.9-4.4-3.7c-3.2 2.1-6.7 3.5-10.3 4.2l-0.5 5.8h-11.2l-0.5-5.8c-3.6-0.7-7.1-2.1-10.3-4.2l-4.4 3.7-7.9-7.9 3.7-4.4c-2.1-3.2-3.5-6.7-4.3-10.3l-5.7-0.6v-11.1l5.7-0.5c0.8-3.7 2.2-7.2 4.3-10.3zm18 10.1c-5.9 5.9-5.9 15.5 0 21.4 5.9 5.8 15.5 5.8 21.3 0 5.9-5.9 5.9-15.5 0-21.4-5.8-5.8-15.4-5.8-21.3 0z"/>
		<path id="&lt;Compound Path&gt;" fill-rule="evenodd" class="s0" d="m125.3 271.6l7.8-7.9 4.5 3.7c3.2-2.1 6.6-3.5 10.3-4.2l0.5-5.8h11.1l0.6 5.8c3.6 0.7 7.1 2.1 10.3 4.2l4.4-3.7 7.9 7.9-3.7 4.4c2.1 3.2 3.5 6.7 4.2 10.3l5.8 0.6v11.1l-5.8 0.6c-0.7 3.6-2.1 7.1-4.2 10.2l3.7 4.5-7.9 7.8-4.4-3.6c-3.2 2.1-6.7 3.5-10.3 4.2l-0.6 5.8h-11.1l-0.5-5.8c-3.7-0.7-7.1-2.1-10.3-4.2l-4.5 3.6-7.8-7.8 3.6-4.5c-2.1-3.1-3.5-6.6-4.2-10.2l-5.8-0.6v-11.1l5.8-0.6c0.7-3.6 2.1-7.1 4.2-10.3zm18.1 10.2c-5.9 5.9-5.9 15.4 0 21.3 5.9 5.9 15.4 5.9 21.3 0 5.9-5.9 5.9-15.4 0-21.3-5.9-5.9-15.4-5.9-21.3 0z"/>
		<g id="&lt;Group&gt;">
			<g id="&lt;Group&gt;">
				<g id="&lt;Group&gt;">
					<path id="&lt;Path&gt;" class="s0" d="m1314 835.4c0-0.9-3.2-96.4-18.8-111.5-15.1-14.6-32.4-0.5-33.1 0.1l-1.6-1.9c0.2-0.1 19.8-16.1 36.4 0.1 16.3 15.8 19.4 109.2 19.6 113.2z"/>
				</g>
				<g id="&lt;Group&gt;">
					<path id="&lt;Path&gt;" class="s0" d="m1315.4 854.2c-0.1-1.1-10.6-114.6 30.8-162.1l1.8 1.6c-40.7 46.7-30.3 159.1-30.2 160.3z"/>
				</g>
				<g id="&lt;Group&gt;">
					<path id="&lt;Path&gt;" class="s0" d="m1313.8 842.2l-2.4-0.2c0.1-1.3 8.1-128.9-22.3-156.9l1.7-1.8c31.2 28.8 23.4 153.6 23 158.9z"/>
				</g>
				<g id="&lt;Group&gt;">
					<path id="&lt;Path&gt;" class="s0" d="m1317.8 842.1h-2.4c0-3.5 1-86.2 24.5-99.7 5.2-3 10.3-3.5 15.2-1.5 14.2 5.9 21.2 31.2 21.5 32.3l-2.3 0.6c-0.1-0.3-7.1-25.2-20.2-30.6-4.1-1.7-8.5-1.3-13 1.3-22.3 12.8-23.3 96.8-23.3 97.6z"/>
				</g>
				<g id="&lt;Group&gt;">
					<path id="&lt;Path&gt;" class="s0" d="m1308.6 842.2l-2.4-0.2c0.1-0.6 3.6-65.3-13.9-88.1-4.2-5.5-8.8-8.2-13.7-7.8-11.4 0.8-21 17.5-21.1 17.7l-2.1-1.2c0.4-0.8 10.3-18.1 23-19 5.7-0.4 11.1 2.6 15.8 8.8 18 23.5 14.6 87.1 14.4 89.8z"/>
				</g>
				<g id="&lt;Group&gt;">
					<path id="&lt;Path&gt;" class="s0" d="m1312.5 851c-0.5-6.3-11.4-154.1 7.8-180.1l2 1.4c-18.8 25.4-7.5 177-7.4 178.5z"/>
				</g>
			</g>
			<g id="&lt;Group&gt;">
				<path id="&lt;Path&gt;" class="s1" d="m1360.3 755.9c0 0-11.5 4.3-8.1 14.3 3.4 10.1 39.9 26.6 39.9 26.6 0 0 15.3-14 1.3-36.8-14.1-22.8-32.8-11.3-33.1-4.1z"/>
			</g>
			<g id="&lt;Group&gt;">
				<path id="&lt;Path&gt;" class="s1" d="m1310.1 736.8c0 0 12.3-0.6 13 10 0.7 10.6-26.7 40-26.7 40 0 0-19.5-7.1-15.3-33.5 4.2-26.5 25.9-23.1 29-16.5z"/>
			</g>
			<g id="&lt;Group&gt;">
				<path id="&lt;Path&gt;" class="s1" d="m1299.7 686c0 0 8.2-0.9 7.5-5.9-0.6-4.9-31.9-17.8-50.3 3 0 0 11.8 20.2 28.9 20.5 17 0.3 13.9-17.6 13.9-17.6z"/>
			</g>
			<g id="&lt;Group&gt;">
				<path id="&lt;Path&gt;" class="s1" d="m1315 673.9c0 0-7.5 3.6-9.5-1-2.1-4.6 17.6-32 44.2-24.1 0 0 0.7 23.4-13.6 32.7-14.4 9.2-21.1-7.6-21.1-7.6z"/>
			</g>
			<g id="&lt;Group&gt;">
				<path id="&lt;Path&gt;" class="s1" d="m1276.1 751.9c0 0 5.7-4.6-0.4-6.8-6.1-2.3-36.1-1.6-36.4 28 0 0 34.9 5.8 39.2-5.5 4.3-11.3-2.4-15.7-2.4-15.7z"/>
			</g>
			<g id="&lt;Group&gt;">
				<path id="&lt;Path&gt;" class="s1" d="m1347.3 685.3c0 0-5.7-4.6 0.5-6.8 6.1-2.3 36-1.6 36.3 28.1 0 0-34.9 5.8-39.2-5.5-4.3-11.3 2.4-15.8 2.4-15.8z"/>
			</g>
			<g id="&lt;Group&gt;">
				<path id="&lt;Path&gt;" class="s1" d="m1328.9 709.2c0 0-0.5-5.6 3.9-3.4 4.5 2.2 20.1 19 4 35 0 0-21.8-16.1-17.9-24.5 3.9-8.4 10-7.1 10-7.1z"/>
			</g>
			<g id="&lt;Group&gt;">
				<path id="&lt;Path&gt;" class="s1" d="m1271.1 717.1c0 0 3.4-4.4-1.6-5-4.9-0.5-27.2 5.4-22 27.6 0 0 27.1-2.1 28.2-11.3 1.2-9.2-4.6-11.3-4.6-11.3z"/>
			</g>
			<path id="&lt;Path&gt;" class="s2" d="m1340.5 884.9h-54.5l-14.5-66.9h82.2z"/>
			<path id="&lt;Path&gt;" class="s3" d="m1358.4 836.3h-91.9v-19.3h91.9z"/>
		</g>
	</g>
	<g id="Shadow">
		<g id="&lt;Group&gt;">
			<g id="&lt;Group&gt;">
				<path id="&lt;Path&gt;" class="s4" d="m1183.6 901.3c0 13.5-187 24.3-417.7 24.3-230.7 0-417.8-10.8-417.8-24.3 0-13.4 187.1-24.3 417.8-24.3 230.7 0 417.7 10.9 417.7 24.3z"/>
			</g>
		</g>
	</g>
	<g id="Tool">
		<g id="&lt;Group&gt;">
			<path id="&lt;Path&gt;" class="s3" d="m217.2 242l-27.7-45.7 33.6-51.5 54.6 8.1 53.1 88.5-11.7 17.4z"/>
			<path id="&lt;Path&gt;" class="s5" d="m170.8 183.7l33.7-51.5 18.8 12.8-33.7 51.4z"/>
			<path id="&lt;Path&gt;" class="s6" d="m326.5 248l-2.5 3.7-88.7-60.2 2.5-3.7z"/>
			<path id="&lt;Path&gt;" class="s6" d="m237.2 202.1c-4.6-3.1-5.8-9.4-2.7-14.1 3.2-4.6 9.5-5.8 14.1-2.7 4.7 3.2 5.9 9.5 2.7 14.1q0 0.1 0 0.1c-3.2 4.6-9.5 5.8-14.1 2.6z"/>
		</g>
	</g>
	<g id="Device">
		<g id="&lt;Group&gt;">
			<path id="&lt;Path&gt;" class="s7" d="m410.8 277.9l6.7 11.1c0.8 1.4 2.3 2.3 3.9 2.2q5.2-0.4 10.3 0.2c3.4 0.7 3.8-13.3 3.8-13.3z"/>
			<path id="&lt;Path&gt;" class="s7" d="m405.8 278.1c2.7-3.9 7.1-6.2 11.8-6.2h8l9.9 6.2z"/>
			<g id="&lt;Group&gt;">
				<path id="&lt;Path&gt;" class="s6" d="m1083.2 717.5h-662.4c-21.8 0-39.5-17.6-39.5-39.4v-456.8c0-21.8 17.7-39.5 39.5-39.5h662.4c21.8 0 39.4 17.7 39.4 39.5v456.8c0 21.8-17.6 39.4-39.4 39.4z"/>
				<path id="&lt;Path&gt;" class="s8" d="m1083.2 717.5h-662.4c-21.8 0-39.5-17.6-39.5-39.4v-456.8c0-21.8 17.7-39.5 39.5-39.5h662.4c21.8 0 39.4 17.7 39.4 39.5v456.8c0 21.8-17.6 39.4-39.4 39.4z"/>
			</g>
			<g id="&lt;Group&gt;">
				<path id="&lt;Path&gt;" class="s5" d="m1069.3 680.6h-635c-12.9 0-23.3-10.4-23.3-23.3v-422.8c0-12.9 10.4-23.3 23.3-23.3h635c12.9 0 23.3 10.4 23.3 23.3v422.8c0 12.9-10.4 23.3-23.3 23.3z"/>
				<path id="&lt;Path&gt;" class="s9" d="m1069.6 680.6h-635c-12.9 0-23.3-10.4-23.3-23.3v-422.8c0-12.9 10.4-23.3 23.3-23.3h635c12.9 0 23.3 10.4 23.3 23.3v422.8c0 12.9-10.4 23.3-23.3 23.3z"/>
				<path id="WEBSITARA" class="s10" aria-label="WEBSITARA"  d="m547.6 422.5l5 28.9 3.4-28.9h15.6l-8.6 46.4h-19.6l-4.4-25.9-5 25.9h-18.9l-8.5-46.4h15.6l3.2 28.6 5.2-28.6zm44.1 28.1v6.6q24.3-0.1 35.3-0.7-0.5 2.6-0.6 5.4-0.1 2.8-0.1 7h-49.7q0.5-12.4 0.5-23.2 0-10.8-0.5-23.2h49.7v11.5h-34.6v6.2q3.1 0 9.1 0 10.2 0 21.1-0.3v11q-10.9-0.4-21.1-0.4-6 0-9.1 0.1zm77.9-4.8q14.6 0 14.6 9.3 0 4.3-2 7.4-2 3-7.1 4.8-5.1 1.6-14.2 1.6h-28.8q0.5-12.4 0.5-23.2 0-10.8-0.5-23.2h15 13.7q7.9 0 12.5 1.4 4.6 1.2 6.4 3.7 1.9 2.5 1.9 6.4 0 3.9-2.7 7-2.7 3-9.3 4.8zm-10.2-11.6h-12.3v5.9h12.3q4 0 5.5-0.7 1.6-0.7 1.6-2.5 0-1.5-1.6-2.1-1.6-0.6-5.5-0.6zm-12.3 23h12.3q3.4 0 5.1-0.2 1.8-0.4 2.5-1.1 0.8-0.7 0.8-2 0-1.7-1.8-2.4-1.8-0.8-6.6-0.8h-12.3zm42.2 6.3q2.2-3.3 3.6-6.1 1.5-2.8 2.8-6.6 4.6 2.7 10.6 4.1 6 1.5 11.2 1.5 5.3 0 7.5-0.9 2.1-0.9 2.1-2 0-3.9-11.9-3.9-13 0-18.9-2.7-5.9-2.8-5.9-8.9 0-8.6 7.2-12.7 7.1-4.1 18.6-4.1 6.7 0 13.6 1.7 7.1 1.7 12.7 4.6-1.9 4.3-3.9 10.4-0.4 1.2-0.6 1.9-3.3-2.7-9.9-4.4-6.6-1.8-11.6-1.8-6.1 0-8.2 0.9-2.1 0.7-2.1 2.3 0 1.5 2.8 2.5 3 0.9 8.5 0.9 13.5 0 19.7 3.1 6.1 3.1 6.1 9.5 0 8.9-6.5 12.9-6.5 3.9-19.8 3.9-7.1 0-14.4-1.5-7.4-1.6-13.3-4.6zm96.3-41v12.7q-7.6-0.4-11.2-0.4v21.9q3.7-0.1 11.2-0.5v12.8h-37.1v-12.8q7.3 0.4 11.2 0.5v-21.9q-3.9 0-11.2 0.4v-12.7zm60.1 0v13.4q-10.1-0.3-19.6-0.4v33.5h-16v-33.5q-9.5 0.1-19.4 0.4v-13.4zm56.9 46.5h-16.5q-1.3-3.7-3.3-9.2h-20.4l-3.2 9.2h-16.1l17.9-46.5h23.6zm-36.6-19.1h13.1q-2.4-6.8-5-13.5l-1.5-4.1q-2.3 5.8-6.6 17.6zm91.4-11.9q0 5.6-2.8 9.4-2.7 3.9-9.3 5.6 0.8 1 1.1 1.6l10.4 14.4h-17.4q-2.8-5.3-8.9-14.9h-9.4v14.9h-15.1q0.5-12.4 0.5-23.2 0-10.9-0.5-23.3h15.1v0.1h13.1q12.9 0 18.1 4.2 5.1 4.1 5.1 11.2zm-27.7-3.1h-8.6v7.3h8.6q5.5 0 8.2-0.3 2.8-0.4 3.9-1.2 1.1-0.8 1.1-2.2 0-1.4-1-2.2-1-0.8-3.9-1.1-2.8-0.3-8.3-0.3zm85.9 34.1h-16.6q-1.2-3.7-3.2-9.2h-20.4l-3.2 9.2h-16.1l17.9-46.5h23.6zm-36.6-19.1h13.1q-2.5-6.7-5-13.4l-1.6-4.2q-2.2 5.8-6.5 17.6z"/>
				<g id="&lt;Group&gt;">
					<path id="&lt;Path&gt;" class="s5" d="m1092.6 246.5h-681.6v-20.7c0-8.1 6.5-14.6 14.6-14.6h646.5c11.3 0 20.5 9.2 20.5 20.6z"/>
					<path id="&lt;Path&gt;" class="s11" d="m1066.4 228.8c0 4.2-3.4 7.5-7.5 7.5-4.1 0-7.5-3.3-7.5-7.5 0-4.1 3.4-7.5 7.5-7.5 4.1 0 7.5 3.4 7.5 7.5z"/>
					<path id="&lt;Path&gt;" class="s11" d="m1045.1 228.8c0 4.2-3.4 7.5-7.5 7.5-4.1 0-7.5-3.3-7.5-7.5 0-4.1 3.4-7.5 7.5-7.5 4.1 0 7.5 3.4 7.5 7.5z"/>
					<path id="&lt;Path&gt;" class="s11" d="m1023.8 228.8c0 4.2-3.4 7.5-7.5 7.5-4.1 0-7.5-3.3-7.5-7.5 0-4.1 3.4-7.5 7.5-7.5 4.1 0 7.5 3.4 7.5 7.5z"/>
					<g id="&lt;Group&gt;">
						<path id="&lt;Path&gt;" class="s12" d="m530.1 195.5q29.4 0 58.8 0"/>
						<path id="&lt;Path&gt;" class="s12" d="m605.1 195.5q6.2 0 12.3 0"/>
					</g>
				</g>
			</g>
			<g id="&lt;Group&gt;">
				<g id="&lt;Group&gt;">
					<path id="&lt;Path&gt;" class="s6" d="m679.9 715.6l-16.7 145.2h-41.4c-9 0-16.3 9.9-16.3 22.1v1.6h332.1c0-14.5-8.7-26.2-19.4-26.1-16.1 0.3-36.2 0.5-35.6-0.4 1-1.3-22.2-144.2-20.8-142.4 1.3 1.9-181.9 0-181.9 0z"/>
					<path id="&lt;Path&gt;" class="s8" d="m679.9 715.6l-16.7 145.2h-41.4c-9 0-16.3 9.9-16.3 22.1v1.6h332.1c0-14.5-8.7-26.2-19.4-26.1-16.1 0.3-36.2 0.5-35.6-0.4 1-1.3-22.2-144.2-20.8-142.4 1.3 1.9-181.9 0-181.9 0z"/>
				</g>
				<path id="&lt;Path&gt;" class="s13" d="m679.6 718.6h182.4l3.1 21.5h-188z"/>
			</g>
		</g>
	</g>
	<g id="Shadows">
		<path id="&lt;Path&gt;" class="s14" d="m894.1 358.5h-169.8c-5.4 0-9.8-4.4-9.8-9.9v-157.6c0-5.5 4.4-9.9 9.8-9.9h169.8c5.4 0 9.8 4.4 9.8 9.9v157.6c0 5.5-4.4 9.9-9.8 9.9z"/>
		<path id="&lt;Path&gt;" class="s14" d="m469.2 658.1h-64.7v-345.4h76.7v333.4c0 6.6-5.3 12-12 12z"/>
	</g>
	<g id="Palette">
		<g id="&lt;Group&gt;">
			<g id="&lt;Group&gt;">
				<path id="&lt;Path&gt;" class="s5" d="m1181.6 790.3l-94.6-92.5 267.2-273.2 94.6 92.4z"/>
				<path id="&lt;Path&gt;" class="s15" d="m1181.6 790.3l-94.6-92.5 267.2-273.2 94.6 92.4z"/>
				<path id="&lt;Path&gt;" class="s16" d="m1181.6 790.3l-94.6-92.5 267.2-273.2 94.6 92.4z"/>
				<g id="&lt;Group&gt;">
					<g id="&lt;Group&gt;">
						<path id="&lt;Path&gt;" class="s6" d="m1356.5 593l-76.2-74.4 74.5-76.2 76.1 74.5z"/>
						<path id="&lt;Path&gt;" class="s17" d="m1356.5 593l-76.2-74.4 74.5-76.2 76.1 74.5z"/>
					</g>
					<g id="&lt;Group&gt;">
						<path id="&lt;Path&gt;" class="s6" d="m1274.7 676.6l-76.1-74.5 74.4-76.1 76.2 74.4z"/>
						<path id="&lt;Path&gt;" class="s18" d="m1274.7 676.6l-76.1-74.5 74.4-76.1 76.2 74.4z"/>
					</g>
					<g id="&lt;Group&gt;">
						<path id="&lt;Path&gt;" class="s6" d="m1193 760.2l-76.1-74.5 74.4-76.1 76.2 74.4z"/>
						<path id="&lt;Path&gt;" class="s19" d="m1193 760.2l-76.1-74.5 74.4-76.1 76.2 74.4z"/>
					</g>
				</g>
			</g>
			<g id="&lt;Group&gt;">
				<path id="&lt;Path&gt;" class="s5" d="m1180.3 787.5l-122.4-50 161-394.4 122.4 50z"/>
				<path id="&lt;Path&gt;" class="s8" d="m1180.3 787.5l-122.4-50 161-394.4 122.4 50z"/>
				<g id="&lt;Group&gt;">
					<path id="&lt;Path&gt;" class="s5" d="m1284.5 498.2l-98.6-40.2 40.3-98.6 98.6 40.2z"/>
					<path id="&lt;Path&gt;" class="s17" d="m1284.5 498.2l-98.6-40.2 40.3-98.6 98.6 40.2z"/>
				</g>
				<g id="&lt;Group&gt;">
					<path id="&lt;Path&gt;" class="s5" d="m1240.3 606.4l-98.6-40.2 40.3-98.6 98.6 40.3z"/>
					<path id="&lt;Path&gt;" class="s18" d="m1240.3 606.4l-98.6-40.2 40.3-98.6 98.6 40.3z"/>
				</g>
				<g id="&lt;Group&gt;">
					<path id="&lt;Path&gt;" class="s5" d="m1196.1 714.7l-98.6-40.3 40.3-98.6 98.6 40.3z"/>
					<path id="&lt;Path&gt;" class="s20" d="m1196.1 714.7l-98.6-40.3 40.3-98.6 98.6 40.3z"/>
				</g>
			</g>
			<g id="&lt;Group&gt;">
				<path id="&lt;Path&gt;" class="s5" d="m1187.2 790.2h-132.2v-455.9h132.2z"/>
				<path id="&lt;Path&gt;" class="s16" d="m1187.2 790.2h-132.2v-455.9h132.2z"/>
			</g>
			<g id="&lt;Group&gt;">
				<path id="&lt;Path&gt;" class="s5" d="m1174.3 456.6h-106.5v-106.5h106.5z"/>
				<path id="&lt;Path&gt;" class="s21" d="m1174.3 456.6h-106.5v-106.5h106.5z"/>
			</g>
			<g id="&lt;Group&gt;">
				<path id="&lt;Path&gt;" class="s5" d="m1174.3 573.5h-106.5v-106.5h106.5z"/>
				<path id="&lt;Path&gt;" class="s22" d="m1174.3 573.5h-106.5v-106.5h106.5z"/>
			</g>
			<g id="&lt;Group&gt;">
				<path id="&lt;Path&gt;" class="s5" d="m1174.3 690.4h-106.5v-106.5h106.5z"/>
				<path id="&lt;Path&gt;" class="s14" d="m1174.3 690.4h-106.5v-106.5h106.5z"/>
			</g>
			<path id="&lt;Path&gt;" class="s6" d="m1138.9 741.1c0 9.9-8 17.8-17.8 17.8-9.8 0-17.8-7.9-17.8-17.8 0-9.8 8-17.8 17.8-17.8 9.8 0 17.8 8 17.8 17.8z"/>
		</g>
	</g>
	<g id="Screen 3">
		<g id="&lt;Group&gt;">
			<path id="&lt;Path&gt;" class="s5" d="m1284.9 270h-127.6c-4.5 0-8.2-3.7-8.2-8.3v-127.5c0-4.6 3.7-8.2 8.2-8.2h127.6c4.5 0 8.2 3.6 8.2 8.2v127.5c0 4.6-3.7 8.3-8.2 8.3z"/>
			<path id="&lt;Path&gt;" class="s18" d="m1284.9 270h-127.6c-4.5 0-8.2-3.7-8.2-8.3v-127.5c0-4.6 3.7-8.2 8.2-8.2h127.6c4.5 0 8.2 3.6 8.2 8.2v127.5c0 4.6-3.7 8.3-8.2 8.3z"/>
			<path id="&lt;Path&gt;" class="s6" d="m1272.1 172.4h-103.4c-4.2 0-7.7-3.5-7.7-7.7 0-4.3 3.5-7.7 7.7-7.7h103.4c4.3 0 7.7 3.4 7.7 7.7 0 4.2-3.4 7.7-7.7 7.7z"/>
			<path id="&lt;Path&gt;" class="s5" d="m1181.8 163.8c0 6-4.9 10.9-11 10.9-6 0-10.9-4.9-10.9-10.9 0-6.1 4.9-11 10.9-11 6.1 0 11 4.9 11 11z"/>
			<path id="&lt;Path&gt;" class="s6" d="m1272.1 205.7h-103.4c-4.2 0-7.7-3.5-7.7-7.7 0-4.3 3.5-7.7 7.7-7.7h103.4c4.3 0 7.7 3.4 7.7 7.7 0 4.2-3.4 7.7-7.7 7.7z"/>
			<path id="&lt;Path&gt;" class="s5" d="m1262.8 197.1c0 6-4.9 10.9-10.9 10.9-6.1 0-11-4.9-11-10.9 0-6.1 4.9-11 11-11 6 0 10.9 4.9 10.9 11z"/>
			<path id="&lt;Path&gt;" class="s6" d="m1272.1 240.7h-103.4c-4.2 0-7.7-3.4-7.7-7.7 0-4.3 3.5-7.7 7.7-7.7h103.4c4.3 0 7.7 3.4 7.7 7.7 0 4.3-3.4 7.7-7.7 7.7z"/>
			<path id="&lt;Path&gt;" class="s5" d="m1218.5 232.1c0 6-4.9 10.9-10.9 10.9-6.1 0-11-4.9-11-10.9 0-6.1 4.9-11 11-11 6 0 10.9 4.9 10.9 11z"/>
		</g>
	</g>
	<g id="Screen 2">
		<g id="&lt;Group&gt;">
			<g id="&lt;Group&gt;">
				<g id="&lt;Group&gt;">
					<g id="&lt;Group&gt;">
						<g id="&lt;Group&gt;">
							<path id="&lt;Path&gt;" class="s5" d="m880.2 345.1h-169.7c-5.5 0-9.9-4.5-9.9-9.9v-169.4c0-5.5 4.4-9.9 9.9-9.9h169.7c5.5 0 9.9 4.4 9.9 9.9v169.4c0 5.4-4.4 9.9-9.9 9.9z"/>
							<path id="&lt;Path&gt;" class="s16" d="m880.2 345.1h-169.7c-5.5 0-9.9-4.5-9.9-9.9v-169.4c0-5.5 4.4-9.9 9.9-9.9h169.7c5.5 0 9.9 4.4 9.9 9.9v169.4c0 5.4-4.4 9.9-9.9 9.9z"/>
							<path id="&lt;Path&gt;" class="s5" d="m890.1 179.4h-189.5v-14.3c0-5.1 4.2-9.2 9.3-9.2h171.1c5 0 9.1 4.1 9.1 9.1z"/>
						</g>
						<g id="&lt;Group&gt;">
							<path id="&lt;Path&gt;" class="s11" d="m870.5 168c0 2.7-2.2 4.9-4.9 4.9-2.8 0-5-2.2-5-4.9 0-2.8 2.2-5 5-5 2.7 0 4.9 2.2 4.9 5z"/>
							<path id="&lt;Path&gt;" class="s11" d="m856.4 167.8c0 2.7-2.2 5-5 5-2.7 0-5-2.3-5-5 0-2.8 2.3-5 5-5 2.8 0 5 2.2 5 5z"/>
							<path id="&lt;Path&gt;" class="s11" d="m842.2 167.8c0 2.7-2.2 5-4.9 5-2.8 0-5-2.3-5-5 0-2.8 2.2-5 5-5 2.7 0 4.9 2.2 4.9 5z"/>
						</g>
					</g>
				</g>
			</g>
			<g id="&lt;Group&gt;">
				<path id="&lt;Compound Path&gt;" class="s6" d="m844.1 208.4v27.6h-2.7q-2.4-9.5-5.4-13.7-2.9-4.2-8-6.7-2.9-1.4-10-1.4h-7.7v78.9q0 7.9 0.9 9.8 0.9 2 3.4 3.5 2.5 1.4 6.9 1.4h3.4v2.8h-53.6v-2.8h3.4q4.5 0 7.2-1.6 2-1 3.1-3.6 0.8-1.8 0.8-9.5v-78.9h-7.4q-10.3 0-15 4.4-6.5 6.1-8.3 17.4h-2.8v-27.6z"/>
			</g>
		</g>
	</g>
	<g id="Screen 1">
		<g id="&lt;Group&gt;">
			<g id="&lt;Group&gt;">
				<g id="&lt;Group&gt;">
					<g id="&lt;Group&gt;">
						<g id="&lt;Group&gt;">
							<path id="&lt;Path&gt;" class="s5" d="m652.9 267.2h-120.8c-5.4 0-9.8-4.4-9.8-9.8v-120.6c0-5.5 4.4-9.9 9.8-9.9h120.8c5.5 0 9.9 4.4 9.9 9.9v120.6c0 5.4-4.4 9.8-9.9 9.8z"/>
							<path id="&lt;Path&gt;" class="s16" d="m652.9 267.2h-120.8c-5.4 0-9.8-4.4-9.8-9.8v-120.6c0-5.5 4.4-9.9 9.8-9.9h120.8c5.5 0 9.9 4.4 9.9 9.9v120.6c0 5.4-4.4 9.8-9.9 9.8z"/>
							<path id="&lt;Path&gt;" class="s5" d="m662.8 144.3h-140.5v-8.1c0-5.2 4.1-9.3 9.2-9.3h122.2c5 0 9.1 4.1 9.1 9.1z"/>
						</g>
						<g id="&lt;Group&gt;">
							<path id="&lt;Path&gt;" class="s11" d="m648.3 135.9c0 2-1.7 3.7-3.7 3.7-2 0-3.7-1.7-3.7-3.7 0-2.1 1.7-3.7 3.7-3.7 2 0 3.7 1.6 3.7 3.7z"/>
							<path id="&lt;Path&gt;" class="s11" d="m637.8 135.7c0 2.1-1.7 3.7-3.7 3.7-2 0-3.7-1.6-3.7-3.7 0-2 1.7-3.7 3.7-3.7 2 0 3.7 1.7 3.7 3.7z"/>
							<path id="&lt;Path&gt;" class="s11" d="m627.3 135.7c0 2.1-1.6 3.7-3.7 3.7-2 0-3.7-1.6-3.7-3.7 0-2 1.7-3.7 3.7-3.7 2.1 0 3.7 1.7 3.7 3.7z"/>
						</g>
					</g>
				</g>
			</g>
			<g id="&lt;Group&gt;">
				<g id="&lt;Group&gt;">
					<path id="&lt;Path&gt;" class="s11" d="m630.1 240.9h-75.2v-75.1h75.2z"/>
				</g>
				<path id="&lt;Path&gt;" class="s5" d="m627.3 238.2h-70.5v-70.4h70.5z"/>
				<g id="&lt;Group&gt;">
					<path id="&lt;Path&gt;" class="s11" d="m592.5 239.3c0 0 36-30.2 36-29.7 0 0.5 0 29.7 0 29.7z"/>
				</g>
			</g>
		</g>
	</g>
	<g id="Character 2">
		<g id="&lt;Group&gt;">
			<g id="&lt;Group&gt;">
				<path id="&lt;Path&gt;" class="s6" d="m861.6 635c0 0-3.7 5.4-4 14-0.1 4-2.8 53.6-2.8 53.6l-38.9-40.9-17.2 8.2c0 0 36.4 52 51.8 58.1 15.5 6 26.6 3.2 30.1-1.4 3.6-4.7 7.4-67.8 7.4-67.8z"/>
				<path id="&lt;Path&gt;" class="s15" d="m861.6 635c0 0-3.7 5.4-4 14-0.1 4-2.8 53.6-2.8 53.6l-38.9-40.9-17.2 8.2c0 0 36.4 52 51.8 58.1 15.5 6 26.6 3.2 30.1-1.4 3.6-4.7 7.4-67.8 7.4-67.8z"/>
			</g>
			<path id="&lt;Path&gt;" class="s6" d="m786.3 666.8l-7.7-32.9-15.4 4.6c-3.4 1-6.7-1.7-6.3-5.3l10-83.2c0.5-4.2 5.6-5.8 8.5-2.8l58.5 62.6c2.5 2.7 1.3 7-2.2 8l-17.6 5.4 12.5 33.3c1.2 3.3-0.7 6.9-4.1 7.8l-29.2 6.9c-3.1 0.7-6.3-1.2-7-4.4z"/>
			<g id="&lt;Group&gt;">
				<path id="&lt;Path&gt;" class="s23" d="m896.4 911l-18.7 4-19.9-32.8 18.7-4z"/>
				<path id="&lt;Path&gt;" class="s6" d="m874 907.1h20.9c0.7 0 1.3 0.5 1.5 1.1l3.4 15.4c0.3 1.3-0.6 2.7-2 3h-0.5c-6.8-0.1-11.7-0.6-20.2-0.6-5.2 0-21 0.6-28.2 0.6-7.3 0-8.3-7.1-5.3-7.8 13.3-2.9 23.3-6.9 27.5-10.7 0.8-0.7 1.8-1.1 2.9-1z"/>
				<path id="&lt;Compound Path&gt;" fill-rule="evenodd" class="s5" d="m868.3 910.1c-1.2 0.1-2.3-0.2-3.3-0.9-0.7-0.5-1-1.4-0.9-2.2 0-0.5 0.3-0.9 0.7-1.1 1.9-1 7.5 2.4 8.1 2.8 0.2 0.1 0.2 0.2 0.2 0.4 0 0.2-0.1 0.3-0.3 0.4q-2.2 0.5-4.5 0.6zm-2.6-3.5q-0.3-0.1-0.6 0c-0.1 0-0.3 0.2-0.3 0.5 0 0.5 0.2 1.1 0.6 1.5 2 0.9 4.2 1 6.2 0.3-1.8-1.2-3.8-1.9-5.9-2.3z"/>
				<path id="&lt;Compound Path&gt;" fill-rule="evenodd" class="s5" d="m872.7 909.5h-0.2c-1.8-1-5.2-4.8-4.8-6.6 0.1-0.6 0.6-1.1 1.3-1.1 0.6-0.1 1.2 0.1 1.7 0.5 2 1.7 2.4 6.6 2.4 6.9q0 0.2-0.2 0.3-0.1 0-0.2 0zm-2.5-6.7q-0.4-0.3-0.9-0.3h-0.2c-0.6 0-0.6 0.3-0.6 0.4-0.2 1.2 2 4 3.7 5.3-0.1-1.9-0.8-3.8-2-5.4z"/>
				<path id="&lt;Path&gt;" class="s14" d="m876.5 878.2l-18.7 4 10.3 16.9 18.7-4z"/>
				<path id="&lt;Path&gt;" class="s5" d="m947.8 826.8c-1 0-2-0.2-3.1-0.3-21.1-1.7-43.3-7.2-60.3-12.4-17.6-5.3-29.8-10.3-29.8-10.3 8.7 16.1 33.9 86 33.9 86l-35.7 8.5c0 0-81.8-107.3-44.9-147.1 27.5-29.4 102.2 2.7 102.2 2.7l102.2 0.8c0 0 7.5 75.9-64.5 72.1z"/>
				<path id="&lt;Path&gt;" class="s14" d="m947.8 826.8c-1 0-2-0.2-3.1-0.3-21.1-1.7-43.3-7.2-60.3-12.4 29.9-5.4 58.5-27 58.5-27z"/>
				<path id="&lt;Path&gt;" class="s23" d="m1085.2 876l1.6 17.2-39.6 5.1-1.6-17.1z"/>
				<path id="&lt;Path&gt;" class="s6" d="m1085 895.7l-2-20.8c-0.1-0.7 0.3-1.3 1-1.6l15-4.8c1.4-0.4 2.8 0.3 3.2 1.6q0 0 0 0 0.1 0.3 0.1 0.6c0.6 6.7 0.6 11.7 1.4 20.2 0.5 5.2 2.5 20.8 3.2 28 0.7 7.2-6.4 8.8-7.3 5.9-4.1-12.9-9-22.5-13.2-26.3-0.8-0.7-1.3-1.7-1.4-2.8z"/>
				<path id="&lt;Compound Path&gt;" fill-rule="evenodd" class="s5" d="m1088.5 901.1c0.2 1.1 0 2.3-0.5 3.3-0.5 0.7-1.3 1.1-2.1 1.1-0.5 0-0.9-0.2-1.2-0.6-1.2-1.7 1.7-7.6 2.1-8.3 0-0.1 0.2-0.2 0.3-0.2 0.2 0 0.4 0.1 0.4 0.3q0.8 2.1 1 4.4zm-3.2 3q0 0.2 0.1 0.5c0 0.1 0.2 0.2 0.5 0.2 0.6 0 1.1-0.2 1.4-0.7 0.7-2 0.6-4.2-0.2-6.2-1 1.9-1.6 4-1.8 6.2z"/>
				<path id="&lt;Compound Path&gt;" fill-rule="evenodd" class="s5" d="m1087.7 896.8v0.2c-0.9 1.8-4.4 5.6-6.2 5.4-0.7 0-1.2-0.5-1.2-1.2-0.1-0.6 0-1.2 0.3-1.7 1.5-2.2 6.4-3.1 6.6-3.1q0.2 0 0.4 0.2 0.1 0.1 0.1 0.2zm-6.8 4v0.2c0.1 0.5 0.4 0.5 0.5 0.5 1.1 0.2 3.8-2.2 5-4.1-2 0.3-3.8 1.2-5.2 2.5q-0.3 0.4-0.3 0.9z"/>
				<path id="&lt;Path&gt;" class="s14" d="m1045.6 881.2l1.7 17.1 20.4-2.7-1.7-17.1z"/>
				<path id="&lt;Path&gt;" class="s5" d="m937.7 765.8c-6.2 9.3-28.7 135.2 0.6 151 27.8 19.7 122.9-14 122.9-14l-1.9-28.5c0 0-81.1 3.3-82.1 3.6-1.8 0.6 31-76.9 33.1-95.6 2-18.6-72.6-16.5-72.6-16.5z"/>
			</g>
			<path id="&lt;Path&gt;" class="s23" d="m821.1 636.8c0 0-24.2-16.8-28-17.3-3.8-0.5-5.3 17.7-2.5 25.9 1.7 4.8 11.4 4.6 21.5 6.4z"/>
			<g id="&lt;Group&gt;">
				<path id="&lt;Path&gt;" class="s6" d="m1012.2 754.7c-34.4 13.9-68.4 18.4-101.4 7.3 0 0-15.7-96.3-49.2-127 5.1-5.5 10.9-10.3 17.3-14.2 13.8-8.8 29.5-14.3 45.9-15.9 12.4-1.2 24.9-0.4 37.2 2.3 0 0 45.9 53.3 50.2 147.5z"/>
				<path id="&lt;Path&gt;" class="s19" d="m861.6 635c14.7 13.4 26 39.6 34 64.7 3.5 10.9 6.4 21.6 8.6 31 4.5 18.1 6.6 31.3 6.6 31.3 32.7 10 66.5 7.5 101.4-7.3-1.3-32.9-8.4-65.3-20.9-95.8-2.2-5.3-4.4-10.3-6.6-14.8-4-8-7.8-14.8-11.2-20.3-1.5-2.5-2.9-4.6-4.1-6.5q-3.5-5.3-7.4-10.1c-12.3-2.7-24.8-3.5-37.2-2.3 6.2 7.4-1.3 22.6-26.5 25.7-14.4 1.8-20.2-3.9-19.4-9.8-6.4 3.9-12.2 8.7-17.3 14.2z"/>
				<path id="&lt;Path&gt;" class="s14" d="m954.4 663.5c0 0 17.9-7.3 30.3-19.4-4-8-7.8-14.8-11.2-20.3-1.5-2.5-2.9-4.6-4.1-6.5z"/>
				<path id="&lt;Path&gt;" class="s14" d="m895.7 699.7c3.4 10.9 6.3 21.6 8.6 31 17.1-6.9 32.7-37.7 32.7-37.7z"/>
			</g>
			<g id="&lt;Group&gt;">
				<path id="&lt;Path&gt;" class="s6" d="m959.2 606.7c-15.8-2.7-44.9 77.7-58.4 79.3-13.5 1.7-79.7-49.2-79.7-49.2l-9 15c0 0 57.9 62 85.9 68.2 28 6.2 80.6-74.4 79.4-89.8-1.3-15.4-7-21.7-18.2-23.5z"/>
				<path id="&lt;Path&gt;" class="s15" d="m959.2 606.7c-15.8-2.7-44.9 77.7-58.4 79.3-13.5 1.7-79.7-49.2-79.7-49.2l-9 15c0 0 57.9 62 85.9 68.2 28 6.2 80.6-74.4 79.4-89.8-1.3-15.4-7-21.7-18.2-23.5z"/>
			</g>
			<g id="&lt;Group&gt;">
				<path id="&lt;Path&gt;" class="s23" d="m921.1 606.8c3.2 11.2-29.1 26.9-40.5 15.7 6.2-4.6 7.8-9.4 7-14.1-0.6-2.9-1.7-5.6-3.3-8q-1.3-2.1-2.8-4l13.7-28.4c2.7 12.5 9.2 40.8 25.9 38.8z"/>
				<g id="&lt;Group&gt;">
					<path id="&lt;Path&gt;" class="s6" d="m848.1 543.6c0 0-4.1 19.3 7.8 29.2 12 10 14.9-34.1 14.9-34.1z"/>
					<path id="&lt;Path&gt;" class="s23" d="m899.8 557.7c0 17.3 0.4 27.1-7.9 36.5-12.6 14.1-34.5 7.9-39.9-9-4.8-15.2-4.1-40.9 12.8-48.8 16.6-7.8 34.9 4.1 35 21.3z"/>
					<path id="&lt;Path&gt;" class="s6" d="m900.6 536.9c-3-9.3-27.5-7.6-34-2.3-0.9 0.8 14 6.8 13.1 6.6l7 1.8c1-0.3 3.1 0.7 4.4 3.8 0 0 1 26.4 9.2 33.5 6-3.4 5.6-13.8 7.2-20.2 2.3-9.5 4.8-23.3-6.9-23.2z"/>
					<path id="&lt;Path&gt;" class="s6" d="m876.8 562.6c0.1 1.7-0.8 3.2-1.9 3.3-1.2 0.1-2.3-1.3-2.4-3-0.1-1.8 0.7-3.3 1.9-3.4 1.2 0 2.3 1.3 2.4 3.1z"/>
					<path id="&lt;Path&gt;" class="s6" d="m859.1 566.1c0.1 1.7-0.8 3.2-2 3.3-1.1 0.1-2.2-1.3-2.3-3.1-0.1-1.7 0.7-3.2 1.9-3.3 1.2-0.1 2.3 1.3 2.4 3.1z"/>
					<path id="&lt;Path&gt;" class="s24" d="m862.8 564.8c0 0-5.2 9.1-6.8 12.8 2.7 2.1 7 0.7 7 0.7z"/>
					<path id="&lt;Path&gt;" class="s6" d="m878.7 555.9c-0.3 0.2-0.6 0.1-0.9 0-3.1-2.1-6.1-0.9-6.1-0.9-0.4 0.1-0.9 0-1.1-0.5-0.2-0.4 0-0.9 0.5-1 0.1-0.1 3.8-1.5 7.7 1 0.3 0.3 0.4 0.8 0.2 1.1q-0.2 0.2-0.3 0.3z"/>
					<path id="&lt;Path&gt;" class="s25" d="m903.4 567.1c-0.8-1-2.3-1.2-3.5-0.8-1.2 0.3-2.2 1.3-2.9 2.3-0.8 1.3-1.3 2.8-1.4 4.3"/>
					<path id="&lt;Path&gt;" class="s6" d="m848.7 559.3q-0.2 0-0.4-0.2c-0.4-0.3-0.4-0.8-0.1-1.2 3.1-3.4 7-2.8 7.2-2.8 0.4 0 0.7 0.4 0.7 0.9-0.1 0.4-0.5 0.8-1 0.7-0.1 0-3.1-0.4-5.6 2.3-0.2 0.2-0.5 0.3-0.8 0.3z"/>
					<path id="&lt;Path&gt;" class="s13" d="m850.5 579.7q0.7 3.2 1.8 6.4c0.3 0.8 0.6 1.5 1 2.3 2.6 5.5 7.3 9.8 12.9 12 8.7 3.5 19.6 0.9 25.7-6.2 2.2-6.9 3-21.4-1.8-29.9 0 0-4.5 12.6-6.1 13.1-1.6 0.5-2.9-5.8-11.4-1.7-8.4 4-11.5 9.5-22.1 4z"/>
					<path id="&lt;Path&gt;" class="s6" d="m904.3 573.6c3-15.2 0.3-31.4-3.6-35.9-3.9-4.4-23.6 7.1-23.6 7.1 4.6-1.3 9.2 2.6 7.7 7.2-2.1 6.5 2.1 16.1 7.2 19.7 0 0 0-2.7 2.3-2.2 2.3 0.5 4.2 14.5 0.1 21.6-0.1 0 6.9-2.4 9.9-17.5z"/>
					<path id="&lt;Path&gt;" class="s23" d="m905.6 570.6c-1.5 4-4.5 7.3-8.4 9.1-5.2 2.4-8.6-2.1-7.9-7.4 0.6-4.8 4.1-11.9 9.6-11.9 5.5-0.1 8.5 5.2 6.7 10.2z"/>
					<path id="&lt;Path&gt;" class="s6" d="m848.4 543.6c0 0 5.3 6.2 20.5 4.7-3.5-0.3-7-1-10.3-2.2 0 0 20.5 2.8 30.3-0.9 9.7-3.6 12.1-7.5 12.1-7.5 0 0-1.7-10.3-24.3-9-22.6 1.3-29.8 11.1-28.3 14.9z"/>
					<path id="&lt;Path&gt;" class="s6" d="m901.9 581.4c0 0 0.2-28.1-18.9-41.3-14.8-10.4-30-6.8-34.3-0.3 0 0-3.7-5.5 3.4-11.3 2.2-1.5 4.5-2.7 7-3.6 0 0 23.9-15.6 47.5-2.2 23.6 13.4 6 24.5 6 24.5 0 0 2 16.8-4.1 21.1 0-0.1-2.3 12.8-6.6 13.1z"/>
					<path id="&lt;Path&gt;" class="s6" d="m866.4 585.1q2.8 2.4 5.1 5.1 0.5-0.4 1.1-0.7c4.8-3 6-6 5.9-8.5-0.1-1.1-0.4-2.3-1-3.3q-0.5-0.9-1.2-1.6c-1.6 3.2-5.9 6.4-8.2 8-1.1 0.6-1.7 1-1.7 1z"/>
					<path id="&lt;Path&gt;" class="s11" d="m868 584l1.5 1.5c4.6-2.9 7.4-5.5 7.9-7.8q-0.5-0.9-1.2-1.6c-1.6 3.2-5.8 6.3-8.2 7.9z"/>
					<path id="&lt;Path&gt;" class="s26" d="m872.5 589.5c4.8-3.1 6.1-6.1 5.9-8.5-1.8 1.2-3.4 2.7-4.6 4.5-0.9 1.1-1.3 2.5-1.3 4z"/>
					<path id="&lt;Path&gt;" class="s8" d="m901.9 581.4c0 0 0.2-28.1-18.9-41.3-14.8-10.4-30-6.8-34.3-0.3 0 0-3.7-5.5 3.4-11.3 2.2-1.5 4.5-2.7 7-3.6 0 0 23.9-15.6 47.5-2.2 23.6 13.4 6 24.5 6 24.5 0 0 2 16.8-4.1 21.1 0-0.1-2.3 12.8-6.6 13.1z"/>
				</g>
			</g>
		</g>
	</g>
	<g id="Character 1">
		<g id="&lt;Group&gt;">
			<g id="&lt;Group&gt;">
				<path id="&lt;Path&gt;" class="s7" d="m173.1 455.6c0 0 7.9 1.6 8.8 2.8 1 1.3 14.3 9.4 14.3 9.4l-9 17.6-6.7-5.1c0 0-5.7 1.4-9.7-0.1-4-1.5-2.1-23.8-2.1-23.8z"/>
				<g id="&lt;Group&gt;">
					<path id="&lt;Path&gt;" class="s14" d="m168.3 458.9c0 0 13.1 2.6 14.6 5.7 1.5 3.1-3.4 2.9-3.4 2.9 0 0 5.4 0.5 5.5 2.8 0.1 2.7-5 2.5-5 2.5 0 0 4.3 0.6 4.3 2.7-0.1 2.1-5.8 2.3-5.8 2.3 0 0 2.9 1 2.1 2.4-0.9 1.4-13.1 2-16.7-0.2-3.6-2.2-2.9-17.6-1.9-20.9 1.1-4 4-5.4 7.3-4.9z"/>
					<path id="&lt;Path&gt;" class="s6" d="m170.3 483.5l-3.4-1c-1.9-0.6-3.1-2.5-2.9-4.5l3.7-27.2 9.3 2.8-1.5 26.3c-0.1 2.2-2 3.9-4.2 3.8q-0.5 0-1-0.2z"/>
					<path id="&lt;Path&gt;" class="s6" d="m192.6 448q0.7-2.3 1.4-4.7c-2.2-3.2-5.1-5.9-8.5-7.9q-1.6 4.6-3.1 9.5-1.5 4.9-2.7 9.6c3.8 0.2 7.7-0.4 11.4-1.8q0.8-2.3 1.5-4.7z"/>
					<path id="&lt;Path&gt;" class="s5" d="m186.4 446.2c1.3-3.9 2.1-7.8 2.5-11.8l-30.5-9.4-7 22.8 30.5 9.4c1.9-3.5 3.4-7.2 4.5-11z"/>
					<path id="&lt;Path&gt;" class="s17" d="m186.4 446.2c1.3-3.9 2.1-7.8 2.5-11.8l-30.5-9.4-7 22.8 30.5 9.4c1.9-3.5 3.4-7.2 4.5-11z"/>
					<path id="&lt;Path&gt;" class="s5" d="m166.3 425.4c-1.4-0.5-35.4-32-39.1-33.3-3.7-1.2-11.7 12.4-17.3 30.4-5.6 18.1-6.8 33.7-2.8 34.9 4 1.3 49.6-5.9 51-5.5 1.4 0.5 4.7-5 7-12.4 2.3-7.3 2.9-13.6 1.2-14.1z"/>
					<path id="&lt;Path&gt;" class="s18" d="m166.3 425.4c-1.4-0.5-35.4-32-39.1-33.3-3.7-1.2-11.7 12.4-17.3 30.4-5.6 18.1-6.8 33.7-2.8 34.9 4 1.3 49.6-5.9 51-5.5 1.4 0.5 4.7-5 7-12.4 2.3-7.3 2.9-13.6 1.2-14.1z"/>
					<path id="&lt;Path&gt;" class="s5" d="m124.4 427c-5.6 18-13.3 31.6-17.3 30.4-4-1.2-2.8-16.7 2.8-34.9 5.5-18.1 13.3-31.6 17.3-30.4 4 1.3 2.8 16.9-2.8 34.9z"/>
					<path id="&lt;Path&gt;" class="s6" d="m114.8 424c-0.3 1.2-0.7 2.5-1 3.6 2.3 2.6 5.2 4.8 8.3 6.5q1.3-3.4 2.4-7.1c0.8-2.5 1.4-4.9 2.1-7.2-3.6-0.4-7.2-0.2-10.6 0.7q-0.8 1.7-1.2 3.5z"/>
					<path id="&lt;Path&gt;" class="s9" d="m114.8 424c-0.3 1.2-0.7 2.5-1 3.6 2.3 2.6 5.2 4.8 8.3 6.5q1.3-3.4 2.4-7.1c0.8-2.5 1.4-4.9 2.1-7.2-3.6-0.4-7.2-0.2-10.6 0.7q-0.8 1.7-1.2 3.5z"/>
				</g>
				<g id="&lt;Group&gt;">
					<path id="&lt;Path&gt;" class="s7" d="m166.7 458.7c0 0 13.5 2.8 15 5.9 1.5 3.1-3.4 2.9-3.4 2.9 0 0 5.3 0.5 5.4 2.8 0.1 2.7-4.9 2.5-4.9 2.5 0 0 4.3 0.6 4.2 2.7 0 2.1-5.8 2.3-5.8 2.3 0 0 3 1 2.1 2.4-0.8 1.4-13 2-16.6-0.2-3.7-2.2-2.9-17.6-1.9-20.9 1.1-4 3.2-5.9 6.5-5.4z"/>
					<path id="&lt;Path&gt;" class="s14" d="m178.3 467.7q0 0 0 0l-9.3-1.3c-0.1 0-0.2-0.1-0.2-0.3 0.1-0.1 0.2-0.2 0.3-0.2l9.2 1.3c0.2 0.1 0.3 0.2 0.2 0.3 0 0.2-0.1 0.3-0.2 0.2z"/>
					<path id="&lt;Path&gt;" class="s14" d="m178.5 473.1q0 0 0 0l-9-0.6c-0.1 0-0.2-0.1-0.2-0.3q0-0.2 0.2-0.2l9 0.6c0.1 0 0.2 0.1 0.2 0.3 0 0.1-0.1 0.2-0.2 0.2z"/>
				</g>
			</g>
			<g id="&lt;Group&gt;">
				<path id="&lt;Path&gt;" class="s7" d="m301.2 854.9c0 0 5.5 33.9 8 50 0.9 5.3-19.4 2.4-21.3 1.9l-12.1-54.4z"/>
				<g id="&lt;Group&gt;">
					<path id="&lt;Compound Path&gt;" fill-rule="evenodd" class="s5" d="m272.8 895.8c-3 0.4-5.9 0.3-7-0.9-0.6-0.6-0.7-1.6-0.2-2.4 0.3-0.7 0.9-1.2 1.6-1.5 3.7-1.5 12.4 2.1 12.8 2.2q0.2 0.1 0.3 0.3c0.1 0.3 0 0.7-0.3 0.8q-3.5 1.1-7.2 1.5zm-4.2-4q-0.5 0.1-1 0.3c-0.5 0.1-0.8 0.4-1 0.9-0.3 0.7-0.2 1 0 1.2 1.3 1.4 7.2 0.6 11.4-0.5-3-1.2-6.2-1.9-9.4-1.9z"/>
					<path id="&lt;Compound Path&gt;" fill-rule="evenodd" class="s5" d="m279.7 894.3h-0.2c-3-0.9-9.1-5.2-9.1-7.9 0.1-0.6 0.3-1.5 1.9-1.8 1-0.3 2.2-0.2 3.1 0.4 3.3 2 4.8 8.2 4.8 8.4 0.1 0.2 0.1 0.4 0 0.6zm-4.8-8.3c-0.6-0.4-1.3-0.6-2-0.5h-0.4c-0.9 0.3-0.9 0.7-0.9 0.8-0.2 1.6 4.2 5 7.3 6.4-0.6-2.6-2-4.9-4-6.7z"/>
					<path id="&lt;Path&gt;" class="s6" d="m279.4 891.7c-4.9 6.1-10.7 12.6-27.9 19.4-3.8 1.5-0.9 10.9 8.8 9.3 9.7-1.6 38.9-7.6 52.3-11.5 0.2 0 3.3-2.8 2.7-4.6l-7.8-17.7c-0.3-0.9-1.3-1.4-2.2-1.2l-22.3 4.1c-1.5 0.3-2.8 1.1-3.6 2.2z"/>
				</g>
				<g id="&lt;Group&gt;" style="opacity: .2">
					<path id="&lt;Path&gt;" class="s27" d="m281 874.6l-5.2-22.2 25.4 2.5 2.7 16.8z"/>
				</g>
			</g>
			<g id="&lt;Group&gt;">
				<path id="&lt;Path&gt;" class="s7" d="m486 792.9c0 0 23.1 25.4 34.2 37.5 3.6 4-14.9 12.7-16.8 13.3l-40-38.9z"/>
				<g id="&lt;Group&gt;" style="opacity: .2">
					<path id="&lt;Path&gt;" class="s27" d="m479.9 820.6l-16.5-15.8 22.6-11.8 11.4 12.6z"/>
				</g>
				<g id="&lt;Group&gt;">
					<path id="&lt;Compound Path&gt;" fill-rule="evenodd" class="s5" d="m484.7 842.9c-2.2 2-4.7 3.5-6.3 3.1-0.8-0.2-1.4-1-1.5-1.8-0.2-0.8 0-1.6 0.5-2.3 2.2-3.3 11.5-5.2 11.9-5.2 0.2 0 0.4 0.1 0.6 0.2 0.1 0.2 0.1 0.5 0 0.7q-2.3 2.9-5.2 5.3zm-5.7-1.2q-0.4 0.4-0.7 0.8c-0.3 0.4-0.4 0.8-0.3 1.3 0.1 0.8 0.4 1 0.7 1 1.8 0.5 6.3-3.4 9.2-6.6-3.2 0.6-6.2 1.8-8.9 3.6z"/>
					<path id="&lt;Compound Path&gt;" fill-rule="evenodd" class="s5" d="m489.7 837.7l-0.2 0.1c-3 0.9-10.5 0.6-11.9-1.6-0.4-0.9-0.2-1.9 0.5-2.5 0.8-0.9 1.8-1.4 2.9-1.5 3.9-0.1 8.5 4.3 8.7 4.5 0.1 0.1 0.2 0.3 0.2 0.5zm-8.6-4.3c-0.7 0-1.4 0.3-2 0.8l-0.3 0.1c-0.7 0.7-0.4 1.1-0.4 1.2 0.8 1.4 6.3 1.9 9.6 1.3-1.9-1.8-4.3-3-7-3.4z"/>
					<path id="&lt;Path&gt;" class="s6" d="m489.7 836.3c-2.2 7.4-5.2 15.6-18.6 28.4-2.9 2.8 3.2 10.4 11.6 5.3 8.4-5.1 33.3-21.6 44.2-30.2 0.2-0.1 2.1-3.9 0.8-5.3l-13.8-13.5c-0.6-0.7-1.7-0.8-2.5-0.3l-19.2 12.2c-1.2 0.7-2.1 2-2.5 3.4z"/>
				</g>
			</g>
			<g id="&lt;Group&gt;">
				<path id="&lt;Path&gt;" class="s6" d="m324.3 540l37.5-20.2c5.1 7.5 9.1 13.6 11.2 22.3 2.6 11.2-3.2 30.5-1.7 29.7-42 22.9-50.5 15.3-50.5 15.3l-12.1 7.8c-18.7 12.1-50.9 6.4-43.5-14.7 6.4-18.7 6.4-42.7 6.4-42.7 24.5 6.9 52.7 2.5 52.7 2.5z"/>
				<path id="&lt;Path&gt;" class="s6" d="m304.8 554.7c-16.1-1-28.8-4.9-33.1 6.8-25.7 69.9-37 141.9-30.9 183.2 3.6 24.3 19.2 123.7 39.2 122.8 6.2-0.3 26-3.7 26-3.7 2-2.6 2.7-5.9 2-9.1-7.6-34.2-22-95-16.9-127.1 6.6-41.6 39.1-108.6 40-132.6 0.9-23.3-23.4-40.1-26.3-40.3z"/>
				<path id="&lt;Path&gt;" class="s14" d="m310.8 661.8l14.2-43.8c0 0-8.9-53.4-11.9-48.5-23.2 38-2.3 92.3-2.3 92.3z"/>
				<path id="&lt;Path&gt;" class="s6" d="m324.4 540.1c-13.9 7.9-18.8 21.2-15.6 33.3 15.4 57 47.8 109.7 74.5 157.7 12 21.5 82.7 95.7 91.9 84.1 3.9-4.9 19.8-17.4 19.8-17.4 5.2-16.6-37.4-24.5-126.5-238.5-9-21.5-41.6-20.7-44.1-19.2z"/>
			</g>
			<g id="&lt;Group&gt;">
				<path id="&lt;Path&gt;" class="s5" d="m325 386.1c1.9-1.5 51.3-2.5 79.9-2.5v-0.3c1.3-19 6.2-37.6 14.3-54.9l12.1-25.8c3.2-7 10.6-11 18.1-10 2.4 0.3 4.7 1 6.9 2l-5.5 2q0.1 3-0.5 6.1l-16.7 87.4c0.5 3.2-0.1 8.1-3 15.6-3.4 8.8-52.5 19.3-78.8 21.2-7.8 0.5-13.5 0.3-15.6-0.8-4.6-2.6-10.2-10.7-13.3-19.1-3-8.3-3.5-17 2.1-20.9z"/>
				<path id="&lt;Path&gt;" class="s28" d="m327.3 386q1.2-0.1 2.4-0.1c12.8 0.4 22.8 11.1 22.4 23.9l21.7 120.3c-9.5 13.1-107.7 50.9-109.7 39.1 9.4-56.2-30.2-150.9-16.6-160.4 41.4-29.4 74.5-22.5 79.8-22.8z"/>
				<path id="&lt;Path&gt;" class="s5" d="m191.8 463.1l51.7 12.6c0 0-11.9-55.6 2.9-66.3 14.7-10.7 35.5 95.2 35.5 95.2l-13.3 19.3c0 0-86.2-35.5-86.2-33.8 0 1.6 9.4-27 9.4-27z"/>
				<path id="&lt;Path&gt;" class="s14" d="m264.1 522.1l-12.1-79.1 3 75.3z"/>
				<path id="&lt;Path&gt;" class="s29" d="m327.2 409c3 8.4 8.6 16.4 13.3 19 2.2 1.2 8.3 3.7 14.6-1.4 2.6 19.1 9.5 52.7 9.5 52.7 0 0-30.2-32.2-37.4-70.3z"/>
			</g>
			<g id="&lt;Group&gt;">
				<path id="&lt;Path&gt;" class="s5" d="m464.6 645.4h-77c-3.9 0-6.9-3.1-6.9-6.9v-332.5c0-3 2.4-5.4 5.3-5.4h81.5c3.2 0 5.9 2.6 5.9 5.9v330.1c0 4.9-4 8.8-8.8 8.8z"/>
				<path id="&lt;Path&gt;" class="s16" d="m464.9 645.4h-77.2c-3.9 0-7-3.2-7-7.1v-332.2c0-3 2.4-5.5 5.5-5.5h78.6c4.7 0 8.6 3.9 8.6 8.6v327.7c0 4.7-3.8 8.5-8.5 8.5z"/>
				<path id="&lt;Path&gt;" class="s5" d="m473.4 321.1h-92.7v-15.1c0-3 2.4-5.4 5.3-5.4h81.9c3 0 5.5 2.5 5.5 5.5z"/>
				<path id="&lt;Path&gt;" class="s16" d="m422.9 369.3h-27.5v-27.5h27.5z"/>
				<path id="&lt;Path&gt;" class="s16" d="m461.3 369.3h-27.4v-27.5h27.4z"/>
				<path id="&lt;Path&gt;" class="s16" d="m422.9 408.7h-27.5v-27.5h27.5z"/>
				<path id="&lt;Path&gt;" class="s16" d="m461.3 408.7h-27.4v-27.5h27.4z"/>
				<path id="&lt;Path&gt;" class="s16" d="m422.9 447.9h-27.5v-27.5h27.5z"/>
				<path id="&lt;Path&gt;" class="s16" d="m461.3 447.9h-27.4v-27.5h27.4z"/>
				<path id="&lt;Path&gt;" class="s16" d="m422.9 487h-27.5v-27.4h27.5z"/>
				<path id="&lt;Path&gt;" class="s16" d="m461.3 487h-27.4v-27.4h27.4z"/>
				<path id="&lt;Path&gt;" class="s16" d="m422.9 632.6h-27.5v-27.5h27.5z"/>
				<path id="&lt;Path&gt;" class="s16" d="m461.3 632.6h-27.4v-27.5h27.4z"/>
				<path id="&lt;Path&gt;" class="s11" d="m461.3 581.4h-43.5v-43.6h43.5z"/>
				<g id="&lt;Group&gt;">
					<path id="&lt;Path&gt;" class="s5" d="m439.5 556.9h-43.5v-43.5h43.5z"/>
				</g>
			</g>
			<g id="&lt;Group&gt;">
				<g id="&lt;Group&gt;">
					<path id="&lt;Path&gt;" class="s7" d="m424.5 301.1c0 0 3.5 11.4 6.5 12.8 3 1.3 2.8-3.3 2.8-3.3 0 0 0.5 5.1 2.7 5.2 2.7 0 2.4-4.9 2.4-4.9 0 0 0.7 4.2 2.7 4.1 2-0.1 2.1-5.7 2.1-5.7 0 0 1 2.9 2.3 2.1 1.4-0.9 1.8-12.7-0.4-16.2-2.2-3.4-17.4-3.5-20.7-2.8-1 0.3-7.7 4.6-9.7 8.2l9.1 0.1z"/>
				</g>
				<g id="&lt;Group&gt;">
					<path id="&lt;Path&gt;" class="s14" d="m434 310.5q0 0 0 0l-1.4-8.9c0-0.1-0.2-0.2-0.3-0.2-0.1 0-0.2 0.1-0.2 0.3l1.4 8.9c0 0.1 0.2 0.2 0.3 0.2 0.1 0 0.2-0.1 0.2-0.3z"/>
				</g>
				<g id="&lt;Group&gt;">
					<path id="&lt;Path&gt;" class="s14" d="m439.2 310.6q0 0 0 0l-0.7-8.7c0-0.1-0.1-0.2-0.3-0.2q-0.2 0.1-0.2 0.3l0.7 8.7c0 0.1 0.1 0.2 0.2 0.2 0.2 0 0.3-0.1 0.3-0.3z"/>
				</g>
				<g id="&lt;Group&gt;">
					<path id="&lt;Path&gt;" class="s14" d="m443.9 309l-0.3-6.4c0-0.1-0.1-0.2-0.2-0.2-0.2 0-0.3 0.1-0.3 0.2l0.3 6.5c0 0.1 0.2 0.2 0.3 0.2 0.1 0 0.2-0.1 0.2-0.3z"/>
				</g>
			</g>
			<path id="&lt;Path&gt;" class="s13" d="m290.6 378.3l-0.5-1.9-18.2 4c6.2 5.4 16.3 4.1 20.1 1.5z"/>
			<g id="&lt;Group&gt;">
				<path id="&lt;Path&gt;" class="s6" d="m263.8 383.6c0 0 25.4-0.9 37.7-5.7 13.6-5.2 4.7-25.4 4.7-25.4 3.7-1.3 6.7-3.8 8.7-7.1 2.7-4.9 0.6-11.4-3.7-15.1-4.2-3.8-12.2-4.8-17.6-6.4 3.7-0.9 5.4-5.7 4-9.3-1.8-3.4-5-5.8-8.8-6.6q-5.6-1.2-11.3-1.6c-5.3-0.8-10.3-2.6-15.5-3.5-5.3-1.3-10.8-0.7-15.6 1.7-3.6 2.3-6.4 5.7-8 9.7-1.3 2.8-1.8 5.9-1.3 9 0.6 3.1 3.2 5.5 6.3 5.9 0 0 9.2 47.4 20.4 54.4z"/>
				<path id="&lt;Path&gt;" class="s6" d="m237.1 325.3c7.7-3.2 17.2 8.9 21 13.9 7.1 8.7 13.1 18.3 17.8 28.5 1.7 4.1 2.9 9.5-0.2 12.8-2.2 1.8-5 2.8-7.9 2.8q-7.6 0.8-15.3 0.7c-4.8-0.1-9.9-0.5-13.8-3.3-3.9-2.9-5.8-9-2.7-12.7-3.8 0.9-7.6-2.3-8.8-5.9-1-3.8-1-7.8 0-11.5 1-6.8 2.1-22.1 9.9-25.3z"/>
				<path id="&lt;Path&gt;" class="s7" d="m292 381.9c1.1 2.6 2.7 4.9 4.6 6.8 2.4 2.2 3.2 5.5 2.1 8.5-1.5 3.8-5 9.4-12.5 16.7-1.3 1.3-2.9 2.2-4.6 2.7-5.8 1.8-12-1.5-13.8-7.4q-0.4-1.3-0.4-2.8c0-3.1 1.5-6.1 4.1-8 6.8-5.2 3.2-13.3-0.6-19.8l16.1-18.9c0.5 6.3 1.7 12.5 3.6 18.5z"/>
				<path id="&lt;Path&gt;" class="s6" d="m251.2 355.9c-2.5-8.1-4.7-16.5-8.6-24.1q-0.9 3-1 6c-0.2 3.9 0.5 7.8 2 11.3 1.2 2.7 2.2 5.1 3.2 7.4 3.7 8.6 6.5 14.1 11.7 18.4l1.6 0.8c-3.9-6.2-6.9-12.8-8.9-19.8z"/>
				<path id="&lt;Path&gt;" class="s7" d="m289.5 328.8q-0.7-1.1-1.5-2.2c-5.4-7.3-12.3-12.7-20.9-13-10.3-0.6-19.7 5.4-23.6 14.9q-0.6 1.2-1 2.5-0.8 3-1 6c-0.1 3.9 0.6 7.8 2.1 11.3 1.1 2.7 2.1 5.1 3.1 7.4 3.7 8.6 6.6 14.1 11.7 18.4q2.3 1.8 4.8 3.2c0.5 0.3 1.1 0.6 1.7 0.9q2.1 1 4.4 1.7c4.1 1.3 8.5 1.5 12.6 0.5h0.2c11.1-2.5 18.4-13.1 17-24.4-1.1-9.7-4.4-18.9-9.6-27.2z"/>
				<g id="&lt;Group&gt;">
					<path id="&lt;Path&gt;" class="s7" d="m245.3 346c5.8 16.4 8.7 25.7 19.8 31.8 16.7 9.1 35.3-4.1 34.7-22-0.6-16-10-40.1-28.6-41.9-18.4-1.7-31.7 15.7-25.9 32.1z"/>
					<path id="&lt;Path&gt;" class="s14" d="m254.6 355.5c1.3-0.4 2.5 0.4 3.8 0.6 29.3 2.9 38.5-2.5 40.9-5.6 0.3 1.7 0.3 3.8 0.5 5.3 0 11.8-6.5 22.1-17.6 24.7h-0.1c-4.2 0.9-8.5 0.7-12.6-0.5q-2.3-0.7-4.5-1.8c-0.6-0.3-1.1-0.6-1.7-0.9q-2.5-1.4-4.8-3.2c-2.1-1.8-4-3.9-5.5-6.3q-0.7-3.1-0.9-6.3c-0.2-2.4 0.3-5.4 2.5-6z"/>
					<path id="&lt;Path&gt;" class="s6" d="m253.7 331.1c-1.3-2-3.4-3.2-5.7-3.3-1.6 0-5.2 0.1-6.1 0-0.8-0.2-1.8-0.2-2.2 0.4-5.6 8.7-6.1 19.8-1.2 28.9 4.9 7.6 11.8 13.8 20 17.7-5.2-4.2-8-9.7-11.8-18.4q2.2-0.6 4.5-0.6c1.2 0 4.8 4.7 5.3 3.6 1.7-3.5-6.5-15.6-2.8-28.3z"/>
					<path id="&lt;Path&gt;" class="s7" d="m242.9 361.8c2.6 3.9 6.8 6.2 10.7 6.9 5.8 1.1 6.2-4.9 4.2-10-1.8-4.6-4.8-10-10.5-8.7-5.6 1.2-7.3 7.3-4.4 11.8z"/>
					<path id="&lt;Path&gt;" class="s6" d="m269.2 342.8c0.4 1.7 1.8 2.8 2.9 2.5 1.2-0.3 1.7-2 1.2-3.7-0.5-1.7-1.8-2.8-2.9-2.5-1.2 0.3-1.7 2-1.2 3.7z"/>
					<path id="&lt;Path&gt;" class="s6" d="m287.1 340.1c0.5 1.7 1.8 2.8 2.9 2.5 1.2-0.4 1.7-2 1.2-3.7-0.4-1.7-1.8-2.8-2.9-2.5-1.2 0.3-1.7 2-1.2 3.7z"/>
					<path id="&lt;Path&gt;" class="s30" d="m283.2 340.1c0 0 7.9 6.9 10.7 9.9-1.9 2.8-6.3 3-6.3 3z"/>
					<path id="&lt;Path&gt;" class="s6" d="m261.4 338.8c0.3 0 0.6-0.1 0.7-0.3 2.3-3.1 5.5-3 5.5-3 0.5 0.1 0.9-0.3 0.9-0.7 0-0.5-0.3-0.9-0.8-0.9-0.2 0-4.1-0.1-6.9 3.6-0.3 0.4-0.2 0.9 0.2 1.1q0.1 0.2 0.4 0.2z"/>
					<path id="&lt;Path&gt;" class="s25" d="m245.5 356.1c0.5-1.2 1.8-2 3-2 1.3-0.1 2.6 0.5 3.6 1.3 1.2 0.9 2.1 2.1 2.7 3.5"/>
					<path id="&lt;Path&gt;" class="s6" d="m294.6 330.2q0.2-0.1 0.3-0.3c0.3-0.5 0.1-1-0.3-1.2-4.1-2.2-7.6-0.3-7.7-0.3-0.4 0.2-0.6 0.7-0.4 1.2 0.2 0.4 0.7 0.5 1.2 0.3 0.1-0.1 2.8-1.5 6.1 0.3 0.2 0.1 0.5 0.1 0.8 0z"/>
					<path id="&lt;Path&gt;" class="s6" d="m287.7 358.9q-1.7 3.1-3 6.5-0.7-0.2-1.3-0.3c-5.6-1.3-7.8-3.7-8.5-6-0.3-1.2-0.3-2.4-0.1-3.5q0.2-1 0.6-1.9c2.6 2.4 7.7 4 10.4 4.7 1.3 0.3 1.9 0.5 1.9 0.5z"/>
					<path id="&lt;Path&gt;" class="s11" d="m285.9 358.4l-1 1.9c-5.2-1.2-8.7-2.8-10-4.8q0.1-1 0.6-1.9c2.5 2.5 7.6 4 10.4 4.8z"/>
					<path id="&lt;Path&gt;" class="s26" d="m283.5 365c-5.6-1.2-7.8-3.6-8.5-6 2.1 0.6 4.1 1.4 5.9 2.7 1.2 0.8 2.1 2 2.6 3.3z"/>
				</g>
				<path id="&lt;Path&gt;" class="s6" d="m246.8 316.2c-3.7 1.8-6.9 6.1-5.3 9.8 1.4 3.2 5.3 4.2 8.7 4.8 6.8 1.4 13.7 2.5 20.5 1.4 2-0.4 4.2-1.1 4.8-3 0.5-1.5 0-3.2-1.1-4.2-1.2-1.1-2.5-1.9-3.9-2.5 3.8 2.1 8 3.3 12.3 3.7 1.6 0.3 3.1 0 4.4-0.9 1-1.4 1.1-3.3 0.2-4.7-1-1.3-2.3-2.4-3.8-3.1-11.3-6.5-25.1-7-36.8-1.3z"/>
			</g>
		</g>
	</g>
</svg>