<svg version="1.2" xmlns="http://www.w3.org/2000/svg" viewBox="0 0 1500 1000" width="1500" height="1000">
	<title>4957856-ai</title>
	<style>
		.s0 { fill: #ebebeb } 
		.s1 { fill: #a6a6a6 } 
		.s2 { fill:  #BA68C8 } 
		.s3 { fill: #ffffff } 
		.s4 { fill: #dbdbdb } 
		.s5 { fill: #c7c7c7 } 
		.s6 { fill: #ffffff;stroke: #c7c7c7;stroke-miterlimit:10;stroke-width: 2 } 
		.s7 { fill: #263238 } 
		.s8 { fill: #37474f } 
		.s9 { opacity: .1;fill: #000000 } 
		.s10 { fill: #455a64 } 
		.s11 { fill: #000000 } 
		.s12 { opacity: .6;fill: #ffffff } 
		.s13 { opacity: .2;fill: #000000 } 
		.s14 { fill: #c95f50 } 
		.s15 { fill: #ff97b8 } 
	</style>
	<g id="Background Complete">
		<g id="&lt;Group&gt;">
			<path id="&lt;Compound Path&gt;" fill-rule="evenodd" class="s0" d="m451.6 290.2h-253.3v-173.3h253.3zm-251.3-2h249.3v-169.3h-249.3z"/>
			<g id="&lt;Group&gt;">
				<path id="&lt;Path&gt;" class="s1" d="m218.1 128.1c0 2.7-2.3 5-5 5-2.8 0-5.1-2.3-5.1-5 0-2.8 2.3-5.1 5.1-5.1 2.7 0 5 2.3 5 5.1z"/>
				<path id="&lt;Path&gt;" class="s0" d="m238.7 128.1c0 2.7-2.3 5-5.1 5-2.7 0-5-2.3-5-5 0-2.8 2.3-5.1 5-5.1 2.8 0 5.1 2.3 5.1 5.1z"/>
				<path id="&lt;Path&gt;" class="s2" d="m259.3 128.1c0 2.7-2.3 5-5.1 5-2.8 0-5-2.3-5-5 0-2.8 2.2-5.1 5-5.1 2.8 0 5.1 2.3 5.1 5.1z"/>
			</g>
			<path id="&lt;Path&gt;" class="s0" d="m450.6 138.9h-251.3v-2h251.3z"/>
		</g>
		<g id="&lt;Group&gt;">
			<g id="&lt;Group&gt;">
				<path id="&lt;Compound Path&gt;" fill-rule="evenodd" class="s0" d="m1364.7 596.4l-26.2 0.6-13.3 0.2c-4.5 0.1-9 0.1-13.4 0.1h-0.9v-0.9l-0.1-22.3v-1h1l26.5 0.1c8.8 0 17.6 0.2 26.4 0.3h0.6v0.6c0 3.8-0.2 7.5-0.3 11.3zm0 0l-0.3-11.3c0-3.6-0.2-7.1-0.2-10.6-8.7 0.2-17.3 0.4-26 0.4l-25.4 0.1-0.1 20.5c4 0 8.1 0 12.2 0.1l13.1 0.2zm-0.5-21.8q0.2 0 0.5 0l-0.5-0.6q0 0.3 0 0.6zm-51.5 0.4l0.1-1-1 1zm-0.1 20.5q-0.5 0-0.9 0l0.9 0.9z"/>
			</g>
			<g id="&lt;Group&gt;">
				<path id="&lt;Compound Path&gt;" fill-rule="evenodd" class="s0" d="m1335.2 624.7l-26.2 0.5-13.4 0.2c-4.4 0.1-8.9 0.1-13.4 0.2h-0.8l-0.1-0.9-0.1-22.4v-1h1l26.5 0.1c8.8 0 17.7 0.2 26.5 0.3h0.6l-0.1 0.6c0 3.8-0.1 7.6-0.2 11.3zm0 0l-0.3-11.3c-0.1-3.5-0.2-7.1-0.3-10.5-8.6 0.1-17.2 0.3-25.9 0.3l-25.5 0.1-0.1 20.5c4.1 0 8.1 0 12.2 0.1l13.2 0.2zm-0.6-21.8q0.3 0 0.6 0l-0.6-0.5q0 0.2 0 0.5zm-51.4 0.5v-1l-1 1zm-0.1 20.5q-0.4 0-0.9 0l0.9 0.8z"/>
			</g>
			<g id="&lt;Group&gt;">
				<path id="&lt;Compound Path&gt;" fill-rule="evenodd" class="s0" d="m1394.3 624.7l-26.3 0.5-13.3 0.2c-4.4 0.1-8.9 0.1-13.4 0.2h-0.9v-0.9l-0.1-22.4v-1h1l26.5 0.1c8.8 0 17.7 0.2 26.5 0.3h0.5v0.6c0 3.8-0.1 7.6-0.2 11.3zm0 0l-0.3-11.3c-0.1-3.5-0.2-7.1-0.3-10.5-8.6 0.1-17.3 0.3-25.9 0.3l-25.5 0.1-0.1 20.5c4.1 0 8.1 0 12.2 0.1l13.2 0.2zm-0.6-21.8q0.3 0 0.6 0l-0.6-0.5q0 0.2 0 0.5zm-51.4 0.5v-1l-1 1zm-0.1 20.5q-0.4 0-0.9 0l0.9 0.8z"/>
			</g>
			<g id="&lt;Group&gt;">
				<path id="&lt;Compound Path&gt;" fill-rule="evenodd" class="s0" d="m649.6 330.1l-26.3 0.6-13.3 0.2c-4.4 0.1-8.9 0.1-13.4 0.1h-0.9v-0.9l-0.1-22.3v-1h1l26.5 0.1c8.8 0 17.7 0.2 26.5 0.3h0.5v0.6c0 3.8-0.1 7.5-0.2 11.3zm0 0l-0.3-11.3c-0.1-3.6-0.2-7.1-0.3-10.6-8.6 0.1-17.3 0.3-25.9 0.4l-25.5 0.1-0.1 20.5c4.1 0 8.1 0 12.2 0.1l13.2 0.2zm-0.6-21.8q0.3 0 0.6 0l-0.6-0.6q0 0.3 0 0.6zm-51.4 0.4v-1l-1 1zm-0.1 20.5q-0.4 0-0.9 0l0.9 0.9z"/>
			</g>
			<g id="&lt;Group&gt;">
				<path id="&lt;Compound Path&gt;" fill-rule="evenodd" class="s0" d="m620 358.4l-26.2 0.5-13.3 0.2c-4.5 0.1-9 0.1-13.4 0.1l-0.9 0.1v-0.9l-0.1-22.4v-1h1l26.5 0.1c8.8 0 17.6 0.2 26.4 0.3h0.6v0.6c-0.1 3.8-0.2 7.5-0.3 11.3zm0 0l-0.3-11.3c0-3.6-0.2-7.1-0.2-10.5-8.7 0.1-17.3 0.3-26 0.3l-25.4 0.1-0.1 20.5c4 0 8.1 0 12.2 0.1l13.1 0.2zm-0.5-21.8q0.2 0 0.5 0l-0.5-0.6q0 0.3 0 0.6zm-51.5 0.4l0.1-1-1 1zm-0.1 20.5q-0.5 0-0.9 0l0.9 0.9z"/>
			</g>
			<g id="&lt;Group&gt;">
				<path id="&lt;Compound Path&gt;" fill-rule="evenodd" class="s0" d="m679.1 358.4l-26.2 0.5-13.3 0.2c-4.5 0.1-9 0.1-13.4 0.1l-0.9 0.1v-0.9l-0.1-22.4v-1h1l26.4 0.1c8.9 0 17.7 0.2 26.5 0.3h0.6v0.6c-0.1 3.8-0.2 7.5-0.3 11.3zm0 0l-0.3-11.3c-0.1-3.6-0.2-7.1-0.2-10.5-8.7 0.1-17.3 0.3-26 0.3l-25.5 0.1-0.1 20.5c4.1 0 8.2 0 12.2 0.1l13.2 0.2zm-0.5-21.8q0.2 0 0.5 0l-0.5-0.6q0 0.3 0 0.6zm-51.5 0.4v-1l-1 1zm-0.1 20.5q-0.4 0-0.9 0l0.9 0.9z"/>
			</g>
			<g id="&lt;Group&gt;">
				<path id="&lt;Compound Path&gt;" fill-rule="evenodd" class="s0" d="m217.8 623.6l-26.3 0.6-13.3 0.2c-4.5 0.1-8.9 0.1-13.4 0.1h-0.9v-0.9l-0.1-22.3v-1h1l26.5 0.1c8.8 0 17.6 0.2 26.5 0.3h0.5v0.6c0 3.8-0.2 7.5-0.3 11.3zm0 0l-0.2-11.3c-0.1-3.6-0.3-7.1-0.3-10.6-8.6 0.2-17.3 0.4-25.9 0.4l-25.5 0.1-0.1 20.5c4 0 8.1 0 12.2 0.1l13.1 0.2zm-0.5-21.8q0.3 0 0.5 0l-0.5-0.6q0 0.3 0 0.6zm-51.4 0.4v-1l-1 1zm-0.1 20.5q-0.5 0-0.9 0l0.9 0.9z"/>
			</g>
			<g id="&lt;Group&gt;">
				<path id="&lt;Compound Path&gt;" fill-rule="evenodd" class="s0" d="m1095.7 330.1l-26.2 0.6-13.3 0.2c-4.5 0.1-9 0.1-13.4 0.1h-0.9v-0.9l-0.1-22.4v-1h1l26.4 0.2c8.9 0 17.7 0.2 26.5 0.3h0.6v0.5c-0.1 3.8-0.2 7.6-0.3 11.3zm0 0l-0.3-11.3c-0.1-3.5-0.2-7-0.2-10.5-8.7 0.1-17.3 0.3-26 0.3l-25.5 0.2-0.1 20.5c4.1 0 8.2 0 12.2 0.1l13.2 0.2zm-0.5-21.8q0.2 0 0.5 0l-0.5-0.6q0 0.3 0 0.6zm-51.5 0.4v-1l-1 1zm-0.1 20.5q-0.4 0-0.9 0l0.9 0.9z"/>
			</g>
			<g id="&lt;Group&gt;">
				<path id="&lt;Compound Path&gt;" fill-rule="evenodd" class="s0" d="m1361.7 112.8l-26.3 0.5-13.3 0.2c-4.4 0.1-8.9 0.1-13.4 0.2h-0.9v-0.9l-0.1-22.4v-1h1l26.5 0.1c8.8 0 17.7 0.2 26.5 0.3h0.5v0.6c0 3.8-0.1 7.6-0.2 11.3zm0 0l-0.3-11.3c-0.1-3.6-0.2-7.1-0.3-10.5-8.6 0.1-17.3 0.3-25.9 0.3l-25.5 0.1-0.1 20.5c4.1 0 8.1 0 12.2 0.1l13.2 0.2zm-0.6-21.8q0.3 0 0.6 0l-0.6-0.5q0 0.2 0 0.5zm-51.4 0.4v-0.9l-1 0.9zm-0.1 20.5q-0.5 0-0.9 0l0.9 0.9z"/>
			</g>
			<g id="&lt;Group&gt;">
				<path id="&lt;Compound Path&gt;" fill-rule="evenodd" class="s0" d="m1391.2 141l-26.2 0.5-13.3 0.3c-4.5 0.1-9 0-13.4 0.1h-0.9v-0.9l-0.1-22.4v-1h1l26.4 0.1c8.9 0 17.7 0.3 26.5 0.4h0.6v0.5c-0.1 3.8-0.2 7.6-0.3 11.3zm0 0l-0.3-11.3c-0.1-3.5-0.2-7-0.2-10.5-8.7 0.1-17.3 0.3-26 0.3l-25.5 0.1-0.1 20.5c4.1 0 8.2 0 12.2 0.1l13.2 0.2zm-0.5-21.8q0.2 0 0.5 0l-0.5-0.5q0 0.2 0 0.5zm-51.5 0.5v-1l-1 1zm-0.1 20.5q-0.4 0-0.9 0l0.9 0.9z"/>
			</g>
			<g id="&lt;Group&gt;">
				<path id="&lt;Compound Path&gt;" fill-rule="evenodd" class="s0" d="m158.7 112.8l-26.3 0.5-13.3 0.3c-4.4 0.1-8.9 0-13.4 0.1h-0.9v-0.9l-0.1-22.4v-1h1l26.5 0.1c8.8 0 17.6 0.3 26.5 0.4h0.5v0.5c0 3.8-0.2 7.6-0.2 11.3zm0 0l-0.3-11.3c-0.1-3.5-0.2-7-0.3-10.5-8.6 0.1-17.3 0.3-25.9 0.3l-25.5 0.1-0.1 20.5c4.1 0.1 8.1 0 12.2 0.1l13.1 0.3zm-0.5-21.9q0.3 0 0.5 0l-0.5-0.5q0 0.3 0 0.5zm-51.4 0.5v-1l-1 1zm-0.1 20.5q-0.5 0-0.9 0l0.9 0.9z"/>
			</g>
		</g>
		<g id="&lt;Group&gt;">
			<g id="&lt;Group&gt;">
				<path id="&lt;Path&gt;" class="s3" d="m1238.1 834.3h-994.2v-615.7h994.2z"/>
				<path id="&lt;Compound Path&gt;" fill-rule="evenodd" class="s4" d="m1238.1 834.3l-994.2 0.8h-0.7v-0.8l-0.3-615.7v-1h1l994.2 0.4h0.6v0.6zm0 0l-0.6-615.1-992.6 0.4-0.3 614zm-0.6-615.1h0.6l-0.6-0.6zm-992.6 0.4v-1l-1 1zm-0.3 614h-0.7l0.7 0.7z"/>
			</g>
			<path id="&lt;Path&gt;" class="s0" d="m1238.1 313.6h-994.2v-95h994.2z"/>
			<g id="&lt;Group&gt;">
				<g id="&lt;Group&gt;">
					<g id="&lt;Group&gt;">
						<path id="&lt;Path&gt;" class="s3" d="m1177 276.7h-819.2v-23.1h819.2z"/>
						<path id="&lt;Compound Path&gt;" fill-rule="evenodd" class="s5" d="m1177.2 277h-819.6v-23.7h819.6zm-819.2-0.4h818.7v-22.7h-818.7z"/>
					</g>
					<g id="&lt;Group&gt;">
						<g id="&lt;Group&gt;">
							<g id="&lt;Group&gt;">
								<path id="&lt;Path&gt;" class="s0" d="m375.7 270.1l-1.6 1.3-2.5-3.4-0.6-0.7-0.5-0.7q0.3-0.2 0.6-0.4 0 0 0.1-0.1 0.5-0.4 0.8-0.9l0.6 0.8 0.5 0.7z"/>
								<path id="&lt;Compound Path&gt;" class="s0" d="m373.1 266.7l-0.5-0.7q0.3-0.4 0.4-0.9l-0.6-0.8v-0.1q-0.1 0.3-0.2 0.6-0.1 0.2-0.2 0.4-0.3 0.5-0.8 0.9 0.1-0.1 0.2-0.2l0.1 0.1 0.5 0.6 0.5 0.7 2 2.7-0.2 0.1-2-2.5-0.5-0.7-0.6-0.7v-0.1q-0.1 0.1-0.1 0.1-0.3 0.2-0.6 0.4-0.2 0.1-0.3 0.1-0.3 0.1-0.6 0.2l0.6 0.8q0.4-0.1 0.8-0.4l0.6 0.7 2.5 3.4 1.6-1.3z"/>
							</g>
							<g id="&lt;Group&gt;">
								<path id="&lt;Compound Path&gt;" fill-rule="evenodd" class="s0" d="m373 265.1q-0.1 0.5-0.4 0.9-0.3 0.4-0.6 0.6-0.1 0.2-0.2 0.3-0.1 0-0.2 0.1-0.2 0.2-0.6 0.3-0.4 0.3-0.8 0.4c-1.7 0.5-3.7-0.1-4.8-1.6-1.5-1.9-1.2-4.8 0.8-6.3 2-1.5 4.8-1.1 6.3 0.9 1 1.3 1.2 3 0.5 4.4zm-0.6-0.9c0.2-1 0-2.1-0.6-3-1.2-1.5-3.5-1.8-5-0.6-1.6 1.2-1.9 3.4-0.7 5 0.7 0.9 1.7 1.3 2.8 1.3q0.4 0 0.7 0 0.3-0.1 0.6-0.2 0.2 0 0.3-0.1 0.3-0.2 0.6-0.4 0 0 0.1-0.1 0.5-0.4 0.8-0.9 0.1-0.2 0.2-0.4 0.1-0.3 0.2-0.6z"/>
								<path id="&lt;Compound Path&gt;" fill-rule="evenodd" class="s0" d="m372.6 266l0.5 0.7q-0.2 0.4-0.6 0.6-0.1 0.2-0.2 0.3-0.1 0-0.1 0-0.3 0.3-0.6 0.4l-0.6-0.7q-0.4 0.3-0.8 0.4c-1.7 0.5-3.7-0.1-4.8-1.6-1.5-1.9-1.2-4.8 0.8-6.3 2-1.5 4.8-1.1 6.3 0.9 1 1.3 1.2 3 0.5 4.4q-0.1 0.5-0.4 0.9zm-0.6-0.8q0.3-0.4 0.4-0.9c0.3-1.1 0.1-2.2-0.6-3.1-0.7-0.9-1.8-1.4-2.9-1.4-0.7 0-1.5 0.2-2.2 0.7-0.7 0.6-1.2 1.5-1.4 2.4-0.1 1 0.2 1.9 0.8 2.7 0.8 1.1 2.2 1.6 3.5 1.3q0.5 0 0.9-0.3 0.1 0 0.1 0 0.3-0.2 0.5-0.3 0.1-0.1 0.1-0.1 0.1-0.1 0.3-0.2 0.2-0.2 0.4-0.5 0.1-0.1 0.1-0.3z"/>
							</g>
						</g>
					</g>
				</g>
				<g id="&lt;Group&gt;">
					<path id="&lt;Path&gt;" class="s3" d="m274.7 273.1l-8.5-7.8 8.5-8.1 1.3 1.4-7 6.7 7 6.4z"/>
				</g>
				<g id="&lt;Group&gt;">
					<path id="&lt;Path&gt;" class="s3" d="m295 257.2l8.5 7.8-8.4 8.1-1.4-1.4 7-6.7-6.9-6.4z"/>
				</g>
				<g id="&lt;Group&gt;">
					<path id="&lt;Path&gt;" class="s4" d="m1210.5 274.6q-1.4 0.9-3.2 1.4c-3 0.7-6.1 0.2-8.5-1.4-2.4-1.5-4.3-3.9-5-6.8-1.5-6 2.2-12 8.2-13.5 6-1.5 12 2.2 13.5 8.2 1.2 4.8-1 9.7-5 12.1z"/>
					<g id="&lt;Group&gt;">
						<path id="&lt;Path&gt;" class="s3" d="m1208 263.9c0 1.8-1.5 3.4-3.4 3.4-1.8 0-3.4-1.6-3.4-3.4 0-1.9 1.6-3.4 3.4-3.4 1.9 0 3.4 1.5 3.4 3.4z"/>
						<path id="&lt;Path&gt;" class="s3" d="m1210.5 273.2v1.4q-1.4 0.9-3.2 1.4c-3 0.7-6.1 0.2-8.5-1.4v-1.4c0-3.2 2.6-5.8 5.8-5.8 3.3 0 5.9 2.6 5.9 5.8z"/>
					</g>
				</g>
				<g id="&lt;Group&gt;">
					<path id="&lt;Path&gt;" class="s3" d="m328.6 275.2c-6 0-10.9-4.9-10.9-11 0-6 4.9-10.9 10.9-10.9 5.5 0 10.2 4.1 10.9 9.5l-2 0.3c-0.5-4.5-4.4-7.8-8.9-7.8-4.9 0-8.9 4-8.9 8.9 0 5 4 9 8.9 9 2.6 0 5-1.1 6.7-2.9l1.5 1.3c-2.1 2.3-5.1 3.6-8.2 3.6z"/>
					<g id="&lt;Group&gt;">
						<path id="&lt;Path&gt;" class="s3" d="m332.6 260.2l0.7-1 4.9 3.3 3-5.1 1 0.6-3.6 6.2z"/>
					</g>
				</g>
			</g>
			<g id="&lt;Group&gt;">
				<path id="&lt;Path&gt;" class="s0" d="m923 184.3h-176l-8 34.3h192z"/>
				<g id="&lt;Group&gt;">
					<path id="&lt;Path&gt;" class="s4" d="m914.1 206.3l-1.2 1.2-10.8-10.8 1.1-1.2z"/>
					<path id="&lt;Path&gt;" class="s4" d="m903.2 207.5l-1.1-1.2 10.8-10.8 1.2 1.2z"/>
				</g>
			</g>
			<g id="&lt;Group&gt;">
				<g id="&lt;Group&gt;">
					<path id="&lt;Path&gt;" class="s6" d="m939 595.6h-378v-51.6h378z"/>
					<path id="&lt;Path&gt;" class="s2" d="m939 595.6h-51.6v-51.6h51.6z"/>
					<g id="&lt;Group&gt;">
						<g id="&lt;Group&gt;">
							<path id="&lt;Path&gt;" class="s3" d="m929.5 584.3l-4.7 3.6-8.8-11.7-3.3-4.2q1-0.4 1.9-1.1c1.1-0.8 1.9-1.9 2.4-3.1l3.5 4.5z"/>
							<path id="&lt;Compound Path&gt;" fill-rule="evenodd" class="s3" d="m920.5 572.3q-1.1 1.5-2.7 2.8-0.9 0.6-1.8 1.1c-5.6 3-12.5 1.6-16.5-3.5-4.3-5.7-3.3-13.9 2.4-18.3 5.7-4.3 13.9-3.2 18.3 2.5 3.5 4.6 3.5 10.9 0.3 15.4zm-3.5-4.5c1.1-2.5 0.8-5.5-1-7.8-2.6-3.4-7.5-4-10.9-1.4-3.4 2.6-4 7.5-1.4 10.9 2.2 2.8 5.9 3.7 9 2.5q1-0.4 1.9-1.1c1.1-0.8 1.9-1.9 2.4-3.1z"/>
						</g>
					</g>
					<path id="&lt;Path&gt;" class="s7" d="m574.6 585.5h-2.8v-31.3h2.8z"/>
				</g>
				<path id="&lt;Path&gt;" class="s5" d="m648.3 643.4h-87.3v-27.7h87.3z"/>
				<path id="&lt;Path&gt;" class="s2" d="m793.7 643.4h-87.4v-27.7h87.4z"/>
				<path id="&lt;Path&gt;" class="s5" d="m940.1 643.4h-87.3v-27.7h87.3z"/>
				<path id="&lt;Path&gt;" class="s8" d="m870.6 504.9h-241.2v-16.7h241.2z"/>
			</g>
		</g>
		<g id="&lt;Group&gt;">
			<g id="&lt;Group&gt;">
				<g id="&lt;Group&gt;">
					<path id="&lt;Path&gt;" class="s3" d="m1368.2 462.2h-544.7v-331.3h544.7z"/>
					<path id="&lt;Compound Path&gt;" fill-rule="evenodd" class="s4" d="m1368.2 462.2l-544.7 0.8h-0.7v-0.8l-0.3-331.3v-1h1l544.7 0.4h0.6v0.6zm0 0l-0.6-330.8-543.1 0.4-0.3 329.6zm-0.5-330.7h0.5l-0.5-0.6zm-543.2 0.4v-1l-1 1zm-0.2 329.6h-0.8l0.8 0.8z"/>
				</g>
				<g id="&lt;Group&gt;">
					<path id="&lt;Path&gt;" class="s5" d="m1368.9 130.9h-546.4v-24.3h546.4z"/>
					<g id="&lt;Group&gt;">
						<path id="&lt;Path&gt;" class="s0" d="m842.2 118.8c0 1.8-1.4 3.2-3.3 3.2-1.8 0-3.2-1.4-3.2-3.2 0-1.9 1.4-3.3 3.2-3.3 1.9 0 3.3 1.4 3.3 3.3z"/>
						<path id="&lt;Path&gt;" class="s3" d="m855.7 118.8c0 1.8-1.5 3.2-3.3 3.2-1.8 0-3.3-1.4-3.3-3.2 0-1.9 1.5-3.3 3.3-3.3 1.8 0 3.3 1.4 3.3 3.3z"/>
						<path id="&lt;Path&gt;" class="s4" d="m869.1 118.8c0 1.8-1.5 3.2-3.3 3.2-1.8 0-3.3-1.4-3.3-3.2 0-1.9 1.5-3.3 3.3-3.3 1.8 0 3.3 1.4 3.3 3.3z"/>
					</g>
				</g>
				<g id="&lt;Group&gt;">
					<path id="&lt;Path&gt;" class="s4" d="m1368.2 462.2h-9.7v-331.3h9.7z"/>
					<path id="&lt;Path&gt;" class="s1" d="m1363.4 245.8c-1.4 0-2.5-1.2-2.5-2.5v-108c0-1.4 1.1-2.5 2.5-2.5 1.3 0 2.5 1.1 2.5 2.5v108c0 1.3-1.2 2.5-2.5 2.5z"/>
				</g>
				<g id="&lt;Group&gt;">
					<path id="&lt;Path&gt;" class="s1" d="m1000.5 125.3h-0.8v-7.3h0.8z"/>
					<path id="&lt;Path&gt;" class="s1" d="m996.4 122.1v-0.8h7.3v0.8z"/>
				</g>
			</g>
			<g id="&lt;Group&gt;">
				<g id="&lt;Group&gt;">
					<path id="&lt;Path&gt;" class="s3" d="m1358.5 462.2h-535v-331.3h535z"/>
					<path id="&lt;Compound Path&gt;" fill-rule="evenodd" class="s4" d="m1358.5 462.2l-535 0.8h-0.7v-0.8l-0.3-331.3v-1h1l535 0.4h0.6v0.6zm0 0l-0.6-330.8-533.4 0.4-0.3 329.6zm-0.5-330.7h0.5l-0.5-0.6zm-533.5 0.4v-1l-1 1zm-0.2 329.6h-0.8l0.8 0.8z"/>
				</g>
				<path id="&lt;Path&gt;" class="s0" d="m1358.5 182h-535v-51.1h535z"/>
				<g id="&lt;Group&gt;">
					<g id="&lt;Group&gt;">
						<g id="&lt;Group&gt;">
							<path id="&lt;Path&gt;" class="s3" d="m1325.6 162.1h-440.8v-12.4h440.8z"/>
							<path id="&lt;Compound Path&gt;" fill-rule="evenodd" class="s5" d="m1325.8 162.3h-441.1v-12.7h441.1zm-440.9-0.3h440.6v-12.2h-440.6z"/>
						</g>
						<g id="&lt;Group&gt;">
							<g id="&lt;Group&gt;">
								<g id="&lt;Group&gt;">
									<path id="&lt;Path&gt;" class="s0" d="m894.4 158.6l-0.8 0.7-1.4-1.8-0.3-0.4-0.3-0.4q0.2-0.1 0.4-0.2 0 0 0-0.1 0.3-0.2 0.4-0.5l0.1 0.1 0.3 0.4 0.3 0.3z"/>
									<path id="&lt;Compound Path&gt;" class="s0" d="m893.1 156.7l-0.3-0.3q0.1-0.2 0.2-0.5l-0.3-0.4-0.1-0.1q0 0.2 0 0.3-0.1 0.1-0.2 0.2-0.1 0.3-0.4 0.5 0.1 0 0.1-0.1l0.1 0.1 0.2 0.3 0.3 0.4 1.1 1.4-0.1 0.1-1.1-1.4-0.3-0.4-0.3-0.3v-0.1q0 0.1 0 0.1-0.2 0.1-0.4 0.2 0 0-0.1 0.1-0.2 0-0.3 0.1l0.3 0.4q0.2-0.1 0.4-0.2l0.3 0.4 1.4 1.8 0.8-0.7z"/>
								</g>
								<g id="&lt;Group&gt;">
									<path id="&lt;Compound Path&gt;" fill-rule="evenodd" class="s0" d="m893 155.9q-0.1 0.3-0.2 0.5-0.2 0.2-0.4 0.3 0 0.1-0.1 0.1 0 0.1 0 0.1-0.2 0.1-0.4 0.2-0.2 0.1-0.4 0.2c-1 0.3-2 0-2.6-0.9-0.8-1-0.6-2.5 0.4-3.3 1.1-0.8 2.6-0.7 3.4 0.4 0.6 0.7 0.6 1.6 0.3 2.4zm-0.4-0.5c0.2-0.5 0.1-1.1-0.3-1.6-0.6-0.8-1.8-1-2.7-0.3-0.8 0.6-1 1.8-0.3 2.6 0.3 0.5 0.9 0.8 1.5 0.8q0.2 0 0.4 0 0.1-0.1 0.3-0.1 0.1-0.1 0.1-0.1 0.2-0.1 0.4-0.2 0 0 0-0.1 0.3-0.2 0.4-0.5 0.1-0.1 0.2-0.2 0-0.1 0-0.3z"/>
									<path id="&lt;Compound Path&gt;" fill-rule="evenodd" class="s0" d="m892.8 156.4l0.3 0.3q-0.2 0.2-0.4 0.4 0 0.1-0.1 0.1 0 0-0.1 0.1-0.1 0.1-0.3 0.2l-0.3-0.4q-0.2 0.1-0.4 0.2c-1 0.3-2 0-2.6-0.9-0.8-1-0.6-2.5 0.4-3.3 1.1-0.8 2.6-0.7 3.4 0.4 0.6 0.7 0.6 1.6 0.3 2.4q-0.1 0.3-0.2 0.5zm-0.3-0.4q0.1-0.3 0.2-0.5c0.1-0.6 0-1.2-0.4-1.7-0.3-0.5-0.9-0.8-1.5-0.8q-0.6 0-1.2 0.4c-0.4 0.3-0.7 0.8-0.7 1.3-0.1 0.5 0 1 0.3 1.5 0.5 0.6 1.3 0.8 2 0.7q0.2-0.1 0.4-0.2 0.1 0 0.1 0 0.1-0.1 0.3-0.2 0 0 0 0 0.1-0.1 0.2-0.1 0.1-0.2 0.2-0.3 0-0.1 0.1-0.1z"/>
								</g>
							</g>
						</g>
					</g>
					<g id="&lt;Group&gt;">
						<path id="&lt;Path&gt;" class="s3" d="m840.1 160.2l-4.6-4.2 4.6-4.3 0.7 0.7-3.8 3.6 3.8 3.4z"/>
					</g>
					<g id="&lt;Group&gt;">
						<path id="&lt;Path&gt;" class="s3" d="m851 151.7l4.6 4.1-4.6 4.4-0.7-0.8 3.8-3.6-3.8-3.4z"/>
					</g>
					<g id="&lt;Group&gt;">
						<path id="&lt;Path&gt;" class="s4" d="m1343.7 161q-0.8 0.5-1.8 0.7c-1.6 0.4-3.2 0.1-4.5-0.7-1.3-0.8-2.3-2.1-2.7-3.7-0.8-3.2 1.2-6.4 4.4-7.2 3.2-0.8 6.5 1.2 7.2 4.4 0.7 2.6-0.5 5.2-2.6 6.5z"/>
						<g id="&lt;Group&gt;">
							<path id="&lt;Path&gt;" class="s3" d="m1342.3 155.2c0 1-0.8 1.9-1.8 1.9-1 0-1.8-0.9-1.8-1.9 0-1 0.8-1.8 1.8-1.8 1 0 1.8 0.8 1.8 1.8z"/>
							<path id="&lt;Path&gt;" class="s3" d="m1343.7 160.3v0.7q-0.8 0.5-1.8 0.7c-1.6 0.4-3.2 0.1-4.5-0.7v-0.7c0-1.8 1.4-3.2 3.1-3.2 1.8 0 3.2 1.4 3.2 3.2z"/>
						</g>
					</g>
					<g id="&lt;Group&gt;">
						<path id="&lt;Path&gt;" class="s3" d="m869.1 161.3c-3.2 0-5.9-2.6-5.9-5.9 0-3.2 2.7-5.9 5.9-5.9 3 0 5.5 2.2 5.9 5.2l-1.1 0.1c-0.3-2.4-2.4-4.2-4.8-4.2-2.7 0-4.8 2.2-4.8 4.8 0 2.7 2.1 4.9 4.8 4.9 1.4 0 2.7-0.6 3.6-1.6l0.8 0.7c-1.1 1.2-2.7 1.9-4.4 1.9z"/>
						<g id="&lt;Group&gt;">
							<path id="&lt;Path&gt;" class="s3" d="m871.3 153.3l0.3-0.6 2.7 1.8 1.5-2.8 0.6 0.4-1.9 3.3z"/>
						</g>
					</g>
				</g>
				<g id="&lt;Group&gt;">
					<path id="&lt;Path&gt;" class="s0" d="m983.9 112.4h-94.7l-4.3 18.5h103.3z"/>
					<g id="&lt;Group&gt;">
						<path id="&lt;Path&gt;" class="s4" d="m979.1 124.3l-0.6 0.6-5.8-5.8 0.6-0.7z"/>
						<path id="&lt;Path&gt;" class="s4" d="m973.3 124.9l-0.6-0.6 5.8-5.9 0.6 0.7z"/>
					</g>
				</g>
				<g id="&lt;Group&gt;">
					<g id="&lt;Group&gt;">
						<g id="&lt;Group&gt;">
							<path id="&lt;Path&gt;" class="s3" d="m1197.6 333.8h-203.4v-27.8h203.4z"/>
							<path id="&lt;Compound Path&gt;" fill-rule="evenodd" class="s5" d="m1198.6 334.8h-205.4v-29.8h205.4zm-203.4-2h201.4v-25.7h-201.4z"/>
						</g>
						<path id="&lt;Path&gt;" class="s2" d="m1197.6 333.8h-27.8v-27.8h27.8z"/>
						<g id="&lt;Group&gt;">
							<g id="&lt;Group&gt;">
								<path id="&lt;Path&gt;" class="s3" d="m1192.5 327.7l-2.6 1.9-4.7-6.3-1.8-2.3q0.6-0.2 1-0.5c0.6-0.5 1.1-1.1 1.3-1.7l1.9 2.4z"/>
								<path id="&lt;Compound Path&gt;" fill-rule="evenodd" class="s3" d="m1187.6 321.2q-0.6 0.8-1.5 1.5-0.4 0.4-0.9 0.6c-3 1.6-6.8 0.9-8.9-1.9-2.3-3.1-1.7-7.4 1.3-9.8 3.1-2.4 7.5-1.8 9.8 1.3 1.9 2.5 1.9 5.9 0.2 8.3zm-1.9-2.4c0.6-1.4 0.4-3-0.5-4.2-1.4-1.8-4-2.2-5.9-0.8-1.8 1.4-2.1 4.1-0.7 5.9 1.1 1.5 3.1 2 4.8 1.3q0.6-0.2 1-0.5c0.6-0.5 1.1-1.1 1.3-1.7z"/>
							</g>
						</g>
						<path id="&lt;Path&gt;" class="s7" d="m1001.5 328.3h-1.5v-16.8h1.5z"/>
					</g>
					<path id="&lt;Path&gt;" class="s5" d="m1041.1 359.5h-46.9v-14.9h46.9z"/>
					<path id="&lt;Path&gt;" class="s2" d="m1119.3 359.5h-46.9v-14.9h46.9z"/>
					<path id="&lt;Path&gt;" class="s5" d="m1198.1 359.5h-46.9v-14.9h46.9z"/>
					<path id="&lt;Path&gt;" class="s8" d="m1160.7 285h-129.7v-9.1h129.7z"/>
				</g>
			</g>
		</g>
		<g id="&lt;Group&gt;">
			<g id="&lt;Group&gt;">
				<g id="&lt;Group&gt;">
					<path id="&lt;Path&gt;" class="s3" d="m680.6 685.4h-544.7v-331.3h544.7z"/>
					<path id="&lt;Compound Path&gt;" fill-rule="evenodd" class="s4" d="m680.6 685.4l-544.7 0.8h-0.8v-0.8l-0.2-331.3v-1h1l544.7 0.4h0.6v0.6zm0 0l-0.6-330.8-543.1 0.5-0.3 329.5zm-0.6-330.7h0.6l-0.6-0.6zm-543.1 0.4v-1l-1 1zm-0.2 329.6h-0.8l0.8 0.8z"/>
				</g>
				<g id="&lt;Group&gt;">
					<path id="&lt;Path&gt;" class="s5" d="m681.3 354.1h-546.4v-24.3h546.4z"/>
					<g id="&lt;Group&gt;">
						<path id="&lt;Path&gt;" class="s0" d="m154.6 342c0 1.8-1.5 3.2-3.3 3.2-1.8 0-3.3-1.4-3.3-3.2 0-1.9 1.5-3.3 3.3-3.3 1.8 0 3.3 1.4 3.3 3.3z"/>
						<path id="&lt;Path&gt;" class="s3" d="m168 342c0 1.8-1.4 3.2-3.2 3.2-1.9 0-3.3-1.4-3.3-3.2 0-1.9 1.4-3.3 3.3-3.3 1.8 0 3.2 1.4 3.2 3.3z"/>
						<path id="&lt;Path&gt;" class="s4" d="m181.5 342c0 1.8-1.5 3.2-3.3 3.2-1.8 0-3.3-1.4-3.3-3.2 0-1.9 1.5-3.3 3.3-3.3 1.8 0 3.3 1.4 3.3 3.3z"/>
					</g>
				</g>
				<g id="&lt;Group&gt;">
					<path id="&lt;Path&gt;" class="s4" d="m680.6 685.4h-9.7v-331.3h9.7z"/>
					<path id="&lt;Path&gt;" class="s1" d="m675.7 469c-1.3 0-2.4-1.2-2.4-2.5v-108c0-1.4 1.1-2.5 2.4-2.5 1.4 0 2.5 1.1 2.5 2.5v108c0 1.3-1.1 2.5-2.5 2.5z"/>
				</g>
				<g id="&lt;Group&gt;">
					<path id="&lt;Path&gt;" class="s1" d="m312.8 348.5h-0.8v-7.3h0.8z"/>
					<path id="&lt;Path&gt;" class="s1" d="m308.8 345.3v-0.8h7.3v0.8z"/>
				</g>
			</g>
			<g id="&lt;Group&gt;">
				<g id="&lt;Group&gt;">
					<path id="&lt;Path&gt;" class="s3" d="m670.9 685.4h-535v-331.3h535z"/>
					<path id="&lt;Compound Path&gt;" fill-rule="evenodd" class="s4" d="m670.9 685.4l-535 0.8h-0.8v-0.8l-0.2-331.3v-1h1l535 0.4h0.6v0.6zm0 0l-0.6-330.8-533.4 0.5-0.3 329.5zm-0.6-330.7h0.6l-0.6-0.6zm-533.4 0.4v-1l-1 1zm-0.3 329.6h-0.7l0.7 0.8z"/>
				</g>
				<path id="&lt;Path&gt;" class="s0" d="m670.9 405.2h-535v-51.1h535z"/>
				<g id="&lt;Group&gt;">
					<g id="&lt;Group&gt;">
						<g id="&lt;Group&gt;">
							<path id="&lt;Path&gt;" class="s3" d="m638 385.4h-440.8v-12.5h440.8z"/>
							<path id="&lt;Compound Path&gt;" fill-rule="evenodd" class="s5" d="m638.1 385.5h-441v-12.7h441zm-440.8-0.3h440.6v-12.2h-440.6z"/>
						</g>
						<g id="&lt;Group&gt;">
							<g id="&lt;Group&gt;">
								<g id="&lt;Group&gt;">
									<path id="&lt;Path&gt;" class="s0" d="m206.8 381.8l-0.9 0.7-1.3-1.8-0.3-0.4-0.3-0.4q0.2-0.1 0.3-0.2 0.1 0 0.1-0.1 0.3-0.2 0.4-0.5v0.1l0.3 0.4 0.3 0.3z"/>
									<path id="&lt;Compound Path&gt;" class="s0" d="m205.4 379.9l-0.3-0.3q0.2-0.2 0.3-0.5l-0.4-0.4v-0.1q0 0.2-0.1 0.3 0 0.1-0.1 0.2-0.1 0.3-0.4 0.5 0.1 0 0.1-0.1v0.1l0.3 0.3 0.3 0.4 1.1 1.4-0.2 0.1-1-1.4-0.3-0.4-0.3-0.3v-0.1q0 0.1-0.1 0.1-0.1 0.1-0.3 0.2-0.1 0-0.1 0.1-0.2 0-0.4 0.1l0.4 0.4q0.2-0.1 0.4-0.2l0.3 0.4 1.3 1.8 0.9-0.7z"/>
								</g>
								<g id="&lt;Group&gt;">
									<path id="&lt;Compound Path&gt;" fill-rule="evenodd" class="s0" d="m205.4 379.1q-0.1 0.3-0.3 0.5-0.1 0.2-0.3 0.3 0 0.1-0.1 0.1 0 0.1-0.1 0.1-0.1 0.1-0.3 0.2-0.2 0.1-0.4 0.2c-1 0.3-2 0-2.6-0.9-0.9-1-0.7-2.5 0.4-3.3 1.1-0.8 2.6-0.6 3.4 0.4 0.5 0.7 0.6 1.6 0.3 2.4zm-0.4-0.5c0.2-0.5 0-1.1-0.3-1.6-0.7-0.8-1.9-1-2.7-0.3-0.8 0.6-1 1.8-0.4 2.6 0.4 0.5 1 0.8 1.6 0.8q0.1 0 0.3 0 0.2-0.1 0.4-0.1 0-0.1 0.1-0.1 0.2-0.1 0.3-0.2 0.1 0 0.1-0.1 0.3-0.2 0.4-0.5 0.1-0.1 0.1-0.2 0.1-0.1 0.1-0.3z"/>
									<path id="&lt;Compound Path&gt;" fill-rule="evenodd" class="s0" d="m205.1 379.6l0.3 0.3q-0.1 0.2-0.3 0.4-0.1 0.1-0.1 0.1 0 0-0.1 0.1-0.1 0.1-0.3 0.2l-0.3-0.4q-0.2 0.1-0.4 0.2c-1 0.3-2 0-2.6-0.9-0.9-1-0.7-2.5 0.4-3.3 1.1-0.8 2.6-0.6 3.4 0.4 0.5 0.7 0.6 1.6 0.3 2.4q-0.1 0.3-0.3 0.5zm-0.3-0.4q0.2-0.3 0.2-0.5c0.2-0.6 0.1-1.2-0.3-1.7-0.4-0.5-1-0.8-1.5-0.8q-0.7 0-1.2 0.4c-0.4 0.4-0.7 0.8-0.8 1.3 0 0.5 0.1 1.1 0.4 1.5 0.5 0.6 1.2 0.8 1.9 0.7q0.3 0 0.5-0.2 0 0 0.1 0 0.1-0.1 0.3-0.2 0 0 0 0 0.1-0.1 0.1-0.1 0.2-0.2 0.3-0.3 0-0.1 0-0.1z"/>
								</g>
							</g>
						</g>
					</g>
					<g id="&lt;Group&gt;">
						<path id="&lt;Path&gt;" class="s3" d="m152.5 383.4l-4.6-4.2 4.5-4.3 0.7 0.7-3.7 3.6 3.7 3.4z"/>
					</g>
					<g id="&lt;Group&gt;">
						<path id="&lt;Path&gt;" class="s3" d="m163.4 374.9l4.5 4.1-4.5 4.4-0.7-0.8 3.8-3.6-3.8-3.4z"/>
					</g>
					<g id="&lt;Group&gt;">
						<path id="&lt;Path&gt;" class="s4" d="m656 384.2q-0.7 0.5-1.7 0.8c-1.6 0.4-3.2 0-4.6-0.8-1.3-0.8-2.2-2.1-2.6-3.7-0.8-3.2 1.1-6.4 4.4-7.2 3.2-0.8 6.4 1.2 7.2 4.4 0.7 2.6-0.5 5.2-2.7 6.5z"/>
						<g id="&lt;Group&gt;">
							<path id="&lt;Path&gt;" class="s3" d="m654.7 378.4c0 1-0.8 1.9-1.8 1.9-1 0-1.8-0.9-1.8-1.9 0-1 0.8-1.8 1.8-1.8 1 0 1.8 0.8 1.8 1.8z"/>
							<path id="&lt;Path&gt;" class="s3" d="m656 383.5v0.7q-0.7 0.5-1.7 0.8c-1.6 0.4-3.2 0-4.6-0.8v-0.7c0-1.8 1.4-3.2 3.2-3.2 1.7 0 3.1 1.4 3.1 3.2z"/>
						</g>
					</g>
					<g id="&lt;Group&gt;">
						<path id="&lt;Path&gt;" class="s3" d="m181.5 384.5c-3.3 0-5.9-2.6-5.9-5.9 0-3.2 2.6-5.9 5.9-5.9 2.9 0 5.5 2.2 5.8 5.2l-1 0.1c-0.3-2.4-2.4-4.2-4.8-4.2-2.7 0-4.8 2.2-4.8 4.8 0 2.7 2.1 4.9 4.8 4.9 1.4 0 2.7-0.6 3.6-1.6l0.8 0.7c-1.1 1.2-2.7 1.9-4.4 1.9z"/>
						<g id="&lt;Group&gt;">
							<path id="&lt;Path&gt;" class="s3" d="m183.6 376.5l0.4-0.6 2.6 1.8 1.6-2.7 0.6 0.3-1.9 3.3z"/>
						</g>
					</g>
				</g>
				<g id="&lt;Group&gt;">
					<path id="&lt;Path&gt;" class="s0" d="m296.3 335.6h-94.7l-4.3 18.5h103.3z"/>
					<g id="&lt;Group&gt;">
						<path id="&lt;Path&gt;" class="s4" d="m291.5 347.5l-0.6 0.6-5.8-5.8 0.6-0.7z"/>
						<path id="&lt;Path&gt;" class="s4" d="m285.7 348.1l-0.6-0.6 5.8-5.9 0.6 0.7z"/>
					</g>
				</g>
				<g id="&lt;Group&gt;">
					<g id="&lt;Group&gt;">
						<g id="&lt;Group&gt;">
							<path id="&lt;Path&gt;" class="s3" d="m509.9 557h-203.4v-27.8h203.4z"/>
							<path id="&lt;Compound Path&gt;" fill-rule="evenodd" class="s5" d="m510.9 558h-205.4v-29.8h205.4zm-203.4-2h201.4v-25.7h-201.4z"/>
						</g>
						<path id="&lt;Path&gt;" class="s2" d="m509.9 557h-27.7v-27.8h27.7z"/>
						<g id="&lt;Group&gt;">
							<g id="&lt;Group&gt;">
								<path id="&lt;Path&gt;" class="s3" d="m504.9 550.9l-2.6 1.9-4.8-6.3-1.7-2.3q0.5-0.2 1-0.5c0.6-0.5 1-1.1 1.3-1.7l1.9 2.4z"/>
								<path id="&lt;Compound Path&gt;" fill-rule="evenodd" class="s3" d="m500 544.4q-0.6 0.8-1.5 1.5-0.5 0.4-1 0.6c-2.9 1.6-6.7 0.9-8.8-1.9-2.3-3.1-1.8-7.4 1.3-9.8 3.1-2.3 7.5-1.8 9.8 1.3 1.9 2.5 1.9 5.9 0.2 8.3zm-1.9-2.4c0.6-1.4 0.4-3-0.5-4.2-1.4-1.8-4.1-2.2-5.9-0.8-1.8 1.4-2.2 4.1-0.8 5.9 1.2 1.5 3.2 2 4.9 1.3q0.5-0.2 1-0.5c0.6-0.5 1-1.1 1.3-1.7z"/>
							</g>
						</g>
						<path id="&lt;Path&gt;" class="s7" d="m313.8 551.5h-1.5v-16.8h1.5z"/>
					</g>
					<path id="&lt;Path&gt;" class="s5" d="m353.5 582.7h-47v-14.9h47z"/>
					<path id="&lt;Path&gt;" class="s2" d="m431.7 582.7h-47v-14.9h47z"/>
					<path id="&lt;Path&gt;" class="s5" d="m510.5 582.7h-47v-14.9h47z"/>
					<path id="&lt;Path&gt;" class="s8" d="m473.1 508.2h-129.7v-9h129.7z"/>
				</g>
			</g>
		</g>
	</g>
	<g id="Plant">
		<g id="&lt;Group&gt;">
			<g id="&lt;Group&gt;">
				<g id="&lt;Group&gt;">
					<path id="&lt;Path&gt;" class="s2" d="m1314.8 436.7c0 0-42.4-5.9-32.5-57.1 0 0 47.4 10.6 32.5 57.1z"/>
					<path id="&lt;Path&gt;" class="s9" d="m1314.8 436.7c0 0-42.4-5.9-32.5-57.1 0 0 47.4 10.6 32.5 57.1z"/>
					<path id="&lt;Path&gt;" class="s7" d="m1312.7 426q-1.2-3.9-2.9-7.6 0-0.5-0.1-1-0.1-1.1-0.2-2.1-0.1-2.3-0.3-4.6c-0.2-3.1-0.4-6.1-0.4-9.2 0-0.1-0.3-0.1-0.3 0 0 3.1 0 6.2 0.1 9.2q0.1 2.3 0.2 4.6 0.1 0.5 0.1 1c-2.4-5.1-5.2-10-8.5-14.5q-2.2-3.1-4.6-5.9c-1.7-1.9-3.5-3.8-5.2-5.7-0.1-0.1-0.3 0.1-0.2 0.2 3.1 3.3 5.7 7.1 8.2 10.9q1.9 2.9 3.6 6-0.2-0.1-0.4-0.2-0.7-0.3-1.5-0.6-1.7-0.7-3.4-1.3-3.4-1.3-6.8-2.6c-0.2 0-0.3 0.2-0.1 0.3q3.3 1.3 6.7 2.8 1.6 0.7 3.3 1.4 0.8 0.4 1.6 0.7c0.4 0.1 0.7 0.3 1.1 0.4 0.9 1.5 1.7 3.1 2.5 4.6 2 4 3.7 8.1 5.2 12.3q0.2 0.4 0.3 0.8c-1-0.7-2.4-1.1-3.5-1.6q-2.2-1-4.4-2c-2.9-1.4-5.9-2.8-8.7-4.4-0.2-0.1-0.3 0.1-0.2 0.2 3 1.6 5.8 3.3 8.7 4.9q2.2 1.2 4.4 2.3c1.3 0.6 2.7 1.4 4 1.6 1.4 3.9 2.5 7.9 2.8 12 0.5 5.8 0.4 11.6 0.6 17.4 0 0.1 0.1 0.1 0.1 0 0.4-5.2 0.7-10.6 0.7-15.8 0-5.1-1-9.7-2.5-14.5z"/>
					<path id="&lt;Path&gt;" class="s7" d="m1306.2 395.9c-0.4 3-0.7 6-0.4 9 0 0.1 0.1 0.1 0.1 0 0.2-3 0.2-6 0.5-8.9 0-0.2-0.2-0.3-0.2-0.1z"/>
					<path id="&lt;Path&gt;" class="s7" d="m1294 398.5c-1.8-0.8-3.7-1.6-5.4-2.7-0.1-0.1-0.3 0.1-0.1 0.2 1.7 1.1 3.5 2.1 5.5 2.6 0.1 0.1 0.2-0.1 0-0.1z"/>
				</g>
				<path id="&lt;Path&gt;" class="s7" d="m1316.2 518c0-4.7-0.1-9.4-0.2-14.1-0.1-15.5-0.2-31.1-0.5-46.7q-0.3-18.5-0.8-37 0-0.1-0.1-0.2-0.1-5.1-0.1-10.1c0-0.1-0.1-0.1-0.2-0.1-0.1 0-0.2 0-0.2 0.1q0 5.1-0.1 10.1 0 0.1-0.1 0.2c-0.6 22-1.1 44-1.3 66q0 6.7 0 13.4-0.2 21.5-0.2 43 0 3.4 0 6.8c-0.1 13.2 0.1 26.3 0.1 39.4 0 0.7 0.8 1.1 1.6 1.1 1 0 2-0.3 2-1.2 0-14.4 0.1-28.9 0.1-43.4 0-9.1 0.1-18.2 0-27.3z"/>
				<g id="&lt;Group&gt;">
					<path id="&lt;Path&gt;" class="s2" d="m1298.5 503.7c0 0-20.4-15.1-39.8-4.9-19.3 10.2-22.4 49.6-22.4 49.6 0 0 28.5 4.1 46.4-13 17.2-16.4 15.8-31.7 15.8-31.7z"/>
					<path id="&lt;Path&gt;" class="s7" d="m1304.1 504.7c-3.7-1.6-7.9-2-11.9-1.6-0.8-0.2-1.6-0.2-2.5-0.2q-1.4-0.1-2.8-0.2c-2-0.2-4-0.3-6-0.4-4-0.4-8.1-0.6-12.1-1-0.1 0-0.1 0.2 0 0.3 4 0.5 7.9 1 11.9 1.4 2.1 0.2 4.1 0.5 6.2 0.6q0.7 0.1 1.5 0.1-0.9 0.2-1.8 0.5c-3.2 0.9-6.3 2.2-9.3 3.7-1.6 0.3-3.2 0.8-4.8 1.2q-3.7 0.9-7.5 1.9c-5 1.3-9.9 2.7-14.8 4.1-0.1 0.1-0.1 0.3 0.1 0.3 4.9-1.2 9.8-2.3 14.8-3.5q3.6-0.8 7.1-1.7 1-0.2 1.9-0.4c-5.5 3.3-10.4 7.7-14.5 12.6-4 4.8-7.3 10.2-10.1 15.9 0 0.1 0.2 0.3 0.3 0.1 3.3-5.8 7.4-11.2 12.2-16q-0.2 0.4-0.3 0.8-0.6 1.8-1.1 3.6-1.2 3.6-2.3 7.2c0 0.2 0.2 0.2 0.3 0.1q1.2-3.5 2.5-7 0.6-1.7 1.2-3.5 0.3-0.9 0.6-1.8 0.1-0.2 0.2-0.5c2.3-2.2 4.7-4.3 7.2-6.2 3.4-2.4 7-4.5 10.8-6.2q-0.1 0.6-0.2 1.1-0.3 1.4-0.6 2.8-0.6 2.9-1.1 5.8c-0.8 3.9-1.3 7.9-2 11.9 0 0.1 0.2 0.2 0.3 0 0.9-4 2.1-7.9 2.9-11.8q0.7-3 1.3-6 0.3-1.4 0.6-2.8c0.1-0.5 0.2-1.1 0.3-1.6q0.5-0.2 1.1-0.4c5.4-2 11.3-3.4 17-2.4 5.4 1.1 10.1 4.8 12.3 9.9 0.1 0.4 0.8 0.2 0.7-0.3-1.1-4.9-5.2-8.5-9.6-10.4z"/>
					<path id="&lt;Path&gt;" class="s7" d="m1272.8 521.5q-0.8 3.9-1.7 7.7c-0.5 2.5-1.2 5.1-1.4 7.6 0 0.1 0.1 0.1 0.1 0 0.9-2.4 1.3-5.1 1.8-7.6q0.7-3.8 1.5-7.7c0-0.1-0.2-0.2-0.3 0z"/>
					<path id="&lt;Path&gt;" class="s7" d="m1253.1 528.1c-2.6 1.3-5.1 2.8-7.8 3.8-0.2 0.1-0.1 0.4 0.1 0.3 2.6-1.3 5.3-2.5 7.8-4 0-0.1 0-0.2-0.1-0.1z"/>
				</g>
				<g id="&lt;Group&gt;">
					<path id="&lt;Path&gt;" class="s2" d="m1303.1 476c0 0-25 1.6-36.6-14.9-11.6-16.4-8.9-39.9-8.9-39.9 0 0 26.1 3.2 36.5 15 10.4 11.8 9 39.8 9 39.8z"/>
					<path id="&lt;Path&gt;" class="s7" d="m1314.8 500.6c-0.9-2.7-2-5.3-3-7.9q-1.4-3.8-3.1-7.5c-2.2-5-4.7-9.9-7.4-14.7-1.8-3-3.7-6-5.6-8.9-0.1-0.4-0.2-0.9-0.2-1.3q-0.2-1.2-0.4-2.3-0.3-2.4-0.8-4.7c-0.5-3.5-1.2-6.9-1.8-10.3 0-0.2-0.3-0.2-0.2 0 0.5 3.4 0.8 6.8 1.3 10.2q0.3 2.5 0.7 5 0.1 0.9 0.3 1.8-5.7-8.3-12.4-16-0.9-1-1.8-2-0.1-0.3-0.2-0.6-0.3-0.7-0.6-1.4-0.5-1.5-1-3-1.1-2.9-1.9-5.9c0-0.2-0.3-0.1-0.2 0.1q0.7 3 1.6 6.1 0.4 1.4 0.9 2.9 0.1 0.2 0.2 0.4c-3.2-3.4-6.5-6.8-9.8-10.1-0.2-0.1-0.3 0.1-0.2 0.2 6.5 6.7 12.2 14 17.6 21.6q-0.9-0.3-1.8-0.4c-1.9-0.4-3.9-0.7-5.8-0.9-4.1-0.5-8.1-1-12.2-1.7-0.1 0-0.2 0.2 0 0.3 3.8 0.7 7.7 1.6 11.5 2.5 1.8 0.4 3.6 0.7 5.5 1.1 1.5 0.3 2.9 0.8 4.3 1.3q0.6 0.8 1.3 1.7 2.7 4 5.3 8.1-1.3-0.3-2.6-0.5-2.9-0.6-5.8-1c-3.8-0.7-7.6-1.3-11.3-2.2-0.2 0-0.3 0.2-0.1 0.3 3.8 0.9 7.6 1.9 11.4 2.9q2.7 0.7 5.5 1.4 1.4 0.3 2.7 0.6c0.4 0 0.8 0.1 1.2 0.1q5.4 8.9 10.2 18.2 2.1 4 4 8.2c1.4 2.8 2.5 5.7 3.7 8.6 0.3 0.5 1.2 0.3 1-0.3z"/>
					<path id="&lt;Path&gt;" class="s7" d="m1289.3 443.3q-0.8-3.6-1.5-7.1c-0.1-0.2-0.3-0.1-0.3 0q0.7 3.5 1.4 7.1c0.4 2.3 0.7 4.7 1.4 6.9 0 0.1 0 0.1 0 0-0.1-2.3-0.6-4.6-1-6.9z"/>
					<path id="&lt;Path&gt;" class="s7" d="m1274.7 442.6c-1.1-0.6-2.4-1.1-3.6-1.5q-0.9-0.4-1.9-0.8-0.4-0.2-0.9-0.3c-0.4-0.2-0.8-0.3-1.1-0.5-0.2-0.1-0.3 0.2-0.1 0.2 0.4 0.1 0.7 0.3 1.1 0.4q0.4 0.3 0.9 0.5 0.9 0.4 1.8 0.8c1.2 0.5 2.5 1 3.7 1.4 0.2 0.1 0.3-0.1 0.1-0.2z"/>
				</g>
				<g id="&lt;Group&gt;">
					<path id="&lt;Path&gt;" class="s2" d="m1328.6 456.4c0 0 15.1-28.2 38-32.6 23-4.3 37.1 19.3 37.1 19.3 0 0-16.8 21.4-37.9 25.1-21 3.7-37.2-11.8-37.2-11.8z"/>
					<path id="&lt;Path&gt;" class="s7" d="m1382 436.5c-5.9-0.9-12-0.8-18 0.2q0.5-0.3 1-0.6 2.6-1.3 5.1-2.6c3.6-1.8 7.1-3.8 10.8-5.3 0.2 0 0.1-0.3-0.1-0.2-3.6 1.7-7.3 3.1-10.9 4.7q-2.7 1.3-5.3 2.7c-1.2 0.6-2.4 1.1-3.5 1.8-5.1 1.1-10 2.7-14.6 4.9q1.4-1.6 2.9-3.1c2.1-2.4 4.2-4.8 6.5-7 0.2-0.1 0-0.3-0.1-0.2-2.4 2.2-5 4.2-7.3 6.5q-1.7 1.7-3.3 3.4-0.8 0.9-1.5 1.8c-10 5.5-18.5 13.7-24.1 23.6-3.2 5.6-5.4 11.7-6.7 18 0 0.2 0.2 0.3 0.2 0.1 3.2-10.7 9.1-20.7 16.9-28.6 8.5-8.6 19.1-14.8 30.8-17.8 6.9-1.7 14.1-2.4 21.2-1.9 0.3 0 0.3-0.4 0-0.4z"/>
					<path id="&lt;Path&gt;" class="s9" d="m1403.7 443.1c0 0-16.8 21.4-37.9 25.1-16 2.8-29.3-5.5-34.6-9.7l-1.2-1.9c0 0 10.9-9.1 31.4-14.4 20.6-5.3 42.3 0.9 42.3 0.9z"/>
					<path id="&lt;Path&gt;" class="s7" d="m1368.7 426.4c-1.7 1.1-3.5 2.1-5.1 3.4-1.6 1.2-3.1 2.5-4.4 4-0.1 0.2 0 0.3 0.2 0.2 1.5-1.3 3-2.6 4.6-3.9 1.6-1.2 3.1-2.4 4.8-3.5 0.2-0.1 0-0.3-0.1-0.2z"/>
					<path id="&lt;Path&gt;" class="s7" d="m1381.3 431.2c-0.9 0.3-1.7 0.6-2.6 1q-1.3 0.5-2.5 1.1c-0.2 0-0.1 0.3 0.1 0.3q1.2-0.6 2.5-1.1c0.9-0.3 1.7-0.7 2.6-1.1 0.1 0 0-0.3-0.1-0.2z"/>
				</g>
				<g id="&lt;Group&gt;">
					<path id="&lt;Path&gt;" class="s2" d="m1325.6 491.8c0 0 4 28 25 37.8 21.1 9.8 46.7 0 46.7 0 0 0-10.1-60.5-71.7-37.8z"/>
					<path id="&lt;Path&gt;" class="s7" d="m1382.8 511.4c-1.9-0.2-3.9-0.5-5.8-0.9q-1.4-0.3-2.8-0.5-0.7-0.2-1.5-0.3-0.8-0.8-1.7-1.6c-4-3.5-8.3-6.6-12.8-9.3q-3.8-2.2-7.7-4 0.2 0 0.4 0 3.4 0.2 6.9 0.3c4.6 0.2 9.2 0.3 13.8 0.6 0.2 0.1 0.2-0.2 0-0.2-4.6-0.3-9.2-0.8-13.8-1.2q-3.4-0.3-6.8-0.6-1.7-0.2-3.4-0.3-0.5-0.1-0.9-0.1-1.8-0.7-3.7-1.3c-5.7-1.8-11.9-2.5-17.8-1-5.2 1.4-10.5 4.9-11.9 10.4 0 0.2 0.3 0.4 0.3 0.2 2-4.7 7.2-7 11.9-8 3.1-0.7 6.3-0.6 9.5-0.2 0.1 1.4 0.6 2.9 1 4.2q0.9 3 1.8 5.9c1.2 4 2.5 7.9 3.7 11.8 0 0.1 0.2 0.1 0.2-0.1-1-3.9-1.8-7.9-2.7-11.8q-0.8-2.9-1.5-5.8c-0.3-1.2-0.5-2.7-1-4q2.7 0.5 5.4 1.3 4.9 1.5 9.6 3.5c0.3 2 0.7 4 1.2 5.9 0.5 2.5 1.2 5 2 7.4 0 0.1 0.2 0.1 0.2-0.1q-0.1-0.2-0.1-0.5 0 0 0 0-0.7-3.4-1.5-6.8c-0.4-1.8-0.7-3.7-1.1-5.5q3.9 1.7 7.7 3.8c0 0.6 0.1 1.2 0.2 1.7q0.3 1.5 0.5 2.9 0.6 3.2 1.4 6.4c1 4.1 2.1 8.2 3.6 12.2q-0.1 0.1 0 0.1 0 0.1 0.1 0.2c0.1 0.1 0.2 0 0.2-0.1-1-4.2-2.1-8.3-3-12.5q-0.7-3.1-1.3-6.2-0.3-1.6-0.6-3.1-0.1-0.5-0.1-1 4.2 2.6 8.1 5.5c4.5 3.4 8.8 7.3 12.6 11.4 0.1 0.2 0.4 0 0.3-0.2-1.6-2.1-3.2-4.2-5-6.1q-1.6-1.7-3.3-3.3 0.2 0 0.3 0 1.5 0.3 3 0.5c2 0.2 3.9 0.4 5.9 0.7 0.1 0 0.2-0.3 0-0.3z"/>
					<path id="&lt;Path&gt;" class="s7" d="m1368 520.9q0 0 0 0 0-0.4-0.1-0.7c0-0.4-0.2-0.6-0.2-1q0 0 0 0-0.7-2.8-1.2-5.6c0-0.1-0.2-0.1-0.2 0 0.1 2.5 0.7 5 1.6 7.3 0 0.1 0.2 0.1 0.1 0q0 0 0 0z"/>
					<path id="&lt;Path&gt;" class="s7" d="m1350.4 520.4q0-0.1-0.1-0.1-0.9-3.7-1.7-7.4-0.4-2-0.7-4-0.2-1-0.4-2.1c-0.1-0.6-0.2-1.3-0.5-1.8 0-0.1-0.2-0.1-0.2 0-0.2 1.2 0.3 2.6 0.5 3.8q0.4 2 0.8 4.1 0.9 4.1 2.1 8.2c0 0.1 0.3 0.1 0.3-0.1q0-0.3-0.1-0.6z"/>
					<path id="&lt;Path&gt;" class="s7" d="m1380.9 503.4c-3.8-0.6-7.7-1.1-11.5-1.6-0.2 0-0.3 0.2-0.1 0.3 3.8 0.5 7.7 1 11.5 1.5 0.2 0 0.3-0.2 0.1-0.2z"/>
				</g>
				<g id="&lt;Group&gt;">
					<path id="&lt;Path&gt;" class="s2" d="m1314.8 426.3c0 0-12.8-56.5 47.8-79.3 0 0 16.8 74.3-47.8 79.3z"/>
					<path id="&lt;Path&gt;" class="s7" d="m1327.9 394.3q0.4-0.3 0.7-0.4 1.7-1 3.4-1.9l7-4c4.6-2.6 9.2-5.3 13.9-7.8 0.1-0.1 0-0.3-0.2-0.2-4.6 2.5-9.4 4.9-14.1 7.4l-6.9 3.7q-1.4 0.7-2.9 1.5c2.1-3.9 4.2-7.6 6.6-11.3 3.2-4.8 6.6-9.4 10.3-13.9 0.1-0.2-0.2-0.5-0.3-0.3-5.4 5.1-10 11-14.1 17.2q0-0.3 0-0.6 0.1-2.1 0.2-4.2c0-2.8-0.1-5.5 0-8.3 0-0.1-0.3-0.1-0.3 0-0.1 2.7-0.4 5.4-0.6 8.2q-0.1 2-0.2 4c0 0.7-0.1 1.6 0 2.4q-1.9 3-3.6 6c-2 3.7-3.8 7.5-5.4 11.4q-0.1-2.1-0.3-4.2c-0.1-3.1-0.5-6.2-0.6-9.3-0.1-0.1-0.3-0.1-0.3 0 0.1 3.1-0.1 6.2 0 9.3q0.1 2.3 0.2 4.6 0.1 0.9 0.1 1.8c-1.9 5-3.5 10.2-4.6 15.5-1.1 5.6-1.6 11.3-2.2 17 0 0.1 0 0.1 0 0 0.6-5.1 1.9-10.2 3.3-15.2q1.1-4 2.4-7.9c2.5-1.2 4.9-2.7 7.3-4q3.8-2.1 7.6-4.2c5.1-2.8 10.1-5.6 15.4-8.1 0.1 0 0-0.3-0.2-0.2-5.3 2.4-10.6 4.7-15.8 7.3q-3.8 2-7.6 4.1c-2.1 1.2-4.3 2.4-6.3 3.7q0.9-2.6 1.9-5.2 2.7-7.1 6.2-13.9z"/>
					<path id="&lt;Path&gt;" class="s7" d="m1322.8 381.4c0-0.2-0.3-0.2-0.3 0 0.3 3.2 0.4 6.4 0.7 9.6 0 0.2 0.3 0.2 0.3 0-0.1-3.2-0.5-6.4-0.7-9.6z"/>
					<path id="&lt;Path&gt;" class="s7" d="m1351.9 392.1c-3.8 1.6-7.7 3-11.4 4.6-0.1 0-0.1 0.2 0 0.2 3.9-1.5 7.6-3 11.4-4.5 0.2-0.1 0.1-0.3 0-0.3z"/>
					<path id="&lt;Path&gt;" class="s7" d="m1357.6 366.1c-3.7 1.7-7.3 3.6-10.8 5.8-0.1 0.1 0 0.4 0.2 0.3 3.5-2.1 7.1-4.1 10.8-5.9 0.1 0 0-0.3-0.2-0.2z"/>
				</g>
			</g>
			<g id="&lt;Group&gt;">
				<path id="&lt;Path&gt;" class="s10" d="m1356.7 640.5h-87.4v-92.2h87.4z"/>
				<path id="&lt;Path&gt;" class="s7" d="m1267.7 738.9h-4.5v-158h4.5z"/>
				<path id="&lt;Path&gt;" class="s7" d="m1362.3 738.9h-4.5v-158h4.5z"/>
				<path id="&lt;Path&gt;" class="s7" d="m1317.4 738.9h-4.5v-158h4.5z"/>
				<path id="&lt;Path&gt;" class="s7" d="m1360 647.4h-94.5v-12.8h94.5z"/>
			</g>
		</g>
	</g>
	<g id="Floor">
		<path id="&lt;Path&gt;" class="s7" d="m101.4 738.9l162.2-0.5 162.1-0.2 324.3-0.3 324.3 0.3 162.1 0.2 162.2 0.5-162.2 0.4-162.1 0.2-324.3 0.4-324.3-0.4-162.1-0.2z"/>
	</g>
	<g id="Shadow">
		<path id="&lt;Path&gt;" class="s0" d="m1312.5 853.8c0 27.4-251.8 49.6-562.5 49.6-310.7 0-562.5-22.2-562.5-49.6 0-27.4 251.8-49.6 562.5-49.6 310.7 0 562.5 22.2 562.5 49.6z"/>
	</g>
	<g id="Screen">
		<g id="&lt;Group&gt;">
			<g id="&lt;Group&gt;">
				<path id="&lt;Path&gt;" class="s3" d="m1256.1 834.3h-1012.2v-615.7h1012.2z"/>
				<path id="&lt;Compound Path&gt;" fill-rule="evenodd" class="s4" d="m1256.1 834.3l-1012.2 0.8h-0.7v-0.8l-0.3-615.7v-1h1l1012.2 0.4h0.6v0.6zm0 0l-0.6-615.1-1010.6 0.4-0.3 614zm-0.6-615.1h0.6l-0.6-0.6zm-1010.6 0.4v-1l-1 1zm-0.2 614h-0.8l0.8 0.7z"/>
			</g>
			<g id="&lt;Group&gt;">
				<path id="&lt;Path&gt;" class="s7" d="m1256.1 218.6h-1012.2v-45.1h1012.2z"/>
				<g id="&lt;Group&gt;">
					<path id="&lt;Path&gt;" class="s5" d="m278.7 196.1c0 3.4-2.7 6.1-6.1 6.1-3.4 0-6.1-2.7-6.1-6.1 0-3.4 2.7-6.1 6.1-6.1 3.4 0 6.1 2.7 6.1 6.1z"/>
					<path id="&lt;Path&gt;" class="s3" d="m303.6 196.1c0 3.4-2.7 6.1-6.1 6.1-3.3 0-6.1-2.7-6.1-6.1 0-3.4 2.8-6.1 6.1-6.1 3.4 0 6.1 2.7 6.1 6.1z"/>
					<path id="&lt;Path&gt;" class="s2" d="m328.6 196.1c0 3.4-2.7 6.1-6.1 6.1-3.4 0-6.1-2.7-6.1-6.1 0-3.4 2.7-6.1 6.1-6.1 3.4 0 6.1 2.7 6.1 6.1z"/>
				</g>
			</g>
			<g id="&lt;Group&gt;">
				<path id="&lt;Path&gt;" class="s4" d="m1256.1 834.3h-18v-615.7h18z"/>
				<path id="&lt;Path&gt;" class="s1" d="m1247.1 432.1c-2.5 0-4.6-2.1-4.6-4.7v-200.5c0-2.6 2.1-4.7 4.6-4.7 2.6 0 4.6 2.1 4.6 4.7v200.5c0 2.6-2 4.7-4.6 4.7z"/>
			</g>
			<g id="&lt;Group&gt;">
				<path id="&lt;Path&gt;" class="s10" d="m952.4 209.1h-1.6v-15.3h1.6z"/>
				<path id="&lt;Path&gt;" class="s10" d="m944 202.3v-1.6h15.3v1.6z"/>
			</g>
		</g>
	</g>
	<g id="Tabs">
		<g id="&lt;Group&gt;">
			<g id="&lt;Group&gt;">
				<path id="&lt;Path&gt;" class="s3" d="m1238.1 834.3h-994.2v-615.7h994.2z"/>
				<path id="&lt;Compound Path&gt;" fill-rule="evenodd" class="s4" d="m1238.1 834.3l-994.2 0.8h-0.7v-0.8l-0.3-615.7v-1h1l994.2 0.4h0.6v0.6zm0 0l-0.6-615.1-992.6 0.4-0.3 614zm-0.6-615.1h0.6l-0.6-0.6zm-992.6 0.4v-1l-1 1zm-0.3 614h-0.7l0.7 0.7z"/>
			</g>
			<path id="&lt;Path&gt;" class="s0" d="m1238.1 313.6h-994.2v-95h994.2z"/>
			<g id="&lt;Group&gt;">
				<g id="&lt;Group&gt;">
					<g id="&lt;Group&gt;">
						<path id="&lt;Path&gt;" class="s3" d="m1177 276.7h-819.2v-23.1h819.2z"/>
						<path id="&lt;Compound Path&gt;" fill-rule="evenodd" class="s5" d="m1177.2 277h-819.6v-23.7h819.6zm-819.2-0.4h818.7v-22.7h-818.7z"/>
					</g>
					<g id="&lt;Group&gt;">
						<g id="&lt;Group&gt;">
							<g id="&lt;Group&gt;">
								<path id="&lt;Path&gt;" class="s0" d="m375.7 270.1l-1.6 1.3-2.5-3.4-0.6-0.7-0.5-0.7q0.3-0.2 0.6-0.4 0 0 0.1-0.1 0.5-0.4 0.8-0.9l0.6 0.8 0.5 0.7z"/>
								<path id="&lt;Compound Path&gt;" class="s0" d="m373.1 266.7l-0.5-0.7q0.3-0.4 0.4-0.9l-0.6-0.8v-0.1q-0.1 0.3-0.2 0.6-0.1 0.2-0.2 0.4-0.3 0.5-0.8 0.9 0.1-0.1 0.2-0.2l0.1 0.1 0.5 0.6 0.5 0.7 2 2.7-0.2 0.1-2-2.5-0.5-0.7-0.6-0.7v-0.1q-0.1 0.1-0.1 0.1-0.3 0.2-0.6 0.4-0.2 0.1-0.3 0.1-0.3 0.1-0.6 0.2l0.6 0.8q0.4-0.1 0.8-0.4l0.6 0.7 2.5 3.4 1.6-1.3z"/>
							</g>
							<g id="&lt;Group&gt;">
								<path id="&lt;Compound Path&gt;" fill-rule="evenodd" class="s0" d="m373 265.1q-0.1 0.5-0.4 0.9-0.3 0.4-0.6 0.6-0.1 0.2-0.2 0.3-0.1 0-0.2 0.1-0.2 0.2-0.6 0.3-0.4 0.3-0.8 0.4c-1.7 0.5-3.7-0.1-4.8-1.6-1.5-1.9-1.2-4.8 0.8-6.3 2-1.5 4.8-1.1 6.3 0.9 1 1.3 1.2 3 0.5 4.4zm-0.6-0.9c0.2-1 0-2.1-0.6-3-1.2-1.5-3.5-1.8-5-0.6-1.6 1.2-1.9 3.4-0.7 5 0.7 0.9 1.7 1.3 2.8 1.3q0.4 0 0.7 0 0.3-0.1 0.6-0.2 0.2 0 0.3-0.1 0.3-0.2 0.6-0.4 0 0 0.1-0.1 0.5-0.4 0.8-0.9 0.1-0.2 0.2-0.4 0.1-0.3 0.2-0.6z"/>
								<path id="&lt;Compound Path&gt;" fill-rule="evenodd" class="s0" d="m372.6 266l0.5 0.7q-0.2 0.4-0.6 0.6-0.1 0.2-0.2 0.3-0.1 0-0.1 0-0.3 0.3-0.6 0.4l-0.6-0.7q-0.4 0.3-0.8 0.4c-1.7 0.5-3.7-0.1-4.8-1.6-1.5-1.9-1.2-4.8 0.8-6.3 2-1.5 4.8-1.1 6.3 0.9 1 1.3 1.2 3 0.5 4.4q-0.1 0.5-0.4 0.9zm-0.6-0.8q0.3-0.4 0.4-0.9c0.3-1.1 0.1-2.2-0.6-3.1-0.7-0.9-1.8-1.4-2.9-1.4-0.7 0-1.5 0.2-2.2 0.7-0.7 0.6-1.2 1.5-1.4 2.4-0.1 1 0.2 1.9 0.8 2.7 0.8 1.1 2.2 1.6 3.5 1.3q0.5 0 0.9-0.3 0.1 0 0.1 0 0.3-0.2 0.5-0.3 0.1-0.1 0.1-0.1 0.1-0.1 0.3-0.2 0.2-0.2 0.4-0.5 0.1-0.1 0.1-0.3z"/>
							</g>
						</g>
					</g>
				</g>
				<g id="&lt;Group&gt;">
					<path id="&lt;Path&gt;" class="s3" d="m274.7 273.1l-8.5-7.8 8.5-8.1 1.3 1.4-7 6.7 7 6.4z"/>
				</g>
				<g id="&lt;Group&gt;">
					<path id="&lt;Path&gt;" class="s3" d="m295 257.2l8.5 7.8-8.4 8.1-1.4-1.4 7-6.7-6.9-6.4z"/>
				</g>
				<g id="&lt;Group&gt;">
					<path id="&lt;Path&gt;" class="s4" d="m1210.5 274.6q-1.4 0.9-3.2 1.4c-3 0.7-6.1 0.2-8.5-1.4-2.4-1.5-4.3-3.9-5-6.8-1.5-6 2.2-12 8.2-13.5 6-1.5 12 2.2 13.5 8.2 1.2 4.8-1 9.7-5 12.1z"/>
					<g id="&lt;Group&gt;">
						<path id="&lt;Path&gt;" class="s3" d="m1208 263.9c0 1.8-1.5 3.4-3.4 3.4-1.8 0-3.4-1.6-3.4-3.4 0-1.9 1.6-3.4 3.4-3.4 1.9 0 3.4 1.5 3.4 3.4z"/>
						<path id="&lt;Path&gt;" class="s3" d="m1210.5 273.2v1.4q-1.4 0.9-3.2 1.4c-3 0.7-6.1 0.2-8.5-1.4v-1.4c0-3.2 2.6-5.8 5.8-5.8 3.3 0 5.9 2.6 5.9 5.8z"/>
					</g>
				</g>
				<g id="&lt;Group&gt;">
					<path id="&lt;Path&gt;" class="s3" d="m328.6 275.2c-6 0-10.9-4.9-10.9-11 0-6 4.9-10.9 10.9-10.9 5.5 0 10.2 4.1 10.9 9.5l-2 0.3c-0.5-4.5-4.4-7.8-8.9-7.8-4.9 0-8.9 4-8.9 8.9 0 5 4 9 8.9 9 2.6 0 5-1.1 6.7-2.9l1.5 1.3c-2.1 2.3-5.1 3.6-8.2 3.6z"/>
					<g id="&lt;Group&gt;">
						<path id="&lt;Path&gt;" class="s3" d="m332.6 260.2l0.7-1 4.9 3.3 3-5.1 1 0.6-3.6 6.2z"/>
					</g>
				</g>
			</g>
			<g id="&lt;Group&gt;">
				<path id="&lt;Path&gt;" class="s0" d="m919 184.3h-176l-8 34.3h192z"/>
				<g id="&lt;Group&gt;">
					<path id="&lt;Path&gt;" class="s4" d="m910.1 206.3l-1.2 1.2-10.8-10.8 1.1-1.2z"/>
					<path id="&lt;Path&gt;" class="s4" d="m899.2 207.5l-1.1-1.2 10.8-10.8 1.2 1.2z"/>
				</g>
			</g>
			<g id="&lt;Group&gt;">
				<g id="&lt;Group&gt;">
					<path id="&lt;Path&gt;" class="s6" d="m939 595.6h-378v-51.6h378z"/>
					<path id="&lt;Path&gt;" class="s2" d="m939 595.6h-51.6v-51.6h51.6z"/>
					<g id="&lt;Group&gt;">
						<g id="&lt;Group&gt;">
							<path id="&lt;Path&gt;" class="s3" d="m929.5 584.3l-4.7 3.6-8.8-11.7-3.3-4.2q1-0.4 1.9-1.1c1.1-0.8 1.9-1.9 2.4-3.1l3.5 4.5z"/>
							<path id="&lt;Compound Path&gt;" fill-rule="evenodd" class="s3" d="m920.5 572.3q-1.1 1.5-2.7 2.8-0.9 0.6-1.8 1.1c-5.6 3-12.5 1.6-16.5-3.5-4.3-5.7-3.3-13.9 2.4-18.3 5.7-4.3 13.9-3.2 18.3 2.5 3.5 4.6 3.5 10.9 0.3 15.4zm-3.5-4.5c1.1-2.5 0.8-5.5-1-7.8-2.6-3.4-7.5-4-10.9-1.4-3.4 2.6-4 7.5-1.4 10.9 2.2 2.8 5.9 3.7 9 2.5q1-0.4 1.9-1.1c1.1-0.8 1.9-1.9 2.4-3.1z"/>
						</g>
					</g>
					<path id="&lt;Path&gt;" class="s7" d="m574.6 585.5h-2.8v-31.3h2.8z"/>
				</g>
				<path id="&lt;Path&gt;" class="s5" d="m648.3 643.4h-87.3v-27.7h87.3z"/>
				<path id="&lt;Path&gt;" class="s2" d="m793.7 643.4h-87.4v-27.7h87.4z"/>
				<path id="&lt;Path&gt;" class="s5" d="m940.1 643.4h-87.3v-27.7h87.3z"/>
				<path id="&lt;Path&gt;" class="s8" d="m870.6 504.9h-241.2v-16.7h241.2z"/>
			</g>
		</g>
		<g id="&lt;Group&gt;">
			<g id="&lt;Group&gt;">
				<path id="&lt;Path&gt;" class="s3" d="m1238.1 834.3h-994.2v-615.7h994.2z"/>
				<path id="&lt;Compound Path&gt;" fill-rule="evenodd" class="s4" d="m1238.1 834.3l-994.2 0.8h-0.7v-0.8l-0.3-615.7v-1h1l994.2 0.4h0.6v0.6zm0 0l-0.6-615.1-992.6 0.4-0.3 614zm-0.6-615.1h0.6l-0.6-0.6zm-992.6 0.4v-1l-1 1zm-0.3 614h-0.7l0.7 0.7z"/>
			</g>
			<path id="&lt;Path&gt;" class="s10" d="m1238.1 313.6h-994.2v-95h994.2z"/>
			<g id="&lt;Group&gt;">
				<g id="&lt;Group&gt;">
					<g id="&lt;Group&gt;">
						<path id="&lt;Path&gt;" class="s3" d="m1177 276.7h-819.2v-23.1h819.2z"/>
						<path id="&lt;Compound Path&gt;" fill-rule="evenodd" class="s5" d="m1177.2 277h-819.6v-23.7h819.6zm-819.2-0.4h818.7v-22.7h-818.7z"/>
					</g>
					<g id="&lt;Group&gt;">
						<g id="&lt;Group&gt;">
							<g id="&lt;Group&gt;">
								<path id="&lt;Path&gt;" class="s0" d="m375.7 270.1l-1.6 1.3-2.5-3.4-0.6-0.7-0.5-0.7q0.3-0.2 0.6-0.4 0 0 0.1-0.1 0.5-0.4 0.8-0.9l0.6 0.8 0.5 0.7z"/>
								<path id="&lt;Compound Path&gt;" class="s0" d="m373.1 266.7l-0.5-0.7q0.3-0.4 0.4-0.9l-0.6-0.8v-0.1q-0.1 0.3-0.2 0.6-0.1 0.2-0.2 0.4-0.3 0.5-0.8 0.9 0.1-0.1 0.2-0.2l0.1 0.1 0.5 0.6 0.5 0.7 2 2.7-0.2 0.1-2-2.5-0.5-0.7-0.6-0.7v-0.1q-0.1 0.1-0.1 0.1-0.3 0.2-0.6 0.4-0.2 0.1-0.3 0.1-0.3 0.1-0.6 0.2l0.6 0.8q0.4-0.1 0.8-0.4l0.6 0.7 2.5 3.4 1.6-1.3z"/>
							</g>
							<g id="&lt;Group&gt;">
								<path id="&lt;Compound Path&gt;" fill-rule="evenodd" class="s0" d="m373 265.1q-0.1 0.5-0.4 0.9-0.3 0.4-0.6 0.6-0.1 0.2-0.2 0.3-0.1 0-0.2 0.1-0.2 0.2-0.6 0.3-0.4 0.3-0.8 0.4c-1.7 0.5-3.7-0.1-4.8-1.6-1.5-1.9-1.2-4.8 0.8-6.3 2-1.5 4.8-1.1 6.3 0.9 1 1.3 1.2 3 0.5 4.4zm-0.6-0.9c0.2-1 0-2.1-0.6-3-1.2-1.5-3.5-1.8-5-0.6-1.6 1.2-1.9 3.4-0.7 5 0.7 0.9 1.7 1.3 2.8 1.3q0.4 0 0.7 0 0.3-0.1 0.6-0.2 0.2 0 0.3-0.1 0.3-0.2 0.6-0.4 0 0 0.1-0.1 0.5-0.4 0.8-0.9 0.1-0.2 0.2-0.4 0.1-0.3 0.2-0.6z"/>
								<path id="&lt;Compound Path&gt;" fill-rule="evenodd" class="s0" d="m372.6 266l0.5 0.7q-0.2 0.4-0.6 0.6-0.1 0.2-0.2 0.3-0.1 0-0.1 0-0.3 0.3-0.6 0.4l-0.6-0.7q-0.4 0.3-0.8 0.4c-1.7 0.5-3.7-0.1-4.8-1.6-1.5-1.9-1.2-4.8 0.8-6.3 2-1.5 4.8-1.1 6.3 0.9 1 1.3 1.2 3 0.5 4.4q-0.1 0.5-0.4 0.9zm-0.6-0.8q0.3-0.4 0.4-0.9c0.3-1.1 0.1-2.2-0.6-3.1-0.7-0.9-1.8-1.4-2.9-1.4-0.7 0-1.5 0.2-2.2 0.7-0.7 0.6-1.2 1.5-1.4 2.4-0.1 1 0.2 1.9 0.8 2.7 0.8 1.1 2.2 1.6 3.5 1.3q0.5 0 0.9-0.3 0.1 0 0.1 0 0.3-0.2 0.5-0.3 0.1-0.1 0.1-0.1 0.1-0.1 0.3-0.2 0.2-0.2 0.4-0.5 0.1-0.1 0.1-0.3z"/>
							</g>
						</g>
					</g>
				</g>
				<g id="&lt;Group&gt;">
					<path id="&lt;Path&gt;" class="s3" d="m274.7 273.1l-8.5-7.8 8.5-8.1 1.3 1.4-7 6.7 7 6.4z"/>
				</g>
				<g id="&lt;Group&gt;">
					<path id="&lt;Path&gt;" class="s3" d="m295 257.2l8.5 7.8-8.4 8.1-1.4-1.4 7-6.7-6.9-6.4z"/>
				</g>
				<g id="&lt;Group&gt;">
					<path id="&lt;Path&gt;" class="s4" d="m1210.5 274.6q-1.4 0.9-3.2 1.4c-3 0.7-6.1 0.2-8.5-1.4-2.4-1.5-4.3-3.9-5-6.8-1.5-6 2.2-12 8.2-13.5 6-1.5 12 2.2 13.5 8.2 1.2 4.8-1 9.7-5 12.1z"/>
					<g id="&lt;Group&gt;">
						<path id="&lt;Path&gt;" class="s3" d="m1208 263.9c0 1.8-1.5 3.4-3.4 3.4-1.8 0-3.4-1.6-3.4-3.4 0-1.9 1.6-3.4 3.4-3.4 1.9 0 3.4 1.5 3.4 3.4z"/>
						<path id="&lt;Path&gt;" class="s3" d="m1210.5 273.2v1.4q-1.4 0.9-3.2 1.4c-3 0.7-6.1 0.2-8.5-1.4v-1.4c0-3.2 2.6-5.8 5.8-5.8 3.3 0 5.9 2.6 5.9 5.8z"/>
					</g>
				</g>
				<g id="&lt;Group&gt;">
					<path id="&lt;Path&gt;" class="s3" d="m328.6 275.2c-6 0-10.9-4.9-10.9-11 0-6 4.9-10.9 10.9-10.9 5.5 0 10.2 4.1 10.9 9.5l-2 0.3c-0.5-4.5-4.4-7.8-8.9-7.8-4.9 0-8.9 4-8.9 8.9 0 5 4 9 8.9 9 2.6 0 5-1.1 6.7-2.9l1.5 1.3c-2.1 2.3-5.1 3.6-8.2 3.6z"/>
					<g id="&lt;Group&gt;">
						<path id="&lt;Path&gt;" class="s3" d="m332.6 260.2l0.7-1 4.9 3.3 3-5.1 1 0.6-3.6 6.2z"/>
					</g>
				</g>
			</g>
			<g id="&lt;Group&gt;">
				<path id="&lt;Path&gt;" class="s10" d="m542 184.3h-176l-8 34.3h192z"/>
				<g id="&lt;Group&gt;">
					<path id="&lt;Path&gt;" class="s7" d="m533.1 206.3l-1.2 1.2-10.8-10.8 1.2-1.2z"/>
					<path id="&lt;Path&gt;" class="s7" d="m522.3 207.5l-1.2-1.2 10.8-10.8 1.2 1.2z"/>
				</g>
			</g>
			<g id="&lt;Group&gt;">
				<g id="&lt;Group&gt;">
					<path id="&lt;Path&gt;" class="s6" d="m939 595.6h-378v-51.6h378z"/>
					<path id="&lt;Path&gt;" class="s2" d="m939 595.6h-51.6v-51.6h51.6z"/>
					<g id="&lt;Group&gt;">
						<g id="&lt;Group&gt;">
							<path id="&lt;Path&gt;" class="s3" d="m929.5 584.3l-4.7 3.6-8.8-11.7-3.3-4.2q1-0.4 1.9-1.1c1.1-0.8 1.9-1.9 2.4-3.1l3.5 4.5z"/>
							<path id="&lt;Compound Path&gt;" fill-rule="evenodd" class="s3" d="m920.5 572.3q-1.1 1.5-2.7 2.8-0.9 0.6-1.8 1.1c-5.6 3-12.5 1.6-16.5-3.5-4.3-5.7-3.3-13.9 2.4-18.3 5.7-4.3 13.9-3.2 18.3 2.5 3.5 4.6 3.5 10.9 0.3 15.4zm-3.5-4.5c1.1-2.5 0.8-5.5-1-7.8-2.6-3.4-7.5-4-10.9-1.4-3.4 2.6-4 7.5-1.4 10.9 2.2 2.8 5.9 3.7 9 2.5q1-0.4 1.9-1.1c1.1-0.8 1.9-1.9 2.4-3.1z"/>
						</g>
					</g>
					<path id="&lt;Path&gt;" class="s7" d="m574.6 585.5h-2.8v-31.3h2.8z"/>
				</g>
				<path id="&lt;Path&gt;" class="s5" d="m648.3 643.4h-87.3v-27.7h87.3z"/>
				<path id="&lt;Path&gt;" class="s2" d="m793.7 643.4h-87.4v-27.7h87.4z"/>
				<path id="&lt;Path&gt;" class="s5" d="m940.1 643.4h-87.3v-27.7h87.3z"/>
				<path id="&lt;Path&gt;" class="s8" d="m870.6 504.9h-241.2v-16.7h241.2z"/>
			</g>
		</g>
		<g id="&lt;Group&gt;">
			<g id="&lt;Group&gt;">
				<path id="&lt;Path&gt;" class="s3" d="m1238.1 834.3h-994.2v-615.7h994.2z"/>
				<path id="&lt;Compound Path&gt;" fill-rule="evenodd" class="s4" d="m1238.1 834.3l-994.2 0.8h-0.7v-0.8l-0.3-615.7v-1h1l994.2 0.4h0.6v0.6zm0 0l-0.6-615.1-992.6 0.4-0.3 614zm-0.6-615.1h0.6l-0.6-0.6zm-992.6 0.4v-1l-1 1zm-0.3 614h-0.7l0.7 0.7z"/>
			</g>
			<path id="&lt;Path&gt;" class="s2" d="m1238.1 313.6h-994.2v-95h994.2z"/>
			<g id="&lt;Group&gt;">
				<g id="&lt;Group&gt;">
					<g id="&lt;Group&gt;">
						<path id="&lt;Path&gt;" class="s3" d="m1177 276.7h-819.2v-23.1h819.2z"/>
						<path id="&lt;Compound Path&gt;" fill-rule="evenodd" class="s5" d="m1177.2 277h-819.6v-23.7h819.6zm-819.2-0.4h818.7v-22.7h-818.7z"/>
					</g>
					<g id="&lt;Group&gt;">
						<g id="&lt;Group&gt;">
							<g id="&lt;Group&gt;">
								<path id="&lt;Path&gt;" class="s0" d="m375.7 270.1l-1.6 1.3-2.5-3.4-0.6-0.7-0.5-0.7q0.3-0.2 0.6-0.4 0 0 0.1-0.1 0.5-0.4 0.8-0.9l0.6 0.8 0.5 0.7z"/>
								<path id="&lt;Compound Path&gt;" class="s0" d="m373.1 266.7l-0.5-0.7q0.3-0.4 0.4-0.9l-0.6-0.8v-0.1q-0.1 0.3-0.2 0.6-0.1 0.2-0.2 0.4-0.3 0.5-0.8 0.9 0.1-0.1 0.2-0.2l0.1 0.1 0.5 0.6 0.5 0.7 2 2.7-0.2 0.1-2-2.5-0.5-0.7-0.6-0.7v-0.1q-0.1 0.1-0.1 0.1-0.3 0.2-0.6 0.4-0.2 0.1-0.3 0.1-0.3 0.1-0.6 0.2l0.6 0.8q0.4-0.1 0.8-0.4l0.6 0.7 2.5 3.4 1.6-1.3z"/>
							</g>
							<g id="&lt;Group&gt;">
								<path id="&lt;Compound Path&gt;" fill-rule="evenodd" class="s0" d="m373 265.1q-0.1 0.5-0.4 0.9-0.3 0.4-0.6 0.6-0.1 0.2-0.2 0.3-0.1 0-0.2 0.1-0.2 0.2-0.6 0.3-0.4 0.3-0.8 0.4c-1.7 0.5-3.7-0.1-4.8-1.6-1.5-1.9-1.2-4.8 0.8-6.3 2-1.5 4.8-1.1 6.3 0.9 1 1.3 1.2 3 0.5 4.4zm-0.6-0.9c0.2-1 0-2.1-0.6-3-1.2-1.5-3.5-1.8-5-0.6-1.6 1.2-1.9 3.4-0.7 5 0.7 0.9 1.7 1.3 2.8 1.3q0.4 0 0.7 0 0.3-0.1 0.6-0.2 0.2 0 0.3-0.1 0.3-0.2 0.6-0.4 0 0 0.1-0.1 0.5-0.4 0.8-0.9 0.1-0.2 0.2-0.4 0.1-0.3 0.2-0.6z"/>
								<path id="&lt;Compound Path&gt;" fill-rule="evenodd" class="s0" d="m372.6 266l0.5 0.7q-0.2 0.4-0.6 0.6-0.1 0.2-0.2 0.3-0.1 0-0.1 0-0.3 0.3-0.6 0.4l-0.6-0.7q-0.4 0.3-0.8 0.4c-1.7 0.5-3.7-0.1-4.8-1.6-1.5-1.9-1.2-4.8 0.8-6.3 2-1.5 4.8-1.1 6.3 0.9 1 1.3 1.2 3 0.5 4.4q-0.1 0.5-0.4 0.9zm-0.6-0.8q0.3-0.4 0.4-0.9c0.3-1.1 0.1-2.2-0.6-3.1-0.7-0.9-1.8-1.4-2.9-1.4-0.7 0-1.5 0.2-2.2 0.7-0.7 0.6-1.2 1.5-1.4 2.4-0.1 1 0.2 1.9 0.8 2.7 0.8 1.1 2.2 1.6 3.5 1.3q0.5 0 0.9-0.3 0.1 0 0.1 0 0.3-0.2 0.5-0.3 0.1-0.1 0.1-0.1 0.1-0.1 0.3-0.2 0.2-0.2 0.4-0.5 0.1-0.1 0.1-0.3z"/>
							</g>
						</g>
					</g>
				</g>
				<g id="&lt;Group&gt;">
					<path id="&lt;Path&gt;" class="s3" d="m274.7 273.1l-8.5-7.8 8.5-8.1 1.3 1.4-7 6.7 7 6.4z"/>
				</g>
				<g id="&lt;Group&gt;">
					<path id="&lt;Path&gt;" class="s3" d="m295 257.2l8.5 7.8-8.4 8.1-1.4-1.4 7-6.7-6.9-6.4z"/>
				</g>
				<g id="&lt;Group&gt;">
					<path id="&lt;Path&gt;" class="s4" d="m1210.5 274.6q-1.4 0.9-3.2 1.4c-3 0.7-6.1 0.2-8.5-1.4-2.4-1.5-4.3-3.9-5-6.8-1.5-6 2.2-12 8.2-13.5 6-1.5 12 2.2 13.5 8.2 1.2 4.8-1 9.7-5 12.1z"/>
					<g id="&lt;Group&gt;">
						<path id="&lt;Path&gt;" class="s3" d="m1208 263.9c0 1.8-1.5 3.4-3.4 3.4-1.8 0-3.4-1.6-3.4-3.4 0-1.9 1.6-3.4 3.4-3.4 1.9 0 3.4 1.5 3.4 3.4z"/>
						<path id="&lt;Path&gt;" class="s3" d="m1210.5 273.2v1.4q-1.4 0.9-3.2 1.4c-3 0.7-6.1 0.2-8.5-1.4v-1.4c0-3.2 2.6-5.8 5.8-5.8 3.3 0 5.9 2.6 5.9 5.8z"/>
					</g>
				</g>
				<g id="&lt;Group&gt;">
					<path id="&lt;Path&gt;" class="s3" d="m328.6 275.2c-6 0-10.9-4.9-10.9-11 0-6 4.9-10.9 10.9-10.9 5.5 0 10.2 4.1 10.9 9.5l-2 0.3c-0.5-4.5-4.4-7.8-8.9-7.8-4.9 0-8.9 4-8.9 8.9 0 5 4 9 8.9 9 2.6 0 5-1.1 6.7-2.9l1.5 1.3c-2.1 2.3-5.1 3.6-8.2 3.6z"/>
					<g id="&lt;Group&gt;">
						<path id="&lt;Path&gt;" class="s3" d="m332.6 260.2l0.7-1 4.9 3.3 3-5.1 1 0.6-3.6 6.2z"/>
					</g>
				</g>
			</g>
			<g id="&lt;Group&gt;">
				<path id="&lt;Path&gt;" class="s2" d="m729.5 184.3h-175.9l-8 34.3h191.9z"/>
				<g id="&lt;Group&gt;" style="opacity: .2">
					<path id="&lt;Path&gt;" class="s11" d="m720.6 206.3l-1.2 1.2-10.8-10.8 1.2-1.2z"/>
					<path id="&lt;Path&gt;" class="s11" d="m709.8 207.5l-1.2-1.2 10.8-10.8 1.2 1.2z"/>
				</g>
			</g>
			<g id="&lt;Group&gt;">
				<g id="&lt;Group&gt;">
					<path id="&lt;Path&gt;" class="s2" d="m622.5 592.5h256.3v-196.7h-256.3z"/>
					<path id="&lt;Path&gt;" class="s12" d="m648 438.8c-3.1 16.4 11 30.5 27.4 27.4 9.1-1.7 16.5-9.1 18.3-18.3 3.1-16.4-11-30.5-27.4-27.4-9.2 1.8-16.6 9.2-18.3 18.3z"/>
					<g id="&lt;Group&gt;">
						<path id="&lt;Path&gt;" class="s2" d="m707 550.1h171.8l-85.9-105.8z"/>
						<path id="&lt;Path&gt;" class="s13" d="m707 550.1h171.8l-85.9-105.8z"/>
					</g>
					<g id="&lt;Group&gt;">
						<path id="&lt;Path&gt;" class="s2" d="m622.5 550.2h152.3l-76.2-68.9z"/>
						<path id="&lt;Path&gt;" class="s9" d="m622.5 550.2h152.3l-76.2-68.9z"/>
					</g>
					<g id="&lt;Group&gt;">
						<path id="&lt;Path&gt;" class="s2" d="m878.8 592.5h-256.3v-42.4h256.3z"/>
						<path id="&lt;Path&gt;" class="s9" d="m878.8 592.5h-256.3v-42.4h256.3z"/>
					</g>
				</g>
				<g id="&lt;Group&gt;">
					<path id="&lt;Path&gt;" class="s1" d="m434.3 631.1h-135.6v-11.4h135.6z"/>
					<path id="&lt;Path&gt;" class="s0" d="m874.9 657.6h-576.2v-11.4h576.2z"/>
					<path id="&lt;Path&gt;" class="s0" d="m874.9 682.7h-576.2v-11.4h576.2z"/>
					<path id="&lt;Path&gt;" class="s0" d="m874.9 707.8h-576.2v-11.5h576.2z"/>
					<path id="&lt;Path&gt;" class="s0" d="m874.9 732.8h-576.2v-11.4h576.2z"/>
					<path id="&lt;Path&gt;" class="s0" d="m874.9 757.9h-576.2v-11.4h576.2z"/>
				</g>
				<g id="&lt;Group&gt;">
					<path id="&lt;Path&gt;" class="s1" d="m1049.6 408.9h-135.5v-11.4h135.5z"/>
					<path id="&lt;Path&gt;" class="s0" d="m1202.1 435.4h-288v-11.4h288z"/>
					<path id="&lt;Path&gt;" class="s0" d="m1202.1 460.5h-288v-11.4h288z"/>
					<path id="&lt;Path&gt;" class="s0" d="m1202.1 485.6h-288v-11.4h288z"/>
					<path id="&lt;Path&gt;" class="s0" d="m1202.1 510.7h-288v-11.4h288z"/>
					<path id="&lt;Path&gt;" class="s0" d="m1202.1 557.2h-288v-11.4h288z"/>
					<path id="&lt;Path&gt;" class="s0" d="m1202.1 582.3h-288v-11.4h288z"/>
					<path id="&lt;Path&gt;" class="s0" d="m1202.1 607.4h-288v-11.4h288z"/>
					<path id="&lt;Path&gt;" class="s0" d="m1202.1 632.5h-288v-11.4h288z"/>
					<path id="&lt;Path&gt;" class="s0" d="m1202.1 657.6h-288v-11.4h288z"/>
					<path id="&lt;Path&gt;" class="s0" d="m1202.1 707.8h-288v-11.5h288z"/>
					<path id="&lt;Path&gt;" class="s0" d="m1108.2 732.8h-194.1v-11.4h194.1z"/>
				</g>
				<g id="&lt;Group&gt;">
					<path id="&lt;Path&gt;" class="s1" d="m434.3 426.3h-135.6v-30.5h135.6z"/>
					<path id="&lt;Path&gt;" class="s0" d="m586.4 458.8h-287.7v-11.4h287.7z"/>
					<path id="&lt;Path&gt;" class="s0" d="m586.4 483.9h-287.7v-11.4h287.7z"/>
					<path id="&lt;Path&gt;" class="s0" d="m586.4 509h-287.7v-11.5h287.7z"/>
					<path id="&lt;Path&gt;" class="s0" d="m586.4 534h-287.7v-11.4h287.7z"/>
					<path id="&lt;Path&gt;" class="s0" d="m586.4 567.4h-287.7v-11.4h287.7z"/>
					<path id="&lt;Path&gt;" class="s0" d="m586.4 592.5h-287.7v-11.4h287.7z"/>
				</g>
			</g>
		</g>
	</g>
	<g id="Character">
		<g id="Capa 4">
		</g>
		<g id="&lt;Group&gt;">
			<g id="&lt;Group&gt;">
				<g id="&lt;Group&gt;">
					<path id="&lt;Path&gt;" class="s14" d="m510.7 306.3c-30.1 17.1-84.8 68.8-80.8 83.2 8.1 29 44.4 69 54.1 76.8 5.6 4.6 50.6-31.9 45.3-37.5-6.2-6.6-44.5-42.4-44.6-45.9-0.1-2.7 21.8-31.5 37.9-56 18.8-28.3 2.4-28.7-11.9-20.6z"/>
					<g id="&lt;Group&gt;">
						<path id="&lt;Path&gt;" class="s14" d="m523.3 424.9c0 0 18.6 12 30.3 20.3 6.6 4.7 17.1 13.7 20.4 19.3 4.8 8.5 19.8 46.8 10.6 50.6-8.4 3.5-17-31.1-17-31.1 0 0 11.8 34.1 1 36.5-10.9 2.3-15.4-38.1-15.4-38.1 0 0 11.3 35.3-0.2 36-8.7 0.4-14.9-35.9-14.9-35.9 0 0 9.5 30.4 0.6 31.3-9.9 1-17.7-32.2-17.7-32.2-23.1-1.6-36.9-10.8-41.2-22.6-0.8-2.4 43.5-34.1 43.5-34.1z"/>
						<g id="&lt;Group&gt;">
							<path id="&lt;Path&gt;" class="s7" d="m564.2 472c1.6 3.9 3.1 7.9 4.3 12 1.2 4.1 2.2 8.2 3 12.4 2 10.2 1.6 16.9 1.5 16.5-0.5-9.9-4.4-24.5-5.6-28.6-1.2-4.1-2.2-8.2-3.3-12.3-0.1-0.1 0.1-0.1 0.1 0z"/>
							<path id="&lt;Path&gt;" class="s7" d="m549.4 475.9c1.8 5.2 3.7 10.2 5.2 15.4 1.5 5.2 2.5 10.3 3.6 15.6 0.1 0.4-0.2 0.3-0.3-0.1-1.3-5.3-3-10-4.4-15.2-1.4-5.2-2.6-10.5-4.2-15.6 0-0.1 0.1-0.1 0.1-0.1z"/>
							<path id="&lt;Path&gt;" class="s7" d="m536.1 477.1c3.1 7.7 4.7 16 6.1 24.1 0.1 0.4-0.2 0.3-0.3-0.1-1.9-8.1-3.3-14.4-6.1-23.9 0-0.2 0.2-0.3 0.3-0.1z"/>
						</g>
					</g>
				</g>
				<g id="&lt;Group&gt;">
					<path id="&lt;Path&gt;" class="s10" d="m520.2 418.7l-44.9 46.2c0 0-50.6-59.8-47.5-79 3.1-19.2 52.5-64.5 79.5-79.4 27-15 29.3 0.3 17.3 20.6-12 20.2-38.3 55.9-37.8 56.9 0.5 0.9 33.4 34.7 33.4 34.7z"/>
					<path id="&lt;Path&gt;" class="s7" d="m489.7 432.8c3.2-3.1 6.4-6.1 9.5-9.2 1.5-1.5 3-3 4.5-4.5 1.6-1.6 3.3-3.2 4.7-5 0.1-0.1 0-0.2-0.1-0.1-1.9 1.3-3.5 2.9-5.3 4.4-1.6 1.4-3.1 2.8-4.7 4.2-3.3 3-6.5 5.9-9.7 8.9-6.4 6.1-12.6 12.3-18.8 18.6-0.1 0.2 0.1 0.4 0.2 0.3 6.7-5.8 13.3-11.6 19.7-17.6z"/>
					<path id="&lt;Path&gt;" class="s8" d="m524.6 327.1c-12 20.2-38.3 55.9-37.8 56.8 0.5 1.1 33.3 34.8 33.3 34.8l-44.8 46.2c0 0-23.4-27.7-37.4-51.4l90.5-112.1c5.5 3 3.5 13.4-3.8 25.7z"/>
				</g>
			</g>
			<g id="&lt;Group&gt;">
				<g id="&lt;Group&gt;">
					<g id="&lt;Group&gt;">
						<g id="&lt;Group&gt;">
							<path id="&lt;Path&gt;" class="s14" d="m436.8 756.2c0 0-2.1 83.3-2.1 83.4 0.1 15.3 0.4 28.8 1.2 35.8q0 0.1 0 0.1c0.3 2.7 0.7 4.3 1.2 4.8q0 0 0.1 0.1c4.6 3.1 127.6 6.3 131.9 4.9 4.4-1.3 0.9-13.8-3.8-17.7-4.7-3.9-51.2-26.2-51.2-26.2l1.3-83.2z"/>
							<path id="&lt;Path&gt;" class="s3" d="m434.6 823c0 0 0.1 16.5 0.1 16.6 0.1 15.3 0.4 28.8 1.2 35.8q0 0.1 0 0.1c0.5 2.6 0.9 4.3 1.2 4.8q0 0 0.1 0.1c4.6 3.1 127.6 6.3 131.9 4.9 4.4-1.3 0.9-13.8-3.8-17.7-4.7-3.9-51.2-26.2-51.2-26.2v-16.8z"/>
							<g id="&lt;Group&gt;">
								<g id="&lt;Group&gt;">
									<path id="&lt;Path&gt;" class="s7" d="m521.6 841.4c-8.2-1.3-18.1 0.2-24.3 6.1-0.2 0.2 0.1 0.6 0.4 0.5 8-2.7 15.5-4.5 23.9-5.5 0.6-0.1 0.6-1 0-1.1z"/>
									<path id="&lt;Path&gt;" class="s7" d="m527.6 844.9c-8.2-1.4-18.2 0.1-24.3 6-0.2 0.3 0.1 0.6 0.4 0.5 8-2.7 15.4-4.5 23.9-5.5 0.5-0.1 0.6-0.9 0-1z"/>
									<path id="&lt;Path&gt;" class="s7" d="m533.5 848.3c-8.2-1.4-18.1 0.1-24.2 6-0.3 0.3 0.1 0.6 0.3 0.5 8-2.7 15.5-4.5 23.9-5.5 0.6-0.1 0.6-0.9 0-1z"/>
								</g>
								<path id="&lt;Path&gt;" class="s8" d="m569.1 885.3c-4.3 1.4-127.3-1.8-131.9-4.9-1.8-1.2-2.4-19.1-2.5-40.8q0-0.4 0-0.7l79.4 1.2v1.3c0 0 46.5 22.3 51.2 26.2 4.7 3.9 8.2 16.4 3.8 17.7z"/>
								<path id="&lt;Path&gt;" class="s2" d="m434.7 838.9v0.7c0.1 21.7 0.7 39.6 2.5 40.8 2.1 1.4 28.7 2.8 57.5 3.8 34.5 1.2 72.1 1.9 74.4 1.1 4.4-1.3 0.9-13.8-3.8-17.7-4.7-3.9-51.2-26.2-51.2-26.2v-1.3l-26.4-0.4z"/>
								<path id="&lt;Path&gt;" class="s7" d="m567.8 880.5c-20.7-1-104.4-3.3-124.9-2.8-0.2 0-0.2 0.2 0 0.2 20.5 1.5 104.2 3 124.9 3 0.5 0 0.5-0.4 0-0.4z"/>
								<path id="&lt;Path&gt;" class="s9" d="m487.7 839.7c1.9 13.3 4.9 32.9 7 44.5 34.5 1.2 72.1 1.9 74.4 1.1 4.4-1.3 0.9-13.8-3.8-17.7-4.7-3.9-51.2-26.2-51.2-26.2v-1.3z"/>
							</g>
						</g>
						<g id="&lt;Group&gt;">
							<path id="&lt;Path&gt;" class="s7" d="m427.6 840l89 0.9c0 0 5.1-145 5.4-193.3 0.5-55.2-2.7-220.8-2.7-220.8h-66.5c0 0-17.9 36.5-7.7 77.5l2.9 147.8z"/>
							<g id="&lt;Group&gt;">
								<path id="&lt;Path&gt;" class="s8" d="m434.2 824.4c2.3-0.4 4.7-0.4 7.1-0.5 2.6-0.2 5.2-0.4 7.9-0.5q7.6-0.3 15.2-0.4c10.2 0 20.4 0.1 30.6 0.4q8.7 0.3 17.4 0.7c0.3 0.1 0.3 0.4 0 0.4-10.1 0.4-20.2 0.5-30.4 0.7-10.1 0.2-20.2 0.4-30.4 0.2-2.9 0-5.8 0-8.7-0.2-2.8-0.2-5.8 0-8.7-0.4-0.2-0.1-0.2-0.3 0-0.4z"/>
								<path id="&lt;Path&gt;" class="s8" d="m510.2 744.4c1-23.9 1.8-47.9 2.5-71.9q1.9-72 1-143.9c-0.4-27-1.1-53.9-1.9-80.8 0-0.3 0.5-0.3 0.5 0 2.6 48.2 3.5 96.5 3.6 144.7 0 48-1 96-3.3 143.9-1.4 26.9-3 53.8-5.5 80.6-0.1 0.3-0.4 0.3-0.4 0 1.1-24.2 2.4-48.4 3.5-72.6z"/>
							</g>
						</g>
					</g>
				</g>
				<g id="&lt;Group&gt;">
					<g id="&lt;Group&gt;">
						<g id="&lt;Group&gt;">
							<path id="&lt;Path&gt;" class="s14" d="m532.1 769.5c0 0 0.7 80.4 0.7 80.5 0 15.4 0.3 28.9 1.1 35.9q0 0 0.1 0.1c0.3 2.6 0.6 4.3 1.1 4.7q0 0.1 0.1 0.1c4.6 3.1 127.6 6.3 131.9 5 4.4-1.4 0.9-13.8-3.8-17.7-4.7-4-51.2-26.3-51.2-26.3l-1.5-80.4z"/>
							<path id="&lt;Path&gt;" class="s3" d="m532.6 833.5c0 0 0.2 16.4 0.2 16.5 0 15.4 0.3 28.9 1.1 35.9q0 0 0.1 0.1c0.4 2.6 0.8 4.3 1.1 4.7q0 0.1 0.1 0.1c4.6 3.1 127.6 6.3 131.9 5 4.4-1.4 0.9-13.8-3.8-17.7-4.7-4-51.2-26.3-51.2-26.3l0.1-16.7z"/>
							<g id="&lt;Group&gt;">
								<g id="&lt;Group&gt;">
									<path id="&lt;Path&gt;" class="s7" d="m619.6 851.9c-8.2-1.4-18.1 0.1-24.2 6-0.3 0.3 0.1 0.6 0.3 0.5 8-2.7 15.5-4.5 23.9-5.5 0.6-0.1 0.6-0.9 0-1z"/>
									<path id="&lt;Path&gt;" class="s7" d="m625.6 855.3c-8.2-1.3-18.2 0.1-24.3 6.1-0.2 0.2 0.1 0.5 0.4 0.4 8-2.7 15.5-4.5 23.9-5.5 0.6 0 0.6-0.9 0-1z"/>
									<path id="&lt;Path&gt;" class="s7" d="m631.5 858.7c-8.1-1.3-18.1 0.1-24.2 6.1-0.2 0.2 0.1 0.6 0.3 0.5 8-2.7 15.5-4.5 23.9-5.5 0.6-0.1 0.6-1 0-1.1z"/>
								</g>
								<path id="&lt;Path&gt;" class="s2" d="m667.1 895.8c-4.3 1.3-127.3-1.9-131.9-5-1.8-1.1-2.4-19.1-2.4-40.8q0-0.3 0-0.7l79.3 1.2v1.3c0 0 46.5 22.3 51.2 26.3 4.7 3.9 8.2 16.3 3.8 17.7z"/>
								<path id="&lt;Path&gt;" class="s7" d="m665.9 891c-20.8-1.1-104.4-3.4-125-2.8-0.2 0-0.2 0.1 0 0.1 20.5 1.5 104.2 3.1 125 3 0.4 0 0.4-0.3 0-0.3z"/>
							</g>
						</g>
						<g id="&lt;Group&gt;">
							<path id="&lt;Path&gt;" class="s7" d="m491.4 512c0 0 36.5 115.1 37.2 136.2 0.5 18.1-1.8 203.1-1.8 203.1l92.5 0.6c0 0-7.8-188.8-9.3-207.6-2.7-35.1-33.5-131.6-55.5-217.5h-99.6c0 0 0.8 45 21.3 77.5 0 0 9.3 4.3 15.2 7.7z"/>
							<g id="&lt;Group&gt;">
								<path id="&lt;Path&gt;" class="s8" d="m531.7 834.3c10.7-0.3 21.8-0.6 32.5-0.4 10.6 0.3 21.2 0.5 31.8 1.1 6 0.3 12 0.5 18 1.1 0.2 0.1 0.2 0.3 0 0.4-10.7 0.6-21.4 0.5-32.1 0.4-10.6-0.1-21.2-0.3-31.8-0.7-6-0.3-12-0.6-18-1-0.7-0.1-1-0.9-0.4-0.9z"/>
								<path id="&lt;Path&gt;" class="s8" d="m552 481c3.3 11 6 22.1 9 33.2q4.5 16.8 8.9 33.6c5.7 21.7 11.3 43.4 15.6 65.3 4.3 22.2 6.9 44.5 7.4 67 0.5 22.9 0 45.9-0.2 68.8-0.1 23-0.3 46.1-0.7 69.1q-0.1 4.3-0.2 8.6c-0.1 0.3-0.5 0.3-0.5 0-0.6-22.9-0.3-45.9-0.2-68.8 0.1-22.9 0.4-45.9 0.2-68.8-0.2-22.8-1.9-45.4-5.9-67.9-3.8-22.1-9.3-43.8-14.9-65.5-3.2-12.3-6.5-24.7-9.7-37.1-3.2-12.4-6.7-24.8-9.5-37.3-0.1-0.5 0.5-0.6 0.7-0.2z"/>
								<path id="&lt;Path&gt;" class="s8" d="m514.3 514.2c-4.6-0.1-9.2-0.4-13.8-1.3-4.5-0.8-8.8-2.3-13.3-3.7-4.2-1.2-8.7-1.4-13-2.1-4.4-0.7-8.8-1.8-12.8-3.8-0.2-0.1-0.3 0.2-0.1 0.3 3.9 2 7.9 4 12.2 5.3 4.4 1.4 9 1.6 13.4 2.7 4.6 1.1 9 2.6 13.7 3.1 4.6 0.5 9.2 0.5 13.7-0.2 0.2 0 0.1-0.3 0-0.3z"/>
								<path id="&lt;Path&gt;" class="s8" d="m520.1 605.7c-0.9-3.4-1.7-6.8-2.6-10.2-1.9-6.9-3.8-13.7-5.9-20.5-4.1-13.6-8-27.2-12.4-40.7-2.4-7.6-4.7-15.3-7.6-22.8 0-0.2-0.3-0.1-0.3 0.1 1.5 6.9 3.6 13.8 5.4 20.7 1.9 6.8 3.9 13.7 5.8 20.5 4 13.6 7.8 27.2 12.1 40.7q1.8 5.7 3.8 11.3c1.3 3.9 2.4 7.8 4 11.6 0.1 0.2 0.3 0.1 0.3-0.1-0.6-3.6-1.7-7.1-2.6-10.6z"/>
							</g>
						</g>
					</g>
				</g>
			</g>
			<g id="&lt;Group&gt;">
				<g id="&lt;Group&gt;">
					<g id="&lt;Group&gt;">
						<g id="&lt;Group&gt;">
							<path id="&lt;Path&gt;" class="s14" d="m548.9 325.5c-6.8 0.7-17.9-11.8-21.2-20.4-0.2-0.6 1.5-6.3 3.1-13.4 1-4.2 2-9 2.6-13.4l26.8 10.5c0 0-4 8.9-5 16.6q-0.1 1 0 1.9 0 0.1 0 0.3c0.1 3.5 0.1 17.3-6.3 17.9z"/>
						</g>
						<path id="&lt;Path&gt;" class="s7" d="m555.2 307.3q0 0.1 0 0.3-1.4 0-2.9-0.3c-16.2-2.9-18-21.7-18.1-28.7l26.1 10.2c0 0-4 8.9-5.1 16.6q-0.1 1 0 1.9z"/>
					</g>
					<g id="&lt;Group&gt;">
						<g id="&lt;Group&gt;">
							<path id="&lt;Path&gt;" class="s14" d="m524 250.5c-1.4 10.3 8.5 37.7 16.5 42.9 11.6 7.4 28.3 5.6 34-7.8 5.6-13-7.9-48.6-16.6-53-12.8-6.6-31.9 2.7-33.9 17.9z"/>
						</g>
						<g id="&lt;Group&gt;">
							<g id="&lt;Group&gt;">
								<path id="&lt;Path&gt;" class="s7" d="m555.5 262.8c-0.1 0-0.1 0.2-0.1 0.2 0.7 1.9 1.2 4.1-0.3 5.3-0.1 0 0 0.1 0 0.1 2-1 1.3-3.9 0.4-5.6z"/>
								<path id="&lt;Path&gt;" class="s7" d="m553.2 261.4c-3.1 0.8-1.3 6.9 1.5 6.2 2.8-0.7 1-6.8-1.5-6.2z"/>
							</g>
							<g id="&lt;Group&gt;">
								<path id="&lt;Path&gt;" class="s7" d="m566 259.7c0-0.1 0.2 0 0.2 0.1 0.5 1.9 1.4 4 3.3 4.1 0.1 0 0.1 0.1 0 0.1-2.1 0.3-3.3-2.4-3.5-4.3z"/>
								<path id="&lt;Path&gt;" class="s7" d="m567.1 257.2c3-1.1 5 4.9 2.3 5.9-2.7 1.1-4.7-4.9-2.3-5.9z"/>
							</g>
							<path id="&lt;Path&gt;" class="s7" d="m549.9 259.4c0.8-0.5 1.4-1 2.1-1.5 0.9-0.6 1.6-1 1.9-2 0.2-0.5-0.2-1.3-0.7-1.5-1.1-0.5-2.3-0.1-3.3 0.6-1.1 0.7-1.7 1.6-2.1 2.8-0.3 1.2 1.1 2.2 2.1 1.6z"/>
							<path id="&lt;Path&gt;" class="s7" d="m568.6 253.5c-0.9 0.1-1.7 0-2.6 0-1 0.1-1.8 0.2-2.7-0.4-0.5-0.3-0.6-1.1-0.4-1.6 0.6-1.1 1.8-1.4 3-1.5 1.3-0.1 2.4 0.2 3.4 0.9 1 0.8 0.5 2.4-0.7 2.6z"/>
							<path id="&lt;Path&gt;" class="s7" d="m558.5 280.5c0.6 0.3 1.3 0.8 2 0.7 0.6-0.2 1.3-0.7 1.8-1.1 0.1-0.1 0.2 0 0.1 0.1-0.2 0.8-1.1 1.6-2 1.7-0.9 0.1-1.6-0.5-2-1.2-0.1-0.1 0.1-0.2 0.1-0.2z"/>
							<g id="&lt;Group&gt;">
								<g id="&lt;Group&gt;">
									<path id="&lt;Path&gt;" class="s7" d="m558.9 274.3c1.5 1.3 3.3 1.8 5.1 1.6 0.8-0.1 1.6-0.3 2.3-0.6q0.2-0.1 0.4-0.2 0.2 0 0.4-0.2c0.2 0 0.3-0.3 0.3-0.5q0-0.1-0.1-0.2 0 0 0 0v-0.2c-0.4-1.4-1.2-3.6-1.2-3.6 0.6 0.1 3.6 0.5 3.4-0.2-2.3-6.2-4.7-13-8.2-18.7-0.2-0.2-0.5 0-0.4 0.2 1.9 6 4.9 11.6 6.9 17.6-1-0.1-2.6-0.3-3.3 0-0.2 0.1 1.6 4.1 1.7 4.8q0 0 0 0.1c-2.3 1-4.4 0.8-7.2-0.1-0.2-0.1-0.3 0.1-0.1 0.2z"/>
								</g>
							</g>
							<g id="&lt;Group&gt;">
								<path id="&lt;Path&gt;" class="s7" d="m565.2 274.8c0 0-0.7 2.1-2.3 3.3-0.6 0.4-1.3 0.7-2 0.7-1.7 0.1-2.1-1.3-2.2-2.5 0-1.1 0.2-2.1 0.2-2.1 0 0 2.8 1.5 6.3 0.6z"/>
								<path id="&lt;Path&gt;" class="s15" d="m562.9 278.1c-0.6 0.4-1.3 0.7-2 0.7-1.7 0.1-2.1-1.3-2.2-2.5 1.7-0.4 3.6 0.3 4.2 1.8z"/>
							</g>
						</g>
						<g id="&lt;Group&gt;">
							<path id="&lt;Path&gt;" class="s7" d="m531.8 275c4.7-2.2 0.8-14.6 0.8-14.6 0 0 5.4-4.3 3.7-16.2 0 0 7.7 9.8 27.2 0.8 0 0-0.4-5.2-4.9-10.1 0 0 3.7 3.1 8.6 9.2 0 0-0.6-18.4-16.9-19.7-6.5-0.5-15 2.8-26.2 13.6 0 0-5.1-7.1-6.2-5.5-1.2 1.5 4.1 7.9 4.1 7.9 0 0-6.4 0.1-7 1.7-0.5 1.3 5.6 0.9 5.6 0.9 0 0-8 5.7-3.2 15.5 4.4 9 12.1 17.6 14.4 16.5z"/>
							<path id="&lt;Path&gt;" class="s7" d="m522.2 242.4c-5.4 1.5-8.8 6.8-7.9 12.3 0.5 3.1 2.2 6 4.1 8.4 1.9 2.7 4.4 4.8 6.9 6.9 0.2 0.1 0.3-0.1 0.2-0.3-2.4-1.8-4.3-4.2-6-6.6-1.6-2.4-3.1-5-3.9-7.7-1.5-5.4 1.5-10.8 6.7-12.7 0.1-0.1 0-0.4-0.1-0.3z"/>
							<path id="&lt;Path&gt;" class="s7" d="m537.8 225.4c-3.2 1.8-6.1 4.2-8.7 6.8-2.5 2.5-4.9 5.2-6.4 8.4-0.1 0.2 0.1 0.3 0.2 0.2 3.9-5.5 9.3-10 14.8-13.7 5.2-3.5 12-5.7 17.9-2.4 0 0 0.1-0.1 0-0.2-5.4-3.6-12.4-2.2-17.8 0.9z"/>
						</g>
						<g id="&lt;Group&gt;">
							<path id="&lt;Path&gt;" class="s14" d="m533.9 272.5c0 0-8.1-7.9-11.8-4.8-3.7 3 3.5 15.3 8.7 16.2 5.2 0.9 6.1-3.9 6.1-3.9z"/>
							<path id="&lt;Path&gt;" class="s7" d="m524.2 271.1c0 0 0 0.2 0 0.2 3.7 0.7 6.1 3.5 7.9 6.6-1.2-1.1-2.7-1.5-4.2 0-0.1 0.1 0.1 0.2 0.1 0.2 1.4-0.6 2.4-0.5 3.6 0.4 0.8 0.7 1.4 1.6 2.1 2.4 0.2 0.3 0.7 0 0.5-0.3q0-0.1 0-0.1c-0.7-4.4-5.2-9.8-10-9.4z"/>
						</g>
					</g>
				</g>
				<path id="&lt;Path&gt;" class="s0" d="m525.2 302l1.4-10.9 30 17.3 0.9 10.6z"/>
				<g id="&lt;Group&gt;">
					<g id="&lt;Group&gt;">
						<path id="&lt;Path&gt;" class="s10" d="m438.8 447.3c0.2 0.4 128.4 23.9 129.8 22.8 1.9-1.5 6.4-127.2-13.4-155.8-4.8-7-23.7-16.9-30.6-13.7-18.1 8.5-31.1 30.8-39.3 43.7-6.1 9.6-14.4 26.3-22.3 43.5-13 28.4-25 58.1-24.2 59.5z"/>
					</g>
				</g>
				<g id="&lt;Group&gt;">
					<g id="&lt;Group&gt;">
						<path id="&lt;Path&gt;" class="s14" d="m548.4 340.3c29.5 16.4 85.9 44.5 108 35.1 23.4-10 40.5-49.9 49.4-64 3.8-6-44.4-24.8-49.9-19.6-5.3 5.2-16.3 31.8-21.1 34.9-4.7 3.1-50.4-8.6-79.7-12.1-34.4-4.1-30.6 12.3-6.7 25.7z"/>
						<g id="&lt;Group&gt;">
							<path id="&lt;Path&gt;" class="s14" d="m699.9 222c5.4 3.2-7.9 23.6-7.9 23.6 0 0 3.8-2 7.8-0.8 4.5 1.3 4.4 9 4.4 9 0 0 4.2-1.2 8.3 0.5 4.2 1.7 5.1 9.4 5.1 9.4 0 0 4.6 1.1 7.1 5 4.2 6.8-1.1 17.7-4.4 24.6-3.3 7-19.2 23.7-22 27.1l-44.9-20.8c0 0 6-35.5 11-43.1 4.3-6.4 27.4-39.3 35.5-34.5z"/>
							<g id="&lt;Group&gt;">
								<path id="&lt;Path&gt;" class="s7" d="m691.8 245.6c-6.1 5.8-10.9 13-15.5 20-0.1 0.2 0.2 0.3 0.3 0.2 4.4-7.1 10.8-13.1 15.5-19.9 0.2-0.2-0.1-0.4-0.3-0.3z"/>
								<path id="&lt;Path&gt;" class="s7" d="m703.5 253.7c-1.3 1.3-2.3 3.1-3.2 4.7q-1.5 2.7-3 5.4-2.9 5.4-5.5 10.9c0 0.2 0.2 0.4 0.3 0.2q2.9-5.4 6-10.7 1.5-2.6 3.1-5.2c1-1.6 2.2-3.2 2.8-5 0.1-0.3-0.3-0.5-0.5-0.3z"/>
								<path id="&lt;Path&gt;" class="s7" d="m717.5 263.9c-1.2 1.1-1.9 3-2.6 4.4q-1.3 2.5-2.6 5c-1.7 3.3-3.4 6.6-5.2 9.8-0.1 0.2 0.1 0.3 0.2 0.2 1.9-3.3 3.8-6.6 5.7-9.8q1.3-2.5 2.7-4.9c0.7-1.4 1.8-3 2-4.6 0-0.1-0.1-0.2-0.2-0.1z"/>
							</g>
						</g>
					</g>
					<g id="&lt;Group&gt;">
						<path id="&lt;Path&gt;" class="s10" d="m648.3 300.8l54.1 30.2c0 0-27 45.6-52.9 48.9-26 3.4-84.2-25.7-106.4-41.3-22.3-15.5-17.1-28.7 10.3-25.2 27.5 3.5 77.3 12 79 11.8 1.7-0.1 15.9-24.4 15.9-24.4z"/>
						<g id="&lt;Group&gt;">
							<path id="&lt;Path&gt;" class="s7" d="m667.4 326c-3.8-2.3-7.6-4.4-11.4-6.6-1.9-1-3.7-2.1-5.6-3.1-2-1-4-2.3-6.1-3.2-0.1-0.1-0.2 0.1-0.1 0.2 1.8 1.4 3.8 2.6 5.7 3.8 1.8 1.2 3.6 2.3 5.4 3.4 3.7 2.3 7.5 4.7 11.2 6.9 7.6 4.5 15.3 8.7 23.1 12.9 0.2 0.1 0.3-0.2 0.2-0.3-7.4-4.8-14.8-9.5-22.4-14z"/>
						</g>
						<path id="&lt;Path&gt;" class="s7" d="m589.5 363.8c-3.6-1.5-7.1-3.6-10.5-5.5q-5.1-2.8-10.3-5.6c-6.8-3.8-13.7-7.6-20.6-11.3 0-0.1-0.1 0 0 0.1 3.8 2.7 7.7 5.3 11.7 7.8q-0.4-0.2-0.9-0.4c-1.9-0.7-3.8-1.3-5.7-2-0.1 0-0.2 0.2-0.1 0.2 1.9 0.9 3.8 1.7 5.7 2.5 1.2 0.4 2.5 0.8 3.7 1.3q2.6 1.5 5.3 3 5.3 2.9 10.7 5.4c3.5 1.6 7.3 3 10.8 4.8 0.2 0.1 0.4-0.2 0.2-0.3z"/>
					</g>
				</g>
			</g>
		</g>
	</g>
	<g id="Speech Bubble">
		<g id="&lt;Group&gt;">
			<g id="&lt;Group&gt;">
				<path id="&lt;Path&gt;" class="s3" d="m655.2 183.4c-2 18.6-18.7 32.2-37.3 30.2-7.5-0.8-14.2-4-19.4-8.7l-17 2.5 8.5-14.7c-2-5-2.9-10.6-2.3-16.3 1.9-18.7 18.6-32.2 37.3-30.2 18.6 1.9 32.1 18.6 30.2 37.2z"/>
				<path id="&lt;Compound Path&gt;" fill-rule="evenodd" class="s7" d="m655.2 183.4c-0.7 6.2-3 12.3-6.9 17.2-0.9 1.3-2 2.4-3.1 3.5-1.1 1.1-2.2 2.2-3.5 3.1-2.5 1.9-5.3 3.4-8.2 4.5-2.9 1.3-6 1.8-9.1 2.2-1.6 0.1-3.2 0.2-4.8 0.1q-2.3-0.1-4.7-0.5c-6.1-1.1-11.9-3.9-16.6-8.1l-16.7 2.6-1.2 0.1 0.6-1 8.3-14.5c-4-9.6-3-21 2.2-29.9 2.6-4.5 6.3-8.4 10.6-11.3 4.3-2.9 9.4-4.7 14.5-5.4 5.1-0.7 10.4-0.2 15.3 1.4 4.9 1.6 9.4 4.4 13.1 8 7.5 7.1 11.3 17.8 10.2 28zm-56.9 22h0.3l-0.4-0.2q0.1 0.1 0.1 0.2zm-9-12.8q0 0.2 0.1 0.3l0.1-0.5zm65.8-9.3c1.1-10.2-2.8-20.8-10.3-27.8-3.7-3.5-8.2-6.2-13.1-7.7-4.8-1.6-10-1.9-15-1.2-5 0.8-9.9 2.7-14 5.6-4.2 2.9-7.7 6.7-10.2 11-2.6 4.4-3.9 9.4-4.3 14.4-0.3 5 0.5 10.1 2.4 14.8l0.1 0.3-0.1 0.2-8 13.6 15.8-2.2h0.2l0.2 0.1c4.5 4.2 10.2 7.2 16.2 8.4q2.3 0.5 4.6 0.5c1.6 0.2 3.1 0.1 4.7 0 3-0.3 6.1-0.8 9-2 2.9-1 5.7-2.5 8.2-4.4 1.3-0.8 2.4-1.9 3.6-3 1-1.1 2.2-2.2 3.1-3.5 3.9-4.8 6.2-10.9 6.9-17.1zm-72.5 23.2l-1.2 0.2 0.6 0.9z"/>
			</g>
			<g id="&lt;Group&gt;">
				<path id="&lt;Path&gt;" class="s7" d="m608.3 181.2c0 2.1-1.6 3.7-3.7 3.7-2 0-3.7-1.6-3.7-3.7 0-2 1.7-3.6 3.7-3.6 2.1 0 3.7 1.6 3.7 3.6z"/>
				<path id="&lt;Path&gt;" class="s7" d="m625.5 181.2c0 2.1-1.6 3.7-3.7 3.7-2 0-3.6-1.6-3.6-3.7 0-2 1.6-3.6 3.6-3.6 2.1 0 3.7 1.6 3.7 3.6z"/>
				<path id="&lt;Path&gt;" class="s7" d="m642.7 181.2c0 2.1-1.6 3.7-3.6 3.7-2.1 0-3.7-1.6-3.7-3.7 0-2 1.6-3.6 3.7-3.6 2 0 3.6 1.6 3.6 3.6z"/>
			</g>
		</g>
	</g>
</svg>