<svg version="1.2" xmlns="http://www.w3.org/2000/svg" viewBox="0 0 1500 1000" width="1500" height="1000">
	<title>4944388-ai</title>
	<style>
		.s0 { fill: #BC68BA } 
		.s1 { opacity: .7;fill: #ffffff } 
		.s2 { opacity: .2;fill: #000000 } 
		.s3 { opacity: .1;fill: #000000 } 
		.s4 { fill: #263238 } 
		.s5 { fill: #ffffff;stroke: #263238;stroke-linecap: round;stroke-linejoin: round;stroke-width: 2 } 
		.s6 { fill: #BC68BA;stroke: #263238;stroke-linecap: round;stroke-linejoin: round;stroke-width: 2 } 
		.s7 { fill: #ffffff } 
		.s8 { fill: #919191;stroke: #263238;stroke-linecap: round;stroke-linejoin: round;stroke-width: 2 } 
		.s9 { fill: #c4c4c4;stroke: #263238;stroke-linecap: round;stroke-linejoin: round;stroke-width: 2 } 
		.s10 { fill: #263238;stroke: #263238;stroke-linecap: round;stroke-linejoin: round;stroke-width: 2 } 
		.s11 { fill: none;stroke: #263238;stroke-miterlimit:10;stroke-width: 2 } 
		.s12 { fill: #ffffff;stroke: #263238;stroke-miterlimit:10;stroke-width: 2 } 
		.s13 { fill: none;stroke: #263238;stroke-linecap: round;stroke-linejoin: round;stroke-width: 2 } 
		.s14 { fill: #9e9e9e;stroke: #263238;stroke-linecap: round;stroke-linejoin: round;stroke-width: 2 } 
		.s15 { fill: none;stroke: #263238;stroke-linecap: round;stroke-linejoin: round } 
	</style>
	<g id="Background Simple">
		<g id="&lt;Group&gt;">
			<path id="&lt;Path&gt;" class="s0" d="m1392 543.4c0 0 20-356-282-454-302-98-454-26-550 66-96 92-128 152-238 164-110 12-212 32-264 166-52 134 14 240 114 306 100 66 216-4 308 38 92 42 150 112 338 120 188 8 194-46 290-130 96-84 266 4 284-276z"/>
			<path id="&lt;Path&gt;" class="s1" d="m1392 543.4c0 0 20-356-282-454-302-98-454-26-550 66-96 92-128 152-238 164-110 12-212 32-264 166-52 134 14 240 114 306 100 66 216-4 308 38 92 42 150 112 338 120 188 8 194-46 290-130 96-84 266 4 284-276z"/>
		</g>
	</g>
	<g id="Wall">
		<g id="&lt;Group&gt;">
			<g id="&lt;Group&gt;">
				<g id="&lt;Group&gt;">
					<path id="&lt;Path&gt;" class="s2" d="m376.8 486.1h100.7v-40.7h-100.7z"/>
				</g>
				<g id="&lt;Group&gt;">
					<path id="&lt;Path&gt;" class="s2" d="m724.8 374.1h100.7v-40.7h-100.7z"/>
					<path id="&lt;Path&gt;" class="s2" d="m1036.8 374.1h100.7v-40.7h-100.7z"/>
					<path id="&lt;Path&gt;" class="s2" d="m1216.8 450.1h100.7v-40.7h-100.7z"/>
					<path id="&lt;Path&gt;" class="s3" d="m669.6 430.4h100.7v-40.7h-100.7z"/>
				</g>
				<g id="&lt;Group&gt;">
					<path id="&lt;Path&gt;" class="s2" d="m494.9 374.1h100.7v-40.7h-100.7z"/>
					<path id="&lt;Path&gt;" class="s3" d="m439.8 430.4h100.7v-40.7h-100.7z"/>
					<path id="&lt;Path&gt;" class="s3" d="m554.9 430.4h100.7v-40.7h-100.7z"/>
				</g>
				<g id="&lt;Group&gt;">
					<path id="&lt;Path&gt;" class="s2" d="m259.6 523.7h100.7v-40.7h-100.7z"/>
					<path id="&lt;Path&gt;" class="s3" d="m209.9 430.4h100.7v-40.7h-100.7z"/>
					<path id="&lt;Path&gt;" class="s3" d="m325 430.4h100.7v-40.7h-100.7z"/>
				</g>
			</g>
			<g id="&lt;Group&gt;">
				<g id="&lt;Group&gt;">
					<path id="&lt;Path&gt;" class="s2" d="m724.8 144.1h100.7v-40.7h-100.7z"/>
					<path id="&lt;Path&gt;" class="s3" d="m669.6 200.4h100.7v-40.7h-100.7z"/>
				</g>
				<g id="&lt;Group&gt;">
					<path id="&lt;Path&gt;" class="s2" d="m1230.8 144.1h100.7v-40.7h-100.7z"/>
					<path id="&lt;Path&gt;" class="s3" d="m1175.6 200.4h100.7v-40.7h-100.7z"/>
				</g>
				<g id="&lt;Group&gt;">
					<path id="&lt;Path&gt;" class="s2" d="m522.9 144.1h100.7v-40.7h-100.7z"/>
				</g>
				<g id="&lt;Group&gt;">
					<path id="&lt;Path&gt;" class="s3" d="m554.9 313.7h100.7v-40.7h-100.7z"/>
				</g>
			</g>
			<g id="&lt;Group&gt;">
				<g id="&lt;Group&gt;">
					<path id="&lt;Path&gt;" class="s2" d="m841.6 582.1h100.7v-40.7h-100.7z"/>
					<path id="&lt;Path&gt;" class="s2" d="m841.6 692.1h100.7v-40.7h-100.7z"/>
					<path id="&lt;Path&gt;" class="s2" d="m376.8 694.1h100.7v-40.7h-100.7z"/>
					<path id="&lt;Path&gt;" class="s3" d="m1014.5 638.4h100.7v-40.7h-100.7z"/>
					<path id="&lt;Path&gt;" class="s3" d="m959.6 691.7h100.7v-40.7h-100.7z"/>
					<path id="&lt;Path&gt;" class="s3" d="m1305.7 638.4h100.6v-40.7h-100.6z"/>
					<path id="&lt;Path&gt;" class="s3" d="m1250.7 691.7h100.7v-40.7h-100.7z"/>
				</g>
				<g id="&lt;Group&gt;">
					<path id="&lt;Path&gt;" class="s2" d="m724.8 582.1h100.7v-40.7h-100.7z"/>
					<path id="&lt;Path&gt;" class="s3" d="m784.7 638.4h100.7v-40.7h-100.7z"/>
					<path id="&lt;Path&gt;" class="s3" d="m736.7 754.4h100.7v-40.7h-100.7z"/>
					<path id="&lt;Path&gt;" class="s3" d="m880.7 808.4h100.7v-40.7h-100.7z"/>
					<path id="&lt;Path&gt;" class="s3" d="m500.7 808.4h100.7v-40.7h-100.7z"/>
					<path id="&lt;Path&gt;" class="s3" d="m213.6 808.4h100.7v-40.7h-100.7z"/>
					<path id="&lt;Path&gt;" class="s3" d="m579.6 500.4h100.7v-40.7h-100.7z"/>
					<path id="&lt;Path&gt;" class="s3" d="m694.7 500.4h100.7v-40.7h-100.7z"/>
					<path id="&lt;Path&gt;" class="s3" d="m1014.7 500.4h100.7v-40.7h-100.7z"/>
				</g>
				<g id="&lt;Group&gt;">
					<path id="&lt;Path&gt;" class="s2" d="m494.9 582.1h100.7v-40.7h-100.7z"/>
					<path id="&lt;Path&gt;" class="s3" d="m605.8 698.4h100.7v-40.7h-100.7z"/>
				</g>
				<g id="&lt;Group&gt;">
					<path id="&lt;Path&gt;" class="s2" d="m265.1 582.1h100.7v-40.7h-100.7z"/>
					<path id="&lt;Path&gt;" class="s2" d="m259.6 731.7h100.7v-40.7h-100.7z"/>
					<path id="&lt;Path&gt;" class="s3" d="m209.9 638.4h100.7v-40.7h-100.7z"/>
					<path id="&lt;Path&gt;" class="s3" d="m325 638.4h100.7v-40.7h-100.7z"/>
				</g>
			</g>
		</g>
	</g>
	<g id="Plants">
		<g id="&lt;Group&gt;">
			<g id="&lt;Group&gt;">
				<path id="&lt;Path&gt;" class="s4" d="m139.5 571.1c7.5 3.2 25.7 2.8 25.7 2.8 0.2 0-3.9-11.9-4.2-12.6-4-8.4-16.7-22.2-27-20.8-7.4 1-11.5 8.4-9.8 15.4 1.7 7.1 9 12.4 15.3 15.2z"/>
				<path id="&lt;Path&gt;" class="s4" d="m145.8 623.8c7.8 1.2 24-3.6 25.3-3.9 2.6 9.1 5.9 18.2 9.9 27.2 2.2 5.2 4.6 10.4 7.1 15.5-1.5-2.2-2.8-4.1-3.1-4.4-6-7-21.9-16.9-31.4-12.9-6.9 2.9-8.9 11.2-5.4 17.4 3.5 6.5 11.9 9.6 18.8 10.6 6.9 1.1 20.9-2.7 24.5-3.7q1.5 2.9 2.9 5.8c4.8 9.4 9.5 18.7 13.9 28 1.5 3.3 2.9 6.6 4.3 9.9-1.3-1.9-2.4-3.6-2.6-3.8-6.1-7-21.9-17-31.5-12.9-6.9 2.9-8.9 11.1-5.4 17.4 3.5 6.4 11.9 9.6 18.8 10.6 6.6 1 19.5-2.4 23.9-3.6 1.3 3.4 2.7 6.8 3.8 10.2 0.8 2.3 1.6 4.5 2.2 6.8q1 3.5 2 6.9c1 4.5 2.1 9 3.1 13.4 0.6 3 1.2 5.9 1.8 8.8-1.5-3.3-4.5-9.6-4.9-10.1-4.9-7.9-19-20.1-29.1-17.6-7.2 1.9-10.5 9.7-8 16.5 2.5 6.8 10.4 11.3 17 13.3 7.3 2.2 23.4 0.2 25.4-0.1 1 4.8 1.9 9.5 2.7 14 1.7 9.8 3 18.6 4 26h6.8c-1.2-7.7-2.7-16.9-4.8-27.2-0.9-4.9-2.1-10.1-3.3-15.4 1.2-0.5 8.1-3.3 14.2-6.7 5.3 5.8 18.9 12.5 20.7 13.3-1.9 4.6-3.7 9-5.5 13.1-3.8 8.7-7.4 16.4-10.5 22.9h7.3c2.8-6 5.7-12.9 8.8-20.5 1.9-4.6 3.9-9.6 5.8-14.7 2 0.4 17.9 3.7 25.4 2 6.7-1.5 14.9-5.3 17.9-12 3-6.6 0.3-14.6-6.7-17-9.9-3.3-24.9 7.9-30.4 15.3-0.3 0.5-3.3 5.6-5.1 8.9 0.7-2.1 1.5-4.1 2.3-6.3 1.6-4.2 3-8.6 4.6-13.2q1-3.4 2-6.9c0.8-2.2 1.3-4.7 1.9-7.2 1.3-5.6 2.4-11.3 3.4-17.1 3.7 1.3 17.1 6 24 5.5 6.9-0.5 15.6-3 19.6-9.2 3.9-6 2.5-14.3-4.1-17.8-9.3-4.7-25.8 4-32.3 10.6-0.5 0.4-4.6 5.6-6.9 8.5 0.6-3.5 1.1-7 1.6-10.6 1.2-10.2 2.2-20.7 3.2-31.1q0.5-4.8 1-9.6c1.4 0.5 17.1 6.4 24.9 5.9 6.9-0.5 15.6-3.1 19.6-9.2 3.9-6 2.5-14.4-4.2-17.8-9.2-4.7-25.7 4-32.3 10.6-0.5 0.4-6.5 8-7.9 10 0.7-7.1 1.5-14 2.6-20.9 1.5-9.4 3.4-18.6 6-27.4 0.6 0.3 17.1 6.5 25 5.9 6.9-0.5 15.6-3 19.6-9.2 3.9-6 2.5-14.3-4.2-17.8-9.2-4.7-25.7 4.1-32.3 10.6-0.5 0.5-7 8.6-8 10.2 0.1-0.6 0.2-1.1 0.4-1.6 2.8-9.4 6.8-18 10.8-26 2.4-4.6 4.9-8.9 7.5-13 2.9 1.5 16.4 8.1 23.7 8.4 6.9 0.2 15.8-1.3 20.4-7 4.6-5.5 4.1-14-2.1-18.1-8.7-5.8-26.1 1.1-33.3 6.9-0.4 0.3-4.1 3.9-6.7 6.6 1.2-1.8 2.4-3.7 3.5-5.5 4.4-6.5 8.7-12.2 12.7-17.3 2.2-2.8 4.3-5.3 6.3-7.7 3.6 0 18.3-0.5 24.7-3.5 6.3-2.9 13.4-8.4 15-15.6 1.4-7-2.9-14.3-10.3-15.1-10.3-1.1-22.6 13-26.3 21.5-0.4 0.7-4.2 12.7-4 12.7 0 0 0.2 0 0.3 0-2 2.3-4.1 4.7-6.3 7.3-4 5-8.5 10.6-13 17.1-4.5 6.4-9.2 13.6-13.5 21.5-4.4 8-8.5 16.6-11.6 26q0 0.2-0.1 0.4c0.1-3.1-0.1-11.6-0.2-12.2-1.2-9.2-8.9-26.3-19.1-28.1-7.3-1.4-13.5 4.4-14.1 11.5-0.6 7.3 4.7 14.6 9.8 19.2 5.9 5.2 22 10.3 23.3 10.7-2.9 9-5.1 18.4-6.8 28.1-1 5.6-1.8 11.2-2.6 16.9 0-2.7-0.1-5-0.1-5.4-1.2-9.1-8.9-26.2-19.1-28.1-7.4-1.3-13.6 4.4-14.2 11.6-0.6 7.3 4.7 14.6 9.9 19.2 5.2 4.7 18.9 9.2 22.5 10.4q-0.4 3.2-0.8 6.5c-1.2 10.4-2.4 20.8-3.9 31-0.5 3.5-1.2 7-1.8 10.6 0-2.4-0.1-4.3-0.1-4.6-1.2-9.2-8.9-26.3-19.1-28.2-7.4-1.3-13.6 4.4-14.2 11.6-0.6 7.3 4.7 14.6 9.9 19.2 5 4.5 17.6 8.8 21.9 10.2-0.8 3.6-1.5 7.2-2.4 10.6-0.7 2.3-1.2 4.6-2 6.9q-1.1 3.4-2.2 6.8c-1.5 4.3-3.1 8.7-4.7 12.9-1.1 2.9-2.3 5.6-3.4 8.4 0.6-3.6 1.6-10.6 1.6-11.2 0.1-6.1-2.1-16.1-6.4-23.2q0-1.3-0.2-2.7c-1.1-7.1-7.8-12.3-15-10.4-10 2.7-16.4 20.3-16.9 29.5 0 0.6 0.4 6.5 0.6 10.3-0.5-2.2-0.9-4.3-1.5-6.6-1-4.4-2.2-8.8-3.5-13.5q-1-3.4-2-6.9c-0.7-2.3-1.6-4.7-2.5-7-1.9-5.4-4.2-10.8-6.6-16.2 3.9-0.9 17.6-4.4 23.1-8.7 5.5-4.2 11.3-11.1 11.3-18.4-0.1-7.2-5.9-13.4-13.3-12.6-10.3 1.1-19.3 17.6-21.1 26.6-0.1 0.6-0.8 7.3-1 10.9-1.5-3.2-3-6.4-4.5-9.6-4.7-9.3-9.6-18.6-14.5-27.8q-2.3-4.3-4.5-8.5c1.4-0.4 17.8-4.2 24-8.9 5.5-4.2 11.3-11.1 11.3-18.4-0.1-7.2-5.9-13.4-13.3-12.6-10.3 1.1-19.2 17.6-21.1 26.6-0.2 0.7-1 10.3-1.1 12.7-3.3-6.2-6.5-12.5-9.3-18.8-4-8.7-7.5-17.4-10.2-26.1 0.7-0.2 17.8-4.1 24.2-8.9 5.4-4.2 11.3-11.1 11.2-18.4 0-7.2-5.8-13.4-13.2-12.6-10.4 1.1-19.3 17.5-21.2 26.6-0.1 0.7-1.1 11-1.1 12.9-0.2-0.5-0.4-1-0.5-1.5-2.8-9.4-4.3-18.8-5.3-27.7-0.6-5.1-0.8-10.1-1-14.9 3.3-0.4 18.2-2.4 24.4-6.1 5.9-3.6 12.5-9.8 13.2-17.1 0.7-7.1-4.3-13.9-11.8-13.9-10.4-0.1-21.1 15.3-23.9 24.1-0.2 0.5-1.2 5.5-1.9 9.2-0.1-2.2-0.1-4.4-0.1-6.5 0-7.9 0.5-15 1-21.4 0.3-3.6 0.6-6.9 1-9.9 3-2.1 15-10.6 18.7-16.6 3.6-5.9 6.5-14.4 3.8-21.3-2.6-6.6-10.2-10.3-16.9-6.9-9.2 4.8-11.6 23.3-10.1 32.5 0.2 0.7 3.6 12.9 3.8 12.8 0 0 0.1-0.2 0.2-0.2-0.4 3-0.8 6.1-1.2 9.5-0.6 6.4-1.3 13.6-1.5 21.5-0.2 7.8-0.2 16.4 0.6 25.4 0.8 9 2.1 18.5 4.8 28.1q0 0.1 0.1 0.3c-1.7-2.6-6.5-9.6-6.9-10.1-6.1-7-21.9-17-31.5-12.9-6.8 2.9-8.8 11.2-5.4 17.4 3.5 6.5 12 9.6 18.8 10.6z"/>
				<path id="&lt;Path&gt;" class="s4" d="m323.7 575.1c0.2 0.1 3.4-12.1 3.5-12.9 1.2-9.2-1.7-27.7-11-32.2-6.8-3.2-14.3 0.7-16.7 7.4-2.5 6.9 0.6 15.3 4.4 21.2 4.4 6.8 19.8 16.5 19.8 16.5z"/>
			</g>
			<path id="&lt;Path&gt;" class="s5" d="m300.2 907.6h-99.6l-12.4-110.6h124.4z"/>
			<g id="&lt;Group&gt;">
				<path id="&lt;Path&gt;" class="s4" d="m190.5 817.3l1.2 10.7h117.4l1.2-10.7z"/>
				<path id="&lt;Path&gt;" class="s4" d="m306.5 851.5l1.2-10.7h-114.6l1.2 10.7z"/>
			</g>
		</g>
	</g>
	<g id="Books">
		<g id="&lt;Group&gt;">
			<g id="&lt;Group&gt;">
				<path id="&lt;Path&gt;" class="s6" d="m1189.8 907.6h-33.8v-222.3h33.8z"/>
				<g id="&lt;Group&gt;">
					<path id="&lt;Path&gt;" class="s6" d="m1169.4 907.6h-20.3v-222.3h20.3z"/>
				</g>
				<path id="&lt;Path&gt;" class="s7" d="m1160.6 864.8h-4.7v-141.2h4.7z"/>
			</g>
			<g id="&lt;Group&gt;">
				<path id="&lt;Path&gt;" class="s8" d="m1290.2 907.6h-76.4v-348.2h76.4z"/>
				<g id="&lt;Group&gt;">
					<path id="&lt;Path&gt;" class="s9" d="m1264.1 907.6h-76.4v-348.2h76.4z"/>
					<path id="&lt;Path&gt;" class="s5" d="m1264.1 610.7h-76.4v-20.9h76.4z"/>
					<path id="&lt;Path&gt;" class="s5" d="m1264.1 876.3h-76.4v-20.9h76.4z"/>
				</g>
			</g>
			<g id="&lt;Group&gt;">
				<path id="&lt;Path&gt;" class="s6" d="m1385.6 907.6h-86v-283.5h86z"/>
				<g id="&lt;Group&gt;">
					<path id="&lt;Path&gt;" class="s6" d="m1333.8 907.6h-51.9v-283.5h51.9z"/>
					<path id="&lt;Path&gt;" class="s5" d="m1333.8 665.9h-51.9v-17h51.9z"/>
					<path id="&lt;Path&gt;" class="s5" d="m1333.8 882.1h-51.9v-17h51.9z"/>
				</g>
			</g>
		</g>
	</g>
	<g id="Device">
		<g id="&lt;Group&gt;">
			<path id="&lt;Path&gt;" class="s10" d="m830.6 905.7h-64.8v-261.4h64.8z"/>
			<path id="&lt;Path&gt;" class="s10" d="m1207 709.1h-817.6v-495.9h817.6z"/>
			<g id="&lt;Group&gt;">
				<path id="&lt;Path&gt;" class="s5" d="m1177.5 691.3h-758.7v-460.2h758.7z"/>
				<path id="&lt;Path&gt;" class="s5" d="m1177.5 691.3h-758.7v-27.8h758.7z"/>
			</g>
			<path id="&lt;Path&gt;" class="s10" d="m801.7 876.4l-240.2 15.5v15.7h473.3v-15.7z"/>
		</g>
		<g id="&lt;Group&gt;">
			<g id="&lt;Group&gt;">
				<path id="&lt;Path&gt;" class="s11" d="m1166.3 610.6h-174.8v-371.1h174.8z"/>
				<path id="&lt;Path&gt;" class="s11" d="m1166.3 616.9h-174.8v35.5h174.8z"/>
			</g>
			<g id="&lt;Group&gt;">
				<path id="&lt;Path&gt;" class="s11" d="m1019.4 262.3c0-4.9-4-8.9-8.9-8.9-4.9 0-8.8 4-8.8 8.9 0 4.9 3.9 8.9 8.8 8.9 4.9 0 8.9-4 8.9-8.9z"/>
				<path id="&lt;Path&gt;" class="s11" d="m1027 262.3h77.2"/>
				<path id="&lt;Path&gt;" class="s11" d="m1027 273.7h125.4"/>
				<path id="&lt;Path&gt;" class="s11" d="m1027 286.4h68.4"/>
			</g>
			<g id="&lt;Group&gt;">
				<path id="&lt;Path&gt;" class="s11" d="m1019.4 310.4c0-4.9-4-8.8-8.9-8.8-4.9 0-8.8 3.9-8.8 8.8 0 4.9 3.9 8.9 8.8 8.9 4.9 0 8.9-4 8.9-8.9z"/>
				<path id="&lt;Path&gt;" class="s11" d="m1027 310.4h77.2"/>
				<path id="&lt;Path&gt;" class="s11" d="m1027 321.8h125.4"/>
				<path id="&lt;Path&gt;" class="s11" d="m1027 334.5h68.4"/>
			</g>
			<g id="&lt;Group&gt;">
				<path id="&lt;Path&gt;" class="s11" d="m1019.4 358.6c0-4.9-4-8.9-8.9-8.9-4.9 0-8.8 4-8.8 8.9 0 4.9 3.9 8.8 8.8 8.8 4.9 0 8.9-3.9 8.9-8.8z"/>
				<path id="&lt;Path&gt;" class="s11" d="m1027 358.6h77.2"/>
				<path id="&lt;Path&gt;" class="s11" d="m1027 370h125.4"/>
				<path id="&lt;Path&gt;" class="s11" d="m1027 382.6h68.4"/>
			</g>
			<g id="&lt;Group&gt;">
				<path id="&lt;Path&gt;" class="s11" d="m1019.4 406.7c0-4.9-4-8.9-8.9-8.9-4.9 0-8.8 4-8.8 8.9 0 4.9 3.9 8.9 8.8 8.9 4.9 0 8.9-4 8.9-8.9z"/>
				<path id="&lt;Path&gt;" class="s11" d="m1027 406.7h77.2"/>
				<path id="&lt;Path&gt;" class="s11" d="m1027 418.1h125.4"/>
				<path id="&lt;Path&gt;" class="s11" d="m1027 430.8h68.4"/>
			</g>
			<g id="&lt;Group&gt;">
				<path id="&lt;Path&gt;" class="s11" d="m1019.4 454.8c0-4.9-4-8.9-8.9-8.9-4.9 0-8.8 4-8.8 8.9 0 4.9 3.9 8.9 8.8 8.9 4.9 0 8.9-4 8.9-8.9z"/>
				<path id="&lt;Path&gt;" class="s11" d="m1027 454.8h77.2"/>
				<path id="&lt;Path&gt;" class="s11" d="m1027 466.2h125.4"/>
				<path id="&lt;Path&gt;" class="s11" d="m1027 478.9h68.4"/>
			</g>
			<g id="&lt;Group&gt;">
				<path id="&lt;Path&gt;" class="s11" d="m1019.4 502.9c0-4.9-4-8.8-8.9-8.8-4.9 0-8.8 3.9-8.8 8.8 0 4.9 3.9 8.9 8.8 8.9 4.9 0 8.9-4 8.9-8.9z"/>
				<path id="&lt;Path&gt;" class="s11" d="m1027 502.9h77.2"/>
				<path id="&lt;Path&gt;" class="s11" d="m1027 514.3h125.4"/>
				<path id="&lt;Path&gt;" class="s11" d="m1027 527h68.4"/>
			</g>
			<g id="&lt;Group&gt;">
				<path id="&lt;Path&gt;" class="s11" d="m1019.4 551.1c0-4.9-4-8.9-8.9-8.9-4.9 0-8.8 4-8.8 8.9 0 4.9 3.9 8.8 8.8 8.8 4.9 0 8.9-3.9 8.9-8.8z"/>
				<path id="&lt;Path&gt;" class="s11" d="m1027 551.1h77.2"/>
				<path id="&lt;Path&gt;" class="s11" d="m1027 562.5h125.4"/>
				<path id="&lt;Path&gt;" class="s11" d="m1027 575.1h68.4"/>
			</g>
		</g>
	</g>
	<g id="Character 4">
		<g id="&lt;Group&gt;">
			<g id="&lt;Group&gt;">
				<path id="&lt;Path&gt;" class="s12" d="m976.1 652.2h-266.2v-201h266.2z"/>
				<g id="&lt;Group&gt;">
					<path id="&lt;Path&gt;" class="s11" d="m709.6 540.1h266.2"/>
					<path id="&lt;Path&gt;" class="s11" d="m709.6 552.9h266.2"/>
					<g id="&lt;Group&gt;">
						<path id="&lt;Path&gt;" class="s11" d="m912.5 553.9v98.3"/>
						<path id="&lt;Path&gt;" class="s11" d="m900.6 553.9v98.3"/>
					</g>
					<g id="&lt;Group&gt;">
						<path id="&lt;Path&gt;" class="s11" d="m790.8 450v89.4"/>
						<path id="&lt;Path&gt;" class="s11" d="m778.9 450v89.4"/>
					</g>
				</g>
			</g>
		</g>
		<g id="&lt;Group&gt;">
			<g id="&lt;Group&gt;">
				<path id="&lt;Path&gt;" class="s6" d="m912.5 612.2c-2.9-3.2-9-2.7-20.1-7.3-11-4.6-22-8.1-25.8-16.8-3.8-8.7-4.9-25.9-4.9-25.9l-14.4 2.7-14.3-2.7c0 0-1.2 17.2-5 25.9-3.7 8.7-14.8 12.2-25.8 16.8-11 4.6-17.1 4.1-20 7.3-2.9 3.2-14.2 40-14.2 40h76.6 5.5 76.6c0 0-11.3-36.8-14.2-40z"/>
				<path id="&lt;Path&gt;" class="s9" d="m866.6 588.1c-3.8-8.7-4.9-25.9-4.9-25.9l-14.4 2.7-14.3-2.7c0 0-1.2 17.2-5 25.9-1.6 3.8-4.8 6.7-8.7 9 4.9 8.5 22.9 39.9 26.4 42.9 3.4 2.9 24.3-30.9 31-42-4.5-2.6-8.2-5.6-10.1-9.9z"/>
				<path id="&lt;Path&gt;" class="s10" d="m862.5 571.7c-0.4-4-0.7-7.4-0.8-8.8l-0.6-0.5-13.8 2.5-14.3-2.7c0 0-0.2 3.5-0.7 8.2 4.1 3.9 11.4 10.3 15 10.3 3.2 0 10.5-5.3 15.2-9z"/>
				<path id="&lt;Path&gt;" class="s13" d="m802.2 646.1q0.5 1.5 0.9 2.9"/>
				<path id="&lt;Path&gt;" class="s13" d="m794.7 626.7c0 0 3.7 7.7 6.7 16.6"/>
				<path id="&lt;Path&gt;" class="s13" d="m787.7 621.2c0 0 5.8 5.5 8.1 13.6"/>
				<path id="&lt;Path&gt;" class="s13" d="m899.5 626.6c-4.4 7.4-10.5 17.9-12.6 23.6"/>
				<path id="&lt;Path&gt;" class="s13" d="m904.6 618.3c0 0-1.1 1.7-2.7 4.4"/>
				<path id="&lt;Path&gt;" class="s13" d="m889.3 632.5c0 0-4.7 11.3-4.7 15.9"/>
				<path id="&lt;Path&gt;" class="s13" d="m874.3 606.7l-15.5 24"/>
				<path id="&lt;Path&gt;" class="s13" d="m877.4 602l-1.5 2.3"/>
				<path id="&lt;Path&gt;" class="s13" d="m840.5 639c1 1.3 1.7 2.1 2 2.2"/>
				<path id="&lt;Path&gt;" class="s13" d="m826.6 618.5c0 0 7.7 12 12.4 18.5"/>
			</g>
			<path id="&lt;Path&gt;" class="s10" d="m895.3 522.2c0 25.3-21.5 45.9-48.1 45.9-26.6 0-48.2-20.6-48.2-45.9 0-25.3 21.6-45.8 48.2-45.8 26.6 0 48.1 20.5 48.1 45.8z"/>
			<g id="&lt;Group&gt;">
				<path id="&lt;Path&gt;" class="s9" d="m821.1 534c0 0-4.6-4.6-7.7 0.3-3 4.9 7 15.3 8 13.5 0.9-1.9-0.3-13.8-0.3-13.8z"/>
				<path id="&lt;Path&gt;" class="s9" d="m871.9 534c0 0 4.7-4.6 7.7 0.3 3 4.9-7 15.3-7.9 13.5-0.9-1.9 0.2-13.8 0.2-13.8z"/>
				<path id="&lt;Path&gt;" class="s9" d="m873.5 524.5c0-14.9-11.8-27.1-26.3-27.1-14.6 0-26.3 12.2-26.3 27.1q0 1 0 2c0 0-2 18.5 0.7 25.1 2.7 6.6 17.7 22.4 21.2 23.9 3.5 1.5 8.4 1.6 11.3-1.5 1.5-1.5 17.1-14.7 17.8-23.9 0.7-7.8 1.1-17.8 1.2-20.8q0.4-2.3 0.4-4.8z"/>
				<path id="&lt;Path&gt;" class="s13" d="m841.6 543.6c0 0-0.7 1.9 0.5 3.2 1.2 1.4 3 2.1 5.3 2.1 2.4 0 5.2-0.9 4.9-5.5"/>
				<g id="&lt;Group&gt;">
					<path id="&lt;Path&gt;" class="s14" d="m848.1 552.7c0 0-2.5 0.2-5.5 0.9-3.1 0.7-7 1.4-7 1.4 0 0 3 4.4 7.7 5.8 4.6 1.4 6.7 1 9 0 2.4-0.9 7.3-6.3 7.3-6.3 0 0-4.9-0.4-6.8-1.1-1.9-0.7-4.7-0.7-4.7-0.7z"/>
					<path id="&lt;Path&gt;" class="s14" d="m848.1 552.7c0 0-2.5 0.2-5.5 0.9-3.1 0.7-7 1.4-7 1.4 0 0 13.9 4.7 24-0.5 0 0-4.9-0.4-6.8-1.1-1.9-0.7-4.7-0.7-4.7-0.7z"/>
				</g>
				<g id="&lt;Group&gt;">
					<path id="&lt;Path&gt;" class="s4" d="m834.9 532.1c0 1.4-0.9 2.6-2 2.6-1.1 0-2-1.2-2-2.6 0-1.5 0.9-2.7 2-2.7 1.1 0 2 1.2 2 2.7z"/>
					<path id="&lt;Path&gt;" class="s4" d="m861.5 532.1c0 1.4-0.8 2.6-1.9 2.6-1.1 0-2-1.2-2-2.6 0-1.5 0.9-2.7 2-2.7 1.1 0 1.9 1.2 1.9 2.7z"/>
					<path id="&lt;Path&gt;" class="s13" d="m844.7 532.9c0-6.1-5-11-11-11-6 0-10.9 4.9-10.9 11 0 6 4.9 10.9 10.9 10.9 6 0 11-4.9 11-10.9z"/>
					<path id="&lt;Path&gt;" class="s13" d="m870.7 532.9c0-6.1-4.9-11-10.9-11-6.1 0-11 4.9-11 11 0 6 4.9 10.9 11 10.9 6 0 10.9-4.9 10.9-10.9z"/>
					<path id="&lt;Path&gt;" class="s13" d="m822.8 532.9h-2.4"/>
					<path id="&lt;Path&gt;" class="s13" d="m847.9 532.9h-2.3"/>
					<path id="&lt;Path&gt;" class="s13" d="m873.1 532.9h-2.4"/>
				</g>
				<path id="&lt;Path&gt;" class="s13" d="m825.5 522.2c0 0 4.7-5.2 12.6-1.2"/>
				<path id="&lt;Path&gt;" class="s13" d="m853.5 522.2c0 0 6.5-4.2 13.3 0.4"/>
			</g>
		</g>
	</g>
	<g id="Character 3">
		<g id="&lt;Group&gt;">
			<path id="&lt;Path&gt;" class="s12" d="m696.4 652.2h-266.2v-201h266.2z"/>
			<g id="&lt;Group&gt;">
				<g id="&lt;Group&gt;">
					<path id="&lt;Path&gt;" class="s5" d="m667.3 506.4h-36.8v-48h36.8z"/>
					<path id="&lt;Path&gt;" class="s5" d="m664.2 502.3h-30.5v-39.8h30.5z"/>
					<path id="&lt;Path&gt;" class="s5" d="m655.6 491.1h-13.3v-17.4h13.3z"/>
				</g>
				<g id="&lt;Group&gt;">
					<path id="&lt;Path&gt;" class="s5" d="m684.1 559.9h-36.7v-48h36.7z"/>
					<path id="&lt;Path&gt;" class="s5" d="m681 555.8h-30.5v-39.8h30.5z"/>
					<path id="&lt;Path&gt;" class="s5" d="m672.4 544.5h-13.3v-17.3h13.3z"/>
				</g>
				<g id="&lt;Group&gt;">
					<path id="&lt;Path&gt;" class="s5" d="m640.6 559.9h-36.8v-48h36.8z"/>
					<path id="&lt;Path&gt;" class="s5" d="m637.4 555.8h-30.5v-39.8h30.5z"/>
					<path id="&lt;Path&gt;" class="s5" d="m628.8 544.5h-13.3v-17.3h13.3z"/>
				</g>
				<path id="&lt;Path&gt;" class="s5" d="m446.4 651.9l-2-5 8.9 2-9.9-8.9 19.8-3.9-1-4-20.8-7.9 19.8-6.9-19.8-3 15.9-9.9 14.8-13.9c0 0-10.9 2-15.8 4-5 2-18.8 9.9-18.8 9.9 0 0 8.9-15.8 12.8-23.8 4-7.9 3-17.8 3-17.8 0 0-5.9 2-14.8 13.9-8.9 11.9-8.1 11.6-8.1 11.6"/>
			</g>
		</g>
		<g id="&lt;Group&gt;">
			<g id="&lt;Group&gt;">
				<path id="&lt;Path&gt;" class="s9" d="m639.3 608.6c-0.4-3.9-5.7-6.2-20.4-12.1-14.7-5.8-36.3-22.5-36.3-22.5l-24.9 2.2-24.9-2.2c0 0-21.6 16.7-36.3 22.5-14.7 5.9-20 8.2-20.4 12.1-0.4 3.9-11 43.6-11 43.6h82.4 20.4 82.4c0 0-10.6-39.7-11-43.6z"/>
				<g id="&lt;Group&gt;">
					<path id="&lt;Path&gt;" class="s13" d="m484.2 615.8q-1.1-3-2.4-6"/>
					<path id="&lt;Path&gt;" class="s13" d="m494.7 651.8c0 0-3.1-14.1-8.1-29.1"/>
					<path id="&lt;Path&gt;" class="s13" d="m621.7 631.9c2.4-8.5 5.6-17.8 9.6-23.3"/>
					<path id="&lt;Path&gt;" class="s13" d="m617.3 652.2c0 0 1-6.4 3-14.6"/>
				</g>
				<path id="&lt;Path&gt;" class="s9" d="m606.4 622.2l-9.4-10.9 9.4-5.4-6.6-19.8c-9.4-6.1-17.2-12.1-17.2-12.1l-24.9 2.2-24.9-2.2c0 0-8 6.2-17.5 12.3l-4.3 20.8 14 6.6-12 7.8 12.7 30.7h21.8 20.4 24z"/>
			</g>
			<path id="&lt;Path&gt;" class="s5" d="m588.5 578.3c-3.6-2.6-5.9-4.3-5.9-4.3l-24.9 2.2-24.9-2.2c0 0-1.8 1.4-4.7 3.5l14 74.7h5.4 20.4 8z"/>
			<g id="&lt;Group&gt;">
				<path id="&lt;Path&gt;" class="s5" d="m531.7 557.2l1.1 16.8 24.9 31.9 24.9-31.9-2.7-17.5z"/>
				<path id="&lt;Path&gt;" class="s10" d="m581.3 565.6l-1.4-9.1-48.2 0.7 0.6 9c5.4 3.5 17.9 11.4 22.4 11.7 5.9 0.3 11-1.1 13.4-2.4 1.5-0.9 8.3-6.1 13.2-9.9z"/>
				<g id="&lt;Group&gt;">
					<path id="&lt;Path&gt;" class="s5" d="m520.7 521.5c0 0-4.4-7-7.8-0.8-3.3 6.2 4.9 20.1 6.7 20.1 1.8 0 3.4-4.4 3.9-6.7 0.5-2.3-2.8-12.6-2.8-12.6z"/>
					<path id="&lt;Path&gt;" class="s5" d="m588.3 521.5c0 0 4.4-7 7.7-0.8 3.4 6.2-4.9 20.1-6.7 20.1-1.8 0-3.3-4.4-3.9-6.7-0.5-2.3 2.9-12.6 2.9-12.6z"/>
					<g id="&lt;Group&gt;">
						<path id="&lt;Path&gt;" class="s5" d="m521.4 527.4c0 0 1.1 19.1 2.1 22.7 1 3.6 9.7 13.4 23.5 21.4 4.6 2.7 14.9 2.1 19.8 0.8 4.9-1.3 18.6-15.5 20.7-21.7 2-6.2 1-23.7 1-23.7l-1.3-25.8c0 0-48.5-19.6-55.2-14.2-6.7 5.4-10 27.6-10 30.4 0 2.9-0.6 10.1-0.6 10.1z"/>
						<path id="&lt;Path&gt;" class="s10" d="m551.9 509.6c0 0-3.9-4.6-11.1-3.6-7.2 1-9.3 6.2-5.9 6.2 3.3 0 8.7-1.6 12.1-1.1 3.3 0.6 4.9 0.8 4.9-1.5z"/>
						<path id="&lt;Path&gt;" class="s10" d="m560.1 509.6c0 0 3.9-4.6 11.1-3.6 7.2 1 9.3 6.2 5.9 6.2-3.3 0-8.7-1.6-12.1-1.1-3.3 0.6-4.9 0.8-4.9-1.5z"/>
						<path id="&lt;Path&gt;" class="s13" d="m560.1 517.1v11.8c0 0 3.4 12.4-2.3 11.6-5.7-0.7-8.2-5.4-8.2-5.4"/>
						<path id="&lt;Path&gt;" class="s13" d="m542.1 542.4c0 0 5.1 4.9 14.7 4.6 9.5-0.3 16-6.5 16-6.5"/>
						<path id="&lt;Path&gt;" class="s13" d="m547.2 519.7c0 0-3.8-3.4-10-1.9"/>
						<path id="&lt;Path&gt;" class="s13" d="m563.7 520.7c0 0 3.4-4.1 11.6-1.8"/>
						<path id="&lt;Path&gt;" class="s4" d="m542.8 521.2c1 0 1.9-0.8 1.9-1.8 0-1-0.9-1.8-1.9-1.8-1 0-1.8 0.8-1.8 1.8 0 1 0.8 1.8 1.8 1.8z"/>
						<path id="&lt;Path&gt;" class="s4" d="m569.7 521.2c1 0 1.8-0.8 1.8-1.8 0-1-0.8-1.8-1.8-1.8-1 0-1.8 0.8-1.8 1.8 0 1 0.8 1.8 1.8 1.8z"/>
					</g>
					<path id="&lt;Path&gt;" class="s10" d="m580.3 503.5c0 0 0.9 6 2.3 7 1.4 0.9 2.3 4.2 2.3 4.2v17.3l3.3 0.4 0.5-16.8c0 0 4.2-7.9 4.2-16.8 0-8.9-13.6 0-12.6 4.7z"/>
					<path id="&lt;Path&gt;" class="s10" d="m534 493.6c0 0 2.8 7.5-0.9 12.7-3.8 5.1-8.4 11.2-8.4 11.2l-0.5 13.1-3.7 1.4-1.4-16.9c0 0-3.8-14.5-3.8-19.1 0-4.7 7-10.8 9.4-11.7 2.3-0.9 5.1-0.9 5.1-0.9 0 0 9.3-11.3 22.9-11.3 13.6 0 36 8 45.3 24.3 0 0-7.4 7.5-19.1 8.9-11.7 1.4-44-8.4-44.9-11.7z"/>
				</g>
			</g>
			<path id="&lt;Path&gt;" class="s13" d="m535.5 616.8l22.2-10.9 23 12.1"/>
			<path id="&lt;Path&gt;" class="s13" d="m556.5 607.1v40.4"/>
		</g>
	</g>
	<g id="Character 2">
		<g id="&lt;Group&gt;">
			<path id="&lt;Path&gt;" class="s12" d="m976.1 441h-266.2v-201h266.2z"/>
			<g id="&lt;Group&gt;">
				<path id="&lt;Path&gt;" class="s11" d="m710.7 249.9l51.2 42.6-9.5 147.9"/>
				<path id="&lt;Path&gt;" class="s11" d="m761.9 292.5h214.1"/>
			</g>
		</g>
		<g id="&lt;Group&gt;">
			<path id="&lt;Path&gt;" class="s10" d="m906.5 317.7c-7.4-13.7-36.2-43.2-36.2-43.2-10.2-9.1-18.2-10.3-23.5-9.4-5.3-0.9-13.4 0.3-23.5 9.4 0 0-28.8 29.5-36.2 43.2-7.4 13.6-7.4 34.6 8.2 42.8 10.9 5.7 31.6 8.7 45.6 9.5 1.5 0.2 3.5 0.2 5.9 0.2 2.4 0 4.4 0 5.9-0.2 14-0.8 34.7-3.8 45.6-9.5 15.6-8.2 15.6-29.2 8.2-42.8z"/>
			<g id="&lt;Group&gt;">
				<path id="&lt;Path&gt;" class="s6" d="m907.8 403.7c-0.4-2.8-5.3-3.9-17.4-10.5-12.1-6.7-27.1-16.4-31.6-22.6-4.4-6.2-3.6-16.4-3.6-16.4h-19.4c0 0 0.8 10.2-3.7 16.4-4.4 6.2-19.4 15.9-31.5 22.6-12.1 6.6-17 7.7-17.4 10.5-0.4 2.7-9.7 36.9-9.7 36.9h67.9 8.1 68c0 0-9.3-34.2-9.7-36.9z"/>
				<path id="&lt;Path&gt;" class="s6" d="m878.6 413c2-8.1 0.7-19.8-0.4-27-8.5-5.4-16.4-11.2-19.4-15.4-4.4-6.2-3.6-16.4-3.6-16.4h-19.4c0 0 0.8 10.2-3.7 16.4-3 4.3-11 10.2-19.6 15.6-1.3 7-3.5 22.6 0.3 32.6 3.7 9.6 9.6 18 12.5 21.8h16.1 8.1 17.1c2.9-5.1 9.5-17.9 12-27.6z"/>
				<path id="&lt;Path&gt;" class="s5" d="m869.7 380.3c-4.9-3.6-8.9-7-10.9-9.7-4.4-6.2-3.6-16.4-3.6-16.4h-19.4c0 0 0.8 10.2-3.7 16.4-1.8 2.5-5.3 5.6-9.7 8.9l5.7 61.1h13.3 8.1 11.1z"/>
				<path id="&lt;Path&gt;" class="s5" d="m867.4 378.6c-3.8-2.9-6.9-5.7-8.6-8-4.4-6.2-3.6-16.4-3.6-16.4h-19.4c0 0 0.8 10.2-3.7 16.4-1.5 2.2-4.4 4.8-7.9 7.5 2.2 4.1 8.8 14.3 20.9 15.8 10.1 1.3 18.1-8.5 22.3-15.3z"/>
				<path id="&lt;Path&gt;" class="s10" d="m835.2 363c2.8 2.3 7.1 5.1 10.9 4.6 3.6-0.5 7.5-2.1 10-3.3-0.8-3.1-1-6.2-1-8.1l-5.3-0.4-9.3-1.6h-4.7c0 0 0.3 4.2-0.6 8.8z"/>
				<path id="&lt;Path&gt;" class="s13" d="m794.6 420.4c2.5 5.2 5.6 12.1 8.1 19.5"/>
				<path id="&lt;Path&gt;" class="s13" d="m790.2 411.8c0 0 0.8 1.5 2.1 4"/>
				<path id="&lt;Path&gt;" class="s13" d="m893.3 417.4c1.1-2 2.3-3.9 3.6-5.6"/>
				<path id="&lt;Path&gt;" class="s13" d="m884.8 441c0 0 2.2-9.5 6.1-18.5"/>
			</g>
			<path id="&lt;Path&gt;" class="s5" d="m816.7 320.8l-6.2 8.2c0 0 1.9 4.6 5.4 6.2 3.5 1.5 5.5-1.6 5.5-1.6l-1.2-12.8z"/>
			<path id="&lt;Path&gt;" class="s5" d="m826.7 343.7c0 5.6-4.5 10.1-10.1 10.1-5.5 0-10-4.5-10-10.1 0-5.6 4.5-10.1 10-10.1 5.6 0 10.1 4.5 10.1 10.1z"/>
			<path id="&lt;Path&gt;" class="s5" d="m872 321.6l7.7 7.4c0 0-1.9 4.6-5.4 6.2-3.5 1.5-5.5-1.6-5.5-1.6l1.2-12.8z"/>
			<path id="&lt;Path&gt;" class="s5" d="m882.5 343.7c0 5.6-4.5 10.1-10.1 10.1-5.6 0-10.1-4.5-10.1-10.1 0-5.6 4.5-10.1 10.1-10.1 5.6 0 10.1 4.5 10.1 10.1z"/>
			<g id="&lt;Group&gt;">
				<path id="&lt;Path&gt;" class="s5" d="m845.9 291.6c0 0-6.2 9.3-14.8 17.9-9.6 9.6-14.4 11.3-14.4 11.3 0 0 3.1 20.7 7.8 27.2 5.8 8.2 15.2 19.1 26.8 14 17.2-7.4 19.3-23.8 20.7-40.4 0 0-24.6-13.7-26.1-30z"/>
				<path id="&lt;Path&gt;" class="s4" d="m835.8 324.1c0 1.4-1.2 2.5-2.6 2.5-1.4 0-2.5-1.1-2.5-2.5 0-1.4 1.1-2.5 2.5-2.5 1.4 0 2.6 1.1 2.6 2.5z"/>
				<path id="&lt;Path&gt;" class="s4" d="m860.5 324.1c0 1.4-1.2 2.5-2.6 2.5-1.4 0-2.5-1.1-2.5-2.5 0-1.4 1.1-2.5 2.5-2.5 1.4 0 2.6 1.1 2.6 2.5z"/>
				<path id="&lt;Path&gt;" class="s13" d="m849 320c0 0 2.7 13.2-0.4 15.6-3.1 2.3-8.6 1.1-8.6-4.7"/>
				<path id="&lt;Path&gt;" class="s13" d="m838.5 341.8c0 0 5.8 2.3 9.3 1.2 3.5-1.2 6.3-3.5 6.3-3.5 0 0-3.6 10.1-8.2 10.1-4.7 0-7.4-7.8-7.4-7.8z"/>
				<path id="&lt;Path&gt;" class="s13" d="m827.6 318.4c0 0 2.3-3.8 10.5-2.7"/>
				<path id="&lt;Path&gt;" class="s13" d="m851.3 315.7c0 0 5.9-2.7 11.7 0.4"/>
			</g>
		</g>
	</g>
	<g id="Character 1">
		<g id="&lt;Group&gt;">
			<path id="&lt;Path&gt;" class="s12" d="m696.4 441h-266.2v-201h266.2z"/>
			<g id="&lt;Group&gt;">
				<path id="&lt;Path&gt;" class="s5" d="m507.8 344.7h-68.3v-89.1h68.3z"/>
				<path id="&lt;Path&gt;" class="s5" d="m502 337.1h-56.7v-74h56.7z"/>
				<path id="&lt;Path&gt;" class="s5" d="m486 316.2h-24.7v-32.2h24.7z"/>
			</g>
			<g id="&lt;Group&gt;">
				<path id="&lt;Path&gt;" class="s4" d="m629.4 384.4c1.8 0.8 6.1 0.7 6.1 0.7 0.1 0-0.9-2.8-1-3-0.9-2-4-5.3-6.4-4.9-1.8 0.2-2.7 2-2.3 3.6 0.4 1.7 2.1 3 3.6 3.6z"/>
				<path id="&lt;Path&gt;" class="s4" d="m630.9 397c1.8 0.2 5.7-0.9 6-1 0.6 2.2 1.4 4.4 2.4 6.5q0.8 1.9 1.7 3.7c-0.4-0.5-0.7-1-0.8-1-1.4-1.7-5.2-4.1-7.4-3.1-1.7 0.7-2.2 2.6-1.3 4.1 0.8 1.6 2.8 2.3 4.4 2.6 1.7 0.2 5-0.7 5.9-0.9q0.3 0.7 0.7 1.4c1.1 2.2 2.2 4.4 3.2 6.6q0.6 1.2 1.1 2.3c-0.3-0.4-0.6-0.8-0.6-0.8-1.5-1.7-5.3-4.1-7.5-3.1-1.7 0.7-2.1 2.6-1.3 4.1 0.8 1.6 2.8 2.3 4.5 2.5 1.5 0.3 4.6-0.5 5.6-0.8q0.5 1.2 1 2.4c0.1 0.6 0.3 1.1 0.5 1.6q0.2 0.9 0.4 1.7c0.3 1 0.6 2.1 0.8 3.1q0.2 1.1 0.4 2.1c-0.3-0.7-1.1-2.2-1.1-2.4-1.2-1.8-4.6-4.7-7-4.1-1.7 0.4-2.5 2.3-1.9 3.9 0.6 1.6 2.5 2.7 4.1 3.1 1.7 0.6 5.5 0.1 6 0q0.4 1.7 0.6 3.3c0.4 2.4 0.8 4.5 1 6.2h1.6c-0.3-1.8-0.6-4-1.1-6.4q-0.4-1.8-0.8-3.7c0.3-0.1 1.9-0.8 3.4-1.6 1.2 1.4 4.5 3 4.9 3.2q-0.7 1.6-1.3 3.1c-0.9 2.1-1.8 3.9-2.5 5.4h1.7q1-2.1 2.1-4.8 0.7-1.7 1.4-3.5c0.5 0.1 4.3 0.8 6 0.4 1.6-0.3 3.6-1.2 4.3-2.8 0.7-1.6 0.1-3.5-1.6-4.1-2.4-0.7-5.9 1.9-7.2 3.7-0.1 0.1-0.8 1.3-1.3 2.1q0.3-0.7 0.6-1.5c0.4-1 0.7-2 1.1-3.1q0.2-0.9 0.5-1.7c0.1-0.5 0.3-1.1 0.4-1.7q0.5-2 0.8-4.1c0.9 0.4 4.1 1.5 5.7 1.3 1.7-0.1 3.7-0.7 4.7-2.1 0.9-1.5 0.6-3.5-1-4.3-2.2-1.1-6.1 1-7.7 2.5-0.1 0.1-1.1 1.4-1.6 2.1q0.2-1.3 0.4-2.5c0.3-2.5 0.5-5 0.7-7.4q0.2-1.2 0.3-2.3c0.3 0.1 4.1 1.5 5.9 1.4 1.6-0.1 3.7-0.8 4.6-2.2 1-1.4 0.6-3.4-0.9-4.2-2.2-1.2-6.2 0.9-7.7 2.5-0.1 0.1-1.6 1.9-1.9 2.3q0.2-2.5 0.6-4.9 0.5-3.4 1.4-6.5c0.2 0 4.1 1.5 6 1.4 1.6-0.1 3.7-0.7 4.6-2.2 1-1.4 0.6-3.4-0.9-4.2-2.2-1.2-6.2 0.9-7.7 2.5-0.1 0.1-1.7 2-1.9 2.4q0-0.2 0.1-0.4c0.6-2.2 1.6-4.3 2.5-6.2q0.9-1.6 1.8-3c0.7 0.3 3.9 1.9 5.6 1.9 1.7 0.1 3.8-0.3 4.9-1.6 1.1-1.3 1-3.4-0.5-4.3-2.1-1.4-6.2 0.2-7.9 1.6-0.1 0.1-1 1-1.6 1.6q0.4-0.7 0.8-1.3c1.1-1.6 2.1-2.9 3-4.1q0.8-1 1.5-1.9c0.9 0 4.4-0.1 5.9-0.8 1.5-0.7 3.2-2 3.6-3.7 0.3-1.7-0.7-3.4-2.5-3.6-2.4-0.3-5.3 3.1-6.2 5.1-0.1 0.2-1 3-1 3 0 0 0.1 0 0.1 0q-0.7 0.8-1.5 1.8c-1 1.2-2 2.5-3.1 4-1.1 1.6-2.2 3.3-3.2 5.2-1 1.9-2 3.9-2.8 6.1q0 0.1 0 0.1c0-0.7 0-2.7 0-2.9-0.3-2.2-2.1-6.2-4.6-6.7-1.7-0.3-3.2 1.1-3.3 2.8-0.2 1.7 1.1 3.4 2.3 4.5 1.4 1.3 5.2 2.5 5.5 2.6-0.6 2.1-1.2 4.4-1.6 6.7q-0.3 2-0.6 4c0-0.7 0-1.2 0-1.3-0.3-2.2-2.1-6.2-4.6-6.7-1.7-0.3-3.2 1.1-3.3 2.8-0.2 1.7 1.1 3.4 2.3 4.5 1.3 1.1 4.5 2.2 5.4 2.5q-0.1 0.8-0.2 1.6c-0.3 2.4-0.6 4.9-0.9 7.3q-0.2 1.3-0.5 2.5c0-0.5 0-1 0-1.1-0.3-2.1-2.1-6.2-4.5-6.6-1.8-0.4-3.3 1-3.4 2.7-0.2 1.7 1.1 3.5 2.3 4.6 1.2 1 4.2 2.1 5.2 2.4q-0.2 1.3-0.5 2.5c-0.2 0.6-0.3 1.1-0.5 1.7q-0.3 0.8-0.5 1.6c-0.4 1-0.8 2.1-1.1 3q-0.4 1.1-0.8 2c0.1-0.8 0.3-2.5 0.3-2.6 0.1-1.5-0.5-3.9-1.5-5.5q0-0.4 0-0.7c-0.3-1.7-1.9-2.9-3.6-2.5-2.4 0.7-3.9 4.9-4 7.1 0 0.1 0.1 1.5 0.1 2.4q-0.1-0.8-0.3-1.6c-0.3-1-0.6-2.1-0.9-3.2q-0.2-0.8-0.5-1.6c-0.1-0.6-0.3-1.1-0.5-1.7q-0.7-1.9-1.6-3.8c0.9-0.2 4.2-1.1 5.5-2.1 1.3-1 2.7-2.6 2.7-4.4 0-1.7-1.4-3.2-3.2-3-2.4 0.3-4.6 4.2-5 6.4 0 0.1-0.2 1.7-0.2 2.6q-0.6-1.2-1.1-2.3c-1.1-2.2-2.3-4.4-3.5-6.6q-0.5-1.1-1-2.1c0.3 0 4.2-0.9 5.7-2.1 1.3-1 2.7-2.6 2.7-4.4-0.1-1.7-1.4-3.1-3.2-2.9-2.4 0.2-4.6 4.1-5 6.3-0.1 0.1-0.3 2.4-0.3 3q-1.2-2.2-2.2-4.5-1.4-3.1-2.4-6.2c0.1 0 4.2-0.9 5.7-2.1 1.3-1 2.7-2.6 2.7-4.4 0-1.7-1.4-3.2-3.1-3-2.5 0.3-4.6 4.2-5.1 6.4 0 0.1-0.2 2.6-0.2 3q-0.1-0.2-0.2-0.3c-0.6-2.3-1-4.5-1.2-6.6q-0.2-1.8-0.2-3.6c0.7-0.1 4.3-0.5 5.7-1.4 1.5-0.9 3-2.3 3.2-4.1 0.2-1.7-1-3.3-2.8-3.3-2.5 0-5 3.7-5.7 5.7 0 0.2-0.3 1.4-0.5 2.2q0-0.8 0-1.5c0-1.9 0.1-3.6 0.3-5.1q0.1-1.3 0.2-2.4c0.7-0.4 3.6-2.5 4.4-3.9 0.9-1.4 1.6-3.4 1-5-0.7-1.6-2.5-2.5-4.1-1.7-2.2 1.1-2.7 5.5-2.4 7.7 0.1 0.2 0.9 3.1 0.9 3.1 0 0 0.1-0.1 0.1-0.1q-0.2 1.1-0.3 2.3c-0.2 1.5-0.3 3.2-0.4 5.1 0 1.9 0 3.9 0.2 6 0.2 2.2 0.5 4.4 1.1 6.7q0 0 0 0.1c-0.4-0.6-1.5-2.3-1.6-2.4-1.4-1.7-5.2-4-7.5-3.1-1.6 0.7-2.1 2.7-1.3 4.2 0.9 1.5 2.9 2.2 4.5 2.5z"/>
				<path id="&lt;Path&gt;" class="s4" d="m673.2 385.4c0 0 0.8-2.9 0.8-3.1 0.3-2.2-0.4-6.6-2.6-7.6-1.6-0.8-3.4 0.1-4 1.7-0.6 1.7 0.2 3.7 1.1 5.1 1 1.6 4.7 3.9 4.7 3.9z"/>
			</g>
		</g>
		<g id="&lt;Group&gt;">
			<g id="&lt;Group&gt;">
				<path id="&lt;Path&gt;" class="s6" d="m622 393.5c0.8-1.2-1.2-4.8-8.8-9.9-7.6-5.2-41.1-25.2-41.1-25.2l-11.2-0.6v-0.6l-6.2 0.3-6.2-0.3v0.6l-11.2 0.6c0 0-33.5 20-41.1 25.2-7.5 5.1-9.5 8.7-8.7 9.9 0.8 1.2-10.8 47.5-10.8 47.5h71.8 12.4 71.8c0 0-11.5-46.3-10.7-47.5z"/>
				<path id="&lt;Path&gt;" class="s13" d="m507.2 428.6c0.8 3.7 1.4 7.5 1.8 11.2"/>
				<path id="&lt;Path&gt;" class="s13" d="m495.8 394.3c0 0 6.3 13.7 10.3 30"/>
				<path id="&lt;Path&gt;" class="s13" d="m609.1 406.8c-3.2 9.2-7.6 23.1-8.3 33.8"/>
				<path id="&lt;Path&gt;" class="s13" d="m612.8 397.1c0 0-0.9 2.1-2.2 5.6"/>
				<path id="&lt;Path&gt;" class="s13" d="m553.7 401.1v39.9"/>
				<path id="&lt;Path&gt;" class="s13" d="m553.7 391.1v6"/>
			</g>
			<path id="&lt;Path&gt;" class="s6" d="m540.1 350c0 0-8.3 2-9.5 7.2-1.2 5.2-2.4 38.3-2.4 38.3 0 0 0.4 3.2 5.2-1.6 4.7-4.8 10.3-7.5 12.7-7.5 2.4 0 8 2.7 8 2.7 0 0 6.4-3.1 10-3.1 3.6 0 3.2 0 8.8 3.5 5.5 3.6 7.9 6.4 8.7 4 0.8-2.4-5.5-34.3-6.7-38.7-1.2-4.4-9.2-5.6-12.8-5.6-3.6 0-22 0.8-22 0.8z"/>
			<path id="&lt;Path&gt;" class="s5" d="m536.9 342.5c0 0 0.4 19.1 1.6 21.9 1.2 2.8 11.6 24.7 15.6 24.7 4 0 14.4-26.7 14.8-27.9 0.4-1.2 1.2-17.9 1.2-17.9z"/>
			<path id="&lt;Path&gt;" class="s10" d="m569.6 352.5c0.2-4.6 0.5-9.2 0.5-9.2l-33.2-0.8c0 0 0.1 3.5 0.3 7.7 5.6 3.6 16.1 10.1 18.5 10.1 2 0 9-4.5 13.9-7.8z"/>
			<g id="&lt;Group&gt;">
				<path id="&lt;Path&gt;" class="s5" d="m525.3 312.2c0 0-3-12-9.1-5.1-6.2 6.9 9.5 18.9 11 18.9 1.4 0 2.3-2.9 2.3-2.9z"/>
				<path id="&lt;Path&gt;" class="s5" d="m579.8 312.4c0 0 3.6-12.2 9.4-5.7 5.9 6.5-10.3 19.5-11.8 19.6-1.4 0.1-2.2-2.8-2.2-2.8z"/>
				<g id="&lt;Group&gt;">
					<path id="&lt;Path&gt;" class="s5" d="m524.5 307.8c0 0 2.7 17.8 5.2 26.5 2.4 8.8 17.1 20.7 25.8 20.7 8.7 0 20.3-13.4 22.1-21 1.9-7.7 3.2-25.8 3.2-25.8 0 0 2.1-13.8 1.6-17.8-0.5-4-2-10.5-14.1-16.4-12-5.8-27.3-5.4-34.8-0.3-7.5 5.1-10.4 11.2-9.4 13.8 0.9 2.5 0.4 20.3 0.4 20.3z"/>
					<path id="&lt;Path&gt;" class="s13" d="m557.8 298.7l0.7 14.6c0 0 5.7 2.9 2.6 5.8-3.1 2.9-11.2 5.8-12.7-0.7"/>
					<path id="&lt;Path&gt;" class="s13" d="m542.6 325.3c0 0 1.3 4 4.9 4.3 3.6 0.4 13.8-0.7 13.8-0.7 0 0 2.7-2.6 2.8-5.1"/>
					<path id="&lt;Path&gt;" class="s4" d="m544.6 305.8c-0.1 1.7-1.3 3.1-2.7 3.1-1.4 0-2.5-1.4-2.4-3.1 0.1-1.7 1.3-3.1 2.7-3.1 1.4 0 2.4 1.4 2.4 3.1z"/>
					<path id="&lt;Path&gt;" class="s4" d="m568.7 305.8c-0.1 1.7-1.3 3.1-2.7 3.1-1.4 0-2.5-1.4-2.4-3.1 0.1-1.7 1.3-3.1 2.7-3.1 1.4 0 2.5 1.4 2.4 3.1z"/>
					<path id="&lt;Path&gt;" class="s13" d="m532.7 296.9c0 0 5-5.1 14.6-2.9"/>
					<path id="&lt;Path&gt;" class="s13" d="m562.6 293.3c0 0 7.8-2.6 13.3 2.5"/>
					<g id="&lt;Group&gt;">
						<path id="&lt;Path&gt;" class="s15" d="m536.8 314.3c0 0.6-0.5 1.1-1.1 1.1-0.6 0-1.1-0.5-1.1-1.1 0-0.6 0.5-1.1 1.1-1.1 0.6 0 1.1 0.5 1.1 1.1z"/>
						<path id="&lt;Path&gt;" class="s15" d="m543 314.7c0 0.6-0.5 1.1-1.2 1.1-0.6 0-1.1-0.5-1.1-1.1 0-0.7 0.5-1.2 1.1-1.2 0.7 0 1.2 0.5 1.2 1.2z"/>
						<path id="&lt;Path&gt;" class="s15" d="m539.3 318.4c0 0.6-0.5 1.1-1.2 1.1-0.6 0-1.1-0.5-1.1-1.1 0-0.7 0.5-1.2 1.1-1.2 0.7 0 1.2 0.5 1.2 1.2z"/>
					</g>
					<g id="&lt;Group&gt;">
						<path id="&lt;Path&gt;" class="s15" d="m566 314.3c0 0.6-0.5 1.1-1.1 1.1-0.6 0-1.1-0.5-1.1-1.1 0-0.6 0.5-1.1 1.1-1.1 0.6 0 1.1 0.5 1.1 1.1z"/>
						<path id="&lt;Path&gt;" class="s15" d="m572.2 314.7c0 0.6-0.5 1.1-1.2 1.1-0.6 0-1.1-0.5-1.1-1.1 0-0.7 0.5-1.2 1.1-1.2 0.7 0 1.2 0.5 1.2 1.2z"/>
						<path id="&lt;Path&gt;" class="s15" d="m568.5 318.4c0 0.6-0.5 1.1-1.2 1.1-0.6 0-1.1-0.5-1.1-1.1 0-0.7 0.5-1.2 1.1-1.2 0.7 0 1.2 0.5 1.2 1.2z"/>
					</g>
				</g>
				<path id="&lt;Path&gt;" class="s6" d="m528.2 284.6c0 0 0.6 2.2 0.8 5.8 0.2 3.6-3.3 6.9-3.3 6.9l-0.4 14.9-3.9-14.2c0 0-3-21.1-2.7-25.4 0.2-4.4 0.8-10.2 5.6-10.5 4.7-0.4 7.4 3.2 7.4 3.2 0 0 8-13.8 16.7-13.1 8.7 0.8 5.6 4.4 5.6 4.4 0 0 18.4-5.4 32.1-2.9 13.7 2.5 11 19.6 8.3 22.9-2.7 3.3-10.5 5.8-10.5 5.8 0 0 4.9 4 5.4 8.3 0.5 4.4-4.7 6.2-4.7 6.2l-4 15.3-0.6-17.1c0 0 0.4-0.4-2-4-2.3-3.6-6.4-9.4-6.4-9.4 0 0 2.7 3.6-6.8 4-9.4 0.3-23.7-10.9-23.7-10.9 0 0-2.5 5.1-5 5.4-2.6 0.4-7.9 4.4-7.9 4.4z"/>
			</g>
		</g>
	</g>
	<g id="Table">
		<g id="&lt;Group&gt;">
			<path id="&lt;Path&gt;" class="s11" d="m171.9 907.6h1270.1"/>
			<path id="&lt;Path&gt;" class="s11" d="m106 907.6h34.2"/>
		</g>
	</g>
</svg>