<svg version="1.2" xmlns="http://www.w3.org/2000/svg" viewBox="0 0 1500 1000" width="1500" height="1000">
	<title>3125989-ai</title>
	<style>
		.s0 { fill: #ebebeb } 
		.s1 { fill: #fafafa } 
		.s2 { fill: #f5f5f5 } 
		.s3 { fill: #e0e0e0 } 
		.s4 { fill: #263238 } 
		.s5 { fill: #455a64 } 
		.s6 { fill:  #BA68C8 } 
		.s7 { fill: #000000 } 
		.s8 { opacity: .2;fill: #000000 } 
		.s9 { fill: #ffbe9d } 
		.s10 { fill: #eb996e } 
	</style>
	<g id="Background Complete">
		<g id="&lt;Group&gt;">
			<g id="&lt;Group&gt;">
				<path id="&lt;Path&gt;" class="s0" d="m345.5 580.6h-239.1v-429.7h239.1z"/>
			</g>
			<g id="&lt;Group&gt;">
				<path id="&lt;Path&gt;" class="s1" d="m333.5 567.8h-217.6v-404.4h217.6z"/>
			</g>
			<g id="&lt;Group&gt;">
				<path id="&lt;Path&gt;" class="s2" d="m333.5 168.2l-217.6 276.7v-281.5h217.6z"/>
			</g>
			<g id="&lt;Group&gt;">
				<path id="&lt;Path&gt;" class="s0" d="m338.3 284h-222.4v-4.3h222.4z"/>
			</g>
			<g id="&lt;Group&gt;">
				<path id="&lt;Path&gt;" class="s0" d="m338.3 380.3h-222.4v-4.3h222.4z"/>
			</g>
			<g id="&lt;Group&gt;">
				<path id="&lt;Path&gt;" class="s0" d="m338.3 476.6h-222.4v-4.3h222.4z"/>
			</g>
			<g id="&lt;Group&gt;">
				<path id="&lt;Path&gt;" class="s0" d="m230.2 281.9v297.3h-11v-297.3z"/>
			</g>
			<g id="&lt;Group&gt;">
				<path id="&lt;Path&gt;" class="s0" d="m162.8 281.9h-5v-118.5h5z"/>
			</g>
			<g id="&lt;Group&gt;">
				<path id="&lt;Path&gt;" class="s0" d="m205.8 281.9h-5v-118.5h5z"/>
			</g>
			<g id="&lt;Group&gt;">
				<path id="&lt;Path&gt;" class="s0" d="m248.7 281.9h-5v-118.5h5z"/>
			</g>
			<g id="&lt;Group&gt;">
				<path id="&lt;Path&gt;" class="s0" d="m291.7 281.9h-5v-118.5h5z"/>
			</g>
			<g id="&lt;Group&gt;">
				<path id="&lt;Path&gt;" class="s2" d="m106.4 583.2h-10.1v-439.6h10.1z"/>
			</g>
			<g id="&lt;Group&gt;">
				<path id="&lt;Path&gt;" class="s3" d="m355.7 584.4l-10.2-3.8v-437h10.2z"/>
			</g>
			<g id="&lt;Group&gt;">
				<path id="&lt;Path&gt;" class="s3" d="m355.7 150.9h-259.4v-11.7h259.4z"/>
			</g>
			<g id="&lt;Group&gt;">
				<path id="&lt;Path&gt;" class="s3" d="m362.5 596.8h-273.4v-10.9h273.4z"/>
			</g>
			<g id="&lt;Group&gt;">
				<path id="&lt;Path&gt;" class="s0" d="m345.5 580.6l17 5.3h-273.4l17.3-5.3z"/>
			</g>
		</g>
		<g id="&lt;Group&gt;">
			<g id="&lt;Group&gt;">
				<g id="&lt;Group&gt;">
					<path id="&lt;Path&gt;" class="s0" d="m1374.3 418.8c0 0-16.9-1.3-15.3 36.7 1.5 37.9 5.4 58.1 5.4 58.1 0 0-0.5 8.4-7 6.7-6.5-1.6-18.8-9.8-24.8-3.7-6.3 6.4-4.1 16.1 4.2 27.6 8.4 11.4 25.7 37.2 27.2 39.5 1.6 2.3 2.2 6.6-2.4 6.2-4.6-0.4-35.8-11-39.9 4.1-4.2 15.1 24.3 43.2 27.3 46.4 3.1 3.1 3.2 5.1 2 7-1.2 1.9-11.4-2.7-20.4-5.3-8.9-2.6-19.8-4.1-21.5 4.8-1.6 8.9 10.9 34.9 57.8 62.3l22.6 11.3 21.3-13.7c43.9-31.9 53.8-59.1 51.3-67.8-2.6-8.6-13.3-6.1-21.9-2.6-8.7 3.6-18.3 9.1-19.8 7.3-1.4-1.7-1.4-3.7 1.3-7.1 2.7-3.5 28.2-34.3 22.6-48.9-5.6-14.6-35.6-0.9-40.1-0.1-4.6 0.9-4.4-3.4-3.1-5.9 1.3-2.5 16-29.8 23.1-42.1 7.1-12.2 8.4-22.1 1.5-27.8-6.6-5.5-18 3.9-24.3 6.2-6.3 2.3-7.7-6-7.7-6 0 0 1.9-20.5-0.4-58.4-2.2-37.9-19.3-34.8-19.3-34.8"/>
				</g>
				<g id="&lt;Group&gt;">
					<g id="&lt;Group&gt;">
						<path id="&lt;Path&gt;" class="s3" d="m1375.6 452.7q0.1 0 0.1 0.8 0.1 0.9 0.2 2.3c0.2 2.1 0.4 5.1 0.6 9 0.5 7.8 1.2 19 2 32.9 1.5 27.9 3.3 66.3 5.2 108.8 1.8 42.5 3.6 81 4.9 108.8 0.8 13.9 1.3 25.2 1.7 33 0.2 3.9 0.4 6.9 0.5 9q0 1.4 0.1 2.3 0 0.8 0 0.8 0 0-0.1-0.8-0.1-0.8-0.2-2.3c-0.1-2.1-0.4-5.1-0.6-9-0.5-7.8-1.2-19-2-32.9-1.5-27.9-3.3-66.3-5.2-108.8-1.8-42.5-3.5-81-4.9-108.8-0.7-13.9-1.3-25.2-1.7-33-0.2-3.8-0.4-6.9-0.5-8.9q0-1.5 0-2.4-0.1-0.8-0.1-0.8z"/>
					</g>
				</g>
				<g id="&lt;Group&gt;">
					<g id="&lt;Group&gt;">
						<path id="&lt;Path&gt;" class="s3" d="m1349.2 528.8c0.1-0.1 0.6 0.3 1.4 1.1 0.9 0.8 2.1 2 3.6 3.5 3 2.9 7 7.1 11.3 11.8 4.3 4.6 8.1 8.8 11.1 12.1q2 2.1 3.3 3.6c0.8 0.9 1.3 1.4 1.2 1.4 0 0.1-0.5-0.4-1.4-1.1-0.9-0.8-2.1-2-3.6-3.5-2.9-3-6.9-7.2-11.2-11.9-4.3-4.6-8.1-8.8-11.1-12q-2-2.1-3.4-3.6c-0.8-0.9-1.2-1.4-1.2-1.4z"/>
					</g>
				</g>
				<g id="&lt;Group&gt;">
					<g id="&lt;Group&gt;">
						<path id="&lt;Path&gt;" class="s3" d="m1383.3 561.6c-0.1-0.2 8.1-8.8 18.5-19.3 10.3-10.5 18.9-18.9 19-18.7 0.2 0.1-8.1 8.8-18.4 19.3-10.4 10.5-18.9 18.8-19.1 18.7z"/>
					</g>
				</g>
				<g id="&lt;Group&gt;">
					<g id="&lt;Group&gt;">
						<path id="&lt;Path&gt;" class="s3" d="m1383.3 626.9c-0.1 0 0.5-0.4 1.5-1q1.8-1 4.4-2.4c3.8-2.1 8.9-5 14.4-8.4 5.6-3.4 10.5-6.7 14.1-9.1q2.5-1.6 4.2-2.8c1-0.6 1.6-1 1.6-0.9 0 0-0.5 0.5-1.4 1.2-1 0.7-2.3 1.8-4.1 3-3.4 2.5-8.3 5.9-13.9 9.3-5.6 3.4-10.8 6.2-14.6 8.2-1.9 1-3.4 1.7-4.5 2.2-1.1 0.5-1.7 0.8-1.7 0.7z"/>
					</g>
				</g>
				<g id="&lt;Group&gt;">
					<g id="&lt;Group&gt;">
						<path id="&lt;Path&gt;" class="s3" d="m1345.9 604.1c0-0.1 0.6 0.2 1.5 0.7 1 0.5 2.4 1.3 4.1 2.3 3.5 1.9 8.2 4.7 13.4 7.7 5.1 3.1 9.8 6 13.2 8 1.6 1.1 3 1.9 3.9 2.6 0.9 0.6 1.4 0.9 1.4 1 0 0-0.6-0.2-1.6-0.8-0.9-0.5-2.3-1.3-4.1-2.2-3.4-2-8.1-4.7-13.3-7.8-5.2-3.1-9.8-5.9-13.2-8-1.7-1-3-1.9-3.9-2.5-1-0.6-1.5-1-1.4-1z"/>
					</g>
				</g>
				<g id="&lt;Group&gt;">
					<g id="&lt;Group&gt;">
						<path id="&lt;Path&gt;" class="s3" d="m1338.5 661.8c0-0.1 0.7 0.3 1.9 0.9q2.1 1.2 5.3 2.9c4.4 2.5 10.5 6 17.2 9.9 6.6 3.9 12.7 7.4 17 10q3.1 1.9 5.1 3.2c1.2 0.7 1.9 1.2 1.8 1.2 0 0.1-0.7-0.3-2-0.9q-2.1-1.2-5.2-2.9c-4.4-2.5-10.5-6-17.2-9.9-6.7-3.9-12.7-7.4-17-10q-3.1-1.9-5.1-3.2c-1.2-0.7-1.9-1.2-1.8-1.2z"/>
					</g>
				</g>
				<g id="&lt;Group&gt;">
					<g id="&lt;Group&gt;">
						<path id="&lt;Path&gt;" class="s3" d="m1385.9 688.9c-0.1 0 0.6-0.5 1.9-1.3q2.2-1.3 5.5-3.3c4.6-2.9 11-6.8 17.9-11.3 7-4.5 13.1-8.7 17.6-11.8q3.2-2.3 5.3-3.7c1.2-0.9 1.9-1.3 2-1.3 0 0.1-0.7 0.6-1.8 1.6-1.2 0.9-3 2.2-5.2 3.9-4.3 3.2-10.4 7.5-17.4 12-6.9 4.6-13.4 8.4-18.1 11.1-2.3 1.3-4.3 2.4-5.6 3.1-1.4 0.7-2.1 1.1-2.1 1z"/>
					</g>
				</g>
			</g>
			<g id="&lt;Group&gt;">
				<g id="&lt;Group&gt;">
					<g id="&lt;Group&gt;">
						<path id="&lt;Path&gt;" class="s3" d="m1419.8 727.9h-62.5l20.4 154.2h21.7z"/>
					</g>
				</g>
				<g id="&lt;Group&gt;">
					<g id="&lt;Group&gt;">
						<g id="&lt;Group&gt;">
							<path id="&lt;Path&gt;" class="s2" d="m1360.6 746.8c0 0 0.1 0.2 0.3 0.6 0.3 0.3 0.8 0.7 1.5 1 1.5 0.7 4.1 0.7 6.6-0.8 2.5-1.4 4.7-4.1 8.1-5.3 3.4-1.3 7.5-1.1 11.5 0.2 4 1.3 7.5 3.3 10.7 5.2 3.2 1.9 6.1 3.6 8.7 4.7 2.6 1.1 4.8 1.6 6.4 1.8q1.2 0.2 1.8 0.1 0.6 0 0.6 0c0.1-0.2-3.5-0.2-8.5-2.6-2.6-1.1-5.4-2.9-8.5-4.8-3.2-1.9-6.8-4.1-10.9-5.3-4.1-1.4-8.5-1.6-12.1-0.2-1.8 0.7-3.3 1.8-4.6 2.8-1.3 1.1-2.4 2.1-3.6 2.8-2.2 1.5-4.6 1.5-6 1.1-1.5-0.5-1.9-1.4-2-1.3z"/>
						</g>
					</g>
				</g>
				<g id="&lt;Group&gt;">
					<g id="&lt;Group&gt;">
						<g id="&lt;Group&gt;">
							<path id="&lt;Path&gt;" class="s2" d="m1362.9 775.2c0 0.1 0.5-0.6 1.4-1.6 1-1 2.7-2.3 5-3.2 2.4-0.9 5.4-1.4 8.7-1.3 3.3 0.1 7 0.8 10.9 1.5 3.8 0.6 7.7 0.9 11.1 0.4 3.4-0.4 6.4-1.4 8.7-2.5 2.4-1 4.1-2.2 5.3-3.1 1.1-0.9 1.7-1.5 1.7-1.5-0.2-0.2-2.6 2-7.3 4-2.3 0.9-5.2 1.8-8.5 2.2-3.4 0.4-7 0.1-10.9-0.5-3.8-0.7-7.5-1.4-11-1.5-3.4 0-6.5 0.6-8.9 1.6-2.5 1-4.1 2.5-5.1 3.6q-0.6 0.9-0.9 1.4-0.3 0.5-0.2 0.5z"/>
						</g>
					</g>
				</g>
				<g id="&lt;Group&gt;">
					<g id="&lt;Group&gt;">
						<g id="&lt;Group&gt;">
							<path id="&lt;Path&gt;" class="s2" d="m1412.7 790.4c0 0-0.6-0.4-1.7-0.9-1.2-0.4-3-0.9-5.2-1.1-2.2-0.2-4.9 0-7.8 0.5-2.9 0.4-6 1.2-9.3 1.9-3.3 0.7-6.5 1.2-9.3 1.1-2.9-0.1-5.4-0.7-7.4-1.6-4-1.8-5.4-4.3-5.6-4.2 0 0 0.2 0.7 1.1 1.6 0.8 1 2.2 2.2 4.2 3.2 2 1 4.7 1.8 7.6 1.9 3 0.2 6.3-0.3 9.6-1 3.3-0.7 6.4-1.5 9.2-2 2.9-0.5 5.5-0.7 7.7-0.7 4.3 0.2 6.8 1.5 6.9 1.3z"/>
						</g>
					</g>
				</g>
				<g id="&lt;Group&gt;">
					<g id="&lt;Group&gt;">
						<g id="&lt;Group&gt;">
							<path id="&lt;Path&gt;" class="s2" d="m1368.4 811.8c0 0.2 2.2-1.4 6-0.6 1.9 0.3 4 1.3 6.4 2.4 2.3 1.1 5.2 2 8.2 2.2 6.1 0.6 11.6-1.4 14.9-3.4 1.8-1.1 2.9-2.1 3.8-2.9 0.7-0.8 1.1-1.3 1.1-1.3-0.2-0.2-1.8 1.7-5.2 3.5-3.4 1.9-8.6 3.7-14.5 3.1-5.9-0.3-10.4-3.9-14.5-4.3-2-0.3-3.7 0-4.7 0.4-1.1 0.4-1.6 0.9-1.5 0.9z"/>
						</g>
					</g>
				</g>
				<g id="&lt;Group&gt;">
					<g id="&lt;Group&gt;">
						<g id="&lt;Group&gt;">
							<path id="&lt;Path&gt;" class="s2" d="m1371.9 841.4c0 0.1 2 0.1 5.2-1 3.1-1.1 7-3.5 11.5-5.3 2.3-0.9 4.6-1.4 6.6-1.4 2.1 0 4 0.5 5.4 1.2 2.9 1.5 3.7 3.5 3.8 3.4 0.1-0.1 0-0.6-0.6-1.3-0.5-0.8-1.4-1.9-2.9-2.7-1.4-0.8-3.4-1.5-5.6-1.5-2.3-0.1-4.7 0.5-7 1.4-4.7 1.8-8.5 4.3-11.5 5.5-3 1.3-5 1.5-4.9 1.7z"/>
						</g>
					</g>
				</g>
				<g id="&lt;Group&gt;">
					<g id="&lt;Group&gt;">
						<g id="&lt;Group&gt;">
							<path id="&lt;Path&gt;" class="s2" d="m1374.9 855.2c0 0.1 1.5 0.6 4 1.3 2.5 0.6 5.9 1.2 9.8 1.6 3.9 0.4 7.5 0.4 10.1 0.3 2.5-0.1 4.1-0.3 4.1-0.5 0-0.3-6.3 0-14.1-0.8-7.7-0.7-13.8-2.2-13.9-1.9z"/>
						</g>
					</g>
				</g>
			</g>
		</g>
		<g id="&lt;Group&gt;">
			<g id="&lt;Group&gt;">
				<path id="&lt;Path&gt;" class="s3" d="m1384.3 295.3h-192.7v-126.7h192.7z"/>
			</g>
			<g id="&lt;Group&gt;">
				<path id="&lt;Path&gt;" class="s1" d="m1377.5 289.7h-179.2v-115.9h179.2z"/>
			</g>
			<g id="&lt;Group&gt;">
				<path id="&lt;Path&gt;" class="s3" d="m1317.2 247.9h-58.5v-31.9h58.5z"/>
			</g>
		</g>
	</g>
	<g id="Floor">
		<g id="&lt;Group&gt;">
			<g id="&lt;Group&gt;">
				<path id="&lt;Path&gt;" class="s4" d="m1438.5 884.1c0 0.3-308.3 0.5-688.5 0.5-380.3 0-688.5-0.2-688.5-0.5 0-0.3 308.2-0.5 688.5-0.5 380.2 0 688.5 0.2 688.5 0.5z"/>
			</g>
		</g>
	</g>
	<g id="Device">
		<g id="&lt;Group&gt;">
			<g id="&lt;Group&gt;">
				<path id="&lt;Path&gt;" class="s0" d="m960.5 502h-380.3v-425.5h412.7v393.1c0 17.9-14.5 32.4-32.4 32.4z"/>
			</g>
			<g id="&lt;Group&gt;">
				<g id="&lt;Group&gt;">
					<g id="&lt;Group&gt;">
						<path id="&lt;Path&gt;" class="s5" d="m958.8 203.1c0 0.9-74.6 1.6-166.6 1.6-92 0-166.6-0.7-166.6-1.6 0-0.8 74.6-1.5 166.6-1.5 92 0 166.6 0.7 166.6 1.5z"/>
					</g>
				</g>
				<g id="&lt;Group&gt;">
					<g id="&lt;Group&gt;">
						<path id="&lt;Path&gt;" class="s5" d="m794.2 232c0 0.8-36.8 1.5-82.3 1.5-45.5 0-82.3-0.7-82.3-1.5 0-0.9 36.8-1.6 82.3-1.6 45.5 0 82.3 0.7 82.3 1.6z"/>
					</g>
				</g>
				<g id="&lt;Group&gt;">
					<g id="&lt;Group&gt;">
						<path id="&lt;Path&gt;" class="s5" d="m860.1 229.3c0 0.9-9.8 1.6-21.8 1.6-12.1 0-21.8-0.7-21.8-1.6 0-0.9 9.7-1.6 21.8-1.6 12 0 21.8 0.7 21.8 1.6z"/>
					</g>
				</g>
				<g id="&lt;Group&gt;">
					<g id="&lt;Group&gt;">
						<path id="&lt;Path&gt;" class="s5" d="m967.7 227.5c0 0.9-19.3 1.6-43.1 1.6-23.9 0-43.2-0.7-43.2-1.6 0-0.8 19.3-1.5 43.2-1.5 23.8 0 43.1 0.7 43.1 1.5z"/>
					</g>
				</g>
				<g id="&lt;Group&gt;">
					<g id="&lt;Group&gt;">
						<path id="&lt;Path&gt;" class="s5" d="m780.5 259.5c0 0.9-34.7 1.6-77.5 1.6-42.7 0-77.4-0.7-77.4-1.6 0-0.8 34.7-1.5 77.4-1.5 42.8 0 77.5 0.7 77.5 1.5z"/>
					</g>
				</g>
				<g id="&lt;Group&gt;">
					<g id="&lt;Group&gt;">
						<path id="&lt;Path&gt;" class="s5" d="m967.7 258.8c0 0.8-37.8 1.5-84.5 1.5-46.7 0-84.5-0.7-84.5-1.5 0-0.9 37.8-1.6 84.5-1.6 46.7 0 84.5 0.7 84.5 1.6z"/>
					</g>
				</g>
				<g id="&lt;Group&gt;">
					<g id="&lt;Group&gt;">
						<path id="&lt;Path&gt;" class="s5" d="m967.7 286.5c0 0.9-16.8 1.6-37.6 1.6-20.8 0-37.7-0.7-37.7-1.6 0-0.9 16.9-1.6 37.7-1.6 20.8 0 37.6 0.7 37.6 1.6z"/>
					</g>
				</g>
			</g>
			<g id="&lt;Group&gt;">
				<g id="&lt;Group&gt;">
					<path id="&lt;Path&gt;" class="s6" d="m812 172.2c0 0.9-40.8 1.6-91.2 1.6-50.4 0-91.2-0.7-91.2-1.6 0-0.8 40.8-1.5 91.2-1.5 50.4 0 91.2 0.7 91.2 1.5z"/>
				</g>
			</g>
		</g>
		<g id="&lt;Group&gt;">
			<g id="&lt;Group&gt;">
				<g id="&lt;Group&gt;">
					<g id="&lt;Group&gt;">
						<g id="&lt;Group&gt;">
							<g id="&lt;Group&gt;">
								<g id="&lt;Group&gt;">
									<path id="&lt;Path&gt;" class="s4" d="m1065.7 881.8h-799c-16.1 0-29.2-13.1-29.2-29.2v-508.6c0-16.1 13.1-29.2 29.2-29.2h799c16.1 0 29.2 13.1 29.2 29.2v508.6c0 16.1-13.1 29.2-29.2 29.2z"/>
								</g>
							</g>
						</g>
						<g id="&lt;Group&gt;">
							<g id="&lt;Group&gt;">
								<g id="&lt;Group&gt;">
									<path id="&lt;Path&gt;" class="s4" d="m1096.1 889.5h-857.6c-19.7 0-35.6-16-35.6-35.6v-14.1h928.8v14.1c0 19.6-15.9 35.6-35.6 35.6z"/>
								</g>
							</g>
						</g>
						<g id="&lt;Group&gt;">
							<g id="&lt;Group&gt;">
								<g id="&lt;Group&gt;">
									<path id="&lt;Path&gt;" class="s5" d="m1070.7 816.1h-809v-478.7h809z"/>
								</g>
							</g>
						</g>
						<g id="&lt;Group&gt;">
							<g id="&lt;Group&gt;">
								<g id="&lt;Group&gt;">
									<g id="&lt;Group&gt;">
										<path id="&lt;Path&gt;" class="s5" d="m582.9 839.8q0 0 0.9 0 1 0 2.7 0c2.5 0 6 0 10.6-0.1 9.2 0 22.6-0.1 39.1-0.1 33.4-0.1 79.6-0.2 131.1-0.3h1l-0.5 0.8c-1.7 2.9-3.4 5.9-5.2 8.9-1.9 3.2-3.7 6.4-5.5 9.5l-0.2 0.2h-0.3c-71.3-0.1-132.1-0.2-162.2-0.3h-0.1l-0.1-0.1c-3.7-6-6.5-10.6-8.5-13.8q-1.4-2.3-2.1-3.5-0.7-1.2-0.7-1.2c0 0 0.3 0.5 0.8 1.3q0.8 1.2 2.3 3.5c1.9 3.1 4.8 7.6 8.6 13.4l-0.2-0.1c30.1 0 90.9-0.1 162.2-0.3l-0.5 0.3c1.8-3 3.6-6.2 5.5-9.4 1.8-3.1 3.6-6.1 5.2-8.9l0.5 0.8c-51.3-0.1-97.3-0.2-130.5-0.3-16.6 0-30.1-0.1-39.4-0.1-4.6-0.1-8.2-0.1-10.7-0.1q-1.8 0-2.8 0c-0.7 0-1-0.1-1-0.1z"/>
									</g>
								</g>
							</g>
						</g>
					</g>
				</g>
			</g>
			<g id="&lt;Group&gt;">
				<g id="&lt;Group&gt;">
					<path id="&lt;Path&gt;" class="s4" d="m237.5 839.8h857.4"/>
				</g>
				<g id="&lt;Group&gt;">
					<g id="&lt;Group&gt;">
						<path id="&lt;Path&gt;" class="s5" d="m1094.9 839.8c0 0.3-192 0.6-428.7 0.6-236.8 0-428.7-0.3-428.7-0.6 0-0.2 191.9-0.5 428.7-0.5 236.7 0 428.7 0.3 428.7 0.5z"/>
					</g>
				</g>
			</g>
		</g>
		<g id="&lt;Group&gt;">
			<g id="&lt;Group&gt;">
				<path id="&lt;Path&gt;" class="s4" d="m876.1 241.7c13.2 0 23.9 10.8 23.9 24v49.1h-71.6v-45.3c0-15.3 12.4-27.8 27.8-27.8z"/>
			</g>
			<g id="&lt;Group&gt;">
				<g id="&lt;Group&gt;">
					<path id="&lt;Path&gt;" class="s4" d="m876.1 241.7c0 0.3-67.6 0.5-150.9 0.4-83.4 0-150.9-0.3-150.9-0.6 0-0.3 67.5-0.5 150.9-0.4 83.3 0.1 150.9 0.4 150.9 0.6z"/>
				</g>
			</g>
			<g id="&lt;Group&gt;">
				<path id="&lt;Path&gt;" class="s1" d="m875.4 241.7l-29.8-0.2-43.4 0.2h-318.7c-27.1 0-49 22-49 49v517.5 9.1h412.7v-548.7c1.2-26.9 28.2-26.9 28.2-26.9z"/>
			</g>
			<g id="&lt;Group&gt;">
				<path id="&lt;Compound Path&gt;" fill-rule="evenodd" class="s4" d="m875.4 241.7c-3 0.1-6.1 0.7-9 1.6-3 0.9-5.8 2.3-8.3 4-5.2 3.5-8.6 9.1-9.9 15.1-0.5 1.4-0.5 3-0.7 4.5-0.2 1.5-0.2 3.1-0.2 4.6v9.3l0.1 18.5 0.1 74 0.3 148 0.1 296 0.1 0.7h-0.8l-412.7 0.3h-1v-1l0.3-497.7c0.1-10.4-0.1-20.7 0.2-31.2 0-2.6 0.5-5.2 0.9-7.8l1-3.8c0.3-1.3 0.9-2.5 1.3-3.7 1.9-4.9 4.5-9.5 7.8-13.6 6.7-8.1 15.8-14.2 26-16.7 2.6-0.8 5.2-1.1 7.8-1.4 2.6-0.2 5.2-0.3 7.8-0.2h15.6l124.4 0.1zm0 0l-248.9 0.5-124.4 0.1h-15.6c-2.6 0-5.1 0.1-7.7 0.2-2.5 0.4-5.1 0.7-7.5 1.4-10 2.5-18.9 8.5-25.4 16.4-3.3 3.9-5.8 8.5-7.6 13.2-0.4 1.2-1 2.4-1.2 3.6l-1 3.8c-0.4 2.5-0.9 5-0.9 7.6-0.2 10.3 0 20.7-0.1 31l0.3 496.8 411 0.2 0.2-295.2 0.3-148 0.1-74 0.1-18.5v-9.3c0-1.5-0.1-3.1 0.2-4.6 0.2-1.5 0.2-3.1 0.7-4.6 1.4-6 4.8-11.6 10-15.1 2.5-1.7 5.3-3.1 8.3-4 2.9-0.9 6-1.4 9.1-1.5zm-440 574.6h-0.9l0.9 1zm411 0.2v0.8l0.8-0.8z"/>
			</g>
			<g id="&lt;Group&gt;">
				<path id="&lt;Compound Path&gt;" class="s6" d="m496.7 336.5h72l0.1 24.1h-3.4q-1.7-12.9-9.7-17.5-4.5-2.5-13.5-2.8v63q0 6.7 2.3 8.8 2.4 2.2 9.7 2.2v3h-42.7v-3q7 0 9.3-2.2 2.3-2.2 2.3-8.8v-63q-8.7 0.3-13.4 2.8-8.6 4.7-9.7 17.5h-3.4z"/>
			</g>
			<g id="&lt;Group&gt;">
				<g id="&lt;Group&gt;">
					<path id="&lt;Path&gt;" class="s6" d="m790.6 341.9c0 0.9-39.7 1.6-88.7 1.6-49 0-88.8-0.7-88.8-1.6 0-0.8 39.8-1.5 88.8-1.5 49 0 88.7 0.7 88.7 1.5z"/>
				</g>
			</g>
			<g id="&lt;Group&gt;">
				<g id="&lt;Group&gt;">
					<path id="&lt;Path&gt;" class="s5" d="m685.3 370.3c0 0.8-15.4 1.5-34.3 1.5-18.9 0-34.3-0.7-34.3-1.5 0-0.9 15.4-1.6 34.3-1.6 18.9 0 34.3 0.7 34.3 1.6z"/>
				</g>
			</g>
			<g id="&lt;Group&gt;">
				<g id="&lt;Group&gt;">
					<path id="&lt;Path&gt;" class="s5" d="m598.8 456.8c0 0.8-29.1 1.5-65.1 1.5-36 0-65.2-0.7-65.2-1.5 0-0.9 29.2-1.6 65.2-1.6 36 0 65.1 0.7 65.1 1.6z"/>
				</g>
			</g>
			<g id="&lt;Group&gt;">
				<g id="&lt;Group&gt;">
					<path id="&lt;Path&gt;" class="s6" d="m746.4 456.8c0 0.8-29.2 1.5-65.2 1.5-36 0-65.1-0.7-65.1-1.5 0-0.9 29.1-1.6 65.1-1.6 36 0 65.2 0.7 65.2 1.6z"/>
				</g>
			</g>
			<g id="&lt;Group&gt;">
				<g id="&lt;Group&gt;">
					<path id="&lt;Path&gt;" class="s5" d="m598.8 479.9c0 0.8-29.1 1.5-65.1 1.5-36 0-65.2-0.7-65.2-1.5 0-0.9 29.2-1.6 65.2-1.6 36 0 65.1 0.7 65.1 1.6z"/>
				</g>
			</g>
			<g id="&lt;Group&gt;">
				<g id="&lt;Group&gt;">
					<path id="&lt;Path&gt;" class="s6" d="m598.8 503c0 0.8-29.1 1.5-65.1 1.5-36 0-65.2-0.7-65.2-1.5 0-0.9 29.2-1.6 65.2-1.6 36 0 65.1 0.7 65.1 1.6z"/>
				</g>
			</g>
			<g id="&lt;Group&gt;">
				<g id="&lt;Group&gt;">
					<path id="&lt;Path&gt;" class="s5" d="m685.3 417.3c0 0.9-15.4 1.6-34.3 1.6-18.9 0-34.3-0.7-34.3-1.6 0-0.8 15.4-1.5 34.3-1.5 18.9 0 34.3 0.7 34.3 1.5z"/>
				</g>
			</g>
			<g id="&lt;Group&gt;">
				<g id="&lt;Group&gt;">
					<path id="&lt;Path&gt;" class="s5" d="m804.3 456.8c0 0.8-10.2 1.5-22.9 1.5-12.6 0-22.8-0.7-22.8-1.5 0-0.9 10.2-1.6 22.8-1.6 12.7 0 22.9 0.7 22.9 1.6z"/>
				</g>
			</g>
			<g id="&lt;Group&gt;">
				<g id="&lt;Group&gt;">
					<path id="&lt;Path&gt;" class="s5" d="m816.5 370.3c0 0.8-26.3 1.5-58.8 1.5-32.5 0-58.9-0.7-58.9-1.5 0-0.9 26.4-1.6 58.9-1.6 32.5 0 58.8 0.7 58.8 1.6z"/>
				</g>
			</g>
			<g id="&lt;Group&gt;">
				<g id="&lt;Group&gt;">
					<path id="&lt;Path&gt;" class="s5" d="m811.2 392.8c0 0.9-43.5 1.6-97.2 1.6-53.8 0-97.3-0.7-97.3-1.6 0-0.9 43.5-1.6 97.3-1.6 53.7 0 97.2 0.7 97.2 1.6z"/>
				</g>
			</g>
			<g id="&lt;Group&gt;">
				<g id="&lt;Group&gt;">
					<path id="&lt;Path&gt;" class="s5" d="m804.3 479.9c0 0.8-42.1 1.5-94.1 1.5-52 0-94.1-0.7-94.1-1.5 0-0.9 42.1-1.6 94.1-1.6 52 0 94.1 0.7 94.1 1.6z"/>
				</g>
			</g>
			<g id="&lt;Group&gt;">
				<g id="&lt;Group&gt;">
					<path id="&lt;Path&gt;" class="s6" d="m804.3 546.7c0 0.9-39.5 1.6-88.3 1.6-48.8 0-88.3-0.7-88.3-1.6 0-0.8 39.5-1.5 88.3-1.5 48.8 0 88.3 0.7 88.3 1.5z"/>
				</g>
			</g>
			<g id="&lt;Group&gt;">
				<g id="&lt;Group&gt;">
					<path id="&lt;Path&gt;" class="s5" d="m804.3 569.2c0 0.9-39.5 1.6-88.3 1.6-48.8 0-88.3-0.7-88.3-1.6 0-0.9 39.5-1.6 88.3-1.6 48.8 0 88.3 0.7 88.3 1.6z"/>
				</g>
			</g>
			<g id="&lt;Group&gt;">
				<g id="&lt;Group&gt;">
					<path id="&lt;Path&gt;" class="s5" d="m804.3 591.7c0 0.8-39.5 1.5-88.3 1.5-48.8 0-88.3-0.7-88.3-1.5 0-0.9 39.5-1.6 88.3-1.6 48.8 0 88.3 0.7 88.3 1.6z"/>
				</g>
			</g>
			<g id="&lt;Group&gt;">
				<g id="&lt;Group&gt;">
					<path id="&lt;Path&gt;" class="s5" d="m804.3 614.2c0 0.8-39.5 1.5-88.3 1.5-48.8 0-88.3-0.7-88.3-1.5 0-0.9 39.5-1.6 88.3-1.6 48.8 0 88.3 0.7 88.3 1.6z"/>
				</g>
			</g>
			<g id="&lt;Group&gt;">
				<g id="&lt;Group&gt;">
					<path id="&lt;Path&gt;" class="s5" d="m729.4 636.6c0 0.5-5.7 0.9-14.9 1.1-9.2 0.3-21.9 0.5-36 0.5-14 0-26.7-0.2-35.9-0.5-9.2-0.2-14.9-0.6-14.9-1.1 0-0.4 5.7-0.8 14.9-1.1 9.2-0.2 21.9-0.4 35.9-0.4 14.1 0 26.8 0.2 36 0.4 9.2 0.3 14.9 0.7 14.9 1.1z"/>
				</g>
			</g>
			<g id="&lt;Group&gt;">
				<g id="&lt;Group&gt;">
					<path id="&lt;Path&gt;" class="s5" d="m772.3 504.2c0 0.8-34.1 1.5-76.1 1.5-42 0-76-0.7-76-1.5 0-0.9 34-1.6 76-1.6 42 0 76.1 0.7 76.1 1.6z"/>
				</g>
			</g>
			<g id="&lt;Group&gt;">
				<g id="&lt;Group&gt;">
					<g id="&lt;Group&gt;">
						<g id="&lt;Group&gt;">
							<path id="&lt;Path&gt;" class="s3" d="m595.7 549.3l9.4 173.5-169.6 21.2-0.2-196.2z"/>
						</g>
					</g>
				</g>
				<g id="&lt;Group&gt;">
					<g id="&lt;Group&gt;">
						<g id="&lt;Group&gt;">
							<path id="&lt;Path&gt;" class="s2" d="m606.3 538.7l-1.2 184.1-230.2-1.5 1.2-184.1z"/>
						</g>
					</g>
				</g>
				<g id="&lt;Group&gt;">
					<path id="&lt;Path&gt;" class="s6" d="m382.9 709.8l214.1 1.3 1-160.9-214.1-1.3z"/>
				</g>
				<g id="&lt;Group&gt;" style="opacity: .2">
					<path id="&lt;Path&gt;" class="s7" d="m382.9 709.8l75.4-99.6 45.9 62.9 31.6-33.3 61.2 71.3z"/>
				</g>
				<g id="&lt;Group&gt;" style="opacity: .2">
					<g id="&lt;Group&gt;">
						<g id="&lt;Group&gt;">
							<path id="&lt;Path&gt;" class="s7" d="m524.3 598.4c0 9.3-7.6 16.8-16.9 16.7-9.3 0-16.8-7.6-16.8-16.9 0.1-9.3 7.7-16.8 17-16.8 9.3 0.1 16.8 7.7 16.7 17z"/>
						</g>
					</g>
				</g>
			</g>
			<g id="&lt;Group&gt;">
				<g id="&lt;Group&gt;">
					<path id="&lt;Path&gt;" class="s4" d="m627.3 766.2c0 2-1.6 3.6-3.6 3.6-1.9 0-3.5-1.6-3.5-3.6 0-2 1.6-3.6 3.5-3.6 2 0 3.6 1.6 3.6 3.6z"/>
				</g>
				<g id="&lt;Group&gt;">
					<path id="&lt;Path&gt;" class="s4" d="m648.4 766.2c0 2-1.6 3.6-3.5 3.6-2 0-3.6-1.6-3.6-3.6 0-2 1.6-3.6 3.6-3.6 1.9 0 3.5 1.6 3.5 3.6z"/>
				</g>
				<g id="&lt;Group&gt;">
					<path id="&lt;Path&gt;" class="s4" d="m669.5 766.2c0 2-1.6 3.6-3.5 3.6-2 0-3.6-1.6-3.6-3.6 0-2 1.6-3.6 3.6-3.6 1.9 0 3.5 1.6 3.5 3.6z"/>
				</g>
			</g>
			<g id="&lt;Group&gt;">
				<g id="&lt;Group&gt;">
					<path id="&lt;Path&gt;" class="s6" d="m747.4 683.5c0 0.8-29.2 1.5-65.2 1.5-36 0-65.1-0.7-65.1-1.5 0-0.9 29.1-1.6 65.1-1.6 36 0 65.2 0.7 65.2 1.6z"/>
				</g>
			</g>
			<g id="&lt;Group&gt;">
				<g id="&lt;Group&gt;">
					<path id="&lt;Path&gt;" class="s5" d="m805.3 706.6c0 0.8-42.1 1.5-94.1 1.5-52 0-94.1-0.7-94.1-1.5 0-0.9 42.1-1.6 94.1-1.6 52 0 94.1 0.7 94.1 1.6z"/>
				</g>
			</g>
		</g>
	</g>
	<g id="Box">
		<g id="&lt;Group&gt;">
			<g id="&lt;Group&gt;">
				<g id="&lt;Group&gt;">
					<g id="&lt;Group&gt;">
						<g id="&lt;Group&gt;">
							<path id="&lt;Path&gt;" class="s2" d="m1358.1 745.9l-0.7 110.9-138.7-0.9 0.7-110.8z"/>
						</g>
					</g>
				</g>
				<path id="&lt;Path&gt;" class="s6" d="m1223.5 849l128.9 0.8 0.7-96.9-129-0.8z"/>
				<path id="&lt;Path&gt;" class="s8" d="m1223.5 849l45.4-60 27.7 37.9 19-20 36.8 42.9z"/>
				<g id="&lt;Group&gt;" style="opacity: .2">
					<g id="&lt;Group&gt;">
						<path id="&lt;Path&gt;" class="s7" d="m1308.7 781.9c0 5.6-4.6 10.1-10.2 10.1-5.6 0-10.1-4.6-10.1-10.2 0-5.6 4.6-10.1 10.2-10.1 5.6 0 10.2 4.6 10.1 10.2z"/>
					</g>
				</g>
			</g>
			<g id="&lt;Group&gt;">
				<g id="&lt;Group&gt;">
					<g id="&lt;Group&gt;">
						<g id="&lt;Group&gt;">
							<path id="&lt;Path&gt;" class="s2" d="m1337.7 734.4l-0.7 110.8-138.7-0.8 0.8-110.9z"/>
						</g>
					</g>
				</g>
				<path id="&lt;Path&gt;" class="s6" d="m1203.2 837.4l128.9 0.8 0.6-96.9-128.9-0.8z"/>
				<path id="&lt;Path&gt;" class="s8" d="m1203.2 837.4l45.4-59.9 27.6 37.8 19.1-20 36.8 42.9z"/>
				<g id="&lt;Group&gt;" style="opacity: .2">
					<g id="&lt;Group&gt;">
						<path id="&lt;Path&gt;" class="s7" d="m1288.4 770.3c-0.1 5.6-4.6 10.2-10.2 10.1-5.6 0-10.2-4.6-10.1-10.2 0-5.6 4.6-10.1 10.2-10.1 5.6 0 10.1 4.6 10.1 10.2z"/>
					</g>
				</g>
			</g>
			<g id="&lt;Group&gt;">
				<g id="&lt;Group&gt;">
					<g id="&lt;Group&gt;">
						<g id="&lt;Group&gt;">
							<path id="&lt;Path&gt;" class="s2" d="m1319.6 724.8l-0.7 110.9-138.7-0.9 0.7-110.9z"/>
						</g>
					</g>
				</g>
				<path id="&lt;Path&gt;" class="s6" d="m1185.1 827.8l128.9 0.9 0.6-96.9-128.9-0.9z"/>
				<path id="&lt;Path&gt;" class="s8" d="m1185.1 827.8l45.4-59.9 27.6 37.9 19.1-20.1 36.8 43z"/>
				<g id="&lt;Group&gt;" style="opacity: .2">
					<g id="&lt;Group&gt;">
						<path id="&lt;Path&gt;" class="s7" d="m1270.3 760.8c-0.1 5.6-4.6 10.1-10.3 10-5.6 0-10.1-4.6-10-10.2 0-5.6 4.6-10.1 10.2-10.1 5.6 0.1 10.1 4.7 10.1 10.3z"/>
					</g>
				</g>
			</g>
			<g id="&lt;Group&gt;">
				<g id="&lt;Group&gt;">
					<g id="&lt;Group&gt;">
						<g id="&lt;Group&gt;">
							<path id="&lt;Path&gt;" class="s2" d="m1299.3 736.7l-0.7 110.9-138.7-0.9 0.7-110.9z"/>
						</g>
					</g>
				</g>
				<path id="&lt;Path&gt;" class="s5" d="m1164.7 839.7l129 0.9 0.6-96.9-129-0.9z"/>
				<path id="&lt;Path&gt;" class="s8" d="m1164.7 839.7l45.4-59.9 27.7 37.9 19-20.1 36.9 43z"/>
				<g id="&lt;Group&gt;" style="opacity: .2">
					<g id="&lt;Group&gt;">
						<path id="&lt;Path&gt;" class="s7" d="m1249.9 772.7c0 5.6-4.6 10.1-10.2 10.1-5.6-0.1-10.1-4.7-10.1-10.3 0.1-5.6 4.6-10.1 10.2-10 5.6 0 10.2 4.6 10.1 10.2z"/>
					</g>
				</g>
			</g>
			<g id="&lt;Group&gt;">
				<path id="&lt;Path&gt;" class="s4" d="m1379.4 884.1h-80.1v-107h80.1z"/>
				<path id="&lt;Compound Path&gt;" fill-rule="evenodd" class="s6" d="m1306.1 777.1v107h-160.2v-107zm-55.6 17.9c0-4.1-3.3-7.3-7.4-7.3h-34.1c-4 0-7.3 3.2-7.3 7.3 0 4.1 3.3 7.4 7.3 7.4h34.1c4.1 0 7.4-3.3 7.4-7.4z"/>
			</g>
		</g>
	</g>
	<g id="Character">
		<g id="&lt;Group&gt;">
			<g id="&lt;Group&gt;">
				<g id="&lt;Group&gt;">
					<g id="&lt;Group&gt;">
						<path id="&lt;Path&gt;" class="s5" d="m1042.1 872.9l-148.9-9.1c-0.9-2.1-1.6-3.4-1.6-3.4l-40.3 0.8-13.2-0.8c0 0-0.2 0.4-0.5 1.1l-135.5 2.7c-27 0-55.4 16.5-55.4 37.5-0.3 20.1 9.4 41.8 33.6 41.3l184.6-0.6 184.6 0.6c24.2 0.5 30.6-14.1 30.6-31.4 2.8-32.2-17.4-38.4-38-38.7z"/>
					</g>
					<g id="&lt;Group&gt;">
						<g id="&lt;Group&gt;">
							<path id="&lt;Path&gt;" class="s4" d="m697.2 943.1q0-0.1 0.9-0.1 1 0 2.6 0c2.4-0.1 5.8-0.1 10.1-0.1 8.8-0.1 21.4-0.1 37.1-0.2 31.5 0 75.2-0.1 124-0.2l-0.5 0.6c-0.3-4.1-0.6-8.4-0.8-12.8-0.6-8.9-1.1-17.7-1.7-26l0.5 0.5c-45.3-5.1-85.4-9.5-114.2-12.8-14.3-1.6-25.8-2.9-33.8-3.8q-5.9-0.7-9.1-1.1-1.5-0.2-2.4-0.3-0.8-0.1-0.8-0.2 0 0 0.8 0.1 0.9 0.1 2.4 0.2 3.2 0.3 9.1 0.9c8 0.8 19.5 2.1 33.9 3.6 28.8 3.1 68.9 7.4 114.2 12.3l0.4 0.1 0.1 0.4c0.5 8.4 1 17.1 1.6 26.1 0.3 4.3 0.5 8.7 0.8 12.7v0.6h-0.5c-48.8-0.1-92.5-0.1-124-0.2-15.7-0.1-28.3-0.1-37.1-0.2-4.3 0-7.7 0-10.1 0q-1.6-0.1-2.6-0.1-0.9 0-0.9 0z"/>
						</g>
					</g>
					<g id="&lt;Group&gt;">
						<g id="&lt;Group&gt;">
							<path id="&lt;Path&gt;" class="s4" d="m735.3 890.1c-0.1 0.1-2-1.4-5.2-3.3-3.3-2-8-4.4-13.6-6-5.6-1.6-10.8-2.1-14.6-2.2-3.8 0-6.2 0.3-6.2 0.1 0-0.1 0.5-0.2 1.6-0.4 1.1-0.2 2.6-0.3 4.6-0.4 3.8-0.1 9.2 0.3 14.9 1.9 5.7 1.6 10.5 4.2 13.7 6.3 1.6 1.1 2.8 2.1 3.6 2.8 0.8 0.7 1.2 1.1 1.2 1.2z"/>
						</g>
					</g>
					<g id="&lt;Group&gt;">
						<g id="&lt;Group&gt;">
							<path id="&lt;Path&gt;" class="s4" d="m1030.5 882.2c0.1 0.3-29.3 7.4-65.5 15.8-36.3 8.5-65.8 15.2-65.9 14.9 0-0.3 29.3-7.4 65.6-15.9 36.3-8.5 65.8-15.1 65.8-14.8z"/>
						</g>
					</g>
					<g id="&lt;Group&gt;">
						<g id="&lt;Group&gt;">
							<path id="&lt;Path&gt;" class="s4" d="m1005.7 879.3c0.1 0.3-5.7 1.5-11.5 5.5-5.9 4-9.1 8.9-9.3 8.7-0.2-0.1 0.5-1.4 2-3.3 1.4-1.8 3.7-4.2 6.7-6.2 3-2.1 6.1-3.4 8.3-4 2.3-0.7 3.8-0.8 3.8-0.7z"/>
						</g>
					</g>
				</g>
				<g id="&lt;Group&gt;">
					<path id="&lt;Path&gt;" class="s9" d="m950.3 710.2l47.2 82.1c5.8 10.2 6.1 22.6 0.9 33-6.1 12.2-18.6 19.7-32.2 19.3l-72.4-2-1.9-26.4 63.8-12.2-43-74.4z"/>
				</g>
				<g id="&lt;Group&gt;">
					<path id="&lt;Path&gt;" class="s9" d="m774.5 850.8l66.6 17.6 1.4-20-61.3-35.6 44.8-83.2-37.6-19.4-47.2 82.1c-11.4 21.3-0.8 47.6 22.2 54.9z"/>
				</g>
				<g id="&lt;Group&gt;">
					<path id="&lt;Path&gt;" class="s6" d="m930.3 763l45.5-24c0 0-7.6-16-19.5-32.5-14.1-19.5-36-33.2-60.8-38.4q0 0 0 0l-52.4 0.7c-7.4 0.8-13.6 2.2-18.7 4.3l0.1-0.2c-28.4 6.2-60 68.2-60 68.2l41.5 21.8 0.9 6.5c1.2 8.6 4.9 16.7 10.8 23.2l-12.1 79.4 134.5 2.8-17.2-56.9z"/>
				</g>
				<g id="&lt;Group&gt;">
					<g id="&lt;Group&gt;">
						<path id="&lt;Path&gt;" class="s4" d="m818.9 793.1c0 0-0.8-0.5-2-1.5-1.2-1.1-2.9-2.8-4.6-5.2-3.4-4.6-6.4-12.6-5.6-21.6 0.6-4.4 1.9-8.4 3.1-12 1.2-3.7 2.4-6.9 3.5-9.5 1-2.7 2-4.9 2.6-6.3 0.7-1.5 1.1-2.3 1.2-2.2 0 0-0.2 0.8-0.8 2.3q-0.9 2.6-2.3 6.4c-1 2.7-2.2 5.9-3.3 9.6-1.1 3.6-2.4 7.6-3 11.8-0.4 4.3 0.2 8.5 1.2 12.1 0.9 3.6 2.5 6.7 4 9 3.2 4.8 6.2 6.9 6 7.1z"/>
					</g>
				</g>
				<g id="&lt;Group&gt;">
					<g id="&lt;Group&gt;">
						<path id="&lt;Path&gt;" class="s4" d="m798.7 891.1l-7.6-88.5h163.8l-10.8 89.6z"/>
					</g>
					<g id="&lt;Group&gt;">
						<path id="&lt;Path&gt;" class="s1" d="m883.5 849.8c0 5.8-4.7 10.5-10.5 10.5-5.7 0-10.4-4.7-10.4-10.5 0-5.7 4.7-10.4 10.4-10.4 5.8 0 10.5 4.7 10.5 10.4z"/>
					</g>
				</g>
				<g id="&lt;Group&gt;">
					<g id="&lt;Group&gt;">
						<path id="&lt;Path&gt;" class="s9" d="m870.2 908.4l27.8 3.9v30.2l-25.6-0.6z"/>
					</g>
					<g id="&lt;Group&gt;">
						<g id="&lt;Group&gt;">
							<path id="&lt;Path&gt;" class="s6" d="m898 912.3h12.5c2.4 0 4.8 0.6 6.9 1.9l6.6 3.8c2.2 1.2 9.1 4.7 11.5 5.5 7.6 2.4 20.4 5.7 23.1 7.8 7.7 5.9 5.3 12.9 1.1 13.6-3.7 0.7-61.7-2.4-61.7-2.4z"/>
						</g>
						<g id="&lt;Group&gt;">
							<g id="&lt;Group&gt;">
								<path id="&lt;Path&gt;" class="s4" d="m918.5 940c-0.3 0.1-1.2-3.4-1.3-7.8-0.2-4.5 0.6-8 0.8-7.9 0.3 0 0.1 3.5 0.2 7.8 0.1 4.4 0.6 7.9 0.3 7.9z"/>
							</g>
						</g>
						<g id="&lt;Group&gt;">
							<g id="&lt;Group&gt;">
								<path id="&lt;Path&gt;" class="s4" d="m924.4 939.9c-0.3 0-0.5-3.3-0.4-7.2 0-4 0.3-7.3 0.6-7.3 0.2 0 0.4 3.3 0.4 7.3 0 3.9-0.3 7.2-0.6 7.2z"/>
							</g>
						</g>
						<g id="&lt;Group&gt;">
							<g id="&lt;Group&gt;">
								<path id="&lt;Path&gt;" class="s4" d="m931.4 941.1c-0.2 0-0.7-3.3-1.1-7.4-0.3-4.1-0.3-7.5 0-7.5 0.3 0 0.8 3.3 1.1 7.4 0.3 4.1 0.3 7.4 0 7.5z"/>
							</g>
						</g>
						<g id="&lt;Group&gt;">
							<g id="&lt;Group&gt;">
								<path id="&lt;Path&gt;" class="s4" d="m913.1 932c0 0-1-0.1-2.6-0.8-1.6-0.7-3.8-1.9-6.2-3.9q-0.9-0.7-1.8-1.7c-0.6-0.6-1.2-1.3-1.6-2.2-0.4-0.9-0.4-2.2 0.4-3.1 0.3-0.5 0.9-0.8 1.5-0.9 0.6 0 1.2 0.1 1.7 0.2 4 1.4 7.5 5.4 8.2 10.3 0.6 4.9-2.1 9.6-5.6 11.9-0.9 0.5-1.8 1.1-2.9 1.3-0.5 0-1 0.1-1.6-0.1-0.5-0.2-1-0.6-1.2-1.1-0.5-1.1-0.1-2.2 0.3-2.9 0.5-0.8 1.1-1.4 1.6-1.9 2.3-2.2 4.6-3.4 6.2-4.1 1.6-0.6 2.5-0.8 2.6-0.7 0 0.1-0.9 0.4-2.5 1.1-1.5 0.7-3.6 2-5.8 4.2-0.5 0.5-1 1.1-1.4 1.8-0.3 0.6-0.6 1.5-0.3 2.1 0.3 0.6 1.1 0.8 2 0.7 0.8-0.2 1.7-0.7 2.5-1.2 3.2-2.2 5.6-6.5 5-11-0.5-4.5-3.8-8.2-7.4-9.5-0.9-0.3-1.8-0.2-2.2 0.4-0.5 0.5-0.6 1.5-0.3 2.2 0.6 1.5 2 2.6 3.1 3.7 4.6 4 8.4 5 8.3 5.2z"/>
							</g>
						</g>
					</g>
					<g id="&lt;Group&gt;">
						<g id="&lt;Group&gt;">
							<path id="&lt;Path&gt;" class="s4" d="m959.7 944.9c-0.1 0 0.9-0.4 1.5-1.9 0.8-1.3 0.6-3.8-0.8-6.3-1.3-2.4-4.2-4.5-7.7-5.8-3.5-1.3-7.7-1.9-12-3.2-8.5-2.5-15.8-6.3-20.7-9.4-2.4-1.6-4.3-3-5.6-4-1.3-1-1.9-1.6-1.9-1.6 0.1-0.1 0.8 0.4 2.2 1.3 1.3 0.9 3.2 2.2 5.7 3.7 5 2.9 12.2 6.5 20.6 9 4.2 1.3 8.4 1.9 12 3.3 3.7 1.4 6.7 3.7 8.1 6.4 1.4 2.6 1.4 5.4 0.5 6.8-0.4 0.8-0.9 1.2-1.3 1.5q-0.5 0.3-0.6 0.2z"/>
						</g>
					</g>
				</g>
				<g id="&lt;Group&gt;">
					<g id="&lt;Group&gt;">
						<path id="&lt;Path&gt;" class="s2" d="m940.8 689.9q0 0 0 0.4 0 0.5-0.1 1.2-0.2 1.8-0.4 4.9c-0.5 4.3-1.1 10.4-1.9 18.1v0.5l-0.4-0.2c-6.7-3.5-14.9-7.9-24.2-12.7l0.6-0.2c-4 6.7-8.4 14.2-13.1 22.1l-0.3 0.5-0.4-0.3c-6.9-5.3-14.4-11-22.1-17h0.6c-3.1 2.4-6.3 5-9.6 7.6q-6.7 5.2-13.1 10.2l-0.5 0.4-0.3-0.5c-4.3-8.1-8.5-15.8-12.5-23.1l0.6 0.2c-9.6 4.3-18.5 8.2-26.4 11.8l-0.5 0.2-0.1-0.5c-1.6-9.1-2.9-17-4-23.6l0.4 0.2c-6.5 2.5-11.6 4.5-15.2 5.8q-2.5 1-4 1.5-0.6 0.2-1.1 0.4-0.3 0.1-0.3 0.1 0 0 0.3-0.2 0.4-0.2 1-0.4 1.5-0.6 4-1.7c3.6-1.4 8.7-3.4 15.1-6l0.3-0.1 0.1 0.3c1.2 6.6 2.6 14.5 4.2 23.5l-0.6-0.3c8-3.6 16.8-7.6 26.4-11.9l0.5-0.2 0.2 0.4c3.9 7.3 8.1 15 12.5 23.1l-0.8-0.2q6.5-5 13.2-10.2c3.2-2.6 6.5-5.2 9.6-7.6l0.3-0.2 0.3 0.2c7.7 6 15.2 11.7 22.1 17l-0.8 0.1c4.8-7.9 9.2-15.3 13.3-22l0.2-0.4 0.3 0.2c9.2 5 17.4 9.3 24.1 12.9l-0.5 0.3c0.9-7.7 1.6-13.9 2.1-18.2q0.4-3 0.6-4.8 0.1-0.7 0.2-1.2 0.1-0.4 0.1-0.4z"/>
					</g>
				</g>
				<g id="&lt;Group&gt;">
					<g id="&lt;Group&gt;">
						<path id="&lt;Path&gt;" class="s2" d="m960.2 712.1q0 0-0.1 0.6-0.1 0.7-0.4 1.7-0.6 2.3-1.7 6.6c-1.6 5.7-3.8 14-6.6 24.3l-0.1 0.4-0.3-0.2c-8.1-3.8-17.6-8.4-28.3-13.5l0.6-0.2c-7.2 10.3-15.2 21.7-23.8 33.9l-0.3 0.5-0.4-0.4c-7.3-7.4-15-15.2-22.9-23.2q-2.4-2.4-4.8-4.8h0.7c-10.7 6.8-21.1 13.2-30.8 19.3l-0.4 0.3-0.3-0.4c-5.9-10.5-11.5-20.4-16.6-29.3l0.5 0.2c-12.1 4.2-22.8 7.8-31.6 10.9l-0.3 0.1-0.1-0.3c-3-8.7-5.4-15.6-7-20.4q-1.2-3.5-1.9-5.4-0.2-0.9-0.4-1.4-0.2-0.5-0.1-0.5 0 0 0.2 0.5 0.2 0.5 0.5 1.3 0.7 1.9 2 5.4c1.7 4.7 4.2 11.6 7.3 20.3l-0.4-0.2c8.7-3.1 19.4-6.9 31.5-11.2l0.4-0.1 0.2 0.3c5.1 9 10.7 18.8 16.7 29.3l-0.7-0.2c9.7-6.1 20-12.6 30.7-19.3l0.4-0.3 0.3 0.3q2.3 2.5 4.8 4.9c7.9 8 15.5 15.8 22.8 23.2h-0.8c8.6-12.1 16.6-23.5 23.9-33.8l0.2-0.3 0.3 0.2c10.6 5.1 20.2 9.8 28.1 13.7l-0.4 0.2c2.9-10.3 5.2-18.5 6.8-24.2q1.2-4.2 1.9-6.5 0.3-1.1 0.5-1.7 0.2-0.6 0.2-0.6z"/>
					</g>
				</g>
			</g>
			<g id="&lt;Group&gt;">
				<g id="&lt;Group&gt;">
					<path id="&lt;Path&gt;" class="s4" d="m940.1 572.6c-8 0.9-16.4-1.7-22.4-7 7.3 3.6 17-1.4 19.6-9.2 2.5-7.7 0.4-22.1-5.9-27.2-6.1-4.9-14.5-6.8-22-4.8-7.5 2-15.4 13.5-17.9 20.8l0.1 0.2q-1.7-0.6-3.4-1.2c-8.3-2.8-17.2-4.2-25.9-3.2-8.7 1-17.3 4.5-23.7 10.4l50.9 81.8c9.2-0.8 17.4-7.1 22.2-15 4.9-7.9 6.7-17.3 7.2-26.5q0.1-3.5 0-7.1 8.2 1.3 16.3 2.7c-2.9-4-6.6-7.3-10.8-9.8 5.5 2.1 12.3 0 15.7-4.9z"/>
				</g>
				<g id="&lt;Group&gt;">
					<g id="&lt;Group&gt;">
						<g id="&lt;Group&gt;">
							<g id="&lt;Group&gt;">
								<g id="&lt;Group&gt;">
									<g id="&lt;Group&gt;">
										<g id="&lt;Group&gt;">
											<g id="&lt;Group&gt;">
												<g id="&lt;Group&gt;">
													<g id="&lt;Group&gt;">
														<g id="&lt;Group&gt;">
															<g id="&lt;Group&gt;">
																<g id="&lt;Group&gt;">
																	<path id="&lt;Path&gt;" class="s9" d="m875.8 699.5c13.8-0.3 24.8-11.5 25-25.3l1.2-101.7c0.1-4.2-3.1-7.8-7.3-8.2l-42.9-10.9c-13.8-1.4-22.9 15.5-23.8 29.3-1 15.4-1.5 34.1 0.3 45.6 3.6 23 21.3 25.9 21.3 25.9 0 0 0 8.9 0 19.8 0.1 14.3 11.9 25.8 26.2 25.5z"/>
																</g>
															</g>
														</g>
													</g>
												</g>
												<g id="&lt;Group&gt;">
													<g id="&lt;Group&gt;">
														<g id="&lt;Group&gt;">
															<g id="&lt;Group&gt;">
																<g id="&lt;Group&gt;">
																	<g id="&lt;Group&gt;">
																		<path id="&lt;Path&gt;" class="s4" d="m836.9 597.6c0 1.6 1.2 2.9 2.9 3 1.6 0.1 3-1.1 3-2.7 0.1-1.5-1.2-2.9-2.8-2.9-1.7-0.1-3 1.1-3.1 2.6z"/>
																	</g>
																</g>
															</g>
														</g>
													</g>
													<g id="&lt;Group&gt;">
														<g id="&lt;Group&gt;">
															<g id="&lt;Group&gt;">
																<g id="&lt;Group&gt;">
																	<g id="&lt;Group&gt;">
																		<g id="&lt;Group&gt;">
																			<path id="&lt;Path&gt;" class="s4" d="m832.1 592.5c0.3 0.4 2.6-1.3 5.8-1.3 3.1 0 5.5 1.6 5.8 1.2 0.2-0.1-0.2-0.8-1.2-1.6-1-0.7-2.7-1.4-4.7-1.4-2 0-3.6 0.7-4.6 1.5-1 0.7-1.3 1.4-1.1 1.6z"/>
																		</g>
																	</g>
																</g>
															</g>
														</g>
													</g>
												</g>
												<g id="&lt;Group&gt;">
													<g id="&lt;Group&gt;">
														<g id="&lt;Group&gt;">
															<g id="&lt;Group&gt;">
																<g id="&lt;Group&gt;">
																	<g id="&lt;Group&gt;">
																		<path id="&lt;Path&gt;" class="s4" d="m867.1 597.6c0 1.6 1.3 2.9 2.9 3 1.6 0.1 3-1.1 3-2.7 0.1-1.5-1.2-2.9-2.8-2.9-1.6-0.1-3 1.1-3.1 2.6z"/>
																	</g>
																</g>
															</g>
														</g>
													</g>
													<g id="&lt;Group&gt;">
														<g id="&lt;Group&gt;">
															<g id="&lt;Group&gt;">
																<g id="&lt;Group&gt;">
																	<g id="&lt;Group&gt;">
																		<g id="&lt;Group&gt;">
																			<path id="&lt;Path&gt;" class="s4" d="m863.3 593.1c0.4 0.4 2.6-1.3 5.8-1.3 3.1 0 5.5 1.6 5.8 1.2 0.2-0.1-0.2-0.8-1.2-1.6-1-0.7-2.7-1.4-4.7-1.4-2 0-3.6 0.7-4.6 1.5-1 0.7-1.3 1.4-1.1 1.6z"/>
																		</g>
																	</g>
																</g>
															</g>
														</g>
													</g>
												</g>
												<g id="&lt;Group&gt;">
													<g id="&lt;Group&gt;">
														<g id="&lt;Group&gt;">
															<g id="&lt;Group&gt;">
																<g id="&lt;Group&gt;">
																	<g id="&lt;Group&gt;">
																		<path id="&lt;Path&gt;" class="s4" d="m851.8 616.6c0-0.1-2-0.5-5.2-0.9-0.8-0.1-1.6-0.2-1.7-0.8-0.2-0.6 0.1-1.5 0.5-2.4q1.2-2.9 2.4-6.2c3.4-8.8 5.8-16 5.4-16.1-0.3-0.2-3.3 6.9-6.7 15.7q-1.2 3.2-2.3 6.2c-0.3 0.9-0.8 1.9-0.4 3.1 0.2 0.7 0.8 1.1 1.4 1.2 0.5 0.2 0.9 0.2 1.3 0.2 3.3 0.2 5.3 0.2 5.3 0z"/>
																	</g>
																</g>
															</g>
														</g>
													</g>
												</g>
												<g id="&lt;Group&gt;">
													<g id="&lt;Group&gt;">
														<g id="&lt;Group&gt;">
															<g id="&lt;Group&gt;">
																<g id="&lt;Group&gt;">
																	<path id="&lt;Path&gt;" class="s10" d="m849.6 654.2c0 0 15.5 1 30.8-8.2 0 0-7.5 15.8-30.5 13.6z"/>
																</g>
															</g>
														</g>
													</g>
												</g>
												<g id="&lt;Group&gt;">
													<g id="&lt;Group&gt;">
														<g id="&lt;Group&gt;">
															<g id="&lt;Group&gt;">
																<g id="&lt;Group&gt;">
																	<path id="&lt;Path&gt;" class="s10" d="m853.1 624.3c1.2-1.5 3.2-2.4 5.1-2.1 1.4 0.1 2.8 0.8 3.6 1.9 0.9 1.1 1.1 2.7 0.3 3.8-0.9 1.2-2.6 1.5-4.2 1-1.5-0.4-2.8-1.4-4-2.4-0.4-0.3-0.7-0.5-0.9-0.9-0.2-0.4-0.3-0.9 0-1.2"/>
																</g>
															</g>
														</g>
													</g>
												</g>
												<g id="&lt;Group&gt;">
													<g id="&lt;Group&gt;">
														<g id="&lt;Group&gt;">
															<g id="&lt;Group&gt;">
																<g id="&lt;Group&gt;">
																	<g id="&lt;Group&gt;">
																		<path id="&lt;Path&gt;" class="s4" d="m861.1 618.8c-0.5 0-0.5 3.4-3.5 5.9-2.9 2.4-6.6 2.1-6.6 2.5-0.1 0.3 0.8 0.7 2.4 0.8 1.5 0 3.7-0.5 5.5-2 1.8-1.5 2.6-3.5 2.7-4.9 0.1-1.4-0.3-2.3-0.5-2.3z"/>
																	</g>
																</g>
															</g>
														</g>
													</g>
												</g>
											</g>
										</g>
									</g>
									<g id="&lt;Group&gt;">
										<g id="&lt;Group&gt;">
											<g id="&lt;Group&gt;">
												<g id="&lt;Group&gt;">
													<g id="&lt;Group&gt;">
														<path id="&lt;Path&gt;" class="s4" d="m861.9 587.5c0.3 0.9 3.4 0.5 7.2 0.9 3.7 0.4 6.7 1.5 7.2 0.7 0.2-0.4-0.3-1.2-1.5-2-1.2-0.8-3.1-1.6-5.4-1.9-2.2-0.2-4.3 0.1-5.6 0.7-1.4 0.5-2.1 1.2-1.9 1.6z"/>
													</g>
												</g>
											</g>
										</g>
									</g>
									<g id="&lt;Group&gt;">
										<g id="&lt;Group&gt;">
											<g id="&lt;Group&gt;">
												<g id="&lt;Group&gt;">
													<g id="&lt;Group&gt;">
														<path id="&lt;Path&gt;" class="s4" d="m832.5 586.6c0.6 0.7 2.8 0 5.4 0 2.6-0.2 4.9 0.5 5.4-0.3 0.2-0.4-0.2-1.1-1.1-1.8-1-0.7-2.6-1.2-4.4-1.2-1.8 0.1-3.4 0.8-4.3 1.5-0.9 0.7-1.2 1.5-1 1.8z"/>
													</g>
												</g>
											</g>
										</g>
									</g>
								</g>
							</g>
							<g id="&lt;Group&gt;">
								<g id="&lt;Group&gt;">
									<path id="&lt;Path&gt;" class="s9" d="m899.4 601.1c1.8-1.2 4.2-0.8 6 0.3 4.3 2.4 6.4 8 4.8 12.7-1.6 4.6-6.6 7.8-11.5 7.1"/>
								</g>
							</g>
							<g id="&lt;Group&gt;">
								<g id="&lt;Group&gt;">
									<g id="&lt;Group&gt;">
										<path id="&lt;Path&gt;" class="s10" d="m901 614.4c0.1-0.2 0.9 0.1 2-0.4 1.1-0.4 2.1-2 2-3.9-0.1-1.9-1.3-3.3-2.4-3.7-1.2-0.5-2-0.2-2.1-0.4-0.1-0.1 0.8-0.7 2.3-0.4 0.7 0.2 1.6 0.6 2.3 1.4 0.6 0.8 1 1.9 1.1 3 0.2 2.4-1.3 4.5-2.9 4.8-1.5 0.4-2.4-0.4-2.3-0.4z"/>
									</g>
								</g>
							</g>
						</g>
					</g>
				</g>
				<g id="&lt;Group&gt;">
					<g id="&lt;Group&gt;">
						<path id="&lt;Path&gt;" class="s5" d="m907.3 619q0.1 0 1.1 0.8 1.1 0.9 2.8 2.3c2.5 2.1 5.9 5 9.9 8.4l0.4 0.3-0.3 0.3c-3.7 4.5-7.8 10-12.5 15.8q-1.5 2-3.1 3.8l-0.8 1-0.1-1.3c-0.4-9.4-0.7-17.7-0.9-23.6q-0.1-4.3-0.2-7c0-1.7 0-2.6 0.1-2.6 0.1 0 0.2 0.9 0.3 2.6q0.2 2.7 0.5 7c0.3 5.9 0.8 14.2 1.2 23.6l-0.9-0.4q1.5-1.8 3.1-3.7c4.6-5.8 8.8-11.3 12.6-15.8l0.1 0.7c-4-3.5-7.2-6.5-9.7-8.8q-1.6-1.4-2.7-2.4-0.9-0.9-0.9-1z"/>
					</g>
				</g>
				<g id="&lt;Group&gt;">
					<path id="&lt;Path&gt;" class="s4" d="m860.8 543.4c-5.6 0.2-11.3 0.5-16.8 1.8-5.5 1.4-10.8 3.9-14.5 8.2-3.7 4.2-5.6 10.3-4 15.7 1.6 5.4 7.1 9.6 12.7 8.9 4.3-0.6 8.3-3.7 12.4-2.5 3.9 1.2 6 5.9 10 6.6 3.9 0.8 7.4-2.8 11.4-3.1 4.4-0.4 8.2 3.2 10.2 7.2 1.9 3.9 2.7 8.4 4.6 12.3 1.3 2.5 3.2 4.9 5.9 5.6 2.5 0.7 5.3-0.3 7.2-2 2-1.7 3.2-4 4.2-6.4 4.2-10.2 3.3-22.3-2.3-31.7-5.6-9.5-15.8-16-26.7-17.3"/>
				</g>
				<g id="&lt;Group&gt;">
					<g id="&lt;Group&gt;">
						<path id="&lt;Path&gt;" class="s6" d="m916.9 567.8c-0.2 0.1-0.8-1.8-2.2-4.7-1.4-2.8-3.8-6.4-7.4-9.7-3.5-3.2-7.4-5.2-10.4-6.3-2.9-1.2-4.9-1.5-4.8-1.7 0-0.1 0.5 0 1.4 0.1 0.9 0.1 2.1 0.4 3.7 0.9 3.1 0.9 7.1 3 10.8 6.3 3.7 3.3 6.1 7.2 7.4 10.1 0.6 1.5 1.1 2.8 1.2 3.6 0.2 0.9 0.3 1.4 0.3 1.4z"/>
					</g>
				</g>
				<g id="&lt;Group&gt;">
					<g id="&lt;Group&gt;">
						<path id="&lt;Path&gt;" class="s5" d="m934.5 534.1c-0.1 0.2-2.1-1.1-5.6-1.7-3.5-0.7-8.6-0.4-13.5 2-4.9 2.5-8.3 6.2-10.4 9.1-2.1 2.9-3.1 4.9-3.3 4.8-0.1 0 0.1-0.5 0.6-1.5 0.4-0.9 1.1-2.2 2.1-3.7 2-3.1 5.5-7.1 10.6-9.6 5.1-2.6 10.5-2.7 14.1-1.8 1.8 0.4 3.2 1 4.1 1.5 0.9 0.5 1.3 0.9 1.3 0.9z"/>
					</g>
				</g>
				<g id="&lt;Group&gt;">
					<g id="&lt;Group&gt;">
						<path id="&lt;Path&gt;" class="s5" d="m912.3 561.1c0.2 0 0.3 1.9 0.1 4.8-0.3 2.9-1.1 6.9-2.9 11-1.8 4.2-4.1 7.5-6.1 9.7-1.9 2.2-3.4 3.3-3.4 3.3-0.3-0.3 5.1-5.2 8.5-13.4 3.6-8.1 3.5-15.4 3.8-15.4z"/>
					</g>
				</g>
				<g id="&lt;Group&gt;">
					<g id="&lt;Group&gt;">
						<path id="&lt;Path&gt;" class="s5" d="m913 561.6c0.1 0 0.3 0.5 0.6 1.4 0.3 0.8 0.6 2.1 0.9 3.7 0.5 3.3 0.6 8-0.7 12.9-1.2 4.9-3.5 9-5.5 11.6-1 1.3-1.9 2.3-2.6 2.9-0.7 0.6-1.1 0.9-1.1 0.9-0.2-0.2 1.3-1.6 3.1-4.3 1.8-2.6 3.9-6.6 5.1-11.4 1.2-4.8 1.3-9.3 0.9-12.5-0.3-3.2-0.9-5.1-0.7-5.2z"/>
					</g>
				</g>
			</g>
		</g>
	</g>
	<g id="Speech Bubble">
		<g id="&lt;Group&gt;">
			<g id="&lt;Group&gt;">
				<path id="&lt;Path&gt;" class="s0" d="m973.5 566.9c-5.8 1.8-8.3 10.1-4.5 14.9 3.8 4.7 12.4 4.1 15.5-1.2 3.1-5.3-0.7-13.1-6.7-14"/>
			</g>
			<g id="&lt;Group&gt;">
				<path id="&lt;Path&gt;" class="s0" d="m1000.6 527.6c-6.7 2.1-9.6 11.6-5.2 17.1 4.3 5.4 14.2 4.7 17.8-1.4 3.5-6-0.8-15-7.7-16.1"/>
			</g>
			<g id="&lt;Group&gt;">
				<g id="&lt;Group&gt;">
					<path id="&lt;Path&gt;" class="s2" d="m1058.3 354.4c-18.1-1.5-36.4 2.5-48.8 15.7-12.4 13.3-18.3 32.4-15.6 50.3-19.2 8-29.7 32.5-22.3 51.9 7.5 19.5 31.7 30.6 51.3 23.7 8.9 22.4 30.1 39.4 53.8 43.2 23.8 3.8 49.2-5.8 64.6-24.4 18.8 4.3 40 4 55.9-7.1 15.8-11.1 23-35.5 10.9-50.6 21.8-5.3 32.8-32.4 26.4-53.9-6.5-21.4-25.8-36.8-46.4-45.5-13.6-5.7-30.6-8.7-42.2 0.4-9.3-14.3-25.8-23.7-42.8-24.4-17.1-0.7-34.3 7.2-44.8 20.7z"/>
				</g>
				<g id="&lt;Group&gt;">
					<g id="&lt;Group&gt;">
						<path id="&lt;Path&gt;" class="s4" d="m1058.3 354.4q0 0 1.1-1.4 1.1-1.4 3.5-3.9c3.3-3.2 8.6-7.7 16.7-11.2 4.1-1.7 8.8-3.2 14.1-4 5.4-0.7 11.3-0.8 17.5 0.5 6.2 1.3 12.7 3.8 18.8 7.6 6 3.9 11.8 9.2 16.2 15.9l-0.5-0.1c4.6-3.6 10.7-5.7 17.1-5.8 6.3-0.3 12.9 0.9 19.3 3 6.4 2.2 12.7 5.1 18.9 8.7 6.1 3.6 12.1 7.9 17.5 13.2 5.4 5.2 10.1 11.5 13.5 18.6 1.6 3.6 3 7.4 3.8 11.3 0.8 4 1.2 8.1 0.9 12.2-0.6 8.2-3.1 16.5-7.9 23.6-2.4 3.5-5.2 6.8-8.8 9.4-3.5 2.5-7.5 4.5-11.7 5.6l0.2-0.8c2.6 3.3 4.5 7.3 5.4 11.4 0.9 4.2 1 8.6 0.3 12.9-1.3 8.5-5.6 16.7-11.9 23-6.4 6.3-15 10.2-23.8 12.2-9 1.9-18.3 2-27.5 0.8-3.3-0.4-6.6-1.1-9.8-1.8l0.5-0.1c-16.6 19.9-43.8 28.8-67.6 24-11.9-2.4-22.9-8-31.7-15.6-8.9-7.5-15.8-17.1-19.9-27.4l0.6 0.2c-11.4 4-23.8 2-33.6-3.5-9.8-5.3-17.2-14.6-19.6-24.9-2.5-10.2-0.5-20.8 4.1-29.3 4.5-8.6 11.6-15.2 19.8-18.6l-0.2 0.4c-1.3-8.3-0.6-16.5 1.2-23.8 1.9-7.3 4.9-13.8 8.6-19.3 1.9-2.8 3.9-5.2 6-7.5 2.2-2.2 4.4-4.2 6.7-5.8 4.6-3.4 9.4-5.5 13.8-7 8.9-2.8 16.2-3.1 21-3.1 4.9 0 7.4 0.4 7.4 0.4q0 0-1.9-0.1-1.8-0.1-5.5-0.1c-4.8 0.1-12.1 0.4-20.9 3.3-4.3 1.5-9.1 3.6-13.6 7-2.3 1.6-4.5 3.6-6.6 5.7-2.1 2.3-4.1 4.7-5.9 7.5-3.7 5.5-6.6 11.9-8.5 19.2-1.7 7.2-2.4 15.3-1.1 23.5v0.2l-0.3 0.2c-7.9 3.3-14.9 9.8-19.3 18.3-4.5 8.3-6.4 18.7-4 28.7 2.4 10.1 9.6 19.1 19.3 24.3 9.5 5.3 21.7 7.3 32.8 3.4l0.4-0.1 0.2 0.4c4.1 10.2 10.8 19.6 19.6 27.1 8.8 7.4 19.6 12.9 31.3 15.3 23.4 4.7 50.2-4.1 66.6-23.7l0.2-0.2h0.3c3.2 0.7 6.5 1.4 9.8 1.8 9.1 1.1 18.3 1.1 27-0.8 8.7-1.9 17.1-5.8 23.3-11.9 6.2-6.1 10.4-14.1 11.7-22.5 1.4-8.3-0.4-17.1-5.5-23.5l-0.4-0.6 0.7-0.2c4.2-1.1 8-2.9 11.5-5.4 3.4-2.5 6.2-5.8 8.5-9.2 4.7-6.9 7.2-15 7.7-23.1 0.3-4-0.1-8-0.8-11.9-0.8-3.8-2.1-7.6-3.7-11.1-3.4-7-8-13.2-13.4-18.4-5.2-5.2-11.2-9.5-17.3-13.1-6.1-3.5-12.4-6.5-18.7-8.6-6.3-2.1-12.8-3.3-19-3.1-6.2 0.2-12.1 2.2-16.7 5.7l-0.3 0.2-0.2-0.3c-4.4-6.6-10-11.9-16-15.8-6-3.8-12.3-6.3-18.5-7.5-6.1-1.3-12-1.3-17.3-0.6-5.3 0.7-10 2.1-14 3.9-8.1 3.4-13.5 7.8-16.8 11q-2.4 2.4-3.5 3.7-1.2 1.4-1.2 1.4z"/>
					</g>
				</g>
			</g>
			<g id="&lt;Group&gt;">
				<g id="&lt;Group&gt;">
					<path id="&lt;Path&gt;" class="s5" d="m1182 416.7c0 0.9-35.5 1.6-79.2 1.6-43.8 0-79.2-0.7-79.2-1.6 0-0.8 35.4-1.5 79.2-1.5 43.7 0 79.2 0.7 79.2 1.5z"/>
				</g>
			</g>
			<g id="&lt;Group&gt;">
				<g id="&lt;Group&gt;">
					<path id="&lt;Path&gt;" class="s5" d="m1182 433.9c0 0.9-35.5 1.6-79.2 1.6-43.8 0-79.2-0.7-79.2-1.6 0-0.9 35.4-1.6 79.2-1.6 43.7 0 79.2 0.7 79.2 1.6z"/>
				</g>
			</g>
			<g id="&lt;Group&gt;">
				<g id="&lt;Group&gt;">
					<path id="&lt;Path&gt;" class="s5" d="m1182 451.1c0 0.9-35.5 1.6-79.2 1.6-43.8 0-79.2-0.7-79.2-1.6 0-0.9 35.4-1.6 79.2-1.6 43.7 0 79.2 0.7 79.2 1.6z"/>
				</g>
			</g>
			<g id="&lt;Group&gt;">
				<g id="&lt;Group&gt;">
					<path id="&lt;Path&gt;" class="s5" d="m1182 468.3c0 0.8-35.5 1.5-79.2 1.5-43.8 0-79.2-0.7-79.2-1.5 0-0.9 35.4-1.6 79.2-1.6 43.7 0 79.2 0.7 79.2 1.6z"/>
				</g>
			</g>
		</g>
	</g>
</svg>