<svg version="1.2" xmlns="http://www.w3.org/2000/svg" viewBox="0 0 1000 1000" width="1000" height="1000">
	<title>4706311-ai</title>
	<style>
		.s0 { fill: #f5f5f5 } 
		.s1 { fill: #e0e0e0 } 
		.s2 { fill: #f0f0f0 } 
		.s3 { fill: #ba68c8 } 
		.s4 { opacity: .1;fill: #000000 } 
		.s5 { opacity: .4;fill: #000000 } 
		.s6 { opacity: .3;fill: #000000 } 
		.s7 { fill: #ffa8a7 } 
		.s8 { opacity: .3;fill: #ffffff } 
		.s9 { opacity: .2;fill: #000000 } 
		.s10 { fill: #455a64 } 
		.s11 { opacity: .4;fill: #ffffff } 
		.s12 { opacity: .5;fill: #ffffff } 
		.s13 { fill: #ffffff } 
		.s14 { fill: #ebebeb } 
		.s15 { fill: #000000 } 
		.s16 { opacity: .2;fill: #ffffff } 
		.s17 { fill: #37474f } 
		.s18 { opacity: .7;fill: #000000 } 
		.s19 { fill: #f28f8f } 
		.s20 { fill: #263238 } 
		.s21 { opacity: .1;fill: #ffffff } 
		.s22 { fill: #ab6060 } 
		.s23 { fill: #873e3e } 
	</style>
	<g id="Floor">
		<path id="&lt;Path&gt;" class="s0" d="m825.6 514.4c-181-104.5-473.5-104.5-653.3 0-179.8 104.5-178.9 273.9 2.1 378.4 181 104.5 473.5 104.5 653.3 0 179.8-104.5 178.9-273.9-2.1-378.4z"/>
	</g>
	<g id="Shadows">
		<path id="&lt;Path&gt;" class="s1" d="m234.7 860.3c-10.7-6.2-28-6.2-38.7 0-10.6 6.2-10.6 16.2 0.2 22.4 10.7 6.2 28 6.2 38.7 0 10.6-6.2 10.6-16.2-0.2-22.4z"/>
		<path id="&lt;Path&gt;" class="s1" d="m609.8 487l-27.1-15.7c-8.5-4.9-19-4.9-27.5 0l-150.6 87.3-13.3-7.6-109.1 63.8 12.6 7.2-178.3 103c-6.1 3.5-6.1 12.3 0 15.9l27.4 15.8c8.5 4.9 19 4.9 27.5 0l178.2-103.1 20.8 12c17 9.8 37.9 9.8 54.9 0l64.1-37c8.1-4.7 8.1-16.5 0-21.2l-30.1-17.2 25.3-14.7 8.8-5.1 116.5-67.6c6.1-3.5 6-12.3-0.1-15.8z"/>
		<path id="&lt;Path&gt;" class="s1" d="m412.1 749.1c-31.3-18-81.9-18-113 0-31.1 18.1-31 47.4 0.3 65.5 31.3 18.1 81.9 18.1 113 0 31.1-18.1 31-47.4-0.3-65.5z"/>
		<path id="&lt;Path&gt;" class="s1" d="m676.2 860.2c-28.4-16.4-74.3-16.4-102.4 0-28.2 16.4-28.1 42.9 0.3 59.3 28.4 16.4 74.2 16.4 102.4 0 28.2-16.4 28-42.9-0.3-59.3z"/>
		<path id="&lt;Path&gt;" class="s1" d="m710.1 620c-29.2-16.9-76.5-16.9-105.5 0-29.1 16.8-28.9 44.2 0.3 61.1 29.3 16.9 76.5 16.9 105.6 0 29-16.9 28.9-44.3-0.4-61.1z"/>
		<path id="&lt;Path&gt;" class="s1" d="m845.4 607.3c-11.5-6.7-30-6.7-41.4 0-11.4 6.6-11.4 17.3 0.1 23.9 11.5 6.7 30 6.7 41.4 0 11.4-6.6 11.3-17.3-0.1-23.9z"/>
	</g>
	<g id="Windows">
		<g id="&lt;Group&gt;">
			<g id="&lt;Group&gt;">
				<g id="&lt;Group&gt;">
					<g id="&lt;Group&gt;">
						<g id="&lt;Group&gt;">
							<g id="&lt;Group&gt;">
								<path id="&lt;Path&gt;" class="s2" d="m233.9 146.8l-5.9-3.4 0.3 213 6 3.5z"/>
							</g>
							<g id="&lt;Group&gt;">
								<path id="&lt;Path&gt;" class="s0" d="m234.3 359.9l-6-3.5-68.8 39.5 6 3.5z"/>
							</g>
							<g id="&lt;Group&gt;">
								<path id="&lt;Compound Path&gt;" fill-rule="evenodd" class="s1" d="m241.2 363.8l-82.5 47.4-0.4-228.8 82.5-47.4zm-75.7 35.5l68.8-39.5-0.4-213-68.7 39.5z"/>
							</g>
							<g id="&lt;Group&gt;">
								<path id="&lt;Path&gt;" class="s0" d="m240.8 135l-6-3.5-82.5 47.4 6 3.5z"/>
							</g>
							<g id="&lt;Group&gt;">
								<path id="&lt;Path&gt;" class="s2" d="m158.3 182.4l-6-3.5 0.4 228.9 6 3.4z"/>
							</g>
						</g>
					</g>
				</g>
				<g id="&lt;Group&gt;">
					<path id="&lt;Path&gt;" class="s0" d="m234.3 213.2l-6-3.5-63.1 36.3v6.9z"/>
					<path id="&lt;Path&gt;" class="s1" d="m234.3 213.2l-69.1 39.7v7.9l69.1-39.7z"/>
					<path id="&lt;Path&gt;" class="s1" d="m165.2 252.9l69.1-39.7z"/>
				</g>
			</g>
			<g id="&lt;Group&gt;">
				<g id="&lt;Group&gt;">
					<g id="&lt;Group&gt;">
						<g id="&lt;Group&gt;">
							<g id="&lt;Group&gt;">
								<path id="&lt;Path&gt;" class="s2" d="m158.3 190.3l-6-3.5 0.3 213.1 6 3.5z"/>
							</g>
							<g id="&lt;Group&gt;">
								<path id="&lt;Path&gt;" class="s0" d="m158.6 403.4l-6-3.5-68.7 39.5 5.9 3.4z"/>
							</g>
							<g id="&lt;Group&gt;">
								<path id="&lt;Compound Path&gt;" fill-rule="evenodd" class="s1" d="m165.5 407.3l-82.5 47.4-0.4-228.8 82.5-47.5zm-75.7 35.6l68.8-39.5-0.3-213-68.8 39.4z"/>
							</g>
							<g id="&lt;Group&gt;">
								<path id="&lt;Path&gt;" class="s0" d="m165.1 178.4l-6-3.4-82.5 47.4 6 3.5z"/>
							</g>
							<g id="&lt;Group&gt;">
								<path id="&lt;Path&gt;" class="s2" d="m82.6 225.9l-6-3.5 0.4 228.8 6 3.5z"/>
							</g>
						</g>
					</g>
				</g>
				<g id="&lt;Group&gt;">
					<path id="&lt;Path&gt;" class="s0" d="m158.6 256.7l-6-3.5-63.1 36.3v6.9z"/>
					<path id="&lt;Path&gt;" class="s1" d="m158.6 256.7l-69.1 39.7v7.9l69.1-39.7z"/>
					<path id="&lt;Path&gt;" class="s1" d="m89.5 296.4l69.1-39.7z"/>
				</g>
			</g>
		</g>
		<g id="&lt;Group&gt;">
			<g id="&lt;Group&gt;">
				<g id="&lt;Group&gt;">
					<g id="&lt;Group&gt;">
						<g id="&lt;Group&gt;">
							<g id="&lt;Group&gt;">
								<path id="&lt;Path&gt;" class="s2" d="m418.4 40.6l-5.9-3.5 0.3 213.1 6 3.4z"/>
							</g>
							<g id="&lt;Group&gt;">
								<path id="&lt;Path&gt;" class="s0" d="m418.8 253.6l-6-3.4-68.8 39.4 6 3.5z"/>
							</g>
							<g id="&lt;Group&gt;">
								<path id="&lt;Compound Path&gt;" fill-rule="evenodd" class="s1" d="m425.7 257.6l-82.5 47.4-0.4-228.9 82.5-47.4zm-75.7 35.6l68.8-39.5-0.4-213.1-68.7 39.5z"/>
							</g>
							<g id="&lt;Group&gt;">
								<path id="&lt;Path&gt;" class="s0" d="m425.3 28.7l-6-3.5-82.5 47.4 6 3.5z"/>
							</g>
							<g id="&lt;Group&gt;">
								<path id="&lt;Path&gt;" class="s2" d="m342.8 76.1l-6-3.5 0.4 228.9 6 3.5z"/>
							</g>
						</g>
					</g>
				</g>
				<g id="&lt;Group&gt;">
					<path id="&lt;Path&gt;" class="s0" d="m418.8 106.9l-6-3.4-63.1 36.3v6.9z"/>
					<path id="&lt;Path&gt;" class="s1" d="m418.8 106.9l-69.1 39.8v7.9l69.1-39.7z"/>
					<path id="&lt;Path&gt;" class="s1" d="m349.7 146.7l69.1-39.8z"/>
				</g>
			</g>
			<g id="&lt;Group&gt;">
				<g id="&lt;Group&gt;">
					<g id="&lt;Group&gt;">
						<g id="&lt;Group&gt;">
							<g id="&lt;Group&gt;">
								<path id="&lt;Path&gt;" class="s2" d="m342.8 84.1l-6-3.5 0.3 213 6 3.5z"/>
							</g>
							<g id="&lt;Group&gt;">
								<path id="&lt;Path&gt;" class="s0" d="m343.1 297.1l-6-3.5-68.7 39.5 5.9 3.5z"/>
							</g>
							<g id="&lt;Group&gt;">
								<path id="&lt;Compound Path&gt;" fill-rule="evenodd" class="s1" d="m350 301l-82.5 47.4-0.4-228.8 82.5-47.4zm-75.7 35.5l68.8-39.4-0.3-213.1-68.8 39.5z"/>
							</g>
							<g id="&lt;Group&gt;">
								<path id="&lt;Path&gt;" class="s0" d="m349.6 72.2l-6-3.5-82.5 47.4 6 3.5z"/>
							</g>
							<g id="&lt;Group&gt;">
								<path id="&lt;Path&gt;" class="s2" d="m267.1 119.6l-6-3.5 0.4 228.9 6 3.4z"/>
							</g>
						</g>
					</g>
				</g>
				<g id="&lt;Group&gt;">
					<path id="&lt;Path&gt;" class="s0" d="m343.1 150.4l-6-3.5-63.1 36.4v6.9z"/>
					<path id="&lt;Path&gt;" class="s1" d="m343.1 150.4l-69.1 39.8v7.8l69.1-39.7z"/>
					<path id="&lt;Path&gt;" class="s1" d="m274 190.2l69.1-39.8z"/>
				</g>
			</g>
		</g>
	</g>
	<g id="Pictures">
		<g id="&lt;Group&gt;">
			<g id="&lt;Group&gt;">
				<g id="&lt;Group&gt;">
					<path id="&lt;Path&gt;" class="s2" d="m786.2 268l-0.1 50-6.1 3.5 0.2-57z"/>
					<path id="&lt;Path&gt;" class="s0" d="m851.4 355.7v7l-71.4-41.2 6.1-3.5z"/>
					<path id="&lt;Compound Path&gt;" fill-rule="evenodd" class="s1" d="m772.9 251.9l86 49.7-0.2 73.8-86-49.7zm78.5 110.8v-7l0.2-50-65.4-37.7-6.1-3.5-0.1 57z"/>
					<path id="&lt;Path&gt;" class="s0" d="m772.9 251.9l6-3.5 86.1 49.7-6.1 3.5z"/>
					<path id="&lt;Path&gt;" class="s2" d="m865 298.1l-0.2 73.7-6.1 3.6 0.2-73.8z"/>
				</g>
				<g id="&lt;Group&gt;">
					<g id="&lt;Group&gt;">
						<g id="&lt;Group&gt;">
							<path id="&lt;Path&gt;" class="s1" d="m807 287l-17.9 14v13.7l59.3 34.3v-13.7l-11.3-22.5-10.1 7.9 3.6 11.1-5.2-9.9z"/>
						</g>
						<g id="&lt;Group&gt;">
							<path id="&lt;Path&gt;" class="s1" d="m826.4 293.9c-2.7-1.6-5-0.3-5 2.9 0 3.2 2.2 7.1 5 8.7 2.8 1.6 5.1 0.3 5.1-2.9 0-3.2-2.3-7.1-5.1-8.7z"/>
						</g>
					</g>
				</g>
			</g>
			<g id="&lt;Group&gt;">
				<g id="&lt;Group&gt;">
					<path id="&lt;Path&gt;" class="s2" d="m786.2 156.1l-0.1 50-6.1 3.5 0.2-56.9z"/>
					<path id="&lt;Path&gt;" class="s0" d="m851.4 243.9v7l-71.4-41.3 6.1-3.5z"/>
					<path id="&lt;Compound Path&gt;" fill-rule="evenodd" class="s1" d="m772.9 140l86 49.7-0.2 73.8-86-49.7zm78.5 110.8v-7l0.2-49.9-65.4-37.8-6.1-3.5-0.1 57z"/>
					<path id="&lt;Path&gt;" class="s0" d="m772.9 140l6-3.5 86.1 49.7-6.1 3.5z"/>
					<path id="&lt;Path&gt;" class="s2" d="m865 186.2l-0.2 73.8-6.1 3.5 0.2-73.8z"/>
				</g>
				<g id="&lt;Group&gt;">
					<g id="&lt;Group&gt;">
						<g id="&lt;Group&gt;">
							<path id="&lt;Path&gt;" class="s1" d="m807 175.1l-17.9 14.1v13.7l59.3 34.2v-13.7l-11.3-22.5-10.1 7.9 3.6 11.2-5.2-9.9z"/>
						</g>
						<g id="&lt;Group&gt;">
							<path id="&lt;Path&gt;" class="s1" d="m826.4 182c-2.7-1.6-5-0.3-5 2.9 0 3.2 2.2 7.1 5 8.7 2.8 1.7 5.1 0.4 5.1-2.9 0-3.2-2.3-7.1-5.1-8.7z"/>
						</g>
					</g>
				</g>
			</g>
		</g>
	</g>
	<g id="Device">
		<g id="&lt;Group&gt;">
			<g id="&lt;Group&gt;">
				<g id="&lt;Group&gt;">
					<g id="&lt;Group&gt;">
						<path id="&lt;Path&gt;" class="s3" d="m467.2 612l-52.3 29.9c-15.2 8.7-34 8.7-49.3-0.1l-38.7-22.4c-4.6-2.6-7.5-7.5-7.5-12.8v-26.5l-8.1 4.7v23c0 6.2 3.3 11.9 8.7 15l46 26.5c15 8.7 33.5 8.7 48.6 0.1l52.6-30.1c7.8-4.5 11-13 9.6-20.9-1 5.4-4.2 10.5-9.6 13.6z"/>
						<path id="&lt;Path&gt;" class="s4" d="m467.2 612l-52.3 29.9c-15.2 8.7-34 8.7-49.3-0.1l-38.7-22.4c-4.6-2.6-7.5-7.5-7.5-12.8v-26.5l-8.1 4.7v23c0 6.2 3.3 11.9 8.7 15l46 26.5c15 8.7 33.5 8.7 48.6 0.1l52.6-30.1c7.8-4.5 11-13 9.6-20.9-1 5.4-4.2 10.5-9.6 13.6z"/>
						<path id="&lt;Path&gt;" class="s3" d="m326.9 619.4l38.7 22.4c15.3 8.8 34.1 8.8 49.3 0.1l52.3-29.9c5.4-3.1 8.6-8.2 9.6-13.6-1-5.2-4.1-10.1-9.3-13.3l-42.8-25.7c-5.2-3.1-8.4-8.7-8.4-14.8v-7.4-13.1l-96.9 56v26.5c0 5.3 2.9 10.2 7.5 12.8z"/>
					</g>
					<g id="&lt;Group&gt;">
						<path id="&lt;Path&gt;" class="s5" d="m326.9 619.4c-4.6-2.6-7.5-7.5-7.5-12.8v-26.4l-8.1 4.6v23c0 6.2 3.3 11.9 8.7 15l16.3 9.4v-7.3z"/>
						<path id="&lt;Path&gt;" class="s6" d="m326.9 619.4l9.4 5.5 101.1-57.8-12.7-7.7c-5.2-3.1-8.4-8.7-8.4-14.8v-7.4-13.1l-96.9 56v26.5c0 5.3 2.9 10.2 7.5 12.8z"/>
					</g>
				</g>
				<g id="&lt;Group&gt;">
					<path id="&lt;Path&gt;" class="s7" d="m155.6 685.3q0-0.1-0.1-0.1z"/>
					<path id="&lt;Path&gt;" class="s3" d="m151 675.6l-0.7-331.3c0-9.4 6.6-20.9 14.8-25.6l411.8-237.2c4.1-2.3 7.8-2.5 10.4-1l-15.5-9c-2.7-1.7-6.5-1.6-10.7 0.9l-411.9 237.1c-8.1 4.8-14.8 16.2-14.7 25.6l0.7 331.3c0 4.5 1.5 7.6 4 9.3q0.4 0.2 0.8 0.5l15.3 8.9c-2.6-1.6-4.2-4.9-4.3-9.5z"/>
					<path id="&lt;Path&gt;" class="s8" d="m571.8 71.5c-2.7-1.7-6.5-1.6-10.7 0.9l-411.9 237.1c-4.5 2.6-8.6 7.4-11.3 12.6l15.9 9.2c2.7-5.3 6.7-10 11.3-12.6l411.8-237.2c4.1-2.3 7.8-2.5 10.4-1z"/>
					<path id="&lt;Path&gt;" class="s9" d="m134.5 335.1l0.7 331.3c0 4.5 1.5 7.6 4 9.3q0.4 0.2 0.8 0.5l15.3 8.9c-2.6-1.6-4.2-4.9-4.3-9.5l-0.7-331.3c0-4.2 1.3-8.8 3.5-13l-15.9-9.2c-2.1 4.3-3.4 8.8-3.4 13z"/>
					<path id="&lt;Path&gt;" class="s7" d="m587.5 80.6l-0.1-0.1q0.1 0 0.1 0.1z"/>
					<path id="&lt;Compound Path&gt;" fill-rule="evenodd" class="s3" d="m592.5 421.3c0 9.4-6.6 20.9-14.8 25.6l-411.8 237.2c-4 2.3-7.6 2.6-10.3 1.2q0-0.1-0.1-0.1-0.1-0.1-0.2-0.1c-2.6-1.6-4.2-4.9-4.3-9.5l-0.7-331.3c0-9.4 6.6-20.9 14.8-25.6l411.8-237.2c4.1-2.3 7.8-2.5 10.4-1q0.1 0 0.1 0 0.1 0 0.1 0.1c2.6 1.5 4.3 4.8 4.3 9.4zm-14.7 0.1l-0.7-323.1-404.8 233.1c-3.6 2.1-7.4 8.7-7.4 12.9l0.7 323 404.8-233c3.6-2.1 7.5-8.8 7.4-12.9z"/>
					<path id="&lt;Path&gt;" class="s3" d="m577.2 98.3l-10.5 6 0.7 312c0 4.1-3.8 10.7-7.5 12.8l-394.3 227.1 0.1 11.1 404.7-233c3.7-2.1 7.5-8.8 7.5-12.9z"/>
					<path id="&lt;Path&gt;" class="s6" d="m577.2 98.3l-10.5 6 0.7 312c0 4.1-3.8 10.7-7.5 12.8l-394.3 227.1 0.1 11.1 404.7-233c3.7-2.1 7.5-8.8 7.5-12.9z"/>
					<path id="&lt;Path&gt;" class="s10" d="m567.4 416.3l-0.7-312-394.3 227.1c-3.6 2.1-7.5 8.7-7.5 12.9l0.7 311.9 394.3-227.1c3.7-2.1 7.5-8.7 7.5-12.8z"/>
				</g>
			</g>
		</g>
	</g>
	<g id="Window">
		<g id="&lt;Group&gt;">
			<g id="&lt;Group&gt;">
				<g id="&lt;Group&gt;">
					<g id="&lt;Group&gt;">
						<path id="&lt;Path&gt;" class="s3" d="m213.4 692.4l-0.7-313.2c0-8.9 6.3-19.7 14-24.2l389.2-224.1c3.9-2.3 7.4-2.5 9.9-1.1l-14.6-8.5v0.1c-2.6-1.7-6.2-1.5-10.2 0.8l-389.3 224.1c-7.7 4.5-14 15.3-13.9 24.2l0.7 313.2c0 4.2 1.4 7.2 3.7 8.7q0.4 0.3 0.8 0.5l14.5 8.4c-2.5-1.5-4-4.6-4.1-8.9z"/>
						<path id="&lt;Path&gt;" class="s11" d="m611.2 121.3v0.1c-2.6-1.7-6.2-1.5-10.2 0.8l-389.3 224.1c-4.3 2.5-8.1 7-10.7 12l15 8.6c2.6-5 6.4-9.4 10.7-11.9l389.2-224.1c3.9-2.3 7.4-2.5 9.9-1.1z"/>
					</g>
					<path id="&lt;Path&gt;" class="s8" d="m197.8 370.5l0.7 313.2c0 4.2 1.4 7.2 3.7 8.7q0.4 0.3 0.8 0.5l14.5 8.4c-2.5-1.5-4-4.6-4.1-8.9l-0.7-313.2c0-3.9 1.3-8.3 3.3-12.3l-15-8.6c-2 4-3.2 8.3-3.2 12.2z"/>
				</g>
				<g id="&lt;Group&gt;">
					<path id="&lt;Path&gt;" class="s3" d="m212.8 397.4l0.6 295c0.1 4.3 1.6 7.4 4.1 8.9q0.1 0.1 0.2 0.1 0 0 0.1 0.1c2.5 1.3 5.9 1 9.7-1.1l389.2-224.2c7.8-4.5 14-15.3 14-24.2l-0.7-295.5z"/>
					<path id="&lt;Path&gt;" class="s12" d="m212.8 397.4l0.6 295c0.1 4.3 1.6 7.4 4.1 8.9q0.1 0.1 0.2 0.1 0 0 0.1 0.1c2.5 1.3 5.9 1 9.7-1.1l389.2-224.2c7.8-4.5 14-15.3 14-24.2l-0.7-295.5z"/>
				</g>
				<g id="&lt;Group&gt;">
					<g id="&lt;Group&gt;">
						<g id="&lt;Group&gt;">
							<path id="&lt;Path&gt;" class="s3" d="m613.9 176.2c3.6-2.1 6.6-0.4 6.6 3.7 0 4.2-2.9 9.2-6.6 11.3l-333.6 192.9c-3.6 2.1-6.6 0.4-6.6-3.8 0-4.1 2.9-9.2 6.5-11.3z"/>
						</g>
						<g id="&lt;Group&gt;" style="opacity: .8">
							<path id="&lt;Path&gt;" class="s13" d="m613.9 176.2c3.6-2.1 6.6-0.4 6.6 3.7 0 4.2-2.9 9.2-6.6 11.3l-333.6 192.9c-3.6 2.1-6.6 0.4-6.6-3.8 0-4.1 2.9-9.2 6.5-11.3z"/>
						</g>
					</g>
					<g id="&lt;Group&gt;">
						<g id="&lt;Group&gt;">
							<g id="&lt;Group&gt;">
								<path id="&lt;Path&gt;" class="s3" d="m231.2 400.7q0.3-0.1 0.5 0c0.2 0.1 0.3 0.6 0 1l-2.1 3.9 7.1-4.1c0.4-0.2 0.7-0.1 0.7 0.4 0 0.4-0.3 0.9-0.7 1.1l-7.1 4.1 2.1 1.4c0.3 0.2 0.3 0.7 0 1.1q-0.2 0.3-0.4 0.5-0.3 0.2-0.5 0l-3.2-2.1q-0.1-0.1-0.1-0.2 0-0.1 0-0.2 0-0.1 0-0.3 0-0.2 0.1-0.3l3.1-5.7q0.3-0.4 0.5-0.6z"/>
							</g>
							<g id="&lt;Group&gt;">
								<path id="&lt;Path&gt;" class="s3" d="m249.2 390.4q0.3-0.2 0.5-0.1l3.1 2.1q0.1 0.1 0.1 0.2 0.1 0.1 0.1 0.3 0 0.1 0 0.2-0.1 0.2-0.2 0.3l-3.1 5.8q-0.2 0.4-0.5 0.5-0.2 0.2-0.4 0.1c-0.3-0.2-0.3-0.6-0.1-1.1l2.1-3.9-7.1 4.2c-0.3 0.2-0.6 0-0.6-0.4 0-0.4 0.3-0.9 0.6-1.2l7.1-4.1-2.1-1.4c-0.2-0.2-0.2-0.6 0.1-1.1q0.2-0.3 0.4-0.4z"/>
							</g>
							<g id="&lt;Group&gt;">
								<path id="&lt;Path&gt;" class="s3" d="m262.3 382.8c0.8-0.5 1.6-0.7 2.2-0.6 0.1-0.3 0.3-0.8 0.7-1q0 0 0 0c0.4-0.2 0.6 0 0.6 0.4v1.7c0 0.4-0.3 0.9-0.7 1.1l-1.4 0.9c-0.4 0.2-0.7 0.1-0.7-0.3 0-0.4 0.2-0.8 0.5-1.1q-0.5 0-1.2 0.4c-1.5 0.9-2.7 3-2.7 4.7 0 1.8 1.2 2.5 2.8 1.6 1-0.6 1.9-1.7 2.4-3 0.1-0.4 0.3-0.6 0.6-0.8q0.1-0.1 0.3-0.1c0.3 0.1 0.4 0.4 0.2 0.9-0.7 1.9-2 3.7-3.5 4.5-2.3 1.3-4.1 0.3-4.1-2.3 0-2.6 1.8-5.7 4-7z"/>
							</g>
						</g>
						<g id="&lt;Group&gt;" style="opacity: .7">
							<g id="&lt;Group&gt;">
								<path id="&lt;Path&gt;" class="s13" d="m231.2 400.7q0.3-0.1 0.5 0c0.2 0.1 0.3 0.6 0 1l-2.1 3.9 7.1-4.1c0.4-0.2 0.7-0.1 0.7 0.4 0 0.4-0.3 0.9-0.7 1.1l-7.1 4.1 2.1 1.4c0.3 0.2 0.3 0.7 0 1.1q-0.2 0.3-0.4 0.5-0.3 0.2-0.5 0l-3.2-2.1q-0.1-0.1-0.1-0.2 0-0.1 0-0.2 0-0.1 0-0.3 0-0.2 0.1-0.3l3.1-5.7q0.3-0.4 0.5-0.6z"/>
							</g>
							<g id="&lt;Group&gt;">
								<path id="&lt;Path&gt;" class="s13" d="m249.2 390.4q0.3-0.2 0.5-0.1l3.1 2.1q0.1 0.1 0.1 0.2 0.1 0.1 0.1 0.3 0 0.1 0 0.2-0.1 0.2-0.2 0.3l-3.1 5.8q-0.2 0.4-0.5 0.5-0.2 0.2-0.4 0.1c-0.3-0.2-0.3-0.6-0.1-1.1l2.1-3.9-7.1 4.2c-0.3 0.2-0.6 0-0.6-0.4 0-0.4 0.3-0.9 0.6-1.2l7.1-4.1-2.1-1.4c-0.2-0.2-0.2-0.6 0.1-1.1q0.2-0.3 0.4-0.4z"/>
							</g>
							<g id="&lt;Group&gt;">
								<path id="&lt;Path&gt;" class="s13" d="m262.3 382.8c0.8-0.5 1.6-0.7 2.2-0.6 0.1-0.3 0.3-0.8 0.7-1q0 0 0 0c0.4-0.2 0.6 0 0.6 0.4v1.7c0 0.4-0.3 0.9-0.7 1.1l-1.4 0.9c-0.4 0.2-0.7 0.1-0.7-0.3 0-0.4 0.2-0.8 0.5-1.1q-0.5 0-1.2 0.4c-1.5 0.9-2.7 3-2.7 4.7 0 1.8 1.2 2.5 2.8 1.6 1-0.6 1.9-1.7 2.4-3 0.1-0.4 0.3-0.6 0.6-0.8q0.1-0.1 0.3-0.1c0.3 0.1 0.4 0.4 0.2 0.9-0.7 1.9-2 3.7-3.5 4.5-2.3 1.3-4.1 0.3-4.1-2.3 0-2.6 1.8-5.7 4-7z"/>
							</g>
						</g>
					</g>
				</g>
				<g id="&lt;Group&gt;" style="opacity: .5">
					<g id="&lt;Group&gt;">
						<path id="&lt;Compound Path&gt;" fill-rule="evenodd" class="s13" d="m237.1 577.6q-1.7 0-3.2-0.8c-2.3-1.4-3.5-4-3.5-7.5l-0.4-121.7c0-6.9 4.9-15.3 10.8-18.7l146-84.3c3.1-1.8 6.1-2 8.3-0.7 2.3 1.3 3.5 3.9 3.6 7.5l0.3 121.6c0 6.9-4.8 15.3-10.8 18.7l-146 84.3c-1.8 1.1-3.5 1.6-5.1 1.6zm154.8-232.6c-1.2 0-2.6 0.4-4.1 1.3l-146 84.3c-5.4 3.1-9.8 10.7-9.8 17l0.4 121.7c0 2.8 0.9 4.8 2.5 5.7 1.6 1 3.9 0.7 6.3-0.7l146-84.3c5.4-3.1 9.8-10.7 9.8-16.9l-0.3-121.7c0-2.8-0.9-4.9-2.6-5.8q-0.9-0.6-2.2-0.6z"/>
					</g>
				</g>
				<g id="&lt;Group&gt;">
					<g id="&lt;Group&gt;">
						<path id="&lt;Compound Path&gt;" fill-rule="evenodd" class="s13" d="m518.9 494.6q-0.7 0-1.4-0.3c-0.9-0.6-1.4-1.7-1.4-3l-0.6-207.7c0-2.5 1.6-5.4 3.8-6.6l82-47.4c1.2-0.7 2.4-0.7 3.4-0.2 0.9 0.5 1.4 1.6 1.4 3l0.6 207.7c0 2.4-1.6 5.3-3.8 6.6l-82 47.3q-1 0.6-2 0.6zm1.4-215.9c-1.6 0.9-2.9 3.1-2.9 4.9l0.6 207.7c0 0.6 0.2 1.1 0.5 1.3 0.3 0.1 0.8 0.1 1.4-0.3l82-47.3c1.6-0.9 2.9-3.2 2.9-4.9l-0.6-207.7c0-0.6-0.2-1.1-0.5-1.3-0.3-0.2-0.8-0.1-1.4 0.2z"/>
					</g>
				</g>
				<g id="&lt;Group&gt;">
					<g id="&lt;Group&gt;">
						<path id="&lt;Path&gt;" class="s3" d="m313.3 546.2c3-1.7 5.5-0.3 5.5 3.2l0.2 64.7c0 3.5-2.5 7.8-5.5 9.5l-77.8 44.9c-3 1.8-5.5 0.4-5.5-3.1l-0.2-64.8c0-3.5 2.5-7.8 5.5-9.5z"/>
					</g>
					<g id="&lt;Group&gt;" style="opacity: .2">
						<path id="&lt;Path&gt;" class="s13" d="m313.3 546.2c3-1.7 5.5-0.3 5.5 3.2l0.2 64.7c0 3.5-2.5 7.8-5.5 9.5l-77.8 44.9c-3 1.8-5.5 0.4-5.5-3.1l-0.2-64.8c0-3.5 2.5-7.8 5.5-9.5z"/>
					</g>
					<g id="&lt;Group&gt;">
						<path id="&lt;Path&gt;" class="s13" d="m313.8 550.5q0.3-0.2 0.5 0c0.2 0.1 0.1 0.6-0.1 0.9l-38.8 55.4 39 10.6c0.2 0.1 0.3 0.4 0.1 0.8q-0.2 0.4-0.5 0.5-0.1 0.1-0.3 0.1l-39.2-10.7-39 55.8q-0.2 0.3-0.3 0.4c-0.2 0-0.4 0.1-0.5 0-0.2-0.2-0.1-0.7 0.1-1l38.8-55.4-39-10.6c-0.2 0-0.3-0.4-0.1-0.8 0.1-0.2 0.3-0.4 0.5-0.5q0.1-0.1 0.3-0.1l39.2 10.7 39-55.8q0.2-0.2 0.3-0.3z"/>
					</g>
				</g>
				<g id="&lt;Group&gt;">
					<g id="&lt;Group&gt;">
						<path id="&lt;Path&gt;" class="s3" d="m408.6 492.5c3.1-1.8 5.6-0.4 5.6 3.1l0.1 64.8c0.1 3.5-2.4 7.8-5.4 9.5l-77.8 44.9c-3 1.8-5.5 0.3-5.5-3.1l-0.2-64.8c0-3.5 2.5-7.8 5.5-9.5z"/>
					</g>
					<g id="&lt;Group&gt;" style="opacity: .2">
						<path id="&lt;Path&gt;" class="s13" d="m408.6 492.5c3.1-1.8 5.6-0.4 5.6 3.1l0.1 64.8c0.1 3.5-2.4 7.8-5.4 9.5l-77.8 44.9c-3 1.8-5.5 0.3-5.5-3.1l-0.2-64.8c0-3.5 2.5-7.8 5.5-9.5z"/>
					</g>
					<g id="&lt;Group&gt;">
						<path id="&lt;Path&gt;" class="s13" d="m409.2 496.7q0.3-0.1 0.5 0c0.1 0.2 0.1 0.7-0.1 1l-38.8 55.4 38.9 10.6c0.3 0 0.3 0.4 0.2 0.8q-0.2 0.3-0.5 0.5-0.2 0.1-0.3 0.1l-39.2-10.7-39 55.8q-0.2 0.2-0.4 0.3c-0.1 0.1-0.3 0.1-0.4 0-0.2-0.1-0.1-0.6 0.1-0.9l38.8-55.4-39-10.6c-0.2-0.1-0.3-0.4-0.1-0.8 0.1-0.2 0.3-0.4 0.5-0.5q0.1-0.1 0.3-0.1l39.2 10.7 39-55.8q0.1-0.3 0.3-0.4z"/>
					</g>
				</g>
				<g id="&lt;Group&gt;">
					<g id="&lt;Group&gt;">
						<path id="&lt;Path&gt;" class="s3" d="m502.8 438.3c3.1-1.8 5.5-0.4 5.5 3.1l0.2 64.8c0 3.5-2.4 7.8-5.5 9.5l-77.7 44.9c-3 1.7-5.5 0.3-5.5-3.2l-0.2-64.8c0-3.4 2.5-7.7 5.5-9.5z"/>
					</g>
					<g id="&lt;Group&gt;" style="opacity: .2">
						<path id="&lt;Path&gt;" class="s13" d="m502.8 438.3c3.1-1.8 5.5-0.4 5.5 3.1l0.2 64.8c0 3.5-2.4 7.8-5.5 9.5l-77.7 44.9c-3 1.7-5.5 0.3-5.5-3.2l-0.2-64.8c0-3.4 2.5-7.7 5.5-9.5z"/>
					</g>
					<g id="&lt;Group&gt;">
						<path id="&lt;Path&gt;" class="s13" d="m503.4 442.5q0.3-0.1 0.5 0c0.1 0.2 0.1 0.6-0.2 1l-38.7 55.4 38.9 10.6c0.3 0 0.3 0.4 0.1 0.8q-0.1 0.3-0.4 0.5-0.2 0.1-0.3 0.1l-39.2-10.7-39 55.8q-0.2 0.2-0.4 0.3c-0.1 0.1-0.3 0.1-0.4 0-0.2-0.2-0.1-0.6 0.1-0.9l38.7-55.4-38.9-10.6c-0.2-0.1-0.3-0.4-0.1-0.8 0.1-0.2 0.3-0.4 0.4-0.5q0.2-0.1 0.4-0.1l39.2 10.6 39-55.8q0.1-0.2 0.3-0.3z"/>
					</g>
				</g>
				<g id="&lt;Group&gt;">
					<g id="&lt;Group&gt;">
						<path id="&lt;Path&gt;" class="s3" d="m495.3 294.1c5.1-3 9.2-0.6 9.2 5.2 0 5.8-4.1 12.9-9.2 15.9l-76.4 44.1c-5.1 2.9-9.2 0.6-9.2-5.2-0.1-5.9 4-13 9.1-15.9z"/>
					</g>
					<g id="&lt;Group&gt;" style="opacity: .2">
						<path id="&lt;Path&gt;" class="s13" d="m495.3 294.1c5.1-3 9.2-0.6 9.2 5.2 0 5.8-4.1 12.9-9.2 15.9l-76.4 44.1c-5.1 2.9-9.2 0.6-9.2-5.2-0.1-5.9 4-13 9.1-15.9z"/>
					</g>
				</g>
				<g id="&lt;Group&gt;">
					<g id="&lt;Group&gt;">
						<path id="&lt;Path&gt;" class="s3" d="m495.3 323.7c5.1-3 9.2-0.6 9.2 5.2 0 5.8-4.1 12.9-9.2 15.9l-76.4 44.1c-5.1 2.9-9.2 0.6-9.2-5.2-0.1-5.9 4-13 9.1-15.9z"/>
					</g>
					<g id="&lt;Group&gt;" style="opacity: .2">
						<path id="&lt;Path&gt;" class="s13" d="m495.3 323.7c5.1-3 9.2-0.6 9.2 5.2 0 5.8-4.1 12.9-9.2 15.9l-76.4 44.1c-5.1 2.9-9.2 0.6-9.2-5.2-0.1-5.9 4-13 9.1-15.9z"/>
					</g>
				</g>
				<g id="&lt;Group&gt;">
					<g id="&lt;Group&gt;">
						<path id="&lt;Path&gt;" class="s3" d="m495.3 353.3c5.1-3 9.2-0.6 9.2 5.2 0 5.8-4.1 12.9-9.2 15.9l-76.4 44.1c-5.1 2.9-9.2 0.6-9.2-5.2-0.1-5.9 4-13 9.1-15.9z"/>
					</g>
					<g id="&lt;Group&gt;" style="opacity: .2">
						<path id="&lt;Path&gt;" class="s13" d="m495.3 353.3c5.1-3 9.2-0.6 9.2 5.2 0 5.8-4.1 12.9-9.2 15.9l-76.4 44.1c-5.1 2.9-9.2 0.6-9.2-5.2-0.1-5.9 4-13 9.1-15.9z"/>
					</g>
				</g>
			</g>
			<path id="&lt;Path&gt;" class="s3" d="m630 138.9c0-4.4-1.5-7.5-4-9q0 0-0.1 0 0 0-0.1-0.1c-2.5-1.4-6-1.2-9.9 1.1l-389.2 224.1c-7.7 4.5-14 15.3-14 24.2l0.1 18.2 417.2-240.9z"/>
			<path id="&lt;Path&gt;" class="s6" d="m630 138.9c0-4.4-1.5-7.5-4-9q0 0-0.1 0 0 0-0.1-0.1c-2.5-1.4-6-1.2-9.9 1.1l-389.2 224.1c-7.7 4.5-14 15.3-14 24.2l0.1 18.2 417.2-240.9z"/>
			<g id="&lt;Group&gt;" style="opacity: .5">
				<g id="&lt;Group&gt;">
					<path id="&lt;Path&gt;" class="s13" d="m231.3 367.7c2.1-1.2 3.8-0.2 3.8 2.2 0 2.4-1.7 5.4-3.8 6.6-2.1 1.2-3.8 0.2-3.8-2.2 0-2.4 1.7-5.4 3.8-6.6z"/>
				</g>
				<g id="&lt;Group&gt;">
					<path id="&lt;Path&gt;" class="s13" d="m241.7 361.7c2.1-1.2 3.8-0.3 3.8 2.2 0 2.4-1.7 5.3-3.8 6.6-2.1 1.2-3.8 0.2-3.8-2.2 0-2.4 1.7-5.4 3.8-6.6z"/>
				</g>
				<g id="&lt;Group&gt;">
					<path id="&lt;Path&gt;" class="s13" d="m252.1 355.7c2.2-1.3 3.9-0.3 3.9 2.1 0 2.5-1.7 5.4-3.8 6.6-2.1 1.3-3.9 0.3-3.9-2.2 0-2.4 1.7-5.3 3.8-6.5z"/>
				</g>
			</g>
			<g id="&lt;Group&gt;">
				<g id="&lt;Group&gt;">
					<path id="&lt;Path&gt;" class="s3" d="m231.3 367.7c2.1-1.2 3.8-0.2 3.8 2.2 0 2.4-1.7 5.4-3.8 6.6-2.1 1.2-3.8 0.2-3.8-2.2 0-2.4 1.7-5.4 3.8-6.6z"/>
				</g>
				<g id="&lt;Group&gt;">
					<path id="&lt;Path&gt;" class="s3" d="m241.7 361.7c2.1-1.2 3.8-0.3 3.8 2.2 0 2.4-1.7 5.3-3.8 6.6-2.1 1.2-3.8 0.2-3.8-2.2 0-2.4 1.7-5.4 3.8-6.6z"/>
				</g>
				<g id="&lt;Group&gt;">
					<path id="&lt;Path&gt;" class="s3" d="m252.1 355.7c2.2-1.3 3.9-0.3 3.9 2.1 0 2.5-1.7 5.4-3.8 6.6-2.1 1.3-3.9 0.3-3.9-2.2 0-2.4 1.7-5.3 3.8-6.5z"/>
				</g>
			</g>
		</g>
	</g>
	<g id="Plants">
		<g id="&lt;Group&gt;">
			<g id="&lt;Group&gt;">
				<path id="&lt;Path&gt;" class="s13" d="m241.4 824.6l-25.9 0.8-26-0.8c-1.1 17.6 2.3 35.5 7 44.2 0.9 1.9 2.6 3.7 5.2 5.2 7.6 4.4 20 4.4 27.6 0 2.7-1.5 4.4-3.4 5.2-5.4 4.7-8.7 8-26.5 6.9-44z"/>
				<g id="&lt;Group&gt;">
					<path id="&lt;Path&gt;" class="s14" d="m233.8 814c10.1 5.9 10.2 15.4 0.1 21.3-10.1 5.9-26.6 5.9-36.8 0-10.1-5.9-10.2-15.4-0.1-21.3 10.1-5.9 26.6-5.9 36.8 0z"/>
				</g>
				<g id="&lt;Group&gt;">
					<path id="&lt;Path&gt;" class="s1" d="m229.7 816.3c8 4.6 8 12.1 0.1 16.6-7.9 4.6-20.7 4.6-28.6 0-8-4.5-8-12-0.1-16.6 7.9-4.5 20.7-4.5 28.6 0z"/>
				</g>
				<g id="&lt;Group&gt;" style="opacity: .1">
					<path id="&lt;Path&gt;" class="s15" d="m229.7 816.3c8 4.6 8 12.1 0.1 16.6-7.9 4.6-20.7 4.6-28.6 0-8-4.5-8-12-0.1-16.6 7.9-4.5 20.7-4.5 28.6 0z"/>
				</g>
			</g>
			<g id="&lt;Group&gt;">
				<path id="&lt;Path&gt;" class="s3" d="m202.2 771.5c-4.2-5.3-9.1-10-13-15.5-2.6-3.7-4.8-8.3-3.7-12.8 1-4.1 4.9-7.2 9.1-8 4.2-0.8 8.5 0.5 12.2 2.7 3.6 2.3 6.5 5.5 9.2 8.8 14.5 18.2 21.6 42.2 19.3 65.4-0.3 2.7-0.7 5.5-2.4 7.6-1.8 2.2-5 3.1-7.8 2.3-7.1-2.1-6.1-11.6-7.3-17.2-1.6-7.8-4.3-15.2-8.1-22.1-2.2-3.9-4.7-7.7-7.5-11.2z"/>
				<path id="&lt;Path&gt;" class="s16" d="m202.2 771.5c-4.2-5.3-9.1-10-13-15.5-2.6-3.7-4.8-8.3-3.7-12.8 1-4.1 4.9-7.2 9.1-8 4.2-0.8 8.5 0.5 12.2 2.7 3.6 2.3 6.5 5.5 9.2 8.8 14.5 18.2 21.6 42.2 19.3 65.4-0.3 2.7-0.7 5.5-2.4 7.6-1.8 2.2-5 3.1-7.8 2.3-7.1-2.1-6.1-11.6-7.3-17.2-1.6-7.8-4.3-15.2-8.1-22.1-2.2-3.9-4.7-7.7-7.5-11.2z"/>
				<g id="&lt;Group&gt;">
					<path id="&lt;Path&gt;" class="s2" d="m225.6 814.9c-0.3 0-0.5-0.3-0.5-0.6-0.5-11.3-4.2-50.1-30.9-72.1-0.3-0.2-0.3-0.6-0.1-0.9 0.2-0.2 0.6-0.3 0.8 0 27.1 22.3 30.9 61.5 31.4 73 0 0.3-0.3 0.6-0.6 0.6q-0.1 0-0.1 0z"/>
				</g>
				<g id="&lt;Group&gt;">
					<path id="&lt;Path&gt;" class="s3" d="m229.5 816.1c-0.9 4.5-4.7 10-8.7 12.1-4 2-8.7 2.6-13.1 2.2-4.6-0.4-9-1.7-13.4-3.2-2.1-0.7-4.5-1.7-4.7-4.3-0.1-1.4 0.5-2.8 1.5-3.8q0.6-0.6 1.4-1.2c1-0.7 0.5-2.3-0.8-2.4q-1.9-0.1-3.8-0.5c-2.9-0.5-5.7-1.7-7.9-3.6-1.7-1.5-3-3.4-3.7-5.5-0.7-1.7-0.8-4 0.5-5.3 0.8-0.8 1.9-1.1 3-1.3q1.4-0.3 2.8-0.5c1.3-0.2 1.5-2 0.3-2.4l-4-1.7c-1.1-0.5-2.3-1-3.1-1.9-1.2-1.5-1.1-3.7-0.7-5.6 0.5-2.5 1.3-4.9 1.9-7.4 0.6-2.5 0.9-5.2 0.3-7.7 7.5-0.7 15.2-0.4 22.6 1.6 2.1 0.5 4.3 1.2 6.1 2.6 2.5 2.1 3.2 5.1 2.9 8.3 0 0.7 0.8 0.9 1.1 0.4l2.6-4.8c0.8-1.4 2.5-2 4-1.3 2.2 1.1 4.2 2.7 5.9 4.7 1.8 2 2.7 4.7 2.5 7.5-0.3 3.7-1 7.5-1.9 11.1-0.2 0.9 0.8 1.6 1.6 1l0.1-0.1c0.7-0.5 1.6-0.8 2.5-0.7 2.2 0.3 2.8 2.6 3 4.6 0.2 2.8-0.3 6.2-0.8 9.1z"/>
					<path id="&lt;Path&gt;" class="s9" d="m229.5 816.1c-0.9 4.5-4.7 10-8.7 12.1-4 2-8.7 2.6-13.1 2.2-4.6-0.4-9-1.7-13.4-3.2-2.1-0.7-4.5-1.7-4.7-4.3-0.1-1.4 0.5-2.8 1.5-3.8q0.6-0.6 1.4-1.2c1-0.7 0.5-2.3-0.8-2.4q-1.9-0.1-3.8-0.5c-2.9-0.5-5.7-1.7-7.9-3.6-1.7-1.5-3-3.4-3.7-5.5-0.7-1.7-0.8-4 0.5-5.3 0.8-0.8 1.9-1.1 3-1.3q1.4-0.3 2.8-0.5c1.3-0.2 1.5-2 0.3-2.4l-4-1.7c-1.1-0.5-2.3-1-3.1-1.9-1.2-1.5-1.1-3.7-0.7-5.6 0.5-2.5 1.3-4.9 1.9-7.4 0.6-2.5 0.9-5.2 0.3-7.7 7.5-0.7 15.2-0.4 22.6 1.6 2.1 0.5 4.3 1.2 6.1 2.6 2.5 2.1 3.2 5.1 2.9 8.3 0 0.7 0.8 0.9 1.1 0.4l2.6-4.8c0.8-1.4 2.5-2 4-1.3 2.2 1.1 4.2 2.7 5.9 4.7 1.8 2 2.7 4.7 2.5 7.5-0.3 3.7-1 7.5-1.9 11.1-0.2 0.9 0.8 1.6 1.6 1l0.1-0.1c0.7-0.5 1.6-0.8 2.5-0.7 2.2 0.3 2.8 2.6 3 4.6 0.2 2.8-0.3 6.2-0.8 9.1z"/>
					<path id="&lt;Path&gt;" class="s16" d="m229.5 816.1c-0.9 4.5-4.7 10-8.7 12.1-4 2-8.7 2.6-13.1 2.2-4.6-0.4-9-1.7-13.4-3.2-2.1-0.7-4.5-1.7-4.7-4.3-0.1-1.4 0.5-2.8 1.5-3.8q0.6-0.6 1.4-1.2c1-0.7 0.5-2.3-0.8-2.4q-1.9-0.1-3.8-0.5c-2.9-0.5-5.7-1.7-7.9-3.6-1.7-1.5-3-3.4-3.7-5.5-0.7-1.7-0.8-4 0.5-5.3 0.8-0.8 1.9-1.1 3-1.3q1.4-0.3 2.8-0.5c1.3-0.2 1.5-2 0.3-2.4l-4-1.7c-1.1-0.5-2.3-1-3.1-1.9-1.2-1.5-1.1-3.7-0.7-5.6 0.5-2.5 1.3-4.9 1.9-7.4 0.6-2.5 0.9-5.2 0.3-7.7 7.5-0.7 15.2-0.4 22.6 1.6 2.1 0.5 4.3 1.2 6.1 2.6 2.5 2.1 3.2 5.1 2.9 8.3 0 0.7 0.8 0.9 1.1 0.4l2.6-4.8c0.8-1.4 2.5-2 4-1.3 2.2 1.1 4.2 2.7 5.9 4.7 1.8 2 2.7 4.7 2.5 7.5-0.3 3.7-1 7.5-1.9 11.1-0.2 0.9 0.8 1.6 1.6 1l0.1-0.1c0.7-0.5 1.6-0.8 2.5-0.7 2.2 0.3 2.8 2.6 3 4.6 0.2 2.8-0.3 6.2-0.8 9.1z"/>
					<path id="&lt;Path&gt;" class="s2" d="m217.5 827.6c0-0.2-1.6-7.8-6.1-17.6q0-0.3-0.2-0.5-0.2-0.5-0.4-0.9c1.3-11.8 5.9-20.1 6-20.2 0.2-0.3 0.1-0.6-0.2-0.8-0.3-0.2-0.7-0.1-0.9 0.2 0 0.1-4.3 7.7-5.9 18.7-5.1-10.3-13.3-22.3-26-31.1-0.3-0.2-0.7-0.1-0.9 0.1-0.2 0.3-0.1 0.7 0.2 0.9 13 9.1 21.3 21.7 26.3 32.1-10.2-4.9-21-3-21.5-2.9-0.4 0.1-0.6 0.4-0.5 0.7 0 0.3 0.2 0.5 0.5 0.5q0.1 0 0.2 0c0.1 0 11.9-2.1 22.1 3.6 4.5 9.7 6 17.2 6.1 17.4 0 0.2 0.2 0.4 0.5 0.5q0.1 0 0.2 0c0.3-0.1 0.6-0.4 0.5-0.7z"/>
				</g>
			</g>
		</g>
		<g id="&lt;Group&gt;">
			<g id="&lt;Group&gt;">
				<path id="&lt;Path&gt;" class="s13" d="m852.5 569.2l-27.8 0.8-27.7-0.8c-1.2 18.7 2.4 37.8 7.5 47.2 0.9 2 2.7 3.9 5.5 5.6 8.2 4.7 21.4 4.7 29.6 0 2.8-1.7 4.6-3.7 5.5-5.8 5-9.4 8.6-28.4 7.4-47z"/>
				<g id="&lt;Group&gt;">
					<path id="&lt;Path&gt;" class="s14" d="m844.3 557.8c10.9 6.3 10.9 16.4 0.1 22.7-10.8 6.3-28.4 6.3-39.2 0-10.9-6.3-11-16.4-0.2-22.7 10.8-6.3 28.4-6.3 39.3 0z"/>
				</g>
				<g id="&lt;Group&gt;">
					<path id="&lt;Path&gt;" class="s1" d="m840 560.3c8.5 4.9 8.5 12.8 0.1 17.7-8.4 4.9-22.1 4.9-30.6 0-8.5-4.9-8.6-12.8-0.1-17.7 8.4-4.9 22.1-4.9 30.6 0z"/>
				</g>
				<g id="&lt;Group&gt;" style="opacity: .1">
					<path id="&lt;Path&gt;" class="s15" d="m840 560.3c8.5 4.9 8.5 12.8 0.1 17.7-8.4 4.9-22.1 4.9-30.6 0-8.5-4.9-8.6-12.8-0.1-17.7 8.4-4.9 22.1-4.9 30.6 0z"/>
				</g>
			</g>
			<g id="&lt;Group&gt;">
				<path id="&lt;Path&gt;" class="s3" d="m870.4 450.6c-62.6 20.5-63.2 62.4-49 92.2 3.5 6.1 14.3 9.3 23.7-27.8l-16.5 2.1 19.2-9.7 4.9-14.9-15.9 1.2 20.3-8.5c7.4-22.6 13.3-34.6 13.3-34.6z"/>
				<path id="&lt;Path&gt;" class="s9" d="m870.4 450.6c-62.6 20.5-63.2 62.4-49 92.2 3.5 6.1 14.3 9.3 23.7-27.8l-16.5 2.1 19.2-9.7 4.9-14.9-15.9 1.2 20.3-8.5c7.4-22.6 13.3-34.6 13.3-34.6z"/>
				<path id="&lt;Path&gt;" class="s16" d="m870.4 450.6c-62.6 20.5-63.2 62.4-49 92.2 3.5 6.1 14.3 9.3 23.7-27.8l-16.5 2.1 19.2-9.7 4.9-14.9-15.9 1.2 20.3-8.5c7.4-22.6 13.3-34.6 13.3-34.6z"/>
				<path id="&lt;Path&gt;" class="s13" d="m852.7 461.1c-33 25.1-36 53.8-26.7 83.8-3.3-26.4-6.8-53.1 26.7-83.8z"/>
			</g>
			<g id="&lt;Group&gt;">
				<path id="&lt;Path&gt;" class="s3" d="m764.4 493.2c61.7 8.7 69.2 47.6 61 77.7-2.3 6.2-11.8 11-26.7-22l15.7-0.7-19.5-5.9-7.1-13 15.1-1.6-20.3-4.6c-10.7-19.8-18.2-29.9-18.2-29.9z"/>
				<path id="&lt;Path&gt;" class="s16" d="m764.4 493.2c61.7 8.7 69.2 47.6 61 77.7-2.3 6.2-11.8 11-26.7-22l15.7-0.7-19.5-5.9-7.1-13 15.1-1.6-20.3-4.6c-10.7-19.8-18.2-29.9-18.2-29.9z"/>
				<path id="&lt;Path&gt;" class="s4" d="m764.4 493.2c61.7 8.7 69.2 47.6 61 77.7-2.3 6.2-11.8 11-26.7-22l15.7-0.7-19.5-5.9-7.1-13 15.1-1.6-20.3-4.6c-10.7-19.8-18.2-29.9-18.2-29.9z"/>
				<path id="&lt;Path&gt;" class="s13" d="m782.6 500c34.9 17.8 42.5 44.1 38.8 73.6-1.4-25.2-2.5-50.6-38.8-73.6z"/>
			</g>
			<g id="&lt;Group&gt;">
				<path id="&lt;Path&gt;" class="s3" d="m888.5 507.8c-56.6 0.9-67.7 35.1-63.7 63.2 1.4 5.8 9.4 11.2 26.5-16.8l-14-2.5 18.2-3.1 7.8-10.9-13.4-3.1 18.8-1.9c11.9-16.6 19.8-24.9 19.8-24.9z"/>
				<path id="&lt;Path&gt;" class="s13" d="m871.3 511.9c-33.5 12.1-43.2 34.9-43.2 61.9 4-22.5 7.9-45.3 43.2-61.9z"/>
				<path id="&lt;Path&gt;" class="s16" d="m888.5 507.8c-56.6 0.9-67.7 35.1-63.7 63.2 1.4 5.8 9.4 11.2 26.5-16.8l-14-2.5 18.2-3.1 7.8-10.9-13.4-3.1 18.8-1.9c11.9-16.6 19.8-24.9 19.8-24.9z"/>
			</g>
		</g>
	</g>
	<g id="Character 3">
		<g id="&lt;Group&gt;">
			<path id="&lt;Path&gt;" class="s7" d="m670.4 288l-0.1 18.6 3.4 29.1 4.8 28.3 16.6 2-6.8-30.3-12.9-50.1z"/>
			<path id="&lt;Path&gt;" class="s3" d="m677 360.5c11.4-4.2 18.9 1.8 18.9 1.8l1.9 48.5-20.4-11.7z"/>
			<path id="&lt;Path&gt;" class="s3" d="m677 360.5c11.4-4.2 18.9 1.8 18.9 1.8l1.9 48.5-20.4-11.7z"/>
			<path id="&lt;Path&gt;" class="s6" d="m677 360.5c11.4-4.2 18.9 1.8 18.9 1.8l1.9 48.5-20.4-11.7z"/>
			<path id="&lt;Path&gt;" class="s8" d="m677 360.5c11.4-4.2 18.9 1.8 18.9 1.8l1.9 48.5-20.4-11.7z"/>
			<g id="&lt;Group&gt;">
				<g id="&lt;Group&gt;">
					<path id="&lt;Path&gt;" class="s3" d="m666.8 221c1.9-1.1 3.4-0.2 3.4 1.9l0.6 212.6c0 2.2-1.5 4.8-3.4 5.9l-83.9 48.5c-1.9 1-3.4 0.2-3.5-2l-0.6-212.5c0-2.2 1.6-4.9 3.4-5.9z"/>
				</g>
				<g id="&lt;Group&gt;" style="opacity: .2">
					<path id="&lt;Path&gt;" class="s15" d="m666.8 221c1.9-1.1 3.4-0.2 3.4 1.9l0.6 212.6c0 2.2-1.5 4.8-3.4 5.9l-83.9 48.5c-1.9 1-3.4 0.2-3.5-2l-0.6-212.5c0-2.2 1.6-4.9 3.4-5.9z"/>
				</g>
				<g id="&lt;Group&gt;" style="opacity: .1">
					<path id="&lt;Path&gt;" class="s13" d="m666.8 221c1.9-1.1 3.4-0.2 3.4 1.9l0.6 212.6c0 2.2-1.5 4.8-3.4 5.9l-83.9 48.5c-1.9 1-3.4 0.2-3.5-2l-0.6-212.5c0-2.2 1.6-4.9 3.4-5.9z"/>
				</g>
				<g id="&lt;Group&gt;">
					<path id="&lt;Path&gt;" class="s13" d="m665.6 228.3c0.8-0.1 1 0.4 0.8 1l-40.3 125.6 40.9 78.7c0.2 0.3 0 1-0.4 1.5-0.7 0.5-1 0.4-1.1 0.2l-40.4-77.5-39.7 123.7c-0.2 0.4-0.5 0.8-0.8 1-0.8 0.2-1-0.3-0.8-0.9l40.4-125.6-40.9-78.7c-0.2-0.4-0.1-1.1 0.4-1.6 0.7-0.4 1-0.4 1.1-0.1l40.3 77.5 39.8-123.8c0.1-0.4 0.4-0.8 0.7-1z"/>
				</g>
			</g>
			<path id="&lt;Path&gt;" class="s7" d="m617.1 388l-18-6-11.9-44.8c-0.2-1.3-0.1-2.7 0.4-3.9l1.2-3.2c0.7-1.6 1-3.4 0.9-5.1l-0.2-6.9c0-1.1-1-2-2.1-2-1 0-1.9 0.7-2 1.7l-1.1 5.9-2.5 2.9-2.3-8.1v-10.3l-5.1 7.4c-1.4 2-2 4.5-1.6 6.9l2.2 13 5.8 50.4c0.8 7.4 5.7 13.7 12.7 16.4l18.9 7.3z"/>
			<g id="&lt;Group&gt;">
				<g id="&lt;Group&gt;">
					<g id="&lt;Group&gt;">
						<path id="&lt;Path&gt;" class="s10" d="m655.8 660.7c-1 3.1-4.4 4.8-7.6 5.1-3.2 0.2-6.4-0.7-9.6-1.2-7.1-1.3-13.9-0.1-21-0.2-2.4-0.1-4.7-0.2-7-0.8-2.2-0.6-4.4-1.7-5.9-3.5-0.9-1-1.5-2.3-1.7-3.7-0.3 2.1 0.4 4.2 1.7 5.8 1.5 1.8 3.7 2.9 5.9 3.5 2.3 0.6 4.6 0.7 7 0.8 7.1 0.1 13.9-1.1 21 0.1 3.2 0.6 6.4 1.5 9.6 1.3 3.2-0.3 6.6-2.1 7.6-5.1 0.3-1.1 0.3-2.2 0.2-3.3q-0.1 0.6-0.2 1.2z"/>
						<path id="&lt;Path&gt;" class="s17" d="m655.6 654.8q-0.7-3.2-1.3-6.5c-0.3-1.1-0.5-2.3-1.1-3.2-0.7-1-1.7-1.8-2.9-1.7-3.9-0.5-9.4-1.9-12.6 0.3-5.1 3.5-11.3 5.3-17.4 5.1-3.2-0.2-6.5-0.8-9.7-0.4-3.1 0.4-6.5 2.1-7.4 5.2-0.3 0.9-0.3 1.9-0.2 2.8 0.2 1.4 0.8 2.7 1.7 3.7 1.5 1.8 3.7 2.9 5.9 3.5 2.3 0.6 4.6 0.7 7 0.8 7.1 0.1 13.9-1.1 21 0.2 3.2 0.5 6.4 1.4 9.6 1.2 3.2-0.3 6.6-2 7.6-5.1q0.1-0.6 0.2-1.2c0.2-1.5-0.1-3.2-0.4-4.7z"/>
					</g>
					<path id="&lt;Path&gt;" class="s7" d="m636.7 636.9l-0.2 8.5c-0.1 1.7 1.3 3.3 3.1 3.4q4.3 0.3 8.4-0.1c2.4-0.2 4.3-2.1 4.4-4.5l0.3-6.2z"/>
				</g>
				<g id="&lt;Group&gt;">
					<g id="&lt;Group&gt;">
						<path id="&lt;Path&gt;" class="s10" d="m691.7 632.5c-0.1 1.2-0.4 2.5-1.1 3.4-1 1.3-2.5 2-4 2.3-3.7 0.7-7.7-1-9.9-4.1-1-1.5-1.6-3.3-2.6-4.9-1.4-2.2-3.5-3.8-5.6-5.4-2-1.5-4.1-3.1-5.5-5.3-1.4-2.1-2-4.8-1.1-7.1q-0.3 0.4-0.5 0.9c-1.1 2.4-0.5 5.3 1 7.6 1.4 2.2 3.6 3.8 5.7 5.5 2.1 1.6 4.2 3.3 5.6 5.5 1 1.6 1.6 3.5 2.7 5.1 2.2 3.1 6.3 4.9 10.1 4.1 1.5-0.3 3.1-1 4-2.3 1-1.3 1.2-3.1 1.2-4.8q0-0.3 0-0.5z"/>
						<path id="&lt;Path&gt;" class="s17" d="m689.1 621.9c-2.5-4.5-7.8-7.7-11.9-10.9-2.3-1.8-4.9-3.4-7.9-3.6-2.9-0.2-6.1 1.1-7.3 3.8q0 0.1-0.1 0.2c-0.9 2.3-0.3 5 1.1 7.1 1.4 2.2 3.5 3.8 5.5 5.3 2.1 1.6 4.2 3.2 5.6 5.4 1 1.6 1.6 3.4 2.6 4.9 2.2 3.1 6.2 4.8 9.9 4.1 1.5-0.3 3-1 4-2.3 0.7-0.9 1-2.2 1.1-3.4q0-0.6 0-1.2c0-3.3-0.9-6.6-2.6-9.4z"/>
					</g>
					<path id="&lt;Path&gt;" class="s7" d="m678 618v7.7c7 2.9 11.9-0.6 11.9-0.6l0.8-6.8z"/>
				</g>
				<path id="&lt;Path&gt;" class="s10" d="m692.7 479.3c2.3 6.9-0.6 39.5-1.9 70.9 5 11.9 3.6 45.5 0.8 69.4 0 0-5 3.1-14 0l-11.3-66-1.5-37.2c0 0-2.9 33-6.1 54.3 3 16.2 2.3 19.3-5.3 69.2 0 0-7.7 4.5-16.9 0-4.3-70.2-2.7-134.2-1.9-157.2z"/>
				<path id="&lt;Path&gt;" class="s6" d="m665.7 539.1l-1.3-30.4c7.9 0 15.2-5.9 20.7-11.5-5.3 9.5-15.6 13.7-15.6 13.7z"/>
			</g>
			<path id="&lt;Path&gt;" class="s3" d="m633.4 484.6c35.1 14.7 57.8 1.4 60.9-5.5-1.6-24.2 4.1-52.6 3.7-64.6-0.5-12.1-2-25.7-20.6-22.9l-19.9 1.9-10.1 2.4-12.1 25.1z"/>
			<path id="&lt;Path&gt;" class="s9" d="m633.4 484.6c35.1 14.7 57.8 1.4 60.9-5.5-1.6-24.2 4.1-52.6 3.7-64.6-0.5-12.1-2-25.7-20.6-22.9l-19.9 1.9-10.1 2.4-12.1 25.1z"/>
			<path id="&lt;Path&gt;" class="s8" d="m633.4 484.6c35.1 14.7 57.8 1.4 60.9-5.5-1.6-24.2 4.1-52.6 3.7-64.6-0.5-12.1-2-25.7-20.6-22.9l-19.9 1.9-10.1 2.4-12.1 25.1z"/>
			<g id="&lt;Group&gt;">
				<path id="&lt;Path&gt;" class="s10" d="m677.4 382c1.1 0.2 3-0.4 3.8-1.3 0.9-0.9 1.2-2.1 1-3.3 1.1-0.2 2.2-1.1 2.6-2.2 0.5-1.1 0.1-2.6-0.6-3.6 1.7-0.4 3.2-1.6 4-3.2 0.7-1.6 0.9-3.7 0.1-5.2 1.9-0.5 3.5-2 4-3.9 0.5-1.9 0.2-4.3-1.1-5.7 1.6-2.1 2-5.1 0.9-7.6-1.1-2.4-3.9-4.2-6.6-4.4 0.4-2.6-0.6-5.3-2.5-7-2-1.7-4.8-2.2-7.2-1.4-0.9-2.2-3-3.9-5.3-4.2-2.3-0.4-4.9 0.4-6.3 2.2-1.1-1.3-3-2-4.7-1.7-1.7 0.2-3.5 1.2-4.2 2.7-2.2-0.9-4.9-0.7-6.9 0.6-2.1 1.4-3.2 3.8-3.2 6.2-1.7 0.5-3 2.3-3 4.2 0.1 1.8 1.7 3.7 3.5 4 1.7 9.4 4.9 18.7 9.3 27.2 2 3.9 4.4 7.8 8.2 9.7 4.1 2.2 10.6 1 14.2-2.1z"/>
				<path id="&lt;Path&gt;" class="s3" d="m677.4 382c1.1 0.2 3-0.4 3.8-1.3 0.9-0.9 1.2-2.1 1-3.3 1.1-0.2 2.2-1.1 2.6-2.2 0.5-1.1 0.1-2.6-0.6-3.6 1.7-0.4 3.2-1.6 4-3.2 0.7-1.6 0.9-3.7 0.1-5.2 1.9-0.5 3.5-2 4-3.9 0.5-1.9 0.2-4.3-1.1-5.7 1.6-2.1 2-5.1 0.9-7.6-1.1-2.4-3.9-4.2-6.6-4.4 0.4-2.6-0.6-5.3-2.5-7-2-1.7-4.8-2.2-7.2-1.4-0.9-2.2-3-3.9-5.3-4.2-2.3-0.4-4.9 0.4-6.3 2.2-1.1-1.3-3-2-4.7-1.7-1.7 0.2-3.5 1.2-4.2 2.7-2.2-0.9-4.9-0.7-6.9 0.6-2.1 1.4-3.2 3.8-3.2 6.2-1.7 0.5-3 2.3-3 4.2 0.1 1.8 1.7 3.7 3.5 4 1.7 9.4 4.9 18.7 9.3 27.2 2 3.9 4.4 7.8 8.2 9.7 4.1 2.2 10.6 1 14.2-2.1z"/>
				<path id="&lt;Path&gt;" class="s18" d="m677.4 382c1.1 0.2 3-0.4 3.8-1.3 0.9-0.9 1.2-2.1 1-3.3 1.1-0.2 2.2-1.1 2.6-2.2 0.5-1.1 0.1-2.6-0.6-3.6 1.7-0.4 3.2-1.6 4-3.2 0.7-1.6 0.9-3.7 0.1-5.2 1.9-0.5 3.5-2 4-3.9 0.5-1.9 0.2-4.3-1.1-5.7 1.6-2.1 2-5.1 0.9-7.6-1.1-2.4-3.9-4.2-6.6-4.4 0.4-2.6-0.6-5.3-2.5-7-2-1.7-4.8-2.2-7.2-1.4-0.9-2.2-3-3.9-5.3-4.2-2.3-0.4-4.9 0.4-6.3 2.2-1.1-1.3-3-2-4.7-1.7-1.7 0.2-3.5 1.2-4.2 2.7-2.2-0.9-4.9-0.7-6.9 0.6-2.1 1.4-3.2 3.8-3.2 6.2-1.7 0.5-3 2.3-3 4.2 0.1 1.8 1.7 3.7 3.5 4 1.7 9.4 4.9 18.7 9.3 27.2 2 3.9 4.4 7.8 8.2 9.7 4.1 2.2 10.6 1 14.2-2.1z"/>
				<path id="&lt;Path&gt;" class="s19" d="m644.3 359.6l-4.1 7.2 4.5 1.6z"/>
				<path id="&lt;Path&gt;" class="s7" d="m645.7 347.2c-2.7 9.8-3.1 20.3-1.2 30.3 0.4 1.8 0.8 3.5 1.9 4.9 1.3 1.5 3.3 2.2 5.2 2.4 2 0.1 4-0.2 5.9-0.6v9.3c7.1 1.7 14.3 2.3 19.9-1.9v-9.6c-4 1.2-8.3 1.7-12.4 0.8-4.8-2.6-5.8-11.5-5.1-13.9 0.7 1.2 2.4 1.7 3.8 1.4 1.3-0.4 2.4-1.4 3.1-2.6 0.7-1.2 1-2.5 1.2-3.9 0.2-1.7 0.2-3.5-0.7-4.9-1.1-1.8-3.5-2.4-5.5-1.9-2 0.5-3.7 2.1-4.7 3.9q-0.5 0.9-0.8 1.8c-0.4 1.1-2 0.9-2.1-0.3-0.3-2.6 0.2-5.4 1.4-7.8-1.6 0-3.1-1.2-4-2.4-1-1.3-1.3-3-0.8-4.5-2.3 0.3-5.1-0.5-5.1-0.5z"/>
			</g>
			<path id="&lt;Path&gt;" class="s7" d="m670.4 288l-3.3-7.8-1.6-7.3c-0.2-1 0.3-1.9 1.3-2.3 0.9-0.3 2 0.2 2.3 1.2l1.4 4v-11.3l4.7 8.5c0.7 1.2 1.1 2.7 0.9 4.1l-0.7 8.5z"/>
			<path id="&lt;Path&gt;" class="s3" d="m647.5 395.9c-11.2-3.7-31.1-9.7-31.1-9.7-8.9 9-8.2 23.6-8.2 23.6l27.1 11.2c25.9 8.2 29.7-19.3 12.2-25.1z"/>
			<path id="&lt;Path&gt;" class="s6" d="m647.5 395.9c-11.2-3.7-31.1-9.7-31.1-9.7-8.9 9-8.2 23.6-8.2 23.6l27.1 11.2c25.9 8.2 29.7-19.3 12.2-25.1z"/>
			<path id="&lt;Path&gt;" class="s8" d="m647.5 395.9c-11.2-3.7-31.1-9.7-31.1-9.7-8.9 9-8.2 23.6-8.2 23.6l27.1 11.2c25.9 8.2 29.7-19.3 12.2-25.1z"/>
		</g>
	</g>
	<g id="Character 2">
		<g id="&lt;Group&gt;">
			<g id="&lt;Group&gt;">
				<path id="&lt;Path&gt;" class="s7" d="m657.7 635.2l-37.8-27.9-14.5-43.7c0-3.2-0.1-6.5-0.2-9.8 0-2-1.1-3.9-2.9-4.7-2.8-1.4-5.7-2.2-8.8-2.5-0.6-2.1-1.4-4.1-2.8-5.8-0.7-0.9-1.9-1.1-2.9-0.6q0 0 0 0c-1.3 0.6-1.7 2.2-1 3.4 3 4.8 5.3 10.1 6 15.7-2-1.1-3.8-2.4-5.3-4-1.5-1.7-4.3-1.3-5.3 0.7v0.1c2.5 5.3 7.4 9.8 12.7 12.3l6.9 44.8c0.6 4.3 2.7 8.2 6 11.2l27.9 25z"/>
				<path id="&lt;Path&gt;" class="s19" d="m619.9 607.3l-7.1-21.4c-6.6 8.9-10.2 20-10.1 31 1.1 2.8 2.8 5.4 5.1 7.5l27.9 25 22-14.2z"/>
			</g>
			<g id="&lt;Group&gt;">
				<path id="&lt;Path&gt;" class="s20" d="m629.7 903.4c-0.9 2-3.8 3.8-7.1 4.3-3.2 0.5-6.5-0.2-9.7-0.6-4.9-0.7-9.8-0.8-14.6-0.4-3.1 0.3-6.1 0.8-9.1 0.7-3-0.1-6.2-0.9-8.5-2.7-1.7-1.4-2.9-3.4-3.2-5.5-0.4 2.8 1 5.6 3.2 7.4 2.3 1.8 5.5 2.6 8.5 2.7 3 0.1 6-0.4 9.1-0.7 4.8-0.4 9.7-0.3 14.6 0.4 3.2 0.4 6.7 1.4 10 0.8 3.2-0.5 6.1-2.3 7.1-4.3z"/>
				<g id="&lt;Group&gt;">
					<path id="&lt;Path&gt;" class="s13" d="m594.3 897.6c2.8 0 1.8-4 4.4-6.7q-1.6 0.1-3.2 0.1c-2.3 3.3-3 6.6-1.2 6.6z"/>
					<path id="&lt;Path&gt;" class="s13" d="m600 897.4c2.7 0 2-4.8 4.7-7.6q-0.9 0.4-1.9 0.6-0.8 0.1-1.6 0.3c-2.4 3.4-3.1 6.7-1.2 6.7z"/>
					<path id="&lt;Path&gt;" class="s10" d="m626.9 888.2c-0.2-0.9-0.7-1.6-1.4-2.2l-14.7-0.4c-1.5 2.1-3.7 3.4-6.1 4.2-2.7 2.8-2 7.6-4.7 7.6-1.9 0-1.2-3.3 1.2-6.7q-1.3 0.1-2.5 0.2c-2.6 2.7-1.6 6.7-4.4 6.7-1.8 0-1.1-3.3 1.2-6.6q-1 0-2.1 0-0.9 0-1.9-0.1c-5.4 4.2-5.8 8.9-5.1 16.2q1.4 0.2 2.8 0.3c3 0.1 6-0.4 9.1-0.7 4.8-0.4 9.7-0.3 14.6 0.4 3.2 0.4 6.5 1.1 9.7 0.6 3.3-0.5 6.2-2.3 7.1-4.3z"/>
					<path id="&lt;Path&gt;" class="s13" d="m591.5 890.9c-2.4-0.2-4.9-0.6-7.3 0-3 0.7-5.8 2.8-6.6 5.7-0.2 0.9-0.3 1.8-0.1 2.6 0.3 2.1 1.5 4.1 3.2 5.5 1.6 1.3 3.6 2 5.7 2.4-0.7-7.3-0.3-12 5.1-16.2z"/>
				</g>
				<path id="&lt;Path&gt;" class="s7" d="m610.4 881.5v7c0 1.6 1.3 3 2.9 3h7.4c2.6 0 4.7-2.1 4.8-4.7l0.2-5.3z"/>
			</g>
			<g id="&lt;Group&gt;">
				<path id="&lt;Path&gt;" class="s20" d="m659.4 878.3c-0.9 1.8-2.5 3-4.5 3.1-1.9 0.2-4-0.3-5.6-1.4-2.6-1.6-3.6-4.1-5.3-6.4-1.7-2.3-4-4.2-6.2-6-2.3-2-4.6-4.1-5.8-6.8q-0.6-1.2-0.7-2.5c-0.2 1.6 0 3.3 0.7 4.8 1.2 2.7 3.5 4.8 5.8 6.8 2.2 1.8 4.5 3.7 6.2 6 1.7 2.3 2.7 4.8 5.3 6.4 1.6 1.1 3.7 1.6 5.6 1.4 2-0.1 3.6-1.3 4.5-3.1 0.3-0.6 0.3-2.4 0.3-3.9-0.1 0.7-0.2 1.3-0.3 1.6z"/>
				<g id="&lt;Group&gt;">
					<path id="&lt;Path&gt;" class="s13" d="m642.7 862.8c-0.2 0.3-0.5 0.8-0.4 1.2 0.1 0.4 0.4 0.7 0.8 0.9 0.6 0.2 1.2-0.1 1.7-0.4 0.4-0.4 0.8-0.9 1.1-1.4 1-1.3 2.3-2.2 3.8-2.8q1.1-0.4 2.3-0.5-0.9-0.8-1.9-1.6c-1.1 0-2.3 0.3-3.3 0.8-1.7 0.8-3.2 2.1-4.1 3.8z"/>
					<path id="&lt;Path&gt;" class="s13" d="m643.1 856.9c-1.7 0.8-3.2 2.2-4.1 3.8-0.2 0.4-0.5 0.8-0.4 1.2 0.1 0.4 0.4 0.8 0.8 0.9 0.6 0.2 1.2 0 1.7-0.4 0.4-0.4 0.8-0.9 1.1-1.4 1-1.2 2.3-2.2 3.8-2.7 1.2-0.5 2.5-0.6 3.7-0.5q-0.9-0.9-1.8-1.7c-1.6-0.1-3.3 0.1-4.8 0.8z"/>
					<path id="&lt;Path&gt;" class="s13" d="m646.7 855.1c-1.7-1.6-3.6-3.1-5.7-3.9-2.7-1-5.9-0.8-8 1.1-1.5 1.5-2 3.8-1.7 6q0.1 1.3 0.7 2.5c0.4 1 1.1 2 1.8 2.8 0.7-6.3 6.2-9.2 12.9-8.5z"/>
					<path id="&lt;Path&gt;" class="s10" d="m659.5 872.1c-0.1-2.3-0.2-4.2-1.4-6.2l-3.6-3.7q-1.3-1.2-2.5-2.4-1.2 0.1-2.3 0.5c-1.5 0.6-2.8 1.5-3.8 2.8-0.3 0.5-0.7 1-1.1 1.4-0.5 0.3-1.1 0.6-1.7 0.4-0.4-0.2-0.7-0.5-0.8-0.9-0.1-0.4 0.2-0.9 0.4-1.2 0.9-1.7 2.4-3 4.1-3.8 1-0.5 2.2-0.8 3.3-0.8q-0.2-0.2-0.4-0.4c-1.2-0.1-2.5 0-3.7 0.5-1.5 0.5-2.8 1.5-3.8 2.7-0.3 0.5-0.7 1-1.1 1.4-0.5 0.4-1.1 0.6-1.7 0.4-0.4-0.1-0.7-0.5-0.8-0.9-0.1-0.4 0.2-0.8 0.4-1.2 0.9-1.6 2.4-3 4.1-3.8 1.5-0.7 3.2-0.9 4.8-0.8q0 0-0.1 0-0.5-0.5-1.1-1c-6.7-0.7-12.2 2.2-12.9 8.5 1.2 1.5 2.6 2.8 4 4 2.2 1.8 4.5 3.7 6.2 6 1.7 2.3 2.7 4.8 5.3 6.4 1.6 1.1 3.7 1.6 5.6 1.4 2-0.1 3.6-1.3 4.5-3.1 0.1-0.3 0.2-0.9 0.3-1.6 0-1.7-0.1-4-0.2-4.6z"/>
				</g>
				<path id="&lt;Path&gt;" class="s7" d="m646.6 860.9l0.5 7.6c4.8 2.8 9.8 1.3 11.5-0.5l0.3-7.1z"/>
			</g>
			<path id="&lt;Path&gt;" class="s3" d="m656.8 697.8q-0.4-0.6-0.7-1.2c-15 7.9-33.1 10-49.5 5.6-3.5 26.1-6.5 70.2-4.7 99.4 1.6 33.9 7.8 81.9 7.8 81.9 8.2 2.5 14.3 1 16.6-0.8 2.7-33.6 8.7-56.7 4-79 3.1-15.5 5.1-35 5.1-35l2.4 34.3 7.9 60.5c7.8 3.9 14.3-0.8 14.3-0.8 5.8-34.5 8-57.9 2.9-75.1 7.7-56.7 8.1-71.2-6.1-89.8z"/>
			<path id="&lt;Path&gt;" class="s5" d="m656.8 697.8q-0.4-0.6-0.7-1.2c-15 7.9-33.1 10-49.5 5.6-3.5 26.1-6.5 70.2-4.7 99.4 1.6 33.9 7.8 81.9 7.8 81.9 8.2 2.5 14.3 1 16.6-0.8 2.7-33.6 8.7-56.7 4-79 3.1-15.5 5.1-35 5.1-35l2.4 34.3 7.9 60.5c7.8 3.9 14.3-0.8 14.3-0.8 5.8-34.5 8-57.9 2.9-75.1 7.7-56.7 8.1-71.2-6.1-89.8z"/>
			<path id="&lt;Path&gt;" class="s21" d="m656.8 697.8q-0.4-0.6-0.7-1.2c-15 7.9-33.1 10-49.5 5.6-3.5 26.1-6.5 70.2-4.7 99.4 1.6 33.9 7.8 81.9 7.8 81.9 8.2 2.5 14.3 1 16.6-0.8 2.7-33.6 8.7-56.7 4-79 3.1-15.5 5.1-35 5.1-35l2.4 34.3 7.9 60.5c7.8 3.9 14.3-0.8 14.3-0.8 5.8-34.5 8-57.9 2.9-75.1 7.7-56.7 8.1-71.2-6.1-89.8z"/>
			<path id="&lt;Path&gt;" class="s9" d="m638.8 761.9l4.3-17.9c5-0.9 12.8-4.1 16.8-10.9-5.8 4.5-13.2 7.2-20.6 7.2l-3.9 28.4 0.8 12.1 0.4-4.5q0.5-7.3 2.2-14.4z"/>
			<path id="&lt;Path&gt;" class="s3" d="m626 636.3l-12.5 2.5c-2.7 5-5.5 9.7-8.3 14.7-2.1 3.8-4.2 7.9-4 12.2 0.1 4.6 3.2 8.9 7.4 10.7l-5.9 42.6c23 14.1 60.4 4.1 63.9-8.3-3.4-8.6-6.9-11.8-9.1-21.9-1.6-7.5 2.2-18 2.8-21 1-4.6 2-9.3 2.1-14 0.1-4.8-0.8-9.6-3.3-13.6q0-0.1 0-0.2c-3.3-5-9.4-7.5-15.3-6.5z"/>
			<g id="&lt;Group&gt;">
				<path id="&lt;Path&gt;" class="s20" d="m641.8 626.4c3.6-1.4 6.4-4.4 7.5-7.9 1.1-3.7 0.3-7.7 1.4-11.5 0.6-1.8 1.6-3.4 2-5.3 0.4-2.1 0.7-4.2 0.5-6.3-0.6-6.7-5.6-12.8-12-15.9-6.4-3.2-16.8-4.8-23.9-3.5-3.2 0.5-6.6 1.6-8.7 4-2.1 2.4-2.2 6.7 0.4 8.7-1.6 1.1-2.6 2.9-2.8 4.8-0.2 1.8 1.4 4.8 4 5.5 2.3 22.3 12.4 26.8 17.7 28.7 5.3 1.9 9 3.3 13.9-1.3z"/>
				<path id="&lt;Path&gt;" class="s7" d="m608.8 606.5l-3.8 6.7 4.2 1.5z"/>
				<path id="&lt;Path&gt;" class="s7" d="m608.4 603.5c0.6-5.8 2.3-11.4 6.2-14.2-0.7 3.7 0 8.9 3.7 11.7-0.4 3.7-0.6 5.1 0.6 9.3 0.4-1.9 1.4-3.7 2.9-5 1.4-1.4 3.6-2 5.4-1.2 1.3 0.6 2.3 1.7 2.8 3 1 2.5 0.4 5.6-1.4 7.6-1.9 1.9-4.9 2.7-7.5 1.8 0.9 5.2 5.3 9.5 10.5 10.6 3.4 0.8 6.9 0.5 10.2-0.7l1.6 7.7c-6.5 6.8-17.4 2.2-17.4 2.2l-1.5-7.8c-12.6 0.8-13.8 0.6-15.2-6.4-0.8-3.8-1.6-11.4-0.9-18.6z"/>
				<g id="&lt;Group&gt;">
					<path id="&lt;Path&gt;" class="s3" d="m647.8 591.4l-1.3-4.9c-0.5-0.8-1.6-1.1-2.5-0.7-0.8 0.3-1.4 1.2-1.5 2.1-0.2 0.9 0 1.8 0.3 2.7 0.3 0.7 0.7 1.4 1.3 1.9 0.5 0.5 1.3 0.7 2.1 0.6 0.7-0.2 1.6-0.9 1.6-1.7z"/>
					<path id="&lt;Path&gt;" class="s20" d="m646.8 591.6c3.7-0.9 7.6 1.4 9.5 4.7 1.8 3.3 1.9 7.4 1.1 11.1-1.1 5.6-4.1 10.7-6.6 15.8-2.5 5.2-4.7 10.8-4.2 16.5 0.7 7.5 6.7 13.4 14 15.3-2-1.5-2.8-3.6-2.9-6.1 1.9 2.8 5 4.8 8.4 5.3 3.4 0.4 6.7-0.6 9.3-2.8-3 0.2-5.8-1.1-8-3.1 1.9 0.4 4.1 0 5.9-0.8-6.1-3.4-8.2-11.4-7.4-18.4 0.7-6.9 3.6-13.5 4.9-20.3 1.3-6.9 0.7-14.8-4.4-19.6-4-3.7-9.9-4.8-15.3-3.9q-2.6 0.5-5.1 1.4c-2.6 0.7-1.1 5.2 0.8 4.9z"/>
				</g>
			</g>
			<g id="&lt;Group&gt;">
				<g id="&lt;Group&gt;">
					<path id="&lt;Path&gt;" class="s3" d="m532.9 616.7l18.4 53.4 38.2-21.2-18.3-52.8z"/>
					<path id="&lt;Path&gt;" class="s6" d="m532.9 616.7l18.4 53.4 38.2-21.2-18.3-52.8z"/>
					<path id="&lt;Path&gt;" class="s16" d="m532.9 616.7l18.4 53.4 38.2-21.2-18.3-52.8z"/>
					<path id="&lt;Path&gt;" class="s13" d="m583.8 646.8l-15.2-44-30 16.1 15.3 44.5z"/>
					<g id="&lt;Group&gt;">
						<path id="&lt;Path&gt;" class="s10" d="m563.3 606l-16.7 8.8-0.7-2.2 3.2-2.9 9.2-4.6 4.1-0.8z"/>
						<path id="&lt;Path&gt;" class="s17" d="m558.3 605.1l-0.7-1.7-9 4.8 0.5 1.5z"/>
						<path id="&lt;Path&gt;" class="s10" d="m562.7 600.6l-20.1 10.9-0.9-2.1 20.4-10.7z"/>
						<path id="&lt;Path&gt;" class="s17" d="m557.3 601.2c-1.8-5.6-12.3-0.4-10.3 5.4z"/>
					</g>
					<path id="&lt;Path&gt;" class="s7" d="m605 643.7l-26.9 34.4-24.4-24.1c-1.4-1.3-2.3-3.1-2.5-5-1.2-9.1-3.7-15.6-7-14.5-2 0.7 0.6 9.6 0.6 9.6l-3-1.7-3.6-10.3h-1.6c-1.7 0-3.3 1.1-3.9 2.7l-1.5 4.4c-1.8 5.3 0 11.3 4.5 14.6l5.4 4q1.2 0.9 2.1 2.2c10.5 16 21.8 29.7 28.7 36.7 2.4 2.5 6.3 2.8 9.2 0.9 10.4-6.9 31.6-26.7 42.5-40.6 4.2-5.4 2.8-13.3-3.1-16.9-5.3-3.1-12.1-1.6-15.5 3.6z"/>
				</g>
			</g>
		</g>
	</g>
	<g id="Character 1">
		<g id="&lt;Group&gt;">
			<g id="&lt;Group&gt;">
				<g id="&lt;Group&gt;">
					<path id="&lt;Path&gt;" class="s3" d="m421.3 347.5c5.8-3.3 10.6-0.6 10.6 6.1l0.4 124.5c0 6.7-4.7 14.9-10.6 18.3l-149.4 86.2c-5.8 3.4-10.6 0.7-10.6-6l-0.3-124.6c-0.1-6.7 4.7-14.8 10.5-18.2z"/>
				</g>
				<g id="&lt;Group&gt;" style="opacity: .8">
					<path id="&lt;Path&gt;" class="s13" d="m421.3 347.5c5.8-3.3 10.6-0.6 10.6 6.1l0.4 124.5c0 6.7-4.7 14.9-10.6 18.3l-149.4 86.2c-5.8 3.4-10.6 0.7-10.6-6l-0.3-124.6c-0.1-6.7 4.7-14.8 10.5-18.2z"/>
				</g>
				<g id="&lt;Group&gt;">
					<path id="&lt;Path&gt;" class="s13" d="m422.4 355.7c0.3-0.2 0.7-0.2 0.9 0 0.3 0.4 0.2 1.2-0.2 1.9l-74.5 106.4 74.8 20.3c0.5 0.2 0.6 0.9 0.2 1.6-0.2 0.5-0.5 0.8-0.8 1q-0.3 0.2-0.6 0.1l-75.4-20.4-75 107.2q-0.3 0.4-0.6 0.6c-0.3 0.2-0.6 0.2-0.9 0-0.3-0.3-0.2-1.1 0.3-1.8l74.4-106.5-74.8-20.3c-0.5-0.1-0.6-0.8-0.2-1.6 0.2-0.4 0.5-0.8 0.8-1q0.4-0.2 0.7-0.1l75.3 20.5 75-107.3q0.3-0.4 0.6-0.6z"/>
				</g>
			</g>
			<g id="&lt;Group&gt;">
				<path id="&lt;Path&gt;" class="s22" d="m424.5 436.9l7.7 16.3-13.6 41.4-30.1 19.5 10.7 25.5 30.8-30.1c3.6-3.6 6-8.3 6.7-13.4l5.8-43.5-6.6-24.5-3.8-3.7 0.1 15.6-3.8-5.4c-0.7-1-2.1-1.2-3.1-0.5-0.9 0.6-1.3 1.8-0.8 2.8z"/>
				<path id="&lt;Path&gt;" class="s17" d="m386.9 509.9l24.6-12.3c14.3 3.6 14.7 18.8 14.7 18.8l-25.4 23.2z"/>
				<g id="&lt;Group&gt;">
					<g id="&lt;Group&gt;">
						<g id="&lt;Group&gt;">
							<g id="&lt;Group&gt;">
								<path id="&lt;Path&gt;" class="s20" d="m360.9 790.8c-1 3.2-4.5 5.1-7.9 5.3-3.3 0.3-6.6-0.6-9.9-1.2-7.4-1.4-14.6 0-22-0.2-2.4-0.1-4.9-0.2-7.2-0.8-2.3-0.6-4.6-1.8-6.2-3.6-0.9-1.1-1.5-2.5-1.7-3.9-0.4 2.1 0.3 4.4 1.7 6 1.6 1.9 3.9 3.1 6.2 3.7 2.3 0.6 4.8 0.7 7.2 0.8 7.4 0.1 14.6-1.2 22 0.1 3.3 0.6 6.6 1.6 9.9 1.3 3.4-0.3 6.9-2.1 7.9-5.3 0.4-1.1 0.4-2.2 0.3-3.4q-0.1 0.6-0.3 1.2z"/>
								<path id="&lt;Path&gt;" class="s3" d="m360.7 784.7q-0.6-3.4-1.3-6.7c-0.3-1.2-0.5-2.4-1.2-3.5-0.6-1-1.8-1.8-3-1.7-4-0.5-9.7-2-13.1 0.3-5.3 3.7-11.7 5.6-18.2 5.3-3.3-0.1-6.7-0.8-10-0.4-3.3 0.4-6.8 2.3-7.8 5.5-0.3 0.9-0.3 1.9-0.1 2.9 0.2 1.4 0.8 2.8 1.7 3.9 1.6 1.8 3.9 3 6.2 3.6 2.3 0.6 4.8 0.7 7.2 0.8 7.4 0.2 14.6-1.2 22 0.2 3.3 0.6 6.6 1.5 9.9 1.2 3.4-0.2 6.9-2.1 7.9-5.3q0.2-0.6 0.3-1.2c0.2-1.6-0.1-3.3-0.5-4.9z"/>
							</g>
							<path id="&lt;Path&gt;" class="s7" d="m341.1 766.1l-0.3 8.8c0 1.8 1.4 3.4 3.2 3.5q4.6 0.4 8.9 0c2.5-0.3 4.4-2.3 4.5-4.7l0.4-6.5z"/>
							<path id="&lt;Path&gt;" class="s5" d="m341.1 766.1l-0.3 8.8c0 1.8 1.4 3.4 3.2 3.5q4.6 0.4 8.9 0c2.5-0.3 4.4-2.3 4.5-4.7l0.4-6.5z"/>
						</g>
						<g id="&lt;Group&gt;">
							<g id="&lt;Group&gt;">
								<path id="&lt;Path&gt;" class="s20" d="m398.4 761.4c-0.1 1.3-0.4 2.6-1.2 3.6-1 1.3-2.5 2.1-4.1 2.4-3.9 0.7-8.1-1-10.3-4.3-1.1-1.6-1.7-3.4-2.8-5.1-1.4-2.2-3.6-3.9-5.7-5.6-2.2-1.6-4.4-3.3-5.8-5.5-1.5-2.2-2.1-5.1-1.1-7.5q-0.4 0.5-0.6 1c-1.1 2.5-0.5 5.6 1 7.9 1.6 2.3 3.8 4 6 5.7 2.2 1.7 4.4 3.4 5.8 5.8 1.1 1.7 1.8 3.6 2.9 5.3 2.3 3.3 6.5 5.1 10.5 4.3 1.6-0.3 3.2-1 4.2-2.4 1-1.4 1.3-3.3 1.2-5q0-0.3 0-0.6z"/>
								<path id="&lt;Path&gt;" class="s3" d="m395.7 750.4c-2.6-4.7-8.1-8.1-12.4-11.4-2.4-1.9-5.2-3.5-8.2-3.7-3-0.3-6.4 1.1-7.7 3.9q0 0.1 0 0.2c-1 2.4-0.4 5.3 1.1 7.5 1.4 2.2 3.6 3.9 5.8 5.5 2.1 1.7 4.3 3.4 5.7 5.6 1.1 1.7 1.7 3.5 2.8 5.1 2.2 3.3 6.4 5 10.3 4.3 1.6-0.3 3.1-1.1 4.1-2.4 0.8-1 1.1-2.3 1.2-3.6q0-0.6 0-1.2c-0.1-3.5-1-6.8-2.7-9.8z"/>
							</g>
							<path id="&lt;Path&gt;" class="s7" d="m384.2 746.4v7.9c7.2 3.1 12.4-0.5 12.4-0.5l0.7-7.2z"/>
							<path id="&lt;Path&gt;" class="s5" d="m384.2 746.4v7.9c7.2 3.1 12.4-0.5 12.4-0.5l0.7-7.2z"/>
						</g>
						<path id="&lt;Path&gt;" class="s17" d="m399.4 601.7c2.4 7.2 1.7 44.8 0.3 77.5 2.2 15.9 2.2 50.4-0.8 75.3 0 0-8.3 4.6-19.9 0.4l-7-75.7-1.7-38.8c0 0-2.9 34.5-6.3 56.6 1.2 16.2-1.5 47.3-3.9 80.4 0 0-12.8 7.4-25.5-0.7-4.4-73.2 2.8-147.4 4.3-171.4z"/>
						<path id="&lt;Path&gt;" class="s6" d="m371.3 664l-1.3-31.6c8.2 0 15.8-6.2 21.6-12-5.6 9.9-16.4 14.3-16.4 14.3z"/>
					</g>
					<path id="&lt;Path&gt;" class="s10" d="m337.6 545.2v62c36.6 15.4 60.3 1.5 63.5-5.7-1.7-25.2 4.3-54.8 3.8-67.3-0.4-12.6-2-26.8-21.4-23.9l-20.8 2-10.5 2.6z"/>
					<g id="&lt;Group&gt;">
						<g id="&lt;Group&gt;">
							<path id="&lt;Path&gt;" class="s22" d="m318.2 541.8l-6.9 7.3-38.9-15.4c-0.1-3-0.2-7.9-0.7-10.6-0.3-1.1-0.9-2.1-2-2.1-0.8 0-1.9 1.3-2 3.3 0 0.3-0.1 2.6-0.1 3.2-0.2 1.4-1.8 1.9-2.7 0.9-1-1.2-2-2.4-2.1-2.8l-0.7-1.7c-0.4-1.2-0.6-4.3-0.6-5.5 0 0-5 1.4-6 8.2-0.4 2.1-1 6.3-0.3 8.6 1.2 4.1 4.7 5.9 10.9 7.9 12.3 8.5 29.4 18.6 38.7 23.8 3.9 2.3 8.8 2.1 12.6-0.4l14.8-9.9z"/>
							<path id="&lt;Path&gt;" class="s23" d="m307 558c0 0 1.1-5.7 4.3-8.9l-3.4-1.3c-2.2 1.8-2.8 6.8-0.9 10.2z"/>
						</g>
						<path id="&lt;Path&gt;" class="s17" d="m316.5 541.9l19.7-19.4c4.3-4.3 10-7 16.1-7.7h0.3c8.3 18.2-2.6 27.1-2.6 27.1l-18.3 16.7c-11.6-6.1-15.2-16.7-15.2-16.7z"/>
					</g>
					<g id="&lt;Group&gt;">
						<path id="&lt;Path&gt;" class="s20" d="m382.4 498.9c6.6-6 11.3-14.3 12.4-23.1 0.3-2.5 0.3-5.1-0.8-7.3-1.1-2.2-4-4.6-6.4-4 0.2-2.5-1.9-6.5-4.1-7.8-2.2-1.3-4.9-1.6-7.4-1.6-2.5 0.1-5.1 0.5-7.6 0.5-4 0-13.1-1.2-16.7-2.9 0 1.9 0.7 5.1 2 6.5-2.6-0.5-4.9-2.8-7-4.5-0.3 2.5 2.1 7.9 4.2 9.2-3.5-0.3-4.2 5.8 1.8 5.8 2.7 26.4 20.9 36.6 29.6 29.2z"/>
						<path id="&lt;Path&gt;" class="s23" d="m350.4 480.3l-3.2 5.7 3.2 1.2q-0.1-3.5 0-6.9z"/>
						<path id="&lt;Path&gt;" class="s22" d="m352.8 469.7c-1 3.1-2.2 7-2.4 10.6q-0.1 3.4 0 6.9c0.2 3.2 0.5 6.4 1.1 9.6 0.4 1.7 0.8 3.5 1.9 4.8 1.3 1.5 3.3 2.3 5.3 2.4 1.9 0.2 3.9-0.2 5.8-0.5v9.3c7.1 1.6 13 2.4 18.5-1.9l-0.6-12c-2.9 0.5-6.1 0.1-9.9-1.5-4.9-2.7-6.3-6.9-5.6-9.3 0.7 1.2 2.5 1.7 3.8 1.4 1.4-0.3 2.5-1.3 3.2-2.5 0.7-1.2 1-2.6 1.2-4 0.2-1.7 0.2-3.5-0.7-4.9-1.2-1.7-3.6-2.4-5.6-1.9-2 0.6-3.6 2.1-4.6 3.9q-0.5 0.9-0.9 1.8c-0.4 1.1-2 0.9-2.1-0.3-0.3-2.6 0.2-5.4 1.4-7.8-0.9 0.4-1.7 0.7-2.6 0.6-1 0-1.9-0.4-2.5-1.1-0.6-0.8-0.7-1.9-0.1-2.7-2.7 0.6-4.6-0.9-4.6-0.9z"/>
					</g>
				</g>
				<path id="&lt;Path&gt;" class="s23" d="m418.6 494.6c4.3-0.2 6.9 3 7.6 5.1-0.3-8.9-5.6-7.5-7.1-6.8z"/>
			</g>
		</g>
	</g>
</svg>