<svg version="1.2" xmlns="http://www.w3.org/2000/svg" viewBox="0 0 1500 1000" width="1500" height="1000">
	<title>5743076-ai</title>
	<style>
		.s0 { fill: #ebebeb } 
		.s1 { fill: #F7B9C7 } 
		.s2 { fill: #263238 } 
		.s3 { fill: #c7c7c7 } 
		.s4 { fill:  #BA68C8 } 
		.s5 { opacity: .1;fill: #000000 } 
		.s6 { fill: none;stroke: #F7B9C7;stroke-miterlimit:10;stroke-width: 2 } 
		.s7 { fill: #37474f } 
		.s8 { fill: #dbdbdb } 
		.s9 { fill: #a6a6a6 } 
		.s10 { fill: #455a64 } 
		.s11 { fill:  #BA68C8} 
		.s12 { fill: none;stroke: #263238;stroke-miterlimit:10 } 
		.s13 { fill: none;stroke: #263238;stroke-miterlimit:10;stroke-dasharray: 6.0219,6.0219 } 
		.s14 { fill: none;stroke: #263238;stroke-miterlimit:10;stroke-dasharray: 6.06788,6.06788 } 
		.s15 { fill: #000000 } 
		.s16 { fill: #263138 } 
		.s17 { fill: #f7a9a0 } 
		.s18 { opacity: .1;fill: #030402 } 
		.s19 { fill: #ff9bbc } 
	</style>
	<g id="Background Complete">
		<g id="&lt;Group&gt;">
			<path id="&lt;Compound Path&gt;" fill-rule="evenodd" class="s0" d="m1096.9 170.7c-2.5-1.5-5.5-1.4-7.9 0.1q-1 0.6-2 1.1-1 0.6-2.1 1.1c-2.6 1.2-4.3 3.6-4.4 6.5l-0.3 9.6-31.4-1 0.3-9.7c0.1-2.8-1.5-5.4-4-6.7q-2-1.1-3.9-2.4c-2.3-1.6-5.4-1.9-7.9-0.6l-8.5 4.6-14.8-27.7 8.5-4.6c2.5-1.3 3.9-4 3.9-6.9q-0.1-2.3 0.1-4.5c0.3-2.9-1-5.6-3.4-7.1l-8.3-5.1 16.6-26.7 8.3 5.1c2.3 1.4 5.3 1.4 7.7 0q1-0.7 2.1-1.2 1.1-0.6 2.2-1.1c2.5-1.2 4.2-3.7 4.3-6.5l0.3-9.6 31.4 0.9-0.3 9.7c-0.1 2.7 1.4 5.3 3.8 6.7q2.2 1.2 4.3 2.6c2.2 1.6 5.2 1.7 7.7 0.4l8.4-4.5 14.9 27.7-8.5 4.6c-2.5 1.3-3.9 4-3.9 6.8q0.1 2.3-0.1 4.6c-0.3 2.8 1 5.6 3.4 7.1l8.2 5.1-16.5 26.7zm-6.5-46.6c-6.1-15.9-25.4-21.7-39.2-11.8-9.4 6.7-13.2 19.2-9.1 30 6.1 15.9 25.3 21.7 39.2 11.9 9.4-6.7 13.2-19.3 9.1-30.1z"/>
			<path id="&lt;Compound Path&gt;" fill-rule="evenodd" class="s0" d="m127.9 319l11-19.1 5.8 3.4c1.8 0.9 3.9 0.9 5.5-0.2q1.4-0.9 2.9-1.7c1.7-0.9 2.9-2.7 2.9-4.6v-6.8h22v6.8c0 1.9 1.2 3.7 2.9 4.6q1.5 0.8 2.9 1.7c1.6 1.1 3.8 1.1 5.5 0.2l5.8-3.4 11 19.1-5.8 3.4c-1.8 0.9-2.7 2.8-2.6 4.8q0 0.8 0 1.6 0 0.9 0 1.7c-0.1 1.9 0.8 3.8 2.6 4.8l5.8 3.4-11 19.1-5.8-3.4c-1.8-1-3.9-0.9-5.5 0.2q-1.4 0.9-2.9 1.7c-1.7 0.9-2.9 2.6-2.9 4.6v6.8h-22v-6.8c0-2-1.2-3.7-2.9-4.6q-1.5-0.8-2.9-1.7c-1.6-1.1-3.7-1.2-5.4-0.2l-5.9 3.4-11-19.1 5.8-3.4c1.8-1 2.7-2.9 2.6-4.8q0-0.8 0-1.7 0-0.8 0-1.6c0.1-2-0.9-3.9-2.6-4.8zm21.1 9.8c0 10 8.1 18.1 18.1 18.1 9.9 0 18-8.1 18-18.1 0-10-8.1-18.1-18-18.1-10 0-18.1 8.1-18.1 18.1z"/>
			<path id="&lt;Compound Path&gt;" fill-rule="evenodd" class="s0" d="m1293.9 377.5l11-19.1 5.8 3.4c1.7 1 3.9 0.9 5.5-0.2q1.4-0.9 2.9-1.6c1.7-0.9 2.9-2.7 2.9-4.7v-6.8h22v6.8c0 2 1.2 3.8 2.9 4.7q1.5 0.7 2.9 1.6c1.6 1.1 3.7 1.2 5.5 0.2l5.8-3.4 11 19.1-5.8 3.4c-1.8 1-2.7 2.9-2.6 4.8q0 0.9 0 1.7 0 0.8 0 1.6c-0.1 2 0.8 3.8 2.5 4.8l5.9 3.4-11 19.1-5.9-3.3c-1.7-1-3.8-0.9-5.4 0.1q-1.4 0.9-2.9 1.7c-1.7 0.9-2.9 2.7-2.9 4.6v6.8h-22v-6.8c0-1.9-1.2-3.7-2.9-4.6q-1.5-0.8-2.9-1.7c-1.6-1-3.7-1.1-5.5-0.1l-5.8 3.3-11-19.1 5.8-3.3c1.7-1 2.7-2.9 2.6-4.9q-0.1-0.8-0.1-1.6 0-0.8 0.1-1.7c0.1-1.9-0.9-3.8-2.6-4.8zm21.1 9.8c0 10 8.1 18.1 18 18.1 10 0 18.1-8.1 18.1-18.1 0-9.9-8.1-18-18.1-18-9.9 0-18 8.1-18 18z"/>
		</g>
		<g id="&lt;Group&gt;">
			<g id="&lt;Group&gt;">
				<g id="&lt;Group&gt;">
					<path id="&lt;Path&gt;" class="s0" d="m1378.7 240.9h-3v-2h1v-0.9h2z"/>
					<path id="&lt;Compound Path&gt;" class="s0" d="m1371.8 240.9h-3.9v-2h3.9zm-7.8 0h-3.9v-1.9h3.9zm-7.7 0h-4v-2h4zm-7.8 0h-3.9v-1.9h3.9zm-7.8 0h-3.9v-2h3.9zm-7.8 0h-3.9v-1.9h3.9zm-7.8 0h-3.9v-2h3.9zm-7.8 0h-3.9v-1.9h3.9zm-7.8 0h-3.9v-2h3.9zm-7.8 0h-3.9v-1.9h3.9zm-7.8 0h-3.9v-2h3.9zm-7.8 0h-3.9v-1.9h3.9zm-7.8 0h-3.9v-2h3.9zm-7.8 0h-3.9v-1.9h3.9zm-7.8 0h-3.9v-2h3.9zm-7.8 0h-3.9v-1.9h3.9zm-7.8 0h-3.9v-2h3.9z"/>
					<path id="&lt;Path&gt;" class="s0" d="m1239.3 240.9h-3v-2.9h2v0.9h1z"/>
					<path id="&lt;Compound Path&gt;" class="s0" d="m1238.3 234.1h-2v-3.9h2zm0-7.8h-2v-3.9h2zm0-7.8h-2v-3.9h2zm0-7.8h-2v-3.9h2zm0-7.8h-2v-3.9h2zm0-7.8h-2v-3.9h2zm0-7.8h-2v-3.9h2zm0-7.8h-2v-3.9h2zm0-7.8h-2v-3.9h2zm0-7.8h-2v-3.9h2zm0-7.8h-2v-3.9h2zm0-7.8h-2v-3.9h2zm0-7.8h-2v-3.9h2zm0-7.8h-2v-3.9h2zm0-7.8h-2v-3.9h2zm0-7.8h-2v-3.9h2zm0-7.8h-2v-3.9h2z"/>
					<path id="&lt;Path&gt;" class="s0" d="m1238.3 101.5h-2v-2.9h3v1.9h-1z"/>
					<path id="&lt;Compound Path&gt;" class="s0" d="m1371.8 100.5h-3.9v-1.9h3.9zm-7.8 0h-3.9v-2h3.9zm-7.7 0h-4v-1.9h4zm-7.8 0h-3.9v-2h3.9zm-7.8 0h-3.9v-1.9h3.9zm-7.8 0h-3.9v-2h3.9zm-7.8 0h-3.9v-1.9h3.9zm-7.8 0h-3.9v-2h3.9zm-7.8 0h-3.9v-2h3.9zm-7.8 0h-3.9v-1.9h3.9zm-7.8 0h-3.9v-2h3.9zm-7.8 0h-3.9v-1.9h3.9zm-7.8 0h-3.9v-2h3.9zm-7.8 0h-3.9v-1.9h3.9zm-7.8 0h-3.9v-2h3.9zm-7.8 0h-3.9v-1.9h3.9zm-7.8 0h-3.9v-2h3.9z"/>
					<path id="&lt;Path&gt;" class="s0" d="m1378.7 101.5h-2v-1h-1v-1.9h3z"/>
					<path id="&lt;Compound Path&gt;" class="s0" d="m1378.7 234.1h-2v-3.9h2zm0-7.8h-2v-3.9h2zm0-7.8h-2v-3.9h2zm0-7.8h-2v-3.9h2zm0-7.8h-2v-3.9h2zm0-7.8h-2v-3.9h2zm0-7.8h-2v-3.9h2zm0-7.8h-2v-3.9h2zm0-7.8h-2v-3.9h2zm0-7.8h-2v-3.9h2zm0-7.8h-2v-3.9h2zm0-7.8h-2v-3.9h2zm0-7.8h-2v-3.9h2zm0-7.8h-2v-3.9h2zm0-7.8h-2v-3.9h2zm0-7.8h-2v-3.9h2zm0-7.8h-2v-3.9h2z"/>
				</g>
				<g id="&lt;Group&gt;">
					<path id="&lt;Path&gt;" class="s1" d="m1246.1 248.7h-17.5v-17.5h17.5z"/>
					<path id="&lt;Compound Path&gt;" fill-rule="evenodd" class="s0" d="m1247 249.6h-19.4v-19.4h19.4zm-17.4-2h15.5v-15.5h-15.5z"/>
				</g>
				<g id="&lt;Group&gt;">
					<path id="&lt;Path&gt;" class="s1" d="m1246.1 178.5h-17.5v-17.5h17.5z"/>
					<path id="&lt;Compound Path&gt;" fill-rule="evenodd" class="s0" d="m1247 179.4h-19.4v-19.4h19.4zm-17.4-2h15.5v-15.5h-15.5z"/>
				</g>
				<g id="&lt;Group&gt;">
					<path id="&lt;Path&gt;" class="s1" d="m1246.1 108.3h-17.5v-17.5h17.5z"/>
					<path id="&lt;Compound Path&gt;" fill-rule="evenodd" class="s0" d="m1247 109.3h-19.4v-19.5h19.4zm-17.4-1.9h15.5v-15.6h-15.5z"/>
				</g>
				<g id="&lt;Group&gt;">
					<path id="&lt;Path&gt;" class="s1" d="m1386.5 248.7h-17.5v-17.5h17.5z"/>
					<path id="&lt;Compound Path&gt;" fill-rule="evenodd" class="s0" d="m1387.4 249.6h-19.4v-19.4h19.4zm-17.5-2h15.6v-15.5h-15.6z"/>
				</g>
				<g id="&lt;Group&gt;">
					<path id="&lt;Path&gt;" class="s1" d="m1386.5 178.5h-17.5v-17.5h17.5z"/>
					<path id="&lt;Compound Path&gt;" fill-rule="evenodd" class="s0" d="m1387.4 179.4h-19.4v-19.4h19.4zm-17.5-2h15.6v-15.5h-15.6z"/>
				</g>
				<g id="&lt;Group&gt;">
					<path id="&lt;Path&gt;" class="s1" d="m1386.5 108.3h-17.5v-17.5h17.5z"/>
					<path id="&lt;Compound Path&gt;" fill-rule="evenodd" class="s0" d="m1387.4 109.3h-19.4v-19.5h19.4zm-17.5-1.9h15.6v-15.6h-15.6z"/>
				</g>
				<g id="&lt;Group&gt;">
					<path id="&lt;Path&gt;" class="s1" d="m1316.3 108.3h-17.5v-17.5h17.5z"/>
					<path id="&lt;Compound Path&gt;" fill-rule="evenodd" class="s0" d="m1317.2 109.3h-19.4v-19.5h19.4zm-17.5-1.9h15.6v-15.6h-15.6z"/>
				</g>
				<g id="&lt;Group&gt;">
					<path id="&lt;Path&gt;" class="s1" d="m1316.3 248.7h-17.5v-17.5h17.5z"/>
					<path id="&lt;Compound Path&gt;" fill-rule="evenodd" class="s0" d="m1317.2 249.6h-19.4v-19.4h19.4zm-17.5-2h15.6v-15.5h-15.6z"/>
				</g>
				<g id="&lt;Group&gt;">
					<path id="&lt;Compound Path&gt;" class="s0" d="m1344.4 157.8h-2.3c-6.5-19.7-10.2-27.8-21.2-27.8h-1.5v79.5h10.3v2.5h-44.1v-2.5h10.3v-79.5h-1.6c-11 0-15.1 9-21.3 27.8h-2.3l1.2-30.4h71.3z"/>
				</g>
			</g>
			<g id="&lt;Group&gt;">
				<path id="&lt;Compound Path&gt;" class="s0" d="m143.3 607.6c2 2 2 5.1 0 7.1-1 1-2.2 1.4-3.5 1.4-1.3 0-2.6-0.4-3.6-1.4l-22.2-22.5c-0.3-0.1-0.3-0.3-0.4-0.5-0.1-0.1-0.3-0.1-0.3-0.1-0.1-0.3-0.1-0.4-0.2-0.7-0.1-0.1-0.2-0.2-0.2-0.3-0.1-0.2-0.1-0.4-0.2-0.5 0-0.2-0.1-0.3-0.1-0.4 0-0.2 0-0.4 0-0.5 0-0.2-0.1-0.3-0.1-0.5 0-0.1 0.1-0.3 0.1-0.4 0-0.1 0-0.4 0-0.5 0-0.2 0.1-0.3 0.1-0.4 0.1-0.2 0.1-0.3 0.2-0.6 0-0.1 0.1-0.1 0.1-0.1 0.1-0.3 0.2-0.6 0.3-0.8 0 0 0-0.1 0.2-0.1 0.1-0.2 0.2-0.4 0.5-0.6l22.2-22.5c2-1.9 5.2-1.9 7.1 0 2 2 2 5.2 0 7.1l-18.7 18.9z"/>
				<path id="&lt;Compound Path&gt;" class="s0" d="m163.4 610.1l19.4-46c0.9-2.3 3.5-3.3 5.8-2.3 2.1 0.8 3.1 3.4 2.2 5.6l-19.4 46.1c-0.7 1.7-2.4 2.6-4 2.6-0.5 0-1.1-0.1-1.6-0.3-2.3-0.9-3.3-3.5-2.4-5.7z"/>
				<path id="&lt;Compound Path&gt;" class="s0" d="m229 591.6c0 0 0 0-0.1 0-0.1 0.2-0.3 0.4-0.5 0.6l-22.2 22.5c-1 1-2.3 1.4-3.6 1.4q-2 0-3.5-1.4c-2-2-2-5.1 0-7.1l18.7-18.9-18.7-18.9c-2-1.9-2-5.1 0-7.1 1.9-1.9 5.1-1.9 7.1 0l22.2 22.5c0.2 0.2 0.4 0.4 0.5 0.6 0.1 0 0.1 0.1 0.1 0.1 0.2 0.4 0.3 0.5 0.4 0.8 0 0 0.1 0 0.1 0.1 0.1 0.3 0.1 0.4 0.2 0.7 0 0.1 0.1 0.1 0.1 0.3 0 0.1 0 0.4 0 0.5 0 0.1 0.1 0.3 0.1 0.4 0 0.1-0.1 0.3-0.1 0.4 0 0.2 0 0.4 0 0.6 0 0.1-0.1 0.1-0.1 0.2-0.1 0.3-0.1 0.5-0.2 0.7 0 0.1-0.1 0.1-0.1 0.2-0.1 0.2-0.2 0.4-0.4 0.8z"/>
			</g>
		</g>
	</g>
	<g id="Floor">
		<path id="&lt;Path&gt;" class="s2" d="m111.9 890.3l159.5-0.2 159.5-0.1 319.1-0.1 319.1 0.1 159.5 0.1 159.5 0.2-159.5 0.2h-159.5l-319.1 0.2-319.1-0.2h-159.5z"/>
	</g>
	<g id="Window">
		<g id="&lt;Group&gt;">
			<g id="&lt;Group&gt;">
				<g id="&lt;Group&gt;">
					<path id="&lt;Path&gt;" class="s1" d="m1261.6 781.7h-1027.2v-621.3h1027.2z"/>
					<path id="&lt;Compound Path&gt;" fill-rule="evenodd" class="s3" d="m1261.6 781.7l-1027.2 0.7h-0.8v-0.7l-0.2-621.3v-1h1l1027.2 0.4h0.6v0.6zm0 0l-0.6-620.7-1025.6 0.4-0.3 619.6zm-0.6-620.7h0.6l-0.6-0.6zm-1025.6 0.4v-1l-1 1zm-0.3 619.5h-0.7l0.7 0.8z"/>
				</g>
				<path id="&lt;Path&gt;" class="s4" d="m1261.6 261.6h-1027.2v-101.2h1027.2z"/>
				<g id="&lt;Group&gt;">
					<g id="&lt;Group&gt;">
						<path id="&lt;Path&gt;" class="s1" d="m298.1 229.7h-21.1v-3.5h21.1z"/>
						<path id="&lt;Path&gt;" class="s1" d="m298.1 245.5h-21.1v-3.5h21.1z"/>
						<path id="&lt;Path&gt;" class="s1" d="m298.1 237.7h-21.1v-3.5h21.1z"/>
					</g>
					<g id="&lt;Group&gt;">
						<path id="&lt;Path&gt;" class="s5" d="m1219 245.8h-198.1v-19.9h198.1z"/>
						<path id="&lt;Path&gt;" class="s1" d="m1219 245.8h-20v-19.9h20z"/>
						<g id="&lt;Group&gt;">
							<g id="&lt;Group&gt;">
								<path id="&lt;Path&gt;" class="s4" d="m1215.3 241.4l-1.8 1.4-3.4-4.5-1.3-1.6q0.4-0.2 0.7-0.4 0.7-0.5 1-1.3l1.3 1.8z"/>
								<path id="&lt;Compound Path&gt;" fill-rule="evenodd" class="s4" d="m1211.8 236.8q-0.4 0.6-1 1.1-0.4 0.2-0.7 0.4c-2.2 1.2-4.9 0.6-6.4-1.4-1.7-2.2-1.3-5.3 0.9-7 2.2-1.7 5.4-1.3 7.1 0.9 1.4 1.8 1.3 4.2 0.1 6zm-1.3-1.8c0.4-0.9 0.3-2.1-0.4-2.9-1-1.4-2.9-1.6-4.2-0.6-1.4 1-1.6 2.9-0.6 4.2 0.8 1.1 2.3 1.5 3.5 1q0.4-0.2 0.7-0.4 0.7-0.5 1-1.3z"/>
							</g>
						</g>
						<path id="&lt;Path&gt;" class="s1" d="m1026.2 241.9h-1.1v-12.1h1.1z"/>
					</g>
					<path id="&lt;Path&gt;" class="s6" d="m472.3 245.5h-94.9v-19.3h94.9z"/>
					<path id="&lt;Path&gt;" class="s6" d="m588 245.5h-94.9v-19.3h94.9z"/>
					<path id="&lt;Path&gt;" class="s5" d="m703.7 245.5h-94.9v-19.3h94.9z"/>
					<path id="&lt;Path&gt;" class="s6" d="m819.4 245.5h-94.8v-19.3h94.8z"/>
					<path id="&lt;Path&gt;" class="s6" d="m935.2 245.5h-94.9v-19.3h94.9z"/>
				</g>
			</g>
			<g id="&lt;Group&gt;">
				<path id="&lt;Path&gt;" class="s7" d="m1261.6 176.5h-1027.2v-16.1h1027.2z"/>
				<g id="&lt;Group&gt;">
					<path id="&lt;Path&gt;" class="s3" d="m247.2 168.4c0 2.3-1.8 4-4 4-2.2 0-4-1.7-4-4 0-2.2 1.8-3.9 4-3.9 2.2 0 4 1.7 4 3.9z"/>
					<path id="&lt;Path&gt;" class="s1" d="m263.4 168.4c0 2.3-1.7 4-4 4-2.2 0-3.9-1.7-3.9-4 0-2.2 1.7-3.9 3.9-3.9 2.3 0 4 1.7 4 3.9z"/>
					<path id="&lt;Path&gt;" class="s4" d="m279.7 168.4c0 2.3-1.8 4-4 4-2.2 0-4-1.7-4-4 0-2.2 1.8-3.9 4-3.9 2.2 0 4 1.7 4 3.9z"/>
				</g>
			</g>
			<g id="&lt;Group&gt;">
				<path id="&lt;Path&gt;" class="s8" d="m1261.6 781.7h-17.7v-520.1h17.7z"/>
				<path id="&lt;Path&gt;" class="s9" d="m1252.8 441.9c-2.6 0-4.6-1.7-4.6-3.9v-169.4c0-2.2 2-3.9 4.6-3.9 2.5 0 4.5 1.7 4.5 3.9v169.4c0 2.2-2 3.9-4.5 3.9z"/>
			</g>
			<g id="&lt;Group&gt;">
				<g id="&lt;Group&gt;">
					<path id="&lt;Compound Path&gt;" fill-rule="evenodd" class="s0" d="m353.6 286.7v76.3h-76.2v-76.3zm-5.8 70.5v-64.7h-64.7v64.7z"/>
				</g>
				<g id="&lt;Group&gt;">
					<path id="&lt;Path&gt;" class="s4" d="m650.2 299.6v37.7h-37.8v-37.7z"/>
				</g>
				<g id="&lt;Group&gt;">
					<path id="&lt;Path&gt;" class="s4" d="m979.7 299.6v37.7h-37.7v-37.7z"/>
				</g>
				<g id="&lt;Group&gt;">
					<path id="&lt;Path&gt;" class="s4" d="m312.1 492.6v37.7h-37.7v-37.7z"/>
				</g>
				<path id="&lt;Compound Path&gt;" fill-rule="evenodd" class="s0" d="m1237.1 687.1v76.2h-76.2v-76.2zm-5.8 70.5v-64.7h-64.7v64.7z"/>
			</g>
			<g id="&lt;Group&gt;">
				<g id="&lt;Group&gt;">
					<path id="&lt;Path&gt;" class="s10" d="m425.5 536.2h-132.2v-24.8h132.2z"/>
					<path id="&lt;Path&gt;" class="s8" d="m656.6 557.6h-363.3v-9.2h363.3z"/>
					<path id="&lt;Path&gt;" class="s8" d="m656.6 577.9h-363.3v-9.2h363.3z"/>
					<path id="&lt;Path&gt;" class="s8" d="m656.6 598.2h-363.3v-9.2h363.3z"/>
					<path id="&lt;Path&gt;" class="s8" d="m656.6 618.6h-363.3v-9.3h363.3z"/>
					<path id="&lt;Path&gt;" class="s8" d="m656.6 638.9h-363.3v-9.2h363.3z"/>
				</g>
				<g id="&lt;Group&gt;">
					<path id="&lt;Path&gt;" class="s10" d="m763.5 343.1h-132.2v-24.7h132.2z"/>
					<path id="&lt;Path&gt;" class="s8" d="m902.9 369.4h-271.6v-9.2h271.6z"/>
					<path id="&lt;Path&gt;" class="s8" d="m902.9 389.7h-271.6v-9.2h271.6z"/>
					<path id="&lt;Path&gt;" class="s8" d="m902.9 410.1h-271.6v-9.3h271.6z"/>
					<path id="&lt;Path&gt;" class="s8" d="m902.9 430.4h-271.6v-9.2h271.6z"/>
					<path id="&lt;Path&gt;" class="s8" d="m902.9 457.4h-271.6v-9.2h271.6z"/>
					<path id="&lt;Path&gt;" class="s8" d="m902.9 477.8h-271.6v-9.3h271.6z"/>
				</g>
				<g id="&lt;Group&gt;">
					<path id="&lt;Path&gt;" class="s10" d="m1202.6 343.6h-241.8v-25.2h241.8z"/>
					<g id="&lt;Group&gt;">
						<g id="&lt;Group&gt;">
							<path id="&lt;Path&gt;" class="s1" d="m1202 738.2h-240.5v-394.4h240.5z"/>
							<path id="&lt;Compound Path&gt;" fill-rule="evenodd" class="s8" d="m1202.7 738.9h-241.9v-395.8h241.9zm-240.5-1.3h239.2v-393.1h-239.2z"/>
						</g>
						<path id="&lt;Path&gt;" class="s8" d="m962.1 738.5l-1.2-0.5 240.5-394.4 1.2 0.4z"/>
						<path id="&lt;Path&gt;" class="s8" d="m1201.4 738.5l-240.5-394.5 1.2-0.4 240.5 394.4z"/>
					</g>
				</g>
				<g id="&lt;Group&gt;">
					<g id="&lt;Group&gt;">
						<path id="&lt;Path&gt;" class="s1" d="m474.3 477.3h-288.2l-0.1-158.4 288.2-0.1z"/>
						<path id="&lt;Compound Path&gt;" fill-rule="evenodd" class="s8" d="m185.6 477.8v-0.4-158.9h0.4l288.7-0.1 0.1 159.3h-0.5zm0.9-158.5v157.7l287.3-0.1-0.1-157.6z"/>
					</g>
					<path id="&lt;Path&gt;" class="s8" d="m186.5 319.3c24.3 12.7 48.3 25.7 72.4 38.7l72 39.2 71.6 39.6 35.7 19.9 35.6 20.2-36.3-19.3-36.1-19.4-72-39.2-71.6-39.6c-23.8-13.3-47.6-26.6-71.3-40.1z"/>
					<path id="&lt;Path&gt;" class="s8" d="m473.8 319.3c-23.6 13.5-47.4 26.8-71.3 40.1l-71.6 39.6-72 39.2-36.1 19.4-36.3 19.3 35.6-20.2 35.7-19.9 71.6-39.6 72-39.2c24.1-13 48.1-26 72.4-38.7z"/>
				</g>
				<g id="&lt;Group&gt;">
					<g id="&lt;Group&gt;">
						<path id="&lt;Path&gt;" class="s1" d="m915.1 703.5v111.4h-588v-111.4z"/>
						<path id="&lt;Compound Path&gt;" fill-rule="evenodd" class="s4" d="m916.1 703.1v112.1h-590v-112.1zm-1.9 111.5v-110.8h-586.1v110.8z"/>
					</g>
					<path id="&lt;Path&gt;" class="s4" d="m915.5 814.6l-0.7 0.6-588-111.5 0.7-0.5z"/>
					<path id="&lt;Path&gt;" class="s4" d="m915.5 703.7l-588 111.5-0.7-0.6 588-111.4z"/>
				</g>
			</g>
		</g>
	</g>
	<g id="Plant">
		<g id="&lt;Group&gt;">
			<g id="&lt;Group&gt;">
				<g id="&lt;Group&gt;">
					<path id="&lt;Path&gt;" class="s4" d="m216.8 726.1c13.8-28.3 37.9-42.8 65.1-34.8 27.1 8.1 31.3 45.9 11.1 55.5-20.3 9.6-40.6-18.4-51.3-24.1-10.7-5.7-24.9 3.4-24.9 3.4z"/>
					<path id="&lt;Path&gt;" class="s2" d="m203.5 801.5c0.1-3.4 0.2-6.8 0.3-10.2q0.4-10.3 0.7-20.5c0.5-12.4 1.8-24.7 7-36.2 4.6-10.3 12.1-19.3 21.9-25.1 3.6-2.2 7.4-3.9 11.4-5 3.4-3.8 8.7-6.2 13.4-7.4 6.3-1.5 12.8-1.2 19.2-0.4 0.2 0 0.2 0.3 0 0.3-6.1-0.7-12.3-0.4-18.1 1.3-2.5 0.7-5 1.6-7.3 2.8-1.5 0.8-2.9 1.7-4.2 2.7 5.4-1.1 11-1.1 16.6 0.2 2 0.4 3.9 1.1 5.7 1.9 1.5-0.4 3.1-0.4 4.6-0.4 1.9 0 3.9 0.3 5.8 0.8 4 1 7.7 2.9 11.2 4.9 0.2 0.1 0 0.4-0.2 0.3-3.4-1.9-7.1-3.2-10.9-4.1q-2.7-0.6-5.6-0.8c-1-0.1-2.1 0-3.1 0 7.6 3.6 14.1 9.7 17.6 17.5 0.1 0.2-0.3 0.4-0.3 0.2-4.1-9.2-12.8-15.5-22.4-18-0.6-0.1-1.2-0.2-1.8-0.3 0.2 0.9 0.1 1.9 0.2 2.7q0.3 2.1 0.7 4.1 0.9 4.2 2.2 8.3 1.4 4.1 3.3 8.1c1.3 2.6 2.7 5.4 4.6 7.7 0.2 0.2-0.1 0.4-0.3 0.2-1.6-2.5-3.5-4.9-5-7.5q-2.1-3.9-3.7-8-1.5-4.1-2.4-8.4-0.4-2.3-0.7-4.6c-0.1-0.9-0.3-1.9-0.2-2.9-3.2-0.5-6.4-0.5-9.6-0.2 1.2 6.8 2.5 13.8 6.3 19.7 0.1 0.2-0.2 0.4-0.4 0.2-1.6-3.2-3.4-6.3-4.6-9.7-1.2-3.2-2.1-6.6-2.3-10-5.6 0.7-11.1 2.6-16 5.3-9.4 5.3-16.5 13.6-21.2 23.2-5.1 10.5-7.2 21.8-7.9 33.3-0.9 14.5-1.1 29.1-2.5 43.5-0.1 0.9-1.6 1.3-1.8 0.2-0.6-3.2-0.3-6.5-0.2-9.7z"/>
					<path id="&lt;Path&gt;" class="s2" d="m235.3 707.2c0.8-1.1 2.1-2 3.2-2.9q1.6-1.4 3.5-2.7c2.4-1.6 5-2.8 7.8-3.6 0.2-0.1 0.3 0.3 0.1 0.4-2.9 0.6-5.4 2-7.8 3.7q-1.7 1.3-3.3 2.7c-1 0.9-2 2.1-3.2 2.7-0.2 0.1-0.4-0.1-0.3-0.3z"/>
					<path id="&lt;Path&gt;" class="s2" d="m279.3 717.4c2.2 2.7 4.4 5.5 6.3 8.4 1.9 3 3.5 6 4.7 9.3 0 0.1-0.1 0.2-0.2 0.1-3.3-6-6.7-12.2-11.1-17.5-0.1-0.2 0.1-0.4 0.3-0.3z"/>
					<path id="&lt;Path&gt;" class="s2" d="m249.7 714.6q0.4 2.7 1.5 5.2c0.7 1.5 1.7 3.1 2.6 4.5 0.1 0.1-0.1 0.2-0.1 0.1-2.5-2.6-3.8-6.2-4.4-9.7 0-0.2 0.3-0.3 0.4-0.1z"/>
				</g>
				<g id="&lt;Group&gt;">
					<path id="&lt;Path&gt;" class="s4" d="m205.4 726.8c0 0-19.5-24.5-57.1-15.8-35.8 8.3-52.3 73.9-16.2 81.7 36.2 7.9 29.8-52.8 43-63.1 9.6-7.6 23.6-6 30.3-2.8z"/>
					<path id="&lt;Path&gt;" class="s2" d="m119.2 746.8c2.5-2.1 5-4.1 7.7-5.9 2.6-1.7 5.4-3.2 8.3-4.1 1.5-2.2 3.1-4.4 4.9-6.3 3.4-3.7 7.2-6.7 11.4-9.1q-0.6 0-1.1-0.1c-2 0-4-0.1-6 0.1-4.1 0.3-7.9 1.2-11.6 2.9-0.2 0.1-0.4-0.3-0.2-0.4 3.7-1.5 7.6-2.8 11.6-3.4 1.9-0.4 3.9-0.6 5.9-0.6q1.6 0.1 3.2 0.2 0.3 0.1 0.6 0.1c3.4-1.8 7-3.1 10.8-4q-0.5-0.2-1-0.3c-1.9-0.4-3.7-0.7-5.6-0.9-3.8-0.5-7.5-0.4-11.3 0.2-0.2 0-0.3-0.4 0-0.4 3.7-0.5 7.6-0.6 11.3-0.5 3.1 0.2 6.4 0.5 9.5 1.3q3.4-0.7 6.9-0.8c13.1-0.6 27.4 4.3 35.5 15.1 8.1 10.9 9.7 25.2 11.1 38.3 2 18.1 2.9 36.5 1.4 54.7-0.1 1.1-1.6 0.9-1.6-0.2-0.5-15.4-1-30.9-2.5-46.3-0.7-7.2-1.5-14.3-2.7-21.4-1-6-2.4-12.1-5.1-17.6-2.9-5.8-7.2-10.4-12.8-13.7-5.4-3.2-11.7-5-18-5.5-5.7-0.5-11.4 0.1-16.8 1.6 0.2 1.1 0.1 2.2 0.1 3.3q-0.2 2.1-0.9 4.1-0.6 1.9-1.5 3.7c-0.7 1.3-1.6 2.4-2.4 3.7-0.1 0.2-0.4-0.1-0.3-0.2 1.6-2.1 2.5-4.9 2.9-7.5q0.4-1.9 0.5-3.8c0-1-0.1-2 0-2.9-5.9 1.8-11.5 4.7-16.4 8.7q-1.4 1.1-2.7 2.3c1.3 1 2.3 2.6 3.2 3.9 1.3 1.9 2.4 3.9 3.3 5.9 1.9 4.2 2.8 8.7 3.5 13.1 0 0.3-0.3 0.3-0.3 0.1-0.6-4.4-2.3-8.5-4.3-12.4-1-1.9-2.1-3.8-3.4-5.5q-0.9-1.4-1.9-2.7c-0.4-0.5-0.8-0.9-1.2-1.4-4.4 4.3-8 9.4-10.6 15q0 0 0 0c1.9 1.8 3.2 4.2 4.4 6.4 1.4 2.4 2.6 4.9 3.6 7.5 1.9 5 3.2 10.2 4.5 15.4 0 0.2-0.3 0.3-0.4 0-1-5.2-3-10.2-5.3-15.1q-1.7-3.5-3.6-7c-1.2-2.1-2.6-4.3-3.5-6.5-2.5 5.5-4 11.4-4.3 17.4 0 0.2-0.4 0.2-0.4 0 0.8-9.4 3.6-18.8 8.5-26.8-2.3 1-4.6 1.9-6.9 3.1-2.8 1.5-5.4 3.3-7.8 5.5-0.2 0.2-0.4-0.1-0.2-0.3z"/>
					<path id="&lt;Path&gt;" class="s2" d="m146.8 748.2c1.1 3.8 2.5 7.4 3.6 11.1 0.9 3.6 1.6 7.3 1.6 11.1 0 0.1-0.1 0.1-0.2 0-1.1-7.4-2.7-15-5.3-22.1-0.1-0.2 0.2-0.3 0.3-0.1z"/>
					<path id="&lt;Path&gt;" class="s2" d="m122.9 739c1.5-1.4 3.2-2.6 5-3.5 1.9-1 3.8-1.5 5.8-2.1 0.2-0.1 0.3 0.3 0.1 0.4-2 0.4-3.8 1.3-5.6 2.2-1.8 1-3.5 2-5.1 3.2-0.1 0.1-0.3-0.1-0.2-0.2z"/>
				</g>
				<g id="&lt;Group&gt;">
					<path id="&lt;Path&gt;" class="s4" d="m186.9 694.1c0 0-3.6-44-36.4-58.3-27.3-11.9-43 18.8-23.6 37.6 15.6 15.2 40.7 8.3 60 20.7z"/>
					<path id="&lt;Path&gt;" class="s2" d="m132.9 644.3c5 2.1 9.9 4.2 14.6 6.9 3.9 2.2 7.7 4.8 11.3 7.5-0.6-1.1-1-2.3-1.6-3.4q-1.3-2.5-2.8-4.9c-2-3.4-4.3-6.5-7.2-9.2-0.1-0.1 0.1-0.4 0.3-0.2 2.7 2.8 5.4 5.6 7.6 8.8q1.7 2.4 3.1 5c0.8 1.6 1.8 3.3 2.2 5.1q0.2 0.1 0.4 0.2c5.7 4.6 10.9 9.7 15.6 15.3q-0.1-0.6-0.3-1.2-0.9-3.2-2-6.4c-1.5-4.5-3.3-8.9-5.9-12.9-0.1-0.2 0.2-0.3 0.3-0.1 2.5 4 5 8.1 6.9 12.5q1.3 3.2 2.2 6.5c0.4 1.3 0.9 2.9 1.1 4.4 1.4 1.8 2.8 3.7 4.1 5.5 14.1 20 21.2 44.2 22.8 68.5q0.8 10.8 0.4 21.7c-0.2 7.2-0.5 14.6-1.9 21.7-0.1 0.5-0.8 0.3-0.8-0.1 0.2-6.4 0.8-12.7 0.9-19.1 0.2-6.3-0.1-12.7-0.6-19.1-1-12.6-3.4-25.3-7.1-37.5-3.8-12.4-9.4-24.3-16.7-35.2-1.3-0.3-2.7-0.6-4.1-1q-2.4-0.6-4.9-1.3c-3.1-0.9-6.2-1.8-9.1-3.3-0.2-0.1 0-0.5 0.2-0.3 2.9 1.6 6 2.5 9.3 3.2 2.5 0.5 5.2 0.8 7.8 1.4q-3.6-5.2-7.7-10c-6.2 0.6-12.5 0-18.6-1.4-3.2-0.8-6.4-1.8-9.5-3-3.3-1.2-6.4-2.9-9.6-4.2-0.3-0.1-0.1-0.5 0.1-0.3 5.6 3.3 12.5 5.1 18.9 6.1 5.8 1 11.7 1.4 17.6 1.5-2.3-2.7-4.7-5.3-7.2-7.7-8.6-8.2-18.9-15.7-30.2-19.6-0.2-0.1-0.1-0.5 0.1-0.4z"/>
					<path id="&lt;Path&gt;" class="s2" d="m159.6 644.4c1.4 1.9 2.8 3.9 4 5.9 1.2 2.2 2.1 4.4 2.9 6.8 0 0.1-0.1 0.2-0.2 0.1-1.1-2.2-2-4.4-3.1-6.6q-1.6-3.1-3.9-5.9c-0.1-0.2 0.1-0.4 0.3-0.3z"/>
					<path id="&lt;Path&gt;" class="s2" d="m129.1 659.1c2.1 1.2 4.4 2.1 6.7 2.8 2.3 0.7 4.6 1.4 6.9 1.8 0.1 0.1 0 0.2-0.1 0.2-2.4-0.2-4.7-0.7-7-1.5-2.3-0.8-4.5-1.9-6.7-3-0.2-0.1 0-0.4 0.2-0.3z"/>
				</g>
				<g id="&lt;Group&gt;">
					<path id="&lt;Path&gt;" class="s4" d="m212.3 686.2c0.2 1.9 5-16 32.7-31.9 25.1-14.4 55.1-51.9 30.5-75.7-19.9-19.1-72.4 22.6-63.2 107.6z"/>
					<path id="&lt;Path&gt;" class="s2" d="m193.3 788.7c0.4-18.6 1.8-37.2 4.4-55.6 2.3-17 5.9-33.7 11.7-49.8 2-5.9 4.4-11.6 6.9-17.2-0.2-2.2 0-4.5 0.1-6.6 0.2-2.8 0.4-5.7 0.7-8.5q0.4-4.2 0.9-8.4c0.3-2.8 0.9-5.6 1-8.4 0-0.2 0.4-0.2 0.4 0.1-0.7 2.8-0.8 6-1 8.9q-0.4 4.1-0.5 8.1c-0.1 2.8-0.1 5.5-0.1 8.2 0 1 0.1 2 0.1 3.1 2.6-5.5 5.4-10.9 8.5-16.2-1.9-11.5 0.5-23.5 2.9-34.7 0-0.2 0.3-0.1 0.3 0.1-1.2 5.9-1.7 11.8-1.8 17.8-0.1 4.7 0.1 9.4 0.1 14.1q1-1.7 2-3.3 5.4-8.9 11.5-17.2c-0.4-2.7-0.1-5.5 0.3-8.2 0.4-3 1.1-6 2-8.9q1.3-4.4 3.1-8.7c1.2-2.9 2.8-5.6 3.9-8.6 0.1-0.2 0.5 0 0.3 0.2-1.5 2.6-2.5 5.8-3.4 8.7-0.9 2.8-1.7 5.7-2.3 8.6q-0.9 4.3-1.5 8.8c-0.2 1.9-0.4 3.9-0.8 5.9 6-8 12.4-15.6 19.4-22.6 0.2-0.1 0.4 0.1 0.3 0.3-10.5 11.9-20 24.6-28.2 38.3q-0.4 0.7-0.9 1.5c1.6-0.9 3.3-1.7 4.8-2.5q4-2.2 8-4.4 4-2.1 7.9-4.3c1.3-0.8 2.6-1.5 4-2.2 1.6-0.8 3.3-1.6 4.7-2.6 0.2-0.2 0.4 0.1 0.2 0.3-2.7 1.4-5 3.6-7.6 5.2q-3.9 2.5-7.9 4.8c-4.9 2.7-10.3 4.7-15.1 7.5q-5 8.9-9.3 18.1 4.4-2.8 9-5.4 2.9-1.6 5.9-3.2c1.9-1 3.9-2 5.6-3.4 0.1-0.1 0.4 0.1 0.2 0.3-3.1 3-6.9 5.2-10.6 7.4-3.6 2.1-7.2 4.1-10.9 5.9q-4.4 9.7-8 19.8c-11.6 33-15.9 68-18 102.8-0.6 10.4-0.9 20.7-1 31.1-0.1 10.4 0.4 20.8 0.4 31.1 0 0.3-0.5 0.4-0.6 0.1-1.2-9.2-1.4-18.6-1.8-27.8-0.4-9.5-0.4-18.9-0.2-28.4z"/>
					<path id="&lt;Path&gt;" class="s2" d="m243.6 639.4c5.1-2.1 9.9-4.9 14.7-7.6 4.8-2.8 9.5-5.7 13.9-8.9 0.1-0.1 0.2 0.1 0.1 0.1-4.2 3.4-8.7 6.6-13.4 9.4-4.8 2.9-10 5-15.2 7.3-0.2 0.1-0.3-0.2-0.1-0.3z"/>
					<path id="&lt;Path&gt;" class="s2" d="m235.5 602.1c0.5-1.6 1-3.2 1.5-4.8q-0.1 0-0.1-0.2 0.6-1.3 1.1-2.6 0.1-0.2 0.1-0.3 0.1-0.3 0.3-0.6c0 0 0.1 0 0 0.1q-0.1 0.4-0.2 0.9c-0.1 0.2-0.1 0.3-0.2 0.5-1.9 6.1-3.1 12.4-4.1 18.8 0 0.2-0.3 0.2-0.3 0 0.2-4 1-7.9 1.9-11.8z"/>
				</g>
			</g>
			<g id="&lt;Group&gt;">
				<g id="&lt;Group&gt;">
					<path id="&lt;Path&gt;" class="s10" d="m164 795.4l2 23.5 6 71.4h64.8l6.1-71.4 1.9-23.5z"/>
					<path id="&lt;Path&gt;" class="s2" d="m164 795.4l2 23.5h76.9l1.9-23.5z"/>
				</g>
				<path id="&lt;Path&gt;" class="s10" d="m157.7 808.5h93.5v-22.5h-93.5z"/>
			</g>
		</g>
	</g>
	<g id="Image">
		<g id="&lt;Group&gt;">
			<path id="&lt;Path&gt;" class="s11" d="m699.6 639.5h194.2v-123.7h-194.2z"/>
			<g id="&lt;Group&gt;">
				<g id="&lt;Group&gt;">
					<path id="&lt;Path&gt;" class="s12" d="m688.3 647.4v3h3"/>
					<path id="&lt;Path&gt;" class="s13" d="m697.4 650.4h201.7"/>
					<path id="&lt;Path&gt;" class="s12" d="m902.1 650.4h3v-3"/>
					<path id="&lt;Path&gt;" class="s14" d="m905.1 641.4v-130.5"/>
					<path id="&lt;Path&gt;" class="s12" d="m905.1 507.9v-3h-3"/>
					<path id="&lt;Path&gt;" class="s13" d="m896.1 504.9h-201.8"/>
					<path id="&lt;Path&gt;" class="s12" d="m691.3 504.9h-3v3"/>
					<path id="&lt;Path&gt;" class="s14" d="m688.3 514v130.4"/>
				</g>
			</g>
			<g id="&lt;Group&gt;" style="opacity: .1">
				<path id="&lt;Path&gt;" class="s15" d="m763.7 612.9h130.1l-65-53.9z"/>
			</g>
			<g id="&lt;Group&gt;">
				<path id="&lt;Path&gt;" class="s4" d="m699.6 612.9h115.4l-57.7-35z"/>
			</g>
			<g id="&lt;Group&gt;" style="opacity: .2">
				<path id="&lt;Path&gt;" class="s15" d="m699.6 612.9h115.4l-57.7-35z"/>
			</g>
			<g id="&lt;Group&gt;">
				<path id="&lt;Path&gt;" class="s4" d="m893.8 639.5h-194.2v-26.6h194.2z"/>
			</g>
			<g id="&lt;Group&gt;" style="opacity: .2">
				<path id="&lt;Path&gt;" class="s15" d="m893.8 639.5h-194.2v-26.6h194.2z"/>
			</g>
			<path id="&lt;Path&gt;" class="s5" d="m752.2 549.6c0 9.9-8.1 17.9-18 17.9-9.9 0-17.9-8-17.9-17.9 0-9.9 8-17.9 17.9-17.9 9.9 0 18 8 18 17.9z"/>
			<path id="&lt;Path&gt;" class="s2" d="m694.7 511.2h-12.7v-12.6h12.7z"/>
			<path id="&lt;Path&gt;" class="s2" d="m694.7 656.8h-12.7v-12.7h12.7z"/>
			<path id="&lt;Path&gt;" class="s2" d="m692.8 582.2h-9v-9h9z"/>
			<path id="&lt;Path&gt;" class="s2" d="m801.2 509.4h-9v-9h9z"/>
			<path id="&lt;Path&gt;" class="s2" d="m801.2 655h-9v-9.1h9z"/>
			<path id="&lt;Path&gt;" class="s2" d="m909.6 582.2h-9v-9h9z"/>
			<path id="&lt;Path&gt;" class="s16" d="m911.4 511.2h-12.6v-12.6h12.6z"/>
			<path id="&lt;Path&gt;" class="s2" d="m911.4 656.8h-12.6v-12.7h12.6z"/>
		</g>
	</g>
	<g id="Pointer">
		<g id="&lt;Group&gt;">
			<path id="&lt;Path&gt;" class="s2" d="m929.7 697.1l9.5 22.8-9.4 3.9-9.5-23-15.6 12.1v-64.2l45 45.4z"/>
			<g id="&lt;Group&gt;">
				<g id="&lt;Group&gt;">
					<path id="&lt;Path&gt;" class="s2" d="m905.2 640.1c-0.8-1.4-0.9-2.8-1-4.2 0-1.5 0.2-2.9 1-4.3 0.8 1.4 1 2.8 1 4.3 0 1.4-0.2 2.8-1 4.2z"/>
				</g>
				<g id="&lt;Group&gt;">
					<path id="&lt;Path&gt;" class="s2" d="m897.9 643.2c-1.6-0.5-2.7-1.4-3.7-2.3-1-1.1-1.9-2.2-2.4-3.8 1.6 0.5 2.7 1.4 3.8 2.3 0.9 1.1 1.8 2.2 2.3 3.8z"/>
				</g>
				<g id="&lt;Group&gt;">
					<path id="&lt;Path&gt;" class="s2" d="m894.8 650.5c-1.4 0.8-2.8 1-4.2 1-1.4 0-2.9-0.2-4.3-1 1.4-0.8 2.9-1 4.3-1 1.4 0 2.8 0.2 4.2 1z"/>
				</g>
				<g id="&lt;Group&gt;">
					<path id="&lt;Path&gt;" class="s2" d="m897.9 657.8c-0.5 1.6-1.4 2.7-2.3 3.8-1.1 0.9-2.2 1.8-3.8 2.3 0.5-1.6 1.4-2.7 2.4-3.8 1-0.9 2.1-1.8 3.7-2.3z"/>
				</g>
				<g id="&lt;Group&gt;">
					<path id="&lt;Path&gt;" class="s2" d="m915.6 650.5c1.4-0.8 2.8-1 4.3-1 1.4 0 2.8 0.2 4.2 1-1.4 0.8-2.8 1-4.2 1-1.5 0-2.9-0.2-4.3-1z"/>
				</g>
				<g id="&lt;Group&gt;">
					<path id="&lt;Path&gt;" class="s2" d="m912.6 643.2c0.4-1.6 1.3-2.7 2.3-3.8 1-0.9 2.1-1.8 3.7-2.3-0.5 1.6-1.3 2.7-2.3 3.8-1.1 0.9-2.2 1.8-3.7 2.3z"/>
				</g>
			</g>
		</g>
	</g>
	<g id="Character">
		<g id="Capa 4">
		</g>
		<g id="&lt;Group&gt;">
			<g id="&lt;Group&gt;">
				<path id="&lt;Path&gt;" class="s4" d="m1280.2 596.2h-120.6v-25h120.6z"/>
				<path id="&lt;Path&gt;" class="s4" d="m1192 596l-3.4 31.9-41.7 262.8h-11.9l32.9-262.8 2.7-31.9z"/>
				<path id="&lt;Path&gt;" class="s4" d="m1304.9 890.7h-12l-41.7-262.8-3.3-31.9h21.4l2.6 31.9z"/>
				<path id="&lt;Path&gt;" class="s4" d="m1284.7 815.2h-133v-7.5h133z"/>
				<path id="&lt;Path&gt;" class="s5" d="m1167.9 626.8h20.7l3.4-30.8h-21.4z"/>
				<path id="&lt;Path&gt;" class="s5" d="m1272 626.8h-20.8l-3.3-30.8h21.4z"/>
			</g>
			<g id="&lt;Group&gt;">
				<g id="&lt;Group&gt;">
					<g id="&lt;Group&gt;">
						<g id="&lt;Group&gt;">
							<g id="&lt;Group&gt;">
								<path id="&lt;Path&gt;" class="s17" d="m1032 613.8c1.4-4 72-97.4 76.8-99.2 0.6-0.2 32.2 22.3 32.2 22.3 1.3 1.7 61.3-11 61.3-11l0.6 72.4-109.4-2.3c0 0-14.7 8.7-28.2 15.8q-0.1 0-0.1 0c-8.3 4.4-15.7 8.1-17.8 8.6-5.4 1.4-16.7-2.7-15.4-6.6z"/>
								<path id="&lt;Path&gt;" class="s1" d="m1047.4 620.4c2.1-0.5 9.5-4.2 17.8-8.6q0 0 0.1 0c13.5-7.1 28.2-15.8 28.2-15.8l24.4 0.5 38.1-61.4c-8.4 1.4-14.6 2.3-15 1.8 0 0-31.6-22.5-32.2-22.3-4.8 1.8-75.4 95.2-76.8 99.2-1.3 3.9 10 8 15.4 6.6z"/>
								<g id="&lt;Group&gt;">
									<path id="&lt;Path&gt;" class="s9" d="m1031.4 613.9c1.4-4.1 72.3-97.4 77.3-99.2 1.9-0.7 17.3 8.8 32.3 22.2l-45.9 60.1c0 0-42.2 22.4-47.9 23.8-5.6 1.4-17.2-2.8-15.8-6.9z"/>
									<g id="&lt;Group&gt;">
										<g id="&lt;Group&gt;">
											<path id="&lt;Path&gt;" class="s2" d="m1036.1 615.4c12.3-15.3 60.4-78.4 71.4-94.5 0.1-0.1 0-0.2-0.1-0.1-12.5 15-60.1 78.4-71.5 94.4-0.3 0.3 0 0.5 0.2 0.2z"/>
											<path id="&lt;Path&gt;" class="s2" d="m1055.1 617.4c3-3.6 4-8.6 3.3-12.3-0.6-3.6-2.3-7.5-5.7-9.8-0.1-0.1-0.2 0.1-0.1 0.1 5.4 5.6 6.6 15.2 2.3 21.8-0.1 0.1 0.1 0.3 0.2 0.2z"/>
											<path id="&lt;Path&gt;" class="s2" d="m1089.8 600.7c4.9-6.2 8.2-15.1 6-22.9 0-0.3-0.5-0.2-0.5 0-1.4 7.9-3.3 15-6.3 22.4-0.2 0.5 0.5 0.9 0.8 0.5z"/>
											<path id="&lt;Path&gt;" class="s2" d="m1084.3 604.1c4.8-6.2 8.1-15.1 6-22.9-0.1-0.3-0.5-0.2-0.6 0-1.4 7.9-3.3 15-6.3 22.4-0.2 0.5 0.5 0.9 0.9 0.5z"/>
											<path id="&lt;Path&gt;" class="s2" d="m1078.7 607.5c4.9-6.2 8.2-15.1 6-22.9-0.1-0.3-0.5-0.2-0.5 0-1.4 7.9-3.3 15-6.3 22.4-0.2 0.5 0.5 0.9 0.8 0.5z"/>
											<path id="&lt;Path&gt;" class="s2" d="m1073.2 610.9c4.8-6.2 8.1-15.2 6-22.9-0.1-0.3-0.6-0.2-0.6 0-1.4 7.9-3.3 15-6.3 22.4-0.2 0.5 0.5 0.9 0.9 0.5z"/>
											<path id="&lt;Path&gt;" class="s2" d="m1119.3 536.2c5.3-7.1-5.6-15.3-10.9-8.3-5.4 7 5.6 15.3 10.9 8.3z"/>
										</g>
										<path id="&lt;Compound Path&gt;" fill-rule="evenodd" class="s2" d="m1092.6 612.7c-1.8-6.7-0.6-14-0.3-20.8 0-0.7 0.8-0.9 1.4-0.7 0-0.1 0.2-0.2 0.3-0.1 5.1 4.5 9.6 11.4 11.7 17.9 1.2 4 0.7 10-4.3 11.2-4.8 1.1-7.8-3.6-8.8-7.5zm5 4.2c7.2 4.6 6.7-5.6 5.7-8.5-0.7-1.9-1.6-3.7-2.5-5.5-1.9-3.7-4.3-7.1-6.6-10.6 0 3.4-0.2 6.7-0.3 10.1-0.1 3.9-0.4 12 3.7 14.5z"/>
										<path id="&lt;Compound Path&gt;" fill-rule="evenodd" class="s2" d="m1114.9 572c3.7 3.6 1 8.9-2.1 11.7-5.1 4.6-12.5 8.1-19.2 9.3-0.2 0-0.3-0.1-0.3-0.2-0.6-0.1-1.1-0.7-0.8-1.4 3.3-6 6-12.8 11-17.6 2.9-2.8 7.9-5.3 11.4-1.8zm-15.6 11.4c-1.7 2.9-3.2 5.8-4.9 8.7 3.7-1.8 7.5-3.5 11.1-5.7 1.7-1 3.4-2.1 4.9-3.4 2.4-2 8.1-10.4-0.5-10.2-4.7 0-8.6 7.1-10.6 10.6z"/>
									</g>
								</g>
							</g>
							<g id="&lt;Group&gt;">
								<path id="&lt;Path&gt;" class="s7" d="m1205.6 503.7h49.1c0 0 51.3-24.7 92.7-14.7 47.4 11.4 53.5 70.9 18 92-44.9 26.7-244.7 21.5-244.7 21.5l43.2-73.2c0 0 66.5-14 126.7-12l-85 11.6z"/>
								<g id="&lt;Group&gt;">
									<path id="&lt;Path&gt;" class="s2" d="m1161 534c0.1-0.1 0.1-0.3 0.1-0.4q0.1-0.1 0.1-0.3 0.1-0.3 0.2-0.7 0.2-0.7 0.5-1.4 0.3-0.7 0.6-1.4c0.2-0.5 0.5-0.9 0.8-1.3 0 0 0.1 0 0.1-0.1q0.1 0 0.1 0 0.1-0.1 0.1-0.1 0.1 0 0.1 0c7.3-1.4 57-8.5 64.4-9.3 7.4-0.9 14.9-1.6 22.3-2.2 14.9-1.2 29.9-1.9 44.8-1.6q2.1 0 4.2 0.1c0.3-0.1 0.7-0.1 1-0.2q1-0.3 2.1-0.5c1.4-0.2 2.7-0.4 4.1-0.7 2.8-0.4 5.6-0.7 8.5-1.2 0.1 0 0.2 0.2 0 0.3-2.8 0.6-5.6 1.4-8.4 2q-1.2 0.3-2.5 0.5c5.5 0.3 11 0.7 16.5 1.2 0.1 0.1 0.1 0.3 0 0.3-7.5-0.4-15-0.5-22.4-0.4-7.4 0.2-14.8 0.3-22.2 0.8-15 0.8-29.9 2.2-44.8 3.7-8.4 0.9-59 8.3-67.4 8.6q0 0-0.1 0-0.1 0.3-0.2 0.6-0.4 0.7-0.7 1.3-0.4 0.7-0.8 1.3-0.2 0.3-0.4 0.6-0.1 0.2-0.2 0.3c-0.1 0.1-0.2 0.2-0.2 0.3-0.1 0.2-0.4 0.1-0.3-0.1z"/>
									<path id="&lt;Path&gt;" class="s2" d="m1136.3 598.1c2.7-4.3 5-8.9 7.4-13.3q3.7-6.6 7.4-13.3c4.9-8.8 22.5-38.4 24.3-40.5 0.1-0.2 0.3 0 0.3 0.1-0.9 2.3-11.9 22-14.4 26.4-5.1 8.7-10.4 17.3-15.7 25.9-1.5 2.5-3 5-4.5 7.4-1.5 2.5-3.2 4.9-4.6 7.4 0 0.1-0.3 0-0.2-0.1z"/>
									<path id="&lt;Path&gt;" class="s2" d="m1175.9 538.4c4.4-1.1 8.9-1.8 13.4-2.6q6.7-1.3 13.4-2.5 13.4-2.5 26.8-4.8c17.9-3 35.8-5.5 53.9-7.2 10.2-1 20.4-1.7 30.6-2.4 0.2 0 0.2 0.3 0 0.3-18.2 0.8-36.3 3.3-54.3 5.9-17.9 2.6-35.7 5.4-53.4 8.4q-7.5 1.2-15 2.5c-5.1 0.9-10.2 2-15.3 2.7-0.2 0-0.3-0.3-0.1-0.3z"/>
								</g>
							</g>
						</g>
					</g>
					<g id="&lt;Group&gt;">
						<g id="&lt;Group&gt;">
							<path id="&lt;Path&gt;" class="s17" d="m1125.1 852c4.3-0.4 111.3-48.5 114.3-53 1.1-1.6-5-17.6-12.9-36.7-1.7-4.2-3.5-8.4-5.4-12.7-11.9-28-25.2-57.5-25.2-57.5l-71.7 32 27.2 56.6 6 12.4c0 0-32.8 36.7-35.5 41.9-2.6 5.2-1.1 17.4 3.2 17z"/>
							<path id="&lt;Path&gt;" class="s1" d="m1125.1 852c4.3-0.4 111.3-48.5 114.3-53 1.3-2-8-25.2-18.3-49.4l-69.7 31.1 6 12.4c0 0-32.8 36.7-35.5 41.9-2.6 5.2-1.1 17.4 3.2 17z"/>
							<g id="&lt;Group&gt;">
								<path id="&lt;Path&gt;" class="s9" d="m1125.1 852c4.3-0.4 111.3-48.5 114.3-53 1.1-1.6-5-17.6-12.9-36.7l-69.1 30.8c0 0-32.8 36.7-35.5 41.9-2.6 5.2-1.1 17.4 3.2 17z"/>
								<g id="&lt;Group&gt;">
									<g id="&lt;Group&gt;">
										<path id="&lt;Path&gt;" class="s2" d="m1124.7 847c17.8-8.5 90.1-41.1 108.3-48.2 0.2 0 0.2 0.1 0.1 0.1-17.4 8.9-90.1 40.9-108.3 48.4-0.3 0.2-0.5-0.1-0.1-0.3z"/>
										<path id="&lt;Path&gt;" class="s2" d="m1127.1 828.1c4.2-2.1 9.2-2 12.7-0.5 3.3 1.4 6.8 4 8.3 7.8 0.1 0.1-0.1 0.2-0.2 0.1-4.2-6.6-13.3-9.9-20.7-7.2-0.2 0-0.3-0.2-0.1-0.2z"/>
										<path id="&lt;Path&gt;" class="s2" d="m1151.2 798c7.1-3.3 16.6-4.6 23.7-0.7 0.3 0.2 0.1 0.6-0.2 0.5-8-0.4-15.3-0.1-23.2 1.1-0.6 0.1-0.8-0.7-0.3-0.9z"/>
										<path id="&lt;Path&gt;" class="s2" d="m1146.6 802.6c7.2-3.3 16.6-4.5 23.7-0.6 0.3 0.1 0.1 0.5-0.2 0.5-8-0.4-15.3-0.2-23.2 1.1-0.5 0.1-0.8-0.7-0.3-1z"/>
										<path id="&lt;Path&gt;" class="s2" d="m1142.1 807.3c7.1-3.3 16.6-4.5 23.7-0.7 0.2 0.2 0 0.6-0.2 0.5-8-0.4-15.3-0.1-23.3 1.1-0.5 0.1-0.7-0.7-0.2-0.9z"/>
										<path id="&lt;Path&gt;" class="s2" d="m1137.5 811.9c7.1-3.3 16.6-4.5 23.7-0.6 0.3 0.1 0.1 0.5-0.2 0.5-8-0.4-15.3-0.1-23.2 1.1-0.6 0.1-0.8-0.7-0.3-1z"/>
										<path id="&lt;Path&gt;" class="s2" d="m1220.8 783.8c8.1-3.6 13.7 9 5.6 12.6-8.1 3.6-13.7-9-5.6-12.6z"/>
									</g>
									<path id="&lt;Compound Path&gt;" fill-rule="evenodd" class="s2" d="m1134.8 782.3c2.3-4.6 8.2-3.8 11.9-1.6 5.9 3.4 11.6 9.4 14.7 15.4 0.1 0.1 0 0.3-0.1 0.3 0.1 0.6-0.3 1.3-1 1.2-6.7-1.3-14-1.8-20.2-5-3.5-1.9-7.4-5.9-5.3-10.3zm15.7 11.3c3.3 0.7 6.6 1.2 9.8 2-2.9-3-5.6-6.1-8.8-8.8-1.5-1.3-3.1-2.6-4.8-3.7-2.6-1.6-12.4-4.5-9.6 3.7 1.6 4.5 9.5 6 13.4 6.8z"/>
									<path id="&lt;Compound Path&gt;" fill-rule="evenodd" class="s2" d="m1180.5 790.7c-5.8 3.8-13.1 4.9-19.7 6.7-0.6 0.2-1.1-0.4-1.1-1-0.1-0.1-0.2-0.2-0.1-0.3 2.6-6.3 7.8-12.7 13.4-16.7 3.4-2.4 9.2-3.8 11.9 0.7 2.5 4.2-1 8.4-4.4 10.6zm2.5-6c2.1-8.3-7.4-4.7-9.9-2.8-1.6 1.2-3 2.7-4.4 4.1-3 2.9-5.5 6.3-8.1 9.5 3.2-1.1 6.4-1.9 9.6-2.8 3.9-1.2 11.6-3.4 12.8-8z"/>
								</g>
							</g>
						</g>
						<g id="&lt;Group&gt;">
							<path id="&lt;Path&gt;" class="s7" d="m1219.5 743l-80.6 36.4c0 0-96-184.2-98.5-240.5-2.2-48 31.2-66.6 139.2-35.5l26.5 0.3v18.3c-11.6 1.5-42.6 6.4-42.6 6.4-22.5 8.5-29.8 12-29.4 12.7 56.2 113.5 85.4 201.9 85.4 201.9z"/>
							<g id="&lt;Group&gt;">
								<path id="&lt;Path&gt;" class="s2" d="m1120.9 520.9c3.2 4.3 6.2 8.8 9.1 13.4 17.3-7.7 36.2-12.1 54.9-14.4q8-1 16-1.5c0.2 0 0.2 0.4 0 0.4-19 1.2-37.7 5-55.9 10.6-5 1.6-9.9 3.4-14.9 5.1 3.5 5.6 6.7 11.2 9.9 16.9 5.8 10.7 11.1 21.7 15.7 33 2.6 6.2 5.2 12.5 7.4 18.8 0 0.2-0.3 0.3-0.3 0.1-9.9-21.9-20.6-43.4-32.3-64.4-3.3-6-6.7-11.8-9.9-17.8-0.1-0.2 0.1-0.4 0.3-0.2z"/>
								<path id="&lt;Path&gt;" class="s2" d="m1137.1 760c4.7-1.9 9.3-4.2 13.9-6.2q6.9-3.2 13.8-6.3c9.2-4.1 41.1-17.3 43.7-17.9 0.2 0 0.3 0.2 0.2 0.3-2.1 1.3-22.6 10.5-27.3 12.5-9.3 4-18.7 7.7-28.1 11.4-2.7 1.1-5.4 2.1-8 3.2-2.7 1.1-5.5 2-8.1 3.2-0.2 0.1-0.3-0.2-0.1-0.2z"/>
								<path id="&lt;Path&gt;" class="s2" d="m1121.3 529.2c6.3 12.1 11.7 24.7 17.3 37.2q8.2 18.7 16 37.5c10.4 25.1 20 50.4 28.9 76 5.1 14.5 9.8 29 14.4 43.7 0.1 0.2-0.2 0.2-0.3 0-8.5-25.8-17.8-51.4-27.4-76.9q-14.5-38.1-30.8-75.4-4.5-10.5-9.2-21c-3.2-6.9-6.4-13.8-9.4-20.9-0.1-0.2 0.3-0.5 0.5-0.2z"/>
							</g>
						</g>
					</g>
				</g>
				<g id="&lt;Group&gt;">
					<g id="&lt;Group&gt;">
						<g id="&lt;Group&gt;">
							<path id="&lt;Path&gt;" class="s17" d="m1172.3 376.4c-36 27.8-68.9 59.7-72.7 78.4-2.5 11.8 6.6 30.7 13.2 41.9 3.2 5.4 54.1-27.2 48.7-31.2-13.5-9.9-16.1-14.4-15.4-17 0.5-1.7 37.2-47.3 46.4-66.6 12.7-26.8-4.4-17.7-20.2-5.5z"/>
						</g>
						<g id="&lt;Group&gt;">
							<path id="&lt;Path&gt;" class="s4" d="m1120.4 417.7l34.3 23.3c0 0 32.2-40.8 40-61.3 7.7-20.5-0.8-20.7-21-6.2-20.2 14.5-53.3 44.2-53.3 44.2z"/>
							<path id="&lt;Path&gt;" class="s4" d="m1120.4 417.7l34.3 23.3c0 0 32.2-40.8 40-61.3 7.7-20.5-0.8-20.7-21-6.2-20.2 14.5-53.3 44.2-53.3 44.2z"/>
							<path id="&lt;Compound Path&gt;" class="s18" d="m1180.8 385.4l-3.7-1 0.9-3.7c0.1-0.4-0.2-0.8-0.5-0.9-0.4 0-0.8 0.2-0.9 0.6l-1.1 4.4q0 0.1 0 0.1 0 0 0 0v0.2q0 0 0 0 0 0 0 0.1 0 0 0 0 0 0.1 0 0.1 0.1 0 0.1 0 0 0.1 0 0.1 0 0 0 0.1c0.1 0 0.1 0 0.1 0 0 0 0 0 0 0q0.1 0.1 0.1 0.1c0 0 0 0 0.1 0q0 0 0 0 0 0.1 0.1 0.1l4.4 1.1q0.3 0.1 0.6-0.1 0.2-0.1 0.3-0.4c0.1-0.4-0.1-0.8-0.5-0.9zm2.9-8.5c-0.1-0.3-0.4-0.6-0.7-0.5-0.4 0-0.6 0.3-0.6 0.7l1.1 7.1c0 0.4 0.3 0.6 0.7 0.6q0.1-0.1 0.2-0.1c0.2-0.1 0.3-0.4 0.3-0.6zm6.5 0q0-0.1 0-0.1v-0.1q-0.1 0-0.1 0 0-0.1 0-0.1 0 0 0 0-0.1-0.1-0.1-0.1 0 0 0 0c-0.1-0.1-0.1-0.1-0.1-0.1q0 0 0 0-0.1 0-0.1-0.1 0 0 0 0-0.1 0-0.1 0l-4.5-1.2c-0.3-0.1-0.7 0.2-0.8 0.6-0.1 0.4 0.1 0.7 0.5 0.8l3.7 1-0.9 3.7c-0.1 0.4 0.1 0.8 0.5 0.9q0.3 0.1 0.5-0.1c0.2-0.1 0.3-0.2 0.4-0.4l1.1-4.5q0 0 0-0.1 0 0 0 0v-0.1c0 0 0 0 0 0zm-33 17.7c-0.1-0.3-0.5-0.6-0.9-0.4l-4.3 1.4q0 0-0.1 0.1 0 0 0 0c0 0-0.1 0-0.1 0 0 0.1 0 0 0 0.1q-0.1 0-0.1 0 0 0 0 0.1 0 0-0.1 0 0 0.1 0 0.1 0 0 0 0 0 0.1-0.1 0.1 0.1 0 0 0.1c0 0 0 0 0 0q0 0.1 0 0.1 0 0 0 0.1 0 0 0 0 0 0.1 0.1 0.1l1.4 4.4q0.1 0.2 0.3 0.4c0.2 0.1 0.4 0.1 0.6 0 0.4-0.1 0.6-0.5 0.4-0.9l-1.1-3.6 3.6-1.3c0.4-0.1 0.6-0.5 0.4-0.9zm5.9 2.8c-0.2-0.2-0.6-0.3-0.8 0l-5.5 4.6c-0.3 0.3-0.3 0.7-0.1 0.9 0.1 0.1 0.1 0.1 0.2 0.2 0.2 0.1 0.5 0.1 0.7-0.1l5.5-4.7c0.2-0.2 0.3-0.6 0-0.9zm3.7 5.8q0 0 0-0.1 0 0 0-0.1l-1.4-4.3c-0.2-0.4-0.6-0.6-1-0.5-0.3 0.2-0.6 0.6-0.4 0.9l1.2 3.7-3.7 1.2c-0.4 0.1-0.6 0.5-0.4 0.9q0.1 0.3 0.3 0.4 0.3 0.2 0.6 0.1l4.3-1.5q0.1 0 0.1 0 0.1-0.1 0.1-0.1 0 0 0 0 0.1 0 0.1-0.1 0 0 0 0 0.1 0 0.1-0.1c0 0 0 0 0 0 0 0 0-0.1 0-0.1q0 0 0.1-0.1 0 0 0 0 0-0.1 0-0.1 0 0 0 0c0-0.1 0-0.1 0-0.1zm-30.3 18l2.7-2.7c0.3-0.3 0.3-0.7 0-1-0.3-0.3-0.8-0.3-1 0l-3.2 3.2q-0.1 0.1-0.1 0.1 0 0 0 0-0.1 0.1-0.1 0.1 0 0 0 0.1 0 0 0 0.1 0 0-0.1 0v0.1q0 0 0 0v0.2c0 0 0.1 0 0.1 0q0 0.1 0 0.1 0 0 0 0.1 0 0 0.1 0 0 0 0 0.1 0 0 0.1 0l3.2 3.3q0.2 0.2 0.5 0.2 0.2 0 0.5-0.2c0.3-0.3 0.3-0.7 0-1zm9.2-3.9c-0.3-0.2-0.7 0-0.8 0.3l-2.8 6.6c-0.2 0.4 0 0.7 0.3 0.9q0.1 0 0.3 0c0.2 0 0.4-0.1 0.5-0.4l2.8-6.6c0.2-0.3 0-0.7-0.3-0.8zm5.9 3.8v-0.1q0 0 0 0 0-0.1 0-0.1 0 0 0 0 0-0.1-0.1-0.1 0-0.1 0-0.1 0 0-0.1 0l-3.2-3.3c-0.2-0.3-0.7-0.3-1 0-0.3 0.3-0.3 0.7 0 1l2.7 2.8-2.7 2.7c-0.3 0.3-0.3 0.7 0 1q0.2 0.2 0.5 0.2 0.3 0 0.5-0.2l3.2-3.2q0.1-0.1 0.1-0.1 0 0 0 0 0.1-0.1 0.1-0.1 0-0.1 0-0.1 0 0 0-0.1 0 0 0 0v-0.1c0 0 0.1 0 0.1 0 0-0.1-0.1-0.1-0.1-0.1z"/>
							<path id="&lt;Path&gt;" class="s2" d="m1159.4 432.5c-15.5-9-27.5-19.1-30.3-21-0.1-0.1 0.1-0.3 0.2-0.2 2.6 2 18.3 11.9 30.3 20.9 0.1 0.1 0 0.3-0.2 0.3z"/>
							<path id="&lt;Path&gt;" class="s5" d="m1197.4 369.9q-0.4 3.8-2.7 9.8c-7.8 20.5-40 61.3-40 61.3l-13.7-9.3z"/>
						</g>
					</g>
					<g id="&lt;Group&gt;">
						<path id="&lt;Path&gt;" class="s4" d="m1275.3 503.2c-0.3 0.3-115.6 2.8-116.8 1.7-1.6-1.6 9.1-110.1 25.8-136.9 4.2-6.7 23.8-11.7 32.6-2.6 34.1 35.3 59.2 136.6 58.4 137.8z"/>
						<path id="&lt;Compound Path&gt;" class="s18" d="m1180.8 385.4l-3.4-0.9q-0.3 0.7-0.5 1.4l3.5 0.9q0.3 0.1 0.6-0.1 0.2-0.1 0.3-0.4c0.1-0.4-0.1-0.8-0.5-0.9zm2.9-8.5c-0.1-0.3-0.4-0.6-0.7-0.5-0.4 0-0.6 0.3-0.6 0.7l1.1 7.1c0 0.4 0.3 0.6 0.7 0.6q0.1-0.1 0.2-0.1c0.2-0.1 0.3-0.4 0.3-0.6zm6.5 0q0-0.1 0-0.1v-0.1q-0.1 0-0.1 0 0-0.1 0-0.1 0 0 0 0-0.1-0.1-0.1-0.1 0 0 0 0c-0.1-0.1-0.1-0.1-0.1-0.1q0 0 0 0-0.1 0-0.1-0.1 0 0 0 0-0.1 0-0.1 0l-4.5-1.2c-0.3-0.1-0.7 0.2-0.8 0.6-0.1 0.4 0.1 0.7 0.5 0.8l3.7 1-0.9 3.7c-0.1 0.4 0.1 0.8 0.5 0.9q0.3 0.1 0.5-0.1c0.2-0.1 0.3-0.2 0.4-0.4l1.1-4.5q0 0 0-0.1 0 0 0 0v-0.1c0 0 0 0 0 0zm38.9 45l-3.7-1 0.9-3.7c0.1-0.4-0.2-0.8-0.5-0.9-0.4-0.1-0.8 0.2-0.9 0.5l-1.1 4.5q0 0 0 0.1 0 0 0 0 0 0.1 0 0.1 0 0 0 0 0 0.1 0 0.1 0 0 0 0.1 0 0 0 0.1 0.1 0 0.1 0 0 0 0 0.1 0 0 0.1 0 0 0 0 0.1 0 0 0.1 0 0 0 0 0c0 0.1 0 0.1 0.1 0.1q0 0 0 0 0.1 0 0.1 0l4.4 1.2q0.3 0 0.6-0.1 0.2-0.2 0.3-0.4c0.1-0.4-0.1-0.8-0.5-0.9zm2.9-8.5c-0.1-0.3-0.4-0.6-0.7-0.5-0.4 0-0.6 0.3-0.6 0.7l1.1 7.1c0 0.3 0.3 0.6 0.7 0.5q0.1 0 0.2-0.1c0.2-0.1 0.3-0.3 0.3-0.6zm6.5 0q0 0 0-0.1c0 0 0 0 0 0q0 0-0.1-0.1c0 0 0-0.1 0-0.1q0 0-0.1 0 0-0.1 0-0.1c0 0 0 0-0.1 0q0 0 0 0 0-0.1-0.1-0.1 0 0 0 0-0.1 0-0.1 0l-4.4-1.2c-0.4-0.1-0.8 0.2-0.9 0.5-0.1 0.4 0.1 0.8 0.5 0.9l3.7 1-0.9 3.7c-0.1 0.4 0.1 0.8 0.5 0.9q0.3 0 0.6-0.1c0.1-0.1 0.3-0.3 0.3-0.5l1.1-4.4q0 0 0-0.1v-0.1c0 0 0-0.1 0-0.1zm-62.8 51.6l-3.7-0.9 1-3.8c0.1-0.3-0.2-0.7-0.6-0.8-0.3-0.1-0.7 0.1-0.9 0.5l-1 4.4q-0.1 0.1-0.1 0.1 0 0.1 0 0.1v0.1q0 0 0 0 0.1 0.1 0.1 0.1 0 0 0 0 0 0.1 0 0.1c0 0 0 0.1 0 0.1 0.1 0 0.1 0 0.1 0q0 0.1 0 0.1c0 0 0.1 0 0.1 0 0 0 0 0.1 0 0.1q0.1 0 0.1 0 0 0 0.1 0 0 0 0 0.1 0 0 0.1 0l4.4 1.1q0.3 0.1 0.5-0.1 0.3-0.1 0.4-0.4c0.1-0.4-0.2-0.8-0.6-0.9zm3-8.5c-0.1-0.3-0.4-0.5-0.7-0.5-0.4 0.1-0.6 0.4-0.6 0.7l1 7.1c0.1 0.4 0.4 0.6 0.7 0.6q0.2 0 0.3-0.1c0.2-0.1 0.3-0.4 0.3-0.6zm6.5 0q0 0 0 0-0.1 0-0.1-0.1c0-0.1 0-0.1 0-0.1q0 0 0-0.1-0.1 0-0.1 0v-0.1q0 0 0 0l-0.1-0.1q0 0 0 0-0.1 0-0.1-0.1 0 0-0.1 0 0 0-0.1 0l-4.4-1.1c-0.4-0.1-0.8 0.1-0.9 0.5-0.1 0.4 0.2 0.8 0.6 0.9l3.7 0.9-0.9 3.7c-0.1 0.4 0.1 0.8 0.5 0.9q0.3 0.1 0.5-0.1 0.3-0.1 0.4-0.4l1-4.4c0.1-0.1 0.1-0.1 0.1-0.1q0-0.1 0-0.1c0 0 0 0 0-0.1zm44.6 38.4l-3.7-1 0.9-3.7c0.1-0.4-0.1-0.8-0.5-0.9-0.4-0.1-0.8 0.2-0.9 0.6l-1.1 4.4q0 0.1 0 0.1 0 0 0 0v0.1c0 0.1 0 0.1 0 0.1q0 0 0 0.1 0 0 0 0 0 0.1 0.1 0.1c0 0 0 0 0 0q0 0.1 0 0.1 0.1 0 0.1 0.1c0 0 0 0 0 0q0 0 0.1 0 0 0.1 0 0.1 0.1 0 0.1 0 0 0 0.1 0 0 0.1 0 0.1l4.5 1.1c0.1 0 0.3 0 0.5-0.1q0.2-0.1 0.3-0.4c0.1-0.4-0.1-0.8-0.5-0.9zm2.9-8.5c0-0.3-0.3-0.6-0.7-0.5-0.3 0-0.6 0.3-0.5 0.7l1 7.1c0 0.4 0.4 0.6 0.7 0.5 0.1 0 0.2 0 0.2 0 0.2-0.2 0.4-0.4 0.3-0.6zm6.5 0q0 0 0 0 0-0.1 0-0.1 0 0 0 0 0-0.1 0-0.1c-0.1 0-0.1-0.1-0.1-0.1q0 0 0 0 0-0.1 0-0.1c-0.1 0-0.1 0-0.1 0q0 0-0.1-0.1 0 0 0 0 0 0-0.1-0.1-0.1 0-0.1 0l-4.4-1.1c-0.4-0.1-0.8 0.1-0.9 0.5-0.1 0.4 0.1 0.8 0.5 0.9l3.7 0.9-0.9 3.7c-0.1 0.4 0.1 0.8 0.5 0.9q0.3 0.1 0.6-0.1c0.1-0.1 0.3-0.2 0.3-0.4l1.1-4.4q0-0.1 0-0.1 0-0.1 0-0.1c0 0 0-0.1 0-0.1zm-23.4-119.4c-0.1-0.3-0.5-0.5-0.9-0.4l-4.3 1.4q-0.1 0-0.1 0.1 0 0 0 0c-0.1 0-0.1 0-0.1 0.1q-0.1 0-0.1 0 0 0 0 0c0 0.1-0.1 0.1-0.1 0.1q0 0 0 0 0 0.1 0 0.1 0 0-0.1 0.1 0 0 0 0 0 0 0 0.1 0 0 0 0.1 0 0 0 0c0 0.1 0 0.1 0 0.1q0 0 0 0.1 0 0 0 0l1.4 4.4q0.1 0.3 0.4 0.4 0.3 0.1 0.6 0c0.3-0.1 0.5-0.5 0.4-0.9l-1.2-3.6 3.7-1.2c0.3-0.2 0.5-0.6 0.4-1zm5.1 2.7q-0.1 0-0.1 0.1l-5.5 4.7c-0.2 0.2-0.3 0.6 0 0.8 0 0.1 0.1 0.1 0.2 0.2 0.2 0.1 0.5 0.1 0.7-0.1l5.4-4.7q0.1 0 0.1 0-0.4-0.5-0.8-1zm1.8 2.2l1 3.3-3.6 1.2c-0.4 0.2-0.6 0.6-0.5 0.9q0.1 0.3 0.4 0.5c0.2 0 0.4 0.1 0.6 0l4.3-1.5q0 0 0.1 0 0 0 0 0 0.1 0 0.1-0.1 0 0 0 0 0 0 0.1-0.1c0 0 0 0 0 0q0 0 0.1-0.1 0 0 0 0 0 0 0-0.1 0 0 0 0v-0.1c0 0 0.1 0 0.1-0.1v-0.2q-1.4-1.8-2.7-3.6zm-21.8 60.9c-0.2-0.3-0.6-0.5-0.9-0.4l-4.4 1.4q0 0.1-0.1 0.1 0 0 0 0 0 0-0.1 0.1 0 0 0 0c0 0 0 0-0.1 0.1q0 0 0 0 0 0 0 0.1c-0.1 0-0.1 0-0.1 0q0 0 0 0.1 0 0 0 0 0 0 0 0.1-0.1 0-0.1 0.1 0 0 0.1 0-0.1 0.1-0.1 0.1 0 0 0.1 0.1 0 0 0 0l1.4 4.4q0.1 0.3 0.4 0.4 0.2 0.1 0.5 0c0.4-0.1 0.6-0.5 0.5-0.9l-1.2-3.6 3.6-1.2c0.4-0.2 0.6-0.6 0.5-1zm5.9 2.9c-0.3-0.3-0.7-0.3-0.9-0.1l-5.5 4.7c-0.3 0.2-0.3 0.6-0.1 0.8 0.1 0.1 0.2 0.2 0.2 0.2 0.2 0.1 0.5 0.1 0.7-0.1l5.5-4.7c0.2-0.2 0.3-0.6 0.1-0.8zm3.6 5.7q0 0 0 0 0-0.1 0-0.1l-1.4-4.4c-0.2-0.4-0.6-0.6-0.9-0.4-0.4 0.1-0.6 0.5-0.5 0.9l1.2 3.6-3.6 1.2c-0.4 0.2-0.6 0.6-0.5 1q0.1 0.2 0.4 0.4c0.1 0 0.3 0.1 0.5 0l4.3-1.4q0.1-0.1 0.1-0.1 0.1 0 0.1-0.1 0.1 0 0.1 0 0 0 0-0.1 0.1 0 0.1 0 0 0 0-0.1 0 0 0 0 0 0 0.1-0.1 0 0 0 0 0-0.1 0-0.1 0 0 0-0.1c0 0 0 0 0 0 0 0 0-0.1 0-0.1zm42.1 23.8c-0.1-0.4-0.5-0.6-0.9-0.5l-4.3 1.5q-0.1 0-0.1 0c0 0 0 0 0 0q-0.1 0.1-0.1 0.1 0 0 0 0l-0.1 0.1q0 0 0 0-0.1 0.1-0.1 0.1 0 0 0 0 0 0.1 0 0.1-0.1 0-0.1 0.1c0 0 0 0 0 0 0 0.1 0 0.1 0 0.1q0 0 0 0.1v0.1q0 0 0.1 0.1l1.4 4.3q0.1 0.3 0.3 0.5 0.3 0.1 0.6 0c0.4-0.1 0.6-0.5 0.4-0.9l-1.2-3.7 3.7-1.2c0.4-0.1 0.6-0.5 0.4-0.9zm5.9 2.8c-0.2-0.3-0.6-0.3-0.9-0.1l-5.4 4.7c-0.3 0.2-0.3 0.6-0.1 0.9q0.1 0.1 0.2 0.1c0.2 0.1 0.5 0.1 0.7 0l5.5-4.7c0.2-0.2 0.3-0.6 0-0.9zm3.6 5.6l-1.4-4.3c-0.1-0.4-0.5-0.6-0.9-0.5-0.4 0.1-0.6 0.5-0.4 0.9l1.2 3.7-3.7 1.2c-0.4 0.1-0.6 0.5-0.4 0.9q0.1 0.3 0.3 0.4c0.2 0.1 0.4 0.1 0.6 0.1l4.3-1.5q0.1 0 0.1 0 0 0 0 0 0.1-0.1 0.1-0.1 0 0 0 0c0.1 0 0.1-0.1 0.1-0.1q0 0 0 0 0.1-0.1 0.1-0.1 0 0 0-0.1 0.1 0 0.1-0.1c0 0 0 0 0 0q0-0.1 0-0.1 0 0 0 0v-0.2q0 0-0.1-0.1zm-61.8-74.7l2.7-2.7c0.2-0.3 0.2-0.7 0-1-0.3-0.3-0.8-0.3-1.1 0l-3.2 3.2q0 0.1 0 0.1-0.1 0-0.1 0v0.2q0 0 0 0 0 0 0 0.1c0 0-0.1 0-0.1 0v0.3c0 0 0.1 0 0.1 0.1 0 0 0 0 0 0q0 0.1 0 0.1 0 0 0 0.1 0 0 0.1 0 0 0 0 0l3.2 3.3q0.3 0.2 0.6 0.2 0.2 0 0.5-0.2c0.2-0.3 0.2-0.7 0-1zm9.2-3.9c-0.3-0.1-0.7 0-0.8 0.3l-2.8 6.7c-0.2 0.3 0 0.7 0.3 0.8q0.1 0 0.2 0c0.3 0 0.5-0.1 0.6-0.3l2.8-6.7c0.1-0.3 0-0.7-0.3-0.8zm5.9 3.7q0 0 0-0.1 0 0 0 0-0.1 0-0.1-0.1 0 0 0 0 0-0.1-0.1-0.1l-3.2-3.3c-0.3-0.2-0.7-0.2-1 0-0.3 0.3-0.3 0.8 0 1.1l2.7 2.7-2.7 2.7c-0.3 0.3-0.3 0.8 0 1q0.2 0.2 0.5 0.2c0.2 0 0.4 0 0.5-0.2l3.2-3.2q0.1 0 0.1-0.1 0 0 0 0 0-0.1 0.1-0.1 0 0 0 0 0-0.1 0-0.1 0-0.1 0-0.1v-0.1q0 0 0 0v-0.1q0-0.1 0-0.1zm16.5 46.5l2.7-2.7c0.3-0.3 0.3-0.7 0-1-0.3-0.3-0.7-0.3-1 0l-3.2 3.2q-0.1 0.1-0.1 0.1 0 0 0 0 0 0.1-0.1 0.2 0 0 0 0 0 0 0 0.1c0 0 0 0 0 0v0.1q0 0.1 0 0.1v0.1q0 0 0 0.1 0 0 0 0 0 0.1 0.1 0.1 0 0 0 0.1 0 0 0 0 0 0 0.1 0l3.2 3.3q0.2 0.2 0.5 0.2 0.3 0 0.5-0.2c0.3-0.3 0.3-0.7 0-1zm9.2-3.9c-0.3-0.2-0.7 0-0.8 0.3l-2.8 6.7c-0.1 0.3 0 0.6 0.3 0.8q0.2 0 0.3 0c0.2 0 0.5-0.1 0.6-0.4l2.7-6.6c0.2-0.3 0-0.7-0.3-0.8zm6 3.7q-0.1-0.1-0.1-0.1 0 0 0 0 0-0.1 0-0.1 0-0.1-0.1-0.1 0 0 0 0l-3.2-3.3c-0.3-0.3-0.8-0.3-1.1 0-0.2 0.3-0.2 0.8 0 1l2.7 2.8-2.7 2.7c-0.2 0.3-0.2 0.7 0 1q0.3 0.2 0.6 0.2c0.1 0 0.3 0 0.5-0.2l3.2-3.2q0-0.1 0-0.1 0.1 0 0.1 0 0-0.1 0-0.1 0 0 0-0.1 0 0 0.1-0.1 0 0 0 0v-0.1q0 0 0 0v-0.2q0 0 0 0zm-66.7 45.3l2.7-2.7c0.3-0.3 0.3-0.7 0-1-0.3-0.3-0.7-0.3-1 0l-3.2 3.2q-0.1 0.1-0.1 0.1 0 0 0 0-0.1 0.1-0.1 0.1 0 0 0 0 0 0.1 0 0.1 0 0 0 0.1v0.1q0 0.1 0 0.1v0.1c0 0 0 0 0 0q0 0.1 0 0.1 0 0 0 0 0.1 0.1 0.1 0.1 0 0 0 0 0 0.1 0.1 0.1l3.2 3.3q0.2 0.2 0.5 0.2 0.3 0 0.5-0.2c0.3-0.3 0.3-0.8 0-1.1zm9.2-3.8c-0.3-0.2-0.7 0-0.8 0.3l-2.8 6.6c-0.1 0.3 0 0.7 0.3 0.8 0.1 0.1 0.2 0.1 0.3 0.1 0.2 0 0.4-0.1 0.6-0.4l2.7-6.6c0.2-0.3 0-0.7-0.3-0.8zm6 3.8v-0.1q0 0 0 0-0.1-0.1-0.1-0.1 0 0 0-0.1 0 0 0-0.1 0 0-0.1 0 0 0 0-0.1l-3.2-3.2c-0.3-0.3-0.8-0.3-1.1 0-0.2 0.3-0.2 0.7 0 1l2.7 2.7-2.7 2.8c-0.2 0.3-0.2 0.7 0 1q0.3 0.2 0.5 0.2 0.3 0 0.6-0.2l3.2-3.3q0 0 0 0 0.1-0.1 0.1-0.1 0 0 0-0.1 0 0 0 0 0 0 0.1-0.1 0 0 0 0v-0.1c0 0 0-0.1 0-0.1q0 0 0 0zm67.5 8.4c-0.2-0.2-0.7-0.2-1 0l-3.2 3.3q-0.1 0-0.1 0c0 0 0 0.1 0 0.1q0 0 0 0.1-0.1 0-0.1 0 0 0.1 0 0.1 0 0 0 0v0.1c0 0 0 0.1 0 0.1q0 0 0 0v0.1c0 0 0 0 0 0.1q0 0 0 0 0 0.1 0.1 0.1 0 0 0 0.1 0 0 0 0 0.1 0.1 0.1 0.1l0.5 0.5q1 0 2-0.1l-1-0.9 2.7-2.8c0.3-0.2 0.3-0.7 0-1zm6.6-0.1c-0.4-0.1-0.7 0-0.9 0.3l-1.8 4.4q0.7 0 1.3-0.1l1.7-3.8c0.1-0.3 0-0.7-0.3-0.8zm5.9 3.7q0-0.1 0-0.1-0.1 0-0.1 0 0-0.1 0-0.1v-0.1q-0.1 0-0.1 0l-0.1-0.1-3.1-3.2c-0.3-0.2-0.8-0.2-1 0-0.3 0.3-0.3 0.8 0 1l2.7 2.8-0.6 0.6c1.3-0.1 2.1-0.1 2.1-0.1q0-0.1 0.1-0.1 0-0.1 0-0.1 0 0 0.1-0.1 0 0 0-0.1 0 0 0 0v-0.1q0-0.1 0-0.1v-0.1q0 0 0 0zm-94.3-76.6c0-0.4-0.4-0.6-0.8-0.5l-3.8 0.8-0.8-3.7c-0.1-0.4-0.5-0.7-0.9-0.6-0.4 0.1-0.6 0.5-0.5 0.9l1 4.4q0 0.1 0 0.1 0 0.1 0 0.1 0 0 0.1 0.1 0 0 0 0 0 0 0.1 0 0 0.1 0 0.1 0 0 0.1 0 0 0 0 0.1c0 0 0 0 0.1 0q0 0 0 0 0 0 0.1 0.1 0-0.1 0.1 0 0 0 0 0 0 0 0.1 0 0.1 0 0.1 0l4.5-1q0.3-0.1 0.4-0.3 0.2-0.3 0.1-0.6zm2.1-3.5l-4.1-5.9c-0.2-0.3-0.6-0.4-0.9-0.2-0.3 0.2-0.4 0.6-0.2 0.9l4.1 5.9c0.2 0.3 0.6 0.4 0.9 0.2q0.1-0.1 0.2-0.2c0.1-0.2 0.1-0.5 0-0.7zm2.8-4.1l-1-4.5q0 0 0-0.1-0.1 0-0.1-0.1c0 0 0 0 0 0q-0.1 0-0.1-0.1 0 0 0 0 0 0-0.1-0.1 0 0 0 0 0 0-0.1 0v-0.1q-0.1 0-0.1 0 0 0-0.1 0 0 0 0 0-0.1 0-0.1 0-0.1 0-0.2 0l-4.4 1c-0.4 0.1-0.6 0.5-0.6 0.8 0.1 0.4 0.5 0.7 0.9 0.6l3.7-0.8 0.9 3.7c0.1 0.4 0.5 0.6 0.9 0.6q0.3-0.1 0.4-0.4c0.1-0.1 0.2-0.3 0.1-0.5zm28.5 57l-3.8 0.8-0.8-3.7c-0.1-0.4-0.5-0.7-0.9-0.6-0.4 0.1-0.6 0.5-0.5 0.9l1 4.4q0 0.1 0 0.1 0 0 0 0 0.1 0.1 0.1 0.2 0 0 0 0 0 0 0.1 0c0 0 0 0.1 0 0.1q0 0 0.1 0 0 0.1 0 0.1c0 0 0 0 0.1 0q0 0 0 0 0 0 0.1 0.1 0-0.1 0.1 0 0 0 0 0 0.1 0 0.1 0 0 0 0.1 0 0 0 0 0l4.5-1q0.3-0.1 0.5-0.3 0.1-0.3 0.1-0.6c-0.1-0.4-0.5-0.6-0.9-0.5zm2.9-3l-4.1-5.9c-0.2-0.3-0.6-0.4-0.9-0.2-0.3 0.2-0.3 0.6-0.2 0.9l4.2 5.9c0.1 0.3 0.5 0.4 0.8 0.2q0.1-0.1 0.2-0.2c0.1-0.2 0.1-0.5 0-0.7zm2.8-4.1l-1-4.5q0 0 0-0.1 0 0 0 0-0.1 0-0.1-0.1 0 0 0 0 0 0-0.1-0.1 0 0 0 0l-0.1-0.1q0 0 0 0 0 0-0.1 0 0 0 0-0.1-0.1 0-0.1 0c0 0 0 0-0.1 0q0 0 0 0h-0.1q0 0 0 0c-0.1 0-0.1 0-0.1 0l-4.5 1c-0.4 0.1-0.6 0.4-0.6 0.8 0.1 0.4 0.5 0.7 0.9 0.6l3.8-0.8 0.8 3.7c0.1 0.4 0.5 0.6 0.9 0.5q0.3 0 0.4-0.3c0.1-0.1 0.2-0.3 0.1-0.5zm-60 33.7l-1.8-2.6q0 1.1-0.1 2l0.9 1.3c0.2 0.2 0.6 0.3 0.9 0.1q0.1-0.1 0.1-0.2c0.2-0.2 0.2-0.4 0-0.6zm2.9-4.2l-1-4.4q-0.1-0.1-0.1-0.1v-0.1q0 0 0-0.1 0 0 0 0-0.1 0-0.1-0.1 0 0 0 0-0.1 0-0.1 0c0 0 0-0.1-0.1-0.1q0 0-0.1 0c0-0.1 0 0 0-0.1-0.1 0-0.1 0-0.1 0q0 0 0 0h-0.2q0 0-0.1 0l-2.3 0.5q-0.1 0.8-0.2 1.5l2.1-0.4 0.9 3.7c0.1 0.4 0.4 0.7 0.8 0.6q0.3-0.1 0.5-0.3c0.1-0.2 0.1-0.4 0.1-0.6z"/>
					</g>
					<g id="&lt;Group&gt;">
						<path id="&lt;Path&gt;" class="s17" d="m1192 515.7c-4.7 3.9-13.2-8.4-13.2-8.4 0 0 0.5 4.1-1.9 7.3-2.7 3.7-9.7 1-9.7 1 0 0-0.3 4.3-3.2 7.5-3 3.3-10.4 1.6-10.4 1.6 0 0-2.5 3.8-6.9 4.8-7.6 1.6-15.8-6.9-21.1-12.3-5.3-5.4-15.3-25.5-17.6-29.2l34.2-34.2c0 0 30.5 17.3 35.8 24.5 4.5 6 21.1 31.5 14 37.4z"/>
						<g id="&lt;Group&gt;">
							<path id="&lt;Path&gt;" class="s2" d="m1178.8 507c-3.2-7.5-8.2-14.3-13.1-20.8-0.1-0.2-0.4 0-0.3 0.1 5 6.4 8.4 14.3 13.1 20.9 0.1 0.2 0.4 0.1 0.3-0.2z"/>
							<path id="&lt;Path&gt;" class="s2" d="m1167.5 515.1c-0.7-1.7-2.1-3.1-3.3-4.6q-1.9-2.3-3.9-4.5-4-4.4-8.2-8.7c-0.1-0.1-0.3 0.1-0.2 0.2q4 4.4 7.8 9 1.9 2.3 3.7 4.7c1.2 1.4 2.3 3 3.7 4.2 0.2 0.2 0.6-0.1 0.4-0.3z"/>
							<path id="&lt;Path&gt;" class="s2" d="m1153.5 524.5c-0.6-1.5-2.1-2.7-3.2-3.9q-1.9-2-3.7-4c-2.4-2.7-4.9-5.4-7.3-8.1-0.1-0.2-0.3 0-0.2 0.2 2.4 2.8 4.7 5.6 7.1 8.4q1.8 2.1 3.6 4.1c1 1.2 2.2 2.8 3.6 3.5 0 0 0.1-0.1 0.1-0.2z"/>
						</g>
					</g>
					<g id="&lt;Group&gt;">
						<g id="&lt;Group&gt;">
							<path id="&lt;Path&gt;" class="s17" d="m1224 368.3c55.7 28 107.3 71.5 106.1 88.4-1.2 17.9-31.6 43.2-60.9 52.5-5.9 1.9-33-39.7-27.1-42.9 4.6-2.4 25.7-12.8 27.8-16.3 1.5-2.5-41.8-44.8-57.6-68.1-16.5-24.4-3.2-21.1 11.7-13.6z"/>
							<g id="&lt;Group&gt;">
								<g id="&lt;Group&gt;">
									<path id="&lt;Path&gt;" class="s17" d="m1254.5 462.7c0 0-18.4 5.3-30.2 9.3-6.6 2.2-17.6 7-21.7 10.9-6.2 5.8-28.2 33.8-21.5 39.3 6.1 5 12-5.7 12-5.7 0 0-7.6 11 0 14.1 7.6 3.1 13.9-11.5 13.9-11.5 0 0-8.8 11.2-0.5 13.7 7.2 2.2 16.3-13.9 16.3-13.9 0 0-10.5 10.7-3.3 13.7 8 3.3 24.6-19 24.6-19 16.4-1.1 26-4 36.7-9.2 2-1-26.3-41.7-26.3-41.7z"/>
								</g>
								<g id="&lt;Group&gt;">
									<path id="&lt;Path&gt;" class="s2" d="m1204.7 522.8q0.8-1.7 1.7-3.4c1-2.2 2.1-4.4 3.4-6.4q2-3 4.1-5.8c1.5-2.1 3.2-3.9 4.7-5.9 0.1-0.2 0.4 0 0.2 0.1-1.5 1.9-2.7 4.2-4 6.3q-1.9 3.1-3.8 6.2c-1.2 2-2.5 4-3.8 6q-1 1.5-1.8 3c-0.6 1-1.1 2-1.8 2.9-0.1 0.1-0.2 0-0.2-0.1 0.3-1 0.9-2 1.3-2.9z"/>
									<path id="&lt;Path&gt;" class="s2" d="m1191.5 518.8c0.6-2 5-10 6.2-12 2.4-3.8 5.1-7.5 8.3-10.8 0.1-0.1 0.3 0.1 0.2 0.2-2.4 3.8-4.8 7.7-7.3 11.5-1.2 1.9-6.3 10.5-6.9 11.4-0.2 0.2-0.5 0-0.5-0.3z"/>
									<path id="&lt;Path&gt;" class="s2" d="m1217 526.8c0.6-2 4.8-9.5 6-11.3 1.1-1.7 6.7-8.2 8.6-9.8 0.1-0.1 0.3 0.1 0.2 0.2-2.6 3.5-5.3 6.9-7.7 10.5-1.2 1.7-5.5 9-6.8 10.5-0.1 0.2-0.4 0-0.3-0.1z"/>
								</g>
							</g>
						</g>
						<g id="&lt;Group&gt;">
							<path id="&lt;Path&gt;" class="s4" d="m1286.7 403.9l-33 30.9c0 0-35.4-37.9-46.2-56.9-10.9-19-2.5-20.5 19.7-9.4 22.3 11.2 59.5 35.4 59.5 35.4z"/>
							<path id="&lt;Compound Path&gt;" class="s18" d="m1238.5 413.5q0-0.1 0-0.1c0-0.1 0-0.1 0-0.1q-0.1 0-0.1-0.1c0 0 0 0 0 0q-0.1-0.1-0.1-0.1 0 0 0 0c-0.1-0.1-0.1-0.1-0.1-0.1q0 0 0 0-0.1-0.1-0.1-0.1 0 0 0 0-0.1 0-0.1 0l-4.5-1.2q-0.2 0-0.3 0 0.7 0.9 1.5 1.8l2.2 0.6-0.4 1.5q0.6 0.7 1.2 1.4l0.8-3.3q0 0 0-0.1v-0.1c0 0 0 0 0 0zm-22.7-46.3c-0.1-0.4-0.5-0.6-0.9-0.5l-4.3 1.5q-0.1 0-0.1 0-0.1 0-0.1 0c0 0 0 0.1-0.1 0.1q0 0 0 0 0 0 0 0.1c0 0-0.1 0-0.1 0q0 0 0 0.1 0 0-0.1 0 0 0.1 0 0.1 0 0 0 0.1 0 0 0 0 0 0 0 0.1-0.1 0 0 0c0 0.1 0 0.1 0 0.1q0 0 0 0.1 0 0 0 0.1l1.4 4.3q0.1 0.3 0.4 0.4 0.2 0.1 0.5 0.1c0.4-0.2 0.6-0.6 0.5-1l-1.2-3.6 3.6-1.2c0.4-0.2 0.6-0.6 0.5-0.9zm5.9 2.8c-0.2-0.3-0.6-0.3-0.9-0.1l-5.5 4.7c-0.2 0.2-0.3 0.6 0 0.9 0 0 0.1 0.1 0.1 0.1 0.3 0.1 0.5 0.1 0.7-0.1l5.5-4.7c0.3-0.2 0.3-0.6 0.1-0.8zm3.6 5.6l-1.4-4.4c-0.1-0.3-0.6-0.6-0.9-0.4-0.4 0.1-0.6 0.5-0.5 0.9l1.2 3.6-3.6 1.3c-0.4 0.1-0.6 0.5-0.5 0.9q0.1 0.3 0.4 0.4c0.1 0.1 0.4 0.1 0.5 0l4.4-1.4q0 0 0.1-0.1 0 0 0 0 0 0 0.1 0 0-0.1 0-0.1 0 0 0.1 0c0-0.1 0 0 0-0.1q0 0 0 0 0-0.1 0.1-0.1 0 0 0 0 0-0.1 0-0.1c0-0.1 0-0.1 0-0.2v-0.1q0-0.1 0-0.1zm40.9 32.2c-0.1-0.4-0.5-0.6-0.9-0.5l-4.3 1.5q-0.1 0-0.1 0-0.1 0-0.1 0.1h-0.1q0 0 0 0.1c0 0-0.1 0-0.1 0q0 0 0 0.1 0 0 0 0 0 0.1-0.1 0.1 0 0 0 0 0 0.1 0 0.1v0.1q0 0 0 0 0 0.1 0 0.1 0 0 0 0.1 0 0 0 0.1l1.4 4.3q0.1 0.3 0.4 0.4 0.3 0.1 0.6 0c0.3-0.1 0.5-0.5 0.4-0.9l-1.2-3.6 3.7-1.2c0.3-0.2 0.5-0.6 0.4-0.9zm5.9 2.8c-0.2-0.3-0.6-0.3-0.9-0.1l-5.5 4.7c-0.2 0.2-0.3 0.6 0 0.8 0 0.1 0.1 0.2 0.2 0.2 0.2 0.1 0.5 0.1 0.7-0.1l5.4-4.7c0.3-0.2 0.3-0.6 0.1-0.8zm2.2 1.2c-0.1-0.3-0.5-0.6-0.9-0.4-0.4 0.1-0.6 0.5-0.5 0.9l1.2 3.4 1.1-1zm-4.2 6.2q0.1 0.3 0.3 0.4 0.3 0.1 0.6 0.1l0.2-0.1 2.6-2.4-3.3 1.1c-0.4 0.1-0.6 0.5-0.4 0.9zm-22.3-22.1c-0.1-0.4-0.5-0.6-0.9-0.5l-3.7 0.8-0.8-3.8c-0.1-0.3-0.5-0.6-0.9-0.5-0.4 0.1-0.6 0.5-0.6 0.9l1.1 4.4q0 0.1 0 0.1 0 0 0 0 0 0.1 0.1 0.1v0.1c0 0 0 0 0 0q0 0 0.1 0.1 0 0 0 0c0 0 0.1 0.1 0.1 0.1 0 0 0 0 0 0q0 0 0.1 0c0 0 0 0 0.1 0q0 0.1 0 0.1h0.1q0 0 0.1 0 0 0 0 0 0.1 0 0.1-0.1l4.5-0.9q0.3-0.1 0.4-0.3 0.2-0.3 0.1-0.6zm2-3.5l-4.1-5.9c-0.2-0.3-0.6-0.4-0.8-0.2-0.3 0.2-0.4 0.6-0.2 0.9l4.1 5.9c0.2 0.3 0.6 0.4 0.9 0.2q0.1-0.1 0.1-0.2c0.2-0.2 0.2-0.5 0-0.7zm2.9-4.1l-1-4.5q-0.1 0-0.1-0.1 0-0.1 0-0.1 0 0 0 0-0.1 0-0.1-0.1 0 0 0 0-0.1-0.1-0.1-0.1c0 0 0 0-0.1 0q0-0.1-0.1-0.1 0 0 0 0c-0.1 0-0.1 0-0.1 0q0 0 0 0c-0.1 0-0.1 0-0.2 0q0 0-0.1 0l-4.4 0.9c-0.4 0.1-0.7 0.5-0.6 0.9 0.1 0.4 0.5 0.7 0.9 0.6l3.7-0.9 0.9 3.8c0.1 0.4 0.4 0.6 0.8 0.5q0.3 0 0.5-0.3c0.1-0.1 0.1-0.3 0.1-0.5z"/>
							<path id="&lt;Path&gt;" class="s2" d="m1277.3 400.1c-12.2 13.9-24.9 24.1-27.3 26.5-0.2 0.2-0.3 0-0.2-0.1 2.5-2.3 15.7-16.2 27.3-26.6 0.1-0.1 0.3 0.1 0.2 0.2z"/>
							<path id="&lt;Path&gt;" class="s2" d="m1255.8 432.7c-0.2 0.1-1.7 1.4-2 1.6-5.5-6.4-4.4-4.9-9.9-11.2q-4-4.7-8.1-9.4c-2.8-3.2-5.4-6.7-8.4-9.8-0.1-0.1-0.2 0-0.1 0.1 2 3.3 4.5 6.3 6.9 9.3-0.5-0.5-0.9-0.9-1.4-1.3-1.2-1-2.3-1.9-3.3-2.9-0.2-0.2-0.4 0-0.3 0.2 1 1 1.9 2 2.9 3 0.9 1.1 1.9 2.1 2.8 3 1 1 2 1.8 3 2.7q0.2 0.2 0.4 0.3c1.5 1.9 3 3.8 4.5 5.7 5.5 6.4 10.7 11.3 10.8 11.2 0.5-0.3 2.2-2.1 2.4-2.3 0.1-0.1-0.1-0.2-0.2-0.2z"/>
						</g>
					</g>
					<g id="&lt;Group&gt;">
						<g id="&lt;Group&gt;">
							<g id="&lt;Group&gt;">
								<path id="&lt;Path&gt;" class="s17" d="m1193.6 385.6c4.9-0.7 13.4-11.5 16-19.9 0.2-0.5-1.7-5.8-3.6-12.3-1.2-4-2.5-8.4-3.3-12.5l-24.6 11.4c0 0 4.3 8.2 5.7 15.4q0.1 0.9 0.1 1.7 0 0.1 0 0.3c0.2 3.3 2 16.8 9.7 15.9z"/>
							</g>
							<path id="&lt;Path&gt;" class="s2" d="m1183.9 369.4q0 0.1 0 0.3 1.3-0.1 2.7-0.4c15-3.3 15-22.5 14.7-27.8l-23.2 10.8c0 0 4.3 8.2 5.7 15.4q0.1 0.9 0.1 1.7z"/>
						</g>
						<g id="&lt;Group&gt;">
							<g id="&lt;Group&gt;">
								<path id="&lt;Path&gt;" class="s17" d="m1204.9 313.1c3.1 9.3-1.1 36.4-7.6 42.6-9.4 9-25.2 10.3-32.9-1.1-7.5-11-1.4-46.4 5.9-52 10.7-8.4 30-3.2 34.6 10.5z"/>
							</g>
							<g id="&lt;Group&gt;">
								<g id="&lt;Group&gt;">
									<path id="&lt;Path&gt;" class="s2" d="m1180.6 330.1c0-0.1 0.1 0.1 0.1 0.2-0.4 1.8-0.6 3.9 0.9 4.8 0.1 0.1 0 0.2 0 0.1-2-0.6-1.7-3.5-1-5.1z"/>
									<path id="&lt;Path&gt;" class="s2" d="m1182.6 328.5c2.9 0.4 2 6.3-0.7 5.9-2.7-0.3-1.8-6.2 0.7-5.9z"/>
								</g>
								<g id="&lt;Group&gt;">
									<path id="&lt;Path&gt;" class="s2" d="m1170.3 328.2c0-0.1-0.1 0-0.1 0.1-0.3 1.8-0.8 3.9-2.6 4.3 0 0 0 0.1 0 0.1 2.1 0 2.8-2.8 2.7-4.5z"/>
									<path id="&lt;Path&gt;" class="s2" d="m1169 326c-2.9-0.7-4.1 5.2-1.4 5.8 2.7 0.6 3.8-5.2 1.4-5.8z"/>
								</g>
								<path id="&lt;Path&gt;" class="s2" d="m1185.3 326.2c-0.8-0.4-1.4-0.8-2.2-1.2-0.8-0.4-1.5-0.7-1.9-1.6-0.3-0.5 0-1.2 0.4-1.5 1-0.6 2.2-0.3 3.2 0.2 1.1 0.5 1.8 1.2 2.3 2.4 0.5 1-0.8 2.1-1.8 1.7z"/>
								<path id="&lt;Path&gt;" class="s2" d="m1167.1 320.1c0.8 0 1.6-0.2 2.4-0.3 1-0.1 1.7 0 2.5-0.7 0.4-0.3 0.4-1.1 0.1-1.5-0.7-1-1.8-1.2-3-1.1-1.2 0.1-2.1 0.5-3 1.3-0.9 0.9-0.1 2.3 1 2.3z"/>
								<path id="&lt;Path&gt;" class="s2" d="m1179.6 347.5c-0.5 0.3-1 0.8-1.7 0.8-0.6 0-1.3-0.5-1.9-0.8 0 0-0.1 0.1-0.1 0.1 0.4 0.8 1.3 1.4 2.2 1.4 0.8-0.1 1.4-0.7 1.7-1.4 0-0.1-0.1-0.2-0.2-0.1z"/>
								<g id="&lt;Group&gt;">
									<g id="&lt;Group&gt;">
										<path id="&lt;Path&gt;" class="s2" d="m1178.5 341.7c-1.2 1.4-2.9 2-4.5 2.1q-1.2 0.1-2.3-0.2-0.2-0.1-0.4-0.1-0.2-0.1-0.4-0.2c-0.2 0-0.3-0.2-0.3-0.4q0-0.1 0-0.2 0 0 0 0l0.1-0.2c0.1-1.4 0.6-3.5 0.6-3.5-0.5 0.1-3.4 0.9-3.2 0.2 1.3-6.1 2.8-12.8 5.3-18.5 0.1-0.2 0.4-0.1 0.4 0.1-1.1 5.8-3.1 11.5-4.2 17.3 0.8-0.1 2.3-0.5 3-0.4 0.2 0.1-0.9 4.1-1 4.7q0 0 0 0.1c2.4 0.7 4.3 0.2 6.8-1 0.1-0.1 0.3 0.1 0.1 0.2z"/>
									</g>
								</g>
								<g id="&lt;Group&gt;">
									<path id="&lt;Path&gt;" class="s2" d="m1172.6 343c0 0 1 1.9 2.6 2.7 0.6 0.4 1.3 0.6 2 0.5 1.6-0.2 1.8-1.5 1.7-2.7-0.1-1-0.4-1.9-0.4-1.9 0 0-2.4 1.7-5.9 1.4z"/>
									<path id="&lt;Path&gt;" class="s19" d="m1175.2 345.7c0.6 0.4 1.3 0.6 2 0.5 1.6-0.2 1.8-1.5 1.7-2.7-1.6-0.1-3.3 0.7-3.7 2.2z"/>
								</g>
							</g>
							<g id="&lt;Group&gt;">
								<path id="&lt;Path&gt;" class="s2" d="m1203.8 337.7c0 0 9.9-16.2 9-25.6-0.5-4.3-6.2-7.1-6.2-7.1 0 0 1.7-5.2-3.1-9.7-5-4.7-17.1-3.6-17.1-3.6 0 0-7.9-11.4-19-6.9-11.2 4.5-3.9 17.1-3.9 17.1 0 0-4.1 5.8 5.9 10.4 9.7 4.4 29.6 0 29.6 0 0 0-1.6 10.2 0.3 20.6 0.7 3.9 4.5 4.8 4.5 4.8z"/>
								<path id="&lt;Path&gt;" class="s2" d="m1184.5 291.8c2.4-1.1 5.1-1.4 7.8-1.4 2.4 0 4.8 0.3 7.1 1.1 4 1.4 7.5 4.4 8.2 8.8 0.3 2.2-0.2 4.4-1.6 6.2 0 0-0.1-0.1-0.1-0.1 2.6-3.2 1.3-8.2-1.4-10.9-3-3-7.6-4.1-11.7-4.3-2.8-0.1-5.6 0.3-8.3 0.9-0.1 0-0.2-0.2 0-0.3z"/>
								<path id="&lt;Path&gt;" class="s2" d="m1159.4 290.2c0.9-3.2 3.6-5.2 6.6-6.1 3.4-1.1 7.2-0.9 10.6 0.4 3.4 1.2 6.3 3.5 8.6 6.4 0 0-0.1 0.1-0.1 0-4.2-4.9-10.8-7.7-17.2-6.4-2.9 0.6-5.8 2.1-7.2 4.9-1.2 2.5-0.9 5.8 0.3 8.3 1.5 3.1 4.3 5.4 7.1 7.1 0.1 0.1 0 0.2 0 0.2-2.8-1.5-5.4-3.5-7.2-6.1-1.6-2.6-2.4-5.8-1.5-8.7z"/>
							</g>
							<g id="&lt;Group&gt;">
								<path id="&lt;Compound Path&gt;" fill-rule="evenodd" class="s10" d="m1180.4 340.9c-4.2-1.5-6.5-6-5.1-10.2 1.4-4.2 6-6.5 10.2-5.1 4.2 1.4 6.5 6 5.1 10.2-1.2 3.5-4.7 5.7-8.3 5.5q-0.9-0.1-1.9-0.4zm-4.1-9.9c-1.2 3.6 0.8 7.6 4.4 8.8 3.7 1.3 7.6-0.7 8.8-4.4 1.3-3.6-0.7-7.6-4.3-8.8q-0.9-0.3-1.7-0.3c-3.1-0.3-6.1 1.6-7.2 4.7z"/>
								<path id="&lt;Compound Path&gt;" fill-rule="evenodd" class="s10" d="m1163.7 337.6c-3.2-0.7-5.2-4.7-4.3-9.1 0.4-2.1 1.3-3.9 2.7-5.2 1.4-1.3 3.1-1.9 4.7-1.5 1.6 0.3 2.9 1.4 3.7 3.2 0.8 1.6 1 3.7 0.6 5.8-0.8 4.1-3.8 7.1-6.9 6.8q-0.2 0-0.5 0zm-0.9-13.5c-1.2 1.1-2 2.8-2.4 4.6-0.7 3.8 0.8 7.3 3.5 7.8 2.7 0.5 5.4-2.1 6.2-5.9 0.3-1.9 0.1-3.7-0.6-5.2-0.6-1.4-1.7-2.3-2.9-2.6q-0.2 0-0.4 0c-1.2-0.1-2.3 0.3-3.4 1.3z"/>
								<path id="&lt;Path&gt;" class="s10" d="m1175.4 331.6l0.8-0.7c-1-1.2-3.5-3.1-5.8-1.4l0.6 0.9c2.1-1.5 4.3 1.1 4.4 1.2z"/>
								<path id="&lt;Path&gt;" class="s10" d="m1210.2 340.5l1-0.3c-0.1-0.5-1.4-4.7-3.7-5.6-2.1-0.8-16.5-2.2-17.2-2.2l-0.1 1c4.2 0.4 15.3 1.6 16.9 2.2 1.5 0.6 2.8 3.7 3.1 4.9z"/>
							</g>
							<g id="&lt;Group&gt;">
								<path id="&lt;Path&gt;" class="s17" d="m1199.7 335.3c0 0 6.1-8.8 10.1-6.7 3.9 2.2-0.6 14.9-5.2 16.7-4.7 1.7-6.4-2.5-6.4-2.5z"/>
								<path id="&lt;Path&gt;" class="s2" d="m1208.4 332.2c0 0 0.1 0.1 0 0.2-3.3 1.3-5 4.4-6.1 7.5 0.9-1.2 2.2-1.9 3.9-0.7 0.1 0 0 0.2-0.1 0.1-1.4-0.2-2.3 0-3.2 1.1-0.7 0.7-1.1 1.7-1.5 2.6-0.2 0.3-0.7 0.1-0.6-0.2q0-0.1 0-0.1c-0.1-4.2 3.1-10 7.6-10.5z"/>
							</g>
						</g>
						<path id="&lt;Path&gt;" class="s2" d="m1212.1 368.5c-2.4 4.5-4 8.5-6.7 12.2-2.6 3.4-5.8 6.7-10 7.9-4 1.1-8.2 1-10.7-3.7-1.9-3.7-2.5-7.9-2.7-13.1-0.1-0.2-0.4-0.2-0.4 0 0.4 6.7 1.3 17.1 7.6 18.2 7.2 1.3 13-3.3 16.8-8.8 2.6-3.7 4.3-7.9 6.2-12.6 0.1-0.1-0.1-0.1-0.1-0.1z"/>
					</g>
				</g>
				<g id="&lt;Group&gt;">
					<g id="&lt;Group&gt;">
						<g id="&lt;Group&gt;">
							<g id="&lt;Group&gt;">
								<path id="&lt;Path&gt;" class="s3" d="m1132.6 528.3v5.7h127.9v-5.7z"/>
							</g>
							<g id="&lt;Group&gt;">
								<path id="&lt;Path&gt;" class="s9" d="m1132.6 528.3v5.7h86.9l-4.3-5.7z"/>
							</g>
						</g>
						<g id="&lt;Group&gt;">
							<path id="&lt;Path&gt;" class="s3" d="m1209.6 534h-124.6l-10.4-84.6h124.7z"/>
							<path id="&lt;Path&gt;" class="s1" d="m1149.7 491.7c0.1 4.2-3.2 7.6-7.4 7.6-4.2 0-7.7-3.4-7.7-7.6-0.1-4.2 3.2-7.6 7.4-7.6 4.2 0 7.7 3.4 7.7 7.6z"/>
						</g>
					</g>
				</g>
			</g>
		</g>
	</g>
</svg>