<svg version="1.2" xmlns="http://www.w3.org/2000/svg" viewBox="0 0 1500 1000" width="1500" height="1000">
	<title>7502050-ai</title>
	<style>
		.s0 { fill: #ebebeb } 
		.s1 { fill: #dbdbdb } 
		.s2 { fill: none;stroke: #c7c7c7;stroke-miterlimit:10;stroke-width: 2 } 
		.s3 { fill: #c7c7c7 } 
		.s4 { fill:  #BA68C8 } 
		.s5 { fill: #263238 } 
		.s6 { fill: #455a64 } 
		.s7 { fill: #ffffff } 
		.s8 { fill: #37474f } 
		.s9 { fill: none;stroke: #dbdbdb;stroke-miterlimit:10;stroke-width: 2 } 
		.s10 { fill: none;stroke: #dbdbdb;stroke-miterlimit:10;stroke-width: 2;stroke-dasharray: 10.02162,10.02162 } 
		.s11 { fill: none;stroke: #dbdbdb;stroke-miterlimit:10;stroke-width: 2;stroke-dasharray: 9.4957,9.4957 } 
		.s12 { fill: none;stroke: #ffffff;stroke-miterlimit:10;stroke-width: 2;stroke-dasharray: 10 } 
		.s13 { fill: #000000 } 
		.s14 { fill: #eb9481 } 
		.s15 { opacity: .1;fill: #000000 } 
		.s16 { fill: #a6a6a6 } 
		.s17 { fill: #ff9abb } 
		.s18 { opacity: .1;fill: #020100 } 
		.s19 { fill: #f7a9a0 } 
	</style>
	<g id="Background Complete">
		<g id="&lt;Group&gt;">
			<g id="&lt;Group&gt;">
				<path id="&lt;Compound Path&gt;" fill-rule="evenodd" class="s0" d="m279.5 118c-2 3.2-1.9 7.2 0.1 10.4q0.8 1.3 1.5 2.7 0.7 1.3 1.4 2.7c1.6 3.4 4.9 5.7 8.6 5.8l12.8 0.4-1.3 41.7-12.8-0.4c-3.7-0.1-7.2 2-9 5.3q-1.5 2.7-3.2 5.2c-2.2 3.1-2.5 7.1-0.7 10.4l6 11.2-36.7 19.8-6.1-11.3c-1.7-3.3-5.2-5.2-9-5.2q-3.1 0.1-6.2-0.2c-3.7-0.3-7.3 1.4-9.3 4.6l-6.8 10.9-35.4-22 6.8-10.9c1.9-3.2 1.8-7.2-0.1-10.4q-0.8-1.3-1.5-2.6-0.8-1.4-1.4-2.8c-1.6-3.4-4.9-5.7-8.6-5.8l-12.8-0.4 1.2-41.7 12.8 0.4c3.8 0.2 7.2-1.9 9-5.2q1.5-2.7 3.3-5.3c2.1-3.1 2.4-7.1 0.7-10.4l-6.1-11.2 36.8-19.7 6 11.2c1.8 3.3 5.3 5.3 9 5.2q3.2-0.1 6.3 0.2c3.7 0.3 7.3-1.4 9.3-4.6l6.7-10.9 35.5 22zm-65.9 10.5c-16.6 8.9-22.9 29.6-13.9 46.3 8.9 16.6 29.6 22.8 46.2 13.9 16.6-8.9 22.9-29.6 14-46.2-8.9-16.7-29.6-22.9-46.3-14z"/>
				<path id="&lt;Compound Path&gt;" fill-rule="evenodd" class="s0" d="m1056.9 761.6c-1.9 3.2-1.8 7.2 0.1 10.4q0.8 1.3 1.5 2.7 0.8 1.4 1.4 2.7c1.6 3.4 4.9 5.7 8.6 5.8l12.8 0.4-1.3 41.7-12.8-0.4c-3.7-0.1-7.2 2-9 5.3q-1.4 2.7-3.2 5.3c-2.1 3-2.4 7-0.7 10.3l6.1 11.3-36.8 19.7-6-11.3c-1.8-3.3-5.3-5.2-9-5.2q-3.2 0.1-6.2-0.2c-3.8-0.3-7.4 1.4-9.4 4.6l-6.7 10.9-35.5-22 6.8-10.9c2-3.2 1.9-7.2-0.1-10.4q-0.8-1.3-1.5-2.6-0.7-1.4-1.4-2.8c-1.6-3.4-4.8-5.7-8.6-5.8l-12.8-0.4 1.3-41.7 12.7 0.4c3.8 0.2 7.2-1.9 9-5.2q1.5-2.7 3.3-5.3c2.2-3.1 2.5-7 0.7-10.3l-6-11.3 36.7-19.7 6.1 11.2c1.7 3.3 5.2 5.3 9 5.2q3.1-0.1 6.2 0.2c3.7 0.3 7.3-1.4 9.3-4.6l6.7-10.8 35.5 21.9zm-65.8 10.5c-16.7 8.9-22.9 29.6-14 46.3 8.9 16.6 29.6 22.8 46.3 13.9 16.6-8.9 22.8-29.6 13.9-46.2-8.9-16.7-29.6-22.9-46.2-14z"/>
				<path id="&lt;Compound Path&gt;" fill-rule="evenodd" class="s0" d="m174.1 288.7c-1.5 0.9-2.3 2.5-2.2 4.3q0 0.7 0 1.4 0 0.7 0 1.4c-0.1 1.8 0.7 3.4 2.2 4.3l5.2 2.9-9.7 16.8-5.1-3c-1.6-0.8-3.4-0.7-4.9 0.2q-1.2 0.8-2.5 1.5c-1.5 0.7-2.5 2.3-2.5 4v6h-19.4v-6c0-1.7-0.9-3.3-2.5-4q-1.3-0.7-2.5-1.5c-1.4-0.9-3.3-1-4.8-0.2l-5.2 3-9.6-16.8 5.1-2.9c1.5-0.9 2.4-2.6 2.3-4.3q-0.1-0.7-0.1-1.4 0-0.7 0.1-1.4c0.1-1.8-0.8-3.4-2.3-4.3l-5.1-3 9.6-16.7 5.2 2.9c1.5 0.9 3.3 0.8 4.8-0.1q1.2-0.8 2.5-1.5c1.6-0.8 2.5-2.3 2.5-4.1v-5.9h19.4v5.9c0 1.8 1 3.3 2.5 4.1q1.3 0.7 2.5 1.5c1.5 0.9 3.4 1 4.9 0.1l5.1-2.9 9.7 16.7zm-29.2-10.1c-8.8 0-15.9 7.1-15.9 15.8 0 8.8 7.1 15.9 15.9 15.9 8.7 0 15.8-7.1 15.8-15.9 0-8.7-7.1-15.8-15.8-15.8z"/>
				<path id="&lt;Compound Path&gt;" fill-rule="evenodd" class="s0" d="m1384.3 659.8c-1.5 0.8-2.4 2.5-2.3 4.2q0.1 0.7 0.1 1.5 0 0.7-0.1 1.4c-0.1 1.7 0.8 3.4 2.3 4.2l5.1 3-9.6 16.8-5.2-3c-1.5-0.9-3.4-0.8-4.8 0.2q-1.2 0.8-2.5 1.4c-1.6 0.8-2.5 2.4-2.5 4.1v5.9h-19.4v-5.9c0-1.7-1-3.3-2.5-4.1q-1.3-0.6-2.5-1.4c-1.5-1-3.3-1.1-4.9-0.2l-5.1 3-9.7-16.8 5.2-3c1.5-0.8 2.3-2.5 2.2-4.2q0-0.7 0-1.4 0-0.8 0-1.5c0.1-1.7-0.7-3.4-2.2-4.2l-5.2-3 9.7-16.8 5.1 3c1.5 0.9 3.4 0.8 4.9-0.2q1.2-0.8 2.5-1.4c1.5-0.8 2.5-2.4 2.5-4.1v-5.9h19.4v5.9c0 1.7 1 3.3 2.5 4.1q1.3 0.6 2.5 1.4c1.5 1 3.3 1.1 4.8 0.2l5.2-3 9.6 16.8zm-29.2-10.2c-8.7 0-15.8 7.1-15.8 15.9 0 8.7 7.1 15.8 15.8 15.8 8.8 0 15.9-7.1 15.9-15.8 0-8.8-7.1-15.9-15.9-15.9z"/>
			</g>
			<g id="&lt;Group&gt;">
				<g id="&lt;Group&gt;">
					<g id="&lt;Group&gt;">
						<path id="&lt;Path&gt;" class="s1" d="m232.9 783.3c-4.3 29.5-29.7 52.1-60.4 52.1-33.8 0-61.2-27.3-61.2-61.1 0-33.8 27.4-61.1 61.2-61.1v61.1z"/>
						<path id="&lt;Path&gt;" class="s0" d="m246.1 761.9q0 4.5-0.7 8.9l-60.5-8.9v-61.2c22.7 0 42.5 12.4 53.1 30.8 5.1 8.9 8.1 19.3 8.1 30.4z"/>
					</g>
				</g>
				<g id="&lt;Group&gt;">
					<path id="&lt;Path&gt;" class="s2" d="m203.5 808.1h65"/>
					<path id="&lt;Path&gt;" class="s2" d="m273.1 812.7c-2.6 0-4.6-2-4.6-4.6 0-2.5 2-4.5 4.6-4.5 2.5 0 4.5 2 4.5 4.5 0 2.6-2 4.6-4.5 4.6z"/>
					<path id="&lt;Path&gt;" class="s3" d="m340.1 807h-50.5v-2.3h50.5z"/>
					<path id="&lt;Path&gt;" class="s3" d="m318.2 811.6h-28.6v-2.3h28.6z"/>
				</g>
			</g>
			<g id="&lt;Group&gt;">
				<g id="&lt;Group&gt;">
					<path id="&lt;Path&gt;" class="s0" d="m1194 255.6h-19.9v-141.6h19.9z"/>
				</g>
				<g id="&lt;Group&gt;">
					<path id="&lt;Path&gt;" class="s0" d="m1228.2 255.6h-19.9v-107.3h19.9z"/>
				</g>
				<g id="&lt;Group&gt;">
					<path id="&lt;Path&gt;" class="s0" d="m1262.4 255.6h-19.9v-53.6h19.9z"/>
				</g>
				<g id="&lt;Group&gt;">
					<path id="&lt;Path&gt;" class="s0" d="m1296.6 255.6h-19.9v-84.3h19.9z"/>
				</g>
				<g id="&lt;Group&gt;">
					<path id="&lt;Path&gt;" class="s0" d="m1330.8 255.6h-19.9v-116.5h19.9z"/>
				</g>
				<g id="&lt;Group&gt;">
					<path id="&lt;Path&gt;" class="s0" d="m1365 255.6h-19.9v-135.4h19.9z"/>
				</g>
				<g id="&lt;Group&gt;">
					<path id="&lt;Path&gt;" class="s0" d="m1162.6 96l0.2 39.9 0.1 39.9 0.2 79.8-0.5-0.5c18.2 0 36.5 0 54.8 0l54.9 0.1 54.9 0.2 54.8 0.2-54.8 0.3-54.9 0.2-54.9 0.1c-18.3 0-36.6 0-54.8 0h-0.5v-0.6l0.1-79.8 0.1-39.9z"/>
					<path id="&lt;Path&gt;" class="s0" d="m1158.2 104c1.4-0.4 2.9-0.5 4.4-0.5 1.4 0 2.9 0.1 4.3 0.5-1.4 0.5-2.9 0.6-4.3 0.6-1.5 0-3-0.1-4.4-0.6z"/>
					<path id="&lt;Path&gt;" class="s0" d="m1158.2 116.2c1.4-0.5 2.9-0.6 4.4-0.6 1.4 0 2.9 0.1 4.3 0.6-1.4 0.4-2.9 0.5-4.3 0.5-1.5 0-3-0.1-4.4-0.5z"/>
					<path id="&lt;Path&gt;" class="s0" d="m1158.2 128.3c1.4-0.5 2.9-0.6 4.4-0.6 1.4 0 2.9 0.1 4.3 0.6-1.4 0.4-2.9 0.5-4.3 0.6-1.5-0.1-3-0.2-4.4-0.6z"/>
					<path id="&lt;Path&gt;" class="s0" d="m1158.2 140.4c1.4-0.4 2.9-0.5 4.4-0.5 1.4 0 2.9 0.1 4.3 0.5-1.4 0.5-2.9 0.6-4.3 0.6-1.5 0-3-0.1-4.4-0.6z"/>
					<path id="&lt;Path&gt;" class="s0" d="m1158.2 152.6c1.4-0.5 2.9-0.6 4.4-0.6 1.4 0 2.9 0.1 4.3 0.6-1.4 0.4-2.9 0.5-4.3 0.5-1.5 0-3-0.1-4.4-0.5z"/>
					<path id="&lt;Path&gt;" class="s0" d="m1158.2 164.7c1.4-0.5 2.9-0.6 4.4-0.6 1.4 0 2.9 0.1 4.3 0.6-1.4 0.4-2.9 0.5-4.3 0.5-1.5 0-3-0.1-4.4-0.5z"/>
					<path id="&lt;Path&gt;" class="s0" d="m1158.2 176.8c1.4-0.4 2.9-0.5 4.4-0.5 1.4 0 2.9 0.1 4.3 0.5-1.4 0.5-2.9 0.6-4.3 0.6-1.5 0-3-0.1-4.4-0.6z"/>
					<path id="&lt;Path&gt;" class="s0" d="m1158.2 188.9c1.4-0.4 2.9-0.5 4.4-0.5 1.4 0 2.9 0.1 4.3 0.5-1.4 0.5-2.9 0.6-4.3 0.6-1.5 0-3-0.1-4.4-0.6z"/>
					<path id="&lt;Path&gt;" class="s0" d="m1158.2 201.1c1.4-0.5 2.9-0.6 4.4-0.6 1.4 0 2.9 0.1 4.3 0.6-1.4 0.4-2.9 0.5-4.3 0.5-1.5 0-3-0.1-4.4-0.5z"/>
					<path id="&lt;Path&gt;" class="s0" d="m1158.2 213.2c1.4-0.4 2.9-0.5 4.4-0.6 1.4 0.1 2.9 0.2 4.3 0.6-1.4 0.5-2.9 0.6-4.3 0.6-1.5 0-3-0.1-4.4-0.6z"/>
					<path id="&lt;Path&gt;" class="s0" d="m1158.2 225.3c1.4-0.4 2.9-0.5 4.4-0.5 1.4 0 2.9 0.1 4.3 0.5-1.4 0.5-2.9 0.6-4.3 0.6-1.5 0-3-0.1-4.4-0.6z"/>
					<path id="&lt;Path&gt;" class="s0" d="m1158.2 237.5c1.4-0.5 2.9-0.6 4.4-0.6 1.4 0 2.9 0.1 4.3 0.6-1.4 0.4-2.9 0.5-4.3 0.5-1.5 0-3-0.1-4.4-0.5z"/>
				</g>
			</g>
		</g>
	</g>
	<g id="Plant">
		<g id="&lt;Group&gt;">
			<g id="&lt;Group&gt;">
				<g id="&lt;Group&gt;">
					<g id="&lt;Group&gt;">
						<path id="&lt;Path&gt;" class="s4" d="m231.7 724.4c-1.8 9-3.8 18-3.9 27.2 0.2 0.5 0.2 2.2-0.1 1.7 0 1.5-2.2 1.3-2.3-0.2q0-1.4 0-2.8c-5.5-6.4-13.3-10.4-19.7-15.9-5.2-4.5-8.9-9.9-11-16.4-5.7-17.6-1.4-36.6-8.2-54.2-5.8-15.1-15.8-28.1-24.3-41.7-9-14.4-15.8-29.6-17-46.7-0.9-13.1 0.2-30.6 9.9-40.8 10.3-10.7 23.6-3.3 32.1 5.7 24.3 26.3 36.2 60.2 41.7 94.9 3 19.3 6.1 38.6 6.1 58.1 0 10.5-1.2 20.8-3.3 31.1z"/>
						<path id="&lt;Path&gt;" class="s5" d="m228.1 758.7c0.6-18.3 0-36.6-2.3-54.7 0-0.1 0.1-0.1 0.1-0.2-0.2-14.8 0.5-29.6-0.5-44.4-1.1-16-3.9-31.7-7.9-47.3-0.1-0.2-0.4-0.1-0.3 0 3.3 15.3 5.5 30.8 6.5 46.4q0.9 12.5 0.6 25.1c-0.1 2.7-0.2 5.4-0.3 8.2q0 0 0 0c-7.3-41.5-23.8-80.5-47.6-115.2-0.3-0.5-1.1 0.1-0.8 0.6 17.1 26.1 30 55.1 38.4 85.2-11.9-20.6-29.6-37.3-42.9-57.1 0-0.1-0.2 0-0.1 0.1 12 22.1 31.4 39.3 44.1 61 2.3 8.9 4.3 18 5.8 27.1 2.2 12.5 3.4 25.1 3.9 37.8-7.3-12.7-14.8-24.8-20.9-38.3-0.1-0.3-0.6-0.1-0.5 0.3 5.2 14 12.1 29 21.5 40.8q0.5 13.5 0.1 26.9c-0.7 24-4.1 47.7-5.2 71.6-0.1 0.7 1 0.7 1.1 0 4.2-24.2 6.3-49.4 7.2-73.9z"/>
						<path id="&lt;Path&gt;" class="s5" d="m197.1 575.2c0-0.1-0.3 0-0.2 0.1 4.7 12 7.5 24.1 11.1 36.4 0.1 0.6 0.9 0.4 0.9-0.2-1.7-12.5-6.6-24.9-11.8-36.3z"/>
					</g>
					<g id="&lt;Group&gt;">
						<path id="&lt;Path&gt;" class="s4" d="m309.5 622.5c-2.6 7.1-5.9 14.1-9.4 20.9-7.5 14.5-15.3 27.8-16.2 44.5-0.5 7.4-0.5 14.9-2.5 22.1-1.8 6.2-4.8 12-8.3 17.5-8.1 12.7-18.5 23.7-26 36.8-7.8 13.6-13.4 28.5-16.6 43.9-0.2 0.8-1.5 0.6-1.4-0.2q0.1-0.1 0.1-0.2c0 0-0.1-0.1-0.1-0.2-2.3-35.6-0.6-71.6 9.3-106 4.3-15.1 9.7-30.1 15.9-44.5 5.5-12.6 12.4-24.7 22.3-34.2 6.5-6.2 20.5-18 30.1-12.3 4.6 2.8 4.4 7.4 2.8 11.9z"/>
						<path id="&lt;Path&gt;" class="s5" d="m276.1 704.3c-5.8 10.6-12.7 20.6-19.8 30.4-3.3 4.6-6.7 9.2-10 13.8-1.5 2.2-3.3 4.4-4.7 6.7 0.8-3.8 1.6-7.6 2.4-11.3 4.1-18.2 8-36.5 14.3-54 6.2-17.1 14.6-33.3 23.3-49.2 0.2-0.5-0.5-0.7-0.7-0.3-7.2 12.6-14.4 25.2-20.4 38.4-3.3 7.4-6 15-8.4 22.7 2.6-16.4 5.8-32.3 10.7-48.3 0-0.1-0.2-0.2-0.2-0.1-6.1 15.8-10.3 33.4-11.1 50.3q0 0 0 0-2.1 7.1-3.9 14.2c-5 20.1-9.3 40.4-13.3 60.7-0.3-13.3 0.2-26.4 2.3-39.7 0-0.3-0.4-0.4-0.5-0.1-2.9 13.7-4 28-2.2 41.9q-2.2 11.6-4.3 23.2c-3 16.6-6.8 33.4-8.4 50.2 0 0.4 0.6 0.5 0.7 0.1 2.2-9.1 3.4-18.5 5.1-27.6q2.6-13.8 5.4-27.6c2.7-13.3 5.5-26.6 8.4-39.9 2.1-5 6.2-9.4 9.3-13.5 3.3-4.6 6.7-9.2 10-13.8 6.1-8.6 11.7-17.6 16.3-27.1 0.1-0.2-0.2-0.3-0.3-0.1z"/>
						<path id="&lt;Path&gt;" class="s5" d="m277.2 689c-7.5 10.2-14.1 21.4-19.3 32.8-0.1 0.2 0.1 0.3 0.2 0.2 6.5-10.9 12.9-21.9 19.4-32.8 0.1-0.2-0.2-0.3-0.3-0.2z"/>
					</g>
					<g id="&lt;Group&gt;">
						<path id="&lt;Path&gt;" class="s4" d="m124.5 661.9c4.9 7.8 10.5 17.2 8.8 26.8-1.1 6-5.4 11.1-6 17.3-1.4 13.6 12.5 22.2 22.5 28.4 24.9 15.3 58.9 28.6 64.3 61.2 0.2 1.2 2.2 0.8 2.1-0.3q0-0.1-0.1-0.2c0.1-0.1 0.1-0.1 0.1-0.2 2.7-16.7 2.1-33.6-1.9-50.1-4.2-16.8-12-31.7-21.2-46.3-15.5-24.7-31.8-49.9-54.7-68.5-6.3-5.1-19.2-14.3-23.8-2.2-4.4 11.9 4 24.5 9.9 34.1z"/>
						<path id="&lt;Path&gt;" class="s5" d="m148.5 714.4c16.8 17.1 42.9 26.2 57.4 45.4-9.2-29.9-23.7-56.6-45.4-79.5-0.6-0.6 0.2-1.5 0.8-0.9 15.9 14.3 27.8 31.3 36.7 49.8-4.1-13.3-9.7-25.8-16.3-38.2-0.2-0.5 0.4-0.9 0.7-0.5 8.3 13.2 13.9 28 17.7 43.1 19.7 44 23 96.1 20.6 143.2-0.1 0.7-1.1 0.7-1.1 0-0.1-37-1.8-74.6-11.8-110.5q-0.3-1.1-0.6-2.2c-15.8-20.7-41.8-29.8-58.9-49.4-0.2-0.2 0.1-0.5 0.2-0.3z"/>
						<path id="&lt;Path&gt;" class="s5" d="m144.3 699.5c8.8 7.5 17.4 15.3 26.2 22.8 0.1 0.1-0.1 0.2-0.2 0.2-9.4-6-19.1-14-26.5-22.5-0.3-0.4 0.2-0.8 0.5-0.5z"/>
						<path id="&lt;Path&gt;" class="s5" d="m142 665.7c8.1 12.1 16.5 23.5 26.5 34.2 0.1 0.2-0.1 0.4-0.2 0.3-10.7-9.7-20.2-21.5-26.8-34.3-0.1-0.3 0.3-0.5 0.5-0.2z"/>
					</g>
				</g>
				<g id="&lt;Group&gt;">
					<g id="&lt;Group&gt;">
						<path id="&lt;Path&gt;" class="s6" d="m258.3 824h-74.6l10.1 117.2h53z"/>
					</g>
				</g>
			</g>
		</g>
	</g>
	<g id="Floor">
		<g id="&lt;Group&gt;">
			<path id="&lt;Path&gt;" class="s5" d="m103.9 941.2c413.9-1.2 878.3-1.2 1292.2 0-413.9 1.3-878.3 1.3-1292.2 0z"/>
		</g>
	</g>
	<g id="Device">
		<g id="&lt;Group&gt;">
			<path id="&lt;Path&gt;" class="s5" d="m1228.1 798.5h-956.2c-14.3 0-25.8-11.5-25.8-25.8v-622.6c0-14.3 11.5-25.8 25.8-25.8h956.2c14.3 0 25.8 11.5 25.8 25.8v622.6c0 14.3-11.5 25.8-25.8 25.8z"/>
			<path id="&lt;Path&gt;" class="s7" d="m1184 152.7v616.6h-867.4v-616.6z"/>
			<g id="&lt;Group&gt;">
				<path id="&lt;Path&gt;" class="s8" d="m289.8 534.8h-5.5c-1.4 0-2.5-1.2-2.5-2.5v-141.8c0-1.4 1.1-2.5 2.5-2.5h5.5c1.4 0 2.5 1.1 2.5 2.5v141.8c0 1.3-1.1 2.5-2.5 2.5z"/>
				<path id="&lt;Path&gt;" class="s8" d="m1237 461.4c0 10.5-8.5 19-19 19-10.4 0-18.9-8.5-18.9-19 0-10.5 8.5-19 18.9-19 10.5 0 19 8.5 19 19z"/>
			</g>
			<g id="&lt;Group&gt;">
				<path id="&lt;Path&gt;" class="s7" d="m1184 152.7v616.6h-867.4v-616.6z"/>
				<g id="&lt;Group&gt;">
					<path id="&lt;Path&gt;" class="s6" d="m1184 173.9h-867.4v-21.2h867.4z"/>
					<g id="&lt;Group&gt;">
						<path id="&lt;Path&gt;" class="s3" d="m333.4 163.3c0 2.4-2 4.3-4.4 4.3-2.4 0-4.3-1.9-4.3-4.3 0-2.4 1.9-4.3 4.3-4.3 2.4 0 4.4 1.9 4.4 4.3z"/>
						<path id="&lt;Path&gt;" class="s7" d="m351.1 163.3c0 2.4-2 4.3-4.4 4.3-2.4 0-4.3-1.9-4.3-4.3 0-2.4 1.9-4.3 4.3-4.3 2.4 0 4.4 1.9 4.4 4.3z"/>
						<path id="&lt;Path&gt;" class="s4" d="m368.8 163.3c0 2.4-1.9 4.3-4.3 4.3-2.4 0-4.4-1.9-4.4-4.3 0-2.4 2-4.3 4.4-4.3 2.4 0 4.3 1.9 4.3 4.3z"/>
					</g>
				</g>
				<path id="&lt;Path&gt;" class="s1" d="m605.8 173.9h-289.2v595.4h289.2z"/>
				<path id="&lt;Path&gt;" class="s1" d="m1184 173.9h-289.1v595.4h289.1z"/>
				<g id="&lt;Group&gt;">
					<g id="&lt;Group&gt;">
						<path id="&lt;Path&gt;" class="s7" d="m1159.7 352.9h-240.5v-114.5h240.5z"/>
						<path id="&lt;Path&gt;" class="s6" d="m919.2 238.4h240.5v12.7h-240.5z"/>
						<g id="&lt;Group&gt;">
							<path id="&lt;Path&gt;" class="s5" d="m966.6 291.2c0 6.5-5.4 11.9-12 11.9-6.6 0-11.9-5.4-11.9-11.9 0-6.6 5.3-12 11.9-12 6.6 0 12 5.4 12 12z"/>
							<g id="&lt;Group&gt;">
								<path id="&lt;Path&gt;" class="s5" d="m1090.8 283.3h-100.9v-4.1h100.9z"/>
								<path id="&lt;Path&gt;" class="s5" d="m1062.8 297.4h-72.9v-3.4h72.9z"/>
								<path id="&lt;Path&gt;" class="s5" d="m1123.4 297.4h-53.6v-3.4h53.6z"/>
								<path id="&lt;Path&gt;" class="s5" d="m1040.4 306.4h-50.5v-3.4h50.5z"/>
								<path id="&lt;Path&gt;" class="s5" d="m1097.2 306.4h-50.5v-3.4h50.5z"/>
								<path id="&lt;Path&gt;" class="s5" d="m1080.3 315.4h-90.4v-3.5h90.4z"/>
								<path id="&lt;Path&gt;" class="s5" d="m1123.4 315.4h-36v-3.5h36z"/>
								<path id="&lt;Path&gt;" class="s5" d="m1062.8 324.3h-72.9v-3.4h72.9z"/>
							</g>
						</g>
					</g>
					<g id="&lt;Group&gt;">
						<path id="&lt;Path&gt;" class="s1" d="m630.1 370.4h240.5v240.5h-240.5z"/>
						<g id="&lt;Group&gt;">
							<path id="&lt;Path&gt;" class="s7" d="m683.8 421.3c0 6.6-5.3 12-11.9 12-6.6 0-11.9-5.4-11.9-12 0-6.5 5.3-11.9 11.9-11.9 6.6 0 11.9 5.4 11.9 11.9z"/>
							<g id="&lt;Group&gt;">
								<path id="&lt;Path&gt;" class="s7" d="m808 413.5h-100.8v-4.1h100.8z"/>
								<path id="&lt;Path&gt;" class="s7" d="m780 427.6h-72.8v-3.4h72.8z"/>
								<path id="&lt;Path&gt;" class="s7" d="m840.7 427.6h-53.7v-3.4h53.7z"/>
								<path id="&lt;Path&gt;" class="s7" d="m757.6 436.6h-50.4v-3.5h50.4z"/>
								<path id="&lt;Path&gt;" class="s7" d="m814.4 436.6h-50.4v-3.5h50.4z"/>
								<path id="&lt;Path&gt;" class="s7" d="m797.6 445.6h-90.4v-3.5h90.4z"/>
								<path id="&lt;Path&gt;" class="s7" d="m840.7 445.6h-36v-3.5h36z"/>
								<path id="&lt;Path&gt;" class="s7" d="m780 454.5h-72.8v-3.4h72.8z"/>
							</g>
						</g>
						<path id="&lt;Path&gt;" class="s6" d="m630.1 370.4h240.5v12.7h-240.5z"/>
						<g id="&lt;Group&gt;">
							<g id="&lt;Group&gt;">
								<path id="&lt;Path&gt;" class="s4" d="m752.6 516c0 18.2-11.1 34-26.9 40.7l-17.3-40.7z"/>
								<path id="&lt;Path&gt;" class="s4" d="m702.7 512.9l17.3 40.8c-0.1 0-0.1 0-0.1 0q-2 0.9-4.1 1.5c-4.2 1.3-8.7 2-13.1 2-4.6 0-9-0.7-13.1-2-13.9-4.3-24.9-15.3-29.1-29.1-1.3-4.2-2-8.6-2-13.2 0-4.5 0.7-9 2-13.1 4.2-13.9 15.2-24.8 29.1-29.1 4.1-1.3 8.5-2 13.1-2 4.6 0 9 0.7 13.1 2 13.9 4.3 24.8 15.2 29.2 29.1 1.2 4.1 2 8.6 2 13.1z"/>
								<path id="&lt;Path&gt;" class="s7" d="m702.7 512.9l17.3 40.8c-0.1 0-0.1 0-0.1 0q-2 0.9-4.1 1.5c-4.2 1.3-8.7 2-13.1 2-4.6 0-9-0.7-13.1-2-13.8-4.4-24.8-15.3-29.1-29.1-1.3-4.2-2-8.6-2-13.2 0-4.5 0.7-9 2-13.1 4.3-13.8 15.3-24.7 29.1-29.1 4.1-1.3 8.5-2 13.1-2 4.6 0 9 0.7 13.1 2 13.8 4.4 24.8 15.3 29.2 29.1 1.2 4.1 2 8.6 2 13.1z"/>
								<path id="&lt;Path&gt;" class="s6" d="m702.7 512.9l-28.8 33.6c-9.8-8.4-15.4-20.7-15.4-33.6 0-24.2 19.9-44.2 44.2-44.2 24.3 0 44.2 20 44.2 44.2z"/>
							</g>
							<g id="&lt;Group&gt;">
								<path id="&lt;Path&gt;" class="s5" d="m775.5 571.6h-33.4l-41.4-41.4 0.6-0.6 41.1 41.1h33.1z"/>
								<path id="&lt;Path&gt;" class="s5" d="m703.3 532.2h-4.6v-4.7h4.6z"/>
							</g>
							<g id="&lt;Group&gt;">
								<path id="&lt;Path&gt;" class="s5" d="m775.5 539.5h-37.7l-17.8-17.8 0.6-0.6 17.6 17.6h37.3z"/>
								<path id="&lt;Path&gt;" class="s5" d="m722.6 523.7h-4.7v-4.7h4.7z"/>
							</g>
							<g id="&lt;Group&gt;">
								<path id="&lt;Path&gt;" class="s5" d="m775.5 508.7h-57v-0.8h57z"/>
								<path id="&lt;Path&gt;" class="s5" d="m720.3 510.6h-4.7v-4.6h4.7z"/>
							</g>
							<g id="&lt;Group&gt;">
								<path id="&lt;Path&gt;" class="s7" d="m829.8 507.5h-41.3v-3.9h41.3z"/>
								<path id="&lt;Path&gt;" class="s7" d="m842.1 515.5h-53.6v-3.9h53.6z"/>
								<g id="&lt;Group&gt;">
									<path id="&lt;Path&gt;" class="s7" d="m817.2 523.5h-28.7v-3.8h28.7z"/>
								</g>
								<path id="&lt;Path&gt;" class="s6" d="m780.2 512.9h-9.4v-9.3h9.4z"/>
							</g>
							<g id="&lt;Group&gt;">
								<path id="&lt;Path&gt;" class="s7" d="m834.9 538.6h-46.4v-3.9h46.4z"/>
								<path id="&lt;Path&gt;" class="s7" d="m827.2 546.6h-38.7v-3.9h38.7z"/>
								<g id="&lt;Group&gt;">
									<path id="&lt;Path&gt;" class="s7" d="m842.1 554.6h-53.6v-3.8h53.6z"/>
								</g>
								<path id="&lt;Path&gt;" class="s4" d="m780.2 544h-9.4v-9.3h9.4z"/>
							</g>
							<g id="&lt;Group&gt;">
								<path id="&lt;Path&gt;" class="s7" d="m834.9 569.6h-46.4v-3.8h46.4z"/>
								<path id="&lt;Path&gt;" class="s7" d="m827.2 577.7h-38.7v-3.9h38.7z"/>
								<g id="&lt;Group&gt;">
									<path id="&lt;Path&gt;" class="s7" d="m842.1 585.7h-53.6v-3.8h53.6z"/>
								</g>
								<path id="&lt;Path&gt;" class="s7" d="m780.2 575.1h-9.4v-9.3h9.4z"/>
							</g>
						</g>
					</g>
					<g id="&lt;Group&gt;">
						<path id="&lt;Path&gt;" class="s7" d="m581.4 478.9h-240.5v-240.5h240.5z"/>
						<path id="&lt;Path&gt;" class="s6" d="m340.9 238.4h240.5v12.7h-240.5z"/>
						<g id="&lt;Group&gt;">
							<path id="&lt;Path&gt;" class="s4" d="m388.3 285.1c0 6.6-5.3 11.9-11.9 11.9-6.6 0-11.9-5.3-11.9-11.9 0-6.6 5.3-11.9 11.9-11.9 6.6 0 11.9 5.3 11.9 11.9z"/>
							<g id="&lt;Group&gt;">
								<path id="&lt;Path&gt;" class="s4" d="m512.6 277.3h-100.9v-4.1h100.9z"/>
								<path id="&lt;Path&gt;" class="s4" d="m484.6 291.4h-72.9v-3.5h72.9z"/>
								<path id="&lt;Path&gt;" class="s4" d="m545.2 291.4h-53.7v-3.5h53.7z"/>
								<path id="&lt;Path&gt;" class="s4" d="m462.1 300.4h-50.4v-3.5h50.4z"/>
								<path id="&lt;Path&gt;" class="s4" d="m518.9 300.4h-50.4v-3.5h50.4z"/>
								<path id="&lt;Path&gt;" class="s4" d="m502.1 309.3h-90.4v-3.4h90.4z"/>
								<path id="&lt;Path&gt;" class="s4" d="m545.2 309.3h-36v-3.4h36z"/>
								<path id="&lt;Path&gt;" class="s4" d="m484.6 318.3h-72.9v-3.5h72.9z"/>
							</g>
						</g>
						<g id="&lt;Group&gt;">
							<path id="&lt;Path&gt;" class="s6" d="m388.3 354.6c0 6.6-5.3 12-11.9 12-6.6 0-11.9-5.4-11.9-12 0-6.6 5.3-11.9 11.9-11.9 6.6 0 11.9 5.3 11.9 11.9z"/>
							<g id="&lt;Group&gt;">
								<path id="&lt;Path&gt;" class="s6" d="m512.6 346.8h-100.9v-4.1h100.9z"/>
								<path id="&lt;Path&gt;" class="s6" d="m484.6 360.9h-72.9v-3.5h72.9z"/>
								<path id="&lt;Path&gt;" class="s6" d="m545.2 360.9h-53.7v-3.5h53.7z"/>
								<path id="&lt;Path&gt;" class="s6" d="m462.1 369.9h-50.4v-3.5h50.4z"/>
								<path id="&lt;Path&gt;" class="s6" d="m518.9 369.9h-50.4v-3.5h50.4z"/>
								<path id="&lt;Path&gt;" class="s6" d="m502.1 378.8h-90.4v-3.4h90.4z"/>
								<path id="&lt;Path&gt;" class="s6" d="m545.2 378.8h-36v-3.4h36z"/>
								<path id="&lt;Path&gt;" class="s6" d="m484.6 387.8h-72.9v-3.5h72.9z"/>
							</g>
						</g>
						<g id="&lt;Group&gt;">
							<path id="&lt;Path&gt;" class="s1" d="m388.3 424.1c0 6.6-5.3 12-11.9 12-6.6 0-11.9-5.4-11.9-12 0-6.6 5.3-11.9 11.9-11.9 6.6 0 11.9 5.3 11.9 11.9z"/>
							<g id="&lt;Group&gt;">
								<path id="&lt;Path&gt;" class="s1" d="m512.6 416.3h-100.9v-4.1h100.9z"/>
								<path id="&lt;Path&gt;" class="s1" d="m484.6 430.4h-72.9v-3.4h72.9z"/>
								<path id="&lt;Path&gt;" class="s1" d="m545.2 430.4h-53.7v-3.4h53.7z"/>
								<path id="&lt;Path&gt;" class="s1" d="m462.1 439.4h-50.4v-3.5h50.4z"/>
								<path id="&lt;Path&gt;" class="s1" d="m518.9 439.4h-50.4v-3.5h50.4z"/>
								<path id="&lt;Path&gt;" class="s1" d="m502.1 448.3h-90.4v-3.4h90.4z"/>
								<path id="&lt;Path&gt;" class="s1" d="m545.2 448.3h-36v-3.4h36z"/>
								<path id="&lt;Path&gt;" class="s1" d="m484.6 457.3h-72.9v-3.4h72.9z"/>
							</g>
						</g>
					</g>
					<g id="&lt;Group&gt;">
						<path id="&lt;Path&gt;" class="s4" d="m581.4 610.9h-240.5v-114.5h240.5z"/>
						<path id="&lt;Path&gt;" class="s6" d="m340.9 496.4h240.5v12.7h-240.5z"/>
						<g id="&lt;Group&gt;">
							<path id="&lt;Path&gt;" class="s7" d="m368.6 523.9l92.6-0.1c30.9 0 61.7 0 92.6 0.1-30.9 0.1-61.7 0.1-92.6 0.2z"/>
							<path id="&lt;Path&gt;" class="s7" d="m368.6 528.6l92.6-0.2c30.9 0.1 61.7 0 92.6 0.2-30.9 0.1-61.7 0.1-92.6 0.1z"/>
							<path id="&lt;Path&gt;" class="s7" d="m368.6 533.2l92.6-0.2c30.9 0.1 61.7 0.1 92.6 0.2-30.9 0.1-61.7 0.1-92.6 0.1z"/>
							<path id="&lt;Path&gt;" class="s7" d="m368.6 537.8l92.6-0.1c30.9 0 61.7 0 92.6 0.1-30.9 0.2-61.7 0.1-92.6 0.2z"/>
							<path id="&lt;Path&gt;" class="s7" d="m368.6 542.5l92.6-0.2c30.9 0.1 61.7 0 92.6 0.2-30.9 0.1-61.7 0.1-92.6 0.1z"/>
							<path id="&lt;Path&gt;" class="s7" d="m368.6 547.1l92.6-0.1c30.9 0 61.7 0 92.6 0.1-30.9 0.1-61.7 0.1-92.6 0.2z"/>
							<path id="&lt;Path&gt;" class="s7" d="m368.6 551.7l92.6-0.1c30.9 0 61.7 0 92.6 0.1-30.9 0.2-61.7 0.1-92.6 0.2z"/>
							<path id="&lt;Path&gt;" class="s7" d="m368.6 556.4l92.6-0.2c30.9 0.1 61.7 0.1 92.6 0.2-30.9 0.1-61.7 0.1-92.6 0.1z"/>
							<path id="&lt;Path&gt;" class="s7" d="m368.6 561l92.6-0.1c30.9 0 61.7 0 92.6 0.1-30.9 0.2-61.7 0.1-92.6 0.2z"/>
							<path id="&lt;Path&gt;" class="s7" d="m368.6 565.7l92.6-0.2c30.9 0.1 61.7 0 92.6 0.2-30.9 0.1-61.7 0.1-92.6 0.1z"/>
							<path id="&lt;Path&gt;" class="s7" d="m368.6 570.3l92.6-0.2c30.9 0.1 61.7 0.1 92.6 0.2-30.9 0.1-61.7 0.1-92.6 0.1z"/>
							<path id="&lt;Path&gt;" class="s7" d="m368.6 574.9l92.6-0.1c30.9 0 61.7 0 92.6 0.1-30.9 0.2-61.7 0.1-92.6 0.2z"/>
							<path id="&lt;Path&gt;" class="s7" d="m368.6 579.6l92.6-0.2c30.9 0.1 61.7 0 92.6 0.2-30.9 0.1-61.7 0.1-92.6 0.1z"/>
							<path id="&lt;Path&gt;" class="s7" d="m368.6 584.2l92.6-0.1c30.9 0 61.7 0 92.6 0.1-30.9 0.1-61.7 0.1-92.6 0.2z"/>
							<path id="&lt;Path&gt;" class="s7" d="m368.6 588.8l92.6-0.1c30.9 0.1 61.7 0 92.6 0.1-30.9 0.2-61.7 0.1-92.6 0.2z"/>
							<path id="&lt;Path&gt;" class="s1" d="m402.2 556.4h-14v37.9h14z"/>
							<path id="&lt;Path&gt;" class="s5" d="m428.3 540.4h-14.1v53.9h14.1z"/>
							<path id="&lt;Path&gt;" class="s7" d="m454.3 551.9h-14v42.4h14z"/>
							<path id="&lt;Path&gt;" class="s1" d="m480.4 537.8h-14.1v56.5h14.1z"/>
							<path id="&lt;Path&gt;" class="s5" d="m506.4 545.4h-14v48.9h14z"/>
							<path id="&lt;Path&gt;" class="s0" d="m532.5 573.1h-14v21.2h14z"/>
							<path id="&lt;Path&gt;" class="s7" d="m373.6 520.7l0.4 18.4 0.3 18.4c0.1 12.2 0.2 24.5 0.2 36.8l-0.9-0.6h45.1 45l45.1 0.2 45 0.4-45 0.3-45.1 0.2h-45-45.1-0.9v-0.5c0-12.3 0.1-24.6 0.3-36.8l0.2-18.4z"/>
							<path id="&lt;Path&gt;" class="s0" d="m402.2 598.9h-14v-0.8h14z"/>
							<path id="&lt;Path&gt;" class="s0" d="m428.3 598.9h-14.1v-0.8h14.1z"/>
							<path id="&lt;Path&gt;" class="s0" d="m454.3 598.9h-14v-0.8h14z"/>
							<path id="&lt;Path&gt;" class="s0" d="m480.4 598.9h-14.1v-0.8h14.1z"/>
							<path id="&lt;Path&gt;" class="s0" d="m506.4 598.9h-14v-0.8h14z"/>
							<path id="&lt;Path&gt;" class="s0" d="m532.5 598.9h-14v-0.8h14z"/>
						</g>
					</g>
					<g id="&lt;Group&gt;">
						<path id="&lt;Path&gt;" class="s7" d="m581.4 742.9h-240.5v-114.5h240.5z"/>
						<path id="&lt;Path&gt;" class="s6" d="m340.9 628.4h240.5v12.7h-240.5z"/>
						<g id="&lt;Group&gt;">
							<path id="&lt;Path&gt;" class="s5" d="m388.3 681.1c0 6.6-5.3 12-11.9 12-6.6 0-11.9-5.4-11.9-12 0-6.6 5.3-11.9 11.9-11.9 6.6 0 11.9 5.3 11.9 11.9z"/>
							<g id="&lt;Group&gt;">
								<path id="&lt;Path&gt;" class="s5" d="m512.6 673.3h-100.9v-4.1h100.9z"/>
								<path id="&lt;Path&gt;" class="s5" d="m484.6 687.4h-72.9v-3.4h72.9z"/>
								<path id="&lt;Path&gt;" class="s5" d="m545.2 687.4h-53.7v-3.4h53.7z"/>
								<path id="&lt;Path&gt;" class="s5" d="m462.1 696.4h-50.4v-3.5h50.4z"/>
								<path id="&lt;Path&gt;" class="s5" d="m518.9 696.4h-50.4v-3.5h50.4z"/>
								<path id="&lt;Path&gt;" class="s5" d="m502.1 705.4h-90.4v-3.5h90.4z"/>
								<path id="&lt;Path&gt;" class="s5" d="m545.2 705.4h-36v-3.5h36z"/>
								<path id="&lt;Path&gt;" class="s5" d="m484.6 714.3h-72.9v-3.4h72.9z"/>
							</g>
						</g>
					</g>
					<g id="&lt;Group&gt;">
						<g id="&lt;Group&gt;">
							<g id="&lt;Group&gt;">
								<path id="&lt;Path&gt;" class="s9" d="m630.1 243.4v-5h5"/>
								<path id="&lt;Path&gt;" class="s10" d="m645.1 238.4h215.4"/>
								<path id="&lt;Path&gt;" class="s9" d="m865.6 238.4h5v5"/>
								<path id="&lt;Path&gt;" class="s11" d="m870.6 252.9v90.2"/>
								<path id="&lt;Path&gt;" class="s9" d="m870.6 347.9v5h-5"/>
								<path id="&lt;Path&gt;" class="s10" d="m855.5 352.9h-215.4"/>
								<path id="&lt;Path&gt;" class="s9" d="m635.1 352.9h-5v-5"/>
								<path id="&lt;Path&gt;" class="s11" d="m630.1 338.4v-90.2"/>
							</g>
						</g>
						<g id="&lt;Group&gt;">
							<path id="&lt;Path&gt;" class="s1" d="m754.3 319.6h-8v-47.9h8z"/>
							<path id="&lt;Path&gt;" class="s1" d="m774.2 291.6v8.1h-47.8v-8.1z"/>
						</g>
					</g>
					<g id="&lt;Group&gt;">
						<g id="&lt;Group&gt;">
							<g id="&lt;Group&gt;">
								<path id="&lt;Path&gt;" class="s9" d="m630.1 633.4v-5h5"/>
								<path id="&lt;Path&gt;" class="s10" d="m645.1 628.4h215.4"/>
								<path id="&lt;Path&gt;" class="s9" d="m865.6 628.4h5v5"/>
								<path id="&lt;Path&gt;" class="s11" d="m870.6 642.9v90.2"/>
								<path id="&lt;Path&gt;" class="s9" d="m870.6 737.9v5h-5"/>
								<path id="&lt;Path&gt;" class="s10" d="m855.5 742.9h-215.4"/>
								<path id="&lt;Path&gt;" class="s9" d="m635.1 742.9h-5v-5"/>
								<path id="&lt;Path&gt;" class="s11" d="m630.1 728.4v-90.2"/>
							</g>
						</g>
						<g id="&lt;Group&gt;">
							<path id="&lt;Path&gt;" class="s1" d="m754.3 709.6h-8v-47.9h8z"/>
							<path id="&lt;Path&gt;" class="s1" d="m774.2 681.6v8h-47.8v-8z"/>
						</g>
					</g>
					<g id="&lt;Group&gt;">
						<path id="&lt;Path&gt;" class="s12" d="m919.2 370.4h240.5v114.4h-240.5z"/>
						<g id="&lt;Group&gt;">
							<path id="&lt;Path&gt;" class="s7" d="m1043.4 451.6h-8v-47.9h8z"/>
							<path id="&lt;Path&gt;" class="s7" d="m1063.4 423.6v8h-47.9v-8z"/>
						</g>
					</g>
					<g id="&lt;Group&gt;">
						<path id="&lt;Path&gt;" class="s12" d="m919.2 502.4h240.5v240.5h-240.5z"/>
						<g id="&lt;Group&gt;">
							<path id="&lt;Path&gt;" class="s7" d="m1043.4 646.5h-8v-47.8h8z"/>
							<path id="&lt;Path&gt;" class="s7" d="m1063.4 618.6v8h-47.9v-8z"/>
						</g>
					</g>
				</g>
				<g id="&lt;Group&gt;">
					<path id="&lt;Compound Path&gt;" class="s7" d="m433.8 203.6h-3.9v13.1c0 0.7-0.6 1.3-1.3 1.3-0.8 0-1.4-0.6-1.4-1.3v-13.1h-3.8c-0.8 0-1.4-0.7-1.4-1.4 0-0.8 0.6-1.4 1.4-1.4h10.4c0.8 0 1.4 0.6 1.4 1.4 0 0.7-0.6 1.4-1.4 1.4z"/>
					<path id="&lt;Compound Path&gt;" fill-rule="evenodd" class="s7" d="m451.4 203c1.5 1.6 2.5 3.8 2.5 6.2 0 2.4-1 4.6-2.5 6.2-1.4 1.6-3.6 2.6-5.9 2.6-2.3 0-4.5-1-6-2.6-1.5-1.6-2.4-3.8-2.4-6.2 0-2.4 0.9-4.6 2.4-6.2 1.5-1.6 3.7-2.6 6-2.6 2.3 0 4.5 1 5.9 2.6zm-0.3 6.2c0-1.7-0.7-3.2-1.7-4.3-1-1.1-2.4-1.7-3.9-1.7-1.5 0-2.9 0.6-3.9 1.7-1.1 1.1-1.7 2.6-1.7 4.3 0 1.6 0.6 3.2 1.7 4.2 1 1.1 2.4 1.8 3.9 1.8 1.5 0 2.9-0.7 3.9-1.8 1-1 1.7-2.6 1.7-4.2z"/>
					<path id="&lt;Compound Path&gt;" fill-rule="evenodd" class="s7" d="m466.1 216.7v-14.5c0-0.8 0.6-1.4 1.3-1.4h2.9c4.7 0 8.6 3.9 8.6 8.6 0 4.8-3.9 8.6-8.6 8.6h-2.9c-0.7 0-1.3-0.6-1.3-1.3zm2.7-1.4h1.5c3.2 0 5.8-2.6 5.8-5.9 0-3.2-2.6-5.8-5.8-5.8h-1.5z"/>
					<path id="&lt;Compound Path&gt;" fill-rule="evenodd" class="s7" d="m496.9 203c1.5 1.6 2.4 3.8 2.4 6.2 0 2.4-0.9 4.6-2.4 6.2-1.5 1.6-3.6 2.6-5.9 2.6-2.3 0-4.5-1-6-2.6-1.5-1.6-2.4-3.8-2.4-6.2 0-2.4 0.9-4.6 2.4-6.2 1.5-1.6 3.7-2.6 6-2.6 2.3 0 4.4 1 5.9 2.6zm-0.4 6.2c0-1.7-0.6-3.2-1.6-4.3-1-1.1-2.4-1.7-3.9-1.7-1.6 0-2.9 0.6-4 1.7-1 1.1-1.6 2.6-1.6 4.3 0 1.6 0.6 3.2 1.6 4.2 1.1 1.1 2.4 1.8 4 1.8 1.5 0 2.9-0.7 3.9-1.8 1-1 1.6-2.6 1.6-4.2z"/>
				</g>
				<g id="&lt;Group&gt;">
					<path id="&lt;Compound Path&gt;" class="s1" d="m670 202.2c0-0.8 0.6-1.4 1.3-1.4 0.8 0 1.4 0.6 1.4 1.4v14.5c0 0.7-0.6 1.3-1.4 1.3-0.7 0-1.3-0.6-1.3-1.3z"/>
					<path id="&lt;Compound Path&gt;" class="s1" d="m680 216.7c0 0.7-0.6 1.3-1.3 1.3-0.8 0-1.4-0.6-1.4-1.3v-14.3q0 0 0 0c0-0.4 0.2-0.9 0.6-1.1 0.6-0.5 1.4-0.3 1.8 0.3l7.9 10.9v-10.1c0-0.7 0.6-1.3 1.4-1.3 0.7 0 1.3 0.6 1.3 1.3v14.3c0 0.7-0.6 1.3-1.3 1.3-0.4 0-0.8-0.2-1-0.5q-0.1-0.1-0.2-0.1l-7.8-10.9z"/>
					<path id="&lt;Compound Path&gt;" fill-rule="evenodd" class="s1" d="m709.3 211.3h-3v5.4c0 0.7-0.6 1.3-1.4 1.3-0.7 0-1.3-0.6-1.3-1.3v-14.5c0-0.8 0.6-1.4 1.3-1.4h4.4c2.9 0 5.3 2.4 5.3 5.3 0 2.9-2.4 5.2-5.3 5.2zm-3-2.7h3c1.4 0 2.5-1.1 2.5-2.5 0-1.4-1.1-2.5-2.5-2.5h-3z"/>
					<path id="&lt;Compound Path&gt;" fill-rule="evenodd" class="s1" d="m729.2 216c0.2 0.7-0.1 1.4-0.9 1.7-0.1 0-0.3 0.1-0.5 0.1q0 0 0 0c-0.3 0-0.6-0.1-1-0.3-0.3-0.2-0.6-0.5-0.8-0.9-0.3-0.7-0.5-1.6-0.5-2.9 0-0.5-0.1-0.8-0.3-1.1-0.1-0.2-0.4-0.5-0.7-0.7-0.5-0.3-1.2-0.5-1.4-0.6h-2.9v5.4c0 0.7-0.6 1.3-1.3 1.3-0.8 0-1.4-0.6-1.4-1.3v-14.5c0-0.8 0.6-1.4 1.4-1.4q-0.1 0 0 0h4.3c3 0 5.3 2.4 5.3 5.3 0 1.6-0.7 3.1-1.9 4q0.5 0.4 0.8 0.9c0.5 0.8 0.8 1.7 0.8 2.7 0 0.7 0.1 1.2 0.1 1.4 0.4 0.2 0.8 0.5 0.9 0.9zm-3.4-9.9c0-1.4-1.2-2.5-2.6-2.5h-3v5h3c1.4 0 2.6-1.1 2.6-2.5z"/>
					<path id="&lt;Compound Path&gt;" fill-rule="evenodd" class="s1" d="m746.3 203c1.5 1.6 2.5 3.8 2.5 6.2 0 2.4-1 4.6-2.5 6.2-1.5 1.6-3.6 2.6-5.9 2.6-2.3 0-4.5-1-6-2.6-1.5-1.6-2.4-3.8-2.4-6.2 0-2.4 0.9-4.6 2.4-6.2 1.5-1.6 3.7-2.6 6-2.6 2.3 0 4.4 1 5.9 2.6zm-0.3 6.2c0-1.7-0.7-3.2-1.7-4.3-1-1.1-2.4-1.7-3.9-1.7-1.5 0-2.9 0.6-3.9 1.7-1.1 1.1-1.7 2.6-1.7 4.3 0 1.6 0.6 3.2 1.7 4.2 1 1.1 2.4 1.8 3.9 1.8 1.5 0 2.9-0.7 3.9-1.8 1-1 1.7-2.6 1.7-4.2z"/>
					<path id="&lt;Compound Path&gt;" class="s1" d="m752.8 209.2c0-4.9 4.1-8.8 9.1-8.8 2.1 0 4.1 0.7 5.6 1.9 0.6 0.4 0.7 1.3 0.2 2-0.4 0.5-1.3 0.7-1.9 0.2-1.1-0.8-2.4-1.3-3.9-1.3-1.8 0-3.3 0.6-4.4 1.7-1.2 1.1-1.9 2.6-1.9 4.3 0 1.6 0.7 3.1 1.9 4.2 1.1 1.1 2.6 1.8 4.4 1.8 1.2 0 2.4-0.4 3.3-0.9v-3.4h-3.5c-0.7 0-1.4-0.6-1.4-1.4 0-0.8 0.7-1.3 1.4-1.3h4.9q0 0 0 0 0 0 0 0c0.8 0 1.4 0.5 1.4 1.3v5.4c0 0.2 0 0.3 0 0.5-0.1 0-0.1 0-0.1 0.1q-0.1 0.3-0.4 0.6c-1.6 1.2-3.5 1.9-5.6 1.9-5 0-9.1-3.9-9.1-8.8z"/>
					<path id="&lt;Compound Path&gt;" fill-rule="evenodd" class="s1" d="m784.9 216c0.3 0.7-0.1 1.4-0.8 1.7-0.1 0-0.3 0.1-0.6 0.1q0 0 0 0c-0.3 0-0.6-0.1-1-0.3-0.3-0.2-0.6-0.5-0.7-0.9-0.4-0.7-0.6-1.6-0.6-2.9 0-0.5-0.1-0.8-0.3-1.1-0.1-0.2-0.4-0.5-0.7-0.7-0.5-0.3-1.1-0.5-1.4-0.6h-2.9v5.4c0 0.7-0.6 1.3-1.3 1.3-0.8 0-1.4-0.6-1.4-1.3v-14.5c0-0.8 0.6-1.4 1.4-1.4q0 0 0 0h4.4c2.9 0 5.2 2.4 5.2 5.3 0 1.6-0.7 3.1-1.9 4q0.5 0.4 0.8 0.9c0.5 0.8 0.9 1.7 0.9 2.7-0.1 0.7 0 1.2 0.1 1.4 0.3 0.2 0.7 0.5 0.8 0.9zm-3.4-9.9c0-1.4-1.1-2.5-2.5-2.5h-3.1v5h3.1c1.4 0 2.5-1.1 2.5-2.5z"/>
					<path id="&lt;Compound Path&gt;" class="s1" d="m788.9 216.7v-14.5c0-0.8 0.6-1.4 1.3-1.4h0.1q0 0 0 0h8c0.7 0 1.3 0.6 1.3 1.4 0 0.8-0.6 1.4-1.3 1.4h-6.7v4.5h5.7c0.8 0 1.4 0.6 1.4 1.3 0 0.8-0.6 1.4-1.4 1.4h-5.7v4.5h6.7c0.7 0 1.3 0.6 1.3 1.4 0 0.7-0.6 1.3-1.3 1.3h-8c0 0 0 0 0 0h-0.1c-0.7 0-1.3-0.6-1.3-1.3z"/>
					<path id="&lt;Compound Path&gt;" class="s1" d="m802.9 213.7c0.4-0.5 1.2-0.6 1.8-0.1 1.1 0.8 2.9 1.9 4.7 1.9 1.2 0 2.3-0.4 3-1 0.8-0.5 1.1-1.1 1.1-1.7 0-0.3-0.1-0.6-0.2-0.8-0.2-0.2-0.4-0.5-0.8-0.7-0.7-0.5-1.9-0.9-3.3-1.2h-0.1c-1.1-0.2-2.2-0.5-3.1-0.9-1-0.5-1.8-1.1-2.3-2q-0.6-0.8-0.6-2c0-1.4 0.8-2.7 2-3.5 1.1-0.9 2.6-1.3 4.2-1.3 2.4 0 4.1 1.1 5.4 1.9 0.5 0.4 0.7 1.2 0.3 1.8-0.4 0.5-1.1 0.7-1.7 0.3-1.3-0.8-2.5-1.5-4-1.5-1.1 0-2.1 0.3-2.7 0.8-0.7 0.5-1 1-1 1.5 0 0.3 0.1 0.5 0.2 0.7q0.2 0.3 0.7 0.7c0.6 0.4 1.7 0.8 3 1h0.1c1.2 0.3 2.4 0.6 3.4 1.1 1 0.5 1.9 1.1 2.4 2 0.4 0.6 0.6 1.3 0.6 2.1 0 1.6-0.9 2.9-2.1 3.8-1.2 0.9-2.8 1.4-4.5 1.4-2.7 0-4.9-1.4-6.3-2.5-0.5-0.4-0.6-1.2-0.2-1.8z"/>
					<path id="&lt;Compound Path&gt;" class="s1" d="m819 213.7c0.4-0.5 1.3-0.6 1.8-0.1 1.1 0.8 2.9 1.9 4.7 1.9 1.2 0 2.3-0.4 3-1 0.8-0.5 1.1-1.1 1.1-1.7 0-0.3-0.1-0.6-0.2-0.8-0.2-0.2-0.4-0.5-0.8-0.7-0.7-0.5-1.9-0.9-3.3-1.2h-0.1c-1.1-0.2-2.2-0.5-3.1-0.9-1-0.5-1.8-1.1-2.3-2q-0.6-0.8-0.6-2c0-1.4 0.9-2.7 2-3.5 1.1-0.9 2.6-1.3 4.2-1.3 2.4 0 4.1 1.1 5.4 1.9 0.5 0.4 0.7 1.2 0.3 1.8-0.4 0.5-1.1 0.7-1.7 0.3-1.3-0.8-2.5-1.5-4-1.5-1.1 0-2.1 0.3-2.7 0.8-0.7 0.5-0.9 1-0.9 1.5 0 0.3 0 0.5 0.1 0.7q0.2 0.3 0.7 0.7c0.6 0.4 1.7 0.8 3 1h0.1c1.2 0.3 2.4 0.6 3.4 1.1 1 0.5 1.9 1.1 2.4 2 0.4 0.6 0.6 1.3 0.6 2.1 0 1.6-0.9 2.9-2.1 3.8-1.2 0.9-2.8 1.4-4.5 1.4-2.7 0-4.9-1.4-6.3-2.5-0.5-0.4-0.6-1.2-0.2-1.8z"/>
				</g>
				<g id="&lt;Group&gt;">
					<path id="&lt;Compound Path&gt;" fill-rule="evenodd" class="s7" d="m1007.3 216.7v-14.5c0-0.8 0.6-1.4 1.4-1.4h2.8c4.8 0 8.6 3.9 8.6 8.6 0 4.8-3.8 8.6-8.6 8.6h-2.8c-0.8 0-1.4-0.6-1.4-1.3zm2.7-1.4h1.5c3.3 0 5.9-2.6 5.9-5.9 0-3.2-2.6-5.8-5.9-5.8h-1.5z"/>
					<path id="&lt;Compound Path&gt;" fill-rule="evenodd" class="s7" d="m1038.1 203c1.5 1.6 2.5 3.8 2.5 6.2 0 2.4-1 4.6-2.5 6.2-1.4 1.6-3.6 2.6-5.9 2.6-2.3 0-4.5-1-6-2.6-1.5-1.6-2.4-3.8-2.4-6.2 0-2.4 0.9-4.6 2.4-6.2 1.5-1.6 3.7-2.6 6-2.6 2.3 0 4.5 1 5.9 2.6zm-0.3 6.2c0-1.7-0.7-3.2-1.7-4.3-1-1.1-2.4-1.7-3.9-1.7-1.5 0-2.9 0.6-3.9 1.7-1.1 1.1-1.7 2.6-1.7 4.3 0 1.6 0.6 3.2 1.7 4.2 1 1.1 2.4 1.8 3.9 1.8 1.5 0 2.9-0.7 3.9-1.8 1-1 1.7-2.6 1.7-4.2z"/>
					<path id="&lt;Compound Path&gt;" class="s7" d="m1047.5 216.7c0 0.7-0.6 1.3-1.4 1.3-0.7 0-1.3-0.6-1.3-1.3v-14.3q0 0 0 0c0-0.4 0.2-0.9 0.5-1.1 0.7-0.5 1.5-0.3 1.9 0.3l7.9 10.9v-10.1c0-0.7 0.6-1.3 1.3-1.3 0.8 0 1.4 0.6 1.4 1.3v14.3c0 0.7-0.6 1.3-1.4 1.3-0.3 0-0.7-0.2-1-0.5q0-0.1-0.1-0.1l-7.8-10.9z"/>
					<path id="&lt;Compound Path&gt;" class="s7" d="m1062.1 216.7v-14.5c0-0.8 0.6-1.4 1.3-1.4h0.1q0 0 0 0h8c0.7 0 1.3 0.6 1.3 1.4 0 0.8-0.6 1.4-1.3 1.4h-6.7v4.5h5.7c0.8 0 1.4 0.6 1.4 1.3 0 0.8-0.6 1.4-1.4 1.4h-5.7v4.5h6.7c0.7 0 1.3 0.6 1.3 1.4 0 0.7-0.6 1.3-1.3 1.3h-8c0 0 0 0 0 0h-0.1c-0.7 0-1.3-0.6-1.3-1.3z"/>
				</g>
			</g>
		</g>
	</g>
	<g id="Character 2">
		<g id="&lt;Group&gt;">
			<g id="&lt;Group&gt;">
				<path id="&lt;Path&gt;" class="s4" d="m916.8 416.2l233 59.4-28.3 110.9-233-59.4z"/>
				<path id="&lt;Path&gt;" class="s6" d="m916.8 416.2l233 59.4-3.1 12.3-233-59.5z"/>
				<g id="&lt;Group&gt;">
					<g id="&lt;Group&gt;">
						<path id="&lt;Path&gt;" class="s7" d="m1020.1 472.3l-58.8-15 0.8-3.4 58.9 15z"/>
						<path id="&lt;Path&gt;" class="s7" d="m1069 484.8l-43.3-11.1 0.9-3.3 43.3 11z"/>
						<path id="&lt;Path&gt;" class="s7" d="m977.6 470.7l-18.5-4.8 0.8-3.3 18.6 4.7z"/>
						<path id="&lt;Path&gt;" class="s7" d="m1099.4 501.8l-53.5-13.7 0.8-3.4 53.6 13.7z"/>
						<path id="&lt;Path&gt;" class="s7" d="m1040.8 486.8l-58-14.8 0.9-3.3 58 14.8z"/>
						<path id="&lt;Path&gt;" class="s7" d="m931.9 459l12 3.1 3.1-12.1-12-3z"/>
					</g>
					<g id="&lt;Group&gt;" style="opacity: .1">
						<path id="&lt;Path&gt;" class="s13" d="m1012.6 501.8l-58.9-15.1 0.9-3.3 58.8 15z"/>
						<path id="&lt;Path&gt;" class="s13" d="m1077.5 518.3l-59.3-15.1 0.9-3.4 59.2 15.2z"/>
						<path id="&lt;Path&gt;" class="s13" d="m1017.8 512.3l-66.3-16.9 0.9-3.3 66.2 16.9z"/>
						<path id="&lt;Path&gt;" class="s13" d="m1058.1 522.6l-35.2-8.9 0.9-3.4 35.2 9z"/>
						<path id="&lt;Path&gt;" class="s13" d="m1110.8 526.8l-27.3-6.9 0.9-3.4 27.2 7z"/>
						<path id="&lt;Path&gt;" class="s13" d="m924.4 488.5l12 3.1 3.1-12.1-12.1-3z"/>
					</g>
					<g id="&lt;Group&gt;">
						<path id="&lt;Path&gt;" class="s7" d="m1044.6 541.4l-98.4-25.2 0.9-3.3 98.4 25.1z"/>
						<path id="&lt;Path&gt;" class="s7" d="m1093.6 553.8l-43.3-11 0.8-3.4 43.3 11.1z"/>
						<path id="&lt;Path&gt;" class="s7" d="m984.7 535.3l-40.7-10.4 0.9-3.3 40.7 10.4z"/>
						<path id="&lt;Path&gt;" class="s7" d="m1070.2 557.1l-80.3-20.5 0.8-3.3 80.3 20.5z"/>
						<path id="&lt;Path&gt;" class="s7" d="m916.8 518l12.1 3.1 3-12.1-12-3z"/>
					</g>
				</g>
			</g>
			<g id="&lt;Group&gt;">
				<g id="&lt;Group&gt;">
					<g id="&lt;Group&gt;">
						<path id="&lt;Path&gt;" class="s14" d="m1195.9 273.8c31.7 11.3 109.2 50.2 125 73.1 9.9 14.2-34.9 63.2-74.8 93.4-8.4 6.3-50-30.4-52.7-41.5-1.9-7.5 57.3-37.7 54.1-43-5.8-9.5-48.7-44-69.3-67.1-11.4-12.9-2-21.9 17.7-14.9z"/>
					</g>
				</g>
				<g id="&lt;Group&gt;">
					<path id="&lt;Path&gt;" class="s4" d="m1239.2 354.8l49.7-38.8c0 0-48.7-30.3-88.3-41.7-30.9-8.9-36.3 0.7-18.1 20.8 18.3 20.1 56.7 59.7 56.7 59.7z"/>
					<path id="&lt;Path&gt;" class="s15" d="m1269.4 331.2l-30.2 23.6c0 0-38.4-39.6-56.7-59.7-14.7-16.2-14-25.6 3.1-23.9z"/>
					<g id="&lt;Group&gt;">
						<path id="&lt;Path&gt;" class="s4" d="m1238.7 361.7l56.8-42.5-2.7-0.8 0.8-4.7-2.1-0.6-3.7-4.7-55.3 44.4 2.9 0.9v4.1l2.8 0.5z"/>
						<path id="&lt;Path&gt;" class="s15" d="m1238.7 361.7l56.8-42.5-2.7-0.8 0.8-4.7-2.1-0.6-3.7-4.7-55.3 44.4 2.9 0.9v4.1l2.8 0.5z"/>
					</g>
				</g>
			</g>
			<g id="&lt;Group&gt;">
				<g id="&lt;Group&gt;">
					<g id="&lt;Group&gt;">
						<g id="&lt;Group&gt;">
							<path id="&lt;Path&gt;" class="s14" d="m1309.9 789.2c0 0 1.5 96.7 1.5 96.8-0.2 18.1-0.8 34-1.8 42.2q0 0 0 0.1c-0.4 3.1-0.9 5.1-1.4 5.6q-0.1 0-0.2 0.1c-5.4 3.6-150.2 5.9-155.3 4.3-5.1-1.6-0.9-16.2 4.7-20.8 5.6-4.6 60.6-30.3 60.6-30.3l-0.6-98z"/>
							<path id="&lt;Path&gt;" class="s7" d="m1311.7 866.5c0 0-0.3 19.4-0.3 19.5-0.2 18.1-0.8 34-1.8 42.2q0 0 0 0.1c-0.6 3-1.1 5.1-1.4 5.6q-0.1 0-0.2 0.1c-5.4 3.6-150.2 5.9-155.3 4.3-5.1-1.6-0.9-16.2 4.7-20.8 5.6-4.6 60.6-30.3 60.6-30.3l0.1-19.7z"/>
							<g id="&lt;Group&gt;">
								<g id="&lt;Group&gt;">
									<path id="&lt;Path&gt;" class="s5" d="m1209.1 887.2c9.7-1.5 21.4 0.3 28.5 7.4 0.3 0.3-0.1 0.7-0.4 0.6-9.4-3.3-18.2-5.5-28.1-6.8-0.7-0.1-0.7-1.1 0-1.2z"/>
									<path id="&lt;Path&gt;" class="s5" d="m1202.1 891.1c9.6-1.4 21.3 0.4 28.5 7.5 0.2 0.2-0.2 0.6-0.5 0.5-9.4-3.3-18.1-5.5-28-6.7-0.7-0.1-0.7-1.1 0-1.3z"/>
									<path id="&lt;Path&gt;" class="s5" d="m1195 895.1c9.7-1.5 21.4 0.4 28.5 7.4 0.3 0.3-0.1 0.7-0.4 0.6-9.4-3.3-18.2-5.5-28.1-6.8-0.7-0.1-0.7-1.1 0-1.2z"/>
								</g>
								<path id="&lt;Path&gt;" class="s16" d="m1152.7 938.3c5.1 1.6 149.8 1.9 155.3-1.7 2.1-1.3 3-25.1 3.4-50.6q0-0.4 0-0.8l-93.5 0.4 0.1 1.6c0 0-55 25.7-60.6 30.3-5.6 4.6-9.8 19.2-4.7 20.8z"/>
								<path id="&lt;Path&gt;" class="s5" d="m1154.2 932.6c24.4-0.9 123-2.6 147.2-1.8 0.2 0 0.2 0.2 0 0.2-24.2 1.5-122.7 2.4-147.2 2-0.5 0-0.5-0.3 0-0.4z"/>
								<path id="&lt;Path&gt;" class="s15" d="m1225.3 885.9l-54.3 53.2c-10.4-0.2-17.3-0.5-18.3-0.8-5.1-1.6-0.9-16.2 4.7-20.8 5.6-4.6 60.6-30.3 60.6-30.3l-0.1-1.5 7.2-0.1z"/>
							</g>
						</g>
						<g id="&lt;Group&gt;">
							<path id="&lt;Path&gt;" class="s8" d="m1314.7 884.8l-105.6 1.2c0 0-2.4-158.7-2.3-215.6 0.1-65 9.9-258.9 9.9-258.9l78.3 0.8c0 0 12.4 27.5 17 61.2 1.3 9-0.1 35.4-3.3 47.5l-2.7 157.9z"/>
							<g id="&lt;Group&gt;">
								<path id="&lt;Path&gt;" class="s5" d="m1223.7 771.9c-1-28.2-1.5-42.9-2-71.1-1-56.5-0.8-112.9 0.4-169.4 0.8-31.7 1.9-63.3 3.2-95 0-0.4-0.6-0.3-0.6 0-3.5 56.7-5.2 113.5-5.9 170.2-0.6 56.5 0 99.4 2.2 155.9 1.2 31.6 2.9 63.3 5.5 94.9 0 0.3 0.5 0.3 0.5 0-1-28.5-2.4-57-3.3-85.5z"/>
							</g>
							<path id="&lt;Path&gt;" class="s5" d="m1223 865.6c21.1-1.4 42.3-1.4 63.3-1 6 0.1 12 0.3 17.9 0.5 0.2 0.1 0.2 0.4 0 0.4-21 1.3-42.2 1.5-63.3 1.1-6-0.1-11.9-0.3-17.9-0.6-0.2 0-0.2-0.4 0-0.4z"/>
						</g>
					</g>
				</g>
				<g id="&lt;Group&gt;">
					<g id="&lt;Group&gt;">
						<g id="&lt;Group&gt;">
							<path id="&lt;Path&gt;" class="s14" d="m1166.4 796.4c0 0-0.3 90.9-0.3 91-0.2 18.1-0.8 34-1.8 42.2q0 0 0 0.1c-0.4 3.1-0.9 5-1.4 5.6q-0.1 0-0.2 0.1c-5.4 3.6-150.2 5.9-155.3 4.3-5.1-1.6-0.9-16.2 4.7-20.8 5.6-4.6 60.6-30.3 60.6-30.3l5.3-92z"/>
							<path id="&lt;Path&gt;" class="s7" d="m1166.4 867.9c0 0-0.3 19.4-0.3 19.5-0.2 18.1-0.8 34-1.8 42.2q0 0 0 0.1c-0.6 3-1.1 5.1-1.4 5.6q-0.1 0-0.2 0.1c-5.4 3.6-150.2 5.9-155.3 4.3-5.1-1.6-0.9-16.2 4.7-20.8 5.6-4.6 60.6-30.3 60.6-30.3l0.1-19.7z"/>
							<g id="&lt;Group&gt;">
								<g id="&lt;Group&gt;">
									<path id="&lt;Path&gt;" class="s5" d="m1063.8 888.6c9.7-1.5 21.4 0.3 28.5 7.4 0.3 0.3-0.1 0.7-0.4 0.6-9.4-3.3-18.2-5.5-28.1-6.8-0.7-0.1-0.7-1.1 0-1.2z"/>
									<path id="&lt;Path&gt;" class="s5" d="m1056.8 892.5c9.6-1.5 21.3 0.4 28.5 7.5 0.2 0.2-0.2 0.6-0.5 0.5-9.4-3.3-18.1-5.5-28-6.7-0.7-0.1-0.7-1.2 0-1.3z"/>
									<path id="&lt;Path&gt;" class="s5" d="m1049.7 896.5c9.7-1.5 21.4 0.3 28.5 7.4 0.3 0.3-0.1 0.7-0.4 0.6-9.4-3.3-18.2-5.5-28.1-6.8-0.7-0.1-0.7-1.1 0-1.2z"/>
								</g>
								<path id="&lt;Path&gt;" class="s16" d="m1007.4 939.7c5.1 1.6 150.4 2.5 155.9-1.1 2.1-1.3 2.4-25.7 2.8-51.2q0-0.4 0-0.8l-93.5 0.4 0.1 1.6c0 0-55 25.7-60.6 30.3-5.6 4.6-9.8 19.2-4.7 20.8z"/>
								<path id="&lt;Path&gt;" class="s5" d="m1008.9 933.6c24.4-0.8 123-2 147.2-0.9 0.2 0 0.2 0.1 0 0.1-24.2 1.4-122.7 1.7-147.2 1.2-0.5 0-0.5-0.4 0-0.4z"/>
							</g>
						</g>
						<g id="&lt;Group&gt;">
							<path id="&lt;Path&gt;" class="s8" d="m1248.6 512.1c-0.1 0.1-57.9 137.1-63.1 159-4.8 20.7-13.4 216.3-13.4 216.3l-103.2-0.8c0 0 15.2-197.9 17.1-220 2.6-29.1 27.8-95.3 54.6-166.1 11.4-30 26.6-59.4 34.7-89.4l117.3 1.2c0 0-1.6 52.9-26 91 0 0-11 5-18 8.8z"/>
							<g id="&lt;Group&gt;">
								<path id="&lt;Path&gt;" class="s5" d="m1078.5 867.2c21-1 42.2-0.6 63.3 0.2 5.9 0.2 11.9 0.5 17.8 0.9 0.3 0 0.2 0.3 0 0.3-21 0.9-42.2 0.8-63.3 0-6-0.3-11.9-0.6-17.9-1-0.2 0-0.2-0.4 0.1-0.4z"/>
								<g id="&lt;Group&gt;">
									<path id="&lt;Path&gt;" class="s5" d="m1221.6 514.5c5.5-0.1 10.9-0.4 16.2-1.3 5.4-1 10.4-2.7 15.7-4.2 5-1.4 10.3-1.6 15.4-2.4 5.2-0.8 10.3-2.1 15.1-4.3 0.2-0.1 0.4 0.2 0.1 0.3-4.7 2.4-9.4 4.6-14.4 6.1-5.2 1.6-10.6 1.8-15.9 3-5.3 1.3-10.6 3-16.1 3.6-5.4 0.5-10.8 0.4-16.1-0.5-0.2 0-0.2-0.3 0-0.3z"/>
									<path id="&lt;Path&gt;" class="s5" d="m1211.5 600.1c1.2-3.2 2.2-6.4 3.4-9.6 2.5-6.5 4.9-13 7.6-19.4 5.3-12.7 10.4-25.5 16-38.1 3.2-7.2 6-14.5 9.8-21.5 0.1-0.2 0.4-0.1 0.3 0.1-1.9 6.6-4.5 13-6.9 19.5-2.4 6.4-5 12.9-7.5 19.3-5.1 12.8-10.1 25.6-15.7 38.2q-2.3 5.4-4.8 10.6c-1.7 3.6-3.1 7.4-5.1 10.9-0.1 0.1-0.5 0.1-0.4-0.1 0.8-3.4 2.2-6.6 3.3-9.9z"/>
								</g>
							</g>
							<path id="&lt;Path&gt;" class="s5" d="m1190 418.3c0.1-0.4 0.4-0.1 0.4 0.1-0.9 9.5-2.6 19.7-5.9 28.7 0 0-9.9 27.6-9.9 27.6l-20 55.3c-14.9 41.5-30.3 82.7-44 124.6-1.7 4.6-2.2 9.3-2.6 14.2-4.7 53.1-11.7 130.5-16.1 184.8-0.1 0.2-0.6 0.5-0.6 0 0-0.8 3.9-58.5 3.9-58.5 2.4-34.9 5.6-63 8.3-97.2 0.8-9.8 1.6-19.6 2.5-29.3 0.3-4.9 0.9-10 2.6-14.6 19.4-58.8 43.4-121.4 65-179.6 0 0 10.4-27.5 10.4-27.5 3.6-9.1 5-18.9 6-28.6z"/>
						</g>
					</g>
				</g>
			</g>
			<g id="&lt;Group&gt;">
				<g id="&lt;Group&gt;">
					<g id="&lt;Group&gt;">
						<g id="&lt;Group&gt;">
							<path id="&lt;Path&gt;" class="s14" d="m1173 303.3c5.7-1.8 13.3-16.5 14.5-26.9 0.1-0.7-3.3-6.5-7.1-13.7-2.3-4.4-4.7-9.4-6.6-14l-26.5 19c0 0 6.9 8.6 10.1 16.8q0.4 1 0.6 2 0 0.1 0.1 0.3c0.9 3.9 6.1 19.4 14.9 16.5z"/>
						</g>
						<path id="&lt;Path&gt;" class="s5" d="m1158.1 286.8q1.5-0.3 3.1-1c16.1-7 12.6-28.5 10.9-35.9l-24.8 17.8c0 0 6.9 8.6 10.1 16.8q0.4 1 0.6 2c0 0.1 0.1 0.2 0.1 0.3z"/>
					</g>
					<g id="&lt;Group&gt;">
						<g id="&lt;Group&gt;">
							<path id="&lt;Path&gt;" class="s14" d="m1169.2 213.3c6.4 9.9 9.4 42.8 3.6 51.9-8.3 13.2-26.3 19.2-38.6 8.2-11.9-10.6-15.1-53.5-8.3-62.2 10.1-12.9 34-12.5 43.3 2.1z"/>
						</g>
						<g id="&lt;Group&gt;">
							<path id="&lt;Path&gt;" class="s14" d="m1175.8 242.8c0.4 9.4-0.4 18.3-3 22.4-8.3 13.2-26.3 19.2-38.6 8.2-8.4-7.4-12.4-30.7-11.8-46.9q0 0 0-0.1c0.3-6.9 1.5-12.6 3.5-15.2 10.1-12.8 34-12.5 43.3 2.1 3.5 5.5 6 17.9 6.6 29.5z"/>
						</g>
						<g id="&lt;Group&gt;">
							<g id="&lt;Group&gt;">
								<path id="&lt;Path&gt;" class="s5" d="m1143.7 243.2c0-0.1 0.2 0.1 0.2 0.2 0.2 2.2 0.7 4.7 2.8 5.2 0.1 0 0.1 0.2 0 0.1-2.5 0-3.2-3.4-3-5.5z"/>
								<path id="&lt;Path&gt;" class="s5" d="m1145.5 240.7c3.5-0.7 4.5 6.4 1.2 7-3.2 0.6-4.2-6.5-1.2-7z"/>
							</g>
							<g id="&lt;Group&gt;">
								<path id="&lt;Path&gt;" class="s5" d="m1130.9 244.5c-0.1-0.1-0.2 0.1-0.2 0.2 0.4 2.2 0.5 4.8-1.4 5.8-0.1 0 0 0.1 0 0.1 2.4-0.7 2.3-4.1 1.6-6.1z"/>
								<path id="&lt;Path&gt;" class="s5" d="m1128.6 242.5c-3.6 0.2-2.9 7.4 0.4 7.1 3.3-0.2 2.6-7.3-0.4-7.1z"/>
							</g>
							<path id="&lt;Path&gt;" class="s5" d="m1147.8 237.2c-1.1-0.1-2-0.3-2.9-0.5-1.1-0.3-2-0.3-2.9-1.2-0.4-0.4-0.4-1.4 0-1.8 0.9-1.1 2.4-1.2 3.7-1 1.5 0.3 2.5 0.8 3.5 2 0.9 1-0.1 2.7-1.4 2.5z"/>
							<path id="&lt;Path&gt;" class="s5" d="m1125.6 239.7c0.9-0.3 1.8-0.7 2.7-1.1 1-0.5 1.9-0.7 2.5-1.7 0.4-0.5 0.2-1.4-0.3-1.8-1.2-0.9-2.6-0.7-3.8-0.2-1.4 0.5-2.3 1.3-3.1 2.6-0.7 1.2 0.7 2.6 2 2.2z"/>
							<path id="&lt;Path&gt;" class="s5" d="m1148.3 263c-0.5 0.6-0.9 1.4-1.7 1.6-0.7 0.1-1.7-0.1-2.4-0.3-0.1 0-0.2 0.1-0.1 0.2 0.7 0.7 2 1.1 3 0.8 0.9-0.4 1.3-1.3 1.4-2.2 0-0.2-0.2-0.2-0.2-0.1z"/>
							<g id="&lt;Group&gt;">
								<g id="&lt;Group&gt;">
									<path id="&lt;Path&gt;" class="s5" d="m1145 256.8c-0.9 2-2.6 3.3-4.5 4-0.8 0.3-1.8 0.5-2.7 0.5q-0.2 0-0.5 0-0.2 0-0.5 0c-0.2 0-0.4-0.2-0.5-0.4q0-0.1 0-0.2 0 0 0-0.1v-0.2c-0.3-1.6-0.5-4.2-0.5-4.2-0.6 0.4-3.6 2.2-3.6 1.3-0.7-7.3-1.3-15.5-0.4-23 0-0.3 0.4-0.3 0.4 0 0.9 7 0.5 14.2 1.3 21.3 0.9-0.5 2.5-1.4 3.4-1.5 0.2 0 0.3 5 0.5 5.7q0 0 0 0.1c2.9 0 4.9-1.2 7.4-3.5 0.1-0.2 0.3 0 0.2 0.2z"/>
								</g>
							</g>
							<g id="&lt;Group&gt;">
								<path id="&lt;Path&gt;" class="s5" d="m1138.7 260.3c0 0 1.8 1.8 4 2.3 0.7 0.1 1.6 0.1 2.4-0.2 1.7-0.8 1.5-2.4 1-3.7-0.4-1.1-1.1-2-1.1-2 0 0-2.2 2.8-6.3 3.6z"/>
								<path id="&lt;Path&gt;" class="s17" d="m1142.7 262.6c0.7 0.1 1.6 0.1 2.4-0.2 1.7-0.8 1.5-2.4 1-3.7-1.9 0.5-3.6 2-3.4 3.9z"/>
							</g>
						</g>
						<g id="&lt;Group&gt;">
							<path id="&lt;Path&gt;" class="s5" d="m1174.9 243.2c-8.1 1.8-13.8-7.4-13-15.5 0 0-21.4 6-25-11.3 0 0-4.4 9.1-14.2 10.8l-0.4 5.9c-2.3-0.4-5.6-6.4-0.8-12.1 0 0-0.9-8.8 4.8-15 5.6-6.2 12.5-3.6 12.5-3.6 0 0 4.5-5.1 12.7-5.2 8.2-0.1 12.6 6.7 12.6 6.7 0 0 11.1 0.5 14 8 3 7.4-0.2 13.1-0.2 13.1 0 0 3.1 2.6 2.7 9.4-0.3 4.3-3.3 8.3-5.7 8.8z"/>
							<path id="&lt;Path&gt;" class="s5" d="m1137.2 214.7c0 1.5 0.2 2.9 0.5 4.3 0.3 1.4 0.8 2.8 1.4 4 1.3 2.6 3.4 4.6 6 5.6 2.5 1.2 5.5 1 8.3 0.9 1.4-0.3 2.8-0.4 4.3-0.8 1.4-0.3 2.7-0.7 4.2-1-1.4 0.5-2.8 1-4.1 1.5-1.4 0.5-2.9 0.7-4.3 1-2.9 0.3-6 0.5-8.8-0.7-2.8-1.1-5.1-3.4-6.3-6.1-1.2-2.8-1.5-5.8-1.2-8.7z"/>
							<path id="&lt;Path&gt;" class="s5" d="m1164.1 203.9c2.7-0.3 5.6-0.1 8.3 0.6 2.7 0.8 5.3 2.4 6.9 4.8 0.8 1.3 1.3 2.6 1.6 4 0.4 1.3 0.5 2.8 0.4 4.2-0.2 2.8-1.4 5.6-3.4 7.5 1.7-2.2 2.6-4.9 2.6-7.5 0-2.7-0.6-5.4-2.1-7.6-0.7-1.1-1.6-2.1-2.7-2.8q-1.6-1.2-3.6-1.8c-2.5-0.9-5.3-1.3-8-1.4z"/>
							<path id="&lt;Path&gt;" class="s5" d="m1138.8 202.4c-2.2-0.5-4.4-0.6-6.5-0.4-2.2 0.3-4.3 1-6 2.3-1.7 1.3-3 3-3.9 5-0.9 2-1.5 4.2-1.8 6.4-0.1-2.3 0.3-4.5 1-6.7 0.8-2.1 2.2-4.1 4.1-5.5 1.9-1.4 4.2-2.2 6.5-2.2 2.3-0.2 4.6 0.2 6.6 1.1z"/>
							<path id="&lt;Path&gt;" class="s5" d="m1127.4 226.5c2.3-1.3 4.4-2.7 6.1-4.5 0.9-0.9 1.5-2 2.1-3.1 0.7-1.1 1-2.3 1.4-3.6 0 1.3-0.1 2.7-0.6 4-0.5 1.2-1.3 2.4-2.2 3.4-0.9 0.9-2 1.8-3.1 2.4-1.2 0.6-2.4 1.2-3.7 1.4z"/>
						</g>
						<g id="&lt;Group&gt;">
							<path id="&lt;Path&gt;" class="s14" d="m1167.7 242.7c0 0 4.5-12 9.8-10.6 5.2 1.3 3.7 17.4-1.2 20.8-4.9 3.4-8.1-1-8.1-1z"/>
							<path id="&lt;Path&gt;" class="s5" d="m1176.9 236.7c0.1-0.1 0.1 0.1 0.1 0.1-3.4 2.5-4.5 6.5-5 10.6 0.8-1.7 2.1-2.9 4.4-2 0.1 0 0 0.2-0.1 0.2-1.6 0-2.7 0.6-3.4 2.1-0.5 1.1-0.7 2.3-1 3.5-0.1 0.4-0.8 0.4-0.7-0.1q0 0 0-0.1c-1.4-4.8 0.6-12.5 5.7-14.3z"/>
						</g>
					</g>
				</g>
				<g id="&lt;Group&gt;">
					<path id="&lt;Path&gt;" class="s4" d="m1314.7 480.4c0 0-76.6 14.2-118.9 15.1-14.9 0.3-59-8.2-59-8.2-0.8-0.5 15.5-18.4 17.5-46.3 3.7-50.7-4.3-128.3 3.2-151.6 2.9-9 22.4-21.4 33.2-18 22.1 7 69.1 69 96.6 120.1 19.8 36.5 27.4 88.9 27.4 88.9z"/>
				</g>
			</g>
			<g id="&lt;Group&gt;">
				<g id="&lt;Group&gt;">
					<g id="&lt;Group&gt;">
						<path id="&lt;Path&gt;" class="s14" d="m1171.3 299c14.3 23.1 21.5 120 19.1 129.3-5.6 21.7-71.3 43.7-102.1 50-7.8 1.5-1.1-62.7 7.2-64.5 15.2-3.5 40.5-9.7 43.4-15.4 2.8-5.7 9.3-61.2 11.4-89.8 1.8-24.1 13.7-21.3 21-9.6z"/>
					</g>
					<g id="&lt;Group&gt;">
						<g id="&lt;Group&gt;">
							<g id="&lt;Group&gt;">
								<g id="&lt;Group&gt;">
									<path id="&lt;Path&gt;" class="s14" d="m1099.4 414.4c0 0-13.3-2.2-25.8-3.7-15.1-1.8-53 1-74.9 37.7-8.3 14-2.2 26 9.1 13 8-9.2 12.7-16.3 16.1-18.5 0 0-0.7 18.5 7.8 25.1 3.8 3 14.4 10.8 23.5 15.7 0 0 1.6-1.7 3.3-4.1 0 0 16.6 6.4 29.8-1.3z"/>
								</g>
							</g>
							<g id="&lt;Group&gt;">
								<path id="&lt;Path&gt;" class="s14" d="m1058.9 410.6c-6.7 4.2-20.9 13.3-30 24.8-10 12.7-25.9 40-16.4 47.3 7 5.3 14-4.5 14-4.5 0 0-4.2 12.6 3.1 16.1 6.7 3.1 11.6-4.8 11.6-4.8 0 0-1.2 8.1 5.8 9.9 8.5 2.2 9.7-15.2 20.1-20.4 2.4-1.2-8.2-68.4-8.2-68.4z"/>
								<g id="&lt;Group&gt;">
									<path id="&lt;Path&gt;" class="s5" d="m1044.2 443.7c-5.7 5-15.8 19.6-17.9 34.2 0 0.3 0.2 0.5 0.3 0.2 5.6-15.5 13.9-28.8 17.7-34.3 0 0-0.1-0.1-0.1-0.1z"/>
								</g>
								<g id="&lt;Group&gt;">
									<path id="&lt;Path&gt;" class="s5" d="m1056.7 454.2c-4.4 4.8-14.2 20.4-15.7 35.2-0.1 0.3 0.2 0.5 0.3 0.2 5.2-16.5 12.1-29.6 15.6-35.3 0-0.1-0.1-0.1-0.2-0.1z"/>
								</g>
							</g>
						</g>
					</g>
				</g>
				<g id="&lt;Group&gt;">
					<path id="&lt;Path&gt;" class="s4" d="m1136.8 388.2l61.2 15.5c0 0-5.9-57.6-21.2-95.9-11.9-29.8-22.8-28.3-27.6-1.5-4.7 26.7-12.4 81.9-12.4 81.9z"/>
					<path id="&lt;Compound Path&gt;" class="s4" d="m1149.2 306.3c4.8-26.8 15.7-28.3 27.6 1.5 15.3 38.3 21.2 95.9 21.2 95.9l-61.2-15.5c0 0 7.7-55.2 12.4-81.9z"/>
					<g id="&lt;Group&gt;">
						<path id="&lt;Path&gt;" class="s5" d="m1196.9 396.1c-5.2-21.5-8.5-44.4-12.9-66 7 21.3 10.3 43.8 12.9 66z"/>
						<path id="&lt;Path&gt;" class="s5" d="m1187.2 332.5c1.1 3.1 1 6.6-0.1 9.6-0.2-3.2-0.1-6.3 0.1-9.6z"/>
					</g>
					<g id="&lt;Group&gt;">
						<path id="&lt;Path&gt;" class="s4" d="m1131.1 392l68.4 18.9-1.1-2.7 4.2-2.1-0.8-2.1 1.5-5.8-69-16.5 1.1 2.8-3.3 2.6 1.3 2.4z"/>
						<path id="&lt;Path&gt;" class="s15" d="m1131.1 392l68.4 18.9-1.1-2.7 4.2-2.1-0.8-2.1 1.5-5.8-69-16.5 1.1 2.8-3.3 2.6 1.3 2.4z"/>
					</g>
				</g>
			</g>
		</g>
	</g>
	<g id="Character 1">
		<g id="&lt;Group&gt;">
			<g id="&lt;Group&gt;">
				<path id="&lt;Path&gt;" class="s4" d="m573 270.6l240.2-10.6 5.1 114.4-240.3 10.6z"/>
				<path id="&lt;Path&gt;" class="s6" d="m573 270.6l240.2-10.6 0.6 12.7-240.3 10.6z"/>
				<g id="&lt;Group&gt;">
					<g id="&lt;Group&gt;">
						<path id="&lt;Path&gt;" class="s7" d="m591.7 370.6l75.9-3.4-3.4-75.8-75.8 3.3z"/>
						<path id="&lt;Path&gt;" class="s18" d="m601.4 312.3c-0.7 5.1 3.8 9.2 8.8 8 2.8-0.6 4.9-3 5.4-5.8 0.7-5.1-3.8-9.3-8.8-8.1-2.8 0.7-5 3-5.4 5.9z"/>
						<path id="&lt;Path&gt;" class="s0" d="m611.9 350l54.8-2.5-28.8-29.5z"/>
						<g id="&lt;Group&gt;">
							<path id="&lt;Path&gt;" class="s1" d="m590.8 350.9l45.3-2-23.5-19z"/>
						</g>
						<path id="&lt;Path&gt;" class="s0" d="m667.6 367.2l-75.9 3.4-0.9-19.7 75.9-3.4z"/>
					</g>
				</g>
				<g id="&lt;Group&gt;">
					<path id="&lt;Path&gt;" class="s7" d="m761.3 291.2l-83.9 3.7-0.2-4.1 84-3.7z"/>
					<path id="&lt;Path&gt;" class="s7" d="m738.6 306.3l-60.6 2.7-0.2-3.5 60.7-2.6z"/>
					<path id="&lt;Path&gt;" class="s7" d="m789.1 304.1l-44.6 2-0.2-3.5 44.7-2z"/>
					<path id="&lt;Path&gt;" class="s7" d="m720.4 316.1l-42 1.9-0.2-3.5 42-1.9z"/>
					<path id="&lt;Path&gt;" class="s7" d="m767.7 314l-42 1.9-0.2-3.5 42-1.8z"/>
					<path id="&lt;Path&gt;" class="s7" d="m754 323.6l-75.2 3.3-0.2-3.4 75.3-3.4z"/>
					<path id="&lt;Path&gt;" class="s7" d="m789.9 322l-29.9 1.3-0.2-3.4 29.9-1.3z"/>
					<path id="&lt;Path&gt;" class="s7" d="m739.8 333.2l-60.6 2.7-0.2-3.5 60.7-2.7z"/>
				</g>
			</g>
			<g id="&lt;Group&gt;">
				<g id="&lt;Group&gt;">
					<g id="&lt;Group&gt;">
						<g id="&lt;Group&gt;">
							<path id="&lt;Path&gt;" class="s19" d="m613.9 940.5c-4.8 1.5-145.2-1.5-150.3-4.9-2-1.3 10-134.3 10-134.3l89.1 1.7-10.1 89c0 0 51.8 24.5 57 28.9 5.2 4.3 9.1 18.1 4.3 19.6z"/>
							<path id="&lt;Path&gt;" class="s5" d="m613.9 940.5c-4.8 1.5-145.2-1.5-150.3-4.9-0.7-0.4-0.8-13.9 1.4-31.5 25.5 4.3 116.4 18.2 123.4 14 5-2.9 0.6-7.4-3.4-10.4 11.6 5.7 22.4 11.3 24.6 13.2 5.2 4.3 9.1 18.1 4.3 19.6z"/>
						</g>
						<g id="&lt;Group&gt;">
							<path id="&lt;Path&gt;" class="s5" d="m555.1 870.6l-87.5-1.2c0 0 17.4-209.4 16.6-213.4-0.9-5.2-62.9-248.4-62.9-248.4h83.4c0 0 65.8 226.7 68.2 248.5 3.8 35.3-17.8 214.5-17.8 214.5z"/>
							<g id="&lt;Group&gt;">
								<path id="&lt;Path&gt;" class="s8" d="m475.5 849.7c5.2-0.4 10.4-0.3 15.6-0.4q7.7-0.1 15.5 0c10.4 0.1 20.8 0.2 31.1 0.5q4.3 0.1 8.5 0.3c3.1 0.1 6.1 0.7 9.1 0.8 0.2 0 0.2 0.3 0 0.3-2.6 0.1-5.1 0.4-7.7 0.5q-3.9 0.1-7.9 0.1-7.8 0-15.5 0c-10.4-0.1-20.8-0.3-31.1-0.7-5.9-0.2-11.8-0.3-17.6-0.9-0.4 0-0.3-0.5 0-0.5z"/>
								<path id="&lt;Path&gt;" class="s8" d="m439.6 427.2c7.5 26.5 14.3 53.1 21 79.8q10.1 40 20 80 5 20 10 40c3.2 13 6.9 26 7.7 39.5 0.9 13.6-0.9 27.4-2 40.9-1.2 13.7-2.3 27.3-3.5 41-2.4 27.3-4.7 54.6-7.7 81.9q-0.5 5.1-1.1 10.2c0 0.3-0.4 0.3-0.4 0 1.8-27.3 3.7-54.6 5.9-81.9q1.6-20.5 3.3-41c1.1-13.6 2.7-27.3 3.1-40.9 0.5-13.8-2.1-27.1-5.4-40.4q-4.9-19.6-9.8-39.1c-6.7-26.7-13.3-53.4-20-80-7.4-29.9-14.8-59.8-21.3-89.9 0-0.2 0.2-0.2 0.2-0.1z"/>
							</g>
							<path id="&lt;Path&gt;" class="s8" d="m421.3 407.6c0 0 26.6 104.3 45.2 177.8l35.5-177.8z"/>
						</g>
					</g>
					<g id="&lt;Group&gt;">
						<g id="&lt;Group&gt;">
							<g id="&lt;Group&gt;">
								<path id="&lt;Path&gt;" class="s19" d="m509.1 940.9c-4.8 1.5-145.3-1.6-150.4-5-2-1.3 5.4-134.4 5.4-134.4l87.8 1.7-4.2 89.1c0 0 51.8 24.5 57 28.9 5.3 4.3 9.2 18.2 4.4 19.7z"/>
								<path id="&lt;Path&gt;" class="s5" d="m509.1 940.9c-4.8 1.4-145.3-1.6-150.4-5-0.6-0.4-0.5-13.6 0-31.5 25.5 4.3 117.8 18.2 124.9 14.1 4.9-2.9 0.5-7.5-3.5-10.5 11.6 5.8 22.4 11.3 24.7 13.2 5.2 4.3 9.1 18.2 4.3 19.7z"/>
							</g>
						</g>
						<g id="&lt;Group&gt;">
							<path id="&lt;Path&gt;" class="s5" d="m502 407.6c0 0-4.7 58.9-14.4 73.8 0 0-9.6 3.3-24.2 12 0 0-6 157.9-5.9 167.3 0.4 35.5-8.7 208.2-8.7 208.2l-88.2-0.9c0 0 9.2-195.2 9.2-208.2 0.1-12.6 6-91.8 11.3-160.5 0 0-7.8-22-6.9-33.1 2.1-26.9 14.1-58.6 14.1-58.6z"/>
							<g id="&lt;Group&gt;">
								<path id="&lt;Path&gt;" class="s8" d="m471 463.7q0.5-3.4 1-6.7c0.6-4 1.5-8 2.2-12.1 1.6-9.1 3.2-18.3 5.3-27.3 0-0.3 0.4-0.2 0.4 0q-0.6 5.5-1.3 11c-0.5 3.6-0.9 7.3-1.4 10.9-1 7.3-2 14.5-3.3 21.7-0.4 2.7-2.2 7.7 1.8 8.6 3.2 0.7 5.5-2.4 6.4-5 1.1-3.2 1.5-6.7 2.1-10q1-5.5 1.8-11c1.1-8 2.3-15.9 3.6-23.9 0.1-0.2 0.4-0.2 0.4 0.1-0.2 8.2-0.7 16.3-1.7 24.4q-0.8 5.9-1.8 11.7c-0.6 3.6-1.1 7.5-2.7 10.8-1.2 2.6-3.5 5-6.6 5.3q0 0-0.1 0 0.1 0.1 0.1 0.2c-0.1 1.3 0 2.6-0.2 3.9-0.1 1.3-0.4 2.6-0.6 3.8-0.3 1.3-0.6 2.6-1 3.8q-0.3 0.9-0.7 1.8c-0.3 0.6-0.7 1-1 1.6-0.2 0.2-0.4 0.1-0.5-0.2q0-0.3 0-0.6 0.1 0 0.1-0.1 0 0 0 0 0-0.6 0-1.1 0.2-1 0.4-1.9c0.3-1.2 0.6-2.4 0.9-3.7 0.4-1.2 0.6-2.4 0.9-3.6 0.4-1.3 0.8-2.5 1.1-3.8q0-0.1 0.1-0.1c-2.4 0-4.8-1.2-5.6-3.5-0.6-1.6-0.3-3.4-0.1-5z"/>
								<path id="&lt;Path&gt;" class="s8" d="m456.3 495.4c2.5-2.1 5.4-3.8 8.2-5.5 3.1-1.8 6.2-3.5 9.5-4.9 6.4-2.8 13-4.7 19.5-6.8 0.2-0.1 0.4 0.2 0.2 0.3-6.4 2.5-12.5 5.9-18.7 8.9q-4.5 2.2-9.2 4.3c-3.1 1.3-6.1 2.9-9.3 4.1-0.2 0.1-0.4-0.3-0.2-0.4z"/>
								<path id="&lt;Path&gt;" class="s8" d="m406.5 446.1c4.5 0 20-1.1 24.6-6.3 2.6-3 4.4-6.7 5.7-10.3 1.5-4.2 2.6-8.3 3.5-12.6 0-0.2 0.4-0.1 0.4 0 0.1 4.8-0.6 9.7-1.9 14.3-1 4-2.5 8.4-5.7 11.1-3.3 2.9-7.9 3.9-12.2 4.5-4.8 0.6-9.6 0.4-14.4-0.2-0.3-0.1-0.3-0.5 0-0.5z"/>
								<path id="&lt;Path&gt;" class="s8" d="m512.6 447.3c-1.4 0-5.5-2.9-6-3.6-3.4-5.1-4.2-21.3-4.5-25.6 0-0.2-0.1-0.1-0.1 0.1 0 4.7 0.2 9.6 0.6 14.2 0.3 4 0.8 8.4 1.7 11.1 1.1 2.9 6.8 4.9 8.3 4.3 0.1-0.1 0.1-0.5 0-0.5z"/>
								<path id="&lt;Path&gt;" class="s8" d="m364.5 851c5.2-0.4 10.4-0.3 15.6-0.4q7.8-0.1 15.6 0c10.3 0.1 20.7 0.2 31.1 0.5q4.2 0.1 8.5 0.3c3 0.1 6 0.7 9.1 0.8 0.2 0 0.2 0.3-0.1 0.3-2.5 0.1-5.1 0.4-7.6 0.5q-4 0.1-7.9 0.1-7.8 0-15.6-0.1c-10.3 0-20.7-0.2-31.1-0.6-5.8-0.2-11.7-0.3-17.6-0.9-0.3 0-0.3-0.5 0-0.5z"/>
								<path id="&lt;Path&gt;" class="s8" d="m375.3 839.5q0 0-0.1 0c-0.5 0-1-0.6-1-1.1l19.9-341.8c-0.2-1.5-5.8-20.6-6.3-30.3-0.6-10.3 10.1-50.5 10.6-52.2 0.1-0.6 0.7-0.9 1.3-0.8 0.5 0.2 0.9 0.8 0.7 1.3-0.1 0.5-11 41.6-10.5 51.6 0.5 10 6.3 30 6.4 30.2 0 0-19.9 342.1-19.9 342.1-0.1 0.5-0.5 1-1.1 1z"/>
							</g>
						</g>
					</g>
				</g>
			</g>
			<g id="&lt;Group&gt;">
				<g id="&lt;Group&gt;">
					<g id="&lt;Group&gt;">
						<path id="&lt;Path&gt;" class="s5" d="m471.9 245.8c-1 0.3-2 0.8-2.9 1.5-3.9 3.2-4.8 8.4-4.7 13.1 0.2 5.1 1.5 10.4-0.1 15.3-0.6 2-1.7 3.8-3.4 4.9-2 1.1-4.3 0.9-6.4 0.2-2.2-0.7-4.7-2-7-1.2-2 0.7-3.2 2.7-3.8 4.6-1.4 4.9 1.6 10 2.2 14.9 0.6 5.2-0.3 10.5-2.8 15.2-2.2 4.3-5.9 7.9-10.1 10.3-2.1 1.2-4.4 2.1-6.7 2.6-2.6 0.6-5.3 0.6-7.9 1-2.5 0.5-5.1 1.5-6.5 3.7-1.1 1.7-1.1 9.1 4.4 16.3 0.4 0.5-0.6 1.2-1.2 0.8q-1.7-1-3.2-2.3c-8.7-7.1-13.6-18-12.9-29.2 0.4-5.9 2.3-11.7 5.5-16.7 1.7-2.8 3.7-5.5 4.9-8.6 1.1-2.7 1.4-5.6 1.1-8.6-0.5-5.5-2.3-10.9-1.8-16.6 0.4-5 2.2-9.9 5-14.1 5.8-8.8 15.3-14.4 25.7-15.8 10.3-1.3 33.2 8.5 32.6 8.7z"/>
						<path id="&lt;Path&gt;" class="s5" d="m471.6 245.9c-2 0.9-3.9 1.9-5.4 3.6-1.2 1.5-2 3.4-2.4 5.3-0.9 4.3 0 8.6 0.8 12.8 0.8 4 1.4 8.3-0.4 12.1-0.7 1.6-1.8 3.2-3.3 4.2-1.8 1.1-3.7 1.2-5.7 0.8-3.6-0.7-7.9-2.7-11.1-0.1-3.2 2.6-2.6 7.5-2.1 11 1.1 8.7 3.8 19.7-3.4 26.6-3.7 3.5-8.9 5.6-13.7 6.9-3.4 0.9-7.8 2.1-9.4 5.7-0.1 0.1 0.1 0.2 0.2 0.1 1.7-3.8 6.3-4.2 9.9-5 4.2-1 8.4-2.6 12-5.1 3.6-2.6 5.8-6.4 6.7-10.7 0.8-4.4 0.4-8.9-0.3-13.3-0.3-2.2-0.7-4.5-1-6.8-0.2-2-0.4-4.2 0.3-6.1 0.7-2.2 2.5-3.3 4.7-3.4 2.1-0.1 4.2 0.7 6.2 1.2 1.9 0.4 3.8 0.6 5.6-0.1 1.5-0.5 2.7-1.5 3.7-2.7 2.3-2.7 3.2-6.2 3.1-9.7-0.2-4.9-2.1-9.6-2.2-14.6 0-2.5 0.3-5.1 1.6-7.3 1.4-2.4 3.6-3.6 5.8-4.9 0.3-0.2 0.1-0.6-0.2-0.5z"/>
						<path id="&lt;Path&gt;" class="s5" d="m435.5 234.6c-10.5 1.2-19.3 8.7-23.3 18.3-2.3 5.3-3 11.2-2.6 16.9 0.4 5.4 1.5 10.9 0.7 16.3-0.8 6-4.8 10.4-8 15.3-2.6 3.9-4.3 8.3-5 13-1.4 9 0.9 18.5 6.3 25.7q1.1 1.4 2.2 2.7c0.1 0.1 0.3 0 0.2-0.1-6.1-6.8-8.7-16.3-7.8-25.3 0.4-4.4 1.7-8.8 3.8-12.7 2.7-4.8 6.7-8.8 8.7-14 1.9-4.8 1.5-10.2 0.9-15.2-0.7-5.6-1.3-11 0-16.5 2.2-10.2 9.6-19.1 19.8-22.2 11.3-3.5 22.9 0.8 32.9 6q2 1.1 4 2.2c0.2 0 0.3-0.2 0.1-0.3-9.9-5.8-21.1-11.4-32.9-10.1z"/>
					</g>
					<path id="&lt;Path&gt;" class="s4" d="m475.5 240.7c-1.4-1.2-3.9-1.7-4.9-1-1 0.6-3.9 9.5-2.7 11.5 1.2 2 5.2 0.4 5.2 0.4z"/>
				</g>
				<g id="&lt;Group&gt;">
					<path id="&lt;Path&gt;" class="s4" d="m504.2 390.3l0.7 34.7c0 0-4.7-0.7-20.1-3l-2.5-12.8-8.3 11.4-85.7-13c0 0 39-92 60.4-108.9 17-13.5 33.8-9.6 42.9 3.2 2.4 3.2 23.6 47.7 24.4 64.8 0.7 15.1-11.8 23.6-11.8 23.6z"/>
					<g id="&lt;Group&gt;">
						<path id="&lt;Path&gt;" class="s5" d="m465.1 377.2c6 1.3 12 2.9 17.8 5.1 2.9 1.2 5.7 2.5 8.5 3.8q2 1 4.2 1.9c1.4 0.6 3 1.2 4.5 1.4 0.2 0.1 0.2 0.3 0 0.3-1.5-0.1-3-0.2-4.5-0.6-1.4-0.3-2.8-0.8-4.2-1.3-2.9-1.1-5.8-2.4-8.7-3.5-5.9-2.4-11.7-4.7-17.7-6.5-0.3-0.1-0.2-0.7 0.1-0.6z"/>
						<path id="&lt;Path&gt;" class="s5" d="m449.4 381.6c5.1-0.1 10.2 0.2 15.2 0.7 2.6 0.3 5 0.8 7.5 1.3q1.8 0.4 3.6 0.8c1.3 0.4 2.6 0.9 3.9 1.2 0.1 0 0.1 0.2-0.1 0.2-1.2-0.2-2.5-0.2-3.7-0.4q-1.9-0.3-3.8-0.5c-2.5-0.3-5-0.6-7.6-1-5-0.7-10-1.3-15.1-1.9-0.2 0-0.2-0.4 0.1-0.4z"/>
					</g>
				</g>
				<g id="&lt;Group&gt;">
					<g id="&lt;Group&gt;">
						<path id="&lt;Path&gt;" class="s19" d="m445.7 332.4c7.1 53.1 32.5 120.7 50.8 123.7 20.4 3.3 11.3-69.3 8.7-71.1-1.9-1.3-21.3-28.3-40.8-61.1-19.4-32.7-20.5-4.7-18.7 8.5z"/>
						<g id="&lt;Group&gt;">
							<g id="&lt;Group&gt;">
								<path id="&lt;Path&gt;" class="s4" d="m505.5 384.8c-3.2-4.5-29.2-47.1-40.9-65.3-11.6-18.1-22.3-15.8-20.1 11.8 2.2 27.6 14.2 81 34 109.4 19.1 27.3 30.9 17 32.6-9 1.3-21.4-5.6-46.9-5.6-46.9z"/>
							</g>
							<g id="&lt;Group&gt;">
								<path id="&lt;Path&gt;" class="s5" d="m510.1 392.4c-3.8-5.7-7.5-11.5-11.2-17.3-3.6-5.8-7.2-11.7-10.9-17.5l-10.7-17.6-5.2-8.8c-1.8-3-3.5-5.9-5.2-8.9 1.9 2.9 3.7 5.8 5.6 8.6l5.5 8.7 10.9 17.5c3.6 5.9 7.2 11.7 10.7 17.6 3.5 5.9 7.1 11.7 10.5 17.7z"/>
								<path id="&lt;Path&gt;" class="s5" d="m475.5 335.7c-0.9-1.6-1.5-3.3-2.1-5q-0.5-1.2-0.9-2.5c-0.2-0.9-0.5-1.8-0.7-2.6 1 1.5 1.6 3.2 2.3 4.9 0.5 1.7 1.1 3.4 1.4 5.2z"/>
							</g>
						</g>
					</g>
					<g id="&lt;Group&gt;">
						<g id="&lt;Group&gt;">
							<path id="&lt;Path&gt;" class="s19" d="m496.5 456c15.3 1.4 31.3-13.1 78.8-51.1 6.6-5.3-17.6-63.6-25-58.4-9.2 6.6-43.4 34.3-45.7 36.7-19 19.7-18.5 71.8-8.1 72.8z"/>
							<g id="&lt;Group&gt;">
								<path id="&lt;Path&gt;" class="s19" d="m536.3 361.4c0 0 13.9-18.4 23.5-30 5.3-6.5 15.5-16.7 21.6-19.7 9.2-4.4 50.3-17 53.5-7.1 3 9-33.7 15.3-33.7 15.3 0 0 36.4-9.6 38 1.8 1.6 11.4-40.8 13.1-40.8 13.1 0 0 37.7-9.1 37.4 2.9-0.1 9.2-38.4 12.8-38.4 12.8 0 0 32.4-7.6 32.6 1.8 0.2 10.4-34.9 15.9-34.9 15.9-3.4 24-14.9 33.9-23.8 40.1-2.2 1.4-35-46.9-35-46.9z"/>
								<g id="&lt;Group&gt;">
									<path id="&lt;Path&gt;" class="s5" d="m588.4 322.5c4.2-1.3 8.5-2.7 12.9-3.6 4.3-0.9 8.7-1.6 13.1-2.1 10.8-1.3 17.7-0.3 17.3-0.4-10.3-0.2-25.9 2.8-30.2 3.7-4.4 0.9-8.7 1.6-13.1 2.5-0.1 0-0.1-0.1 0-0.1z"/>
									<path id="&lt;Path&gt;" class="s5" d="m591.4 338.2c5.5-1.4 10.9-3 16.4-4.2 5.5-1.2 10.9-1.8 16.5-2.6 0.4 0 0.3 0.2-0.1 0.3-5.6 1-10.6 2.4-16.2 3.4-5.5 1.1-11.1 1.9-16.6 3.2-0.1 0-0.1-0.1 0-0.1z"/>
									<path id="&lt;Path&gt;" class="s5" d="m591.6 352.1c8.2-2.6 17-3.6 25.5-4.4 0.5-0.1 0.3 0.2-0.1 0.3-8.6 1.3-15.3 2.3-25.4 4.4-0.1 0.1-0.2-0.2 0-0.3z"/>
								</g>
							</g>
						</g>
						<g id="&lt;Group&gt;">
							<path id="&lt;Path&gt;" class="s4" d="m544 349.8l10.6 77.6c0 0-43.1 31.9-58.5 29.1-10.1-1.8-12.3-55 10.3-75.2z"/>
							<g id="&lt;Group&gt;">
								<path id="&lt;Path&gt;" class="s5" d="m490.5 414.8c0.4-6 3-21.7 15.9-33.6 0.1-0.1 0.3 0.1 0.2 0.2-8.7 9.8-14.9 27.7-15.9 33.4 0 0.2-0.2 0.1-0.2 0z"/>
								<path id="&lt;Path&gt;" class="s5" d="m538 432c-1.7-8.4-2.9-17-4-25.5-1.2-8.6-2.3-17.1-3.3-25.7-0.5-4.9-1.1-9.7-1.4-14.6 0-0.1 0.2-0.2 0.2 0 1.6 8.4 2.8 17 4 25.5q1.9 12.8 3.4 25.7 0.9 7.2 1.5 14.5c0 0.3-0.4 0.4-0.4 0.1z"/>
								<path id="&lt;Path&gt;" class="s5" d="m543.4 349.3c-2.8 1.7-5.4 3.9-8 6q-3.9 3.2-7.7 6.5c-5.1 4.4-16.3 13-24.2 22.3 0 0.1 0.9 0 1-0.1 3.5-4.6 36.6-31 39-33.5q0.1 0.4 0.3 0.8c0.1 0.1 0.4 0.1 0.4-0.1 0.1-0.5 0-0.9 0-1.5 0-0.4-0.4-0.6-0.8-0.4z"/>
							</g>
						</g>
					</g>
					<g id="&lt;Group&gt;">
						<g id="&lt;Group&gt;">
							<path id="&lt;Path&gt;" class="s5" d="m443.1 348.7c7.7 24.2 28.9 100.7 53.3 107.9-27-6.7-47.7-82.4-53.3-107.9z"/>
						</g>
						<g id="&lt;Group&gt;">
							<path id="&lt;Path&gt;" class="s5" d="m442.3 353.2c1.8 3.1 3.4 6.2 4.6 9.6-2.4-2.7-4.1-6-4.6-9.6z"/>
						</g>
					</g>
				</g>
				<path id="&lt;Path&gt;" class="s19" d="m455.2 293.8c0 0 27.3 37.3 37.8 35.3 10.6-1.9-1.4-27.2-1.4-27.2 0 0-12.1-19.7-36.4-8.1z"/>
				<g id="&lt;Group&gt;">
					<g id="&lt;Group&gt;">
						<g id="&lt;Group&gt;">
							<path id="&lt;Path&gt;" class="s19" d="m465.2 291.9c0 2.3 7.2 18.3 17 20 3.2 0.5 6.9-16.8 6.9-16.8l0.6-1.3 7.9-17-18.1-18.1-2.7-2.4c0 0-1.9 4.8-4.1 10.8q-0.2 0.4-0.3 0.8-0.2 0.5-0.4 1-0.5 1.3-1 2.7c-0.3 0.7-0.5 1.4-0.8 2.1q-0.4 1.1-0.7 2.2c-2.5 7.4-4.3 15.1-4.3 16z"/>
							<path id="&lt;Path&gt;" class="s5" d="m472.7 267.1c2 15.3 12.1 23.6 17 26.7l7.9-17-18.1-18.1-2.7-2.4c0 0-1.9 4.8-4.1 10.8z"/>
						</g>
						<g id="&lt;Group&gt;">
							<path id="&lt;Path&gt;" class="s19" d="m525.9 245c4.4 32.7-14.7 39-21.7 39.9-6.4 0.9-28.3 3-36.1-29.1-7.7-32 6.1-44.4 20.6-47.1 14.6-2.8 32.8 3.6 37.2 36.3z"/>
							<g id="&lt;Group&gt;">
								<path id="&lt;Path&gt;" class="s5" d="m520.5 242.8c-0.8 0-1.5-0.2-2.3-0.3-0.8-0.1-1.6-0.1-2.2-0.8-0.4-0.3-0.4-1-0.1-1.4 0.7-0.9 1.8-1 2.8-0.9 1.1 0.2 2 0.6 2.8 1.4 0.8 0.8 0 2.1-1 2z"/>
								<path id="&lt;Path&gt;" class="s5" d="m498.4 243.4c0.8-0.1 1.5-0.4 2.2-0.6 0.9-0.2 1.5-0.3 2.1-1 0.3-0.4 0.3-1.1-0.1-1.5-0.7-0.8-1.8-0.7-2.9-0.5-1.1 0.3-1.9 0.8-2.5 1.7-0.7 0.9 0.2 2.1 1.2 1.9z"/>
								<g id="&lt;Group&gt;">
									<g id="&lt;Group&gt;">
										<path id="&lt;Path&gt;" class="s5" d="m503.7 249.5c-0.1-0.1-0.2 0.1-0.2 0.2 0.3 2.2 0.2 4.8-1.7 5.7-0.1 0-0.1 0.2 0 0.1 2.4-0.5 2.5-4 1.9-6z"/>
										<path id="&lt;Path&gt;" class="s5" d="m501.5 247.3c-3.6 0-3.3 7.3 0.1 7.2 3.3 0 2.9-7.2-0.1-7.2z"/>
									</g>
									<path id="&lt;Path&gt;" class="s5" d="m500.1 247.7c-0.6 0.5-1.2 1.2-2 1.3-0.9 0.2-1.6-0.6-2.2-1.3 0 0-0.1 0-0.1 0.1 0 1.4 0.6 2.8 2.1 3 1.4 0.1 2.3-1.2 2.6-2.6 0.1-0.3-0.2-0.6-0.4-0.5z"/>
								</g>
								<g id="&lt;Group&gt;">
									<g id="&lt;Group&gt;">
										<path id="&lt;Path&gt;" class="s5" d="m516.1 247.8c0-0.1 0.2 0.1 0.2 0.2 0 2.2 0.4 4.8 2.4 5.5 0.1 0 0.1 0.1 0 0.1-2.5-0.3-3-3.7-2.6-5.8z"/>
										<path id="&lt;Path&gt;" class="s5" d="m518 245.4c3.6-0.5 4.2 6.8 0.8 7.2-3.2 0.3-3.8-6.9-0.8-7.2z"/>
									</g>
									<path id="&lt;Path&gt;" class="s5" d="m519.5 245.7c0.6 0.4 1.3 1 1.9 1 0.8 0 1.4-0.8 1.8-1.6 0.1-0.1 0.1-0.1 0.1 0 0.2 1.4-0.2 2.9-1.5 3.3-1.2 0.3-2.1-0.8-2.6-2.2-0.1-0.2 0.1-0.6 0.3-0.5z"/>
								</g>
								<path id="&lt;Path&gt;" class="s5" d="m504.5 268.4c0.5 0.5 1.1 1.2 1.9 1.3 0.8 0.1 1.7-0.3 2.4-0.6 0.1 0 0.2 0.1 0.1 0.2-0.6 0.8-1.8 1.4-2.8 1.2-1.1-0.2-1.6-1.1-1.8-2 0-0.1 0.1-0.2 0.2-0.1z"/>
								<g id="&lt;Group&gt;">
									<path id="&lt;Path&gt;" class="s5" d="m513.4 259.7c0 0 0.7 3.4 0.8 4.9 0 0.2-0.4 0.3-1 0.3q0 0.1 0 0c-2.8 0.6-5.6-0.1-7.5-2.3-0.1-0.2 0.1-0.3 0.3-0.3 2.1 1.5 4.4 1.7 6.9 1.6 0.1-0.4-1.3-5.6-1.1-5.7 0.9-0.1 2.6 0.4 3.7 0.6-1.2-6.9-3.5-13.6-4.6-20.6 0-0.2 0.4-0.3 0.5-0.1 2.8 6.8 4.4 14.8 5.8 22 0.2 0.9-3.2-0.1-3.8-0.4z"/>
								</g>
								<g id="&lt;Group&gt;">
									<path id="&lt;Path&gt;" class="s5" d="m513.1 264.4c0 0-1.3 2.2-3.3 3.2-0.8 0.4-1.6 0.6-2.5 0.5-1.8-0.3-2.1-1.9-1.9-3.4 0.1-1.2 0.5-2.2 0.5-2.2 0 0 2.9 2.1 7.2 1.9z"/>
									<path id="&lt;Path&gt;" class="s17" d="m509.8 267.6c-0.8 0.4-1.6 0.6-2.5 0.5-1.8-0.3-2.1-1.9-1.9-3.4 1.9 0 4 1.1 4.4 2.9z"/>
								</g>
							</g>
							<g id="&lt;Group&gt;">
								<path id="&lt;Path&gt;" class="s5" d="m468.2 257.6c7.4-3.3 7.8-11 7.8-11 9.2-3.7 14.2-10.7 14.7-11.4-0.2 0.6-1.9 5.5-2.8 8 21-3.6 27.7-19.6 27.7-19.6 6.7 6.9 8 11.3 9 13.5 0 0 0.3-12.9-6.2-21.6-7.9-10.7-19-8.8-19-8.8 0 0-16.2-5.1-29.1 8.4-13.8 14.7-2.1 42.5-2.1 42.5z"/>
								<path id="&lt;Path&gt;" class="s5" d="m503.9 240c-3.4 1.8-7.1 3-10.9 3.8 0 0 0-0.1 0-0.1 6-1.6 11.3-4.6 15.6-9.1q2.7-2.8 4.6-6.2c1.3-2.4 2.6-5.2 2.9-8 0-0.2 0.3-0.2 0.3 0.1-0.3 2.8-0.6 5.5-1.8 8.2-1.1 2.5-2.7 4.9-4.7 6.9-1.8 1.7-3.8 3.2-6 4.4z"/>
							</g>
							<g id="&lt;Group&gt;">
								<g id="&lt;Group&gt;">
									<path id="&lt;Path&gt;" class="s19" d="m473.7 257.6c0 0-7.7-9.9-12.2-7.1-4.6 2.7 1.5 17.4 7.1 19.2 5.6 1.8 7.3-3.4 7.3-3.4z"/>
									<path id="&lt;Path&gt;" class="s5" d="m463.3 254.6c-0.1 0-0.1 0.1 0 0.2 3.9 1.3 6.1 4.8 7.7 8.4-1.2-1.3-2.8-2-4.7-0.6-0.1 0.1 0 0.2 0.2 0.2 1.5-0.4 2.7-0.2 3.8 1 0.8 0.9 1.3 2 1.9 3 0.2 0.3 0.8 0.1 0.7-0.3q0 0 0-0.1c-0.2-4.9-4.3-11.5-9.6-11.8z"/>
								</g>
							</g>
						</g>
					</g>
				</g>
			</g>
		</g>
	</g>
	<g id="Speech bubble">
		<g id="&lt;Group&gt;">
			<g id="&lt;Group&gt;">
				<g id="&lt;Group&gt;">
					<path id="&lt;Path&gt;" class="s7" d="m1296.3 168.1c-2.7 26.5-26.5 45.7-53 43-10.7-1.2-20.3-5.7-27.6-12.5l-24.2 3.6 12.1-20.9c-3-7.2-4.2-15.1-3.3-23.3 2.7-26.5 26.5-45.8 53-43 26.6 2.8 45.8 26.5 43 53.1z"/>
					<path id="&lt;Compound Path&gt;" fill-rule="evenodd" class="s5" d="m1296.3 168.1c-1 8.8-4.2 17.4-9.7 24.4-1.3 1.9-2.9 3.4-4.4 5.1-1.7 1.4-3.2 3-5.1 4.3-3.5 2.7-7.5 4.8-11.6 6.5-4.2 1.7-8.6 2.5-13 3.1-2.3 0.1-4.5 0.3-6.7 0.1q-3.4-0.1-6.7-0.7c-8.8-1.6-17-5.6-23.7-11.6l-23.8 3.7-1.7 0.3 0.9-1.6 11.7-20.5c-5.6-13.7-4.2-29.9 3.2-42.6 3.7-6.5 9-12 15.1-16.1 6.2-4.2 13.3-6.8 20.6-7.8 7.3-0.9 14.9-0.3 21.9 2 6.9 2.4 13.3 6.4 18.6 11.5 10.7 10.1 16 25.3 14.4 39.9zm-80.9 31.2h0.4l-0.6-0.2q0.1 0.1 0.2 0.2zm-12.9-18.1q0.1 0.2 0.2 0.4l0.1-0.8zm93.8-13.1c1.4-14.6-4-29.7-14.7-39.7-5.3-5-11.7-8.8-18.6-11-6.9-2.2-14.4-2.7-21.5-1.6-7.1 1.1-14 3.7-19.9 7.9-5.9 4.1-10.9 9.5-14.5 15.7-3.6 6.2-5.5 13.3-6.1 20.5-0.5 7.1 0.7 14.4 3.4 21l0.2 0.4-0.3 0.4-11.2 19.4 22.4-3.2h0.3l0.3 0.2c6.3 6 14.4 10.2 23.1 11.9q3.2 0.7 6.5 0.8c2.2 0.2 4.4 0.1 6.6 0 4.4-0.5 8.8-1.2 12.9-2.9 4.2-1.5 8.2-3.5 11.7-6.2 1.8-1.3 3.4-2.8 5.1-4.3 1.5-1.6 3.1-3.2 4.4-5 5.5-6.9 8.8-15.5 9.9-24.3zm-103.2 33l-1.8 0.2 0.9 1.3z"/>
				</g>
				<g id="&lt;Group&gt;">
					<path id="&lt;Path&gt;" class="s5" d="m1223.4 163c0 2.4 2 4.4 4.5 4.4 2.4 0 4.4-2 4.4-4.4 0-2.5-2-4.5-4.4-4.5-2.5 0-4.5 2-4.5 4.5z"/>
					<path id="&lt;Path&gt;" class="s5" d="m1244.8 163c0 2.4 1.9 4.4 4.4 4.4 2.5 0 4.4-2 4.4-4.4 0-2.5-1.9-4.5-4.4-4.5-2.5 0-4.4 2-4.4 4.5z"/>
					<path id="&lt;Path&gt;" class="s5" d="m1266.1 163c0 2.4 2 4.4 4.4 4.4 2.5 0 4.5-2 4.5-4.4 0-2.5-2-4.5-4.5-4.5-2.4 0-4.4 2-4.4 4.5z"/>
				</g>
			</g>
			<g id="&lt;Group&gt;">
				<g id="&lt;Group&gt;">
					<path id="&lt;Path&gt;" class="s7" d="m629.5 179c-2.8 26.5-26.5 45.7-53 43-10.8-1.2-20.3-5.7-27.7-12.5l-24.1 3.6 12.1-20.9c-3-7.2-4.2-15.1-3.4-23.3 2.8-26.5 26.6-45.8 53.1-43 26.5 2.8 45.8 26.5 43 53.1z"/>
					<path id="&lt;Compound Path&gt;" fill-rule="evenodd" class="s5" d="m629.5 179c-1 8.8-4.2 17.4-9.7 24.4-1.3 1.9-2.9 3.4-4.4 5.1-1.7 1.4-3.2 3-5.1 4.3-3.5 2.7-7.5 4.8-11.7 6.5-4.1 1.7-8.5 2.5-13 3.1-2.2 0.1-4.4 0.3-6.7 0.1q-3.3-0.1-6.6-0.7c-8.8-1.6-17.1-5.6-23.7-11.6l-23.8 3.7-1.8 0.3 0.9-1.6 11.8-20.5c-5.6-13.7-4.3-29.9 3.2-42.6 3.7-6.5 8.9-12 15.1-16.1 6.1-4.2 13.3-6.8 20.6-7.8 7.3-0.9 14.8-0.3 21.8 2 7 2.4 13.4 6.4 18.7 11.5 10.6 10.1 16 25.3 14.4 39.9zm-80.9 31.2h0.3l-0.5-0.2q0.1 0.1 0.2 0.2zm-12.9-18.1q0.1 0.2 0.2 0.4v-0.8zm93.9-13.1c1.4-14.6-4-29.7-14.7-39.7-5.3-5-11.7-8.8-18.6-11-7-2.2-14.4-2.7-21.5-1.6-7.2 1.1-14.1 3.7-20 7.9-5.9 4.1-10.8 9.5-14.4 15.7-3.7 6.2-5.6 13.3-6.1 20.5-0.5 7.1 0.7 14.4 3.4 21l0.1 0.4-0.2 0.4-11.3 19.4 22.5-3.2h0.3l0.2 0.2c6.4 6 14.5 10.2 23.2 11.9q3.2 0.7 6.5 0.8c2.2 0.2 4.4 0.1 6.6 0 4.4-0.5 8.8-1.2 12.9-2.9 4.2-1.5 8.1-3.5 11.7-6.2 1.8-1.3 3.4-2.8 5.1-4.3 1.5-1.6 3.1-3.2 4.4-5 5.5-6.9 8.8-15.5 9.9-24.3zm-103.3 33l-1.7 0.2 0.8 1.3z"/>
				</g>
				<g id="&lt;Group&gt;">
					<path id="&lt;Path&gt;" class="s5" d="m556.6 173.9c0 2.4 2 4.4 4.5 4.4 2.4 0 4.4-2 4.4-4.4 0-2.5-2-4.5-4.4-4.5-2.5 0-4.5 2-4.5 4.5z"/>
					<path id="&lt;Path&gt;" class="s5" d="m577.9 173.9c0 2.4 2 4.4 4.5 4.4 2.4 0 4.4-2 4.4-4.4 0-2.5-2-4.5-4.4-4.5-2.5 0-4.5 2-4.5 4.5z"/>
					<path id="&lt;Path&gt;" class="s5" d="m599.3 173.9c0 2.4 1.9 4.4 4.4 4.4 2.5 0 4.4-2 4.4-4.4 0-2.5-1.9-4.5-4.4-4.5-2.5 0-4.4 2-4.4 4.5z"/>
				</g>
			</g>
		</g>
	</g>
</svg>