<svg version="1.2" xmlns="http://www.w3.org/2000/svg" viewBox="0 0 1500 1000" width="1500" height="1000">
	<title>5063182-ai</title>
	<style>
		.s0 { fill: none;stroke: #ebebeb;stroke-miterlimit:10;stroke-width: 2 } 
		.s1 { fill: #a6a6a6 } 
		.s2 { fill: #ebebeb } 
		.s3 { fill:  #BA68C8 } 
		.s4 { fill: #263238 } 
		.s5 { fill: #37474f } 
		.s6 { fill: #dbdbdb } 
		.s7 { fill: #ffffff } 
		.s8 { fill: #455a64 } 
		.s9 { fill: #c7c7c7 } 
		.s10 { fill: none;stroke:  #BA68C8;stroke-miterlimit:10 } 
		.s11 { opacity: .9;fill:  #BA68C8 } 
		.s12 { opacity: .8;fill:  #BA68C8 } 
		.s13 { opacity: .7;fill:  #BA68C8 } 
		.s14 { opacity: .6;fill:  #BA68C8 } 
		.s15 { opacity: .5;fill:  #BA68C8 } 
		.s16 { opacity: .4;fill:  #BA68C8 } 
		.s17 { opacity: .3;fill:  #BA68C8 } 
		.s18 { opacity: .2;fill:  #BA68C8 } 
		.s19 { opacity: .1;fill:  #BA68C8 } 
		.s20 { opacity: 0;fill:  #BA68C8 } 
		.s21 { fill: #000000 } 
		.s22 { fill: #f7a9a0 } 
		.s23 { opacity: .1;fill: #000000 } 
		.s24 { fill: #ff9abb } 
	</style>
	<g id="Background Complete">
		<g id="&lt;Group&gt;">
			<path id="&lt;Path&gt;" class="s0" d="m497.4 258.3h-251.3v-171.3h251.3z"/>
			<g id="&lt;Group&gt;">
				<path id="&lt;Path&gt;" class="s1" d="m264.9 97.2c0 2.8-2.3 5-5.1 5-2.7 0-5-2.2-5-5 0-2.8 2.3-5.1 5-5.1 2.8 0 5.1 2.3 5.1 5.1z"/>
				<path id="&lt;Path&gt;" class="s2" d="m285.5 97.2c0 2.8-2.3 5-5.1 5-2.8 0-5-2.2-5-5 0-2.8 2.2-5.1 5-5.1 2.8 0 5.1 2.3 5.1 5.1z"/>
				<path id="&lt;Path&gt;" class="s3" d="m306.1 97.2c0 2.8-2.3 5-5.1 5-2.8 0-5-2.2-5-5 0-2.8 2.2-5.1 5-5.1 2.8 0 5.1 2.3 5.1 5.1z"/>
			</g>
			<path id="&lt;Path&gt;" class="s0" d="m246.1 107h251.3"/>
		</g>
		<g id="&lt;Group&gt;">
			<g id="&lt;Group&gt;">
				<g id="&lt;Group&gt;">
					<path id="&lt;Path&gt;" class="s0" d="m191.2 718.4v-251.3l-53.5-73v-136.6"/>
					<path id="&lt;Path&gt;" class="s0" d="m142.5 252.8c0 2.6-2.1 4.7-4.8 4.7-2.6 0-4.7-2.1-4.7-4.7 0-2.6 2.1-4.8 4.7-4.8 2.7 0 4.8 2.2 4.8 4.8z"/>
				</g>
				<g id="&lt;Group&gt;">
					<path id="&lt;Path&gt;" class="s0" d="m177.4 718.4v-242.5l-53.4-73v-95.4"/>
					<path id="&lt;Path&gt;" class="s0" d="m128.7 302.8c0 2.6-2.1 4.7-4.7 4.7-2.7 0-4.8-2.1-4.8-4.7 0-2.6 2.1-4.8 4.8-4.8 2.6 0 4.7 2.2 4.7 4.8z"/>
				</g>
				<g id="&lt;Group&gt;">
					<path id="&lt;Path&gt;" class="s0" d="m204.5 718.4v-332.8"/>
					<path id="&lt;Path&gt;" class="s0" d="m209.2 380.9c0 2.6-2.1 4.7-4.7 4.7-2.7 0-4.8-2.1-4.8-4.7 0-2.7 2.1-4.8 4.8-4.8 2.6 0 4.7 2.1 4.7 4.8z"/>
				</g>
				<g id="&lt;Group&gt;">
					<path id="&lt;Path&gt;" class="s0" d="m217.2 718.4v-169.1l36.3-68.5v-122.7"/>
					<path id="&lt;Path&gt;" class="s0" d="m258.3 353.3c0 2.7-2.1 4.8-4.8 4.8-2.6 0-4.7-2.1-4.7-4.8 0-2.6 2.1-4.7 4.7-4.7 2.7 0 4.8 2.1 4.8 4.7z"/>
				</g>
				<g id="&lt;Group&gt;">
					<path id="&lt;Path&gt;" class="s0" d="m229.9 718.4v-161.8l42.8-75.7v-80.8"/>
					<path id="&lt;Path&gt;" class="s0" d="m277.5 395.3c0 2.6-2.2 4.8-4.8 4.8-2.6 0-4.7-2.2-4.7-4.8 0-2.6 2.1-4.7 4.7-4.7 2.6 0 4.8 2.1 4.8 4.7z"/>
				</g>
			</g>
			<g id="&lt;Group&gt;">
				<g id="&lt;Group&gt;">
					<path id="&lt;Path&gt;" class="s0" d="m1316 718.4v-131.3l53.5-73v-76.6"/>
					<path id="&lt;Path&gt;" class="s0" d="m1364.7 432.8c0 2.6 2.2 4.7 4.8 4.7 2.6 0 4.7-2.1 4.7-4.7 0-2.6-2.1-4.8-4.7-4.8-2.6 0-4.8 2.2-4.8 4.8z"/>
				</g>
				<g id="&lt;Group&gt;">
					<path id="&lt;Path&gt;" class="s0" d="m1329.8 718.4v-122.5l53.5-73v-35.4"/>
					<path id="&lt;Path&gt;" class="s0" d="m1378.5 482.8c0 2.6 2.1 4.7 4.8 4.7 2.6 0 4.7-2.1 4.7-4.7 0-2.6-2.1-4.8-4.7-4.8-2.7 0-4.8 2.2-4.8 4.8z"/>
				</g>
				<g id="&lt;Group&gt;">
					<path id="&lt;Path&gt;" class="s0" d="m1302.8 718.4v-212.8"/>
					<path id="&lt;Path&gt;" class="s0" d="m1298 500.9c0 2.6 2.1 4.7 4.8 4.7 2.6 0 4.7-2.1 4.7-4.7 0-2.7-2.1-4.8-4.7-4.8-2.7 0-4.8 2.1-4.8 4.8z"/>
				</g>
				<g id="&lt;Group&gt;">
					<path id="&lt;Path&gt;" class="s0" d="m1290 718.4v-109.1l-36.3-68.5v-122.7"/>
					<path id="&lt;Path&gt;" class="s0" d="m1248.9 413.3c0 2.7 2.2 4.8 4.8 4.8 2.6 0 4.7-2.1 4.7-4.8 0-2.6-2.1-4.7-4.7-4.7-2.6 0-4.8 2.1-4.8 4.7z"/>
				</g>
				<g id="&lt;Group&gt;">
					<path id="&lt;Path&gt;" class="s0" d="m1277.3 718.4v-101.8l-42.8-75.7v-80.8"/>
					<path id="&lt;Path&gt;" class="s0" d="m1229.7 455.3c0 2.6 2.2 4.8 4.8 4.8 2.6 0 4.7-2.2 4.7-4.8 0-2.6-2.1-4.7-4.7-4.7-2.6 0-4.8 2.1-4.8 4.7z"/>
				</g>
			</g>
		</g>
		<g id="&lt;Group&gt;">
			<path id="&lt;Compound Path&gt;" fill-rule="evenodd" class="s2" d="m128.1 255.5l-14-22.5 6.9-4.3c2.1-1.2 3.2-3.5 2.9-5.9q-0.1-2-0.1-4c0.1-2.3-1.2-4.5-3.3-5.7l-7.1-3.8 12.5-23.3 7.2 3.8c2.1 1.1 4.6 0.9 6.5-0.4q1.7-1.2 3.4-2.1c2.1-1.2 3.4-3.3 3.3-5.7l-0.2-8.1 26.4-0.9 0.3 8.2c0 2.4 1.5 4.4 3.7 5.5q0.8 0.4 1.7 0.8 0.9 0.5 1.7 1c2 1.2 4.6 1.3 6.6 0l6.9-4.3 14 22.5-6.9 4.3c-2.1 1.3-3.2 3.6-2.9 6q0.1 1.9 0.1 3.9c-0.1 2.4 1.2 4.6 3.3 5.7l7.1 3.8-12.5 23.4-7.1-3.8c-2.1-1.2-4.7-1-6.6 0.4q-1.6 1.1-3.4 2.1c-2.1 1.1-3.4 3.3-3.3 5.7l0.2 8.1-26.4 0.8-0.3-8.1c0-2.4-1.5-4.5-3.7-5.5q-0.8-0.4-1.7-0.9-0.9-0.4-1.7-0.9c-2-1.3-4.6-1.3-6.6-0.1zm22.4-16.7c10.6 5.7 23.7 1.7 29.4-8.8 5.6-10.6 1.7-23.8-8.9-29.4-10.6-5.7-23.7-1.7-29.4 8.8-5.6 10.6-1.7 23.8 8.9 29.4z"/>
			<path id="&lt;Compound Path&gt;" fill-rule="evenodd" class="s2" d="m1345.6 455.5l-16-9.3 2.8-4.9c0.8-1.4 0.8-3.2-0.2-4.6q-0.7-1.2-1.3-2.4c-0.8-1.5-2.3-2.4-4-2.4h-5.6v-18.6h5.6c1.7 0 3.2-1 4-2.4q0.6-1.3 1.3-2.4c1-1.4 1-3.2 0.2-4.7l-2.8-4.9 16-9.3 2.9 5c0.8 1.4 2.4 2.2 4.1 2.1q0.6 0 1.3 0 0.7 0 1.4 0c1.7 0.1 3.2-0.7 4.1-2.1l2.8-5 16.1 9.3-2.8 5c-0.9 1.4-0.8 3.2 0.1 4.6q0.8 1.1 1.4 2.4c0.8 1.4 2.3 2.4 3.9 2.4h5.7v18.6h-5.7c-1.6 0-3.1 0.9-3.9 2.4q-0.6 1.2-1.4 2.4c-0.9 1.4-1 3.2-0.1 4.6l2.8 4.9-16.1 9.3-2.8-4.9c-0.8-1.5-2.4-2.3-4.1-2.2q-0.7 0.1-1.4 0.1-0.7 0-1.3-0.1c-1.7-0.1-3.3 0.7-4.1 2.2zm8.3-17.7c8.4 0 15.2-6.8 15.2-15.2 0-8.4-6.8-15.2-15.2-15.2-8.4 0-15.2 6.8-15.2 15.2 0 8.4 6.8 15.2 15.2 15.2z"/>
			<path id="&lt;Compound Path&gt;" fill-rule="evenodd" class="s2" d="m209.8 271.8l9.3-16.1 4.9 2.9c1.5 0.8 3.3 0.7 4.6-0.2q1.2-0.8 2.5-1.4c1.4-0.7 2.4-2.2 2.4-3.9v-5.7h18.5v5.7c0 1.7 1 3.2 2.5 3.9q1.2 0.6 2.4 1.4c1.4 0.9 3.2 1 4.6 0.2l4.9-2.9 9.3 16.1-4.9 2.8c-1.5 0.9-2.3 2.5-2.2 4.1q0 0.7 0 1.4 0 0.7 0 1.4c-0.1 1.6 0.7 3.2 2.2 4l4.9 2.9-9.3 16.1-4.9-2.9c-1.4-0.8-3.2-0.7-4.6 0.2q-1.2 0.7-2.4 1.4c-1.5 0.7-2.5 2.2-2.5 3.9v5.7h-18.5v-5.7c0-1.7-1-3.2-2.4-3.9q-1.3-0.7-2.4-1.4c-1.4-0.9-3.2-1-4.7-0.2l-4.9 2.9-9.3-16.1 5-2.9c1.4-0.8 2.2-2.4 2.1-4q0-0.7 0-1.4 0-0.7 0-1.4c0.1-1.6-0.7-3.2-2.1-4.1zm17.7 8.3c0 8.4 6.8 15.2 15.2 15.2 8.4 0 15.2-6.8 15.2-15.2 0-8.4-6.8-15.2-15.2-15.2-8.4 0-15.2 6.8-15.2 15.2z"/>
		</g>
	</g>
	<g id="Plant">
		<g id="&lt;Group&gt;">
			<g id="&lt;Group&gt;">
				<g id="&lt;Group&gt;">
					<g id="&lt;Group&gt;">
						<path id="&lt;Path&gt;" class="s4" d="m280.4 497.4c-7.6-7.4-17.4-16.4-29-13.2-11 3-15.1 14.9-17.1 24.9-2.5 12.8-4.5 25.7-6.5 38.6-2.1 13-4 26.1-5.9 39.1q-1.6 11.1-3.1 22.1-0.8 5.5-1.5 11.1c-0.5 3.6-1.1 7.2-1.3 10.8-0.1 1.2 1.7 1.4 2 0.2 1.4-6.1 2-12.5 2.9-18.7q1.3-9.4 2.7-18.8c1.8-12.5 3.7-24.9 5.6-37.4q2.8-18.7 5.8-37.3c1.7-10.6 2.5-23.7 11.8-30.6 5.1-3.8 11.7-3.9 17.5-1.7 6.1 2.4 11.1 6.8 15.9 11.1 0.1 0.2 0.3 0 0.2-0.2z"/>
						<g id="&lt;Group&gt;">
							<path id="&lt;Path&gt;" class="s3" d="m270 489.8c0 0-15.5-5.6-23.2 5.8-7.7 11.3 1.5 40.1 72.2 56.4 0 0-1.8-30.9-17-63.9-15.2-33.1-42.2-20.6-32 1.7z"/>
							<g id="&lt;Group&gt;">
								<path id="&lt;Path&gt;" class="s4" d="m314.9 547.3c-0.9-2-2.3-3.9-3.5-5.8q-1.8-2.7-3.6-5.4-1.4-2.1-2.8-4.1c0.1-0.3 0.1-0.6 0.2-1q0.1-0.9 0.2-1.8 0.3-2 0.6-4 0.3-2 0.6-3.9c0.3-1.4 0.4-2.9 1-4.2 0-0.2-0.3-0.3-0.3-0.1-0.1 0.8-0.5 1.6-0.7 2.4q-0.2 0.9-0.5 1.8-0.5 2-0.9 4-0.4 1.9-0.8 3.8-0.1 0.9-0.2 1.8-1.9-2.7-3.9-5.4c-3.8-4.9-7.7-9.7-11.8-14.3 0 0 0-0.1 0-0.1 0.4-7.5 0.2-14.8 1.9-22.1 0-0.2-0.3-0.3-0.3-0.1-1.6 6.8-3.1 14-2.7 21.1q-2.2-2.5-4.4-4.9-5.2-5.6-10.6-10.9c-0.1-0.2-0.4 0.1-0.2 0.2 5.9 6.4 11.6 13.1 17.1 19.9-4.3-0.1-8.6 0.2-12.9 0.5-4.8 0.3-9.6 0.9-14.3 1.6-0.2 0-0.2 0.3 0 0.3 4.8-0.7 9.5-1.1 14.3-1.3 4.6-0.2 9.2 0.1 13.8 0q4.5 5.6 8.9 11.2-0.3 0-0.7 0-1.6-0.1-3.2 0c-2.2 0-4.3 0.2-6.5 0.3-4.4 0.4-8.7 1-13 2-0.2 0-0.2 0.3 0 0.3 4.4-0.5 8.7-0.9 13.1-1 2.1-0.1 4.2-0.1 6.2-0.1q1.7 0 3.3 0c0.6 0 1.2 0.1 1.8-0.2q2.8 3.7 5.7 7.4 2.2 3 4.4 6c1.5 2.1 2.8 4.3 4.5 6.2 0.1 0.2 0.3 0 0.2-0.1z"/>
								<path id="&lt;Path&gt;" class="s4" d="m276.8 505.9c-2.5-0.4-5.1-0.4-7.6-0.4-2.5 0-5.1 0.1-7.6 0.2-0.2 0-0.2 0.3 0 0.3q3.9-0.3 7.7-0.2c2.5 0 5 0.3 7.4 0.2 0.1 0 0.1-0.1 0.1-0.1z"/>
								<path id="&lt;Path&gt;" class="s4" d="m298.9 511.6c0.3-2.4 0.6-4.9 1.2-7.3 0-0.2-0.3-0.2-0.4 0-0.3 2.4-0.8 4.7-1.1 7.1q-0.3 1.8-0.5 3.6c-0.1 1.1-0.4 2.2-0.3 3.3 0 0.3 0.4 0.3 0.4 0.1 0.3-1.1 0.3-2.3 0.4-3.4q0.1-1.7 0.4-3.4z"/>
								<path id="&lt;Path&gt;" class="s4" d="m294.3 484.8c-0.6 2.4-1.2 4.7-1.7 7.1q-0.3 1.9-0.5 3.7c-0.2 1.2-0.4 2.4-0.3 3.6 0 0.1 0.2 0.1 0.2 0 0.4-1.1 0.4-2.3 0.6-3.4q0.2-1.8 0.5-3.5c0.4-2.5 0.9-5 1.5-7.4 0.1-0.2-0.2-0.3-0.3-0.1z"/>
							</g>
						</g>
					</g>
					<g id="&lt;Group&gt;">
						<path id="&lt;Path&gt;" class="s4" d="m202.2 628.2q-0.6-6.7-1.3-13.3-1.4-13.2-3.1-26.4c-1.2-8.8-2.3-17.5-3.8-26.2-0.6-4-1.3-8.1-2.7-12-1.1-3.2-3.1-6.2-6.6-7.4-8.3-2.9-13.9 5.7-17.2 11.9-0.1 0.1 0.1 0.3 0.2 0.1 2-2.9 7.6-11 13.9-10.6 4.3 0.2 7.7 3.2 9.7 13.8 5.1 26.4 9.7 79.9 10.2 83.4 0.3 1.9 1.6 1.8 1.6-0.2 0-4.3-0.5-8.7-0.9-13.1z"/>
						<path id="&lt;Path&gt;" class="s3" d="m169.7 551.5c0 0 7.3-25.7-8.8-12.9-26.8 21.4-27.7 67.9-27.7 67.9 0 0 47.6-27.6 53.5-45.9 8.8-27.1-17-9.1-17-9.1z"/>
						<g id="&lt;Group&gt;">
							<path id="&lt;Path&gt;" class="s4" d="m178.7 564.1c-3.7 0.7-7.5 1.2-11.3 1.8q-2.7 0.4-5.3 0.7c-1.2 0.2-2.5 0.3-3.7 0.4 3.6-4.8 7.1-9.7 10.5-14.7 0.2-0.2-0.1-0.4-0.3-0.2-2.8 2.9-5.4 6-7.9 9.2q-1.1-3-2.1-6c-0.8-2.3-1.7-4.6-2.3-6.9 0-0.2-0.4-0.2-0.3 0 0.6 2.4 1.1 4.8 1.7 7.2q0.9 3.4 2.1 6.7-2.6 3.4-5 6.9c-0.8-2.3-1.8-4.5-2.5-6.9-0.1-0.2-0.4-0.1-0.4 0.1 0.9 2.6 1.4 5.3 2.2 7.9q-1.7 2.4-3.3 4.8c-1.9 3-3.7 6-5.5 9.1-0.2 0.1-0.4 0.3-0.4 0.7-3 5.2-5.8 10.5-8.7 15.8-0.1 0.2 0.2 0.3 0.3 0.1 2.8-5.2 6-10.3 9.2-15.4q0.1 0 0.1 0c0.3-0.2 1.1-0.2 1.5-0.3q0.9-0.1 1.7-0.3c1.2-0.3 2.4-0.6 3.6-0.9 2.5-0.6 4.8-1.2 7.3-1.6 0.2 0 0.1-0.4-0.1-0.3-2.9 0.5-5.8 0.9-8.7 1.2q-2 0.2-4.1 0.5-0.1 0.1-0.2 0.1 2.6-3.9 5.2-7.8 2.6-3.7 5.3-7.4c1.7-0.2 3.3-0.7 4.9-1q2.8-0.5 5.5-1.1c3.7-0.7 7.4-1.5 11.1-2.1 0.2-0.1 0.1-0.4-0.1-0.3z"/>
							<path id="&lt;Path&gt;" class="s4" d="m150.1 566.6q-0.3-1-0.6-2-0.7-2.2-1.1-4.3c-0.1-0.2-0.4-0.2-0.3 0q0.5 2.2 1 4.4c0.3 1.4 0.7 2.9 1.2 4.3 0.1 0.3 0.7 0.2 0.6-0.2-0.3-0.7-0.5-1.5-0.8-2.2z"/>
							<path id="&lt;Path&gt;" class="s4" d="m183.6 558.1c-2.2 0.4-4.4 0.5-6.6 0.7-2.2 0.2-4.3 0.5-6.5 0.8-0.1 0-0.1 0.2 0 0.2 2.2-0.1 4.4-0.3 6.5-0.6 2.2-0.3 4.4-0.6 6.6-0.8 0.2 0 0.2-0.3 0-0.3z"/>
						</g>
					</g>
					<g id="&lt;Group&gt;">
						<path id="&lt;Path&gt;" class="s4" d="m237.2 595.7c-0.8-18.9-2-37.8-3.9-56.6-1-9.4-2-18.7-3.3-28.1-1.3-9.1-2.9-18.3-5.5-27.1-1.9-6.9-4.5-13.7-9-19.2-4.5-5.5-11.1-8.9-18.3-8-8.2 1-14.9 6.2-20.7 11.9-6.4 6.4-12.4 13.3-18.3 20.1q-2.3 2.6-4.6 5.2c-0.1 0.1 0.1 0.4 0.3 0.2 5.8-6.7 11.9-13.3 18.3-19.5 5.9-5.8 11.9-12.1 20.1-14.5 3.7-1.1 7.8-1.4 11.6-0.2 3.1 0.9 5.8 2.7 8 5 4.6 4.8 7.2 11.2 9 17.5 5.1 17.4 6.9 35.6 8.8 53.5 1.9 18.3 3.2 36.5 4.1 54.8 0.9 18.4 1.7 36.9 3.4 55.2 0.3 2.3 0.5 4.5 0.8 6.8 0.2 1.5 2.6 1.5 2.5-0.1-1.5-18.9-2.4-37.9-3.3-56.9z"/>
						<g id="&lt;Group&gt;">
							<path id="&lt;Path&gt;" class="s3" d="m175.5 470.7c0 0 10.8-20-2-26.4-12.7-6.4-55.4 41.2-67.9 110.9 0 0 69-30.5 92.4-60.9 23.4-30.4-3.2-37.1-22.5-23.6z"/>
							<g id="&lt;Group&gt;">
								<path id="&lt;Path&gt;" class="s4" d="m185.6 486.9c-7.7 0-15.5-0.6-23.2-0.5q2.2-2.5 4.4-5c2-2.3 4.3-4.5 6-7.1 0.1-0.1-0.1-0.3-0.3-0.2-2.1 1.7-4 3.9-5.8 5.9q-2.9 3.1-5.8 6.2c-3 3.2-5.9 6.4-8.8 9.7q0-0.5 0-0.9 0-2.1 0-4.1 0.1-4 0.1-7.9c0.1-5.3 0-10.7 0.4-16 0-0.2-0.3-0.2-0.3 0-0.4 5.4-0.9 10.7-1.2 16q-0.2 4-0.2 7.9-0.1 2.1 0 4.1c0 0.7-0.1 1.5 0 2.3q-0.7 0.7-1.4 1.5c-6.2 7.1-12 14.4-17.8 21.8 0-0.4 0-0.8-0.1-1.2q-0.1-1.3-0.2-2.5-0.4-2.7-0.8-5.3-0.3-2.5-0.7-5c-0.4-1.8-0.8-3.7-1-5.6 0-0.2-0.3-0.2-0.3 0 0.4 1.9 0.5 3.8 0.7 5.7q0.2 2.6 0.5 5.1 0.2 2.6 0.4 5.1 0.2 1.3 0.3 2.5 0 0.6 0.1 1.2c0.1 0.6 0.2 0.6 0.4 1q-1.5 1.9-3 3.9c-3.9 5.1-7.7 10.4-11.6 15.6-0.1 0.2 0.1 0.4 0.3 0.2 3.6-4.7 7.3-9.4 11.1-14 2.9 0.1 5.8-0.1 8.6-0.1q4.5-0.1 9-0.1c0.2 0 0.2-0.3 0-0.3q-4.5 0.1-9 0.1c-2.7 0-5.5-0.1-8.2 0q5-6.1 10-12.1 1.9-2.2 3.7-4.4c1.2 0.3 2.4 0.1 3.5 0.1q2 0 4.1 0c2.5 0 5.1 0 7.6-0.1 5.3-0.1 10.5-0.2 15.8-0.2 0.2 0 0.2-0.4 0-0.4-5.3 0-10.5-0.3-15.8-0.4-2.6-0.1-5.1-0.1-7.7-0.2q-2 0-4 0c-0.8 0-1.6-0.1-2.4-0.1q4.3-5.1 8.7-10.2 0.1-0.1 0.2-0.2 4.2-5 8.5-10 0.6-0.7 1.1-1.4c8.1 0.3 16.1-0.2 24.1-0.1 0.2 0 0.2-0.3 0-0.3z"/>
								<path id="&lt;Path&gt;" class="s4" d="m181.7 500.6q-1 0-1.9 0c-0.2 0-0.2 0.3 0 0.3q0.9 0 1.9 0c0.2 0 0.2-0.3 0-0.3z"/>
								<path id="&lt;Path&gt;" class="s4" d="m177.5 500.6q-3.7 0-7.5-0.1-1.8-0.1-3.7-0.1c-1.1-0.1-2.4-0.3-3.4 0-0.2 0-0.1 0.2 0 0.2 1 0.3 2.3 0.2 3.4 0.3q1.9 0 3.8 0 3.7 0.1 7.4 0c0.2 0 0.2-0.3 0-0.3z"/>
								<path id="&lt;Path&gt;" class="s4" d="m155.8 523.9c-5-0.7-10.1-1.4-15.2-1.4-0.1 0-0.1 0.1 0 0.1 5 0.5 10.1 0.8 15.1 1.6 0.2 0 0.3-0.3 0.1-0.3z"/>
								<path id="&lt;Path&gt;" class="s4" d="m135.1 501.7q-0.1-0.7-0.2-1.3-0.2-1.5-0.4-3-0.5-2.8-1-5.7c0-0.1-0.3-0.1-0.3 0.1q0.3 2.9 0.6 5.8 0.1 1.5 0.3 2.9c0 0.9 0 2 0.3 2.7 0.2 0.3 0.6 0.2 0.7-0.1 0.1-0.4 0-0.9 0-1.4z"/>
							</g>
						</g>
					</g>
					<g id="&lt;Group&gt;">
						<path id="&lt;Path&gt;" class="s4" d="m236.6 445c-2.5-4.6-5.7-10.7-11.8-10.3-5.1 0.3-7.4 5.5-8.5 9.8-3.3 13.3-3.6 27.3-4.2 40.9-1.4 28.7-2.7 57.5-2.8 86.3q-0.1 11.9 0 23.9c0.1 8.1 0.1 16.3 0.6 24.4 0 0.8 1.2 0.8 1.2 0 0-7-0.2-13.9-0.2-20.9q-0.1-10.2 0.1-20.3 0.3-20.7 1.1-41.3c0.5-13.7 1.1-27.3 1.7-41q0.4-10.2 0.9-20.5c0.3-6.6 0.5-13.2 1.3-19.8 0.4-3.6 1-7.3 1.7-11 0.6-2.5 1.4-5.3 3.2-7.3 2.4-2.7 6.1-2.5 9-0.7 3 1.9 4.8 4.9 6.4 8 0.1 0.2 0.4 0 0.3-0.2z"/>
						<g id="&lt;Group&gt;">
							<path id="&lt;Path&gt;" class="s3" d="m234.9 442.8c0 0-5.1-17.9 6.1-8.9 18.7 14.9 19.3 47.2 19.3 47.2 0 0-33.1-19.2-37.2-31.9-6.2-18.9 11.8-6.4 11.8-6.4z"/>
							<g id="&lt;Group&gt;">
								<path id="&lt;Path&gt;" class="s4" d="m253.3 467.9q-0.4-0.8-0.9-1.5c0.1-0.5 0-1.1 0-1.5q0-1.2 0-2.3 0.1-2.3 0.2-4.6c0-0.2-0.3-0.2-0.3 0q-0.2 2.3-0.2 4.5-0.1 1.1-0.1 2.2c0 0.3 0 0.6-0.1 1q-1.9-3.1-4-6-0.6-0.9-1.2-1.7c-0.3-1.9-0.1-3.9-0.1-5.9q0-3.1 0.1-6.2c0-0.2-0.3-0.2-0.3 0q-0.1 3.3-0.3 6.5c-0.1 1.5-0.2 3.1-0.1 4.6-3.2-4.3-6.6-8.5-10-12.7-0.2-0.1-0.4 0.1-0.3 0.2q3.2 4.1 6.2 8.3c-3.9-0.9-7.9-1.5-11.8-2-0.2-0.1-0.3 0.2-0.1 0.3 4.2 0.6 8.3 1.7 12.4 2.6q0.1 0 0.1 0 2.4 3.3 4.7 6.7 1 1.4 1.9 2.8-0.1-0.1-0.2-0.1-0.6-0.1-1.3-0.1-1.3-0.2-2.7-0.3-2.9-0.2-5.8-0.4c-0.2 0-0.1 0.4 0.1 0.4q2.8 0 5.6 0.4 1.5 0.1 3 0.3 0.6 0.1 1.2 0.2 0.2 0 0.4 0 1.6 2.4 3.2 4.7c1.9 2.8 3.6 5.7 5.5 8.4 0.2 0.2 0.4 0 0.3-0.1-1.4-3.1-3.3-5.9-5.1-8.7z"/>
								<path id="&lt;Path&gt;" class="s4" d="m245.1 447.7q0-1.1 0-2.1c0-1.5 0-3 0.2-4.4 0-0.2-0.3-0.3-0.3 0 0 1.4-0.2 2.8-0.3 4.3q0 1.1 0 2.2 0 0.5 0 1c0 0.3 0 0.7 0.1 1 0 0.1 0.2 0.1 0.3 0 0.1-0.3 0-0.6 0-1q0-0.5 0-1z"/>
								<path id="&lt;Path&gt;" class="s4" d="m241 455.1c-1.2-0.2-2.5-0.3-3.7-0.4q-2.1-0.2-4.1-0.4c-0.3-0.1-0.3 0.3-0.1 0.3 2.7 0.2 5.3 0.6 7.9 0.7 0.1 0 0.1-0.2 0-0.2z"/>
							</g>
						</g>
						<path id="&lt;Path&gt;" class="s4" d="m251.4 455.2c0.1 0.1 0 0.5 0 0.7v0.5q0 0.7 0 1.3 0 0.6 0 1.2c0 0.4-0.1 0.8 0.1 1.1 0 0.1 0.1 0.1 0.1 0 0.1-0.1 0.1-0.3 0.1-0.5q0-0.3 0-0.6 0-0.6 0-1.2-0.1-0.6-0.1-1.3v-0.5c0-0.2 0-0.6 0.1-0.7 0.2-0.3-0.5-0.3-0.3 0z"/>
					</g>
					<g id="&lt;Group&gt;">
						<path id="&lt;Path&gt;" class="s4" d="m237.3 540.4c-6.9-5.2-13.2-12.7-22.6-13.1-7.7-0.3-13.1 5.5-16.2 12-1.7 3.4-2.8 7.1-3.8 10.7q-2.1 7.3-4 14.8c-2.4 9.7-4.5 19.5-6.2 29.3-0.9 5.5-1.8 11.1-2.5 16.6-0.7 5.6-1.6 11.3-1.6 17 0 1 1.5 1.1 1.7 0.2 1-4.7 1.4-9.5 2-14.1q1-7.1 2.2-14.1 2.4-14.1 5.6-28.1c2-8.7 3.9-17.6 6.8-26.2 2-6.1 5.2-13.2 11.9-15.4 10-3.4 19.1 5.1 26.5 10.7 0.2 0.1 0.4-0.1 0.2-0.3z"/>
						<g id="&lt;Group&gt;">
							<path id="&lt;Path&gt;" class="s3" d="m230.1 535.4c0 0-6.4-18.3 2.9-21.9 13.9-5.4 50.3 35.6 43.2 98.5 0 0-28.1-15.5-48.9-32.9-20.8-17.5-26.1-40.3-17-46.2 9.2-5.9 19.8 2.5 19.8 2.5z"/>
							<g id="&lt;Group&gt;">
								<path id="&lt;Path&gt;" class="s4" d="m272 598.5c-0.8-2.2-2.2-4.2-3.4-6.3q-1.8-3.2-3.6-6.4c-2.4-4.2-4.8-8.3-7.3-12.4q-0.6-1-1.2-2 0-0.4 0.1-0.7 0.2-0.9 0.4-1.8c0.3-1.4 0.6-2.8 0.8-4.2 0.5-2.7 1-5.4 1.7-8 0.1-0.2-0.2-0.3-0.3-0.1-0.6 2.7-1.4 5.4-2.2 8-0.4 1.3-0.8 2.6-1.2 3.9q-0.1 0.7-0.3 1.3c-3-4.9-6-9.8-9.3-14.5 0.2-0.6 0.2-1.3 0.3-2q0.1-1.4 0.3-2.7c0.3-2.1 0.5-4.2 0.8-6.2 0.6-4.1 1.2-8.1 2.2-12.1 0.1-0.2-0.3-0.3-0.3-0.1-1 4-2.1 8-2.9 12-0.3 2-0.7 3.9-0.9 5.9q-0.2 1.5-0.4 3 0 0.4-0.1 0.9c-1-1.4-2-2.8-3.1-4.2-3.2-4.3-6.5-8.4-9.9-12.5-0.1-0.2-0.4 0-0.2 0.2 5.9 7.2 10.9 15.2 15.8 23.1q1.4 2.2 2.7 4.4-0.4 0-0.9-0.1c-1.2-0.1-2.3-0.2-3.5-0.3q-3.6-0.3-7.1-0.6c-4.8-0.4-9.5-0.7-14.3-1.2-0.2 0-0.2 0.3 0 0.3 4.8 0.6 9.5 1.3 14.3 2q3.5 0.5 7.1 1c1.6 0.2 3.6 0.7 5.4 0.5q2.8 4.6 5.6 9.1c-0.4-0.1-0.9 0-1.3-0.1q-1.1 0-2.3 0-2.2 0-4.4 0c-3.1 0-6.2 0.1-9.2 0.1-0.2 0-0.2 0.3 0 0.3 3.1 0.1 6.2 0.2 9.3 0.4q2.2 0.1 4.4 0.2 1.1 0.1 2.2 0.2c0.6 0 1.3 0.2 1.9-0.1q2.4 3.9 4.8 7.7 2.2 3.6 4.4 7.1c1.5 2.4 2.9 5.1 4.8 7.2 0.1 0.1 0.4 0 0.3-0.2z"/>
								<path id="&lt;Path&gt;" class="s4" d="m258.6 547.7c-0.2 2-0.8 4-1.3 6q-0.8 3.1-1.7 6.1c-0.1 0.2 0.2 0.3 0.3 0.1q1-3 1.7-6c0.5-2 0.8-4.1 1.3-6.1 0-0.2-0.3-0.3-0.3-0.1z"/>
								<path id="&lt;Path&gt;" class="s4" d="m237.9 560c-0.4-0.4-0.9-0.5-1.5-0.6q-1.4-0.2-2.7-0.3-2.5-0.4-4.9-0.6c-3.5-0.4-6.9-0.8-10.3-1.2-0.2 0-0.3 0.3-0.1 0.3 3.2 0.4 6.5 0.9 9.7 1.3q2.4 0.3 4.7 0.6 1.2 0.2 2.3 0.3c0.9 0.1 1.9 0.1 2.6 0.4 0.2 0.1 0.3-0.1 0.2-0.2z"/>
								<path id="&lt;Path&gt;" class="s4" d="m258.5 587.7c-1.6-0.2-3.2-0.2-4.8-0.3q-1.3 0-2.5-0.1-0.6 0-1.2 0c-0.5 0-1 0-1.5-0.1-0.2 0-0.3 0.4 0 0.3 0.4 0 1 0.1 1.4 0.1q0.7 0 1.3 0.1 1.2 0 2.4 0.1c1.7 0.1 3.3 0.2 4.9 0.2 0.2 0 0.2-0.3 0-0.3z"/>
								<path id="&lt;Path&gt;" class="s4" d="m268.5 580.6q0.2-1.4 0.5-2.7 0.5-2.8 1-5.5c0-0.2-0.3-0.2-0.3 0q-0.6 2.6-1.2 5.3-0.3 1.3-0.6 2.6-0.1 0.6-0.3 1.2c0 0.5-0.2 0.9-0.1 1.3 0 0.2 0.2 0.3 0.4 0.1 0.4-0.6 0.4-1.5 0.6-2.3z"/>
							</g>
						</g>
					</g>
				</g>
			</g>
			<g id="&lt;Group&gt;">
				<g id="&lt;Group&gt;">
					<path id="&lt;Path&gt;" class="s5" d="m173.1 620.6l2 22.3 6.7 75.3h58.9l8.3-75.3 2.5-22.3z"/>
					<path id="&lt;Path&gt;" class="s4" d="m173.1 620.6l2 22.3h73.9l2.5-22.3z"/>
				</g>
				<path id="&lt;Path&gt;" class="s5" d="m167.3 632.6h90v-18h-90z"/>
			</g>
		</g>
	</g>
	<g id="Floor">
		<g id="&lt;Group&gt;">
			<path id="&lt;Path&gt;" class="s4" d="m101.4 718.4l162.2-0.5 162.1-0.2 324.3-0.3 324.3 0.3 162.1 0.2 162.2 0.5-162.2 0.5-162.1 0.1-324.3 0.4-324.3-0.4-162.1-0.1z"/>
		</g>
	</g>
	<g id="Device">
		<g id="&lt;Group&gt;">
			<path id="&lt;Path&gt;" class="s2" d="m1219.9 758.7h-943.2v-630.9h943.2z"/>
			<path id="&lt;Path&gt;" class="s4" d="m1213.1 751h-929.5v-615.5h929.5z"/>
			<g id="&lt;Group&gt;">
				<path id="&lt;Path&gt;" class="s6" d="m1342.8 849.4h-1188.9v-43.3h1188.9z"/>
				<path id="&lt;Path&gt;" class="s2" d="m153.9 806.1l122.8-47.4h943.2l122.9 47.4z"/>
				<path id="&lt;Path&gt;" class="s4" d="m287.7 789.3l79.3-30.6h762.7l79.2 30.6z"/>
			</g>
			<g id="&lt;Group&gt;">
				<path id="&lt;Path&gt;" class="s7" d="m1160.5 704.3h-824.4v-522h824.4z"/>
				<g id="&lt;Group&gt;">
					<path id="&lt;Path&gt;" class="s8" d="m1160.5 202.4h-825.1v-20.1h825.1z"/>
					<g id="&lt;Group&gt;">
						<path id="&lt;Path&gt;" class="s9" d="m351.4 192.3c0 2.8-2.3 5-5 5-2.8 0-5-2.2-5-5 0-2.7 2.2-5 5-5 2.7 0 5 2.3 5 5z"/>
						<path id="&lt;Path&gt;" class="s7" d="m371.7 192.3c0 2.8-2.2 5-5 5-2.7 0-4.9-2.2-4.9-5 0-2.7 2.2-5 4.9-5 2.8 0 5 2.3 5 5z"/>
						<path id="&lt;Path&gt;" class="s3" d="m392.1 192.3c0 2.8-2.3 5-5 5-2.8 0-5-2.2-5-5 0-2.7 2.2-5 5-5 2.7 0 5 2.3 5 5z"/>
					</g>
				</g>
				<g id="&lt;Group&gt;">
					<g id="&lt;Group&gt;">
						<g id="&lt;Group&gt;">
							<g id="&lt;Group&gt;">
								<path id="&lt;Compound Path&gt;" fill-rule="evenodd" class="s3" d="m704 422c-0.1-24.8 19.9-45.1 44.8-45.3 24.9-0.1 45.1 19.9 45.3 44.8 0.1 24.8-19.9 45.1-44.8 45.3-24.8 0.1-45.1-19.9-45.3-44.8zm45.2 24.4c13.6-0.1 24.6-11.2 24.5-24.8-0.1-13.6-11.2-24.6-24.8-24.5-13.6 0-24.6 11.2-24.5 24.8 0.1 13.6 11.2 24.6 24.8 24.5z"/>
								<g id="&lt;Group&gt;">
									<path id="&lt;Path&gt;" class="s3" d="m740.1 378.6l17.4-0.1-1.1-12.2-15.4 0.1z"/>
									<path id="&lt;Path&gt;" class="s3" d="m773.1 384.3l12.3 12.2 8-9.4-11-10.9z"/>
									<path id="&lt;Path&gt;" class="s3" d="m792.5 411.6l0.1 17.3 12.2-1-0.1-15.4z"/>
									<path id="&lt;Path&gt;" class="s3" d="m786.8 444.6l-12.1 12.3 9.3 7.9 10.9-10.9z"/>
									<path id="&lt;Path&gt;" class="s3" d="m759.5 463.9l-17.3 0.1 1 12.3 15.4-0.1z"/>
									<path id="&lt;Path&gt;" class="s3" d="m726.5 458.3l-12.3-12.2-7.9 9.4 10.9 10.8z"/>
									<path id="&lt;Path&gt;" class="s3" d="m707.2 431l-0.1-17.3-12.3 1 0.1 15.4z"/>
									<path id="&lt;Path&gt;" class="s3" d="m712.8 398l12.2-12.3-9.4-8-10.8 11z"/>
								</g>
							</g>
						</g>
					</g>
					<g id="&lt;Group&gt;">
						<path id="&lt;Path&gt;" class="s10" d="m962.5 580.1h-425v-26h425z"/>
						<path id="&lt;Path&gt;" class="s3" d="m552.1 575.1h-9.6v-16.1h9.6z"/>
						<path id="&lt;Path&gt;" class="s3" d="m565.4 575.1h-9.7v-16.1h9.7z"/>
						<path id="&lt;Path&gt;" class="s3" d="m578.7 575.1h-9.7v-16.1h9.7z"/>
						<path id="&lt;Path&gt;" class="s3" d="m592 575.1h-9.7v-16.1h9.7z"/>
						<path id="&lt;Path&gt;" class="s3" d="m605.3 575.1h-9.7v-16.1h9.7z"/>
						<path id="&lt;Path&gt;" class="s3" d="m618.6 575.1h-9.7v-16.1h9.7z"/>
						<path id="&lt;Path&gt;" class="s3" d="m631.9 575.1h-9.7v-16.1h9.7z"/>
						<path id="&lt;Path&gt;" class="s3" d="m645.2 575.1h-9.7v-16.1h9.7z"/>
						<path id="&lt;Path&gt;" class="s3" d="m658.5 575.1h-9.7v-16.1h9.7z"/>
						<path id="&lt;Path&gt;" class="s3" d="m671.8 575.1h-9.7v-16.1h9.7z"/>
						<path id="&lt;Path&gt;" class="s3" d="m685 575.1h-9.6v-16.1h9.6z"/>
						<path id="&lt;Path&gt;" class="s3" d="m698.3 575.1h-9.6v-16.1h9.6z"/>
					</g>
					<path id="UPDATE...
" class="s4" aria-label="UPDATE..."  d="m692.4 628.2q-2.6 0-4.3-0.9-1.8-0.9-2.9-2.4-1.1-1.6-1.6-3.5-0.5-2-0.5-4.1v-10.9h3.4v10.9q0 1.5 0.3 2.9 0.3 1.4 1 2.5 0.7 1.1 1.8 1.7 1.2 0.7 2.8 0.7 1.7 0 2.9-0.7 1.1-0.6 1.8-1.7 0.6-1.2 0.9-2.5 0.3-1.4 0.3-2.9v-10.9h3.5v10.9q0 2.3-0.6 4.2-0.5 2-1.6 3.5-1.1 1.4-2.9 2.3-1.7 0.9-4.3 0.9zm17.3-0.2h-3.4v-21.6h9.1q1.5 0 2.7 0.6 1.2 0.6 2.1 1.6 0.9 1 1.4 2.2 0.5 1.3 0.5 2.6 0 1.8-0.8 3.5-0.8 1.6-2.3 2.6-1.5 1-3.4 1h-5.9zm0-18.6v8h5.7q1 0 1.7-0.5 0.7-0.5 1.1-1.4 0.4-1 0.4-2.1 0-1.2-0.5-2.1-0.4-0.9-1.2-1.4-0.8-0.5-1.7-0.5zm23.2 18.6h-7.6v-21.7h7.6q3.5 0 5.9 1.5 2.3 1.4 3.5 3.9 1.2 2.4 1.2 5.4 0 3.3-1.3 5.8-1.3 2.4-3.7 3.7-2.4 1.4-5.6 1.4zm7.1-10.9q0-2.3-0.8-4-0.9-1.8-2.5-2.7-1.5-1-3.8-1h-4.2v15.6h4.2q2.3 0 3.9-1.1 1.6-1 2.4-2.8 0.8-1.7 0.8-4zm4.1 10.9l8.4-21.7h3.3l8.4 21.7h-3.6l-2.3-5.9h-8.4l-2.2 5.9zm6.5-8.4h7l-3.4-9.5zm30.1-13.2v3h-7.2v18.6h-3.4v-18.6h-7.3v-3zm6.3 18.6h11.5v3h-14.9v-21.6h14.6v3h-11.2v6.1h9.7v2.9h-9.7zm17.2 3h-2.8v-3.9h2.8zm6.5 0h-2.8v-3.9h2.8zm6.5 0h-2.8v-3.9h2.8z"/>
					<g id="&lt;Group&gt;">
						<path id="&lt;Path&gt;" class="s3" d="m740 336c0 5.3 4.2 9.5 9.4 9.5 5.3 0 9.5-4.2 9.5-9.5 0-5.2-4.2-9.4-9.5-9.4-5.2 0-9.4 4.2-9.4 9.4z"/>
						<path id="&lt;Path&gt;" class="s11" d="m694.8 348.2c0 5 4 9 9 9 4.9 0 8.9-4 8.9-9 0-4.9-4-8.9-8.9-8.9-5 0-9 4-9 8.9z"/>
						<path id="&lt;Path&gt;" class="s12" d="m666.7 379.4c0 4.6 3.8 8.5 8.5 8.5 4.7 0 8.5-3.9 8.5-8.5 0-4.7-3.8-8.5-8.5-8.5-4.7 0-8.5 3.8-8.5 8.5z"/>
						<path id="&lt;Path&gt;" class="s13" d="m657.4 421.2c0 4.4 3.6 8 8.1 8 4.4 0 8-3.6 8-8 0-4.5-3.6-8.1-8-8.1-4.5 0-8.1 3.6-8.1 8.1z"/>
						<path id="&lt;Path&gt;" class="s14" d="m666.9 460.6c0 4.2 3.4 7.6 7.6 7.6 4.2 0 7.6-3.4 7.6-7.6 0-4.2-3.4-7.6-7.6-7.6-4.2 0-7.6 3.4-7.6 7.6z"/>
						<path id="&lt;Path&gt;" class="s15" d="m695.1 492.9c0 3.9 3.1 7.1 7.1 7.1 3.9 0 7.1-3.2 7.1-7.1 0-4-3.2-7.1-7.1-7.1-4 0-7.1 3.1-7.1 7.1z"/>
						<path id="&lt;Path&gt;" class="s16" d="m743.1 506.4c0 3.6 3 6.6 6.6 6.6 3.7 0 6.7-3 6.7-6.6 0-3.7-3-6.7-6.7-6.7-3.6 0-6.6 3-6.6 6.7z"/>
						<path id="&lt;Path&gt;" class="s17" d="m791.8 491.8c0 3.5 2.7 6.2 6.1 6.2 3.5 0 6.2-2.7 6.2-6.2 0-3.4-2.7-6.1-6.2-6.1-3.4 0-6.1 2.7-6.1 6.1z"/>
						<path id="&lt;Path&gt;" class="s18" d="m819.7 458c0 3.2 2.5 5.7 5.7 5.7 3.2 0 5.7-2.5 5.7-5.7 0-3.2-2.5-5.7-5.7-5.7-3.2 0-5.7 2.5-5.7 5.7z"/>
						<path id="&lt;Path&gt;" class="s19" d="m828.9 420.3c0 2.9 2.4 5.3 5.3 5.3 2.9 0 5.3-2.4 5.3-5.3 0-2.9-2.4-5.2-5.3-5.2-2.9 0-5.3 2.3-5.3 5.2z"/>
						<path id="&lt;Path&gt;" class="s19" d="m815.8 371.8c0 2.7 2.1 4.8 4.8 4.8 2.6 0 4.8-2.1 4.8-4.8 0-2.6-2.2-4.8-4.8-4.8-2.7 0-4.8 2.2-4.8 4.8z"/>
						<path id="&lt;Path&gt;" class="s20" d="m783.6 344.5c0 2.4 2 4.4 4.4 4.4 2.4 0 4.3-2 4.3-4.4 0-2.3-1.9-4.3-4.3-4.3-2.4 0-4.4 2-4.4 4.3z"/>
					</g>
				</g>
			</g>
		</g>
	</g>
	<g id="Arrows">
		<g id="&lt;Group&gt;">
			<g id="&lt;Group&gt;">
				<g id="&lt;Group&gt;">
					<path id="&lt;Path&gt;" class="s3" d="m1186.8 122.2l-12.7-13.3c24-22.8 60.1-28.3 89.8-13.5 24.8 12.4 41.6 37.3 43.7 65l-18.4 1.4c-1.5-21.3-14.4-40.5-33.5-50-22.8-11.3-50.5-7.1-68.9 10.4z"/>
					<g id="&lt;Group&gt;">
						<path id="&lt;Path&gt;" class="s3" d="m1272.6 149.6l18.7 47.7 32-40z"/>
					</g>
				</g>
				<g id="&lt;Group&gt;" style="opacity: .2">
					<path id="&lt;Path&gt;" class="s21" d="m1186.8 122.2l-12.7-13.3c24-22.8 60.1-28.3 89.8-13.5 24.8 12.4 41.6 37.3 43.7 65l-18.4 1.4c-1.5-21.3-14.4-40.5-33.5-50-22.8-11.3-50.5-7.1-68.9 10.4z"/>
					<g id="&lt;Group&gt;">
						<path id="&lt;Path&gt;" class="s21" d="m1272.6 149.6l18.7 47.7 32-40z"/>
					</g>
				</g>
			</g>
			<g id="&lt;Group&gt;">
				<path id="&lt;Path&gt;" class="s3" d="m1195.6 233.1c-24.8-12.4-41.6-37.3-43.7-65.1l18.4-1.3c1.5 21.3 14.4 40.4 33.5 49.9 24 11.9 53.5 6.5 71.6-13.1l13.5 12.5c-23.7 25.6-62 32.6-93.3 17.1z"/>
				<g id="&lt;Group&gt;">
					<path id="&lt;Path&gt;" class="s3" d="m1186.9 178.9l-18.7-47.8-32 40.1z"/>
				</g>
			</g>
		</g>
	</g>
	<g id="Shadow">
		<path id="&lt;Path&gt;" class="s2" d="m1141.7 905.6c0 10.4-86.7 18.9-193.6 18.9-107 0-193.7-8.5-193.7-18.9 0-10.4 86.7-18.9 193.7-18.9 106.9 0 193.6 8.5 193.6 18.9z"/>
	</g>
	<g id="Character">
		<g id="Capa 4">
		</g>
		<g id="&lt;Group&gt;">
			<g id="&lt;Group&gt;">
				<g id="&lt;Group&gt;">
					<path id="&lt;Path&gt;" class="s22" d="m981.6 909.2c4.4-1.6 102.1-79.7 104-85.1 0.7-2-9.9-16.9-23.1-34.5-2.9-3.8-5.9-7.8-8.9-11.7-19.8-25.8-41.3-52.6-41.3-52.6l-65.6 52.1 43.1 51.1 9.5 11.3c0 0-24 46.6-25.4 52.7-1.4 6 3.4 18.3 7.7 16.7z"/>
					<path id="&lt;Path&gt;" class="s7" d="m981.6 909.2c4.4-1.6 102.1-79.7 104-85.1 0.8-2.4-14.9-23.9-32-46.2l-63.8 50.6 9.5 11.3c0 0-24 46.6-25.4 52.7-1.4 6 3.4 18.3 7.7 16.7z"/>
					<g id="&lt;Group&gt;">
						<path id="&lt;Path&gt;" class="s3" d="m981.6 909.2c4.4-1.6 102.1-79.7 104-85.1 0.7-2-9.9-16.9-23.1-34.5l-63.2 50.2c0 0-24 46.6-25.4 52.7-1.4 6 3.4 18.3 7.7 16.7z"/>
						<g id="&lt;Group&gt;">
							<g id="&lt;Group&gt;">
								<path id="&lt;Path&gt;" class="s4" d="m979.9 904.1c16.1-13.4 82.2-66.4 99.1-78.5 0.1-0.1 0.2 0 0 0.1-15.6 13.7-82.1 66.1-98.9 78.7-0.3 0.3-0.5 0-0.2-0.3z"/>
								<path id="&lt;Path&gt;" class="s4" d="m977.3 883.9c3.8-3.2 9.1-4.4 13-3.8 3.8 0.6 8.1 2.3 10.7 5.8 0.1 0.1-0.1 0.3-0.2 0.2-6.1-5.7-16.4-6.7-23.3-2-0.1 0.1-0.3-0.1-0.2-0.2z"/>
								<path id="&lt;Path&gt;" class="s4" d="m994.2 846.5c6.5-5.4 16-9.1 24.4-7 0.3 0.1 0.2 0.5-0.1 0.6-8.4 1.7-15.8 3.9-23.7 7.3-0.6 0.2-1-0.6-0.6-0.9z"/>
								<path id="&lt;Path&gt;" class="s4" d="m990.8 852.5c6.4-5.3 15.9-9.1 24.3-7 0.3 0.1 0.2 0.5-0.1 0.6-8.4 1.7-15.8 3.9-23.7 7.3-0.6 0.2-1-0.5-0.5-0.9z"/>
								<path id="&lt;Path&gt;" class="s4" d="m987.3 858.5c6.5-5.3 15.9-9.1 24.3-7 0.3 0.1 0.2 0.6-0.1 0.6-8.4 1.7-15.8 3.9-23.7 7.3-0.5 0.2-1-0.5-0.5-0.9z"/>
								<path id="&lt;Path&gt;" class="s4" d="m983.8 864.5c6.5-5.3 15.9-9.1 24.3-7 0.3 0.1 0.2 0.6-0.1 0.6-8.3 1.7-15.8 3.9-23.7 7.3-0.5 0.3-1-0.5-0.5-0.9z"/>
								<path id="&lt;Path&gt;" class="s7" d="m1062.3 813.4c7.4-5.9 16.5 5.6 9.2 11.4-7.4 5.9-16.5-5.6-9.2-11.4z"/>
							</g>
							<path id="&lt;Compound Path&gt;" fill-rule="evenodd" class="s4" d="m973.2 834.6c1.1-5.4 7.4-6 11.8-4.8 7 2 14.4 6.6 19.3 12 0.1 0.1 0.1 0.3 0 0.4 0.2 0.5 0 1.4-0.8 1.4-7.2 0.5-14.9 2-22.1 0.2-4.2-1-9.3-4.1-8.2-9.2zm19.2 7.5c3.5-0.1 7.1-0.5 10.7-0.5-3.8-2.3-7.5-4.8-11.5-6.8-1.9-0.9-3.9-1.8-5.9-2.5-3.2-1-14-1.3-9 6.3 2.8 4.3 11.4 3.7 15.7 3.5z"/>
							<path id="&lt;Compound Path&gt;" fill-rule="evenodd" class="s4" d="m1022.6 831.2c-5.1 5.4-12.2 8.5-18.5 12.1-0.7 0.4-1.4-0.1-1.5-0.8-0.1 0-0.3 0-0.2-0.2 1-7.2 4.7-15.2 9.4-20.8 2.9-3.4 8.5-6.4 12.5-2.5 3.7 3.7 1.2 9-1.7 12.2zm0.9-6.9c0-9.2-8.8-2.9-10.9-0.3-1.3 1.7-2.4 3.6-3.5 5.4-2.3 3.9-3.9 8-5.8 12 3-1.9 6.1-3.6 9.2-5.5 3.6-2.2 11.1-6.5 11-11.6z"/>
						</g>
					</g>
				</g>
				<path id="&lt;Path&gt;" class="s5" d="m880.5 677.2c4.5 34.1 88.4 132.4 98.1 143.7 1.5 1.6 2.2 2.5 2.2 2.5l69.5-53.3-0.8-1.1-61.2-80 182.4 18.3-47.3-53.2c0 0-5.6 3.2-17.3 1.5-40.2-5.9-152.9-38.9-174.3-38-27.6 1.1-55.4 28.4-51.3 59.6z"/>
				<path id="&lt;Path&gt;" class="s4" d="m966.4 659.2c2.3 2.4 4.2 5.4 6.3 8.1 2.1 2.9 4.3 5.7 6.5 8.5q0 0 0.1 0.1-0.6-1.3-1.2-2.5c-1.4-2.8-2.5-5.7-4.1-8.4-0.1-0.2 0.2-0.4 0.3-0.2 1.6 2.7 3.6 5.2 5 8.1q1 1.9 1.9 4 0.5 1.1 0.9 2.2c0.1 0.4 0.3 0.8 0.4 1.1q1.5 2 2.9 4c2 3 3.8 6.1 5.9 9.1 0.1 0.2-0.1 0.3-0.2 0.2-2.1-2.8-4.5-5.4-6.7-8.2-2.1-2.8-4.2-5.7-6.2-8.6-2-2.8-4-5.7-6-8.5-2-2.9-4.4-5.7-6-8.8-0.1-0.1 0.1-0.2 0.2-0.2z"/>
			</g>
			<g id="&lt;Group&gt;">
				<g id="&lt;Group&gt;">
					<g id="&lt;Group&gt;">
						<path id="&lt;Path&gt;" class="s22" d="m1143.1 578.5c-10 39.2-29.9 86-38.1 93.5-10.3 9.5-77.7 25.7-81.1 25.9-8.3 0.7-23.4-59.3-14.6-60.3 13.5-1.6 62.3-3.1 65.3-6.1 3.1-3 24.3-28.5 46.2-57.3 15.1-19.9 28.5-20 22.3 4.3z"/>
						<g id="&lt;Group&gt;">
							<path id="&lt;Path&gt;" class="s22" d="m1030.6 694.9c-0.9 0.5-15.1 7.2-23.8 9.5-6.5 1.7-25.4 6.1-28-0.9-1.7-4.7 9-8.6 16.6-11.6 4-1.5 8.9-5.5 7.8-8.1-1.9-4.5-12.2-0.2-18.9 3.5-13.1 7.2-30.6 20.2-38.3 13.5-3-2.5 0.6-7 5.8-11.3-8.4 5-17.2 9-20.6 6.3-1.9-1.5-1.9-3.6-0.8-5.9-2.6 0.8-4.8 0.6-6.3-1.1-2.6-2.9-1.2-7 1.8-11.1-0.9-0.2-1.8-0.7-2.4-1.7-5.4-8.7 23.5-32.8 33.3-34.9 29-6.1 59.3-4.1 59.3-4.1 11.1 9.3 14.6 57.9 14.5 57.9z"/>
							<g id="&lt;Group&gt;">
								<path id="&lt;Path&gt;" class="s4" d="m989 667.4c-6.9 0.9-13.6 3.2-19.4 6.9-7.4 4.6-12.4 10.2-18.7 15.7-0.1 0.1 0.1 0.4 0.2 0.3 3-2.7 15.4-12.5 18.5-14.8 5.9-4.1 12.3-6.9 19.4-8 0 0 0-0.1 0-0.1z"/>
								<path id="&lt;Path&gt;" class="s4" d="m983.9 655c-7.6 1.9-15.4 3.8-22.5 7.2-7.8 3.8-14 10-20.1 16q-5.4 5.4-10.6 11.1c-0.2 0.1 0 0.4 0.2 0.2q9.2-9.3 19-18c6.1-5.5 12.9-9.6 20.7-12.4 4.4-1.5 8.8-2.7 13.3-3.9 0.1-0.1 0.1-0.2 0-0.2z"/>
								<path id="&lt;Path&gt;" class="s4" d="m976.1 644.1c-7.4 1.4-13.9 2.5-20.5 6.3-8.7 5-17.3 13.6-20.3 16.6-3.3 3.4-6.4 6.9-9.6 10.4-0.1 0.1 0.1 0.4 0.3 0.2 7.1-7.7 14.8-15 22.9-21.6 3.9-3.3 8.1-6 12.8-7.9 4.6-1.9 9.5-2.9 14.4-3.9 0 0 0-0.1 0-0.1z"/>
							</g>
						</g>
					</g>
					<g id="&lt;Group&gt;">
						<path id="&lt;Path&gt;" class="s3" d="m1020.8 634.6l19 65.8c0 0 56.1-14.6 66.6-25.4 10.4-10.7 30.6-67 36.8-94.4 6.2-27.3-7.7-27-20.9-10-13.2 17.1-46.1 58.3-47.9 59.2-1.8 0.9-53.6 4.8-53.6 4.8z"/>
						<path id="&lt;Path&gt;" class="s4" d="m1045.8 671.5c-2.3-7.7-4.6-15.5-6.7-23.3-1.1-4.5-2.3-8.9-3.4-13.4 0-0.2 0.2-0.2 0.3-0.1 2.6 7.7 5.2 15.4 7.5 23.2 2.3 7.8 4.6 15.6 6.8 23.4q1.8 6.6 3.2 13.3c0.1 0.1-0.1 0.2-0.1 0.1-2.9-7.6-5.2-15.4-7.6-23.2z"/>
						<path id="&lt;Compound Path&gt;" fill-rule="evenodd" class="s7" d="m1044.2 632.8q0.3 0 0.5-0.1 0 0.3 0 0.6c0 2.9 0.6 5.9 1.6 8.6 1.1 2.7 2.6 5.3 4.5 7.5 1.9 2.3 4.3 4.1 6.9 5.3 2.7 1.2 5.6 1.9 8.6 2.1 2.3 0.3 4.6 0.3 7 0.2q0.2 0.2 0.5 0.4c-2.5 0.1-5.1 0.1-7.6-0.2-2.9-0.2-5.9-0.9-8.6-2.1-2.8-1.2-5.2-3.1-7.1-5.4-1.9-2.3-3.5-4.8-4.6-7.6-0.5-1.4-1-2.9-1.2-4.3q-0.4-2.3-0.5-4.5 0-0.3 0-0.5zm30.9 24.1c2.9-0.1 5.9-0.5 8.8-0.8 5.9-0.8 11.8-1.7 17.7-1.8 3-0.1 6 0.1 8.9 0.9 2.1 0.5 4.2 1.4 5.9 2.8q0 0.1-0.1 0.3c-1.7-1.4-3.8-2.3-5.9-2.8-2.9-0.8-5.8-0.9-8.8-0.9-5.9 0.1-11.8 1.1-17.6 1.8-3 0.4-5.9 0.7-8.9 0.9q-0.4 0-0.8 0.1c-0.2-0.1-0.4-0.3-0.5-0.4q0.6 0 1.3-0.1zm-12.3-16.7c0.7 2.9 1.9 5.7 3.4 8.3 1.4 2.5 3.2 5 5.4 7q0.8 0.8 1.7 1.5h0.5q-1-0.8-2-1.7c-2.1-2.1-3.9-4.5-5.3-7-1.5-2.6-2.7-5.3-3.4-8.2-0.7-2.8-0.9-5.8-0.9-8.7q0-0.1 0.1-0.2-0.2 0-0.5 0.1v0.1c0 2.9 0.2 5.9 1 8.8zm16.1 20.4c2.7 1.3 5.5 2.2 8.4 2.9 5.8 1.5 11.7 2.3 17.1 4.6 1.8 0.7 3.6 1.6 5.2 2.7q0.1-0.1 0.2-0.2-2.5-1.7-5.3-2.8c-5.5-2.3-11.4-3.1-17.1-4.6-2.9-0.7-5.7-1.6-8.4-2.9q-2.5-1.2-4.7-2.9h-0.5c1.5 1.3 3.3 2.3 5.1 3.2z"/>
						<path id="&lt;Path&gt;" class="s23" d="m1037.9 693.8l1.9 6.6c0 0 56.1-14.6 66.6-25.3 10.4-10.8 30.6-67.1 36.8-94.5 4.5-20-1.7-25.2-10.5-19.9-23.9 32.9-69 95.3-94.8 133.1z"/>
					</g>
				</g>
				<g id="&lt;Group&gt;">
					<g id="&lt;Group&gt;">
						<path id="&lt;Path&gt;" class="s3" d="m1207.5 707.9c-0.3 0.3-118.9-25.7-120-27.1-1.6-1.9 19.6-91.2 42-117.8 5.6-6.7 23.4-6.2 31.4 0.5 39.5 33.3 47.8 143.2 46.6 144.4z"/>
					</g>
				</g>
				<g id="&lt;Group&gt;">
					<g id="&lt;Group&gt;">
						<g id="&lt;Group&gt;">
							<path id="&lt;Path&gt;" class="s22" d="m1170.6 570.3c24.6 18.9 89.5 95.4 75.9 113.6-13.6 18.2-106.4 12.1-133.5 4.3-8.1-2.4 12.6-53.7 21.2-56.2 7.2-2.1 47.4 8.8 48.1 6.5 0.8-2.7-8.1-19.6-22.4-50.6-16.6-35.8-0.1-26 10.7-17.6z"/>
							<g id="&lt;Group&gt;">
								<g id="&lt;Group&gt;">
									<path id="&lt;Path&gt;" class="s22" d="m1094.6 623.1c-18.6 0.5-23.3 3.4-39.2-4.5-10.4-5.2-18.2-0.8-11.1 9.1 11.5 16.1 35.7 20.5 44.5 19.6z"/>
									<g id="&lt;Group&gt;">
										<path id="&lt;Path&gt;" class="s22" d="m1145.7 632.6c0 0-22.3-8-42.1-9.4-13.7-1-43.9 0.1-67.3 33.9-5.5 8-7.8 23.4 6.1 13.6 9.8-7 13.9-14.4 20.4-17.4 0 0-0.6 19.9 7.7 25.2 3.7 2.3 13.9 8.5 22.5 12.1 0 0 1.3-1.6 2.7-4 0 0 8.1 4.2 21.6 0.6z"/>
									</g>
									<g id="&lt;Group&gt;">
										<path id="&lt;Path&gt;" class="s22" d="m1090.3 624.3c-5.7 4.4-17.8 13.7-25 24.9-8 12.3-20.1 38.3-10.9 44.1 6.7 4.2 12.2-5.3 12.2-5.3 0 0-2.7 11.8 4.2 14.3 6.3 2.3 10.1-5.3 10.1-5.3 0 0-0.4 7.5 6.1 8.5 7.8 1.2 7.4-14.5 16.4-20.1 2-1.3-13.1-61.1-13.1-61.1z"/>
										<g id="&lt;Group&gt;">
											<g id="&lt;Group&gt;">
												<path id="&lt;Path&gt;" class="s4" d="m1079.7 655.4c-4.7 5-12.6 19.1-13.2 32.4-0.1 0.3 0.2 0.4 0.2 0.2 3.8-14.5 10.2-27.2 13.2-32.5 0-0.1-0.1-0.1-0.2-0.1z"/>
											</g>
											<g id="&lt;Group&gt;">
												<path id="&lt;Path&gt;" class="s4" d="m1092 663.9c-3.7 4.7-11.2 19.5-11.4 33 0 0.3 0.3 0.5 0.3 0.2 3.4-15.3 8.5-27.7 11.2-33.2 0 0-0.1-0.1-0.1 0z"/>
											</g>
										</g>
									</g>
								</g>
								<path id="&lt;Path&gt;" class="s4" d="m1062.7 653.2c-5.6 2.7-9 6.3-13.4 10.6-2.2 2.1-4.4 4.2-6.8 6.1-2.2 1.7-5.4 4.2-8.4 2.6-1.6-0.9-1.9-3-1.8-4.6 0-1.9 1.3-5.6 2.1-7.3 0-0.1-0.1-0.2-0.2-0.1-0.7 1.5-2.2 4.9-2.5 6.6-0.3 1.5-0.5 3.3 0.2 4.7 1.4 3.1 5.3 2.9 7.9 1.6 1.6-0.8 3-2 4.3-3.1q1.9-1.6 3.8-3.3c2.5-2.4 4.8-4.9 7.3-7.3 2.7-2.6 4.7-4 7.7-6.3 0.1-0.1-0.1-0.2-0.2-0.2z"/>
								<path id="&lt;Path&gt;" class="s4" d="m1053.8 676.1c1-3.6 6.9-19.1 9.1-22.8 0-0.1-0.1-0.1-0.2-0.1-3.9 5.2-9.4 18-10.5 22-1.1 4-2.3 9-1.6 13.1 1 6.2 5.3 6.7 6.9 6.8 1.9 0 3.6-0.7 5.1-1.8 1.7-1.2 3.1-3.4 4.1-5.3 0 0-0.1-0.1-0.2 0-1.7 2.7-4.9 5.7-8.3 5.9-1.5 0-3.1-0.4-4.2-1.5-1.3-1.2-1.7-3.1-1.8-4.8-0.3-3.9 0.6-7.8 1.6-11.5z"/>
							</g>
						</g>
						<g id="&lt;Group&gt;">
							<path id="&lt;Path&gt;" class="s3" d="m1145.7 632.6l-18.6 65c0 0 116.1 6.6 122.6-14.5 6.4-21.1-49.7-90.2-73-109.2-27-22-28.4-12.7-19.6 9.3 9.1 23 25 55.9 25 55.9z"/>
							<path id="&lt;Compound Path&gt;" fill-rule="evenodd" class="s7" d="m1179 627.8c2.9-0.2 5.8-1.1 8.5-2.2 2.2-0.9 4.2-2 6.3-3.2q0.2 0.1 0.5 0.1c-2.1 1.3-4.3 2.5-6.6 3.5-2.8 1.1-5.7 2-8.7 2.2q-1 0.1-2.1 0-0.1-0.2-0.1-0.4 1.1 0.1 2.2 0zm16.3-6.3c2.5-1.6 5-3.3 7.4-5 2.8-2 5.6-4 8.4-6q0.1 0.1 0.2 0.3c-2.8 1.9-5.6 4-8.4 6-2.4 1.8-4.9 3.5-7.4 5q-0.3 0.2-0.7 0.5-0.3-0.1-0.6-0.1 0.6-0.4 1.1-0.7zm-35.7-44.9q1.5 1.8 2.6 3.7c1.4 2.6 2.6 5.4 3.5 8.2 1 2.8 1.8 5.6 2.8 8.4 0.9 2.8 2 5.6 3.3 8.2 1.4 2.7 3 5.1 5 7.3 2 2.2 4.3 4.1 6.8 5.6 2.5 1.5 5.2 2.8 8 3.6q1.3 0.4 2.6 0.6-0.2 0.1-0.4 0.2-1.1-0.2-2.2-0.5c-2.9-0.8-5.6-2-8.2-3.6-2.5-1.6-4.9-3.4-6.9-5.6-2-2.2-3.7-4.7-5-7.4-1.4-2.6-2.4-5.4-3.4-8.2-1-2.8-1.8-5.7-2.8-8.5-1-2.8-2.1-5.5-3.5-8-1.5-2.6-3.4-4.9-5.6-6.8-1-0.9-2-1.6-3.1-2.3-0.1-0.2-0.1-0.4-0.1-0.6q1.8 1.1 3.5 2.5 1.7 1.5 3.1 3.2zm34.7 45.9q0.3-0.1 0.5-0.2c1.8 0.3 3.7 0.4 5.6 0.3 2.9-0.1 5.8-0.7 8.7-1.4 2.9-0.8 5.7-1.6 8.6-2.4q0.1 0.1 0.2 0.2c-2.9 0.8-5.8 1.7-8.7 2.5-2.9 0.7-5.8 1.3-8.8 1.4q-3.1 0.1-6.1-0.4zm-45.2 10.7h0.1q-0.2 2-0.2 3.9-0.1 1.2 0 2.5 0 0.1-0.1 0.2-0.1-1.3-0.1-2.7 0-1.9 0.3-3.9zm1 12.7c0.7 2.8 1.8 5.6 3.3 8.2 1.5 2.5 3.4 4.8 5.6 6.8 4.4 4 9.6 6.8 14.5 10.2 2.5 1.7 4.8 3.5 6.9 5.6 1.4 1.5 2.7 3.1 3.7 4.8q-0.2-0.1-0.5-0.1c-1-1.6-2.2-3.1-3.5-4.4-2-2.2-4.3-4-6.8-5.7-4.8-3.3-10.1-6.1-14.5-10.2-2.2-2-4.1-4.3-5.6-6.9-1.5-2.6-2.6-5.4-3.3-8.2-0.5-2-0.8-3.9-1-5.9q0.1-0.1 0.2-0.2c0.1 2 0.5 4 1 6zm35.4 38.1c1.3 2.7 2.2 5.6 2.7 8.5 0.3 1.9 0.5 3.8 0.5 5.7h-0.4q0-2.8-0.5-5.6c-0.5-2.9-1.3-5.8-2.6-8.4q-0.6-1.2-1.3-2.3 0.3 0 0.5 0.1 0.6 1 1.1 2zm-42.3-19.8c1.1 2.7 3.2 5 5.7 6.7 2.4 1.7 5.2 2.9 8 3.9 5.6 2 11.4 3.1 17.2 4.4 2.9 0.7 5.8 1.4 8.6 2.3q0.6 0.2 1.2 0.4-0.1-0.3-0.3-0.5-0.4-0.2-0.8-0.3c-2.8-0.8-5.7-1.5-8.6-2.2-5.8-1.4-11.6-2.5-17.2-4.4-2.8-1-5.5-2.2-7.9-3.8-2.5-1.7-4.5-3.9-5.7-6.7-1.1-2.7-1.6-5.6-1.3-8.6 0.2-2.9 1.3-5.7 2.6-8.3 1.3-2.4 2.8-4.7 4.2-7q0-0.2 0-0.3c-1.5 2.4-3.1 4.7-4.4 7.2-1.3 2.6-2.4 5.4-2.7 8.4-0.3 3 0.2 6 1.4 8.8zm47.8 20.4c2.6 1.3 5.1 2.9 7.2 5 2.1 2 3.7 4.5 4.7 7.3q0.1 0.2 0.1 0.5 0.3-0.1 0.5-0.1-0.1-0.3-0.2-0.5c-1-2.9-2.6-5.5-4.8-7.5-2.1-2.1-4.7-3.8-7.4-5.1-2.2-1.1-4.6-1.9-7-2.7q0.2 0.3 0.3 0.5c2.3 0.7 4.4 1.6 6.6 2.6zm-38.5-50.8h-0.2c-0.9 2-2.1 3.9-3.3 5.8q0 0.1 0.1 0.3c1.2-2 2.4-4 3.4-6.1z"/>
							<g id="&lt;Group&gt;">
								<path id="&lt;Path&gt;" class="s4" d="m1218.8 649.5c-5.8-2.8-11.8-5-17.9-6.9-6.1-1.9-12.3-3.1-18.6-4.1-3.5-0.6-7.1-1-10.7-1.4-0.1 0-0.1 0.2 0 0.2 6.3 0.9 12.5 2.3 18.6 3.9q9.2 2.4 18.3 5.2c3.4 1 6.8 2.2 10.2 3.3 0.1 0.1 0.2-0.2 0.1-0.2z"/>
								<path id="&lt;Path&gt;" class="s4" d="m1146 632.4c0.6 0 32.9 5.1 34 5.4-0.2-0.5-8.4-15.8-9.6-18.1q-0.2-0.3-0.4-0.7c-0.7-0.9-1.5-1.9-2.2-2.9q-1.3-1.9-2.6-3.9c0 0 0-0.1 0 0q1.5 1.8 2.9 3.7 0.6 0.9 1.2 1.8-1.2-2.4-2.4-4.8c-1.3-2.6-2.5-5.2-3.6-7.8-0.1-0.1 0-0.1 0.1-0.1 2.4 4.5 4.9 8.9 7.4 13.4 2.4 4.5 11.6 20.9 11.5 20.9 0 0-35.7-6.3-36.4-6.5-0.2-0.1-0.2-0.5 0.1-0.4z"/>
								<path id="&lt;Path&gt;" class="s4" d="m1150.4 672c2.1-7.2 4.1-14.5 6.4-21.7 1.3-4 2.6-8.1 3.9-12.2 0.1-0.1 0.3-0.1 0.3 0.1-1.8 7.3-3.5 14.7-5.6 22-2.1 7.2-4.1 14.5-6.3 21.7q-1.9 6.1-4.1 12.1c0 0.1-0.2 0.1-0.2 0 1.6-7.4 3.6-14.7 5.6-22z"/>
								<path id="&lt;Path&gt;" class="s4" d="m1125.8 698.7c0.8-2 1.8-4.9 2.7-6.9 0.2-0.5 0.6-0.5 0.4 0-0.6 1.9-1 3.9-1.5 5.8 1.6 0 3.2 0 4.9 0.1q2.8 0.1 5.6 0.2 5.5 0.3 11 0.4 11.2 0.2 22.4-0.1c14.9-0.4 29.9-1.3 44.7-3.2q6.3-0.7 12.4-1.8c4.2-0.8 8.7-1.6 12.1-2.6 0.1-0.1 0.2 0.1 0.1 0.2-3.5 1.3-6.8 2.3-10.4 3.1q-5.5 1.2-11.2 2.1c-7.4 1.1-14.9 1.9-22.5 2.4-14.9 1.1-29.9 1.5-44.8 1.4q-6.3-0.1-12.6-0.3-3.2-0.1-6.3-0.3c-2.1-0.1-7.2-0.1-7-0.5z"/>
							</g>
						</g>
					</g>
				</g>
				<g id="&lt;Group&gt;">
					<g id="&lt;Group&gt;">
						<g id="&lt;Group&gt;">
							<g id="&lt;Group&gt;">
								<path id="&lt;Path&gt;" class="s9" d="m960.4 711.4v6.1h137.2v-6.1z"/>
							</g>
							<g id="&lt;Group&gt;">
								<path id="&lt;Path&gt;" class="s1" d="m960.4 711.4v6.1h93.2l-4.7-6.1z"/>
							</g>
						</g>
						<g id="&lt;Group&gt;">
							<path id="&lt;Path&gt;" class="s9" d="m1043 717.5h-133.7l-11.1-90.8h133.7z"/>
							<path id="&lt;Path&gt;" class="s7" d="m978.8 672.1c0 4.5-3.5 8.2-8 8.2-4.5 0-8.2-3.7-8.3-8.2-0.1-4.5 3.5-8.1 8-8.1 4.5 0 8.2 3.6 8.3 8.1z"/>
						</g>
					</g>
				</g>
				<g id="&lt;Group&gt;">
					<g id="&lt;Group&gt;">
						<g id="&lt;Group&gt;">
							<g id="&lt;Group&gt;">
								<path id="&lt;Path&gt;" class="s22" d="m1135.1 583.6c5.5-0.1 16.1-10.9 20-19.7 0.3-0.6-1.1-6.6-2.4-14-0.8-4.4-1.6-9.4-2-14.1l-28.4 9.5c0 0 3.7 9.4 4.3 17.5q0.1 1-0.1 1.9 0 0.1 0 0.3c-0.3 3.7 0.1 18.7 8.6 18.6z"/>
							</g>
							<path id="&lt;Path&gt;" class="s4" d="m1126.6 564.7q-0.1 0.1-0.1 0.3c1 0.1 1.9 0.1 3-0.1 16.5-1.7 18.8-22.1 19.1-28.4l-26.3 8.8c0 0 3.7 9.4 4.3 17.5q0 1 0 1.9z"/>
						</g>
						<g id="&lt;Group&gt;">
							<g id="&lt;Group&gt;">
								<path id="&lt;Path&gt;" class="s22" d="m1146.9 499.7c5.3 9.3 6.7 39.6 1 47.7-8.2 11.7-25 16.5-35.8 5.8-10.5-10.3-11.5-49.7-4.9-57.4 9.8-11.3 31.8-9.9 39.7 3.9z"/>
							</g>
							<g id="&lt;Group&gt;">
								<path id="&lt;Path&gt;" class="s4" d="m1127 520.7c-0.9-0.2-1.8-0.5-2.6-0.8-1-0.2-1.9-0.4-2.6-1.2-0.3-0.4-0.3-1.3 0.1-1.7 1-0.9 2.3-0.9 3.5-0.6 1.3 0.3 2.2 0.9 3.1 2 0.8 1-0.3 2.5-1.5 2.3z"/>
								<path id="&lt;Path&gt;" class="s4" d="m1106.4 522.4c0.9-0.2 1.7-0.6 2.6-0.9 1-0.3 1.8-0.5 2.4-1.4 0.4-0.4 0.2-1.3-0.2-1.7-1-0.8-2.3-0.7-3.4-0.4-1.3 0.4-2.2 1.1-3 2.2-0.7 1.1 0.5 2.5 1.6 2.2z"/>
								<path id="&lt;Path&gt;" class="s4" d="m1127.3 544.4c-0.4 0.5-0.9 1.2-1.6 1.3-0.7 0.1-1.6-0.1-2.2-0.3-0.1-0.1-0.2 0-0.1 0.1 0.6 0.7 1.7 1.1 2.6 0.9 0.9-0.2 1.3-1.1 1.5-1.9 0-0.2-0.1-0.2-0.2-0.1z"/>
								<g id="&lt;Group&gt;">
									<g id="&lt;Group&gt;">
										<path id="&lt;Path&gt;" class="s4" d="m1124.7 538.5c-1 1.8-2.6 2.9-4.4 3.4-0.8 0.2-1.6 0.3-2.5 0.3q-0.2 0-0.4 0-0.3 0-0.5-0.1c-0.2 0-0.4-0.2-0.4-0.4q0-0.1 0-0.2 0 0 0 0v-0.2c-0.2-1.6-0.2-4-0.2-4-0.6 0.4-3.4 1.9-3.4 1.1-0.1-6.8-0.2-14.4 1.1-21.2 0-0.2 0.4-0.2 0.4 0.1 0.3 6.5-0.5 13-0.2 19.6 0.9-0.4 2.4-1.2 3.2-1.2 0.2 0 0 4.6 0.1 5.3q0 0 0 0.1c2.7 0.1 4.6-0.8 7-2.8 0.1-0.1 0.3 0 0.2 0.2z"/>
									</g>
								</g>
								<g id="&lt;Group&gt;">
									<path id="&lt;Path&gt;" class="s4" d="m1118.7 541.3c0 0 1.5 1.8 3.5 2.3 0.7 0.2 1.5 0.3 2.2 0 1.6-0.5 1.6-2 1.2-3.3-0.4-1-0.9-1.9-0.9-1.9 0 0-2.2 2.4-6 2.9z"/>
									<path id="&lt;Path&gt;" class="s24" d="m1122.2 543.6c0.7 0.2 1.5 0.3 2.2 0 1.6-0.5 1.6-2 1.2-3.3-1.8 0.3-3.4 1.6-3.4 3.3z"/>
								</g>
								<g id="&lt;Group&gt;">
									<g id="&lt;Group&gt;">
										<path id="&lt;Path&gt;" class="s4" d="m1122.7 526c0-0.1 0.2 0 0.2 0.1 0.1 2 0.7 4.3 2.6 4.8 0 0 0 0.1-0.1 0.1-2.2-0.1-2.9-3.1-2.7-5z"/>
										<path id="&lt;Path&gt;" class="s4" d="m1124.3 523.7c3.2-0.6 4.2 5.8 1.2 6.4-3 0.5-3.9-5.9-1.2-6.4z"/>
									</g>
								</g>
								<g id="&lt;Group&gt;">
									<g id="&lt;Group&gt;">
										<path id="&lt;Path&gt;" class="s4" d="m1111 526.9c-0.1-0.1-0.2 0.1-0.2 0.2 0.4 2 0.5 4.3-1.2 5.3-0.1 0-0.1 0.1 0 0.1 2.2-0.7 2-3.8 1.4-5.6z"/>
										<path id="&lt;Path&gt;" class="s4" d="m1108.8 525.1c-3.2 0.2-2.5 6.7 0.5 6.5 3-0.3 2.3-6.7-0.5-6.5z"/>
									</g>
								</g>
							</g>
							<path id="&lt;Path&gt;" class="s4" d="m1151.5 530c-1.6 0.2-4.5-5.2-5.4-5.2-1-0.1-2.6-0.8-2.8-1.4-0.2-0.7-1.5-11.3-3.3-16.6-1.7-5.3-7.5-9.2-12.8-8.1-5.3 1-7.9 6.2-11.7 6.2-3.8 0-5.5-3.6-7.8-2.8-2.3 0.8-4 5.1-4.4 8.8 0.5-7 1.8-12.6 3.9-15.1 9.8-11.3 31.8-9.9 39.7 3.9 3.2 5.6 5 18.9 4.6 30.3z"/>
							<g id="&lt;Group&gt;">
								<path id="&lt;Path&gt;" class="s22" d="m1146.1 524.8c0 0 4.6-10.8 9.4-9.4 4.7 1.5 2.6 16.2-2 19.1-4.7 2.9-7.4-1.3-7.4-1.3z"/>
								<path id="&lt;Path&gt;" class="s4" d="m1154.8 519.6c0 0 0.1 0.1 0 0.1-3.2 2.2-4.4 5.9-5 9.5 0.8-1.5 2.1-2.5 4.1-1.6 0.1 0 0 0.2-0.1 0.2-1.5 0-2.5 0.4-3.2 1.8-0.5 0.9-0.8 2.1-1.1 3.1-0.1 0.4-0.7 0.3-0.6-0.1q0 0 0-0.1c-1.1-4.4 1.1-11.4 5.9-12.9z"/>
							</g>
						</g>
					</g>
				</g>
			</g>
			<g id="&lt;Group&gt;">
				<g id="&lt;Group&gt;">
					<g id="&lt;Group&gt;">
						<path id="&lt;Path&gt;" class="s22" d="m728.2 820.6c1.6 4.4 80 101.9 85.4 103.7 2 0.7 16.9-9.9 34.5-23.2 3.8-2.9 7.7-5.9 11.6-8.9 25.7-19.9 52.5-41.5 52.5-41.5l-52.3-65.4-51 43.3-11.2 9.5c0 0-46.7-23.9-52.8-25.3-6.1-1.4-18.3 3.5-16.7 7.8z"/>
						<path id="&lt;Path&gt;" class="s7" d="m728.2 820.6c1.6 4.4 80 101.9 85.4 103.7 2.5 0.8 23.9-15 46.1-32.1l-50.8-63.6-11.2 9.5c0 0-46.7-23.9-52.8-25.3-6.1-1.4-18.3 3.5-16.7 7.8z"/>
						<g id="&lt;Group&gt;">
							<path id="&lt;Path&gt;" class="s3" d="m728.2 820.6c1.6 4.4 80 101.9 85.4 103.7 2 0.7 16.9-9.9 34.5-23.2l-50.4-63c0 0-46.7-23.9-52.8-25.3-6.1-1.4-18.3 3.5-16.7 7.8z"/>
							<g id="&lt;Group&gt;">
								<g id="&lt;Group&gt;">
									<path id="&lt;Path&gt;" class="s4" d="m733.2 818.9c13.6 16 66.7 81.9 78.9 98.8 0.1 0.1 0 0.2-0.1 0.1-13.8-15.6-66.4-82-79-98.7-0.3-0.3-0.1-0.5 0.2-0.2z"/>
									<path id="&lt;Path&gt;" class="s4" d="m753.4 816.2c3.3 3.8 4.5 9.1 3.9 13-0.6 3.9-2.3 8.1-5.8 10.7-0.1 0.1-0.2-0.1-0.1-0.2 5.6-6.1 6.5-16.4 1.8-23.3-0.1-0.1 0.1-0.3 0.2-0.2z"/>
									<path id="&lt;Path&gt;" class="s4" d="m791 833c5.3 6.5 9.1 16 7 24.3-0.1 0.3-0.5 0.2-0.6 0-1.7-8.4-3.9-15.9-7.3-23.7-0.3-0.6 0.5-1 0.9-0.6z"/>
									<path id="&lt;Path&gt;" class="s4" d="m784.9 829.6c5.4 6.4 9.2 15.9 7.1 24.3-0.1 0.3-0.5 0.2-0.6-0.1-1.7-8.4-4-15.8-7.4-23.7-0.2-0.5 0.5-1 0.9-0.5z"/>
									<path id="&lt;Path&gt;" class="s4" d="m778.9 826.1c5.3 6.5 9.1 15.9 7.1 24.3-0.1 0.3-0.6 0.2-0.6-0.1-1.7-8.3-4-15.8-7.4-23.7-0.2-0.5 0.5-1 0.9-0.5z"/>
									<path id="&lt;Path&gt;" class="s4" d="m772.9 822.6c5.3 6.5 9.1 16 7 24.3-0.1 0.3-0.5 0.2-0.6 0-1.7-8.4-3.9-15.9-7.3-23.7-0.3-0.6 0.5-1 0.9-0.6z"/>
									<path id="&lt;Path&gt;" class="s7" d="m824.3 901c5.9 7.4-5.6 16.5-11.5 9.2-5.8-7.4 5.6-16.5 11.5-9.2z"/>
								</g>
								<path id="&lt;Compound Path&gt;" fill-rule="evenodd" class="s4" d="m802.7 811.9c5.4 1.1 6.1 7.5 4.9 11.8-2 7-6.6 14.5-11.9 19.4-0.2 0.1-0.3 0.1-0.4-0.1-0.6 0.3-1.4 0-1.5-0.7-0.5-7.3-2-14.9-0.2-22.1 1-4.2 4-9.3 9.1-8.3zm-7.4 19.2c0.2 3.6 0.5 7.2 0.5 10.7 2.4-3.8 4.8-7.4 6.8-11.5 0.9-1.9 1.8-3.9 2.5-5.9 1-3.2 1.3-14-6.4-8.9-4.2 2.8-3.6 11.4-3.4 15.6z"/>
								<path id="&lt;Compound Path&gt;" fill-rule="evenodd" class="s4" d="m806.3 861.3c-5.5-5-8.6-12.2-12.2-18.5-0.4-0.6 0.2-1.3 0.8-1.4 0-0.2 0.1-0.3 0.3-0.3 7.1 1.1 15.2 4.7 20.7 9.4 3.5 2.9 6.5 8.5 2.6 12.5-3.6 3.7-9 1.2-12.2-1.7zm6.9 1c9.2-0.1 2.9-8.9 0.2-11-1.6-1.3-3.5-2.4-5.4-3.5-3.8-2.2-7.9-3.9-12-5.7 2 3 3.7 6.1 5.6 9.2 2.2 3.6 6.6 11 11.6 11z"/>
							</g>
						</g>
					</g>
					<g id="&lt;Group&gt;">
						<path id="&lt;Path&gt;" class="s5" d="m811.6 818.7l54.4 73.4 183.6-127.4 17.7-12.3c0 0 5.1 3.4 12.6 7.6 10.5 5.8 25.8 13.1 39.4 15.1 22.8 3.4 60.9 3 80.1-22.7 16.2-21.6 7.4-49.8 7.4-49.8l-25-10.8c0 0-59.3-49.3-97.6-50.8-16.3-0.7-40 11.7-62 24.6-22 12.9-210.6 153.1-210.6 153.1z"/>
						<path id="&lt;Path&gt;" class="s4" d="m1067.3 752.4c0 0 5.1 3.4 12.6 7.6 13.3-16 41.6-45 42.4-46z"/>
						<path id="&lt;Path&gt;" class="s4" d="m1160.1 675.3c3.5 2.5 6.9 5.1 10.4 7.6 3.5 2.5 7 4.8 10.3 7.5 3.3 2.8 6.4 5.7 9.6 8.7q2.2 2.1 4.4 4.4c1.5 1.4 3.1 2.9 4.3 4.6 0.1 0.1-0.1 0.3-0.3 0.2-1.7-1-3.2-2.5-4.7-3.8q-2.5-2.1-5-4.2c-3.1-2.7-6.4-5.4-9.6-8.1-3.1-2.7-6-5.6-9.2-8.4-3.3-2.9-6.8-5.6-10.3-8.4-0.1 0 0-0.1 0.1-0.1z"/>
						<path id="&lt;Path&gt;" class="s4" d="m824.4 816.1c3.5 3.8 6.8 7.9 10.1 11.9q4.9 6.1 9.8 12.2c6.6 8.1 13.1 16.3 19.6 24.5 3.5 4.5 7 9.1 10.2 13.8 0.2 0.2-0.1 0.4-0.3 0.3-7-7.8-13.5-16-20-24.1-6.5-8.2-13-16.4-19.4-24.6-3.5-4.6-7.1-9.1-10.3-13.8-0.2-0.2 0.1-0.4 0.3-0.2z"/>
						<path id="&lt;Path&gt;" class="s4" d="m975.1 816.8c9.1-7.2 18.6-14 28.1-20.7 9.4-6.7 18.8-13.5 28.4-20q4.1-2.8 8.2-5.5c2.8-1.9 5.7-3.6 8.4-5.5 0.1-0.1 0.3 0.2 0.1 0.3-2.4 1.8-4.8 3.8-7.2 5.6-2.4 1.8-4.7 3.6-7 5.3-4.6 3.4-9.3 6.7-13.9 10.1-9.4 6.8-18.8 13.5-28.4 20-5.4 3.7-10.8 7.5-16.3 11-0.3 0.2-0.7-0.3-0.4-0.6z"/>
						<path id="&lt;Path&gt;" class="s4" d="m916.4 741.1c8.4-7 17.5-13.3 26.3-19.8 9-6.5 17.9-13.1 26.8-19.6q13.4-9.7 26.8-19.3c8.6-6.3 17.2-12.6 26.3-18.2q7.5-4.5 15.4-8.3c5.1-2.5 10.5-5 15.9-6.5 0.2-0.1 0.3 0.2 0.1 0.3-4.5 2.5-9.2 4.6-13.7 7q-6.8 3.6-13.3 7.6c-9.1 5.5-17.6 11.7-26.2 17.9-17.9 12.8-35.7 25.7-53.7 38.4-10 7-19.9 14.5-30.3 21-0.4 0.2-0.7-0.3-0.4-0.5z"/>
					</g>
				</g>
			</g>
		</g>
	</g>
	<g id="Cloud">
		<g id="&lt;Group&gt;">
			<path id="&lt;Path&gt;" class="s3" d="m922.9 443.7c0 14.7 11.3 26.6 25.7 27.7v0.1h157.3c18 0 32.6-14.6 32.6-32.7 0-17-13-30.9-29.6-32.5-0.9-29.5-25.2-53.2-54.9-53.2-23.8 0-44 15-51.7 36-4.4-2.2-9.3-3.4-14.6-3.4-17.3 0-31.5 13.5-32.6 30.6q-2.2-0.4-4.5-0.4c-15.3 0-27.7 12.5-27.7 27.8z"/>
			<g id="&lt;Group&gt;">
				<path id="&lt;Path&gt;" class="s7" d="m1017.7 437.1h40.1v34.4h-40.1z"/>
				<path id="&lt;Path&gt;" class="s7" d="m1004 437.1h67.5l-33.7-33.7z"/>
			</g>
		</g>
	</g>
</svg>