<svg version="1.2" xmlns="http://www.w3.org/2000/svg" viewBox="0 0 1000 1000" width="1000" height="1000">
	<title>6437944-ai</title>
	<style>
		.s0 { fill: #ebebeb } 
		.s1 { fill:  #BA68C8 } 
		.s2 { fill: #263238 } 
		.s3 { fill: #455a64 } 
		.s4 { fill: #ffffff } 
		.s5 { fill: #dbdbdb } 
		.s6 { opacity: .1;fill: #000000 } 
		.s7 { fill: #000000 } 
		.s8 { opacity: .2;fill: #000000 } 
		.s9 { fill: #c7c7c7 } 
		.s10 { fill: #a6a6a6 } 
		.s11 { fill: none;stroke: #dbdbdb;stroke-miterlimit:10;stroke-width: 1.5 } 
		.s12 { fill: none;stroke: #dbdbdb;stroke-miterlimit:10;stroke-width: 1.5;stroke-dasharray: 6.1358,6.1358 } 
		.s13 { fill: none;stroke: #dbdbdb;stroke-miterlimit:10;stroke-width: 1.5;stroke-dasharray: 6.13578,6.13578 } 
		.s14 { fill: #eb9481 } 
		.s15 { fill: #37474f } 
		.s16 { fill: #d3766a } 
		.s17 { fill: #ff9cbd } 
		.s18 { fill: #ad6359 } 
		.s19 { opacity: .4;fill: #ffffff } 
		.s20 { fill: #ff9bbc } 
		.s21 { opacity: .3;fill: #ffffff } 
		.s22 { opacity: .1;fill: #050400 } 
	</style>
	<g id="Background Complete">
		<g id="&lt;Group&gt;">
			<path id="&lt;Path&gt;" class="s0" d="m804.1 747.6h70.4v-22.4h-70.4z"/>
			<path id="&lt;Path&gt;" class="s0" d="m376.8 441.9h70.3v-22.3h-70.3z"/>
			<g id="&lt;Group&gt;">
				<path id="&lt;Compound Path&gt;" fill-rule="evenodd" class="s0" d="m843.4 775.8l-0.5-22.4v-0.4h0.5l17.5-0.3 17.6-0.1 35.2-0.2h1v1l-0.1 22.4v0.9h-0.9l-17.8-0.1-17.6-0.2zm0 0l35.4-0.6 17.5-0.2 16.5-0.1-0.1-20.5-34.2-0.1-17.5-0.2-17.2-0.2zm69.4-0.9v0.9l1-0.9zm-0.1-20.5h1l-1-1zm-68.9-0.5v-0.5l-0.4 0.5z"/>
			</g>
			<g id="&lt;Group&gt;">
				<path id="&lt;Compound Path&gt;" fill-rule="evenodd" class="s0" d="m509 660.6l-0.5-22.3v-0.5h0.5c8.8-0.1 26.4-0.3 35.2-0.4 0 0 35.1-0.1 35.1-0.1h1v1l-0.1 22.3v0.9h-0.9-17.7c-11.2-0.2-41-0.7-52.6-0.9zm0 0c11.7-0.2 41.6-0.7 52.9-0.8l16.5-0.1-0.1-20.5c-12.3 0-40.8-0.1-51.7-0.3l-17.1-0.2zm69.4-0.9v0.9l0.9-0.9zm-0.1-20.5q0.5 0 1 0l-1-1zm-68.9-0.5v-0.4l-0.4 0.4z"/>
			</g>
			<g id="&lt;Group&gt;">
				<path id="&lt;Compound Path&gt;" fill-rule="evenodd" class="s0" d="m548.2 688.9l-0.5-22.4v-0.5h0.5c8.8-0.1 26.4-0.3 35.2-0.4 0 0 35.1-0.1 35.1-0.1h1v1l-0.1 22.4v0.9h-0.9l-17.7-0.1c-11.2-0.1-41-0.6-52.6-0.8zm0 0c11.7-0.2 41.6-0.7 52.9-0.9l16.5-0.1-0.1-20.4c-12.3-0.1-40.7-0.2-51.7-0.3l-17.1-0.2zm69.4-1v1l0.9-1zm-0.1-20.4q0.5 0 1 0l-1-1zm-68.8-0.5v-0.5l-0.5 0.4z"/>
			</g>
			<path id="&lt;Path&gt;" class="s0" d="m587.3 660.6h70.3v-22.3h-70.3z"/>
			<path id="&lt;Path&gt;" class="s0" d="m86.3 775.8h70.3v-22.4h-70.3z"/>
			<path id="&lt;Path&gt;" class="s0" d="m125.5 112.2h70.4v-22.3h-70.4z"/>
			<g id="&lt;Group&gt;">
				<path id="&lt;Compound Path&gt;" fill-rule="evenodd" class="s0" d="m86.3 140.5l-0.5-22.4v-0.5h0.5l17.6-0.2 17.6-0.2 35.1-0.1h1v1l-0.1 22.4v0.9h-0.9l-17.7-0.1-17.7-0.2zm0 0l35.4-0.6 17.5-0.3 16.5-0.1v-20.4l-34.2-0.2-17.6-0.1-17.1-0.2zm69.4-1v1l0.9-1zm-0.1-20.4h1l-1-1zm-68.8-0.5v-0.5l-0.5 0.4z"/>
			</g>
			<g id="&lt;Group&gt;">
				<path id="&lt;Compound Path&gt;" fill-rule="evenodd" class="s0" d="m804.1 112.2l-0.4-22.3v-0.5h0.4l17.6-0.2 17.6-0.2 35.2-0.1h1v1l-0.1 22.3v1h-0.9l-17.8-0.1-17.6-0.3zm0 0l35.4-0.6 17.5-0.2 16.5-0.1-0.1-20.5-34.2-0.1-17.6-0.2-17.1-0.2zm69.4-0.9v0.9l0.9-0.9zm0-20.5h1l-1-1zm-68.9-0.5v-0.4l-0.5 0.4z"/>
			</g>
		</g>
	</g>
	<g id="Plant">
		<g id="&lt;Group&gt;">
			<g id="&lt;Group&gt;">
				<g id="&lt;Group&gt;">
					<g id="&lt;Group&gt;">
						<path id="&lt;Path&gt;" class="s1" d="m583.3 765.7c1.6 6.7 3.2 13.3 3.5 20.2-0.1 0.3-0.1 1.6 0.1 1.2 0 1.1 1.7 0.9 1.7-0.2q0-1.1 0-2.1c3.9-4.9 9.6-8 14.3-12.3 3.7-3.4 6.4-7.5 7.8-12.4 3.9-13.3 0.3-27.3 4.9-40.5 4-11.4 11.1-21.3 17.2-31.6 6.3-11 11.1-22.4 11.5-35.2 0.4-9.8-0.8-22.8-8.2-30.2-7.9-7.8-17.7-1.9-23.8 5-17.5 20.1-25.6 45.6-28.9 71.6-1.8 14.4-3.7 28.9-3.3 43.4 0.3 7.8 1.4 15.5 3.2 23.1z"/>
						<path id="&lt;Path&gt;" class="s2" d="m586.8 791.2c-0.9-13.7-0.9-27.3 0.5-40.8-0.1-0.1-0.1-0.1-0.1-0.2-0.2-11-1.1-22-0.7-33 0.5-12 2.2-23.8 4.9-35.5 0-0.1 0.2-0.1 0.2 0.1-2.2 11.4-3.4 23-3.8 34.6q-0.4 9.4 0.1 18.7c0.1 2 0.3 4.1 0.4 6.1q0 0 0 0c4.5-31 15.9-60.5 32.8-86.8 0.3-0.4 0.9 0 0.7 0.4-12.2 19.9-21.2 41.7-26.7 64.3 8.4-15.6 21.2-28.4 30.6-43.5 0.1 0 0.2 0 0.2 0.1-8.5 16.7-22.6 29.9-31.5 46.4q-2.4 10.1-3.8 20.3c-1.3 9.4-1.9 18.8-2 28.2 5.1-9.6 10.5-18.8 14.7-28.9 0.1-0.3 0.5-0.1 0.4 0.2-3.6 10.5-8.4 21.9-15.1 30.9q-0.1 10 0.5 20c1.1 17.8 4.1 35.4 5.5 53.1 0.1 0.6-0.7 0.6-0.8 0.1-3.7-17.9-5.8-36.6-7-54.8z"/>
						<path id="&lt;Path&gt;" class="s2" d="m605.7 653.8c0-0.1 0.2 0 0.2 0.1-3.3 9-5.1 18.1-7.5 27.3-0.1 0.5-0.7 0.4-0.6-0.1 0.9-9.3 4.3-18.7 7.9-27.3z"/>
					</g>
					<g id="&lt;Group&gt;">
						<path id="&lt;Path&gt;" class="s1" d="m523.1 691.5c2.1 5.3 4.7 10.4 7.5 15.4 5.8 10.6 11.9 20.4 13 32.7 0.5 5.6 0.7 11.1 2.4 16.5 1.4 4.6 3.8 8.8 6.5 12.8 6.4 9.3 14.3 17.2 20.2 26.8 6.1 10 10.6 21 13.4 32.3 0.1 0.7 1.1 0.5 1-0.1q0-0.1-0.1-0.2 0.1 0 0.1-0.1c0.9-26.6-1.2-53.3-9.3-78.8-3.5-11.1-7.9-22.2-12.9-32.7-4.3-9.3-9.7-18.1-17.3-25-5-4.5-15.7-12.9-22.7-8.4-3.4 2.1-3.1 5.5-1.8 8.8z"/>
						<path id="&lt;Path&gt;" class="s2" d="m549.8 751.7c4.5 7.8 9.9 15 15.4 22.2 2.6 3.4 5.2 6.7 7.8 10 1.2 1.6 2.5 3.2 3.6 4.9q-1-4.2-2.1-8.4c-3.4-13.4-6.7-26.9-11.8-39.8-5-12.6-11.6-24.5-18.4-36.2-0.2-0.3 0.3-0.5 0.5-0.2 5.6 9.2 11.3 18.5 16 28.2 2.6 5.4 4.9 11 6.8 16.7-2.3-12.2-5-23.9-9.1-35.7 0-0.1 0.2-0.2 0.2-0.1 4.9 11.6 8.4 24.6 9.4 37.2q0 0 0 0 1.7 5.2 3.2 10.5c4.2 14.8 7.8 29.8 11.2 44.9 0-10-0.6-19.7-2.5-29.5-0.1-0.3 0.3-0.3 0.3-0.1 2.5 10.1 3.6 20.7 2.6 31.1q1.9 8.6 3.8 17.2c2.6 12.3 5.8 24.7 7.3 37.2 0 0.3-0.4 0.4-0.5 0.1-1.8-6.7-2.9-13.7-4.4-20.5q-2.2-10.2-4.6-20.4c-2.3-9.8-4.7-19.7-7.2-29.5-1.6-3.6-4.8-6.9-7.2-9.9-2.6-3.3-5.2-6.6-7.8-10-4.7-6.3-9.1-12.8-12.8-19.8 0-0.1 0.2-0.2 0.3-0.1z"/>
						<path id="&lt;Path&gt;" class="s2" d="m548.6 740.4c5.8 7.4 11 15.5 15.1 24 0.1 0.1-0.1 0.2-0.1 0.1-5.1-8-10.1-16-15.2-24-0.1-0.1 0.1-0.3 0.2-0.1z"/>
					</g>
					<g id="&lt;Group&gt;">
						<path id="&lt;Path&gt;" class="s1" d="m661.7 716.7c-3.5 5.9-7.4 13-5.9 20.2 0.9 4.5 4.2 8.1 4.8 12.7 1.4 10.2-8.7 16.9-16.1 21.7-18.2 11.9-43.2 22.6-46.5 47-0.2 0.9-1.6 0.7-1.5-0.2q0-0.1 0-0.1c0-0.1-0.1-0.1-0.1-0.2-2.4-12.4-2.3-25 0.4-37.3 2.7-12.6 8.2-23.9 14.7-35 10.9-18.7 22.5-37.9 39.1-52.2 4.6-4 14-11.1 17.7-2.2 3.6 8.7-2.4 18.4-6.6 25.6z"/>
						<path id="&lt;Path&gt;" class="s2" d="m645 756.4c-12.1 13.1-31.3 20.4-41.7 35.1 6.1-22.5 16.4-42.7 32-60.3 0.4-0.4-0.2-1-0.6-0.6-11.5 11-20 23.9-26.2 37.9 2.8-10 6.7-19.4 11.3-28.8 0.1-0.4-0.4-0.7-0.6-0.3-5.8 9.9-9.7 21.1-12.1 32.4-13.7 33.2-15 72.1-12.1 107.1 0 0.5 0.8 0.5 0.7 0-0.7-27.6-0.3-55.6 6.3-82.5q0.2-0.9 0.4-1.7c11.4-15.8 30.5-23.1 42.8-38.1 0.1-0.2-0.1-0.4-0.2-0.2z"/>
						<path id="&lt;Path&gt;" class="s2" d="m647.8 745.1c-6.3 5.9-12.6 11.8-19 17.6 0 0.1 0.1 0.2 0.1 0.2 7-4.7 14-10.9 19.3-17.4 0.2-0.2-0.1-0.6-0.4-0.4z"/>
						<path id="&lt;Path&gt;" class="s2" d="m648.8 719.9c-5.8 9.3-11.8 17.9-19 26.1-0.1 0.1 0.1 0.3 0.2 0.2 7.7-7.4 14.5-16.4 19.1-26.1 0.2-0.2-0.2-0.4-0.3-0.2z"/>
					</g>
				</g>
				<g id="&lt;Group&gt;">
					<g id="&lt;Group&gt;">
						<path id="&lt;Path&gt;" class="s3" d="m620.2 903.6h-55.6l7.5-74.8h39.6z"/>
						<path id="&lt;Path&gt;" class="s2" d="m613.1 841h-42.2l1.2-12.2h39.6z"/>
					</g>
					<path id="&lt;Path&gt;" class="s3" d="m618.5 832.5h-52.1v-12h52.1z"/>
				</g>
			</g>
		</g>
	</g>
	<g id="Floor">
		<g id="&lt;Group&gt;">
			<path id="&lt;Path&gt;" class="s2" d="m94.9 903.6c259.5-1.2 550.7-1.2 810.2 0-259.5 1.2-550.7 1.2-810.2 0z"/>
		</g>
	</g>
	<g id="Screen">
		<g id="&lt;Group&gt;">
			<g id="&lt;Group&gt;">
				<g id="&lt;Group&gt;">
					<path id="&lt;Path&gt;" class="s4" d="m868.3 582.7h-736.6v-466h736.6z"/>
					<path id="&lt;Compound Path&gt;" fill-rule="evenodd" class="s2" d="m131.4 583c-0.1-0.1-0.1-466.1-0.2-466.3 0 0 0-0.5 0-0.5h0.5c0.1-0.1 736.7 0.4 736.8 0.3 0.1 0.1-0.2 328.1-0.2 433.8-0.1-105.5-0.4-432.5 0-433.4-1.7 0-714.6 0.3-736.1 0.3 0 17 0.2 463.6-0.5 465.2 2.7 0 736.6 0.3 736.6 0.3-0.2 0.1-736.7 0.2-736.9 0.3zm736.9-466.1q0 0 0 0 0 0 0 0zm-736.1 0.3q0-0.5 0-0.5l-0.5 0.5q0 0 0.5 0zm0-0.5q0 0 0 0zm-0.5 465.7q0 0 0 0 0 0 0 0zm736.6-32.1c-0.1 20.3 0 32.4 0 32.4 0 0 0-12.1 0-32.4z"/>
				</g>
				<g id="&lt;Group&gt;">
					<path id="&lt;Path&gt;" class="s2" d="m868.3 134.6h-736.6v-17.9h736.6z"/>
					<g id="&lt;Group&gt;">
						<path id="&lt;Path&gt;" class="s1" d="m149 125.7c0 2-1.6 3.6-3.6 3.6-2 0-3.6-1.6-3.6-3.6 0-2 1.6-3.6 3.6-3.6 2 0 3.6 1.6 3.6 3.6z"/>
						<path id="&lt;Path&gt;" class="s4" d="m163.8 125.7c0 2-1.6 3.6-3.6 3.6-2 0-3.7-1.6-3.7-3.6 0-2 1.7-3.6 3.7-3.6 2 0 3.6 1.6 3.6 3.6z"/>
						<path id="&lt;Path&gt;" class="s3" d="m178.5 125.7c0 2-1.6 3.6-3.6 3.6-2 0-3.6-1.6-3.6-3.6 0-2 1.6-3.6 3.6-3.6 2 0 3.6 1.6 3.6 3.6z"/>
					</g>
				</g>
			</g>
			<g id="&lt;Group&gt;">
				<g id="&lt;Group&gt;">
					<path id="&lt;Path&gt;" class="s5" d="m244.8 262.7c17.1-0.2 34.2-0.3 51.3-0.4l51.3-0.2 51.3 0.2 25.7 0.1 25.6 0.3-25.6 0.3-25.7 0.1-51.3 0.2-51.3-0.2c-17.1-0.1-34.2-0.2-51.3-0.4z"/>
					<path id="&lt;Path&gt;" class="s5" d="m244.8 274.1c17.1-0.2 34.2-0.4 51.3-0.4l51.3-0.2 51.3 0.2 25.7 0.1 25.6 0.3-25.6 0.3-25.7 0.1-51.3 0.1-51.3-0.1c-17.1-0.1-34.2-0.2-51.3-0.4z"/>
					<path id="&lt;Path&gt;" class="s5" d="m244.8 285.5c17.1-0.3 34.2-0.4 51.3-0.5l51.3-0.1 51.3 0.1 25.7 0.2 25.6 0.3-25.6 0.2-25.7 0.2-51.3 0.1-51.3-0.1c-17.1-0.1-34.2-0.2-51.3-0.4z"/>
					<path id="&lt;Path&gt;" class="s5" d="m244.8 308.2c17.1-0.2 34.2-0.3 51.3-0.4l51.3-0.1 51.3 0.1 25.7 0.2 25.6 0.2-25.6 0.3-25.7 0.2-51.3 0.1-51.3-0.1c-17.1-0.1-34.2-0.2-51.3-0.5z"/>
					<path id="&lt;Path&gt;" class="s5" d="m244.8 319.6c17.1-0.2 34.2-0.3 51.3-0.4l51.3-0.1 51.3 0.1 25.7 0.1 25.6 0.3-25.6 0.3-25.7 0.1-51.3 0.2-51.3-0.2c-17.1 0-34.2-0.2-51.3-0.4z"/>
					<path id="&lt;Path&gt;" class="s5" d="m244.8 331c10.4-0.2 20.8-0.3 31.2-0.4 10.4-0.1 20.8-0.1 31.2-0.2 10.4 0.1 20.8 0.1 31.2 0.2l15.7 0.1c5.2 0.1 10.4 0.2 15.6 0.3-5.2 0.1-10.4 0.2-15.6 0.3l-15.7 0.1c-10.4 0.1-20.8 0.1-31.2 0.2-10.4-0.1-20.8-0.1-31.2-0.2-10.4-0.1-20.8-0.2-31.2-0.4z"/>
				</g>
				<g id="&lt;Group&gt;">
					<path id="&lt;Compound Path&gt;" fill-rule="evenodd" class="s5" d="m271.3 389.3c-7 0.3-20.3 0.6-27.3 0.8-0.2-8-0.1-19.2-0.2-27.3 0 0-0.1-1-0.1-1h1.1c8.1 0.1 19.2 0 27.3 0.2-0.2 7-0.5 20.3-0.8 27.3zm0 0c-0.3-6.4-0.6-18.9-0.8-25.8-7.3 0.2-17.3 0.2-24.8 0.2 0 7.5 0 17.5-0.2 24.8 6.9 0.2 19.4 0.5 25.8 0.8zm-0.8-25.8q0.4 0 0.8 0c0 0-0.8-0.7-0.8-0.7q0 0.3 0 0.7zm-24.8 0.2q0-0.5 0.1-0.9l-1 1q0.4 0 0.9-0.1zm-0.2 24.8q-0.4 0-0.7 0l0.7 0.8q0-0.4 0-0.8z"/>
				</g>
				<path id="&lt;Path&gt;" class="s2" d="m250.4 368.2c2.1 1.8 4 3.8 5.9 5.8q2.8 3 5.4 6h-3.1c4.6-7 22.1-28.6 25.3-31.5-2 3.8-16.7 27.5-22.2 33.9l-1.7 2.1-1.4-2.1q-2.2-3.4-4.3-6.9c-1.4-2.4-2.7-4.8-3.9-7.3z"/>
			</g>
			<path id="&lt;Path&gt;" class="s0" d="m207.1 389.3h-54.4v-254.7h54.4z"/>
			<g id="&lt;Group&gt;">
				<g id="&lt;Group&gt;">
					<path id="&lt;Path&gt;" class="s0" d="m675.7 406.3h147.1v-147.1h-147.1z"/>
					<g id="&lt;Group&gt;">
						<path id="&lt;Path&gt;" class="s1" d="m684.4 397.7h129.8v-129.8h-129.8z"/>
						<path id="&lt;Path&gt;" class="s6" d="m705.3 298.8c-1.7 8.7 5.7 16.1 14.4 14.4 4.8-0.9 8.7-4.8 9.6-9.6 1.6-8.6-5.8-16-14.4-14.4-4.8 0.9-8.7 4.8-9.6 9.6z"/>
						<path id="&lt;Path&gt;" class="s6" d="m720.3 364h93.9l-46.9-52.6z"/>
						<g id="&lt;Group&gt;">
							<path id="&lt;Path&gt;" class="s1" d="m684.4 364h77.4l-38.7-34.3z"/>
						</g>
						<g id="&lt;Group&gt;" style="opacity: .2">
							<path id="&lt;Path&gt;" class="s7" d="m684.4 364h77.4l-38.7-34.3z"/>
						</g>
						<path id="&lt;Path&gt;" class="s1" d="m814.2 397.7h-129.8v-33.7h129.8z"/>
						<path id="&lt;Path&gt;" class="s8" d="m814.2 397.7h-129.8v-33.7h129.8z"/>
					</g>
				</g>
				<g id="&lt;Group&gt;">
					<path id="&lt;Path&gt;" class="s1" d="m822.6 164.5h-645.2v58.6h645.2z"/>
					<g id="&lt;Group&gt;">
						<g id="&lt;Group&gt;">
							<path id="&lt;Path&gt;" class="s4" d="m222 189.6h-14.9v-2.4h14.9z"/>
							<path id="&lt;Path&gt;" class="s4" d="m222 200.4h-14.9v-2.4h14.9z"/>
							<path id="&lt;Path&gt;" class="s4" d="m222 195h-14.9v-2.4h14.9z"/>
						</g>
						<g id="&lt;Group&gt;">
							<g id="&lt;Group&gt;">
								<path id="&lt;Path&gt;" class="s4" d="m398.2 202.6h-143v-17.6h143z"/>
								<path id="&lt;Compound Path&gt;" class="s4" d="m398.4 202.8h-143.3v-18h143.3z"/>
							</g>
							<path id="&lt;Path&gt;" class="s3" d="m398.4 202.8h-18v-18h18z"/>
							<g id="&lt;Group&gt;">
								<g id="&lt;Group&gt;">
									<path id="&lt;Path&gt;" class="s4" d="m395 198.7l-1.6 1.2-3-3.9-1.1-1.5q0.3-0.1 0.6-0.4 0.6-0.4 0.8-1l1.2 1.5z"/>
									<path id="&lt;Compound Path&gt;" fill-rule="evenodd" class="s4" d="m391.9 194.6q-0.4 0.5-0.9 1-0.3 0.2-0.6 0.4c-1.9 1-4.3 0.5-5.6-1.3-1.5-1.9-1.2-4.7 0.8-6.2 1.9-1.5 4.7-1.1 6.2 0.8 1.2 1.6 1.2 3.8 0.1 5.3zm-1.2-1.5c0.4-0.9 0.3-1.9-0.3-2.7-0.9-1.1-2.6-1.4-3.7-0.5-1.2 0.9-1.4 2.6-0.5 3.8 0.7 0.9 2 1.2 3.1 0.8q0.3-0.1 0.6-0.4 0.6-0.4 0.8-1z"/>
								</g>
							</g>
							<path id="&lt;Path&gt;" class="s9" d="m259.9 199.1h-1v-10.7h1z"/>
						</g>
						<g id="&lt;Group&gt;">
							<path id="&lt;Path&gt;" class="s4" d="m792.8 196.5h-61.8v-5.4h61.8z"/>
							<path id="&lt;Path&gt;" class="s4" d="m697.9 196.5h-61.8v-5.4h61.8z"/>
							<path id="&lt;Path&gt;" class="s6" d="m603.1 196.5h-61.8v-5.4h61.8z"/>
							<path id="&lt;Path&gt;" class="s4" d="m508.2 196.5h-61.8v-5.4h61.8z"/>
						</g>
					</g>
				</g>
				<path id="&lt;Path&gt;" class="s10" d="m868.3 434.7h-736.6v58.6h736.6z"/>
				<g id="&lt;Group&gt;">
					<path id="&lt;Path&gt;" class="s3" d="m302.1 519.7h-124.7v-5h124.7z"/>
					<g id="&lt;Group&gt;">
						<path id="&lt;Path&gt;" class="s10" d="m177.4 531.7l20-0.2 20-0.2 40.1-0.1 40 0.1 20 0.2 20 0.2-20 0.3-20 0.2-40 0.1-40.1-0.1-20-0.2z"/>
						<path id="&lt;Path&gt;" class="s10" d="m177.4 538.5l20-0.2 20-0.2 40.1-0.1 40 0.1 20 0.2 20 0.2-20 0.3-20 0.2-40 0.1-40.1-0.1-20-0.2z"/>
						<path id="&lt;Path&gt;" class="s10" d="m177.4 545.3l20-0.2 20-0.2 40.1-0.1 40 0.1 20 0.2 20 0.2-20 0.3-20 0.2-40 0.1-40.1-0.2-20-0.1z"/>
						<path id="&lt;Path&gt;" class="s10" d="m177.4 552.1l20-0.2 20-0.2 40.1-0.1 40 0.1 20 0.2 20 0.2-20 0.3-20 0.1-40 0.2-40.1-0.2-20-0.1z"/>
						<path id="&lt;Path&gt;" class="s10" d="m177.4 558.9c6.7-0.2 13.4-0.3 20-0.4l20-0.1 20.1 0.1c6.6 0.1 13.3 0.2 20 0.4-6.7 0.2-13.4 0.3-20 0.4l-20.1 0.2-20-0.2c-6.6-0.1-13.3-0.2-20-0.4z"/>
					</g>
				</g>
				<g id="&lt;Group&gt;">
					<g id="&lt;Group&gt;">
						<g id="&lt;Group&gt;">
							<path id="&lt;Path&gt;" class="s11" d="m492.8 403.3v3h3"/>
							<path id="&lt;Path&gt;" class="s12" d="m501.9 406.3h131.9"/>
							<path id="&lt;Path&gt;" class="s11" d="m636.9 406.3h3v-3"/>
							<path id="&lt;Path&gt;" class="s13" d="m639.9 397.2v-131.9"/>
							<path id="&lt;Path&gt;" class="s11" d="m639.9 262.2v-3h-3"/>
							<path id="&lt;Path&gt;" class="s12" d="m630.7 259.2h-131.9"/>
							<path id="&lt;Path&gt;" class="s11" d="m495.8 259.2h-3v3"/>
							<path id="&lt;Path&gt;" class="s13" d="m492.8 268.3v132"/>
						</g>
					</g>
				</g>
				<g id="&lt;Group&gt;">
					<g id="&lt;Group&gt;">
						<path id="&lt;Path&gt;" class="s4" d="m265.9 450.5l30.4-0.3 30.4-0.2 60.9-0.2 60.9 0.2 30.4 0.2 30.5 0.3-30.5 0.4-30.4 0.2-60.9 0.2-60.9-0.2-30.4-0.2z"/>
						<path id="&lt;Path&gt;" class="s4" d="m265.9 459.5l30.4-0.3 30.4-0.2 60.9-0.2 60.9 0.2 30.4 0.2 30.5 0.3-30.5 0.4-30.4 0.2-60.9 0.2-60.9-0.2-30.4-0.2z"/>
						<path id="&lt;Path&gt;" class="s4" d="m265.9 468.5l30.4-0.3 30.4-0.2 60.9-0.2 60.9 0.2 30.4 0.2 30.5 0.3-30.5 0.4-30.4 0.2-60.9 0.2-60.9-0.2-30.4-0.2z"/>
						<path id="&lt;Path&gt;" class="s4" d="m265.9 477.5c10.1-0.3 20.3-0.4 30.4-0.5l30.4-0.2 30.5 0.2c10.1 0.1 20.3 0.2 30.4 0.5-10.1 0.3-20.3 0.5-30.4 0.6l-30.5 0.1-30.4-0.1c-10.1-0.1-20.3-0.3-30.4-0.6z"/>
					</g>
					<path id="&lt;Path&gt;" class="s4" d="m186.3 472.9v-17.8l-8.7 8.3z"/>
					<path id="&lt;Path&gt;" class="s4" d="m814.2 455.1v17.8l8.6-8.2z"/>
				</g>
				<g id="&lt;Group&gt;">
					<path id="&lt;Path&gt;" class="s1" d="m395.8 522.6l5.7 9.1 10.4 2.7-6.8 8.2 0.7 10.8-10-4-10 4 0.7-10.8-6.9-8.2 10.4-2.7z"/>
					<path id="&lt;Path&gt;" class="s1" d="m447.9 522.6l5.7 9.1 10.5 2.7-6.9 8.2 0.7 10.8-10-4-10 4 0.7-10.8-6.9-8.2 10.4-2.7z"/>
					<path id="&lt;Path&gt;" class="s1" d="m500 522.6l5.8 9.1 10.4 2.7-6.9 8.2 0.7 10.8-10-4-10 4 0.7-10.8-6.9-8.2 10.4-2.7z"/>
					<path id="&lt;Path&gt;" class="s1" d="m552.1 522.6l5.8 9.1 10.4 2.7-6.9 8.2 0.7 10.8-10-4-10 4 0.7-10.8-6.8-8.2 10.4-2.7z"/>
					<g id="&lt;Group&gt;">
						<path id="&lt;Compound Path&gt;" fill-rule="evenodd" class="s5" d="m604.2 522.6l6 8.7c3.8 0.8 7.6 1.8 11.3 2.7-2.3 2.9-4.7 5.9-7.1 8.9l0.7 10.4 0.1 1.4-1.3-0.5-9.7-3.7-9.6 3.7-1.4 0.5 0.1-1.4 0.7-10.4c-2.4-2.9-4.7-6-7.1-8.9 3.8-0.9 7.5-1.9 11.3-2.7zm6 8.7q-0.1 0-0.1 0l0.2 0.2zm4.2 11.6v-0.4l-0.2 0.6q0.1-0.1 0.2-0.2zm-10.2 7.5l0.4-0.1h-0.7zm-10.2-7.6q0.1 0.2 0.2 0.3l-0.2-0.6zm4.2-11.6l-0.1 0.1 0.2-0.1q-0.1 0-0.1 0zm6-8.7l-5.4 9.3c-0.1 0.1-0.1 0.1-0.3 0.1-3.1 1-6.2 1.8-9.3 2.7 2.1 2.4 4.2 4.9 6.3 7.4 0.3 0.3 0.2 0.2 0.2 0.6l-0.5 9.2 8.6-3.4 0.4-0.2 0.3 0.2 8.7 3.4-0.6-9.2v-0.4c2.2-2.5 4.4-5.1 6.6-7.6-3.1-0.9-6.3-1.7-9.4-2.7-0.1 0-0.1 0-0.2-0.1 0 0-5.4-9.3-5.4-9.3zm-15 12.1q-0.3-0.4-0.7-0.8l-0.3 1.1q0.5-0.2 1-0.3zm6 17.2l-1.4 0.6 1.3 0.9zm18 0l0.1 1.5 1.2-1zm6-17.2q0.5 0.1 1 0.3l-0.3-1.1q-0.3 0.4-0.7 0.8z"/>
					</g>
				</g>
			</g>
		</g>
	</g>
	<g id="Gears">
		<g id="&lt;Group&gt;">
			<g id="&lt;Group&gt;">
				<g id="&lt;Group&gt;">
					<g id="&lt;Group&gt;">
						<path id="&lt;Compound Path&gt;" fill-rule="evenodd" class="s5" d="m852.2 596c36.2 0 65.5 29.3 65.5 65.5 0 36.2-29.3 65.6-65.5 65.6-36.2 0-65.6-29.4-65.6-65.6 0-36.2 29.4-65.5 65.6-65.5zm0 108.2c23.5 0 42.6-19.2 42.6-42.7 0-23.5-19.1-42.6-42.6-42.6-23.5 0-42.6 19.1-42.6 42.6 0 23.5 19.1 42.7 42.6 42.7zm0-81.5c21.4 0 38.9 17.4 38.9 38.8 0 21.5-17.5 38.9-38.9 38.9-21.4 0-38.9-17.4-38.9-38.9 0-21.4 17.5-38.8 38.9-38.8zm0 69.5c16.9 0 30.6-13.7 30.6-30.7 0-16.9-13.7-30.6-30.6-30.6-16.9 0-30.6 13.7-30.6 30.6 0 17 13.7 30.7 30.6 30.7z"/>
						<g id="&lt;Group&gt;">
							<path id="&lt;Path&gt;" class="s5" d="m844.5 597.2h15l-1.5-15h-12z"/>
							<path id="&lt;Path&gt;" class="s5" d="m877.7 601.9l13 7.6 6.2-13.8-10.4-6z"/>
							<path id="&lt;Path&gt;" class="s5" d="m904.1 622.7l7.5 13 12.2-8.8-6-10.4z"/>
							<path id="&lt;Path&gt;" class="s5" d="m916.6 653.8v15.1l15-1.5v-12.1z"/>
							<path id="&lt;Path&gt;" class="s5" d="m911.8 687.1l-7.5 13 13.7 6.2 6-10.5z"/>
							<path id="&lt;Path&gt;" class="s5" d="m891 713.4l-12.9 7.5 8.7 12.3 10.4-6z"/>
							<path id="&lt;Path&gt;" class="s5" d="m859.9 725.9h-15l1.5 15h12z"/>
							<path id="&lt;Path&gt;" class="s5" d="m826.7 721.1l-13-7.5-6.2 13.8 10.4 6z"/>
							<path id="&lt;Path&gt;" class="s5" d="m800.3 700.4l-7.5-13-12.2 8.8 6 10.4z"/>
							<path id="&lt;Path&gt;" class="s5" d="m787.8 669.2v-15l-15 1.5v12z"/>
							<path id="&lt;Path&gt;" class="s5" d="m792.6 636l7.5-13-13.7-6.2-6 10.4z"/>
							<path id="&lt;Path&gt;" class="s5" d="m813.3 609.6l13-7.5-8.7-12.2-10.5 6z"/>
						</g>
					</g>
				</g>
			</g>
			<g id="&lt;Group&gt;">
				<g id="&lt;Group&gt;">
					<path id="&lt;Compound Path&gt;" fill-rule="evenodd" class="s3" d="m792.2 506.8c21 0.5 37.7 18.1 37.1 39.1-0.6 21.1-18.1 37.7-39.2 37.2-21-0.6-37.6-18.1-37.1-39.2 0.6-21 18.1-37.7 39.2-37.1zm-1.5 55.9c9.8 0.3 18-7.5 18.3-17.3 0.2-9.8-7.5-18-17.4-18.3-9.8-0.3-18 7.5-18.3 17.4-0.2 9.8 7.5 18 17.4 18.2z"/>
					<path id="&lt;Path&gt;" class="s3" d="m784.8 508.2l14.7 0.4-0.6-10.4-13-0.4z"/>
					<path id="&lt;Path&gt;" class="s3" d="m812.6 513.8l10.1 10.7 6.9-7.7-8.9-9.5z"/>
					<path id="&lt;Path&gt;" class="s3" d="m828.2 537.5l-0.4 14.7 10.4-0.6 0.4-13z"/>
					<path id="&lt;Path&gt;" class="s3" d="m822.5 565.3l-10.6 10.1 7.7 7 9.5-9z"/>
					<path id="&lt;Path&gt;" class="s3" d="m798.9 580.9l-14.7-0.4 0.5 10.4 13.1 0.4z"/>
					<path id="&lt;Path&gt;" class="s3" d="m771.1 575.3l-10.1-10.7-7 7.7 9 9.5z"/>
					<path id="&lt;Path&gt;" class="s3" d="m755.4 551.6l0.4-14.7-10.4 0.6-0.3 13z"/>
					<path id="&lt;Path&gt;" class="s3" d="m761.1 523.8l10.7-10.1-7.8-7-9.4 9z"/>
				</g>
				<path id="&lt;Compound Path&gt;" fill-rule="evenodd" class="s3" d="m804.3 548.3l-9.4 8.9-12.5-3.7-3.1-12.7 9.5-8.9 12.5 3.7zm-8.4-3.6c0.1-2.3-1.7-4.2-4-4.3-2.3 0-4.2 1.8-4.3 4.1 0 2.2 1.8 4.1 4.1 4.2 2.3 0.1 4.2-1.7 4.2-4z"/>
			</g>
			<g id="&lt;Group&gt;">
				<g id="&lt;Group&gt;">
					<path id="&lt;Compound Path&gt;" fill-rule="evenodd" class="s1" d="m115.5 101.3c21.1 0.5 37.7 18 37.2 39.1-0.6 21.1-18.1 37.7-39.2 37.1-21-0.5-37.7-18-37.1-39.1 0.5-21.1 18.1-37.7 39.1-37.1zm-1.5 55.9c9.9 0.3 18.1-7.5 18.3-17.3 0.3-9.9-7.5-18.1-17.3-18.3-9.8-0.3-18 7.5-18.3 17.3-0.3 9.9 7.5 18 17.3 18.3z"/>
					<path id="&lt;Path&gt;" class="s1" d="m108.2 102.6l14.6 0.4-0.5-10.4-13.1-0.3z"/>
					<path id="&lt;Path&gt;" class="s1" d="m135.9 108.3l10.1 10.7 7-7.8-9-9.4z"/>
					<path id="&lt;Path&gt;" class="s1" d="m151.6 132l-0.4 14.7 10.4-0.6 0.3-13z"/>
					<path id="&lt;Path&gt;" class="s1" d="m145.9 159.8l-10.7 10.1 7.8 6.9 9.5-8.9z"/>
					<path id="&lt;Path&gt;" class="s1" d="m122.2 175.4l-14.6-0.4 0.5 10.4 13 0.4z"/>
					<path id="&lt;Path&gt;" class="s1" d="m94.4 169.7l-10.1-10.6-6.9 7.7 8.9 9.5z"/>
					<path id="&lt;Path&gt;" class="s1" d="m78.8 146.1l0.4-14.7-10.4 0.5-0.4 13.1z"/>
					<path id="&lt;Path&gt;" class="s1" d="m84.5 118.3l10.6-10.1-7.7-7-9.5 9z"/>
				</g>
				<path id="&lt;Compound Path&gt;" fill-rule="evenodd" class="s1" d="m127.7 142.7l-9.5 9-12.5-3.7-3-12.7 9.4-9 12.6 3.7zm-8.4-3.6c0-2.2-1.8-4.1-4-4.2-2.3-0.1-4.2 1.7-4.3 4 0 2.3 1.8 4.2 4 4.3 2.3 0 4.2-1.8 4.3-4.1z"/>
			</g>
		</g>
	</g>
	<g id="Character 2">
		<g id="&lt;Group&gt;">
			<g id="&lt;Group&gt;">
				<g id="&lt;Group&gt;">
					<g id="&lt;Group&gt;">
						<path id="&lt;Path&gt;" class="s14" d="m834.6 706.2c0 0 44.6 78.9 44.6 78.9 7.2 15.9 13.2 30 15.6 37.6q0 0 0 0.1c1 2.9 1.4 4.8 1.1 5.5q0 0-0.1 0.1c-3.2 5.3-128.7 66.3-133.8 67-5.1 0.7-7.4-13.8-4.4-20.1 3-6.3 40.6-51.1 40.6-51.1l-43.8-79.2z"/>
						<path id="&lt;Path&gt;" class="s0" d="m764 894.9c5.1-0.6 128.6-61.2 131.8-66.5q0.1-0.1 0.1-0.1c0.3-0.7-0.1-2.6-1-5.5-0.1 0-0.1-0.1-0.1-0.1-2.4-7.6-8.4-21.7-15.6-37.6 0 0-7.5-13.8-10.5-18.5l-79.8 41.2 9.3 16.4c0 0-35.6 44.4-38.6 50.7-3 6.2-0.7 20.7 4.4 20z"/>
						<g id="&lt;Group&gt;">
							<path id="&lt;Path&gt;" class="s1" d="m761.7 893.2c5.1-0.8 130.1-65.2 133.3-70.6 1.3-2.1-7-20.9-17.7-43.3q-0.2-0.3-0.4-0.6l-81.1 40.6 0.7 1.4c0 0-36.8 46-39.7 52.4-2.8 6.4-0.2 20.9 4.9 20.1z"/>
							<g id="&lt;Group&gt;">
								<path id="&lt;Path&gt;" class="s4" d="m760.6 887.6c20.8-11.3 105.8-55.2 127.3-64.9 0.1-0.1 0.2 0 0 0.1-20.4 11.7-105.7 55-127.1 65.2-0.5 0.2-0.6-0.1-0.2-0.4z"/>
								<path id="&lt;Path&gt;" class="s2" d="m789.9 824.4c7.5-5.8 18.3-9.8 27.7-7.1 0.3 0.1 0.2 0.6-0.1 0.6-9.6 1.7-18 3.9-27 7.5-0.7 0.3-1.2-0.6-0.6-1z"/>
								<path id="&lt;Path&gt;" class="s2" d="m785.8 831.1c7.4-5.8 18.2-9.8 27.6-7.1 0.4 0.1 0.2 0.6-0.1 0.6-9.5 1.7-18 3.9-27 7.5-0.6 0.3-1.1-0.6-0.5-1z"/>
								<path id="&lt;Path&gt;" class="s2" d="m781.6 837.8c7.5-5.8 18.3-9.8 27.7-7.2 0.4 0.1 0.2 0.7-0.1 0.7-9.5 1.7-18 3.9-27 7.5-0.6 0.3-1.1-0.6-0.6-1z"/>
							</g>
							<path id="&lt;Path&gt;" class="s4" d="m863.5 803.3c6.7-9.2 21 1.2 14.3 10.4-6.7 9.2-21.1-1.2-14.3-10.4z"/>
							<path id="&lt;Path&gt;" class="s6" d="m791 827.6l-9 56.1c-11.3 5.6-19.1 9.3-20.3 9.5-5.1 0.8-7.7-13.7-4.9-20.1 2.2-4.8 23.9-32.4 34.2-45.5z"/>
							<path id="&lt;Path&gt;" class="s2" d="m757.5 889.7c-1.8 2 2.5 9.3 4.5 9.1 1.9-0.3 137.9-71.1 139.9-72.8 2.1-1.7-3-9.6-6-8.6-2.9 0.9-138.4 72.3-138.4 72.3z"/>
						</g>
					</g>
					<g id="&lt;Group&gt;">
						<path id="&lt;Path&gt;" class="s2" d="m868.9 759.2l-89.9 48c0 0-113.5-161.8-115.8-204.3-3.1-58.7 47-245 47-245l79.9-0.5c0 0-32.5 191.6-29.8 224.3 1.4 17.1 108.6 177.5 108.6 177.5z"/>
						<g id="&lt;Group&gt;">
							<path id="&lt;Path&gt;" class="s15" d="m771.1 788.6c4.7-3.3 47.3-28 79.7-43.8 0.3-0.1 0.4 0.2 0.2 0.3-9.8 6.5-73.4 41.4-79.6 43.9-0.2 0-0.5-0.2-0.3-0.4z"/>
							<path id="&lt;Path&gt;" class="s15" d="m749.2 540.7c3.7-28 7.8-56 12.4-83.9 4.7-28 9.6-56 15.5-83.8q1.1-5.1 2.2-10.2c0.1-0.5 0.9-0.4 0.8 0.2-4.9 27.5-10 55.1-14.5 82.8-4.5 27.6-8.8 55.3-12.5 83.1q-1.5 10.3-2.8 20.6c-0.9 7.1-1.9 14.3-2 21.4-0.1 6.9 1 13.6 3.4 20.1 2.4 6.3 5.8 12.2 9.2 18 14.5 24.5 79.2 131.4 80.9 134.5 0.1 0.2-0.2 0.4-0.3 0.2-15.5-24.1-63.7-101.1-78.4-126-6.6-11.2-14.2-22.5-16.4-35.6-2.2-13.6 0.7-27.9 2.5-41.4z"/>
						</g>
					</g>
				</g>
				<g id="&lt;Group&gt;">
					<g id="&lt;Group&gt;">
						<path id="&lt;Path&gt;" class="s14" d="m772.2 759.2c0 0 0.9 91.2 0.9 91.2-0.5 17.5-1.2 32.8-2.3 40.6q0 0.1 0 0.2c-0.5 2.9-0.9 4.8-1.5 5.3q0 0.1-0.1 0.1c-5.3 3.4-144.8 3.6-149.7 2-4.8-1.6-0.6-15.7 4.9-20 5.4-4.3 58.8-28.3 58.8-28.3l-0.1-91.1z"/>
						<path id="&lt;Path&gt;" class="s0" d="m772.9 831.7c0 0 0.2 18.7 0.2 18.7-0.5 17.5-1.2 32.8-2.3 40.6q0 0.1 0 0.2c-0.6 2.9-1.1 4.8-1.5 5.3q0 0.1-0.1 0.1c-5.3 3.4-144.8 3.6-149.7 2-4.8-1.6-0.6-15.7 4.9-20 5.4-4.3 58.8-28.3 58.8-28.3v-19z"/>
						<g id="&lt;Group&gt;">
							<path id="&lt;Path&gt;" class="s1" d="m619.5 898.4c4.9 1.6 145.5-0.9 150.8-4.4 2.1-1.3 2.9-21.8 3.2-46.6q0-0.4 0-0.8l-90.7 0.6v1.5c0 0-53.4 25.1-58.8 29.5-5.4 4.5-9.5 18.7-4.5 20.2z"/>
							<g id="&lt;Group&gt;">
								<path id="&lt;Path&gt;" class="s4" d="m621 892.9c23.7-1 119.3-2.8 142.8-2 0.2 0.1 0.2 0.2 0 0.2-23.4 1.5-119.1 2.5-142.8 2.2-0.5 0-0.5-0.3 0-0.4z"/>
								<path id="&lt;Path&gt;" class="s2" d="m675.2 849.1c9.3-1.9 20.7-0.6 28 5.9 0.3 0.2-0.1 0.6-0.4 0.5-9.3-2.7-17.9-4.4-27.5-5.2-0.7 0-0.8-1-0.1-1.2z"/>
								<path id="&lt;Path&gt;" class="s2" d="m668.5 853.3c9.3-1.9 20.8-0.7 28 5.9 0.3 0.2-0.1 0.6-0.4 0.5-9.2-2.7-17.9-4.4-27.5-5.2-0.7-0.1-0.7-1-0.1-1.2z"/>
								<path id="&lt;Path&gt;" class="s2" d="m661.9 857.5c9.3-1.9 20.7-0.7 27.9 5.8 0.3 0.3 0 0.7-0.3 0.6-9.3-2.7-17.9-4.4-27.6-5.2-0.6-0.1-0.7-1.1 0-1.2z"/>
							</g>
							<path id="&lt;Path&gt;" class="s2" d="m617.2 893.4c-2.5 1-1.8 9.5 0.1 10.1 1.8 0.7 155.1-2.7 157.7-3.3 2.6-0.7 1.5-10-1.6-10.4-3-0.5-156.2 3.6-156.2 3.6z"/>
							<path id="&lt;Path&gt;" class="s4" d="m750.5 862.8c10.2-5.3 18.4 10.4 8.2 15.7-10.1 5.3-18.3-10.4-8.2-15.7z"/>
						</g>
					</g>
					<g id="&lt;Group&gt;">
						<path id="&lt;Path&gt;" class="s2" d="m711.2 357.7q0 0 0 0.1c0.6 1.7 29.3 80.4 32 81.6 3.1 1.5-63.5 113.2-67.4 165.1-2.5 33.2 2.4 221.1 2.4 221.1h97.3c0 0-4.7-168.9-6.9-222.4-0.9-20.8 66.8-124.1 67.6-188.5 0.2-20.3-14.3-57.3-14.3-57.3z"/>
						<g id="&lt;Group&gt;">
							<path id="&lt;Path&gt;" class="s15" d="m768 601.7c0-0.8 0.7-1.1 0.8-0.2 2.2 28.9 2.7 57.7 4.1 86.8 1.3 28.9 0.6 35.9 1.8 64.8 0.8 16.4 0.1 32.8 0.5 49.2 0 0.2-0.4 0.3-0.4 0-3.1-28.9-6.8-184.2-6.8-200.6z"/>
							<path id="&lt;Path&gt;" class="s15" d="m675.8 605.7c0.2-7.2 0.7-14.3 2-21.4 1.2-6.8 3.4-13.5 6-20 5.3-13.5 11.7-26.8 17.8-40 6.1-13.4 12.4-26.8 18.9-40q5.4-11.2 11-22.4c3.7-7.5 7.7-14.9 11.7-22.3 0.1-0.3 0.6-0.1 0.4 0.2-6.2 13.4-12.4 26.8-18.6 40.2-6.2 13.4-12.3 26.8-18.5 40.3-6 13.2-12 26.4-17.7 39.8-2.7 6.4-5.3 12.9-6.9 19.7-1.8 6.9-2.5 14-2.9 21.1-0.9 16.6-1.4 33.3-3 49.9 0 0.2-0.4 0.2-0.4 0-0.5-15-0.3-30.1 0.2-45.1z"/>
							<path id="&lt;Path&gt;" class="s15" d="m685.3 806.4c5.6-0.7 48.7-2.2 84.8-0.7 0.2 0 0.2 0.4-0.1 0.4-11.7 1-78.1 1.5-84.7 0.7-0.2 0-0.3-0.4 0-0.4z"/>
							<g id="&lt;Group&gt;">
								<path id="&lt;Path&gt;" class="s15" d="m729.8 435.1c10.4 2.4 20.6 6.3 30.4 10.5 0.3 0.2 0.2 0.8-0.2 0.6-10.3-3.2-20.6-6.2-30.7-9.9-0.7-0.3-0.3-1.4 0.5-1.2z"/>
								<path id="&lt;Path&gt;" class="s15" d="m719.9 368.4c0-0.3 0.6-0.5 0.7-0.1 1.1 11.6 2.9 21.7 4.9 32.5 1 5 7.9 32.4 16.4 29.5 1.5-0.5 2.1-2 2.1-4.3 0-2.6-1.4-5.8-2.1-8.4-1.5-5.7-2.9-11.5-4-17.3-2.1-10.9-3.2-21.9-3-33 0-0.3 0.5-0.4 0.5 0 1.6 15.2 3.5 30.4 7.4 45.2 1.8 7.1 6.6 17.6-0.9 19.5-7.6 2-14.5-15.8-15.9-20.7-4.1-13.7-5.7-28.7-6.1-42.9z"/>
								<path id="&lt;Path&gt;" class="s15" d="m741.8 431c1 1.8 1.8 3.7 2.5 5.6 0.6 1.5 1.4 3.1 1.3 4.7 0 0.3-0.4 0.4-0.5 0.2-1.2-1.2-1.8-3-2.5-4.4-0.9-1.8-1.8-3.5-2.6-5.2-0.5-1.1 1.2-2 1.8-0.9z"/>
							</g>
							<path id="&lt;Path&gt;" class="s15" d="m758.1 630.3c-0.5-13.8-2.1-28.3 2.5-41.7 2.2-6.6 5.6-12.7 8.8-18.9q5.1-9.8 10-19.6c13-26.2 25.2-52.9 36.1-80.1 5.3-13.1 10-26.5 11.9-40.5 2-14.7 0.6-29.8-2.7-44.2q-1.2-5.4-2.7-10.7c-0.1-0.3 0.3-0.4 0.4-0.1 4.4 13.6 7.4 27.8 7.6 42.1 0.2 13.9-2.9 27.3-7.3 40.4-4.7 13.5-10.5 26.7-16.3 39.9q-8.9 20.3-18.5 40.3c-6.3 13.3-13.1 26.3-19.8 39.4-3.3 6.3-6.2 12.8-7.5 19.9-1.3 7.2-1.1 14.5-0.8 21.7 1.2 30.6 3.8 132.4 4.2 162.9q0.1 5.9 0.1 11.7c0 0.3-0.5 0.4-0.5 0-2-30.4-4.4-132-5.5-162.5z"/>
							<path id="&lt;Path&gt;" class="s15" d="m779.9 377.5c0-0.2 0.3-0.1 0.3 0.1 1.2 8.4 1.8 17.1 5.9 24.8 3.7 7 10.2 11.5 17.3 14.6 4.1 1.9 8.4 3.3 12.7 4.7 0.3 0.1 0.2 0.6-0.1 0.5-8.1-1.7-16.3-3.5-23.3-8.1-7.4-4.8-11.3-12.5-12.5-21.2-0.7-5.1-0.7-10.2-0.3-15.4z"/>
						</g>
					</g>
				</g>
			</g>
			<g id="&lt;Group&gt;">
				<g id="&lt;Group&gt;">
					<g id="&lt;Group&gt;">
						<g id="&lt;Group&gt;">
							<path id="&lt;Path&gt;" class="s16" d="m699.3 266.4c-8.5 44.1-37.1 105.7-54.3 110.2-8.1 2.2-22.2 7.8-35.3 1.1-28.5-14.6-51.8-42.1-64.8-55.1-5.9-5.9 28.2-49.8 35.6-44.8 17.2 11.9 40.4 37.8 42.7 37 8.6-2.9 35.2-40.6 54.7-66.4 21.8-28.9 24.9 0.5 21.4 18z"/>
							<g id="&lt;Group&gt;">
								<g id="&lt;Group&gt;">
									<path id="&lt;Path&gt;" class="s16" d="m553.7 328.4c-6.1-3.5-32.8-21.7-39.1-28.5-6.2-6.7-22.9-27.4-18.2-32.8 4.7-5.3 10 0.4 10 0.4 0 0-5.6-9.9-0.4-14.8 5.2-4.9 13.2 4.2 13.2 4.2 0 0-5-10.6 0.5-15.1 5.5-4.6 12.1 5.9 12.1 5.9 0 0-5.1-9.4 1-11.3 7.4-2.2 14.8 16.3 22.3 23.2 1.7 1.6 36.7 29.4 36.7 29.4z"/>
									<g id="&lt;Group&gt;">
										<path id="&lt;Path&gt;" class="s2" d="m531.2 246.8c5.5 13.6 10.2 18.5 21.9 26.9 0.2 0.2 0 0.6-0.2 0.4-12.2-7.2-19.1-12.5-22.4-27.1-0.1-0.7 0.4-0.8 0.7-0.2z"/>
										<path id="&lt;Path&gt;" class="s2" d="m518.8 255.8c6.9 13.5 12 19 23.6 28.7 0.1 0.1-0.1 0.4-0.2 0.3-12.2-8.6-18.9-14.1-24-28.6-0.3-0.6 0.3-1 0.6-0.4z"/>
										<path id="&lt;Path&gt;" class="s2" d="m507 268c7.7 12.6 13 18.8 25.4 26.8 0.3 0.2 0.1 0.6-0.2 0.5-13.5-6.9-20.2-14.6-25.5-27.1-0.4-0.8-0.1-1 0.3-0.2z"/>
									</g>
								</g>
								<g id="&lt;Group&gt;">
									<path id="&lt;Path&gt;" class="s0" d="m409 331.7l145.4 22.3 22.3-145.4-145.5-22.3z"/>
									<g id="&lt;Group&gt;">
										<path id="&lt;Path&gt;" class="s1" d="m418.8 324.5l128.3 19.6 19.7-128.3-128.3-19.6z"/>
										<path id="&lt;Path&gt;" class="s6" d="m454.5 229.9c-3 8.3 3.2 16.8 12 16.5 4.9-0.2 9.3-3.5 11-8.1 2.9-8.3-3.3-16.7-12.1-16.4-4.9 0.2-9.3 3.4-10.9 8z"/>
										<path id="&lt;Path&gt;" class="s6" d="m459.5 296.6l92.7 14.2-38.4-59.1z"/>
										<g id="&lt;Group&gt;">
											<path id="&lt;Path&gt;" class="s1" d="m423.9 291.2l76.6 11.7-33.1-39.7z"/>
										</g>
										<g id="&lt;Group&gt;" style="opacity: .2">
											<path id="&lt;Path&gt;" class="s7" d="m423.9 291.2l76.6 11.7-33.1-39.7z"/>
										</g>
										<path id="&lt;Path&gt;" class="s1" d="m547.1 344.1l-128.3-19.6 5.1-33.3 128.3 19.6z"/>
										<path id="&lt;Path&gt;" class="s8" d="m547.1 344.1l-128.3-19.6 5.1-33.3 128.3 19.6z"/>
									</g>
								</g>
								<g id="&lt;Group&gt;">
									<path id="&lt;Path&gt;" class="s16" d="m591.3 289c0 0-3.1-20-8.2-26.6-5.2-6.5-20.8-9.4-28.4-10-9.5-0.8-8 7-4.5 10.8 5.8 6.4 17.5 10.7 18.1 10.7 0 0-11.9 16-2.4 30.6z"/>
									<g id="&lt;Group&gt;">
										<path id="&lt;Path&gt;" class="s2" d="m569.5 255.1c-4.1-0.8-19.7-5-21 0.3-1.2 5.7 3.7 9.7 8.1 12.2 4 2.4 8.4 4.3 12.7 6-4.9 6.8-8.1 15.5-6.4 23.9-2.4-8.2 0.2-17.1 4.9-24l0.3 1c-6.2-2.5-12.8-4.9-17.7-9.7-2.6-2.3-4-6.1-3.2-9.6 1.6-6.8 17.8-1.5 22.3-0.1z"/>
									</g>
								</g>
							</g>
						</g>
						<g id="&lt;Group&gt;">
							<path id="&lt;Path&gt;" class="s3" d="m594.5 287.2l-37.1 54.3c0 0 42 39.4 63.7 40.1 21.7 0.6 27.1-3.5 32.2-6.3 5-2.9 35.1-48.5 45.9-107.1 10.3-55.4-15-31.4-31.9-7.8-9.6 13.5-42.2 51-43.9 50.9-1.8 0-28.9-24.1-28.9-24.1z"/>
							<path id="&lt;Compound Path&gt;" class="s4" d="m684.5 294.7c-2 0.9-3.9 1.9-5.7 3.4 2.3-0.3 4.4-1 6.4-1.9 1.9-0.9 3.9-1.9 5.6-3.4-2.3 0.3-4.3 1-6.3 1.9zm-23.5-23.7q-0.7-0.3-1.5-0.5-0.5 0.6-1 1.3 0.9 0.4 1.9 0.8c2 0.8 4.1 1.4 6.4 1.6-1.8-1.4-3.8-2.4-5.8-3.2zm-48.2 103.6c-2-0.8-4.1-1.4-6.4-1.6 1.8 1.4 3.8 2.3 5.8 3.1 2.1 0.8 4.2 1.4 6.4 1.6-1.8-1.4-3.7-2.3-5.8-3.1zm74.8-116.3c-0.8 2-1.4 4.1-1.6 6.4 1.4-1.8 2.4-3.8 3.2-5.8 0.7-2 1.4-4.1 1.5-6.4-1.4 1.8-2.3 3.8-3.1 5.8zm-73.6 77c-1.9 1-3.9 2-5.6 3.5 2.3-0.3 4.3-1 6.3-1.9 2-0.9 4-1.9 5.7-3.4-2.3 0.2-4.3 1-6.4 1.8zm-38.4-4.3c-0.9-2-1.9-3.9-3.4-5.6 0.3 2.2 1 4.3 1.9 6.3 0.9 2 1.9 3.9 3.4 5.6-0.3-2.2-1-4.3-1.9-6.3zm68.1 25.8c-0.9-2-2-4-3.5-5.7 0.3 2.3 1.1 4.3 1.9 6.3 0.9 2 2 4 3.5 5.7-0.3-2.3-1.1-4.3-1.9-6.3zm-3.3-57.1c-0.7-1.4-1.3-2.7-2.2-4q-0.6-0.8-1.3-1.6 0.2 1.3 0.5 2.5c0.4 1.3 0.9 2.6 1.4 3.8 0.9 2 1.9 3.9 3.4 5.6-0.2-2.2-1-4.3-1.8-6.3zm-54.6 59.5c-0.5 1.5-1 3-1.3 4.6q0.4 0.3 0.7 0.5c0.9-1.4 1.6-2.9 2.2-4.4 0.8-2.1 1.4-4.2 1.6-6.5-1.4 1.8-2.4 3.8-3.2 5.8zm11.8-53.3c-0.8 2.1-1.4 4.2-1.6 6.4 1.5-1.7 2.4-3.7 3.2-5.8 0.8-2 1.4-4.1 1.6-6.4-1.5 1.8-2.4 3.8-3.2 5.8zm58.1 20.3c-0.7 2-1.4 4.1-1.5 6.4 1.4-1.8 2.3-3.8 3.1-5.8 0.8-2.1 1.4-4.1 1.6-6.4-1.4 1.8-2.4 3.7-3.2 5.8z"/>
							<path id="&lt;Path&gt;" class="s6" d="m660.3 366.7c11-16.3 30.6-53.6 39-98.5 5.4-29.5 0.8-36.5-7.3-33-3.5 13.8-21.7 90-31.7 131.5z"/>
							<path id="&lt;Path&gt;" class="s2" d="m603.3 300.6c-2 4.1-4.7 7.9-7.1 11.7-2.5 4-5.2 7.9-7.8 11.9-2.6 3.9-13.6 19.2-16.4 23.1-0.1 0.1-0.4 0-0.3-0.2 2.5-4 12.5-19.9 15.1-23.7 2.6-3.9 5.2-7.7 7.9-11.5 2.7-3.8 5.3-7.9 8.4-11.4 0.1-0.1 0.3 0 0.2 0.1z"/>
						</g>
					</g>
					<g id="&lt;Group&gt;">
						<g id="&lt;Group&gt;">
							<g id="&lt;Group&gt;">
								<path id="&lt;Path&gt;" class="s3" d="m703.2 378c3.7 1.9 121.7-14.2 121.7-14.2 0.1-0.2 4.8-9.5-1.4-20.4-20.3-35.9-75.1-109.7-111.8-115.8-8.1-1.4-23.6-0.1-27.6 17.4-5.2 23.4 5.8 105.7 8.9 120.4 1.8 8.4 9.6 12.4 10.2 12.6z"/>
							</g>
						</g>
						<path id="&lt;Compound Path&gt;" class="s4" d="m724.8 290.5c-0.8 2.1-1.4 4.2-1.5 6.4 1.3-1.8 2.3-3.7 3.1-5.8 0.7-2 1.4-4.1 1.5-6.4-1.4 1.8-2.3 3.8-3.1 5.8zm-12.9 87.3q0.8-0.1 1.7-0.2c0.5-1.5 0.9-3 1-4.7-1.2 1.5-2 3.2-2.7 4.9zm49.6-8.2q-0.5 1.3-0.9 2.7 0.8-0.1 1.7-0.3 0.4-0.9 0.8-1.8c0.7-2 1.3-4.1 1.5-6.4-1.4 1.8-2.3 3.8-3.1 5.8zm-73.9-111.3c-0.8 2-1.4 4.1-1.6 6.4 1.4-1.8 2.4-3.8 3.2-5.8 0.7-2 1.4-4.1 1.5-6.4-1.4 1.8-2.3 3.8-3.1 5.8zm99.6 44.8c-2-0.8-4.1-1.4-6.4-1.6 1.8 1.4 3.8 2.4 5.8 3.2 2.1 0.7 4.2 1.4 6.4 1.5-1.8-1.4-3.7-2.3-5.8-3.1zm-78.3 22.6c-2-0.8-4.1-1.4-6.4-1.6 1.8 1.4 3.8 2.4 5.8 3.2 2.1 0.7 4.1 1.4 6.4 1.5-1.8-1.4-3.7-2.3-5.8-3.1zm115.5 31.6c0.2 1.6 0.7 3.2 1.2 4.7q0.3-0.9 0.6-2.2c-0.5-0.9-1.1-1.7-1.8-2.5zm-98-110.3c-0.9-2-2-3.9-3.5-5.6 0.3 2.2 1 4.3 1.9 6.3 0.9 2 1.9 3.9 3.4 5.6-0.2-2.2-1-4.3-1.8-6.3zm31.5 69.9c-0.9-2-2-3.9-3.4-5.6 0.2 2.3 1 4.3 1.8 6.3 0.9 2 2 3.9 3.5 5.7-0.3-2.3-1.1-4.4-1.9-6.4zm34.8 26.8c-2 0.9-3.9 2-5.7 3.5 2.3-0.3 4.4-1.1 6.4-1.9 1.9-0.9 3.9-2 5.6-3.4-2.3 0.2-4.3 1-6.3 1.8zm-108.2-49q-0.2 0-0.3 0.1 0.1 0.9 0.1 1.8 0.5-0.2 0.9-0.4c1.9-0.9 3.9-1.9 5.6-3.4-2.3 0.3-4.3 1-6.3 1.9zm49.5 55c-2 0.9-3.9 1.9-5.6 3.4 2.3-0.2 4.3-1 6.3-1.8 2-1 3.9-2 5.7-3.5-2.3 0.3-4.4 1-6.4 1.9zm22-84.8c-1.9 0.9-3.9 1.9-5.6 3.4 2.3-0.3 4.3-1 6.3-1.9 2-0.9 3.9-1.9 5.7-3.4-2.3 0.3-4.4 1-6.4 1.9z"/>
					</g>
					<g id="&lt;Group&gt;">
						<g id="&lt;Group&gt;">
							<g id="&lt;Group&gt;">
								<g id="&lt;Group&gt;">
									<path id="&lt;Path&gt;" class="s16" d="m699.6 258.6c7.2-2.1 12.5-18.2 12.2-28.5 0-0.7-4.2-5.9-8.9-12.5-2.8-3.9-5.9-8.5-8.4-12.8l-23.2 22.3c0 0 7.9 7.5 12.2 15.1q0.6 0.9 0.9 1.8 0 0.2 0.1 0.4c1.4 3.6 8.1 16.3 15.1 14.2z"/>
								</g>
								<path id="&lt;Path&gt;" class="s2" d="m671.3 227.1c0 0 7.9 7.5 12.2 15.1q0.6 0.9 0.9 1.9 0 0.1 0.1 0.3 1.4-0.6 2.9-1.5c15.5-9.5 8.6-31.6 6.4-37.4z"/>
							</g>
							<g id="&lt;Group&gt;">
								<g id="&lt;Group&gt;">
									<path id="&lt;Path&gt;" class="s16" d="m679.2 171.2c8.3 8.1 18.5 39 15 49.1-5 14.6-21 24.4-35.3 16.6-13.9-7.6-26.5-48.2-21.9-58.1 6.8-14.6 30-19.6 42.2-7.6z"/>
								</g>
								<g id="&lt;Group&gt;">
									<g id="&lt;Group&gt;">
										<path id="&lt;Path&gt;" class="s2" d="m660.7 204.1c0-0.1 0.2 0 0.2 0.1 0.6 2.1 1.6 4.4 3.7 4.6 0.1 0 0.1 0.1 0 0.1-2.4 0.4-3.7-2.7-3.9-4.8z"/>
										<path id="&lt;Path&gt;" class="s2" d="m661.9 201.3c3.3-1.2 5.6 5.4 2.6 6.6-3 1.2-5.4-5.5-2.6-6.6z"/>
									</g>
									<g id="&lt;Group&gt;">
										<path id="&lt;Path&gt;" class="s2" d="m648.6 208.3c0-0.1-0.1 0.2-0.1 0.2 0.8 2.1 1.4 4.5-0.3 5.9 0 0 0 0.1 0.1 0.1 2.2-1.1 1.4-4.4 0.3-6.2z"/>
										<path id="&lt;Path&gt;" class="s2" d="m646 206.8c-3.4 0.9-1.3 7.6 1.8 6.8 3.1-0.8 1.1-7.6-1.8-6.8z"/>
									</g>
									<path id="&lt;Path&gt;" class="s2" d="m664.1 198.8c-1 0.1-1.9 0-2.9 0-1.1 0-2 0.1-3-0.6-0.5-0.3-0.6-1.2-0.3-1.8 0.6-1.2 2-1.5 3.3-1.6 1.5 0 2.6 0.3 3.8 1.2 1.1 0.9 0.4 2.7-0.9 2.8z"/>
									<path id="&lt;Path&gt;" class="s2" d="m641.9 202.4c0.9-0.5 1.6-1.1 2.4-1.6 1-0.7 1.7-1.1 2.2-2.1 0.2-0.6-0.2-1.4-0.7-1.7-1.3-0.7-2.6-0.2-3.7 0.5-1.2 0.8-2 1.7-2.4 3.1-0.5 1.3 1.1 2.4 2.2 1.8z"/>
									<path id="&lt;Path&gt;" class="s2" d="m669.2 221.5c-0.1 0.7-0.2 1.6-0.9 2-0.6 0.5-1.5 0.6-2.3 0.7-0.1 0.1-0.1 0.2 0 0.2 0.9 0.4 2.2 0.3 3-0.4 0.7-0.6 0.7-1.6 0.5-2.5-0.1-0.2-0.2-0.1-0.3 0z"/>
									<g id="&lt;Group&gt;">
										<g id="&lt;Group&gt;">
											<path id="&lt;Path&gt;" class="s2" d="m664.6 216.5c-0.5 2.2-1.9 3.7-3.6 4.7-0.8 0.5-1.6 0.8-2.5 1-0.1 0.1-0.8 0.2-1 0.2-0.2 0.1-0.4-0.1-0.5-0.3-0.1-0.1-1.4-4.4-1.4-4.4-0.5 0.5-3 2.8-3.2 2-2-7-4.3-14.8-4.8-22.2 0-0.2 0.4-0.3 0.4 0 2.2 6.6 3.2 13.6 5.3 20.3 0.8-0.7 2.1-1.9 2.9-2.2 0.2 0 1.6 5.5 1.7 5.6 2.7-0.6 4.5-2.1 6.4-4.8 0.1-0.2 0.3-0.1 0.3 0.1z"/>
										</g>
									</g>
									<g id="&lt;Group&gt;">
										<path id="&lt;Path&gt;" class="s2" d="m659 221.2c0 0 2.1 1.5 4.3 1.5 0.8 0 1.6-0.2 2.3-0.7 1.6-1 1.1-2.5 0.3-3.7-0.6-1-1.4-1.8-1.4-1.8 0 0-1.7 3.2-5.5 4.7z"/>
										<path id="&lt;Path&gt;" class="s17" d="m663.3 222.7c0.8 0 1.6-0.2 2.3-0.7 1.6-1 1.1-2.5 0.3-3.7-1.7 0.8-3 2.6-2.6 4.4z"/>
									</g>
								</g>
								<g id="&lt;Group&gt;">
									<path id="&lt;Path&gt;" class="s2" d="m696.6 198.1c-8 4-16.4-4-17.8-12.8 0 0-20.8 12.1-29.3-5.1 0 0-1.9 10.2-11.8 14.7l1.1 6.8c-2.5 0.3-7.6-5.1-4.2-12.5 0 0-3.3-8.9 1-17 4.2-8 12.1-7.2 12.1-7.2 0 0 3.4-6.5 11.9-8.8 8.6-2.4 15 3.6 15 3.6 0 0 11.8-2.5 16.9 4.5 5.1 7 3.3 13.8 3.3 13.8 0 0 4 1.9 5.4 9.1 0.9 4.6-1.1 9.7-3.6 10.9z"/>
									<path id="&lt;Path&gt;" class="s2" d="m649.3 178.4c0.5 1.5 1.1 3 1.8 4.4 0.7 1.4 1.6 2.6 2.6 3.8 2 2.3 4.7 3.9 7.7 4.2 3 0.5 6.1-0.4 9-1.3 1.4-0.7 2.8-1.2 4.2-2 1.4-0.7 2.8-1.5 4.2-2.2-1.3 0.9-2.6 1.8-3.9 2.7-1.4 0.9-2.8 1.5-4.2 2.2-3 1.1-6.1 2.2-9.4 1.7-3.3-0.4-6.3-2.2-8.3-4.7-2-2.6-3.2-5.7-3.7-8.8z"/>
									<path id="&lt;Path&gt;" class="s2" d="m642.3 193.4c2.1-1.9 3.9-4 5.1-6.4 0.7-1.2 1.2-2.4 1.5-3.8 0.4-1.3 0.4-2.6 0.4-4.1 0.4 1.4 0.6 2.8 0.4 4.3-0.1 1.4-0.6 2.9-1.3 4.1-0.7 1.3-1.6 2.5-2.6 3.5-1.1 1-2.2 1.8-3.5 2.4z"/>
								</g>
								<g id="&lt;Group&gt;">
									<path id="&lt;Path&gt;" class="s16" d="m685.6 199.7c0 0 1.6-12.5 7-12.4 5.3 0.1 7.4 16 3.5 20.3-4 4.4-8.1 0.8-8.1 0.8z"/>
									<path id="&lt;Path&gt;" class="s2" d="m693.1 191.8c0 0 0.1 0.1 0 0.2-2.7 3.1-2.8 7.3-2.4 11.2 0.4-1.8 1.4-3.2 3.8-2.9 0.1 0.1 0.1 0.2 0 0.3-1.6 0.4-2.5 1.2-2.9 2.8-0.2 1.1-0.1 2.4-0.2 3.6 0 0.3-0.6 0.5-0.7 0.1q0-0.1 0-0.1c-2.3-4.4-2.1-12.3 2.4-15.2z"/>
								</g>
							</g>
						</g>
					</g>
					<g id="&lt;Group&gt;">
						<g id="&lt;Group&gt;">
							<path id="&lt;Path&gt;" class="s16" d="m743.8 257.5c7.8 17 33.2 91.2 30.4 106.2-5.1 27.1-90.4 42.5-108.6 49.1-7.6 2.8-28.5-53-22.2-58.9 4.2-4 69.8-14.6 72.7-20.4 2.8-5.8 2.7-44.3-0.7-75.1-3.3-29.4 11.9-37 28.4-0.9z"/>
							<g id="&lt;Group&gt;">
								<g id="&lt;Group&gt;">
									<path id="&lt;Path&gt;" class="s16" d="m626.5 351.8c-18.8 2.1-23.3 5.5-40.1-1.1-11-4.4-18.6 0.7-10.5 10.1 13.1 15.3 38 17.7 46.8 16.1z"/>
									<path id="&lt;Path&gt;" class="s1" d="m575.7 355.3l5.7 9.1 10.4 2.7-6.8 8.2 0.7 10.8-10-4-10 4 0.7-10.8-6.9-8.2 10.4-2.7z"/>
									<g id="&lt;Group&gt;">
										<path id="&lt;Path&gt;" class="s16" d="m679.2 357.1c0 0-23.3-6.2-43.5-5.9-14 0.1-44.5 3.9-65.3 40.1-5 8.6-5.9 24.4 7.3 13.3 9.3-7.9 12.9-15.8 19.1-19.4 0 0 1.2 20.2 10 24.9 4 2 14.9 7.4 23.9 10.4 0 0 1.2-1.8 2.4-4.3 0 0 12.9 6.6 32.5-3.4z"/>
									</g>
									<g id="&lt;Group&gt;">
										<path id="&lt;Path&gt;" class="s16" d="m622.3 353.4c-5.5 4.9-16.9 15.5-23.2 27.4-7.1 13.2-17.1 40.6-7.3 45.7 7.2 3.7 11.9-6.4 11.9-6.4 0 0-1.7 12.2 5.5 14.2 6.6 1.7 9.8-6.3 9.8-6.3 0 0 0.2 7.6 6.9 8.1 8 0.6 6.3-15.4 14.9-21.8 2-1.5-18.5-60.9-18.5-60.9z"/>
										<g id="&lt;Group&gt;">
											<g id="&lt;Group&gt;">
												<path id="&lt;Path&gt;" class="s2" d="m614.3 385.9c-4.4 5.5-11.2 20.4-10.7 33.9 0 0.4 0.2 0.5 0.3 0.2 2.6-15 7.9-28.4 10.5-34 0-0.1-0.1-0.1-0.1-0.1z"/>
											</g>
											<g id="&lt;Group&gt;">
												<path id="&lt;Path&gt;" class="s2" d="m627.4 393.4c-3.3 5.1-9.6 20.8-8.7 34.5 0.1 0.3 0.3 0.5 0.3 0.2 2.1-15.8 6.3-28.9 8.5-34.6 0.1-0.1-0.1-0.1-0.1-0.1z"/>
											</g>
										</g>
									</g>
								</g>
							</g>
						</g>
						<g id="&lt;Group&gt;">
							<path id="&lt;Path&gt;" class="s3" d="m650.6 347.4l27.3 67.2c0 0 89.1-14.9 99.8-51.2 4.4-14.9-18.6-82.4-33.2-108.8-14.6-26.3-33.6-37-30.3 8.3 3.3 45.3 2.6 67.1 0.4 69.2-2.3 2.1-64 15.3-64 15.3z"/>
							<path id="&lt;Compound Path&gt;" class="s4" d="m751 267.8q-0.3 0.3-0.6 0.5 0.4 0 0.8-0.1c-0.1-0.1-0.1-0.3-0.2-0.4zm-17 81.9c-2 0.9-3.9 1.9-5.6 3.4 2.3-0.2 4.3-1 6.3-1.8 2-1 3.9-2 5.7-3.5-2.3 0.3-4.4 1-6.4 1.9zm-38 60.6c-0.9-2-1.9-3.9-3.4-5.6 0.2 2.2 1 4.3 1.8 6.3q0.1 0 0.1 0.1 0.8-0.2 1.7-0.4-0.1-0.2-0.2-0.4zm-12.3-55.3c-0.9-2-2-3.9-3.5-5.7 0.3 2.3 1 4.4 1.9 6.4 0.9 1.9 2 3.9 3.4 5.6-0.2-2.3-1-4.3-1.8-6.3zm74.2-38.1c-0.9-2-2-3.9-3.4-5.6 0.2 2.3 1 4.3 1.8 6.3 0.9 2 2 3.9 3.5 5.7-0.3-2.3-1.1-4.4-1.9-6.4zm-31.5-69.9c-0.9-2-2-3.9-3.5-5.6 0.3 2.2 1 4.3 1.9 6.3 0.9 2 1.9 3.9 3.4 5.6-0.2-2.2-1-4.3-1.8-6.3zm-61 136.8l0.2 0.5q0.3 0 0.5 0.1c-0.2-0.2-0.5-0.4-0.7-0.6zm96.1-14.2c-0.8 2-1.4 4.1-1.6 6.4 1.4-1.8 2.4-3.8 3.2-5.8 0.7-2 1.3-4.1 1.5-6.4-1.4 1.8-2.3 3.8-3.1 5.8zm-50 9.1c-0.8 2.1-1.4 4.1-1.6 6.4 1.4-1.8 2.3-3.7 3.2-5.8 0.7-2 1.4-4.1 1.5-6.4-1.4 1.8-2.3 3.8-3.1 5.8zm13.3-88.2c-0.8 2.1-1.4 4.2-1.5 6.4 1.3-1.8 2.3-3.7 3.1-5.8 0.7-2 1.4-4.1 1.5-6.4-1.4 1.8-2.3 3.8-3.1 5.8z"/>
							<g id="&lt;Group&gt;">
								<path id="&lt;Path&gt;" class="s2" d="m729.3 400.7c26-13.2 46.1-26.5 47.1-34.8 0.5-3.9 1.2-10.8 0.5-14.7q-1.2-6.3-2.5-12.5c-3.5-16.2-8.2-32-13.9-47.5q-4.9-13.1-10.8-25.8c-0.1-0.1 0.1-0.2 0.2-0.1q5.4 10 10 20.4-0.5-1.6-0.9-3.2c-0.9-2.9-1.8-5.7-2.9-8.5 0-0.2 0.2-0.2 0.3-0.1 1.2 2.8 2.3 5.7 3.1 8.6 0.5 1.7 0.8 3.3 1.1 5q5.2 12 9.3 24.5c2.6 8.2 4.9 16.5 6.8 24.9q1.3 6.1 2.4 12.3c0.7 4 0.5 13 0.1 17-1 7.8-14.5 19.6-49.6 34.7-0.2 0-0.5-0.1-0.3-0.2z"/>
								<path id="&lt;Path&gt;" class="s2" d="m670 348.9c2.5 4.3 4.3 9.1 6.3 13.6 2.1 4.7 4.1 9.5 6.1 14.3 1.9 4.7 9.2 24.1 11 28.9 0.1 0.2-0.2 0.4-0.3 0.2-2.1-4.8-10.5-23.5-12.4-28.2-1.9-4.7-3.9-9.3-5.7-14.1-1.8-4.8-3.9-9.6-5.2-14.6 0-0.1 0.1-0.2 0.2-0.1z"/>
							</g>
							<g id="&lt;Group&gt;">
								<g id="&lt;Group&gt;">
									<path id="&lt;Path&gt;" class="s2" d="m651.3 349l-0.8-1.6 0.1-0.1c18.4-4.7 37-8.8 55.4-13.5 2.7-0.7 5.6-1.4 8-2.4 1.7-6 1.1-12.7 1.5-19 0.2-9.5 0.2-19 0.3-28.5q1 14.3 1.2 28.6c0 5.9 0.1 12-0.8 17.9-0.2 0.7-0.2 1.3-0.8 2.1-0.4 0.5-0.8 0.6-1.1 0.8-2.5 1-5.2 1.6-7.8 2.4-18.5 4.7-37.1 8.5-55.9 11.8 0 0 0.1-0.1 0.1-0.1z"/>
								</g>
								<g id="&lt;Group&gt;">
									<path id="&lt;Path&gt;" class="s2" d="m716.2 300.1c-1.8-3.7-2.9-7.6-2.9-11.6 1.4 3.7 2.4 7.5 2.9 11.6z"/>
								</g>
							</g>
							<g id="&lt;Group&gt;">
							</g>
						</g>
					</g>
				</g>
			</g>
		</g>
	</g>
	<g id="Character 1">
		<g id="&lt;Group&gt;">
			<g id="&lt;Group&gt;">
				<g id="&lt;Group&gt;">
					<g id="&lt;Group&gt;">
						<path id="&lt;Path&gt;" class="s18" d="m141.4 941.1c1.2-4.7 75.8-117.6 81.2-120 0.6-0.3 38.7 23.3 38.7 23.3 1.7 1.9 70-17.2 70-17.2l6 83.5-126.3 5.4c0 0-16.4 11.1-31.4 20.3q-0.1 0-0.1 0c-9.3 5.7-17.5 10.5-19.9 11.2-6.2 2.1-19.5-1.8-18.2-6.5z"/>
						<path id="&lt;Path&gt;" class="s4" d="m159.6 947.6c2.4-0.7 10.6-5.5 19.9-11.2q0 0 0.1 0c15-9.2 31.4-20.3 31.4-20.3l28.1-1.2 39.4-73.8c-9.5 2.4-16.7 3.9-17.2 3.2 0 0-38.1-23.5-38.7-23.2-5.4 2.4-80 115.3-81.2 120-1.3 4.7 12 8.6 18.2 6.5z"/>
						<g id="&lt;Group&gt;">
							<path id="&lt;Path&gt;" class="s1" d="m140.6 941.3c1.3-4.8 76.3-117.7 81.9-120.2 2.1-0.9 20.6 8.9 38.8 23.3l-48.4 72.7c0 0-47.1 28.9-53.5 31-6.4 2.1-20.1-2-18.8-6.8z"/>
							<g id="&lt;Group&gt;">
								<g id="&lt;Group&gt;">
									<path id="&lt;Path&gt;" class="s2" d="m146.2 942.7c13.1-18.6 63.8-94.9 75.3-114.3 0.1-0.2 0-0.2-0.1-0.1-13.3 18.2-63.5 94.9-75.5 114.2-0.2 0.4 0.1 0.6 0.3 0.2z"/>
									<path id="&lt;Path&gt;" class="s2" d="m168.3 943.6c3.1-4.4 3.9-10.2 2.9-14.4-1-4.1-3.3-8.5-7.3-11-0.1 0-0.3 0.2-0.2 0.3 6.7 6 8.7 17 4.3 24.9 0 0.2 0.2 0.3 0.3 0.2z"/>
									<path id="&lt;Path&gt;" class="s2" d="m207.1 921.7c5.1-7.5 8.3-18 5.2-26.8-0.1-0.4-0.6-0.2-0.6 0.1-1.1 9.2-2.7 17.4-5.6 26.3-0.2 0.6 0.6 1 1 0.4z"/>
									<path id="&lt;Path&gt;" class="s2" d="m200.9 926.1c5.2-7.5 8.3-18.1 5.2-26.9-0.1-0.3-0.6-0.2-0.6 0.1-1 9.2-2.7 17.5-5.6 26.3-0.2 0.6 0.7 1 1 0.5z"/>
									<path id="&lt;Path&gt;" class="s2" d="m194.8 930.4c5.1-7.5 8.2-18 5.2-26.9-0.1-0.3-0.6-0.1-0.7 0.2-1 9.2-2.7 17.4-5.6 26.2-0.2 0.6 0.7 1 1.1 0.5z"/>
									<path id="&lt;Path&gt;" class="s2" d="m188.6 934.7c5.1-7.5 8.3-18 5.2-26.8-0.1-0.4-0.6-0.2-0.6 0.1-1 9.2-2.7 17.4-5.6 26.3-0.2 0.6 0.6 1 1 0.4z"/>
									<path id="&lt;Path&gt;" class="s2" d="m236.3 845.1c5.6-8.5-7.6-17.2-13.2-8.7-5.7 8.5 7.6 17.3 13.2 8.7z"/>
								</g>
								<path id="&lt;Compound Path&gt;" fill-rule="evenodd" class="s2" d="m211.2 935.4c-2.6-7.6-1.8-16-1.9-23.9-0.1-0.8 0.8-1.2 1.5-1 0.1-0.1 0.2-0.2 0.4-0.1 6.2 4.8 11.9 12.4 14.7 19.8 1.8 4.5 1.7 11.4-4 13.1-5.5 1.7-9.3-3.5-10.7-7.9zm6 4.5c8.7 4.7 7.3-6.9 5.9-10.2-0.9-2.2-2.1-4.2-3.2-6.2-2.5-4.1-5.6-7.9-8.4-11.7 0.3 3.8 0.3 7.7 0.4 11.6 0.2 4.6 0.5 13.9 5.3 16.5z"/>
								<path id="&lt;Compound Path&gt;" fill-rule="evenodd" class="s2" d="m233.8 886.7c4.6 3.9 1.9 10.3-1.5 13.8-5.5 5.6-13.8 10.2-21.5 12.1-0.2 0-0.3-0.1-0.3-0.2-0.7-0.1-1.3-0.8-1-1.5 3.3-7.2 5.9-15.2 11.3-21.1 3.2-3.5 8.7-6.7 13-3.1zm-17.1 14.4c-1.7 3.4-3.2 7-5 10.4 4.1-2.4 8.4-4.6 12.3-7.4 1.9-1.3 3.8-2.7 5.5-4.3 2.6-2.5 8.6-12.6-1.3-11.8-5.5 0.5-9.4 8.9-11.5 13.1z"/>
							</g>
						</g>
					</g>
					<g id="&lt;Group&gt;">
						<path id="&lt;Path&gt;" class="s3" d="m310.2 809.4c0 0 106.2-48.5 153.6-47.9 56.4 0.7 100.1 67.6 31 115.8-61.1 42.6-253.7 39.3-253.7 39.3l45.1-80.7c0 0 53.2-20.6 122.8-22.8l-97.2 19.7z"/>
						<path id="&lt;Path&gt;" class="s2" d="m312.2 825.5c8.3-2.1 16.8-3.5 25.2-5 8.5-1.6 17.1-2.9 25.7-4.2 17-2.5 34.3-4.4 51.5-5.2q2.5-0.1 4.9-0.1c0.3-0.2 0.7-0.2 1-0.4q1.2-0.3 2.5-0.7c1.5-0.4 3.1-0.7 4.6-1 3.2-0.8 6.5-1.3 9.7-2.1 0.2-0.1 0.3 0.2 0.1 0.3-3.2 0.9-6.4 2.1-9.6 3q-1.4 0.4-2.8 0.8c6.4-0.1 12.7 0 19.1 0.1 0.2 0 0.2 0.3 0 0.3-8.6 0.1-17.3 0.6-25.9 1.3-8.5 0.7-17 1.4-25.5 2.4-17.2 2.1-34.3 4.8-51.4 7.7-9.6 1.6-19.2 3.4-28.8 4.5-0.9 0.1-1.3-1.4-0.3-1.7z"/>
						<path id="&lt;Path&gt;" class="s2" d="m260.7 913c2.8-5.2 5.1-10.6 7.6-15.9q3.7-7.9 7.5-15.8c5-10.6 23.2-46.1 25-48.6 0.1-0.2 0.4 0 0.4 0.2-0.8 2.7-12.1 26.1-14.7 31.4-5.2 10.5-10.7 20.8-16.1 31.1-1.5 3-3.2 5.9-4.7 8.9-1.6 2.9-3.3 5.8-4.7 8.8-0.1 0.2-0.4 0-0.3-0.1z"/>
					</g>
				</g>
				<g id="&lt;Group&gt;">
					<g id="&lt;Group&gt;">
						<path id="&lt;Path&gt;" class="s18" d="m511.4 941.2c-1.3-4.7-79.7-115.1-85.2-117.3-0.6-0.3-37.9 24.5-37.9 24.5-1.5 2-70.5-14.8-70.5-14.8l-3.2 83.7 126.4 1.2c0 0 16.8 10.5 32.1 19.2q0.1 0 0.1 0c9.4 5.3 17.8 9.9 20.2 10.6 6.3 1.8 19.4-2.5 18-7.1z"/>
						<path id="&lt;Path&gt;" class="s4" d="m493.4 948.3c-2.4-0.7-10.8-5.3-20.2-10.6q-0.1 0-0.1 0c-15.3-8.7-32.1-19.2-32.1-19.2l-28.1-0.3-41.9-72.4c9.6 2 16.8 3.3 17.3 2.6 0 0 37.3-24.8 37.9-24.5 5.5 2.2 83.8 112.6 85.2 117.3 1.4 4.6-11.7 8.9-18 7.1z"/>
						<g id="&lt;Group&gt;">
							<path id="&lt;Path&gt;" class="s1" d="m512.2 941.3c-1.5-4.8-80.2-115.1-85.8-117.4-2.2-0.9-20.3 9.6-38.1 24.5l50.8 71.1c0 0 48.1 27.4 54.6 29.2 6.4 1.9 19.9-2.6 18.5-7.4z"/>
							<g id="&lt;Group&gt;">
								<g id="&lt;Group&gt;">
									<path id="&lt;Path&gt;" class="s2" d="m506.6 942.9c-13.6-18.2-66.9-92.7-79-111.7-0.1-0.2 0-0.3 0.1-0.1 13.9 17.7 66.6 92.7 79.2 111.6 0.3 0.4 0 0.6-0.3 0.2z"/>
									<path id="&lt;Path&gt;" class="s2" d="m484.6 944.5c-3.3-4.3-4.3-10-3.3-14.3 0.8-4.1 3-8.6 6.9-11.2 0.1-0.1 0.2 0.1 0.1 0.2-6.4 6.3-8.1 17.4-3.4 25.1 0.1 0.2-0.2 0.3-0.3 0.2z"/>
									<path id="&lt;Path&gt;" class="s2" d="m445.1 924c-5.4-7.4-8.9-17.8-6.1-26.7 0.1-0.4 0.6-0.2 0.6 0.1 1.4 9.2 3.3 17.3 6.5 26.1 0.2 0.6-0.6 1-1 0.5z"/>
									<path id="&lt;Path&gt;" class="s2" d="m451.4 928.1c-5.4-7.3-8.9-17.8-6.1-26.7 0.1-0.3 0.6-0.2 0.6 0.1 1.4 9.2 3.3 17.4 6.5 26.1 0.2 0.6-0.6 1-1 0.5z"/>
									<path id="&lt;Path&gt;" class="s2" d="m457.7 932.2c-5.4-7.3-8.9-17.7-6.1-26.7 0.1-0.3 0.6-0.2 0.6 0.2 1.4 9.1 3.3 17.3 6.5 26 0.3 0.6-0.6 1.1-1 0.5z"/>
									<path id="&lt;Path&gt;" class="s2" d="m464 936.4c-5.4-7.4-8.9-17.8-6.1-26.7 0.1-0.4 0.6-0.2 0.7 0.1 1.3 9.1 3.2 17.3 6.4 26 0.3 0.6-0.6 1.1-1 0.6z"/>
									<path id="&lt;Path&gt;" class="s2" d="m413.4 848.4c-5.9-8.3 7-17.5 12.9-9.2 5.9 8.4-7 17.5-12.9 9.2z"/>
								</g>
								<path id="&lt;Compound Path&gt;" fill-rule="evenodd" class="s2" d="m431.1 946.1c-5.8-1.6-6.1-8.5-4.6-13.1 2.6-7.4 8.1-15.2 14.2-20.2 0.1-0.1 0.3 0 0.3 0.1 0.7-0.2 1.6 0.1 1.6 0.9 0.1 7.9 1.2 16.3-1.1 23.9-1.3 4.5-5 9.8-10.4 8.4zm9.2-20.3c0.1-3.9-0.1-7.8 0.1-11.6-2.7 3.9-5.7 7.7-8 12-1.1 2-2.2 4.1-3.1 6.2-1.3 3.4-2.3 15.1 6.3 10 4.7-2.7 4.7-12 4.7-16.6z"/>
								<path id="&lt;Compound Path&gt;" fill-rule="evenodd" class="s2" d="m430.3 892.5c5.6 5.7 8.5 13.7 12 20.7 0.4 0.7-0.3 1.4-0.9 1.5 0 0.2-0.1 0.3-0.3 0.3-7.7-1.6-16.2-6-21.9-11.5-3.5-3.3-6.4-9.6-2-13.6 4.2-3.8 9.8-0.8 13.1 2.6zm-7.4-1.5c-9.9-0.5-3.6 9.4-0.9 11.8 1.7 1.5 3.7 2.9 5.6 4.1 4 2.7 8.3 4.7 12.6 7-1.9-3.4-3.6-6.9-5.4-10.3-2.2-4-6.4-12.3-11.9-12.6z"/>
							</g>
						</g>
					</g>
					<g id="&lt;Group&gt;">
						<path id="&lt;Path&gt;" class="s3" d="m314.8 807.8c0 0-106.8-33-164-26.6-56 6.3-79.5 76.3-25.2 114.8 59.3 41.9 283.8 29 283.8 29l-47.3-86.1c0 0-76.3-18.6-146-18.4l97.8 16.5z"/>
						<path id="&lt;Path&gt;" class="s2" d="m365.2 844.4c0-0.1 0-0.3-0.1-0.4q0-0.2 0-0.4-0.1-0.4-0.2-0.8-0.3-0.8-0.6-1.7-0.3-0.8-0.6-1.6c-0.3-0.6-0.6-1-0.9-1.5 0-0.1-0.1-0.1-0.1-0.1q-0.1-0.1-0.1-0.1-0.1 0-0.1 0-0.1-0.1-0.2-0.1c-8.4-1.8-65.5-11.8-74-13-8.5-1.3-17.1-2.3-25.7-3.3-17.2-2-34.5-3.3-51.7-3.5q-2.5 0-4.9 0c-0.3-0.1-0.7-0.2-1.1-0.3q-1.2-0.3-2.4-0.6c-1.6-0.4-3.1-0.7-4.7-0.9-3.3-0.6-6.5-1.1-9.7-1.8-0.2 0-0.3 0.3-0.1 0.3 3.2 0.8 6.4 1.9 9.6 2.7q1.4 0.3 2.9 0.7c-6.4 0.1-12.7 0.4-19.1 0.8-0.2 0-0.2 0.3 0 0.3 8.6-0.2 17.3 0 25.9 0.4 8.6 0.4 17.1 0.8 25.6 1.6 17.3 1.5 34.5 3.6 51.6 5.9 9.6 1.3 67.9 11.7 77.6 12.4q0 0 0.1-0.1 0.1 0.4 0.2 0.7 0.4 0.8 0.8 1.6 0.4 0.8 0.8 1.5 0.2 0.4 0.5 0.7 0.1 0.2 0.2 0.4c0.1 0.1 0.2 0.2 0.2 0.3 0.1 0.3 0.4 0.1 0.3-0.1z"/>
						<path id="&lt;Path&gt;" class="s2" d="m391.5 919.3c-2.9-5.1-5.4-10.4-8.1-15.6q-4-7.8-8-15.6c-5.4-10.3-24.7-45.2-26.6-47.7-0.2-0.2-0.4 0-0.4 0.2 0.9 2.7 12.9 25.7 15.7 30.9 5.6 10.3 11.4 20.4 17.2 30.6 1.6 2.9 3.3 5.8 5 8.6 1.6 2.9 3.4 5.8 5 8.7 0 0.2 0.3 0.1 0.2-0.1z"/>
					</g>
				</g>
			</g>
			<g id="&lt;Group&gt;">
				<g id="&lt;Group&gt;">
					<g id="&lt;Group&gt;">
						<path id="&lt;Path&gt;" class="s18" d="m301 707.6c32.2 21.3 76.3 41.6 86.9 41.6 13.4 0 63.4-29.6 66-31.6 6.2-4.8-21.1-50.8-28-45.8-10.6 7.5-38.5 29.4-42.5 29.3-4.2-0.2-35.5-4.5-69.4-10.8-23.5-4.4-33 4.1-13 17.3z"/>
						<g id="&lt;Group&gt;">
							<g id="&lt;Group&gt;">
								<path id="&lt;Path&gt;" class="s18" d="m449.6 719.8c-6.6 0.9-30-34.8-26.7-40.8 2.9-5.5 8.6-22.4 8.3-35.8-0.2-11.3-1.9-28.1 4.2-28.4 8.9-0.6 13.5 20.4 15.4 32.6 5.2-4.2 10.2-7.3 13.7-8 11.7-2.5 29.3 48.4 21.6 57.8-7.4 9-29.9 21.6-36.5 22.6z"/>
							</g>
							<g id="&lt;Group&gt;">
								<path id="&lt;Path&gt;" class="s9" d="m471.4 682.8l-11.9 6-26.5-52 11.8-6.1z"/>
								<g id="&lt;Group&gt;">
									<g id="&lt;Group&gt;">
										<path id="&lt;Path&gt;" class="s15" d="m421.4 635.2q3.1-0.5 5.9-1.5 0.7-0.2 1.3-0.5 0.7-0.2 1.2-0.5 0.5-0.1 0.9-0.3l12.1-5.9q-1.7 0.8-3.4 1.4-1.5 0.5-3 0.9-1.4 0.4-2.9 0.6c-24.7 3.9-51.9-18.9-60.7-51-6.8-24.7-0.7-47.7 13.7-58.8q2.7-2 5.8-3.5l-12.1 5.8q-0.1 0-0.1 0.1-0.8 0.3-1.6 0.7-0.6 0.4-1.3 0.8-0.2 0.2-0.5 0.4-0.5 0.3-1 0.6-0.2 0.2-0.5 0.4c-9.1 6.5-15 17.6-16.8 31q-0.1 1-0.2 2c-0.8 8.2 0 17.1 2.5 26.3 8.8 32.1 36 54.9 60.7 51z"/>
									</g>
									<g id="&lt;Group&gt;">
										<path id="&lt;Path&gt;" class="s15" d="m470 563c8.9 32.6-1.2 62.7-22.9 73.1l-12.1 5.8c21.7-10.4 31.8-40.4 22.9-73.1-10.4-37.6-42.3-64.4-71.2-59.8q-3.7 0.6-6.9 1.7-2.1 0.7-4 1.6l12.1-5.8q1.9-0.9 4-1.6 3.3-1.2 6.8-1.7c29-4.6 60.9 22.2 71.3 59.8z"/>
									</g>
									<g id="&lt;Group&gt;">
										<path id="&lt;Compound Path&gt;" fill-rule="evenodd" class="s3" d="m353 585.4c-9-32.7 1.2-62.8 23-73.2q0.8-0.3 1.5-0.6 0.2-0.1 0.4-0.2 0.9-0.4 1.9-0.7 1.6-0.6 3.3-1 1.8-0.4 3.6-0.7c28.9-4.6 60.8 22.2 71.2 59.8 3.2 11.7 3.9 23 2.6 33.3q-0.3 2.3-0.8 4.6-0.4 2.3-1 4.5-0.6 2.2-1.3 4.2-0.4 1.1-0.8 2.1-1.2 3.1-2.7 5.8 0 0 0 0.1-1 1.8-2.2 3.5c-3.4 5.3-7.7 9.6-12.7 12.8q-0.6 0.4-1.1 0.7-1 0.5-1.9 1-0.1 0.1-0.2 0.1-2.3 1.2-4.7 2.1-3.4 1.1-6.9 1.7c-29 4.6-60.9-22.2-71.2-59.9zm68.4 49.8q3.1-0.5 5.9-1.5 0.7-0.2 1.3-0.5 0.7-0.2 1.2-0.5 3.6-1.6 6.6-3.9c14.5-11 20.5-34 13.7-58.7-8.8-32.1-36-54.9-60.7-51.1q-1.5 0.3-2.9 0.6-1.5 0.4-3 0.9-1.7 0.6-3.3 1.4-0.1 0-0.1 0.1-0.8 0.3-1.6 0.7-0.6 0.4-1.3 0.8-0.2 0.2-0.5 0.4-0.5 0.3-1 0.6-0.2 0.2-0.5 0.4c-9.1 6.5-15 17.6-16.8 31q-0.1 1-0.2 2c-0.8 8.2 0 17.1 2.5 26.3 8.8 32.1 36 54.9 60.7 51z"/>
										<path id="&lt;Path&gt;" class="s19" d="m433.5 629.4q1.5-0.2 2.9-0.6c14.5-11 20.5-34 13.7-58.7-8.8-32.1-36-54.9-60.7-51.1q-1.5 0.3-2.9 0.6c-14.4 11.1-20.5 34.1-13.7 58.8 8.8 32.1 36 54.9 60.7 51z"/>
										<g id="&lt;Group&gt;" style="opacity: .3">
											<path id="&lt;Path&gt;" class="s0" d="m371.7 543.7l71.1 8.4q-3.1-5.6-6.9-10.4l-61-7.2c-1.3 2.9-2.4 6-3.2 9.2z"/>
											<path id="&lt;Path&gt;" class="s0" d="m382 523.8l40.5 4.8c-10.2-7.6-21.9-11.3-33.1-9.6q-1.5 0.3-2.9 0.6-2.4 1.9-4.5 4.2z"/>
											<path id="&lt;Path&gt;" class="s0" d="m370.4 551.1l76.3 9q-1.1-2.6-2.4-5.1l-73.2-8.6q-0.4 2.3-0.7 4.7z"/>
											<path id="&lt;Path&gt;" class="s0" d="m392.9 613.4q3 3 6.3 5.6l42.3 5q1.9-2.1 3.4-4.5z"/>
											<path id="&lt;Path&gt;" class="s0" d="m380 596.2l71.2 8.4c1.5-6.1 2-12.8 1.5-19.8l-80.7-9.5q0.4 1.5 0.8 3.1c1.8 6.3 4.2 12.3 7.2 17.8z"/>
										</g>
									</g>
								</g>
								<path id="&lt;Path&gt;" class="s2" d="m492.8 717.2l-17.9 9.1-23.6-46.1 17.9-9.2z"/>
							</g>
							<g id="&lt;Group&gt;">
								<path id="&lt;Path&gt;" class="s18" d="m447.2 646.8c-0.9 6.2 6.9 3.7 6.9 3.7 0 0-10.3 6.2-8.8 12.9 1.5 6.5 10.8 3.2 11.4 2.9-0.5 0.4-9.9 6.4-7.6 12.9 2.3 6.9 11 1.9 11.6 1.6-0.4 0.5-5.8 6.9-2.9 11.5 4.8 7.9 19-8.1 26.5-8.2 0 0 1.7 12.7 1.8 13.1 0 0 13.8-15 13.1-25.1-0.4-5.3-5.5-6-5.5-6 0 0 5-4.4 3.4-9.6-0.9-2.7-5.9-3.7-5.9-3.7 0 0 3.9-3.7 2.2-8.2-1.4-3.7-6.2-4.2-6.2-4.2 0 0 2-5.2-0.6-8.5-5.2-6.6-37.5 1.7-39.4 14.9z"/>
								<g id="&lt;Group&gt;">
									<path id="&lt;Path&gt;" class="s2" d="m486.4 640.2c0.1 0 0.1-0.2 0-0.2-11.3 0.2-23.6 3.8-32.8 10.6-0.3 0.2 0 0.8 0.4 0.6 10.7-5.2 20.6-8.9 32.4-11z"/>
									<path id="&lt;Path&gt;" class="s2" d="m491.4 652.7c0.1-0.1 0.1-0.3-0.1-0.3-11.6 0.2-25.4 4.7-35 13.7-0.3 0.3-0.3 1 0.1 0.6 6.8-5.5 24.3-12.3 35-14z"/>
									<path id="&lt;Path&gt;" class="s2" d="m460.3 681.7c9.5-8.3 20.7-12.8 32.9-15.7 0.2 0 0.1-0.2 0-0.2-6.4-0.2-14 2.4-19.7 5-5.5 2.4-9.9 5.8-13.5 10.6-0.2 0.1 0.1 0.5 0.3 0.3z"/>
								</g>
								<path id="&lt;Path&gt;" class="s2" d="m453.9 650.4c-0.4 0.3 0.4 0.5 0.1 0.8-1.5 1.2-9.8 9-8 12.6 1.5 2.9 6.4 3 8.3 2.3l4.7-1.8-3.8 3.4c-1.7 1.4-3.3 3.2-4.4 5.1-1.1 1.9-1.7 4.1-1.1 6 0.6 2 2.3 3.3 4.3 3.2 2.1 0 4.3-0.9 6.2-2l5.1-3.1-3.8 4.6c-1.1 1.2-2.1 2.7-2.8 4.2-0.6 1.5-1.1 3.1-0.8 4.6 0.2 1.4 1.2 2.7 2.6 3.1 1.4 0.4 3.1 0 4.7-0.6 3.2-1.1 6.2-3 9.3-4.6 1.6-0.9 3.2-1.7 4.7-2.5 1.6-0.8 3.3-1.6 5.1-1.6-1.8 0.2-3.3 1.2-4.8 2-1.5 0.9-3 1.9-4.5 2.8-2.9 2-5.9 3.9-9.3 5.3-1.7 0.6-3.6 1.2-5.7 0.8-2.1-0.5-3.6-2.4-4-4.4-0.3-2.1 0.2-4 1-5.7 0.8-1.7 1.7-3.3 2.9-4.7l1.4 1.5c-2.2 1.3-4.5 2.3-7.3 2.4-1.3 0.1-2.8-0.3-4-1.2-1.1-1-1.8-2.2-2.2-3.5-0.9-2.7 0-5.5 1.3-7.6 1.3-2.1 3-3.9 4.9-5.6l0.9 1.6c-2.4 0.8-7.9 1.3-10.7-2.9-2.8-6.1 7.7-13.3 9.7-14.5z"/>
								<path id="&lt;Path&gt;" class="s2" d="m454.1 650.5c-1.4 0.1-2.7 0.1-3.8-0.2-1.2-0.2-2-0.9-2.3-1.8-0.3-1 0-2.2 0.3-3.4q0.6-1.8 1.4-3.6c-1 0.8-2 1.9-2.6 3.1-0.7 1.2-1.2 2.7-0.7 4.4 0.3 0.8 0.8 1.5 1.4 2 0.7 0.4 1.5 0.7 2.3 0.7 1.5 0 2.8-0.5 4-1.2z"/>
							</g>
						</g>
					</g>
					<g id="&lt;Group&gt;">
						<path id="&lt;Path&gt;" class="s1" d="m423.3 668.7l28.8 58.6c0 0-49 25.8-63.2 24.9-14.3-0.9-64.7-27.7-86.6-43-22-15.3-11.9-24 8.3-20.5 20.3 3.6 69.9 11.6 71.8 11.1 1.8-0.6 40.9-31.1 40.9-31.1z"/>
						<path id="&lt;Path&gt;" class="s2" d="m429.3 710.8c-3.3-6.9-6.6-13.9-10.2-20.8-2.1-3.8-4.1-7.7-6.2-11.6-0.1-0.1-0.3 0-0.3 0.1 3.1 7.1 6.2 14.3 9.6 21.2 3.4 7 6.8 13.9 10.3 20.8q2.9 5.9 6.2 11.6c0.1 0.1 0.2 0 0.2-0.1-2.9-7.2-6.2-14.2-9.6-21.2z"/>
						<path id="&lt;Path&gt;" class="s6" d="m389 752.2q0 0-0.1 0c-14.3-0.9-64.7-27.7-86.6-43-15.2-10.6-15.1-18-6.9-20.4 25.9 17.3 62.1 41.7 93.6 63.4z"/>
					</g>
				</g>
				<g id="&lt;Group&gt;">
					<path id="&lt;Path&gt;" class="s1" d="m231.3 819.4l127-7.2-9.3-40.1c0 0 9.6-9.6 2.4-26.2-4.7-10.8-24.4-35.5-34.2-45.6-23.9-24.8-38-8.9-43.6-1.7-21.3 27.6-42.3 120.8-42.3 120.8z"/>
					<path id="&lt;Compound Path&gt;" fill-rule="evenodd" class="s6" d="m302.6 689.2l-20.8 1.3q-1.1 0.8-2.1 1.6l25.4-1.6q-1.3-0.7-2.5-1.3zm14.6 11.1q-0.5-0.5-0.9-0.9l-45.3 2.9q-0.5 0.7-0.9 1.5l47.6-3q-0.3-0.3-0.5-0.5zm8.6 9.6l-61.1 3.9q-0.4 0.7-0.7 1.5l62.9-4q-0.6-0.7-1.1-1.4zm8.5 10.5l-74.7 4.8q-0.3 0.7-0.6 1.5l76.4-4.8q-0.5-0.7-1.1-1.5zm7.9 10.6l-87 5.6q-0.3 0.7-0.5 1.5l88.5-5.6q-0.5-0.7-1-1.5zm7 10.7l-98 6.2q-0.2 0.8-0.5 1.5l99.3-6.3q-0.4-0.7-0.8-1.4zm4.3 10.8l-105.9 6.7q-0.3 0.8-0.5 1.5l106.7-6.7q-0.1-0.8-0.3-1.5zm-109.4 18q-0.2 0.8-0.4 1.6l109.2-7q0.3-0.7 0.5-1.5zm105.5 4.4l-108.7 6.9q-0.3 0.7-0.5 1.5l109.5-7zm2.6 10.9l-114.3 7.3q-0.3 0.8-0.5 1.5l115.1-7.3zm2.5 10.9l-119.7 7.6q-0.2 0.8-0.4 1.5l120.5-7.6zm2.5 10.9l-125 7.9q-0.2 0.9-0.4 1.5l125.7-7.9z"/>
					<g id="&lt;Group&gt;">
						<g id="&lt;Group&gt;">
							<path id="&lt;Path&gt;" class="s2" d="m310.7 774.6c5.4-0.8 11-1.5 16.5-1.5 2.8 0 5.5 0.1 8.3 0.3q2 0.1 4.1 0.2c1.4 0 2.9 0 4.3-0.3 0.1 0 0.2 0.1 0 0.2-1.3 0.4-2.6 0.7-3.9 0.9-1.3 0.2-2.6 0.3-4 0.3-2.8 0-5.6-0.1-8.4-0.1-5.6 0-11.3 0-16.9 0.5-0.3 0-0.3-0.5 0-0.5z"/>
							<path id="&lt;Path&gt;" class="s2" d="m298.6 782.8c4.3-1.6 8.7-3 13.2-4.1 2.2-0.6 4.4-1 6.7-1.3q1.6-0.3 3.2-0.5c1.2-0.1 2.5-0.1 3.7-0.3 0.1 0 0.1 0.2 0 0.2-1.1 0.2-2.2 0.6-3.3 0.8q-1.7 0.4-3.4 0.8c-2.2 0.5-4.4 1-6.6 1.5-4.5 1-8.9 2.1-13.4 3.2-0.2 0.1-0.3-0.3-0.1-0.3z"/>
						</g>
					</g>
				</g>
				<g id="&lt;Group&gt;">
					<g id="&lt;Group&gt;">
						<g id="&lt;Group&gt;">
							<path id="&lt;Path&gt;" class="s18" d="m272.7 697.1c-21.3 18.1-76.1 89.9-63.1 105.6 13.1 15.8 96.3 6 120.3-2.2 7.1-2.5-13.8-47.7-21.7-49.6-6.5-1.5-42.2 10.1-42.9 8-0.9-2.3 6.4-17.9 17.9-46.5 13.2-32.8-1.1-23.3-10.5-15.3z"/>
							<g id="&lt;Group&gt;">
								<g id="&lt;Group&gt;">
									<path id="&lt;Path&gt;" class="s18" d="m343.4 741.1c16.8-0.4 21.1 2.1 35.1-5.8 9.1-5.1 16.3-1.5 10.4 7.7-9.7 15-31.2 20-39.1 19.6z"/>
									<g id="&lt;Group&gt;">
										<path id="&lt;Path&gt;" class="s18" d="m297.9 752c0 0 19.7-8.2 37.5-10.4 12.3-1.5 39.4-1.8 62 27.5 5.3 6.9 8 20.6-4.9 12.4-9.1-5.8-13.1-12.2-19.1-14.6 0 0 1.4 17.8-5.8 22.9-3.2 2.3-12.1 8.3-19.7 12 0 0-1.2-1.5-2.5-3.5 0 0-7.2 4.1-19.4 1.5z"/>
									</g>
									<g id="&lt;Group&gt;">
										<path id="&lt;Path&gt;" class="s18" d="m347.3 742c5.4 3.7 16.7 11.6 23.7 21.2 7.7 10.8 19.8 33.6 11.8 39.2-5.9 4.1-11.2-4.2-11.2-4.2 0 0 2.9 10.5-3.2 13.1-5.5 2.3-9.3-4.3-9.3-4.3 0 0 0.7 6.6-5.1 7.9-6.9 1.4-7.3-12.8-15.7-17.4-1.8-1 9-55.5 9-55.5z"/>
										<g id="&lt;Group&gt;">
											<g id="&lt;Group&gt;">
												<path id="&lt;Path&gt;" class="s2" d="m358.3 769.5c4.5 4.3 12.2 16.6 13.4 28.5 0 0.3-0.2 0.4-0.3 0.2-4-12.9-10.3-24-13.2-28.6-0.1 0 0-0.1 0.1-0.1z"/>
											</g>
											<g id="&lt;Group&gt;">
												<path id="&lt;Path&gt;" class="s2" d="m347.6 777.7c3.5 4 11 17.1 11.7 29.2 0.1 0.3-0.1 0.4-0.2 0.2-3.7-13.7-8.9-24.6-11.6-29.3 0-0.1 0.1-0.2 0.1-0.1z"/>
											</g>
										</g>
									</g>
								</g>
								<path id="&lt;Path&gt;" class="s2" d="m373.4 766.8c5.2 2.2 8.4 5.2 12.6 8.9 2.1 1.8 4.2 3.5 6.4 5.1 2.1 1.4 5.1 3.6 7.6 2 1.4-0.9 1.6-2.7 1.5-4.3-0.1-1.7-1.4-4.9-2.2-6.4-0.1-0.1 0-0.1 0.1-0.1 0.8 1.4 2.2 4.3 2.6 5.8 0.3 1.4 0.5 2.9 0 4.3-1.1 2.8-4.7 2.8-7 1.7-1.5-0.6-2.8-1.6-4-2.5q-1.8-1.3-3.6-2.8c-2.3-2-4.6-4.2-6.9-6.2-2.5-2.3-4.4-3.4-7.2-5.4 0 0 0-0.2 0.1-0.1z"/>
								<path id="&lt;Path&gt;" class="s2" d="m382.5 786.9c-1-3.2-7.1-16.8-9.2-20 0-0.1 0.1-0.2 0.1-0.1 3.8 4.4 9.3 15.7 10.5 19.3 1.1 3.5 2.4 8 2 11.7-0.6 5.6-4.5 6.2-5.9 6.3-1.6 0.2-3.3-0.4-4.6-1.3-1.6-1-3-3-3.9-4.5-0.1-0.1 0.1-0.2 0.1-0.1 1.7 2.4 4.7 4.9 7.8 4.9 1.3 0 2.7-0.5 3.7-1.5 1.1-1.2 1.3-2.9 1.4-4.4 0.1-3.5-0.9-7-2-10.3z"/>
							</g>
						</g>
						<g id="&lt;Group&gt;">
							<path id="&lt;Path&gt;" class="s1" d="m297.9 752l19.7 57.6c0 0-104.1 11.2-110.8-7.5-6.8-18.6 40.5-83.3 60.6-101.4 23.2-21 25-12.8 18.1 7.4-7.2 21.1-20 51.4-20 51.4z"/>
							<g id="&lt;Group&gt;">
								<path id="&lt;Path&gt;" class="s2" d="m233 770.5c5.1-2.7 10.4-5 15.8-7 5.4-2 10.9-3.4 16.5-4.5 3.2-0.7 6.4-1.2 9.6-1.7 0.1 0 0.1 0.1 0 0.1-5.6 1.1-11.2 2.7-16.6 4.4q-8.2 2.6-16.2 5.4c-3 1.1-6 2.3-9 3.5-0.1 0.1-0.2-0.1-0.1-0.2z"/>
								<path id="&lt;Path&gt;" class="s2" d="m297.6 751.8c-0.5 0.1-29.3 6.1-30.2 6.4 0.1-0.4 6.8-14.6 7.8-16.7q0.1-0.3 0.3-0.6 0.9-1.3 1.8-2.7 1.1-1.8 2.2-3.6c0 0 0-0.1-0.1 0q-1.1 1.7-2.3 3.4-0.6 0.8-1.1 1.7 1-2.2 2-4.5c1-2.3 2-4.7 2.9-7.1 0-0.1-0.1-0.1-0.1-0.1-2 4.2-4.1 8.2-6.1 12.4-1.9 4.1-9.4 19.3-9.4 19.3 0 0 31.8-7.3 32.4-7.5 0.3-0.1 0.2-0.4-0.1-0.4z"/>
								<path id="&lt;Path&gt;" class="s2" d="m295.5 787.6c-2.2-6.4-4.3-12.8-6.7-19.1-1.4-3.7-2.7-7.3-4.1-10.9-0.1-0.1-0.3 0-0.3 0.1 1.9 6.6 3.9 13.1 6.1 19.5 2.2 6.4 4.4 12.9 6.6 19.3q2 5.4 4.3 10.7c0 0.1 0.1 0 0.1 0-1.7-6.6-3.9-13.1-6-19.6z"/>
								<path id="&lt;Path&gt;" class="s2" d="m318.9 810.6c-0.9-1.8-1.9-4.4-2.8-6.2-0.2-0.4-0.6-0.4-0.4 0.1 0.6 1.6 1.1 3.4 1.6 5.1-1.4 0.1-2.9 0.2-4.3 0.3q-2.6 0.3-5.1 0.5-4.9 0.4-9.9 0.8-10 0.7-20.1 0.9c-13.4 0.4-26.9 0.3-40.4-0.8q-5.6-0.4-11.2-1.1c-3.8-0.5-7.9-1-11-1.8-0.1 0-0.1 0.2 0 0.2 3.2 1 6.2 1.8 9.4 2.3q5.1 0.9 10.2 1.4c6.7 0.7 13.5 1 20.3 1.2 13.5 0.3 27 0 40.4-0.9q5.7-0.3 11.3-0.8 2.8-0.2 5.7-0.5c1.9-0.2 6.4-0.4 6.3-0.7z"/>
							</g>
						</g>
					</g>
				</g>
				<g id="&lt;Group&gt;">
					<g id="&lt;Group&gt;">
						<g id="&lt;Group&gt;">
							<g id="&lt;Group&gt;">
								<path id="&lt;Path&gt;" class="s9" d="m460.3 810.7l-0.1 5.8-130.8-0.9v-5.9z"/>
							</g>
							<g id="&lt;Group&gt;">
								<path id="&lt;Path&gt;" class="s10" d="m460.3 810.7l-0.1 5.8-88.9-0.6 4.5-5.8z"/>
							</g>
						</g>
						<g id="&lt;Group&gt;">
							<g id="&lt;Group&gt;">
								<path id="&lt;Path&gt;" class="s10" d="m389.3 816l114.5 0.8 17.2-80.6-114.6-0.9z"/>
							</g>
							<g id="&lt;Group&gt;">
								<path id="&lt;Path&gt;" class="s9" d="m394.6 816.1l114.6 0.8 17.1-80.7-114.5-0.8z"/>
							</g>
							<path id="&lt;Path&gt;" class="s4" d="m470.8 773.2c0.1 3.8-2.5 7.4-5.7 8.1-3.3 0.7-6-1.9-6.1-5.7-0.1-3.8 2.5-7.5 5.7-8.1 3.3-0.7 6 1.9 6.1 5.7z"/>
						</g>
					</g>
				</g>
				<g id="&lt;Group&gt;">
					<g id="&lt;Group&gt;">
						<path id="&lt;Path&gt;" class="s18" d="m287.3 688.9c0.2 2.4 9 19.1 19.7 20.2 3.5 0.3 6.2-18.6 6.2-18.6l0.5-1.3 7.3-18.9-20.8-18.1-3-2.4c0 0-1.7 5.3-3.6 11.9q-0.2 0.4-0.3 0.9-0.2 0.6-0.4 1.1-0.4 1.5-0.9 3c-0.2 0.8-0.4 1.5-0.6 2.3q-0.4 1.2-0.7 2.4c-2 8.1-3.5 16.5-3.4 17.5z"/>
						<path id="&lt;Path&gt;" class="s2" d="m293.6 661.7c3.2 16.3 14.7 24.5 20.1 27.5l7.3-18.9-20.8-18.1-3-2.4c0 0-1.7 5.3-3.6 11.9z"/>
					</g>
					<g id="&lt;Group&gt;">
						<path id="&lt;Compound Path&gt;" fill-rule="evenodd" class="s2" d="m270.1 643.1c-1.6 0.7-3.4 1.1-5.1 0.4-0.5-0.3-0.9-0.6-1.4-0.8-0.8-0.4-1.6-0.3-2.5-0.2-0.9 0.1-1.8 0.3-2.8 0.2-2.8 0-6-1.1-7.1-3.9-3.9 1.7-8.8 0.4-11.2-3.2q-0.5-0.7-0.8-1.5c-0.3-0.7-0.4-1.6-1-2.2-0.6-0.5-1.6-0.7-2.4-1-0.6-0.3-1.2-0.6-1.7-0.9-1.4-1.1-2.3-3.1-1.4-4.6-2.3-0.4-3.8-2.7-4.3-4.9-0.6-2.9 0.1-6 1.9-8.3-2.8-2.5-3-7.1-0.4-9.9-2.4-2.8-1.5-7.4 1.7-9.2-0.7-3 0.2-6 2.3-8.3 0.4-0.5 0.7-1 0.9-1.6-0.6-2-0.6-4 0.7-5.9 1.2-1.8 3.6-2.7 5.7-2.1 0.4-0.8 1.2-2.4 3.1-4 2-1.6 4.6-2.1 7-1.2 3-5.2 9.8-6.6 14.6-3 1.2-2.6 4.2-4 7-3.9 3.5 0.2 6.4 2.4 8.8 4.7 1.4-1.9 4.1-2.7 6.3-1.5 1.7 0.9 2.7 2.6 2.9 4.5 2 0.3 4.1 1 5.3 2.7 1.1 1.5 1.4 3.4 0.5 5 4.9 1.2 6.9 7.2 3.7 11 3.1 0.2 6.1 2 7.4 4.9 1.4 3 0.6 6.8-1.6 9.2 2.6 1.1 4.3 3.9 4.3 6.8-0.1 3.5-2.3 6.5-5 8.4 1.8 2.4 1.8 5.7 0.3 8.2-1.4 2.3-3.8 3.6-6.4 4.1 2.7 0.4 5.4-0.2 7.2-2.8 2.1-3 1.3-6.9-1-9.5 0 0 0-0.1 0-0.1 2.9 2.6 3.8 6.7 1.5 10-2.1 3.2-5.9 3.8-9.2 2.8 0.9 3.1 0 6.6-2.4 8.9-2.4 2.2-6.1 2.8-9.1 1.6-3.1 6.8-12.8 8.5-16.3 1.1zm-35.1-60.9q0-0.1 0-0.2c0.1-0.6 0.2-1.3 0.5-1.9 0.5-1.3 1.4-2.4 2.6-3.2q0.9-0.6 1.8-1c0.4-0.1 1.2-0.2 1.2-0.2q0 0 0-0.3c-2.4-0.2-4.5 1-5.6 3.2-0.5 1.2-0.6 2.4-0.5 3.6zm55.2-11.5q0 0 0 0c-0.1-1.6-0.7-3.1-2.4-4-2.3-1.3-4.3-0.3-5.9 1.3q0.1 0.1 0.1 0.1c1.8-1.3 4.3-1.2 6.2 0.1 0.9 0.6 1.6 1.5 2 2.5zm-6.3 73.7c-3.9 3.1-9.8 2.7-13.3-1.4q-0.1 0-0.1 0c3.6 6 9.3 5.1 13.4 1.4z"/>
						<path id="&lt;Path&gt;" class="s18" d="m342.6 628.2c15.5 32-1.8 44.9-8.7 48.2-6.3 3-28 12.5-46.7-17.6-18.7-30.2-8.7-47.5 5.2-55.2 13.9-7.6 34.8-7.3 50.2 24.6z"/>
						<g id="&lt;Group&gt;">
							<path id="&lt;Path&gt;" class="s2" d="m335.1 623.2c-0.8 0.2-1.6 0.2-2.4 0.3-0.9 0.1-1.7 0.3-2.5-0.2-0.5-0.2-0.7-1-0.5-1.4 0.4-1.1 1.5-1.6 2.6-1.7 1.2-0.2 2.2-0.1 3.3 0.5 1 0.6 0.6 2.2-0.5 2.5z"/>
							<path id="&lt;Path&gt;" class="s2" d="m316.8 639.5c0.9-0.2 1.6-0.4 2.4-0.7 0.9-0.3 1.6-0.4 2.3-1.1 0.3-0.4 0.2-1.2-0.2-1.6-0.8-0.8-2-0.8-3.1-0.5-1.2 0.3-2 0.9-2.7 1.9-0.7 0.9 0.3 2.2 1.3 2z"/>
							<g id="&lt;Group&gt;">
								<g id="&lt;Group&gt;">
									<path id="&lt;Path&gt;" class="s2" d="m334.6 635c0-0.1 0.2 0 0.2 0.1 0.7 2.3 1.8 4.9 4.2 5 0 0 0.1 0.1 0 0.1-2.7 0.5-4.2-2.9-4.4-5.2z"/>
									<path id="&lt;Path&gt;" class="s2" d="m335.9 631.9c3.6-1.5 6.3 5.8 2.9 7.2-3.3 1.4-6-6-2.9-7.2z"/>
								</g>
								<path id="&lt;Path&gt;" class="s2" d="m337.6 631.8c0.7 0.2 1.5 0.7 2.2 0.5 0.9-0.3 1.2-1.3 1.4-2.2 0-0.1 0.1-0.1 0.1 0 0.6 1.4 0.7 3-0.6 3.8-1.1 0.7-2.5-0.2-3.3-1.5-0.2-0.2-0.1-0.7 0.2-0.6z"/>
							</g>
							<path id="&lt;Path&gt;" class="s2" d="m328 658.9c0.7 0.4 1.5 1 2.4 0.8 0.8-0.1 1.7-0.8 2.3-1.3 0.1 0 0.2 0 0.1 0.1-0.3 1.1-1.4 2-2.6 2.1-1.1 0.1-1.8-0.6-2.4-1.5 0-0.1 0.1-0.2 0.2-0.2z"/>
							<g id="&lt;Group&gt;">
								<path id="&lt;Path&gt;" class="s2" d="m334.8 647.4c0 0 1.6 3.2 2.2 4.8 0 0.2-0.4 0.4-0.9 0.6q0 0-0.1 0c-2.6 1.4-5.8 1.4-8.4-0.3-0.1-0.1 0-0.3 0.2-0.3 2.6 0.8 5.1 0.4 7.7-0.4-0.1-0.5-3-5.5-2.8-5.6 0.9-0.3 2.8-0.3 4-0.4-3.3-6.9-7.6-13.2-10.7-20.1-0.1-0.2 0.3-0.4 0.4-0.2 5 6.3 8.9 14.1 12.4 21.1 0.4 0.9-3.3 0.8-4 0.8z"/>
							</g>
							<g id="&lt;Group&gt;">
								<path id="&lt;Path&gt;" class="s2" d="m335.6 652.1c0 0-0.6 2.7-2.4 4.4-0.7 0.6-1.5 1-2.4 1.2-2 0.3-2.8-1.4-3-2.9-0.3-1.3-0.2-2.5-0.2-2.5 0 0 3.7 1.3 8-0.2z"/>
								<path id="&lt;Path&gt;" class="s20" d="m333.2 656.5c-0.7 0.6-1.5 1-2.4 1.2-2 0.3-2.8-1.4-3-2.9 2-0.6 4.4-0.1 5.4 1.7z"/>
							</g>
							<g id="&lt;Group&gt;">
								<path id="&lt;Path&gt;" class="s2" d="m315.9 642.7c0.5-0.4 1.1-0.7 1.7-0.9q0.9-0.4 2-0.4c0.6-0.1 1.3 0 2 0.2 0.7 0.3 1.3 0.7 1.8 1.2l0.9 1-1.3 0.2c-0.9 0.1-1.8 0.4-2.7 0.7-0.8 0.4-1.7 0.9-2.3 1.7 0.2-1.1 0.9-2 1.8-2.6q1.4-0.9 3-1.2l-0.4 1.2c-0.7-0.7-1.7-1.2-2.9-1.3-1.1-0.1-2.3 0-3.6 0.2z"/>
								<path id="&lt;Path&gt;" class="s2" d="m320.9 646.7c0.9-0.6 1.8-1 2.5-1.8 0.1-0.1 0.8-0.9 0.7-1.1-0.2-0.4-0.6-0.8-0.9-1.2 0.4 0.3 0.9 0.6 1.1 1.1 0.1 0.5-0.1 1.1-0.6 1.6-0.8 0.7-1.9 1.2-2.8 1.4z"/>
							</g>
						</g>
						<g id="&lt;Group&gt;">
							<path id="&lt;Path&gt;" class="s2" d="m288.8 657.2c3.5-1.7 8.5-15.3 1.4-32.5 0 0 5.3 15.8 5.1 18.6-0.2 2.7 2.8-7.7-2.7-21.6 0 0 10 2.2 17.2 1.3 7.3-1 11.3-2.8 11.5-3.5 0.3-0.6-10.6 0.5-14.4-1.4 0 0 20.7 0.6 28.9-2.2 0.9-0.3-6.7-14.5-22.5-17.2-15.7-2.8-30.8 9-33.9 16.3 0 0-5.8 3.6-8.5 15.5-2.8 12 14.2 28.6 17.9 26.7z"/>
							<path id="&lt;Path&gt;" class="s2" d="m292.2 619.8c-0.2-0.4-0.8-0.1-0.6 0.3 3.4 6.2 4.7 12.3 5.4 19.3 0 0.1 0.1 0.1 0.1 0 0-7.1-0.9-13.6-4.9-19.6z"/>
							<path id="&lt;Path&gt;" class="s2" d="m319.3 621.6c-9.7 2.9-18.9 3.4-28.2-1.1-0.2-0.1-0.4 0.1-0.2 0.3 8.5 5.7 19.4 4.8 28.5 1.2 0.2-0.1 0.1-0.4-0.1-0.4z"/>
						</g>
						<g id="&lt;Group&gt;">
							<path id="&lt;Path&gt;" class="s18" d="m291.9 670q0.9 0 1.6-0.2 0.9-0.2 1.6-0.5c0.7-0.4 1.3-0.9 1.7-1.4 0.4-0.4 0.7-1 0.9-1.4 0.5-1.3 0.5-2.4 0.5-2.4l-5.2-8.1c0 0-11.2-7.6-14.9-3.2-3.7 4.4 7.5 17.3 13.8 17.2z"/>
							<path id="&lt;Path&gt;" class="s2" d="m281.4 656.4c-0.1 0-0.1 0.1 0 0.1 4.5 0.1 7.9 2.9 10.7 6.1-1.7-1-3.5-1.2-4.9 0.9-0.1 0.1 0.1 0.3 0.2 0.2 1.4-0.9 2.7-1.1 4.2-0.2 1.1 0.6 2.1 1.5 3 2.3 0.3 0.3 0.9-0.1 0.6-0.5q0 0-0.1 0c-1.8-5-8.2-10.4-13.7-8.9z"/>
						</g>
						<g id="&lt;Group&gt;">
							<g id="&lt;Group&gt;">
								<path id="&lt;Path&gt;" class="s1" d="m291.6 670.3c0.8 1.5-6.1-1.7-6.7-2.3-0.6-0.7-4.7-1.6-6.2-2.8-1.5-1.1-5.1-4.9-5.7-5.9-0.6-1-3.8-2.8-4.6-4.7-0.9-1.9-7.8-19.1-1.6-35.5 6.2-16.5 16-21.8 16-21.8 0 0 6.4-4.4 15-7.6 8.5-3.1 29.2 10.9 29.4 11.3 0.2 0.4 0.3 2 1.2 3 0.9 0.9 2.7 1.6 2.6 3-0.2 1.4 2.8 3.5 3.3 4.7 0.5 1.2 0.3 1.7 0.9 2.4 0.6 0.7-12.8-18.6-41.4-14.4 0 0-18.6 38-2.2 70.6z"/>
								<path id="&lt;Path&gt;" class="s1" d="m335.1 613.9q0 0.1 0.1 0.2 0.1 0.1-0.1-0.2z"/>
								<path id="&lt;Path&gt;" class="s1" d="m335.1 613.9q0 0.1 0.1 0.2 0.1 0.1-0.1-0.2z"/>
								<path id="&lt;Compound Path&gt;" fill-rule="evenodd" class="s21" d="m313.9 594q0.4-0.3 0.8-0.4 1.5 0.7 3 1.5 0 0 0 0c0.3 0.9 0 1.9-0.7 2.5-1 0.9-2.5 0.8-3.4-0.2-0.8-1-0.7-2.5 0.3-3.4zm-11.5 3.2c1-0.8 2.5-0.7 3.3 0.3 0.5 0.5 0.7 1.2 0.6 1.8q-2.3-0.2-4.7-0.2c0-0.7 0.2-1.4 0.8-1.9zm19.4 4.8c1-0.9 2.5-0.8 3.3 0.2 0.8 1 0.8 2.3 0 3.2q-1.9-1.2-4.1-2.2 0.2-0.7 0.8-1.2zm-49.7 6.5q0.6 0.2 1 0.7c0.8 1 0.7 2.4-0.3 3.3-0.9 0.7-2.2 0.7-3 0q1.1-2.2 2.3-4zm6.6 18.7c1-0.9 2.5-0.8 3.3 0.2 0.9 1 0.7 2.5-0.3 3.4-0.9 0.8-2.4 0.7-3.3-0.3-0.8-1-0.7-2.5 0.3-3.3zm13.5-35.1q2-1 4.2-1.8c0.8 1 0.7 2.5-0.3 3.3-1 0.9-2.5 0.7-3.3-0.2q-0.5-0.6-0.6-1.3zm-8.6 8.1c1-0.9 2.5-0.8 3.3 0.2 0.9 1 0.8 2.5-0.2 3.4-1 0.8-2.5 0.7-3.4-0.3-0.8-1-0.7-2.5 0.3-3.3zm-1.4 13.1c1-0.8 2.5-0.7 3.3 0.3 0.8 1 0.7 2.5-0.3 3.3-1 0.9-2.5 0.8-3.3-0.2-0.8-1-0.7-2.5 0.3-3.4zm-15.1 9.7c1-0.8 2.5-0.7 3.4 0.3 0.8 1 0.7 2.5-0.3 3.3-1 0.9-2.5 0.8-3.3-0.2-0.9-1-0.8-2.5 0.2-3.4zm7.3 16.5c1-0.9 2.5-0.7 3.3 0.2 0.9 1 0.8 2.5-0.2 3.4-1 0.8-2.5 0.7-3.4-0.3-0.8-1-0.7-2.5 0.3-3.3zm12.7 23.5q0.6-0.5 1.2-0.6 0.7 2.2 1.7 4.3c-1 0.7-2.4 0.5-3.1-0.4-0.9-1-0.8-2.5 0.2-3.3zm-2.7-19.7q0.2-0.2 0.5-0.3 0.1 2.2 0.3 4.3-0.6-0.2-1-0.6c-0.9-1-0.8-2.5 0.2-3.4zm-20.1-6.8c0.9-0.3 1.9 0 2.6 0.7 0.8 1 0.7 2.5-0.3 3.4-0.5 0.4-1.2 0.6-1.8 0.5q-0.3-2.2-0.5-4.6zm13 16.6c1-0.8 2.5-0.7 3.3 0.3 0.9 1 0.7 2.5-0.3 3.3-0.9 0.8-2.4 0.7-3.3-0.3-0.8-1-0.7-2.4 0.3-3.3zm-0.7 8.9c0.5 0.5 0.6 1.2 0.5 1.8-0.8-0.8-1.8-1.8-2.5-2.6 0.7-0.1 1.5 0.2 2 0.8zm-10.1-12.6c1-0.5 2.2-0.3 2.9 0.5 0.9 1 0.8 2.5-0.2 3.4q-0.5 0.4-1.2 0.5c-0.3-0.9-0.9-2.4-1.5-4.4z"/>
								<g id="&lt;Group&gt;">
									<path id="&lt;Path&gt;" class="s22" d="m284.9 668c-0.9-1.4-1.5-3-2.2-4.6q-0.9-2.3-1.7-4.7c-1.2-3.1-2.3-6.3-3.2-9.5-0.3-0.8-0.5-1.6-0.7-2.4-0.2-0.8-0.1-1.6-0.1-2.4 0.1-1.7 0.3-3.3 0.4-5q0.3-2.5 0.6-5l0.7-5q-1 4.9-1.7 9.9-0.4 2.5-0.5 5.1c-0.1 0.8-0.1 1.7 0 2.5 0.2 0.9 0.5 1.7 0.7 2.5q1.5 4.8 3.3 9.5 0.9 2.3 2 4.7 0.5 1.1 1.1 2.2c0.3 0.8 0.7 1.5 1.3 2.2z"/>
									<path id="&lt;Path&gt;" class="s22" d="m272.1 635.9c-0.6 1.9-1 3.8-1.3 5.8q-0.4 3-0.5 6c0 2 0.1 4 0.5 6 0.5 2 1.1 3.9 2.2 5.6q-0.3-0.7-0.6-1.4-0.1-0.3-0.2-0.7l-0.2-0.7q-0.2-0.3-0.3-0.7l-0.1-0.7c-0.1-0.5-0.3-1-0.3-1.5l-0.2-1.4-0.1-1.5c-0.1-0.5-0.1-1-0.1-1.5q0-0.7 0-1.5c0-2 0.2-3.9 0.4-5.9q0.1-1.5 0.4-3 0.2-1.5 0.4-2.9z"/>
									<path id="&lt;Path&gt;" class="s22" d="m327.7 603.1c-1.5-1.2-3.2-2.1-4.9-3q-2.5-1.3-5.1-2.5c-1.7-0.8-3.4-1.6-5.3-2.2-1.8-0.6-3.7-0.9-5.6-0.9q1.4 0.2 2.8 0.5 1.4 0.3 2.7 0.8c0.9 0.3 1.7 0.7 2.6 1.1l2.6 1.2 5.1 2.4q1.3 0.6 2.6 1.3c0.8 0.4 1.7 0.8 2.5 1.3z"/>
									<path id="&lt;Path&gt;" class="s22" d="m331.2 607.8c-1-0.9-2.1-1.7-3.2-2.5q-1.7-1.2-3.5-2.3c-0.6-0.3-1.2-0.6-1.9-0.9q-0.9-0.4-1.9-0.7l-1.9-0.7q-1-0.3-2-0.6 0.9 0.4 1.9 0.9l1.8 0.8q1 0.4 1.9 0.8 0.9 0.4 1.8 0.9c1.2 0.7 2.3 1.4 3.5 2.1q0.9 0.6 1.7 1.1 0.9 0.6 1.8 1.1z"/>
								</g>
								<path id="&lt;Path&gt;" class="s22" d="m268.2 615.8c5.1-0.1 16.6-0.5 18.7-1.6 0.5-0.3 1.2-0.8 2.1-1.5 2.3-8 4.8-13 4.8-13 3.6-0.5 6.9-0.7 10-0.6 2-2.8 3.7-6.8 4.3-8.3-3.9-1.4-7.7-2-10.3-1.1-8.6 3.2-15 7.6-15 7.6 0 0-8.4 4.6-14.6 18.5z"/>
							</g>
							<g id="&lt;Group&gt;">
								<g id="&lt;Group&gt;">
									<path id="&lt;Path&gt;" class="s1" d="m290.2 595.7c0 0 3.7-14.8 15.8-20.3 0 0 3.5 12.6 0.4 18.2-1.6 2.7-11.1 6.7-12.8 5.4-1.7-1.2-3.4-3.3-3.4-3.3z"/>
									<path id="&lt;Compound Path&gt;" fill-rule="evenodd" class="s21" d="m296.6 582.9c0.8 0.4 1.7 0.2 2.4-0.4 0.9-0.7 1.1-1.8 0.6-2.8q-1.7 1.6-3 3.2zm9.2 5.4c0.4 0.5 1.1 0.8 1.8 0.8 0.1-1.5 0.1-3.1-0.1-4.7-0.5 0-1 0.2-1.5 0.6-1 0.8-1.1 2.3-0.2 3.3zm-13 5.1c0.8 0.9 2.3 1.1 3.3 0.2 1-0.8 1.1-2.3 0.3-3.3-0.9-1-2.4-1.1-3.4-0.3-1 0.9-1.1 2.4-0.2 3.4z"/>
									<path id="&lt;Path&gt;" class="s22" d="m290.2 595.7c0 0 1.7 2.1 3.4 3.3q0.1 0.1 0.2 0.2 0.2 0 0.4 0.1 0.1 0 0.3 0c1.2 0 3.3-0.6 5.5-1.5-0.8-1.6-2-3.6-3.1-5-1-1.1-2.9-1.8-4.8-2.2-1.4 3-1.9 5.1-1.9 5.1z"/>
								</g>
								<g id="&lt;Group&gt;">
									<path id="&lt;Path&gt;" class="s1" d="m287.7 598.4c0 0-18.4 2.9-25.6 9.4 0 0 7.5 7.6 17 7.1 4.3-0.3 13.5-11.1 12.2-12.9-1.3-1.9-3.6-3.6-3.6-3.6z"/>
									<path id="&lt;Compound Path&gt;" fill-rule="evenodd" class="s21" d="m269.7 608.9c1-0.9 2.5-0.7 3.4 0.3 0.8 1 0.7 2.4-0.3 3.3-1 0.8-2.5 0.7-3.3-0.3-0.9-1-0.8-2.5 0.2-3.3zm13.9-8.7c1-0.9 2.5-0.8 3.3 0.2 0.9 1 0.8 2.5-0.2 3.4-1 0.8-2.5 0.7-3.4-0.3-0.8-1-0.7-2.5 0.3-3.3zm-1.4 13.1q0.4-0.4 1-0.5-0.8 0.6-1.5 1.1 0.2-0.3 0.5-0.6z"/>
									<path id="&lt;Path&gt;" class="s22" d="m283.6 599.2c0.2 1.7 0.7 4.1 2.1 5.7 0.8 0.8 2 1.5 3.2 2.1 1.8-2.3 2.9-4.3 2.4-5.1-1.3-1.8-3.6-3.5-3.6-3.5 0 0-1.7 0.2-4.1 0.8z"/>
								</g>
								<path id="&lt;Path&gt;" class="s1" d="m287.1 602.9c2.4 2.4 6.2 2.4 8.6 0 2.3-2.4 2.3-6.2-0.1-8.5-2.3-2.4-6.2-2.4-8.5 0-2.3 2.4-2.3 6.2 0 8.5z"/>
							</g>
						</g>
					</g>
				</g>
			</g>
		</g>
	</g>
	<g id="Speech bubble">
		<g id="&lt;Group&gt;">
			<g id="&lt;Group&gt;">
				<path id="&lt;Path&gt;" class="s4" d="m105 567.7c2.7 25.8 25.8 44.5 51.6 41.8 10.4-1.1 19.7-5.5 26.9-12.1l23.5 3.4-11.8-20.3c2.9-6.9 4.1-14.7 3.2-22.6-2.7-25.8-25.8-44.5-51.6-41.8-25.8 2.7-44.5 25.8-41.8 51.6z"/>
				<path id="&lt;Compound Path&gt;" fill-rule="evenodd" class="s2" d="m119 528.9c5.1-5 11.4-8.9 18.2-11.1 6.8-2.3 14.1-2.9 21.2-2 7.1 1 14.1 3.5 20 7.5 6 4 11.1 9.4 14.8 15.7 7.2 12.4 8.5 28.1 3 41.4l11.5 20 0.8 1.5-1.7-0.3-23.1-3.5c-6.5 5.8-14.5 9.7-23 11.2q-3.2 0.6-6.5 0.7c-2.2 0.2-4.4 0-6.5-0.1-4.4-0.5-8.7-1.3-12.7-3-4-1.6-7.9-3.7-11.3-6.3-1.8-1.2-3.3-2.8-5-4.2-1.4-1.6-3-3.1-4.2-4.9-5.4-6.9-8.5-15.3-9.5-23.8-1.5-14.2 3.7-29 14-38.8zm77.2 51.5l-0.2-0.3 0.1 0.8q0-0.2 0.1-0.5zm-12.5 17.7q0.1-0.1 0.2-0.2l-0.5 0.1zm-69.1-6.7c1.2 1.8 2.8 3.3 4.3 4.9 1.6 1.4 3.1 2.9 4.9 4.1 3.4 2.6 7.3 4.6 11.4 6.1 4 1.6 8.2 2.3 12.5 2.8 2.1 0.1 4.3 0.2 6.4 0q3.2-0.1 6.4-0.8c8.4-1.7 16.3-5.7 22.5-11.6l0.2-0.2 0.4 0.1 21.8 3-11-18.8-0.2-0.4 0.2-0.4c2.6-6.4 3.7-13.5 3.3-20.5-0.6-6.9-2.4-13.8-6-19.8-3.5-6.1-8.3-11.3-14.1-15.4-5.7-4-12.4-6.6-19.4-7.6-6.9-1.1-14.1-0.6-20.9 1.5-6.7 2.2-12.9 5.9-18.1 10.7-10.3 9.8-15.7 24.5-14.2 38.6 1 8.6 4.2 17 9.6 23.7zm90.8 8.4l0.8 1.5 0.9-1.2z"/>
			</g>
			<g id="&lt;Group&gt;">
				<path id="&lt;Compound Path&gt;" class="s1" d="m155.3 568.4v5.3c0 2.3-1.7 4-4 4-2.1 0-4-1.7-4-4v-8.5c0-0.1 0.1-0.1 0.1-0.1-0.1-0.1-0.1-0.1-0.1-0.2 0-2.1 1.9-4 4-4 5.2 0 9.3-4.1 9.3-9.1 0-5.1-4.1-9.1-9.3-9.1-3.3 0-6.2 1.8-7.8 4.5-1.1 1.9-3.6 2.6-5.5 1.4-1.9-1.1-2.5-3.5-1.4-5.4 2.9-5.1 8.5-8.5 14.7-8.5 9.5 0 17.2 7.7 17.2 17.1 0 8-5.6 14.8-13.2 16.6zm0 17.8v1.5c0 2.3-1.7 4-4 4-2.1 0-4-1.7-4-4v-1.5c0-2.2 1.9-4 4-4 2.3 0 4 1.8 4 4z"/>
			</g>
		</g>
	</g>
</svg>