<svg version="1.2" xmlns="http://www.w3.org/2000/svg" viewBox="0 0 1500 1000" width="1500" height="1000">
	<title>7159987-ai</title>
	<style>
		.s0 { fill: #ebebeb } 
		.s1 { fill: #263238 } 
		.s2 { fill: #455a64 } 
		.s3 { fill: #37474f } 
		.s4 { fill:  #BA68C8 } 
		.s5 { fill: #dbdbdb } 
		.s6 { fill: #ffffff } 
		.s7 { fill: #c7c7c7 } 
		.s8 { fill: #a6a6a6 } 
		.s9 { fill: none;stroke:  #BA68C8;stroke-miterlimit:10;stroke-width: 2 } 
		.s10 { opacity: .1;fill: #000000 } 
		.s11 { fill: #ad6359 } 
		.s12 { fill: #000000 } 
		.s13 { fill: #ff99ba } 
		.s14 { opacity: .3;fill: #ffffff } 
		.s15 { opacity: .1;fill: #050400 } 
		.s16 { fill: #ffc4c0 } 
	</style>
	<g id="Background Complete">
		<g id="&lt;Group&gt;">
			<path id="&lt;Compound Path&gt;" fill-rule="evenodd" class="s0" d="m1377.4 297.3c-1.7-1.1-3.9-1-5.6 0q-0.7 0.5-1.4 0.9-0.8 0.4-1.5 0.7c-1.8 0.9-3.1 2.6-3.1 4.6l-0.2 6.9-22.4-0.7 0.3-6.9c0-2-1.1-3.8-2.8-4.8q-1.5-0.8-2.9-1.7c-1.6-1.2-3.8-1.3-5.5-0.4l-6.1 3.2-10.5-19.7 6-3.2c1.8-0.9 2.8-2.8 2.8-4.8q0-1.7 0.1-3.3c0.2-2-0.8-4-2.5-5l-5.8-3.6 11.8-19 5.8 3.6c1.7 1.1 3.9 1 5.6 0q0.7-0.5 1.4-0.9 0.7-0.3 1.5-0.7c1.8-0.9 3-2.6 3.1-4.6l0.2-6.9 22.3 0.7-0.2 6.9c0 2 1 3.8 2.8 4.8q1.5 0.8 2.9 1.7c1.6 1.2 3.7 1.3 5.5 0.4l6-3.2 10.6 19.6-6 3.3c-1.8 0.9-2.9 2.8-2.8 4.8q0 1.7-0.1 3.3c-0.2 2 0.7 4 2.4 5l5.9 3.6-11.8 19zm-5.6-35.2c-4.8-8.9-15.9-12.3-24.8-7.5-8.9 4.8-12.2 15.9-7.5 24.8 4.8 8.9 15.9 12.2 24.8 7.4 8.9-4.7 12.3-15.8 7.5-24.7z"/>
			<path id="&lt;Compound Path&gt;" fill-rule="evenodd" class="s0" d="m232.1 408.9c-1.2 0.7-1.9 2-1.8 3.4q0 0.6 0 1.2 0 0.6 0 1.1c-0.1 1.4 0.6 2.8 1.8 3.5l4.2 2.4-7.8 13.5-4.2-2.4c-1.2-0.7-2.7-0.6-3.9 0.2q-1 0.6-2 1.1c-1.3 0.7-2.1 1.9-2.1 3.3v4.8h-15.6v-4.8c0-1.4-0.8-2.6-2.1-3.3q-1-0.5-2-1.1c-1.2-0.8-2.7-0.9-3.9-0.2l-4.1 2.4-7.9-13.5 4.2-2.4c1.2-0.7 1.9-2.1 1.8-3.5q0-0.5 0-1.1 0-0.6 0-1.2c0.1-1.4-0.6-2.7-1.8-3.4l-4.2-2.4 7.9-13.6 4.1 2.4c1.2 0.7 2.7 0.6 3.9-0.1q1-0.7 2-1.2c1.3-0.6 2.1-1.9 2.1-3.3v-4.8h15.6v4.8c0 1.4 0.8 2.7 2.1 3.3q1 0.5 2 1.2c1.2 0.7 2.7 0.8 3.9 0.1l4.2-2.4 7.8 13.6zm-23.6-8.2c-7.1 0-12.9 5.7-12.9 12.8 0 7.1 5.8 12.8 12.9 12.8 7.1 0 12.8-5.7 12.8-12.8 0-7.1-5.7-12.8-12.8-12.8z"/>
			<g id="&lt;Group&gt;">
				<g id="&lt;Group&gt;">
					<path id="&lt;Compound Path&gt;" fill-rule="evenodd" class="s0" d="m217 592.1c0 33.7-27.3 61-60.9 61-33.7 0-61-27.3-61-61 0-33.6 27.3-60.9 61-60.9 33.6 0 60.9 27.3 60.9 60.9zm-32.5 0c0-15.7-12.7-28.4-28.4-28.4-15.7 0-28.5 12.7-28.5 28.4 0 15.8 12.8 28.5 28.5 28.5 15.7 0 28.4-12.7 28.4-28.5z"/>
					<path id="&lt;Path&gt;" class="s0" d="m167.8 533.7h-23.4l1.3-16.6h20.8z"/>
					<path id="&lt;Path&gt;" class="s0" d="m123.2 541.6l-16.6 16.6-10.8-12.7 14.7-14.7z"/>
					<path id="&lt;Path&gt;" class="s0" d="m97.2 578.7v23.5l-16.6-1.3v-20.9z"/>
					<path id="&lt;Path&gt;" class="s0" d="m105.1 623.4l16.6 16.5-12.7 10.8-14.7-14.7z"/>
					<path id="&lt;Path&gt;" class="s0" d="m142.2 649.3h23.5l-1.3 16.6h-20.9z"/>
					<path id="&lt;Path&gt;" class="s0" d="m186.9 641.4l16.5-16.6 10.8 12.7-14.7 14.7z"/>
					<path id="&lt;Path&gt;" class="s0" d="m212.8 604.3v-23.4l16.6 1.3v20.8z"/>
					<path id="&lt;Path&gt;" class="s0" d="m204.9 559.7l-16.6-16.6 12.7-10.8 14.7 14.7z"/>
				</g>
			</g>
			<g id="&lt;Group&gt;">
				<path id="&lt;Compound Path&gt;" class="s0" d="m146 181.9c0-2.5 0.4-9.2 0.4-12 0-12.2-4.4-17.7-15.7-18-5.3-0.3-8.5-3.5-8.5-8 0-4.5 3.2-7.6 8.5-8 11.3-0.5 15.7-5.8 15.7-18.1 0-2.9-0.4-9.5-0.4-12 0-16.2 6.9-26.5 32.7-32.2 5.1-1.1 9.1 2 9.1 6.9 0 4-2.6 6.1-4.6 6.8-16.2 5-18.5 10.1-18.5 21.5 0 3.3 0.3 8.8 0.3 12.3 0 13-6.3 19.3-17.3 22.8 11.2 3.7 17.3 9.8 17.3 22.8 0 3.5-0.3 9-0.3 12.4 0 11.3 2.3 16.4 18.5 21.4 2 0.7 4.6 2.9 4.6 6.9 0 4.8-4 8-9.1 6.8-25.8-5.7-32.7-16-32.7-32.3z"/>
				<path id="&lt;Compound Path&gt;" class="s0" d="m243.6 105.8c0 2.5-0.3 9.1-0.3 12 0 12.3 4.5 17.6 15.8 18.1 5.2 0.4 8.3 3.5 8.3 8 0 4.5-3.1 7.7-8.3 8-11.3 0.3-15.8 5.8-15.8 18 0 2.8 0.3 9.5 0.3 12 0 16.3-6.8 26.6-32.6 32.3-5.2 1.2-9.2-2-9.2-6.8 0-4 2.7-6.2 4.8-6.9 16-5 18.4-10.1 18.4-21.4 0-3.4-0.4-8.9-0.4-12.4 0-13 6.4-19.3 17.4-22.8-11.2-3.7-17.4-9.8-17.4-22.8 0-3.5 0.4-9 0.4-12.3 0-11.4-2.4-16.5-18.4-21.5-2.1-0.7-4.8-2.8-4.8-6.8 0-4.9 4-8 9.2-6.9 25.8 5.7 32.6 16 32.6 32.2z"/>
			</g>
			<g id="&lt;Group&gt;">
				<path id="&lt;Compound Path&gt;" class="s0" d="m1379.2 522.3l-25.5-25.8c-2.7-2.7-2.7-7 0-9.7 2.6-2.5 7-2.5 9.7 0l30.2 30.7c0.4 0.3 0.6 0.6 0.7 0.8 0.2 0 0.2 0.2 0.2 0.2 0.2 0.2 0.3 0.7 0.5 1 0 0.1 0.2 0.1 0.2 0.2 0.1 0.3 0.1 0.5 0.2 0.9 0 0.1 0.2 0.2 0.2 0.4 0 0.2 0 0.5 0 0.7 0 0.1 0.1 0.5 0.1 0.6 0 0.3-0.1 0.4-0.1 0.6 0 0.2 0 0.5 0 0.8 0 0.1-0.2 0.2-0.2 0.5-0.1 0.1-0.1 0.5-0.2 0.7 0 0.1-0.2 0.3-0.4 0.4-0.1 0.3-0.1 0.5-0.3 0.9 0 0-0.2 0.1-0.3 0.2-0.1 0.3-0.2 0.5-0.6 0.6l-30.2 30.7c-1.4 1.3-3.1 2-5 2-1.7 0-3.3-0.7-4.7-2-2.7-2.7-2.7-6.9 0-9.7z"/>
				<path id="&lt;Compound Path&gt;" class="s0" d="m1323 559.2c-0.6 0.4-1.5 0.5-2.1 0.5-2.3 0-4.6-1.3-5.5-3.6l-26.4-62.9c-1.3-2.9 0.1-6.5 3-7.6 3.1-1.3 6.6 0.1 7.9 3.1l26.3 62.8c1.3 3-0.1 6.5-3.2 7.7z"/>
				<path id="&lt;Compound Path&gt;" class="s0" d="m1236.3 525.2c0-0.2-0.1-0.2-0.1-0.3-0.1-0.2-0.1-0.6-0.3-1 0-0.1-0.1-0.1-0.1-0.2 0-0.3 0-0.6 0-0.9 0-0.1-0.1-0.4-0.1-0.5 0-0.1 0.1-0.5 0.1-0.6 0-0.2 0-0.5 0-0.7 0-0.2 0.1-0.2 0.1-0.3 0.2-0.5 0.2-0.7 0.3-1 0-0.1 0.1-0.1 0.1-0.2 0.1-0.3 0.4-0.6 0.6-1 0 0 0-0.2 0.1-0.2 0.2-0.2 0.4-0.5 0.7-0.8l30.3-30.7c2.7-2.5 7.1-2.5 9.7 0 2.7 2.7 2.7 7 0 9.7l-25.5 25.8 25.5 25.7c2.7 2.8 2.7 7 0 9.7q-2.1 2-4.8 2c-1.8 0-3.6-0.7-4.9-2l-30.3-30.7c-0.3-0.2-0.5-0.5-0.7-0.7-0.1 0-0.1-0.1-0.1-0.1-0.2-0.5-0.5-0.8-0.6-1z"/>
			</g>
		</g>
	</g>
	<g id="Floor">
		<path id="&lt;Path&gt;" class="s1" d="m77.5 792.4l168.1-0.5 168.1-0.2 336.3-0.3 336.3 0.3 168.1 0.2 168.1 0.5-168.1 0.5-168.1 0.2-336.3 0.3-336.3-0.3-168.1-0.2z"/>
	</g>
	<g id="Database">
		<g id="&lt;Group&gt;">
			<g id="&lt;Group&gt;">
				<g id="&lt;Group&gt;">
					<path id="&lt;Path&gt;" class="s2" d="m1415.1 738.5v51.2c0 13.9-58.7 25.3-131 25.3-72.3 0-127.3-11.4-127.3-25.3v-51.2z"/>
				</g>
				<path id="&lt;Path&gt;" class="s3" d="m1415 736.5c0-14-58.6-25.3-130.9-25.3-72.3 0-127.3 11.3-127.3 25.3 0 14 55 25.3 127.3 25.3 72.3 0 130.9-11.3 130.9-25.3z"/>
				<g id="&lt;Group&gt;">
					<path id="&lt;Path&gt;" class="s3" d="m1307 781.9v6.4c-42.5 1.6-81.4-1.2-123.3-8.3v-6.5c41.9 7.2 80.8 10 123.3 8.4z"/>
					<path id="&lt;Path&gt;" class="s3" d="m1336.7 780.1v6.4q-8.1 0.7-16.3 1.2v-6.5q8.2-0.4 16.3-1.1z"/>
					<path id="&lt;Path&gt;" class="s3" d="m1362.5 777.3v6.5q-8.1 1.1-16.2 1.9v-6.5c5.4-0.6 10.8-1.2 16.2-1.9z"/>
					<path id="&lt;Path&gt;" class="s4" d="m1388.2 773.5v6.5q-7.9 1.4-15.8 2.5v-6.5q7.9-1.1 15.8-2.5z"/>
				</g>
			</g>
			<g id="&lt;Group&gt;">
				<g id="&lt;Group&gt;">
					<path id="&lt;Path&gt;" class="s2" d="m1415.1 674.6v51.2c0 14-58.7 25.3-131 25.3-72.3 0-127.3-11.3-127.3-25.3v-51.2z"/>
				</g>
				<path id="&lt;Path&gt;" class="s3" d="m1415 672.7c0-14-58.6-25.4-130.9-25.4-72.3 0-127.3 11.4-127.3 25.4 0 13.9 55 25.3 127.3 25.3 72.3 0 130.9-11.4 130.9-25.3z"/>
				<g id="&lt;Group&gt;">
					<path id="&lt;Path&gt;" class="s3" d="m1307 718v6.5c-42.5 1.5-81.4-1.3-123.3-8.3v-6.6c41.9 7.2 80.8 10 123.3 8.4z"/>
					<path id="&lt;Path&gt;" class="s3" d="m1336.7 716.2v6.5q-8.1 0.6-16.3 1.1v-6.4q8.2-0.5 16.3-1.2z"/>
					<path id="&lt;Path&gt;" class="s3" d="m1362.5 713.5v6.5q-8.1 1-16.2 1.8v-6.5c5.4-0.5 10.8-1.2 16.2-1.8z"/>
					<path id="&lt;Path&gt;" class="s4" d="m1388.2 709.6v6.6q-7.9 1.3-15.8 2.4v-6.5q7.9-1.1 15.8-2.5z"/>
				</g>
			</g>
			<g id="&lt;Group&gt;">
				<g id="&lt;Group&gt;">
					<path id="&lt;Path&gt;" class="s2" d="m1415.1 610.7v51.2c0 14-58.7 25.3-131 25.3-72.3 0-127.3-11.3-127.3-25.3v-51.2z"/>
				</g>
				<path id="&lt;Path&gt;" class="s3" d="m1415 608.8c0-14-58.6-25.3-130.9-25.3-72.3 0-127.3 11.3-127.3 25.3 0 14 55 25.3 127.3 25.3 72.3 0 130.9-11.3 130.9-25.3z"/>
				<g id="&lt;Group&gt;">
					<path id="&lt;Path&gt;" class="s3" d="m1307 654.2v6.4c-42.5 1.5-81.4-1.2-123.3-8.3v-6.5c41.9 7.1 80.8 9.9 123.3 8.4z"/>
					<path id="&lt;Path&gt;" class="s3" d="m1336.7 652.4v6.4q-8.1 0.7-16.3 1.2v-6.5q8.2-0.5 16.3-1.1z"/>
					<path id="&lt;Path&gt;" class="s3" d="m1362.5 649.6v6.5q-8.1 1-16.2 1.8v-6.5c5.4-0.5 10.8-1.1 16.2-1.8z"/>
					<path id="&lt;Path&gt;" class="s4" d="m1388.2 645.8v6.5q-7.9 1.3-15.8 2.5v-6.5q7.9-1.2 15.8-2.5z"/>
				</g>
			</g>
		</g>
	</g>
	<g id="Device">
		<g id="&lt;Group&gt;">
			<path id="&lt;Path&gt;" class="s5" d="m1254.1 825.9h-1008.2v-674.4h1008.2z"/>
			<path id="&lt;Path&gt;" class="s1" d="m1246.8 817.7h-993.6v-658h993.6z"/>
			<g id="&lt;Group&gt;">
				<path id="&lt;Path&gt;" class="s6" d="m1202.8 775.4h-905.6v-573.4h905.6z"/>
				<g id="&lt;Group&gt;">
					<path id="&lt;Path&gt;" class="s2" d="m1202.8 216.9h-905.6v-14.9h905.6z"/>
					<g id="&lt;Group&gt;">
						<path id="&lt;Path&gt;" class="s7" d="m311.3 209.5c0 1.5-1.3 2.8-2.8 2.8-1.6 0-2.9-1.3-2.9-2.8 0-1.6 1.3-2.9 2.9-2.9 1.5 0 2.8 1.3 2.8 2.9z"/>
						<path id="&lt;Path&gt;" class="s6" d="m322.8 209.5c0 1.5-1.2 2.8-2.8 2.8-1.6 0-2.8-1.3-2.8-2.8 0-1.6 1.2-2.9 2.8-2.9 1.6 0 2.8 1.3 2.8 2.9z"/>
						<path id="&lt;Path&gt;" class="s4" d="m334.4 209.5c0 1.5-1.3 2.8-2.9 2.8-1.5 0-2.8-1.3-2.8-2.8 0-1.6 1.3-2.9 2.8-2.9 1.6 0 2.9 1.3 2.9 2.9z"/>
					</g>
				</g>
				<g id="&lt;Group&gt;">
					<path id="&lt;Compound Path&gt;" fill-rule="evenodd" class="s4" d="m749.9 592.8c-57.4 0-104.1-46.7-104.1-104.1 0-57.4 46.7-104.1 104.1-104.1 57.4 0 104.1 46.7 104.1 104.1 0 57.4-46.7 104.1-104.1 104.1zm0-200.4c-53.1 0-96.4 43.2-96.4 96.3 0 53.1 43.3 96.3 96.4 96.3 53.1 0 96.3-43.2 96.3-96.3 0-53.1-43.2-96.3-96.3-96.3z"/>
					<path id="&lt;Compound Path&gt;" fill-rule="evenodd" class="s4" d="m749.9 553.4c-35.7 0-64.8-29-64.8-64.7 0-35.7 29.1-64.7 64.8-64.7 35.7 0 64.7 29 64.7 64.7 0 35.7-29 64.7-64.7 64.7zm0-121.7c-31.4 0-57 25.6-57 57 0 31.4 25.6 57 57 57 31.4 0 57-25.6 57-57 0-31.4-25.6-57-57-57z"/>
					<g id="&lt;Group&gt;">
						<path id="&lt;Path&gt;" class="s4" d="m775.2 321.9c0 13.9-11.4 25.3-25.3 25.3-13.9 0-25.3-11.4-25.3-25.3 0-13.9 11.4-25.3 25.3-25.3 13.9 0 25.3 11.4 25.3 25.3z"/>
						<path id="&lt;Path&gt;" class="s4" d="m775.2 655.5c0 14-11.4 25.3-25.3 25.3-13.9 0-25.3-11.3-25.3-25.3 0-13.9 11.4-25.2 25.3-25.2 13.9 0 25.3 11.3 25.3 25.2z"/>
						<path id="&lt;Path&gt;" class="s4" d="m753.8 427.7h-7.8v-83.6h7.8z"/>
						<path id="&lt;Path&gt;" class="s4" d="m753.8 633.3h-7.8v-83.6h7.8z"/>
					</g>
					<g id="&lt;Group&gt;">
						<path id="&lt;Path&gt;" class="s4" d="m957.8 514c-13.9 0-25.3-11.3-25.3-25.3 0-13.9 11.4-25.3 25.3-25.3 13.9 0 25.3 11.4 25.3 25.3 0 14-11.4 25.3-25.3 25.3z"/>
						<path id="&lt;Path&gt;" class="s4" d="m541.9 514c-13.9 0-25.2-11.3-25.2-25.3 0-13.9 11.3-25.3 25.2-25.3 14 0 25.3 11.4 25.3 25.3 0 14-11.3 25.3-25.3 25.3z"/>
						<path id="&lt;Path&gt;" class="s4" d="m852 492.6v-7.8h83.6v7.8z"/>
						<path id="&lt;Path&gt;" class="s4" d="m564.2 492.6v-7.8h83.5v7.8z"/>
					</g>
					<g id="&lt;Group&gt;">
						<path id="&lt;Compound Path&gt;" fill-rule="evenodd" class="s4" d="m913.9 431.8c-14 0-25.3-11.3-25.3-25.2 0-14 11.3-25.3 25.3-25.3 13.9 0 25.3 11.3 25.3 25.3 0 13.9-11.4 25.2-25.3 25.2zm0-42.8c-9.7 0-17.5 7.9-17.5 17.6 0 9.6 7.8 17.5 17.5 17.5 9.6 0 17.5-7.9 17.5-17.5 0-9.7-7.9-17.6-17.5-17.6z"/>
						<path id="&lt;Path&gt;" class="s4" d="m801.3 455.9l-5.5-5.5 47.7-47.7h49v7.7h-45.7z"/>
					</g>
					<g id="&lt;Group&gt;">
						<path id="&lt;Compound Path&gt;" fill-rule="evenodd" class="s4" d="m586.1 431.8c-13.9 0-25.3-11.3-25.3-25.2 0-14 11.4-25.3 25.3-25.3 14 0 25.3 11.3 25.3 25.3 0 13.9-11.3 25.2-25.3 25.2zm0-42.8c-9.6 0-17.5 7.9-17.5 17.6 0 9.6 7.9 17.5 17.5 17.5 9.7 0 17.5-7.9 17.5-17.5 0-9.7-7.8-17.6-17.5-17.6z"/>
						<path id="&lt;Path&gt;" class="s4" d="m698.7 455.9l-45.4-45.5h-45.8v-7.7h49l47.7 47.7z"/>
					</g>
					<g id="&lt;Group&gt;">
						<path id="&lt;Compound Path&gt;" fill-rule="evenodd" class="s4" d="m586.1 596.1c-13.9 0-25.3-11.3-25.3-25.2 0-14 11.4-25.3 25.3-25.3 14 0 25.3 11.3 25.3 25.3 0 13.9-11.3 25.2-25.3 25.2zm0-42.8c-9.6 0-17.5 7.9-17.5 17.6 0 9.6 7.9 17.5 17.5 17.5 9.7 0 17.5-7.9 17.5-17.5 0-9.7-7.8-17.6-17.5-17.6z"/>
						<path id="&lt;Path&gt;" class="s4" d="m656.5 574.7h-49v-7.7h45.8l45.4-45.5 5.5 5.5z"/>
					</g>
					<g id="&lt;Group&gt;">
						<path id="&lt;Compound Path&gt;" fill-rule="evenodd" class="s4" d="m913.9 596.1c-14 0-25.3-11.3-25.3-25.2 0-14 11.3-25.3 25.3-25.3 13.9 0 25.3 11.3 25.3 25.3 0 13.9-11.4 25.2-25.3 25.2zm0-42.8c-9.7 0-17.5 7.9-17.5 17.6 0 9.6 7.8 17.5 17.5 17.5 9.6 0 17.5-7.9 17.5-17.5 0-9.7-7.9-17.6-17.5-17.6z"/>
						<path id="&lt;Path&gt;" class="s4" d="m892.5 574.7h-49l-47.7-47.7 5.5-5.5 45.5 45.5h45.7z"/>
					</g>
					<g id="&lt;Group&gt;">
						<path id="&lt;Path&gt;" class="s4" d="m703.7 366.1c0 6.2-5 11.2-11.2 11.2-6.1 0-11.2-5-11.2-11.2 0-6.1 5.1-11.2 11.2-11.2 6.2 0 11.2 5.1 11.2 11.2z"/>
						<path id="&lt;Path&gt;" class="s4" d="m666.7 331.7c0 6.2-5 11.2-11.2 11.2-6.1 0-11.2-5-11.2-11.2 0-6.1 5.1-11.1 11.2-11.1 6.2 0 11.2 5 11.2 11.1z"/>
						<path id="&lt;Path&gt;" class="s4" d="m818.4 366.1c0 6.2-5 11.2-11.2 11.2-6.1 0-11.1-5-11.1-11.2 0-6.1 5-11.2 11.1-11.2 6.2 0 11.2 5.1 11.2 11.2z"/>
						<path id="&lt;Path&gt;" class="s4" d="m855.4 331.7c0 6.2-5 11.2-11.2 11.2-6.1 0-11.1-5-11.1-11.2 0-6.1 5-11.1 11.1-11.1 6.2 0 11.2 5 11.2 11.1z"/>
					</g>
					<g id="&lt;Group&gt;">
						<path id="&lt;Path&gt;" class="s4" d="m666.7 645.7c0 6.2-5 11.2-11.2 11.2-6.1 0-11.2-5-11.2-11.2 0-6.2 5.1-11.2 11.2-11.2 6.2 0 11.2 5 11.2 11.2z"/>
						<path id="&lt;Path&gt;" class="s4" d="m703.7 611.3c0 6.2-5 11.2-11.2 11.2-6.1 0-11.2-5-11.2-11.2 0-6.1 5.1-11.2 11.2-11.2 6.2 0 11.2 5.1 11.2 11.2z"/>
						<path id="&lt;Path&gt;" class="s4" d="m855.4 645.7c0 6.2-5 11.2-11.2 11.2-6.1 0-11.1-5-11.1-11.2 0-6.2 5-11.2 11.1-11.2 6.2 0 11.2 5 11.2 11.2z"/>
						<path id="&lt;Path&gt;" class="s4" d="m818.4 611.3c0 6.2-5 11.2-11.2 11.2-6.1 0-11.1-5-11.1-11.2 0-6.1 5-11.2 11.1-11.2 6.2 0 11.2 5.1 11.2 11.2z"/>
					</g>
					<g id="&lt;Group&gt;">
						<path id="&lt;Compound Path&gt;" fill-rule="evenodd" class="s4" d="m730.2 499.7h-14.4l-2.9 7.7c-0.5 1.3-1.8 2.1-3.1 2.1q-0.6 0-1.1-0.2c-1.7-0.6-2.6-2.5-2-4.3l13.2-34.9c0.5-1.3 1.8-2.2 3.1-2.1 1.4-0.1 2.6 0.8 3.1 2.1l13.2 34.9c0.6 1.8-0.3 3.7-2 4.3-0.3 0.1-0.7 0.2-1.1 0.2-1.3 0-2.6-0.8-3-2.1zm-2.5-6.5l-4.8-12.8-4.8 12.8z"/>
						<path id="&lt;Compound Path&gt;" fill-rule="evenodd" class="s4" d="m761.3 493.4h-7.3v12.8c0 1.8-1.5 3.3-3.3 3.3-1.8 0-3.3-1.5-3.3-3.3v-35c0-1.8 1.5-3.3 3.3-3.3h10.6c7.1 0 12.8 5.7 12.8 12.8 0 6.9-5.7 12.7-12.8 12.7zm-7.3-6.6h7.3c3.5 0 6.1-2.8 6.2-6.1-0.1-3.4-2.7-6.2-6.2-6.2h-7.3z"/>
						<path id="&lt;Compound Path&gt;" class="s4" d="m782.5 471.2c0-1.8 1.4-3.3 3.3-3.3 1.7 0 3.3 1.5 3.3 3.3v35c0 1.9-1.6 3.3-3.3 3.3-1.9 0-3.3-1.4-3.3-3.3z"/>
					</g>
				</g>
			</g>
			<g id="&lt;Group&gt;">
				<path id="&lt;Path&gt;" class="s7" d="m1385.5 922.8h-1271v-46.3h1271z"/>
				<path id="&lt;Path&gt;" class="s0" d="m114.5 876.5l131.4-50.6h1008.2l131.4 50.6z"/>
				<path id="&lt;Path&gt;" class="s1" d="m257.6 858.6l84.7-32.7h815.4l84.7 32.7z"/>
			</g>
		</g>
	</g>
	<g id="Window">
		<g id="&lt;Group&gt;">
			<path id="&lt;Path&gt;" class="s1" d="m1332.1 428.1h-507.1v-336.5h507.1z"/>
			<g id="&lt;Group&gt;">
				<path id="&lt;Path&gt;" class="s2" d="m1332.1 106.5h-507.1v-14.9h507.1z"/>
				<g id="&lt;Group&gt;">
					<path id="&lt;Path&gt;" class="s7" d="m839.1 99c0 1.6-1.2 2.8-2.8 2.8-1.6 0-2.8-1.2-2.8-2.8 0-1.5 1.2-2.8 2.8-2.8 1.6 0 2.8 1.3 2.8 2.8z"/>
					<path id="&lt;Path&gt;" class="s6" d="m850.7 99c0 1.6-1.3 2.8-2.9 2.8-1.5 0-2.8-1.2-2.8-2.8 0-1.5 1.3-2.8 2.8-2.8 1.6 0 2.9 1.3 2.9 2.8z"/>
					<path id="&lt;Path&gt;" class="s4" d="m862.2 99c0 1.6-1.3 2.8-2.8 2.8-1.6 0-2.8-1.2-2.8-2.8 0-1.5 1.2-2.8 2.8-2.8 1.5 0 2.8 1.3 2.8 2.8z"/>
				</g>
			</g>
			<g id="&lt;Group&gt;">
				<g id="&lt;Group&gt;">
					<path id="&lt;Path&gt;" class="s0" d="m882.2 176.2h-14.8v-2.9h14.8z"/>
					<path id="&lt;Path&gt;" class="s0" d="m1141.2 176.2h-241.6v-2.9h241.6z"/>
					<g id="&lt;Group&gt;">
						<path id="&lt;Path&gt;" class="s4" d="m1178.4 176.2h-28.1v-2.9h28.1z"/>
					</g>
					<path id="&lt;Path&gt;" class="s0" d="m1270.1 244.6h-74.9v-2.9h74.9z"/>
					<g id="&lt;Group&gt;">
						<path id="&lt;Path&gt;" class="s8" d="m1274 176.2h-89.5v-2.9h89.5z"/>
					</g>
					<path id="&lt;Path&gt;" class="s0" d="m882.2 189.8h-14.8v-2.9h14.8z"/>
					<g id="&lt;Group&gt;">
						<path id="&lt;Path&gt;" class="s8" d="m1025.4 189.8h-111.4v-2.9h111.4z"/>
					</g>
					<g id="&lt;Group&gt;">
						<path id="&lt;Path&gt;" class="s8" d="m1188.6 244.6h-42.1v-2.9h42.1z"/>
					</g>
					<g id="&lt;Group&gt;">
						<path id="&lt;Path&gt;" class="s8" d="m1006 230.9h-106.4v-2.9h106.4z"/>
					</g>
					<g id="&lt;Group&gt;">
						<path id="&lt;Path&gt;" class="s4" d="m988.6 203.5h-74.6v-2.9h74.6z"/>
					</g>
					<g id="&lt;Group&gt;">
						<path id="&lt;Path&gt;" class="s8" d="m1277.3 217.2h-108.2v-2.9h108.2z"/>
					</g>
					<g id="&lt;Group&gt;">
						<path id="&lt;Path&gt;" class="s8" d="m1141.2 284.3h-55.1v-2.9h55.1z"/>
					</g>
					<g id="&lt;Group&gt;">
						<path id="&lt;Path&gt;" class="s8" d="m1188 203.5h-191.1v-2.9h191.1z"/>
					</g>
					<g id="&lt;Group&gt;">
						<path id="&lt;Path&gt;" class="s4" d="m1136.8 244.6h-237.2v-2.9h237.2z"/>
					</g>
					<path id="&lt;Path&gt;" class="s0" d="m1175.2 189.8h-142.8v-2.9h142.8z"/>
					<path id="&lt;Path&gt;" class="s0" d="m1247.8 203.5h-48v-2.9h48z"/>
					<path id="&lt;Path&gt;" class="s0" d="m882.2 203.5h-14.8v-2.9h14.8z"/>
					<g id="&lt;Group&gt;">
						<path id="&lt;Path&gt;" class="s8" d="m882.2 217.2h-14.8v-2.9h14.8z"/>
					</g>
					<path id="&lt;Path&gt;" class="s0" d="m987 217.2h-87.4v-2.9h87.4z"/>
					<path id="&lt;Path&gt;" class="s0" d="m1001.4 258.2h-87.4v-2.9h87.4z"/>
					<g id="&lt;Group&gt;">
						<path id="&lt;Path&gt;" class="s4" d="m1271 271.9h-122.1v-2.9h122.1z"/>
					</g>
					<path id="&lt;Path&gt;" class="s0" d="m1141.3 271.9h-148.2v-2.9h148.2z"/>
					<g id="&lt;Group&gt;">
						<path id="&lt;Path&gt;" class="s8" d="m979.7 271.9h-65.7v-2.9h65.7z"/>
					</g>
					<path id="&lt;Path&gt;" class="s0" d="m1178.4 230.9h-166.4v-2.9h166.4z"/>
					<g id="&lt;Group&gt;">
						<path id="&lt;Path&gt;" class="s4" d="m1274 230.9h-89.5v-2.9h89.5z"/>
					</g>
					<g id="&lt;Group&gt;">
						<path id="&lt;Path&gt;" class="s4" d="m1162.2 217.2h-166.3v-2.9h166.3z"/>
					</g>
					<path id="&lt;Path&gt;" class="s0" d="m882.2 230.9h-14.8v-2.9h14.8z"/>
					<path id="&lt;Path&gt;" class="s0" d="m882.2 244.6h-14.8v-2.9h14.8z"/>
					<g id="&lt;Group&gt;">
						<path id="&lt;Path&gt;" class="s8" d="m882.2 258.2h-14.8v-2.9h14.8z"/>
					</g>
					<path id="&lt;Path&gt;" class="s0" d="m882.2 271.9h-14.8v-2.9h14.8z"/>
					<path id="&lt;Path&gt;" class="s0" d="m882.2 284.3h-14.8v-2.9h14.8z"/>
					<path id="&lt;Path&gt;" class="s0" d="m1073 284.3h-173.4v-2.9h173.4z"/>
					<path id="&lt;Path&gt;" class="s0" d="m882.2 298h-14.8v-2.9h14.8z"/>
					<g id="&lt;Group&gt;">
						<path id="&lt;Path&gt;" class="s8" d="m1025.4 298h-111.4v-2.9h111.4z"/>
					</g>
					<g id="&lt;Group&gt;">
						<path id="&lt;Path&gt;" class="s8" d="m1006 339h-106.4v-2.9h106.4z"/>
					</g>
					<g id="&lt;Group&gt;">
						<path id="&lt;Path&gt;" class="s4" d="m988.6 311.7h-74.6v-2.9h74.6z"/>
					</g>
					<g id="&lt;Group&gt;">
						<path id="&lt;Path&gt;" class="s4" d="m1139.5 366.4h-54.6v-2.9h54.6z"/>
					</g>
					<g id="&lt;Group&gt;">
						<path id="&lt;Path&gt;" class="s4" d="m988.6 393.8h-74.6v-2.9h74.6z"/>
					</g>
					<g id="&lt;Group&gt;">
						<path id="&lt;Path&gt;" class="s8" d="m1188 311.7h-191.1v-2.9h191.1z"/>
					</g>
					<g id="&lt;Group&gt;">
						<path id="&lt;Path&gt;" class="s4" d="m1136.8 352.7h-237.2v-2.9h237.2z"/>
					</g>
					<path id="&lt;Path&gt;" class="s0" d="m1175.2 298h-142.8v-2.9h142.8z"/>
					<path id="&lt;Path&gt;" class="s0" d="m1223.8 325.4h-47.9v-2.9h47.9z"/>
					<path id="&lt;Path&gt;" class="s0" d="m882.2 311.7h-14.8v-2.9h14.8z"/>
					<g id="&lt;Group&gt;">
						<path id="&lt;Path&gt;" class="s8" d="m882.2 325.4h-14.8v-2.9h14.8z"/>
					</g>
					<path id="&lt;Path&gt;" class="s0" d="m987 325.4h-87.4v-2.9h87.4z"/>
					<path id="&lt;Path&gt;" class="s0" d="m1178.4 339h-166.4v-2.9h166.4z"/>
					<g id="&lt;Group&gt;">
						<path id="&lt;Path&gt;" class="s4" d="m1162.2 325.4h-166.3v-2.9h166.3z"/>
					</g>
					<path id="&lt;Path&gt;" class="s0" d="m882.2 339h-14.8v-2.9h14.8z"/>
					<path id="&lt;Path&gt;" class="s0" d="m882.2 366.4h-14.8v-2.9h14.8z"/>
					<path id="&lt;Path&gt;" class="s0" d="m1073 366.4h-173.4v-2.9h173.4z"/>
					<path id="&lt;Path&gt;" class="s0" d="m882.2 380.1h-14.8v-2.9h14.8z"/>
					<g id="&lt;Group&gt;">
						<path id="&lt;Path&gt;" class="s8" d="m1025.4 380.1h-111.4v-2.9h111.4z"/>
					</g>
					<g id="&lt;Group&gt;">
						<path id="&lt;Path&gt;" class="s8" d="m1188 393.8h-191.1v-2.9h191.1z"/>
					</g>
					<path id="&lt;Path&gt;" class="s0" d="m882.2 393.8h-14.8v-2.9h14.8z"/>
				</g>
				<g id="&lt;Group&gt;">
					<path id="&lt;Compound Path&gt;" class="s4" d="m874.6 147.3c0.4 0.4 0.4 1 0 1.4q-0.4 0.3-0.7 0.3-0.5 0-0.8-0.3l-4.5-4.6q0 0 0 0-0.1-0.1-0.1-0.1 0 0 0-0.1-0.1 0-0.1-0.1 0 0 0-0.1c0 0 0 0 0 0q0-0.1 0-0.2-0.1 0-0.1-0.1c0 0 0.1 0 0.1 0q0-0.1 0-0.1c0-0.1 0-0.1 0-0.1q0-0.1 0-0.1 0-0.1 0-0.1 0.1-0.1 0.1-0.1c0 0 0 0 0 0q0.1-0.1 0.1-0.2l4.5-4.5c0.4-0.4 1.1-0.4 1.5 0 0.4 0.4 0.4 1 0 1.4l-3.8 3.8z"/>
					<path id="&lt;Compound Path&gt;" class="s4" d="m878.6 147.8l3.9-9.3c0.2-0.5 0.7-0.7 1.2-0.5 0.4 0.2 0.6 0.7 0.4 1.1l-3.9 9.4c-0.1 0.3-0.5 0.5-0.8 0.5-0.1 0-0.2 0-0.3-0.1-0.5-0.2-0.7-0.7-0.5-1.1z"/>
					<path id="&lt;Compound Path&gt;" class="s4" d="m891.8 144q0 0 0 0 0 0.1-0.1 0.1l-4.5 4.6c-0.2 0.2-0.4 0.3-0.7 0.3q-0.4 0-0.7-0.3c-0.4-0.4-0.4-1 0-1.4l3.8-3.9-3.8-3.8c-0.4-0.4-0.4-1 0-1.4 0.4-0.4 1-0.4 1.4 0l4.5 4.5q0.1 0.1 0.1 0.2c0 0 0 0 0 0q0.1 0.1 0.1 0.1 0 0 0 0.1c0.1 0 0.1 0 0.1 0.1q0 0 0 0.1 0 0 0 0.1c0 0 0 0 0 0 0 0.1 0 0.1 0 0.1q0 0.1 0 0.2 0 0 0 0-0.1 0.1-0.1 0.1 0 0 0 0.1 0 0-0.1 0.1z"/>
				</g>
			</g>
		</g>
	</g>
	<g id="Arrows">
		<g id="&lt;Group&gt;">
			<g id="&lt;Group&gt;">
				<g id="&lt;Group&gt;">
					<path id="&lt;Path&gt;" class="s9" d="m1298 584.1v-74.6h-43.5"/>
					<g id="&lt;Group&gt;">
						<path id="&lt;Path&gt;" class="s4" d="m1302.5 583.9c0 2.5-2 4.5-4.5 4.5-2.5 0-4.5-2-4.5-4.5 0-2.5 2-4.5 4.5-4.5 2.5 0 4.5 2 4.5 4.5z"/>
					</g>
					<g id="&lt;Group&gt;">
						<path id="&lt;Path&gt;" class="s4" d="m1254.7 505c-2.5 0-4.5 2-4.5 4.5 0 2.5 2 4.5 4.5 4.5 2.5 0 4.5-2 4.5-4.5 0-2.5-2-4.5-4.5-4.5z"/>
					</g>
				</g>
			</g>
			<g id="&lt;Group&gt;">
				<g id="&lt;Group&gt;">
					<path id="&lt;Path&gt;" class="s9" d="m718.2 151.7v-32.9h107.4"/>
					<g id="&lt;Group&gt;">
						<path id="&lt;Path&gt;" class="s4" d="m722.7 151.5c0 2.5-2 4.5-4.5 4.5-2.5 0-4.5-2-4.5-4.5 0-2.5 2-4.5 4.5-4.5 2.5 0 4.5 2 4.5 4.5z"/>
					</g>
					<g id="&lt;Group&gt;">
						<path id="&lt;Path&gt;" class="s4" d="m825.4 123.3c2.5 0 4.5-2 4.5-4.5 0-2.5-2-4.5-4.5-4.5-2.5 0-4.5 2-4.5 4.5 0 2.5 2 4.5 4.5 4.5z"/>
					</g>
				</g>
			</g>
		</g>
	</g>
	<g id="Cloud">
		<g id="&lt;Group&gt;">
			<g id="&lt;Group&gt;">
				<path id="&lt;Path&gt;" class="s4" d="m209.3 186.5c0 17.5 13.5 31.8 30.7 33.1v0.1h187.9c21.5 0 39-17.5 39-39 0-20.3-15.6-37-35.4-38.8-1.1-35.3-30.1-63.6-65.6-63.6-28.3 0-52.5 17.9-61.7 43-5.2-2.6-11.1-4.1-17.4-4.1-20.7 0-37.7 16.1-38.9 36.6q-2.6-0.5-5.4-0.5c-18.3 0-33.2 14.9-33.2 33.2z"/>
				<path id="&lt;Path&gt;" class="s10" d="m209.3 186.5c0 17.5 13.5 31.8 30.7 33.1v0.1h187.9c21.5 0 39-17.5 39-39 0-20.3-15.6-37-35.4-38.8-1.1-35.3-30.1-63.6-65.6-63.6-28.3 0-52.5 17.9-61.7 43-5.2-2.6-11.1-4.1-17.4-4.1-20.7 0-37.7 16.1-38.9 36.6q-2.6-0.5-5.4-0.5c-18.3 0-33.2 14.9-33.2 33.2z"/>
			</g>
			<path id="&lt;Path&gt;" class="s4" d="m190.6 186.5c0 17.5 13.5 31.8 30.7 33.1v0.1h187.8c21.6 0 39-17.5 39-39 0-20.3-15.5-37-35.3-38.8-1.1-35.3-30.1-63.6-65.7-63.6-28.3 0-52.4 17.9-61.6 43-5.3-2.6-11.2-4.1-17.4-4.1-20.8 0-37.7 16.1-39 36.6q-2.6-0.5-5.3-0.5c-18.4 0-33.2 14.9-33.2 33.2z"/>
			<g id="&lt;Group&gt;">
				<path id="&lt;Path&gt;" class="s6" d="m297.2 181.6h44.3v38.1h-44.3z"/>
				<path id="&lt;Path&gt;" class="s6" d="m282 181.6h74.7l-37.3-37.3z"/>
			</g>
		</g>
	</g>
	<g id="Character">
		<g id="&lt;Group&gt;">
			<g id="&lt;Group&gt;">
				<g id="&lt;Group&gt;">
					<g id="&lt;Group&gt;">
						<g id="&lt;Group&gt;">
							<path id="&lt;Path&gt;" class="s11" d="m758.5 852c-5.6 2.1-170 5.1-176.4 1.4-0.7-0.4-0.5-7.6-2.9-26.4-0.2-0.9-3.9-4.4-9.8-9.3-21.9-18.4-73.6-57.2-73.6-57.2l80.6-67.4 80.9 74.2 20.7 20.3c0 0 67.1 36.3 73.8 41.1 6.6 4.8 12.4 21.1 6.7 23.3z"/>
							<path id="&lt;Path&gt;" class="s0" d="m758.5 851.9c-5.6 2.2-170 5.2-176.4 1.5-0.7-0.4-0.5-7.6-2.9-26.4-0.1-0.9-3.9-4.4-9.8-9.3-7.6-6.4-11.2-9.3-22.6-18.2l104.3-38.3 6.2 6.1 20.7 20.4c0 0 67.1 36.2 73.8 41 6.6 4.8 12.4 21.1 6.7 23.2z"/>
						</g>
						<g id="&lt;Group&gt;">
							<path id="&lt;Path&gt;" class="s4" d="m769.8 854.2c-5.7 2-180.8 3.9-187.1 0-1.4-0.9-2.8-11-3.9-25-0.1-1.7-17.9-15.9-20.3-18.5l107.3-36.2 13.6 12.8c0 0 78.9 36.7 85.4 41.7 6.4 5 10.8 23.2 5 25.2z"/>
							<g id="&lt;Group&gt;">
								<path id="&lt;Path&gt;" class="s1" d="m767.4 847.7c-27.5-0.4-149.5 0.8-176.7 2.5-0.3 0.1-0.3 0.2 0 0.2 27.2 1 149.2-1.1 176.7-2.3 0.6 0 0.6-0.4 0-0.4z"/>
								<g id="&lt;Group&gt;">
									<path id="&lt;Path&gt;" class="s1" d="m688.1 788.4c-10.8-1.8-24.1 0-32.2 7.8-0.4 0.3 0.1 0.7 0.4 0.6 10.7-3.5 20.6-5.8 31.8-7 0.8-0.1 0.8-1.2 0-1.4z"/>
									<path id="&lt;Path&gt;" class="s1" d="m696 793.1c-10.9-1.9-24.1-0.1-32.3 7.7-0.3 0.3 0.1 0.7 0.5 0.6 10.6-3.5 20.6-5.7 31.7-7 0.8-0.1 0.8-1.2 0.1-1.3z"/>
									<path id="&lt;Path&gt;" class="s1" d="m703.8 797.7c-10.8-1.9-24-0.1-32.2 7.7-0.3 0.3 0.1 0.8 0.5 0.6 10.6-3.4 20.5-5.7 31.7-7 0.8 0 0.8-1.2 0-1.3z"/>
									<path id="&lt;Path&gt;" class="s1" d="m711.7 802.3c-10.8-1.9-24.1-0.1-32.2 7.7-0.4 0.3 0.1 0.8 0.4 0.7 10.7-3.5 20.6-5.8 31.8-7 0.8-0.1 0.8-1.3 0-1.4z"/>
									<g id="&lt;Group&gt;">
										<path id="&lt;Compound Path&gt;" fill-rule="evenodd" class="s1" d="m703.1 778.7c-7.6 6-17.5 8.5-26.4 12-0.9 0.3-1.7-0.6-1.7-1.4-0.2 0-0.3-0.1-0.3-0.4 2.9-9 9.2-18.7 16.4-24.9 4.5-3.9 12.4-6.6 16.7-0.8 4.1 5.5-0.2 11.9-4.7 15.5zm2.7-8.8c1.8-11.9-10.9-5.5-14.1-2.5-2.1 1.9-3.9 4.1-5.7 6.2-3.7 4.6-6.6 9.6-9.9 14.4 4.3-1.9 8.7-3.5 13-5.3 5.2-2.1 15.7-6.2 16.7-12.8z"/>
										<path id="&lt;Compound Path&gt;" fill-rule="evenodd" class="s1" d="m638.4 772.9c2.6-6.8 10.9-6.4 16.3-3.9 8.7 4 17.4 11.5 22.6 19.4 0.2 0.2 0.1 0.4-0.1 0.5 0.2 0.8-0.3 1.8-1.3 1.7-9.5-0.8-19.7-0.5-28.7-4.2-5.2-2.1-11.2-7.1-8.8-13.5zm23.4 13.6c4.6 0.5 9.3 0.7 13.9 1.4-4.4-3.8-8.7-7.7-13.5-11-2.3-1.6-4.6-3.2-7.1-4.5-3.9-2-17.9-4.6-12.9 6.4 2.8 6 14 7 19.6 7.7z"/>
									</g>
								</g>
							</g>
						</g>
					</g>
					<g id="&lt;Group&gt;">
						<path id="&lt;Path&gt;" class="s2" d="m658.4 763l-101.3 52.5c0 0-103.5-86.8-113.1-87.6-9.4-0.6-151.8 95.7-223.3 96-74.1 0.4-77.8-77.3-77.8-77.3l108-24.8c77.9-38.4 159.1-107.3 212.1-100.9 57.7 7 195.4 142.1 195.4 142.1z"/>
						<g id="&lt;Group&gt;">
							<g id="&lt;Group&gt;">
								<g id="&lt;Group&gt;">
									<path id="&lt;Path&gt;" class="s1" d="m633.7 749.6c-17.1 8.5-12.3 5.8-29.4 14.4-8.3 4.3-50.2 25.4-57.3 30.7-0.2 0.1 0 0.3 0.1 0.3 8.4-2.8 49.9-24.9 58.1-29.2 16.9-9 12-6.6 28.7-15.7 0.3-0.2 0.1-0.7-0.2-0.5z"/>
								</g>
							</g>
							<path id="&lt;Path&gt;" class="s1" d="m539.1 791.3c-19.8-17.5-82.6-65.6-85.2-67.7-2.1-1.7-4.3-4-6.8-5.1-2.1-1-4.2-0.5-6.2 0.5-3 1.4-6 2.9-8.9 4.4q-8.8 4.3-17.6 8.6c-22.7 11-45.3 22.4-68.2 33.1-22 10.3-37.7 20-60.7 28-22.8 7.9-46.5 13.9-70.5 16.8q-4.4 0.5-8.9 0.9c-0.2 0.1-0.2 0.4 0 0.4 23.6-1.2 46.9-6 69.4-12.9 22.8-7 38.2-16.1 59.9-26.1 22.4-10.3 44.5-21.3 66.6-32.3 11.6-5.8 23.3-11.7 35-17.4 2.6-1.3 6.4-4.1 9.4-2.7 1.3 0.6 2.4 1.7 3.5 2.6q2 1.6 3.9 3.2c5 4.2 82.4 64 85 66 0.2 0.1 0.5-0.1 0.3-0.3z"/>
						</g>
					</g>
				</g>
				<g id="&lt;Group&gt;">
					<g id="&lt;Group&gt;">
						<path id="&lt;Path&gt;" class="s11" d="m214.7 599.8c10.5 41.7 31.6 91.6 40.3 99.5 11 10.1 82.6 27.4 86.2 27.7 8.8 0.7 25-63 15.6-64.1-14.3-1.8-66.2-3.4-69.4-6.6-3.3-3.2-25.8-30.3-49-61-16-21.2-30.3-21.4-23.7 4.5z"/>
						<g id="&lt;Group&gt;">
							<path id="&lt;Path&gt;" class="s11" d="m334.1 723.8c1 0.5 16.1 7.6 25.3 10.1 6.9 1.8 27 6.6 29.8-0.8 1.9-5.1-9.6-9.2-17.6-12.4-4.3-1.6-9.5-5.9-8.3-8.6 2-4.8 12.9-0.3 20.1 3.7 13.9 7.6 32.5 21.6 40.7 14.4 3.1-2.7-0.6-7.4-6.1-12 8.8 5.3 18.2 9.6 21.8 6.7 2.1-1.6 2.1-3.8 0.9-6.2 2.7 0.8 5.1 0.6 6.7-1.2 2.8-3.1 1.3-7.4-1.9-11.8 1-0.2 1.9-0.7 2.5-1.8 5.9-9.3-24.8-35-35.3-37.2-30.8-6.6-63-4.5-63-4.5-11.8 9.9-15.7 61.6-15.6 61.6z"/>
							<g id="&lt;Group&gt;">
								<path id="&lt;Path&gt;" class="s1" d="m378.5 694.6c7.2 1 14.4 3.5 20.6 7.4 7.8 4.9 13.1 10.8 19.8 16.7 0.1 0.2-0.1 0.5-0.3 0.3-3.1-2.8-16.2-13.3-19.6-15.7-6.2-4.3-13.1-7.4-20.6-8.6 0 0 0-0.1 0.1-0.1z"/>
								<path id="&lt;Path&gt;" class="s1" d="m383.9 681.5c8.1 2 16.4 4 23.9 7.7 8.3 4 14.8 10.6 21.3 17q5.8 5.8 11.3 11.8c0.2 0.1-0.1 0.4-0.2 0.3q-9.8-10-20.2-19.3c-6.5-5.8-13.7-10.2-22-13.2-4.6-1.6-9.4-2.9-14.1-4.2-0.1 0-0.1-0.2 0-0.1z"/>
								<path id="&lt;Path&gt;" class="s1" d="m392.2 669.9c7.9 1.4 14.7 2.7 21.7 6.7 9.3 5.3 18.4 14.5 21.6 17.7 3.5 3.6 6.9 7.3 10.2 11.1 0.1 0.1-0.1 0.4-0.3 0.2-7.6-8.2-15.7-15.9-24.3-23.1-4.2-3.4-8.6-6.3-13.6-8.4-4.9-1.9-10.1-3-15.3-4.1 0 0 0-0.1 0-0.1z"/>
							</g>
						</g>
					</g>
					<g id="&lt;Group&gt;">
						<path id="&lt;Path&gt;" class="s4" d="m348.6 658.6l-18.9 72.1c0 0-61.6-14.3-73.2-25.7-11.7-11.4-35.2-72.1-42.7-101.8-7.5-29.6 7.6-29.6 22.5-11.4 14.8 18.2 51.7 62.2 53.7 63.1 2 0.9 58.6 3.7 58.6 3.7z"/>
						<path id="&lt;Path&gt;" class="s1" d="m323.2 697.9c2.1-7.9 4.3-15.8 6.1-23.7 1-4.5 2-9.1 3-13.6 0-0.2-0.3-0.3-0.3-0.1-2.4 7.8-4.8 15.7-6.9 23.6-2 7.9-4.1 15.8-6 23.7q-1.7 6.8-2.9 13.6c0 0.1 0.1 0.2 0.1 0.1 2.7-7.8 4.8-15.7 6.9-23.6z"/>
						<path id="&lt;Path&gt;" class="s10" d="m331.5 723.7l-1.8 7c0 0-61.6-14.3-73.2-25.7-11.7-11.4-35.2-72.1-42.7-101.8-7.5-29.6 7.6-29.6 22.5-11.4 4.4 5.4 10.8 13.1 17.6 21.3z"/>
					</g>
				</g>
				<g id="&lt;Group&gt;">
					<g id="&lt;Group&gt;">
						<path id="&lt;Path&gt;" class="s2" d="m141.3 753.1c0 0-9.7 70.4 26.2 96.8 36 26.3 292.4 14.3 331 0.4 38.5-13.8 37.6-76.7-5.5-89.8-40.9-12.5-213.4-13.5-217.7-15-1.1-0.4 14.9-10.7 14.8-11.3l-39.5-10.7z"/>
						<g id="&lt;Group&gt;">
							<path id="&lt;Path&gt;" class="s1" d="m194.4 749.5c0-0.3-0.5-0.2-0.5 0.1 0.3 7.9-2.4 16.4-7.3 22.5-5.8 7.1-14.4 11.3-22.3 15.6-0.7 0.4-0.1 1.6 0.7 1.3 4.8-1.6 9.5-3.9 13.8-6.5 4-2.4 7.6-5.4 10.3-9.2 5-7 7-15.3 5.3-23.8z"/>
							<path id="&lt;Path&gt;" class="s1" d="m272.2 738.2c-1.8-2.2-3.8-4.3-5.8-6.4-4.5-5.1-9.1-10.2-13.9-15.1-0.4-0.5-1.2 0.2-0.8 0.8 3.2 3.9 6.6 7.7 10 11.5q2.5 3 5.2 5.9c1.6 1.9 3.6 3.6 4.8 5.8 1.3 2.2-0.2 4.1-2.6 4.5-2 0.3-4-0.7-5.6-1.9-3.7-2.7-6.7-6.5-9.9-9.8q-2.8-3.1-5.7-6.1c-2.1-2.1-4.3-4.1-6.4-6.2-0.1-0.1-0.3 0.1-0.2 0.2 1.8 2.4 3.5 4.8 5.3 7.1q2.7 3.5 5.5 6.9 2.7 3.3 5.5 6.4c1.6 1.7 3.4 3.4 5.5 4.6 3.4 1.8 9.2 2.1 10.9-2.3 0.8-2.2-0.4-4.3-1.8-5.9z"/>
							<path id="&lt;Path&gt;" class="s1" d="m493.1 850.8c-13.4 0.7-26.7 1.9-40.1 2.6q-20 1.1-39.9 1.6c-26.7 0.7-53.5 0.5-80.2-0.4-27-1-56.1-2.7-83-5.5-12.9-1.3-25.9-2.4-38.6-4.6-11.5-2.1-22-6.5-30.9-14.5-17.8-16.2-25.4-40.7-29-64.2q-0.7-4.8-1.2-9.5c-0.1-0.2-0.4-0.2-0.4 0 2.4 24.2 7 49.3 22.9 68.2 6.9 8.2 15.5 14.8 25.5 18.4 12.1 4.4 25.4 5.1 38.1 6.4 27 2.7 56.3 4.6 83.4 5.8 27.2 1.1 54.5 1.5 81.8 1 27.3-0.5 54.5-1.8 81.7-4 3.3-0.3 6.7-0.6 10-1 0.1-0.1 0.1-0.3-0.1-0.3z"/>
							<path id="&lt;Path&gt;" class="s1" d="m405.2 750.6c-8.5-0.9-17-1.8-25.5-2.4-8.6-0.6-17.2-1.1-25.8-1.6-17-0.8-34.1-1.5-51.1-1.8-9.7-0.1-19.4 0.2-29.1 0.6-0.3 0-0.2 0.5 0.1 0.5 17 1 34.1 1.5 51.2 2 17 0.6 34.1 1.5 51.1 2.6 9.6 0.6 19.3 0.9 29 1.4 0.7 0 0.8-1.2 0.1-1.3z"/>
							<path id="&lt;Path&gt;" class="s1" d="m292.1 733.2c-6.7 3.1-13 7-19.2 11.2-6 4-12.2 8.3-17.6 13.2-0.2 0.2 0 0.4 0.2 0.3 6.5-3.3 12.8-7.4 19-11.3 6.2-3.9 12.4-7.8 18.1-12.5 0.4-0.3 0.1-1.1-0.5-0.9z"/>
						</g>
					</g>
				</g>
				<g id="&lt;Group&gt;">
					<g id="&lt;Group&gt;">
						<g id="&lt;Group&gt;">
							<path id="&lt;Path&gt;" class="s0" d="m140.9 760.1l136.5-40.8-15.6-49.2c0 0 10.3-16.1 5.1-30.8-4.7-13.1-37.7-51.3-44.3-56.4-11.2-8.5-30.8-10.8-41 2.2-41.9 53.6-40.7 175-40.7 175z"/>
							<path id="&lt;Compound Path&gt;" fill-rule="evenodd" class="s1" d="m184.1 582.4l21.7-6.2q-0.7-0.1-1.3-0.1l-19.5 5.5q-0.5 0.4-0.9 0.8zm-11.6 16.6l51.6-14.8q-0.2-0.2-0.4-0.4l-50.9 14.6q-0.2 0.3-0.3 0.6zm-7.5 15.4l69-19.7q-0.2-0.2-0.3-0.5l-68.5 19.6q-0.1 0.3-0.2 0.6zm-5.6 14.8l83.8-23.9q-0.2-0.2-0.3-0.4l-83.3 23.8q-0.1 0.2-0.2 0.5zm-4.3 14.5l96.7-27.6q-0.1-0.2-0.3-0.4l-96.3 27.5q-0.1 0.3-0.1 0.5zm-3.5 14.3l108.3-30.9q-0.1-0.2-0.3-0.4l-107.9 30.7q-0.1 0.3-0.1 0.6zm-2.9 14l117.8-33.5q0-0.3-0.2-0.5l-117.5 33.5q0 0.3-0.1 0.5zm-2.2 14l121.7-34.8q0-0.2 0.1-0.5l-121.8 34.7q0 0.3 0 0.6zm-1.9 13.8l119.6-34.2q0.1-0.2 0.2-0.5l-119.7 34.1q-0.1 0.3-0.1 0.6zm-1.4 13.6l121.4-34.6-0.2-0.5-121.2 34.6q0 0.3 0 0.5zm-1.1 13.6l126.3-36-0.1-0.5-126.2 36q0 0.3 0 0.5zm-0.8 13.5l131-37.4-0.2-0.4-130.8 37.3q0 0.2 0 0.5zm-0.4 12.9q0 0.2 0 0.5l135.2-38.6-0.1-0.5z"/>
						</g>
						<g id="&lt;Group&gt;">
							<path id="&lt;Path&gt;" class="s1" d="m241.2 664.3c-6.1 2.7-12.2 5.5-17.9 9-2.9 1.8-5.6 3.7-8.3 5.6q-2.1 1.4-4.1 2.8c-1.5 0.9-3 1.9-4.6 2.4-0.2 0.1-0.1 0.3 0 0.2 1.6-0.4 3.2-0.8 4.7-1.5 1.5-0.6 2.9-1.4 4.2-2.2 2.9-1.8 5.7-3.7 8.6-5.4 5.8-3.6 11.6-7.2 17.6-10.4 0.3-0.1 0.1-0.6-0.2-0.5z"/>
							<path id="&lt;Path&gt;" class="s1" d="m258.7 665.1c-5.4 1.1-10.8 2.4-16 4.1-2.7 0.9-5.2 1.9-7.8 3q-1.8 0.7-3.6 1.6c-1.3 0.6-2.6 1.4-3.9 1.9-0.1 0.1-0.1 0.3 0.1 0.3 1.2-0.6 2.6-0.9 3.9-1.3q2-0.7 3.9-1.3c2.6-0.9 5.3-1.8 7.9-2.7 5.2-1.8 10.4-3.5 15.7-5.2 0.2-0.1 0.1-0.5-0.2-0.4z"/>
						</g>
						<g id="&lt;Group&gt;">
							<path id="&lt;Path&gt;" class="s4" d="m193.2 577.5c0 0 14.3 43.9 15.9 81.3 2.7 60.2 12.3 145.6 15.1 169 2.9 23.4-68.9 96.2-88 87.7-9.3-4.1-15.9-54.5-6.6-152.4 3.4-36.3 18.4-125.1 40-163.4 15.2-26.7 23.6-22.2 23.6-22.2z"/>
							<g id="&lt;Group&gt;" style="opacity: .1">
								<path id="&lt;Path&gt;" class="s12" d="m203.3 772.9c-4.6 3.9-9.2 7.9-13.5 12-4 3.9-8 7.8-12.1 11.5-4.1 3.6-8.4 7-13 10-4.7 3.1-9.6 5.4-14.9 7.2-0.2 0.1-0.1 0.4 0.1 0.4 17.5-1.6 31.7-15.3 43-27.6 3.8-4.1 7.5-8.4 11.1-12.8 0.4-0.5-0.2-1.1-0.7-0.7z"/>
								<path id="&lt;Path&gt;" class="s12" d="m203.6 780.3c-5.1 6.9-10.5 13.4-16.9 19.2-6.2 5.6-13.2 10.4-20.6 14.4-4.3 2.4-8.7 4.5-13.2 6.3-0.3 0.1-0.2 0.5 0.1 0.5 17.1-3.2 32.7-13.9 43.2-27.6 3-3.9 5.7-8.1 7.7-12.6 0.1-0.2-0.1-0.4-0.3-0.2z"/>
								<path id="&lt;Path&gt;" class="s12" d="m204.1 789.7c0.9 11.9 0.9 32.7 0.4 37.2-0.5 4.1-1.2 8.4-3.2 12-3.8 6.9-11.2 12.2-18.3 15.5-6.5 3-15.1 4.7-21.6 0.7-3.9-2.5-5-7.3-6.1-11.5-1.3-5.2-2.3-10.5-2.9-15.8 0-0.3-0.3-0.3-0.3 0 0.2 4.9 0.6 9.7 1.3 14.6 0.6 4.3 1.1 9.2 3.9 12.7 5 6.4 14.2 6.8 21.4 4.9 4.5-1.2 8.8-3.5 12.6-6.1 3.5-2.5 7-5.3 9.7-8.7 2.8-3.4 4.2-7.3 5.5-11.5 2-6.3 0.7-32.9-2.1-44-0.1-0.2-0.3-0.2-0.3 0z"/>
							</g>
						</g>
						<path id="&lt;Path&gt;" class="s4" d="m218.9 580.5c13.3 12.2 40.1 54.1 43.4 63.5 4.1 11.9-0.5 26.1-0.5 26.1l15.6 49.2-12-48.8c0 0 8.5-13.1 4.4-29.4-4.1-16.2-37.8-50.3-42.5-55.1-4.6-4.9-8.4-5.5-8.4-5.5z"/>
					</g>
					<g id="&lt;Group&gt;">
						<g id="&lt;Group&gt;">
							<path id="&lt;Path&gt;" class="s11" d="m195.8 576.5c-0.1 2.6 7.2 21.8 18.6 24.3 3.7 0.8 9.1-19.2 9.1-19.2l0.7-1.4 10.4-19.4-20-22.2-3-3.1c0 0-15.8 39.9-15.8 41z"/>
							<path id="&lt;Path&gt;" class="s1" d="m211.6 535.5c0 0-3.7 9.4-8 20.5 2.7 12.1 17.6 23.4 20.6 24.2l10.4-19.4-20-22.3z"/>
						</g>
						<g id="&lt;Group&gt;">
							<path id="&lt;Compound Path&gt;" fill-rule="evenodd" class="s1" d="m186.9 521.6c-2.1 0.1-4.2-0.1-5.7-1.7-0.5-0.5-0.8-1-1.3-1.5-0.8-0.7-1.6-0.9-2.6-1.1-1.1-0.3-2.2-0.5-3.2-0.9-3.2-1.2-6.2-3.7-6.3-7.2-5 0.3-9.8-3.2-11.1-8q-0.2-1-0.2-2c-0.1-0.9 0.2-2-0.2-2.9-0.4-0.8-1.5-1.4-2.2-2-0.5-0.6-1.1-1.1-1.5-1.8-1.2-1.6-1.3-4.3 0.3-5.6-2.4-1.3-3.1-4.4-2.7-7.1 0.5-3.4 2.5-6.5 5.4-8.3-2-3.9-0.4-9.1 3.5-11-1.4-4.1 1.4-8.8 5.7-9.5 0.4-3.6 2.6-6.6 5.8-8.3 0.7-0.3 1.2-0.8 1.6-1.3 0.3-2.4 1.1-4.7 3.2-6.2 2.1-1.5 5.1-1.6 7.2 0 0.7-0.8 2.2-2.1 5-3.1 2.8-1 5.9-0.5 8.1 1.4 5.5-4.5 13.6-3.2 17.4 2.7 2.4-2.5 6.2-2.7 9.3-1.5 3.7 1.6 6 5.2 7.7 8.7 2.4-1.5 5.6-1.3 7.6 0.9 1.5 1.7 1.9 4 1.3 6.1 2.1 1.2 4.1 2.8 4.8 5.2 0.6 2 0.1 4.3-1.5 5.7 4.9 3.3 4.7 10.6-0.4 13.6 3.4 1.4 5.9 4.6 6.2 8.3 0.3 4-2.1 7.7-5.5 9.5 2.4 2.3 3.1 6.1 1.9 9.2-1.4 3.8-5.1 6.2-8.9 7.3 1 3.3-0.3 6.9-3 9.1-2.4 1.9-5.6 2.4-8.6 1.9 2.8 1.6 6 2 9-0.1 3.6-2.5 4.2-7.1 2.8-10.9 0-0.1 0-0.1 0 0 2.1 3.9 1.4 8.8-2.3 11.5-3.7 2.7-8.1 1.8-11.4-0.7-0.2 3.8-2.6 7.3-6.1 8.8-3.7 1.6-7.9 0.7-10.8-1.9-6.1 6.3-17.5 4.2-18.3-5.3zm-14-81.2q0.1-0.1 0.1-0.3c0.4-0.6 0.8-1.2 1.3-1.8 1.1-1.3 2.6-2.1 4.2-2.6q1.2-0.3 2.4-0.2c0.4 0 1.3 0.2 1.3 0.2 0 0 0.1-0.1 0.2-0.3-2.6-1.2-5.4-0.8-7.4 1.2-1.2 1.1-1.7 2.4-2.1 3.8zm65.4 9.6q0 0 0 0.1c0.5-1.9 0.4-3.8-1-5.4-2.1-2.3-4.6-2-7.1-1q0.1 0.1 0.1 0.2c2.5-0.7 5.3 0.4 6.8 2.5 0.7 1.1 1.1 2.4 1.2 3.6zm-36.7 78.5c-5.6 1.9-12-0.9-14.2-6.9q0 0-0.1 0c1.6 8 8.3 9.4 14.3 6.9z"/>
							<path id="&lt;Path&gt;" class="s11" d="m266.7 533.8c-1.1 38.5-24.3 42.2-32.6 42-7.6-0.2-33.2-2-36.1-40.5-2.9-38.4 15.4-50.1 32.7-50.5 17.3-0.4 37.2 10.4 36 49z"/>
							<g id="&lt;Group&gt;">
								<path id="&lt;Path&gt;" class="s1" d="m261.6 529.1c-0.8-0.2-1.6-0.6-2.5-0.9-0.9-0.4-1.7-0.6-2.3-1.5-0.3-0.4-0.2-1.3 0.2-1.6 1-0.9 2.3-0.7 3.5-0.3 1.3 0.4 2.1 1.1 2.8 2.2 0.7 1.1-0.5 2.4-1.7 2.1z"/>
								<path id="&lt;Path&gt;" class="s1" d="m235.6 526.1c0.9 0 1.7-0.1 2.6-0.2 1.1-0.1 1.9-0.1 2.7-0.8 0.4-0.3 0.5-1.2 0.2-1.6-0.7-1.1-2-1.3-3.2-1.2-1.4 0.1-2.4 0.5-3.4 1.4-0.9 0.9-0.1 2.4 1.1 2.4z"/>
								<g id="&lt;Group&gt;">
									<g id="&lt;Group&gt;">
										<path id="&lt;Path&gt;" class="s1" d="m240.7 535.1c0-0.1-0.2 0.1-0.2 0.2-0.2 2.7-0.8 5.6-3.3 6.3 0 0 0 0.1 0.1 0.1 2.9-0.1 3.7-4.1 3.4-6.6z"/>
										<path id="&lt;Path&gt;" class="s1" d="m238.6 532.2c-4.1-0.7-5.3 7.7-1.4 8.3 3.8 0.7 4.9-7.7 1.4-8.3z"/>
									</g>
									<path id="&lt;Path&gt;" class="s1" d="m236.9 532.4c-0.8 0.4-1.6 1.1-2.5 1.1-1 0-1.7-1-2.3-2 0-0.1-0.1 0-0.1 0.1-0.2 1.6 0.2 3.4 1.8 3.8 1.6 0.5 2.9-0.8 3.5-2.4 0.1-0.3-0.1-0.8-0.4-0.6z"/>
								</g>
								<g id="&lt;Group&gt;">
									<g id="&lt;Group&gt;">
										<path id="&lt;Path&gt;" class="s1" d="m255.6 536.6c0-0.1 0.2 0.1 0.1 0.2-0.3 2.6-0.2 5.7 2.1 6.7 0.1 0.1 0.1 0.2 0 0.2-2.9-0.7-2.9-4.7-2.2-7.1z"/>
										<path id="&lt;Path&gt;" class="s1" d="m258.1 534c4.3 0.1 3.9 8.5 0 8.5-3.9 0-3.5-8.5 0-8.5z"/>
									</g>
									<path id="&lt;Path&gt;" class="s1" d="m259.9 534.7c0.6 0.5 1.2 1.3 2 1.4 1 0.1 1.7-0.8 2.3-1.6 0.1-0.1 0.1-0.1 0.1 0 0 1.7-0.6 3.3-2.2 3.6-1.4 0.2-2.4-1.2-2.7-2.9 0-0.3 0.2-0.7 0.5-0.5z"/>
								</g>
								<path id="&lt;Path&gt;" class="s1" d="m235.8 556.1c0.5 0.8 0.8 1.8 1.7 2.1 0.9 0.4 2 0.3 2.9 0.2 0.1 0 0.1 0.1 0.1 0.2-1 0.8-2.5 0.9-3.6 0.4-1.1-0.6-1.4-1.7-1.3-2.9 0-0.1 0.2-0.1 0.2 0z"/>
								<g id="&lt;Group&gt;">
									<path id="&lt;Path&gt;" class="s1" d="m249.7 549.2c0 0-0.4 3.9-0.8 5.7-0.1 0.2-0.5 0.2-1.1 0.1q-0.1 0-0.1-0.1c-3.3-0.3-6.2-2.2-7.5-5.2-0.1-0.2 0.2-0.4 0.3-0.2 2 2.3 4.5 3.4 7.3 4.2 0.2-0.5 0.5-6.8 0.7-6.7 1 0.1 2.8 1.3 3.9 1.9 1.1-8.2 0.9-16.5 2.2-24.6 0-0.3 0.4-0.3 0.5 0 0.8 8.7-0.3 18.1-1.2 26.6-0.2 1.1-3.5-1.2-4.2-1.7z"/>
								</g>
								<g id="&lt;Group&gt;">
									<path id="&lt;Path&gt;" class="s1" d="m246.7 554.4c0 0-2.3 1.7-4.7 1.9-0.9 0-1.8-0.1-2.7-0.6-1.7-1.1-1.3-2.8-0.5-4.2 0.6-1.1 1.5-2 1.5-2 0 0 2 3.4 6.4 4.9z"/>
									<path id="&lt;Path&gt;" class="s13" d="m242 556.3c-0.9 0-1.8-0.1-2.7-0.6-1.7-1.1-1.3-2.8-0.5-4.2 2 0.8 3.6 2.8 3.2 4.8z"/>
								</g>
							</g>
							<g id="&lt;Group&gt;">
								<g id="&lt;Group&gt;">
									<path id="&lt;Path&gt;" class="s1" d="m202.7 539.7c7.2 1 9.1-15.4 9.1-15.4 0 0 24.9-1.8 32.3-26.7 0 0 6.2 12.9 22.1 20.2 0 0-0.9-27.2-22.4-32.7 0 0-26.7-10-41.9 11.1-15.3 21.1-4 42.9 0.8 43.5z"/>
								</g>
								<path id="&lt;Path&gt;" class="s1" d="m244.2 495.8c0.1 3.8-0.8 7.6-2.4 11.2-1.5 3.5-3.7 6.8-6.6 9.5-0.6 0.7-1.5 1.2-2.2 1.8l-1.2 0.9q-0.6 0.4-1.2 0.8c-0.8 0.5-1.6 1-2.5 1.5q-1.3 0.6-2.7 1.1c-0.4 0.2-0.8 0.4-1.3 0.5l-1.4 0.4-2.7 0.8c-1.9 0.4-3.8 0.6-5.7 0.9 1.8-0.7 3.7-1.1 5.4-1.7l2.7-1 1.3-0.5q0.6-0.3 1.2-0.6 1.2-0.7 2.5-1.3c0.8-0.4 1.5-1 2.3-1.5l1.2-0.7 1-0.9c0.7-0.6 1.5-1.1 2.1-1.8 2.8-2.5 4.9-5.5 6.6-8.8q1.3-2.5 2.2-5.1 0.9-2.7 1.4-5.5z"/>
							</g>
							<g id="&lt;Group&gt;">
								<g id="&lt;Group&gt;">
									<path id="&lt;Path&gt;" class="s11" d="m206.5 539c0 0-7-12.9-12.7-10.5-5.8 2.3-1.5 20.4 4.6 23.5 6.1 3.1 9-2.5 9-2.5z"/>
									<path id="&lt;Path&gt;" class="s1" d="m195.1 533.6c-0.1 0-0.1 0.1 0 0.2 4.2 2.3 6.1 6.7 7.2 11.2-1.1-1.8-2.8-2.9-5.2-1.6-0.1 0.1 0 0.3 0.1 0.3 1.9-0.2 3.1 0.2 4.2 1.9 0.8 1.1 1.2 2.5 1.7 3.7 0.2 0.5 0.9 0.3 0.8-0.1q0-0.1 0-0.1c0.8-5.7-2.7-14.2-8.8-15.5z"/>
								</g>
							</g>
							<g id="&lt;Group&gt;">
								<g id="&lt;Group&gt;">
									<path id="&lt;Path&gt;" class="s4" d="m195.5 548.8c-0.1 1.8-4.9-4.8-5.1-5.7-0.2-1-3.6-4-4.3-5.8-0.8-1.9-2.2-7.3-2.2-8.6 0-1.3-2.1-4.6-1.9-6.9 0.3-2.2 2.9-21.9 17.5-34 14.5-12.1 26.4-11.9 26.4-11.9 0 0 8.4-0.7 18.1 0.8 9.6 1.6 21.5 25.7 21.5 26.2 0 0.5-0.8 1.9-0.5 3.4 0.4 1.4 1.7 2.9 0.9 4.2-0.9 1.2 0.7 4.8 0.6 6.2-0.2 1.4-0.6 1.7-0.4 2.7 0.1 1-2.2-24.2-31.1-35.5 0 0-37.6 25.7-39.5 64.9z"/>
									<path id="&lt;Path&gt;" class="s4" d="m266 519.1q0 0.1 0.1 0.3 0 0.1-0.1-0.3z"/>
									<path id="&lt;Path&gt;" class="s4" d="m266 519.1q0 0.1 0.1 0.3 0 0.1-0.1-0.3z"/>
									<path id="&lt;Compound Path&gt;" fill-rule="evenodd" class="s14" d="m256.7 489.3q0.6-0.1 1.1 0 1 1.5 1.9 3 0 0 0 0c-0.2 1-0.9 1.8-2 2-1.4 0.3-2.7-0.6-3-2-0.2-1.4 0.7-2.7 2-3zm-12.4-3.1c1.4-0.3 2.7 0.6 3 2 0.1 0.7 0 1.5-0.5 2q-2-1.4-4.3-2.7c0.4-0.7 1-1.2 1.8-1.3zm15.6 14.7c1.4-0.3 2.7 0.6 3 2 0.2 1.3-0.5 2.5-1.7 2.9q-1.2-2-2.7-4.1 0.6-0.6 1.4-0.8zm-49.9-20.2q0.4 0.4 0.5 1.1c0.3 1.4-0.6 2.7-2 3-1.2 0.2-2.4-0.5-2.8-1.6q2.2-1.5 4.3-2.5zm-3.8 20.9c1.4-0.2 2.7 0.7 3 2 0.3 1.4-0.6 2.8-2 3-1.4 0.3-2.7-0.6-3-2-0.2-1.4 0.7-2.7 2-3zm31.3-25.6q2.3 0.1 4.8 0.5c0.3 1.4-0.6 2.7-2 3-1.3 0.2-2.7-0.7-2.9-2q-0.2-0.8 0.1-1.5zm-12.3 3c1.3-0.3 2.7 0.6 2.9 2 0.3 1.4-0.6 2.7-2 3-1.4 0.2-2.7-0.7-3-2-0.2-1.4 0.7-2.7 2.1-3zm-8.4 11.5c1.4-0.2 2.7 0.7 3 2 0.3 1.4-0.6 2.8-2 3-1.4 0.3-2.7-0.6-3-2-0.2-1.4 0.7-2.7 2-3zm-19.2 1.1c1.4-0.2 2.7 0.7 3 2.1 0.3 1.3-0.6 2.7-2 2.9-1.4 0.3-2.7-0.6-3-2-0.3-1.4 0.6-2.7 2-3zm-1.9 19.3c1.4-0.3 2.7 0.6 3 2 0.3 1.4-0.6 2.7-2 3-1.4 0.2-2.7-0.7-3-2-0.3-1.4 0.6-2.7 2-3zm-0.5 28.7q0.7-0.2 1.4 0.1-0.5 2.4-0.8 4.9c-1.3 0.1-2.4-0.8-2.7-2-0.2-1.4 0.7-2.8 2.1-3zm7.8-19.8q0.3-0.1 0.6 0-1 2-2 4.1-0.4-0.4-0.6-1.1c-0.2-1.4 0.7-2.7 2-3zm-15.1-17c0.9 0.2 1.7 1 1.9 2 0.3 1.4-0.6 2.7-2 3-0.7 0.1-1.4-0.1-2-0.5q0.9-2.2 2.1-4.5zm3.3 22.4c1.4-0.3 2.7 0.6 3 2 0.2 1.3-0.7 2.7-2.1 2.9-1.3 0.3-2.7-0.6-2.9-2-0.3-1.3 0.6-2.7 2-2.9zm-5.4 7.9c0.2 0.8 0 1.5-0.5 2-0.3-1.2-0.7-2.6-1-3.8 0.8 0.3 1.4 1 1.5 1.8zm-2.7-17.1c1.2 0 2.2 0.8 2.4 2 0.3 1.4-0.6 2.7-2 3q-0.7 0.1-1.3-0.1c0.1-1.1 0.4-2.8 0.9-4.9z"/>
									<g id="&lt;Group&gt;">
										<path id="&lt;Path&gt;" class="s15" d="m190.4 543.1c-0.1-1.8 0.2-3.6 0.4-5.4q0.3-2.7 0.8-5.3c0.6-3.6 1.3-7.1 2.1-10.6 0.2-0.9 0.4-1.8 0.6-2.6 0.3-0.8 0.8-1.6 1.2-2.4 1-1.5 2.1-2.9 3.1-4.4q1.6-2.2 3.2-4.3l3.3-4.4q-3.6 4.1-6.9 8.4-1.7 2.1-3.1 4.4c-0.5 0.8-1 1.6-1.3 2.5-0.3 0.9-0.5 1.7-0.7 2.6q-1.2 5.3-2 10.7-0.3 2.7-0.6 5.4-0.1 1.3-0.2 2.7c0 0.9 0 1.8 0.1 2.7z"/>
										<path id="&lt;Path&gt;" class="s15" d="m195.5 506.3c-1.6 1.5-3 3.1-4.3 4.8q-2 2.5-3.7 5.3c-1 1.9-2 3.8-2.7 5.9-0.6 2.1-1 4.3-0.9 6.4q0.1-0.8 0.2-1.6 0-0.4 0.1-0.8l0.2-0.8q0-0.4 0.1-0.7l0.3-0.8c0.1-0.5 0.3-1 0.5-1.5l0.6-1.5 0.7-1.4c0.2-0.5 0.4-1 0.7-1.5q0.4-0.7 0.8-1.4c1-1.8 2.2-3.6 3.5-5.3q0.9-1.3 1.9-2.6 1-1.3 2-2.5z"/>
										<path id="&lt;Path&gt;" class="s15" d="m264.8 505.1c-0.7-1.9-1.9-3.6-2.9-5.4q-1.7-2.6-3.5-5.1c-1.2-1.6-2.3-3.3-3.7-4.8-1.4-1.5-3.1-2.8-4.8-3.9q1.2 1 2.3 2 1.1 1 2.1 2.2c0.6 0.8 1.2 1.6 1.8 2.4l1.8 2.5 3.6 5q0.9 1.2 1.7 2.5c0.6 0.8 1.1 1.7 1.6 2.6z"/>
										<path id="&lt;Path&gt;" class="s15" d="m265.6 511.4c-0.4-1.5-1-2.8-1.6-4.1q-1-2.1-2.1-4c-0.4-0.6-0.8-1.2-1.3-1.8q-0.7-0.9-1.4-1.7l-1.4-1.7q-0.8-0.8-1.5-1.6c0.4 0.6 0.8 1.2 1.2 1.8l1.3 1.8q0.7 0.9 1.4 1.7 0.6 0.9 1.2 1.9c0.7 1.2 1.4 2.5 2.1 3.8q0.6 0.9 1.1 1.9 0.5 1 1 2z"/>
									</g>
									<path id="&lt;Path&gt;" class="s15" d="m202.5 485.4c4.8 2.6 15.7 8.4 18.4 8.4 0.6 0.1 1.5-0.1 2.6-0.2 6.5-6.3 11.5-9.7 11.5-9.7 3.6 1.4 6.8 3.1 9.6 4.9 3.4-1.7 7.1-4.5 8.5-5.6-3-3.4-6.2-6-9.1-6.5-9.7-1.5-18.1-0.8-18.1-0.8 0 0-10.3-0.2-23.4 9.5z"/>
								</g>
								<g id="&lt;Group&gt;">
									<g id="&lt;Group&gt;">
										<path id="&lt;Path&gt;" class="s4" d="m233.7 478.3c0 0 11.3-11.9 25.5-10.6 0 0-3.4 13.6-9.3 17.2-2.8 1.7-13.9 0.4-14.8-1.7-0.9-2.1-1.4-4.9-1.4-4.9z"/>
										<path id="&lt;Compound Path&gt;" fill-rule="evenodd" class="s14" d="m246.5 469.8c0.5 0.7 1.5 1 2.4 0.9 1.2-0.3 2-1.2 2.1-2.4q-2.4 0.6-4.5 1.5zm5.7 9.8c0.1 0.8 0.6 1.4 1.2 1.7 1-1.3 1.8-2.8 2.5-4.4-0.5-0.3-1.1-0.4-1.7-0.3-1.4 0.3-2.3 1.6-2 3zm-14.8-2.1c0.2 1.3 1.5 2.2 2.9 2 1.4-0.3 2.3-1.6 2-3-0.2-1.4-1.6-2.3-2.9-2-1.4 0.3-2.3 1.6-2 3z"/>
										<path id="&lt;Path&gt;" class="s15" d="m233.7 478.3c0 0 0.5 2.8 1.4 4.9q0 0.1 0.2 0.3 0 0.1 0.2 0.2c0.1 0.1 0.2 0.1 0.3 0.2 1.1 0.7 3.4 1.3 5.9 1.6 0.1-2 0.1-4.5-0.2-6.3-0.3-1.6-1.8-3.3-3.4-4.7-2.8 2.1-4.4 3.8-4.4 3.8z"/>
									</g>
									<g id="&lt;Group&gt;">
										<path id="&lt;Path&gt;" class="s4" d="m229.9 479.5c0 0-18.7-7-28.8-4.8 0 0 2.9 11.1 12.1 15.6 4.1 2.1 18.4-3.2 18.2-5.6-0.2-2.4-1.5-5.2-1.5-5.2z"/>
										<path id="&lt;Compound Path&gt;" fill-rule="evenodd" class="s14" d="m207.6 479.8c1.3-0.3 2.7 0.6 2.9 2 0.3 1.4-0.6 2.7-2 3-1.4 0.2-2.7-0.7-3-2-0.2-1.4 0.7-2.7 2.1-3zm17.6-0.8c1.3-0.3 2.7 0.6 2.9 2 0.3 1.4-0.6 2.7-2 3-1.4 0.2-2.7-0.7-3-2-0.2-1.4 0.7-2.7 2.1-3zm-8.4 11.5q0.7-0.1 1.3 0.1-1.1 0.2-2 0.2 0.3-0.2 0.7-0.3z"/>
										<path id="&lt;Path&gt;" class="s15" d="m225.6 478c-0.7 1.7-1.4 4.3-1 6.5 0.3 1.2 1 2.5 1.9 3.7 2.9-1.2 5-2.5 4.9-3.5-0.2-2.4-1.5-5.2-1.5-5.2 0 0-1.6-0.7-4.3-1.5z"/>
									</g>
									<path id="&lt;Path&gt;" class="s4" d="m227 483.4c1 3.5 4.5 5.5 8 4.5 3.4-0.9 5.5-4.5 4.5-8-1-3.4-4.6-5.4-8-4.5-3.5 1-5.5 4.6-4.5 8z"/>
								</g>
							</g>
						</g>
					</g>
					<g id="&lt;Group&gt;">
						<path id="&lt;Path&gt;" class="s16" d="m169 600.3c-29.6 54.1-56.5 157.7-41.6 172.9 16.6 16.9 57.6-58.7 56.4-62.1-1-2.6 4-62.3 8.3-105.9 4.2-43.5-15.8-18.2-23.1-4.9z"/>
						<g id="&lt;Group&gt;">
							<g id="&lt;Group&gt;">
								<path id="&lt;Path&gt;" class="s4" d="m184.2 711c0.1-6.2 7.5-85.2 9-109.9 1.3-22.2-4.8-29.4-18-12.1-24.2 31.8-65.1 119.8-66 159.5-0.9 38.2 29.1 32.8 48.3 9.8 15.7-18.9 26.7-47.3 26.7-47.3z"/>
							</g>
							<g id="&lt;Group&gt;">
								<g id="&lt;Group&gt;">
									<path id="&lt;Path&gt;" class="s1" d="m183.2 721.2c1.5-29.1 4.1-59.6 7.6-88.6-1.5 29.2-4.1 59.7-7.6 88.6z"/>
								</g>
								<g id="&lt;Group&gt;">
									<path id="&lt;Path&gt;" class="s1" d="m189.6 649.8c0.2-4 1.5-7.7 3.4-11.2 0.1 4-1.2 7.8-3.4 11.2z"/>
								</g>
							</g>
						</g>
					</g>
					<g id="&lt;Group&gt;">
						<g id="&lt;Group&gt;">
							<path id="&lt;Path&gt;" class="s11" d="m129.5 771.6c15.9 6 39.2-6.8 101-33.6 8.6-3.7-1.3-71.1-10.7-67.6-11.7 4.4-56.4 24-59.5 25.8-26 15.6-41.6 71.4-30.8 75.4z"/>
							<g id="&lt;Group&gt;">
								<path id="&lt;Path&gt;" class="s11" d="m221.8 661.3c19.3-8.8 25.6-8 37.9-24 8.1-10.5 18.3-9.8 15.9 3.8-3.9 22.2-26.4 38.6-35.8 42.1z"/>
								<g id="&lt;Group&gt;">
									<path id="&lt;Path&gt;" class="s11" d="m174.2 696.3c0 0 18.8-19.2 38.4-30.5 13.6-7.8 43.7-19.1 85.7 1.5 11 5.4 17.5 20.9-0.7 16.6-13.3-3.1-20.2-7.5-28.2-7.4 0 0 10.3 20.1 4.5 29.5-2.6 4.2-10 15.6-17.1 23.6 0 0-2.1-1-4.7-2.8 0 0-6.3 8.3-21.8 11.3z"/>
								</g>
								<g id="&lt;Group&gt;">
									<path id="&lt;Path&gt;" class="s11" d="m226.8 660.4c8 1.6 25 5.2 37.9 13.1 14.3 8.7 39.5 29.2 33 39.7-4.8 7.7-15.1 0.7-15.1 0.7 0 0 8.6 10.7 2.8 16.7-5.4 5.5-13-0.4-13-0.4 0 0 4.1 7.4-2 11.6-7.4 5.2-14.8-11.1-26.8-12.4-2.7-0.3-16.8-69-16.8-69z"/>
									<g id="&lt;Group&gt;">
										<g id="&lt;Group&gt;">
											<path id="&lt;Path&gt;" class="s1" d="m253 687c7.3 2.8 22.4 13.2 29.6 26.6 0.2 0.3 0 0.5-0.2 0.3-11.1-13-23.8-22.9-29.5-26.7-0.1-0.1 0-0.2 0.1-0.2z"/>
										</g>
										<g id="&lt;Group&gt;">
											<path id="&lt;Path&gt;" class="s1" d="m244.6 701.7c6.1 3 21.1 14.5 28 28.3 0.2 0.3 0 0.5-0.2 0.3-11-14-22.4-24.2-27.8-28.4-0.1-0.1 0-0.2 0-0.2z"/>
										</g>
									</g>
								</g>
							</g>
						</g>
						<g id="&lt;Group&gt;">
							<path id="&lt;Path&gt;" class="s4" d="m205.6 668.6l-4.6 98.7c0 0-69.2 15.1-82.6 6.4-9.5-6.2 12.4-59.1 40.7-77.2z"/>
							<path id="&lt;Path&gt;" class="s1" d="m133.4 729.7c1.5-6.4 9.5-22.6 25.7-33.3 0.1-0.1 0.3 0.1 0.2 0.2-11.3 9.2-23.7 27.1-25.7 33.2 0 0.2-0.3 0.1-0.2-0.1z"/>
							<path id="&lt;Path&gt;" class="s1" d="m184.7 757.4c-0.3-9.5-0.1-19.1 0.1-28.6 0.2-9.6 0.5-19.1 0.9-28.7 0.3-5.3 0.5-10.7 1-16.1 0-0.2 0.2-0.2 0.2 0 0.3 9.5 0.2 19 0 28.6q-0.2 14.3-0.8 28.6-0.3 8.1-0.9 16.2c0 0.3-0.5 0.3-0.5 0z"/>
							<path id="&lt;Path&gt;" class="s1" d="m205.1 667.9c-3.4 1.5-6.6 3.4-9.8 5.2q-4.8 2.8-9.6 5.8c-6.3 3.8-20.1 11.3-30.3 20.2-0.1 0.1 1 0.1 1.1 0 4.6-4.4 45.4-27.5 48.5-29.8q0 0.5 0.2 0.9c0 0.2 0.3 0.2 0.4 0 0.2-0.6 0.1-1.1 0.3-1.6 0-0.5-0.3-0.9-0.8-0.7z"/>
							<g id="&lt;Group&gt;">
								<path id="&lt;Path&gt;" class="s1" d="m202.1 750.5c0 5.8-0.2 11.5-0.4 17.3-14.3 3.2-28.7 5.6-43.2 7.3-9.7 0.8-35.5 4.3-42.3-2.7 7.4 6.8 42 0.6 52.8-0.6 10.3-1.5 21.6-3.4 31.9-5.2 0 0-0.6 0.6-0.6 0.6 0.5-5.6 1.1-11.1 1.8-16.7z"/>
							</g>
						</g>
					</g>
					<g id="&lt;Group&gt;">
						<g id="&lt;Group&gt;">
							<g id="&lt;Group&gt;">
								<path id="&lt;Path&gt;" class="s7" d="m225.5 750.1v7h156.7v-7z"/>
							</g>
							<g id="&lt;Group&gt;">
								<path id="&lt;Path&gt;" class="s8" d="m293 750.1l-5.4 7h128.6v-7z"/>
							</g>
							<g id="&lt;Group&gt;">
								<path id="&lt;Path&gt;" class="s8" d="m299.7 757.1h152.8l31-103.8h-152.8z"/>
								<path id="&lt;Path&gt;" class="s7" d="m305 757.1h152.8l31-103.8h-152.8z"/>
								<path id="&lt;Path&gt;" class="s6" d="m390.6 705.2c-1 5.2 2.3 9.3 7.5 9.3 5.1 0 10.1-4.1 11.1-9.3 1-5.1-2.4-9.3-7.5-9.3-5.2 0-10.1 4.2-11.1 9.3z"/>
							</g>
						</g>
					</g>
				</g>
			</g>
		</g>
	</g>
	<g id="Speech Bubble">
		<g id="&lt;Group&gt;">
			<g id="&lt;Group&gt;">
				<path id="&lt;Path&gt;" class="s6" d="m268.6 382v86.8h12.2v21l21-21h115.5v-86.8z"/>
				<path id="&lt;Compound Path&gt;" fill-rule="evenodd" class="s1" d="m268.6 382c37-0.3 111.6-0.7 148.7-0.7 0 0 0.7 0 0.7 0v0.7l0.3 86.8v0.9h-1c-33.3 0.1-81.4-0.2-115.2-0.2l-20.9 20.8-1.1 1.1v-1.6l0.1-20.5h-11.6-0.6c-0.1-25.5 0.5-61.5 0.6-87.3zm33.5 87.5l0.2-0.2c0 0-0.5 0.2-0.5 0.2q0.2 0 0.3 0zm-21.9-0.2h0.6l-0.6-0.5zm-11.6-87.4l0.3 43.5c0.1 14.3 0.2 28.5 0.3 42.7h11.6 0.6v0.6 19.4l19.9-20c0.2-0.2 0.2-0.2 0.5-0.2 33.7-0.1 81.1-0.3 114.5-0.2l0.3-85.1c-37.3 0-111.2-0.4-148-0.7zm0.6 86.2h-0.6l0.6 0.6q0-0.3 0-0.6zm12.2 20l-1.1 1.1 1.1 0.5zm134.9-20.4v0.9c0 0 1-0.9 1-0.9q-0.5 0-1 0zm0.3-85.1q0.3 0 0.7 0l-0.7-0.7z"/>
			</g>
			<g id="&lt;Group&gt;">
				<path id="&lt;Compound Path&gt;" class="s4" d="m323 439.3c1.4 1.4 1.4 3.6 0 5.1q-1.1 1-2.5 1c-1 0-1.9-0.4-2.6-1l-15.9-16.2c-0.2 0-0.2-0.1-0.3-0.3-0.1-0.1-0.2-0.1-0.2-0.1-0.1-0.2-0.1-0.3-0.1-0.5-0.2 0-0.2-0.1-0.2-0.2-0.1-0.1-0.1-0.3-0.1-0.3 0-0.2-0.1-0.3-0.1-0.3q0-0.3 0-0.4c0-0.1-0.1-0.2-0.1-0.4 0 0 0.1-0.2 0.1-0.2 0-0.2 0-0.3 0-0.4 0-0.2 0.1-0.2 0.1-0.3 0-0.1 0-0.2 0.1-0.4 0-0.1 0-0.1 0-0.1 0.2-0.2 0.2-0.4 0.3-0.5 0 0 0-0.2 0.1-0.2 0.1-0.1 0.2-0.2 0.4-0.4l15.9-16.1c1.4-1.3 3.7-1.3 5.1 0 1.4 1.4 1.4 3.7 0 5.1l-13.4 13.5z"/>
				<path id="&lt;Compound Path&gt;" class="s4" d="m337.4 441.1l13.9-33c0.6-1.6 2.4-2.3 4.1-1.7 1.5 0.7 2.3 2.5 1.6 4.1l-13.9 33c-0.5 1.2-1.7 1.9-2.9 1.9-0.3 0-0.8-0.1-1.1-0.2-1.7-0.7-2.4-2.5-1.7-4.1z"/>
				<path id="&lt;Compound Path&gt;" class="s4" d="m384.4 427.8c0 0 0 0-0.1 0-0.1 0.1-0.2 0.3-0.4 0.4l-15.9 16.2c-0.7 0.6-1.6 1-2.5 1q-1.5 0-2.6-1c-1.4-1.5-1.4-3.7 0-5.1l13.4-13.6-13.4-13.5c-1.4-1.4-1.4-3.7 0-5.1 1.4-1.3 3.7-1.3 5.1 0l15.9 16.1c0.2 0.2 0.3 0.3 0.4 0.4 0.1 0 0.1 0.2 0.1 0.2 0.1 0.2 0.2 0.3 0.2 0.5 0 0 0.1 0 0.1 0.1 0.1 0.2 0.1 0.3 0.2 0.5 0 0 0 0 0 0.2 0 0.1 0 0.2 0 0.4 0 0 0.1 0.2 0.1 0.2 0 0.1-0.1 0.3-0.1 0.3 0 0.2 0 0.3 0 0.5 0 0 0 0 0 0.1-0.1 0.2-0.1 0.4-0.2 0.5 0 0.1-0.1 0.1-0.1 0.2q-0.1 0.1-0.2 0.5z"/>
			</g>
		</g>
	</g>
</svg>