<svg version="1.2" xmlns="http://www.w3.org/2000/svg" viewBox="0 0 1500 1000" width="1500" height="1000">
	<title>4498902-ai</title>
	<style>
		.s0 { fill: #ffffff } 
		.s1 { fill: #e0e0e0 } 
		.s2 { fill: #ebebeb } 
		.s3 { fill: #f5f5f5 } 
		.s4 { fill: #455a64 } 
		.s5 { fill: #263238 } 
		.s6 { fill:  #BA68C8 } 
		.s7 { fill: #fafafa } 
		.s8 { fill: #000000 } 
		.s9 { opacity: .3;fill: #000000 } 
		.s10 { fill: #ffbe9d } 
		.s11 { fill: #eb996e } 
	</style>
	<g id="Background Complete">
		<g id="&lt;Group&gt;">
			<g id="&lt;Group&gt;">
				<g id="&lt;Group&gt;">
					<g id="&lt;Group&gt;">
						<path id="&lt;Path&gt;" class="s0" d="m352.8 363.1h-304.6v-203.9h304.6z"/>
					</g>
				</g>
				<g id="&lt;Group&gt;">
					<g id="&lt;Group&gt;">
						<g id="&lt;Group&gt;">
							<path id="&lt;Path&gt;" class="s1" d="m352.8 363.1c0 0 0-1.2-0.1-3.7q0-3.7 0-10.7c0-9.5-0.1-23.3-0.1-41.1-0.1-35.4-0.2-86.3-0.3-148.4l0.5 0.4c-83.9 0.1-189.8 0.1-304.6 0.1l0.5-0.5c0 72.6 0 141.7 0 203.9l-0.5-0.5c89.7 0.1 165.7 0.2 219.4 0.3 26.9 0 48.2 0.1 62.7 0.1 7.3 0 12.9 0.1 16.7 0.1q2.8 0 4.3 0 1.5 0 1.5 0 0 0-1.4 0.1-1.5 0-4.3 0c-3.8 0-9.3 0-16.6 0.1-14.5 0-35.7 0-62.5 0.1-53.8 0-130 0.1-219.8 0.2h-0.5v-0.5c0-62.2 0-131.3-0.1-203.9v-0.6h0.6c114.8 0.1 220.7 0.1 304.6 0.2h0.4v0.4c-0.1 62.2-0.2 113.2-0.2 148.7-0.1 17.7-0.1 31.5-0.1 40.9q-0.1 7.1-0.1 10.7 0 3.6 0 3.6z"/>
						</g>
					</g>
				</g>
			</g>
			<g id="&lt;Group&gt;">
				<g id="&lt;Group&gt;">
					<g id="&lt;Group&gt;">
						<path id="&lt;Path&gt;" class="s1" d="m48.2 177.4c0-0.3 68.1-0.6 152.2-0.6 84 0 152.1 0.3 152.1 0.6 0 0.3-68.1 0.5-152.1 0.5-84.1 0-152.2-0.2-152.2-0.5z"/>
					</g>
				</g>
			</g>
			<g id="&lt;Group&gt;">
				<g id="&lt;Group&gt;" style="opacity: .3">
					<g id="&lt;Group&gt;">
						<path id="&lt;Path&gt;" class="s1" d="m60.2 168.2c0 1.4-1.1 2.4-2.4 2.4-1.4 0-2.5-1-2.5-2.4 0-1.3 1.1-2.4 2.5-2.4 1.3 0 2.4 1.1 2.4 2.4z"/>
					</g>
				</g>
				<g id="&lt;Group&gt;" style="opacity: .3">
					<g id="&lt;Group&gt;">
						<path id="&lt;Path&gt;" class="s1" d="m68.6 168.2c0 1.4-1.1 2.4-2.5 2.4-1.3 0-2.4-1-2.4-2.4 0-1.3 1.1-2.4 2.4-2.4 1.4 0 2.5 1.1 2.5 2.4z"/>
					</g>
				</g>
				<g id="&lt;Group&gt;" style="opacity: .3">
					<g id="&lt;Group&gt;">
						<path id="&lt;Path&gt;" class="s1" d="m76.8 168.2c0 1.4-1.1 2.4-2.4 2.4-1.4 0-2.5-1-2.5-2.4 0-1.3 1.1-2.4 2.5-2.4 1.3 0 2.4 1.1 2.4 2.4z"/>
					</g>
				</g>
			</g>
			<g id="&lt;Group&gt;">
				<g id="&lt;Group&gt;">
					<path id="&lt;Path&gt;" class="s1" d="m155.6 279.9h-81.2v-81.2h81.2z"/>
				</g>
			</g>
			<g id="&lt;Group&gt;">
				<g id="&lt;Group&gt;">
					<g id="&lt;Group&gt;">
						<path id="&lt;Path&gt;" class="s1" d="m311 221.6c0 0.3-31.7 0.6-70.8 0.6-39 0-70.7-0.3-70.7-0.6 0-0.3 31.7-0.5 70.7-0.5 39.1 0 70.8 0.2 70.8 0.5z"/>
					</g>
				</g>
			</g>
			<g id="&lt;Group&gt;">
				<g id="&lt;Group&gt;">
					<g id="&lt;Group&gt;">
						<path id="&lt;Path&gt;" class="s1" d="m311 236.7c0 0.3-31.7 0.6-70.8 0.6-39 0-70.7-0.3-70.7-0.6 0-0.3 31.7-0.5 70.7-0.5 39.1 0 70.8 0.2 70.8 0.5z"/>
					</g>
				</g>
			</g>
			<g id="&lt;Group&gt;">
				<g id="&lt;Group&gt;">
					<g id="&lt;Group&gt;">
						<path id="&lt;Path&gt;" class="s1" d="m311 251.8c0 0.3-31.7 0.6-70.8 0.6-39 0-70.7-0.3-70.7-0.6 0-0.3 31.7-0.5 70.7-0.5 39.1 0 70.8 0.2 70.8 0.5z"/>
					</g>
				</g>
			</g>
			<g id="&lt;Group&gt;">
				<g id="&lt;Group&gt;">
					<g id="&lt;Group&gt;">
						<path id="&lt;Path&gt;" class="s1" d="m253.1 266.9c0 0.1-1.1 0.2-3.3 0.2-2.3 0.1-5.3 0.1-8.9 0.2-7.6 0.1-18.1 0.2-29.6 0.2-11.6 0-22-0.1-29.6-0.2-3.6-0.1-6.6-0.1-8.9-0.2-2.2 0-3.3-0.1-3.3-0.2 0-0.1 1.1-0.1 3.3-0.2 2.3 0 5.3-0.1 8.9-0.2 7.6-0.1 18-0.1 29.6-0.1 11.5 0 22 0 29.6 0.1 3.6 0.1 6.6 0.2 8.9 0.2 2.2 0.1 3.3 0.1 3.3 0.2z"/>
					</g>
				</g>
			</g>
			<g id="&lt;Group&gt;">
				<g id="&lt;Group&gt;">
					<path id="&lt;Path&gt;" class="s1" d="m117.6 345.5h-38.1v-38.2h38.1z"/>
				</g>
			</g>
			<g id="&lt;Group&gt;">
				<g id="&lt;Group&gt;">
					<path id="&lt;Path&gt;" class="s1" d="m186.9 345.5h-38.2v-38.2h38.2z"/>
				</g>
			</g>
			<g id="&lt;Group&gt;">
				<g id="&lt;Group&gt;">
					<path id="&lt;Path&gt;" class="s1" d="m256.1 345.5h-38.1v-38.2h38.1z"/>
				</g>
			</g>
			<g id="&lt;Group&gt;">
				<g id="&lt;Group&gt;">
					<path id="&lt;Path&gt;" class="s1" d="m325.4 345.5h-38.2v-38.2h38.2z"/>
				</g>
			</g>
		</g>
		<g id="&lt;Group&gt;">
			<g id="&lt;Group&gt;">
				<g id="&lt;Group&gt;">
					<g id="&lt;Group&gt;">
						<path id="&lt;Path&gt;" class="s0" d="m660.1 166.7h-262.4v-106.6h262.4z"/>
					</g>
				</g>
				<g id="&lt;Group&gt;">
					<g id="&lt;Group&gt;">
						<g id="&lt;Group&gt;">
							<path id="&lt;Path&gt;" class="s1" d="m660.1 166.7c0 0 0-0.7 0-1.9q0-1.9-0.1-5.6c0-4.8 0-12 0-21.2-0.1-18.4-0.1-45-0.2-77.9l0.3 0.3c-66.7 0-159.6 0.1-262.4 0.1l0.4-0.4c0 37.3 0 73.3 0 106.6l-0.4-0.4c76.1 0 141.6 0.1 188.2 0.1 23.2 0.1 41.8 0.1 54.5 0.2 6.4 0 11.3 0 14.6 0q2.5 0 3.8 0 1.3 0.1 1.3 0.1 0 0-1.2 0-1.3 0-3.8 0c-3.3 0-8.2 0-14.5 0.1-12.7 0-31.2 0-54.5 0.1-46.6 0-112.2 0.1-188.4 0.2h-0.4v-0.4c0-33.3 0-69.3 0-106.6v-0.4h0.4c102.8 0 195.7 0.1 262.4 0.1h0.3v0.3c-0.1 33-0.1 59.7-0.2 78.1 0 9.2 0 16.3 0 21.1q0 3.6-0.1 5.5 0 1.9 0 1.9z"/>
						</g>
					</g>
				</g>
			</g>
			<g id="&lt;Group&gt;">
				<g id="&lt;Group&gt;">
					<g id="&lt;Group&gt;">
						<path id="&lt;Path&gt;" class="s1" d="m398 74.5c0-0.3 58.6-0.5 131-0.5 72.3 0 131 0.2 131 0.5 0 0.2-58.7 0.4-131 0.4-72.4 0-131-0.2-131-0.4z"/>
					</g>
				</g>
			</g>
			<g id="&lt;Group&gt;">
				<g id="&lt;Group&gt;" style="opacity: .3">
					<g id="&lt;Group&gt;">
						<path id="&lt;Path&gt;" class="s2" d="m409 68c0 1.1-0.9 1.9-1.9 1.9-1.1 0-1.9-0.8-1.9-1.9 0-1 0.8-1.9 1.9-1.9 1 0 1.9 0.9 1.9 1.9z"/>
					</g>
				</g>
				<g id="&lt;Group&gt;" style="opacity: .3">
					<g id="&lt;Group&gt;">
						<path id="&lt;Path&gt;" class="s2" d="m415.5 68c0 1.1-0.8 1.9-1.9 1.9-1.1 0-1.9-0.8-1.9-1.9 0-1 0.8-1.9 1.9-1.9 1.1 0 1.9 0.9 1.9 1.9z"/>
					</g>
				</g>
				<g id="&lt;Group&gt;" style="opacity: .3">
					<g id="&lt;Group&gt;">
						<path id="&lt;Path&gt;" class="s2" d="m421.9 68c0 1.1-0.8 1.9-1.9 1.9-1 0-1.9-0.8-1.9-1.9 0-1 0.9-1.9 1.9-1.9 1.1 0 1.9 0.9 1.9 1.9z"/>
					</g>
				</g>
			</g>
			<g id="&lt;Group&gt;">
				<g id="&lt;Group&gt;">
					<path id="&lt;Path&gt;" class="s1" d="m483.4 155.2h-63.4v-63.4h63.4z"/>
				</g>
			</g>
			<g id="&lt;Group&gt;">
				<g id="&lt;Group&gt;">
					<g id="&lt;Group&gt;">
						<g id="&lt;Group&gt;">
							<path id="&lt;Path&gt;" class="s1" d="m642 108.8c0 0.2-32.7 0.4-72.9 0.4-40.2 0-72.8-0.2-72.8-0.4 0-0.3 32.6-0.5 72.8-0.5 40.2 0 72.9 0.2 72.9 0.5z"/>
						</g>
					</g>
				</g>
				<g id="&lt;Group&gt;">
					<g id="&lt;Group&gt;">
						<g id="&lt;Group&gt;">
							<path id="&lt;Path&gt;" class="s1" d="m642 121.7c0 0.2-32.7 0.4-72.9 0.4-40.2 0-72.8-0.2-72.8-0.4 0-0.3 32.6-0.4 72.8-0.4 40.2 0 72.9 0.1 72.9 0.4z"/>
						</g>
					</g>
				</g>
				<g id="&lt;Group&gt;">
					<g id="&lt;Group&gt;">
						<g id="&lt;Group&gt;">
							<path id="&lt;Path&gt;" class="s1" d="m590.1 134.6q0 0-1 0.1-1.1 0-2.7 0c-2.5 0.1-5.9 0.1-10.1 0.2-8.6 0-20.2 0.1-33.1 0.1-12.9 0-24.6-0.1-33.2-0.1-4.1-0.1-7.5-0.1-10-0.2q-1.7 0-2.8 0-0.9-0.1-0.9-0.1 0-0.1 0.9-0.1 1.1 0 2.8-0.1c2.5 0 5.9-0.1 10-0.1 8.6 0 20.3-0.1 33.2-0.1 12.9 0 24.5 0.1 33.1 0.1 4.2 0 7.6 0.1 10.1 0.1q1.6 0.1 2.7 0.1 1 0 1 0.1z"/>
						</g>
					</g>
				</g>
			</g>
		</g>
		<g id="&lt;Group&gt;">
			<g id="&lt;Group&gt;">
				<g id="&lt;Group&gt;">
					<g id="&lt;Group&gt;">
						<path id="&lt;Path&gt;" class="s1" d="m1368 202.3c0 0 0.5-0.6 1.5-1.7q1.8-1.7 4.3-4.3c3.7-3.6 8.8-8.6 14.5-14l0.2-0.1v0.7c-5.8-5.3-10.9-10.2-14.6-13.8q-2.6-2.5-4.4-4.2c-1-1-1.5-1.6-1.5-1.7 0.1 0 0.7 0.5 1.8 1.4q1.9 1.6 4.6 4c3.8 3.4 9 8.2 14.7 13.5l0.4 0.4-0.4 0.4-0.1 0.1c-5.7 5.4-10.9 10.3-14.7 13.8q-2.7 2.4-4.5 4.1c-1.1 1-1.7 1.5-1.8 1.4z"/>
					</g>
				</g>
			</g>
			<g id="&lt;Group&gt;">
				<g id="&lt;Group&gt;">
					<g id="&lt;Group&gt;">
						<path id="&lt;Path&gt;" class="s1" d="m1323.7 163.2c0.1 0.1-0.4 0.7-1.4 1.7q-1.8 1.8-4.4 4.4c-3.6 3.6-8.7 8.5-14.4 14l-0.2 0.1v-0.7c5.8 5.3 10.9 10.2 14.6 13.7q2.6 2.5 4.3 4.3c1.1 1 1.6 1.6 1.5 1.6 0 0.1-0.6-0.4-1.7-1.4q-1.9-1.6-4.6-4c-3.8-3.4-9-8.2-14.8-13.5l-0.4-0.4 0.4-0.3 0.2-0.2c5.7-5.4 10.9-10.3 14.7-13.8q2.6-2.4 4.5-4.1c1.1-0.9 1.7-1.4 1.7-1.4z"/>
					</g>
				</g>
			</g>
			<g id="&lt;Group&gt;">
				<g id="&lt;Group&gt;">
					<g id="&lt;Group&gt;">
						<path id="&lt;Path&gt;" class="s1" d="m1335.1 211.5c-0.2-0.1 4.4-13.1 10.4-29.2 6-16 11.1-28.9 11.3-28.8 0.3 0.1-4.4 13.2-10.4 29.2-6 16-11 28.9-11.3 28.8z"/>
					</g>
				</g>
			</g>
			<g id="&lt;Group&gt;">
				<g id="&lt;Group&gt;">
					<g id="&lt;Group&gt;">
						<path id="&lt;Path&gt;" class="s1" d="m1418.4 239.5c0 0 0-0.8-0.1-2.2q0-2.2 0-6.3c0-5.5-0.1-13.6-0.1-23.8-0.1-20.5-0.1-49.8-0.2-85.1l0.4 0.4c-41.2 0-90.8 0-144.1 0.1l0.5-0.5c0 42.4-0.1 82.5-0.1 117.4l-0.4-0.5c42.8 0.1 78.7 0.2 104 0.3 12.7 0 22.7 0.1 29.5 0.1q5.1 0 7.9 0 1.3 0.1 2 0.1 0.7 0 0.7 0 0 0-0.7 0-0.7 0-1.9 0-2.7 0.1-7.8 0.1c-6.8 0-16.8 0.1-29.4 0.1-25.4 0.1-61.4 0.1-104.3 0.2h-0.5v-0.4c0-34.9 0-75 0-117.4v-0.5h0.5c53.3 0 102.9 0 144.1 0.1h0.4v0.4c-0.1 35.4-0.2 64.8-0.2 85.4-0.1 10.2-0.1 18.2-0.1 23.7q-0.1 4-0.1 6.2 0 2.1 0 2.1z"/>
					</g>
				</g>
			</g>
			<g id="&lt;Group&gt;">
				<g id="&lt;Group&gt;">
					<g id="&lt;Group&gt;">
						<path id="&lt;Path&gt;" class="s1" d="m1419.5 139.5c0 0.3-32.5 0.5-72.6 0.5-40.2 0-72.7-0.2-72.7-0.5 0-0.3 32.5-0.5 72.7-0.5 40.1 0 72.6 0.2 72.6 0.5z"/>
					</g>
				</g>
			</g>
			<g id="&lt;Group&gt;">
				<g id="&lt;Group&gt;">
					<g id="&lt;Group&gt;">
						<path id="&lt;Path&gt;" class="s1" d="m1286 130.9c0 1.1-0.8 2-1.9 2-1.1 0-1.9-0.9-1.9-2 0-1 0.8-1.9 1.9-1.9 1.1 0 1.9 0.9 1.9 1.9z"/>
					</g>
				</g>
				<g id="&lt;Group&gt;">
					<g id="&lt;Group&gt;">
						<path id="&lt;Path&gt;" class="s1" d="m1293.1 130.9c0 1.1-0.9 2-1.9 2-1.1 0-2-0.9-2-2 0-1 0.9-1.9 2-1.9 1 0 1.9 0.9 1.9 1.9z"/>
					</g>
				</g>
				<g id="&lt;Group&gt;">
					<g id="&lt;Group&gt;">
						<path id="&lt;Path&gt;" class="s1" d="m1300.2 130.9c0 1.1-0.9 2-2 2-1 0-1.9-0.9-1.9-2 0-1 0.9-1.9 1.9-1.9 1.1 0 2 0.9 2 1.9z"/>
					</g>
				</g>
			</g>
		</g>
		<g id="&lt;Group&gt;">
			<g id="&lt;Group&gt;">
				<g id="&lt;Group&gt;">
					<g id="&lt;Group&gt;">
						<path id="&lt;Path&gt;" class="s2" d="m1385.2 755.8c8.3-4.3 18.1-4.9 27.4-3.3 4.9 0.8 10.1 2.3 13.5 6 3.4 3.7 4 10.3 0.1 13.5-2.3 1.9-5.5 2.2-8.5 2.2-7.2-0.1-15.3-1.4-21.1 3-3.3 2.5-5.4 6.6-9.4 7.8-3.9 1.2-8.2-1.1-10.3-4.6-2-3.4-2.1-7.8-1.1-11.7 0 0 1-8.6 9.4-12.9z"/>
					</g>
				</g>
				<g id="&lt;Group&gt;">
					<g id="&lt;Group&gt;">
						<path id="&lt;Path&gt;" class="s2" d="m1366.1 719c5.1 7.2 15 4.8 19.6 0.4 4.6-4.4 6.5-10.9 8.3-17 4-14 8.1-28.7 5.1-43-0.9-4.3-2.5-8.5-5.5-11.7-3-3.2-7.6-5-11.8-3.9-5 1.3-8.1 6.2-10.4 10.8-6.6 13.7-10.1 28.8-10.1 44 0 7.1 0.8 14.5 4.8 20.4z"/>
					</g>
				</g>
				<g id="&lt;Group&gt;">
					<g id="&lt;Group&gt;">
						<path id="&lt;Path&gt;" class="s2" d="m1352.1 729.4c5.6-6.6 6.6-16.1 4.1-24.3-2.4-8.3-8-15.3-14.4-21-7.5-6.7-16.3-11.9-25.8-15.2-3.7-1.3-7.7-2.3-11.6-2-4 0.4-7.9 2.4-9.8 5.9-2.7 5.2-0.1 11.5 2.7 16.6 5 9.1 10.7 17.7 17 25.9 5.1 6.5 10.9 13 18.7 15.9 7.7 3 15.8 2.7 19.9-2.7"/>
					</g>
				</g>
				<g id="&lt;Group&gt;">
					<g id="&lt;Group&gt;">
						<g id="&lt;Group&gt;">
							<path id="&lt;Path&gt;" class="s1" d="m1365.8 828.7c0.1 0 0.2-1.2 0.4-3.3q0.4-3.7 0.9-9.1c0.4-3.7 1-8.3 2-13.2 1.1-4.9 2.7-10.2 4.8-15.6 2.2-5.3 4.9-10.2 8-14.1 3.1-3.9 6.7-6.8 10.1-8.4 3.4-1.7 6.4-2.3 8.5-2.6 2.1-0.3 3.3-0.4 3.3-0.5 0-0.1-1.2-0.1-3.4-0.1-2.1 0.2-5.3 0.7-8.8 2.3-3.6 1.6-7.4 4.5-10.7 8.5-3.2 4-6 8.9-8.2 14.4-2.2 5.5-3.8 10.9-4.8 15.9-1 5-1.5 9.5-1.8 13.4-0.2 3.8-0.4 6.9-0.4 9-0.1 2.2 0 3.4 0.1 3.4z"/>
						</g>
					</g>
				</g>
				<g id="&lt;Group&gt;">
					<g id="&lt;Group&gt;">
						<g id="&lt;Group&gt;">
							<path id="&lt;Path&gt;" class="s1" d="m1366.4 821.7q0.1 0 0.1-1.5 0-1.7 0-4.4c-0.1-3.8-0.1-9.3 0.2-16.1 0.3-13.6 1.5-28.2 3.7-48.9 2.2-19.4 5-42 8.1-56.6q1-5.1 1.9-9c0.6-2.6 1.1-4.9 1.6-6.8q0.6-2.5 1-4.2 0.3-1.5 0.3-1.5-0.1 0-0.6 1.4-0.5 1.7-1.2 4.2c-0.6 1.8-1.2 4.1-1.8 6.7q-1.1 4-2.2 9c-3 13.3-6.2 31.9-8.4 52.5-2.3 20.7-3.3 39.6-3.4 53.2-0.1 6.8 0.1 12.3 0.2 16.1q0.2 2.7 0.3 4.4 0.1 1.5 0.2 1.5z"/>
						</g>
					</g>
				</g>
				<g id="&lt;Group&gt;">
					<g id="&lt;Group&gt;">
						<g id="&lt;Group&gt;">
							<path id="&lt;Path&gt;" class="s1" d="m1366.5 785.4c0.1 0 0-1.6-0.1-4.6-0.1-2.9-0.5-7.2-1.4-12.4-0.8-5.2-2.1-11.3-4-18-0.8-3.1-2.8-10.5-7.6-21.4-6.2-14.9-14.8-27.1-22.2-34.6-1.7-2-3.6-3.5-5.2-4.9-0.8-0.6-1.5-1.3-2.2-1.9q-1.1-0.7-2-1.4c-2.5-1.6-3.8-2.5-3.9-2.4-0.2 0.3 5.5 3.6 12.6 11.3 7.2 7.6 15.5 19.6 21.7 34.4 3.5 8 5.9 15.1 7.6 21.2 2 6.6 3.3 12.7 4.3 17.9 0.9 5.2 1.5 9.4 1.8 12.3 0.3 2.9 0.5 4.5 0.6 4.5z"/>
						</g>
					</g>
				</g>
			</g>
			<g id="&lt;Group&gt;">
				<g id="&lt;Group&gt;">
					<path id="&lt;Path&gt;" class="s1" d="m1331.4 849.5l3.6 49.8h64.1l3.6-49.8z"/>
				</g>
			</g>
			<g id="&lt;Group&gt;">
				<g id="&lt;Group&gt;">
					<path id="&lt;Path&gt;" class="s1" d="m1325.2 829.8v19.7h85.1v-19.7z"/>
				</g>
			</g>
			<g id="&lt;Group&gt;">
				<g id="&lt;Group&gt;">
					<path id="&lt;Path&gt;" class="s2" d="m1325.2 897.4v5.5h4 79.7v-5.5z"/>
				</g>
			</g>
			<g id="&lt;Group&gt;">
				<g id="&lt;Group&gt;">
					<path id="&lt;Path&gt;" class="s1" d="m1333.1 912.4l-3.9-9.5h76.7l-4.6 9.5z"/>
				</g>
			</g>
			<g id="&lt;Group&gt;">
				<g id="&lt;Group&gt;">
					<g id="&lt;Group&gt;">
						<path id="&lt;Path&gt;" class="s3" d="m1401.5 865.8q0 0-0.3 0.4-0.4 0.5-1 1.3-1.3 1.7-3.7 4.8l-0.1 0.2-0.2-0.2c-2.4-3.3-5.5-7.6-9.2-12.7h0.6c-2.8 3.8-5.8 8.1-9.1 12.8l-0.3 0.4-0.3-0.4c-3.3-4-6.9-8.3-10.7-12.7l0.6-0.1q-0.2 0.4-0.5 0.8c-3.4 4.1-6.6 8.2-9.6 12l-0.3 0.4-0.3-0.4c-3.3-4.6-6.3-8.9-9.1-12.8h0.6c-4.5 5.1-8.3 9.4-11.1 12.7l-0.2 0.2-0.2-0.2q-2.2-3.8-3.5-5.9-0.5-0.9-0.9-1.6-0.3-0.5-0.2-0.5 0 0 0.3 0.5 0.4 0.6 1 1.5 1.4 2.1 3.7 5.7h-0.4c2.9-3.3 6.6-7.7 11-12.8l0.2-0.3 0.3 0.3c2.8 3.9 5.8 8.1 9.1 12.7h-0.6c3-3.8 6.2-7.8 9.5-12q0.3-0.4 0.6-0.8l0.3-0.3 0.3 0.3c3.8 4.5 7.4 8.8 10.7 12.8h-0.6c3.3-4.6 6.4-8.9 9.1-12.7l0.3-0.4 0.3 0.4c3.6 5.2 6.6 9.5 8.9 12.8h-0.3q2.5-2.9 3.9-4.6 0.6-0.8 1-1.2 0.4-0.4 0.4-0.4z"/>
					</g>
				</g>
			</g>
			<g id="&lt;Group&gt;">
				<g id="&lt;Group&gt;">
					<g id="&lt;Group&gt;">
						<path id="&lt;Path&gt;" class="s3" d="m1403.6 849.1c0 0.3-16.1 0.4-35.9 0.4-19.8 0-35.8-0.1-35.8-0.4 0-0.2 16-0.4 35.8-0.4 19.8 0 35.9 0.2 35.9 0.4z"/>
					</g>
				</g>
			</g>
			<g id="&lt;Group&gt;">
				<g id="&lt;Group&gt;">
					<g id="&lt;Group&gt;">
						<path id="&lt;Path&gt;" class="s3" d="m1406.8 903.4c0 0.2-17.4 0.4-38.9 0.4-21.5 0-39-0.2-39-0.4 0-0.2 17.5-0.4 39-0.4 21.5 0 38.9 0.2 38.9 0.4z"/>
					</g>
				</g>
			</g>
		</g>
	</g>
	<g id="Device">
		<g id="&lt;Group&gt;">
			<g id="&lt;Group&gt;">
				<g id="&lt;Group&gt;">
					<g id="&lt;Group&gt;">
						<g id="&lt;Group&gt;">
							<g id="&lt;Group&gt;">
								<g id="&lt;Group&gt;">
									<path id="&lt;Path&gt;" class="s4" d="m1224.4 903h-992.5c-16.1 0-29.1-13-29.1-29.1v-650.2c0-8.6 6.9-15.5 15.5-15.5h1021.8c7.4 0 13.4 6 13.4 13.5v652.2c0 16.1-13 29.1-29.1 29.1z"/>
								</g>
							</g>
						</g>
					</g>
					<g id="&lt;Group&gt;">
						<g id="&lt;Group&gt;">
							<g id="&lt;Group&gt;">
								<g id="&lt;Group&gt;">
									<path id="&lt;Path&gt;" class="s4" d="m1269.8 912.4h-1083.5c-15.2 0-27.5-12.2-27.5-27.4v-33.3h1138.5v33.3c0 15.2-12.3 27.4-27.5 27.4z"/>
								</g>
							</g>
						</g>
					</g>
					<g id="&lt;Group&gt;">
						<g id="&lt;Group&gt;">
							<g id="&lt;Group&gt;">
								<g id="&lt;Group&gt;">
									<path id="&lt;Path&gt;" class="s1" d="m1222.4 822.6h-991.4v-586.8h991.4z"/>
								</g>
							</g>
						</g>
					</g>
					<g id="&lt;Group&gt;">
						<g id="&lt;Group&gt;">
							<g id="&lt;Group&gt;">
								<g id="&lt;Group&gt;">
									<path id="&lt;Path&gt;" class="s5" d="m624.6 851.7l14.1 22.4h198.8l13.1-22.4z"/>
								</g>
							</g>
						</g>
					</g>
				</g>
				<g id="&lt;Group&gt;">
					<g id="&lt;Group&gt;">
						<g id="&lt;Group&gt;">
							<path id="&lt;Path&gt;" class="s5" d="m1195.4 822.6h-935v-552.8h935z"/>
						</g>
					</g>
					<g id="&lt;Group&gt;">
						<g id="&lt;Group&gt;">
							<g id="&lt;Group&gt;">
								<path id="&lt;Path&gt;" class="s1" d="m332.1 806.4c-0.4 0-0.8-117.8-0.8-263 0-145.2 0.4-262.9 0.8-262.9 0.5 0 0.9 117.7 0.9 262.9 0 145.2-0.4 263-0.9 263z"/>
							</g>
						</g>
					</g>
					<g id="&lt;Group&gt;">
						<g id="&lt;Group&gt;">
							<g id="&lt;Group&gt;">
								<path id="&lt;Path&gt;" class="s1" d="m313.3 328.1c0 0.5-6.8 0.9-15.2 0.9-8.4 0-15.2-0.4-15.2-0.9 0-0.4 6.8-0.8 15.2-0.8 8.4 0 15.2 0.4 15.2 0.8z"/>
							</g>
						</g>
					</g>
					<g id="&lt;Group&gt;">
						<g id="&lt;Group&gt;">
							<g id="&lt;Group&gt;">
								<path id="&lt;Path&gt;" class="s1" d="m314.4 298.3c0 0.5-6.8 0.9-15.1 0.9-8.4 0-15.2-0.4-15.2-0.9 0-0.5 6.8-0.9 15.2-0.9 8.3 0 15.1 0.4 15.1 0.9z"/>
							</g>
						</g>
					</g>
					<g id="&lt;Group&gt;">
						<g id="&lt;Group&gt;">
							<g id="&lt;Group&gt;">
								<path id="&lt;Path&gt;" class="s1" d="m313.3 360.3c0 0.5-6.8 0.9-15.2 0.9-8.4 0-15.2-0.4-15.2-0.9 0-0.5 6.8-0.9 15.2-0.9 8.4 0 15.2 0.4 15.2 0.9z"/>
							</g>
						</g>
					</g>
					<g id="&lt;Group&gt;">
						<g id="&lt;Group&gt;">
							<g id="&lt;Group&gt;">
								<path id="&lt;Path&gt;" class="s1" d="m313.3 392.5c0 0.5-6.8 0.8-15.2 0.8-8.4 0-15.2-0.3-15.2-0.8 0-0.5 6.8-0.9 15.2-0.9 8.4 0 15.2 0.4 15.2 0.9z"/>
							</g>
						</g>
					</g>
					<g id="&lt;Group&gt;">
						<g id="&lt;Group&gt;">
							<g id="&lt;Group&gt;">
								<path id="&lt;Path&gt;" class="s1" d="m313.3 424.6c0 0.5-6.8 0.9-15.2 0.9-8.4 0-15.2-0.4-15.2-0.9 0-0.5 6.8-0.8 15.2-0.8 8.4 0 15.2 0.3 15.2 0.8z"/>
							</g>
						</g>
					</g>
					<g id="&lt;Group&gt;">
						<g id="&lt;Group&gt;">
							<g id="&lt;Group&gt;">
								<path id="&lt;Path&gt;" class="s1" d="m313.3 456.8c0 0.5-6.8 0.9-15.2 0.9-8.4 0-15.2-0.4-15.2-0.9 0-0.5 6.8-0.9 15.2-0.9 8.4 0 15.2 0.4 15.2 0.9z"/>
							</g>
						</g>
					</g>
					<g id="&lt;Group&gt;">
						<g id="&lt;Group&gt;">
							<g id="&lt;Group&gt;">
								<path id="&lt;Path&gt;" class="s1" d="m313.3 489c0 0.4-6.8 0.8-15.2 0.8-8.4 0-15.2-0.4-15.2-0.8 0-0.5 6.8-0.9 15.2-0.9 8.4 0 15.2 0.4 15.2 0.9z"/>
							</g>
						</g>
					</g>
					<g id="&lt;Group&gt;">
						<g id="&lt;Group&gt;">
							<g id="&lt;Group&gt;">
								<path id="&lt;Path&gt;" class="s1" d="m313.3 521.1c0 0.5-6.8 0.9-15.2 0.9-8.4 0-15.2-0.4-15.2-0.9 0-0.5 6.8-0.8 15.2-0.8 8.4 0 15.2 0.3 15.2 0.8z"/>
							</g>
						</g>
					</g>
					<g id="&lt;Group&gt;">
						<g id="&lt;Group&gt;">
							<g id="&lt;Group&gt;">
								<path id="&lt;Path&gt;" class="s1" d="m313.3 553.3c0 0.5-6.8 0.9-15.2 0.9-8.4 0-15.2-0.4-15.2-0.9 0-0.5 6.8-0.9 15.2-0.9 8.4 0 15.2 0.4 15.2 0.9z"/>
							</g>
						</g>
					</g>
					<g id="&lt;Group&gt;">
						<g id="&lt;Group&gt;">
							<g id="&lt;Group&gt;">
								<path id="&lt;Path&gt;" class="s1" d="m313.3 585.5c0 0.4-6.8 0.8-15.2 0.8-8.4 0-15.2-0.4-15.2-0.8 0-0.5 6.8-0.9 15.2-0.9 8.4 0 15.2 0.4 15.2 0.9z"/>
							</g>
						</g>
					</g>
					<g id="&lt;Group&gt;">
						<g id="&lt;Group&gt;">
							<g id="&lt;Group&gt;">
								<path id="&lt;Path&gt;" class="s1" d="m313.3 617.6c0 0.5-6.8 0.9-15.2 0.9-8.4 0-15.2-0.4-15.2-0.9 0-0.5 6.8-0.9 15.2-0.9 8.4 0 15.2 0.4 15.2 0.9z"/>
							</g>
						</g>
					</g>
					<g id="&lt;Group&gt;">
						<g id="&lt;Group&gt;">
							<g id="&lt;Group&gt;">
								<path id="&lt;Path&gt;" class="s1" d="m313.3 649.8c0 0.5-6.8 0.9-15.2 0.9-8.4 0-15.2-0.4-15.2-0.9 0-0.5 6.8-0.9 15.2-0.9 8.4 0 15.2 0.4 15.2 0.9z"/>
							</g>
						</g>
					</g>
					<g id="&lt;Group&gt;">
						<g id="&lt;Group&gt;">
							<g id="&lt;Group&gt;">
								<path id="&lt;Path&gt;" class="s1" d="m313.3 682c0 0.4-6.8 0.8-15.2 0.8-8.4 0-15.2-0.4-15.2-0.8 0-0.5 6.8-0.9 15.2-0.9 8.4 0 15.2 0.4 15.2 0.9z"/>
							</g>
						</g>
					</g>
					<g id="&lt;Group&gt;">
						<g id="&lt;Group&gt;">
							<g id="&lt;Group&gt;">
								<path id="&lt;Path&gt;" class="s1" d="m313.3 714.1c0 0.5-6.8 0.9-15.2 0.9-8.4 0-15.2-0.4-15.2-0.9 0-0.5 6.8-0.9 15.2-0.9 8.4 0 15.2 0.4 15.2 0.9z"/>
							</g>
						</g>
					</g>
					<g id="&lt;Group&gt;">
						<g id="&lt;Group&gt;">
							<g id="&lt;Group&gt;">
								<path id="&lt;Path&gt;" class="s1" d="m313.3 746.3c0 0.5-6.8 0.9-15.2 0.9-8.4 0-15.2-0.4-15.2-0.9 0-0.5 6.8-0.9 15.2-0.9 8.4 0 15.2 0.4 15.2 0.9z"/>
							</g>
						</g>
					</g>
					<g id="&lt;Group&gt;">
						<g id="&lt;Group&gt;">
							<g id="&lt;Group&gt;">
								<path id="&lt;Path&gt;" class="s1" d="m313.3 778.4c0 0.5-6.8 0.9-15.2 0.9-8.4 0-15.2-0.4-15.2-0.9 0-0.4 6.8-0.8 15.2-0.8 8.4 0 15.2 0.4 15.2 0.8z"/>
							</g>
						</g>
					</g>
					<g id="&lt;Group&gt;">
						<g id="&lt;Group&gt;">
							<g id="&lt;Group&gt;">
								<path id="&lt;Path&gt;" class="s6" d="m435 326.2c0 0.5-17.6 0.9-39.4 0.9-21.8 0-39.4-0.4-39.4-0.9 0-0.4 17.6-0.8 39.4-0.8 21.8 0 39.4 0.4 39.4 0.8z"/>
							</g>
						</g>
					</g>
					<g id="&lt;Group&gt;">
						<g id="&lt;Group&gt;">
							<g id="&lt;Group&gt;">
								<path id="&lt;Path&gt;" class="s6" d="m435 778.4c0 0.5-17.6 0.9-39.4 0.9-21.8 0-39.4-0.4-39.4-0.9 0-0.4 17.6-0.8 39.4-0.8 21.8 0 39.4 0.4 39.4 0.8z"/>
							</g>
						</g>
					</g>
					<g id="&lt;Group&gt;">
						<g id="&lt;Group&gt;">
							<g id="&lt;Group&gt;">
								<path id="&lt;Path&gt;" class="s6" d="m544.8 392.5c0 0.5-33 0.8-73.7 0.8-40.8 0-73.8-0.3-73.8-0.8 0-0.5 33-0.9 73.8-0.9 40.7 0 73.7 0.4 73.7 0.9z"/>
							</g>
						</g>
					</g>
					<g id="&lt;Group&gt;">
						<g id="&lt;Group&gt;">
							<g id="&lt;Group&gt;">
								<path id="&lt;Path&gt;" class="s1" d="m715.4 392.5c0 0.5-33.1 0.8-73.8 0.8-40.7 0-73.7-0.3-73.7-0.8 0-0.5 33-0.9 73.7-0.9 40.7 0 73.8 0.4 73.8 0.9z"/>
							</g>
						</g>
					</g>
					<g id="&lt;Group&gt;">
						<g id="&lt;Group&gt;">
							<g id="&lt;Group&gt;">
								<path id="&lt;Path&gt;" class="s1" d="m650.2 424.6c0 0.5-48.7 0.9-108.7 0.9-60 0-108.7-0.4-108.7-0.9 0-0.5 48.7-0.8 108.7-0.8 60 0 108.7 0.3 108.7 0.8z"/>
							</g>
						</g>
					</g>
					<g id="&lt;Group&gt;">
						<g id="&lt;Group&gt;">
							<g id="&lt;Group&gt;">
								<path id="&lt;Path&gt;" class="s1" d="m650.2 456.8c0 0.5-48.7 0.9-108.7 0.9-60 0-108.7-0.4-108.7-0.9 0-0.5 48.7-0.9 108.7-0.9 60 0 108.7 0.4 108.7 0.9z"/>
							</g>
						</g>
					</g>
					<g id="&lt;Group&gt;">
						<g id="&lt;Group&gt;">
							<g id="&lt;Group&gt;">
								<path id="&lt;Path&gt;" class="s1" d="m799.8 553.3c0 0.5-48.7 0.9-108.7 0.9-60 0-108.7-0.4-108.7-0.9 0-0.5 48.7-0.9 108.7-0.9 60 0 108.7 0.4 108.7 0.9z"/>
							</g>
						</g>
					</g>
					<g id="&lt;Group&gt;">
						<g id="&lt;Group&gt;">
							<g id="&lt;Group&gt;">
								<path id="&lt;Path&gt;" class="s1" d="m735.2 489c0 0.4-48.6 0.8-108.6 0.8-60.1 0-108.7-0.4-108.7-0.8 0-0.5 48.6-0.9 108.7-0.9 60 0 108.6 0.4 108.6 0.9z"/>
							</g>
						</g>
					</g>
					<g id="&lt;Group&gt;">
						<g id="&lt;Group&gt;">
							<g id="&lt;Group&gt;">
								<path id="&lt;Path&gt;" class="s1" d="m1000.8 489c0 0.4-48.6 0.8-108.6 0.8-60.1 0-108.7-0.4-108.7-0.8 0-0.5 48.6-0.9 108.7-0.9 60 0 108.6 0.4 108.6 0.9z"/>
							</g>
						</g>
					</g>
					<g id="&lt;Group&gt;">
						<g id="&lt;Group&gt;">
							<g id="&lt;Group&gt;">
								<path id="&lt;Path&gt;" class="s7" d="m908.5 424.6c0 0.5-48.7 0.9-108.7 0.9-60 0-108.7-0.4-108.7-0.9 0-0.5 48.7-0.8 108.7-0.8 60 0 108.7 0.3 108.7 0.8z"/>
							</g>
						</g>
					</g>
					<g id="&lt;Group&gt;">
						<g id="&lt;Group&gt;">
							<g id="&lt;Group&gt;">
								<path id="&lt;Path&gt;" class="s7" d="m1058.6 553.3c0 0.5-48.6 0.9-108.7 0.9-60 0-108.6-0.4-108.6-0.9 0-0.5 48.6-0.9 108.6-0.9 60.1 0 108.7 0.4 108.7 0.9z"/>
							</g>
						</g>
					</g>
					<g id="&lt;Group&gt;">
						<g id="&lt;Group&gt;">
							<g id="&lt;Group&gt;">
								<path id="&lt;Path&gt;" class="s4" d="m1028.6 456.8c0 0.5-75.5 0.9-168.7 0.9-93.2 0-168.8-0.4-168.8-0.9 0-0.5 75.6-0.9 168.8-0.9 93.2 0 168.7 0.4 168.7 0.9z"/>
							</g>
						</g>
					</g>
					<g id="&lt;Group&gt;">
						<g id="&lt;Group&gt;">
							<g id="&lt;Group&gt;">
								<path id="&lt;Path&gt;" class="s7" d="m435 360.3c0 0.5-17.6 0.9-39.4 0.9-21.8 0-39.4-0.4-39.4-0.9 0-0.5 17.6-0.9 39.4-0.9 21.8 0 39.4 0.4 39.4 0.9z"/>
							</g>
						</g>
					</g>
					<g id="&lt;Group&gt;">
						<g id="&lt;Group&gt;">
							<g id="&lt;Group&gt;">
								<path id="&lt;Path&gt;" class="s7" d="m435 746.3c0 0.5-17.6 0.9-39.4 0.9-21.8 0-39.4-0.4-39.4-0.9 0-0.5 17.6-0.9 39.4-0.9 21.8 0 39.4 0.4 39.4 0.9z"/>
							</g>
						</g>
					</g>
					<g id="&lt;Group&gt;">
						<g id="&lt;Group&gt;">
							<g id="&lt;Group&gt;">
								<path id="&lt;Path&gt;" class="s7" d="m474.1 489c0 0.4-17.7 0.8-39.4 0.8-21.8 0-39.5-0.4-39.5-0.8 0-0.5 17.7-0.9 39.5-0.9 21.7 0 39.4 0.4 39.4 0.9z"/>
							</g>
						</g>
					</g>
					<g id="&lt;Group&gt;">
						<g id="&lt;Group&gt;">
							<g id="&lt;Group&gt;">
								<path id="&lt;Path&gt;" class="s6" d="m1105.9 489c0 0.4-17.7 0.8-39.4 0.8-21.8 0-39.5-0.4-39.5-0.8 0-0.5 17.7-0.9 39.5-0.9 21.7 0 39.4 0.4 39.4 0.9z"/>
							</g>
						</g>
					</g>
					<g id="&lt;Group&gt;">
						<g id="&lt;Group&gt;">
							<g id="&lt;Group&gt;">
								<path id="&lt;Path&gt;" class="s6" d="m544.8 617.4c0 0.5-33 0.9-73.7 0.9-40.8 0-73.8-0.4-73.8-0.9 0-0.5 33-0.8 73.8-0.8 40.7 0 73.7 0.3 73.7 0.8z"/>
							</g>
						</g>
					</g>
					<g id="&lt;Group&gt;">
						<g id="&lt;Group&gt;">
							<g id="&lt;Group&gt;">
								<path id="&lt;Path&gt;" class="s1" d="m715.4 617.4c0 0.5-33.1 0.9-73.8 0.9-40.7 0-73.7-0.4-73.7-0.9 0-0.5 33-0.8 73.7-0.8 40.7 0 73.8 0.3 73.8 0.8z"/>
							</g>
						</g>
					</g>
					<g id="&lt;Group&gt;">
						<g id="&lt;Group&gt;">
							<g id="&lt;Group&gt;">
								<path id="&lt;Path&gt;" class="s1" d="m650.2 649.6c0 0.5-48.7 0.9-108.7 0.9-60 0-108.7-0.4-108.7-0.9 0-0.5 48.7-0.9 108.7-0.9 60 0 108.7 0.4 108.7 0.9z"/>
							</g>
						</g>
					</g>
					<g id="&lt;Group&gt;">
						<g id="&lt;Group&gt;">
							<g id="&lt;Group&gt;">
								<path id="&lt;Path&gt;" class="s1" d="m650.2 681.8c0 0.4-48.7 0.8-108.7 0.8-60 0-108.7-0.4-108.7-0.8 0-0.5 48.7-0.9 108.7-0.9 60 0 108.7 0.4 108.7 0.9z"/>
							</g>
						</g>
					</g>
					<g id="&lt;Group&gt;">
						<g id="&lt;Group&gt;">
							<g id="&lt;Group&gt;">
								<path id="&lt;Path&gt;" class="s1" d="m735.2 713.9c0 0.5-48.6 0.9-108.6 0.9-60.1 0-108.7-0.4-108.7-0.9 0-0.5 48.6-0.8 108.7-0.8 60 0 108.6 0.3 108.6 0.8z"/>
							</g>
						</g>
					</g>
					<g id="&lt;Group&gt;">
						<g id="&lt;Group&gt;">
							<g id="&lt;Group&gt;">
								<path id="&lt;Path&gt;" class="s1" d="m1000.8 713.9c0 0.5-48.6 0.9-108.6 0.9-60.1 0-108.7-0.4-108.7-0.9 0-0.5 48.6-0.8 108.7-0.8 60 0 108.6 0.3 108.6 0.8z"/>
							</g>
						</g>
					</g>
					<g id="&lt;Group&gt;">
						<g id="&lt;Group&gt;">
							<g id="&lt;Group&gt;">
								<path id="&lt;Path&gt;" class="s7" d="m908.5 649.6c0 0.5-48.7 0.9-108.7 0.9-60 0-108.7-0.4-108.7-0.9 0-0.5 48.7-0.9 108.7-0.9 60 0 108.7 0.4 108.7 0.9z"/>
							</g>
						</g>
					</g>
					<g id="&lt;Group&gt;">
						<g id="&lt;Group&gt;">
							<g id="&lt;Group&gt;">
								<path id="&lt;Path&gt;" class="s4" d="m1028.6 681.8c0 0.4-75.5 0.8-168.7 0.8-93.2 0-168.8-0.4-168.8-0.8 0-0.5 75.6-0.9 168.8-0.9 93.2 0 168.7 0.4 168.7 0.9z"/>
							</g>
						</g>
					</g>
					<g id="&lt;Group&gt;">
						<g id="&lt;Group&gt;">
							<g id="&lt;Group&gt;">
								<path id="&lt;Path&gt;" class="s7" d="m474.1 713.9c0 0.5-17.7 0.9-39.4 0.9-21.8 0-39.5-0.4-39.5-0.9 0-0.5 17.7-0.8 39.5-0.8 21.7 0 39.4 0.3 39.4 0.8z"/>
							</g>
						</g>
					</g>
					<g id="&lt;Group&gt;">
						<g id="&lt;Group&gt;">
							<g id="&lt;Group&gt;">
								<path id="&lt;Path&gt;" class="s6" d="m1105.9 713.9c0 0.5-17.7 0.9-39.4 0.9-21.8 0-39.5-0.4-39.5-0.9 0-0.5 17.7-0.8 39.5-0.8 21.7 0 39.4 0.3 39.4 0.8z"/>
							</g>
						</g>
					</g>
				</g>
			</g>
			<g id="&lt;Group&gt;">
				<path id="&lt;Path&gt;" class="s5" d="m1126.9 872c0 0.2-201.3 0.5-449.5 0.5-248.4 0-449.6-0.3-449.6-0.5 0-0.3 201.2-0.6 449.6-0.6 248.2 0 449.5 0.3 449.5 0.6z"/>
			</g>
		</g>
	</g>
	<g id="Plant">
		<g id="&lt;Group&gt;">
			<g id="&lt;Group&gt;">
				<path id="&lt;Path&gt;" class="s6" d="m194.1 695.7c-27.5-28.3-70.7-40.1-108.9-29.9 33.2 22.2 70.4 34.1 110.2 34.4"/>
			</g>
			<g id="&lt;Group&gt;">
				<g id="&lt;Group&gt;">
					<path id="&lt;Path&gt;" class="s6" d="m157.2 564.9c4.5-32.1-7.9-68.2-32-91.6-0.7 31.8 12.7 67.6 32 91.6z"/>
				</g>
				<g id="&lt;Group&gt;">
					<path id="&lt;Path&gt;" class="s6" d="m176.4 625.5c-17.1-32.8-45.2-59.6-78.7-75.2 10.1 36.9 41.7 67.1 79 75.5"/>
				</g>
				<g id="&lt;Group&gt;">
					<path id="&lt;Path&gt;" class="s6" d="m180.4 637.2c-19.4 0.5-39-0.2-57.7-5.1-18.8-5-36.7-14.5-49.2-29.4 37.7 0.1 75.3 11.6 106.6 32.6"/>
				</g>
				<g id="&lt;Group&gt;">
					<path id="&lt;Path&gt;" class="s6" d="m170.6 598.6c9.8-36.8 26-62.3 55-83 2.2 17.9-2.2 36.6-12.2 51.7-10 15-25.5 26.4-42.8 31.3z"/>
				</g>
				<g id="&lt;Group&gt;">
					<path id="&lt;Path&gt;" class="s6" d="m243.7 662.2c0.5-21.4-13.3-42.5-33.1-50.5 1.6 19 16.5 41 33.1 50.5z"/>
				</g>
				<g id="&lt;Group&gt;">
					<path id="&lt;Path&gt;" class="s6" d="m253 631.1c2.2-30.8 24.1-59.3 53.3-69.3-6.7 30.8-24.5 56.4-53.3 69.3z"/>
				</g>
				<g id="&lt;Group&gt;">
					<path id="&lt;Path&gt;" class="s6" d="m239 686.3c6.9-9.8 18-15.8 29.6-18.9 11.5-3 23.6-3.3 35.5-3.5-16.1 17.7-40.3 27.8-64.2 26.7"/>
				</g>
				<g id="&lt;Group&gt;">
					<path id="&lt;Path&gt;" class="s6" d="m225.2 764.9c21.5-6.6 45.4-4.9 65.8 4.7 20.3 9.7 36.8 27.1 45.3 48-40.4-7.7-80.2-25.6-111.1-52.7z"/>
				</g>
				<g id="&lt;Group&gt;">
					<path id="&lt;Path&gt;" class="s6" d="m180.9 737.6c6.7 19.8 5.4 43.8-9.5 60.9-6.1-20.4-2.5-43.4 9.5-60.9z"/>
				</g>
				<g id="&lt;Group&gt;">
					<path id="&lt;Path&gt;" class="s6" d="m154.7 726.6c-1.9 25.5-18.2 49.4-41.2 60.5-1.1 0.5-2.5 1.1-3.6 0.6-1.9-0.7-2-3.2-1.8-5.2 2.9-25.4 21.7-49.9 46.6-55.9z"/>
				</g>
				<g id="&lt;Group&gt;">
					<path id="&lt;Path&gt;" class="s6" d="m137.6 724c-11.4 12.3-27.9 19.5-44.6 19.6-16.7 0.1-33.3-7-44.8-19.1 28.4-3.1 61.2-5.2 89.4-0.5z"/>
				</g>
				<g id="&lt;Group&gt;">
					<g id="&lt;Group&gt;">
						<g id="&lt;Group&gt;">
							<path id="&lt;Path&gt;" class="s5" d="m133.3 497q0 0 0.3 0.8 0.3 0.9 0.9 2.4c0.8 2.2 1.9 5.3 3.4 9.2 1.5 4 3.3 8.9 5.3 14.6q1.6 4.3 3.3 9.1 1.7 4.9 3.5 10.3c5.1 14.4 10.7 31.6 16.7 50.8 5.9 19.3 12.1 40.5 18.3 63 6 22.4 11.3 43.9 15.9 63.5 4.4 19.7 8.2 37.4 11 52.4q1 5.6 2 10.7 0.9 5.1 1.6 9.5c1 6 1.9 11.1 2.5 15.4 0.7 4.1 1.2 7.4 1.5 9.7q0.3 1.6 0.4 2.5 0.2 0.8 0.2 0.8 0 0-0.1-0.8-0.1-1-0.3-2.6c-0.3-2.2-0.7-5.5-1.3-9.7-0.5-4.2-1.3-9.4-2.3-15.4q-0.7-4.4-1.5-9.5-0.9-5.1-2-10.7c-2.6-15-6.3-32.8-10.7-52.5-4.5-19.6-9.9-41.1-15.9-63.6-6.1-22.5-12.4-43.7-18.3-63-6.1-19.2-11.8-36.4-16.9-50.8q-1.9-5.4-3.6-10.2-1.8-4.8-3.4-9.1c-2.1-5.7-3.9-10.6-5.5-14.5-1.6-4-2.8-7-3.6-9.2q-0.7-1.5-1-2.3-0.3-0.8-0.4-0.8z"/>
						</g>
					</g>
					<g id="&lt;Group&gt;">
						<g id="&lt;Group&gt;">
							<path id="&lt;Path&gt;" class="s5" d="m289.3 578.2q0 0-0.5 0.5-0.5 0.5-1.3 1.4c-1.2 1.3-2.9 3.2-5.1 5.7-4.3 4.9-10.3 12.3-16.7 22.2-6.4 9.9-12.9 22.5-17.5 37.5-4.7 14.8-7.6 31.8-10.5 49.5-5.7 35.4-12.8 67.1-18 90-2.5 11.4-4.6 20.7-6.1 27.2q-1.1 4.7-1.6 7.4-0.3 1.2-0.4 1.9-0.2 0.7-0.1 0.7 0 0 0.2-0.7 0.2-0.7 0.5-1.9 0.6-2.6 1.8-7.3c1.5-6.5 3.8-15.7 6.5-27.1 5.3-22.9 12.5-54.6 18.3-90.1 2.9-17.7 5.8-34.5 10.4-49.4 4.4-14.8 10.9-27.3 17.1-37.2 6.3-10 12.3-17.4 16.4-22.5 2.1-2.5 3.8-4.4 4.9-5.7q0.8-1 1.3-1.5 0.4-0.6 0.4-0.6z"/>
						</g>
					</g>
					<g id="&lt;Group&gt;">
						<g id="&lt;Group&gt;">
							<path id="&lt;Path&gt;" class="s5" d="m129.1 722.8q0 0.1 1 0.2 1.2 0.1 3 0.3 0.9 0.1 2.1 0.2 1.2 0.2 2.5 0.4c1.8 0.3 3.9 0.5 6.1 1q1.7 0.4 3.5 0.7 1.8 0.5 3.8 1c2.6 0.6 5.3 1.5 8.2 2.4 5.7 2 11.9 4.6 18 7.9 6.1 3.4 11.5 7.3 16.1 11.2 2.3 2.1 4.4 4 6.2 6 1.9 1.9 3.5 3.8 4.9 5.6 1.5 1.7 2.6 3.5 3.6 5 1.1 1.5 1.9 2.8 2.5 4q0.9 1.5 1.5 2.5 0.6 0.9 0.6 0.9 0.1-0.1-0.4-1-0.5-1.1-1.3-2.6c-0.6-1.2-1.3-2.6-2.4-4.1-1-1.5-2-3.4-3.5-5.1-1.4-1.9-2.9-3.9-4.8-5.8-1.8-2.1-4-4-6.2-6.1-4.6-4-10.1-8-16.3-11.4-6.2-3.4-12.4-6-18.2-7.9-2.9-0.9-5.6-1.8-8.3-2.4q-2-0.5-3.8-0.9-1.9-0.3-3.6-0.6c-2.2-0.5-4.3-0.7-6.1-0.9q-1.4-0.2-2.6-0.3-1.1-0.1-2.1-0.1-1.8-0.1-3-0.1-1-0.1-1 0z"/>
						</g>
					</g>
				</g>
				<g id="&lt;Group&gt;">
					<g id="&lt;Group&gt;">
						<path id="&lt;Path&gt;" class="s5" d="m121 578.9c0 0.1 0.7 0.8 2.1 2q2.3 2 5.8 5c5 4.3 11.9 10.1 19.5 16.5 7.7 6.3 14.7 12 19.8 16.1q3.7 2.9 6.1 4.8c1.4 1.1 2.2 1.7 2.3 1.7 0-0.1-0.7-0.8-2.1-2q-2.3-2-5.8-5.1c-5-4.2-11.9-10-19.6-16.4-7.6-6.3-14.6-12.1-19.7-16.1q-3.7-2.9-6.1-4.9c-1.4-1.1-2.2-1.7-2.3-1.6z"/>
					</g>
				</g>
				<g id="&lt;Group&gt;">
					<g id="&lt;Group&gt;">
						<path id="&lt;Path&gt;" class="s5" d="m114 616.5c-0.1 0.3 14.9 4.9 33.3 10.4 18.5 5.4 33.6 9.6 33.6 9.3 0.1-0.3-14.8-4.9-33.3-10.4-18.4-5.4-33.5-9.6-33.6-9.3z"/>
					</g>
				</g>
				<g id="&lt;Group&gt;">
					<g id="&lt;Group&gt;">
						<path id="&lt;Path&gt;" class="s5" d="m169.1 601.5c0 0 0.6-0.7 1.5-2.1q1.6-2.4 4-6c3.3-5.1 8-11.9 13.6-19.3 5.6-7.3 11-13.7 15-18.2q2.8-3.3 4.7-5.4c1.1-1.3 1.7-2 1.7-2.1-0.1 0-0.8 0.6-2 1.8-1.2 1.2-2.9 2.9-5 5.2-4.1 4.4-9.6 10.7-15.2 18.1-5.7 7.3-10.3 14.3-13.5 19.5-1.6 2.5-2.8 4.7-3.6 6.1-0.9 1.5-1.3 2.4-1.2 2.4z"/>
					</g>
				</g>
				<g id="&lt;Group&gt;">
					<g id="&lt;Group&gt;">
						<path id="&lt;Path&gt;" class="s5" d="m220.9 622.4c-0.2 0.1 1.2 2.2 3.5 5.7 2.2 3.5 5.2 8.4 8.3 13.9 3.2 5.5 5.8 10.6 7.7 14.3 1.9 3.7 3 6 3.1 5.9 0.2 0-0.7-2.5-2.4-6.3-1.7-3.8-4.3-8.9-7.4-14.5-3.2-5.5-6.3-10.3-8.7-13.7-2.4-3.4-4-5.4-4.1-5.3z"/>
					</g>
				</g>
				<g id="&lt;Group&gt;">
					<g id="&lt;Group&gt;">
						<path id="&lt;Path&gt;" class="s5" d="m238.6 687.3c0.1 0.2 2.9-1.2 7.6-3.3 4.6-2.1 11.1-4.8 18.5-7.4 7.3-2.6 14.1-4.5 19.1-5.8 4.9-1.2 8-1.9 8-2.1-0.1 0-0.8 0-2.3 0.3-1.4 0.2-3.4 0.6-5.9 1.1-5 1.1-11.9 2.9-19.3 5.5-7.4 2.6-13.9 5.4-18.5 7.7-2.3 1.1-4.1 2.1-5.3 2.8-1.3 0.7-2 1.2-1.9 1.2z"/>
					</g>
				</g>
				<g id="&lt;Group&gt;">
					<g id="&lt;Group&gt;">
						<path id="&lt;Path&gt;" class="s5" d="m224.6 765q0 0.1 1 0.3 1.1 0.3 2.6 0.7c2.6 0.6 5.9 1.4 10 2.3 8.3 2 20 4.4 32.3 8.6 12.4 4.2 23.1 9.5 30.3 14.2 3.6 2.3 6.4 4.3 8.3 5.8 1.9 1.4 2.9 2.2 3 2.2q0-0.1-0.7-0.7c-0.4-0.5-1.1-1.1-2-1.9-1.9-1.5-4.6-3.7-8.2-6.1-7.2-4.8-17.8-10.3-30.3-14.6-12.5-4.2-24.2-6.5-32.6-8.2-4.1-0.8-7.4-1.5-10-2-2.3-0.4-3.6-0.6-3.7-0.6z"/>
					</g>
				</g>
				<g id="&lt;Group&gt;">
					<g id="&lt;Group&gt;">
						<path id="&lt;Path&gt;" class="s5" d="m174.2 784.2c0.3 0 2.1-10.4 4-23.4 1.9-12.9 3.2-23.5 2.9-23.5-0.3 0-2.1 10.4-4 23.4-1.9 12.9-3.2 23.4-2.9 23.5z"/>
					</g>
				</g>
				<g id="&lt;Group&gt;">
					<g id="&lt;Group&gt;">
						<path id="&lt;Path&gt;" class="s5" d="m121.7 765.1c0.1 0.1 1.9-2.1 4.7-5.6 2.9-3.5 6.8-8.4 11.2-13.7 4.5-5.3 8.6-10 11.6-13.4 3-3.4 4.8-5.5 4.7-5.6 0-0.1-0.6 0.4-1.5 1.3-0.9 0.8-2.2 2.1-3.8 3.8-3.1 3.3-7.3 7.9-11.8 13.2-4.5 5.3-8.3 10.3-11 13.9-1.3 1.9-2.4 3.4-3.1 4.4-0.7 1.1-1.1 1.7-1 1.7z"/>
					</g>
				</g>
			</g>
			<g id="&lt;Group&gt;">
				<path id="&lt;Path&gt;" class="s6" d="m260.7 813.8v26h-6.5l-23.1 72.8h-51.1l-22.4-72.1-8.6-0.7v-26z"/>
			</g>
			<g id="&lt;Group&gt;" style="opacity: .3">
				<path id="&lt;Path&gt;" class="s8" d="m260.7 813.8v26h-6.5l-23.1 72.8h-51.1l-22.4-72.1-8.6-0.7v-26z"/>
			</g>
			<g id="&lt;Group&gt;">
				<g id="&lt;Group&gt;">
					<path id="&lt;Path&gt;" class="s5" d="m153.3 840.5c0 0.3 22.6 0.5 50.4 0.5 27.9 0 50.5-0.2 50.5-0.5 0-0.3-22.6-0.6-50.5-0.6-27.8 0-50.4 0.3-50.4 0.6z"/>
				</g>
			</g>
			<g id="&lt;Group&gt;">
				<g id="&lt;Group&gt;">
					<path id="&lt;Path&gt;" class="s5" d="m116.5 673.6c0 0.1 1.2 0.4 3.3 0.9 2.3 0.5 5.3 1.3 9 2.1 7.5 1.9 17.9 4.7 29.2 8.5 11.3 3.8 21.3 7.8 28.4 10.9 3.5 1.5 6.3 2.8 8.5 3.7 2 0.9 3.1 1.4 3.1 1.3 0.1-0.1-1-0.7-2.9-1.7-2-1-4.8-2.3-8.4-4-7.1-3.2-17.1-7.4-28.4-11.2-11.3-3.8-21.7-6.5-29.4-8.2-3.8-0.9-6.9-1.5-9-1.8-2.2-0.4-3.4-0.6-3.4-0.5z"/>
				</g>
			</g>
			<g id="&lt;Group&gt;">
				<g id="&lt;Group&gt;">
					<path id="&lt;Path&gt;" class="s7" d="m170.3 880.9c0 0.3 15.8 0.5 35.4 0.5 19.5 0 35.3-0.2 35.3-0.5 0-0.3-15.8-0.5-35.3-0.5-19.6 0-35.4 0.2-35.4 0.5z"/>
				</g>
			</g>
			<g id="&lt;Group&gt;">
				<g id="&lt;Group&gt;">
					<path id="&lt;Path&gt;" class="s7" d="m168.3 874.9c0 0.3 16.8 0.5 37.5 0.5 20.7 0 37.5-0.2 37.5-0.5 0-0.3-16.8-0.6-37.5-0.6-20.7 0-37.5 0.3-37.5 0.6z"/>
				</g>
			</g>
		</g>
	</g>
	<g id="Floor">
		<g id="&lt;Group&gt;">
			<path id="&lt;Path&gt;" class="s5" d="m1418.9 913c0 0.3-304.9 0.5-680.9 0.5-376.1 0-680.9-0.2-680.9-0.5 0-0.3 304.8-0.6 680.9-0.6 376 0 680.9 0.3 680.9 0.6z"/>
		</g>
	</g>
	<g id="Speech Bubbles">
		<g id="&lt;Group&gt;">
			<g id="&lt;Group&gt;">
				<path id="&lt;Path&gt;" class="s7" d="m1232.1 152.2h-536v332h451.2l27.9 64.2 24.8-64.2h32.1z"/>
				<g id="&lt;Group&gt;">
					<path id="&lt;Path&gt;" class="s5" d="m1232.1 152.2c0 3.3 0.1 128 0.4 332v0.4h-0.4c-9.9 0-20.9 0-32.1 0l0.4-0.3c-7.8 20.2-16.1 41.9-24.8 64.3l-0.3 1-0.5-1c-8.7-20.1-18.2-41.9-27.9-64.2l0.4 0.2c-121.2 0.1-260.5 0.1-408 0.1q-21.8 0-43.2 0h-0.5v-0.5c0-118.3 0-230.6 0-332v-0.4h0.5c316.4 0.3 531.8 0.4 536 0.4-4.2 0.1-219.6 0.2-536 0.5l0.5-0.5c0 101.4 0 213.7 0 332l-0.5-0.5q21.4 0 43.2 0c147.5 0 286.8 0 408 0h0.3l0.1 0.3c9.7 22.4 19.2 44.1 27.9 64.3h-0.8c8.7-22.4 17-44.1 24.8-64.3l0.1-0.2h0.3c11.2 0 22.2 0 32.1 0l-0.4 0.4c0.2-204 0.4-328.7 0.4-332z"/>
				</g>
			</g>
			<g id="&lt;Group&gt;">
				<g id="&lt;Group&gt;">
					<g id="&lt;Group&gt;">
						<path id="&lt;Path&gt;" class="s5" d="m1231.8 184.6c0 0.4-119.8 0.8-267.4 0.8-147.8 0-267.5-0.4-267.5-0.8 0-0.4 119.7-0.7 267.5-0.7 147.6 0 267.4 0.3 267.4 0.7z"/>
					</g>
				</g>
				<g id="&lt;Group&gt;">
					<g id="&lt;Group&gt;">
						<path id="&lt;Path&gt;" class="s5" d="m724.6 170c0 2.4-2 4.4-4.4 4.4-2.4 0-4.4-2-4.4-4.4 0-2.4 2-4.4 4.4-4.4 2.4 0 4.4 2 4.4 4.4z"/>
					</g>
					<g id="&lt;Group&gt;">
						<path id="&lt;Path&gt;" class="s5" d="m740.5 170c0 2.4-2 4.4-4.4 4.4-2.4 0-4.4-2-4.4-4.4 0-2.4 2-4.4 4.4-4.4 2.4 0 4.4 2 4.4 4.4z"/>
					</g>
					<g id="&lt;Group&gt;">
						<path id="&lt;Path&gt;" class="s5" d="m756.4 170c0 2.4-2 4.4-4.4 4.4-2.4 0-4.4-2-4.4-4.4 0-2.4 2-4.4 4.4-4.4 2.4 0 4.4 2 4.4 4.4z"/>
					</g>
				</g>
				<g id="&lt;Group&gt;">
					<path id="&lt;Compound Path&gt;" class="s5" d="m754.6 244l-12.8 4.9 12.8 4.9v3l-16.1-6.3v-3.1l16.1-6.4z"/>
					<path id="&lt;Compound Path&gt;" class="s5" d="m767.8 231.3h3.1l-11.8 33.8h-3.1z"/>
					<path id="&lt;Compound Path&gt;" class="s5" d="m788.1 247.4v3.1l-16.1 6.3v-3l12.8-4.9-12.8-4.9v-3z"/>
					<path id="&lt;Compound Path&gt;" class="s5" d="m792.1 259.2c0-1.4 1.1-2.4 2.5-2.4 1.3 0 2.3 1 2.3 2.4 0 1.5-1 2.5-2.3 2.5-1.4 0-2.5-1-2.5-2.5z"/>
					<path id="&lt;Compound Path&gt;" class="s5" d="m800.3 259.2c0-1.4 1.1-2.4 2.4-2.4 1.3 0 2.4 1 2.4 2.4 0 1.5-1.1 2.5-2.4 2.5-1.3 0-2.4-1-2.4-2.5z"/>
					<path id="&lt;Compound Path&gt;" class="s5" d="m808.4 259.2c0-1.4 1.1-2.4 2.5-2.4 1.2 0 2.3 1 2.3 2.4 0 1.5-1.1 2.5-2.3 2.5-1.4 0-2.5-1-2.5-2.5z"/>
				</g>
				<g id="&lt;Group&gt;">
					<g id="&lt;Group&gt;">
						<path id="&lt;Path&gt;" class="s4" d="m1093 291.4c0 0.4-79.2 0.7-176.9 0.7-97.8 0-177-0.3-177-0.7 0-0.4 79.2-0.7 177-0.7 97.7 0 176.9 0.3 176.9 0.7z"/>
					</g>
				</g>
				<g id="&lt;Group&gt;">
					<g id="&lt;Group&gt;">
						<path id="&lt;Path&gt;" class="s5" d="m1150.8 292.5c0 0.4-7.6 0.7-17 0.7-9.4 0-17-0.3-17-0.7 0-0.4 7.6-0.8 17-0.8 9.4 0 17 0.4 17 0.8z"/>
					</g>
				</g>
				<g id="&lt;Group&gt;">
					<g id="&lt;Group&gt;">
						<path id="&lt;Path&gt;" class="s5" d="m1200.5 292.5c0 0.4-8.3 0.7-18.6 0.7-10.2 0-18.5-0.3-18.5-0.7 0-0.4 8.3-0.8 18.5-0.8 10.3 0 18.6 0.4 18.6 0.8z"/>
					</g>
				</g>
				<g id="&lt;Group&gt;">
					<g id="&lt;Group&gt;">
						<path id="&lt;Path&gt;" class="s4" d="m964.5 321.2c0 0.4-50.4 0.8-112.5 0.8-62.1 0-112.5-0.4-112.5-0.8 0-0.4 50.4-0.7 112.5-0.7 62.1 0 112.5 0.3 112.5 0.7z"/>
					</g>
				</g>
				<g id="&lt;Group&gt;">
					<g id="&lt;Group&gt;">
						<path id="&lt;Path&gt;" class="s4" d="m962.8 432.5c0 0.4-50.3 0.7-112.4 0.7-62.1 0-112.5-0.3-112.5-0.7 0-0.4 50.4-0.7 112.5-0.7 62.1 0 112.4 0.3 112.4 0.7z"/>
					</g>
				</g>
				<g id="&lt;Group&gt;">
					<g id="&lt;Group&gt;">
						<path id="&lt;Path&gt;" class="s5" d="m1046.2 321.2c0 0.4-13.7 0.8-30.6 0.8-16.9 0-30.6-0.4-30.6-0.8 0-0.4 13.7-0.7 30.6-0.7 16.9 0 30.6 0.3 30.6 0.7z"/>
					</g>
				</g>
				<g id="&lt;Group&gt;">
					<g id="&lt;Group&gt;">
						<path id="&lt;Path&gt;" class="s5" d="m1045.5 432.5c0 0.4-13.7 0.7-30.6 0.7-16.9 0-30.6-0.3-30.6-0.7 0-0.4 13.7-0.7 30.6-0.7 16.9 0 30.6 0.3 30.6 0.7z"/>
					</g>
				</g>
				<g id="&lt;Group&gt;">
					<g id="&lt;Group&gt;">
						<path id="&lt;Path&gt;" class="s6" d="m754.3 336.4c0 0.4-3.4 0.7-7.6 0.7-4.2 0-7.6-0.3-7.6-0.7 0-0.4 3.4-0.7 7.6-0.7 4.2 0 7.6 0.3 7.6 0.7z"/>
					</g>
				</g>
				<g id="&lt;Group&gt;">
					<g id="&lt;Group&gt;">
						<path id="&lt;Path&gt;" class="s5" d="m806.6 336.7c0 0.4-7.4 0.7-16.5 0.7-9.1 0-16.5-0.3-16.5-0.7 0-0.4 7.4-0.7 16.5-0.7 9.1 0 16.5 0.3 16.5 0.7z"/>
					</g>
				</g>
				<g id="&lt;Group&gt;">
					<g id="&lt;Group&gt;">
						<path id="&lt;Path&gt;" class="s5" d="m840.1 336.7c0 0.4-6.4 0.7-14.2 0.7-7.8 0-14.1-0.3-14.1-0.7 0-0.4 6.3-0.7 14.1-0.7 7.8 0 14.2 0.3 14.2 0.7z"/>
					</g>
				</g>
				<g id="&lt;Group&gt;">
					<g id="&lt;Group&gt;">
						<path id="&lt;Path&gt;" class="s5" d="m882.4 336.7c0 0.4-6.4 0.7-14.3 0.7-8 0-14.4-0.3-14.4-0.7 0-0.4 6.4-0.7 14.4-0.7 7.9 0 14.3 0.3 14.3 0.7z"/>
					</g>
				</g>
				<g id="&lt;Group&gt;">
					<g id="&lt;Group&gt;">
						<path id="&lt;Path&gt;" class="s5" d="m919.6 336.7c0 0.4-5.9 0.7-13.1 0.7-7.2 0-13.1-0.3-13.1-0.7 0-0.4 5.9-0.7 13.1-0.7 7.2 0 13.1 0.3 13.1 0.7z"/>
					</g>
				</g>
				<g id="&lt;Group&gt;">
					<g id="&lt;Group&gt;">
						<path id="&lt;Path&gt;" class="s5" d="m1042.5 336.7c0 0.4-25.7 0.7-57.5 0.7-31.8 0-57.6-0.3-57.6-0.7 0-0.4 25.8-0.7 57.6-0.7 31.8 0 57.5 0.3 57.5 0.7z"/>
					</g>
				</g>
				<g id="&lt;Group&gt;">
					<g id="&lt;Group&gt;">
						<path id="&lt;Path&gt;" class="s6" d="m752.2 355.8c0 0.4-2.9 0.7-6.6 0.7-3.6 0-6.5-0.3-6.5-0.7 0-0.4 2.9-0.8 6.5-0.8 3.7 0 6.6 0.4 6.6 0.8z"/>
					</g>
				</g>
				<g id="&lt;Group&gt;">
					<g id="&lt;Group&gt;">
						<path id="&lt;Path&gt;" class="s6" d="m752.7 375.6c0 0.4-3 0.8-6.8 0.8-3.8 0-6.8-0.4-6.8-0.8 0-0.4 3-0.7 6.8-0.7 3.8 0 6.8 0.3 6.8 0.7z"/>
					</g>
				</g>
				<g id="&lt;Group&gt;">
					<g id="&lt;Group&gt;">
						<path id="&lt;Path&gt;" class="s6" d="m752.7 398.1c0 0.4-3 0.8-6.8 0.8-3.8 0-6.8-0.4-6.8-0.8 0-0.4 3-0.7 6.8-0.7 3.8 0 6.8 0.3 6.8 0.7z"/>
					</g>
				</g>
				<g id="&lt;Group&gt;">
					<g id="&lt;Group&gt;">
						<path id="&lt;Path&gt;" class="s5" d="m876.7 397.1c0 0.4-22.7 0.7-50.8 0.7-28 0-50.7-0.3-50.7-0.7 0-0.4 22.7-0.7 50.7-0.7 28.1 0 50.8 0.3 50.8 0.7z"/>
					</g>
				</g>
				<g id="&lt;Group&gt;">
					<g id="&lt;Group&gt;">
						<path id="&lt;Path&gt;" class="s5" d="m867.8 375.6c0 0.4-21.7 0.8-48.4 0.8-26.7 0-48.4-0.4-48.4-0.8 0-0.4 21.7-0.7 48.4-0.7 26.7 0 48.4 0.3 48.4 0.7z"/>
					</g>
				</g>
				<g id="&lt;Group&gt;">
					<g id="&lt;Group&gt;">
						<path id="&lt;Path&gt;" class="s5" d="m1101.6 354.7c0 0.4-73.8 0.7-164.7 0.7-91.1 0-164.8-0.3-164.8-0.7 0-0.4 73.7-0.7 164.8-0.7 90.9 0 164.7 0.3 164.7 0.7z"/>
					</g>
				</g>
			</g>
		</g>
		<g id="&lt;Group&gt;">
			<g id="&lt;Group&gt;">
				<path id="&lt;Path&gt;" class="s7" d="m1265 288v282.1l-43.9 36.6h43.9 4.3 181.2v-318.7z"/>
				<g id="&lt;Group&gt;">
					<path id="&lt;Path&gt;" class="s5" d="m1265 288q0 0 3.2 0 3.3-0.1 9.6-0.1c8.5 0 21 0 37-0.1 32.1 0 78.5-0.1 135.7-0.2h0.4v0.4c0 85.1 0.1 196.3 0.1 318.7v0.5h-0.5c-10.2 0-21.1 0-32.1 0-69.9 0-136.6 0-197.3 0h-1.3l1-0.9c15.2-12.6 29.8-24.8 43.9-36.6l-0.2 0.4c0.1-84.4 0.2-154.9 0.3-204.4 0-24.7 0.1-44.2 0.1-57.4 0-6.6 0-11.7 0.1-15.2q0-2.5 0-3.8 0-1.3 0-1.3 0 0 0 1.3 0 1.4 0.1 4c0 3.4 0 8.5 0 15.2 0 13.3 0.1 32.7 0.1 57.5 0.1 49.4 0.2 119.9 0.3 204.1v0.2l-0.2 0.1c-14.1 11.8-28.7 24-43.8 36.6l-0.4-0.8c60.7 0 127.4 0 197.3-0.1 11 0 21.9 0 32.1 0l-0.5 0.6c0-122.4 0.1-233.6 0.1-318.7l0.4 0.4c-57.1-0.1-103.4-0.2-135.5-0.2-16-0.1-28.5-0.1-37-0.1q-6.4-0.1-9.7-0.1c-2.2 0-3.3 0-3.3 0z"/>
				</g>
			</g>
			<g id="&lt;Group&gt;">
				<g id="&lt;Group&gt;">
					<path id="&lt;Path&gt;" class="s5" d="m1281.9 302c0 2.1-1.7 3.8-3.8 3.8-2.1 0-3.8-1.7-3.8-3.8 0-2 1.7-3.7 3.8-3.7 2.1 0 3.8 1.7 3.8 3.7z"/>
					<path id="&lt;Path&gt;" class="s5" d="m1295.5 302c0 2.1-1.7 3.8-3.8 3.8-2.1 0-3.8-1.7-3.8-3.8 0-2 1.7-3.7 3.8-3.7 2.1 0 3.8 1.7 3.8 3.7z"/>
					<path id="&lt;Path&gt;" class="s5" d="m1309.1 302c0 2.1-1.7 3.8-3.8 3.8-2.1 0-3.8-1.7-3.8-3.8 0-2 1.7-3.7 3.8-3.7 2.1 0 3.8 1.7 3.8 3.7z"/>
				</g>
				<g id="&lt;Group&gt;">
					<g id="&lt;Group&gt;">
						<g id="&lt;Group&gt;">
							<path id="&lt;Path&gt;" class="s6" d="m1399.5 388.9c0 0.4-23.5 0.6-52.5 0.6-29 0-52.5-0.2-52.5-0.6 0-0.3 23.5-0.6 52.5-0.6 29 0 52.5 0.3 52.5 0.6z"/>
						</g>
					</g>
					<g id="&lt;Group&gt;">
						<g id="&lt;Group&gt;">
							<path id="&lt;Path&gt;" class="s6" d="m1421.4 414.5c0 0.3-28.6 0.6-63.9 0.6-35.3 0-63.9-0.3-63.9-0.6 0-0.4 28.6-0.6 63.9-0.6 35.3 0 63.9 0.2 63.9 0.6z"/>
						</g>
					</g>
					<g id="&lt;Group&gt;">
						<g id="&lt;Group&gt;">
							<path id="&lt;Path&gt;" class="s6" d="m1426.6 509.7c0 0.3-30.5 0.6-68.1 0.6-37.7 0-68.2-0.3-68.2-0.6 0-0.4 30.5-0.6 68.2-0.6 37.6 0 68.1 0.2 68.1 0.6z"/>
						</g>
					</g>
					<g id="&lt;Group&gt;">
						<g id="&lt;Group&gt;">
							<path id="&lt;Path&gt;" class="s6" d="m1304.3 427.4c0 0.4-2.9 0.6-6.5 0.6-3.5 0-6.5-0.2-6.5-0.6 0-0.3 3-0.6 6.5-0.6 3.6 0 6.5 0.3 6.5 0.6z"/>
						</g>
					</g>
					<g id="&lt;Group&gt;">
						<g id="&lt;Group&gt;">
							<path id="&lt;Path&gt;" class="s6" d="m1349.1 427.7c0 0.3-6.3 0.6-14.1 0.6-7.8 0-14.1-0.3-14.1-0.6 0-0.3 6.3-0.6 14.1-0.6 7.8 0 14.1 0.3 14.1 0.6z"/>
						</g>
					</g>
					<g id="&lt;Group&gt;">
						<g id="&lt;Group&gt;">
							<path id="&lt;Path&gt;" class="s6" d="m1377.7 427.7c0 0.3-5.4 0.6-12 0.6-6.7 0-12.1-0.3-12.1-0.6 0-0.3 5.4-0.6 12.1-0.6 6.6 0 12 0.3 12 0.6z"/>
						</g>
					</g>
					<g id="&lt;Group&gt;">
						<g id="&lt;Group&gt;">
							<path id="&lt;Path&gt;" class="s6" d="m1302.5 444c0 0.3-2.5 0.6-5.6 0.6-3 0-5.6-0.3-5.6-0.6 0-0.3 2.6-0.6 5.6-0.6 3.1 0 5.6 0.3 5.6 0.6z"/>
						</g>
					</g>
					<g id="&lt;Group&gt;">
						<g id="&lt;Group&gt;">
							<path id="&lt;Path&gt;" class="s6" d="m1303 461c0 0.3-2.6 0.6-5.8 0.6-3.2 0-5.9-0.3-5.9-0.6 0-0.3 2.7-0.6 5.9-0.6 3.2 0 5.8 0.3 5.8 0.6z"/>
						</g>
					</g>
					<g id="&lt;Group&gt;">
						<g id="&lt;Group&gt;">
							<path id="&lt;Path&gt;" class="s6" d="m1303 480.3c0 0.3-2.6 0.6-5.8 0.6-3.2 0-5.9-0.3-5.9-0.6 0-0.4 2.7-0.6 5.9-0.6 3.2 0 5.8 0.2 5.8 0.6z"/>
						</g>
					</g>
					<g id="&lt;Group&gt;">
						<g id="&lt;Group&gt;">
							<path id="&lt;Path&gt;" class="s6" d="m1409.1 479.4c0 0.3-19.5 0.6-43.4 0.6-24 0-43.5-0.3-43.5-0.6 0-0.4 19.5-0.6 43.5-0.6 23.9 0 43.4 0.2 43.4 0.6z"/>
						</g>
					</g>
					<g id="&lt;Group&gt;">
						<g id="&lt;Group&gt;">
							<path id="&lt;Path&gt;" class="s6" d="m1401.5 461c0 0.3-18.6 0.6-41.4 0.6-22.9 0-41.4-0.3-41.4-0.6 0-0.3 18.5-0.6 41.4-0.6 22.8 0 41.4 0.3 41.4 0.6z"/>
						</g>
					</g>
					<g id="&lt;Group&gt;">
						<g id="&lt;Group&gt;">
							<path id="&lt;Path&gt;" class="s6" d="m1311.5 535.1c0 0.3-2.6 0.6-5.9 0.6-3.2 0-5.8-0.3-5.8-0.6 0-0.4 2.6-0.6 5.8-0.6 3.3 0 5.9 0.2 5.9 0.6z"/>
						</g>
					</g>
					<g id="&lt;Group&gt;">
						<g id="&lt;Group&gt;">
							<path id="&lt;Path&gt;" class="s6" d="m1311.5 554.3c0 0.4-2.6 0.6-5.9 0.6-3.2 0-5.8-0.2-5.8-0.6 0-0.3 2.6-0.6 5.8-0.6 3.3 0 5.9 0.3 5.9 0.6z"/>
						</g>
					</g>
					<g id="&lt;Group&gt;">
						<g id="&lt;Group&gt;">
							<path id="&lt;Path&gt;" class="s6" d="m1417.6 553.4c0 0.4-19.5 0.6-43.5 0.6-24 0-43.4-0.2-43.4-0.6 0-0.3 19.4-0.6 43.4-0.6 24 0 43.5 0.3 43.5 0.6z"/>
						</g>
					</g>
					<g id="&lt;Group&gt;">
						<g id="&lt;Group&gt;">
							<path id="&lt;Path&gt;" class="s6" d="m1409.9 535.1c0 0.3-18.5 0.6-41.4 0.6-22.8 0-41.4-0.3-41.4-0.6 0-0.4 18.6-0.6 41.4-0.6 22.9 0 41.4 0.2 41.4 0.6z"/>
						</g>
					</g>
					<g id="&lt;Group&gt;">
						<g id="&lt;Group&gt;">
							<path id="&lt;Path&gt;" class="s6" d="m1432.3 443.1c0 0.3-25.3 0.6-56.4 0.6-31.1 0-56.4-0.3-56.4-0.6 0-0.3 25.3-0.6 56.4-0.6 31.1 0 56.4 0.3 56.4 0.6z"/>
						</g>
					</g>
					<g id="&lt;Group&gt;">
						<g id="&lt;Group&gt;">
							<path id="&lt;Path&gt;" class="s5" d="m1448.8 316.8c0 0.3-40.8 0.6-91 0.6-50.3 0-91-0.3-91-0.6 0-0.4 40.7-0.6 91-0.6 50.2 0 91 0.2 91 0.6z"/>
						</g>
					</g>
					<g id="&lt;Group&gt;">
						<g id="&lt;Group&gt;">
							<path id="&lt;Path&gt;" class="s6" d="m1332.9 373.6c0 0.3-8.7 0.6-19.3 0.6-10.6 0-19.2-0.3-19.2-0.6 0-0.4 8.6-0.6 19.2-0.6 10.6 0 19.3 0.2 19.3 0.6z"/>
						</g>
					</g>
					<g id="&lt;Group&gt;">
						<g id="&lt;Group&gt;">
							<path id="&lt;Path&gt;" class="s6" d="m1311.1 338.7c0 0.4-4.1 0.6-9.1 0.6-5 0-9-0.2-9-0.6 0-0.3 4-0.6 9-0.6 5 0 9.1 0.3 9.1 0.6z"/>
						</g>
					</g>
				</g>
			</g>
		</g>
	</g>
	<g id="Character">
		<g id="&lt;Group&gt;">
			<g id="&lt;Group&gt;">
				<g id="&lt;Group&gt;">
					<g id="&lt;Group&gt;">
						<g id="&lt;Group&gt;">
							<path id="&lt;Path&gt;" class="s6" d="m1150.5 749.5l40.3-39.8-71.8-123c-7.5-8.6-17-15.2-27.6-19.2l-25.3-9.6-62.9-11.6-44.6 17.6c-11.3 4.5-18.2 16-16.8 28l11.7 98.3 6.9 128.1 162.3-28.2-16.4-47.3 0.6-73.9z"/>
							<g id="&lt;Group&gt;">
								<g id="&lt;Group&gt;">
									<g id="&lt;Group&gt;">
										<g id="&lt;Group&gt;">
											<path id="&lt;Path&gt;" class="s5" d="m1107.8 739.6c0.4 0 0.5-25.5 0.2-57.1-0.2-31.5-0.7-57.1-1.1-57.1-0.4 0-0.5 25.6-0.2 57.1 0.2 31.6 0.7 57.1 1.1 57.1z"/>
										</g>
									</g>
								</g>
							</g>
						</g>
						<g id="&lt;Group&gt;">
							<g id="&lt;Group&gt;">
								<path id="&lt;Path&gt;" class="s6" d="m1101.9 758.4l-98.1-39.5c-7.9-3.2-13.3-10.5-13.9-19l-7.2-94c0 0 0.8-40-24.1-42l-14.2 5.6c-18.4 9.8-22.9 36.5-20.4 57.1 3.5 29.4 5 70.9 9 96.3 3.2 20.8 15.7 37.3 35.5 44.5l120.8 26.2z"/>
							</g>
						</g>
						<g id="&lt;Group&gt;">
							<g id="&lt;Group&gt;">
								<g id="&lt;Group&gt;">
									<path id="&lt;Path&gt;" class="s5" d="m984.1 620.2c0 0 0.1 0.7 0.3 2.1q0.2 2.3 0.6 6.2c0.5 5.5 1.2 13.3 2.1 22.8 0.8 9.7 1.8 21.2 2.9 33.9q0.4 4.7 0.8 9.7c0.3 3.4 0.5 6.8 1.3 10.1 0.7 3.3 2.3 6.4 4.9 8.8 2.5 2.4 5.7 4.1 9 5.6 27 11.7 52 21.4 70 28.2 9 3.3 16.3 6 21.5 7.9q3.7 1.3 5.9 2.1c1.3 0.5 2 0.8 2 0.9 0 0-0.8-0.2-2.1-0.6q-2.2-0.7-5.9-1.9c-5.2-1.7-12.6-4.3-21.7-7.6-18.2-6.5-43.1-16-70.2-27.8-3.4-1.5-6.7-3.3-9.4-5.9-2.8-2.5-4.5-5.9-5.3-9.4-0.7-3.5-0.9-6.9-1.2-10.3q-0.4-5-0.8-9.7c-1-12.8-1.9-24.2-2.6-33.9-0.7-9.5-1.3-17.3-1.7-22.8q-0.2-3.9-0.4-6.2c0-1.5 0-2.2 0-2.2z"/>
								</g>
							</g>
						</g>
						<g id="&lt;Group&gt;">
							<g id="&lt;Group&gt;">
								<g id="&lt;Group&gt;">
									<path id="&lt;Path&gt;" class="s5" d="m927.9 671.3q0.1 0 0.2 1.3 0.2 1.4 0.3 3.6c0.3 3.3 0.7 7.8 1.2 13.3 0.5 5.6 1.2 12.3 2.2 19.7 1 7.4 2.2 15.6 4.4 23.9 1.1 4.1 2.6 8 4.8 11.3 2.3 3.3 4.8 6.3 7.3 9 5.2 5.3 10.8 9.2 15.7 11.8 10.1 5.2 17.4 5.3 17.3 5.6q-0.1 0.1-1.3 0c-0.9-0.1-2.1-0.2-3.7-0.5-3.1-0.5-7.6-1.8-12.7-4.3-5.1-2.5-10.8-6.4-16.1-11.7-2.7-2.7-5.2-5.8-7.5-9.2-2.4-3.4-4-7.5-5-11.7-2.3-8.4-3.4-16.6-4.4-24-0.9-7.4-1.5-14.2-1.9-19.8-0.4-5.6-0.6-10.2-0.8-13.4q0-2.2 0-3.6 0-1.3 0-1.3z"/>
								</g>
							</g>
						</g>
						<g id="&lt;Group&gt;">
							<g id="&lt;Group&gt;">
								<g id="&lt;Group&gt;">
									<path id="&lt;Path&gt;" class="s5" d="m969.9 737.1c-0.2-0.1 0.2-2.2 1.7-5.3 1.5-3 4.3-7 8.3-10.5 4-3.4 8.4-5.5 11.6-6.4 3.3-1 5.5-1.1 5.5-1 0 0.2-2 0.6-5.2 1.8-3.1 1.2-7.2 3.4-11.1 6.6-3.8 3.3-6.6 7.1-8.2 10-1.7 2.9-2.4 4.8-2.6 4.8z"/>
								</g>
							</g>
						</g>
						<g id="&lt;Group&gt;" style="opacity: .3">
							<g id="&lt;Group&gt;">
								<g id="&lt;Group&gt;">
									<path id="&lt;Path&gt;" class="s8" d="m1073.7 747.2c-10.5-5.9-20.7-10.5-31.7-15.5-11-4.9-21.7-11.3-28.9-21-13.5-18.2-12-44.6-25.8-62.6q1.4 18.2 2.7 36.3c0.8 11.1-0.9 22.1 6.3 29.6 6 6.4 17.7 11.3 26 14 16.7 5.5 34.7 13.7 51.4 19.2z"/>
								</g>
							</g>
						</g>
					</g>
				</g>
				<path id="&lt;Path&gt;" class="s9" d="m1106.9 632.3l8.5 52.3-8-14.8z"/>
				<g id="&lt;Group&gt;">
					<path id="&lt;Path&gt;" class="s4" d="m981.1 600c0 0.1-0.8 0.2-2.2 0.2q-2.6 0.1-6.2 0.2c-5.2 0.1-12.4 0.4-20.4 0.9-7.9 0.6-15.1 1.4-20.3 2q-3.6 0.4-6.1 0.7c-1.5 0.2-2.3 0.2-2.3 0.2 0-0.1 0.8-0.3 2.2-0.6 1.5-0.3 3.5-0.6 6.1-1 5.2-0.8 12.4-1.7 20.3-2.3 8-0.6 15.3-0.7 20.5-0.7 2.6 0.1 4.7 0.1 6.2 0.2 1.4 0.1 2.2 0.2 2.2 0.2z"/>
				</g>
				<g id="&lt;Group&gt;">
					<path id="&lt;Path&gt;" class="s4" d="m983.9 650.1c0.1 0.3-12.8 1.6-28.7 2.9-15.8 1.3-28.7 2.2-28.8 1.9 0-0.3 12.9-1.6 28.7-2.9 15.9-1.3 28.8-2.2 28.8-1.9z"/>
				</g>
				<g id="&lt;Group&gt;">
					<path id="&lt;Path&gt;" class="s4" d="m988.7 702.7c0 0.1-0.7 0.5-2.1 1.2-1.3 0.7-3.3 1.6-5.8 2.7-4.9 2.1-12 4.5-20 6.3-8.1 1.8-15.5 2.6-20.9 2.8-2.7 0.1-4.9 0.1-6.4 0.1-1.5-0.1-2.3-0.1-2.3-0.2 0-0.1 0.8-0.1 2.3-0.2 1.5-0.1 3.7-0.2 6.4-0.4 5.3-0.4 12.7-1.3 20.7-3.1 7.9-1.8 15-4.1 20-6 2.5-1 4.5-1.8 5.9-2.4 1.3-0.5 2.1-0.8 2.2-0.8z"/>
				</g>
				<g id="&lt;Group&gt;">
					<path id="&lt;Path&gt;" class="s4" d="m1023.5 729.7c0.2 0.3-5.1 2.7-9.7 7.8-4.7 5.2-6.5 10.6-6.8 10.5-0.1 0 0.2-1.4 1.1-3.6 0.9-2.1 2.5-4.9 4.9-7.6 2.4-2.6 5-4.5 7.1-5.6 2-1.2 3.4-1.6 3.4-1.5z"/>
				</g>
				<g id="&lt;Group&gt;">
					<path id="&lt;Path&gt;" class="s4" d="m1059 764.4c-0.3-0.1 0.9-5 3.8-10.3 3-5.4 6.5-9 6.7-8.8 0.2 0.2-2.9 4-5.8 9.3-2.9 5.2-4.4 9.9-4.7 9.8z"/>
				</g>
				<g id="&lt;Group&gt;">
					<path id="&lt;Path&gt;" class="s4" d="m1003.1 570.6c0 0.3-6.2 1.6-13.9 3-7.7 1.4-14 2.3-14 2.1-0.1-0.3 6.1-1.7 13.8-3.1 7.8-1.4 14-2.3 14.1-2z"/>
				</g>
				<g id="&lt;Group&gt;">
					<path id="&lt;Path&gt;" class="s4" d="m1097 574.9c-0.1 0.3-8.7-0.5-19.3-1.8-10.6-1.2-19.1-2.5-19.1-2.8 0.1-0.3 8.7 0.5 19.3 1.8 10.5 1.2 19.1 2.5 19.1 2.8z"/>
				</g>
				<g id="&lt;Group&gt;">
					<path id="&lt;Path&gt;" class="s4" d="m1105 618.5q0 0.1-1.3 0.1-1.3 0-3.5 0c-3.2 0-7.6 0-12.9 0-10.9 0-26 0.1-42.7 0.5-16.6 0.5-31.7 1.1-42.6 1.7-5.4 0.3-9.7 0.5-12.9 0.7q-2.2 0.1-3.5 0.1-1.3 0.1-1.3 0 0 0 1.2-0.2 1.4-0.1 3.5-0.3c3.1-0.3 7.5-0.6 12.9-1 10.9-0.8 26-1.6 42.7-2 16.7-0.4 31.8-0.4 42.7-0.2 5.5 0.1 9.9 0.2 12.9 0.3q2.2 0.1 3.5 0.2 1.3 0.1 1.3 0.1z"/>
				</g>
				<g id="&lt;Group&gt;">
					<path id="&lt;Path&gt;" class="s4" d="m1106.1 673.8c0 0.3-25.7 2.2-57.4 4.3-31.8 2.1-57.5 3.6-57.5 3.3-0.1-0.3 25.7-2.2 57.4-4.3 31.7-2.1 57.5-3.6 57.5-3.3z"/>
				</g>
				<g id="&lt;Group&gt;">
					<path id="&lt;Path&gt;" class="s4" d="m1103.4 722.5c0 0.1-0.8 0.4-2.2 0.9-1.4 0.6-3.5 1.3-6 2.1-5.2 1.7-12.3 3.8-20.4 5.7-8 2-15.3 3.4-20.7 4.2-2.6 0.4-4.8 0.7-6.3 0.9-1.5 0.1-2.3 0.2-2.4 0.1 0 0 0.9-0.2 2.3-0.5q2.6-0.5 6.3-1.2c5.3-1.1 12.6-2.6 20.6-4.5 8-1.9 15.2-3.9 20.4-5.4q3.6-1 6.1-1.8c1.4-0.4 2.3-0.6 2.3-0.5z"/>
				</g>
				<g id="&lt;Group&gt;">
					<path id="&lt;Path&gt;" class="s4" d="m1144.5 634.2c0.1 0.3-8.3 2.7-18.7 5.4-10.3 2.7-18.8 4.6-18.9 4.4-0.1-0.3 8.3-2.7 18.7-5.4 10.4-2.7 18.9-4.6 18.9-4.4z"/>
				</g>
				<g id="&lt;Group&gt;">
					<path id="&lt;Path&gt;" class="s4" d="m1124.9 596.9c0.1 0.2-3.6 1.2-8.3 2-4.6 0.8-8.4 1.3-8.4 1-0.1-0.3 3.6-1.2 8.2-2 4.7-0.9 8.5-1.3 8.5-1z"/>
				</g>
				<g id="&lt;Group&gt;">
					<path id="&lt;Path&gt;" class="s5" d="m984.4 608.5c-0.2 0-0.5-3.4-2.3-8.4-1.8-5-5.5-11.6-11.5-17.1-6.1-5.4-13.1-8.3-18.3-9.6-5.2-1.3-8.5-1.2-8.5-1.4 0-0.1 0.8-0.2 2.3-0.1 1.5 0 3.7 0.2 6.4 0.8 5.3 1.1 12.5 3.9 18.8 9.5 6.2 5.6 9.8 12.5 11.4 17.7 0.9 2.6 1.3 4.7 1.5 6.2 0.2 1.5 0.3 2.4 0.2 2.4z"/>
				</g>
				<g id="&lt;Group&gt;">
					<path id="&lt;Path&gt;" class="s5" d="m1101.2 581.8c0.3 0 1.8 8.1 3.5 18.3 1.6 10.1 2.7 18.4 2.4 18.4-0.3 0.1-1.8-8.1-3.5-18.3-1.6-10.1-2.7-18.4-2.4-18.4z"/>
				</g>
			</g>
			<g id="&lt;Group&gt;">
				<g id="&lt;Group&gt;">
					<g id="&lt;Group&gt;">
						<g id="&lt;Group&gt;">
							<path id="&lt;Path&gt;" class="s6" d="m1210.5 876.6c0 0 75.3 20.8 78.4 21.9 4.5 1.6 3.7 18.2-3.3 18-3.4-0.2-57.9 2-64.8 1.6-6.9-0.5-27.7-8.7-27.7-8.7z"/>
						</g>
					</g>
				</g>
				<g id="&lt;Group&gt;">
					<g id="&lt;Group&gt;">
						<g id="&lt;Group&gt;">
							<g id="&lt;Group&gt;">
								<path id="&lt;Path&gt;" class="s5" d="m1241.9 905.3c0.4 0.1 0.9-3.9 3.3-8.1 2.4-4.2 5.6-6.6 5.3-6.9-0.1-0.3-3.9 1.8-6.4 6.3-2.6 4.5-2.5 8.8-2.2 8.7z"/>
							</g>
						</g>
					</g>
				</g>
				<g id="&lt;Group&gt;">
					<g id="&lt;Group&gt;">
						<g id="&lt;Group&gt;">
							<g id="&lt;Group&gt;">
								<path id="&lt;Path&gt;" class="s5" d="m1234 901.8c0.4 0 1.1-3.5 3.2-7.5 1.9-3.9 4.3-6.7 4.1-6.9-0.2-0.3-3.2 2.2-5.3 6.4-2.1 4.1-2.3 7.9-2 8z"/>
							</g>
						</g>
					</g>
				</g>
				<g id="&lt;Group&gt;">
					<g id="&lt;Group&gt;">
						<g id="&lt;Group&gt;">
							<g id="&lt;Group&gt;">
								<path id="&lt;Path&gt;" class="s5" d="m1226.6 899.8c0.4 0 0.1-3.8 1.8-8 1.6-4.2 4.4-6.7 4.1-7-0.1-0.3-3.5 2-5.3 6.6-1.8 4.5-0.9 8.5-0.6 8.4z"/>
							</g>
						</g>
					</g>
				</g>
				<g id="&lt;Group&gt;">
					<g id="&lt;Group&gt;">
						<g id="&lt;Group&gt;">
							<g id="&lt;Group&gt;">
								<path id="&lt;Path&gt;" class="s5" d="m1228 890.1c0.1 0 0.8-2.1 0.8-5.7 0-1.7-0.2-3.8-0.8-6.1q-0.4-1.7-1.1-3.5c-0.2-0.6-0.5-1.3-1.2-1.8-0.7-0.7-2-0.5-2.6 0.1-0.7 0.6-0.9 1.4-1 2.1q-0.1 1-0.1 2 0 2 0.5 3.7c0.5 2.3 1.4 4.2 2.3 5.8 1.8 3 3.3 4.6 3.4 4.5 0.2-0.1-1.1-1.9-2.6-5-0.8-1.5-1.5-3.4-2-5.6q-0.3-1.6-0.4-3.4c0.1-1.2 0.1-2.6 0.7-3.2q0.6-0.4 1 0c0.4 0.2 0.6 0.7 0.9 1.3q0.7 1.7 1.1 3.3c0.6 2.2 0.9 4.2 1 5.9 0.2 3.4-0.1 5.5 0.1 5.6z"/>
							</g>
						</g>
					</g>
				</g>
				<g id="&lt;Group&gt;">
					<g id="&lt;Group&gt;">
						<g id="&lt;Group&gt;">
							<g id="&lt;Group&gt;">
								<path id="&lt;Path&gt;" class="s5" d="m1227.9 889.3c0-0.1-1.8-0.8-4.9-0.8-1.5 0-3.3 0.2-5.3 0.7-1 0.2-2 0.5-3.1 1.1-1 0.5-2.1 2-1.7 3.4 0.3 1.4 1.5 2.4 2.7 2.7 1.2 0.4 2.4 0.2 3.4 0 2.1-0.5 3.7-1.5 4.9-2.4 2.4-1.9 3.6-3.3 3.5-3.4-0.1-0.2-1.6 1-4 2.7-1.3 0.8-2.8 1.6-4.6 2-1 0.2-1.9 0.2-2.8-0.1-0.9-0.2-1.7-0.9-1.9-1.7-0.2-0.9 0.3-1.7 1.1-2.2 0.9-0.5 1.9-0.7 2.8-1 1.8-0.5 3.6-0.8 5.1-0.9 2.9-0.2 4.8 0.1 4.8-0.1z"/>
							</g>
						</g>
					</g>
				</g>
				<g id="&lt;Group&gt;">
					<g id="&lt;Group&gt;">
						<g id="&lt;Group&gt;">
							<g id="&lt;Group&gt;">
								<path id="&lt;Path&gt;" class="s5" d="m1253.5 906.1c0.3 0 0-3.2 1.4-6.8 1.4-3.5 4-5.6 3.7-5.9-0.1-0.3-3.2 1.5-4.8 5.5-1.7 3.9-0.7 7.4-0.3 7.2z"/>
							</g>
						</g>
					</g>
				</g>
				<g id="&lt;Group&gt;">
					<g id="&lt;Group&gt;">
						<g id="&lt;Group&gt;">
							<g id="&lt;Group&gt;">
								<path id="&lt;Path&gt;" class="s5" d="m1200.9 909.6c-0.1 0.1 1 0.6 2.9 1.4 1.9 0.7 4.8 1.7 8.4 2.6 7.2 1.8 17.5 2.8 28.7 2.7 11.3-0.1 21.5-0.6 28.9-0.9q5.2-0.3 8.7-0.5c2.1-0.1 3.2-0.2 3.2-0.3 0-0.1-1.1-0.2-3.2-0.2q-3.5 0-8.7 0.1c-7.7 0.1-17.7 0.3-28.9 0.5-11.2 0.2-21.4-0.7-28.5-2.3-7.2-1.5-11.4-3.3-11.5-3.1z"/>
							</g>
						</g>
					</g>
				</g>
				<g id="&lt;Group&gt;">
					<g id="&lt;Group&gt;">
						<g id="&lt;Group&gt;">
							<g id="&lt;Group&gt;">
								<path id="&lt;Path&gt;" class="s5" d="m1198.6 911.3c0.1 0.2 2.2-1 5.7-2.5 3.4-1.5 8.6-3.3 14.2-2.4 5.7 0.9 9.8 4.7 12.4 7.3 2.6 2.8 4.2 4.6 4.3 4.5 0.1-0.1-1.2-2.1-3.7-5.1-1.2-1.4-2.9-3.1-5-4.6-2.1-1.6-4.7-2.9-7.8-3.3-6-1-11.4 1.1-14.8 2.8-3.4 1.7-5.3 3.2-5.3 3.3z"/>
							</g>
						</g>
					</g>
				</g>
			</g>
			<g id="&lt;Group&gt;">
				<g id="&lt;Group&gt;">
					<g id="&lt;Group&gt;">
						<g id="&lt;Group&gt;">
							<path id="&lt;Path&gt;" class="s6" d="m1121.3 859.1c0 0-71.3 46.7-73.9 48.6-3.8 2.9 0.6 16.7 7.2 14.3 3.2-1.1 63-17.8 69.5-20.3 6.4-2.5 23.7-16.6 23.7-16.6z"/>
						</g>
					</g>
				</g>
				<g id="&lt;Group&gt;">
					<g id="&lt;Group&gt;">
						<g id="&lt;Group&gt;">
							<g id="&lt;Group&gt;">
								<path id="&lt;Path&gt;" class="s5" d="m1100.1 896c0.3-0.1-0.9-4.2-4.8-7.6-3.7-3.5-8-4.4-8-4.1-0.1 0.4 3.7 1.7 7.2 5 3.6 3.2 5.3 6.9 5.6 6.7z"/>
							</g>
						</g>
					</g>
				</g>
				<g id="&lt;Group&gt;">
					<g id="&lt;Group&gt;">
						<g id="&lt;Group&gt;">
							<g id="&lt;Group&gt;">
								<path id="&lt;Path&gt;" class="s5" d="m1106.5 890.2c0.3-0.1-1.1-3.7-4.3-7-3.3-3.3-6.8-4.8-6.9-4.5-0.2 0.4 2.9 2.2 6 5.4 3.1 3.1 4.9 6.3 5.2 6.1z"/>
							</g>
						</g>
					</g>
				</g>
				<g id="&lt;Group&gt;">
					<g id="&lt;Group&gt;">
						<g id="&lt;Group&gt;">
							<g id="&lt;Group&gt;">
								<path id="&lt;Path&gt;" class="s5" d="m1112.9 886.1c0.4 0 0-4.1-3.1-7.8-3-3.8-6.9-5-7-4.7-0.2 0.3 3.2 1.9 6 5.5 2.9 3.4 3.8 7.1 4.1 7z"/>
							</g>
						</g>
					</g>
				</g>
				<g id="&lt;Group&gt;">
					<g id="&lt;Group&gt;">
						<g id="&lt;Group&gt;">
							<g id="&lt;Group&gt;">
								<path id="&lt;Path&gt;" class="s5" d="m1108.7 877.2c0.2 0-0.8-2-1.6-5.3-0.4-1.7-0.7-3.7-0.8-5.9q-0.1-1.7 0-3.5c0.1-0.6 0.2-1.2 0.4-1.5q0.4-0.5 1-0.2c0.8 0.3 1.2 1.7 1.6 2.8q0.6 1.7 0.7 3.3c0.2 2.3 0.1 4.3-0.2 6-0.5 3.4-1.1 5.4-0.9 5.5 0.1 0 1.1-1.9 1.8-5.4 0.4-1.7 0.6-3.8 0.5-6.2q-0.1-1.7-0.7-3.6-0.3-0.9-0.7-1.9c-0.3-0.6-0.8-1.3-1.6-1.7-0.8-0.4-2-0.2-2.5 0.7-0.5 0.7-0.5 1.4-0.6 2.1q-0.1 1.9 0 3.7c0.2 2.3 0.6 4.4 1.1 6 1.1 3.4 2.4 5.2 2.5 5.1z"/>
							</g>
						</g>
					</g>
				</g>
				<g id="&lt;Group&gt;">
					<g id="&lt;Group&gt;">
						<g id="&lt;Group&gt;">
							<g id="&lt;Group&gt;">
								<path id="&lt;Path&gt;" class="s5" d="m1108.6 876.5c0.1 0.2 1.7-0.7 4.6-1.4 1.4-0.3 3.2-0.6 5.1-0.7 1 0 2 0 2.9 0.2 1 0.2 1.7 0.8 1.7 1.7 0.1 0.9-0.4 1.7-1.2 2.2-0.7 0.6-1.7 0.8-2.6 0.9-1.9 0.2-3.6-0.1-5-0.5-2.9-0.8-4.6-1.5-4.7-1.4 0 0.2 1.5 1.2 4.4 2.3 1.5 0.5 3.3 1 5.4 0.8 1-0.1 2.2-0.4 3.2-1 1.1-0.7 1.9-2 1.8-3.4-0.1-1.6-1.5-2.6-2.7-2.8-1.2-0.3-2.2-0.2-3.2-0.1-2.1 0.1-3.9 0.5-5.3 1-3 0.9-4.5 2.1-4.4 2.2z"/>
							</g>
						</g>
					</g>
				</g>
				<g id="&lt;Group&gt;">
					<g id="&lt;Group&gt;">
						<g id="&lt;Group&gt;">
							<g id="&lt;Group&gt;">
								<path id="&lt;Path&gt;" class="s5" d="m1063.7 919.4c0.1 0.1 1.2-0.7 1.8-2.7 0.6-2 0.2-5.1-1.4-7.8-0.7-1.3-1.6-2.5-2.4-3.5-0.7-1.1-1.5-2-2.4-2.6-0.8-0.7-1.7-1-2.3-1-0.5 0-0.9 0.1-0.8 0.2 0 0.2 1.2 0.1 2.6 1.4 0.6 0.7 1.3 1.6 2 2.6 0.7 1.1 1.5 2.3 2.2 3.5 1.5 2.5 1.9 5.1 1.6 7-0.3 1.8-1 2.8-0.9 2.9z"/>
							</g>
						</g>
					</g>
				</g>
				<g id="&lt;Group&gt;">
					<g id="&lt;Group&gt;">
						<g id="&lt;Group&gt;">
							<g id="&lt;Group&gt;">
								<path id="&lt;Path&gt;" class="s5" d="m1089.3 900.3c0.4 0 0.3-3.6-2.5-6.8-2.7-3.3-6.2-4.1-6.3-3.7-0.1 0.3 2.9 1.5 5.3 4.5 2.5 2.9 3.2 6.1 3.5 6z"/>
							</g>
						</g>
					</g>
				</g>
				<g id="&lt;Group&gt;">
					<g id="&lt;Group&gt;">
						<g id="&lt;Group&gt;">
							<g id="&lt;Group&gt;">
								<path id="&lt;Path&gt;" class="s5" d="m1140.5 887.6c-0.1 0-1.2 0.8-3.2 2.2-2 1.4-4.9 3.3-8.7 5.4-3.9 2-8.6 4.2-14 6.2-5.4 2-11.5 3.9-17.9 5.8-12.8 3.7-24.4 7-32.8 9.6-4 1.2-7.3 2.2-9.9 3-2.3 0.7-3.6 1.2-3.6 1.3 0 0.1 1.4-0.2 3.7-0.8 2.6-0.7 6-1.6 10.1-2.7 8.4-2.3 20-5.5 32.9-9.2 6.4-1.9 12.5-3.8 17.9-5.9 5.4-2.1 10.2-4.4 14-6.5 3.8-2.2 6.7-4.3 8.6-5.8 1.9-1.6 2.9-2.5 2.9-2.6z"/>
							</g>
						</g>
					</g>
				</g>
				<g id="&lt;Group&gt;">
					<g id="&lt;Group&gt;">
						<g id="&lt;Group&gt;">
							<g id="&lt;Group&gt;">
								<path id="&lt;Path&gt;" class="s5" d="m1143.1 888.6c0.1-0.1-2.2-1-6-1.6-3.8-0.6-9.5-0.9-15 1.8-2.7 1.4-4.9 3.4-6.4 5.5-1.6 2.1-2.6 4.2-3.4 6-1.5 3.6-2.1 5.9-1.9 5.9 0.1 0.1 1.1-2.1 2.7-5.5 1.7-3.3 4.4-8.2 9.6-10.8 5.1-2.5 10.5-2.4 14.3-2 3.8 0.4 6.1 0.9 6.1 0.7z"/>
							</g>
						</g>
					</g>
				</g>
			</g>
			<g id="&lt;Group&gt;">
				<g id="&lt;Group&gt;">
					<g id="&lt;Group&gt;">
						<g id="&lt;Group&gt;">
							<path id="&lt;Path&gt;" class="s5" d="m1269.5 742.3c0 0 21.4 7.7 21.5 31.6 0.2 46-92.8 96.6-92.8 96.6l-123.8-82-7.8-3.1c0 0 167.1-62.8 202.9-43.1z"/>
						</g>
					</g>
				</g>
				<g id="&lt;Group&gt;">
					<g id="&lt;Group&gt;">
						<g id="&lt;Group&gt;">
							<g id="&lt;Group&gt;">
								<path id="&lt;Path&gt;" class="s4" d="m1137.1 829.9c0.1 0.1 1.2-0.7 3.2-2.1 2.1-1.5 4.9-3.7 8.5-6.4 7.1-5.5 16.7-13.3 27.1-22.2 10.4-8.9 19.5-17.2 26-23.4 3.2-3.1 5.8-5.6 7.6-7.4 1.7-1.8 2.7-2.8 2.6-2.9 0 0-1.1 0.9-3 2.5-2 1.9-4.6 4.2-7.8 7.1-6.7 6-15.9 14.3-26.2 23.2-10.4 8.9-19.9 16.7-26.9 22.4-3.3 2.7-6.1 5-8.2 6.7-1.9 1.6-3 2.5-2.9 2.5z"/>
							</g>
						</g>
					</g>
				</g>
				<g id="&lt;Group&gt;">
					<g id="&lt;Group&gt;">
						<g id="&lt;Group&gt;">
							<g id="&lt;Group&gt;">
								<path id="&lt;Path&gt;" class="s4" d="m1234.6 759.5c0-0.3-5.5-0.9-11.9 1.1-6.5 1.9-10.8 5.3-10.6 5.5 0.2 0.4 4.7-2.5 10.9-4.3 6.2-1.9 11.6-1.9 11.6-2.3z"/>
							</g>
						</g>
					</g>
				</g>
				<g id="&lt;Group&gt;">
					<g id="&lt;Group&gt;">
						<g id="&lt;Group&gt;">
							<g id="&lt;Group&gt;">
								<path id="&lt;Path&gt;" class="s4" d="m1223.9 752.2c-0.1-0.3-4 1.5-7.3 5.6-3.3 4-4.2 8.3-3.9 8.3 0.4 0.1 1.8-3.7 4.9-7.5 3-3.9 6.5-6 6.3-6.4z"/>
							</g>
						</g>
					</g>
				</g>
				<g id="&lt;Group&gt;">
					<g id="&lt;Group&gt;">
						<g id="&lt;Group&gt;">
							<g id="&lt;Group&gt;">
								<path id="&lt;Path&gt;" class="s5" d="m1276.3 897.7c0.1-0.1-1.4-0.4-3.2 1-1.6 1.3-3.1 4-3.5 7.2-0.5 3.2 0.2 6.1 1.1 7.9 0.9 1.9 1.8 2.8 1.9 2.7 0.2-0.1-0.5-1.2-1.1-3-0.6-1.8-1.1-4.5-0.7-7.4 0.4-2.9 1.6-5.4 2.9-6.7 1.4-1.4 2.7-1.5 2.6-1.7z"/>
							</g>
						</g>
					</g>
				</g>
			</g>
			<g id="&lt;Group&gt;">
				<g id="&lt;Group&gt;">
					<g id="&lt;Group&gt;">
						<g id="&lt;Group&gt;">
							<path id="&lt;Path&gt;" class="s1" d="m1260.7 677.1l-35.2 94.8c-2 5.4-7.2 9-13 8.9l-193.9-2.5v-14.8l72 2.7 30.5-94.7c1-3.2 4-5.4 7.4-5.4l125 0.4c5.5 0 9.2 5.5 7.2 10.6z"/>
							<g id="&lt;Group&gt;">
								<path id="&lt;Path&gt;" class="s5" d="m1260.7 677.1q0 0 0.1-0.3c0-0.2 0.1-0.5 0.2-0.9 0.2-0.8 0.3-2.1-0.1-3.6-0.4-1.5-1.4-3.4-3.4-4.6-1-0.6-2.2-1-3.5-1.1-1.3 0-2.8 0-4.3 0-12.2 0-30-0.1-52.2-0.1-11.1 0-23.3 0-36.5 0q-9.9-0.1-20.5-0.1-5.4 0-10.8 0c-1.9-0.1-3.7 0.1-5.2 1.1-1.5 1-2.7 2.5-3.2 4.2-9.2 28.7-19.5 60.5-30.4 94.6l-0.1 0.2h-0.2c-23-0.9-47.1-1.7-72-2.6l0.4-0.4c0 0.9 0 1.8 0 2.7 0 4.1 0 8.2 0 12.1l-0.3-0.3c43.3 0.5 84.5 1.1 121.8 1.6 18.7 0.2 36.4 0.5 53 0.7q6.2 0.1 12.2 0.2 3 0 6 0.1c1.9 0 3.8-0.2 5.6-0.9 3.6-1.3 6.4-4.1 7.8-7.4q1.9-5.2 3.8-10.1c9.8-26.4 17.7-47.7 23.2-62.4 2.8-7.3 4.9-13 6.3-16.9 1.5-3.8 2.3-5.8 2.3-5.8 0 0-0.7 2-2.1 5.9-1.5 3.9-3.6 9.6-6.3 16.9-5.4 14.7-13.3 36-23 62.4q-1.9 5-3.8 10.1c-1.4 3.5-4.4 6.4-8 7.8-1.9 0.7-3.9 0.9-5.8 0.9q-3-0.1-6-0.1-6-0.1-12.2-0.2c-16.6-0.2-34.3-0.4-53-0.6-37.3-0.5-78.5-1.1-121.9-1.6h-0.3v-0.3c0-3.9 0-8 0-12.1 0-0.9 0-1.8 0-2.7v-0.3h0.4c24.8 0.9 48.9 1.8 71.9 2.7l-0.3 0.2c11-34.1 21.3-65.9 30.5-94.5 0.5-1.9 1.8-3.5 3.4-4.5 1.6-1.1 3.7-1.3 5.5-1.2q5.4 0 10.8 0 10.6 0.1 20.5 0.1c13.2 0 25.4 0.1 36.5 0.1 22.2 0.1 40 0.2 52.2 0.3 1.5 0 3 0 4.3 0 1.4 0.1 2.6 0.6 3.6 1.2 2 1.3 3 3.2 3.4 4.7 0.4 1.5 0.3 2.8 0.1 3.6-0.2 0.8-0.4 1.2-0.4 1.2z"/>
							</g>
						</g>
					</g>
				</g>
				<g id="&lt;Group&gt;">
					<g id="&lt;Group&gt;">
						<path id="&lt;Path&gt;" class="s0" d="m1174.7 712.9c2.5-1.7 7.2-1 9.5 1 2.2 2.1 2.9 5.6 1.8 8.4-1.1 2.8-4 4.8-7.1 4.9-3.2 0.2-6.6-1.8-7.5-4.9-0.9-3.1 0.1-7.7 3.3-9.4z"/>
					</g>
				</g>
			</g>
			<g id="&lt;Group&gt;">
				<g id="&lt;Group&gt;">
					<g id="&lt;Group&gt;">
						<g id="&lt;Group&gt;">
							<path id="&lt;Path&gt;" class="s5" d="m1219 875.7c0 0-174.6-111.9-182.3-116.3-6.6-3.7-24.2-14.5-41.5-9.7-17.3 4.7-32.8 20.2-40.5 42.9-4.5 13-6.6 35.1-7.5 51.7-1.2 19.8 4.9 39.5 17.9 54.6 5.9 6.8 13.2 12.8 21.8 15.5q2.7 0.8 5.6 1.4c33.1 7.2 67.1-7.6 85.7-35.9l4-6.2c0 0 114.4 42 116.2 41.4z"/>
						</g>
					</g>
				</g>
				<g id="&lt;Group&gt;">
					<path id="&lt;Path&gt;" class="s4" d="m1045.7 765.6q0 0-0.5-0.2-0.5-0.4-1.2-0.9c-1.1-0.7-2.6-1.8-4.7-3.1-4.2-2.7-10.3-6.4-18.6-9.5-4.1-1.4-8.8-2.6-13.9-2.9-5.2-0.2-10.7 0.5-16.1 2.6-5.4 2-10.7 5.3-15.4 9.4-2.4 2-4.7 4.3-6.9 6.7-2.1 2.5-4 5.2-5.7 8.1-3.3 5.8-5.8 11.9-7.5 18-1.7 6.1-3 12.1-4.2 17.8-2.5 11.4-3.9 21.8-4 30.6-0.2 8.8 0.7 16 1.5 20.8 0.4 2.4 0.9 4.3 1.1 5.6q0.2 0.9 0.3 1.4 0.1 0.5 0.1 0.5-0.1 0-0.2-0.4-0.2-0.6-0.4-1.5c-0.3-1.2-0.8-3.1-1.3-5.5-0.9-4.9-1.9-12-1.9-20.9 0.1-8.8 1.4-19.4 3.8-30.8 1.3-5.7 2.6-11.7 4.2-17.9 1.8-6.1 4.3-12.3 7.6-18.2 1.7-3 3.6-5.8 5.8-8.3q3.3-3.7 7-6.8c4.9-4.2 10.2-7.4 15.8-9.5 5.5-2.1 11.2-2.8 16.4-2.6 5.3 0.4 10 1.6 14.2 3.1 8.3 3.2 14.4 7.1 18.5 9.8 2.1 1.4 3.6 2.6 4.6 3.4q0.7 0.5 1.2 0.9 0.4 0.3 0.4 0.3z"/>
				</g>
				<g id="&lt;Group&gt;">
					<g id="&lt;Group&gt;">
						<g id="&lt;Group&gt;">
							<g id="&lt;Group&gt;">
								<path id="&lt;Path&gt;" class="s4" d="m1002.7 844.1q0 0 1 0.5 1 0.4 2.8 1.1c2.6 1 6.3 2.4 11.1 4.3 9.7 3.6 23.8 8.9 41.2 15.5 17.5 6.5 38.5 14.3 62 22.8 23.5 8.6 49.6 18 77.4 27.4l0.5 0.2 0.3-0.5c4.3-8.4 9-17.2 13.6-26.1 2.4-4.6 4.8-9.1 7-13.3l0.3-0.5-0.5-0.3c-52.5-33.4-99.5-63.2-133.4-84.7-16.9-10.7-30.6-19.3-40.1-25.3-4.7-2.9-8.3-5.2-10.9-6.8q-1.8-1.1-2.8-1.7c-0.6-0.4-1-0.6-1-0.6 0 0 0.3 0.3 0.9 0.7q1 0.7 2.8 1.8c2.5 1.7 6.1 4 10.8 7 9.4 6.1 23 14.8 39.8 25.6 33.9 21.6 80.8 51.6 133.2 85l-0.2-0.8c-2.2 4.2-4.6 8.8-7 13.3-4.7 9-9.3 17.8-13.6 26.1l0.7-0.3c-27.8-9.4-53.9-18.7-77.4-27.2-23.5-8.6-44.5-16.2-62.1-22.6-17.5-6.4-31.6-11.6-41.3-15.2-4.9-1.7-8.6-3.1-11.2-4q-1.9-0.7-2.9-1.1-1-0.3-1-0.3z"/>
							</g>
						</g>
					</g>
				</g>
			</g>
			<g id="&lt;Group&gt;">
				<path id="&lt;Path&gt;" class="s6" d="m1011.7 472.9c-3-6-6.1-12-7.7-18.5-1.7-6.6-1.8-13.7 1-19.8 1.6-3.6 4.2-6.7 5.5-10.4 1.7-5.2 1-11.2 4.2-15.6 4.9-6.8 15.5-5.2 23.2-8.8 5.9-2.8 10.1-8.8 16.4-10.9 5.5-1.7 11.4 0 16.7 2.2 5.3 2.3 10.5 5.2 16.2 5.9 4 0.6 8.2 0 12.3 0.1 4.1 0 8.4 1 11.3 3.9 2.9 2.9 3.5 8.3 0.4 10.9 7.2-1.2 13.9 6 13.8 13.2-0.1 7.3-5.6 13.7-12.2 16.8-6.6 3-14.1 3.2-21.4 2.6-20.5-1.6-41.2-9.4-55.2-24.5"/>
				<g id="&lt;Group&gt;">
					<g id="&lt;Group&gt;">
						<g id="&lt;Group&gt;">
							<g id="&lt;Group&gt;">
								<g id="&lt;Group&gt;">
									<g id="&lt;Group&gt;">
										<g id="&lt;Group&gt;">
											<g id="&lt;Group&gt;">
												<g id="&lt;Group&gt;">
													<g id="&lt;Group&gt;">
														<g id="&lt;Group&gt;">
															<g id="&lt;Group&gt;">
																<g id="&lt;Group&gt;">
																	<g id="&lt;Group&gt;">
																		<g id="&lt;Group&gt;">
																			<g id="&lt;Group&gt;">
																				<path id="&lt;Path&gt;" class="s10" d="m1016.2 447.2l-14 101.7c-2.4 17.3 10.2 33.1 27.6 34.6 16.2 1.4 30.7-10.1 32.9-26.3 1-7.6 1.9-14 2.1-14.8 0 0 26.2 1.1 31.6-24.2 2.6-12.3 5.9-38 8.6-61.3 3-25-13.8-48-38.5-52.9l-2.4-0.5c-26.8-3.8-44.9 16.9-47.9 43.7z"/>
																			</g>
																		</g>
																	</g>
																</g>
															</g>
														</g>
													</g>
												</g>
											</g>
											<g id="&lt;Group&gt;">
												<g id="&lt;Group&gt;">
													<g id="&lt;Group&gt;">
														<g id="&lt;Group&gt;">
															<g id="&lt;Group&gt;">
																<g id="&lt;Group&gt;">
																	<g id="&lt;Group&gt;">
																		<g id="&lt;Group&gt;">
																			<g id="&lt;Group&gt;">
																				<path id="&lt;Path&gt;" class="s11" d="m1064.9 542c0 0-16.3-1.9-31.3-16 0 0 4.2 19.9 30 22.6z"/>
																			</g>
																		</g>
																	</g>
																</g>
															</g>
														</g>
													</g>
												</g>
											</g>
										</g>
									</g>
								</g>
								<g id="&lt;Group&gt;">
									<g id="&lt;Group&gt;">
										<g id="&lt;Group&gt;">
											<g id="&lt;Group&gt;">
												<g id="&lt;Group&gt;">
													<g id="&lt;Group&gt;">
														<g id="&lt;Group&gt;">
															<g id="&lt;Group&gt;">
																<g id="&lt;Group&gt;">
																	<g id="&lt;Group&gt;">
																		<g id="&lt;Group&gt;">
																			<g id="&lt;Group&gt;">
																				<g id="&lt;Group&gt;">
																					<g id="&lt;Group&gt;">
																						<g id="&lt;Group&gt;">
																							<path id="&lt;Path&gt;" class="s5" d="m1093.6 478.6c-0.3 1.9-2.2 3.2-4.2 2.9-2-0.3-3.4-2.1-3.1-4 0.3-1.9 2.2-3.3 4.2-3 2.1 0.3 3.5 2.1 3.1 4.1z"/>
																						</g>
																					</g>
																				</g>
																			</g>
																		</g>
																	</g>
																</g>
															</g>
														</g>
														<g id="&lt;Group&gt;">
															<g id="&lt;Group&gt;">
																<g id="&lt;Group&gt;">
																	<g id="&lt;Group&gt;">
																		<g id="&lt;Group&gt;">
																			<g id="&lt;Group&gt;">
																				<g id="&lt;Group&gt;">
																					<g id="&lt;Group&gt;">
																						<g id="&lt;Group&gt;">
																							<g id="&lt;Group&gt;">
																								<path id="&lt;Path&gt;" class="s5" d="m1097.1 468.3c-0.6 0.4-2.9-2.2-6.8-2.9-3.9-0.9-7.2 0.6-7.5 0-0.2-0.3 0.5-1 1.9-1.7 1.4-0.6 3.7-1.1 6.1-0.6 2.4 0.5 4.3 1.8 5.3 3 1 1.1 1.3 2.1 1 2.2z"/>
																							</g>
																						</g>
																					</g>
																				</g>
																			</g>
																		</g>
																	</g>
																</g>
															</g>
														</g>
													</g>
													<g id="&lt;Group&gt;">
														<g id="&lt;Group&gt;">
															<g id="&lt;Group&gt;">
																<g id="&lt;Group&gt;">
																	<g id="&lt;Group&gt;">
																		<g id="&lt;Group&gt;">
																			<g id="&lt;Group&gt;">
																				<g id="&lt;Group&gt;">
																					<g id="&lt;Group&gt;">
																						<g id="&lt;Group&gt;">
																							<path id="&lt;Path&gt;" class="s5" d="m1057.2 472.3c-0.3 1.9-2.2 3.2-4.2 2.9-2.1-0.3-3.4-2.1-3.1-4 0.3-1.9 2.2-3.3 4.2-3 2 0.3 3.4 2.1 3.1 4.1z"/>
																						</g>
																					</g>
																				</g>
																			</g>
																		</g>
																	</g>
																</g>
															</g>
														</g>
														<g id="&lt;Group&gt;">
															<g id="&lt;Group&gt;">
																<g id="&lt;Group&gt;">
																	<g id="&lt;Group&gt;">
																		<g id="&lt;Group&gt;">
																			<g id="&lt;Group&gt;">
																				<g id="&lt;Group&gt;">
																					<g id="&lt;Group&gt;">
																						<g id="&lt;Group&gt;">
																							<g id="&lt;Group&gt;">
																								<path id="&lt;Path&gt;" class="s5" d="m1058.5 461.4c-0.5 0.4-2.9-2.2-6.8-3-3.9-0.8-7.1 0.6-7.5 0.1-0.1-0.3 0.5-1.1 1.9-1.7 1.4-0.7 3.7-1.1 6.1-0.6 2.5 0.5 4.3 1.8 5.3 2.9 1.1 1.2 1.3 2.1 1 2.3z"/>
																							</g>
																						</g>
																					</g>
																				</g>
																			</g>
																		</g>
																	</g>
																</g>
															</g>
														</g>
													</g>
													<g id="&lt;Group&gt;">
														<g id="&lt;Group&gt;">
															<g id="&lt;Group&gt;">
																<g id="&lt;Group&gt;">
																	<g id="&lt;Group&gt;">
																		<g id="&lt;Group&gt;">
																			<g id="&lt;Group&gt;">
																				<g id="&lt;Group&gt;">
																					<g id="&lt;Group&gt;">
																						<g id="&lt;Group&gt;">
																							<path id="&lt;Path&gt;" class="s5" d="m1066.9 493.2c0-0.2 2.6-0.2 6.6 0.1 1 0.1 2 0.1 2.3-0.5 0.4-0.7 0.2-1.9-0.1-3.1q-0.7-3.9-1.4-8.2c-1.9-11.7-3.1-21.2-2.7-21.2 0.5-0.1 2.5 9.3 4.4 20.9q0.7 4.3 1.3 8.2c0.1 1.2 0.5 2.6-0.3 4-0.4 0.7-1.2 1.1-1.9 1.2-0.7 0-1.2-0.1-1.7-0.1-4-0.6-6.5-1.1-6.5-1.3z"/>
																						</g>
																					</g>
																				</g>
																			</g>
																		</g>
																	</g>
																</g>
															</g>
														</g>
													</g>
													<g id="&lt;Group&gt;">
														<g id="&lt;Group&gt;">
															<g id="&lt;Group&gt;">
																<g id="&lt;Group&gt;">
																	<g id="&lt;Group&gt;">
																		<g id="&lt;Group&gt;">
																			<g id="&lt;Group&gt;">
																				<g id="&lt;Group&gt;">
																					<g id="&lt;Group&gt;">
																						<g id="&lt;Group&gt;">
																							<path id="&lt;Path&gt;" class="s5" d="m1054.9 493.6c0.6 0.1-0.2 4.3 2.8 8.1 3 3.7 7.7 4.1 7.6 4.7 0 0.3-1.2 0.7-3.1 0.3-1.9-0.3-4.5-1.4-6.4-3.7-1.8-2.3-2.3-5-2.1-6.7 0.2-1.8 0.9-2.8 1.2-2.7z"/>
																						</g>
																					</g>
																				</g>
																			</g>
																		</g>
																	</g>
																</g>
															</g>
														</g>
													</g>
												</g>
											</g>
										</g>
										<g id="&lt;Group&gt;">
											<g id="&lt;Group&gt;">
												<g id="&lt;Group&gt;">
													<g id="&lt;Group&gt;">
														<g id="&lt;Group&gt;">
															<g id="&lt;Group&gt;">
																<g id="&lt;Group&gt;">
																	<g id="&lt;Group&gt;">
																		<g id="&lt;Group&gt;">
																			<path id="&lt;Path&gt;" class="s6" d="m1062.6 446.3c-0.6 0.9-4.4-0.3-9.1-0.7-4.7-0.5-8.6 0.1-9.1-0.9-0.1-0.5 0.7-1.4 2.4-2.1 1.7-0.8 4.2-1.3 7.1-1 2.8 0.2 5.2 1.2 6.7 2.2 1.6 1 2.3 2 2 2.5z"/>
																		</g>
																	</g>
																</g>
															</g>
														</g>
													</g>
												</g>
											</g>
										</g>
										<g id="&lt;Group&gt;">
											<g id="&lt;Group&gt;">
												<g id="&lt;Group&gt;">
													<g id="&lt;Group&gt;">
														<g id="&lt;Group&gt;">
															<g id="&lt;Group&gt;">
																<g id="&lt;Group&gt;">
																	<g id="&lt;Group&gt;">
																		<g id="&lt;Group&gt;">
																			<path id="&lt;Path&gt;" class="s6" d="m1097.9 456.7c-0.9 0.8-3.4-0.7-6.6-1.4-3.2-0.8-6.1-0.6-6.5-1.6-0.2-0.5 0.4-1.3 1.8-1.9 1.3-0.6 3.4-0.9 5.6-0.4 2.2 0.5 4 1.7 4.9 2.8 1 1.2 1.2 2.2 0.8 2.5z"/>
																		</g>
																	</g>
																</g>
															</g>
														</g>
													</g>
												</g>
											</g>
										</g>
									</g>
								</g>
							</g>
						</g>
					</g>
					<g id="&lt;Group&gt;">
						<g id="&lt;Group&gt;">
							<g id="&lt;Group&gt;">
								<g id="&lt;Group&gt;">
									<g id="&lt;Group&gt;">
										<g id="&lt;Group&gt;">
											<g id="&lt;Group&gt;">
												<g id="&lt;Group&gt;">
													<g id="&lt;Group&gt;">
														<g id="&lt;Group&gt;">
															<path id="&lt;Path&gt;" class="s10" d="m1014.5 466.5c-0.4-0.3-16.5-8.7-19.4 8.8-2.9 17.5 15.3 16.8 15.4 16.3 0.1-0.5 4-25.1 4-25.1z"/>
														</g>
													</g>
												</g>
											</g>
										</g>
									</g>
								</g>
							</g>
						</g>
						<g id="&lt;Group&gt;">
							<g id="&lt;Group&gt;">
								<g id="&lt;Group&gt;">
									<g id="&lt;Group&gt;">
										<g id="&lt;Group&gt;">
											<g id="&lt;Group&gt;">
												<g id="&lt;Group&gt;">
													<g id="&lt;Group&gt;">
														<g id="&lt;Group&gt;">
															<g id="&lt;Group&gt;">
																<path id="&lt;Path&gt;" class="s11" d="m1006.2 484.1c0-0.1-0.3 0.2-0.8 0.3-0.6 0.2-1.5 0.2-2.3-0.3-1.8-1-2.8-4.2-2.4-7.4 0.2-1.6 0.8-3 1.6-4.2 0.7-1.2 1.7-1.9 2.7-1.9 0.9-0.1 1.5 0.6 1.6 1.1 0.2 0.5 0 0.9 0.1 0.9 0 0.1 0.4-0.2 0.4-1 0-0.3-0.1-0.8-0.5-1.2-0.4-0.4-1-0.7-1.6-0.7-1.4-0.1-2.8 0.9-3.7 2.2-0.9 1.2-1.6 2.9-1.8 4.7-0.5 3.5 0.8 7.1 3.2 8.3 1.1 0.5 2.2 0.3 2.8 0 0.6-0.4 0.8-0.7 0.7-0.8z"/>
															</g>
														</g>
													</g>
												</g>
											</g>
										</g>
									</g>
								</g>
							</g>
						</g>
					</g>
					<g id="&lt;Group&gt;">
						<g id="&lt;Group&gt;">
							<path id="&lt;Path&gt;" class="s6" d="m1110.1 433.3c-3 6.5-18.5 9-29.8 5.6-10.4-3.2-14.2-9.8-20.8-15.6-4.2-3.6-4.2-3.6-11.1-4.3-5.5-0.6-10 4.9-14.2 8.6 2.4 13.9-3.8 27.6-9.8 40.4-0.7 1.4-1.5 2.9-2.9 3.6-2.3 1.2-5.2-0.7-6.6-2.9-2.2-3.6-2.5-8.1-2.4-12.3 0.2-9.6 1.9-19.3 5.8-28.2 3.9-8.8 10.1-16.7 18.3-21.9 10.1-6.4 23-8.3 34.8-5.7 11.7 2.5 22.5 9.3 30.5 18.3 3.7 4.2 6.9 9 8.2 14.4z"/>
						</g>
					</g>
				</g>
				<g id="&lt;Group&gt;">
					<g id="&lt;Group&gt;">
						<g id="&lt;Group&gt;">
							<path id="&lt;Path&gt;" class="s5" d="m1074.5 475.6c0.1 0 0.1-1.5 0.8-4.1 0.7-2.5 2.4-6.1 6.2-9 3.6-2.8 9.6-4.3 15.5-2.2 2.8 1.1 5.6 3 7.5 5.7 2 2.7 3.1 6.1 3.1 9.6 0 3.5-1.1 6.9-3.1 9.6-1.9 2.7-4.7 4.7-7.5 5.7-5.9 2.2-11.9 0.6-15.5-2.2-3.8-2.8-5.5-6.5-6.2-9-0.7-2.6-0.7-4.1-0.8-4.1q-0.1 0-0.1 1.1c0 0.7 0.1 1.8 0.4 3.1 0.5 2.6 2.1 6.6 6.1 9.7 3.8 3.1 10.2 4.9 16.5 2.6 3.1-1.1 6.1-3.2 8.2-6.1 2.2-2.9 3.4-6.6 3.5-10.4-0.1-3.8-1.3-7.5-3.5-10.4-2.1-2.9-5.1-5-8.2-6.1-6.3-2.3-12.7-0.4-16.5 2.7-4 3-5.6 7-6.1 9.6-0.3 1.3-0.4 2.4-0.4 3.1q0 1.1 0.1 1.1z"/>
						</g>
					</g>
					<g id="&lt;Group&gt;">
						<g id="&lt;Group&gt;">
							<path id="&lt;Path&gt;" class="s5" d="m1033 468.4c0.1 0 0.1-1.5 0.8-4.1 0.7-2.5 2.4-6.2 6.2-9 3.6-2.8 9.6-4.4 15.5-2.2 2.8 1 5.6 3 7.5 5.7 2 2.6 3.1 6 3.1 9.6 0 3.5-1.1 6.9-3.1 9.6-1.9 2.7-4.7 4.6-7.5 5.6-5.9 2.2-11.9 0.6-15.5-2.2-3.8-2.8-5.5-6.5-6.2-9-0.7-2.5-0.7-4-0.8-4q-0.1 0-0.1 1c0 0.8 0.1 1.8 0.4 3.2 0.5 2.6 2.1 6.5 6.1 9.6 3.8 3.1 10.2 4.9 16.5 2.7 3.1-1.1 6.1-3.2 8.2-6.1 2.2-2.9 3.4-6.6 3.5-10.4-0.1-3.9-1.3-7.6-3.5-10.5-2.1-2.9-5.1-5-8.2-6.1-6.3-2.2-12.7-0.4-16.5 2.7-4 3.1-5.6 7-6.1 9.7-0.3 1.3-0.4 2.4-0.4 3.1q0 1.1 0.1 1.1z"/>
						</g>
					</g>
					<g id="&lt;Group&gt;">
						<g id="&lt;Group&gt;">
							<path id="&lt;Path&gt;" class="s5" d="m1067.2 469c0.2 0.3 2.4-0.7 5 0.1 2.6 0.7 3.8 2.8 4.2 2.6 0.1-0.1 0.1-0.7-0.5-1.6-0.6-0.9-1.7-1.9-3.3-2.4-1.6-0.5-3.2-0.2-4.1 0.2-1 0.4-1.4 0.9-1.3 1.1z"/>
						</g>
					</g>
					<g id="&lt;Group&gt;">
						<g id="&lt;Group&gt;">
							<path id="&lt;Path&gt;" class="s5" d="m1009.5 463.9c0 0.4 5.6 0.6 12.4 0.5 6.9-0.1 12.5-0.5 12.5-0.9 0-0.4-5.6-0.6-12.5-0.5-6.9 0.1-12.4 0.5-12.4 0.9z"/>
						</g>
					</g>
				</g>
				<g id="&lt;Group&gt;">
					<path id="&lt;Path&gt;" class="s0" d="m1118.3 416.6c0 0 0 0.6-0.3 1.7-0.3 1-1.1 2.5-2.6 3.7-1.5 1.3-3.8 2.3-6.3 2.6-2.6 0.3-5.5 0-8.4-0.4-5.8-0.9-11.1-2-14.8-3-1.9-0.5-3.4-0.9-4.4-1.2q-0.7-0.2-1.2-0.4-0.4-0.2-0.4-0.2 0 0 0.4 0.1 0.6 0.1 1.2 0.3 1.9 0.5 4.4 1.1c3.8 0.9 9 2 14.9 2.9 2.9 0.4 5.7 0.7 8.2 0.4 2.5-0.2 4.7-1.1 6.2-2.4 1.5-1.2 2.3-2.6 2.6-3.6 0.4-1 0.4-1.6 0.5-1.6z"/>
				</g>
				<g id="&lt;Group&gt;">
					<path id="&lt;Path&gt;" class="s0" d="m1122.1 420.6c0 0-0.1 1.9-1.5 4.8-1.3 2.8-3.9 6.4-8 8.9-4.1 2.5-8.6 3.1-11.7 2.9-3.1-0.2-4.9-1-4.9-1 0 0 0.5 0.1 1.3 0.3 0.8 0.1 2.1 0.3 3.6 0.4 3.1 0.1 7.4-0.5 11.5-3 4-2.4 6.6-5.9 8-8.7 0.7-1.3 1.1-2.5 1.3-3.3 0.3-0.9 0.4-1.3 0.4-1.3z"/>
				</g>
			</g>
		</g>
	</g>
</svg>