<svg version="1.2" xmlns="http://www.w3.org/2000/svg" viewBox="0 0 1500 1000" width="1500" height="1000">
	<title>4751531-ai</title>
	<style>
		.s0 { fill: #f5f5f5 } 
		.s1 { fill: #e0e0e0 } 
		.s2 { fill: #ebebeb } 
		.s3 { fill: #ffffff } 
		.s4 { fill: #263238 } 
		.s5 { fill:  #BA68C8 } 
		.s6 { fill: #455a64 } 
		.s7 { fill: #fafafa } 
		.s8 { fill: #ffbe9d } 
		.s9 { fill: #eb996e } 
		.s10 { fill: #000000 } 
	</style>
	<g id="Background Complete">
		<g id="&lt;Group&gt;">
			<g id="&lt;Group&gt;">
				<g id="&lt;Group&gt;">
					<g id="&lt;Group&gt;">
						<g id="&lt;Group&gt;">
							<g id="&lt;Group&gt;">
								<g id="&lt;Group&gt;">
									<path id="&lt;Path&gt;" class="s0" d="m1405.5 354.8l-219.8 27.9-25.8-203.8 219.7-27.9z"/>
								</g>
							</g>
						</g>
					</g>
				</g>
				<g id="&lt;Group&gt;">
					<g id="&lt;Group&gt;">
						<path id="&lt;Path&gt;" class="s1" d="m1298.6 207.9c-8.7 1.2-14.9 8.8-13.9 17.2 1.1 8.4 9 14.3 17.8 13.2 8.7-1.1 14.9-8.8 13.8-17.2-1-8.4-9-14.3-17.7-13.2z"/>
					</g>
					<g id="&lt;Group&gt;">
						<path id="&lt;Compound Path&gt;" fill-rule="evenodd" class="s1" d="m1365.5 169.1l0.1 0.8c6.3 51.2 11.6 93.8 15.2 123.7 1.8 14.8 3.2 26.4 4.2 34.5q0.6 5.8 1 9 0.2 1.4 0.3 2.3 0 0.7 0 0.7 0 0 0 0 0 0 0 0 0 0.1-0.8 0.2-1 0.1-2.5 0.4-3.5 0.4-9.9 1.3c-8.7 1.2-21.5 2.9-37.6 5-32.7 4.3-79.1 10.3-134.8 17.6l-0.9 0.1-0.1-0.9c-3.2-24.8-6.6-51.8-10.3-80.4-1.8-14.2-3.7-28.9-5.6-43.9q-1.4-11.2-2.9-22.7-0.7-5.7-1.4-11.5l-0.8-5.8-0.3-2.9-0.2-1.4-0.1-0.8-0.1-0.3v-0.2-0.1c-0.8 1 1.1-1.5 0.9-1.2 68.2-8.6 131.9-16.6 185.7-23.4zm20.8 171c0 0-0.1-0.2-0.1-0.5l-92.9 11.8c15.6-2 29.5-3.7 41.5-5.2 16.3-1.9 29.1-3.5 37.9-4.5q6.5-0.8 10.1-1.2 1.6-0.2 2.6-0.3 0.9-0.1 0.9-0.1zm-0.1-0.6c0-0.1 0-0.1-0.1-0.2q-0.1-0.9-0.3-2.4-0.5-3.2-1.3-9.1c-1.1-8.1-2.6-19.8-4.6-34.6-3.9-29.6-9.4-71.7-16-122.2-53.3 6.8-116.3 14.9-183.7 23.5l0.1 0.4 0.2 1.5 0.3 2.9 0.8 5.8q0.7 5.7 1.4 11.5 1.5 11.4 2.9 22.7c1.9 14.9 3.7 29.6 5.5 43.9 3.5 27.7 6.8 54 9.9 78.2l46.7-110.9 58.3 60.8 25.7-39.5z"/>
					</g>
				</g>
			</g>
		</g>
		<g id="&lt;Group&gt;">
			<g id="&lt;Group&gt;">
				<g id="&lt;Group&gt;">
					<g id="&lt;Group&gt;">
						<g id="&lt;Group&gt;">
							<g id="&lt;Group&gt;">
								<g id="&lt;Group&gt;">
									<path id="&lt;Path&gt;" class="s0" d="m250.1 877.6l-155.5-25.4 23.6-144.3 155.5 25.4z"/>
								</g>
							</g>
						</g>
					</g>
				</g>
				<g id="&lt;Group&gt;">
					<g id="&lt;Group&gt;">
						<path id="&lt;Path&gt;" class="s1" d="m207 755.8c-6.2-1-12 3-13 8.9-0.9 5.9 3.3 11.5 9.5 12.5 6.1 1.1 11.9-2.9 12.9-8.9 1-5.9-3.3-11.5-9.4-12.5z"/>
					</g>
					<g id="&lt;Group&gt;">
						<path id="&lt;Compound Path&gt;" fill-rule="evenodd" class="s1" d="m260.4 742.8l-0.1 0.6c-6 36.2-11 66.3-14.6 87.4-1.8 10.5-3.2 18.7-4.1 24.4q-0.7 4.1-1.1 6.3-0.2 1-0.3 1.6-0.1 0.6-0.2 0.6 0 0 0 0 0 0 0 0 0.1 0-0.5-0.1-0.7-0.1-1.8-0.3-2.5-0.3-7-1c-6.2-1-15.3-2.4-26.7-4.2-23.1-3.7-56-9-95.4-15.3l-0.7-0.1 0.1-0.6c2.9-17.6 6-36.7 9.2-56.9q2.5-15.2 5.1-31.1 1.3-8 2.6-16.1 0.7-4 1.4-8.1l0.6-4.1 0.4-2.1 0.1-1 0.1-0.5v-0.3l0.1-0.1v-0.1c-0.8 0.5 1-0.7 0.9-0.6 48.2 7.9 93.3 15.3 131.3 21.6zm-20.4 120.8c0 0 0-0.1 0-0.4l-65.7-10.7c11 1.8 20.9 3.5 29.4 4.9 11.4 1.9 20.5 3.5 26.7 4.5q4.6 0.8 7.1 1.3 1.2 0.2 1.9 0.3 0.6 0.1 0.6 0.1zm0-0.4q0.1-0.1 0.1-0.2 0.1-0.6 0.2-1.6 0.4-2.3 1-6.5c0.9-5.8 2.2-14.1 3.8-24.6 3.4-20.9 8.1-50.7 13.8-86.5-37.7-6.1-82.3-13.4-130-21.2v0.4l-0.2 1-0.3 2-0.7 4.1q-0.7 4.1-1.3 8.2-1.4 8.1-2.7 16-2.6 15.9-5.1 31.1c-3.2 19.6-6.3 38.2-9.1 55.4l54.3-66.2 27.5 53.2 25.5-21.7z"/>
					</g>
				</g>
			</g>
		</g>
		<g id="&lt;Group&gt;">
			<g id="&lt;Group&gt;">
				<g id="&lt;Group&gt;">
					<path id="&lt;Path&gt;" class="s2" d="m108.1 223c0 0-13.2 5.4 2.1 33.5 15.2 28.2 25.7 42 25.7 42 0 0 2.8 6.6-2.8 7.8-5.5 1.1-17.9-0.5-20.2 6.4-2.4 7.1 2.9 13.7 13.5 19.3 10.6 5.5 33.3 18.6 35.3 19.8 2.1 1.2 4.1 4.2 0.5 5.6-3.7 1.4-31.2 5-28.7 18 2.5 13 34.5 23.7 37.9 24.9 3.5 1.3 4.4 2.7 4.2 4.6-0.3 1.9-9.6 2.2-17.4 3.6-7.8 1.3-16.6 4.2-14.6 11.6 2.1 7.4 21.3 22.4 67 25.7l21.3 0.2 11.1-18.3c21.4-40.6 18.8-64.8 13.6-70.5-5.2-5.6-12.3 0.3-17.6 6.2-5.2 5.9-10.5 13.7-12.2 12.9-1.7-0.8-2.5-2.3-1.7-5.9 0.8-3.6 8.6-36.5-1.1-45.4-9.7-9-27.3 12.5-30.4 14.8-3.1 2.4-4.6-1-4.5-3.3 0-2.4 1-28.6 1.8-40.5 0.9-11.9-1.9-19.9-9.2-21.6-7.1-1.7-12.2 9.6-16.1 13.7-4 4.1-8.1-1.7-8.1-1.7 0 0-6.2-16.2-22-44.1-15.8-27.9-27.6-19.2-27.6-19.2"/>
				</g>
			</g>
			<g id="&lt;Group&gt;">
				<g id="&lt;Group&gt;">
					<g id="&lt;Group&gt;">
						<path id="&lt;Path&gt;" class="s1" d="m233.1 450.9c-11.5-20.5-31.4-57.3-48.6-88.8-17.2-31.5-32.8-60-44.3-80.6-5.7-10.2-10.3-18.5-13.5-24.3-1.6-2.9-2.8-5.1-3.7-6.6q-0.6-1.1-0.9-1.8-0.3-0.6-0.3-0.6 0 0 0.3 0.6 0.4 0.6 1 1.7c0.9 1.5 2.2 3.7 3.8 6.6 3.3 5.7 8 14 13.8 24.2 11.5 20.5 27.2 49 44.4 80.5 17.2 31.5 37 68.3 48.4 88.9"/>
					</g>
				</g>
			</g>
			<g id="&lt;Group&gt;">
				<g id="&lt;Group&gt;">
					<g id="&lt;Group&gt;">
						<path id="&lt;Path&gt;" class="s1" d="m130.1 315.7c0-0.1 0.5 0.1 1.5 0.4 0.9 0.2 2.3 0.7 4 1.2 3.3 1.2 7.9 2.9 12.9 4.8 5 1.9 9.5 3.7 12.9 5q2.3 0.9 3.9 1.5c0.9 0.4 1.4 0.6 1.4 0.6 0 0.1-0.5-0.1-1.5-0.3-0.9-0.3-2.3-0.8-4-1.3-3.3-1.2-7.9-2.9-12.9-4.9-5-1.9-9.5-3.6-12.9-4.9q-2.3-0.9-3.9-1.5c-0.9-0.4-1.4-0.6-1.4-0.6z"/>
					</g>
				</g>
			</g>
			<g id="&lt;Group&gt;">
				<g id="&lt;Group&gt;">
					<g id="&lt;Group&gt;">
						<path id="&lt;Path&gt;" class="s1" d="m168.1 327.8c-0.2 0 2.9-9.6 6.8-21.4 4-11.8 7.3-21.4 7.5-21.3 0.1 0.1-2.9 9.7-6.8 21.5-4 11.8-7.3 21.3-7.5 21.2z"/>
					</g>
				</g>
			</g>
			<g id="&lt;Group&gt;">
				<g id="&lt;Group&gt;">
					<g id="&lt;Group&gt;">
						<path id="&lt;Path&gt;" class="s1" d="m192.4 377.4c0 0 0.3-0.5 0.8-1.3q1-1.4 2.5-3.5c2-3 4.8-7.1 7.7-11.8 3-4.6 5.5-8.9 7.3-12q1.3-2.2 2.1-3.7c0.6-0.9 0.9-1.4 0.9-1.4 0 0.1-0.2 0.6-0.6 1.5-0.5 0.9-1.1 2.2-2 3.8-1.7 3.2-4.1 7.5-7.1 12.2-2.9 4.6-5.8 8.7-8 11.6-1 1.5-1.9 2.6-2.6 3.4-0.6 0.8-1 1.2-1 1.2z"/>
					</g>
				</g>
			</g>
			<g id="&lt;Group&gt;">
				<g id="&lt;Group&gt;">
					<g id="&lt;Group&gt;">
						<path id="&lt;Path&gt;" class="s1" d="m155.6 374c0-0.1 0.5-0.1 1.4 0q1.6 0.1 4 0.2c3.3 0.2 7.9 0.5 12.9 0.9 5.1 0.4 9.7 0.8 13 1.2q2.3 0.2 4 0.4c0.9 0.1 1.4 0.2 1.4 0.2 0 0.1-0.5 0.1-1.5 0q-1.6 0-3.9-0.2c-3.3-0.2-7.9-0.5-13-0.9-5.1-0.4-9.7-0.8-13-1.2q-2.3-0.2-3.9-0.4c-0.9-0.1-1.5-0.2-1.4-0.2z"/>
					</g>
				</g>
			</g>
			<g id="&lt;Group&gt;">
				<g id="&lt;Group&gt;">
					<g id="&lt;Group&gt;">
						<path id="&lt;Path&gt;" class="s1" d="m171.4 420.5c0-0.1 0.7-0.1 1.9 0q2 0.1 5 0.2c4.3 0.3 10.2 0.6 16.7 1.1 6.5 0.5 12.4 0.9 16.6 1.3q3.1 0.2 5.1 0.4c1.2 0.2 1.8 0.2 1.8 0.3 0 0-0.6 0-1.8 0q-2-0.1-5.1-0.3c-4.3-0.2-10.1-0.6-16.7-1-6.5-0.5-12.3-0.9-16.6-1.3q-3.1-0.3-5-0.5c-1.2-0.1-1.9-0.2-1.9-0.2z"/>
					</g>
				</g>
			</g>
			<g id="&lt;Group&gt;">
				<g id="&lt;Group&gt;">
					<g id="&lt;Group&gt;">
						<path id="&lt;Path&gt;" class="s1" d="m217.4 423.4c0 0 0.4-0.6 1-1.7q1.2-1.8 3-4.6c2.4-3.8 5.8-9.2 9.4-15.2 3.5-6 6.6-11.5 8.8-15.5q1.6-2.9 2.7-4.7c0.6-1.2 1-1.8 1-1.8 0 0.1-0.3 0.7-0.8 1.9-0.6 1.1-1.4 2.8-2.4 4.8-2.2 4.1-5.2 9.6-8.8 15.6-3.5 6.1-7 11.4-9.6 15.2-1.2 1.9-2.3 3.4-3.1 4.4-0.7 1.1-1.1 1.6-1.2 1.6z"/>
					</g>
				</g>
			</g>
		</g>
		<g id="&lt;Group&gt;">
			<g id="&lt;Group&gt;">
				<g id="&lt;Group&gt;">
					<path id="&lt;Path&gt;" class="s1" d="m1416.9 624.8h-311.7c-8.7 0-15.7-7.1-15.7-15.8v-181.2c0-8.7 7-15.7 15.7-15.7h311.7c8.6 0 15.7 7 15.7 15.7v181.2c0 8.7-7.1 15.8-15.7 15.8z"/>
				</g>
			</g>
			<g id="&lt;Group&gt;">
				<g id="&lt;Group&gt;">
					<g id="&lt;Group&gt;">
						<path id="&lt;Path&gt;" class="s2" d="m1287.2 521.3c0 14.5-11.7 26.2-26.2 26.2-14.4 0-26.1-11.7-26.1-26.2 0-14.4 11.7-26.1 26.1-26.1 14.5 0 26.2 11.7 26.2 26.1z"/>
					</g>
				</g>
				<g id="&lt;Group&gt;">
					<g id="&lt;Group&gt;">
						<path id="&lt;Path&gt;" class="s3" d="m1254.7 529v-15.5c0-0.7 0.9-1.2 1.5-0.8l13.8 7.8c0.7 0.3 0.7 1.3 0 1.7l-13.8 7.6c-0.7 0.4-1.5-0.1-1.5-0.8z"/>
					</g>
				</g>
			</g>
			<g id="&lt;Group&gt;">
				<g id="&lt;Group&gt;">
					<path id="&lt;Compound Path&gt;" class="s3" d="m1109.1 600.3v0.6h-2.6v-0.5l1.4-1.3c0.4-0.3 0.4-0.5 0.4-0.7q0-0.5-0.6-0.5-0.6 0-0.9 0.3l-0.4-0.3c0.3-0.4 0.7-0.6 1.3-0.6 0.8 0 1.3 0.4 1.3 1 0 0.4-0.1 0.7-0.6 1.1l-0.9 0.9z"/>
				</g>
				<g id="&lt;Group&gt;">
					<path id="&lt;Compound Path&gt;" class="s3" d="m1109.5 598.6c0-0.3 0.1-0.4 0.4-0.4 0.2 0 0.4 0.1 0.4 0.4 0 0.2-0.2 0.4-0.4 0.4-0.3 0-0.4-0.2-0.4-0.4zm0 1.9c0-0.3 0.1-0.4 0.4-0.4 0.2 0 0.4 0.1 0.4 0.4 0 0.2-0.2 0.4-0.4 0.4-0.3 0-0.4-0.2-0.4-0.4z"/>
				</g>
				<g id="&lt;Group&gt;">
					<path id="&lt;Compound Path&gt;" class="s3" d="m1111.9 597.4v3.5h-0.6v-3h-0.8v-0.5z"/>
				</g>
				<g id="&lt;Group&gt;">
					<path id="&lt;Compound Path&gt;" class="s3" d="m1115.7 600.1h-0.6v0.8h-0.6v-0.8h-2v-0.5l1.8-2.2h0.7l-1.7 2.1h1.2v-0.7h0.6v0.7h0.6z"/>
				</g>
			</g>
			<g id="&lt;Group&gt;">
				<g id="&lt;Group&gt;">
					<path id="&lt;Path&gt;" class="s3" d="m1387.2 600h-265.8v-1.4h265.8z"/>
				</g>
			</g>
			<g id="&lt;Group&gt;">
				<g id="&lt;Group&gt;">
					<path id="&lt;Path&gt;" class="s2" d="m1204.3 600.9h-83.1v-3.8h83.1z"/>
				</g>
			</g>
			<g id="&lt;Group&gt;">
				<g id="&lt;Group&gt;">
					<path id="&lt;Path&gt;" class="s2" d="m1207 599.3c0 2.2-1.8 4-4.1 4-2.2 0-4-1.8-4-4 0-2.2 1.8-4.1 4-4.1 2.3 0 4.1 1.9 4.1 4.1z"/>
				</g>
			</g>
			<g id="&lt;Group&gt;">
				<g id="&lt;Group&gt;">
					<path id="&lt;Compound Path&gt;" fill-rule="evenodd" class="s3" d="m1393.9 599.2c0 0.7-0.6 1.2-1.3 1.2-1 0-1.5-0.6-1.5-1.8 0-1.2 0.7-1.8 1.7-1.8 0.3 0 0.7 0.1 0.9 0.2l-0.2 0.5q-0.3-0.2-0.7-0.2c-0.7 0-1.1 0.4-1.1 1.2 0.2-0.2 0.6-0.3 1-0.3 0.6 0 1.2 0.4 1.2 1zm-0.7 0.1c0-0.4-0.2-0.6-0.7-0.6-0.4 0-0.7 0.2-0.7 0.6 0 0.3 0.3 0.6 0.7 0.6 0.5 0 0.7-0.3 0.7-0.6z"/>
				</g>
				<g id="&lt;Group&gt;">
					<path id="&lt;Compound Path&gt;" class="s3" d="m1394.2 598c0-0.2 0.2-0.4 0.4-0.4 0.2 0 0.4 0.2 0.4 0.4 0 0.3-0.2 0.5-0.4 0.5-0.2 0-0.4-0.2-0.4-0.5zm0 2c0-0.3 0.2-0.5 0.4-0.5 0.2 0 0.4 0.2 0.4 0.5 0 0.2-0.2 0.4-0.4 0.4-0.2 0-0.4-0.2-0.4-0.4z"/>
				</g>
				<g id="&lt;Group&gt;">
					<path id="&lt;Compound Path&gt;" fill-rule="evenodd" class="s3" d="m1395.4 598.6c0-1.2 0.6-1.8 1.5-1.8 0.8 0 1.4 0.6 1.4 1.8 0 1.1-0.6 1.8-1.4 1.8-0.9 0-1.5-0.7-1.5-1.8zm2.3 0c0-0.9-0.3-1.3-0.8-1.3-0.5 0-0.8 0.4-0.8 1.3 0 0.8 0.3 1.2 0.8 1.2 0.5 0 0.8-0.4 0.8-1.2z"/>
				</g>
				<g id="&lt;Group&gt;">
					<path id="&lt;Compound Path&gt;" fill-rule="evenodd" class="s3" d="m1398.8 598.6c0-1.2 0.6-1.8 1.4-1.8 0.9 0 1.5 0.6 1.5 1.8 0 1.1-0.6 1.8-1.5 1.8-0.8 0-1.4-0.7-1.4-1.8zm2.3 0c0-0.9-0.4-1.3-0.9-1.3-0.4 0-0.8 0.4-0.8 1.3 0 0.8 0.4 1.2 0.8 1.2 0.5 0 0.9-0.4 0.9-1.2z"/>
				</g>
			</g>
			<g id="&lt;Group&gt;">
				<g id="&lt;Group&gt;">
					<path id="&lt;Path&gt;" class="s3" d="m1407.5 598.4h-1.4v-3.6h3.5v1.4h-2.1z"/>
				</g>
			</g>
			<g id="&lt;Group&gt;">
				<g id="&lt;Group&gt;">
					<path id="&lt;Path&gt;" class="s3" d="m1409.6 603h-3.5v-3.6h1.4v2.2h2.1z"/>
				</g>
			</g>
			<g id="&lt;Group&gt;">
				<g id="&lt;Group&gt;">
					<path id="&lt;Path&gt;" class="s3" d="m1415.3 603h-3.6v-1.4h2.2v-2.2h1.4z"/>
				</g>
			</g>
			<g id="&lt;Group&gt;">
				<g id="&lt;Group&gt;">
					<path id="&lt;Path&gt;" class="s3" d="m1415.3 598.4h-1.4v-2.2h-2.2v-1.4h3.6z"/>
				</g>
			</g>
			<g id="&lt;Group&gt;">
				<g id="&lt;Group&gt;">
					<g id="&lt;Group&gt;">
						<path id="&lt;Path&gt;" class="s3" d="m1370 432.8c-0.1-0.1 2.6-0.3 7.2-0.4h0.4v0.4c0 2.7 0.1 5.8 0.1 9.2v1.1l-0.8-0.8q-0.5-0.5-1-1-1.2-1.2-2.4-2.4h0.6q-2 1.8-3.8 3.4l-0.8 0.6 0.1-0.9c0-2.9 0.1-5.2 0.2-6.8 0.1-1.6 0.1-2.5 0.2-2.4 0.1 0 0.1 1 0.2 2.6 0.1 1.7 0.2 3.9 0.2 6.6l-0.7-0.4q1.8-1.6 3.8-3.4l0.3-0.3 0.3 0.3q1.2 1.2 2.5 2.4 0.5 0.5 1 1l-0.9 0.4c0.1-3.4 0.1-6.5 0.1-9.2l0.4 0.4c-4.2-0.1-7.1-0.3-7.2-0.4z"/>
					</g>
				</g>
			</g>
			<g id="&lt;Group&gt;">
				<g id="&lt;Group&gt;">
					<g id="&lt;Group&gt;">
						<path id="&lt;Path&gt;" class="s3" d="m1396.6 433.9c0.1 0-0.6 0.8-1.8 2.3-1.2 1.4-2.9 3.6-5.1 6.1l-0.8 0.9v-1.2q0-2.2 0-4.6v-0.4l0.1 0.3q-1.7-1.6-3.2-3.1l-0.8-0.8h1.1c3.2 0 5.9 0.2 7.7 0.3 1.9 0.1 2.9 0.2 2.8 0.2-0.1 0.1-1.3 0.1-3.2 0.2-1.9 0.1-4.4 0.2-7.3 0.2l0.3-0.8q1.6 1.5 3.3 3.1l0.1 0.1v0.3 0.4q0 2.4 0 4.6l-0.8-0.4c2-2.2 3.9-4 5.2-5.4 1.4-1.3 2.3-2.2 2.4-2.3z"/>
					</g>
				</g>
			</g>
			<g id="&lt;Group&gt;">
				<g id="&lt;Group&gt;">
					<g id="&lt;Group&gt;">
						<path id="&lt;Path&gt;" class="s3" d="m1396.6 433.9c0.1 0.3-1.5 1.2-3.5 2-2 0.8-3.7 1.3-3.8 1.1-0.1-0.3 1.5-1.2 3.5-2 2-0.8 3.7-1.3 3.8-1.1z"/>
					</g>
				</g>
			</g>
			<g id="&lt;Group&gt;">
				<g id="&lt;Group&gt;">
					<g id="&lt;Group&gt;">
						<path id="&lt;Path&gt;" class="s3" d="m1409.5 432.8c0-0.1 0.5-0.2 1.3 0 0.8 0.1 2.1 0.6 3.1 1.8 1 1.2 1.6 3.2 0.9 5.2-0.7 2-2.8 3.7-5.3 3.7-2.5 0-4.6-1.7-5.2-3.7-0.7-2-0.1-4 0.9-5.2 1-1.2 2.2-1.7 3-1.8 0.9-0.2 1.3-0.1 1.3 0 0 0.1-0.4 0.1-1.2 0.3-0.7 0.3-1.8 0.8-2.6 1.9-0.8 1.1-1.2 2.8-0.6 4.5 0.6 1.6 2.4 3 4.4 3 2.1 0 3.8-1.4 4.4-3 0.6-1.7 0.2-3.4-0.6-4.5-0.8-1.1-1.8-1.6-2.6-1.9-0.7-0.2-1.2-0.2-1.2-0.3z"/>
					</g>
				</g>
			</g>
			<g id="&lt;Group&gt;">
				<g id="&lt;Group&gt;">
					<g id="&lt;Group&gt;">
						<path id="&lt;Path&gt;" class="s3" d="m1411.3 440.1c-0.2 0.2-1.4-0.7-2.6-1.9l-0.1-0.1v-0.2q0 0 0 0c0-1.8 0.2-3.1 0.5-3.1 0.3 0 0.5 1.3 0.5 3.1q0 0 0 0l-0.2-0.4c1.2 1.3 2.1 2.4 1.9 2.6z"/>
					</g>
				</g>
			</g>
			<g id="&lt;Group&gt;">
				<g id="&lt;Group&gt;">
					<g id="&lt;Group&gt;">
						<path id="&lt;Path&gt;" class="s3" d="m1285.2 439.7c0 0.3-35.2 0.5-78.7 0.5-43.5 0-78.8-0.2-78.8-0.5 0-0.2 35.3-0.5 78.8-0.5 43.5 0 78.7 0.3 78.7 0.5z"/>
					</g>
				</g>
			</g>
			<g id="&lt;Group&gt;">
				<g id="&lt;Group&gt;">
					<path id="&lt;Path&gt;" class="s3" d="m1120.3 439.7c0 3.5-2.8 6.2-6.2 6.2-3.4 0-6.2-2.7-6.2-6.2 0-3.4 2.8-6.2 6.2-6.2 3.4 0 6.2 2.8 6.2 6.2z"/>
				</g>
			</g>
		</g>
	</g>
	<g id="Web">
		<g id="&lt;Group&gt;">
			<g id="&lt;Group&gt;">
				<g id="&lt;Group&gt;">
					<path id="&lt;Path&gt;" class="s3" d="m224.6 88.8v728.2h1011.5v-728.2z"/>
				</g>
				<g id="&lt;Group&gt;">
					<path id="&lt;Path&gt;" class="s1" d="m1234.9 142.6h-1011.6v-53.8h1011.6z"/>
				</g>
				<g id="&lt;Group&gt;">
					<path id="&lt;Path&gt;" class="s4" d="m259.1 116.7c0 3.8-2.9 6.9-6.6 6.9-3.6 0-6.6-3.1-6.6-6.9 0-3.9 3-7 6.6-7 3.7 0 6.6 3.1 6.6 7z"/>
				</g>
				<g id="&lt;Group&gt;">
					<path id="&lt;Path&gt;" class="s4" d="m283.7 116.7c0 3.8-3 6.9-6.6 6.9-3.7 0-6.6-3.1-6.6-6.9 0-3.9 2.9-7 6.6-7 3.6 0 6.6 3.1 6.6 7z"/>
				</g>
				<g id="&lt;Group&gt;">
					<path id="&lt;Path&gt;" class="s4" d="m308.2 116.7c0 3.8-2.9 6.9-6.6 6.9-3.6 0-6.6-3.1-6.6-6.9 0-3.9 3-7 6.6-7 3.7 0 6.6 3.1 6.6 7z"/>
				</g>
				<g id="&lt;Group&gt;">
					<g id="&lt;Group&gt;">
						<g id="&lt;Group&gt;">
							<g id="&lt;Group&gt;">
								<path id="&lt;Path&gt;" class="s4" d="m659.5 200.6c0 0.3-22.1 0.6-49.4 0.6-27.2 0-49.3-0.3-49.3-0.6 0-0.4 22.1-0.7 49.3-0.7 27.3 0 49.4 0.3 49.4 0.7z"/>
							</g>
						</g>
					</g>
					<g id="&lt;Group&gt;">
						<g id="&lt;Group&gt;">
							<g id="&lt;Group&gt;">
								<path id="&lt;Path&gt;" class="s4" d="m790.7 200.6c0 0.3-22.1 0.6-49.3 0.6-27.3 0-49.4-0.3-49.4-0.6 0-0.4 22.1-0.7 49.4-0.7 27.2 0 49.3 0.3 49.3 0.7z"/>
							</g>
						</g>
					</g>
					<g id="&lt;Group&gt;">
						<g id="&lt;Group&gt;">
							<g id="&lt;Group&gt;">
								<path id="&lt;Path&gt;" class="s4" d="m922 200.6c0 0.3-22.1 0.6-49.4 0.6-27.2 0-49.3-0.3-49.3-0.6 0-0.4 22.1-0.7 49.3-0.7 27.3 0 49.4 0.3 49.4 0.7z"/>
							</g>
						</g>
					</g>
					<g id="&lt;Group&gt;">
						<g id="&lt;Group&gt;">
							<g id="&lt;Group&gt;">
								<path id="&lt;Path&gt;" class="s4" d="m1054.4 200.6c0 0.3-22.1 0.6-49.3 0.6-27.3 0-49.4-0.3-49.4-0.6 0-0.4 22.1-0.7 49.4-0.7 27.2 0 49.3 0.3 49.3 0.7z"/>
							</g>
						</g>
					</g>
					<g id="&lt;Group&gt;">
						<g id="&lt;Group&gt;">
							<path id="&lt;Path&gt;" class="s4" d="m1169.4 217.2c0-0.1 0.9-0.1 2.4-0.4 1.5-0.4 3.7-1.4 5.7-3.7 0.9-1.2 1.8-2.7 2.2-4.5 0.5-1.8 0.4-3.9 0.4-6.2-0.3-4.4 1-10.1-2.8-14.2-1.7-2-4.2-3.5-7-3.7-2.8-0.1-5.9 0-9.1 0-6.3 0-13 0-20.1 0.1-14.1 0-29.7 0-46 0-3.9 0-7.5 2.5-9.2 6-0.9 1.8-1.2 3.7-1.2 5.8q0 3.1 0 6.1c0.1 2.1-0.1 4.1 0.4 5.9 0.4 1.8 1.4 3.5 2.6 4.8 1.2 1.3 2.7 2.3 4.4 2.8 1.6 0.6 3.3 0.5 5.1 0.5 14.1 0.1 26.9 0.1 37.6 0.2 10.6 0.1 19.2 0.1 25.3 0.2q4.4 0.1 6.9 0.1 1.1 0.1 1.8 0.1 0.6 0 0.6 0.1 0 0-0.6 0-0.7 0.1-1.8 0.1-2.5 0.1-6.9 0.1c-6.1 0.1-14.7 0.2-25.3 0.3-10.7 0-23.5 0.1-37.6 0.1-1.7 0-3.6 0.1-5.5-0.5-1.8-0.6-3.5-1.7-4.9-3.2-1.4-1.5-2.4-3.3-2.9-5.4-0.3-1-0.4-2.1-0.4-3.1q0-1.5 0-3.1 0-3 0-6.1c-0.1-2.1 0.3-4.5 1.2-6.4 1.9-4 6.1-6.8 10.4-6.8 16.3 0.1 31.9 0.1 46 0.1 7.1 0 13.8 0 20.1 0.1 3.2 0 6.2-0.1 9.2 0 3 0.3 5.8 1.9 7.6 4.1 1.8 2.3 2.8 5 2.8 7.7q0 3.8 0 7.2c0 2.2 0.1 4.4-0.5 6.3-0.5 2-1.4 3.5-2.4 4.7-2.1 2.4-4.5 3.3-6 3.6-1.6 0.3-2.5 0.2-2.5 0.2z"/>
						</g>
					</g>
				</g>
				<g id="&lt;Group&gt;">
					<path id="&lt;Path&gt;" class="s1" d="m590.4 453.8h-271.9c-9.5 0-17.2-7.7-17.2-17.2v-28.4c0-9.5 7.7-17.2 17.2-17.2h271.9c9.5 0 17.2 7.7 17.2 17.2v28.4c0 9.5-7.7 17.2-17.2 17.2z"/>
				</g>
				<g id="&lt;Group&gt;">
					<path id="&lt;Path&gt;" class="s4" d="m223.3 88.8c4.6 0 413.4-0.2 1011.6-0.5h0.5v0.5c0 219.7 0 467.2 0.1 728.1v0.1 0.5h-0.6c-378.5 0-728.7-0.1-1011.6-0.1h-0.4v-0.4c0.2-442 0.4-724.4 0.4-728.2 0 3.8 0.2 286.2 0.5 728.2l-0.5-0.5c282.9 0 633.1-0.1 1011.6-0.1l-0.6 0.6v-0.1c0.1-260.9 0.1-508.4 0.1-728.1l0.5 0.5c-598.2-0.3-1007-0.5-1011.6-0.5z"/>
				</g>
			</g>
			<g id="&lt;Group&gt;">
				<g id="&lt;Group&gt;">
					<g id="&lt;Group&gt;">
						<path id="&lt;Path&gt;" class="s5" d="m1148.6 521.5c0 0 0-1.3 0-3.7q0-3.7-0.1-10.8c0-9.5 0-23.4-0.1-41.2 0-35.7-0.1-87.2-0.2-150.5l0.4 0.4c-97 0.1-224 0.1-362.5 0.1h-0.1l0.6-0.5c0 72.9-0.1 142.7-0.1 206.2l-0.5-0.5c106.2 0.1 196.8 0.2 260.9 0.2 32 0.1 57.4 0.1 74.8 0.2 8.8 0 15.5 0 20 0q3.4 0 5.2 0 1.7 0.1 1.7 0.1 0 0-1.7 0-1.7 0-5.1 0c-4.5 0-11.2 0.1-19.8 0.1-17.4 0-42.8 0.1-74.8 0.1-64.2 0.1-154.9 0.2-261.2 0.3h-0.4v-0.5c0-63.5-0.1-133.3-0.1-206.2v-0.5h0.5 0.1c138.5 0 265.5 0.1 362.5 0.1h0.4v0.4c-0.1 63.4-0.1 115-0.2 150.7 0 17.8-0.1 31.7-0.1 41.1q0 7.1 0 10.7-0.1 3.7-0.1 3.7z"/>
					</g>
				</g>
				<g id="&lt;Group&gt;">
					<g id="&lt;Group&gt;">
						<path id="&lt;Path&gt;" class="s5" d="m1140.8 315q0 0.1-0.9 0.6-0.9 0.6-2.6 1.7c-2.3 1.5-5.7 3.6-10.1 6.3-8.7 5.4-21.4 13.2-37.1 22.7-31.5 19.1-75.2 45.1-124 73-48.8 27.9-93.3 52.4-125.7 69.9-16.2 8.8-29.3 15.8-38.4 20.6-4.5 2.3-8.1 4.2-10.5 5.5q-1.8 0.9-2.8 1.4-0.9 0.4-0.9 0.4 0 0 0.9-0.5 1-0.6 2.7-1.5c2.4-1.3 5.9-3.2 10.4-5.7 9.1-4.9 22.1-12.1 38.3-20.8 32.3-17.7 76.7-42.3 125.5-70.2 48.7-27.9 92.5-53.8 124.1-72.7 15.7-9.5 28.5-17.1 37.3-22.5 4.4-2.6 7.8-4.7 10.2-6.1q1.7-1 2.7-1.5 0.9-0.6 0.9-0.6z"/>
					</g>
				</g>
				<g id="&lt;Group&gt;">
					<g id="&lt;Group&gt;">
						<path id="&lt;Path&gt;" class="s5" d="m1144.4 521.5c-0.1 0.2-79.7-45.3-177.6-101.8-98-56.4-177.3-102.4-177.2-102.6 0.2-0.3 79.7 45.3 177.7 101.7 98 56.5 177.3 102.4 177.1 102.7z"/>
					</g>
				</g>
			</g>
			<g id="&lt;Group&gt;">
				<g id="&lt;Group&gt;">
					<g id="&lt;Group&gt;">
						<g id="&lt;Group&gt;">
							<path id="&lt;Path&gt;" class="s4" d="m1141.2 624c0 0.4-79.2 0.7-176.9 0.7-97.8 0-177-0.3-177-0.7 0-0.4 79.2-0.8 177-0.8 97.7 0 176.9 0.4 176.9 0.8z"/>
						</g>
					</g>
					<g id="&lt;Group&gt;">
						<g id="&lt;Group&gt;">
							<path id="&lt;Path&gt;" class="s4" d="m1141.2 645.4c0 0.4-79.2 0.8-176.9 0.8-97.8 0-177-0.4-177-0.8 0-0.4 79.2-0.7 177-0.7 97.7 0 176.9 0.3 176.9 0.7z"/>
						</g>
					</g>
					<g id="&lt;Group&gt;">
						<g id="&lt;Group&gt;">
							<path id="&lt;Path&gt;" class="s4" d="m945.2 698.8c0 0.4-34.8 0.7-77.6 0.7-42.8 0-77.6-0.3-77.6-0.7 0-0.3 34.8-0.6 77.6-0.6 42.8 0 77.6 0.3 77.6 0.6z"/>
						</g>
					</g>
					<g id="&lt;Group&gt;">
						<g id="&lt;Group&gt;">
							<path id="&lt;Path&gt;" class="s4" d="m1096.4 673c0 0.3-68.6 0.6-153.2 0.6-84.6 0-153.2-0.3-153.2-0.6 0-0.4 68.6-0.7 153.2-0.7 84.6 0 153.2 0.3 153.2 0.7z"/>
						</g>
					</g>
				</g>
				<g id="&lt;Group&gt;">
					<g id="&lt;Group&gt;">
						<path id="&lt;Path&gt;" class="s4" d="m1187.9 738.5c0 0-0.1-1-0.1-2.9q0-2.9 0-8.4c0-7.4-0.1-18.4-0.1-32.5-0.1-28.2-0.1-69.1-0.2-120.2l0.4 0.4c-109.2 0-266.2 0.1-440.5 0.1h-0.1l0.6-0.5c0 57.3-0.1 112.6-0.1 164l-0.5-0.5c127.3 0.1 237.4 0.2 315.7 0.2 39.1 0.1 70.3 0.2 91.7 0.2 10.7 0 19 0 24.6 0.1q4.2 0 6.4 0c1.4 0 2.2 0 2.2 0q0 0-2.2 0-2.1 0.1-6.3 0.1c-5.5 0-13.8 0-24.4 0-21.4 0.1-52.6 0.1-91.7 0.2-78.3 0-188.5 0.1-316 0.2h-0.5v-0.5c0-51.4 0-106.7 0-164v-0.5h0.5 0.1c174.3 0.1 331.3 0.1 440.5 0.2h0.3v0.3c-0.1 51.1-0.1 92.2-0.2 120.4 0 14.1-0.1 25-0.1 32.4q0 5.5 0 8.4 0 2.8 0 2.8z"/>
					</g>
				</g>
			</g>
			<g id="&lt;Group&gt;">
				<path id="&lt;Path&gt;" class="s5" d="m339.8 202.3c0 11.8-10.1 21.4-22.4 21.4-12.4 0-22.5-9.6-22.5-21.4 0-11.8 10.1-21.4 22.5-21.4 12.3 0 22.4 9.6 22.4 21.4z"/>
			</g>
		</g>
		<g id="&lt;Group&gt;">
			<g id="&lt;Group&gt;">
				<path id="&lt;Path&gt;" class="s6" d="m309.6 572h-158.4v-110.2h158.4z"/>
			</g>
			<g id="&lt;Group&gt;">
				<g id="&lt;Group&gt;">
					<path id="&lt;Path&gt;" class="s4" d="m309.6 461.8c0.1 0.2-35.1 25.3-78.8 56-43.7 30.7-79.2 55.4-79.4 55.2-0.2-0.3 35.1-25.4 78.8-56.1 43.7-30.7 79.2-55.4 79.4-55.1z"/>
				</g>
			</g>
			<g id="&lt;Group&gt;">
				<g id="&lt;Group&gt;">
					<path id="&lt;Path&gt;" class="s4" d="m309.6 572q0 0-0.5-0.3-0.4-0.3-1.2-0.8-1.7-1.1-4.6-3.1c-4-2.8-9.7-6.8-16.8-11.7-14.2-10-33.6-23.8-55.2-39-21.4-15.3-40.8-29.2-55-39.3-6.9-5-12.6-9.1-16.6-12q-2.8-2.1-4.4-3.3-0.7-0.5-1.2-0.9-0.4-0.3-0.4-0.3 0 0 0.5 0.2 0.4 0.4 1.2 0.8 1.7 1.2 4.6 3.2c4 2.8 9.7 6.8 16.8 11.7 14.2 10 33.6 23.8 55.2 39 21.4 15.3 40.8 29.2 55 39.3 6.9 5 12.6 9.1 16.6 12q2.8 2.1 4.4 3.3 0.7 0.5 1.2 0.9 0.4 0.3 0.4 0.3z"/>
				</g>
			</g>
		</g>
	</g>
	<g id="HTML">
		<g id="&lt;Group&gt;">
			<g id="&lt;Group&gt;">
				<g id="&lt;Group&gt;">
					<path id="&lt;Path&gt;" class="s7" d="m704.2 945.3h-421.7v-239.7h421.7z"/>
				</g>
				<g id="&lt;Group&gt;">
					<g id="&lt;Group&gt;">
						<path id="&lt;Path&gt;" class="s4" d="m704.2 945.3c0 0 0-1.5 0-4.3q0-4.3-0.1-12.6c0-11 0-27.1-0.1-47.9 0-41.5-0.1-101.3-0.2-174.9l0.4 0.4c-112.8 0-260.5 0.1-421.7 0.1l0.5-0.5c0 84.8 0 165.8-0.1 239.7l-0.4-0.5c123.5 0.1 228.8 0.2 303.4 0.2 37.2 0.1 66.8 0.1 87.1 0.1 10.1 0.1 17.9 0.1 23.2 0.1q3.9 0 6 0 2 0.1 2 0.1 0 0-2 0-2 0-5.9 0c-5.3 0-13 0-23.1 0.1-20.3 0-49.8 0.1-87 0.1-74.6 0.1-180.1 0.1-303.7 0.2h-0.5v-0.4c0-73.9 0-154.9-0.1-239.7v-0.5h0.6c161.2 0 308.9 0.1 421.7 0.1h0.4v0.4c-0.1 73.7-0.1 133.6-0.2 175.2 0 20.7-0.1 36.8-0.1 47.8q0 8.2 0 12.4-0.1 4.3-0.1 4.3z"/>
					</g>
				</g>
			</g>
			<g id="&lt;Group&gt;">
				<g id="&lt;Group&gt;">
					<g id="&lt;Group&gt;">
						<path id="&lt;Path&gt;" class="s2" d="m453.6 744.7c0 0.3-28.7 0.5-64 0.5-35.4 0-64-0.2-64-0.5 0-0.3 28.6-0.5 64-0.5 35.3 0 64 0.2 64 0.5z"/>
					</g>
				</g>
				<g id="&lt;Group&gt;">
					<g id="&lt;Group&gt;">
						<path id="&lt;Path&gt;" class="s2" d="m520.6 767.7c0 0.3-28.7 0.5-64 0.5-35.4 0-64-0.2-64-0.5 0-0.3 28.6-0.6 64-0.6 35.3 0 64 0.3 64 0.6z"/>
					</g>
				</g>
				<g id="&lt;Group&gt;">
					<g id="&lt;Group&gt;">
						<path id="&lt;Path&gt;" class="s2" d="m660 744.7c0 0.3-28.7 0.5-64 0.5-35.4 0-64-0.2-64-0.5 0-0.3 28.6-0.5 64-0.5 35.3 0 64 0.2 64 0.5z"/>
					</g>
				</g>
				<g id="&lt;Group&gt;">
					<g id="&lt;Group&gt;">
						<path id="&lt;Path&gt;" class="s2" d="m508 744.7c0 0.3-7.8 0.5-17.3 0.5-9.6 0-17.3-0.2-17.3-0.5 0-0.3 7.7-0.5 17.3-0.5 9.5 0 17.3 0.2 17.3 0.5z"/>
					</g>
				</g>
				<g id="&lt;Group&gt;">
					<g id="&lt;Group&gt;">
						<path id="&lt;Path&gt;" class="s2" d="m363.9 767.7c0 0.3-7.7 0.5-17.3 0.5-9.5 0-17.3-0.2-17.3-0.5 0-0.3 7.8-0.6 17.3-0.6 9.6 0 17.3 0.3 17.3 0.6z"/>
					</g>
				</g>
				<g id="&lt;Group&gt;">
					<g id="&lt;Group&gt;">
						<path id="&lt;Path&gt;" class="s2" d="m570.4 766.7c0 0.3-7.5 0.5-16.6 0.5-9.2 0-16.7-0.2-16.7-0.5 0-0.3 7.5-0.5 16.7-0.5 9.1 0 16.6 0.2 16.6 0.5z"/>
					</g>
				</g>
			</g>
			<g id="&lt;Group&gt;">
				<g id="&lt;Group&gt;">
					<g id="&lt;Group&gt;">
						<path id="&lt;Path&gt;" class="s2" d="m453.6 797.3c0 0.3-28.7 0.5-64 0.5-35.4 0-64-0.2-64-0.5 0-0.3 28.6-0.5 64-0.5 35.3 0 64 0.2 64 0.5z"/>
					</g>
				</g>
				<g id="&lt;Group&gt;">
					<g id="&lt;Group&gt;">
						<path id="&lt;Path&gt;" class="s2" d="m520.6 820.3c0 0.3-28.7 0.5-64 0.5-35.4 0-64-0.2-64-0.5 0-0.3 28.6-0.6 64-0.6 35.3 0 64 0.3 64 0.6z"/>
					</g>
				</g>
				<g id="&lt;Group&gt;">
					<g id="&lt;Group&gt;">
						<path id="&lt;Path&gt;" class="s2" d="m660 797.3c0 0.3-28.7 0.5-64 0.5-35.4 0-64-0.2-64-0.5 0-0.3 28.6-0.5 64-0.5 35.3 0 64 0.2 64 0.5z"/>
					</g>
				</g>
				<g id="&lt;Group&gt;">
					<g id="&lt;Group&gt;">
						<path id="&lt;Path&gt;" class="s2" d="m508 797.3c0 0.3-7.8 0.5-17.3 0.5-9.6 0-17.3-0.2-17.3-0.5 0-0.3 7.7-0.5 17.3-0.5 9.5 0 17.3 0.2 17.3 0.5z"/>
					</g>
				</g>
				<g id="&lt;Group&gt;">
					<g id="&lt;Group&gt;">
						<path id="&lt;Path&gt;" class="s2" d="m363.9 820.3c0 0.3-7.7 0.5-17.3 0.5-9.5 0-17.3-0.2-17.3-0.5 0-0.3 7.8-0.6 17.3-0.6 9.6 0 17.3 0.3 17.3 0.6z"/>
					</g>
				</g>
				<g id="&lt;Group&gt;">
					<g id="&lt;Group&gt;">
						<path id="&lt;Path&gt;" class="s2" d="m570.4 819.3c0 0.3-7.5 0.5-16.6 0.5-9.2 0-16.7-0.2-16.7-0.5 0-0.3 7.5-0.5 16.7-0.5 9.1 0 16.6 0.2 16.6 0.5z"/>
					</g>
				</g>
			</g>
			<g id="&lt;Group&gt;">
				<g id="&lt;Group&gt;">
					<g id="&lt;Group&gt;">
						<path id="&lt;Path&gt;" class="s2" d="m454.8 888.5c0 0.3-28.7 0.5-64 0.5-35.4 0-64-0.2-64-0.5 0-0.3 28.6-0.5 64-0.5 35.3 0 64 0.2 64 0.5z"/>
					</g>
				</g>
				<g id="&lt;Group&gt;">
					<g id="&lt;Group&gt;">
						<path id="&lt;Path&gt;" class="s2" d="m521.8 911.5c0 0.2-28.7 0.5-64 0.5-35.4 0-64-0.3-64-0.5 0-0.3 28.6-0.6 64-0.6 35.3 0 64 0.3 64 0.6z"/>
					</g>
				</g>
				<g id="&lt;Group&gt;">
					<g id="&lt;Group&gt;">
						<path id="&lt;Path&gt;" class="s2" d="m661.2 888.5c0 0.3-28.7 0.5-64 0.5-35.4 0-64-0.2-64-0.5 0-0.3 28.6-0.5 64-0.5 35.3 0 64 0.2 64 0.5z"/>
					</g>
				</g>
				<g id="&lt;Group&gt;">
					<g id="&lt;Group&gt;">
						<path id="&lt;Path&gt;" class="s2" d="m509.2 888.5c0 0.3-7.8 0.5-17.3 0.5-9.6 0-17.3-0.2-17.3-0.5 0-0.3 7.7-0.6 17.3-0.6 9.5 0 17.3 0.3 17.3 0.6z"/>
					</g>
				</g>
				<g id="&lt;Group&gt;">
					<g id="&lt;Group&gt;">
						<path id="&lt;Path&gt;" class="s2" d="m365.1 911.5c0 0.2-7.8 0.5-17.3 0.5-9.5 0-17.3-0.3-17.3-0.5 0-0.3 7.8-0.6 17.3-0.6 9.5 0 17.3 0.3 17.3 0.6z"/>
					</g>
				</g>
				<g id="&lt;Group&gt;">
					<g id="&lt;Group&gt;">
						<path id="&lt;Path&gt;" class="s2" d="m571.6 910.5c0 0.3-7.5 0.5-16.6 0.5-9.2 0-16.7-0.2-16.7-0.5 0-0.3 7.5-0.5 16.7-0.5 9.1 0 16.6 0.2 16.6 0.5z"/>
					</g>
				</g>
			</g>
			<g id="&lt;Group&gt;">
				<g id="&lt;Group&gt;">
					<g id="&lt;Group&gt;">
						<path id="&lt;Path&gt;" class="s2" d="m453.6 846.8c0 0.2-28.7 0.5-64 0.5-35.4 0-64-0.3-64-0.5 0-0.3 28.6-0.6 64-0.6 35.3 0 64 0.3 64 0.6z"/>
					</g>
				</g>
				<g id="&lt;Group&gt;">
					<g id="&lt;Group&gt;">
						<path id="&lt;Path&gt;" class="s2" d="m520.6 869.7c0 0.3-28.7 0.5-64 0.5-35.4 0-64-0.2-64-0.5 0-0.3 28.6-0.5 64-0.5 35.3 0 64 0.2 64 0.5z"/>
					</g>
				</g>
				<g id="&lt;Group&gt;">
					<g id="&lt;Group&gt;">
						<path id="&lt;Path&gt;" class="s2" d="m660 846.8c0 0.2-28.7 0.5-64 0.5-35.4 0-64-0.3-64-0.5 0-0.3 28.6-0.6 64-0.6 35.3 0 64 0.3 64 0.6z"/>
					</g>
				</g>
				<g id="&lt;Group&gt;">
					<g id="&lt;Group&gt;">
						<path id="&lt;Path&gt;" class="s2" d="m508 846.7c0 0.3-7.8 0.6-17.3 0.6-9.6 0-17.3-0.3-17.3-0.6 0-0.3 7.7-0.5 17.3-0.5 9.5 0 17.3 0.2 17.3 0.5z"/>
					</g>
				</g>
				<g id="&lt;Group&gt;">
					<g id="&lt;Group&gt;">
						<path id="&lt;Path&gt;" class="s2" d="m363.9 869.7c0 0.3-7.7 0.5-17.3 0.5-9.5 0-17.3-0.2-17.3-0.5 0-0.3 7.8-0.5 17.3-0.5 9.6 0 17.3 0.2 17.3 0.5z"/>
					</g>
				</g>
				<g id="&lt;Group&gt;">
					<g id="&lt;Group&gt;">
						<path id="&lt;Path&gt;" class="s2" d="m570.4 868.8c0 0.2-7.5 0.5-16.6 0.5-9.2 0-16.7-0.3-16.7-0.5 0-0.3 7.5-0.6 16.7-0.6 9.1 0 16.6 0.3 16.6 0.6z"/>
					</g>
				</g>
			</g>
			<g id="&lt;Group&gt;">
				<path id="&lt;Compound Path&gt;" class="s4" d="m430.4 799.1v43.7h-8.1v-18.7h-22.6v18.7h-8.1v-43.7h8.1v18.1h22.6v-18.1z"/>
				<path id="&lt;Compound Path&gt;" class="s4" d="m451 806h-14.5v-6.9h37.1v6.9h-14.5v36.8h-8.1z"/>
				<path id="&lt;Compound Path&gt;" class="s4" d="m519.8 842.8v-29l-14.4 24h-3.6l-14.4-23.6v28.6h-7.7v-43.7h6.7l17.3 29 17.1-29h6.7v43.7z"/>
				<path id="&lt;Compound Path&gt;" class="s4" d="m539.3 799.1h8.1v36.8h22.9v6.9h-31z"/>
			</g>
		</g>
	</g>
	<g id="Speech Bubble">
		<g id="&lt;Group&gt;">
			<g id="&lt;Group&gt;">
				<g id="&lt;Group&gt;">
					<g id="&lt;Group&gt;">
						<g id="&lt;Group&gt;">
							<g id="&lt;Group&gt;">
								<path id="&lt;Path&gt;" class="s3" d="m418.3 311l-22.4-11.4c-0.3-10.4-3.4-20.9-9.6-30.3-17.8-26.9-54.1-34.4-81-16.6-27 17.8-34.4 54.1-16.6 81.1 17.8 26.9 54.1 34.3 81 16.5 11.3-7.4 19.1-18.1 23.1-29.9z"/>
							</g>
							<g id="&lt;Group&gt;">
								<g id="&lt;Group&gt;">
									<path id="&lt;Path&gt;" class="s4" d="m418.3 311c-1.7 0.7-9.4 3.6-25.4 9.6-0.1 0.1-0.3 0-0.3-0.1q0-0.1 0-0.1 0 0 0 0l0.5 0.1c-2.7 7.9-7.9 17.4-16.9 25.4-2.3 1.9-4.8 3.8-7.5 5.5-1.4 0.8-2.8 1.6-4.2 2.4q-2.3 1.1-4.6 2.1c-6.2 2.6-13.3 4.2-20.7 4.5-7.4 0.2-15.3-1-22.8-3.9-7.5-2.8-14.7-7.3-20.7-13.4-6-6.1-10.9-13.7-13.8-22.2-3-8.4-4.2-17.8-2.9-27 1.4-9.4 4.7-18.4 10-25.9 5.3-7.5 12.1-13.6 19.7-17.9 7.6-4.2 15.9-6.7 24.1-7.3 8.1-0.6 16.1 0.5 23.3 2.9 7.1 2.4 13.5 6 18.8 10.3 5.3 4.4 9.3 9.5 12.6 14.5 6.4 10.3 8.5 20.9 8.7 29.1l-0.2-0.2c14.1 7.3 20.8 10.8 22.3 11.6-1.5-0.8-8.3-4.1-22.5-11.2q-0.1 0-0.1-0.2c-0.3-8.1-2.5-18.5-8.8-28.7-3.3-4.9-7.3-10-12.6-14.2-5.2-4.3-11.5-7.9-18.5-10.2-7.1-2.3-14.9-3.4-22.9-2.8-8.1 0.6-16.2 3.1-23.7 7.3-7.4 4.2-14.2 10.2-19.3 17.6-5.3 7.3-8.5 16.2-9.8 25.4-1.3 9.1-0.1 18.3 2.7 26.6 2.9 8.3 7.7 15.8 13.6 21.8 5.9 6 13 10.4 20.4 13.2 7.4 2.9 15 4.1 22.4 3.9 7.3-0.2 14.3-1.8 20.4-4.3q2.3-1.1 4.5-2.1c1.4-0.8 2.8-1.6 4.2-2.4 2.7-1.6 5.1-3.5 7.4-5.4 9-7.8 14.2-17.1 16.9-25 0-0.1 0.2-0.2 0.3-0.2 0.1 0.1 0.2 0.2 0.2 0.3q0 0 0 0l-0.4-0.2c16.1-5.8 23.9-8.6 25.6-9.2z"/>
								</g>
							</g>
						</g>
					</g>
				</g>
			</g>
			<g id="&lt;Group&gt;">
				<g id="&lt;Group&gt;">
					<g id="&lt;Group&gt;">
						<g id="&lt;Group&gt;">
							<g id="&lt;Group&gt;">
								<g id="&lt;Group&gt;">
									<path id="&lt;Path&gt;" class="s4" d="m350.7 314.3c0 0 0.3-0.4 0.9-1q1.1-1.1 2.6-2.6c2.3-2.2 5.4-5.2 8.8-8.5l0.1-0.1v0.4c-3.5-3.2-6.6-6.1-8.8-8.3q-1.6-1.5-2.7-2.6c-0.6-0.6-0.9-0.9-0.9-1 0.1 0 0.4 0.3 1.1 0.9q1.1 1 2.8 2.4c2.3 2.1 5.4 5 8.9 8.2l0.2 0.2-0.2 0.2-0.1 0.1c-3.4 3.3-6.6 6.3-8.9 8.4q-1.6 1.5-2.7 2.5c-0.7 0.5-1 0.8-1.1 0.8z"/>
									<path id="&lt;Compound Path&gt;" fill-rule="evenodd" class="s4" d="m350.7 314.6q-0.1 0-0.2-0.1c-0.1-0.2-0.1-0.3 0.9-1.4l2.7-2.6c2.2-2.2 5.2-5.1 8.4-8.2-3.2-2.9-6.1-5.7-8.4-7.9q-1.6-1.5-2.6-2.6c-1-1-1.2-1.1-1-1.3 0.2-0.2 0.4-0.1 1.5 0.8l2.7 2.4c2.4 2.1 5.4 4.9 8.6 7.9v-0.1 0.1q0.2 0.2 0.4 0.3l0.4 0.4-0.5 0.5q-0.1 0.1-0.2 0.2v0.1h-0.1c-3.2 3.1-6.3 5.9-8.6 8.1l-2.7 2.4c-0.8 0.7-1.1 1-1.3 1zm12.2-11.9c-2.5 2.3-4.8 4.5-6.8 6.5 2-1.9 4.4-4.1 6.8-6.5q0 0 0 0zm0.4-0.4v0.1l0.1-0.1zm-7.2-6.6c2 1.9 4.3 4.1 6.7 6.3l0.1-0.1c-2.4-2.2-4.8-4.3-6.8-6.2z"/>
								</g>
							</g>
						</g>
					</g>
				</g>
				<g id="&lt;Group&gt;">
					<g id="&lt;Group&gt;">
						<g id="&lt;Group&gt;">
							<g id="&lt;Group&gt;">
								<g id="&lt;Group&gt;">
									<path id="&lt;Path&gt;" class="s4" d="m323.9 290.6c0 0.1-0.3 0.4-0.9 1.1q-1.1 1-2.6 2.6c-2.3 2.2-5.4 5.2-8.8 8.5l-0.1 0.1v-0.5c3.5 3.2 6.6 6.2 8.9 8.3q1.5 1.6 2.6 2.6c0.6 0.6 0.9 1 0.9 1 0 0-0.4-0.3-1.1-0.8q-1.1-1-2.7-2.4c-2.4-2.1-5.5-5-9-8.2l-0.2-0.3 0.2-0.2 0.1-0.1c3.4-3.3 6.6-6.2 8.9-8.3q1.6-1.5 2.7-2.5c0.7-0.6 1.1-0.9 1.1-0.9z"/>
									<path id="&lt;Compound Path&gt;" fill-rule="evenodd" class="s4" d="m323.9 314.6c-0.2 0-0.4-0.2-1.2-0.9l-2.8-2.5c-2.3-2-5.4-4.8-8.6-7.8q-0.2-0.2-0.4-0.4l-0.4-0.4 0.5-0.4q0.1-0.2 0.3-0.3v-0.1 0.1c3.3-3.1 6.3-6 8.6-8.1l2.8-2.5c1-0.9 1.2-1 1.4-0.8 0.2 0.2 0 0.3-0.9 1.3l-2.6 2.7c-2.3 2.2-5.3 5.1-8.5 8.1 3.2 3 6.2 5.8 8.4 8l2.7 2.5c1 1.1 1.1 1.2 0.9 1.4q-0.1 0.1-0.2 0.1zm-12.2-11.6c2.4 2.3 4.7 4.4 6.7 6.2-1.9-1.8-4.2-4-6.6-6.2zm-0.5-0.4v-0.1zm0.5-0.4q0 0 0.1 0.1c2.4-2.4 4.7-4.6 6.7-6.5-2 1.8-4.3 4-6.8 6.4z"/>
								</g>
							</g>
						</g>
					</g>
				</g>
				<g id="&lt;Group&gt;">
					<g id="&lt;Group&gt;">
						<g id="&lt;Group&gt;">
							<g id="&lt;Group&gt;">
								<g id="&lt;Group&gt;">
									<path id="&lt;Path&gt;" class="s4" d="m330.8 319.9c-0.2-0.1 2.6-8 6.3-17.7 3.6-9.7 6.7-17.5 6.8-17.5 0.2 0.1-2.6 8-6.3 17.7-3.6 9.7-6.7 17.6-6.8 17.5z"/>
									<path id="&lt;Compound Path&gt;" fill-rule="evenodd" class="s4" d="m330.8 320.2q-0.1 0-0.1-0.1c-0.3-0.1-0.4-0.1 1.6-5.5 1.2-3.4 2.8-7.8 4.5-12.5 1.8-4.7 3.5-9.1 4.8-12.4 2.1-5.3 2.1-5.3 2.4-5.2 0.3 0.1 0.4 0.1-1.6 5.5-1.2 3.4-2.8 7.8-4.5 12.5-1.8 4.7-3.5 9.1-4.8 12.4-1.8 4.7-2.1 5.3-2.3 5.3zm10.3-27.9c-1.1 2.7-2.3 6.1-3.8 10-1.5 3.9-2.7 7.3-3.7 10 1.1-2.7 2.3-6.1 3.8-10 1.5-3.8 2.7-7.2 3.7-10z"/>
								</g>
							</g>
						</g>
					</g>
				</g>
			</g>
		</g>
	</g>
	<g id="Floor">
		<g id="&lt;Group&gt;">
			<g id="&lt;Group&gt;">
				<path id="&lt;Path&gt;" class="s4" d="m1352 945.3c0 0.2-274 0.5-612 0.5-338 0-612-0.3-612-0.5 0-0.3 274-0.6 612-0.6 338 0 612 0.3 612 0.6z"/>
			</g>
		</g>
	</g>
	<g id="Character">
		<g id="&lt;Group&gt;">
			<g id="&lt;Group&gt;">
				<g id="&lt;Group&gt;">
					<g id="&lt;Group&gt;">
						<g id="&lt;Group&gt;">
							<g id="&lt;Group&gt;">
								<g id="&lt;Group&gt;">
									<path id="&lt;Path&gt;" class="s4" d="m486.2 253.5c1.5-10.7 10.9-19.6 21.6-20.5 2.8-0.3 5.7 0 8.3-1 2.2-0.8 4-2.3 6-3.4 6.5-3.5 15.4-1.6 20 4.2 4.2 5.5 6-2.2 16.1 3.8 8.4 5 4 11.9 4 11.9 8.6-0.3 17 6.4 18.6 14.9 1 5.4-0.1 11.9 4.1 15.5 2 1.7 4.9 2.1 7 3.8 3.9 3 4 8.8 3.1 13.7-0.8 4.9-2.4 10-0.6 14.6 3 7.6 13.8 10.5 15.1 18.5 0.6 3.8-1 8.4 1.6 11.1 1.1 1.2 2.6 1.7 4 2.4 5.6 2.7 9.4 8.7 9.6 14.9 0.1 6.3-3.5 12.4-9 15.4-1.5 0.9-3.3 1.6-3.9 3.3-0.6 1.8 0.6 3.7 1.4 5.4 3.2 6.4 1.7 14.7-3.6 19.5-5.2 4.8-13.7 5.6-19.7 1.8-3.3 5.8-8.8 10.2-15.1 12-3 0.9-6.1 1.2-9 0.3-2.3-0.8-4.3-2.2-6.2-3.8-8.7-7.7-21-19.3-21.8-30.9"/>
								</g>
							</g>
						</g>
					</g>
				</g>
			</g>
			<g id="&lt;Group&gt;">
				<g id="&lt;Group&gt;">
					<path id="&lt;Path&gt;" class="s8" d="m688.1 389.8l-52.4 48c-6.5-1.5-86.3-49.2-86.3-49.2l-12.6 61.4c0 0 81.6 37.5 104.1 33 3.7-0.8 9.7-1.3 13.5-6.1 17.9-23.1 56.1-80.3 56.1-80.3z"/>
				</g>
				<g id="&lt;Group&gt;">
					<path id="&lt;Path&gt;" class="s8" d="m713.4 337c-3.5 1.4-15.8 22.3-15.8 22.3l-3.1 0.1c-5.7 0.3-10 5.4-9.3 11 1 8.7 2.9 19.4 2.9 19.4l17.2 7.9 5.2-1.1c4.7-0.2 9.4-9.9 12.3-16.7 2.9-6.9-1.9-8.2-1.9-8.2 0.1-6.8-5.7-5.5-5.7-5.5-0.2-6-6.2-5.8-6.2-5.8 0 0 7.7-14.1 9.2-19 1.5-5-1.4-5.8-4.8-4.4z"/>
				</g>
				<g id="&lt;Group&gt;">
					<path id="&lt;Path&gt;" class="s9" d="m714.9 366.2c0 0.1-0.7 1.8-1.8 4.4-0.4 0.7-0.6 1.4-1.1 2.2q-0.7 1.1-1.9 2.1c-0.8 0.6-1.7 1.2-2.8 1.4-1.1 0.2-2.4 0-3.4-0.8-0.4-0.4-0.8-0.9-0.9-1.5-0.2-0.6-0.2-1.2-0.1-1.8 0.2-1 0.6-2 0.9-2.9 0.7-1.8 1.4-3.4 2.1-4.7 0.7-1.3 1.4-2.3 1.8-2.9 0.5-0.7 0.8-1.1 0.8-1 0.1 0-0.9 1.5-2.2 4.1-0.6 1.3-1.3 2.9-1.9 4.7-0.3 0.9-0.7 1.9-0.8 2.9-0.2 0.9 0 2 0.8 2.6 0.8 0.6 1.8 0.8 2.8 0.6 0.9-0.1 1.8-0.7 2.5-1.2q1.1-0.9 1.8-1.9c0.5-0.7 0.8-1.4 1.1-2.1 1.3-2.6 2.2-4.2 2.3-4.2z"/>
				</g>
				<g id="&lt;Group&gt;">
					<path id="&lt;Path&gt;" class="s9" d="m720.7 370.7c0.1 0 0 0.5-0.2 1.2-0.3 0.8-0.6 1.9-1.2 3.2-0.5 1.3-1.3 2.8-2.6 4.2-0.6 0.7-1.4 1.5-2.4 1.9-1 0.4-2.3 0.4-3.3-0.3-1-0.8-1.2-2.2-1-3.2 0.1-1.1 0.5-2 0.8-2.9 0.6-1.7 1.2-3.3 1.8-4.6 0.6-1.2 1.2-2.3 1.6-2.9 0.4-0.7 0.6-1.1 0.7-1.1 0.1 0.1-0.7 1.6-1.8 4.2-0.6 1.3-1.2 2.9-1.7 4.6-0.3 0.9-0.6 1.8-0.7 2.8-0.2 0.9 0 1.9 0.7 2.5 0.7 0.6 1.8 0.6 2.6 0.3 0.9-0.4 1.6-1 2.2-1.7 1.3-1.3 2.1-2.8 2.7-4 1.2-2.6 1.7-4.2 1.8-4.2z"/>
				</g>
				<g id="&lt;Group&gt;">
					<path id="&lt;Path&gt;" class="s9" d="m723.8 375.7c0.1 0 0 1.3-0.7 3.3-0.3 0.9-0.8 2.1-1.6 3.2-0.3 0.6-0.7 1.2-1.3 1.7-0.6 0.6-1.4 1-2.3 0.8-1-0.2-1.5-1.1-1.7-1.9-0.1-0.8 0-1.5 0.1-2.2 0.3-1.4 0.9-2.5 1.3-3.4 1-1.8 1.5-2.9 1.6-2.9 0.1 0.1-0.3 1.3-1.1 3.1-0.4 1-0.9 2.1-1.1 3.3-0.1 0.7-0.2 1.4-0.1 2 0.1 0.6 0.5 1.2 1.1 1.3 0.6 0.2 1.3-0.1 1.8-0.6 0.4-0.4 0.8-1 1.2-1.5 0.7-1.1 1.3-2.2 1.7-3.1 0.8-1.8 1-3.1 1.1-3.1z"/>
				</g>
				<g id="&lt;Group&gt;">
					<path id="&lt;Path&gt;" class="s8" d="m694.5 359.4c4.4-0.2 11-0.2 15.2 0.2 1.1 2.4-0.6 5.3-3 6.6-2.4 1.2-5.1 1.2-7.8 1.1 2 1.9 3.2 4.6 3.2 7.4-0.1 2.8-1.3 5.6-3.4 7.4"/>
				</g>
				<g id="&lt;Group&gt;">
					<g id="&lt;Group&gt;">
						<path id="&lt;Path&gt;" class="s9" d="m698.7 382.1c-0.1-0.1 1.4-1.2 2.5-3.9 0.5-1.4 0.8-3.1 0.5-5.1-0.3-1.9-1.3-4-3-5.6l-0.7-0.6h0.9c2.2 0.1 4.7 0.2 7-0.8 2.7-1 4.5-4.1 3.5-6.4l0.3 0.2c-4.4-0.4-8.3-0.4-11-0.4q-1.8 0-3.1 0-1.1 0-1.1-0.1 0 0 1.1-0.1 1.1-0.1 3.1-0.2c2.7-0.1 6.6-0.1 11.1 0.1h0.2v0.2c0.6 1.4 0.4 3-0.4 4.3-0.7 1.4-1.9 2.5-3.4 3.1-2.5 1-5.1 0.9-7.3 0.8l0.2-0.6c1.9 1.8 2.9 4 3.1 6 0.3 2.1-0.1 4-0.6 5.3-0.6 1.4-1.4 2.4-2 3-0.5 0.6-0.9 0.8-0.9 0.8z"/>
					</g>
				</g>
			</g>
			<g id="&lt;Group&gt;">
				<g id="&lt;Group&gt;">
					<g id="&lt;Group&gt;">
						<g id="&lt;Group&gt;">
							<g id="&lt;Group&gt;">
								<g id="&lt;Group&gt;">
									<path id="&lt;Path&gt;" class="s4" d="m594.4 907.4c0.1 0 0.4-0.6 0.8-1.7 0.4-1.2 0.7-3 0.4-5.2-0.1-0.6-0.1-1.1-0.4-1.8-0.2-0.6-0.8-1.3-1.7-1.3-0.4-0.1-0.9 0.1-1.3 0.4-0.3 0.3-0.4 0.8-0.5 1.2-0.1 0.8 0 1.4 0 2.1 0.2 1.5 0.2 2.9 0.4 4.6 0.1 0.8 0.8 1.8 1.8 2.1 0.9 0.3 1.8 0.3 2.7 0.1q2.5-0.4 4.7-1.4 1.1-0.4 2.1-1c0.6-0.4 1.3-0.7 1.9-1.4 0.5-0.7 0.7-1.8 0-2.6-0.7-0.7-1.6-0.6-2.3-0.5-1.4 0.3-2.4 0.8-3.3 1.3-2 1.1-3.3 2.3-4.2 3.1-0.9 0.9-1.2 1.4-1.2 1.5 0.2 0.2 1.9-2 5.7-3.8 0.9-0.5 2.1-1 3.2-1.2 0.5-0.1 1.1 0 1.4 0.3 0.2 0.2 0.2 0.8-0.2 1.2-0.3 0.5-0.9 0.8-1.6 1.2q-0.9 0.5-2 0.9c-1.4 0.6-2.9 1-4.4 1.3-0.8 0.1-1.6 0.2-2.2 0-0.6-0.2-0.9-0.7-1-1.4-0.2-1.3-0.3-2.9-0.4-4.3-0.1-0.7-0.2-1.5-0.1-2q0.1-0.9 0.7-0.8c0.9 0.1 1.3 1.3 1.4 2.3 0.7 4.2-0.6 6.8-0.4 6.8z"/>
								</g>
							</g>
						</g>
					</g>
				</g>
			</g>
			<g id="&lt;Group&gt;">
				<g id="&lt;Group&gt;">
					<g id="&lt;Group&gt;">
						<g id="&lt;Group&gt;">
							<g id="&lt;Group&gt;">
								<g id="&lt;Group&gt;">
									<path id="&lt;Path&gt;" class="s4" d="m679.6 827c0 0 0.1-0.7-0.1-1.9-0.2-1.2-0.7-3-1.9-4.8-0.3-0.5-0.6-1-1.2-1.4-0.4-0.5-1.3-0.8-2.1-0.5-0.4 0.1-0.8 0.5-1 1-0.1 0.4 0 0.9 0.1 1.2 0.3 0.8 0.7 1.4 1 2 0.7 1.2 1.3 2.5 2.3 3.9 0.5 0.7 1.6 1.3 2.5 1.1 1-0.1 1.8-0.6 2.5-1.1q2.1-1.5 3.6-3.3 0.8-0.9 1.4-1.8c0.4-0.7 0.9-1.3 1.1-2.2 0.2-0.8-0.1-1.9-1.1-2.3-0.9-0.3-1.7 0.1-2.3 0.5-1.1 0.9-1.7 1.9-2.4 2.8-1.2 1.8-1.9 3.4-2.3 4.6-0.4 1.1-0.5 1.8-0.5 1.8 0.2 0.1 0.9-2.6 3.5-6 0.6-0.8 1.4-1.7 2.3-2.4 0.4-0.3 1-0.5 1.3-0.4 0.4 0.2 0.6 0.7 0.5 1.2-0.1 0.6-0.5 1.1-0.9 1.7q-0.7 0.9-1.4 1.8c-1 1.1-2.2 2.2-3.5 3.1-0.6 0.5-1.3 0.8-1.9 0.9-0.6 0.1-1.1-0.2-1.5-0.7-0.8-1.1-1.6-2.6-2.3-3.7-0.4-0.7-0.8-1.3-1-1.8q-0.2-0.8 0.3-1c0.9-0.4 1.7 0.6 2.3 1.4 2.5 3.5 2.4 6.4 2.7 6.3z"/>
								</g>
							</g>
						</g>
					</g>
				</g>
			</g>
			<g id="&lt;Group&gt;">
				<g id="&lt;Group&gt;">
					<g id="&lt;Group&gt;">
						<g id="&lt;Group&gt;">
							<g id="&lt;Group&gt;">
								<path id="&lt;Path&gt;" class="s8" d="m620.3 846.5l-24.4 52.9-39.4-18.2 25.2-65.4z"/>
							</g>
						</g>
					</g>
				</g>
				<g id="&lt;Group&gt;">
					<g id="&lt;Group&gt;">
						<g id="&lt;Group&gt;">
							<g id="&lt;Group&gt;">
								<g id="&lt;Group&gt;">
									<g id="&lt;Group&gt;">
										<g id="&lt;Group&gt;">
											<g id="&lt;Group&gt;">
												<g id="&lt;Group&gt;">
													<g id="&lt;Group&gt;">
														<g id="&lt;Group&gt;">
															<g id="&lt;Group&gt;">
																<g id="&lt;Group&gt;">
																	<g id="&lt;Group&gt;">
																		<path id="&lt;Path&gt;" class="s6" d="m600.5 895.9l-14.3 27.2c0 0 36.5 37.7 33.1 46.1l-85.8-41.1 23.6-54.5z"/>
																	</g>
																</g>
															</g>
														</g>
													</g>
												</g>
											</g>
										</g>
									</g>
								</g>
							</g>
							<g id="&lt;Group&gt;">
								<g id="&lt;Group&gt;">
									<g id="&lt;Group&gt;">
										<g id="&lt;Group&gt;">
											<g id="&lt;Group&gt;">
												<g id="&lt;Group&gt;">
													<g id="&lt;Group&gt;">
														<g id="&lt;Group&gt;">
															<g id="&lt;Group&gt;">
																<g id="&lt;Group&gt;">
																	<g id="&lt;Group&gt;">
																		<g id="&lt;Group&gt;">
																			<path id="&lt;Path&gt;" class="s1" d="m561.5 906.6c-1.9-0.3-4 1-4.4 2.9-0.4 1.8 0.9 3.9 2.8 4.3 1.9 0.4 4.4-1.1 4.6-3 0.2-1.9-1.5-4.3-3.4-4.2"/>
																		</g>
																	</g>
																</g>
															</g>
														</g>
													</g>
												</g>
											</g>
										</g>
									</g>
								</g>
							</g>
							<g id="&lt;Group&gt;" style="opacity: .6">
								<g id="&lt;Group&gt;">
									<g id="&lt;Group&gt;">
										<g id="&lt;Group&gt;">
											<g id="&lt;Group&gt;">
												<g id="&lt;Group&gt;">
													<g id="&lt;Group&gt;">
														<g id="&lt;Group&gt;">
															<g id="&lt;Group&gt;">
																<g id="&lt;Group&gt;">
																	<g id="&lt;Group&gt;">
																		<path id="&lt;Path&gt;" class="s3" d="m533.5 928.1l3.6-6.8 80.9 42c0 0 3 3.5 1.3 5.9z"/>
																	</g>
																</g>
															</g>
														</g>
													</g>
												</g>
											</g>
										</g>
									</g>
								</g>
							</g>
							<g id="&lt;Group&gt;">
								<g id="&lt;Group&gt;">
									<g id="&lt;Group&gt;">
										<g id="&lt;Group&gt;">
											<g id="&lt;Group&gt;">
												<g id="&lt;Group&gt;">
													<g id="&lt;Group&gt;">
														<g id="&lt;Group&gt;">
															<g id="&lt;Group&gt;">
																<g id="&lt;Group&gt;">
																	<g id="&lt;Group&gt;">
																		<g id="&lt;Group&gt;">
																			<path id="&lt;Path&gt;" class="s4" d="m587.8 923.3c-0.2 0.4-2.4-0.4-5.1 0-2.7 0.2-4.6 1.6-5 1.2-0.3-0.3 1.5-2.5 4.8-2.8 3.3-0.5 5.6 1.3 5.3 1.6z"/>
																		</g>
																	</g>
																</g>
															</g>
														</g>
													</g>
												</g>
											</g>
										</g>
									</g>
								</g>
							</g>
							<g id="&lt;Group&gt;">
								<g id="&lt;Group&gt;">
									<g id="&lt;Group&gt;">
										<g id="&lt;Group&gt;">
											<g id="&lt;Group&gt;">
												<g id="&lt;Group&gt;">
													<g id="&lt;Group&gt;">
														<g id="&lt;Group&gt;">
															<g id="&lt;Group&gt;">
																<g id="&lt;Group&gt;">
																	<g id="&lt;Group&gt;">
																		<g id="&lt;Group&gt;">
																			<path id="&lt;Path&gt;" class="s4" d="m595 931.3c-0.1 0.5-2.2 0.3-4.5 1.4-2.3 1-3.6 2.8-4 2.6-0.4-0.2 0.5-2.7 3.3-4 2.9-1.4 5.4-0.4 5.2 0z"/>
																		</g>
																	</g>
																</g>
															</g>
														</g>
													</g>
												</g>
											</g>
										</g>
									</g>
								</g>
							</g>
							<g id="&lt;Group&gt;">
								<g id="&lt;Group&gt;">
									<g id="&lt;Group&gt;">
										<g id="&lt;Group&gt;">
											<g id="&lt;Group&gt;">
												<g id="&lt;Group&gt;">
													<g id="&lt;Group&gt;">
														<g id="&lt;Group&gt;">
															<g id="&lt;Group&gt;">
																<g id="&lt;Group&gt;">
																	<g id="&lt;Group&gt;">
																		<g id="&lt;Group&gt;">
																			<path id="&lt;Path&gt;" class="s4" d="m595 944.6c-0.4-0.1 0-2.5 2.1-4.3 2.2-1.8 4.6-1.7 4.6-1.3 0.1 0.5-1.8 1.1-3.5 2.6-1.8 1.4-2.8 3.1-3.2 3z"/>
																		</g>
																	</g>
																</g>
															</g>
														</g>
													</g>
												</g>
											</g>
										</g>
									</g>
								</g>
							</g>
							<g id="&lt;Group&gt;">
								<g id="&lt;Group&gt;">
									<g id="&lt;Group&gt;">
										<g id="&lt;Group&gt;">
											<g id="&lt;Group&gt;">
												<g id="&lt;Group&gt;">
													<g id="&lt;Group&gt;">
														<g id="&lt;Group&gt;">
															<g id="&lt;Group&gt;">
																<g id="&lt;Group&gt;">
																	<g id="&lt;Group&gt;">
																		<g id="&lt;Group&gt;">
																			<path id="&lt;Path&gt;" class="s4" d="m591.9 912.8c-0.4 0.3-2-1.2-4.4-2.1-2.5-1.1-4.7-1.2-4.7-1.6-0.1-0.4 2.4-1.1 5.3 0.1 2.8 1.1 4.2 3.4 3.8 3.6z"/>
																		</g>
																	</g>
																</g>
															</g>
														</g>
													</g>
												</g>
											</g>
										</g>
									</g>
								</g>
							</g>
						</g>
					</g>
				</g>
				<g id="&lt;Group&gt;">
					<g id="&lt;Group&gt;">
						<g id="&lt;Group&gt;">
							<g id="&lt;Group&gt;">
								<path id="&lt;Path&gt;" class="s4" d="m620.8 864.7l62.2-154.7c0 0-1.5-27.5-6.5-36.1-5.1-8.7-158.3-59.3-158.3-59.3 0 0-39.1-9.4-65.1 0-26 9.4-45.5 41.9-41.9 60 3.6 18 18.9 31.3 18.9 31.3l112.6 3.4 61.5 22.4-41.4 118.5c0 0 21.2 23.2 58 14.5z"/>
							</g>
						</g>
					</g>
				</g>
				<g id="&lt;Group&gt;">
					<g id="&lt;Group&gt;">
						<g id="&lt;Group&gt;">
							<g id="&lt;Group&gt;">
								<path id="&lt;Path&gt;" class="s8" d="m675.9 761l1.4 58.2-43.3 1.1-6.3-69.9z"/>
							</g>
						</g>
					</g>
				</g>
				<g id="&lt;Group&gt;">
					<g id="&lt;Group&gt;">
						<g id="&lt;Group&gt;">
							<g id="&lt;Group&gt;">
								<g id="&lt;Group&gt;">
									<g id="&lt;Group&gt;">
										<g id="&lt;Group&gt;">
											<g id="&lt;Group&gt;">
												<g id="&lt;Group&gt;">
													<g id="&lt;Group&gt;">
														<g id="&lt;Group&gt;">
															<g id="&lt;Group&gt;">
																<g id="&lt;Group&gt;">
																	<g id="&lt;Group&gt;">
																		<path id="&lt;Path&gt;" class="s6" d="m679.9 814l-0.8 30.7c0 0 49.4 17.7 50.1 26.8l-95.2 1-2.9-59.4z"/>
																	</g>
																</g>
															</g>
														</g>
													</g>
												</g>
											</g>
										</g>
									</g>
								</g>
							</g>
							<g id="&lt;Group&gt;">
								<g id="&lt;Group&gt;">
									<g id="&lt;Group&gt;">
										<g id="&lt;Group&gt;">
											<g id="&lt;Group&gt;">
												<g id="&lt;Group&gt;">
													<g id="&lt;Group&gt;">
														<g id="&lt;Group&gt;">
															<g id="&lt;Group&gt;">
																<g id="&lt;Group&gt;">
																	<g id="&lt;Group&gt;">
																		<g id="&lt;Group&gt;">
																			<path id="&lt;Path&gt;" class="s1" d="m649.6 840.9c-1.8 0.5-3 2.6-2.6 4.4 0.5 1.9 2.6 3.2 4.4 2.7 1.8-0.5 3.4-3 2.8-4.8-0.7-1.7-3.2-3.1-4.9-2.2"/>
																		</g>
																	</g>
																</g>
															</g>
														</g>
													</g>
												</g>
											</g>
										</g>
									</g>
								</g>
							</g>
							<g id="&lt;Group&gt;" style="opacity: .6">
								<g id="&lt;Group&gt;">
									<g id="&lt;Group&gt;">
										<g id="&lt;Group&gt;">
											<g id="&lt;Group&gt;">
												<g id="&lt;Group&gt;">
													<g id="&lt;Group&gt;">
														<g id="&lt;Group&gt;">
															<g id="&lt;Group&gt;">
																<g id="&lt;Group&gt;">
																	<g id="&lt;Group&gt;">
																		<path id="&lt;Path&gt;" class="s3" d="m634 872.5l0.2-7.7 91.2 1.9c0 0 4.2 1.8 3.8 4.8z"/>
																	</g>
																</g>
															</g>
														</g>
													</g>
												</g>
											</g>
										</g>
									</g>
								</g>
							</g>
							<g id="&lt;Group&gt;">
								<g id="&lt;Group&gt;">
									<g id="&lt;Group&gt;">
										<g id="&lt;Group&gt;">
											<g id="&lt;Group&gt;">
												<g id="&lt;Group&gt;">
													<g id="&lt;Group&gt;">
														<g id="&lt;Group&gt;">
															<g id="&lt;Group&gt;">
																<g id="&lt;Group&gt;">
																	<g id="&lt;Group&gt;">
																		<g id="&lt;Group&gt;">
																			<path id="&lt;Path&gt;" class="s4" d="m680.6 844.2c0 0.5-2.3 0.7-4.6 2.2-2.3 1.5-3.4 3.5-3.9 3.3-0.4-0.1 0.3-2.9 3.1-4.6 2.7-1.9 5.5-1.3 5.4-0.9z"/>
																		</g>
																	</g>
																</g>
															</g>
														</g>
													</g>
												</g>
											</g>
										</g>
									</g>
								</g>
							</g>
							<g id="&lt;Group&gt;">
								<g id="&lt;Group&gt;">
									<g id="&lt;Group&gt;">
										<g id="&lt;Group&gt;">
											<g id="&lt;Group&gt;">
												<g id="&lt;Group&gt;">
													<g id="&lt;Group&gt;">
														<g id="&lt;Group&gt;">
															<g id="&lt;Group&gt;">
																<g id="&lt;Group&gt;">
																	<g id="&lt;Group&gt;">
																		<g id="&lt;Group&gt;">
																			<path id="&lt;Path&gt;" class="s4" d="m690.7 848.2c0.1 0.5-1.9 1.3-3.5 3.3-1.6 1.9-2 4-2.4 4-0.5 0.1-0.8-2.6 1.2-5.1 1.9-2.4 4.7-2.6 4.7-2.2z"/>
																		</g>
																	</g>
																</g>
															</g>
														</g>
													</g>
												</g>
											</g>
										</g>
									</g>
								</g>
							</g>
							<g id="&lt;Group&gt;">
								<g id="&lt;Group&gt;">
									<g id="&lt;Group&gt;">
										<g id="&lt;Group&gt;">
											<g id="&lt;Group&gt;">
												<g id="&lt;Group&gt;">
													<g id="&lt;Group&gt;">
														<g id="&lt;Group&gt;">
															<g id="&lt;Group&gt;">
																<g id="&lt;Group&gt;">
																	<g id="&lt;Group&gt;">
																		<g id="&lt;Group&gt;">
																			<path id="&lt;Path&gt;" class="s4" d="m696.5 860.1c-0.5 0.1-1.1-2.2 0-4.8 1.2-2.5 3.4-3.6 3.6-3.2 0.2 0.4-1.2 1.8-2.1 3.9-1 2.1-1.1 4.1-1.5 4.1z"/>
																		</g>
																	</g>
																</g>
															</g>
														</g>
													</g>
												</g>
											</g>
										</g>
									</g>
								</g>
							</g>
							<g id="&lt;Group&gt;">
								<g id="&lt;Group&gt;">
									<g id="&lt;Group&gt;">
										<g id="&lt;Group&gt;">
											<g id="&lt;Group&gt;">
												<g id="&lt;Group&gt;">
													<g id="&lt;Group&gt;">
														<g id="&lt;Group&gt;">
															<g id="&lt;Group&gt;">
																<g id="&lt;Group&gt;">
																	<g id="&lt;Group&gt;">
																		<g id="&lt;Group&gt;">
																			<path id="&lt;Path&gt;" class="s4" d="m679.7 833c-0.2 0.4-2.3-0.2-5 0-2.6 0.2-4.6 1.1-4.9 0.7-0.2-0.4 1.7-2.1 4.8-2.3 3.1-0.2 5.3 1.2 5.1 1.6z"/>
																		</g>
																	</g>
																</g>
															</g>
														</g>
													</g>
												</g>
											</g>
										</g>
									</g>
								</g>
							</g>
						</g>
					</g>
				</g>
				<g id="&lt;Group&gt;">
					<g id="&lt;Group&gt;">
						<g id="&lt;Group&gt;">
							<g id="&lt;Group&gt;">
								<path id="&lt;Path&gt;" class="s4" d="m650.5 599.3c0 0 26-2.1 28.9 26.1 2.9 28.2 5.7 159.8 5.7 159.8l-60.7 5-9.4-134.4-96.8-41.2c0 0 115-18.9 132.3-15.3z"/>
							</g>
						</g>
					</g>
				</g>
				<g id="&lt;Group&gt;">
					<g id="&lt;Group&gt;">
						<g id="&lt;Group&gt;">
							<g id="&lt;Group&gt;">
								<path id="&lt;Path&gt;" class="s4" d="m543.4 561.3c0 0 15.8 44.2 12.8 49.1-3 4.9-43.5 25.2-43.5 25.2l-101.5 39c0 0-10.4-16.6-10.4-42.1 0-25.4 35.3-71.2 35.3-71.2z"/>
							</g>
						</g>
					</g>
				</g>
				<g id="&lt;Group&gt;">
					<g id="&lt;Group&gt;">
						<g id="&lt;Group&gt;">
							<g id="&lt;Group&gt;">
								<g id="&lt;Group&gt;">
									<path id="&lt;Path&gt;" class="s6" d="m513.4 612.3q0 0 0.4 0.3 0.6 0.2 1.5 0.6 2 0.9 5.6 2.5c5 2.2 12.1 5.3 21.1 9.2 18.1 7.8 43.5 18.7 72.8 31.4l-0.3-0.5c0.9 13.3 1.9 27.6 2.9 42.5 2.5 34.7 4.8 66.7 6.6 92v0.4h0.5c18.4-1.6 33.6-3 44.2-3.9 5.2-0.5 9.3-0.9 12.2-1.1q2-0.3 3.2-0.4 1-0.1 1-0.1 0-0.1-1 0-1.2 0.1-3.2 0.2c-2.9 0.2-7 0.5-12.2 0.9-10.7 0.8-25.8 2-44.3 3.5l0.5 0.4c-1.8-25.3-4-57.3-6.3-92-1.1-14.8-2.1-29.2-3-42.5v-0.3l-0.4-0.1c-29.4-12.5-54.8-23.3-72.9-31-9-3.8-16.2-6.8-21.2-8.9q-3.7-1.5-5.7-2.3-0.9-0.4-1.5-0.6-0.5-0.2-0.5-0.2z"/>
								</g>
							</g>
						</g>
					</g>
				</g>
				<g id="&lt;Group&gt;">
					<g id="&lt;Group&gt;">
						<g id="&lt;Group&gt;">
							<g id="&lt;Group&gt;">
								<g id="&lt;Group&gt;">
									<path id="&lt;Path&gt;" class="s6" d="m432.7 616.7c0 0.1 1-0.2 2.8-0.7q3.1-1 7.7-2.5c6.4-2 15.4-4.9 25.5-6.5 10.2-1.5 19.6-1 26.2 0.4 6.6 1.3 10.4 3.2 10.5 3 0 0-0.9-0.6-2.6-1.3-1.8-0.8-4.4-1.7-7.7-2.5-6.6-1.6-16.2-2.3-26.5-0.7-10.3 1.6-19.3 4.6-25.7 6.8-3.2 1.2-5.8 2.2-7.5 2.9-1.8 0.6-2.8 1.1-2.7 1.1z"/>
								</g>
							</g>
						</g>
					</g>
				</g>
				<g id="&lt;Group&gt;">
					<g id="&lt;Group&gt;">
						<g id="&lt;Group&gt;">
							<g id="&lt;Group&gt;">
								<g id="&lt;Group&gt;">
									<path id="&lt;Path&gt;" class="s6" d="m447 593.4c0 0.2 3.4-0.4 8.9 0 2.7 0.2 6 0.6 9.6 1 3.6 0.4 7.6 0.9 11.7 1.7 8.2 1.5 15.3 4.4 19.9 7.4 4.6 3 6.7 5.7 6.9 5.5 0 0-0.5-0.7-1.5-1.9-1.1-1.1-2.7-2.7-5-4.3-4.5-3.2-11.8-6.3-20.1-7.8-4.2-0.8-8.2-1.2-11.8-1.6-3.6-0.4-6.9-0.7-9.7-0.8-2.7-0.1-5 0-6.5 0.3-1.6 0.2-2.4 0.5-2.4 0.5z"/>
								</g>
							</g>
						</g>
					</g>
				</g>
			</g>
			<g id="&lt;Group&gt;">
				<g id="&lt;Group&gt;">
					<g id="&lt;Group&gt;">
						<g id="&lt;Group&gt;">
							<path id="&lt;Path&gt;" class="s8" d="m546 387.1c0 0 10.4 3.3 16.8 14.6 6.3 11.2 4.6 16.8 3 23.4-1.7 6.6-4.6 19.7-4.7 18.9-0.2-0.9-15.1-56.9-15.1-56.9z"/>
						</g>
					</g>
				</g>
				<g id="&lt;Group&gt;">
					<g id="&lt;Group&gt;">
						<g id="&lt;Group&gt;">
							<path id="&lt;Path&gt;" class="s8" d="m545.2 387.1l-13.3-7.9-75-2 25.3 82.8 45.7 28.8 27.1-13.5 2.7-30.1z"/>
						</g>
					</g>
				</g>
				<g id="&lt;Group&gt;">
					<g id="&lt;Group&gt;">
						<g id="&lt;Group&gt;">
							<g id="&lt;Group&gt;">
								<path id="&lt;Path&gt;" class="s5" d="m546 387.1c0 0 17.2 55.3 16.8 71.1-0.4 15.9-7 60.9-6.2 69.7 0.7 8.9-2.3 33.4-13.2 33.4-10.8 0-107.3 0-107.3 0 0 0-24.3-6.7-25.3-21.3-1.1-14.6 18.6-139.2 18.6-139.2 0 0 13.7-20.7 22.6-22.6 8.9-1.9 25.3-5.6 31.3 12.8 5.9 18.4 7.9 27.8 20.5 40.5 12.7 12.6 30.7 26.9 30.7 26.9 0 0 14.6-12.2 15.2-28.7 0.7-16.4-5.5-43.2-5.5-43.2z"/>
							</g>
						</g>
					</g>
				</g>
				<g id="&lt;Group&gt;">
					<g id="&lt;Group&gt;">
						<g id="&lt;Group&gt;">
							<g id="&lt;Group&gt;">
								<g id="&lt;Group&gt;">
									<path id="&lt;Path&gt;" class="s4" d="m530 562.5c0.1 0.1 1.9-0.5 4.3-2.3 2.4-1.8 5.2-5 7.2-9.1 2-4.1 3-8.1 3.6-11 0.7-2.8 0.9-4.6 0.8-4.7-0.2 0-0.7 1.7-1.6 4.5-0.8 2.9-1.9 6.7-3.8 10.7-2 4-4.5 7.1-6.7 9-2.2 1.9-3.8 2.7-3.8 2.9z"/>
								</g>
							</g>
						</g>
					</g>
				</g>
				<g id="&lt;Group&gt;">
					<g id="&lt;Group&gt;">
						<g id="&lt;Group&gt;">
							<g id="&lt;Group&gt;">
								<g id="&lt;Group&gt;">
									<path id="&lt;Path&gt;" class="s4" d="m473.2 493.9c0 0 0.6 0.6 1.8 1.5 1.2 0.9 3.1 2.1 5.6 3.2 2.4 1.2 5.6 2.3 9.1 2.8 3.6 0.5 7.7 0.5 11.8-0.5 8.2-1.9 14.4-6.8 18.2-10.6 1.9-1.9 3.3-3.6 4.2-4.9 0.9-1.2 1.3-1.9 1.2-1.9-0.1-0.2-2.1 2.6-6 6.2-3.8 3.6-9.9 8.2-17.9 10.1-7.9 1.9-15.5 0.2-20.3-1.9-4.9-2.1-7.6-4.2-7.7-4z"/>
								</g>
							</g>
						</g>
					</g>
				</g>
				<g id="&lt;Group&gt;">
					<g id="&lt;Group&gt;">
						<g id="&lt;Group&gt;">
							<g id="&lt;Group&gt;">
								<g id="&lt;Group&gt;">
									<path id="&lt;Path&gt;" class="s4" d="m531.4 560.5c0.2 0.2 1.7-1.5 2.2-4.2 0.5-2.6-0.2-4.7-0.5-4.6-0.3 0-0.1 2-0.6 4.4-0.5 2.4-1.4 4.2-1.1 4.4z"/>
								</g>
							</g>
						</g>
					</g>
				</g>
				<g id="&lt;Group&gt;" style="opacity: .3">
					<g id="&lt;Group&gt;">
						<g id="&lt;Group&gt;">
							<g id="&lt;Group&gt;">
								<g id="&lt;Group&gt;">
									<path id="&lt;Path&gt;" class="s10" d="m523.3 485.9c-0.8 8.1-4.6 16-11 21.1-6.3 5.1-15.1 7.3-23 5-7.8-2.2-14.3-9-15.7-17 5.6 2.5 11.2 5 17.2 6 12.8 1.9 26.4-4.6 33.1-15.7q-0.5 0.5-0.9 1"/>
								</g>
							</g>
						</g>
					</g>
				</g>
				<g id="&lt;Group&gt;" style="opacity: .3">
					<g id="&lt;Group&gt;">
						<g id="&lt;Group&gt;">
							<g id="&lt;Group&gt;">
								<g id="&lt;Group&gt;">
									<path id="&lt;Path&gt;" class="s10" d="m545.9 537.1c1.6 8.1-1.4 17-7.7 22.4-1.3 1.2-3.1 2.3-4.8 1.7 6.1-7.1 10.3-15.6 12.4-24.6"/>
								</g>
							</g>
						</g>
					</g>
				</g>
				<g id="&lt;Group&gt;">
					<path id="&lt;Path&gt;" class="s5" d="m400.8 461.4l54.1 25.4c0 0 22-48.8 23.9-55.5 1.9-6.7 7.9-17.2 1.8-31.1-6.1-13.9-21.5-21.7-31.7-18.1-23.8 8.4-48.1 79.3-48.1 79.3z"/>
				</g>
				<g id="&lt;Group&gt;">
					<path id="&lt;Path&gt;" class="s5" d="m557.7 461.2c2.5 0 31.5 15.2 31.5 15.2l16.5-54.7c-24.7-16.4-49.9-33.5-64.3-37.4l12.6 43.5z"/>
				</g>
				<g id="&lt;Group&gt;">
					<g id="&lt;Group&gt;">
						<g id="&lt;Group&gt;">
							<g id="&lt;Group&gt;">
								<g id="&lt;Group&gt;">
									<path id="&lt;Path&gt;" class="s8" d=""/>
								</g>
								<g id="&lt;Group&gt;">
									<path id="&lt;Path&gt;" class="s8" d="m449.6 483.3c-10.3 16.9-17.4 26.6-17.4 26.6l91.9 55.9-10.7 24.9-119.2-49.1c0 0-11.8-12-7.6-25.5l19-52.5z"/>
								</g>
							</g>
						</g>
					</g>
				</g>
				<g id="&lt;Group&gt;">
					<g id="&lt;Group&gt;">
						<g id="&lt;Group&gt;">
							<g id="&lt;Group&gt;">
								<g id="&lt;Group&gt;">
									<g id="&lt;Group&gt;">
										<path id="&lt;Path&gt;" class="s9" d="m409.8 518.4c0.2 0.3 4.6-3.4 11-5.7 6.4-2.4 12.1-2.5 12.1-2.8 0-0.3-5.8-0.8-12.5 1.7-6.6 2.5-10.8 6.6-10.6 6.8z"/>
									</g>
								</g>
							</g>
						</g>
					</g>
				</g>
				<g id="&lt;Group&gt;">
					<g id="&lt;Group&gt;">
						<path id="&lt;Path&gt;" class="s4" d="m400.8 461.4q0 0 1 0.4 1.2 0.5 3 1.3c2.8 1.2 6.5 2.8 11 4.8 9.3 4.3 21.9 10 35.9 16.4 1.5 0.7 3 1.4 4.4 2l-0.7 0.3c6.2-12.9 11.7-24.4 15.6-32.7 1.9-4.1 3.4-7.4 4.5-9.9q0.7-1.6 1.2-2.6 0.5-0.9 0.5-0.9 0.1 0-0.3 0.9-0.3 1-1 2.8c-1 2.3-2.4 5.7-4.3 9.9-3.7 8.4-9 20-15.3 32.9l-0.2 0.5-0.5-0.3c-1.4-0.6-2.8-1.3-4.3-2-14-6.4-26.6-12.3-35.8-16.6-4.5-2.1-8.1-3.9-10.8-5.2q-1.8-0.9-2.9-1.4-1-0.5-1-0.6z"/>
					</g>
				</g>
				<g id="&lt;Group&gt;">
					<g id="&lt;Group&gt;">
						<path id="&lt;Path&gt;" class="s4" d="m554.3 411.7c0.1 0 0.5 0.9 1.3 2.6 0.7 1.7 1.6 4.2 2.4 7.4 1.8 6.4 3.1 15.5 3.7 25.5 0.6 10 0.4 19.2-0.2 25.7-0.3 3.3-0.7 5.9-1 7.8-0.3 1.8-0.5 2.8-0.6 2.8-0.1-0.1 0-1.1 0.2-2.9 0.2-1.8 0.5-4.5 0.7-7.7 0.4-6.6 0.5-15.7-0.1-25.6-0.6-10-1.8-19-3.4-25.4-0.7-3.2-1.5-5.7-2.1-7.4-0.6-1.8-0.9-2.7-0.9-2.8z"/>
					</g>
				</g>
				<g id="&lt;Group&gt;">
					<g id="&lt;Group&gt;">
						<g id="&lt;Group&gt;">
							<g id="&lt;Group&gt;">
								<g id="&lt;Group&gt;">
									<path id="&lt;Path&gt;" class="s8" d="m595.4 582.9l-22.9-11-44.8-3.5-3.6-2.6-10.7 24.9c0 0 11.7 5.6 17.8 6.1l37.7-1.1 19.6 2z"/>
								</g>
							</g>
						</g>
					</g>
				</g>
			</g>
			<g id="&lt;Group&gt;">
				<g id="&lt;Group&gt;">
					<g id="&lt;Group&gt;">
						<g id="&lt;Group&gt;">
							<g id="&lt;Group&gt;">
								<g id="&lt;Group&gt;">
									<path id="&lt;Path&gt;" class="s6" d="m566.7 295.7c0 0.2 1.5 0.3 4 0 2.5-0.4 5.9-1.4 9.1-3.5 3.3-2.1 5.6-4.8 7-6.9 1.3-2.1 1.8-3.6 1.7-3.7-0.2-0.1-0.9 1.3-2.3 3.2-1.5 2-3.9 4.4-7 6.4-3.1 2.1-6.3 3.2-8.6 3.7-2.4 0.6-3.9 0.7-3.9 0.8z"/>
								</g>
							</g>
						</g>
					</g>
				</g>
				<g id="&lt;Group&gt;">
					<g id="&lt;Group&gt;">
						<g id="&lt;Group&gt;">
							<g id="&lt;Group&gt;">
								<g id="&lt;Group&gt;">
									<path id="&lt;Path&gt;" class="s6" d="m560.8 269.2c-0.1 0 0.8 1.2 2.6 2.6 1.8 1.4 4.7 3 8.1 3.8 3.5 0.9 6.7 0.9 9 0.5 2.3-0.3 3.6-0.9 3.5-1 0-0.4-5.6 1.2-12.2-0.5-6.7-1.7-10.8-5.7-11-5.4z"/>
								</g>
							</g>
						</g>
					</g>
				</g>
				<g id="&lt;Group&gt;">
					<g id="&lt;Group&gt;">
						<g id="&lt;Group&gt;">
							<g id="&lt;Group&gt;">
								<g id="&lt;Group&gt;">
									<path id="&lt;Path&gt;" class="s6" d="m603.8 400.8q0 0 0.3-0.1 0.4-0.1 1.1-0.3c0.8-0.3 2.1-0.9 3.6-2 1.4-1.1 3-2.8 4.1-5.1 1.1-2.3 1.7-5.4 1-8.6-0.3-1.6-0.9-3.3-1.9-4.8-0.9-1.5-2.3-2.9-3.7-4.1-1.3-1.3-2.8-2.5-3.8-4.1-0.9-1.7-1-3.7-0.2-5.5 0.9-1.8 2.4-3.4 3.8-5.1 0.7-0.9 1.4-1.8 2-2.8q0.8-1.6 1.1-3.4c0.7-4.8-1.8-10.2-6.5-12.4-2.4-1-4.9-1-7.1-1.6-1.1-0.3-2.2-0.7-3-1.3-0.9-0.6-1.5-1.5-1.8-2.5-0.6-2-0.1-4.3 0.7-6.3 0.8-1.9 1.9-3.8 2.7-5.9 0.8-2 1.1-4.3 0.4-6.3-0.6-2.1-2.1-3.6-3.6-4.8-3.1-2.4-6.7-3.2-9.7-4.1-3-0.9-5.7-1.9-7.6-3.5-1.9-1.6-2.9-3.6-3.2-5.3-0.4-1.7-0.1-3.1 0.4-3.9 0.4-0.9 0.7-1.2 0.7-1.2 0 0-0.5 0.2-0.9 1.1-0.5 0.8-0.9 2.2-0.6 4.1 0.2 1.8 1.2 3.9 3.2 5.7 2 1.7 4.8 2.8 7.8 3.7 3 1 6.5 1.8 9.4 4.1 1.4 1.1 2.7 2.6 3.2 4.4 0.6 1.8 0.3 3.8-0.4 5.7-0.8 1.9-1.9 3.7-2.8 5.8-0.8 2.1-1.4 4.5-0.7 7 0.3 1.2 1.1 2.3 2.1 3.1 1 0.7 2.2 1.2 3.4 1.5 2.4 0.5 4.8 0.6 6.9 1.5 4.3 2 6.5 6.9 5.9 11.2q-0.2 1.7-1 3.1c-0.5 0.9-1.1 1.8-1.8 2.6-1.4 1.7-2.9 3.3-3.9 5.4-1 2-0.8 4.5 0.3 6.3 1.1 1.9 2.7 3.1 4 4.4 1.4 1.2 2.7 2.4 3.6 3.9 0.9 1.4 1.5 2.9 1.9 4.4 0.6 3.1 0.2 6-0.9 8.2-1 2.3-2.4 4-3.8 5.1-2.7 2.2-4.8 2.5-4.7 2.7z"/>
								</g>
							</g>
						</g>
					</g>
				</g>
				<g id="&lt;Group&gt;">
					<g id="&lt;Group&gt;">
						<g id="&lt;Group&gt;">
							<g id="&lt;Group&gt;">
								<g id="&lt;Group&gt;">
									<g id="&lt;Group&gt;">
										<g id="&lt;Group&gt;">
											<path id="&lt;Path&gt;" class="s8" d="m484.8 271.3l0.1-8.2 49.8-7.4c15.3-1 31.1 14.9 31.5 30.2 0.3 17 0.1 37.8-2.4 50.4-5.1 25.3-24.7 27.8-24.7 27.8l-1.1 25.3-56.4-1.6z"/>
										</g>
									</g>
								</g>
							</g>
						</g>
					</g>
				</g>
				<g id="&lt;Group&gt;">
					<g id="&lt;Group&gt;">
						<g id="&lt;Group&gt;">
							<g id="&lt;Group&gt;">
								<g id="&lt;Group&gt;">
									<g id="&lt;Group&gt;">
										<g id="&lt;Group&gt;">
											<g id="&lt;Group&gt;">
												<g id="&lt;Group&gt;">
													<g id="&lt;Group&gt;">
														<g id="&lt;Group&gt;">
															<g id="&lt;Group&gt;">
																<g id="&lt;Group&gt;">
																	<g id="&lt;Group&gt;">
																		<g id="&lt;Group&gt;">
																			<path id="&lt;Path&gt;" class="s4" d="m559.7 304.6c0 1.7-1.4 3.2-3.2 3.2-1.8 0-3.3-1.4-3.3-3.1 0-1.7 1.5-3.1 3.3-3.2 1.8 0 3.2 1.4 3.2 3.1z"/>
																		</g>
																	</g>
																</g>
															</g>
														</g>
													</g>
												</g>
											</g>
										</g>
									</g>
								</g>
							</g>
						</g>
					</g>
				</g>
				<g id="&lt;Group&gt;">
					<g id="&lt;Group&gt;">
						<g id="&lt;Group&gt;">
							<g id="&lt;Group&gt;">
								<g id="&lt;Group&gt;">
									<g id="&lt;Group&gt;">
										<g id="&lt;Group&gt;">
											<g id="&lt;Group&gt;">
												<g id="&lt;Group&gt;">
													<g id="&lt;Group&gt;">
														<g id="&lt;Group&gt;">
															<g id="&lt;Group&gt;">
																<g id="&lt;Group&gt;">
																	<g id="&lt;Group&gt;">
																		<g id="&lt;Group&gt;">
																			<g id="&lt;Group&gt;">
																				<path id="&lt;Path&gt;" class="s4" d="m560.3 296.5c-0.4 0.4-2.8-1.5-6.3-1.6-3.5-0.2-6.2 1.5-6.5 1-0.2-0.2 0.2-0.9 1.4-1.7 1.1-0.8 3.1-1.5 5.2-1.4 2.2 0.1 4 1 5.1 1.9 1 0.8 1.4 1.6 1.1 1.8z"/>
																			</g>
																		</g>
																	</g>
																</g>
															</g>
														</g>
													</g>
												</g>
											</g>
										</g>
									</g>
								</g>
							</g>
						</g>
					</g>
				</g>
				<g id="&lt;Group&gt;">
					<g id="&lt;Group&gt;">
						<g id="&lt;Group&gt;">
							<g id="&lt;Group&gt;">
								<g id="&lt;Group&gt;">
									<g id="&lt;Group&gt;">
										<g id="&lt;Group&gt;">
											<g id="&lt;Group&gt;">
												<g id="&lt;Group&gt;">
													<g id="&lt;Group&gt;">
														<g id="&lt;Group&gt;">
															<g id="&lt;Group&gt;">
																<g id="&lt;Group&gt;">
																	<g id="&lt;Group&gt;">
																		<g id="&lt;Group&gt;">
																			<path id="&lt;Path&gt;" class="s4" d="m527.2 303.3c0 1.8-1.5 3.2-3.3 3.2-1.8 0-3.2-1.4-3.2-3.1 0-1.7 1.5-3.1 3.3-3.2 1.8 0 3.2 1.4 3.2 3.1z"/>
																		</g>
																	</g>
																</g>
															</g>
														</g>
													</g>
												</g>
											</g>
										</g>
									</g>
								</g>
							</g>
						</g>
					</g>
				</g>
				<g id="&lt;Group&gt;">
					<g id="&lt;Group&gt;">
						<g id="&lt;Group&gt;">
							<g id="&lt;Group&gt;">
								<g id="&lt;Group&gt;">
									<g id="&lt;Group&gt;">
										<g id="&lt;Group&gt;">
											<g id="&lt;Group&gt;">
												<g id="&lt;Group&gt;">
													<g id="&lt;Group&gt;">
														<g id="&lt;Group&gt;">
															<g id="&lt;Group&gt;">
																<g id="&lt;Group&gt;">
																	<g id="&lt;Group&gt;">
																		<g id="&lt;Group&gt;">
																			<g id="&lt;Group&gt;">
																				<path id="&lt;Path&gt;" class="s4" d="m525.8 295.8c-0.5 0.4-2.9-1.6-6.4-1.7-3.5-0.2-6.1 1.5-6.5 1.1-0.2-0.2 0.3-1 1.4-1.7 1.2-0.8 3.1-1.5 5.3-1.4 2.2 0.1 4 1 5 1.8 1 0.9 1.4 1.7 1.2 1.9z"/>
																			</g>
																		</g>
																	</g>
																</g>
															</g>
														</g>
													</g>
												</g>
											</g>
										</g>
									</g>
								</g>
							</g>
						</g>
					</g>
				</g>
				<g id="&lt;Group&gt;">
					<g id="&lt;Group&gt;">
						<g id="&lt;Group&gt;">
							<g id="&lt;Group&gt;">
								<g id="&lt;Group&gt;">
									<g id="&lt;Group&gt;">
										<g id="&lt;Group&gt;">
											<g id="&lt;Group&gt;">
												<g id="&lt;Group&gt;">
													<g id="&lt;Group&gt;">
														<g id="&lt;Group&gt;">
															<g id="&lt;Group&gt;">
																<g id="&lt;Group&gt;">
																	<g id="&lt;Group&gt;">
																		<g id="&lt;Group&gt;">
																			<path id="&lt;Path&gt;" class="s4" d="m537.5 322.4c0-0.2 2.2-0.5 5.7-0.8 0.9-0.1 1.8-0.2 1.9-0.8 0.3-0.7-0.1-1.7-0.4-2.7q-1.2-3.3-2.4-7c-3.3-9.9-5.7-18-5.3-18.1 0.4-0.1 3.4 7.8 6.7 17.7q1.2 3.6 2.3 6.9c0.3 1.1 0.8 2.3 0.3 3.6-0.3 0.6-0.9 1.1-1.5 1.2-0.6 0.2-1.1 0.2-1.5 0.2-3.6 0-5.8 0-5.8-0.2z"/>
																		</g>
																	</g>
																</g>
															</g>
														</g>
													</g>
												</g>
											</g>
										</g>
									</g>
								</g>
							</g>
						</g>
					</g>
				</g>
				<g id="&lt;Group&gt;">
					<g id="&lt;Group&gt;">
						<g id="&lt;Group&gt;">
							<g id="&lt;Group&gt;">
								<g id="&lt;Group&gt;">
									<g id="&lt;Group&gt;">
										<g id="&lt;Group&gt;">
											<g id="&lt;Group&gt;">
												<g id="&lt;Group&gt;">
													<g id="&lt;Group&gt;">
														<g id="&lt;Group&gt;">
															<g id="&lt;Group&gt;">
																<g id="&lt;Group&gt;">
																	<g id="&lt;Group&gt;">
																		<path id="&lt;Path&gt;" class="s9" d="m539.1 364.1c0 0-18.1 0.4-34.6-10.5 0 0 7.8 18.2 34.3 16.9z"/>
																	</g>
																</g>
															</g>
														</g>
													</g>
												</g>
											</g>
										</g>
									</g>
								</g>
							</g>
						</g>
					</g>
				</g>
				<g id="&lt;Group&gt;">
					<g id="&lt;Group&gt;">
						<g id="&lt;Group&gt;">
							<g id="&lt;Group&gt;">
								<g id="&lt;Group&gt;">
									<g id="&lt;Group&gt;">
										<g id="&lt;Group&gt;">
											<g id="&lt;Group&gt;">
												<g id="&lt;Group&gt;">
													<g id="&lt;Group&gt;">
														<g id="&lt;Group&gt;">
															<g id="&lt;Group&gt;">
																<g id="&lt;Group&gt;">
																	<g id="&lt;Group&gt;">
																		<path id="&lt;Path&gt;" class="s9" d="m535.6 330.8c-1.2-1.8-3.3-2.8-5.6-2.6-1.5 0.1-3.1 0.8-4 2-1 1.2-1.3 2.9-0.5 4.1 0.9 1.4 2.9 1.8 4.6 1.4 1.7-0.4 3.2-1.5 4.6-2.5 0.4-0.3 0.8-0.6 1-1 0.3-0.4 0.4-1 0.1-1.3"/>
																	</g>
																</g>
															</g>
														</g>
													</g>
												</g>
											</g>
										</g>
									</g>
								</g>
							</g>
						</g>
					</g>
				</g>
				<g id="&lt;Group&gt;">
					<g id="&lt;Group&gt;">
						<g id="&lt;Group&gt;">
							<g id="&lt;Group&gt;">
								<g id="&lt;Group&gt;">
									<g id="&lt;Group&gt;">
										<g id="&lt;Group&gt;">
											<g id="&lt;Group&gt;">
												<g id="&lt;Group&gt;">
													<g id="&lt;Group&gt;">
														<g id="&lt;Group&gt;">
															<g id="&lt;Group&gt;">
																<g id="&lt;Group&gt;">
																	<g id="&lt;Group&gt;">
																		<g id="&lt;Group&gt;">
																			<path id="&lt;Path&gt;" class="s4" d="m527 324.4c0.6 0 0.4 3.8 3.6 6.6 3.2 2.9 7.2 2.6 7.2 3.1 0.1 0.3-0.9 0.7-2.6 0.7-1.7 0-4.1-0.6-6.1-2.4-1.9-1.7-2.7-4-2.7-5.5-0.1-1.6 0.4-2.6 0.6-2.5z"/>
																		</g>
																	</g>
																</g>
															</g>
														</g>
													</g>
												</g>
											</g>
										</g>
									</g>
								</g>
							</g>
						</g>
					</g>
				</g>
				<g id="&lt;Group&gt;">
					<g id="&lt;Group&gt;">
						<g id="&lt;Group&gt;">
							<g id="&lt;Group&gt;">
								<g id="&lt;Group&gt;">
									<g id="&lt;Group&gt;">
										<g id="&lt;Group&gt;">
											<g id="&lt;Group&gt;">
												<g id="&lt;Group&gt;">
													<g id="&lt;Group&gt;">
														<g id="&lt;Group&gt;">
															<path id="&lt;Path&gt;" class="s4" d="m527.2 282c-0.4 1-3.8 0.4-8 0.7-4.1 0.3-7.5 1.3-8 0.4-0.3-0.4 0.4-1.2 1.7-2.1 1.4-0.9 3.6-1.7 6.1-1.9 2.4-0.1 4.7 0.4 6.2 1 1.5 0.7 2.2 1.5 2 1.9z"/>
														</g>
													</g>
												</g>
											</g>
										</g>
									</g>
								</g>
							</g>
						</g>
					</g>
				</g>
				<g id="&lt;Group&gt;">
					<g id="&lt;Group&gt;">
						<g id="&lt;Group&gt;">
							<g id="&lt;Group&gt;">
								<g id="&lt;Group&gt;">
									<g id="&lt;Group&gt;">
										<g id="&lt;Group&gt;">
											<g id="&lt;Group&gt;">
												<g id="&lt;Group&gt;">
													<g id="&lt;Group&gt;">
														<g id="&lt;Group&gt;">
															<path id="&lt;Path&gt;" class="s4" d="m559.5 286.3c-0.7 0.8-3.1-0.2-6-0.3-2.9-0.3-5.4 0.3-5.9-0.6-0.3-0.4 0.2-1.2 1.3-1.9 1.1-0.7 2.9-1.2 4.9-1.1 2 0.2 3.7 1 4.7 1.8 0.9 0.9 1.3 1.7 1 2.1z"/>
														</g>
													</g>
												</g>
											</g>
										</g>
									</g>
								</g>
							</g>
						</g>
					</g>
				</g>
				<g id="&lt;Group&gt;">
					<g id="&lt;Group&gt;">
						<g id="&lt;Group&gt;">
							<g id="&lt;Group&gt;">
								<g id="&lt;Group&gt;">
									<g id="&lt;Group&gt;">
										<g id="&lt;Group&gt;">
											<path id="&lt;Path&gt;" class="s4" d="m572.7 255.1c-4.1 8.9-13.3 22.1-23 23.1-9.8 0.9-19.9-3.6-25.7-11.6-1.6 7.3-9.8 10.9-17.1 12-5.2 0.7-10.6 0.6-15.5-1.4-4.8-2.1-8.8-6.4-9.5-11.6-0.7-5.2 7-17.8 12.2-18.6"/>
										</g>
									</g>
								</g>
							</g>
						</g>
					</g>
				</g>
				<g id="&lt;Group&gt;">
					<g id="&lt;Group&gt;">
						<g id="&lt;Group&gt;">
							<g id="&lt;Group&gt;">
								<g id="&lt;Group&gt;">
									<g id="&lt;Group&gt;">
										<g id="&lt;Group&gt;">
											<path id="&lt;Path&gt;" class="s4" d="m493.2 385.2c-0.4 8.3-6.7 15.8-14.7 17.9 0.3 6.6-4.8 13.1-11.4 14.4-6.5 1.4-13.8-2.6-16.1-8.9-0.6-1.7-1-3.5-2-4.8-2.5-3.2-7.4-2.6-11.2-3.8-6.9-2.2-9.9-10.7-9.1-17.9 0.1-1.4 0.4-2.9 0.2-4.3-0.5-2.9-2.7-5.1-4.4-7.5-6.9-9.8-4.1-24.1 3.6-33.3 2.6-3.1 5.8-6.3 5.6-10.3-0.1-2.3-1.4-4.3-2.2-6.4-2.6-6.7-0.6-15.1 4.9-19.8 0.9-0.7 1.8-1.5 2.1-2.6 0.2-0.6 0.1-1.4 0-2.1-1.2-10.6 7.3-21.4 18-22.7 0.6 0 1.3-0.1 1.9-0.4 1.6-0.8 1.7-3.1 1.9-4.9 0.5-4.9 4.3-13.9 8-17.1 10.3-8.8 20.2-1.6 23.8 1.7 0 0 7 34.9 5.7 41.4-1.4 6.5-6.2 22.7-4.3 30.1 1.9 7.3 5 22.4 2.1 29-3 6.7-2.4 32.3-2.4 32.3z"/>
										</g>
									</g>
								</g>
							</g>
						</g>
					</g>
				</g>
				<g id="&lt;Group&gt;">
					<g id="&lt;Group&gt;">
						<g id="&lt;Group&gt;">
							<g id="&lt;Group&gt;">
								<g id="&lt;Group&gt;">
									<path id="&lt;Path&gt;" class="s6" d="m454.8 273c-0.1 0.1 0.4 0.4 1.3 1.1 0.9 0.7 2.3 1.5 4.1 2.4 3.6 1.9 8.8 4 14.9 5 6.1 1 11.7 0.7 15.7 0.1 2-0.4 3.5-0.7 4.6-1.1 1.1-0.3 1.7-0.5 1.7-0.6-0.1-0.2-2.5 0.4-6.4 0.9-4 0.4-9.5 0.6-15.4-0.4-6-1-11.2-2.9-14.8-4.6-3.5-1.6-5.6-3-5.7-2.8z"/>
								</g>
							</g>
						</g>
					</g>
				</g>
				<g id="&lt;Group&gt;">
					<g id="&lt;Group&gt;">
						<g id="&lt;Group&gt;">
							<g id="&lt;Group&gt;">
								<g id="&lt;Group&gt;">
									<path id="&lt;Path&gt;" class="s6" d="m451.4 275.5c-0.1 0 0.2 0.7 0.8 2 0.2 0.7 0.6 1.5 1.1 2.4 0.5 0.9 1 1.9 1.7 2.9 1.3 2.2 3.2 4.6 5.5 7.1 2.3 2.4 5.2 4.8 8.4 7 3.3 2.1 6.6 3.7 9.8 5 3.1 1.1 6.1 1.9 8.6 2.2 1.2 0.3 2.4 0.3 3.4 0.4 1 0.2 1.9 0.2 2.6 0.1 1.4 0 2.2 0 2.2-0.1 0-0.2-3.2-0.2-8.1-1.1-2.4-0.5-5.3-1.3-8.4-2.5-3-1.2-6.3-2.8-9.5-4.9-3.2-2.1-5.9-4.5-8.3-6.8-2.3-2.4-4.2-4.7-5.6-6.8-2.8-4.1-4-7-4.2-6.9z"/>
								</g>
							</g>
						</g>
					</g>
				</g>
				<g id="&lt;Group&gt;">
					<g id="&lt;Group&gt;">
						<g id="&lt;Group&gt;">
							<g id="&lt;Group&gt;">
								<g id="&lt;Group&gt;">
									<path id="&lt;Path&gt;" class="s6" d="m469.7 405.1c0-0.1-0.5 0-1.3-0.2-0.7-0.1-1.9-0.6-2.9-1.7-1-1.1-1.9-2.8-1.9-5-0.1-2.2 0.6-4.6 1.3-7.2 0.7-2.7 1.7-5.9 0.6-9.2-1.1-3.3-3.8-5.9-6.1-8.6-1.2-1.4-2.4-2.8-3.1-4.5-0.7-1.7-0.6-3.6 0.2-5.3 0.8-1.6 2.3-3 3.9-4.2 1.7-1.2 3.5-2.2 5.2-3.5 1.7-1.3 3.4-2.8 4.2-5 0.8-2.1 0.3-4.5-0.7-6.3-1.9-3.6-5-6.2-5.7-9.7-0.9-3.5 0.7-6.8 2.6-9.4 1.8-2.6 4-4.7 6.1-6.5 2-1.9 3.8-3.8 5.1-5.5 1.4-1.8 2.2-3.6 2.7-5.1 0.4-1.5 0.4-2.8 0.4-3.6q-0.2-1.2-0.2-1.2c-0.2 0 0.4 1.7-0.6 4.7-0.9 2.9-3.8 6.5-7.9 10.1-2.1 1.8-4.4 3.9-6.4 6.6-1 1.3-1.9 2.9-2.4 4.6-0.6 1.7-0.8 3.6-0.4 5.5 0.8 3.9 4 6.6 5.8 10 0.9 1.7 1.3 3.7 0.6 5.5-0.7 1.8-2.2 3.2-3.8 4.4-1.7 1.3-3.5 2.3-5.2 3.6-1.7 1.2-3.3 2.6-4.3 4.6-0.9 1.9-1 4.2-0.1 6.1 0.7 1.9 2 3.4 3.2 4.8 2.4 2.7 5 5.2 6 8.2 1 2.9 0.2 6-0.4 8.7-0.7 2.6-1.4 5.1-1.2 7.4 0.1 2.3 1.1 4.2 2.2 5.3 1.1 1.1 2.4 1.6 3.2 1.7 0.8 0.1 1.3-0.1 1.3-0.1z"/>
								</g>
							</g>
						</g>
					</g>
				</g>
			</g>
			<g id="&lt;Group&gt;">
				<g id="&lt;Group&gt;">
					<g id="&lt;Group&gt;">
						<path id="&lt;Path&gt;" class="s1" d="m724.3 494.6l-128.9 1c-4.2 0-8.2 2-8.8 6.2l-14.1 94h-66.4c-2.2 0-3.9 1.7-3.9 3.8 0 2.2 1.7 3.9 3.9 3.9h65.2 12.4 134.5l14.5-99.2c0.8-5.1-3.2-9.7-8.4-9.7z"/>
					</g>
					<g id="&lt;Group&gt;">
						<g id="&lt;Group&gt;">
							<path id="&lt;Path&gt;" class="s4" d="m724.3 494.6c0 0 0.7-0.1 2.1 0.2 1.3 0.3 3.3 1.1 4.9 3.2 0.8 1.1 1.4 2.5 1.6 4.2 0.2 1.6-0.3 3.4-0.5 5.3q-0.8 5.7-1.8 13c-2.9 19.8-7 48.1-12 83.1l-0.1 0.3h-0.3c-54.9 0-127 0.1-205.8 0.1q-2.8 0-5.6 0c-0.8 0.1-2 0-2.9-0.5-0.9-0.5-1.6-1.4-2-2.4-0.7-1.9 0.2-4.3 2-5.3 0.9-0.5 2.1-0.6 2.9-0.6h2.8q10.9 0 21.5 0c14.2 0 28.1 0.1 41.4 0.1l-0.5 0.4c5.1-33.7 9.8-65.1 14-93.2 0.2-1.8 1-3.8 2.4-5 1.4-1.2 3.2-1.9 5-2.1 1.7-0.3 3.5-0.2 5.2-0.2q2.5 0 5 0 10.1-0.1 19.4-0.2c12.5-0.1 24.1-0.1 34.5-0.2 21-0.1 37.7-0.2 49.2-0.2 5.7-0.1 10.1-0.1 13.1-0.1q2.2 0 3.4 0 1.1 0.1 1.1 0.1 0 0-1.1 0-1.2 0.1-3.4 0.1c-3 0-7.4 0.1-13.1 0.2-11.5 0.1-28.2 0.3-49.2 0.5-10.4 0.1-22 0.3-34.5 0.4q-9.3 0.1-19.4 0.2-2.5 0-5 0c-1.7 0.1-3.5-0.1-5.1 0.2-1.7 0.3-3.3 0.9-4.5 2-1.3 1.1-2 2.6-2.1 4.4-4.2 28.2-8.9 59.6-13.9 93.2l-0.1 0.5h-0.4c-13.3 0-27.2 0-41.4 0q-10.6 0-21.5 0h-2.8c-0.9 0-1.6 0-2.4 0.4-1.4 0.7-2.1 2.6-1.5 4.1 0.3 0.7 0.8 1.4 1.5 1.8 0.8 0.4 1.5 0.4 2.4 0.4q2.8 0 5.6 0c78.8 0 150.9 0.1 205.8 0.1l-0.4 0.3c5.2-34.8 9.4-63.2 12.3-82.9q1.1-7.4 2-13.1c0.2-1.9 0.7-3.6 0.5-5.2-0.2-1.6-0.7-3-1.5-4-1.5-2.2-3.5-3-4.8-3.3-1.3-0.3-2-0.3-2-0.3z"/>
						</g>
					</g>
				</g>
				<g id="&lt;Group&gt;">
					<path id="&lt;Path&gt;" class="s3" d="m646.3 547.8c0 4.5 3.6 8.1 8.1 8.1 4.4 0 8.1-3.6 8.1-8.1 0-4.4-3.7-8-8.1-8-4.5 0-8.1 3.6-8.1 8z"/>
				</g>
				<g id="&lt;Group&gt;">
					<g id="&lt;Group&gt;">
						<path id="&lt;Path&gt;" class="s4" d="m577.7 602.6c0.2 0.1 4.3-23.9 9.2-53.4 4.9-29.6 8.7-53.5 8.5-53.6-0.2 0-4.3 23.9-9.2 53.5-4.9 29.5-8.7 53.5-8.5 53.5z"/>
					</g>
				</g>
			</g>
		</g>
	</g>
	<g id="Picture">
		<g id="&lt;Group&gt;">
			<g id="&lt;Group&gt;">
				<g id="&lt;Group&gt;">
					<path id="&lt;Path&gt;" class="s4" d="m927.5 429.8c0 0-0.1-1.2-0.1-3.5q0-3.4 0-10c-0.1-8.8-0.1-21.7-0.1-38.1-0.1-32.8-0.2-79.7-0.3-136.1l0.5 0.4c-60.6 0.1-132.8 0.1-210.2 0.1l0.5-0.5c0 68.3-0.1 132.5-0.1 187.7l-0.4-0.4c62.7 0.1 115.2 0.1 152 0.2 18.4 0 33 0.1 42.9 0.1q7.4 0 11.3 0.1 1.9 0 3 0 1 0 1 0 0 0-1 0-1 0.1-2.9 0.1-3.8 0-11.2 0c-9.9 0.1-24.4 0.1-42.8 0.1-36.9 0.1-89.5 0.2-152.3 0.3h-0.5v-0.5c0-55.2 0-119.4-0.1-187.7v-0.5h0.6c77.4 0 149.6 0 210.2 0h0.4v0.5c-0.1 56.5-0.2 103.5-0.2 136.4-0.1 16.3-0.1 29.2-0.1 38q-0.1 6.5-0.1 9.9 0 3.4 0 3.4z"/>
				</g>
			</g>
			<g id="&lt;Group&gt;">
				<g id="&lt;Group&gt;">
					<g id="&lt;Group&gt;">
						<g id="&lt;Group&gt;">
							<g id="&lt;Group&gt;">
								<g id="&lt;Group&gt;">
									<g id="&lt;Group&gt;">
										<path id="&lt;Path&gt;" class="s5" d="m910.3 419.1h-179.3v-166.3h179.3z"/>
									</g>
								</g>
							</g>
						</g>
					</g>
					<g id="&lt;Group&gt;" style="opacity: .3">
						<g id="&lt;Group&gt;">
							<path id="&lt;Path&gt;" class="s10" d="m839.5 290.3c-7.2 0-12.9 5.5-12.9 12.3 0 6.9 5.7 12.4 12.9 12.4 7.1 0 12.9-5.5 12.9-12.4 0-6.8-5.8-12.3-12.9-12.3z"/>
						</g>
						<g id="&lt;Group&gt;">
							<path id="&lt;Compound Path&gt;" fill-rule="evenodd" class="s10" d="m897.2 265.8v0.7c-0.2 41.8-0.3 76.5-0.4 100.9-0.1 12.1-0.2 21.6-0.2 28.1q-0.1 4.8-0.1 7.4 0 1.2 0 1.9-0.1 0.6-0.1 0.6 0 0 0 0 0 0 0 0 0 0-0.6 0-0.8 0-2.1 0.1-2.8 0-8 0c-7.2 0.1-17.6 0.1-30.8 0.2-26.6 0.1-64.6 0.2-110 0.4h-0.8v-0.7c0-20.3 0-42.3 0-65.6q-0.1-17.5-0.1-35.9 0-9.2 0-18.5 0-4.7 0-9.4v-4.7-2.4-2.3c-0.7 0.7 1.1-1.1 0.9-0.9 55.6 0.1 107.6 0.1 151.5 0.1zm-0.7 139.6c0 0 0-0.2 0-0.5h-75.8c12.6 0 24 0.1 33.8 0.1 13.3 0.1 23.7 0.2 30.9 0.2q5.3 0.1 8.2 0.1 1.3 0 2.1 0 0.8 0 0.8 0.1zm0-0.6c0 0-0.1 0-0.1-0.1q0-0.8 0-2 0-2.6-0.1-7.4c0-6.6-0.1-16.2-0.2-28.3-0.1-24.2-0.2-58.5-0.3-99.8-43.6 0.1-95 0.1-150 0.2v8.6q0 4.7 0 9.4 0 9.3 0 18.5 0 18.4 0 35.9c-0.1 22.6-0.1 44-0.1 63.8l48.9-84.3 40.5 54.7 24.7-29.1z"/>
						</g>
					</g>
				</g>
			</g>
			<g id="&lt;Group&gt;">
				<path id="&lt;Path&gt;" class="s4" d="m722.8 246.2h-11v-11h11z"/>
			</g>
			<g id="&lt;Group&gt;">
				<path id="&lt;Path&gt;" class="s4" d="m931.2 246.2h-11v-11h11z"/>
			</g>
			<g id="&lt;Group&gt;">
				<path id="&lt;Path&gt;" class="s4" d="m931.2 433.5h-11v-11h11z"/>
			</g>
			<g id="&lt;Group&gt;">
				<path id="&lt;Path&gt;" class="s4" d="m724.3 433.5h-11v-11h11z"/>
			</g>
			<g id="&lt;Group&gt;">
				<path id="&lt;Path&gt;" class="s4" d="m724.3 340.9h-11v-11h11z"/>
			</g>
			<g id="&lt;Group&gt;">
				<path id="&lt;Path&gt;" class="s4" d="m826.5 435.3h-11v-11h11z"/>
			</g>
			<g id="&lt;Group&gt;">
				<path id="&lt;Path&gt;" class="s4" d="m933 335.4h-11v-11h11z"/>
			</g>
			<g id="&lt;Group&gt;">
				<path id="&lt;Path&gt;" class="s4" d="m826.6 247.2h-11.1v-11h11.1z"/>
			</g>
		</g>
	</g>
	<g id="Plant">
		<g id="&lt;Group&gt;">
			<g id="&lt;Group&gt;">
				<g id="&lt;Group&gt;">
					<g id="&lt;Group&gt;">
						<g id="&lt;Group&gt;">
							<path id="&lt;Path&gt;" class="s4" d="m1248.7 752.9c-0.2 0.3-1.9-0.7-3.7-2.2-1.9-1.5-3.2-2.9-3-3.2 0.2-0.2 1.9 0.8 3.7 2.3 1.9 1.5 3.2 2.9 3 3.1z"/>
						</g>
					</g>
				</g>
				<g id="&lt;Group&gt;">
					<g id="&lt;Group&gt;">
						<g id="&lt;Group&gt;">
							<path id="&lt;Path&gt;" class="s6" d="m1299.2 677.4c0.3-7.1 0.5-14.3-1.7-21-2.2-6.7-7.4-12.9-14.3-14.3-7.9-1.7-16 3.3-20.4 10.1-4.4 6.7-6 14.9-7.3 22.8-9 54.9-12.3 110.6-9.9 166.1l32.3 4.6c14.2-58 18.8-108.7 21.3-168.3z"/>
						</g>
					</g>
					<g id="&lt;Group&gt;">
						<g id="&lt;Group&gt;">
							<g id="&lt;Group&gt;">
								<path id="&lt;Path&gt;" class="s4" d="m1278.7 641.8q0 0-0.1 0.5-0.2 0.6-0.6 1.5-0.8 2-2.1 5.6c-0.5 1.2-1.1 2.5-1.6 4q-0.7 2.3-1.5 4.9-0.9 2.7-1.8 5.6-0.8 3.1-1.7 6.4c-2.4 9-4.5 19.9-6.2 32-1.8 12.2-2.9 25.6-3.8 39.8-1.7 28.3-1.9 54-2.7 72.5-0.3 9.3-0.6 16.8-1 22q-0.2 3.8-0.4 6-0.1 0.9-0.1 1.6-0.1 0.5-0.1 0.5 0 0 0-0.5 0-0.7 0-1.6 0-2.2 0.2-6c0.2-5.2 0.4-12.7 0.6-22 0.5-18.6 0.7-44.3 2.3-72.6 0.9-14.2 2.1-27.7 3.9-39.8 1.9-12.2 4-23.1 6.5-32.1q0.9-3.3 1.8-6.4 1-3 1.9-5.6 0.9-2.6 1.6-4.9c0.5-1.5 1.2-2.8 1.7-4q1.5-3.5 2.3-5.5 0.4-0.8 0.7-1.4 0.2-0.5 0.2-0.5z"/>
							</g>
						</g>
					</g>
					<g id="&lt;Group&gt;">
						<g id="&lt;Group&gt;">
							<g id="&lt;Group&gt;">
								<path id="&lt;Path&gt;" class="s4" d="m1281.7 641.8c0 0 2 2.1 4 6.7 2 4.6 3.3 12 2.9 20.9-0.9 17.9-2.5 42.5-4.6 69.6-2.1 27.2-4.5 51.8-6.4 69.5-0.9 8.9-1.8 16.1-2.4 21q-0.4 3.6-0.7 5.7-0.1 0.9-0.2 1.5-0.1 0.5-0.1 0.5-0.1 0 0-0.5 0-0.6 0.1-1.5 0.1-2.1 0.5-5.7c0.5-5.1 1.1-12.3 2-21.1 1.7-17.7 3.9-42.3 6.1-69.5 2.1-27.1 3.8-51.7 4.9-69.5 0.4-8.9-0.7-16.1-2.6-20.7-1.8-4.6-3.6-6.8-3.5-6.9z"/>
							</g>
						</g>
					</g>
					<g id="&lt;Group&gt;">
						<g id="&lt;Group&gt;">
							<g id="&lt;Group&gt;">
								<path id="&lt;Path&gt;" class="s4" d="m1304.1 725.5c-0.1 0.3-2.8-0.5-6.1-1.6-3.3-1.2-5.9-2.4-5.8-2.7 0.2-0.3 2.9 0.4 6.2 1.6 3.2 1.2 5.8 2.4 5.7 2.7z"/>
							</g>
						</g>
					</g>
					<g id="&lt;Group&gt;">
						<g id="&lt;Group&gt;">
							<g id="&lt;Group&gt;">
								<path id="&lt;Path&gt;" class="s4" d="m1308 692.5c0.1 0.3-2.5 1.8-5.8 3.3-3.4 1.5-6.2 2.4-6.3 2.2-0.2-0.3 2.5-1.8 5.8-3.3 3.3-1.5 6.2-2.5 6.3-2.2z"/>
							</g>
						</g>
					</g>
					<g id="&lt;Group&gt;">
						<g id="&lt;Group&gt;">
							<g id="&lt;Group&gt;">
								<path id="&lt;Path&gt;" class="s4" d="m1306 665.7c0 0.3-2.2 0.4-4.8 0.2-2.7-0.2-4.8-0.6-4.8-0.9 0-0.3 2.2-0.4 4.8-0.3 2.7 0.2 4.8 0.6 4.8 1z"/>
							</g>
						</g>
					</g>
					<g id="&lt;Group&gt;">
						<g id="&lt;Group&gt;">
							<g id="&lt;Group&gt;">
								<path id="&lt;Path&gt;" class="s4" d="m1272.6 648.4c-0.2 0.2-1.6-1.6-3.1-3.9-1.5-2.3-2.5-4.4-2.2-4.6 0.3-0.1 1.7 1.6 3.2 4 1.4 2.3 2.4 4.4 2.1 4.5z"/>
							</g>
						</g>
					</g>
					<g id="&lt;Group&gt;">
						<g id="&lt;Group&gt;">
							<g id="&lt;Group&gt;">
								<path id="&lt;Path&gt;" class="s4" d="m1261.6 664.7c0 0.3-2 0.5-4.6 0.5-2.5-0.1-4.5-0.4-4.5-0.7 0-0.3 2-0.5 4.6-0.5 2.5 0.1 4.5 0.4 4.5 0.7z"/>
							</g>
						</g>
					</g>
					<g id="&lt;Group&gt;">
						<g id="&lt;Group&gt;">
							<g id="&lt;Group&gt;">
								<path id="&lt;Path&gt;" class="s4" d="m1253.7 697.2c-0.1 0.3-2.3-0.3-4.8-1.3-2.6-1.1-4.5-2.1-4.4-2.4 0.1-0.3 2.3 0.3 4.8 1.3 2.6 1 4.5 2.1 4.4 2.4z"/>
							</g>
						</g>
					</g>
					<g id="&lt;Group&gt;">
						<g id="&lt;Group&gt;">
							<g id="&lt;Group&gt;">
								<path id="&lt;Path&gt;" class="s4" d="m1252.9 724.5c0 0.4-1.8 1-4.1 1.5-2.4 0.5-4.3 0.6-4.4 0.3-0.1-0.3 1.8-0.9 4.1-1.4 2.4-0.5 4.3-0.7 4.4-0.4z"/>
							</g>
						</g>
					</g>
					<g id="&lt;Group&gt;">
						<g id="&lt;Group&gt;">
							<g id="&lt;Group&gt;">
								<path id="&lt;Path&gt;" class="s4" d="m1249.1 769.3c0.1 0.3-1.9 0.9-4.3 1.3-2.5 0.5-4.5 0.6-4.6 0.3 0-0.3 1.9-1 4.4-1.4 2.4-0.4 4.5-0.5 4.5-0.2z"/>
							</g>
						</g>
					</g>
					<g id="&lt;Group&gt;">
						<g id="&lt;Group&gt;">
							<g id="&lt;Group&gt;">
								<path id="&lt;Path&gt;" class="s4" d="m1246.7 794c0.1 0.2-1.5 1.4-3.7 2.5-2.1 1.2-4 1.9-4.1 1.6-0.2-0.3 1.4-1.4 3.6-2.6 2.2-1.1 4-1.8 4.2-1.5z"/>
							</g>
						</g>
					</g>
					<g id="&lt;Group&gt;">
						<g id="&lt;Group&gt;">
							<g id="&lt;Group&gt;">
								<path id="&lt;Path&gt;" class="s4" d="m1266.8 822c-0.2 0.1-1.7-1.8-3.1-4.4-1.5-2.6-2.5-4.8-2.2-4.9 0.3-0.2 1.7 1.8 3.2 4.3 1.4 2.6 2.4 4.8 2.1 5z"/>
							</g>
						</g>
					</g>
					<g id="&lt;Group&gt;">
						<g id="&lt;Group&gt;">
							<g id="&lt;Group&gt;">
								<path id="&lt;Path&gt;" class="s4" d="m1272.7 775.4c0.2 0.2-1.4 2.2-3.6 4.3-2.2 2.1-4.1 3.7-4.3 3.4-0.2-0.2 1.3-2.1 3.5-4.2 2.2-2.2 4.1-3.7 4.4-3.5z"/>
							</g>
						</g>
					</g>
					<g id="&lt;Group&gt;">
						<g id="&lt;Group&gt;">
							<g id="&lt;Group&gt;">
								<path id="&lt;Path&gt;" class="s4" d="m1271.4 751c-0.3 0.2-1.7-1-3.3-2.7-1.6-1.7-2.7-3.3-2.4-3.5 0.2-0.2 1.7 1 3.2 2.7 1.6 1.7 2.7 3.3 2.5 3.5z"/>
							</g>
						</g>
					</g>
					<g id="&lt;Group&gt;">
						<g id="&lt;Group&gt;">
							<g id="&lt;Group&gt;">
								<path id="&lt;Path&gt;" class="s4" d="m1275.4 719.8c0.2 0.2-1.1 2-3 4.1-1.8 2.1-3.5 3.6-3.8 3.4-0.2-0.2 1.1-2.1 3-4.2 1.8-2 3.5-3.6 3.8-3.3z"/>
							</g>
						</g>
					</g>
					<g id="&lt;Group&gt;">
						<g id="&lt;Group&gt;">
							<g id="&lt;Group&gt;">
								<path id="&lt;Path&gt;" class="s4" d="m1277.6 697.1c-0.2 0.2-2-1.2-4.1-3.2-2-2-3.5-3.9-3.3-4.1 0.2-0.2 2.1 1.2 4.1 3.2 2.1 2.1 3.5 3.9 3.3 4.1z"/>
							</g>
						</g>
					</g>
					<g id="&lt;Group&gt;">
						<g id="&lt;Group&gt;">
							<g id="&lt;Group&gt;">
								<path id="&lt;Path&gt;" class="s4" d="m1282 666.5c0.3 0.1-0.6 2.2-2 4.6-1.4 2.3-2.8 4.1-3.1 3.9-0.3-0.1 0.7-2.2 2.1-4.5 1.4-2.4 2.8-4.2 3-4z"/>
							</g>
						</g>
					</g>
					<g id="&lt;Group&gt;">
						<g id="&lt;Group&gt;">
							<g id="&lt;Group&gt;">
								<path id="&lt;Path&gt;" class="s4" d="m1290.4 638.1c0.2 0.1-0.6 2.2-1.9 4.6-1.3 2.4-2.5 4.2-2.8 4-0.3-0.1 0.5-2.2 1.8-4.6 1.3-2.4 2.6-4.2 2.9-4z"/>
							</g>
						</g>
					</g>
					<g id="&lt;Group&gt;">
						<g id="&lt;Group&gt;">
							<g id="&lt;Group&gt;">
								<path id="&lt;Path&gt;" class="s4" d="m1299.8 651c0.1 0.3-1.2 1.2-2.9 2-1.7 0.8-3.2 1.3-3.4 1-0.1-0.3 1.2-1.2 2.9-2 1.7-0.9 3.3-1.3 3.4-1z"/>
							</g>
						</g>
					</g>
					<g id="&lt;Group&gt;">
						<g id="&lt;Group&gt;">
							<g id="&lt;Group&gt;">
								<path id="&lt;Path&gt;" class="s4" d="m1300 752.9c0 0.3-3-0.1-6.3-1.5-3.3-1.4-5.6-3.3-5.5-3.5 0.2-0.3 2.7 1.1 6 2.4 3.2 1.4 5.9 2.3 5.8 2.6z"/>
							</g>
						</g>
					</g>
					<g id="&lt;Group&gt;">
						<g id="&lt;Group&gt;">
							<g id="&lt;Group&gt;">
								<path id="&lt;Path&gt;" class="s4" d="m1296.2 774.5c0 0.3-1.9 1-4.4 1.4-2.4 0.5-4.5 0.6-4.5 0.3-0.1-0.3 1.8-0.9 4.3-1.4 2.5-0.5 4.5-0.6 4.6-0.3z"/>
							</g>
						</g>
					</g>
					<g id="&lt;Group&gt;">
						<g id="&lt;Group&gt;">
							<g id="&lt;Group&gt;">
								<path id="&lt;Path&gt;" class="s4" d="m1291.4 811.5c-0.2 0.3-2.6-1.4-4.9-4.3-2.3-2.9-3.4-5.6-3.1-5.8 0.3-0.1 1.8 2.3 4 5.1 2.2 2.7 4.2 4.8 4 5z"/>
							</g>
						</g>
					</g>
					<g id="&lt;Group&gt;">
						<g id="&lt;Group&gt;">
							<g id="&lt;Group&gt;">
								<path id="&lt;Path&gt;" class="s4" d="m1239.5 828.5c-0.2-0.3 1.1-1.8 2.9-3.3 1.9-1.6 3.5-2.6 3.7-2.4 0.2 0.2-1.1 1.7-2.9 3.3-1.8 1.5-3.5 2.6-3.7 2.4z"/>
							</g>
						</g>
					</g>
				</g>
			</g>
			<g id="&lt;Group&gt;">
				<g id="&lt;Group&gt;">
					<path id="&lt;Path&gt;" class="s6" d="m1224.6 747.7c-2.1-6.6-6.1-14.3-13-14.4-4.1 0-7.7 2.9-9.7 6.5-1.9 3.6-2.7 7.8-2.6 11.9 0.8 27 5.5 57.9 14.8 86.1h25.3c-0.4-31.3-5.3-60.4-14.8-90.1z"/>
				</g>
			</g>
			<g id="&lt;Group&gt;">
				<g id="&lt;Group&gt;">
					<path id="&lt;Path&gt;" class="s6" d="m1178.9 706.3c-3.5-14.1-14-21.7-26.2-22.4-11.2 2-15.5 12.9-16.8 24.2-1.3 11.2 2.2 22.4 5.6 33.2q16.6 51.9 33.2 103.8 15.7-1.7 31.4-3.4c-9.9-46.4-15.6-89.4-27.2-135.4z"/>
				</g>
			</g>
			<g id="&lt;Group&gt;">
				<g id="&lt;Group&gt;">
					<g id="&lt;Group&gt;">
						<path id="&lt;Path&gt;" class="s4" d="m1211.6 733.3c0.1 0.1-1 1.2-2.1 3.6-1.1 2.5-1.6 6.4-1.2 11.2 0.5 4.8 1 10.5 1.8 16.9 0.9 6.3 2 13.2 3.4 20.5 2.9 14.5 6.1 27.5 8.1 37 1.1 4.7 1.8 8.5 2.3 11.2q0.4 1.8 0.6 3.1 0.1 1 0.1 1.1-0.1 0-0.4-1.1-0.3-1.2-0.7-3c-0.7-2.8-1.6-6.6-2.7-11.2-2.2-9.4-5.5-22.4-8.4-36.9-1.4-7.3-2.5-14.2-3.3-20.6-0.4-3.2-0.7-6.2-0.9-9.1-0.3-2.8-0.6-5.5-0.7-7.9-0.4-4.9 0.3-8.9 1.6-11.4 1.3-2.4 2.5-3.4 2.5-3.4z"/>
					</g>
				</g>
			</g>
			<g id="&lt;Group&gt;">
				<g id="&lt;Group&gt;">
					<g id="&lt;Group&gt;">
						<path id="&lt;Path&gt;" class="s4" d="m1153.1 683c0.1 0.1-1.6 1.6-3.8 5.1-2.1 3.5-4.3 9.1-4.7 16.4-0.5 7.3 1.1 16 3.9 25.3 2.7 9.3 5.7 19.6 8.9 30.3 6.3 21.5 11.9 41 16.1 55.2 1.9 7 3.6 12.7 4.7 16.8q0.8 2.9 1.2 4.6 0.5 1.6 0.4 1.6-0.1 0-0.6-1.6-0.5-1.7-1.4-4.5c-1.3-4-3-9.7-5.1-16.6-4.2-14.2-10-33.7-16.4-55.1-3.1-10.8-6.1-21.1-8.9-30.4-2.7-9.4-4.2-18.2-3.6-25.6 0.5-7.5 2.9-13.2 5.2-16.6 2.2-3.5 4.1-4.9 4.1-4.9z"/>
					</g>
				</g>
			</g>
			<g id="&lt;Group&gt;">
				<g id="&lt;Group&gt;">
					<g id="&lt;Group&gt;">
						<path id="&lt;Path&gt;" class="s4" d="m1199.2 838.4q0 0-0.7-1.5c-0.4-1.1-1-2.5-1.8-4.5-1.4-3.8-3.4-9.5-5.3-16.6-2-7.2-4-15.7-5.9-25.3-1.8-9.6-3.8-20.2-5.9-31.3-2.2-11-4.6-21.5-7.4-30.8-2.9-9.3-6-17.5-9.2-24.2-3.2-6.6-6.2-11.8-8.4-15.2-1.1-1.8-2.1-3-2.7-3.9q-0.9-1.4-0.9-1.5 0.1 0 1.1 1.3c0.6 0.9 1.7 2.1 2.8 3.8 2.4 3.4 5.6 8.5 8.8 15.2 3.3 6.6 6.6 14.9 9.5 24.2 2.9 9.4 5.3 19.9 7.5 30.9 2.1 11.1 4.1 21.6 5.8 31.3 1.9 9.5 3.8 18.1 5.6 25.3 1.9 7.1 3.7 12.8 5.1 16.7 0.6 1.9 1.2 3.4 1.6 4.5q0.5 1.5 0.4 1.6z"/>
					</g>
				</g>
			</g>
			<g id="&lt;Group&gt;">
				<g id="&lt;Group&gt;">
					<g id="&lt;Group&gt;">
						<path id="&lt;Path&gt;" class="s4" d="m1142.1 736.1c0 0.3-1.7 1-3.9 1.5-2.1 0.6-4 0.7-4 0.4-0.1-0.3 1.6-1 3.8-1.5 2.2-0.5 4-0.7 4.1-0.4z"/>
					</g>
				</g>
			</g>
			<g id="&lt;Group&gt;">
				<g id="&lt;Group&gt;">
					<g id="&lt;Group&gt;">
						<path id="&lt;Path&gt;" class="s4" d="m1138.7 714.7c0 0.3-2.4 0.4-5.3 0.6-2.9 0.1-5.2 0.1-5.3-0.2 0-0.3 2.3-0.9 5.3-1 3-0.1 5.4 0.3 5.3 0.6z"/>
					</g>
				</g>
			</g>
			<g id="&lt;Group&gt;">
				<g id="&lt;Group&gt;">
					<g id="&lt;Group&gt;">
						<path id="&lt;Path&gt;" class="s4" d="m1142.3 695.1c-0.2 0.3-1.9-0.8-3.8-2.4-1.9-1.7-3.3-3.2-3.1-3.4 0.2-0.2 1.9 0.9 3.8 2.5 1.9 1.6 3.3 3.1 3.1 3.3z"/>
					</g>
				</g>
			</g>
			<g id="&lt;Group&gt;">
				<g id="&lt;Group&gt;">
					<g id="&lt;Group&gt;">
						<path id="&lt;Path&gt;" class="s4" d="m1151.8 677c0.4 0.1 0.3 1.6 0.2 3.5 0 1.8 0 3.3-0.4 3.4-0.3 0-0.8-1.5-0.7-3.5 0-2 0.6-3.5 0.9-3.4z"/>
					</g>
				</g>
			</g>
			<g id="&lt;Group&gt;">
				<g id="&lt;Group&gt;">
					<g id="&lt;Group&gt;">
						<path id="&lt;Path&gt;" class="s4" d="m1171.4 685.5c0.3 0.2-0.5 1.8-1.7 3.5-1.2 1.7-2.4 3-2.7 2.8-0.2-0.2 0.5-1.7 1.8-3.5 1.2-1.7 2.3-2.9 2.6-2.8z"/>
					</g>
				</g>
			</g>
			<g id="&lt;Group&gt;">
				<g id="&lt;Group&gt;">
					<g id="&lt;Group&gt;">
						<path id="&lt;Path&gt;" class="s4" d="m1184.1 707.6c0.1 0.3-1.5 1.2-3.6 2.1-2.2 0.9-4 1.3-4.1 1-0.1-0.3 1.5-1.2 3.6-2.1 2.2-0.8 4-1.3 4.1-1z"/>
					</g>
				</g>
			</g>
			<g id="&lt;Group&gt;">
				<g id="&lt;Group&gt;">
					<g id="&lt;Group&gt;">
						<path id="&lt;Path&gt;" class="s4" d="m1191.8 730.3c0.1 0.3-2 1.5-5 2.2-2.9 0.6-5.4 0.5-5.4 0.1 0-0.3 2.3-0.6 5.2-1.3 2.8-0.6 5.1-1.3 5.2-1z"/>
					</g>
				</g>
			</g>
			<g id="&lt;Group&gt;">
				<g id="&lt;Group&gt;">
					<g id="&lt;Group&gt;">
						<path id="&lt;Path&gt;" class="s4" d="m1156.4 723.8c-0.3 0 0-1.6 0.5-3.5 0.6-1.8 1.3-3.2 1.6-3.1 0.3 0.1 0.1 1.7-0.5 3.5-0.5 1.8-1.3 3.2-1.6 3.1z"/>
					</g>
				</g>
			</g>
			<g id="&lt;Group&gt;">
				<g id="&lt;Group&gt;">
					<g id="&lt;Group&gt;">
						<path id="&lt;Path&gt;" class="s4" d="m1161.4 752.3c-0.3-0.1 0.3-2.2 1.4-4.7 1.1-2.5 2.2-4.4 2.5-4.2 0.3 0.1-0.4 2.2-1.4 4.7-1.1 2.5-2.2 4.4-2.5 4.2z"/>
					</g>
				</g>
			</g>
			<g id="&lt;Group&gt;">
				<g id="&lt;Group&gt;">
					<g id="&lt;Group&gt;">
						<path id="&lt;Path&gt;" class="s4" d="m1149.2 760.1c-0.1 0.3-2.1-0.2-4.5-1-2.4-0.7-4.4-1.4-4.3-1.7 0.1-0.3 2.2-0.1 4.6 0.6 2.5 0.8 4.3 1.8 4.2 2.1z"/>
					</g>
				</g>
			</g>
			<g id="&lt;Group&gt;">
				<g id="&lt;Group&gt;">
					<g id="&lt;Group&gt;">
						<path id="&lt;Path&gt;" class="s4" d="m1156.2 783.4c0.2 0.2-1.1 1.5-3 2.8-1.8 1.3-3.5 2.2-3.7 1.9-0.1-0.2 1.2-1.5 3-2.8 1.9-1.3 3.5-2.2 3.7-1.9z"/>
					</g>
				</g>
			</g>
			<g id="&lt;Group&gt;">
				<g id="&lt;Group&gt;">
					<g id="&lt;Group&gt;">
						<path id="&lt;Path&gt;" class="s4" d="m1161.9 806.5c0 0.3-1.6 1-3.8 1.5-2.1 0.5-3.9 0.7-3.9 0.4-0.1-0.3 1.5-1 3.7-1.5 2.1-0.5 3.9-0.7 4-0.4z"/>
					</g>
				</g>
			</g>
			<g id="&lt;Group&gt;">
				<g id="&lt;Group&gt;">
					<g id="&lt;Group&gt;">
						<path id="&lt;Path&gt;" class="s4" d="m1192.4 749.6c0.2 0.3-1.2 1.4-3.3 2.2-2.1 0.8-3.9 0.9-3.9 0.6-0.1-0.3 1.5-0.9 3.5-1.7 2-0.7 3.6-1.3 3.7-1.1z"/>
					</g>
				</g>
			</g>
			<g id="&lt;Group&gt;">
				<g id="&lt;Group&gt;">
					<g id="&lt;Group&gt;">
						<path id="&lt;Path&gt;" class="s4" d="m1196.8 785.7c-0.1 0.3-1.8-0.3-3.8-1.2-1.9-0.9-3.4-1.9-3.3-2.2 0.2-0.3 1.8 0.3 3.8 1.2 2 0.9 3.4 1.9 3.3 2.2z"/>
					</g>
				</g>
			</g>
			<g id="&lt;Group&gt;">
				<g id="&lt;Group&gt;">
					<g id="&lt;Group&gt;">
						<path id="&lt;Path&gt;" class="s4" d="m1204.5 811.4c-0.1 0.3-2.3-0.3-5-1.3-2.6-1-4.7-2.1-4.6-2.4 0.1-0.3 2.4 0.3 5 1.3 2.7 1.1 4.7 2.1 4.6 2.4z"/>
					</g>
				</g>
			</g>
			<g id="&lt;Group&gt;">
				<g id="&lt;Group&gt;">
					<g id="&lt;Group&gt;">
						<path id="&lt;Path&gt;" class="s4" d="m1163.1 831.6c-0.2-0.2 1.9-1.6 4.3-3.5 2.4-1.9 4.2-3.5 4.4-3.3 0.3 0.2-1.2 2.3-3.7 4.2-2.5 1.9-4.9 2.9-5 2.6z"/>
					</g>
				</g>
			</g>
			<g id="&lt;Group&gt;">
				<g id="&lt;Group&gt;">
					<g id="&lt;Group&gt;">
						<path id="&lt;Path&gt;" class="s4" d="m1183.5 818.5c-0.4 0.1-0.8-1.7-1.6-3.7-0.8-2-1.6-3.6-1.3-3.8 0.2-0.2 1.6 1.2 2.4 3.4 0.8 2.2 0.8 4.1 0.5 4.1z"/>
					</g>
				</g>
			</g>
			<g id="&lt;Group&gt;">
				<g id="&lt;Group&gt;">
					<g id="&lt;Group&gt;">
						<path id="&lt;Path&gt;" class="s4" d="m1178.1 787.5c-0.2 0.3-1.5-0.3-3-1.4-1.4-1-2.4-2.1-2.2-2.3 0.1-0.3 1.5 0.4 2.9 1.4 1.4 1 2.5 2.1 2.3 2.3z"/>
					</g>
				</g>
			</g>
			<g id="&lt;Group&gt;">
				<g id="&lt;Group&gt;">
					<g id="&lt;Group&gt;">
						<path id="&lt;Path&gt;" class="s4" d="m1225.6 738.9c0.2 0.3-1.1 1.6-2.9 2.9-1.8 1.3-3.3 2.1-3.5 1.9-0.2-0.3 1.1-1.6 2.8-2.9 1.8-1.3 3.4-2.1 3.6-1.9z"/>
					</g>
				</g>
			</g>
			<g id="&lt;Group&gt;">
				<g id="&lt;Group&gt;">
					<g id="&lt;Group&gt;">
						<path id="&lt;Path&gt;" class="s4" d="m1232.7 758.5c0.1 0.3-1.9 0.7-4.4 0.5-2.5-0.3-4.4-1.1-4.3-1.4 0.1-0.3 2 0 4.4 0.2 2.4 0.3 4.3 0.4 4.3 0.7z"/>
					</g>
				</g>
			</g>
			<g id="&lt;Group&gt;">
				<g id="&lt;Group&gt;">
					<g id="&lt;Group&gt;">
						<path id="&lt;Path&gt;" class="s4" d="m1202 762.9c0 0.3-1.8 1-4.2 1.1-2.4 0.2-4.4-0.2-4.3-0.5 0-0.4 1.9-0.5 4.2-0.6 2.3-0.2 4.2-0.3 4.3 0z"/>
					</g>
				</g>
			</g>
			<g id="&lt;Group&gt;">
				<g id="&lt;Group&gt;">
					<g id="&lt;Group&gt;">
						<path id="&lt;Path&gt;" class="s4" d="m1204.6 744.4c0 0.3-1.9 0.4-3.9-0.6-2.1-0.9-3.3-2.4-3.1-2.6 0.2-0.3 1.7 0.7 3.5 1.6 1.9 0.8 3.5 1.3 3.5 1.6z"/>
					</g>
				</g>
			</g>
			<g id="&lt;Group&gt;">
				<g id="&lt;Group&gt;">
					<g id="&lt;Group&gt;">
						<path id="&lt;Path&gt;" class="s4" d="m1235.4 779.5c-0.2 0.3-2.1-0.6-4.3-2-2.2-1.4-3.9-2.7-3.7-3 0.2-0.3 2.1 0.6 4.3 2 2.2 1.4 3.9 2.8 3.7 3z"/>
					</g>
				</g>
			</g>
			<g id="&lt;Group&gt;">
				<g id="&lt;Group&gt;">
					<g id="&lt;Group&gt;">
						<path id="&lt;Path&gt;" class="s5" d="m1310.5 863.6h-164.2v-29.1h164.2z"/>
					</g>
				</g>
				<g id="&lt;Group&gt;">
					<g id="&lt;Group&gt;">
						<path id="&lt;Path&gt;" class="s5" d="m1158.5 857.8l20 87h97.9l21.8-87z"/>
					</g>
				</g>
				<g id="&lt;Group&gt;">
					<g id="&lt;Group&gt;">
						<g id="&lt;Group&gt;">
							<path id="&lt;Path&gt;" class="s4" d="m1310.4 863.6c0 0.3-37 0.6-82.7 0.6-45.7 0-82.8-0.3-82.8-0.6 0-0.3 37.1-0.6 82.8-0.6 45.7 0 82.7 0.3 82.7 0.6z"/>
						</g>
					</g>
				</g>
			</g>
			<g id="&lt;Group&gt;">
				<g id="&lt;Group&gt;">
					<g id="&lt;Group&gt;">
						<path id="&lt;Path&gt;" class="s4" d="m1219.1 763.5c-0.3 0.2-1.4-1.1-2.5-2.9-1.1-1.8-1.8-3.3-1.6-3.5 0.3-0.2 1.4 1.1 2.5 2.9 1.2 1.8 1.8 3.4 1.6 3.5z"/>
					</g>
				</g>
			</g>
			<g id="&lt;Group&gt;">
				<g id="&lt;Group&gt;">
					<g id="&lt;Group&gt;">
						<path id="&lt;Path&gt;" class="s4" d="m1219.1 787c-0.3-0.1 0.1-2.1 0.9-4.5 0.8-2.3 1.6-4.1 2-4 0.3 0.1-0.1 2.1-0.9 4.4-0.8 2.3-1.7 4.2-2 4.1z"/>
					</g>
				</g>
			</g>
			<g id="&lt;Group&gt;">
				<g id="&lt;Group&gt;">
					<g id="&lt;Group&gt;">
						<path id="&lt;Path&gt;" class="s4" d="m1227.2 811.5c-0.3 0.2-1.6-1.8-2.8-4.3-1.2-2.6-2-4.8-1.7-4.9 0.3-0.2 1.5 1.8 2.8 4.4 1.2 2.5 1.9 4.7 1.7 4.8z"/>
					</g>
				</g>
			</g>
			<g id="&lt;Group&gt;">
				<g id="&lt;Group&gt;">
					<g id="&lt;Group&gt;">
						<path id="&lt;Path&gt;" class="s4" d="m1209.8 831.3c-0.2-0.2 0.7-1.7 2.2-3.4 1.4-1.6 2.8-2.8 3.1-2.6 0.2 0.2-0.8 1.7-2.2 3.4-1.5 1.7-2.9 2.8-3.1 2.6z"/>
					</g>
				</g>
			</g>
			<g id="&lt;Group&gt;">
				<g id="&lt;Group&gt;">
					<g id="&lt;Group&gt;">
						<path id="&lt;Path&gt;" class="s4" d="m1206.2 795.4c-0.1 0.3-1.7 0.3-3.6 0-1.9-0.4-3.3-0.9-3.3-1.2 0.1-0.3 1.6-0.3 3.5 0 1.9 0.4 3.4 0.9 3.4 1.2z"/>
					</g>
				</g>
			</g>
		</g>
	</g>
</svg>