<svg version="1.2" xmlns="http://www.w3.org/2000/svg" viewBox="0 0 1500 1000" width="1500" height="1000">
	<title>2968382-ai</title>
	<style>
		.s0 { fill: #f5f5f5 } 
		.s1 { fill: #e0e0e0 } 
		.s2 { fill: #ffffff } 
		.s3 { fill: #ebebeb } 
		.s4 { fill: #fafafa } 
		.s5 { fill: #263238 } 
		.s6 { fill: #455a64 } 
		.s7 { fill:  #BA68C8 } 
		.s8 { fill: #000000 } 
		.s9 { fill: #ffbe9d } 
		.s10 { fill: #eb996e } 
	</style>
	<g id="Background Complete">
		<g id="&lt;Group&gt;">
			<g id="&lt;Group&gt;">
				<g id="&lt;Group&gt;">
					<path id="&lt;Path&gt;" class="s0" d="m510.9 550.4h-325.9l24.1-232.2h328.7z"/>
				</g>
			</g>
			<g id="&lt;Group&gt;">
				<g id="&lt;Group&gt;">
					<g id="&lt;Group&gt;">
						<path id="&lt;Path&gt;" class="s1" d="m220.8 511.5c-0.3-0.1 3.1-35 7.5-78 4.5-43.1 8.3-77.9 8.6-77.9 0.3 0-3.1 34.9-7.5 78-4.5 43-8.3 77.9-8.6 77.9z"/>
					</g>
				</g>
				<g id="&lt;Group&gt;">
					<g id="&lt;Group&gt;">
						<path id="&lt;Path&gt;" class="s1" d="m280.1 363.4c0 0.2-7.3 0.5-16.3 0.5-9.1 0-16.4-0.3-16.4-0.5 0-0.3 7.3-0.6 16.4-0.6 9 0 16.3 0.3 16.3 0.6z"/>
					</g>
				</g>
				<g id="&lt;Group&gt;">
					<g id="&lt;Group&gt;">
						<path id="&lt;Path&gt;" class="s1" d="m419.4 363.4c0 0.2-29.2 0.5-65.2 0.5-36 0-65.2-0.3-65.2-0.5 0-0.3 29.2-0.6 65.2-0.6 36 0 65.2 0.3 65.2 0.6z"/>
					</g>
				</g>
				<g id="&lt;Group&gt;">
					<g id="&lt;Group&gt;">
						<path id="&lt;Path&gt;" class="s1" d="m276.3 445.9c0 0.3-7.3 0.5-16.4 0.5-9 0-16.3-0.2-16.3-0.5 0-0.3 7.3-0.6 16.3-0.6 9.1 0 16.4 0.3 16.4 0.6z"/>
					</g>
				</g>
				<g id="&lt;Group&gt;">
					<g id="&lt;Group&gt;">
						<path id="&lt;Path&gt;" class="s1" d="m415.5 445.9c0 0.3-29.2 0.5-65.2 0.5-36 0-65.1-0.2-65.1-0.5 0-0.3 29.1-0.6 65.1-0.6 36 0 65.2 0.3 65.2 0.6z"/>
					</g>
				</g>
				<g id="&lt;Group&gt;">
					<g id="&lt;Group&gt;">
						<path id="&lt;Path&gt;" class="s1" d="m371.1 483.9c0 0.3-29.2 0.5-65.2 0.5-36 0-65.1-0.2-65.1-0.5 0-0.3 29.1-0.5 65.1-0.5 36 0 65.2 0.2 65.2 0.5z"/>
					</g>
				</g>
				<g id="&lt;Group&gt;">
					<g id="&lt;Group&gt;">
						<path id="&lt;Path&gt;" class="s1" d="m294.6 386.6c0 0.3-10.3 0.6-23.1 0.6-12.7 0-23-0.3-23-0.6 0-0.2 10.3-0.5 23-0.5 12.8 0 23.1 0.3 23.1 0.5z"/>
					</g>
				</g>
				<g id="&lt;Group&gt;">
					<g id="&lt;Group&gt;">
						<path id="&lt;Path&gt;" class="s1" d="m293.4 420.8c0 0.3-10.3 0.5-23 0.5-12.7 0-23-0.2-23-0.5 0-0.3 10.3-0.5 23-0.5 12.7 0 23 0.2 23 0.5z"/>
					</g>
				</g>
				<g id="&lt;Group&gt;">
					<g id="&lt;Group&gt;">
						<path id="&lt;Path&gt;" class="s1" d="m332.3 469.6c0 0.3-10.3 0.5-23 0.5-12.7 0-23-0.2-23-0.5 0-0.3 10.3-0.5 23-0.5 12.7 0 23 0.2 23 0.5z"/>
					</g>
				</g>
				<g id="&lt;Group&gt;">
					<g id="&lt;Group&gt;">
						<path id="&lt;Path&gt;" class="s1" d="m462 386.6c0 0.3-26.3 0.6-58.8 0.6-32.4 0-58.8-0.3-58.8-0.6 0-0.2 26.4-0.5 58.8-0.5 32.5 0 58.8 0.3 58.8 0.5z"/>
					</g>
				</g>
				<g id="&lt;Group&gt;">
					<g id="&lt;Group&gt;">
						<path id="&lt;Path&gt;" class="s1" d="m425.7 422.8c0 0.3-26.3 0.5-58.8 0.5-32.4 0-58.8-0.2-58.8-0.5 0-0.3 26.4-0.5 58.8-0.5 32.5 0 58.8 0.2 58.8 0.5z"/>
					</g>
				</g>
				<g id="&lt;Group&gt;">
					<g id="&lt;Group&gt;">
						<path id="&lt;Path&gt;" class="s1" d="m466.2 469.6c0 0.3-26.3 0.5-58.8 0.5-32.5 0-58.8-0.2-58.8-0.5 0-0.3 26.3-0.5 58.8-0.5 32.5 0 58.8 0.2 58.8 0.5z"/>
					</g>
				</g>
				<g id="&lt;Group&gt;">
					<g id="&lt;Group&gt;">
						<path id="&lt;Path&gt;" class="s1" d="m358.8 511.5c0 0.2-26.3 0.5-58.8 0.5-32.5 0-58.8-0.3-58.8-0.5 0-0.3 26.3-0.6 58.8-0.6 32.5 0 58.8 0.3 58.8 0.6z"/>
					</g>
				</g>
				<g id="&lt;Group&gt;">
					<g id="&lt;Group&gt;">
						<path id="&lt;Path&gt;" class="s1" d="m488.9 511.5c0 0.2-26.3 0.5-58.8 0.5-32.5 0-58.8-0.3-58.8-0.5 0-0.3 26.3-0.6 58.8-0.6 32.5 0 58.8 0.3 58.8 0.6z"/>
					</g>
				</g>
				<g id="&lt;Group&gt;">
					<g id="&lt;Group&gt;">
						<path id="&lt;Path&gt;" class="s1" d="m358.8 525.1c0 0.3-26.3 0.5-58.8 0.5-32.5 0-58.8-0.2-58.8-0.5 0-0.3 26.3-0.6 58.8-0.6 32.5 0 58.8 0.3 58.8 0.6z"/>
					</g>
				</g>
				<g id="&lt;Group&gt;">
					<g id="&lt;Group&gt;">
						<path id="&lt;Path&gt;" class="s1" d="m364.5 396.5c0 0.2-26.3 0.5-58.8 0.5-32.4 0-58.8-0.3-58.8-0.5 0-0.3 26.4-0.6 58.8-0.6 32.5 0 58.8 0.3 58.8 0.6z"/>
					</g>
				</g>
				<g id="&lt;Group&gt;">
					<g id="&lt;Group&gt;">
						<path id="&lt;Path&gt;" class="s1" d="m333.2 386.8c0 0.3-6.8 0.5-15.2 0.5-8.3 0-15.1-0.2-15.1-0.5 0-0.3 6.8-0.5 15.1-0.5 8.4 0 15.2 0.2 15.2 0.5z"/>
					</g>
				</g>
				<g id="&lt;Group&gt;">
					<g id="&lt;Group&gt;">
						<path id="&lt;Path&gt;" class="s1" d="m272.4 457.1c0 0.3-6.7 0.5-15.1 0.5-8.4 0-15.2-0.2-15.2-0.5 0-0.3 6.8-0.5 15.2-0.5 8.4 0 15.1 0.2 15.1 0.5z"/>
					</g>
				</g>
				<g id="&lt;Group&gt;">
					<g id="&lt;Group&gt;">
						<path id="&lt;Path&gt;" class="s1" d="m271.7 469.6c0 0.3-6.8 0.5-15.1 0.5-8.4 0-15.2-0.2-15.2-0.5 0-0.3 6.8-0.5 15.2-0.5 8.3 0 15.1 0.2 15.1 0.5z"/>
					</g>
				</g>
				<g id="&lt;Group&gt;">
					<g id="&lt;Group&gt;">
						<path id="&lt;Path&gt;" class="s1" d="m534.2 342.8c0 0.3-73.3 0.5-163.7 0.5-90.5 0-163.8-0.2-163.8-0.5 0-0.3 73.3-0.5 163.8-0.5 90.4 0 163.7 0.2 163.7 0.5z"/>
					</g>
				</g>
				<g id="&lt;Group&gt;">
					<path id="&lt;Path&gt;" class="s2" d="m232.7 331.7c0 2.2-1.7 3.9-3.9 3.9-2.1 0-3.8-1.7-3.8-3.9 0-2.1 1.7-3.9 3.8-3.9 2.2 0 3.9 1.8 3.9 3.9z"/>
				</g>
				<g id="&lt;Group&gt;">
					<path id="&lt;Path&gt;" class="s2" d="m249.4 331.7c0 2.2-1.8 3.9-3.9 3.9-2.1 0-3.9-1.7-3.9-3.9 0-2.1 1.8-3.9 3.9-3.9 2.1 0 3.9 1.8 3.9 3.9z"/>
				</g>
				<g id="&lt;Group&gt;">
					<path id="&lt;Path&gt;" class="s2" d="m266 331.7c0 2.2-1.7 3.9-3.8 3.9-2.2 0-3.9-1.7-3.9-3.9 0-2.1 1.7-3.9 3.9-3.9 2.1 0 3.8 1.8 3.8 3.9z"/>
				</g>
			</g>
		</g>
		<g id="&lt;Group&gt;">
			<g id="&lt;Group&gt;">
				<g id="&lt;Group&gt;">
					<path id="&lt;Path&gt;" class="s0" d="m1357.3 434.3h-325.9l24-232.2h328.8z"/>
				</g>
			</g>
			<g id="&lt;Group&gt;">
				<g id="&lt;Group&gt;">
					<g id="&lt;Group&gt;">
						<path id="&lt;Path&gt;" class="s1" d="m1067.2 395.4c-0.3-0.1 3.1-35 7.5-78 4.4-43.1 8.3-77.9 8.6-77.9 0.3 0-3.1 34.9-7.6 78-4.4 43-8.2 77.9-8.5 77.9z"/>
					</g>
				</g>
				<g id="&lt;Group&gt;">
					<g id="&lt;Group&gt;">
						<path id="&lt;Path&gt;" class="s1" d="m1126.5 247.3c0 0.2-7.3 0.5-16.3 0.5-9.1 0-16.4-0.3-16.4-0.5 0-0.3 7.3-0.6 16.4-0.6 9 0 16.3 0.3 16.3 0.6z"/>
					</g>
				</g>
				<g id="&lt;Group&gt;">
					<g id="&lt;Group&gt;">
						<path id="&lt;Path&gt;" class="s1" d="m1265.8 247.3c0 0.2-29.2 0.5-65.2 0.5-36 0-65.2-0.3-65.2-0.5 0-0.3 29.2-0.6 65.2-0.6 36 0 65.2 0.3 65.2 0.6z"/>
					</g>
				</g>
				<g id="&lt;Group&gt;">
					<g id="&lt;Group&gt;">
						<path id="&lt;Path&gt;" class="s1" d="m1122.7 329.8c0 0.3-7.4 0.5-16.4 0.5-9 0-16.4-0.2-16.4-0.5 0-0.3 7.4-0.5 16.4-0.5 9 0 16.4 0.2 16.4 0.5z"/>
					</g>
				</g>
				<g id="&lt;Group&gt;">
					<g id="&lt;Group&gt;">
						<path id="&lt;Path&gt;" class="s1" d="m1261.9 329.8c0 0.3-29.2 0.5-65.2 0.5-36 0-65.2-0.2-65.2-0.5 0-0.3 29.2-0.5 65.2-0.5 36 0 65.2 0.2 65.2 0.5z"/>
					</g>
				</g>
				<g id="&lt;Group&gt;">
					<g id="&lt;Group&gt;">
						<path id="&lt;Path&gt;" class="s1" d="m1217.5 367.8c0 0.3-29.2 0.5-65.2 0.5-36 0-65.2-0.2-65.2-0.5 0-0.3 29.2-0.5 65.2-0.5 36 0 65.2 0.2 65.2 0.5z"/>
					</g>
				</g>
				<g id="&lt;Group&gt;">
					<g id="&lt;Group&gt;">
						<path id="&lt;Path&gt;" class="s1" d="m1141 270.6c0 0.2-10.4 0.5-23.1 0.5-12.7 0-23-0.3-23-0.5 0-0.3 10.3-0.6 23-0.6 12.7 0 23.1 0.3 23.1 0.6z"/>
					</g>
				</g>
				<g id="&lt;Group&gt;">
					<g id="&lt;Group&gt;">
						<path id="&lt;Path&gt;" class="s1" d="m1139.8 304.7c0 0.3-10.3 0.5-23 0.5-12.8 0-23.1-0.2-23.1-0.5 0-0.3 10.3-0.5 23.1-0.5 12.7 0 23 0.2 23 0.5z"/>
					</g>
				</g>
				<g id="&lt;Group&gt;">
					<g id="&lt;Group&gt;">
						<path id="&lt;Path&gt;" class="s1" d="m1178.7 353.5c0 0.3-10.3 0.5-23 0.5-12.7 0-23-0.2-23-0.5 0-0.3 10.3-0.5 23-0.5 12.7 0 23 0.2 23 0.5z"/>
					</g>
				</g>
				<g id="&lt;Group&gt;">
					<g id="&lt;Group&gt;">
						<path id="&lt;Path&gt;" class="s1" d="m1308.4 270.6c0 0.2-26.3 0.5-58.8 0.5-32.5 0-58.8-0.3-58.8-0.5 0-0.3 26.3-0.6 58.8-0.6 32.5 0 58.8 0.3 58.8 0.6z"/>
					</g>
				</g>
				<g id="&lt;Group&gt;">
					<g id="&lt;Group&gt;">
						<path id="&lt;Path&gt;" class="s1" d="m1272.1 306.7c0 0.3-26.3 0.5-58.8 0.5-32.5 0-58.8-0.2-58.8-0.5 0-0.3 26.3-0.5 58.8-0.5 32.5 0 58.8 0.2 58.8 0.5z"/>
					</g>
				</g>
				<g id="&lt;Group&gt;">
					<g id="&lt;Group&gt;">
						<path id="&lt;Path&gt;" class="s1" d="m1312.6 353.5c0 0.3-26.3 0.5-58.8 0.5-32.5 0-58.8-0.2-58.8-0.5 0-0.3 26.3-0.5 58.8-0.5 32.5 0 58.8 0.2 58.8 0.5z"/>
					</g>
				</g>
				<g id="&lt;Group&gt;">
					<g id="&lt;Group&gt;">
						<path id="&lt;Path&gt;" class="s1" d="m1205.2 395.4c0 0.2-26.3 0.5-58.8 0.5-32.5 0-58.8-0.3-58.8-0.5 0-0.3 26.3-0.6 58.8-0.6 32.5 0 58.8 0.3 58.8 0.6z"/>
					</g>
				</g>
				<g id="&lt;Group&gt;">
					<g id="&lt;Group&gt;">
						<path id="&lt;Path&gt;" class="s1" d="m1335.3 395.4c0 0.2-26.3 0.5-58.8 0.5-32.5 0-58.8-0.3-58.8-0.5 0-0.3 26.3-0.6 58.8-0.6 32.5 0 58.8 0.3 58.8 0.6z"/>
					</g>
				</g>
				<g id="&lt;Group&gt;">
					<g id="&lt;Group&gt;">
						<path id="&lt;Path&gt;" class="s1" d="m1205.2 409c0 0.3-26.3 0.5-58.8 0.5-32.5 0-58.8-0.2-58.8-0.5 0-0.3 26.3-0.6 58.8-0.6 32.5 0 58.8 0.3 58.8 0.6z"/>
					</g>
				</g>
				<g id="&lt;Group&gt;">
					<g id="&lt;Group&gt;">
						<path id="&lt;Path&gt;" class="s1" d="m1210.9 280.4c0 0.2-26.3 0.5-58.8 0.5-32.5 0-58.8-0.3-58.8-0.5 0-0.3 26.3-0.6 58.8-0.6 32.5 0 58.8 0.3 58.8 0.6z"/>
					</g>
				</g>
				<g id="&lt;Group&gt;">
					<g id="&lt;Group&gt;">
						<path id="&lt;Path&gt;" class="s1" d="m1179.6 270.7c0 0.3-6.8 0.5-15.2 0.5-8.3 0-15.1-0.2-15.1-0.5 0-0.3 6.8-0.5 15.1-0.5 8.4 0 15.2 0.2 15.2 0.5z"/>
					</g>
				</g>
				<g id="&lt;Group&gt;">
					<g id="&lt;Group&gt;">
						<path id="&lt;Path&gt;" class="s1" d="m1118.8 341c0 0.3-6.8 0.5-15.1 0.5-8.4 0-15.2-0.2-15.2-0.5 0-0.3 6.8-0.5 15.2-0.5 8.3 0 15.1 0.2 15.1 0.5z"/>
					</g>
				</g>
				<g id="&lt;Group&gt;">
					<g id="&lt;Group&gt;">
						<path id="&lt;Path&gt;" class="s1" d="m1118.1 353.5c0 0.3-6.8 0.5-15.1 0.5-8.4 0-15.2-0.2-15.2-0.5 0-0.3 6.8-0.5 15.2-0.5 8.3 0 15.1 0.2 15.1 0.5z"/>
					</g>
				</g>
				<g id="&lt;Group&gt;">
					<g id="&lt;Group&gt;">
						<path id="&lt;Path&gt;" class="s1" d="m1380.6 226.7c0 0.3-73.3 0.5-163.7 0.5-90.5 0-163.8-0.2-163.8-0.5 0-0.3 73.3-0.5 163.8-0.5 90.4 0 163.7 0.2 163.7 0.5z"/>
					</g>
				</g>
				<g id="&lt;Group&gt;">
					<path id="&lt;Path&gt;" class="s2" d="m1079.1 215.6c0 2.2-1.7 3.9-3.9 3.9-2.1 0-3.9-1.7-3.9-3.9 0-2.1 1.8-3.9 3.9-3.9 2.2 0 3.9 1.8 3.9 3.9z"/>
				</g>
				<g id="&lt;Group&gt;">
					<path id="&lt;Path&gt;" class="s2" d="m1095.8 215.6c0 2.2-1.8 3.9-3.9 3.9-2.2 0-3.9-1.7-3.9-3.9 0-2.1 1.7-3.9 3.9-3.9 2.1 0 3.9 1.8 3.9 3.9z"/>
				</g>
				<g id="&lt;Group&gt;">
					<path id="&lt;Path&gt;" class="s2" d="m1112.4 215.6c0 2.2-1.7 3.9-3.9 3.9-2.1 0-3.8-1.7-3.8-3.9 0-2.1 1.7-3.9 3.8-3.9 2.2 0 3.9 1.8 3.9 3.9z"/>
				</g>
			</g>
		</g>
		<g id="&lt;Group&gt;">
			<g id="&lt;Group&gt;">
				<g id="&lt;Group&gt;">
					<path id="&lt;Path&gt;" class="s3" d="m673.6 282.7h-203l15-144.6h204.8z"/>
				</g>
			</g>
			<g id="&lt;Group&gt;">
				<g id="&lt;Group&gt;">
					<g id="&lt;Group&gt;">
						<path id="&lt;Path&gt;" class="s1" d="m492.9 258.4c-0.2 0 1.8-21.7 4.5-48.5 2.8-26.9 5.3-48.6 5.6-48.5 0.2 0-1.8 21.8-4.5 48.6-2.8 26.8-5.3 48.5-5.6 48.4z"/>
					</g>
				</g>
				<g id="&lt;Group&gt;">
					<g id="&lt;Group&gt;">
						<path id="&lt;Path&gt;" class="s1" d="m529.9 166.2c0 0.3-4.6 0.5-10.2 0.5-5.6 0-10.2-0.2-10.2-0.5 0-0.3 4.6-0.5 10.2-0.5 5.6 0 10.2 0.2 10.2 0.5z"/>
					</g>
				</g>
				<g id="&lt;Group&gt;">
					<g id="&lt;Group&gt;">
						<path id="&lt;Path&gt;" class="s1" d="m616.6 166.2c0 0.3-18.2 0.5-40.6 0.5-22.4 0-40.6-0.2-40.6-0.5 0-0.3 18.2-0.5 40.6-0.5 22.4 0 40.6 0.2 40.6 0.5z"/>
					</g>
				</g>
				<g id="&lt;Group&gt;">
					<g id="&lt;Group&gt;">
						<path id="&lt;Path&gt;" class="s1" d="m527.5 217.6c0 0.3-4.6 0.5-10.2 0.5-5.6 0-10.2-0.2-10.2-0.5 0-0.3 4.6-0.5 10.2-0.5 5.6 0 10.2 0.2 10.2 0.5z"/>
					</g>
				</g>
				<g id="&lt;Group&gt;">
					<g id="&lt;Group&gt;">
						<path id="&lt;Path&gt;" class="s1" d="m614.2 217.6c0 0.3-18.2 0.5-40.6 0.5-22.4 0-40.6-0.2-40.6-0.5 0-0.3 18.2-0.5 40.6-0.5 22.4 0 40.6 0.2 40.6 0.5z"/>
					</g>
				</g>
				<g id="&lt;Group&gt;">
					<g id="&lt;Group&gt;">
						<path id="&lt;Path&gt;" class="s1" d="m586.6 241.3c0 0.3-18.2 0.5-40.6 0.5-22.5 0-40.6-0.2-40.6-0.5 0-0.3 18.1-0.5 40.6-0.5 22.4 0 40.6 0.2 40.6 0.5z"/>
					</g>
				</g>
				<g id="&lt;Group&gt;">
					<g id="&lt;Group&gt;">
						<path id="&lt;Path&gt;" class="s1" d="m538.9 180.7c0 0.3-6.4 0.5-14.4 0.5-7.9 0-14.3-0.2-14.3-0.5 0-0.3 6.4-0.5 14.3-0.5 8 0 14.4 0.2 14.4 0.5z"/>
					</g>
				</g>
				<g id="&lt;Group&gt;">
					<g id="&lt;Group&gt;">
						<path id="&lt;Path&gt;" class="s1" d="m538.2 202c0 0.3-6.5 0.5-14.4 0.5-7.9 0-14.3-0.2-14.3-0.5 0-0.3 6.4-0.5 14.3-0.5 7.9 0 14.4 0.2 14.4 0.5z"/>
					</g>
				</g>
				<g id="&lt;Group&gt;">
					<g id="&lt;Group&gt;">
						<path id="&lt;Path&gt;" class="s1" d="m562.4 232.4c0 0.3-6.4 0.5-14.3 0.5-8 0-14.4-0.2-14.4-0.5 0-0.3 6.4-0.5 14.4-0.5 7.9 0 14.3 0.2 14.3 0.5z"/>
					</g>
				</g>
				<g id="&lt;Group&gt;">
					<g id="&lt;Group&gt;">
						<path id="&lt;Path&gt;" class="s1" d="m643.2 180.7c0 0.3-16.4 0.5-36.6 0.5-20.3 0-36.7-0.2-36.7-0.5 0-0.3 16.4-0.5 36.7-0.5 20.2 0 36.6 0.2 36.6 0.5z"/>
					</g>
				</g>
				<g id="&lt;Group&gt;">
					<g id="&lt;Group&gt;">
						<path id="&lt;Path&gt;" class="s1" d="m620.6 203.2c0 0.3-16.4 0.5-36.6 0.5-20.3 0-36.7-0.2-36.7-0.5 0-0.3 16.4-0.5 36.7-0.5 20.2 0 36.6 0.2 36.6 0.5z"/>
					</g>
				</g>
				<g id="&lt;Group&gt;">
					<g id="&lt;Group&gt;">
						<path id="&lt;Path&gt;" class="s1" d="m645.8 232.4c0 0.3-16.4 0.5-36.6 0.5-20.3 0-36.7-0.2-36.7-0.5 0-0.3 16.4-0.5 36.7-0.5 20.2 0 36.6 0.2 36.6 0.5z"/>
					</g>
				</g>
				<g id="&lt;Group&gt;">
					<g id="&lt;Group&gt;">
						<path id="&lt;Path&gt;" class="s1" d="m578.9 258.4c0 0.3-16.4 0.6-36.6 0.6-20.2 0-36.6-0.3-36.6-0.6 0-0.2 16.4-0.5 36.6-0.5 20.2 0 36.6 0.3 36.6 0.5z"/>
					</g>
				</g>
				<g id="&lt;Group&gt;">
					<g id="&lt;Group&gt;">
						<path id="&lt;Path&gt;" class="s1" d="m659.9 258.4c0 0.3-16.4 0.6-36.6 0.6-20.2 0-36.6-0.3-36.6-0.6 0-0.2 16.4-0.5 36.6-0.5 20.2 0 36.6 0.3 36.6 0.5z"/>
					</g>
				</g>
				<g id="&lt;Group&gt;">
					<g id="&lt;Group&gt;">
						<path id="&lt;Path&gt;" class="s1" d="m578.9 266.9c0 0.3-16.4 0.5-36.6 0.5-20.3 0-36.6-0.2-36.6-0.5 0-0.3 16.3-0.5 36.6-0.5 20.2 0 36.6 0.2 36.6 0.5z"/>
					</g>
				</g>
				<g id="&lt;Group&gt;">
					<g id="&lt;Group&gt;">
						<path id="&lt;Path&gt;" class="s1" d="m582.5 186.8c0 0.3-16.4 0.5-36.7 0.5-20.2 0-36.6-0.2-36.6-0.5 0-0.3 16.4-0.5 36.6-0.5 20.3 0 36.7 0.2 36.7 0.5z"/>
					</g>
				</g>
				<g id="&lt;Group&gt;">
					<g id="&lt;Group&gt;">
						<path id="&lt;Path&gt;" class="s1" d="m562.9 180.8c0 0.3-4.2 0.5-9.4 0.5-5.2 0-9.4-0.2-9.4-0.5 0-0.3 4.2-0.5 9.4-0.5 5.2 0 9.4 0.2 9.4 0.5z"/>
					</g>
				</g>
				<g id="&lt;Group&gt;">
					<g id="&lt;Group&gt;">
						<path id="&lt;Path&gt;" class="s1" d="m525.1 224.6c0 0.3-4.2 0.5-9.4 0.5-5.2 0-9.5-0.2-9.5-0.5 0-0.3 4.3-0.5 9.5-0.5 5.2 0 9.4 0.2 9.4 0.5z"/>
					</g>
				</g>
				<g id="&lt;Group&gt;">
					<g id="&lt;Group&gt;">
						<path id="&lt;Path&gt;" class="s1" d="m524.7 232.4c0 0.3-4.3 0.5-9.5 0.5-5.2 0-9.4-0.2-9.4-0.5 0-0.3 4.2-0.5 9.4-0.5 5.2 0 9.5 0.2 9.5 0.5z"/>
					</g>
				</g>
				<g id="&lt;Group&gt;">
					<g id="&lt;Group&gt;">
						<path id="&lt;Path&gt;" class="s1" d="m688.1 153.4c0 0.3-45.6 0.5-101.9 0.5-56.4 0-102-0.2-102-0.5 0-0.3 45.6-0.5 102-0.5 56.3 0 101.9 0.2 101.9 0.5z"/>
					</g>
				</g>
				<g id="&lt;Group&gt;">
					<path id="&lt;Path&gt;" class="s2" d="m500.4 146.5c0 1.3-1.1 2.4-2.5 2.4-1.3 0-2.4-1.1-2.4-2.4 0-1.3 1.1-2.4 2.4-2.4 1.4 0 2.5 1.1 2.5 2.4z"/>
				</g>
				<g id="&lt;Group&gt;">
					<path id="&lt;Path&gt;" class="s2" d="m510.7 146.5c0 1.3-1 2.4-2.4 2.4-1.3 0-2.4-1.1-2.4-2.4 0-1.3 1.1-2.4 2.4-2.4 1.4 0 2.4 1.1 2.4 2.4z"/>
				</g>
				<g id="&lt;Group&gt;">
					<path id="&lt;Path&gt;" class="s2" d="m521.1 146.5c0 1.3-1.1 2.4-2.4 2.4-1.3 0-2.4-1.1-2.4-2.4 0-1.3 1.1-2.4 2.4-2.4 1.3 0 2.4 1.1 2.4 2.4z"/>
				</g>
			</g>
		</g>
		<g id="&lt;Group&gt;">
			<g id="&lt;Group&gt;">
				<g id="&lt;Group&gt;">
					<g id="&lt;Group&gt;">
						<g id="&lt;Group&gt;">
							<path id="&lt;Path&gt;" class="s3" d="m1225.4 866h-102.2v-330.9h102.2z"/>
						</g>
					</g>
				</g>
				<g id="&lt;Group&gt;">
					<g id="&lt;Group&gt;">
						<g id="&lt;Group&gt;">
							<path id="&lt;Path&gt;" class="s1" d="m1312.2 866h-86.8v-330.8h86.8z"/>
						</g>
					</g>
				</g>
				<g id="&lt;Group&gt;">
					<g id="&lt;Group&gt;">
						<g id="&lt;Group&gt;">
							<path id="&lt;Path&gt;" class="s1" d="m1213.2 619.8h-82.1v-71.3h82.1z"/>
						</g>
					</g>
				</g>
				<g id="&lt;Group&gt;">
					<g id="&lt;Group&gt;">
						<g id="&lt;Group&gt;">
							<path id="&lt;Path&gt;" class="s1" d="m1213.2 699.1h-82.1v-71.2h82.1z"/>
						</g>
					</g>
				</g>
				<g id="&lt;Group&gt;">
					<g id="&lt;Group&gt;">
						<g id="&lt;Group&gt;">
							<path id="&lt;Path&gt;" class="s1" d="m1213.2 778.5h-82.1v-71.3h82.1z"/>
						</g>
					</g>
				</g>
				<g id="&lt;Group&gt;">
					<g id="&lt;Group&gt;">
						<g id="&lt;Group&gt;">
							<path id="&lt;Path&gt;" class="s1" d="m1213.2 857.9h-82.1v-71.3h82.1z"/>
						</g>
					</g>
				</g>
				<g id="&lt;Group&gt;">
					<g id="&lt;Group&gt;">
						<g id="&lt;Group&gt;">
							<path id="&lt;Path&gt;" class="s4" d="m1172.2 561.7c0 1.5-1.3 2.8-2.9 2.8-1.6 0-2.8-1.3-2.8-2.8 0-1.6 1.2-2.9 2.8-2.9 1.6 0 2.9 1.3 2.9 2.9z"/>
						</g>
					</g>
				</g>
				<g id="&lt;Group&gt;">
					<g id="&lt;Group&gt;">
						<g id="&lt;Group&gt;">
							<path id="&lt;Path&gt;" class="s4" d="m1172.2 641.9c0 1.6-1.3 2.9-2.9 2.9-1.6 0-2.8-1.3-2.8-2.9 0-1.5 1.2-2.8 2.8-2.8 1.6 0 2.9 1.3 2.9 2.8z"/>
						</g>
					</g>
				</g>
				<g id="&lt;Group&gt;">
					<g id="&lt;Group&gt;">
						<g id="&lt;Group&gt;">
							<path id="&lt;Path&gt;" class="s4" d="m1172.2 722.2c0 1.6-1.3 2.9-2.9 2.9-1.6 0-2.8-1.3-2.8-2.9 0-1.5 1.2-2.8 2.8-2.8 1.6 0 2.9 1.3 2.9 2.8z"/>
						</g>
					</g>
				</g>
				<g id="&lt;Group&gt;">
					<g id="&lt;Group&gt;">
						<g id="&lt;Group&gt;">
							<path id="&lt;Path&gt;" class="s4" d="m1172.2 802.5c0 1.6-1.3 2.9-2.9 2.9-1.6 0-2.8-1.3-2.8-2.9 0-1.5 1.2-2.8 2.8-2.8 1.6 0 2.9 1.3 2.9 2.8z"/>
						</g>
					</g>
				</g>
			</g>
			<g id="&lt;Group&gt;">
				<g id="&lt;Group&gt;">
					<path id="&lt;Path&gt;" class="s1" d="m1135 932.4h-11.8v-66.4h11.8z"/>
				</g>
			</g>
			<g id="&lt;Group&gt;">
				<g id="&lt;Group&gt;">
					<path id="&lt;Path&gt;" class="s1" d="m1225 932.4h-11.8v-66.4h11.8z"/>
				</g>
			</g>
			<g id="&lt;Group&gt;">
				<g id="&lt;Group&gt;">
					<path id="&lt;Path&gt;" class="s1" d="m1310.9 932.4h-11.8v-66.4h11.8z"/>
				</g>
			</g>
		</g>
		<g id="&lt;Group&gt;">
			<g id="&lt;Group&gt;">
				<path id="&lt;Path&gt;" class="s0" d="m264.3 913.7c-3-2.6-9.8-10.8-4.6-20.4 1.9-3.4 6-5.2 9.7-6.7 3.6-1.6 7.5-2.9 10.5-5.5 5.8-4.8 7.3-12.9 11.1-19.4 4.4-7.4 12.6-13 21.2-12.6 9.9 0.5 18.1 8.5 21.8 17.6 3.8 9.2 3.9 19.3 4 29.2 0 5.5-0.2 11.6-4.3 15.3-3.7 3.4-9.3 3.5-14.3 3.3q-27-0.8-53.9-1.6"/>
			</g>
			<g id="&lt;Group&gt;">
				<g id="&lt;Group&gt;">
					<path id="&lt;Compound Path&gt;" fill-rule="evenodd" class="s1" d="m367.3 766.8l-4.8 41.4-0.5 4.2-12.4 104.4c-0.9 7.8-6.8 13.7-14.3 14.9q-1.7 0.3-3.5 0.3c0 0-63.2 0-63.2 0l-0.7 0.1q0-0.1 0-0.1-1.5-0.1-2.9-0.4c-0.4 0-0.8-0.2-1.2-0.3q-0.3 0-0.5-0.1c-6.2-1.8-11-6.9-12.1-13.5l-25.6-151.6h141.8zm-22.9 51.9h-16.8l-1.5 44h14.6zm-2.4 44h12.5l5.2-44h-13.9zm-19 48.8l1.2-38.3h-20.9l0.9 38.3zm-38.5 0h18.3l-0.9-38.3h-20.4zm-4.4-38.2h-20.1c2.3 14.5 4.4 27.9 6 38.2h17.1zm21.5-10.5l-1-44h-23.3l3.4 44zm23 0l1.4-44h-24l1 44zm1.8-54.6l1.4-40.7h-27l1 40.7zm-27-40.7h-26.2l3.2 40.7h23.9zm-27.6 0h-28.8c0.5 2.4 1.5 8.6 4.2 25 0.8 4.8 1.6 10.2 2.5 15.8h25.3zm-20.4 51.3c1.5 9.7 3.1 20.1 4.8 30.5q1.1 6.8 2.1 13.5h21l-3.5-44zm-1.4 0h-14.1l7.4 44h13.7c-2.4-15.3-4.8-30.4-7-44zm-4.9 54.6l6.4 38.2h13.2c-1.9-12-4-25-6.1-38.2zm91.4 38.2l3.3-38.2h-14l-1.3 38.2zm8.9-103.4l3.5-40.7h-19.6l-1.3 40.7zm-118.1-40.7l6.9 40.7h14.2c-3.5-21.7-6.1-37.8-6.6-40.7zm126.1 105.9h-12.2l-3.3 38.2h11zm12.4-105.9h-15.5l-3.5 40.8h14.2z"/>
				</g>
			</g>
		</g>
	</g>
	<g id="Floor">
		<g id="&lt;Group&gt;">
			<g id="&lt;Group&gt;">
				<path id="&lt;Path&gt;" class="s5" d="m1302.1 932.4c0 0.3-258.9 0.5-578.1 0.5-319.3 0-578.1-0.2-578.1-0.5 0-0.3 258.8-0.5 578.1-0.5 319.2 0 578.1 0.2 578.1 0.5z"/>
			</g>
		</g>
	</g>
	<g id="Screens">
		<g id="&lt;Group&gt;">
			<g id="&lt;Group&gt;">
				<g id="&lt;Group&gt;">
					<path id="&lt;Path&gt;" class="s5" d="m792.4 499.8h-221.8l16.4-158h223.6z"/>
				</g>
				<g id="&lt;Group&gt;">
					<path id="&lt;Path&gt;" class="s6" d="m781.1 499.8h-221.8l16.4-158h223.6z"/>
				</g>
				<g id="&lt;Group&gt;">
					<path id="&lt;Path&gt;" class="s0" d="m772.8 492.6h-205.8l15.2-146.6h207.6z"/>
				</g>
			</g>
			<g id="&lt;Group&gt;">
				<g id="&lt;Group&gt;">
					<g id="&lt;Group&gt;">
						<path id="&lt;Path&gt;" class="s5" d="m589.3 468.2c-0.3-0.1 1.8-22.1 4.6-49.3 2.8-27.2 5.3-49.2 5.6-49.2 0.3 0.1-1.8 22.1-4.6 49.3-2.8 27.2-5.3 49.2-5.6 49.2z"/>
					</g>
				</g>
				<g id="&lt;Group&gt;">
					<g id="&lt;Group&gt;">
						<path id="&lt;Path&gt;" class="s5" d="m626.8 374.6c0 0.3-4.6 0.6-10.3 0.6-5.7 0-10.4-0.3-10.4-0.6 0-0.2 4.7-0.5 10.4-0.5 5.7 0 10.3 0.3 10.3 0.5z"/>
					</g>
				</g>
				<g id="&lt;Group&gt;">
					<g id="&lt;Group&gt;">
						<path id="&lt;Path&gt;" class="s7" d="m714.7 374.6c0 0.3-18.4 0.6-41.1 0.6-22.8 0-41.2-0.3-41.2-0.6 0-0.2 18.4-0.5 41.2-0.5 22.7 0 41.1 0.3 41.1 0.5z"/>
					</g>
				</g>
				<g id="&lt;Group&gt;">
					<g id="&lt;Group&gt;">
						<path id="&lt;Path&gt;" class="s5" d="m624.4 426.7c0 0.3-4.7 0.6-10.4 0.6-5.7 0-10.3-0.3-10.3-0.6 0-0.2 4.6-0.5 10.3-0.5 5.7 0 10.4 0.3 10.4 0.5z"/>
					</g>
				</g>
				<g id="&lt;Group&gt;">
					<g id="&lt;Group&gt;">
						<path id="&lt;Path&gt;" class="s7" d="m712.3 426.7c0 0.3-18.4 0.6-41.2 0.6-22.7 0-41.1-0.3-41.1-0.6 0-0.2 18.4-0.5 41.1-0.5 22.8 0 41.2 0.3 41.2 0.5z"/>
					</g>
				</g>
				<g id="&lt;Group&gt;">
					<g id="&lt;Group&gt;">
						<path id="&lt;Path&gt;" class="s7" d="m684.2 450.8c0 0.2-18.4 0.5-41.1 0.5-22.7 0-41.2-0.3-41.2-0.5 0-0.3 18.5-0.6 41.2-0.6 22.7 0 41.1 0.3 41.1 0.6z"/>
					</g>
				</g>
				<g id="&lt;Group&gt;">
					<g id="&lt;Group&gt;">
						<path id="&lt;Path&gt;" class="s7" d="m635.9 389.3c0 0.3-6.5 0.6-14.5 0.6-8 0-14.6-0.3-14.6-0.6 0-0.2 6.6-0.5 14.6-0.5 8 0 14.5 0.3 14.5 0.5z"/>
					</g>
				</g>
				<g id="&lt;Group&gt;">
					<g id="&lt;Group&gt;">
						<path id="&lt;Path&gt;" class="s7" d="m635.2 410.9c0 0.3-6.5 0.5-14.6 0.5-8 0-14.5-0.2-14.5-0.5 0-0.3 6.5-0.5 14.5-0.5 8.1 0 14.6 0.2 14.6 0.5z"/>
					</g>
				</g>
				<g id="&lt;Group&gt;">
					<g id="&lt;Group&gt;">
						<path id="&lt;Path&gt;" class="s7" d="m659.8 441.7c0 0.3-6.6 0.6-14.6 0.6-8 0-14.5-0.3-14.5-0.6 0-0.3 6.5-0.5 14.5-0.5 8 0 14.6 0.2 14.6 0.5z"/>
					</g>
				</g>
				<g id="&lt;Group&gt;">
					<g id="&lt;Group&gt;">
						<path id="&lt;Path&gt;" class="s5" d="m741.7 389.3c0 0.3-16.7 0.6-37.2 0.6-20.5 0-37.1-0.3-37.1-0.6 0-0.2 16.6-0.5 37.1-0.5 20.5 0 37.2 0.3 37.2 0.5z"/>
					</g>
				</g>
				<g id="&lt;Group&gt;">
					<g id="&lt;Group&gt;">
						<path id="&lt;Path&gt;" class="s5" d="m718.7 412.2c0 0.3-16.6 0.5-37.1 0.5-20.5 0-37.1-0.2-37.1-0.5 0-0.3 16.6-0.6 37.1-0.6 20.5 0 37.1 0.3 37.1 0.6z"/>
					</g>
				</g>
				<g id="&lt;Group&gt;">
					<g id="&lt;Group&gt;">
						<path id="&lt;Path&gt;" class="s5" d="m744.3 441.7c0 0.3-16.6 0.6-37.1 0.6-20.5 0-37.2-0.3-37.2-0.6 0-0.3 16.7-0.5 37.2-0.5 20.5 0 37.1 0.2 37.1 0.5z"/>
					</g>
				</g>
				<g id="&lt;Group&gt;">
					<g id="&lt;Group&gt;">
						<path id="&lt;Path&gt;" class="s5" d="m676.5 468.2c0 0.2-16.6 0.5-37.1 0.5-20.5 0-37.2-0.3-37.2-0.5 0-0.3 16.7-0.6 37.2-0.6 20.5 0 37.1 0.3 37.1 0.6z"/>
					</g>
				</g>
				<g id="&lt;Group&gt;">
					<g id="&lt;Group&gt;">
						<path id="&lt;Path&gt;" class="s5" d="m758.6 468.2c0 0.2-16.6 0.5-37.1 0.5-20.5 0-37.1-0.3-37.1-0.5 0-0.3 16.6-0.6 37.1-0.6 20.5 0 37.1 0.3 37.1 0.6z"/>
					</g>
				</g>
				<g id="&lt;Group&gt;">
					<g id="&lt;Group&gt;">
						<path id="&lt;Path&gt;" class="s5" d="m676.5 476.7c0 0.3-16.6 0.6-37.1 0.6-20.6 0-37.2-0.3-37.2-0.6 0-0.2 16.6-0.5 37.2-0.5 20.5 0 37.1 0.3 37.1 0.5z"/>
					</g>
				</g>
				<g id="&lt;Group&gt;">
					<g id="&lt;Group&gt;">
						<path id="&lt;Path&gt;" class="s5" d="m680.1 395.5c0 0.3-16.6 0.6-37.1 0.6-20.5 0-37.2-0.3-37.2-0.6 0-0.2 16.7-0.5 37.2-0.5 20.5 0 37.1 0.3 37.1 0.5z"/>
					</g>
				</g>
				<g id="&lt;Group&gt;">
					<g id="&lt;Group&gt;">
						<path id="&lt;Path&gt;" class="s6" d="m660.3 389.4c0 0.3-4.3 0.6-9.6 0.6-5.2 0-9.5-0.3-9.5-0.6 0-0.3 4.3-0.5 9.5-0.5 5.3 0 9.6 0.2 9.6 0.5z"/>
					</g>
				</g>
				<g id="&lt;Group&gt;">
					<g id="&lt;Group&gt;">
						<path id="&lt;Path&gt;" class="s6" d="m621.9 433.8c0 0.3-4.2 0.5-9.5 0.5-5.3 0-9.6-0.2-9.6-0.5 0-0.3 4.3-0.5 9.6-0.5 5.3 0 9.5 0.2 9.5 0.5z"/>
					</g>
				</g>
				<g id="&lt;Group&gt;">
					<g id="&lt;Group&gt;">
						<path id="&lt;Path&gt;" class="s6" d="m621.5 441.7c0 0.3-4.3 0.6-9.6 0.6-5.3 0-9.5-0.3-9.5-0.6 0-0.3 4.2-0.5 9.5-0.5 5.3 0 9.6 0.2 9.6 0.5z"/>
					</g>
				</g>
				<g id="&lt;Group&gt;">
					<g id="&lt;Group&gt;">
						<path id="&lt;Path&gt;" class="s5" d="m787.2 361.6c0 0.3-46.3 0.6-103.4 0.6-57.1 0-103.3-0.3-103.3-0.6 0-0.2 46.2-0.5 103.3-0.5 57.1 0 103.4 0.3 103.4 0.5z"/>
					</g>
				</g>
				<g id="&lt;Group&gt;">
					<path id="&lt;Path&gt;" class="s2" d="m596.9 354.7c0 1.3-1.1 2.4-2.5 2.4-1.3 0-2.4-1.1-2.4-2.4 0-1.4 1.1-2.5 2.4-2.5 1.4 0 2.5 1.1 2.5 2.5z"/>
				</g>
				<g id="&lt;Group&gt;">
					<path id="&lt;Path&gt;" class="s2" d="m607.4 354.7c0 1.3-1.1 2.4-2.5 2.4-1.3 0-2.4-1.1-2.4-2.4 0-1.4 1.1-2.5 2.4-2.5 1.4 0 2.5 1.1 2.5 2.5z"/>
				</g>
				<g id="&lt;Group&gt;">
					<path id="&lt;Path&gt;" class="s2" d="m617.9 354.7c0 1.3-1.1 2.4-2.4 2.4-1.4 0-2.5-1.1-2.5-2.4 0-1.4 1.1-2.5 2.5-2.5 1.3 0 2.4 1.1 2.4 2.5z"/>
				</g>
			</g>
		</g>
		<g id="&lt;Group&gt;">
			<g id="&lt;Group&gt;">
				<g id="&lt;Group&gt;">
					<path id="&lt;Path&gt;" class="s5" d="m1083.7 504.6h-233.3l17.3-166.3h235.3z"/>
				</g>
				<g id="&lt;Group&gt;">
					<path id="&lt;Path&gt;" class="s6" d="m1071.9 504.6h-233.4l17.3-166.3h235.3z"/>
				</g>
				<g id="&lt;Group&gt;">
					<path id="&lt;Path&gt;" class="s3" d="m1063.2 497h-216.5l16-154.2h218.4z"/>
				</g>
			</g>
			<g id="&lt;Group&gt;">
				<g id="&lt;Group&gt;">
					<g id="&lt;Group&gt;">
						<path id="&lt;Path&gt;" class="s5" d="m870.3 469c-0.3 0 1.9-23.3 4.8-51.8 3-28.6 5.6-51.8 5.9-51.7 0.3 0-1.9 23.2-4.8 51.8-3 28.6-5.6 51.7-5.9 51.7z"/>
					</g>
				</g>
				<g id="&lt;Group&gt;">
					<g id="&lt;Group&gt;">
						<path id="&lt;Path&gt;" class="s5" d="m909.7 370.6c0 0.3-4.8 0.5-10.8 0.5-6.1 0-10.9-0.2-10.9-0.5 0-0.3 4.8-0.5 10.9-0.5 6 0 10.8 0.2 10.8 0.5z"/>
					</g>
				</g>
				<g id="&lt;Group&gt;">
					<g id="&lt;Group&gt;">
						<path id="&lt;Path&gt;" class="s7" d="m1002.2 370.6c0 0.3-19.4 0.5-43.3 0.5-23.9 0-43.3-0.2-43.3-0.5 0-0.3 19.4-0.5 43.3-0.5 23.9 0 43.3 0.2 43.3 0.5z"/>
					</g>
				</g>
				<g id="&lt;Group&gt;">
					<g id="&lt;Group&gt;">
						<path id="&lt;Path&gt;" class="s5" d="m907.2 425.4c0 0.3-4.9 0.5-10.9 0.5-6 0-10.9-0.2-10.9-0.5 0-0.3 4.9-0.5 10.9-0.5 6 0 10.9 0.2 10.9 0.5z"/>
					</g>
				</g>
				<g id="&lt;Group&gt;">
					<g id="&lt;Group&gt;">
						<path id="&lt;Path&gt;" class="s7" d="m999.6 425.4c0 0.3-19.4 0.5-43.3 0.5-23.9 0-43.2-0.2-43.2-0.5 0-0.3 19.3-0.5 43.2-0.5 23.9 0 43.3 0.2 43.3 0.5z"/>
					</g>
				</g>
				<g id="&lt;Group&gt;">
					<g id="&lt;Group&gt;">
						<path id="&lt;Path&gt;" class="s7" d="m970.1 450.7c0 0.3-19.3 0.5-43.2 0.5-24 0-43.3-0.2-43.3-0.5 0-0.3 19.3-0.5 43.3-0.5 23.9 0 43.2 0.2 43.2 0.5z"/>
					</g>
				</g>
				<g id="&lt;Group&gt;">
					<g id="&lt;Group&gt;">
						<path id="&lt;Path&gt;" class="s7" d="m919.3 386.1c0 0.3-6.8 0.5-15.3 0.5-8.4 0-15.3-0.2-15.3-0.5 0-0.3 6.9-0.5 15.3-0.5 8.5 0 15.3 0.2 15.3 0.5z"/>
					</g>
				</g>
				<g id="&lt;Group&gt;">
					<g id="&lt;Group&gt;">
						<path id="&lt;Path&gt;" class="s7" d="m918.5 408.8c0 0.3-6.8 0.5-15.3 0.5-8.4 0-15.3-0.2-15.3-0.5 0-0.3 6.9-0.6 15.3-0.6 8.5 0 15.3 0.3 15.3 0.6z"/>
					</g>
				</g>
				<g id="&lt;Group&gt;">
					<g id="&lt;Group&gt;">
						<path id="&lt;Path&gt;" class="s7" d="m944.4 441.2c0 0.3-6.9 0.5-15.3 0.5-8.5 0-15.3-0.2-15.3-0.5 0-0.3 6.8-0.5 15.3-0.5 8.4 0 15.3 0.2 15.3 0.5z"/>
					</g>
				</g>
				<g id="&lt;Group&gt;">
					<g id="&lt;Group&gt;">
						<path id="&lt;Path&gt;" class="s5" d="m1030.5 386.1c0 0.3-17.4 0.5-39 0.5-21.6 0-39.1-0.2-39.1-0.5 0-0.3 17.5-0.5 39.1-0.5 21.6 0 39 0.2 39 0.5z"/>
					</g>
				</g>
				<g id="&lt;Group&gt;">
					<g id="&lt;Group&gt;">
						<path id="&lt;Path&gt;" class="s5" d="m1006.4 410.1c0 0.3-17.5 0.5-39 0.5-21.6 0-39.1-0.2-39.1-0.5 0-0.3 17.5-0.5 39.1-0.5 21.5 0 39 0.2 39 0.5z"/>
					</g>
				</g>
				<g id="&lt;Group&gt;">
					<g id="&lt;Group&gt;">
						<path id="&lt;Path&gt;" class="s5" d="m1033.3 441.2c0 0.3-17.5 0.5-39 0.5-21.6 0-39.1-0.2-39.1-0.5 0-0.3 17.5-0.5 39.1-0.5 21.5 0 39 0.2 39 0.5z"/>
					</g>
				</g>
				<g id="&lt;Group&gt;">
					<g id="&lt;Group&gt;">
						<path id="&lt;Path&gt;" class="s5" d="m962 469c0 0.3-17.5 0.5-39.1 0.5-21.5 0-39-0.2-39-0.5 0-0.3 17.5-0.5 39-0.5 21.6 0 39.1 0.2 39.1 0.5z"/>
					</g>
				</g>
				<g id="&lt;Group&gt;">
					<g id="&lt;Group&gt;">
						<path id="&lt;Path&gt;" class="s5" d="m1048.4 469c0 0.3-17.5 0.5-39.1 0.5-21.6 0-39-0.2-39-0.5 0-0.3 17.4-0.5 39-0.5 21.6 0 39.1 0.2 39.1 0.5z"/>
					</g>
				</g>
				<g id="&lt;Group&gt;">
					<g id="&lt;Group&gt;">
						<path id="&lt;Path&gt;" class="s5" d="m962 478c0 0.3-17.5 0.5-39.1 0.5-21.6 0-39-0.2-39-0.5 0-0.3 17.4-0.5 39-0.5 21.6 0 39.1 0.2 39.1 0.5z"/>
					</g>
				</g>
				<g id="&lt;Group&gt;">
					<g id="&lt;Group&gt;">
						<path id="&lt;Path&gt;" class="s5" d="m965.8 392.6c0 0.3-17.5 0.5-39.1 0.5-21.6 0-39-0.2-39-0.5 0-0.3 17.4-0.5 39-0.5 21.6 0 39.1 0.2 39.1 0.5z"/>
					</g>
				</g>
				<g id="&lt;Group&gt;">
					<g id="&lt;Group&gt;">
						<path id="&lt;Path&gt;" class="s6" d="m944.9 386.2c0 0.3-4.5 0.5-10 0.5-5.6 0-10.1-0.2-10.1-0.5 0-0.3 4.5-0.6 10.1-0.6 5.5 0 10 0.3 10 0.6z"/>
					</g>
				</g>
				<g id="&lt;Group&gt;">
					<g id="&lt;Group&gt;">
						<path id="&lt;Path&gt;" class="s6" d="m904.6 432.9c0 0.3-4.5 0.5-10.1 0.5-5.5 0-10-0.2-10-0.5 0-0.3 4.5-0.6 10-0.6 5.6 0 10.1 0.3 10.1 0.6z"/>
					</g>
				</g>
				<g id="&lt;Group&gt;">
					<g id="&lt;Group&gt;">
						<path id="&lt;Path&gt;" class="s6" d="m904.1 441.2c0 0.3-4.5 0.5-10 0.5-5.6 0-10.1-0.2-10.1-0.5 0-0.3 4.5-0.5 10.1-0.5 5.5 0 10 0.2 10 0.5z"/>
					</g>
				</g>
				<g id="&lt;Group&gt;">
					<g id="&lt;Group&gt;">
						<path id="&lt;Path&gt;" class="s5" d="m1078.5 356.9c0 0.3-48.7 0.6-108.8 0.6-60 0-108.7-0.3-108.7-0.6 0-0.2 48.7-0.5 108.7-0.5 60.1 0 108.8 0.3 108.8 0.5z"/>
					</g>
				</g>
				<g id="&lt;Group&gt;">
					<path id="&lt;Path&gt;" class="s2" d="m878.2 349.6c0 1.4-1.1 2.6-2.6 2.6-1.4 0-2.5-1.2-2.5-2.6 0-1.4 1.1-2.6 2.5-2.6 1.5 0 2.6 1.2 2.6 2.6z"/>
				</g>
				<g id="&lt;Group&gt;">
					<path id="&lt;Path&gt;" class="s2" d="m889.3 349.6c0 1.4-1.2 2.6-2.6 2.6-1.4 0-2.6-1.2-2.6-2.6 0-1.4 1.2-2.6 2.6-2.6 1.4 0 2.6 1.2 2.6 2.6z"/>
				</g>
				<g id="&lt;Group&gt;">
					<path id="&lt;Path&gt;" class="s2" d="m900.4 349.6c0 1.4-1.2 2.6-2.6 2.6-1.4 0-2.6-1.2-2.6-2.6 0-1.4 1.2-2.6 2.6-2.6 1.4 0 2.6 1.2 2.6 2.6z"/>
				</g>
			</g>
		</g>
		<g id="&lt;Group&gt;">
			<g id="&lt;Group&gt;">
				<g id="&lt;Group&gt;">
					<path id="&lt;Path&gt;" class="s5" d="m950.6 307.8h-222.8l16.5-158.7h224.7z"/>
				</g>
				<g id="&lt;Group&gt;">
					<path id="&lt;Path&gt;" class="s6" d="m939.3 307.8h-222.8l16.4-158.7h224.7z"/>
				</g>
				<g id="&lt;Group&gt;">
					<path id="&lt;Path&gt;" class="s4" d="m931 300.6h-206.7l15.2-147.3h208.5z"/>
				</g>
			</g>
			<g id="&lt;Group&gt;">
				<g id="&lt;Group&gt;">
					<g id="&lt;Group&gt;">
						<path id="&lt;Path&gt;" class="s5" d="m747 275.9c-0.3 0 1.8-22.2 4.6-49.5 2.8-27.3 5.3-49.4 5.6-49.4 0.3 0.1-1.8 22.2-4.6 49.5-2.8 27.3-5.3 49.4-5.6 49.4z"/>
					</g>
				</g>
				<g id="&lt;Group&gt;">
					<g id="&lt;Group&gt;">
						<path id="&lt;Path&gt;" class="s5" d="m784.6 182c0 0.2-4.6 0.5-10.3 0.5-5.8 0-10.4-0.3-10.4-0.5 0-0.3 4.6-0.6 10.4-0.6 5.7 0 10.3 0.3 10.3 0.6z"/>
					</g>
				</g>
				<g id="&lt;Group&gt;">
					<g id="&lt;Group&gt;">
						<path id="&lt;Path&gt;" class="s7" d="m872.9 182c0 0.2-18.5 0.5-41.3 0.5-22.8 0-41.3-0.3-41.3-0.5 0-0.3 18.5-0.6 41.3-0.6 22.8 0 41.3 0.3 41.3 0.6z"/>
					</g>
				</g>
				<g id="&lt;Group&gt;">
					<g id="&lt;Group&gt;">
						<path id="&lt;Path&gt;" class="s5" d="m782.2 234.3c0 0.3-4.7 0.5-10.4 0.5-5.7 0-10.4-0.2-10.4-0.5 0-0.3 4.7-0.5 10.4-0.5 5.7 0 10.4 0.2 10.4 0.5z"/>
					</g>
				</g>
				<g id="&lt;Group&gt;">
					<g id="&lt;Group&gt;">
						<path id="&lt;Path&gt;" class="s7" d="m870.5 234.3c0 0.3-18.5 0.5-41.3 0.5-22.9 0-41.4-0.2-41.4-0.5 0-0.3 18.5-0.5 41.4-0.5 22.8 0 41.3 0.2 41.3 0.5z"/>
					</g>
				</g>
				<g id="&lt;Group&gt;">
					<g id="&lt;Group&gt;">
						<path id="&lt;Path&gt;" class="s7" d="m842.3 258.4c0 0.3-18.5 0.5-41.3 0.5-22.8 0-41.3-0.2-41.3-0.5 0-0.3 18.5-0.5 41.3-0.5 22.8 0 41.3 0.2 41.3 0.5z"/>
					</g>
				</g>
				<g id="&lt;Group&gt;">
					<g id="&lt;Group&gt;">
						<path id="&lt;Path&gt;" class="s7" d="m793.8 196.7c0 0.3-6.6 0.6-14.6 0.6-8.1 0-14.6-0.3-14.6-0.6 0-0.3 6.5-0.5 14.6-0.5 8 0 14.6 0.2 14.6 0.5z"/>
					</g>
				</g>
				<g id="&lt;Group&gt;">
					<g id="&lt;Group&gt;">
						<path id="&lt;Path&gt;" class="s7" d="m793 218.4c0 0.3-6.5 0.5-14.6 0.5-8 0-14.6-0.2-14.6-0.5 0-0.3 6.6-0.5 14.6-0.5 8.1 0 14.6 0.2 14.6 0.5z"/>
					</g>
				</g>
				<g id="&lt;Group&gt;">
					<g id="&lt;Group&gt;">
						<path id="&lt;Path&gt;" class="s7" d="m817.7 249.4c0 0.2-6.5 0.5-14.6 0.5-8 0-14.6-0.3-14.6-0.5 0-0.3 6.6-0.6 14.6-0.6 8.1 0 14.6 0.3 14.6 0.6z"/>
					</g>
				</g>
				<g id="&lt;Group&gt;">
					<g id="&lt;Group&gt;">
						<path id="&lt;Path&gt;" class="s5" d="m900 196.7c0 0.3-16.7 0.6-37.3 0.6-20.6 0-37.3-0.3-37.3-0.6 0-0.3 16.7-0.5 37.3-0.5 20.6 0 37.3 0.2 37.3 0.5z"/>
					</g>
				</g>
				<g id="&lt;Group&gt;">
					<g id="&lt;Group&gt;">
						<path id="&lt;Path&gt;" class="s5" d="m877 219.7c0 0.2-16.7 0.5-37.3 0.5-20.6 0-37.3-0.3-37.3-0.5 0-0.3 16.7-0.6 37.3-0.6 20.6 0 37.3 0.3 37.3 0.6z"/>
					</g>
				</g>
				<g id="&lt;Group&gt;">
					<g id="&lt;Group&gt;">
						<path id="&lt;Path&gt;" class="s5" d="m902.7 249.4c0 0.2-16.7 0.5-37.3 0.5-20.6 0-37.3-0.3-37.3-0.5 0-0.3 16.7-0.6 37.3-0.6 20.6 0 37.3 0.3 37.3 0.6z"/>
					</g>
				</g>
				<g id="&lt;Group&gt;">
					<g id="&lt;Group&gt;">
						<path id="&lt;Path&gt;" class="s5" d="m834.5 275.9c0 0.3-16.7 0.5-37.3 0.5-20.6 0-37.3-0.2-37.3-0.5 0-0.3 16.7-0.5 37.3-0.5 20.6 0 37.3 0.2 37.3 0.5z"/>
					</g>
				</g>
				<g id="&lt;Group&gt;">
					<g id="&lt;Group&gt;">
						<path id="&lt;Path&gt;" class="s5" d="m917 275.9c0 0.3-16.7 0.5-37.3 0.5-20.6 0-37.3-0.2-37.3-0.5 0-0.3 16.7-0.5 37.3-0.5 20.6 0 37.3 0.2 37.3 0.5z"/>
					</g>
				</g>
				<g id="&lt;Group&gt;">
					<g id="&lt;Group&gt;">
						<path id="&lt;Path&gt;" class="s5" d="m834.5 284.5c0 0.3-16.7 0.5-37.3 0.5-20.6 0-37.3-0.2-37.3-0.5 0-0.3 16.7-0.5 37.3-0.5 20.6 0 37.3 0.2 37.3 0.5z"/>
					</g>
				</g>
				<g id="&lt;Group&gt;">
					<g id="&lt;Group&gt;">
						<path id="&lt;Path&gt;" class="s5" d="m838.2 203c0 0.2-16.7 0.5-37.3 0.5-20.6 0-37.3-0.3-37.3-0.5 0-0.3 16.7-0.6 37.3-0.6 20.6 0 37.3 0.3 37.3 0.6z"/>
					</g>
				</g>
				<g id="&lt;Group&gt;">
					<g id="&lt;Group&gt;">
						<path id="&lt;Path&gt;" class="s6" d="m818.3 196.8c0 0.3-4.3 0.5-9.6 0.5-5.3 0-9.6-0.2-9.6-0.5 0-0.3 4.3-0.5 9.6-0.5 5.3 0 9.6 0.2 9.6 0.5z"/>
					</g>
				</g>
				<g id="&lt;Group&gt;">
					<g id="&lt;Group&gt;">
						<path id="&lt;Path&gt;" class="s6" d="m779.7 241.4c0 0.3-4.3 0.5-9.6 0.5-5.3 0-9.6-0.2-9.6-0.5 0-0.3 4.3-0.5 9.6-0.5 5.3 0 9.6 0.2 9.6 0.5z"/>
					</g>
				</g>
				<g id="&lt;Group&gt;">
					<g id="&lt;Group&gt;">
						<path id="&lt;Path&gt;" class="s6" d="m779.3 249.4c0 0.2-4.3 0.5-9.6 0.5-5.3 0-9.6-0.3-9.6-0.5 0-0.3 4.3-0.6 9.6-0.6 5.3 0 9.6 0.3 9.6 0.6z"/>
					</g>
				</g>
				<g id="&lt;Group&gt;">
					<g id="&lt;Group&gt;">
						<path id="&lt;Path&gt;" class="s5" d="m945.8 168.9c0 0.3-46.5 0.5-103.9 0.5-57.3 0-103.8-0.2-103.8-0.5 0-0.3 46.5-0.5 103.8-0.5 57.4 0 103.9 0.2 103.9 0.5z"/>
					</g>
				</g>
				<g id="&lt;Group&gt;">
					<path id="&lt;Path&gt;" class="s2" d="m754.6 161.9c0 1.3-1.2 2.4-2.5 2.4-1.4 0-2.5-1.1-2.5-2.4 0-1.4 1.1-2.5 2.5-2.5 1.3 0 2.5 1.1 2.5 2.5z"/>
				</g>
				<g id="&lt;Group&gt;">
					<path id="&lt;Path&gt;" class="s2" d="m765.1 161.9c0 1.3-1.1 2.4-2.4 2.4-1.4 0-2.5-1.1-2.5-2.4 0-1.4 1.1-2.5 2.5-2.5 1.3 0 2.4 1.1 2.4 2.5z"/>
				</g>
				<g id="&lt;Group&gt;">
					<path id="&lt;Path&gt;" class="s2" d="m775.7 161.9c0 1.3-1.1 2.4-2.5 2.4-1.3 0-2.4-1.1-2.4-2.4 0-1.4 1.1-2.5 2.4-2.5 1.4 0 2.5 1.1 2.5 2.5z"/>
				</g>
			</g>
		</g>
	</g>
	<g id="Character">
		<g id="&lt;Group&gt;">
			<g id="&lt;Group&gt;">
				<path id="&lt;Path&gt;" class="s5" d="m573.2 931.1h-17.4v-23.7h17.4z"/>
			</g>
			<g id="&lt;Group&gt;">
				<g id="&lt;Group&gt;">
					<g id="&lt;Group&gt;">
						<g id="&lt;Group&gt;">
							<g id="&lt;Group&gt;">
								<g id="&lt;Group&gt;">
									<path id="&lt;Path&gt;" class="s5" d="m666.2 631.1h154v-7.5h-154z"/>
								</g>
							</g>
							<g id="&lt;Group&gt;">
								<g id="&lt;Group&gt;">
									<path id="&lt;Path&gt;" class="s5" d="m844.1 631.1l28.9-108.3h-120.3l-26.1 108.3z"/>
								</g>
							</g>
						</g>
						<g id="&lt;Group&gt;">
							<g id="&lt;Group&gt;">
								<path id="&lt;Path&gt;" class="s0" d="m733.8 622.9h107.4l25-95.1h-108z"/>
							</g>
						</g>
					</g>
					<g id="&lt;Group&gt;">
						<path id="&lt;Path&gt;" class="s1" d="m760.9 546.2l-6.7 26.9h71.3l7.6-26.9z"/>
					</g>
					<g id="&lt;Group&gt;">
						<g id="&lt;Group&gt;">
							<path id="&lt;Path&gt;" class="s6" d="m818 542.7c0 0.3-12.4 0.5-27.9 0.5-15.4 0-27.9-0.2-27.9-0.5 0-0.3 12.5-0.6 27.9-0.6 15.5 0 27.9 0.3 27.9 0.6z"/>
						</g>
					</g>
					<g id="&lt;Group&gt;">
						<g id="&lt;Group&gt;">
							<path id="&lt;Path&gt;" class="s5" d="m785.6 551.4c0 0.3-5.1 0.5-11.3 0.5-6.2 0-11.2-0.2-11.2-0.5 0-0.3 5-0.6 11.2-0.6 6.2 0 11.3 0.3 11.3 0.6z"/>
						</g>
					</g>
					<g id="&lt;Group&gt;">
						<g id="&lt;Group&gt;">
							<path id="&lt;Path&gt;" class="s5" d="m803.6 550.9c0 0.3-3.3 0.6-7.3 0.6-4 0-7.3-0.3-7.3-0.6 0-0.2 3.3-0.5 7.3-0.5 4 0 7.3 0.3 7.3 0.5z"/>
						</g>
					</g>
					<g id="&lt;Group&gt;">
						<g id="&lt;Group&gt;">
							<path id="&lt;Path&gt;" class="s6" d="m824 556.2c0 0.3-13.8 0.6-30.8 0.6-17 0-30.8-0.3-30.8-0.6 0-0.2 13.8-0.5 30.8-0.5 17 0 30.8 0.3 30.8 0.5z"/>
						</g>
					</g>
					<g id="&lt;Group&gt;">
						<g id="&lt;Group&gt;">
							<path id="&lt;Path&gt;" class="s7" d="m781.1 560.7c0 0.3-4.4 0.5-10 0.5-5.5 0-9.9-0.2-9.9-0.5 0-0.3 4.4-0.5 9.9-0.5 5.6 0 10 0.2 10 0.5z"/>
						</g>
					</g>
					<g id="&lt;Group&gt;">
						<g id="&lt;Group&gt;">
							<path id="&lt;Path&gt;" class="s6" d="m818.5 567.1c0 0.3-12.8 0.5-28.6 0.5-15.7 0-28.5-0.2-28.5-0.5 0-0.3 12.8-0.5 28.5-0.5 15.8 0 28.6 0.2 28.6 0.5z"/>
						</g>
					</g>
					<g id="&lt;Group&gt;">
						<g id="&lt;Group&gt;">
							<path id="&lt;Path&gt;" class="s6" d="m776.5 580.9c0 0.3-5 0.5-11.1 0.5-6.1 0-11-0.2-11-0.5 0-0.3 4.9-0.6 11-0.6 6.1 0 11.1 0.3 11.1 0.6z"/>
						</g>
					</g>
					<g id="&lt;Group&gt;">
						<g id="&lt;Group&gt;">
							<path id="&lt;Path&gt;" class="s5" d="m795.3 581c0 0.2-3.3 0.4-7.5 0.4-4.2 0-7.5-0.3-7.5-0.6 0-0.3 3.4-0.5 7.5-0.4 4.2 0 7.5 0.3 7.5 0.6z"/>
						</g>
					</g>
					<g id="&lt;Group&gt;">
						<g id="&lt;Group&gt;">
							<path id="&lt;Path&gt;" class="s5" d="m806 580.4c0 0.3-1.5 0.6-3.2 0.6-1.8 0-3.2-0.3-3.2-0.6 0-0.2 1.4-0.5 3.2-0.5 1.7 0 3.2 0.3 3.2 0.5z"/>
						</g>
					</g>
					<g id="&lt;Group&gt;">
						<g id="&lt;Group&gt;">
							<path id="&lt;Path&gt;" class="s7" d="m761.8 586.4c0 0.3-1.6 0.5-3.5 0.5-1.9 0-3.5-0.2-3.5-0.5 0-0.3 1.6-0.5 3.5-0.5 1.9 0 3.5 0.2 3.5 0.5z"/>
						</g>
					</g>
					<g id="&lt;Group&gt;">
						<g id="&lt;Group&gt;">
							<path id="&lt;Path&gt;" class="s5" d="m782.8 586.4c0 0.3-3.7 0.5-8.4 0.5-4.6 0-8.3-0.2-8.3-0.5 0-0.3 3.7-0.5 8.3-0.5 4.7 0 8.4 0.2 8.4 0.5z"/>
						</g>
					</g>
					<g id="&lt;Group&gt;">
						<g id="&lt;Group&gt;">
							<path id="&lt;Path&gt;" class="s6" d="m832.9 585.7c0 0.3-10 0.6-22.4 0.6-12.4 0-22.4-0.3-22.4-0.6 0-0.2 10-0.5 22.4-0.5 12.4 0 22.4 0.3 22.4 0.5z"/>
						</g>
					</g>
					<g id="&lt;Group&gt;">
						<g id="&lt;Group&gt;">
							<path id="&lt;Path&gt;" class="s5" d="m760.8 592.1c0 0.3-1.7 0.5-3.7 0.5-2 0-3.6-0.2-3.6-0.5 0-0.3 1.6-0.5 3.6-0.5 2 0 3.7 0.2 3.7 0.5z"/>
						</g>
					</g>
					<g id="&lt;Group&gt;">
						<g id="&lt;Group&gt;">
							<path id="&lt;Path&gt;" class="s5" d="m771.8 591.9c0 0.3-2 0.5-4.4 0.5-2.4 0-4.3-0.2-4.3-0.5 0-0.3 1.9-0.5 4.3-0.5 2.4 0 4.4 0.2 4.4 0.5z"/>
						</g>
					</g>
					<g id="&lt;Group&gt;">
						<g id="&lt;Group&gt;">
							<path id="&lt;Path&gt;" class="s6" d="m804.7 591.5c0 0.3-6.3 0.5-14.1 0.5-7.8 0-14.1-0.2-14.1-0.5 0-0.3 6.3-0.5 14.1-0.5 7.8 0 14.1 0.2 14.1 0.5z"/>
						</g>
					</g>
					<g id="&lt;Group&gt;">
						<g id="&lt;Group&gt;">
							<path id="&lt;Path&gt;" class="s6" d="m787.3 601.5c0 0.2-7.7 0.5-17.1 0.5-9.4 0-17.1-0.3-17.1-0.5 0-0.3 7.7-0.6 17.1-0.6 9.4 0 17.1 0.3 17.1 0.6z"/>
						</g>
					</g>
					<g id="&lt;Group&gt;">
						<g id="&lt;Group&gt;">
							<path id="&lt;Path&gt;" class="s7" d="m807.2 601c0 0.3-3.4 0.5-7.7 0.5-4.3 0-7.8-0.2-7.8-0.5 0-0.3 3.5-0.5 7.8-0.5 4.3 0 7.7 0.2 7.7 0.5z"/>
						</g>
					</g>
					<g id="&lt;Group&gt;">
						<g id="&lt;Group&gt;">
							<path id="&lt;Path&gt;" class="s5" d="m836.8 601c0 0.3-5.7 0.5-12.8 0.5-7.1 0-12.8-0.2-12.8-0.5 0-0.3 5.7-0.5 12.8-0.5 7.1 0 12.8 0.2 12.8 0.5z"/>
						</g>
					</g>
					<g id="&lt;Group&gt;">
						<g id="&lt;Group&gt;">
							<path id="&lt;Path&gt;" class="s5" d="m829.9 542.2c0 0.3-1.2 0.6-2.6 0.6-1.5 0-2.7-0.3-2.7-0.6 0-0.2 1.2-0.5 2.7-0.5 1.4 0 2.6 0.3 2.6 0.5z"/>
						</g>
					</g>
					<g id="&lt;Group&gt;">
						<g id="&lt;Group&gt;">
							<path id="&lt;Path&gt;" class="s7" d="m775.8 538.6c0 0.3-2.6 0.6-5.8 0.6-3.2 0-5.9-0.3-5.9-0.6 0-0.3 2.7-0.5 5.9-0.5 3.2 0 5.8 0.2 5.8 0.5z"/>
						</g>
					</g>
					<g id="&lt;Group&gt;">
						<path id="&lt;Path&gt;" class="s3" d="m864.4 534.6c-36.4 0-71.6 0-108 0l1.8-6.8h108z"/>
					</g>
					<g id="&lt;Group&gt;">
						<path id="&lt;Path&gt;" class="s4" d="m764 531.3c0 0.6-0.6 1.1-1.2 1.1-0.7 0-1.2-0.5-1.2-1.1 0-0.7 0.5-1.2 1.2-1.2 0.6 0 1.2 0.5 1.2 1.2z"/>
					</g>
					<g id="&lt;Group&gt;">
						<path id="&lt;Path&gt;" class="s4" d="m768 531.3c0 0.6-0.5 1.1-1.2 1.1-0.6 0-1.1-0.5-1.1-1.1 0-0.7 0.5-1.2 1.1-1.2 0.7 0 1.2 0.5 1.2 1.2z"/>
					</g>
					<g id="&lt;Group&gt;">
						<path id="&lt;Path&gt;" class="s4" d="m772.1 531.3c0 0.6-0.5 1.1-1.2 1.1-0.6 0-1.2-0.5-1.2-1.1 0-0.7 0.6-1.2 1.2-1.2 0.7 0 1.2 0.5 1.2 1.2z"/>
					</g>
				</g>
				<g id="&lt;Group&gt;">
					<g id="&lt;Group&gt;">
						<g id="&lt;Group&gt;">
							<g id="&lt;Group&gt;">
								<path id="&lt;Path&gt;" class="s5" d="m996 790.6h-256v-149.5h256z"/>
							</g>
							<g id="&lt;Group&gt;">
								<path id="&lt;Path&gt;" class="s6" d="m856.6 790.6h-116.6v-149.5h116.6z"/>
							</g>
							<g id="&lt;Group&gt;">
								<g id="&lt;Group&gt;">
									<g id="&lt;Group&gt;">
										<path id="&lt;Path&gt;" class="s5" d="m844.7 691.9q0 0 0-0.8 0-0.8 0-2.2-0.1-2.9-0.1-8.3c-0.1-7.2-0.2-17.5-0.2-30.2l0.3 0.4c-24.2 0-57.3 0-93.8 0.1-0.5 0.5 0.6-0.6 0.5-0.5v0.1 0.2 0.4 0.6 1.4 2.7q0 2.7 0 5.4 0 5.4 0 10.6c0 6.9 0 13.6 0 20.1l-0.5-0.5c27.2 0.1 50.6 0.2 67.2 0.2 8.3 0.1 14.9 0.1 19.5 0.2q3.4 0 5.3 0 0.8 0 1.4 0.1 0.4 0 0.4 0 0 0-0.4 0-0.5 0-1.3 0-1.8 0.1-5.1 0.1c-4.6 0-11.2 0.1-19.5 0.1-16.7 0.1-40.2 0.2-67.5 0.3h-0.5v-0.5c0-6.5 0-13.2 0-20.1q0-5.2 0-10.6 0-2.7 0-5.4v-2.7-1.4-0.6-0.4-0.2-0.1c-0.1 0.1 1-1 0.5-0.5 36.5 0 69.6 0.1 93.8 0.1h0.4v0.4c-0.1 12.8-0.1 23.2-0.2 30.5q-0.1 5.3-0.1 8.2 0 1.3 0 2.1 0 0.7-0.1 0.7z"/>
									</g>
								</g>
								<g id="&lt;Group&gt;">
									<g id="&lt;Group&gt;">
										<path id="&lt;Path&gt;" class="s5" d="m801.8 671.1c-0.2 0.1-0.1-1.6-1.8-2.8-0.8-0.6-2.1-0.9-3.4-0.5-1.2 0.5-2.3 1.8-2.3 3.3 0 1.6 1.1 2.9 2.3 3.3 1.3 0.5 2.6 0.2 3.4-0.4 1.7-1.3 1.6-2.9 1.8-2.9 0.1 0 0.2 0.4 0.1 1.1-0.1 0.6-0.5 1.6-1.4 2.4-1 0.8-2.6 1.3-4.2 0.7-1.6-0.5-3-2.2-3-4.2 0-2 1.4-3.7 3-4.2 1.6-0.5 3.2 0 4.2 0.8 0.9 0.8 1.3 1.8 1.4 2.4 0.1 0.7 0 1-0.1 1z"/>
									</g>
								</g>
							</g>
							<g id="&lt;Group&gt;">
								<g id="&lt;Group&gt;">
									<g id="&lt;Group&gt;">
										<path id="&lt;Path&gt;" class="s5" d="m844.7 737.6q0 0 0-0.8 0-0.8 0-2.2-0.1-2.9-0.1-8.3c-0.1-7.2-0.2-17.5-0.2-30.2l0.3 0.3c-24.2 0.1-57.3 0.1-93.8 0.2-0.5 0.5 0.6-0.6 0.5-0.5v0.1 0.2 0.3 0.7 1.4 2.7q0 2.7 0 5.4 0 5.3 0 10.6c0 6.9 0 13.6 0 20.1l-0.5-0.5c27.2 0.1 50.6 0.2 67.2 0.2 8.3 0.1 14.9 0.1 19.5 0.2q3.4 0 5.3 0 0.8 0 1.4 0 0.4 0.1 0.4 0.1 0 0-0.4 0-0.5 0-1.3 0-1.8 0.1-5.1 0.1c-4.6 0-11.2 0.1-19.5 0.1-16.7 0.1-40.2 0.2-67.5 0.3h-0.5v-0.5c0-6.5 0-13.2 0-20.1q0-5.3 0-10.6 0-2.7 0-5.4v-2.7-1.4-0.7-0.3-0.2-0.1c-0.1 0.1 1-1 0.5-0.6 36.5 0.1 69.6 0.2 93.8 0.2h0.4v0.4c-0.1 12.8-0.1 23.2-0.2 30.5q-0.1 5.2-0.1 8.2 0 1.3 0 2.1 0 0.7-0.1 0.7z"/>
									</g>
								</g>
								<g id="&lt;Group&gt;">
									<g id="&lt;Group&gt;">
										<path id="&lt;Path&gt;" class="s5" d="m801.8 716.8c-0.2 0.1-0.1-1.6-1.8-2.9-0.8-0.6-2.1-0.9-3.4-0.4-1.2 0.5-2.3 1.8-2.3 3.3 0 1.6 1.1 2.9 2.3 3.3 1.3 0.5 2.6 0.2 3.4-0.4 1.7-1.3 1.6-2.9 1.8-2.9 0.1 0 0.2 0.4 0.1 1-0.1 0.7-0.5 1.7-1.4 2.5-1 0.8-2.6 1.3-4.2 0.7-1.6-0.5-3-2.2-3-4.2 0-2 1.4-3.7 3-4.2 1.6-0.5 3.2 0 4.2 0.8 0.9 0.8 1.3 1.7 1.4 2.4 0.1 0.7 0 1-0.1 1z"/>
									</g>
								</g>
							</g>
							<g id="&lt;Group&gt;">
								<g id="&lt;Group&gt;">
									<g id="&lt;Group&gt;">
										<path id="&lt;Path&gt;" class="s5" d="m844.7 783.3q0-0.1 0-0.8 0-0.8 0-2.2-0.1-2.9-0.1-8.3c-0.1-7.2-0.2-17.5-0.2-30.2l0.3 0.3c-24.2 0.1-57.3 0.1-93.8 0.2-0.5 0.4 0.6-0.7 0.5-0.5v0.1 0.2 0.3 0.7 1.4 2.7q0 2.7 0 5.4 0 5.3 0 10.5c0 7 0 13.7 0 20.2l-0.5-0.5c27.2 0.1 50.6 0.1 67.2 0.2 8.3 0.1 14.9 0.1 19.5 0.1q3.4 0.1 5.3 0.1 0.8 0 1.4 0 0.4 0.1 0.4 0.1 0 0-0.4 0-0.5 0-1.3 0-1.8 0.1-5.1 0.1c-4.6 0-11.2 0.1-19.5 0.1-16.7 0.1-40.2 0.2-67.5 0.3h-0.5v-0.5c0-6.5 0-13.2 0-20.2q0-5.2 0-10.5 0-2.7 0-5.4v-2.7-1.4-0.7-0.3-0.2-0.1c-0.1 0.1 1-1 0.5-0.6 36.5 0.1 69.6 0.1 93.8 0.2h0.4v0.4c-0.1 12.8-0.1 23.2-0.2 30.4q-0.1 5.3-0.1 8.3 0 1.3 0 2.1 0 0.7-0.1 0.7z"/>
									</g>
								</g>
								<g id="&lt;Group&gt;">
									<g id="&lt;Group&gt;">
										<path id="&lt;Path&gt;" class="s5" d="m801.8 762.5c-0.2 0.1-0.1-1.6-1.8-2.9-0.8-0.6-2.1-0.9-3.4-0.4-1.2 0.5-2.3 1.8-2.3 3.3 0 1.5 1.1 2.9 2.3 3.3 1.3 0.5 2.6 0.2 3.4-0.4 1.7-1.3 1.6-3 1.8-2.9 0.1 0 0.2 0.4 0.1 1-0.1 0.7-0.5 1.7-1.4 2.5-1 0.8-2.6 1.3-4.2 0.7-1.6-0.5-3-2.2-3-4.2 0-2 1.4-3.7 3-4.2 1.6-0.5 3.2-0.1 4.2 0.7 0.9 0.8 1.3 1.8 1.4 2.5 0.1 0.7 0 1-0.1 1z"/>
									</g>
								</g>
							</g>
						</g>
						<g id="&lt;Group&gt;">
							<path id="&lt;Path&gt;" class="s5" d="m569.4 912.2l-171.1-0.2v-270.9h171.1z"/>
						</g>
						<g id="&lt;Group&gt;">
							<path id="&lt;Path&gt;" class="s5" d="m1005.3 644.9h-615.3v-14.2h615.3z"/>
						</g>
						<g id="&lt;Group&gt;">
							<path id="&lt;Path&gt;" class="s5" d="m417.4 932.3h-19.1v-287.4h19.1z"/>
						</g>
						<g id="&lt;Group&gt;">
							<path id="&lt;Path&gt;" class="s5" d="m996 932.4h-19v-287.5h19z"/>
						</g>
						<g id="&lt;Group&gt;">
							<path id="&lt;Path&gt;" class="s5" d="m875.7 932.4h-19.1v-287.5h19.1z"/>
						</g>
					</g>
					<g id="&lt;Group&gt;">
						<g id="&lt;Group&gt;">
							<path id="&lt;Path&gt;" class="s6" d="m476.5 630.7c0 0.3-18.3 0.5-40.9 0.5-22.6 0-41-0.2-41-0.5 0-0.3 18.4-0.5 41-0.5 22.6 0 40.9 0.2 40.9 0.5z"/>
						</g>
					</g>
				</g>
				<g id="&lt;Group&gt;">
					<g id="&lt;Group&gt;">
						<g id="&lt;Group&gt;">
							<g id="&lt;Group&gt;">
								<g id="&lt;Group&gt;">
									<g id="&lt;Group&gt;">
										<g id="&lt;Group&gt;">
											<g id="&lt;Group&gt;">
												<path id="&lt;Path&gt;" class="s7" d="m656.5 918.3l0.4-20.5-38.5-1.2-1 30.1 2.4 0.2c10.6 0.9 54 3.9 61.1 1.9 8-2.1-24.4-10.5-24.4-10.5z"/>
											</g>
										</g>
									</g>
								</g>
								<g id="&lt;Group&gt;" style="opacity: .4">
									<g id="&lt;Group&gt;">
										<g id="&lt;Group&gt;">
											<path id="&lt;Path&gt;" class="s2" d="m672.3 923c0 0 11.4 3.6 9.9 5.5-1.5 1.8-45.5 0.5-64.8-1.8l0.1-0.9 51.3 2c0 0 1.3-4.8 3.5-4.8z"/>
										</g>
									</g>
								</g>
								<g id="&lt;Group&gt;">
									<g id="&lt;Group&gt;">
										<g id="&lt;Group&gt;">
											<g id="&lt;Group&gt;">
												<path id="&lt;Path&gt;" class="s5" d="m616.9 925.8q0 0 0.7 0.1 0.8 0 1.9 0.1 2.8 0.3 6.9 0.6c5.9 0.4 14.1 0.8 23.1 1.1 9.1 0.3 17.2 0.3 23.1 0.3q4.2 0 7-0.1 1.1 0 2 0 0.6 0 0.6-0.1 0 0-0.6 0-0.9 0-2 0-2.8-0.1-7-0.1c-5.9-0.1-14-0.2-23.1-0.5-9-0.3-17.1-0.7-23-1q-4.2-0.2-7-0.3-1.1-0.1-1.9-0.1-0.7 0-0.7 0z"/>
											</g>
										</g>
									</g>
								</g>
								<g id="&lt;Group&gt;">
									<g id="&lt;Group&gt;">
										<g id="&lt;Group&gt;">
											<g id="&lt;Group&gt;">
												<path id="&lt;Path&gt;" class="s5" d="m668.7 928.4c0.2 0 0.3-1.6 1.4-3.3 1.1-1.6 2.6-2.5 2.5-2.6 0-0.1-1.7 0.6-2.9 2.4-1.1 1.7-1.1 3.6-1 3.5z"/>
											</g>
										</g>
									</g>
								</g>
								<g id="&lt;Group&gt;">
									<g id="&lt;Group&gt;">
										<g id="&lt;Group&gt;">
											<g id="&lt;Group&gt;">
												<path id="&lt;Path&gt;" class="s5" d="m657.5 922.3c0.1 0.1 0.7-0.6 1.3-1.4 0.6-0.9 1-1.7 0.9-1.7-0.1-0.1-0.7 0.5-1.3 1.4-0.6 0.9-1 1.6-0.9 1.7z"/>
											</g>
										</g>
									</g>
								</g>
								<g id="&lt;Group&gt;">
									<g id="&lt;Group&gt;">
										<g id="&lt;Group&gt;">
											<g id="&lt;Group&gt;">
												<path id="&lt;Path&gt;" class="s5" d="m654.5 920.6c0.1 0.1 0.7-0.3 1.4-0.9 0.6-0.6 1.1-1.1 1-1.2 0-0.1-0.7 0.3-1.3 0.9-0.7 0.5-1.2 1.1-1.1 1.2z"/>
											</g>
										</g>
									</g>
								</g>
								<g id="&lt;Group&gt;">
									<g id="&lt;Group&gt;">
										<g id="&lt;Group&gt;">
											<g id="&lt;Group&gt;">
												<path id="&lt;Path&gt;" class="s5" d="m652.6 916.9c0 0.1 0.9 0.2 2 0.3 1.1 0 2 0 2-0.2 0-0.1-0.9-0.2-2-0.3-1.1 0-2 0-2 0.2z"/>
											</g>
										</g>
									</g>
								</g>
								<g id="&lt;Group&gt;">
									<g id="&lt;Group&gt;">
										<g id="&lt;Group&gt;">
											<g id="&lt;Group&gt;">
												<path id="&lt;Path&gt;" class="s5" d="m652 914.3c0 0.1 0.9 0.6 2.2 0.7 1.3 0.2 2.4-0.1 2.4-0.2-0.1-0.2-1.1-0.1-2.3-0.2-1.2-0.2-2.2-0.4-2.3-0.3z"/>
											</g>
										</g>
									</g>
								</g>
								<g id="&lt;Group&gt;">
									<g id="&lt;Group&gt;">
										<g id="&lt;Group&gt;">
											<g id="&lt;Group&gt;">
												<path id="&lt;Path&gt;" class="s5" d="m659 919c-0.1 0 0.9 0.2 2.4 0.1 0.8-0.1 1.7-0.3 2.7-0.5 0.5-0.2 1-0.3 1.5-0.6 0.3-0.2 0.5-0.4 0.6-0.8 0.2-0.3 0-0.8-0.3-1-2.3-1.3-4.7 0-5.7 1.2-0.5 0.6-0.7 1.2-0.8 1.6-0.1 0.4-0.1 0.7-0.1 0.7 0.1 0 0.2-1 1.2-2.1 0.5-0.5 1.2-1.1 2.1-1.3 0.9-0.2 2.2-0.3 3 0.3 0.4 0.3 0.2 0.7-0.2 1-0.5 0.2-1 0.4-1.4 0.5-1 0.3-1.9 0.5-2.6 0.6-1.5 0.2-2.4 0.2-2.4 0.3z"/>
											</g>
										</g>
									</g>
								</g>
								<g id="&lt;Group&gt;">
									<g id="&lt;Group&gt;">
										<g id="&lt;Group&gt;">
											<g id="&lt;Group&gt;">
												<path id="&lt;Path&gt;" class="s5" d="m659.6 919.1c0 0.1 0.4-0.6 0.3-1.7 0-0.5-0.2-1.2-0.6-1.8-0.4-0.6-1-1.3-2-1.3-0.6 0-0.9 0.7-0.8 1.1 0 0.4 0.2 0.8 0.4 1.1 0.3 0.6 0.7 1.2 1.1 1.5 0.7 0.8 1.4 1.1 1.4 1.1 0-0.1-0.5-0.5-1.2-1.3-0.3-0.4-0.6-0.9-0.9-1.5-0.4-0.5-0.6-1.5 0.1-1.6 0.6 0 1.2 0.6 1.5 1.1 0.4 0.6 0.6 1.2 0.7 1.7 0.2 1-0.1 1.6 0 1.6z"/>
											</g>
										</g>
									</g>
								</g>
								<g id="&lt;Group&gt;">
									<g id="&lt;Group&gt;">
										<g id="&lt;Group&gt;">
											<g id="&lt;Group&gt;">
												<path id="&lt;Path&gt;" class="s5" d="m618 915.3c0 0.1 1.1-0.1 2.8 0.2 1.8 0.2 4.1 1 6.2 2.7 2 1.7 3.2 3.9 3.7 5.6 0.5 1.7 0.5 2.8 0.6 2.8 0.1 0 0.1-0.3 0.1-0.8-0.1-0.5-0.2-1.2-0.4-2.1-0.5-1.7-1.6-4.1-3.7-5.9-2.1-1.8-4.6-2.5-6.4-2.7-0.9-0.1-1.6 0-2.1 0-0.5 0.1-0.8 0.1-0.8 0.2z"/>
											</g>
										</g>
									</g>
								</g>
								<g id="&lt;Group&gt;">
									<g id="&lt;Group&gt;">
										<g id="&lt;Group&gt;">
											<g id="&lt;Group&gt;">
												<path id="&lt;Path&gt;" class="s5" d="m622.5 899.4c-0.1 0-0.4 3.5-0.6 7.9-0.2 4.3-0.2 7.9-0.1 7.9 0.1 0 0.4-3.5 0.6-7.9 0.2-4.4 0.2-7.9 0.1-7.9z"/>
											</g>
										</g>
									</g>
								</g>
								<g id="&lt;Group&gt;">
									<g id="&lt;Group&gt;">
										<g id="&lt;Group&gt;">
											<g id="&lt;Group&gt;">
												<path id="&lt;Path&gt;" class="s5" d="m636.3 923.2c0 0.1 2.5 0.6 5.6 0.7 3.2 0.1 5.7-0.1 5.7-0.3 0-0.1-2.5 0-5.6-0.1-3.1-0.2-5.6-0.4-5.7-0.3z"/>
											</g>
										</g>
									</g>
								</g>
								<g id="&lt;Group&gt;">
									<g id="&lt;Group&gt;">
										<g id="&lt;Group&gt;">
											<g id="&lt;Group&gt;">
												<path id="&lt;Path&gt;" class="s5" d="m628.8 922.9c-0.1 0.1 0.2 0.6 0.4 1.2 0.3 0.6 0.4 1.1 0.5 1.1 0.1 0 0.2-0.6 0-1.3-0.3-0.7-0.8-1-0.9-1z"/>
											</g>
										</g>
									</g>
								</g>
								<g id="&lt;Group&gt;">
									<g id="&lt;Group&gt;">
										<g id="&lt;Group&gt;">
											<g id="&lt;Group&gt;">
												<path id="&lt;Path&gt;" class="s5" d="m626.1 919.3c-0.1 0.1 0.1 0.5 0.5 0.9 0.4 0.4 0.8 0.7 0.9 0.6 0-0.1-0.2-0.5-0.6-0.9-0.4-0.4-0.7-0.7-0.8-0.6z"/>
											</g>
										</g>
									</g>
								</g>
								<g id="&lt;Group&gt;">
									<g id="&lt;Group&gt;">
										<g id="&lt;Group&gt;">
											<g id="&lt;Group&gt;">
												<path id="&lt;Path&gt;" class="s5" d="m622 917.6c0.1 0.1 0.6 0.1 1.1 0.3 0.6 0.2 1 0.6 1.1 0.5 0.1-0.1-0.2-0.6-0.9-0.9-0.7-0.3-1.3 0-1.3 0.1z"/>
											</g>
										</g>
									</g>
								</g>
								<g id="&lt;Group&gt;">
									<g id="&lt;Group&gt;">
										<g id="&lt;Group&gt;">
											<g id="&lt;Group&gt;">
												<path id="&lt;Path&gt;" class="s5" d="m619.2 916.7c-0.1 0.1 0.1 0.3 0.4 0.5 0.4 0.1 0.7 0.1 0.7 0 0.1-0.1-0.2-0.3-0.5-0.4-0.3-0.2-0.6-0.2-0.6-0.1z"/>
											</g>
										</g>
									</g>
								</g>
							</g>
						</g>
						<g id="&lt;Group&gt;" style="opacity: .3">
							<path id="&lt;Path&gt;" class="s8" d="m618.1 914.2l38.5 0.6v-4.7l-38.7 1.7z"/>
						</g>
					</g>
					<g id="&lt;Group&gt;">
						<g id="&lt;Group&gt;">
							<g id="&lt;Group&gt;">
								<g id="&lt;Group&gt;">
									<g id="&lt;Group&gt;">
										<g id="&lt;Group&gt;">
											<g id="&lt;Group&gt;">
												<path id="&lt;Path&gt;" class="s7" d="m717.2 921.5l-0.1-20.5-38.5-0.2-0.2 30.1 2.4 0.2c10.6 0.6 54 2.4 61.1 0.3 8-2.4-24.7-9.9-24.7-9.9z"/>
											</g>
										</g>
									</g>
								</g>
								<g id="&lt;Group&gt;" style="opacity: .4">
									<g id="&lt;Group&gt;">
										<g id="&lt;Group&gt;">
											<path id="&lt;Path&gt;" class="s2" d="m733.1 925.7c0 0 11.5 3.4 10.1 5.3-1.5 1.9-45.4 1.7-64.8-0.1v-0.9l51.3 0.7c0 0 1.2-4.9 3.4-5z"/>
										</g>
									</g>
								</g>
								<g id="&lt;Group&gt;">
									<g id="&lt;Group&gt;">
										<g id="&lt;Group&gt;">
											<g id="&lt;Group&gt;">
												<path id="&lt;Path&gt;" class="s5" d="m677.8 930q0 0 0.7 0.1 0.8 0 1.9 0.1 2.9 0.1 7 0.3c5.9 0.3 14.1 0.5 23.1 0.5 9 0.1 17.2 0 23.1-0.2q4.2-0.2 7-0.3 1.1 0 1.9-0.1 0.7 0 0.7-0.1 0 0-0.7 0-0.8 0-1.9 0-2.8 0.1-7 0.1c-5.9 0.1-14.1 0.2-23.1 0.2-9-0.1-17.2-0.2-23.1-0.4q-4.1-0.1-7-0.2-1.1 0-1.9 0-0.7 0-0.7 0z"/>
											</g>
										</g>
									</g>
								</g>
								<g id="&lt;Group&gt;">
									<g id="&lt;Group&gt;">
										<g id="&lt;Group&gt;">
											<g id="&lt;Group&gt;">
												<path id="&lt;Path&gt;" class="s5" d="m729.7 931.3c0.2 0 0.3-1.7 1.3-3.3 1.1-1.7 2.5-2.6 2.4-2.7 0-0.1-1.7 0.6-2.8 2.4-1.1 1.8-1 3.6-0.9 3.6z"/>
											</g>
										</g>
									</g>
								</g>
								<g id="&lt;Group&gt;">
									<g id="&lt;Group&gt;">
										<g id="&lt;Group&gt;">
											<g id="&lt;Group&gt;">
												<path id="&lt;Path&gt;" class="s5" d="m718.4 925.5c0.1 0 0.6-0.6 1.2-1.5 0.6-0.9 0.9-1.6 0.8-1.7-0.1-0.1-0.6 0.6-1.2 1.5-0.6 0.8-0.9 1.6-0.8 1.7z"/>
											</g>
										</g>
									</g>
								</g>
								<g id="&lt;Group&gt;">
									<g id="&lt;Group&gt;">
										<g id="&lt;Group&gt;">
											<g id="&lt;Group&gt;">
												<path id="&lt;Path&gt;" class="s5" d="m715.3 923.8c0 0.1 0.7-0.3 1.3-0.9 0.7-0.6 1.2-1.1 1.1-1.2-0.1-0.1-0.7 0.3-1.4 0.9-0.7 0.6-1.1 1.1-1 1.2z"/>
											</g>
										</g>
									</g>
								</g>
								<g id="&lt;Group&gt;">
									<g id="&lt;Group&gt;">
										<g id="&lt;Group&gt;">
											<g id="&lt;Group&gt;">
												<path id="&lt;Path&gt;" class="s5" d="m713.3 920.2c0 0.1 0.9 0.2 2 0.2 1.1 0.1 2 0 2-0.2 0-0.1-0.9-0.2-2-0.2-1.1 0-2 0-2 0.2z"/>
											</g>
										</g>
									</g>
								</g>
								<g id="&lt;Group&gt;">
									<g id="&lt;Group&gt;">
										<g id="&lt;Group&gt;">
											<g id="&lt;Group&gt;">
												<path id="&lt;Path&gt;" class="s5" d="m712.6 917.6c0 0.1 1 0.6 2.3 0.7 1.3 0.1 2.3-0.2 2.3-0.3 0-0.2-1-0.1-2.3-0.2-1.2-0.1-2.2-0.3-2.3-0.2z"/>
											</g>
										</g>
									</g>
								</g>
								<g id="&lt;Group&gt;">
									<g id="&lt;Group&gt;">
										<g id="&lt;Group&gt;">
											<g id="&lt;Group&gt;">
												<path id="&lt;Path&gt;" class="s5" d="m719.7 922.1c0 0.1 0.9 0.2 2.5 0 0.7-0.1 1.6-0.2 2.6-0.6 0.5-0.1 1-0.2 1.5-0.6 0.3-0.1 0.5-0.4 0.6-0.7 0.1-0.4-0.1-0.8-0.3-1-2.4-1.3-4.8 0.1-5.7 1.3-0.4 0.6-0.7 1.2-0.8 1.6-0.1 0.5-0.1 0.7 0 0.7 0 0 0.1-1 1.1-2.1 0.5-0.6 1.2-1.1 2.1-1.4 0.9-0.2 2.1-0.3 3 0.2 0.4 0.3 0.2 0.8-0.2 1.1-0.4 0.2-1 0.4-1.4 0.5-1 0.4-1.8 0.6-2.6 0.7-1.5 0.3-2.4 0.2-2.4 0.3z"/>
											</g>
										</g>
									</g>
								</g>
								<g id="&lt;Group&gt;">
									<g id="&lt;Group&gt;">
										<g id="&lt;Group&gt;">
											<g id="&lt;Group&gt;">
												<path id="&lt;Path&gt;" class="s5" d="m720.3 922.3c0.1 0 0.4-0.7 0.3-1.8 0-0.5-0.2-1.2-0.6-1.8-0.5-0.5-1-1.3-2.1-1.2-0.6 0-0.9 0.7-0.8 1.1 0.1 0.4 0.3 0.8 0.5 1.1 0.3 0.6 0.7 1.1 1.1 1.5 0.8 0.8 1.4 1.1 1.4 1 0.1-0.1-0.5-0.4-1.1-1.2-0.4-0.4-0.7-0.9-1.1-1.5-0.3-0.5-0.5-1.5 0.1-1.6 0.6 0 1.2 0.6 1.6 1.1 0.4 0.5 0.6 1.1 0.7 1.6 0.2 1 0 1.6 0 1.7z"/>
											</g>
										</g>
									</g>
								</g>
								<g id="&lt;Group&gt;">
									<g id="&lt;Group&gt;">
										<g id="&lt;Group&gt;">
											<g id="&lt;Group&gt;">
												<path id="&lt;Path&gt;" class="s5" d="m678.7 919.5c0 0.1 1.1-0.1 2.8 0.1 1.7 0.2 4.1 0.9 6.2 2.6 2.1 1.6 3.3 3.8 3.9 5.5 0.5 1.6 0.6 2.7 0.7 2.7 0 0 0-0.3 0-0.8-0.1-0.4-0.2-1.2-0.4-2-0.5-1.7-1.7-4-3.9-5.8-2.2-1.7-4.7-2.4-6.5-2.5-0.9-0.1-1.6-0.1-2.1 0-0.5 0.1-0.7 0.1-0.7 0.2z"/>
											</g>
										</g>
									</g>
								</g>
								<g id="&lt;Group&gt;">
									<g id="&lt;Group&gt;">
										<g id="&lt;Group&gt;">
											<g id="&lt;Group&gt;">
												<path id="&lt;Path&gt;" class="s5" d="m682.7 903.5c-0.1 0-0.3 3.5-0.3 7.9-0.1 4.3-0.1 7.9 0.1 7.9 0.1 0 0.2-3.5 0.3-7.9 0.1-4.4 0.1-7.9-0.1-7.9z"/>
											</g>
										</g>
									</g>
								</g>
								<g id="&lt;Group&gt;">
									<g id="&lt;Group&gt;">
										<g id="&lt;Group&gt;">
											<g id="&lt;Group&gt;">
												<path id="&lt;Path&gt;" class="s5" d="m697.2 926.9c0 0.1 2.5 0.6 5.6 0.6 3.1 0 5.7-0.3 5.7-0.4-0.1-0.2-2.6 0-5.7-0.1-3.1 0-5.6-0.2-5.6-0.1z"/>
											</g>
										</g>
									</g>
								</g>
								<g id="&lt;Group&gt;">
									<g id="&lt;Group&gt;">
										<g id="&lt;Group&gt;">
											<g id="&lt;Group&gt;">
												<path id="&lt;Path&gt;" class="s5" d="m689.6 926.9c0 0.1 0.3 0.5 0.5 1.1 0.3 0.6 0.4 1.1 0.5 1.1 0.2 0 0.2-0.6-0.1-1.3-0.3-0.7-0.8-1-0.9-0.9z"/>
											</g>
										</g>
									</g>
								</g>
								<g id="&lt;Group&gt;">
									<g id="&lt;Group&gt;">
										<g id="&lt;Group&gt;">
											<g id="&lt;Group&gt;">
												<path id="&lt;Path&gt;" class="s5" d="m686.8 923.3c-0.1 0.1 0.2 0.5 0.6 0.9 0.4 0.4 0.8 0.7 0.9 0.6 0-0.1-0.2-0.5-0.6-0.9-0.4-0.4-0.8-0.7-0.9-0.6z"/>
											</g>
										</g>
									</g>
								</g>
								<g id="&lt;Group&gt;">
									<g id="&lt;Group&gt;">
										<g id="&lt;Group&gt;">
											<g id="&lt;Group&gt;">
												<path id="&lt;Path&gt;" class="s5" d="m682.8 921.7c0 0.1 0.5 0.1 1.1 0.3 0.5 0.2 0.9 0.5 1 0.4 0.1 0-0.2-0.6-0.9-0.8-0.7-0.3-1.3 0-1.2 0.1z"/>
											</g>
										</g>
									</g>
								</g>
								<g id="&lt;Group&gt;">
									<g id="&lt;Group&gt;">
										<g id="&lt;Group&gt;">
											<g id="&lt;Group&gt;">
												<path id="&lt;Path&gt;" class="s5" d="m679.9 920.9c-0.1 0.1 0.1 0.3 0.5 0.5 0.3 0.1 0.6 0.1 0.6 0 0.1-0.2-0.2-0.4-0.5-0.5-0.3-0.1-0.6-0.1-0.6 0z"/>
											</g>
										</g>
									</g>
								</g>
							</g>
						</g>
						<g id="&lt;Group&gt;" style="opacity: .3">
							<path id="&lt;Path&gt;" class="s8" d="m678.7 918.4l38.5-0.4v-4.7l-38.8 2.7z"/>
						</g>
					</g>
					<g id="&lt;Group&gt;">
						<g id="&lt;Group&gt;">
							<path id="&lt;Path&gt;" class="s9" d="m632.1 569.6l15.5 46.4c4.1 12.6 15.1 14.7 28.3 14.7h85.8v-19.2l-78.4-11.2-18.7-47.7z"/>
						</g>
						<g id="&lt;Group&gt;">
							<g id="&lt;Group&gt;">
								<path id="&lt;Path&gt;" class="s9" d="m771.1 607.5l6.8-3.3c0 0 7.4-14.1 9-13.6 1.7 0.6 2.2 4.8-0.7 11.3l9-2.6c0 0 19.6 9.1 18.8 10.3-0.9 1.2-2.5 4.1-6.8 1.9-4.3-2.2-9.9-4.7-9.9-4.7l-10.5 3 13.6 1.7 12.8 11.7c0 0-4.2 3.1-7.8-0.2l-33.3 7.1-10.4 0.6v-19.2z"/>
							</g>
							<g id="&lt;Group&gt;">
								<g id="&lt;Group&gt;">
									<path id="&lt;Path&gt;" class="s10" d="m805.4 623c-0.2 0.1-0.8-0.9-2-2.2-0.6-0.7-1.4-1.3-2.4-1.9-1-0.5-2.2-0.8-3.6-0.9-5.5-0.7-10-1.5-10-1.7 0.1-0.3 4.6 0 10.1 0.6 1.4 0.2 2.8 0.5 4 1.2 1.1 0.6 1.9 1.4 2.5 2.2 1.1 1.5 1.5 2.6 1.4 2.7z"/>
								</g>
							</g>
							<g id="&lt;Group&gt;">
								<g id="&lt;Group&gt;">
									<path id="&lt;Path&gt;" class="s10" d="m800.2 624.3c-0.2 0-0.3-0.7-1.2-0.9-0.9-0.2-2.5-0.3-4-0.5-3.2-0.3-5.9-0.3-5.9-0.6 0-0.3 2.7-0.8 6-0.4 1.6 0.1 3.1 0.4 4.2 0.8 0.5 0.3 0.9 0.7 1 1.1 0.1 0.3-0.1 0.5-0.1 0.5z"/>
								</g>
							</g>
						</g>
					</g>
					<g id="&lt;Group&gt;">
						<g id="&lt;Group&gt;">
							<g id="&lt;Group&gt;">
								<g id="&lt;Group&gt;">
									<g id="&lt;Group&gt;">
										<g id="&lt;Group&gt;">
											<g id="&lt;Group&gt;">
												<path id="&lt;Path&gt;" class="s9" d="m559.7 378.6l-4.6 94.4 40.4 3.8 2.2-22.9c0 0 14.2 3.5 18.6-9.7 2.7-8.4 5.2-74.3 5.2-74.3z"/>
											</g>
										</g>
										<g id="&lt;Group&gt;">
											<g id="&lt;Group&gt;">
												<path id="&lt;Path&gt;" class="s5" d="m625 380.9c1.1 8.8-11.2 13.9-11.2 13.9l-2.2 20.9c-1.7-0.3-5.8 0-5.8 0 1-9.8-11.6-7.9-12.9-1.2-1.2 6.4 6.1 10.7 6.1 10.7-5 7.7-7.1 11.8-14.3 19.1-7.7 7.8-11.9 8.5-19.9 8.2l-8.8-0.4c0 0-3.2-7.5-5.5-25.3-1.1-8.6-7.8-19.8-5.9-33.7 5.4-39.6 43.4-35.4 43.4-35.4 19.6 0.5 34.4 2.7 37 23.2z"/>
											</g>
										</g>
									</g>
								</g>
							</g>
							<g id="&lt;Group&gt;">
								<path id="&lt;Path&gt;" class="s5" d="m595.9 358.8c8.6 0.2 17.5 0.9 25 5 7.5 4.1 13.3 12.6 11.8 21q-2.2 0.4-4.3 0.8-0.9-1.6-1.8-3.2 0 2.5 0.1 5-3.8 1.1-7.6 2.1c-1.1-6.4-3.4-12.6-6.6-18.2"/>
							</g>
						</g>
						<g id="&lt;Group&gt;">
							<g id="&lt;Group&gt;">
								<path id="&lt;Path&gt;" class="s6" d="m561.3 402.2c0 0-0.3-0.5-0.6-1.5-0.4-0.9-0.8-2.4-1.1-4.3-0.7-3.6-0.8-9 0.9-14.5 1.8-5.5 4.8-9.9 7.4-12.5 1.3-1.4 2.5-2.4 3.3-3 0.9-0.6 1.4-0.9 1.4-0.8 0.1 0.1-1.7 1.5-4.1 4.3-2.4 2.7-5.3 7-7 12.3-1.6 5.4-1.6 10.5-1.2 14.1 0.4 3.7 1.2 5.9 1 5.9z"/>
							</g>
						</g>
						<g id="&lt;Group&gt;">
							<g id="&lt;Group&gt;">
								<path id="&lt;Path&gt;" class="s6" d="m569.3 398.9c-0.1 0.1-0.9-1.7-1.6-4.8-0.7-3.1-1.2-7.5-0.8-12.3 0.4-4.8 1.7-9.1 2.9-12 1.2-2.9 2.3-4.5 2.4-4.5 0.4 0.2-3.5 7.1-4.2 16.6-0.9 9.5 1.6 17 1.3 17z"/>
							</g>
						</g>
						<g id="&lt;Group&gt;">
							<g id="&lt;Group&gt;">
								<path id="&lt;Path&gt;" class="s6" d="m620.9 384.3c-0.2 0-0.6-2.5-2.2-6.1-1.6-3.5-4.8-8.2-9.8-11.6-4.9-3.3-10.4-4.5-14.4-4.7-3.9-0.2-6.3 0.4-6.4 0.2 0 0 0.6-0.2 1.7-0.5 1.1-0.2 2.7-0.4 4.8-0.4 4-0.1 9.7 1.1 14.9 4.6 5.2 3.5 8.4 8.4 9.9 12.2 0.7 1.8 1.1 3.4 1.3 4.5 0.2 1.2 0.2 1.8 0.2 1.8z"/>
							</g>
						</g>
						<g id="&lt;Group&gt;">
							<g id="&lt;Group&gt;">
								<path id="&lt;Path&gt;" class="s5" d="m562.6 351.2c0-0.3 3.1 0.7 5.8 3.4 2.7 2.7 3.6 5.7 3.4 5.8-0.3 0.1-1.6-2.5-4.2-5.1-2.5-2.5-5.2-3.8-5-4.1z"/>
							</g>
						</g>
						<g id="&lt;Group&gt;">
							<g id="&lt;Group&gt;">
								<path id="&lt;Path&gt;" class="s6" d="m572 351.2c0.3 0.1-0.3 2.2-0.2 4.8 0.1 2.7 0.9 4.7 0.6 4.8-0.2 0.2-1.5-1.9-1.6-4.7-0.1-2.9 1-5 1.2-4.9z"/>
							</g>
						</g>
					</g>
					<g id="&lt;Group&gt;">
						<g id="&lt;Group&gt;">
							<g id="&lt;Group&gt;">
								<g id="&lt;Group&gt;">
									<g id="&lt;Group&gt;">
										<g id="&lt;Group&gt;">
											<g id="&lt;Group&gt;">
												<path id="&lt;Path&gt;" class="s7" d="m624.9 559.5l6.6 22.3 41.8-18.9c-1.5-4.7-8.4-25.6-21.6-58.6-7.4-18.5-23.9-31.8-43.5-35-13.7-2.3-28.6-4.1-40-4-23.5 0.3-58.1 15-62.7 38-3.6 17.6-0.2 48.6-0.2 86.3l3.1 72 120.3 4.1z"/>
											</g>
										</g>
									</g>
								</g>
							</g>
							<g id="&lt;Group&gt;" style="opacity: .3">
								<g id="&lt;Group&gt;">
									<path id="&lt;Path&gt;" class="s8" d="m505.5 572.9c14.6 3 29.6 0 44.6-0.9 9-0.5 19-1.5 26.2 4 5.7 4.4 8 11.9 9.6 18.9 6.2 26.6 7.4 44.5 8.8 71.8l-72.5 4.4z"/>
								</g>
							</g>
						</g>
						<g id="&lt;Group&gt;">
							<g id="&lt;Group&gt;">
								<path id="&lt;Path&gt;" class="s4" d="m648.1 497.4c0 0.3-31.6 0.5-70.5 0.5-39 0-70.6-0.2-70.6-0.5 0-0.3 31.6-0.6 70.6-0.6 38.9 0 70.5 0.3 70.5 0.6z"/>
							</g>
						</g>
						<g id="&lt;Group&gt;">
							<g id="&lt;Group&gt;">
								<path id="&lt;Path&gt;" class="s4" d="m656.9 517.6c0 0.3-34.3 0.5-76.7 0.5-42.4 0-76.7-0.2-76.7-0.5 0-0.3 34.3-0.5 76.7-0.5 42.4 0 76.7 0.2 76.7 0.5z"/>
							</g>
						</g>
						<g id="&lt;Group&gt;">
							<g id="&lt;Group&gt;">
								<path id="&lt;Path&gt;" class="s4" d="m667.9 542.9c0 0.3-36.6 0.6-81.8 0.6-45.2 0-81.8-0.3-81.8-0.6 0-0.2 36.6-0.5 81.8-0.5 45.2 0 81.8 0.3 81.8 0.5z"/>
							</g>
						</g>
						<g id="&lt;Group&gt;">
							<g id="&lt;Group&gt;">
								<path id="&lt;Path&gt;" class="s4" d="m624 570.3c0 0.3-11.5 0.5-25.6 0.5-14.1 0-25.6-0.2-25.6-0.5 0-0.3 11.5-0.5 25.6-0.5 14.1 0 25.6 0.2 25.6 0.5z"/>
							</g>
						</g>
						<g id="&lt;Group&gt;">
							<g id="&lt;Group&gt;">
								<path id="&lt;Path&gt;" class="s4" d="m626.3 599.9c0 0.3-11.9 0.5-26.7 0.3-14.8-0.1-26.8-0.4-26.8-0.7 0-0.3 12-0.4 26.8-0.3 14.8 0.1 26.7 0.5 26.7 0.7z"/>
							</g>
						</g>
						<g id="&lt;Group&gt;">
							<g id="&lt;Group&gt;">
								<path id="&lt;Path&gt;" class="s4" d="m627.5 624.1c0 0.1-0.8 0.1-2.1 0.1q-2.4 0-5.7-0.1c-4.9-0.1-11.6-0.3-18.9-0.3-7.4 0-14.1 0.2-18.9 0.3q-3.4 0-5.8 0.1c-1.3 0-2.1 0-2.1-0.1 0-0.1 0.7-0.2 2.1-0.3 1.3-0.2 3.3-0.3 5.7-0.5 4.9-0.3 11.6-0.5 19-0.5 7.4 0 14.1 0.3 18.9 0.6 2.4 0.1 4.4 0.3 5.7 0.4 1.4 0.1 2.1 0.2 2.1 0.3z"/>
							</g>
						</g>
						<g id="&lt;Group&gt;">
							<g id="&lt;Group&gt;">
								<path id="&lt;Path&gt;" class="s4" d="m627.1 643.6c0 0.3-11.8 0.5-26.3 0.5-14.6 0-26.4-0.2-26.4-0.5 0-0.3 11.8-0.5 26.4-0.5 14.5 0 26.3 0.2 26.3 0.5z"/>
							</g>
						</g>
						<g id="&lt;Group&gt;">
							<g id="&lt;Group&gt;">
								<path id="&lt;Path&gt;" class="s4" d="m630.7 477.5c0 0.3-23.2 0.6-51.7 0.6-28.6 0-51.8-0.3-51.8-0.6 0-0.2 23.2-0.5 51.8-0.5 28.5 0 51.7 0.3 51.7 0.5z"/>
							</g>
						</g>
						<g id="&lt;Group&gt;">
							<g id="&lt;Group&gt;">
								<path id="&lt;Path&gt;" class="s5" d="m628 481.3c0 0.1-1.2 0.2-3.2 1-2 0.8-4.7 2.5-7 5.6-2.3 3-3.8 7.5-4.1 12.5-0.4 5.1 0.4 10.7 1.3 16.5 1.8 11.7 4.6 22 6.7 29.5 1 3.6 1.8 6.6 2.4 8.9 0.6 2.1 0.8 3.2 0.8 3.2-0.1 0.1-0.5-1.1-1.2-3.1-0.7-2.1-1.6-5.1-2.7-8.8-2.2-7.4-5.2-17.8-7.1-29.5-0.8-5.9-1.6-11.6-1.2-16.8 0.4-5.1 2.1-9.8 4.5-12.9 2.5-3.1 5.3-4.8 7.4-5.5 1.1-0.4 1.9-0.5 2.5-0.6q0.8 0 0.9 0z"/>
							</g>
						</g>
						<g id="&lt;Group&gt;">
							<g id="&lt;Group&gt;">
								<path id="&lt;Path&gt;" class="s5" d="m672 557.1c0.1 0.2-2.1 1.5-5.9 3.4-3.7 2-8.9 4.5-14.7 7.2-5.9 2.6-11.2 4.8-15.2 6.3-3.9 1.5-6.4 2.3-6.4 2.2-0.1-0.1 2.3-1.2 6.2-2.9 3.8-1.6 9.1-3.9 14.9-6.6 5.9-2.6 11.1-5.1 14.9-6.8 3.8-1.8 6.2-2.9 6.2-2.8z"/>
							</g>
						</g>
					</g>
					<g id="&lt;Group&gt;">
						<g id="&lt;Group&gt;">
							<path id="&lt;Path&gt;" class="s5" d="m545.6 662.7l143.8 5.1c23.3 0.8 41.7 20.2 41.3 43.5l-5.9 205.3-55.6-1.8 4.2-192.2-127.8-3.4z"/>
						</g>
						<g id="&lt;Group&gt;">
							<path id="&lt;Path&gt;" class="s5" d="m486.2 662.7l143.8 5.1c23.3 0.8 41.7 20.2 41.3 43.5l-5.9 205.3-56.3-4.4 4.9-189.6-127.8-3.4z"/>
						</g>
					</g>
					<g id="&lt;Group&gt;">
						<g id="&lt;Group&gt;">
							<g id="&lt;Group&gt;">
								<g id="&lt;Group&gt;">
									<path id="&lt;Path&gt;" class="s6" d="m593.8 906.7h-14.1v-169.4h14.1z"/>
								</g>
								<g id="&lt;Group&gt;">
									<g id="&lt;Group&gt;">
										<path id="&lt;Path&gt;" class="s6" d="m461 572.9v124.7c0 16.3 13.3 29.6 29.6 29.6h83.1v-154.3c0-7.3-5.9-13.2-13.2-13.2h-86.3c-7.3 0-13.2 5.9-13.2 13.2z"/>
									</g>
									<g id="&lt;Group&gt;">
										<path id="&lt;Path&gt;" class="s6" d="m685.5 737.3h-202.3c0-12.1 9.9-21.9 22-21.9h158.3c12.1 0 22 9.8 22 21.9z"/>
									</g>
								</g>
								<g id="&lt;Group&gt;">
									<g id="&lt;Group&gt;">
										<path id="&lt;Path&gt;" class="s5" d="m573.7 712.4q0 0.1 0.1 1c0 0.6-0.1 1.6-0.4 2.7-0.5 2.3-1.9 5.8-5.4 8.4-1.7 1.3-3.9 2.5-6.4 2.9-2.6 0.4-5.2 0.2-8 0.3-5.6 0-11.7 0-18.2 0-12.9 0.1-24.6 0-33-0.1-4.1 0-7.5-0.1-10-0.1q-1.6-0.1-2.7-0.1-1-0.1-1-0.1 0-0.1 1-0.1 1.1-0.1 2.7-0.1c2.5-0.1 5.9-0.1 10-0.2 8.4-0.1 20.1-0.2 33-0.2 6.5 0 12.6 0 18.2 0 2.8 0 5.5 0.2 7.8-0.2 2.4-0.3 4.5-1.4 6.2-2.6 3.3-2.4 4.8-5.7 5.4-7.9 0.6-2.2 0.6-3.6 0.7-3.6z"/>
									</g>
								</g>
								<g id="&lt;Group&gt;">
									<g id="&lt;Group&gt;">
										<path id="&lt;Path&gt;" class="s5" d="m599.2 737.7c0 0.3-5.6 0.6-12.5 0.6-6.8 0-12.4-0.3-12.4-0.6 0-0.2 5.6-0.5 12.4-0.5 6.9 0 12.5 0.3 12.5 0.5z"/>
									</g>
								</g>
							</g>
							<g id="&lt;Group&gt;">
								<g id="&lt;Group&gt;">
									<path id="&lt;Path&gt;" class="s6" d="m660.7 728.3c-0.2 0-0.6-2.1-1.3-6-0.6-3.8-1.5-9.4-2.6-16.3-1.2-6.9-1.8-15.2-5.6-23.4-1.9-4.2-4.4-8.2-7.5-12-3.2-3.8-7-7.3-11.3-10.2-4.3-2.9-9-5.2-13.7-6.6-4.7-1.4-9.4-2.3-13.9-2.4-9.2-0.2-17.5-0.2-24.5-0.3-7-0.1-12.6-0.2-16.5-0.3-3.9-0.2-6.1-0.3-6.1-0.4 0-0.2 2.2-0.3 6.1-0.4 3.9-0.2 9.5-0.3 16.5-0.4 7 0 15.2-0.2 24.5-0.1 4.7 0 9.6 0.9 14.5 2.4 4.9 1.4 9.8 3.7 14.2 6.8 4.5 3 8.5 6.6 11.7 10.6 3.2 3.9 5.8 8.2 7.7 12.5 0.5 1 0.9 2.1 1.3 3.2q0.3 0.8 0.6 1.6 0.2 0.8 0.4 1.6 0.5 1.6 0.9 3.2 0.3 1.6 0.6 3.1c0.7 4.1 1.1 7.9 1.5 11.3 0.9 6.9 1.6 12.6 2 16.4 0.5 3.9 0.6 6.1 0.5 6.1z"/>
								</g>
							</g>
						</g>
						<g id="&lt;Group&gt;">
							<path id="&lt;Path&gt;" class="s6" d="m648.6 922.1h-2c0-33.2-27-60.2-60.2-60.2-33.1 0-60.1 27-60.1 60.2h-2c0-34.3 27.9-62.2 62.1-62.2 34.3 0 62.2 27.9 62.2 62.2z"/>
						</g>
						<g id="&lt;Group&gt;">
							<path id="&lt;Path&gt;" class="s5" d="m534.6 925.2c0 5.1-4.2 9.3-9.3 9.3-5.2 0-9.4-4.2-9.4-9.3 0-5.2 4.2-9.4 9.4-9.4 5.1 0 9.3 4.2 9.3 9.4z"/>
						</g>
						<g id="&lt;Group&gt;">
							<path id="&lt;Path&gt;" class="s5" d="m657.4 923.9c0 5.1-4.2 9.3-9.3 9.3-5.2 0-9.4-4.2-9.4-9.3 0-5.2 4.2-9.3 9.4-9.3 5.1 0 9.3 4.1 9.3 9.3z"/>
						</g>
						<g id="&lt;Group&gt;">
							<g id="&lt;Group&gt;">
								<path id="&lt;Path&gt;" class="s6" d="m648 906.7c0 0.3-27.1 0.5-60.4 0.5-33.4 0-60.4-0.2-60.4-0.5 0-0.3 27-0.5 60.4-0.5 33.3 0 60.4 0.2 60.4 0.5z"/>
							</g>
						</g>
					</g>
				</g>
			</g>
		</g>
	</g>
	<g id="Plants">
		<g id="&lt;Group&gt;">
			<g id="&lt;Group&gt;">
				<g id="&lt;Group&gt;">
					<g id="&lt;Group&gt;">
						<path id="&lt;Path&gt;" class="s7" d="m441.6 517.5c3 1.8 5 5 5.8 8.4 0.8 3.4 0.5 7-0.3 10.4-1.5 6.5-6.1 12.8-10.8 17.6-5-5.5-5.3-14.2-5.2-18.6 0.2-7 4.8-19.5 10.5-17.8z"/>
					</g>
				</g>
				<g id="&lt;Group&gt;">
					<g id="&lt;Group&gt;">
						<path id="&lt;Path&gt;" class="s7" d="m441.5 565.7c-0.4-3.9 1.6-7.8 4.8-10 3.2-2.3 7.4-2.9 11.2-2.2 1.7 0.4 3.6 1.1 4.5 2.7 0.8 1.5 0.4 3.4-0.5 4.8-1 1.4-2.4 2.3-4 3.1-5.2 2.4-10.7 3.9-16 1.6z"/>
					</g>
				</g>
				<g id="&lt;Group&gt;">
					<g id="&lt;Group&gt;">
						<g id="&lt;Group&gt;">
							<path id="&lt;Path&gt;" class="s5" d="m433.1 580.3c-0.1 0 0.3-1.6 1.3-4.2 0.4-1.3 1.2-2.9 2.2-4.4 1-1.5 2.1-3.2 3.5-4.8 2.7-3.2 6.1-5.4 8.7-6.4 1.3-0.4 2.4-0.7 3.2-0.8 0.7-0.1 1.2-0.1 1.2 0 0 0.1-1.7 0.3-4.2 1.3-2.5 1.1-5.7 3.2-8.4 6.4-1.3 1.5-2.4 3.2-3.4 4.7-1.1 1.5-1.8 2.9-2.4 4.2-1 2.5-1.6 4.1-1.7 4z"/>
						</g>
					</g>
				</g>
				<g id="&lt;Group&gt;">
					<g id="&lt;Group&gt;">
						<g id="&lt;Group&gt;">
							<path id="&lt;Path&gt;" class="s5" d="m438.9 527.4c0.1 0 0.1 0.8 0 2.2-0.1 1.5-0.2 3.6-0.4 6.1-0.4 5.2-1 12.4-1.8 20.2-0.9 7.9-1.9 15-2.7 20.1-0.4 2.6-0.8 4.7-1 6.1-0.3 1.4-0.5 2.2-0.5 2.2-0.1 0 0-0.8 0.2-2.3q0.3-2.3 0.8-6c0.6-5.2 1.5-12.3 2.4-20.2 0.8-7.8 1.5-14.8 2.1-20.1q0.3-3.7 0.6-6.1c0.2-1.5 0.3-2.3 0.3-2.2z"/>
						</g>
					</g>
				</g>
				<g id="&lt;Group&gt;">
					<g id="&lt;Group&gt;">
						<path id="&lt;Path&gt;" class="s7" d="m432.8 567.3c-1.5-8.1-7.1-15.3-14.6-18.7-1.9-0.9-4.4-1.4-5.9 0-1.5 1.5-1.1 4-0.3 5.9 3.3 8.1 11.9 13.6 20.6 13.3"/>
					</g>
				</g>
				<g id="&lt;Group&gt;">
					<g id="&lt;Group&gt;">
						<g id="&lt;Group&gt;">
							<path id="&lt;Path&gt;" class="s5" d="m419.7 554.5c0 0 0.4 0.2 1 0.6 0.7 0.3 1.6 0.9 2.7 1.7 2.2 1.6 5.3 3.9 7.7 7.5 1.1 1.7 1.9 3.6 2.4 5.4 0.5 1.7 0.5 3.4 0.5 4.8 0 1.3-0.2 2.4-0.4 3.2-0.1 0.7-0.2 1.1-0.3 1.1-0.1 0 0.2-1.7 0.2-4.3-0.1-1.4-0.2-3-0.7-4.7-0.5-1.6-1.3-3.4-2.4-5.1-2.2-3.4-5.2-5.8-7.3-7.5-2.1-1.6-3.5-2.6-3.4-2.7z"/>
						</g>
					</g>
				</g>
			</g>
			<g id="&lt;Group&gt;">
				<g id="&lt;Group&gt;">
					<g id="&lt;Group&gt;">
						<path id="&lt;Path&gt;" class="s5" d="m432.1 630.7c-13.8 0-25-11.2-25-25v-25h50v25c0 13.8-11.2 25-25 25z"/>
					</g>
				</g>
				<g id="&lt;Group&gt;">
					<g id="&lt;Group&gt;">
						<g id="&lt;Group&gt;">
							<path id="&lt;Path&gt;" class="s1" d="m457.1 593q0 0-0.7 0.7-0.8 0.8-2 1.9c-2 1.6-4.5 3.8-7.6 6.5l-0.2 0.1-0.2-0.1c-4.2-2.5-9.1-5.5-14.5-8.7v-0.1h0.4c-4.9 3.2-9.5 6.2-13.5 8.8l-0.2 0.1-0.2-0.1c-3.3-2.7-6.1-4.9-8.3-6.5q-1.3-1.1-2.2-1.9-0.8-0.7-0.8-0.7 0 0 0.9 0.5 1 0.7 2.4 1.7c2.2 1.7 5 3.8 8.5 6.3h-0.4c3.9-2.6 8.5-5.6 13.4-8.8l0.2-0.2 0.2 0.1 0.1 0.1c5.3 3.2 10.2 6.2 14.4 8.8h-0.4c3.1-2.5 5.7-4.6 7.7-6.2q1.3-1.1 2.2-1.8 0.8-0.5 0.8-0.5z"/>
						</g>
					</g>
				</g>
				<g id="&lt;Group&gt;">
					<g id="&lt;Group&gt;">
						<g id="&lt;Group&gt;">
							<path id="&lt;Path&gt;" class="s1" d="m457.1 588q0 0-0.7 0.7-0.8 0.8-2 1.9c-2 1.6-4.5 3.8-7.6 6.5l-0.2 0.1-0.2-0.1c-4.2-2.5-9.1-5.5-14.5-8.7v-0.1h0.4c-4.9 3.2-9.5 6.2-13.5 8.8l-0.2 0.1-0.2-0.1c-3.3-2.7-6.1-4.9-8.3-6.5q-1.3-1.1-2.2-1.9-0.8-0.7-0.8-0.7 0 0 0.9 0.5 1 0.7 2.4 1.7c2.2 1.6 5 3.8 8.5 6.3h-0.4c3.9-2.6 8.5-5.6 13.4-8.8l0.2-0.2 0.2 0.1 0.1 0.1c5.3 3.2 10.2 6.2 14.4 8.8h-0.4c3.1-2.5 5.7-4.6 7.7-6.2q1.3-1.1 2.2-1.8 0.8-0.5 0.8-0.5z"/>
						</g>
					</g>
				</g>
				<g id="&lt;Group&gt;">
					<g id="&lt;Group&gt;">
						<g id="&lt;Group&gt;">
							<path id="&lt;Path&gt;" class="s1" d="m457.1 598.1q0 0-0.7 0.7-0.8 0.7-2 1.8c-2 1.7-4.5 3.9-7.6 6.5l-0.2 0.2-0.2-0.1c-4.2-2.6-9.1-5.5-14.5-8.7v-0.1h0.4c-4.9 3.2-9.5 6.2-13.5 8.8l-0.2 0.1-0.2-0.1c-3.3-2.7-6.1-4.9-8.3-6.5q-1.3-1.1-2.2-1.9-0.8-0.7-0.8-0.7 0-0.1 0.9 0.5 1 0.7 2.4 1.7c2.2 1.6 5 3.8 8.5 6.3h-0.4c3.9-2.6 8.5-5.6 13.4-8.9l0.2-0.1 0.2 0.1 0.1 0.1c5.3 3.2 10.2 6.2 14.4 8.8h-0.4c3.1-2.5 5.7-4.7 7.7-6.3q1.3-1 2.2-1.7 0.8-0.6 0.8-0.5z"/>
						</g>
					</g>
				</g>
			</g>
		</g>
		<g id="&lt;Group&gt;">
			<g id="&lt;Group&gt;">
				<g id="&lt;Group&gt;">
					<g id="&lt;Group&gt;">
						<g id="&lt;Group&gt;">
							<g id="&lt;Group&gt;">
								<path id="&lt;Path&gt;" class="s7" d="m1105.1 689.4c-10.3 1.7-15 14.4-14.1 24.9 0.9 10.5 5.2 20.7 4.1 31.1-1.5 13.3-11.5 24.5-12.7 37.8-1.3 15.6 9.7 29.5 13 44.9 1.7 7.5 1.4 15.4 4.2 22.5 4.7 12 18.5 19.7 31.2 17.5 12.7-2.3 22.9-14.3 23.2-27.2 0.2-12-7.2-23.4-6.3-35.4 0.6-8.8 5.8-17.2 4.7-26-1.3-10.5-11-18-14.5-28-3.4-10-0.1-21-1.3-31.6-2.1-18.8-12.6-32-31.5-30.5z"/>
							</g>
						</g>
					</g>
				</g>
				<g id="&lt;Group&gt;">
					<g id="&lt;Group&gt;">
						<g id="&lt;Group&gt;">
							<g id="&lt;Group&gt;">
								<path id="&lt;Path&gt;" class="s7" d="m1052.2 780.8c-1.8 17.5 6 38 14.9 53.1 9 15.1 23 27.2 39.2 34 1.8 0.7 4.1 1.4 5.6 0.1 1.3-1 1.4-2.8 1.4-4.4 0.2-18.4-5.8-36.8-16.7-51.6-11-14.8-26.8-25.9-44.4-31.2z"/>
							</g>
						</g>
					</g>
				</g>
				<g id="&lt;Group&gt;" style="opacity: .2">
					<g id="&lt;Group&gt;">
						<g id="&lt;Group&gt;">
							<g id="&lt;Group&gt;">
								<path id="&lt;Path&gt;" class="s8" d="m1052.2 780.8c-1.8 17.5 6 38 14.9 53.1 9 15.1 23 27.2 39.2 34 1.8 0.7 4.1 1.4 5.6 0.1 1.3-1 1.4-2.8 1.4-4.4 0.2-18.4-5.8-36.8-16.7-51.6-11-14.8-26.8-25.9-44.4-31.2z"/>
							</g>
						</g>
					</g>
				</g>
				<g id="&lt;Group&gt;">
					<g id="&lt;Group&gt;">
						<g id="&lt;Group&gt;">
							<g id="&lt;Group&gt;">
								<g id="&lt;Group&gt;">
									<path id="&lt;Path&gt;" class="s5" d="m1128.3 904.4q0 0-0.5-0.9-0.5-1.2-1.2-2.9c-1.1-2.5-2.6-6.1-4.6-10.5-4-8.8-9.9-20.8-17.4-33.6-7.5-12.8-15-23.8-20.7-31.6-2.9-3.9-5.3-7.1-6.9-9.2q-1.2-1.5-1.9-2.5-0.6-0.9-0.6-0.9 0 0 0.7 0.8 0.8 0.9 2.1 2.4c1.7 2 4.2 5.1 7.1 9 5.9 7.7 13.6 18.7 21.1 31.5 7.4 12.8 13.3 24.9 17.1 33.8 1.9 4.5 3.4 8.1 4.3 10.6q0.7 1.8 1.1 3 0.4 1 0.3 1z"/>
								</g>
							</g>
						</g>
					</g>
				</g>
				<g id="&lt;Group&gt;">
					<g id="&lt;Group&gt;">
						<g id="&lt;Group&gt;">
							<g id="&lt;Group&gt;">
								<g id="&lt;Group&gt;">
									<path id="&lt;Path&gt;" class="s5" d="m1117.1 737.8q0 0 0.2 1.7 0.1 1.8 0.3 4.8c0.3 4.3 0.7 10.3 1.2 17.7 0.9 15 2.2 35.6 3.8 58.4 1.6 22.8 3.2 43.5 4.4 58.4 0.5 7.4 1 13.4 1.3 17.7q0.2 3 0.4 4.8 0.1 1.7 0 1.7 0 0-0.2-1.7-0.2-1.7-0.6-4.8c-0.4-4.2-0.9-10.2-1.6-17.6-1.4-15-3.1-35.6-4.7-58.4-1.6-22.8-2.8-43.5-3.5-58.5-0.4-7.4-0.7-13.4-0.9-17.7q-0.1-3-0.1-4.8-0.1-1.7 0-1.7z"/>
								</g>
							</g>
						</g>
					</g>
				</g>
			</g>
			<g id="&lt;Group&gt;">
				<g id="&lt;Group&gt;">
					<g id="&lt;Group&gt;">
						<g id="&lt;Group&gt;">
							<path id="&lt;Path&gt;" class="s5" d="m1101 879.5h43.8v32.1c0 11.6-9.4 21-21 21-11.2 0-20.4-8.7-21-19.8z"/>
						</g>
					</g>
				</g>
			</g>
		</g>
	</g>
	<g id="Lamp">
		<g id="&lt;Group&gt;">
			<g id="&lt;Group&gt;">
				<g id="&lt;Group&gt;">
					<g id="&lt;Group&gt;">
						<g id="&lt;Group&gt;">
							<path id="&lt;Path&gt;" class="s7" d="m879.3 455.8l104.4 57.8-3.9 7.4-103.5-58.9z"/>
						</g>
					</g>
				</g>
				<g id="&lt;Group&gt;">
					<g id="&lt;Group&gt;">
						<g id="&lt;Group&gt;">
							<path id="&lt;Path&gt;" class="s7" d="m874.1 450.3l4.8-7.3 2.8 1.7-4.3 7.4z"/>
						</g>
					</g>
				</g>
				<g id="&lt;Group&gt;">
					<g id="&lt;Group&gt;">
						<g id="&lt;Group&gt;">
							<path id="&lt;Path&gt;" class="s7" d="m971.8 504.5l5.4 3-17.5 111.6-8.3 0.1z"/>
						</g>
					</g>
				</g>
				<g id="&lt;Group&gt;">
					<g id="&lt;Group&gt;">
						<g id="&lt;Group&gt;">
							<path id="&lt;Path&gt;" class="s7" d="m927.4 630.7c0 0 12.7-12.9 29.7-11.9 17.1 0.9 25.8 11.8 25.8 11.8z"/>
						</g>
					</g>
				</g>
			</g>
			<g id="&lt;Group&gt;">
				<g id="&lt;Group&gt;">
					<path id="&lt;Path&gt;" class="s7" d="m874.2 500.9l-41.3-23.9 11.9-20.6c6.6-11.5 21.2-15.4 32.6-8.8 11.5 6.6 15.4 21.2 8.8 32.6z"/>
				</g>
			</g>
		</g>
	</g>
</svg>