<svg version="1.2" xmlns="http://www.w3.org/2000/svg" viewBox="0 0 1000 1000" width="1000" height="1000">
	<title>4034734-ai</title>
	<style>
		.s0 { fill: #ebebeb } 
		.s1 { fill: #263238 } 
		.s2 { fill: #dbdbdb } 
		.s3 { fill: #ffffff } 
		.s4 { fill: #c7c7c7 } 
		.s5 { fill: #a6a6a6 } 
		.s6 { opacity: .1;fill: #a6a6a6 } 
		.s7 { fill: #ad6359 } 
		.s8 { fill:  #BA68C8 } 
		.s9 { fill: #37474f } 
		.s10 { fill: #000000 } 
		.s11 { fill: none;stroke: #f6a89f;stroke-linecap: round;stroke-linejoin: round;stroke-width: .4 } 
		.s12 { fill: #ff99ba } 
		.s13 { fill: #455a64 } 
		.s14 { opacity: .1;fill: #000000 } 
		.s15 { opacity: .3;fill: #000000 } 
		.s16 { opacity: .2;fill: #ffffff } 
		.s17 { opacity: .4;fill: #ffffff } 
		.s18 { fill: #f5f5f5 } 
	</style>
	<g id="Background Complete">
		<g id="&lt;Group&gt;">
			<path id="&lt;Compound Path&gt;" fill-rule="evenodd" class="s0" d="m758.4 521.1h-303.4v-436.5h303.4zm-295.4-8h287.4v-420.5h-287.4z"/>
			<path id="&lt;Path&gt;" class="s0" d="m607.5 517.1h-8v-422.4h8z"/>
			<g id="&lt;Group&gt;">
				<g id="&lt;Group&gt;">
					<path id="&lt;Path&gt;" class="s0" d="m765.6 111.9h-317.9v-11.2h317.9z"/>
					<path id="&lt;Path&gt;" class="s0" d="m765.6 124.4h-317.9v-11.1h317.9z"/>
					<path id="&lt;Path&gt;" class="s0" d="m765.6 136.9h-317.9v-11.1h317.9z"/>
					<path id="&lt;Path&gt;" class="s0" d="m765.6 149.5h-317.9v-11.2h317.9z"/>
					<path id="&lt;Path&gt;" class="s0" d="m765.6 162h-317.9v-11.1h317.9z"/>
					<path id="&lt;Path&gt;" class="s0" d="m765.6 174.5h-317.9v-11.1h317.9z"/>
					<path id="&lt;Path&gt;" class="s0" d="m765.6 187.1h-317.9v-11.2h317.9z"/>
					<path id="&lt;Path&gt;" class="s0" d="m765.6 199.6h-317.9v-11.1h317.9z"/>
					<path id="&lt;Path&gt;" class="s0" d="m765.6 212.1h-317.9v-11.1h317.9z"/>
				</g>
				<g id="&lt;Group&gt;">
					<g id="&lt;Group&gt;">
						<path id="&lt;Path&gt;" class="s1" d="m741.8 315.3h-2v-216.8h2z"/>
						<path id="&lt;Path&gt;" class="s1" d="m744.4 324.6h-7.1l1.8-10.2h3.5z"/>
					</g>
					<g id="&lt;Group&gt;">
						<path id="&lt;Path&gt;" class="s1" d="m749.1 429.9h-2v-331.4h2z"/>
						<path id="&lt;Path&gt;" class="s1" d="m751.6 437.4h-7.1l1.8-10.2h3.5z"/>
					</g>
				</g>
				<path id="&lt;Path&gt;" class="s2" d="m778 106.3h-342.7v-23.3h342.7z"/>
			</g>
		</g>
		<g id="&lt;Group&gt;">
			<g id="&lt;Group&gt;">
				<path id="&lt;Path&gt;" class="s0" d="m301.4 355.5h-3v-2h1v-1h2z"/>
				<path id="&lt;Compound Path&gt;" class="s0" d="m294.4 355.5h-4.1v-2h4.1zm-8.1 0h-4.1v-2h4.1zm-8.1 0h-4.1v-2h4.1zm-8.1 0h-4v-2h4zm-8.1 0h-4v-2h4zm-8.1 0h-4v-2h4zm-8.1 0h-4v-2h4zm-8.1 0h-4v-2h4zm-8.1 0h-4v-2h4zm-8.1 0h-4v-2h4zm-8.1 0h-4v-2h4zm-8.1 0h-4v-2h4zm-8 0h-4.1v-2h4.1z"/>
				<path id="&lt;Path&gt;" class="s0" d="m189.2 355.5h-3v-3h2v1h1z"/>
				<path id="&lt;Compound Path&gt;" class="s0" d="m188.2 348.5h-2v-4.1h2zm0-8h-2v-4.1h2zm0-8.1h-2v-4h2zm0-8.1h-2v-4.1h2zm0-8.1h-2v-4h2zm0-8.1h-2v-4.1h2zm0-8.1h-2v-4h2zm0-8.1h-2v-4h2zm0-8.1h-2v-4.1h2zm0-8.1h-2v-4h2zm0-8.1h-2v-4.1h2zm0-8.1h-2v-4h2zm0-8.1h-2v-4h2z"/>
				<path id="&lt;Path&gt;" class="s0" d="m188.2 243.3h-2v-3h3v2h-1z"/>
				<path id="&lt;Compound Path&gt;" class="s0" d="m294.4 242.3h-4.1v-2h4.1zm-8.1 0h-4.1v-2h4.1zm-8.1 0h-4.1v-2h4.1zm-8.1 0h-4v-2h4zm-8.1 0h-4v-2h4zm-8.1 0h-4v-2h4zm-8.1 0h-4v-2h4zm-8.1 0h-4v-2h4zm-8.1 0h-4v-2h4zm-8.1 0h-4v-2h4zm-8.1 0h-4v-2h4zm-8.1 0h-4v-2h4zm-8 0h-4.1v-2h4.1z"/>
				<path id="&lt;Path&gt;" class="s0" d="m301.4 243.3h-2v-1h-1v-2h3z"/>
				<path id="&lt;Compound Path&gt;" class="s0" d="m301.4 348.5h-2v-4.1h2zm0-8h-2v-4.1h2zm0-8.1h-2v-4h2zm0-8.1h-2v-4.1h2zm0-8.1h-2v-4h2zm0-8.1h-2v-4.1h2zm0-8.1h-2v-4h2zm0-8.1h-2v-4h2zm0-8.1h-2v-4.1h2zm0-8.1h-2v-4h2zm0-8.1h-2v-4.1h2zm0-8.1h-2v-4h2zm0-8.1h-2v-4h2z"/>
			</g>
			<g id="&lt;Group&gt;">
				<path id="&lt;Path&gt;" class="s3" d="m194.2 361.6h-14.1v-14.1h14.1z"/>
				<path id="&lt;Compound Path&gt;" fill-rule="evenodd" class="s0" d="m195.2 362.6h-16.1v-16.1h16.1zm-14.1-2h12.1v-12.1h-12.1z"/>
			</g>
			<g id="&lt;Group&gt;">
				<path id="&lt;Path&gt;" class="s3" d="m194.2 305h-14.1v-14.2h14.1z"/>
				<path id="&lt;Compound Path&gt;" fill-rule="evenodd" class="s0" d="m195.2 306h-16.1v-16.2h16.1zm-14.1-2h12.1v-12.1h-12.1z"/>
			</g>
			<g id="&lt;Group&gt;">
				<path id="&lt;Path&gt;" class="s3" d="m194.2 248.3h-14.1v-14.1h14.1z"/>
				<path id="&lt;Compound Path&gt;" fill-rule="evenodd" class="s0" d="m195.2 249.3h-16.1v-16.1h16.1zm-14.1-2h12.1v-12.1h-12.1z"/>
			</g>
			<g id="&lt;Group&gt;">
				<path id="&lt;Path&gt;" class="s3" d="m307.5 361.6h-14.1v-14.1h14.1z"/>
				<path id="&lt;Compound Path&gt;" fill-rule="evenodd" class="s0" d="m308.5 362.6h-16.1v-16.1h16.1zm-14.1-2h12.1v-12.1h-12.1z"/>
			</g>
			<g id="&lt;Group&gt;">
				<path id="&lt;Path&gt;" class="s3" d="m307.5 305h-14.1v-14.2h14.1z"/>
				<path id="&lt;Compound Path&gt;" fill-rule="evenodd" class="s0" d="m308.5 306h-16.1v-16.2h16.1zm-14.1-2h12.1v-12.1h-12.1z"/>
			</g>
			<g id="&lt;Group&gt;">
				<path id="&lt;Path&gt;" class="s3" d="m307.5 248.3h-14.1v-14.1h14.1z"/>
				<path id="&lt;Compound Path&gt;" fill-rule="evenodd" class="s0" d="m308.5 249.3h-16.1v-16.1h16.1zm-14.1-2h12.1v-12.1h-12.1z"/>
			</g>
			<g id="&lt;Group&gt;">
				<path id="&lt;Path&gt;" class="s3" d="m250.9 248.3h-14.2v-14.1h14.2z"/>
				<path id="&lt;Compound Path&gt;" fill-rule="evenodd" class="s0" d="m251.9 249.3h-16.2v-16.1h16.2zm-14.2-2h12.2v-12.1h-12.2z"/>
			</g>
			<g id="&lt;Group&gt;">
				<path id="&lt;Path&gt;" class="s3" d="m250.9 361.6h-14.2v-14.1h14.2z"/>
				<path id="&lt;Compound Path&gt;" fill-rule="evenodd" class="s0" d="m251.9 362.6h-16.2v-16.1h16.2zm-14.2-2h12.2v-12.1h-12.2z"/>
			</g>
			<g id="&lt;Group&gt;">
				<path id="&lt;Compound Path&gt;" fill-rule="evenodd" class="s2" d="m245.2 311.4h-22.6l-8.8 24.6h8.5v2.2h-17.4v-2.2h5.3l29.1-78.4h9.4l28.8 78.4h5.2v2.2h-37.3v-2.2h8.1zm-21.6-2.5h20.7l-9.9-29.9z"/>
			</g>
		</g>
		<g id="&lt;Group&gt;">
			<g id="&lt;Group&gt;">
				<path id="&lt;Path&gt;" class="s0" d="m857.6 387.7c0 0-0.4 22.2-14.7 47.4h-20.1c-14.2-25.2-14.6-47.4-14.6-47.4 20.6-11.6 21.2-37.4 21.2-37.4h2v40.9c-2.8 0.6-4.8 3.1-4.8 6.1 0 3.5 2.8 6.3 6.3 6.3 3.5 0 6.3-2.8 6.3-6.3 0-3-2.1-5.5-4.9-6.1v-40.9h2.1c0 0 0.5 25.8 21.2 37.4z"/>
				<path id="&lt;Path&gt;" class="s4" d="m847.7 445.2h-29.6v-12.5h29.6z"/>
			</g>
			<path id="&lt;Path&gt;" class="s0" d="m901.7 417.1h-2c0-36.9-30-66.8-66.8-66.8-36.9 0-66.9 29.9-66.9 66.8h-2c0-38 30.9-68.8 68.9-68.8 37.9 0 68.8 30.8 68.8 68.8z"/>
			<path id="&lt;Path&gt;" class="s0" d="m900.7 349.4h-137.2v-2h137.2z"/>
			<g id="&lt;Group&gt;">
				<path id="&lt;Path&gt;" class="s3" d="m772.1 424.2h-14.1v-14.2h14.1z"/>
				<path id="&lt;Compound Path&gt;" fill-rule="evenodd" class="s0" d="m773.1 425.2h-16.1v-16.2h16.1zm-14.1-2h12.1v-12.1h-12.1z"/>
			</g>
			<g id="&lt;Group&gt;">
				<path id="&lt;Path&gt;" class="s3" d="m772.1 355.5h-14.1v-14.1h14.1z"/>
				<path id="&lt;Compound Path&gt;" fill-rule="evenodd" class="s0" d="m773.1 356.5h-16.1v-16.1h16.1zm-14.1-2h12.1v-12.1h-12.1z"/>
			</g>
			<g id="&lt;Group&gt;">
				<path id="&lt;Path&gt;" class="s3" d="m907.8 424.2h-14.1v-14.2h14.1z"/>
				<path id="&lt;Compound Path&gt;" fill-rule="evenodd" class="s0" d="m908.8 425.2h-16.1v-16.2h16.1zm-14.1-2h12.1v-12.1h-12.1z"/>
			</g>
			<g id="&lt;Group&gt;">
				<path id="&lt;Path&gt;" class="s3" d="m907.8 355.5h-14.1v-14.1h14.1z"/>
				<path id="&lt;Compound Path&gt;" fill-rule="evenodd" class="s0" d="m908.8 356.5h-16.1v-16.1h16.1zm-14.1-2h12.1v-12.1h-12.1z"/>
			</g>
		</g>
		<g id="&lt;Group&gt;">
			<path id="&lt;Path&gt;" class="s0" d="m130.4 571.2h-52.9v-22.4h52.9z"/>
			<path id="&lt;Path&gt;" class="s0" d="m100.9 599.4h-53v-22.3h53z"/>
			<path id="&lt;Path&gt;" class="s0" d="m922.5 599.4h-52.9v-22.3h52.9z"/>
			<path id="&lt;Path&gt;" class="s0" d="m893 162.5h-53v-22.4h53z"/>
			<path id="&lt;Path&gt;" class="s0" d="m922.5 190.7h-52.9v-22.4h52.9z"/>
			<path id="&lt;Path&gt;" class="s0" d="m130.4 162.5h-52.9v-22.4h52.9z"/>
		</g>
		<g id="&lt;Group&gt;">
			<g id="&lt;Group&gt;">
				<g id="&lt;Group&gt;">
					<path id="&lt;Path&gt;" class="s2" d="m768.1 716.5c0 0 33.9-7.7 52.4-24.8 18.6-17.1 28.9-47.7 28.9-47.7 0 0-19.9 3.7-37.9 10-3.1 3.2-8.8 9.9-11.5 16.2 0 0-0.6-6.7-0.1-11.6-4.8 2.2-9 4.7-12.1 7.3-15.3 13.5-19.7 50.6-19.7 50.6z"/>
					<g id="&lt;Group&gt;">
						<path id="&lt;Path&gt;" class="s5" d="m828.3 658.9c4.6-3.2 9.3-6.3 13.9-9.5 0.3-0.2 0-0.6-0.3-0.5-8.7 5.3-17.3 10.8-25.6 16.7q-4.4 3-8.6 6.3 0.3-0.5 0.6-1 1.6-2.6 3.2-5.1c2.1-3.3 4.5-6.6 7.2-9.6 0.1-0.1-0.1-0.2-0.2-0.1-2.6 3-5.3 6-7.7 9.3q-1.7 2.3-3.2 4.7-0.8 1.3-1.5 2.6-0.3 0.4-0.5 0.8c-4.4 3.5-8.7 7-12.7 10.8q-3.8 3.5-7.3 7.3c1.3-4.1 2.4-8.2 4-12.3 0-0.1-0.2-0.2-0.3 0-1.4 4.2-3 8.5-4.2 12.8q-3.9 4.2-7.4 8.7 0.1-0.2 0.1-0.5 0.6-2.4 1.2-4.8c0.9-3.1 1.8-6.1 2.8-9.1 2.1-6.2 4.9-12.2 9.1-17.2 0.1-0.1-0.1-0.2-0.2-0.1-6.6 7.8-10.5 17.2-12.9 27q-0.6 2.2-1.1 4.4c-0.2 0.7-0.4 1.5-0.5 2.3q-1.5 2.1-3 4.2c-5.9 8.8-10.4 18.3-14.3 28.1-4.4 11-7.7 22.4-10.9 33.8 0 0.3 0.3 0.3 0.4 0.1 6.6-19.8 13.4-39.9 24.7-57.6q3.6-5.6 7.7-10.8c5.6-0.3 11.2-1.5 16.5-3.3 5.8-1.9 11.3-4.6 16.5-7.9 3-2 5.7-4.2 8.5-6.4 0.1-0.1 0-0.3-0.2-0.2-4.6 3.9-10.1 6.9-15.5 9.4-5.5 2.5-11.2 4.4-17.1 5.7-2.5 0.6-5 1-7.5 1.3q4.7-5.8 9.9-11.1c1.2-1.1 2.4-2.2 3.5-3.3 3.9-2.8 8.2-5.1 12.6-7.2 5.5-2.6 11-5.5 16.5-8.3 3-1.6 6.1-3.2 9.2-4.7 0.2-0.1 0.1-0.3-0.1-0.2-5.5 2.7-11.2 5.2-16.8 7.8-5.3 2.4-10.6 4.8-15.7 7.7q-0.3 0.2-0.7 0.4c4.6-4 9.4-7.8 14.2-11.5q6.8-5.1 13.7-9.9z"/>
						<path id="&lt;Path&gt;" class="s5" d="m826.4 676.4c-2.8 1.2-5.6 2.2-8.3 3.5-2.8 1.3-5.5 2.8-8.1 4.4-0.1 0.1 0 0.3 0.1 0.2 2.7-1.3 5.4-2.5 8.1-3.8 2.7-1.4 5.4-2.9 8.2-4.1 0.2-0.1 0.1-0.3 0-0.2z"/>
					</g>
				</g>
				<g id="&lt;Group&gt;">
					<path id="&lt;Path&gt;" class="s2" d="m658.1 545.9c0 0 9.5 10.9 10.1 28.1 0.2 3-0.3 7.3-0.7 12.3 12.7 6.7 22.1 18.8 22.1 18.8-7.1-4.3-17-6-22.3-5.3 0.2 3.3 0.6 6.7 1.3 10.1 2.3-0.1 6.9 0.2 14.3 2.8 0 0-7.3-0.1-12.9 2.6 6 19.2 24 38.9 73.5 47.3 0 0 9.6-33.6-8.8-69.7-14.8-29.2-76.6-47-76.6-47z"/>
					<g id="&lt;Group&gt;">
						<path id="&lt;Path&gt;" class="s5" d="m760.7 744.8q-1.3-12.3-3.3-24.6c-2.5-16.3-5.8-32.5-9.9-48.4-2-7.6-4.4-15-7.2-22.1 0.2-1.3 0.2-2.7 0.2-4q0-2.4 0-4.8 0-4.7-0.4-9.5c-0.6-6.2-1.5-12.5-3.1-18.5-0.9-3.6-1.9-7-3-10.5 0-0.2-0.2-0.1-0.2 0 1.8 6.1 2.8 12.4 3.7 18.6q1.3 9.2 1.6 18.6 0.1 2.5 0.1 5.1 0 1.1 0 2.2c-2.5-5.9-5.2-11.7-8.4-17.3-5-8.9-10.7-17.3-16.9-25.4 0-0.9-0.3-1.9-0.4-2.8q-0.4-1.6-0.8-3.3-0.7-3.4-1.7-6.7c-1.2-4.5-2.8-8.8-4.2-13.3-0.1-0.1-0.3-0.1-0.2 0.1 1.3 4.4 2.1 8.9 3.1 13.4q0.8 3.3 1.5 6.6 0.4 1.7 0.7 3.3 0 0.2 0.1 0.3-3-3.8-6.2-7.5c-9.4-11.1-19.8-21.3-30.2-31.5-1.3-1.2-2.6-2.4-3.9-3.7-0.1-0.1-0.3 0.1-0.2 0.2 10 10.4 19.8 20.9 29.1 32q3.3 3.9 6.5 7.9-1.7-1.1-3.4-2.2c-2.8-1.9-5.8-3.8-8.8-5.4-3-1.7-6-3.4-9.1-4.9-3.2-1.6-6.6-2.9-9.6-4.6-0.2-0.1-0.3 0.1-0.1 0.2 3.1 1.3 6.1 3.2 9 5 3 1.8 6 3.6 9 5.4 2.9 1.9 5.8 3.7 8.7 5.6 2.4 1.5 4.8 3.3 7.3 4.7 5.7 7.4 11.1 15.1 15.9 23.1q4.5 7.6 8.2 15.6-0.9-0.4-1.8-0.8-2.3-1-4.5-2-4.4-2-8.8-3.9c-5.6-2.4-11.2-4.6-16.6-7.2-3.1-1.5-6.1-3.1-8.9-5-0.2-0.1-0.3 0.1-0.1 0.2 10.1 7 21.5 12 32.7 16.9l4.9 2.2c1.3 0.6 2.7 1.2 4.1 1.8q5 11.1 8.3 22.9c4.6 15.8 8 31.8 10.8 47.9 2.9 16.2 4.8 32.5 6.3 48.9q0.2 3 0.6 6.1c0.1 0.8 1.3 0.8 1.3 0-0.1-8.4-1-16.7-1.8-24.9z"/>
						<path id="&lt;Path&gt;" class="s5" d="m730.5 608c-0.9-5.1-2.2-10-3.6-14.9 0-0.2-0.2-0.1-0.2 0.1 1.2 4.8 2.1 9.7 3.1 14.6q1.3 7.6 2.4 15.1c0 0.1 0.1 0.1 0.1 0q-0.4-7.5-1.8-14.9z"/>
						<path id="&lt;Path&gt;" class="s5" d="m709.2 621.6c-3.4-2.3-7.2-4.1-10.8-6q-2.7-1.4-5.5-2.7c-1.8-0.9-3.8-1.7-5.7-2.6-0.1-0.1-0.2 0.1-0.1 0.2 1.8 0.9 3.5 2 5.3 2.9q2.8 1.5 5.5 3c3.6 2 7.2 4.1 11 5.7 0.3 0.2 0.6-0.3 0.3-0.5z"/>
					</g>
				</g>
				<g id="&lt;Group&gt;">
					<path id="&lt;Path&gt;" class="s6" d="m768.7 657.9c0 0 31.4-7.5 45.7-28.5 13.8-20.1 18.2-54.3 18.6-57.3-0.6 2.7-7.1 32.6-28.4 46.6-16.3 10.6-32.1 19.4-35.9 39.2z"/>
					<path id="&lt;Path&gt;" class="s5" d="m797.6 603.7c-5.5 5.3-9.6 11.6-11.5 19.1 0 0 0.1 0.1 0.1 0 2.3-7 6.2-13.8 11.6-18.9 0.1-0.1-0.1-0.3-0.2-0.2z"/>
					<g id="&lt;Group&gt;">
						<path id="&lt;Path&gt;" class="s2" d="m768.7 657.9c0 0 31.4-7.5 45.7-28.5 13.8-20.1 18.2-54.3 18.6-57.3q0-0.2 0-0.2c0 0-15 21.3-30.8 26.8-15.8 5.4-38 24.3-33.5 59.2z"/>
						<path id="&lt;Path&gt;" class="s5" d="m827.5 583.6c-3 5.7-6 11.4-9.7 16.6-3.7 5.1-8 9.4-12.9 13.3-4.3 3.3-8.8 6.4-13.1 9.7q0.1-0.1 0.1-0.1 1.2-1.8 2.6-3.5c1.8-2.3 3.7-4.5 5.7-6.6 3.9-4.3 7.9-8.4 11.4-13 1.9-2.5 3.6-5.2 5-8.1 0.1-0.1-0.2-0.2-0.2 0-5.1 10.5-15.3 17.3-22.5 26.3q-1.6 1.9-2.9 3.9c-0.6 1-1.4 2.1-1.8 3.2-3.9 3.2-7.6 6.8-10.7 10.8 0.3-2 0.7-4.1 1.3-6.1 0.7-2.8 1.8-5.4 3.3-7.9 0.1-0.1-0.1-0.3-0.2-0.1-1.5 2.4-2.8 5.1-3.7 7.8-0.6 2.3-1 4.5-1.1 6.8q0 0 0 0c-1.6 2.1-3 4.3-4.2 6.6q0.1-1 0.3-2 1-4.7 2.2-9.3c1.6-6.2 3.8-12.3 7.5-17.7 0.1-0.1-0.1-0.2-0.2-0.1-3.6 5.3-6.4 11.2-8.3 17.3-1 3.1-1.8 6.2-2.5 9.3q-0.6 2.4-1 4.7c-0.1 0.8-0.3 1.6-0.4 2.4-3.2 6.8-5.5 14.1-7.3 21.3-3.2 12.9-5.2 26.3-6.7 39.6-1.5 13.9-2.3 28-2.1 42 0 1.8 0.1 3.6 0.2 5.3 0 0.5 0.7 0.5 0.7 0.1 0.3-7 0.5-14 0.9-20.9q0.7-10.4 1.8-20.8c1.5-13.6 3.6-27.2 6.5-40.5 2.6-11.5 5.9-23 12.1-33 3.2-5.1 6.9-9.5 11.3-13.5 4.4-3.9 9.2-7.4 13.9-11 4.6-3.7 9-7.6 12.6-12.2 4-5 7.1-10.6 10-16.2q1.1-2.1 2.2-4.2c0.1-0.2-0.1-0.3-0.1-0.2z"/>
						<path id="&lt;Path&gt;" class="s5" d="m822 588.2c-2 4.3-4.4 8.3-6.9 12.2-0.1 0.1 0 0.2 0.1 0.1 2.7-3.8 5-7.9 7.1-12.2 0-0.1-0.2-0.2-0.3-0.1z"/>
					</g>
				</g>
				<g id="&lt;Group&gt;">
					<path id="&lt;Path&gt;" class="s2" d="m653.8 644c0 0-0.5 44.5 26.1 57.4 26.6 12.8 40.9 2.1 59 6.4q0 0-0.1 0c-0.7-1.1-13.6-19.6-34.1-24.7-21.1-5.3-44.5-20.5-50.9-39.1z"/>
					<path id="&lt;Path&gt;" class="s6" d="m653.8 644c0 0-0.5 44.5 26.1 57.4 26.6 12.8 40.9 2.1 59 6.4q0 0-0.1 0c-0.7-0.4-13.9-7-30.2-8.9-16.8-2-48.9-13-54.8-54.9z"/>
					<g id="&lt;Group&gt;">
						<path id="&lt;Path&gt;" class="s5" d="m740.6 708.6c-3.2-2.8-6.7-5.3-10.6-7.1-0.5-0.3-1.1-0.5-1.7-0.8q-0.4-0.5-0.9-1-1.2-1.3-2.5-2.4c-1.7-1.4-3.5-2.7-5.4-3.9-4.4-2.5-9.2-4.4-13.7-6.8-0.1 0-0.3 0.2-0.1 0.2 2.2 1.2 4.4 2.5 6.5 3.7 2.1 1.3 4.3 2.4 6.4 3.8q2.7 1.7 5.2 3.9 0.7 0.6 1.4 1.3c-3-1-6-1.8-9-2.4-4.9-1-9.8-1.7-14.7-2.7q-3.6-0.8-7-1.9c-2.2-1.8-4.5-3.5-6.5-5.5-2.6-2.3-4.9-4.8-6.9-7.6-0.1-0.1-0.3 0-0.2 0.1 3.3 4.3 6.8 8.5 10.9 12.1q-1.7-0.7-3.4-1.4c-9.1-4.2-17.1-10.7-22.7-18.9-0.1-0.1-0.3 0-0.2 0.1 4.9 7.1 11.1 13.1 18.4 17.6 3.6 2.3 7.5 4.1 11.6 5.5 4.6 1.6 9.5 2.5 14.4 3.4 4.7 0.9 9.5 1.8 14.1 3.4 4.2 1.4 8.2 3.5 11.8 6.2 6.9 5.1 12.2 12.1 16 19.8 5 10.1 7.4 21.4 8.7 32.5 0.1 0.5 0.8 0.5 0.8 0-1.3-18.7-6.3-38.2-20.7-51.2z"/>
						<path id="&lt;Path&gt;" class="s5" d="m709.7 694.1c-1.3-2.1-3.3-3.7-5.4-5-2.6-1.4-4.8-3-6.6-5.3 0-0.2-0.2 0-0.1 0.1 1.6 2 3.5 3.7 5.7 5.1 2.3 1.5 4.7 2.9 6.3 5.2 0 0.1 0.2 0 0.1-0.1z"/>
					</g>
				</g>
			</g>
			<g id="&lt;Group&gt;">
				<g id="&lt;Group&gt;">
					<path id="&lt;Path&gt;" class="s0" d="m723.9 741.5l1.2 24.5 3.7 74.8h55.8l3.7-74.8 1.2-24.5z"/>
					<path id="&lt;Path&gt;" class="s2" d="m723.9 741.5l1.2 24.5h63.2l1.2-24.5z"/>
				</g>
				<path id="&lt;Path&gt;" class="s0" d="m719.9 754.6h73.6v-23.3h-73.6z"/>
			</g>
		</g>
	</g>
	<g id="Floor">
		<g id="&lt;Group&gt;">
			<path id="&lt;Path&gt;" class="s1" d="m133.5 841.5l91.6-0.5 91.6-0.1 183.3-0.4 183.3 0.3 91.6 0.2 91.6 0.5-91.6 0.5-91.6 0.2-183.3 0.3-183.3-0.3-91.6-0.2z"/>
		</g>
	</g>
	<g id="Shadows">
		<g id="&lt;Group&gt;">
			<path id="&lt;Path&gt;" class="s0" d="m260.7 912.3c0 9.4-39.6 17-88.5 17-48.9 0-88.6-7.6-88.6-17 0-9.4 39.7-17 88.6-17 48.9 0 88.5 7.6 88.5 17z"/>
			<path id="&lt;Path&gt;" class="s0" d="m820.9 910.9c0 17.4-143.7 31.5-320.9 31.5-177.2 0-320.9-14.1-320.9-31.5 0-17.3 143.7-31.4 320.9-31.4 177.2 0 320.9 14.1 320.9 31.4z"/>
		</g>
	</g>
	<g id="Character">
		<g id="&lt;Group&gt;">
			<g id="&lt;Group&gt;">
				<g id="&lt;Group&gt;">
					<g id="&lt;Group&gt;">
						<path id="&lt;Path&gt;" class="s4" d="m475.3 648.9l5.2 31 35 189.2h5.7l-25.5-189.2-3.8-31z"/>
					</g>
				</g>
				<path id="&lt;Path&gt;" class="s5" d="m491.9 648.9h-16.6l5.2 31h15.2z"/>
			</g>
			<g id="&lt;Group&gt;">
				<g id="&lt;Group&gt;">
					<g id="&lt;Group&gt;">
						<path id="&lt;Path&gt;" class="s4" d="m365.3 869.1h5.6l35.1-189.2 5.1-31h-16.6l-3.7 31z"/>
					</g>
				</g>
				<path id="&lt;Path&gt;" class="s5" d="m394.5 648.9l-3.7 31h15.2l5.1-31z"/>
			</g>
			<g id="&lt;Group&gt;">
				<g id="&lt;Group&gt;">
					<g id="&lt;Group&gt;">
						<path id="&lt;Path&gt;" class="s4" d="m260.2 869.1h5.6l35.1-189.2 5.2-31h-16.7l-3.7 31z"/>
					</g>
				</g>
				<path id="&lt;Path&gt;" class="s5" d="m285.7 679.9h15.2l5.2-31h-16.7z"/>
			</g>
			<path id="&lt;Path&gt;" class="s4" d="m269.2 663.4h256.7v-27h-96.1l-32.3-228h-118.6z"/>
			<path id="&lt;Path&gt;" class="s2" d="m284.1 636.4h241.8v27h-242.8z"/>
			<path id="&lt;Path&gt;" class="s2" d="m269.2 663.4h13.9l9.2-255h-13.4z"/>
		</g>
		<g id="&lt;Group&gt;">
			<g id="&lt;Group&gt;">
				<g id="&lt;Group&gt;">
					<g id="&lt;Group&gt;">
						<path id="&lt;Path&gt;" class="s7" d="m512.7 905.1c-5 0.5-140.9-31.9-145.2-36.3-0.5-0.5 2.1-12.8 6.1-29.7v-0.3c2.5-10.7 42.1-97.1 42.1-97.1l88.1 24.6-40 80.2c0 0 16.6 11.9 30.8 23.3q0 0 0 0c8.8 7 16.4 13.3 18 15.3 4.1 5.3 5.1 19.6 0.1 20z"/>
						<path id="&lt;Path&gt;" class="s0" d="m512.7 905.1c-5 0.5-140.9-31.9-145.2-36.3-0.5-0.5 2.1-12.8 6.1-29.7v-0.3c0.9-4 7-18.5 14.3-35.1 14.5 3.9 66.5 17.9 85.4 23.8l-9.5 19c0 0 16.6 11.9 30.8 23.3q0 0 0 0c8.8 7 16.4 13.3 18 15.3 4.1 5.3 5.1 19.6 0.1 20z"/>
						<g id="&lt;Group&gt;">
							<path id="&lt;Path&gt;" class="s8" d="m513.2 905.8c-5.2 0.4-141.2-32.3-145.6-36.8-1.7-1.8 1.3-23.2 8.8-46l87.6 21.3c0 0 44.8 35.4 49.1 40.9 4.3 5.5 5.2 20.1 0.1 20.6z"/>
							<g id="&lt;Group&gt;">
								<g id="&lt;Group&gt;">
									<path id="&lt;Path&gt;" class="s1" d="m512.5 899.9c-22.7-6.1-114.7-28.3-137.5-32.6-0.2 0-0.2 0.1-0.1 0.2 22.4 6.4 114.6 28 137.5 32.8 0.5 0.1 0.6-0.3 0.1-0.4z"/>
									<path id="&lt;Path&gt;" class="s1" d="m505.5 878.2c-5.3-1.5-11.2-0.2-14.9 2.3-3.6 2.4-7.1 6.2-8.1 10.9 0 0.2 0.3 0.2 0.3 0.1 3.5-8.6 13.5-14.5 22.7-13 0.2 0 0.2-0.3 0-0.3z"/>
									<path id="&lt;Path&gt;" class="s1" d="m470.6 848.3c-9.1-2.4-20.4-1.7-27.9 4.4-0.3 0.3 0.1 0.7 0.4 0.6 9.3-2.3 17.9-3.6 27.4-3.9 0.7 0 0.8-1 0.1-1.1z"/>
									<path id="&lt;Path&gt;" class="s1" d="m477 852.7c-9.1-2.3-20.4-1.6-27.9 4.5-0.3 0.2 0.1 0.6 0.4 0.5 9.2-2.2 17.8-3.5 27.4-3.8 0.7-0.1 0.8-1 0.1-1.2z"/>
									<path id="&lt;Path&gt;" class="s1" d="m483.4 857.2c-9.1-2.4-20.4-1.7-27.9 4.4-0.3 0.2 0 0.6 0.3 0.6 9.3-2.3 17.9-3.6 27.5-3.9 0.7 0 0.8-1 0.1-1.1z"/>
									<path id="&lt;Path&gt;" class="s1" d="m489.8 861.6c-9.1-2.3-20.5-1.7-27.9 4.4-0.3 0.3 0 0.7 0.3 0.6 9.3-2.3 17.9-3.5 27.5-3.8 0.7-0.1 0.7-1 0.1-1.2z"/>
									<path id="&lt;Path&gt;" class="s1" d="m386 847c-10.3-2.4-14.1 13.5-3.8 16 10.3 2.4 14.1-13.5 3.8-16z"/>
								</g>
								<path id="&lt;Compound Path&gt;" fill-rule="evenodd" class="s1" d="m482.4 839.5c-6.4 5.2-14.9 7.4-22.5 10.3-0.8 0.3-1.4-0.4-1.4-1.2-0.2 0-0.3-0.1-0.3-0.3 2.4-7.7 7.8-16 13.9-21.3 3.9-3.3 10.6-5.7 14.3-0.7 3.5 4.7-0.2 10.2-4 13.2zm2.3-7.5c1.4-10.1-9.3-4.6-12.1-2.1-1.7 1.6-3.3 3.5-4.8 5.3-3.1 3.9-5.6 8.2-8.4 12.3 3.7-1.6 7.4-3 11.1-4.5 4.4-1.8 13.3-5.4 14.2-11z"/>
								<path id="&lt;Compound Path&gt;" fill-rule="evenodd" class="s1" d="m427.2 834.7c2.2-5.8 9.3-5.4 13.9-3.4 7.4 3.4 14.8 9.8 19.3 16.6 0.2 0.1 0.1 0.3-0.1 0.4 0.2 0.6-0.2 1.5-1.1 1.5-8.1-0.7-16.8-0.4-24.5-3.6-4.4-1.8-9.5-6-7.5-11.5zm20 11.5c3.9 0.5 7.9 0.7 11.9 1.3-3.8-3.3-7.4-6.6-11.6-9.5-1.9-1.3-4-2.7-6.1-3.7-3.3-1.7-15.2-3.9-10.9 5.4 2.3 5.2 11.9 6 16.7 6.5z"/>
							</g>
						</g>
					</g>
					<g id="&lt;Group&gt;">
						<path id="&lt;Path&gt;" class="s9" d="m471.6 836l-93.6-25c0 0 82.2-170.6 75.6-179.9-3.3-4.7-91-8.7-118.2-33.2-35.3-31.8-9.6-78.1-9.6-78.1h98c0 0-1.8 20.5 2 23.7 2.4 2.1 118.9 15.4 130.5 55.2 14.3 48.8-84.7 237.3-84.7 237.3z"/>
						<g id="&lt;Group&gt;">
							<path id="&lt;Path&gt;" class="s1" d="m473.2 822.3c-2.4-1.3-5.1-2-7.7-2.9-2.7-1-5.4-1.9-8.1-2.8q-8.1-2.6-16.2-5c-11-3.2-22-6.3-33-9.1-5.7-1.5-18-4.8-18.8-4.7-0.4 0.1-0.5 0.7-0.1 0.8 10.6 3.9 21.4 7.2 32.2 10.6 10.8 3.3 21.7 6.7 32.6 9.5 3 0.8 6.1 1.5 9.1 2.2 3.2 0.8 6.4 1.8 9.7 2.1 0.3 0.1 0.6-0.5 0.3-0.7z"/>
						</g>
						<path id="&lt;Path&gt;" class="s1" d="m470.6 623.4c-1.9-1.7-4.9-2-7.3-2.5q-21.1-4.2-42.3-8.4c-13.1-2.6-26.4-5-39.5-7.9-10.8-2.4-21.8-5.6-31.1-11.8-9.2-6.2-15.5-15.3-18.5-25.8-3-10.5-2.9-21.7-1.5-32.4 0.3-2.6 0.9-5.2 1.4-7.8 0.1-0.2-0.2-0.3-0.3-0.1-4.2 20-5.2 43.3 9.4 59.8 7.1 8 17 12.9 27.2 16.1 11.5 3.7 23.6 5.7 35.5 8q21.1 4.2 42.2 8.4c6.8 1.3 13.6 2.4 20.3 4 1.3 0.3 2.8 0.8 3.7 1.8 1.2 1.4 0.8 3.3 0.4 4.9-0.7 3.3-1.7 6.6-2.8 9.8-8.5 26.2-68.2 150-69.8 152.9-0.1 0.3 0.3 0.5 0.5 0.2 13.7-22.7 58.1-118.4 67.4-143 2.4-6.4 4.6-12.7 6.2-19.3 0.5-2.4 0.9-5-1.1-6.9z"/>
					</g>
					<path id="&lt;Path&gt;" class="s1" d="m501.1 776l-61.9-99.6c10-24 16.4-42.4 14.4-45.3-1.6-2.3-23.2-4.4-48-8.8l-63.7-102.5h81.9c0 0-1.8 20.5 2 23.7 2.4 2.1 118.9 15.4 130.5 55.2 9.1 30.9-27.3 117.6-55.2 177.3z"/>
				</g>
				<g id="&lt;Group&gt;">
					<g id="&lt;Group&gt;">
						<path id="&lt;Path&gt;" class="s7" d="m652.7 915.2c-4.8 1.5-144.5-3.2-149.6-6.6-0.6-0.4-0.4-13 0.1-30.3v-0.4c0.3-10.9-0.3-104.6-0.3-104.6l87.4 1.8 2.7 92.4c0 0 18.7 8.4 34.9 16.7q0 0 0 0.1c10 5 18.7 9.7 20.6 11.4 5.2 4.3 9 18.1 4.2 19.5z"/>
						<path id="&lt;Path&gt;" class="s0" d="m652.7 915.2c-4.8 1.5-144.5-3.2-149.6-6.6-0.6-0.4-0.4-13 0.1-30.3v-0.4q0-1.1 0-2.3 0-0.8 0-1.7 0-1.2 0-2.5c0.1-7.3 0.1-19.1 0-32l89.1 2 0.7 26.1c0 0 18.7 8.4 34.9 16.7q0 0 0 0.1c10 5.1 18.7 9.7 20.6 11.4 5.2 4.3 9 18.1 4.2 19.5z"/>
						<g id="&lt;Group&gt;">
							<path id="&lt;Path&gt;" class="s8" d="m653.2 915.8c-4.9 1.5-144.7-3.6-149.9-7.1-2-1.4-3.4-23-0.6-46.8l90.2 3.4c0 0 50.9 25.8 56.2 30.3 5.3 4.5 9.1 18.7 4.1 20.2z"/>
							<g id="&lt;Group&gt;">
								<g id="&lt;Group&gt;">
									<path id="&lt;Path&gt;" class="s1" d="m651.4 910.1c-23.4-1.4-118-4.9-141.2-4.5-0.2 0-0.2 0.1 0 0.1 23.1 2 117.8 4.7 141.2 4.8 0.5 0 0.5-0.3 0-0.4z"/>
									<path id="&lt;Path&gt;" class="s1" d="m640.3 890.3c-5.6-0.5-11.1 2-14.2 5.2-3.1 3.1-5.7 7.4-5.7 12.3 0 0.1 0.2 0.2 0.3 0 1.6-9.1 10.3-16.9 19.6-17.2 0.2-0.1 0.2-0.3 0-0.3z"/>
									<path id="&lt;Path&gt;" class="s1" d="m600.1 867.9c-9.3-0.5-20.3 2.4-26.5 9.9-0.2 0.3 0.2 0.6 0.5 0.5 8.6-4.1 16.8-7 26.1-9.3 0.7-0.1 0.6-1.1-0.1-1.1z"/>
									<path id="&lt;Path&gt;" class="s1" d="m607.3 871c-9.4-0.5-20.4 2.4-26.5 9.9-0.2 0.3 0.2 0.6 0.5 0.5 8.6-4.1 16.8-7.1 26.1-9.3 0.6-0.1 0.5-1.1-0.1-1.1z"/>
									<path id="&lt;Path&gt;" class="s1" d="m614.4 874c-9.4-0.4-20.4 2.5-26.5 10-0.2 0.3 0.2 0.6 0.5 0.5 8.6-4.1 16.8-7.1 26.1-9.3 0.7-0.1 0.6-1.1-0.1-1.2z"/>
									<path id="&lt;Path&gt;" class="s1" d="m621.6 877.1c-9.4-0.4-20.4 2.5-26.5 10-0.3 0.2 0.2 0.6 0.4 0.4 8.7-4 16.9-7 26.2-9.2 0.6-0.2 0.5-1.1-0.1-1.2z"/>
									<path id="&lt;Path&gt;" class="s1" d="m516.9 883.5c-10.5-0.3-11.1 16.1-0.5 16.4 10.5 0.4 11.1-16 0.5-16.4z"/>
								</g>
								<path id="&lt;Compound Path&gt;" fill-rule="evenodd" class="s1" d="m609.9 856.9c-5.3 6.4-13.1 10.2-20 14.6-0.7 0.5-1.5-0.1-1.6-0.8-0.2 0-0.3-0.1-0.3-0.3 0.8-8.1 4.4-17.2 9.4-23.7 3-4 9.2-7.6 13.8-3.5 4.3 3.9 1.8 10-1.3 13.7zm0.7-7.7c-0.5-10.3-10-2.7-12.2 0.3-1.4 1.9-2.5 4.1-3.6 6.2-2.3 4.4-4 9.1-5.8 13.7 3.2-2.4 6.6-4.4 9.9-6.7 4-2.6 12-7.9 11.7-13.5z"/>
								<path id="&lt;Compound Path&gt;" fill-rule="evenodd" class="s1" d="m554.9 863.2c0.9-6.1 8-7.1 12.9-6 7.9 1.8 16.5 6.6 22.3 12.3 0.1 0.2 0 0.3-0.1 0.4 0.3 0.7 0.1 1.6-0.8 1.7-8 1-16.5 3-24.7 1.5-4.7-1-10.5-4.1-9.6-9.9zm21.8 7.4c4-0.4 7.9-1 11.9-1.2-4.3-2.4-8.6-5-13.1-6.9-2.2-1-4.5-1.9-6.8-2.5-3.6-1-15.7-0.8-9.6 7.5 3.3 4.6 12.9 3.5 17.6 3.1z"/>
							</g>
						</g>
					</g>
					<g id="&lt;Group&gt;">
						<path id="&lt;Path&gt;" class="s9" d="m598.3 854.4l-98.6-2.9c0 0 6.2-168-1.2-178.2-9.9-13.4-154.1-17.4-183.7-61.3-26.6-39.4-1.6-93.3-1.6-93.3h109.3c0 0-3.9 17.2-11.2 34 0 0 130.8 28.2 166.5 69.7 24 27.9 20.5 232 20.5 232z"/>
						<g id="&lt;Group&gt;">
							<path id="&lt;Path&gt;" class="s1" d="m430.8 545.8c-3.2 0.5-6.4 1.7-9.4 2.7q-4.7 1.7-9.3 3.8c-6.1 2.7-11.9 5.9-17.6 9.2-0.2 0.1 0 0.4 0.2 0.3 6-2.9 12.2-5.5 18.3-7.9q4.5-1.8 9-3.6c3-1.2 6.2-2.1 9-3.6 0.4-0.2 0.2-0.9-0.2-0.9z"/>
							<path id="&lt;Path&gt;" class="s1" d="m425 518.7c-1.4 4.9-2.6 9.9-4.2 14.8-0.7 2.3-1.4 4.6-2.3 6.7-0.8 1.9-2 3.9-4.1 4.3-2.5 0.4-3.2-1.7-2.9-3.8 0.3-2.2 0.9-4.5 1.4-6.7q1-3.9 1.8-7.8 0.4-1.9 0.8-3.8c0.1-0.4 0.4-2.9 0.6-3.6 0 0.1 0 0.2 0.1 0.1q0.1 0 0.1 0c0.1 0 0.2 0 0.2-0.1 0-0.2 0-0.2-0.2-0.4q-0.1 0-0.2 0c-0.5 0.3-0.5 0.9-0.7 1.4q-0.6 1.8-1.3 3.7-1.1 3.6-2.2 7.1-1 3.6-1.9 7.2c-0.5 1.8-1.1 3.7-0.7 5.5 0.5 2.1 2.1 3.1 3.8 3.3q-0.1 0.3-0.3 0.5c-0.2 0.5-0.4 1-0.6 1.5q-0.3 0.8-0.5 1.5-0.1 0.4-0.2 0.8c0 0.3 0 0.6 0 0.9-0.1 0.4 0.5 0.7 0.7 0.3 0.2-0.3 0.4-0.5 0.5-0.7 0.2-0.3 0.3-0.6 0.4-0.8q0.3-0.8 0.5-1.5c0.1-0.5 0.3-1 0.4-1.5q0.1-0.5 0.1-1c1.1 0 2.1-0.3 2.9-1 1.6-1 2.5-2.7 3.2-4.4 0.8-2.1 1.4-4.2 2.1-6.3 1.6-5.2 3-10.6 3.6-16 0.1-0.6-0.7-0.8-0.9-0.2z"/>
							<path id="&lt;Path&gt;" class="s1" d="m359.7 529c-0.5 2.4-0.8 4.9-1.5 7.3-0.6 2.4-1.3 4.8-2.2 7.1-0.8 2.2-1.8 4.4-3.2 6.3-1.4 1.9-3.2 3.5-5 4.8-3.6 2.7-7.6 4.8-11.9 6.2q-3.2 1.1-6.6 1.7-1.7 0.3-3.5 0.5c-0.9 0.1-1.9 0.1-2.8 0.6-0.4 0.2-0.3 0.8 0 1 1.5 0.7 3.6 0.4 5.2 0.3q2.8-0.2 5.6-0.8c3.7-0.9 7.3-2.3 10.6-4.1 3.2-1.8 6.5-4.1 8.9-6.9 2.5-2.9 4-6.4 5-10.1 1.2-4.5 2-9.3 1.9-13.9 0-0.3-0.4-0.3-0.5 0z"/>
							<path id="&lt;Path&gt;" class="s1" d="m517.2 738.4q-0.7-23.3-2.4-46.6c-0.3-3.8-0.6-7.6-0.9-11.4-0.3-3-0.7-6-1.7-8.8-2.1-5.8-6.8-8.9-12.6-10.6-6.9-1.9-14-3.2-21-4.5-7.1-1.4-14.3-2.6-21.4-3.9-14.6-2.4-29.1-4.7-43.6-7.6-14.3-2.9-28.6-6.3-42.5-10.9-12.8-4.3-25.9-9.5-36-18.8-21.6-19.9-21.5-52.2-17.9-79.1 0.5-3.8 1-7.6 1.6-11.4 0-0.2-0.3-0.3-0.3-0.1-2.2 15.2-4.7 30.4-3.6 45.8 0.8 12.5 4.1 25.2 11.1 35.8 7.2 11.1 18.1 18.4 30 23.6 13 5.7 26.7 9.7 40.5 13 28.6 6.9 58 10.3 86.8 16.1q5.3 1.1 10.7 2.3c3.2 0.7 6.5 1.4 9.5 2.9 6.5 3.1 8.1 9.6 8.8 16.2 1.4 15.5 2.2 31 2.9 46.5 1.3 31.2 1.6 62.5 0.6 93.8q-0.2 5.7-0.4 11.5c0 0.4 0.5 0.3 0.5 0 1.9-31.2 2.4-62.5 1.3-93.8z"/>
							<g id="&lt;Group&gt;">
								<path id="&lt;Path&gt;" class="s1" d="m594 842.4c-2.6-0.6-5.4-0.7-8.1-0.9-2.9-0.3-5.8-0.5-8.6-0.7q-8.5-0.6-17-0.9c-11.3-0.4-22.7-0.7-34.1-0.8-6 0-18.7-0.2-19.4 0.1-0.4 0.2-0.3 0.8 0.1 0.8 11.2 1.2 22.5 1.8 33.8 2.4 11.3 0.6 22.6 1.1 33.9 1.2 3.2 0 6.3-0.1 9.4-0.1 3.3 0 6.7 0.2 9.9-0.3 0.4 0 0.5-0.7 0.1-0.8z"/>
							</g>
						</g>
					</g>
				</g>
			</g>
			<g id="&lt;Group&gt;">
				<g id="&lt;Group&gt;">
					<path id="&lt;Path&gt;" class="s7" d="m420.1 426.6c9.8 42.1 12.4 72.6 24.4 80.5 9.7 6.4 23.2 10.8 37.2 13.9 16.3 3.7 33.3 5.5 45.2 6.5 4.6 0.4 8.5 0.6 11.3 0.8 6.8 0.5 18-44.7 13.2-50.2-1.1-1.3-5.6-2.2-12-3-21.2-2.7-63.1-3.3-65.6-5.7-2.6-2.5-20.1-31.2-35.4-58.1-14.6-25.8-24.6-11.5-18.3 15.3z"/>
					<g id="&lt;Group&gt;">
						<path id="&lt;Path&gt;" class="s7" d="m524.5 523.8c0.8 0.4 12.9 5.6 20.3 7.5 5.5 1.3 21.6 4.9 23.7-1 1.5-4.1-7.7-7.3-14.2-9.7-3.4-1.3-7.6-4.6-6.7-6.8 1.6-3.8 10.3-0.4 16.1 2.7 11.2 6 26.2 16.9 32.6 11.1 2.5-2.2-0.6-5.9-5-9.5 7.1 4.1 14.7 7.4 17.5 5.1 1.6-1.4 1.6-3.1 0.6-5 2.2 0.6 4.1 0.4 5.4-1.1 2.1-2.4 0.9-5.9-1.7-9.4 0.8-0.1 1.5-0.5 2-1.4 4.5-7.5-20.2-27.6-28.6-29.2-24.6-4.9-50.5-1.9-50.5-1.9-9.3 8.1-11.5 48.5-11.5 48.6z"/>
						<g id="&lt;Group&gt;">
							<path id="&lt;Path&gt;" class="s1" d="m559.5 499.7c5.8 0.7 11.6 2.5 16.5 5.7 5.9 3.7 10.6 8.8 16 13.1 0.2 0.1 0 0.3-0.2 0.2-2.5-2.2-5.3-4.2-8-6.3-2.6-2-5.1-4.1-7.8-6-5-3.4-10.5-5.7-16.5-6.6-0.1 0 0-0.1 0-0.1z"/>
							<path id="&lt;Path&gt;" class="s1" d="m563.7 489.2c6.5 1.5 13.1 3 19.2 5.8 6.6 3.1 11.9 8.3 17.1 13.4q4.7 4.5 9.2 9.2c0.1 0.1-0.1 0.4-0.2 0.2q-7.9-7.8-16.3-15.1c-5.3-4.5-11.1-8-17.7-10.2-3.7-1.3-7.5-2.2-11.3-3.2-0.1 0-0.1-0.2 0-0.1z"/>
							<path id="&lt;Path&gt;" class="s1" d="m570.2 479.9c6.3 1 11.8 1.9 17.4 5 7.5 4.2 14.8 11.4 17.4 13.9 2.8 2.8 5.6 5.7 8.3 8.7 0.1 0.1-0.1 0.3-0.3 0.2-6.1-6.4-12.7-12.5-19.7-18.1-3.3-2.7-6.9-5-10.8-6.5-4-1.6-8.2-2.4-12.3-3.2 0 0 0 0 0 0z"/>
						</g>
					</g>
				</g>
				<g id="&lt;Group&gt;">
					<path id="&lt;Path&gt;" class="s8" d="m515.8 529.2l19.7-55.7c0 0-57.1-2.4-60.7-4.8-3.7-2.4-22.6-37-36.9-60.3-11.2-18.3-25.1-17-18.8 19.8 6.8 38.8 12.4 69.4 22.1 78.3 16.4 15.1 74.6 22.7 74.6 22.7z"/>
					<g id="&lt;Group&gt;" style="opacity: .1">
						<path id="&lt;Path&gt;" class="s10" d="m428 397.8l-6.1-0.1c1.7-1.1 3.8-1 6.1 0.1z"/>
						<path id="&lt;Path&gt;" class="s10" d="m439.7 411.2l-22.1-0.4q0-3.6 0.6-6.3l17.3 0.3q1.3 1.7 2.4 3.6 0.9 1.4 1.8 2.8z"/>
						<path id="&lt;Path&gt;" class="s10" d="m447.6 424.6l-29.1-0.5q-0.5-3.4-0.7-6.4l26.1 0.5c1.2 2.1 2.4 4.2 3.7 6.4z"/>
						<path id="&lt;Path&gt;" class="s10" d="m455.4 437.9l-34.7-0.6q-0.5-3.1-1.1-6.3l32.1 0.6q1.9 3.2 3.7 6.3z"/>
						<path id="&lt;Path&gt;" class="s10" d="m463.2 451.3l-40.1-0.8q-0.6-3.1-1.2-6.3l37.6 0.7q1.9 3.3 3.7 6.4z"/>
						<path id="&lt;Path&gt;" class="s10" d="m471.5 464.6l-45.8-0.8q-0.7-3.1-1.3-6.3l43 0.8c1.6 2.5 2.9 4.6 4.1 6.3z"/>
						<path id="&lt;Path&gt;" class="s10" d="m535.5 473.5l-1.9 5.5-104.9-1.9q-0.8-3.1-1.5-6.4l84.8 1.6c12.6 0.7 23.5 1.2 23.5 1.2z"/>
						<path id="&lt;Path&gt;" class="s10" d="m531.1 485.9l-2.2 6.2-96.5-1.8q-1-2.9-1.9-6.3z"/>
						<path id="&lt;Path&gt;" class="s10" d="m526.5 499l-2.2 6.2-85.6-1.5q-1.9-2.6-3.5-6.4z"/>
						<path id="&lt;Path&gt;" class="s10" d="m521.8 512.1l-2.2 6.3-57.3-1.1c-5.7-2-11-4.1-15.2-6.6z"/>
						<path id="&lt;Path&gt;" class="s10" d="m517.2 525.2l-1.4 4c0 0-11.5-1.5-25.7-4.5z"/>
					</g>
					<path id="&lt;Path&gt;" class="s1" d="m514.7 500.1q2.3-6.5 4.6-13.1c1.5-4.6 2.6-9.3 4.3-13.8 0.1-0.2-0.2-0.2-0.3 0-1.6 4.5-3.7 8.8-5.4 13.3q-2.5 6.4-4.8 13c-3.2 8.8-6.4 17.6-9 26.6 0 0.3 0.4 0.5 0.5 0.2 3.8-8.5 6.9-17.4 10.1-26.2z"/>
					<path id="&lt;Path&gt;" class="s1" d="m470.3 519.8c-12-3.4-23.2-7.9-29.1-13.3-9.7-8.9-15.3-39.4-22.1-78.3-5.1-29.4 2.9-36.1 12-28.3z"/>
				</g>
			</g>
			<g id="&lt;Group&gt;">
				<path id="&lt;Path&gt;" class="s8" d="m434.3 543.4c-3.4 2.6-133.2-1.1-133.7-2-1.4-2.6 38.5-119.7 95.2-154.3 10-6.1 24.7-1.1 30.9 4.2 3.1 2.7 11.7 22.2 12.4 38 0.7 15.7-2.7 112.5-4.8 114.1z"/>
				<g id="&lt;Group&gt;" style="opacity: .1">
					<path id="&lt;Path&gt;" class="s10" d="m430.7 397.9l-48.3-0.9q3.8-3.4 7.8-6.2l36.6 0.7c1 0.9 2.4 3.2 3.9 6.4z"/>
					<path id="&lt;Path&gt;" class="s10" d="m435.7 411.2l-66.4-1.3q2.9-3.2 5.9-6.1l58.4 1c0.8 2 1.5 4.2 2.1 6.4z"/>
					<path id="&lt;Path&gt;" class="s10" d="m438.7 424.4l-80.1-1.4q2.4-3.2 4.9-6.3l74.1 1.4q0.7 3.2 1.1 6.3z"/>
					<path id="&lt;Path&gt;" class="s10" d="m439.2 437.6l-89.8-1.6q2.1-3.2 4.3-6.2l85.5 1.5q0 2.5 0 6.3z"/>
					<path id="&lt;Path&gt;" class="s10" d="m439.1 444.5q0 3-0.1 6.3l-97.8-1.7q1.9-3.2 3.8-6.3z"/>
					<path id="&lt;Path&gt;" class="s10" d="m438.8 457.7q-0.1 3.1-0.1 6.3l-104.9-1.9q1.7-3.1 3.4-6.2z"/>
					<path id="&lt;Path&gt;" class="s10" d="m438.4 470.9q0 3.2-0.1 6.3l-111.4-2q1.6-3.1 3.2-6.2z"/>
					<path id="&lt;Path&gt;" class="s10" d="m438 484.1q-0.1 3.2-0.2 6.3l-117.2-2.1q1.5-3.1 3-6.2z"/>
					<path id="&lt;Path&gt;" class="s10" d="m437.5 497.3q-0.1 3.2-0.3 6.3l-122.4-2.2q1.3-3.1 2.7-6.2z"/>
					<path id="&lt;Path&gt;" class="s10" d="m436.9 510.5q-0.1 3.3-0.3 6.3l-127.2-2.3q1.2-3 2.5-6.2z"/>
					<path id="&lt;Path&gt;" class="s10" d="m436.2 523.7c-0.1 2.3-0.2 4.4-0.4 6.3l-131.3-2.4q1.1-2.9 2.3-6.2z"/>
					<path id="&lt;Path&gt;" class="s10" d="m435.3 536.9c-0.3 3.4-0.6 5.6-0.9 6.3l-133.8-2.4c0.1-1 0.7-3.2 1.7-6.3z"/>
				</g>
			</g>
			<g id="&lt;Group&gt;">
				<path id="&lt;Path&gt;" class="s8" d="m438.2 346.8c0 7.8 5.6 14.1 12.4 14.1 6.8 0 12.4-6.3 12.4-14.1 0-7.8-5.6-14.1-12.4-14.1-6.8 0-12.4 6.3-12.4 14.1z"/>
				<path id="&lt;Path&gt;" class="s4" d="m434.2 347.3c0 8.6 6.2 15.7 13.8 15.7 7.6 0 13.8-7.1 13.8-15.7 0-8.7-6.2-15.7-13.8-15.7-7.6 0-13.8 7-13.8 15.7z"/>
				<g id="&lt;Group&gt;">
					<g id="&lt;Group&gt;">
						<path id="&lt;Path&gt;" class="s7" d="m424 410.3c-7.5 1.3-19.5-10.7-24-20.2-0.3-0.6 3.7-25.6 4-30.7 0.1-1 31.2 9.5 31.2 9.5 0 0-3.8 10.4-4.2 19.2 0 0.7 0.3 20.9-7 22.2z"/>
					</g>
					<path id="&lt;Path&gt;" class="s1" d="m431.1 390.2q0 0.1 0 0.3h-0.1c-1 0.1-2 0.1-3.1 0-17.2-1.4-21.8-22.8-22.9-31 5.3 1 30.2 9.4 30.2 9.4 0 0-3.8 10.4-4.2 19.2q0 0.4 0 0.7 0 0.7 0.1 1.4z"/>
				</g>
				<g id="&lt;Group&gt;">
					<g id="&lt;Group&gt;">
						<path id="&lt;Path&gt;" class="s7" d="m408.6 319.7c-5.8 10.2-7.1 43.2-0.9 52 9 12.7 27.3 17.8 39 6.2 11.4-11.2 12.3-54.2 5-62.5-10.6-12.4-34.5-10.7-43.1 4.3z"/>
					</g>
					<path id="&lt;Path&gt;" class="s11" d="m407 371.2q0 0 0 0"/>
					<g id="&lt;Group&gt;">
						<g id="&lt;Group&gt;">
							<path id="&lt;Path&gt;" class="s1" d="m435.7 345.9c0 0-0.2 0.1-0.2 0.2 0 2.2-0.4 4.8-2.4 5.4-0.1 0.1-0.1 0.2 0 0.2 2.4-0.3 2.9-3.7 2.6-5.8z"/>
							<path id="&lt;Path&gt;" class="s1" d="m433.8 343.5c-3.5-0.4-4.1 6.7-0.8 7.1 3.2 0.4 3.8-6.7 0.8-7.1z"/>
						</g>
						<g id="&lt;Group&gt;">
							<path id="&lt;Path&gt;" class="s1" d="m447.9 347.3c0-0.1 0.2 0.1 0.2 0.2-0.3 2.2-0.2 4.8 1.7 5.7 0.1 0 0.1 0.1 0 0.1-2.4-0.5-2.5-4-1.9-6z"/>
							<path id="&lt;Path&gt;" class="s1" d="m450.1 345.2c3.6 0 3.2 7.1-0.1 7.1-3.2 0-2.9-7.2 0.1-7.1z"/>
						</g>
						<path id="&lt;Path&gt;" class="s1" d="m431.3 340c1-0.1 1.9-0.4 2.8-0.7 1.1-0.3 2-0.4 2.8-1.3 0.4-0.5 0.3-1.4-0.1-1.9-1-1-2.4-1-3.7-0.7-1.5 0.4-2.5 1-3.4 2.1-0.9 1.2 0.3 2.7 1.6 2.5z"/>
						<path id="&lt;Path&gt;" class="s1" d="m453.1 341.8c-0.9-0.3-1.8-0.6-2.7-1-1.1-0.4-2-0.6-2.7-1.5-0.4-0.5-0.2-1.4 0.3-1.9 1-0.9 2.5-0.8 3.7-0.3 1.5 0.4 2.4 1.1 3.2 2.3 0.8 1.2-0.5 2.7-1.8 2.4z"/>
						<path id="&lt;Path&gt;" class="s1" d="m431.4 366.2c0.4 0.6 0.9 1.3 1.7 1.5 0.8 0.1 1.7-0.2 2.4-0.4 0.1 0 0.2 0.1 0.1 0.1-0.6 0.8-1.9 1.3-2.9 1-1-0.3-1.4-1.2-1.6-2.1 0-0.1 0.2-0.2 0.3-0.1z"/>
						<g id="&lt;Group&gt;">
							<g id="&lt;Group&gt;">
								<path id="&lt;Path&gt;" class="s1" d="m434.2 359.8c1.1 2 2.9 3.2 4.8 3.8 0.9 0.2 1.8 0.3 2.7 0.3q0.3 0 0.5 0 0.2 0 0.5 0c0.3-0.1 0.4-0.3 0.5-0.5q0-0.1 0-0.2 0 0 0-0.1v-0.2c0.2-1.6 0.2-4.3 0.2-4.3 0.6 0.4 3.7 2.1 3.7 1.2 0.2-7.4 0.4-15.6-1-23 0-0.3-0.4-0.2-0.4 0-0.5 7.1 0.3 14.2 0 21.4-1-0.5-2.6-1.3-3.5-1.4-0.2 0.1 0 5-0.1 5.8q0 0 0 0.1c-2.9 0.1-5-0.9-7.6-3.1-0.2-0.1-0.4 0-0.3 0.2z"/>
							</g>
						</g>
						<g id="&lt;Group&gt;">
							<path id="&lt;Path&gt;" class="s1" d="m440.8 363c0 0-1.7 1.9-3.9 2.4-0.7 0.2-1.6 0.3-2.4 0-1.7-0.6-1.6-2.3-1.2-3.6 0.4-1.1 1-2.1 1-2.1 0 0 2.3 2.7 6.5 3.3z"/>
							<path id="&lt;Path&gt;" class="s12" d="m436.9 365.4c-0.7 0.2-1.6 0.3-2.4 0-1.7-0.6-1.6-2.3-1.2-3.6 1.9 0.3 3.6 1.8 3.6 3.6z"/>
						</g>
					</g>
					<g id="&lt;Group&gt;">
						<path id="&lt;Path&gt;" class="s1" d="m406.4 344c7.6 0.1 9.3-13.8 9.3-13.8 0 0 13.1-2 15.1-11.8 0 0 12.4 8 22.2 4.6 9.8-3.5 8.6-15.6 7.5-18-2.5-5.4-10.7 1.4-10.7 1.4 0 0-12.2-7.6-26.3-6.3-11.4 1-17.2 11.7-17.2 11.7 0 0-6.1 1.2-8.1 5.5-2.1 4.2 3.3 26.7 8.2 26.7z"/>
						<path id="&lt;Path&gt;" class="s1" d="m412.6 330.3c10.1 1.5 16.9-5.2 18.5-14.9 0-0.1 0.2-0.1 0.2 0-0.4 9-9 19-18.8 15.4-0.3-0.1-0.2-0.5 0.1-0.5z"/>
						<path id="&lt;Path&gt;" class="s1" d="m406.6 311.6c0.1 0 0.2 0.1 0.1 0.2-2.9 1.3-6.2 2.2-8.2 4.8-2.4 3.1-2 7.2-1.1 10.8 1.3 5.5 4.1 12.7 9 15.9 0.3 0.2 0 0.6-0.3 0.5-5.9-3.6-9.2-12.9-10-19.4-0.8-7.2 3.8-11.3 10.5-12.8z"/>
						<path id="&lt;Path&gt;" class="s1" d="m441.9 321.1c4.4 3 11.1 3.1 15.5-0.2 5.4-4.1 4.4-10.8 2.2-16.3-0.1-0.3 0.2-0.6 0.4-0.3 3.1 4.9 3.2 12.3-1.2 16.5-4.6 4.4-12.4 4.2-17.3 1-0.4-0.3 0-1 0.4-0.7z"/>
					</g>
					<g id="&lt;Group&gt;">
						<path id="&lt;Compound Path&gt;" fill-rule="evenodd" class="s13" d="m429.7 355.7c-4.1-0.9-7.3-4.5-7.5-8.9-0.2-5.2 3.9-9.7 9.1-9.9 5.3-0.2 9.7 3.9 9.9 9.1v0.1c0.2 5.2-3.9 9.6-9.1 9.8q-1.2 0.1-2.4-0.2zm3.7-17.3q-1-0.2-2-0.2c-4.6 0.2-8.1 4-7.9 8.6 0.2 4.5 4 8 8.5 7.9 4.6-0.2 8.1-4.1 7.9-8.6-0.1-3.8-2.9-7-6.5-7.7z"/>
						<path id="&lt;Compound Path&gt;" fill-rule="evenodd" class="s13" d="m451.4 357.6c-3.5-0.7-6-5.1-5.5-10 0.2-2.5 1.2-4.8 2.6-6.4 1.5-1.7 3.4-2.6 5.3-2.4 1.9 0.2 3.6 1.3 4.8 3.3 1.1 1.9 1.6 4.3 1.4 6.8-0.5 5.2-4.1 9.2-7.9 8.8q-0.4 0-0.7-0.1zm2.8-17.5q-0.3 0-0.5 0c-1.5-0.2-3 0.5-4.2 1.9-1.3 1.5-2.1 3.5-2.3 5.7-0.5 4.5 1.8 8.5 5 8.7 3.2 0.3 6.1-3.1 6.5-7.6 0.2-2.2-0.2-4.4-1.2-6-0.8-1.5-2-2.4-3.3-2.7z"/>
						<path id="&lt;Path&gt;" class="s13" d="m440.8 347.1l-0.8-1c1.6-1.1 5.1-2.4 7.1 0.3l-1 0.7c-1.8-2.4-5.2-0.1-5.3 0z"/>
						<path id="&lt;Path&gt;" class="s13" d="m398.4 345.6l-1.1-0.6c0.4-0.5 3.2-4.9 6.1-5.1 2.7-0.2 19.5 3 20.2 3.1l-0.2 1.2c-4.9-0.9-17.8-3.2-19.9-3-1.9 0.1-4.3 3.2-5.1 4.4z"/>
					</g>
					<g id="&lt;Group&gt;">
						<path id="&lt;Path&gt;" class="s7" d="m409.6 347c0 0-5.1-11.7-10.3-10.1-5.2 1.6-2.8 17.6 2.3 20.8 5 3.1 8-1.5 8-1.5z"/>
						<path id="&lt;Path&gt;" class="s1" d="m400.1 341.5c-0.1 0-0.1 0.1-0.1 0.1 3.6 2.4 4.9 6.3 5.5 10.3-0.8-1.6-2.2-2.7-4.4-1.8-0.1 0.1-0.1 0.3 0.1 0.3 1.6-0.1 2.7 0.4 3.5 1.9 0.6 1.1 0.8 2.3 1.2 3.4 0.1 0.4 0.7 0.4 0.7-0.1q0 0 0-0.1c1.1-4.8-1.3-12.5-6.5-14z"/>
					</g>
					<g id="&lt;Group&gt;">
						<path id="&lt;Path&gt;" class="s4" d="m402.1 338.5c0 0-0.9-17 4.2-26.3 5.6-10.4 27.9-17.2 43.5-5.8 0 0-24.8-7.8-36.8 6.6-5.1 6-5.2 26-5.2 26z"/>
						<path id="&lt;Path&gt;" class="s4" d="m418 347.3c0 8.6-6.2 15.7-13.8 15.7-7.6 0-13.7-7.1-13.7-15.7 0-8.7 6.1-15.7 13.7-15.7 7.6 0 13.8 7 13.8 15.7z"/>
						<path id="&lt;Path&gt;" class="s8" d="m414 346.8c0 7.8-5.6 14.1-12.4 14.1-6.8 0-12.4-6.3-12.4-14.1 0-7.8 5.6-14.1 12.4-14.1 6.8 0 12.4 6.3 12.4 14.1z"/>
					</g>
				</g>
			</g>
			<g id="&lt;Group&gt;">
				<g id="&lt;Group&gt;">
					<path id="&lt;Path&gt;" class="s1" d="m616.7 453.4c1.1 1.3 1.9 2.7 1.3 3.2-0.6 0.5-1.8-0.6-2.9-1.9z"/>
					<path id="&lt;Path&gt;" class="s9" d="m616.2 439.3c1.1 1.4 1.3 11 0.8 14.5 0 0.7-0.9 1.4-1.5 1.3-3.5-0.2-13-2.2-14.1-3.6-0.8-0.9-2.5-5-4.6-9.1-2.7-5.3-48.3-63.6-48.5-64.6-0.1-0.9 1.4-2.4 2.3-3.1 0.9-0.7 2.6-1.9 3.5-1.6 0.8 0.4 49.4 56.3 54.1 60 3.5 2.8 7.3 5.3 8 6.2z"/>
					<path id="&lt;Path&gt;" class="s5" d="m616.2 439.3q0.2 0.2 0.3 0.5c-2.6 3.3-5 5.8-7.3 7.7-3 2.4-5.5 3.8-7.2 4.5q-0.4-0.2-0.6-0.5-0.2-0.2-0.4-0.6c2.4-1 8.4-4 14.6-12.2q0.5 0.4 0.6 0.6z"/>
					<g id="&lt;Group&gt;">
						<path id="&lt;Path&gt;" class="s1" d="m604 438.8l-0.8 0.6c-0.6 0.5-1.5 0.5-2-0.2l-13.6-16.4c-0.5-0.6-0.4-1.5 0.2-2l0.8-0.7c0.7-0.5 1.6-0.4 2.1 0.2l13.5 16.4c0.5 0.6 0.4 1.6-0.2 2.1z"/>
						<path id="&lt;Path&gt;" class="s5" d="m603.2 438.1l-0.5 0.4c-0.4 0.3-0.9 0.2-1.2-0.1l-8.7-10.6c-0.3-0.4-0.2-0.9 0.1-1.2l0.5-0.4c0.4-0.3 0.9-0.2 1.2 0.1l8.7 10.6c0.3 0.4 0.2 0.9-0.1 1.2z"/>
						<path id="&lt;Path&gt;" class="s1" d="m600.2 433.1l0.4 0.5-1.8 1.5-0.4-0.5z"/>
					</g>
				</g>
				<g id="&lt;Group&gt;">
					<path id="&lt;Path&gt;" class="s7" d="m382.3 418.2c12.3 34.6 37.4 69.9 58.2 73.3 20.7 3.4 74.4-19.7 90.8-27.5 6.3-3-14.9-57.3-21.6-54-11.4 5.5-61 33.9-65 32.8-2.5-0.6-24.3-17.2-42.7-34.5-23.9-22.5-23.6-0.9-19.7 9.9z"/>
					<g id="&lt;Group&gt;">
						<path id="&lt;Path&gt;" class="s7" d="m599.6 400.3c0.9 7-16.3 7.7-16.3 7.7 0 0 4.3 2 6 6.3 1.9 5-5 10.2-5 10.2 0 0 4 2.9 5.3 7.7 1.4 4.9-4.8 11.1-4.8 11.1 0 0 2.2 4.8 0.4 9.7-3.1 8.4-16.5 11.2-25 13.1-8.5 1.8-34.3-0.9-39.3-0.9l-12.4-54.4c0 0 35.7-19.1 46-19.9 8.7-0.6 43.8-1.1 45.1 9.4z"/>
						<g id="&lt;Group&gt;">
							<path id="&lt;Path&gt;" class="s1" d="m583.1 407.8c-9.4-1.5-19.1-0.8-28.5 0-0.2 0-0.2 0.4 0 0.3 9.4-0.9 19.1 0.7 28.5 0.2 0.2 0 0.2-0.4 0-0.5z"/>
							<path id="&lt;Path&gt;" class="s1" d="m584 423.8c-2.2-0.3-4.4 0.1-6.5 0.4q-3.4 0.5-6.8 1.1-6.8 1.1-13.5 2.6c-0.2 0.1-0.2 0.4 0 0.3q6.8-1.1 13.6-2 3.4-0.4 6.8-0.8c2.1-0.2 4.4-0.3 6.4-1 0.3-0.1 0.3-0.6 0-0.6z"/>
							<path id="&lt;Path&gt;" class="s1" d="m584.6 443.3c-1.9-0.3-4 0.4-5.8 0.7q-3.1 0.6-6.2 1.2c-4.1 0.7-8.3 1.4-12.4 2-0.2 0.1-0.2 0.4 0 0.4 4.2-0.6 8.5-1.1 12.7-1.8q3.1-0.4 6.2-0.9c1.7-0.3 4-0.4 5.5-1.4 0.1 0 0.1-0.2 0-0.2z"/>
						</g>
					</g>
				</g>
				<g id="&lt;Group&gt;">
					<path id="&lt;Path&gt;" class="s8" d="m493.7 415.6l24.6 59.2c0 0-61.6 24.1-80.6 18.4-19.1-5.6-45.3-44-53.8-66.8-8.5-22.8-6.3-42.2 22.8-16.4 29.1 25.7 37 31.2 38.9 30.8 1.8-0.3 48.1-25.2 48.1-25.2z"/>
					<g id="&lt;Group&gt;" style="opacity: .1">
						<path id="&lt;Path&gt;" class="s10" d="m407.4 410.6l-27.7-0.5c-0.2-2.3-0.2-4.5 0.1-6.3l19.8 0.4q3.2 2.4 7.1 5.8 0.3 0.3 0.7 0.6z"/>
						<path id="&lt;Path&gt;" class="s10" d="m415.5 417.7q4 3.5 7.4 6.4l-40.1-0.7q-1.1-3.3-1.8-6.3z"/>
						<path id="&lt;Path&gt;" class="s10" d="m497.9 425.5l-21.9-0.4c4.3-2.3 8.3-4.4 11.4-6.1l7.8 0.1z"/>
						<path id="&lt;Path&gt;" class="s10" d="m431.3 431.2c3.6 2.9 6.3 5 8.3 6.4l-51.2-0.9q-1.6-3.3-2.9-6.4z"/>
						<path id="&lt;Path&gt;" class="s10" d="m503.4 438.8l-51.6-0.9c3.1-1.7 7.2-3.8 11.6-6.1l37.3 0.6z"/>
						<path id="&lt;Path&gt;" class="s10" d="m508.9 452.1l-113.1-2q-2-3.3-3.7-6.4l114.2 2.1z"/>
						<path id="&lt;Path&gt;" class="s10" d="m514.4 465.4l-109.7-2q-2.3-3.1-4.4-6.4l111.5 2.1z"/>
						<path id="&lt;Path&gt;" class="s10" d="m518.3 474.8c0 0-3.9 1.5-10.1 3.7l-92.6-1.7q-2.8-3-5.5-6.4l107.2 2z"/>
						<path id="&lt;Path&gt;" class="s10" d="m488.6 485.1c-7 2.1-14.5 4.2-21.7 5.9l-35.6-0.7c-2.8-1.7-5.7-3.8-8.6-6.4z"/>
					</g>
					<g id="&lt;Group&gt;">
						<path id="&lt;Path&gt;" class="s1" d="m517.6 474.7c-9.3 3.5-18.6 6.8-28.1 9.6-9.5 2.8-33.8 8.9-43.8 9.2-4.7 0.2-9.2-1.5-13.2-3.8-4.1-2.3-7.6-5.5-10.9-8.8-3.4-3.4-6.6-7-9.8-10.6-3.6-4.1-7.1-8.3-10.6-12.5-3.7-4.4-7.4-8.9-10.7-13.5-0.2-0.2-0.4 0-0.3 0.1 2.9 4.2 5.7 8.4 8.7 12.5q1.9 2.5 3.9 5c-0.7-0.5-1.4-1-2.1-1.5-2.6-1.8-5.3-3.5-7.8-5.5-0.2-0.1-0.4 0.2-0.2 0.3 2.6 1.8 4.9 3.9 7.3 5.9q1.8 1.4 3.6 2.8 0.8 0.7 1.7 1.3 0.1 0.1 0.2 0.2 1.4 1.7 2.7 3.3c3.2 3.9 6.5 7.7 9.9 11.5 3.1 3.5 6.5 6.8 10.4 9.5 3.8 2.7 8 5 12.6 5.5 9.4 1.1 34.6-5.1 44.4-7.9 11-3.2 22-6.9 32.5-11.5 0.6-0.3 0.3-1.3-0.4-1.1z"/>
						<path id="&lt;Path&gt;" class="s1" d="m454.2 436.4c-1.3 0.7-6.2 3.6-7.9 3.8-1.6 0.1-3-0.8-4.3-1.8-1.3-1-2.6-2.1-3.9-3.1q-2.5-1.9-5.1-3.8-0.1-0.2-0.2-0.4-0.4-0.5-0.8-1-0.8-1.1-1.6-2.1c-1.1-1.3-2.2-2.6-3.3-3.9-0.1-0.1-0.3 0.1-0.2 0.3 1.1 1.3 2.1 2.7 3.1 4.1q0.5 0.7 1 1.4-0.4-0.3-0.8-0.6c-1.3-1-5.5-4-8-6.1-0.2-0.1-0.4 0.1-0.2 0.3 2.3 1.8 7.5 6.3 8.9 7.6q4.2 3.6 8.5 7c2.2 1.7 4.6 4 7.6 3.3 1.4-0.4 6.2-3.5 7.5-4.6 0.3-0.2 0-0.5-0.3-0.4z"/>
						<path id="&lt;Path&gt;" class="s1" d="m496.6 449.5q-2.6-6.5-5.3-12.9c-1.9-4.4-4.1-8.7-5.9-13.2 0-0.2-0.3 0-0.2 0.2 1.8 4.4 3.1 9 4.7 13.5q2.5 6.5 5 13c3.5 8.6 7 17.4 11 25.8 0.1 0.3 0.6 0.1 0.5-0.1-2.9-8.9-6.4-17.6-9.8-26.3z"/>
					</g>
				</g>
			</g>
		</g>
	</g>
	<g id="Table">
		<g id="&lt;Group&gt;">
			<g id="&lt;Group&gt;">
				<path id="&lt;Path&gt;" class="s9" d="m858.5 545.9h-717v-25.5h717z"/>
			</g>
			<g id="&lt;Group&gt;">
				<path id="&lt;Path&gt;" class="s13" d="m858.5 545.9h-717v-10h717z"/>
			</g>
			<g id="&lt;Group&gt;">
				<path id="&lt;Path&gt;" class="s13" d="m167.2 903.7h-10.3l30-357.8h26.3z"/>
				<path id="&lt;Path&gt;" class="s1" d="m213.2 545.9l-3.1 23.9h-25.2l2-23.9z"/>
			</g>
			<g id="&lt;Group&gt;">
				<path id="&lt;Path&gt;" class="s13" d="m832.8 903.7h10.3l-30-357.8h-26.3z"/>
				<path id="&lt;Path&gt;" class="s1" d="m786.8 545.9l3.1 23.9h25.2l-2-23.9z"/>
			</g>
		</g>
	</g>
	<g id="Device">
		<g id="&lt;Group&gt;">
			<path id="&lt;Path&gt;" class="s1" d="m741.6 520.4h-178.1l43.3-118.9h178.1z"/>
			<path id="&lt;Path&gt;" class="s9" d="m747.9 520.4h-178.1l43.3-118.9h178.1z"/>
			<path id="&lt;Path&gt;" class="s1" d="m791.2 401.5l-43.3 118.9h-72l98.6-118.9z"/>
			<g id="&lt;Group&gt;">
				<path id="&lt;Path&gt;" class="s13" d="m779.7 520.4h-21.7l-19.5-33.7h21.7z"/>
				<path id="&lt;Path&gt;" class="s9" d="m738.5 486.7v33.7h19.5z"/>
			</g>
			<g id="&lt;Group&gt;">
				<path id="&lt;Path&gt;" class="s13" d="m658.1 520.4h-21.7l-19.5-33.7h21.7z"/>
				<path id="&lt;Path&gt;" class="s1" d="m616.9 486.7v33.7h19.5z"/>
			</g>
		</g>
	</g>
	<g id="Lamp">
		<g id="&lt;Group&gt;">
			<g id="&lt;Group&gt;">
				<path id="&lt;Path&gt;" class="s1" d="m190.5 508.1l-3.6-0.5 18.6-140.9 67.2-36.9 1.8 3.1-65.7 36.1z"/>
				<path id="&lt;Path&gt;" class="s8" d="m202 367.8c0 2.9 2.3 5.1 5.1 5.1 2.9 0 5.2-2.2 5.2-5.1 0-2.8-2.3-5.1-5.2-5.1-2.8 0-5.1 2.3-5.1 5.1z"/>
				<path id="&lt;Path&gt;" class="s8" d="m267.8 331.3c0 2.9 2.3 5.2 5.1 5.2 2.8 0 5.1-2.3 5.1-5.2 0-2.8-2.3-5.1-5.1-5.1-2.8 0-5.1 2.3-5.1 5.1z"/>
			</g>
			<g id="&lt;Group&gt;">
				<g id="&lt;Group&gt;">
					<path id="&lt;Path&gt;" class="s8" d="m307.3 336l-24.1 26.9-11.1-13.7-6.7-8.4 18-20.1 9.1 5.8z"/>
					<path id="&lt;Path&gt;" class="s14" d="m307.3 336l-24.1 26.9-11.1-13.7 20.4-22.7z"/>
				</g>
				<path id="&lt;Path&gt;" class="s8" d="m342.2 349.3l-42 46.8-27.8-35.5 31.4-35.1z"/>
			</g>
			<path id="&lt;Path&gt;" class="s8" d="m221.7 520.4h-62.1l3.8-19.5h54.5z"/>
		</g>
	</g>
	<g id="Coffee">
		<g id="&lt;Group&gt;">
			<path id="&lt;Path&gt;" class="s8" d="m581.5 464.8l-4.4 55.6h-30.6l-4.4-55.6z"/>
			<path id="&lt;Path&gt;" class="s13" d="m584.1 467.9h-44.9v-8.1h44.9z"/>
			<path id="&lt;Path&gt;" class="s9" d="m581.1 459.8h-38.9l2.3-9.2h34.3z"/>
			<path id="&lt;Path&gt;" class="s3" d="m572.4 493.1c0 7.2-4.8 13.1-10.6 13.1-5.9 0-10.6-5.9-10.6-13.1 0-7.2 4.7-13.1 10.6-13.1 5.8 0 10.6 5.9 10.6 13.1z"/>
		</g>
	</g>
	<g id="Camera">
		<g id="&lt;Group&gt;">
			<path id="&lt;Path&gt;" class="s5" d="m281.4 630.5c-13.1 0-23.4-3.9-30.8-11.7-15.7-16.7-14-46.1-13.1-61.9 0.1-2.6 0.2-4.9 0.2-6.5 0-8.3-2.2-14.8-4.6-21.8-1.7-4.8-3.4-9.7-4.2-15.2-1.4-8.9 2.3-20.8 6.4-26.8 3.2-4.6 10.1-3.7 10.4-3.7l-0.5 4 0.2-2-0.2 2c-1.3-0.2-5.1-0.2-6.6 2-3.7 5.2-6.9 16.3-5.8 23.9 0.8 5.1 2.4 9.7 4.1 14.5 2.4 7 4.8 14.2 4.8 23.1 0 1.7-0.1 4.1-0.3 6.8-0.8 15.2-2.4 43.4 12.1 58.8 6.6 7 16 10.5 27.9 10.5 9.1 0 16.1-2.6 21.4-8.1 13.7-14.1 12.8-44 12.2-63.7-0.1-6.1-0.3-11.4 0-15.3 0.5-7.6 2.6-14 4.6-20.2 3.2-9.7 5.9-18 2.1-28.7-1.4-3.7-5.2-4.1-6.5-3.9l-0.5-4c3.2-0.4 8.7 1 10.7 6.6 4.3 11.9 1.3 21.3-2 31.2-1.9 6-3.9 12.2-4.4 19.3-0.3 3.7-0.1 8.8 0 14.8 0.6 20.5 1.5 51.4-13.3 66.7-6.1 6.2-14.2 9.3-24.3 9.3z"/>
			<g id="&lt;Group&gt;">
				<path id="&lt;Path&gt;" class="s1" d="m315.5 520.4h-71.8v-43.6h71.8z"/>
				<path id="&lt;Path&gt;" class="s1" d="m264.4 476.8h-12.6v-1.9h12.6z"/>
				<path id="&lt;Path&gt;" class="s1" d="m262.1 475h-8v-1.9h8z"/>
				<path id="&lt;Path&gt;" class="s1" d="m301.7 476.8h-19.1l2-5.9h15.1z"/>
				<path id="&lt;Path&gt;" class="s3" d="m297 476.8h-9.6v-3.5h9.6z"/>
				<path id="&lt;Path&gt;" class="s1" d="m241.9 482.6v3.4l1.8 0.7v1.5l-3-1.1v-5.6l3-1v1.5z"/>
				<path id="&lt;Path&gt;" class="s1" d="m317.3 482.6v3.4l-1.8 0.7v1.5l3-1.1v-5.6l-3-1v1.5z"/>
				<path id="&lt;Path&gt;" class="s13" d="m264.4 483.8c0.8 5.2 1 10.4 1 15.6 0 5.2-0.2 10.4-1 15.6-0.8-5.2-1-10.4-1-15.6 0-5.2 0.2-10.4 1-15.6z"/>
				<g id="&lt;Group&gt;">
					<path id="&lt;Compound Path&gt;" fill-rule="evenodd" class="s9" d="m292.2 517.2c-9.8 0-17.8-8-17.8-17.8 0-9.8 8-17.8 17.8-17.8 9.8 0 17.8 8 17.8 17.8 0 9.8-8 17.8-17.8 17.8zm0-34.6c-9.3 0-16.8 7.5-16.8 16.8 0 9.2 7.5 16.8 16.8 16.8 9.2 0 16.8-7.6 16.8-16.8 0-9.3-7.6-16.8-16.8-16.8z"/>
					<path id="&lt;Path&gt;" class="s13" d="m305.9 499.4c0 7.5-6.2 13.7-13.7 13.7-7.6 0-13.7-6.2-13.7-13.7 0-7.6 6.1-13.7 13.7-13.7 7.5 0 13.7 6.1 13.7 13.7z"/>
				</g>
				<path id="&lt;Path&gt;" class="s8" d="m312.6 480.5c0 0.8-0.7 1.4-1.5 1.4-0.8 0-1.4-0.6-1.4-1.4 0-0.8 0.6-1.5 1.4-1.5 0.8 0 1.5 0.7 1.5 1.5z"/>
			</g>
		</g>
	</g>
	<g id="Tools">
		<g id="&lt;Group&gt;">
			<path id="&lt;Path&gt;" class="s0" d="m710.9 332.9l-39.6 39.4c-2.7 2.6-7.1 2.6-9.8-0.1-2.6-2.7-2.6-7 0.1-9.7l39.6-39.3z"/>
			<path id="&lt;Path&gt;" class="s4" d="m710.9 332.9l-11.3 11.2-7.5-11.9 9.1-9z"/>
			<path id="&lt;Path&gt;" class="s0" d="m659 374.8c-0.7-0.7-0.7-1.8 0-2.5l8.9-8.9 2.5 2.5-9 8.9c-0.7 0.7-1.8 0.7-2.4 0z"/>
			<path id="&lt;Path&gt;" class="s0" d="m670.4 365.9l-9 8.9c-0.7 0.7-1.8 0.7-2.4 0-0.7-0.7-0.7-1.8 0-2.5l1.5-1.5 7.4-7.4z"/>
			<path id="&lt;Path&gt;" class="s8" d="m706.9 341.7l-14.5-14.6 6.9-6.8 14.5 14.6z"/>
			<path id="&lt;Path&gt;" class="s8" d="m707.5 336.3l-9.7-9.7 8.2-8.2c2.7-2.6 7-2.6 9.7 0.1 2.7 2.7 2.7 7 0 9.7z"/>
			<path id="&lt;Path&gt;" class="s8" d="m686 357.7l-14.7 14.6c-2.3 2.2-5.7 2.6-8.4 1l-1.5 1.5c-0.7 0.7-1.8 0.7-2.4 0-0.7-0.7-0.7-1.8 0-2.5l1.5-1.5c-1.6-2.6-1.2-6 1.1-8.3l4.9-4.9z"/>
			<path id="&lt;Path&gt;" class="s8" d="m659.5 391.7c-4.9 0-3.2-9.9 0-13.2 3.4 3.4 5 13.2 0 13.2z"/>
		</g>
		<g id="&lt;Group&gt;">
			<path id="&lt;Path&gt;" class="s2" d="m583.9 366.7h-83.7v-107.4h62.1l21.6 20.5z"/>
			<path id="&lt;Path&gt;" class="s0" d="m583.9 366.7h-83.7v-31.4h83.7z"/>
			<path id="&lt;Path&gt;" class="s8" d="m500.2 335.3l26.5-25.4 24 25.4z"/>
			<path id="&lt;Path&gt;" class="s8" d="m534.2 335.3l31.4-39.7 18.3 23v16.7z"/>
			<path id="&lt;Path&gt;" class="s3" d="m527.6 293.2c0 5.2-4.2 9.4-9.4 9.4-5.1 0-9.3-4.2-9.3-9.4 0-5.2 4.2-9.4 9.3-9.4 5.2 0 9.4 4.2 9.4 9.4z"/>
			<path id="&lt;Path&gt;" class="s0" d="m562.3 259.3l21.6 20.5h-21.6z"/>
			<g id="&lt;Group&gt;">
				<path id="&lt;Compound Path&gt;" class="s5" d="m519.7 354.5c0.3-0.1 0.6 0.1 0.7 0.3 0.6 1.9 2.3 3.2 4.3 3.2 2.5 0 4.5-2 4.5-4.5v-10.6c0-0.3 0.3-0.5 0.6-0.5 0.3 0 0.6 0.2 0.6 0.5v10.6c0 3.1-2.6 5.7-5.7 5.7-2.5 0-4.7-1.7-5.4-4-0.1-0.3 0-0.6 0.4-0.7z"/>
				<path id="&lt;Compound Path&gt;" fill-rule="evenodd" class="s5" d="m534.9 342.9c0-0.3 0.3-0.5 0.6-0.5h4.7c2.7 0 4.8 2.1 4.8 4.8 0 2.6-2.1 4.7-4.8 4.7l-4.1 0.1v6.6c0 0.3-0.3 0.6-0.6 0.6-0.3 0-0.6-0.3-0.6-0.6zm5.3 7.9c2-0.1 3.7-1.7 3.7-3.7 0-2-1.7-3.6-3.7-3.6h-4.1v7.3z"/>
				<path id="&lt;Compound Path&gt;" class="s5" d="m556.8 351.6c-0.4 0-0.6-0.2-0.6-0.6 0-0.3 0.2-0.6 0.6-0.6h5.1 0.1c0.3 0.1 0.5 0.3 0.5 0.6v5.8 0.1c0 0.1-0.1 0.3-0.2 0.4-1.5 1.2-3.3 1.9-5.4 1.9-4.8-0.1-8.7-3.8-8.7-8.6 0-4.7 3.9-8.5 8.7-8.5 2.1 0 3.9 0.7 5.4 1.9 0.3 0.2 0.3 0.6 0.1 0.8-0.2 0.3-0.5 0.3-0.8 0.1-1.3-1-2.9-1.6-4.7-1.6-4.2 0-7.6 3.3-7.6 7.3 0 4.1 3.4 7.4 7.6 7.4 1.6 0 3.2-0.5 4.4-1.5v-4.9z"/>
			</g>
		</g>
		<g id="&lt;Group&gt;">
			<g id="&lt;Group&gt;">
				<g id="&lt;Group&gt;">
					<path id="&lt;Path&gt;" class="s4" d="m313.9 253.9h-36.3v-114.2h36.3z"/>
					<g id="&lt;Group&gt;">
						<path id="&lt;Path&gt;" class="s8" d="m309.9 159.1h-28.3v-15.8h28.3z"/>
						<path id="&lt;Path&gt;" class="s8" d="m309.9 178.3h-28.3v-15.8h28.3z"/>
						<path id="&lt;Path&gt;" class="s8" d="m309.9 197.4h-28.3v-15.8h28.3z"/>
						<path id="&lt;Path&gt;" class="s8" d="m309.9 216.6h-28.3v-15.8h28.3z"/>
						<path id="&lt;Path&gt;" class="s8" d="m309.9 235.7h-28.3v-15.8h28.3z"/>
					</g>
					<path id="&lt;Path&gt;" class="s15" d="m309.9 159.1h-28.3v-15.8h28.3z"/>
					<path id="&lt;Path&gt;" class="s14" d="m309.9 178.3h-28.3v-15.8h28.3z"/>
					<path id="&lt;Path&gt;" class="s16" d="m309.9 216.6h-28.3v-15.8h28.3z"/>
					<path id="&lt;Path&gt;" class="s17" d="m309.9 235.7h-28.3v-15.8h28.3z"/>
					<path id="&lt;Path&gt;" class="s1" d="m298 246.8c0 1.9-1.5 3.3-3.3 3.3-1.9 0-3.4-1.4-3.4-3.3 0-1.8 1.5-3.3 3.4-3.3 1.8 0 3.3 1.5 3.3 3.3z"/>
				</g>
			</g>
			<g id="&lt;Group&gt;">
				<g id="&lt;Group&gt;">
					<path id="&lt;Path&gt;" class="s2" d="m303.5 265.8l-25.7-25.7 80.8-80.7 25.7 25.6z"/>
					<g id="&lt;Group&gt;">
						<path id="&lt;Path&gt;" class="s8" d="m367.7 195.9l-20-20 11.2-11.1 20 20z"/>
						<path id="&lt;Path&gt;" class="s8" d="m354.1 209.5l-19.9-20 11.1-11.2 20 20z"/>
						<path id="&lt;Path&gt;" class="s8" d="m340.6 223l-20-20 11.2-11.1 20 19.9z"/>
						<path id="&lt;Path&gt;" class="s8" d="m327.1 236.5l-20-19.9 11.2-11.2 19.9 20z"/>
						<path id="&lt;Path&gt;" class="s8" d="m313.5 250.1l-20-20 11.2-11.2 20 20z"/>
					</g>
					<path id="&lt;Path&gt;" class="s15" d="m367.7 195.9l-20-20 11.2-11.1 20 20z"/>
					<path id="&lt;Path&gt;" class="s14" d="m354.1 209.5l-19.9-20 11.1-11.2 20 20z"/>
					<path id="&lt;Path&gt;" class="s16" d="m327.1 236.5l-20-19.9 11.2-11.2 19.9 20z"/>
					<path id="&lt;Path&gt;" class="s17" d="m313.5 250.1l-20-20 11.2-11.2 20 20z"/>
					<path id="&lt;Path&gt;" class="s1" d="m297.3 249.5c-1.3 1.3-3.4 1.3-4.7 0-1.3-1.3-1.3-3.4 0-4.7 1.3-1.3 3.4-1.3 4.7 0 1.3 1.3 1.3 3.4 0 4.7z"/>
				</g>
			</g>
			<g id="&lt;Group&gt;">
				<g id="&lt;Group&gt;">
					<path id="&lt;Path&gt;" class="s0" d="m287.8 266.9v-36.4h114.2v36.4z"/>
					<g id="&lt;Group&gt;">
						<path id="&lt;Path&gt;" class="s8" d="m382.6 262.8v-28.2h15.8v28.2z"/>
						<path id="&lt;Path&gt;" class="s8" d="m363.4 262.8v-28.2h15.8v28.2z"/>
						<path id="&lt;Path&gt;" class="s8" d="m344.3 262.8v-28.2h15.8v28.2z"/>
						<path id="&lt;Path&gt;" class="s8" d="m325.1 262.8v-28.2h15.8v28.2z"/>
						<path id="&lt;Path&gt;" class="s8" d="m306 262.8v-28.2h15.8v28.2z"/>
					</g>
					<path id="&lt;Path&gt;" class="s15" d="m382.6 262.8v-28.2h15.8v28.2z"/>
					<path id="&lt;Path&gt;" class="s14" d="m363.4 262.8v-28.2h15.8v28.2z"/>
					<path id="&lt;Path&gt;" class="s16" d="m325.1 262.8v-28.2h15.8v28.2z"/>
					<path id="&lt;Path&gt;" class="s17" d="m306 262.8v-28.2h15.8v28.2z"/>
					<path id="&lt;Path&gt;" class="s1" d="m294.9 251c-1.9 0-3.3-1.5-3.3-3.4 0-1.8 1.4-3.3 3.3-3.3 1.8 0 3.3 1.5 3.3 3.3 0 1.9-1.5 3.4-3.3 3.4z"/>
				</g>
			</g>
		</g>
	</g>
	<g id="Trash can">
		<g id="&lt;Group&gt;">
			<path id="&lt;Path&gt;" class="s0" d="m158 899.6c2.7 0.9 5.1 2.9 6.7 0.2 1.5-2.6 5.6-1.8 7.2-2.4 1.5-0.5 3.7-5 3.6-6.4-0.1-1.4-1.3-2.8-1.3-4.1 0-1.3-0.1-3.3-0.3-5.1-0.1-1.8-0.3-4.4-3.1-5.7-2.8-1.3-4.5-0.8-6.2-1-1.8-0.2-3.1-3-6.6-4.1-3.6-1.1-8.2 2.8-8.6 4.4-0.4 1.6-0.7 6.4-2 8.2-1.4 1.8-3.2 1.2-3.5 3.4-0.3 2.2-0.2 5.9 0.5 6.6 0.6 0.6 2.3-0.4 3.1 1 0.8 1.3 1.5 4.8 3.1 5.6 1.6 0.9 5.3-1.3 7.4-0.6z"/>
			<g id="&lt;Group&gt;">
				<g id="&lt;Group&gt;">
					<g id="&lt;Group&gt;">
						<path id="&lt;Path&gt;" class="s9" d="m128.7 791.7l-3.4 3.4-0.2-1.2v-0.1l2.2-2.1z"/>
						<path id="&lt;Path&gt;" class="s9" d="m141.7 791.7l-11.7 11.7-3.7 3.8-0.1-0.8v-0.5l3.1-3.2 11.2-11z"/>
						<path id="&lt;Path&gt;" class="s9" d="m154.8 791.7l-18.2 18.3-9.3 9.2v-0.2l-0.1-1 8.7-8.7 17.7-17.6z"/>
						<path id="&lt;Path&gt;" class="s9" d="m167.9 791.7l-24.8 24.8-14.8 14.8-0.1-1.2 14.2-14.3 24.3-24.1z"/>
						<path id="&lt;Path&gt;" class="s9" d="m180.9 791.7q-2.7 2.7-5.4 5.4l-25.8 26-20.4 20.2v-1.1l19.7-19.8 26-25.9q2.4-2.4 4.9-4.8z"/>
						<path id="&lt;Path&gt;" class="s9" d="m193.9 791.7q-5.9 5.9-11.8 11.9l-25.9 26-25.8 25.7-0.1-1 25.2-25.4 26-25.8q5.8-5.8 11.6-11.4z"/>
						<path id="&lt;Path&gt;" class="s9" d="m206.8 791.7q-9.1 9.2-18.2 18.5l-25.8 26-26 25.8q-2.7 2.7-5.4 5.3l-0.1-0.8c1.6-1.7 3.3-3.3 4.9-5l25.9-26 26-25.9q9.1-9 18.3-17.9z"/>
						<path id="&lt;Path&gt;" class="s9" d="m219.5 791.8v0.1q-12.1 12.5-24.3 24.8l-25.9 26-26 25.9q-5.4 5.3-10.9 10.7l-0.1-0.6q5.2-5.4 10.5-10.7l25.8-26 26-25.8q12.4-12.3 24.9-24.4z"/>
						<path id="&lt;Path&gt;" class="s9" d="m218.3 805.9v0.5q0 0 0 0-8.3 8.5-16.6 16.9l-25.8 26-26 25.8q-8.2 8.1-16.5 16.2v-0.1-0.4q7.9-8.1 15.9-16.2l25.9-26 26-25.9q8.5-8.4 17.1-16.8z"/>
						<path id="&lt;Path&gt;" class="s9" d="m217.1 820v0.9q-4.4 4.5-8.8 8.9l-25.9 26-26 25.9q-10.6 10.5-21.3 20.9h-0.3q10.5-10.8 21.1-21.5l25.8-26 26-25.8q4.7-4.7 9.4-9.3z"/>
						<path id="&lt;Path&gt;" class="s9" d="m215.9 834.2l-0.1 1.1q-0.5 0.5-1 1.1l-25.8 26-26 25.8q-7.3 7.2-14.7 14.4h-0.5q7.3-7.5 14.6-14.9l25.9-26 26-25.9q0.8-0.8 1.6-1.6z"/>
						<path id="&lt;Path&gt;" class="s9" d="m214.7 848.4l-0.1 1.3-19.1 19.2-26 25.9q-4 3.9-7.9 7.8h-0.9q4.1-4.2 8.3-8.4l25.8-26z"/>
						<path id="&lt;Path&gt;" class="s9" d="m213.5 862.7l-0.1 1.4-11.3 11.4-26 25.8q-0.7 0.7-1.3 1.3h-1.1q0.9-0.9 1.8-1.8l25.9-26z"/>
						<path id="&lt;Path&gt;" class="s9" d="m212.3 876.9l-0.1 1.5-3.6 3.6-20.7 20.6h-1.1l21.1-21.3z"/>
						<path id="&lt;Path&gt;" class="s9" d="m211.1 891.2v0.1l-0.1 1.4-9.9 9.9h-1.3z"/>
					</g>
					<g id="&lt;Group&gt;">
						<path id="&lt;Path&gt;" class="s9" d="m219.4 793.8l-0.2 1.3-3.4-3.4h1.4z"/>
						<path id="&lt;Path&gt;" class="s9" d="m218.3 805.9l-0.1 1.3-3.7-3.8-11.8-11.7h1.3l11.2 11z"/>
						<path id="&lt;Path&gt;" class="s9" d="m217.3 818l-0.1 1v0.2l-9.3-9.2-18.2-18.3h1.2l17.7 17.6z"/>
						<path id="&lt;Path&gt;" class="s9" d="m216.3 830.1l-0.1 1.2-14.8-14.8-24.8-24.8h1.1l24.4 24.1z"/>
						<path id="&lt;Path&gt;" class="s9" d="m215.3 842.3l-0.1 1-20.4-20.2-25.8-26q-2.7-2.7-5.4-5.4h0.9q2.5 2.4 5 4.8l26 25.9z"/>
						<path id="&lt;Path&gt;" class="s9" d="m214.2 854.3l-0.1 1-25.8-25.7-25.9-26q-5.9-6-11.8-11.9h0.8q5.8 5.6 11.6 11.4l26 25.8z"/>
						<path id="&lt;Path&gt;" class="s9" d="m213.2 866.5l-0.1 0.9q-2.7-2.7-5.4-5.4l-26-25.8-25.8-26q-9.1-9.3-18.2-18.5h0.4q9.2 8.9 18.3 17.9l26 25.9 25.9 26q2.4 2.5 4.9 5z"/>
						<path id="&lt;Path&gt;" class="s9" d="m212.2 878.7l-0.1 0.6q-5.5-5.3-10.9-10.7l-26-25.9-25.9-26q-12.2-12.3-24.3-24.8v-0.1q12.5 12.1 24.9 24.4l26 25.8 25.8 26q5.3 5.3 10.5 10.7z"/>
						<path id="&lt;Path&gt;" class="s9" d="m211.1 890.8v0.5q-8.3-8.1-16.5-16.2l-26-25.8-25.8-26q-8.3-8.4-16.6-16.9v-0.5q8.6 8.4 17.1 16.8l26 25.9 25.9 26q8 8.1 15.9 16.2z"/>
						<path id="&lt;Path&gt;" class="s9" d="m209.7 902.6h-0.3q-10.7-10.4-21.3-20.9l-26-25.9-25.9-26q-4.4-4.4-8.8-8.9v-0.9q4.7 4.6 9.4 9.3l26 25.8 25.8 26c7.1 7.2 14.1 14.3 21.1 21.5z"/>
						<path id="&lt;Path&gt;" class="s9" d="m196.7 902.6h-0.5q-7.4-7.2-14.7-14.4l-26-25.8-25.8-26q-0.5-0.6-1-1.1l-0.1-1.1c0.5 0.5 1.1 1.1 1.6 1.6l26 25.9 25.9 26q7.3 7.4 14.6 14.9z"/>
						<path id="&lt;Path&gt;" class="s9" d="m183.8 902.6h-0.9q-4-3.9-7.9-7.8l-26-25.9-19.1-19.2-0.1-1.3 19.9 19.8 25.8 26c2.8 2.8 5.5 5.6 8.3 8.4z"/>
						<path id="&lt;Path&gt;" class="s9" d="m170.8 902.6h-1.1q-0.6-0.6-1.3-1.3l-26-25.8-11.3-11.4-0.1-1.4 12.1 12.1 25.9 26q0.9 0.9 1.8 1.8z"/>
						<path id="&lt;Path&gt;" class="s9" d="m157.7 902.6h-1.1l-20.7-20.6-3.6-3.6-0.1-1.4 4.4 4.3z"/>
						<path id="&lt;Path&gt;" class="s9" d="m144.7 902.6h-1.3l-9.9-9.9-0.1-1.5z"/>
					</g>
					<path id="&lt;Path&gt;" class="s9" d="m134.1 902.7l-10.1-110.7 2-0.2 10.1 110.7z"/>
					<path id="&lt;Path&gt;" class="s9" d="m210.7 902.7l-2-0.2 10.1-110.7 2 0.2z"/>
				</g>
				<path id="&lt;Path&gt;" class="s1" d="m225.2 797.5h-106.1v-18h106.1z"/>
				<path id="&lt;Path&gt;" class="s1" d="m214.3 910.9h-84.2v-17.9h84.2z"/>
			</g>
			<g id="&lt;Group&gt;">
				<path id="&lt;Path&gt;" class="s18" d="m206.9 886.2c3.2-0.4 7.3-0.4 7.5 1.4 0.2 1.8-1.2 2.8-0.8 3.7 0.5 0.9 3.1 2.6 4.3 3.8 1.2 1.2 2.1 3.3 2.1 3.8 0 0.5 0.8 1.2 0 2.1-0.8 0.9-1.2 2.3-1.8 3-0.6 0.7-0.9 1.4 0 2.6 0.9 1.3 0.1 4.8-1.2 6-1.4 1.2-5.4-1.7-6.6-1.4-1.2 0.3-1.3 0.9-2.4 1.7-1.1 0.7-3.6 2.6-6.4 2.6-2.7 0-4.1-2.5-5.7-3.5-1.7-1.1-3.2-1.3-4.7-1.9-1.6-0.6-3.2-1.9-3.5-2.5-0.3-0.7-1.4-0.8-0.9-2.5 0.4-1.6 1.2-2.1 1.2-3.5 0-1.3 0-1.6 0-3.1 0-1.6-1.2-4.3-0.2-5.5 1.1-1.2 1.8-3.1 3.5-3.1 1.7 0 7 1 7 1 0 0 0.6-0.7 1.5-2 0.9-1.4 2.5-2.3 3.7-2.1 1.2 0.1 3.4-0.6 3.4-0.6z"/>
				<path id="&lt;Path&gt;" class="s4" d="m188 901.6c2.1 1 4.3 1.9 6.6 2.8q3.3 1.4 6.6 2.6c2.2 0.8 4.5 1.7 6.7 2.2 0.5 0.1 1.1 0.2 1.4 0.2l1.3-0.7c1-0.6 2-1.1 2.9-1.8 0.9-0.7 1.7-1.4 2.2-2.3 0.2-0.2 0.2-0.4 0.3-0.6l0.1-0.3 0.1-0.2q0 0 0 0c0-0.1-0.3-0.6-0.6-1-1.4-1.7-3.4-3.1-5.2-4.5q-2.8-2.1-5.9-4-1.5-1-3-1.9-0.8-0.4-1.6-0.8-0.4-0.2-0.8-0.4c-0.3-0.1-0.6-0.3-0.8 0 0.2-0.3 0.6-0.2 0.8-0.1q0.5 0.1 0.9 0.2 0.9 0.3 1.7 0.6 1.7 0.7 3.3 1.5 3.2 1.7 6.3 3.6c2 1.3 4 2.7 5.8 4.6 0.4 0.5 0.9 1 1 2.1q0 0.2 0 0.5l-0.1 0.2-0.1 0.6c-0.2 0.3-0.3 0.6-0.5 0.9-0.7 1.2-1.7 2.1-2.7 2.9-1 0.8-2.1 1.4-3.2 1.9l-0.8 0.4-0.4 0.2-0.3 0.1q-0.2 0.1-0.4 0.2c-0.9 0.1-1.5-0.1-2.2-0.3-2.4-0.6-4.6-1.5-6.8-2.6-4.3-2-8.6-4.1-12.6-6.8z"/>
				<path id="&lt;Path&gt;" class="s4" d="m197 905.8c1.2-1.9 2.5-3.6 4-5.3 0.7-0.8 1.5-1.6 2.2-2.4q0.6-0.6 1.3-1.1c0.5-0.4 0.8-0.7 1.6-1.1q0.1 0 0.3-0.1 0.3 0 0.6 0c0.4 0.1 0.6 0.3 0.9 0.4q0.3 0.4 0.6 0.8 0.5 0.7 0.9 1.5c0.5 0.9 1.1 1.9 1.5 2.9 0.8 2 1.7 4.1 2 6.3l-3.4-5.6c-0.6-0.9-1.1-1.8-1.7-2.7-0.3-0.4-0.6-0.8-0.9-1.2-0.1-0.2-0.3-0.4-0.4-0.5 0 0 0 0 0.2 0.1q0.1 0 0.2-0.1 0 0.1-0.1 0.1c-0.2 0.1-0.7 0.4-1.1 0.7l-1.2 1-2.4 2.1c-1.7 1.4-3.3 2.8-5.1 4.2z"/>
			</g>
			<path id="&lt;Path&gt;" class="s18" d="m156.7 918.9c-1.8 0.4-4 0.6-4.2-0.4-0.3-0.9 0.5-1.6 0.2-2-0.3-0.5-1.8-1.3-2.5-1.9-0.8-0.6-1.4-1.7-1.4-2 0-0.2-0.5-0.6-0.1-1.1 0.4-0.6 0.5-1.3 0.8-1.7 0.3-0.4 0.5-0.9-0.1-1.5-0.6-0.6-0.3-2.6 0.4-3.3 0.7-0.7 3 0.6 3.6 0.4 0.7-0.2 0.7-0.6 1.3-1 0.5-0.5 1.8-1.6 3.3-1.8 1.5-0.1 2.4 1.2 3.4 1.6 0.9 0.5 1.8 0.6 2.6 0.8 0.9 0.3 1.9 0.9 2.1 1.2 0.2 0.4 0.8 0.4 0.6 1.3-0.2 1-0.6 1.3-0.5 2 0.1 0.7 0.1 0.9 0.2 1.7 0.1 0.9 0.9 2.3 0.3 3-0.5 0.8-0.8 1.8-1.7 1.9-0.9 0.1-3.9-0.2-3.9-0.2 0 0-0.3 0.4-0.7 1.2-0.4 0.8-1.3 1.4-1.9 1.3-0.7 0-1.8 0.5-1.8 0.5z"/>
			<path id="&lt;Path&gt;" class="s4" d="m150.1 909.2c0.9-1 1.9-1.9 2.8-2.8l0.7-0.7 0.4-0.3c0.3-0.3 0.5-0.3 0.7-0.4 0.8-0.2 1.5-0.2 2.2-0.3 1.3 0 2.7 0.1 4.1 0.3 0.7 0.1 1.4 0.2 2.2 0.7 0.6 0.3 0.9 0.9 1 1.3 0.1 0.5 0.2 0.9 0.2 1.3-0.1 1.5-0.5 2.9-1 4.2q-0.4 1-0.9 1.9-0.2 0.5-0.5 0.9c-0.2 0.3-0.8 0.8-1.2 0.9-1.5 0.5-2.8 0.4-4.2 0.3-1.4-0.2-2.7-0.4-4-0.7 1.3-0.1 2.7-0.1 4-0.3 1.3-0.1 2.7-0.3 3.6-0.7 0.2-0.1 0.2-0.1 0.4-0.4q0.2-0.4 0.4-0.8 0.4-0.8 0.6-1.7c0.4-1.2 0.8-2.5 0.8-3.6 0-0.6 0.4-1 0.4-1-0.3-0.2-1.6-0.3-2.2-0.5-1.2-0.3-2.5-0.4-3.7-0.5-0.7 0-1.3-0.1-1.9 0-0.1 0-0.2 0-0.2 0l-0.4 0.3-0.9 0.5c-1.1 0.7-2.3 1.4-3.4 2.1z"/>
			<path id="&lt;Path&gt;" class="s4" d="m154.2 906.6c0.1 1.3 0 2.5 0.1 3.6 0.1 0.6 0.2 1.2 0.3 1.2 0 0.1 0 0 0 0 0 0 0 0 0.1 0 0.1 0 0.4 0 0.7-0.1 1-0.2 2.2-0.5 3.4-0.7 1.2-0.3 2.4-0.5 3.6-0.6-0.9 0.8-2 1.5-3.1 2-1.1 0.6-2.3 1-3.6 1.3-0.4 0-0.7 0.1-1.1 0-0.2 0-0.6 0-0.8-0.1-0.3-0.2-0.6-0.4-0.7-0.7-0.6-1-0.4-1.7-0.4-2.3q0.4-2 1.5-3.6z"/>
			<g id="&lt;Group&gt;">
				<path id="&lt;Path&gt;" class="s18" d="m142.2 892.9c-0.9-2.7-0.8-5.8-3.8-5.5-3 0.3-4.9-3.5-6.2-4.4-1.4-0.9-6.2 0-7.3 0.9-1.1 0.9-1.5 2.7-2.6 3.5-1.1 0.8-2.6 2-3.9 3.2-1.4 1.2-3.4 2.9-2.8 5.9 0.6 3.1 2 4.1 2.9 5.6 0.9 1.6-0.6 4.3 0.6 7.8 1.2 3.5 7.2 4.8 8.7 4.2 1.5-0.6 5.5-3.2 7.8-3.2 2.2 0 2.8 1.9 4.8 0.8 1.9-1.1 4.8-3.3 5-4.2 0.1-1-1.7-1.8-1.1-3.2 0.6-1.4 3.1-4.1 2.8-5.8-0.3-1.8-4.2-3.6-4.9-5.6z"/>
				<path id="&lt;Path&gt;" class="s4" d="m136.5 887.1c-3.7 1.3-7.5 2.6-10.9 4.3-0.4 0.3-0.8 0.5-1.1 0.8-0.1 0-0.2 0.6-0.3 1.1q-0.3 1.4-0.4 2.9c-0.2 1.9-0.3 3.9-0.4 5.8 0 1 0.1 2 0.2 2.8 0 0.5 0.2 0.8 0.2 0.8 0.1 0.1 0.6 0.2 1.1 0.3 1.8 0.3 3.8 0.3 5.7 0.3 0.9 0 1.9-0.1 2.8-0.2 0.8-0.2 2-0.4 2.9-0.6 1.9-0.4 3.9-0.8 5.7-1.2 0.5-0.2 1-0.3 1.3-0.4q0.2-0.1 0.3-0.1c0 0 0.1-0.1 0 0q-0.1 0-0.1 0.2c-0.2 0.1-0.2 0.6-0.1 0.7 0 0.1 0.1 0.3 0.2 0.3 0 0.1 0.1 0.1 0.1 0.1 0 0 0 0 0 0l-0.3-0.1c-0.8-0.3-1.8-0.5-2.8-0.7l-5.7-1.3q-2.9-0.6-5.8-1.4c-1-0.2-2-0.5-3-0.8-0.5-0.2-0.9-0.3-1.6-0.9 0 0-0.1-0.1-0.2-0.2 0 0-0.1-0.3-0.1-0.3q0-0.2 0-0.4c0-0.3 0.1-0.4 0.1-0.5 0.1-0.4 0.2-0.6 0.3-0.9 1.1-1.8 2.4-3.3 3.8-4.8q0.5-0.5 1.1-1 0.3-0.3 0.6-0.5 0.2-0.2 0.3-0.3c0.2-0.1 0.2-0.1 0.5-0.2 0.6-0.1 0.9 0.1 1.2 0.2q0.3 0.3 0.6 0.6 0.6 0.5 1.1 1.1c2.4 3.2 4.5 6.5 6.4 10-2.3-3.2-4.5-6.5-7.2-9.4q-0.5-0.5-1-1c-0.3-0.3-0.9-0.5-0.8-0.5 0.1 0-0.1 0.1-0.1 0.2q-0.1 0-0.3 0.2-0.2 0.2-0.5 0.4-0.5 0.5-1 1.1c-1.2 1.4-2.5 3-3.3 4.6-0.1 0.2-0.2 0.4-0.2 0.6 0 0.1-0.1 0.2 0 0.2q0 0 0 0c0 0-0.1-0.2-0.1-0.2 0-0.1-0.1-0.1-0.1-0.1 0.1 0 0.7 0.3 1.1 0.4q1.3 0.4 2.8 0.8 2.8 0.6 5.7 1.2l7.4 1.4c1 0.2 0.4 0.2 1.4 0.5q0.2 0.1 0.5 0.2c0 0 0.1 0.1 0.3 0.2 0 0 0.1 0.1 0.2 0.2 0.1 0 0.2 0.2 0.3 0.4 0 0.1 0 0.6-0.1 0.8q-0.2 0.2-0.4 0.4c-0.2 0.2-0.2 0.1-0.3 0.2q-0.3 0.1-0.5 0.2c-0.5 0.2-1 0.4-1.5 0.5-2 0.5-3.9 0.8-5.9 1.2-1 0.1-1.8 0.3-2.9 0.5-1.1 0.1-2.1 0.2-3.1 0.2-2 0-4 0-6.1-0.4-0.5-0.1-1-0.2-1.7-0.6-0.3-0.2-0.7-0.8-0.7-1.1q-0.1-0.4-0.2-0.8c-0.1-1.1 0-2.1 0-3.1 0.1-2 0.4-4 0.6-6q0.3-1.5 0.6-3c0.2-0.5 0-0.9 0.6-1.6 0.5-0.4 1-0.6 1.5-0.8 1.8-0.9 3.7-1.4 5.6-2 1.9-0.6 3.8-1.1 5.7-1.5z"/>
			</g>
		</g>
	</g>
</svg>