<svg version="1.2" xmlns="http://www.w3.org/2000/svg" viewBox="0 0 1500 1000" width="1500" height="1000">
	<title>3873230-ai</title>
	<style>
		.s0 { fill: #ebebeb } 
		.s1 { fill: #e0e0e0 } 
		.s2 { fill: #f5f5f5 } 
		.s3 { fill: #ffffff } 
		.s4 { fill: none;stroke: #fbfbfb;stroke-miterlimit:10;stroke-width: .5 } 
		.s5 { fill: #fafafa } 
		.s6 { fill: #263238 } 
		.s7 { fill:  #BA68C8 } 
		.s8 { fill: #000000 } 
		.s9 { fill: #455a64 } 
		.s10 { fill: #ffbe9d } 
		.s11 { fill: #eb996e } 
	</style>
	<g id="Background Complete">
		<g id="&lt;Group&gt;">
			<g id="&lt;Group&gt;">
				<g id="&lt;Group&gt;">
					<g id="&lt;Group&gt;">
						<path id="&lt;Path&gt;" class="s0" d="m1471.1 946.6h-181.6v-121.4h181.6z"/>
					</g>
				</g>
				<g id="&lt;Group&gt;">
					<g id="&lt;Group&gt;">
						<path id="&lt;Path&gt;" class="s1" d="m1471.1 946.6h-73.9v-121.4h73.9z"/>
					</g>
				</g>
			</g>
		</g>
		<g id="&lt;Group&gt;">
			<g id="&lt;Group&gt;">
				<g id="&lt;Group&gt;">
					<g id="&lt;Group&gt;">
						<g id="&lt;Group&gt;">
							<path id="&lt;Path&gt;" class="s1" d="m1369.1 357.9h-175.8v-254.8h175.8z"/>
						</g>
					</g>
				</g>
			</g>
			<g id="&lt;Group&gt;">
				<g id="&lt;Group&gt;">
					<g id="&lt;Group&gt;">
						<g id="&lt;Group&gt;">
							<path id="&lt;Path&gt;" class="s2" d="m1360.3 357.9h-175.8v-254.8h175.8z"/>
						</g>
					</g>
				</g>
			</g>
			<g id="&lt;Group&gt;">
				<g id="&lt;Group&gt;">
					<g id="&lt;Group&gt;">
						<g id="&lt;Group&gt;">
							<g id="&lt;Group&gt;">
								<path id="&lt;Path&gt;" class="s3" d="m1338.4 330.3h-132.1v-199.6h132.1z"/>
							</g>
						</g>
					</g>
				</g>
				<g id="&lt;Group&gt;">
					<g id="&lt;Group&gt;">
						<g id="&lt;Group&gt;">
							<g id="&lt;Group&gt;">
								<g id="&lt;Group&gt;">
									<path id="&lt;Path&gt;" class="s1" d="m1338.4 330.3q0 0 0-1 0-1 0-2.8c-0.1-2.5-0.1-6.2-0.1-11 0-9.5-0.1-23.5-0.1-41.1-0.1-35.2-0.1-85-0.2-143.7l0.4 0.5c-40.3 0-85.1 0-132.1 0l0.5-0.5c0 75.3-0.1 144.7-0.1 199.6l-0.4-0.4c40.2 0.1 73.2 0.2 96.2 0.2 11.4 0.1 20.4 0.1 26.5 0.1q4.6 0 7 0.1c1.6 0 2.4 0 2.4 0q0 0-2.3 0-2.4 0.1-6.9 0.1c-6.1 0-15.1 0-26.5 0.1-23 0-56.1 0.1-96.4 0.2h-0.4v-0.4c0-54.9 0-124.3-0.1-199.6v-0.5h0.5c47 0 91.8 0.1 132.1 0.1h0.5v0.4c-0.1 58.8-0.2 108.8-0.3 144 0 17.6-0.1 31.5-0.1 41 0 4.8 0 8.4 0 10.9q-0.1 1.8-0.1 2.8 0 0.9 0 0.9z"/>
								</g>
							</g>
						</g>
					</g>
				</g>
			</g>
			<g id="&lt;Group&gt;">
				<g id="&lt;Group&gt;">
					<g id="&lt;Group&gt;">
						<g id="&lt;Group&gt;">
							<g id="&lt;Group&gt;">
								<path id="&lt;Path&gt;" class="s4" d=""/>
							</g>
						</g>
					</g>
				</g>
			</g>
			<g id="&lt;Group&gt;">
				<g id="&lt;Group&gt;">
					<g id="&lt;Group&gt;">
						<g id="&lt;Group&gt;">
							<g id="&lt;Group&gt;">
								<path id="&lt;Path&gt;" class="s1" d="m1360.7 103.1c0.1 0.1-1 1.8-3.1 4.6-2 2.7-4.9 6.4-8.2 10.4-3.3 4-6.4 7.6-8.7 10.1-2.3 2.6-3.8 4.1-3.9 4-0.1-0.1 1.2-1.8 3.4-4.4 2.3-2.9 5.2-6.4 8.4-10.3 3.2-3.9 6.1-7.4 8.5-10.2 2.2-2.7 3.5-4.3 3.6-4.2z"/>
							</g>
						</g>
					</g>
				</g>
			</g>
			<g id="&lt;Group&gt;">
				<g id="&lt;Group&gt;">
					<g id="&lt;Group&gt;">
						<g id="&lt;Group&gt;">
							<g id="&lt;Group&gt;">
								<path id="&lt;Path&gt;" class="s3" d="m1339.1 329.7c6.5 10.4 14.3 20.1 23 28.8"/>
							</g>
						</g>
					</g>
				</g>
				<g id="&lt;Group&gt;">
					<g id="&lt;Group&gt;">
						<g id="&lt;Group&gt;">
							<g id="&lt;Group&gt;">
								<g id="&lt;Group&gt;">
									<path id="&lt;Path&gt;" class="s1" d="m1362.1 358.5c-0.1 0.1-1.6-1.3-4-3.7-2.4-2.4-5.5-5.8-8.7-9.8-3.2-4-5.8-7.8-7.6-10.6-1.8-2.8-2.8-4.7-2.7-4.7 0.1-0.1 1.3 1.6 3.2 4.3 2 2.7 4.7 6.4 7.9 10.4 3.1 4 6.2 7.5 8.4 10 2.2 2.4 3.6 4 3.5 4.1z"/>
								</g>
							</g>
						</g>
					</g>
				</g>
			</g>
			<g id="&lt;Group&gt;">
				<g id="&lt;Group&gt;">
					<g id="&lt;Group&gt;">
						<g id="&lt;Group&gt;">
							<g id="&lt;Group&gt;">
								<path id="&lt;Path&gt;" class="s3" d="m1184.5 357.7q11.5-14.2 23-28.4"/>
							</g>
						</g>
					</g>
				</g>
				<g id="&lt;Group&gt;">
					<g id="&lt;Group&gt;">
						<g id="&lt;Group&gt;">
							<g id="&lt;Group&gt;">
								<g id="&lt;Group&gt;">
									<path id="&lt;Path&gt;" class="s1" d="m1207.5 329.3c0.2 0.2-4.8 6.6-11.2 14.5-6.3 7.8-11.6 14.1-11.8 13.9-0.3-0.2 4.7-6.7 11.1-14.5 6.3-7.9 11.7-14.1 11.9-13.9z"/>
								</g>
							</g>
						</g>
					</g>
				</g>
			</g>
			<g id="&lt;Group&gt;">
				<g id="&lt;Group&gt;">
					<g id="&lt;Group&gt;">
						<g id="&lt;Group&gt;">
							<g id="&lt;Group&gt;">
								<path id="&lt;Path&gt;" class="s1" d="m1184.5 103.1c0.2-0.1 5.2 5.8 11.2 13.4 5.9 7.5 10.6 13.8 10.4 13.9-0.2 0.2-5.2-5.8-11.2-13.3-6-7.6-10.6-13.8-10.4-14z"/>
							</g>
						</g>
					</g>
				</g>
			</g>
			<g id="&lt;Group&gt;">
				<g id="&lt;Group&gt;">
					<g id="&lt;Group&gt;">
						<g id="&lt;Group&gt;">
							<path id="&lt;Path&gt;" class="s1" d="m1297.3 296.8h-44.3v-125.6h44.3z"/>
						</g>
					</g>
				</g>
			</g>
		</g>
		<g id="&lt;Group&gt;">
			<g id="&lt;Group&gt;">
				<g id="&lt;Group&gt;">
					<g id="&lt;Group&gt;">
						<path id="&lt;Path&gt;" class="s0" d="m1343.3 531.2h-181.6v-121.4h181.6z"/>
					</g>
				</g>
				<g id="&lt;Group&gt;">
					<g id="&lt;Group&gt;">
						<path id="&lt;Path&gt;" class="s1" d="m1343.3 531.2h-73.9v-121.4h73.9z"/>
					</g>
				</g>
			</g>
		</g>
		<g id="&lt;Group&gt;">
			<g id="&lt;Group&gt;">
				<g id="&lt;Group&gt;">
					<g id="&lt;Group&gt;">
						<g id="&lt;Group&gt;">
							<g id="&lt;Group&gt;">
								<g id="&lt;Group&gt;">
									<g id="&lt;Group&gt;">
										<g id="&lt;Group&gt;">
											<g id="&lt;Group&gt;">
												<g id="&lt;Group&gt;">
													<path id="&lt;Path&gt;" class="s1" d="m263.5 415h-131.3v-136.8h131.3z"/>
												</g>
											</g>
										</g>
									</g>
								</g>
							</g>
						</g>
					</g>
				</g>
			</g>
			<g id="&lt;Group&gt;">
				<g id="&lt;Group&gt;">
					<g id="&lt;Group&gt;">
						<g id="&lt;Group&gt;">
							<g id="&lt;Group&gt;">
								<g id="&lt;Group&gt;">
									<g id="&lt;Group&gt;">
										<g id="&lt;Group&gt;">
											<g id="&lt;Group&gt;">
												<g id="&lt;Group&gt;">
													<path id="&lt;Path&gt;" class="s5" d="m254.6 415h-131.2v-136.8h131.2z"/>
												</g>
											</g>
										</g>
									</g>
								</g>
							</g>
						</g>
					</g>
				</g>
				<g id="&lt;Group&gt;">
					<g id="&lt;Group&gt;">
						<g id="&lt;Group&gt;">
							<g id="&lt;Group&gt;">
								<g id="&lt;Group&gt;">
									<g id="&lt;Group&gt;">
										<g id="&lt;Group&gt;">
											<g id="&lt;Group&gt;">
												<g id="&lt;Group&gt;">
													<path id="&lt;Compound Path&gt;" fill-rule="evenodd" class="s1" d="m254.6 415h-131.3v-136.8h131.3zm-131.2-0.1h131.2v-136.8h-131.2z"/>
												</g>
											</g>
										</g>
									</g>
								</g>
							</g>
						</g>
					</g>
				</g>
			</g>
			<g id="&lt;Group&gt;">
				<g id="&lt;Group&gt;">
					<g id="&lt;Group&gt;">
						<g id="&lt;Group&gt;">
							<g id="&lt;Group&gt;">
								<g id="&lt;Group&gt;">
									<g id="&lt;Group&gt;">
										<g id="&lt;Group&gt;">
											<g id="&lt;Group&gt;">
												<g id="&lt;Group&gt;">
													<path id="&lt;Path&gt;" class="s5" d="m237 396.6h-96v-100h96z"/>
												</g>
											</g>
										</g>
									</g>
								</g>
							</g>
						</g>
					</g>
				</g>
			</g>
			<g id="&lt;Group&gt;">
				<g id="&lt;Group&gt;">
					<g id="&lt;Group&gt;">
						<g id="&lt;Group&gt;">
							<g id="&lt;Group&gt;">
								<g id="&lt;Group&gt;">
									<g id="&lt;Group&gt;">
										<g id="&lt;Group&gt;">
											<g id="&lt;Group&gt;">
												<g id="&lt;Group&gt;">
													<g id="&lt;Group&gt;">
														<path id="&lt;Path&gt;" class="s1" d="m141 397.3c0.1 0.1-0.8 1.1-2.4 2.7-1.5 1.6-3.7 3.8-6.1 6.2-2.4 2.4-4.6 4.5-6.2 6-1.7 1.5-2.7 2.4-2.8 2.3-0.1-0.1 0.8-1.1 2.3-2.7 1.6-1.6 3.7-3.8 6.2-6.2 2.4-2.4 4.6-4.5 6.2-6 1.7-1.5 2.7-2.4 2.8-2.3z"/>
													</g>
												</g>
											</g>
										</g>
									</g>
								</g>
							</g>
						</g>
					</g>
				</g>
			</g>
			<g id="&lt;Group&gt;">
				<g id="&lt;Group&gt;">
					<g id="&lt;Group&gt;">
						<g id="&lt;Group&gt;">
							<g id="&lt;Group&gt;">
								<g id="&lt;Group&gt;">
									<g id="&lt;Group&gt;">
										<g id="&lt;Group&gt;">
											<g id="&lt;Group&gt;">
												<g id="&lt;Group&gt;">
													<g id="&lt;Group&gt;">
														<path id="&lt;Path&gt;" class="s1" d="m237 397c0 0 1.1 0.9 2.7 2.4 1.6 1.5 3.8 3.7 6.2 6.1 2.4 2.4 4.5 4.6 6 6.3 1.5 1.6 2.4 2.7 2.3 2.7-0.1 0.1-1.1-0.8-2.7-2.3-1.7-1.5-3.9-3.7-6.2-6.1-2.4-2.5-4.5-4.7-6-6.3-1.6-1.6-2.4-2.7-2.3-2.8z"/>
													</g>
												</g>
											</g>
										</g>
									</g>
								</g>
							</g>
						</g>
					</g>
				</g>
			</g>
			<g id="&lt;Group&gt;">
				<g id="&lt;Group&gt;">
					<g id="&lt;Group&gt;">
						<g id="&lt;Group&gt;">
							<g id="&lt;Group&gt;">
								<g id="&lt;Group&gt;">
									<g id="&lt;Group&gt;">
										<g id="&lt;Group&gt;">
											<g id="&lt;Group&gt;">
												<g id="&lt;Group&gt;">
													<g id="&lt;Group&gt;">
														<path id="&lt;Path&gt;" class="s1" d="m236.7 296.9c-0.1-0.1 0.8-1.2 2.4-2.8 1.5-1.6 3.6-3.8 6.1-6.2 2.4-2.4 4.6-4.5 6.2-6 1.7-1.5 2.7-2.4 2.8-2.3 0.1 0.1-0.8 1.1-2.4 2.7-1.5 1.7-3.6 3.9-6.1 6.2-2.4 2.4-4.6 4.6-6.2 6.1-1.7 1.5-2.7 2.3-2.8 2.3z"/>
													</g>
												</g>
											</g>
										</g>
									</g>
								</g>
							</g>
						</g>
					</g>
				</g>
			</g>
			<g id="&lt;Group&gt;">
				<g id="&lt;Group&gt;">
					<g id="&lt;Group&gt;">
						<g id="&lt;Group&gt;">
							<g id="&lt;Group&gt;">
								<g id="&lt;Group&gt;">
									<g id="&lt;Group&gt;">
										<g id="&lt;Group&gt;">
											<g id="&lt;Group&gt;">
												<g id="&lt;Group&gt;">
													<g id="&lt;Group&gt;">
														<path id="&lt;Path&gt;" class="s1" d="m140.7 297.1c-0.1 0.1-1.1-0.8-2.7-2.4-1.6-1.5-3.8-3.7-6.2-6.1-2.4-2.4-4.5-4.6-6-6.2-1.5-1.7-2.4-2.7-2.3-2.8 0.1-0.1 1.1 0.8 2.7 2.3 1.7 1.6 3.8 3.7 6.2 6.2 2.4 2.4 4.5 4.6 6 6.2 1.5 1.7 2.4 2.7 2.3 2.8z"/>
													</g>
												</g>
											</g>
										</g>
									</g>
								</g>
							</g>
						</g>
					</g>
				</g>
			</g>
			<g id="&lt;Group&gt;">
				<g id="&lt;Group&gt;">
					<g id="&lt;Group&gt;">
						<g id="&lt;Group&gt;">
							<g id="&lt;Group&gt;">
								<g id="&lt;Group&gt;">
									<g id="&lt;Group&gt;">
										<g id="&lt;Group&gt;">
											<g id="&lt;Group&gt;">
												<g id="&lt;Group&gt;">
													<g id="&lt;Group&gt;">
														<path id="&lt;Path&gt;" class="s1" d="m236.7 396.6q0 0 0-0.5 0-0.5 0-1.4-0.1-1.9-0.1-5.4c0-4.7 0-11.6-0.1-20.4 0-17.5-0.1-42.4-0.2-72.3l0.4 0.4c-27.9 0-60.7 0-95.7 0l0.4-0.4c0 36.7 0 71 0 100l-0.4-0.4c28.7 0.1 52.5 0.2 69.3 0.2 8.4 0.1 14.9 0.1 19.5 0.1q3.3 0.1 5.1 0.1 0.8 0 1.3 0 0.5 0 0.5 0 0 0-0.4 0-0.5 0-1.3 0.1-1.8 0-5.1 0c-4.5 0-11.1 0-19.4 0.1-16.8 0-40.7 0.1-69.5 0.2h-0.4v-0.4c0-29 0-63.3 0-100v-0.4h0.4c35 0 67.8 0 95.7 0h0.4v0.4c-0.1 30-0.2 55-0.2 72.6-0.1 8.7-0.1 15.6-0.1 20.3q-0.1 3.5-0.1 5.3 0 0.9 0 1.4 0 0.4 0 0.4z"/>
													</g>
												</g>
											</g>
										</g>
									</g>
								</g>
							</g>
						</g>
					</g>
				</g>
			</g>
			<g id="&lt;Group&gt;">
				<g id="&lt;Group&gt;">
					<g id="&lt;Group&gt;">
						<g id="&lt;Group&gt;">
							<g id="&lt;Group&gt;">
								<g id="&lt;Group&gt;">
									<g id="&lt;Group&gt;">
										<g id="&lt;Group&gt;">
											<g id="&lt;Group&gt;">
												<g id="&lt;Group&gt;">
													<path id="&lt;Path&gt;" class="s0" d="m205 362.6h-32v-32h32z"/>
												</g>
											</g>
										</g>
									</g>
								</g>
							</g>
						</g>
					</g>
				</g>
			</g>
		</g>
	</g>
	<g id="Floor">
		<g id="&lt;Group&gt;">
			<g id="&lt;Group&gt;">
				<path id="&lt;Path&gt;" class="s6" d="m1455 946.3c0 0.3-315.7 0.5-705 0.5-389.4 0-705-0.2-705-0.5 0-0.3 315.6-0.5 705-0.5 389.3 0 705 0.2 705 0.5z"/>
			</g>
		</g>
	</g>
	<g id="Plant">
		<g id="&lt;Group&gt;">
			<g id="&lt;Group&gt;">
				<g id="&lt;Group&gt;">
					<g id="&lt;Group&gt;">
						<g id="&lt;Group&gt;">
							<g id="&lt;Group&gt;">
								<path id="&lt;Path&gt;" class="s7" d="m163 810.1c-30-16.3-63.8-45.8-76.9-79.3 32.5 16.7 59.8 44.9 76.9 79.3z"/>
							</g>
						</g>
						<g id="&lt;Group&gt;">
							<g id="&lt;Group&gt;">
								<path id="&lt;Path&gt;" class="s7" d="m161 759.8c-30-16.3-63.7-45.8-76.9-79.3 32.5 16.7 59.8 44.9 76.9 79.3z"/>
							</g>
						</g>
						<g id="&lt;Group&gt;">
							<g id="&lt;Group&gt;">
								<path id="&lt;Path&gt;" class="s7" d="m156.5 710.6c-30-16.2-63.7-45.8-76.8-79.3 32.4 16.7 59.8 44.9 76.8 79.3z"/>
							</g>
						</g>
						<g id="&lt;Group&gt;">
							<g id="&lt;Group&gt;">
								<path id="&lt;Path&gt;" class="s7" d="m150 658.9c-27.9-20.3-57.8-54.3-66.9-89.4 30.2 21.2 54 53 66.9 89.4z"/>
							</g>
						</g>
						<g id="&lt;Group&gt;">
							<g id="&lt;Group&gt;">
								<path id="&lt;Path&gt;" class="s7" d="m141.5 619.1c-18.8-30.2-34.9-73.9-31.2-110.2 20.7 31.9 31.8 71.1 31.2 110.2z"/>
							</g>
						</g>
						<g id="&lt;Group&gt;">
							<g id="&lt;Group&gt;">
								<path id="&lt;Path&gt;" class="s7" d="m145.8 638c7.9-37.6 27.2-84 55-110.1-7.8 40.3-27.4 79.5-55 110.1z"/>
							</g>
						</g>
						<g id="&lt;Group&gt;">
							<g id="&lt;Group&gt;">
								<path id="&lt;Path&gt;" class="s7" d="m152 680.6c11.3-38.5 35.2-85.2 66.3-110-11.4 41.4-35 80.5-66.3 110z"/>
							</g>
						</g>
						<g id="&lt;Group&gt;">
							<g id="&lt;Group&gt;">
								<path id="&lt;Path&gt;" class="s7" d="m158.8 732.4c11.3-38.5 35.3-85.1 66.4-110-11.5 41.4-35.1 80.5-66.4 110z"/>
							</g>
						</g>
						<g id="&lt;Group&gt;">
							<g id="&lt;Group&gt;">
								<path id="&lt;Path&gt;" class="s7" d="m162.2 795.5c11.4-38.5 35.3-85.1 66.4-109.9-11.5 41.3-35.1 80.4-66.4 109.9z"/>
							</g>
						</g>
						<g id="&lt;Group&gt;">
							<g id="&lt;Group&gt;">
								<g id="&lt;Group&gt;">
									<path id="&lt;Path&gt;" class="s6" d="m140.8 611.5q0 0 0.1 0.6 0.2 0.7 0.5 1.8 0.5 2.5 1.5 7c1.3 6 3.1 14.9 5 25.8 2 10.9 4.1 24 6.2 38.5 2 14.6 3.9 30.6 5.4 47.5 1.6 16.9 2.6 33 3.3 47.6 0.6 14.7 1 27.9 1 39.1 0 11.1 0 20-0.2 26.3q-0.2 4.5-0.3 7.1 0 1.1-0.1 1.9 0 0.6 0 0.6-0.1 0-0.1-0.6 0-0.8 0-1.9 0-2.6 0-7.2c0-6.2 0-15.1-0.2-26.2-0.1-11.1-0.5-24.3-1.2-39-0.8-14.6-1.9-30.7-3.4-47.6-1.6-16.9-3.4-32.9-5.4-47.4-2-14.6-4-27.6-5.8-38.6-1.9-10.9-3.5-19.7-4.7-25.8q-0.8-4.5-1.3-7.1-0.2-1.1-0.3-1.8-0.1-0.6 0-0.6z"/>
								</g>
							</g>
						</g>
					</g>
					<g id="&lt;Group&gt;" style="opacity: .5">
						<g id="&lt;Group&gt;">
							<g id="&lt;Group&gt;">
								<path id="&lt;Path&gt;" class="s8" d="m163 810.1c-30-16.3-63.8-45.8-76.9-79.3 32.5 16.7 59.8 44.9 76.9 79.3z"/>
							</g>
						</g>
						<g id="&lt;Group&gt;">
							<g id="&lt;Group&gt;">
								<path id="&lt;Path&gt;" class="s8" d="m161 759.8c-30-16.3-63.7-45.8-76.9-79.3 32.5 16.7 59.8 44.9 76.9 79.3z"/>
							</g>
						</g>
						<g id="&lt;Group&gt;">
							<g id="&lt;Group&gt;">
								<path id="&lt;Path&gt;" class="s8" d="m156.5 710.6c-30-16.2-63.7-45.8-76.8-79.3 32.4 16.7 59.8 44.9 76.8 79.3z"/>
							</g>
						</g>
						<g id="&lt;Group&gt;">
							<g id="&lt;Group&gt;">
								<path id="&lt;Path&gt;" class="s8" d="m150 658.9c-27.9-20.3-57.8-54.3-66.9-89.4 30.2 21.2 54 53 66.9 89.4z"/>
							</g>
						</g>
						<g id="&lt;Group&gt;">
							<g id="&lt;Group&gt;">
								<path id="&lt;Path&gt;" class="s8" d="m141.5 619.1c-18.8-30.2-34.9-73.9-31.2-110.2 20.7 31.9 31.8 71.1 31.2 110.2z"/>
							</g>
						</g>
						<g id="&lt;Group&gt;">
							<g id="&lt;Group&gt;">
								<path id="&lt;Path&gt;" class="s8" d="m145.8 638c7.9-37.6 27.2-84 55-110.1-7.8 40.3-27.4 79.5-55 110.1z"/>
							</g>
						</g>
						<g id="&lt;Group&gt;">
							<g id="&lt;Group&gt;">
								<path id="&lt;Path&gt;" class="s8" d="m152 680.6c11.3-38.5 35.2-85.2 66.3-110-11.4 41.4-35 80.5-66.3 110z"/>
							</g>
						</g>
						<g id="&lt;Group&gt;">
							<g id="&lt;Group&gt;">
								<path id="&lt;Path&gt;" class="s8" d="m158.8 732.4c11.3-38.5 35.3-85.1 66.4-110-11.5 41.4-35.1 80.5-66.4 110z"/>
							</g>
						</g>
						<g id="&lt;Group&gt;">
							<g id="&lt;Group&gt;">
								<path id="&lt;Path&gt;" class="s8" d="m162.2 795.5c11.4-38.5 35.3-85.1 66.4-109.9-11.5 41.3-35.1 80.4-66.4 109.9z"/>
							</g>
						</g>
					</g>
					<g id="&lt;Group&gt;">
						<g id="&lt;Group&gt;">
							<g id="&lt;Group&gt;">
								<path id="&lt;Path&gt;" class="s7" d="m176.2 823.1c-14-29.3-24.2-70.4-17.3-102.5 15.5 31 21.6 67.5 17.3 102.5z"/>
							</g>
						</g>
						<g id="&lt;Group&gt;">
							<g id="&lt;Group&gt;">
								<path id="&lt;Path&gt;" class="s7" d="m199.4 785.2c-14-29.3-24.1-70.4-17.3-102.5 15.5 31 21.7 67.5 17.3 102.5z"/>
							</g>
						</g>
						<g id="&lt;Group&gt;">
							<g id="&lt;Group&gt;">
								<path id="&lt;Path&gt;" class="s7" d="m220.2 746.7c-13.9-29.3-24.1-70.4-17.2-102.6 15.5 31.1 21.6 67.5 17.2 102.6z"/>
							</g>
						</g>
						<g id="&lt;Group&gt;">
							<g id="&lt;Group&gt;">
								<path id="&lt;Path&gt;" class="s7" d="m240.8 705.1c-10.4-31-15.6-73.2-5-104.1 11.7 33 13.5 70 5 104.1z"/>
							</g>
						</g>
						<g id="&lt;Group&gt;">
							<g id="&lt;Group&gt;">
								<path id="&lt;Path&gt;" class="s7" d="m254.1 671.1c1.1-33 10.8-74.2 31.2-98.6-0.5 35.4-11.6 70.4-31.2 98.6z"/>
							</g>
						</g>
						<g id="&lt;Group&gt;">
							<g id="&lt;Group&gt;">
								<path id="&lt;Path&gt;" class="s7" d="m248 687.4c24.2-22.8 61-45.6 94.2-48.5-25.5 24.9-59.1 42.2-94.2 48.5z"/>
							</g>
						</g>
						<g id="&lt;Group&gt;">
							<g id="&lt;Group&gt;">
								<path id="&lt;Path&gt;" class="s7" d="m231.6 722.1c27.2-21.5 67.5-41.7 102.4-41.8-28.7 23.5-65.1 38.4-102.4 41.8z"/>
							</g>
						</g>
						<g id="&lt;Group&gt;">
							<g id="&lt;Group&gt;">
								<path id="&lt;Path&gt;" class="s7" d="m211.2 763.9c27.2-21.5 67.5-41.7 102.4-41.8-28.7 23.5-65.1 38.4-102.4 41.8z"/>
							</g>
						</g>
						<g id="&lt;Group&gt;">
							<g id="&lt;Group&gt;">
								<path id="&lt;Path&gt;" class="s7" d="m182.7 812c27.2-21.5 67.6-41.7 102.4-41.8-28.6 23.5-65 38.4-102.4 41.8z"/>
							</g>
						</g>
						<g id="&lt;Group&gt;">
							<g id="&lt;Group&gt;">
								<g id="&lt;Group&gt;">
									<path id="&lt;Path&gt;" class="s6" d="m257.3 665.1q0 0-0.1 0.6-0.3 0.6-0.6 1.5-0.8 2.2-2.3 5.9c-2 5.2-5 12.5-8.9 21.6-7.7 18.1-19.2 42.8-33.5 69.3-7.1 13.2-14.3 25.6-21 36.8-6.8 11.2-13 21.1-18.5 29.3-5.4 8.2-10 14.7-13.2 19.2q-2.3 3.3-3.7 5.2-0.6 0.7-1 1.3-0.3 0.4-0.4 0.4 0 0 0.3-0.5 0.4-0.6 0.9-1.4 1.3-1.9 3.5-5.3c3.1-4.5 7.5-11.1 12.9-19.4 5.3-8.3 11.5-18.2 18.2-29.4 6.7-11.2 13.8-23.6 21-36.8 14.2-26.4 25.8-51 33.7-69 4-9 7.2-16.4 9.3-21.5q1.6-3.6 2.5-5.8 0.4-0.9 0.6-1.5 0.3-0.5 0.3-0.5z"/>
								</g>
							</g>
						</g>
					</g>
				</g>
				<g id="&lt;Group&gt;">
					<g id="&lt;Group&gt;">
						<path id="&lt;Path&gt;" class="s6" d="m216 946.3h-85.8l-16-118.2h118.2z"/>
					</g>
				</g>
			</g>
			<g id="&lt;Group&gt;">
				<g id="&lt;Group&gt;">
					<path id="&lt;Path&gt;" class="s9" d="m228.2 845.4c0 0.3-24.8 0.5-55.4 0.5-30.6 0-55.5-0.2-55.5-0.5 0-0.3 24.9-0.5 55.5-0.5 30.6 0 55.4 0.2 55.4 0.5z"/>
				</g>
			</g>
		</g>
	</g>
	<g id="Device">
		<g id="&lt;Group&gt;">
			<g id="&lt;Group&gt;">
				<g id="&lt;Group&gt;">
					<g id="&lt;Group&gt;">
						<g id="&lt;Group&gt;">
							<g id="&lt;Group&gt;">
								<g id="&lt;Group&gt;">
									<g id="&lt;Group&gt;">
										<g id="&lt;Group&gt;">
											<g id="&lt;Group&gt;">
												<path id="&lt;Path&gt;" class="s6" d="m1025.2 946.3h-550.4c-12.7 0-23.1-10.3-23.1-23.1v-809.9c0-12.7 10.4-23.1 23.1-23.1h550.4c12.7 0 23.1 10.4 23.1 23.1v809.9c0 12.8-10.4 23.1-23.1 23.1z"/>
											</g>
										</g>
									</g>
								</g>
								<g id="&lt;Group&gt;">
									<g id="&lt;Group&gt;">
										<g id="&lt;Group&gt;">
											<g id="&lt;Group&gt;">
												<path id="&lt;Path&gt;" class="s3" d="m1029.2 866.2h-558.9v-714.9h558.9z"/>
											</g>
										</g>
									</g>
								</g>
								<g id="&lt;Group&gt;">
									<g id="&lt;Group&gt;">
										<g id="&lt;Group&gt;">
											<g id="&lt;Group&gt;">
												<path id="&lt;Path&gt;" class="s9" d="m772.9 903.3c0 12.6-10.3 22.9-22.9 22.9-12.6 0-22.9-10.3-22.9-22.9 0-12.6 10.3-22.9 22.9-22.9 12.6 0 22.9 10.3 22.9 22.9z"/>
											</g>
										</g>
									</g>
								</g>
								<g id="&lt;Group&gt;">
									<g id="&lt;Group&gt;">
										<g id="&lt;Group&gt;">
											<g id="&lt;Group&gt;">
												<path id="&lt;Path&gt;" class="s9" d="m837.4 124.3h-174.8c-1.3 0-2.4-1.1-2.4-2.4v-4.6c0-1.3 1.1-2.4 2.4-2.4h174.8c1.3 0 2.4 1.1 2.4 2.4v4.6c0 1.3-1.1 2.4-2.4 2.4z"/>
											</g>
										</g>
									</g>
								</g>
							</g>
						</g>
					</g>
				</g>
			</g>
			<g id="&lt;Group&gt;">
				<g id="&lt;Group&gt;">
					<g id="&lt;Group&gt;">
						<path id="&lt;Path&gt;" class="s7" d="m647.1 410.1h-125.4c-5.1 0-9.2-4.1-9.2-9.2v-125.5c0-5.1 4.1-9.2 9.2-9.2h125.4c5.1 0 9.2 4.1 9.2 9.2v125.5c0 5.1-4.1 9.2-9.2 9.2z"/>
					</g>
				</g>
				<g id="&lt;Group&gt;">
					<g id="&lt;Group&gt;">
						<g id="&lt;Group&gt;">
							<path id="&lt;Path&gt;" class="s5" d="m608.6 346.6h-48.6c-2.8 0-5.1-2.3-5.1-5.1v-21.2c0-2.8 2.3-5.1 5.1-5.1h48.6c2.8 0 5.1 2.3 5.1 5.1v21.2c0 2.8-2.3 5.1-5.1 5.1z"/>
						</g>
					</g>
					<g id="&lt;Group&gt;">
						<g id="&lt;Group&gt;">
							<path id="&lt;Path&gt;" class="s5" d="m624.7 358.9h-80.6c-1.1 0-2-0.9-2-2v-26c0-1.1 0.9-2.1 2-2.1h80.6c1.1 0 2 1 2 2.1v26c0 1.1-0.9 2-2 2z"/>
						</g>
					</g>
					<g id="&lt;Group&gt;">
						<g id="&lt;Group&gt;">
							<g id="&lt;Group&gt;">
								<path id="&lt;Path&gt;" class="s6" d="m613.7 328.8c0.2 0 0.4 4 0.6 10.5v0.6h-0.6c-7.2 0.2-17.7 0.3-29.4 0.3-11.7 0-22.2-0.1-29.4-0.3h-0.6v-0.6c0.1-6.5 0.3-10.5 0.6-10.5 0.2 0 0.4 4 0.6 10.5l-0.6-0.6c7.2-0.2 17.7-0.3 29.4-0.3 11.7 0 22.2 0.1 29.4 0.3l-0.6 0.6c0.1-6.5 0.3-10.5 0.6-10.5z"/>
							</g>
						</g>
					</g>
					<g id="&lt;Group&gt;">
						<g id="&lt;Group&gt;">
							<g id="&lt;Group&gt;">
								<path id="&lt;Path&gt;" class="s6" d="m554.6 358.7c-0.5 0-0.9-6.6-0.9-14.6 0-8 0.4-14.5 0.9-14.5 0.5 0 0.9 6.5 0.9 14.5 0 8-0.4 14.6-0.9 14.6z"/>
							</g>
						</g>
					</g>
					<g id="&lt;Group&gt;">
						<g id="&lt;Group&gt;">
							<g id="&lt;Group&gt;">
								<path id="&lt;Path&gt;" class="s6" d="m613.7 358.9c-0.5 0-0.9-6.3-0.9-14 0-7.8 0.4-14 0.9-14 0.5 0 0.9 6.2 0.9 14 0 7.7-0.4 14-0.9 14z"/>
							</g>
						</g>
					</g>
				</g>
			</g>
			<g id="&lt;Group&gt;">
				<g id="&lt;Group&gt;">
					<g id="&lt;Group&gt;">
						<path id="&lt;Path&gt;" class="s1" d="m809.9 410.1h-125.5c-5.1 0-9.2-4.1-9.2-9.2v-125.5c0-5.1 4.1-9.2 9.2-9.2h125.5c5.1 0 9.2 4.1 9.2 9.2v125.5c0 5.1-4.1 9.2-9.2 9.2z"/>
					</g>
				</g>
				<g id="&lt;Group&gt;">
					<g id="&lt;Group&gt;">
						<g id="&lt;Group&gt;">
							<path id="&lt;Path&gt;" class="s7" d="m771.4 346.6h-48.7c-2.8 0-5.1-2.3-5.1-5.1v-21.2c0-2.8 2.3-5.1 5.1-5.1h48.7c2.8 0 5 2.3 5 5.1v21.2c0 2.8-2.2 5.1-5 5.1z"/>
						</g>
					</g>
					<g id="&lt;Group&gt;">
						<g id="&lt;Group&gt;">
							<path id="&lt;Path&gt;" class="s7" d="m787.4 358.9h-80.5c-1.2 0-2.1-0.9-2.1-2v-26c0-1.1 0.9-2.1 2.1-2.1h80.5c1.2 0 2.1 1 2.1 2.1v26c0 1.1-0.9 2-2.1 2z"/>
						</g>
					</g>
					<g id="&lt;Group&gt;">
						<g id="&lt;Group&gt;">
							<g id="&lt;Group&gt;">
								<path id="&lt;Path&gt;" class="s6" d="m776.4 328.8c0.3 0 0.5 4 0.6 10.5l0.1 0.6h-0.7c-7.2 0.2-17.7 0.3-29.4 0.3-11.7 0-22.2-0.1-29.4-0.3h-0.6v-0.6c0.2-6.5 0.4-10.5 0.6-10.5 0.3 0 0.5 4 0.7 10.5l-0.7-0.6c7.2-0.2 17.7-0.3 29.4-0.3 11.7 0 22.2 0.1 29.4 0.3l-0.6 0.6c0.2-6.5 0.4-10.5 0.6-10.5z"/>
							</g>
						</g>
					</g>
					<g id="&lt;Group&gt;">
						<g id="&lt;Group&gt;">
							<g id="&lt;Group&gt;">
								<path id="&lt;Path&gt;" class="s6" d="m717.3 358.7c-0.5 0-0.9-6.6-0.9-14.6 0-8 0.4-14.5 0.9-14.5 0.6 0 1 6.5 1 14.5 0 8-0.4 14.6-1 14.6z"/>
							</g>
						</g>
					</g>
					<g id="&lt;Group&gt;">
						<g id="&lt;Group&gt;">
							<g id="&lt;Group&gt;">
								<path id="&lt;Path&gt;" class="s6" d="m776.5 358.9c-0.5 0-0.9-6.3-0.9-14 0-7.8 0.4-14 0.9-14 0.5 0 0.9 6.2 0.9 14 0 7.7-0.4 14-0.9 14z"/>
							</g>
						</g>
					</g>
				</g>
			</g>
			<g id="&lt;Group&gt;">
				<g id="&lt;Group&gt;">
					<g id="&lt;Group&gt;">
						<path id="&lt;Path&gt;" class="s1" d="m972.6 410.1h-125.4c-5.1 0-9.2-4.1-9.2-9.2v-125.5c0-5.1 4.1-9.2 9.2-9.2h125.4c5.1 0 9.2 4.1 9.2 9.2v125.5c0 5.1-4.1 9.2-9.2 9.2z"/>
					</g>
				</g>
				<g id="&lt;Group&gt;">
					<g id="&lt;Group&gt;">
						<g id="&lt;Group&gt;">
							<path id="&lt;Path&gt;" class="s9" d="m934.1 346.6h-48.6c-2.8 0-5.1-2.3-5.1-5.1v-21.2c0-2.8 2.3-5.1 5.1-5.1h48.6c2.8 0 5.1 2.3 5.1 5.1v21.2c0 2.8-2.3 5.1-5.1 5.1z"/>
						</g>
					</g>
					<g id="&lt;Group&gt;">
						<g id="&lt;Group&gt;">
							<path id="&lt;Path&gt;" class="s9" d="m950.2 358.9h-80.6c-1.1 0-2-0.9-2-2v-26c0-1.1 0.9-2.1 2-2.1h80.6c1.1 0 2.1 1 2.1 2.1v26c0 1.1-1 2-2.1 2z"/>
						</g>
					</g>
					<g id="&lt;Group&gt;">
						<g id="&lt;Group&gt;">
							<g id="&lt;Group&gt;">
								<path id="&lt;Path&gt;" class="s6" d="m939.2 328.8c0.2 0 0.4 4 0.6 10.5v0.6h-0.6c-7.2 0.2-17.7 0.3-29.4 0.3-11.7 0-22.2-0.1-29.4-0.3h-0.6v-0.6c0.1-6.5 0.4-10.5 0.6-10.5 0.2 0 0.4 4 0.6 10.5l-0.6-0.6c7.2-0.2 17.7-0.3 29.4-0.3 11.7 0 22.2 0.1 29.4 0.3l-0.6 0.6c0.1-6.5 0.3-10.5 0.6-10.5z"/>
							</g>
						</g>
					</g>
					<g id="&lt;Group&gt;">
						<g id="&lt;Group&gt;">
							<g id="&lt;Group&gt;">
								<path id="&lt;Path&gt;" class="s6" d="m880.1 358.7c-0.5 0-0.9-6.6-0.9-14.6 0-8 0.4-14.5 0.9-14.5 0.5 0 0.9 6.5 0.9 14.5 0 8-0.4 14.6-0.9 14.6z"/>
							</g>
						</g>
					</g>
					<g id="&lt;Group&gt;">
						<g id="&lt;Group&gt;">
							<g id="&lt;Group&gt;">
								<path id="&lt;Path&gt;" class="s6" d="m939.2 358.9c-0.5 0-0.9-6.3-0.9-14 0-7.8 0.4-14 0.9-14 0.6 0 1 6.2 1 14 0 7.7-0.4 14-1 14z"/>
							</g>
						</g>
					</g>
				</g>
			</g>
			<g id="&lt;Group&gt;">
				<g id="&lt;Group&gt;">
					<g id="&lt;Group&gt;">
						<path id="&lt;Path&gt;" class="s1" d="m647.1 591.1h-125.4c-5.1 0-9.2-4.1-9.2-9.2v-125.5c0-5.1 4.1-9.2 9.2-9.2h125.4c5.1 0 9.2 4.1 9.2 9.2v125.5c0 5.1-4.1 9.2-9.2 9.2z"/>
					</g>
				</g>
				<g id="&lt;Group&gt;">
					<g id="&lt;Group&gt;">
						<g id="&lt;Group&gt;">
							<path id="&lt;Path&gt;" class="s7" d="m554.4 516.6l6.7 23.4 46 0.2 7.3-22.4c0 0-4.8-1.5-7.9-0.9l-0.8-24.8c0-2.4-2.5-4-4.7-3.1l-4.5 2-25.9-0.1-3-1.5c-2.2-1.2-4.9 0.5-4.9 3l0.1 24.6c0 0-4-1.2-8.4-0.4z"/>
						</g>
					</g>
					<g id="&lt;Group&gt;">
						<g id="&lt;Group&gt;">
							<path id="&lt;Path&gt;" class="s6" d="m563.4 561.3h-2.4v-21.3h2.5z"/>
						</g>
					</g>
					<g id="&lt;Group&gt;">
						<g id="&lt;Group&gt;">
							<path id="&lt;Path&gt;" class="s6" d="m572 550.9h-2.5l0.1-10.8h2.4z"/>
						</g>
					</g>
					<g id="&lt;Group&gt;">
						<g id="&lt;Group&gt;">
							<path id="&lt;Path&gt;" class="s6" d="m596.3 551h-2.4v-10.8h2.5z"/>
						</g>
					</g>
					<g id="&lt;Group&gt;">
						<g id="&lt;Group&gt;">
							<path id="&lt;Path&gt;" class="s6" d="m607 561.5h-2.4l0.1-21.3h2.4z"/>
						</g>
					</g>
					<g id="&lt;Group&gt;">
						<g id="&lt;Group&gt;">
							<g id="&lt;Group&gt;">
								<path id="&lt;Path&gt;" class="s6" d="m570.8 526.5c-0.1 0-0.3-7.9-0.2-17.7 0-9.9 0.2-17.8 0.4-17.8 0.2 0 0.3 7.9 0.3 17.8-0.1 9.8-0.3 17.7-0.5 17.7z"/>
							</g>
						</g>
					</g>
					<g id="&lt;Group&gt;">
						<g id="&lt;Group&gt;">
							<g id="&lt;Group&gt;">
								<path id="&lt;Path&gt;" class="s6" d="m596.8 526.7c-0.2-0.1-0.3-8-0.3-17.8 0.1-9.8 0.3-17.8 0.5-17.8 0.1 0 0.3 8 0.2 17.8 0 9.8-0.2 17.8-0.4 17.8z"/>
							</g>
						</g>
					</g>
					<g id="&lt;Group&gt;">
						<g id="&lt;Group&gt;">
							<g id="&lt;Group&gt;">
								<path id="&lt;Path&gt;" class="s6" d="m606.5 516.9c0 0.1-0.4 0.2-1.2 0.4q-0.3 0.1-0.6 0.1-0.4 0.2-0.8 0.3-0.4 0.2-0.9 0.3-0.4 0.3-0.9 0.5c-1.2 0.8-2.6 1.9-3.6 3.7-1 1.8-1.5 4.1-1.3 6.5v0.3h-0.3c-3.7 0-7.9 0-12.3 0-5 0-9.7-0.1-13.8-0.1h-0.2v-0.3c-0.1-2.2-0.7-4.3-1.6-5.9-0.9-1.6-2.1-2.8-3.1-3.7-2-1.7-3.6-2.2-3.5-2.3 0 0 0.3 0.1 1 0.4 0.7 0.3 1.7 0.8 2.8 1.6 1 0.9 2.2 2.1 3.2 3.8 1 1.6 1.7 3.7 1.7 6.1l-0.3-0.3c4.1 0 8.8 0 13.8 0.1 4.4 0 8.6 0 12.3 0l-0.3 0.4c-0.2-2.6 0.4-5 1.4-6.8 1.1-1.9 2.6-3.1 4-3.8q0.5-0.2 0.9-0.4 0.5-0.2 0.9-0.3 0.4-0.2 0.8-0.3 0.4-0.1 0.7-0.1 1.2-0.2 1.2-0.2z"/>
							</g>
						</g>
					</g>
					<g id="&lt;Group&gt;">
						<g id="&lt;Group&gt;">
							<g id="&lt;Group&gt;">
								<path id="&lt;Path&gt;" class="s6" d="m570.3 528.8c0.1 0.1-0.8 0.2-2.1 0.8-1.3 0.6-2.9 1.7-4.2 3.3-1.3 1.7-1.9 3.6-2.1 5-0.2 1.4-0.1 2.3-0.2 2.3-0.1 0-0.3-0.9-0.2-2.4 0.1-1.4 0.6-3.4 2-5.3 1.3-1.8 3.2-2.8 4.5-3.3 1.4-0.5 2.3-0.5 2.3-0.4z"/>
							</g>
						</g>
					</g>
					<g id="&lt;Group&gt;">
						<g id="&lt;Group&gt;">
							<g id="&lt;Group&gt;">
								<path id="&lt;Path&gt;" class="s6" d="m606.6 540.7c-0.1 0-0.1-1-0.5-2.5-0.4-1.5-1.2-3.5-2.7-5.3-1.5-1.8-3.4-2.9-4.8-3.5-1.5-0.6-2.4-0.8-2.4-0.9 0-0.1 1-0.1 2.5 0.5 1.5 0.5 3.6 1.6 5.2 3.5 1.6 1.9 2.4 4 2.7 5.6 0.2 1.6 0.1 2.6 0 2.6z"/>
							</g>
						</g>
					</g>
				</g>
			</g>
			<g id="&lt;Group&gt;">
				<g id="&lt;Group&gt;">
					<g id="&lt;Group&gt;">
						<path id="&lt;Path&gt;" class="s1" d="m809.9 591.1h-125.5c-5.1 0-9.2-4.1-9.2-9.2v-125.5c0-5.1 4.1-9.2 9.2-9.2h125.5c5.1 0 9.2 4.1 9.2 9.2v125.5c0 5.1-4.1 9.2-9.2 9.2z"/>
					</g>
				</g>
			</g>
			<g id="&lt;Group&gt;">
				<g id="&lt;Group&gt;">
					<g id="&lt;Group&gt;">
						<path id="&lt;Path&gt;" class="s7" d="m972.6 591.1h-125.4c-5.1 0-9.2-4.1-9.2-9.2v-125.5c0-5.1 4.1-9.2 9.2-9.2h125.4c5.1 0 9.2 4.1 9.2 9.2v125.5c0 5.1-4.1 9.2-9.2 9.2z"/>
					</g>
				</g>
			</g>
			<g id="&lt;Group&gt;">
				<g id="&lt;Group&gt;">
					<g id="&lt;Group&gt;">
						<path id="&lt;Path&gt;" class="s7" d="m647.1 772.1h-125.4c-5.1 0-9.2-4.1-9.2-9.2v-125.5c0-5.1 4.1-9.2 9.2-9.2h125.4c5.1 0 9.2 4.1 9.2 9.2v125.5c0 5.1-4.1 9.2-9.2 9.2z"/>
					</g>
				</g>
			</g>
			<g id="&lt;Group&gt;">
				<g id="&lt;Group&gt;">
					<g id="&lt;Group&gt;">
						<path id="&lt;Path&gt;" class="s1" d="m809.9 772.1h-125.5c-5.1 0-9.2-4.1-9.2-9.2v-125.5c0-5.1 4.1-9.2 9.2-9.2h125.5c5.1 0 9.2 4.1 9.2 9.2v125.5c0 5.1-4.1 9.2-9.2 9.2z"/>
					</g>
				</g>
			</g>
			<g id="&lt;Group&gt;">
				<g id="&lt;Group&gt;">
					<g id="&lt;Group&gt;">
						<path id="&lt;Path&gt;" class="s1" d="m972.6 772.1h-125.4c-5.1 0-9.2-4.1-9.2-9.2v-125.5c0-5.1 4.1-9.2 9.2-9.2h125.4c5.1 0 9.2 4.1 9.2 9.2v125.5c0 5.1-4.1 9.2-9.2 9.2z"/>
					</g>
				</g>
			</g>
			<g id="&lt;Group&gt;">
				<g id="&lt;Group&gt;">
					<g id="&lt;Group&gt;">
						<path id="&lt;Path&gt;" class="s6" d="m734.4 814.4c0 2.8-2.4 5.2-5.2 5.2-2.9 0-5.2-2.4-5.2-5.2 0-2.9 2.3-5.2 5.2-5.2 2.8 0 5.2 2.3 5.2 5.2z"/>
					</g>
				</g>
				<g id="&lt;Group&gt;">
					<g id="&lt;Group&gt;">
						<path id="&lt;Path&gt;" class="s6" d="m755.2 814.4c0 2.8-2.3 5.2-5.2 5.2-2.9 0-5.2-2.4-5.2-5.2 0-2.9 2.3-5.2 5.2-5.2 2.9 0 5.2 2.3 5.2 5.2z"/>
					</g>
				</g>
				<g id="&lt;Group&gt;">
					<g id="&lt;Group&gt;">
						<path id="&lt;Path&gt;" class="s6" d="m776 814.4c0 2.8-2.3 5.2-5.2 5.2-2.8 0-5.2-2.4-5.2-5.2 0-2.9 2.4-5.2 5.2-5.2 2.9 0 5.2 2.3 5.2 5.2z"/>
					</g>
				</g>
			</g>
			<g id="&lt;Group&gt;">
				<g id="&lt;Group&gt;">
					<path id="&lt;Path&gt;" class="s6" d="m545.5 211.2h-26.3c-0.6 0-1-0.4-1-1 0-0.5 0.4-1 1-1h26.3c0.6 0 1 0.5 1 1 0 0.6-0.4 1-1 1z"/>
				</g>
				<g id="&lt;Group&gt;">
					<path id="&lt;Path&gt;" class="s6" d="m529.4 219.6q-0.3 0-0.6-0.2l-11.8-8.4c-0.3-0.2-0.4-0.5-0.4-0.8 0-0.3 0.1-0.6 0.4-0.8l12.2-8.3c0.4-0.3 1.1-0.2 1.4 0.2 0.3 0.5 0.2 1.1-0.3 1.4l-11 7.5 10.7 7.6c0.4 0.3 0.5 0.9 0.2 1.4-0.2 0.3-0.5 0.4-0.8 0.4z"/>
				</g>
			</g>
			<g id="&lt;Group&gt;">
				<g id="&lt;Group&gt;">
					<path id="&lt;Path&gt;" class="s6" d="m970.6 211.3h-26.3c-0.6 0-1-0.4-1-1 0-0.5 0.4-1 1-1h26.3c0.6 0 1 0.5 1 1 0 0.6-0.4 1-1 1z"/>
				</g>
				<g id="&lt;Group&gt;">
					<path id="&lt;Path&gt;" class="s6" d="m960.1 219.6c-0.4 0-0.7-0.1-0.9-0.4-0.3-0.5-0.2-1.1 0.3-1.4l11-7.5-10.7-7.6c-0.4-0.3-0.5-0.9-0.2-1.4 0.3-0.4 0.9-0.5 1.4-0.2l11.8 8.4c0.3 0.2 0.4 0.5 0.4 0.8 0 0.3-0.1 0.6-0.4 0.8l-12.2 8.3q-0.2 0.2-0.5 0.2z"/>
				</g>
			</g>
			<g id="&lt;Group&gt;">
				<g id="&lt;Group&gt;">
					<g id="&lt;Group&gt;">
						<g id="&lt;Group&gt;">
							<g id="&lt;Group&gt;">
								<g id="&lt;Group&gt;">
									<path id="&lt;Path&gt;" class="s1" d="m613.2 725.1h-49.8c-2.6 0.1-4.8-2.1-4.8-4.7v-30.1c0-2.6 2.1-4.8 4.7-4.8l49.8-0.1c2.7 0 4.8 2.2 4.8 4.8l0.1 30.1c0 2.6-2.2 4.8-4.8 4.8z"/>
								</g>
							</g>
						</g>
					</g>
					<g id="&lt;Group&gt;">
						<g id="&lt;Group&gt;">
							<g id="&lt;Group&gt;">
								<g id="&lt;Group&gt;">
									<g id="&lt;Group&gt;">
										<path id="&lt;Path&gt;" class="s6" d="m601.8 692.8q-0.1-0.1 0-0.8 0-0.9 0.1-2.2c0.1-1.8 0.3-4.6-0.1-7.9-0.3-3.3-1.5-7.3-4.5-10.5-1.5-1.5-3.6-2.7-5.9-3.2-2.3-0.6-4.8-0.7-7.4-0.7-5 0.1-10 1.1-13.4 3.9-1.7 1.4-2.9 3.1-3.7 4.9-0.8 1.8-1.2 3.6-1.4 5.2-0.4 3.3-0.1 6.1 0 7.9q0.2 1.3 0.2 2.2 0.1 0.7 0 0.7 0 0-0.1-0.7-0.1-0.7-0.3-2.1c-0.2-1.9-0.6-4.7-0.3-8 0.2-1.7 0.6-3.6 1.4-5.4 0.8-1.9 2-3.8 3.8-5.2 1.7-1.5 4-2.5 6.3-3.1 2.4-0.7 5-0.9 7.5-0.9 2.6 0 5.2 0 7.6 0.6 2.4 0.6 4.6 1.8 6.1 3.5 3.2 3.3 4.3 7.5 4.6 10.9 0.3 3.3 0 6.1-0.1 8q-0.2 1.4-0.3 2.1-0.1 0.8-0.1 0.8z"/>
									</g>
								</g>
							</g>
						</g>
					</g>
					<g id="&lt;Group&gt;">
						<g id="&lt;Group&gt;">
							<g id="&lt;Group&gt;">
								<g id="&lt;Group&gt;">
									<path id="&lt;Path&gt;" class="s5" d="m605.7 724.9h-49.8c-2.6 0-4.8-2.1-4.8-4.7v-30.1c0-2.7 2.1-4.8 4.7-4.8l49.8-0.1c2.7 0 4.8 2.1 4.8 4.8l0.1 30.1c0 2.6-2.2 4.8-4.8 4.8z"/>
								</g>
							</g>
						</g>
					</g>
					<g id="&lt;Group&gt;">
						<g id="&lt;Group&gt;">
							<g id="&lt;Group&gt;">
								<g id="&lt;Group&gt;">
									<g id="&lt;Group&gt;">
										<path id="&lt;Path&gt;" class="s6" d="m605.7 724.9c0-0.1 0.7 0 1.9-0.5 0.5-0.2 1.2-0.7 1.7-1.4 0.6-0.7 1-1.7 1-2.9 0-4.8 0-11.8-0.1-20.3q0-3.2 0-6.8c-0.1-1.1 0-2.4-0.1-3.5-0.1-1.1-0.7-2.3-1.6-3-1-0.8-2.2-1.1-3.5-1q-1.9 0-3.9 0-4.1 0-8.3 0.1c-11.4 0-23.8 0-36.9 0-1.6 0-3.1 0.9-3.8 2.2-0.4 0.6-0.6 1.3-0.7 2.1q0 1.2 0 2.4 0 4.8 0 9.4 0 9.3 0 17.8c0 0.7 0 1.4 0.3 2q0.3 1 0.9 1.7c0.9 1 2.2 1.5 3.4 1.4q4.1 0 7.9 0 7.6 0.1 14 0.1c8.6 0 15.5 0 20.3 0q3.6 0.1 5.6 0.1 0.9 0 1.4 0 0.5 0 0.5 0.1 0 0-0.5 0-0.5 0-1.4 0-2 0.1-5.6 0.1c-4.8 0-11.7 0.1-20.3 0.2q-6.4 0-14 0-3.8 0-7.8 0c-1.5 0.1-2.9-0.5-3.9-1.6-0.5-0.5-0.9-1.2-1.1-1.9-0.3-0.7-0.3-1.5-0.3-2.2q0-8.5 0-17.8-0.1-4.6-0.1-9.4c0-0.8 0-1.6 0-2.4 0.1-0.9 0.3-1.8 0.8-2.5 0.9-1.5 2.6-2.5 4.4-2.4 13-0.1 25.5-0.1 36.9-0.1q4.2 0 8.3 0 2 0 3.9 0c1.4-0.1 2.8 0.3 3.8 1.2 1.1 0.8 1.7 2 1.9 3.3 0 1.3 0 2.5 0 3.6q0 3.6 0 6.8c0 8.5-0.1 15.5-0.1 20.3 0 1.3-0.5 2.3-1.1 3-0.6 0.8-1.3 1.2-1.9 1.4-1.2 0.5-1.9 0.4-1.9 0.4z"/>
									</g>
								</g>
							</g>
						</g>
					</g>
				</g>
			</g>
			<g id="&lt;Group&gt;">
				<g id="&lt;Group&gt;">
					<g id="&lt;Group&gt;">
						<g id="&lt;Group&gt;">
							<g id="&lt;Group&gt;">
								<g id="&lt;Group&gt;">
									<path id="&lt;Path&gt;" class="s7" d="m774.6 725.1h-49.7c-2.7 0.1-4.8-2.1-4.8-4.7l-0.1-30.1c0-2.6 2.1-4.8 4.8-4.8l49.8-0.1c2.6 0 4.8 2.2 4.8 4.8v30.1c0 2.6-2.1 4.8-4.8 4.8z"/>
								</g>
							</g>
						</g>
					</g>
					<g id="&lt;Group&gt;">
						<g id="&lt;Group&gt;">
							<g id="&lt;Group&gt;">
								<g id="&lt;Group&gt;">
									<g id="&lt;Group&gt;">
										<path id="&lt;Path&gt;" class="s6" d="m763.2 692.8q0-0.1 0-0.8 0.1-0.9 0.1-2.2c0.1-1.8 0.3-4.6 0-7.9-0.4-3.3-1.5-7.3-4.6-10.5-1.5-1.5-3.5-2.7-5.8-3.2-2.4-0.6-4.9-0.7-7.4-0.7-5.1 0.1-10.1 1.1-13.5 3.9-1.7 1.4-2.9 3.1-3.6 4.9-0.8 1.8-1.2 3.6-1.4 5.2-0.4 3.3-0.1 6.1 0 7.9q0.1 1.3 0.2 2.2 0 0.7 0 0.7 0 0-0.2-0.7-0.1-0.7-0.3-2.1c-0.2-1.9-0.5-4.7-0.2-8 0.2-1.7 0.5-3.6 1.3-5.4 0.8-1.9 2.1-3.8 3.8-5.2 1.8-1.5 4-2.5 6.4-3.1 2.4-0.7 4.9-0.9 7.5-0.9 2.6 0 5.1 0 7.5 0.6 2.4 0.6 4.6 1.8 6.2 3.5 3.1 3.3 4.2 7.5 4.6 10.9 0.3 3.3 0 6.1-0.2 8q-0.1 1.4-0.2 2.1-0.1 0.8-0.2 0.8z"/>
									</g>
								</g>
							</g>
						</g>
					</g>
					<g id="&lt;Group&gt;">
						<g id="&lt;Group&gt;">
							<g id="&lt;Group&gt;">
								<g id="&lt;Group&gt;">
									<path id="&lt;Path&gt;" class="s7" d="m767.1 724.9h-49.7c-2.7 0-4.8-2.1-4.8-4.7l-0.1-30.1c0-2.7 2.2-4.8 4.8-4.8l49.8-0.1c2.6 0 4.8 2.1 4.8 4.8v30.1c0 2.6-2.1 4.8-4.8 4.8z"/>
								</g>
							</g>
						</g>
					</g>
					<g id="&lt;Group&gt;">
						<g id="&lt;Group&gt;">
							<g id="&lt;Group&gt;">
								<g id="&lt;Group&gt;">
									<g id="&lt;Group&gt;">
										<path id="&lt;Path&gt;" class="s6" d="m767.1 724.9c0-0.1 0.7 0 1.9-0.5 0.6-0.2 1.2-0.7 1.8-1.4 0.5-0.7 1-1.7 1-2.9-0.1-4.8-0.1-11.8-0.2-20.3q0-3.2 0-6.8c0-1.1 0-2.4 0-3.5-0.2-1.1-0.8-2.3-1.7-3-0.9-0.8-2.1-1.1-3.4-1q-2 0-4 0-4 0-8.3 0.1c-11.3 0-23.8 0-36.9 0-1.5 0-3 0.9-3.8 2.2-0.4 0.6-0.6 1.3-0.6 2.1q0 1.2 0 2.4 0 4.8 0 9.4 0 9.3 0 17.8c0 0.7 0 1.4 0.2 2q0.3 1 1 1.7c0.8 1 2.1 1.5 3.4 1.4q4 0 7.8 0 7.6 0.1 14.1 0.1c8.5 0 15.4 0 20.3 0q3.6 0.1 5.5 0.1 0.9 0 1.5 0 0.4 0 0.4 0.1 0 0-0.4 0-0.6 0-1.5 0-1.9 0.1-5.5 0.1c-4.9 0-11.8 0.1-20.3 0.2q-6.5 0-14.1 0-3.8 0-7.8 0c-1.4 0.1-2.9-0.5-3.9-1.6-0.5-0.5-0.9-1.2-1.1-1.9-0.2-0.7-0.3-1.5-0.2-2.2q-0.1-8.5-0.1-17.8 0-4.6 0-9.4c0-0.8 0-1.6 0-2.4 0-0.9 0.3-1.8 0.7-2.5 0.9-1.5 2.6-2.5 4.4-2.4 13.1-0.1 25.6-0.1 36.9-0.1q4.3 0 8.3 0 2 0 4 0c1.3-0.1 2.8 0.3 3.8 1.2 1 0.8 1.7 2 1.8 3.3 0.1 1.3 0 2.5 0 3.6q0 3.6 0 6.8c0 8.5 0 15.5-0.1 20.3 0 1.3-0.5 2.3-1.1 3-0.6 0.8-1.3 1.2-1.9 1.4-1.2 0.5-1.9 0.4-1.9 0.4z"/>
									</g>
								</g>
							</g>
						</g>
					</g>
				</g>
			</g>
			<g id="&lt;Group&gt;">
				<g id="&lt;Group&gt;">
					<g id="&lt;Group&gt;">
						<g id="&lt;Group&gt;">
							<g id="&lt;Group&gt;">
								<g id="&lt;Group&gt;">
									<path id="&lt;Path&gt;" class="s9" d="m942.5 725.1h-49.8c-2.7 0.1-4.8-2.1-4.8-4.7v-30.1c-0.1-2.6 2.1-4.8 4.7-4.8l49.8-0.1c2.6 0 4.8 2.2 4.8 4.8v30.1c0 2.6-2.1 4.8-4.7 4.8z"/>
								</g>
							</g>
						</g>
					</g>
					<g id="&lt;Group&gt;">
						<g id="&lt;Group&gt;">
							<g id="&lt;Group&gt;">
								<g id="&lt;Group&gt;">
									<g id="&lt;Group&gt;">
										<path id="&lt;Path&gt;" class="s6" d="m931.1 692.8q-0.1-0.1 0-0.8 0-0.9 0.1-2.2c0.1-1.8 0.3-4.6-0.1-7.9-0.4-3.3-1.5-7.3-4.5-10.5-1.6-1.5-3.6-2.7-5.9-3.2-2.3-0.6-4.8-0.7-7.4-0.7-5 0.1-10 1.1-13.4 3.9-1.7 1.4-2.9 3.1-3.7 4.9-0.8 1.8-1.2 3.6-1.4 5.2-0.4 3.3-0.1 6.1 0 7.9q0.1 1.3 0.2 2.2 0.1 0.7 0 0.7 0 0-0.1-0.7-0.2-0.7-0.3-2.1c-0.3-1.9-0.6-4.7-0.3-8 0.2-1.7 0.6-3.6 1.4-5.4 0.7-1.9 2-3.8 3.8-5.2 1.7-1.5 3.9-2.5 6.3-3.1 2.4-0.7 4.9-0.9 7.5-0.9 2.6 0 5.1 0 7.6 0.6 2.4 0.6 4.5 1.8 6.1 3.5 3.2 3.3 4.3 7.5 4.6 10.9 0.3 3.3 0 6.1-0.2 8q-0.1 1.4-0.2 2.1-0.1 0.8-0.1 0.8z"/>
									</g>
								</g>
							</g>
						</g>
					</g>
					<g id="&lt;Group&gt;">
						<g id="&lt;Group&gt;">
							<g id="&lt;Group&gt;">
								<g id="&lt;Group&gt;">
									<path id="&lt;Path&gt;" class="s9" d="m935 724.9h-49.8c-2.6 0-4.8-2.1-4.8-4.7v-30.1c0-2.7 2.1-4.8 4.7-4.8l49.8-0.1c2.7 0 4.8 2.1 4.8 4.8l0.1 30.1c0 2.6-2.2 4.8-4.8 4.8z"/>
								</g>
							</g>
						</g>
					</g>
					<g id="&lt;Group&gt;">
						<g id="&lt;Group&gt;">
							<g id="&lt;Group&gt;">
								<g id="&lt;Group&gt;">
									<g id="&lt;Group&gt;">
										<path id="&lt;Path&gt;" class="s6" d="m935 724.9c0-0.1 0.7 0 1.8-0.5 0.6-0.2 1.3-0.7 1.8-1.4 0.6-0.7 1-1.7 1-2.9 0-4.8-0.1-11.8-0.1-20.3q0-3.2-0.1-6.8c0-1.1 0.1-2.4 0-3.5-0.1-1.1-0.7-2.3-1.7-3-0.9-0.8-2.1-1.1-3.4-1q-1.9 0-3.9 0-4.1 0-8.3 0.1c-11.4 0-23.9 0-37 0-1.5 0-3 0.9-3.7 2.2-0.4 0.6-0.7 1.3-0.7 2.1q0 1.2 0 2.4 0 4.8 0 9.4 0 9.3 0 17.8c0 0.7 0 1.4 0.2 2q0.3 1 1 1.7c0.9 1 2.1 1.5 3.4 1.4q4.1 0 7.9 0 7.5 0.1 14 0.1c8.5 0 15.5 0 20.3 0q3.6 0.1 5.6 0.1 0.9 0 1.4 0 0.5 0 0.5 0.1 0 0-0.5 0-0.5 0-1.4 0-2 0.1-5.6 0.1c-4.8 0-11.8 0.1-20.3 0.2q-6.5 0-14 0-3.8 0-7.9 0c-1.4 0.1-2.9-0.5-3.9-1.6-0.5-0.5-0.8-1.2-1.1-1.9-0.2-0.7-0.2-1.5-0.2-2.2q0-8.5-0.1-17.8 0-4.6 0-9.4c0-0.8 0-1.6 0-2.4 0.1-0.9 0.3-1.8 0.8-2.5 0.9-1.5 2.6-2.5 4.3-2.4 13.1-0.1 25.6-0.1 37-0.1q4.2 0 8.3 0 2 0 3.9 0c1.3-0.1 2.8 0.3 3.8 1.2 1.1 0.8 1.7 2 1.8 3.3 0.1 1.3 0.1 2.5 0.1 3.6q0 3.6 0 6.8c-0.1 8.5-0.1 15.5-0.1 20.3 0 1.3-0.5 2.3-1.1 3-0.6 0.8-1.3 1.2-1.9 1.4-1.2 0.5-1.9 0.4-1.9 0.4z"/>
									</g>
								</g>
							</g>
						</g>
					</g>
				</g>
			</g>
			<g id="&lt;Group&gt;">
				<g id="&lt;Group&gt;">
					<g id="&lt;Group&gt;">
						<path id="&lt;Path&gt;" class="s9" d="m720 520.6l6.7 23.3 46 0.2 7.3-22.3c0 0-4.8-1.6-7.9-0.9l-0.8-24.9c0-2.4-2.5-4-4.7-3l-4.5 1.9-25.9-0.1-3-1.5c-2.2-1.2-4.9 0.5-4.9 3l0.1 24.6c0 0-4-1.2-8.4-0.3z"/>
					</g>
				</g>
				<g id="&lt;Group&gt;">
					<g id="&lt;Group&gt;">
						<path id="&lt;Path&gt;" class="s6" d="m729 565.2h-2.4v-21.3l2.5 0.1z"/>
					</g>
				</g>
				<g id="&lt;Group&gt;">
					<g id="&lt;Group&gt;">
						<path id="&lt;Path&gt;" class="s6" d="m737.6 554.8h-2.5l0.1-10.8h2.4z"/>
					</g>
				</g>
				<g id="&lt;Group&gt;">
					<g id="&lt;Group&gt;">
						<path id="&lt;Path&gt;" class="s6" d="m761.9 554.9h-2.4v-10.8h2.5z"/>
					</g>
				</g>
				<g id="&lt;Group&gt;">
					<g id="&lt;Group&gt;">
						<path id="&lt;Path&gt;" class="s6" d="m772.6 565.4h-2.4l0.1-21.3h2.4z"/>
					</g>
				</g>
				<g id="&lt;Group&gt;">
					<g id="&lt;Group&gt;">
						<g id="&lt;Group&gt;">
							<path id="&lt;Path&gt;" class="s6" d="m736.4 530.5c-0.1 0-0.3-8-0.2-17.8 0-9.8 0.2-17.8 0.4-17.8 0.2 0 0.3 8 0.2 17.8 0 9.8-0.2 17.8-0.4 17.8z"/>
						</g>
					</g>
				</g>
				<g id="&lt;Group&gt;">
					<g id="&lt;Group&gt;">
						<g id="&lt;Group&gt;">
							<path id="&lt;Path&gt;" class="s6" d="m762.4 530.6c-0.2 0-0.3-8-0.3-17.8 0.1-9.8 0.3-17.8 0.5-17.8 0.1 0 0.3 8 0.2 17.8 0 9.8-0.2 17.8-0.4 17.8z"/>
						</g>
					</g>
				</g>
				<g id="&lt;Group&gt;">
					<g id="&lt;Group&gt;">
						<g id="&lt;Group&gt;">
							<path id="&lt;Path&gt;" class="s6" d="m772.1 520.9c0 0-0.4 0.1-1.2 0.3q-0.3 0.1-0.6 0.2-0.4 0.1-0.8 0.2-0.4 0.2-0.9 0.4-0.4 0.2-0.9 0.5c-1.2 0.7-2.7 1.9-3.6 3.6-1 1.8-1.5 4.1-1.3 6.5v0.4h-0.3c-3.7 0-7.9 0-12.3-0.1-5 0-9.7 0-13.8 0l-0.2-0.1-0.1-0.2c0-2.3-0.6-4.3-1.5-6-0.9-1.6-2.1-2.8-3.1-3.7-2-1.7-3.6-2.1-3.5-2.2 0 0 0.3 0.1 1 0.3 0.7 0.3 1.7 0.8 2.8 1.7 1 0.8 2.2 2 3.2 3.7 1 1.7 1.7 3.8 1.7 6.2l-0.3-0.3c4.1 0 8.8 0 13.8 0 4.4 0 8.6 0 12.3 0.1l-0.3 0.3c-0.2-2.6 0.4-5 1.4-6.8 1.1-1.9 2.6-3 3.9-3.7q0.6-0.3 1-0.5 0.5-0.2 0.9-0.3 0.4-0.1 0.8-0.3 0.4 0 0.7-0.1 1.2-0.2 1.2-0.1z"/>
						</g>
					</g>
				</g>
				<g id="&lt;Group&gt;">
					<g id="&lt;Group&gt;">
						<g id="&lt;Group&gt;">
							<path id="&lt;Path&gt;" class="s6" d="m735.9 532.7c0.1 0.1-0.8 0.3-2.1 0.9-1.3 0.5-2.9 1.6-4.2 3.3-1.3 1.7-1.9 3.6-2.1 4.9-0.2 1.4-0.1 2.3-0.2 2.3-0.1 0-0.3-0.9-0.2-2.3 0-1.5 0.6-3.5 2-5.3 1.3-1.8 3.2-2.9 4.5-3.4 1.4-0.5 2.3-0.5 2.3-0.4z"/>
						</g>
					</g>
				</g>
				<g id="&lt;Group&gt;">
					<g id="&lt;Group&gt;">
						<g id="&lt;Group&gt;">
							<path id="&lt;Path&gt;" class="s6" d="m772.2 544.6c-0.1 0-0.1-1-0.5-2.5-0.4-1.5-1.2-3.5-2.7-5.3-1.5-1.8-3.4-2.9-4.9-3.5-1.4-0.6-2.4-0.8-2.3-0.9 0 0 1 0 2.5 0.5 1.5 0.5 3.6 1.6 5.2 3.5 1.6 1.9 2.4 4.1 2.7 5.6 0.2 1.6 0.1 2.6 0 2.6z"/>
						</g>
					</g>
				</g>
			</g>
			<g id="&lt;Group&gt;">
				<g id="&lt;Group&gt;">
					<g id="&lt;Group&gt;">
						<path id="&lt;Path&gt;" class="s5" d="m883.3 514.4l6.7 23.4 45.9 0.2 7.4-22.4c0 0-4.8-1.5-7.9-0.9l-0.8-24.8c0-2.5-2.5-4-4.7-3.1l-4.5 1.9-25.9-0.1-3-1.5c-2.3-1.1-4.9 0.5-4.9 3.1l0.1 24.5c0 0-4-1.1-8.4-0.3z"/>
					</g>
				</g>
				<g id="&lt;Group&gt;">
					<g id="&lt;Group&gt;">
						<path id="&lt;Path&gt;" class="s6" d="m892.3 559.1h-2.5l0.1-21.3h2.5z"/>
					</g>
				</g>
				<g id="&lt;Group&gt;">
					<g id="&lt;Group&gt;">
						<path id="&lt;Path&gt;" class="s6" d="m900.8 548.7h-2.4l0.1-10.9h2.4z"/>
					</g>
				</g>
				<g id="&lt;Group&gt;">
					<g id="&lt;Group&gt;">
						<path id="&lt;Path&gt;" class="s6" d="m925.2 548.8h-2.4v-10.9h2.4z"/>
					</g>
				</g>
				<g id="&lt;Group&gt;">
					<g id="&lt;Group&gt;">
						<path id="&lt;Path&gt;" class="s6" d="m935.9 559.2h-2.4l0.1-21.2h2.4z"/>
					</g>
				</g>
				<g id="&lt;Group&gt;">
					<g id="&lt;Group&gt;">
						<g id="&lt;Group&gt;">
							<path id="&lt;Path&gt;" class="s6" d="m899.7 524.3c-0.2 0-0.3-7.9-0.2-17.8 0-9.8 0.2-17.7 0.4-17.7 0.2 0 0.3 7.9 0.2 17.8 0 9.8-0.2 17.7-0.4 17.7z"/>
						</g>
					</g>
				</g>
				<g id="&lt;Group&gt;">
					<g id="&lt;Group&gt;">
						<g id="&lt;Group&gt;">
							<path id="&lt;Path&gt;" class="s6" d="m925.7 524.4c-0.2 0-0.3-7.9-0.3-17.7 0.1-9.9 0.3-17.8 0.4-17.8 0.2 0 0.3 7.9 0.3 17.8 0 9.8-0.2 17.7-0.4 17.7z"/>
						</g>
					</g>
				</g>
				<g id="&lt;Group&gt;">
					<g id="&lt;Group&gt;">
						<g id="&lt;Group&gt;">
							<path id="&lt;Path&gt;" class="s6" d="m935.4 514.7c0 0-0.4 0.2-1.2 0.4q-0.3 0-0.7 0.1-0.3 0.2-0.7 0.3-0.4 0.2-0.9 0.3-0.4 0.3-0.9 0.5c-1.3 0.7-2.7 1.9-3.6 3.7-1 1.7-1.5 4.1-1.3 6.5v0.3h-0.3c-3.7 0-7.9 0-12.3 0-5 0-9.7-0.1-13.8-0.1h-0.3v-0.3c0-2.2-0.6-4.3-1.6-5.9-0.8-1.6-2-2.8-3-3.7-2-1.8-3.6-2.2-3.6-2.3 0.1 0 0.4 0.1 1.1 0.4 0.7 0.3 1.7 0.8 2.7 1.6 1.1 0.9 2.3 2.1 3.3 3.8 0.9 1.6 1.7 3.7 1.7 6.1l-0.3-0.3c4.1 0 8.8 0 13.8 0 4.4 0.1 8.6 0.1 12.3 0.1l-0.3 0.4c-0.2-2.6 0.4-5 1.4-6.9 1.1-1.8 2.6-3 3.9-3.7q0.5-0.2 1-0.5 0.5-0.1 0.9-0.3 0.4-0.1 0.8-0.2 0.3-0.1 0.7-0.1 1.2-0.2 1.2-0.2z"/>
						</g>
					</g>
				</g>
				<g id="&lt;Group&gt;">
					<g id="&lt;Group&gt;">
						<g id="&lt;Group&gt;">
							<path id="&lt;Path&gt;" class="s6" d="m899.2 526.6c0 0.1-0.8 0.2-2.1 0.8-1.3 0.6-2.9 1.6-4.2 3.3-1.3 1.7-1.9 3.6-2.1 5-0.2 1.4-0.1 2.3-0.2 2.3-0.1 0-0.4-0.9-0.3-2.4 0.1-1.4 0.7-3.5 2.1-5.3 1.3-1.8 3.1-2.9 4.5-3.3 1.4-0.5 2.3-0.5 2.3-0.4z"/>
						</g>
					</g>
				</g>
				<g id="&lt;Group&gt;">
					<g id="&lt;Group&gt;">
						<g id="&lt;Group&gt;">
							<path id="&lt;Path&gt;" class="s6" d="m935.5 538.5c-0.1 0-0.1-1-0.5-2.5-0.4-1.5-1.2-3.5-2.7-5.3-1.6-1.8-3.4-2.9-4.9-3.5-1.4-0.6-2.4-0.8-2.3-0.9 0-0.1 1-0.1 2.5 0.4 1.5 0.5 3.6 1.6 5.2 3.5 1.6 1.9 2.4 4.1 2.6 5.7 0.3 1.6 0.2 2.6 0.1 2.6z"/>
						</g>
					</g>
				</g>
			</g>
			<g id="&lt;Group&gt;">
				<g id="&lt;Group&gt;">
					<path id="&lt;Compound Path&gt;" class="s6" d="m680.1 209.1c0-4.7 3.5-8 8.3-8 2.8 0 5.1 1.1 6.6 2.9l-2.8 2.5c-0.9-1.2-2.1-1.8-3.5-1.8-2.6 0-4.3 1.8-4.3 4.4 0 2.6 1.7 4.3 4.3 4.3 1.4 0 2.6-0.6 3.5-1.8l2.8 2.5c-1.5 1.9-3.8 2.9-6.6 2.9-4.8 0-8.3-3.3-8.3-7.9z"/>
					<path id="&lt;Compound Path&gt;" fill-rule="evenodd" class="s6" d="m706.8 213.7h-6.4l-1.2 3h-4.4l6.7-15.3h4.3l6.7 15.3h-4.5zm-1.2-3.2l-2-4.9-1.9 4.9z"/>
					<path id="&lt;Compound Path&gt;" class="s6" d="m716.2 204.9h-4.7v-3.5h13.7v3.5h-4.7v11.8h-4.3z"/>
					<path id="&lt;Compound Path&gt;" fill-rule="evenodd" class="s6" d="m736.2 213.7h-6.4l-1.2 3h-4.4l6.7-15.3h4.3l6.7 15.3h-4.5zm-1.2-3.2l-2-4.9-1.9 4.9z"/>
					<path id="&lt;Compound Path&gt;" class="s6" d="m743.1 201.4h4.3v11.9h7.3v3.4h-11.6z"/>
					<path id="&lt;Compound Path&gt;" fill-rule="evenodd" class="s6" d="m755.4 209.1c0-4.6 3.6-8 8.4-8 4.9 0 8.5 3.4 8.5 8 0 4.5-3.6 7.9-8.5 7.9-4.8 0-8.4-3.4-8.4-7.9zm12.6 0c0-2.7-1.8-4.4-4.2-4.4-2.3 0-4.1 1.7-4.1 4.4 0 2.6 1.8 4.3 4.1 4.3 2.4 0 4.2-1.7 4.2-4.3z"/>
					<path id="&lt;Compound Path&gt;" class="s6" d="m784.8 208.7h3.8v6.3c-1.8 1.3-4.2 2-6.4 2-4.9 0-8.4-3.3-8.4-7.9 0-4.7 3.5-8 8.5-8 2.8 0 5.1 1 6.6 2.8l-2.7 2.5c-1.1-1.1-2.3-1.7-3.7-1.7-2.6 0-4.4 1.7-4.4 4.4 0 2.5 1.8 4.3 4.3 4.3q1.2 0 2.4-0.5z"/>
					<path id="&lt;Compound Path&gt;" class="s6" d="m791.2 209.9v-8.5h4.3v8.4c0 2.6 1.1 3.6 2.9 3.6 1.8 0 2.9-1 2.9-3.6v-8.4h4.2v8.5c0 4.5-2.6 7.1-7.1 7.1-4.6 0-7.2-2.6-7.2-7.1z"/>
					<path id="&lt;Compound Path&gt;" class="s6" d="m820.7 213.4v3.3h-12.3v-15.3h12v3.4h-7.7v2.5h6.8v3.3h-6.8v2.8z"/>
				</g>
				<g id="&lt;Group&gt;">
					<g id="&lt;Group&gt;">
						<path id="&lt;Path&gt;" class="s1" d="m832.4 228.7c0 0.2-36.7 0.5-82 0.5-45.3 0-82-0.3-82-0.5 0-0.3 36.7-0.6 82-0.6 45.3 0 82 0.3 82 0.6z"/>
					</g>
				</g>
				<g id="&lt;Group&gt;">
					<g id="&lt;Group&gt;">
						<path id="&lt;Path&gt;" class="s1" d="m777.3 235.3c0 0.3-12 0.5-26.9 0.5-14.8 0-26.9-0.2-26.9-0.5 0-0.3 12.1-0.5 26.9-0.5 14.9 0 26.9 0.2 26.9 0.5z"/>
					</g>
				</g>
			</g>
		</g>
	</g>
	<g id="Character">
		<g id="&lt;Group&gt;">
			<g id="&lt;Group&gt;">
				<g id="&lt;Group&gt;">
					<g id="&lt;Group&gt;">
						<g id="&lt;Group&gt;">
							<g id="&lt;Group&gt;">
								<g id="&lt;Group&gt;">
									<g id="&lt;Group&gt;">
										<g id="&lt;Group&gt;">
											<path id="&lt;Path&gt;" class="s7" d="m271.8 869.9l2.4 75.2 93.7-1.5c-0.7-9-53.4-25.8-53.4-25.8l-0.4-50.5z"/>
										</g>
									</g>
								</g>
							</g>
						</g>
						<g id="&lt;Group&gt;" style="opacity: .3">
							<g id="&lt;Group&gt;">
								<g id="&lt;Group&gt;">
									<g id="&lt;Group&gt;">
										<g id="&lt;Group&gt;">
											<path id="&lt;Path&gt;" class="s8" d="m271.8 869.9l2.4 75.2 93.7-1.5c-0.7-9-53.4-25.8-53.4-25.8l-0.4-50.5z"/>
										</g>
									</g>
								</g>
							</g>
						</g>
						<g id="&lt;Group&gt;">
							<g id="&lt;Group&gt;">
								<g id="&lt;Group&gt;">
									<g id="&lt;Group&gt;">
										<g id="&lt;Group&gt;">
											<g id="&lt;Group&gt;">
												<path id="&lt;Path&gt;" class="s6" d="m289.3 913.9c-1.8 0.5-3 2.6-2.5 4.4 0.4 1.8 2.5 3.1 4.3 2.6 1.8-0.5 3.4-2.9 2.7-4.7-0.6-1.8-3.2-3.1-4.8-2.2"/>
											</g>
										</g>
									</g>
								</g>
							</g>
						</g>
						<g id="&lt;Group&gt;">
							<g id="&lt;Group&gt;">
								<g id="&lt;Group&gt;">
									<g id="&lt;Group&gt;">
										<g id="&lt;Group&gt;">
											<path id="&lt;Path&gt;" class="s6" d="m274.2 945.1l-0.3-7.6 90.2 1.4c0 0 4.2 1.7 3.8 4.7z"/>
										</g>
									</g>
								</g>
							</g>
						</g>
						<g id="&lt;Group&gt;">
							<g id="&lt;Group&gt;">
								<g id="&lt;Group&gt;">
									<g id="&lt;Group&gt;">
										<g id="&lt;Group&gt;">
											<g id="&lt;Group&gt;">
												<path id="&lt;Path&gt;" class="s6" d="m315.9 918.7c0 0.4-2.3 0.7-4.5 2.2-2.3 1.4-3.4 3.4-3.8 3.3-0.4-0.1 0.2-2.9 2.9-4.6 2.7-1.9 5.5-1.4 5.4-0.9z"/>
											</g>
										</g>
									</g>
								</g>
							</g>
						</g>
						<g id="&lt;Group&gt;">
							<g id="&lt;Group&gt;">
								<g id="&lt;Group&gt;">
									<g id="&lt;Group&gt;">
										<g id="&lt;Group&gt;">
											<g id="&lt;Group&gt;">
												<path id="&lt;Path&gt;" class="s6" d="m328.3 922.7c0.1 0.5-1.9 1.3-3.4 3.2-1.6 1.9-1.9 4-2.4 4-0.4 0.1-0.8-2.6 1.2-5 1.9-2.4 4.6-2.6 4.6-2.2z"/>
											</g>
										</g>
									</g>
								</g>
							</g>
						</g>
						<g id="&lt;Group&gt;">
							<g id="&lt;Group&gt;">
								<g id="&lt;Group&gt;">
									<g id="&lt;Group&gt;">
										<g id="&lt;Group&gt;">
											<g id="&lt;Group&gt;">
												<path id="&lt;Path&gt;" class="s6" d="m333.9 933.9c-0.5 0.2-1.1-2.1 0-4.7 1.1-2.5 3.2-3.5 3.4-3.1 0.3 0.3-1.1 1.7-2 3.8-0.9 2.1-1 4-1.4 4z"/>
											</g>
										</g>
									</g>
								</g>
							</g>
						</g>
						<g id="&lt;Group&gt;">
							<g id="&lt;Group&gt;">
								<g id="&lt;Group&gt;">
									<g id="&lt;Group&gt;">
										<g id="&lt;Group&gt;">
											<g id="&lt;Group&gt;">
												<path id="&lt;Path&gt;" class="s6" d="m315 906.1c-0.2 0.4-2.3-0.1-4.9 0.1-2.6 0.1-4.6 1-4.8 0.7-0.3-0.4 1.6-2.1 4.7-2.3 3-0.3 5.2 1.2 5 1.5z"/>
											</g>
										</g>
									</g>
								</g>
							</g>
						</g>
						<g id="&lt;Group&gt;">
							<g id="&lt;Group&gt;">
								<g id="&lt;Group&gt;">
									<g id="&lt;Group&gt;">
										<g id="&lt;Group&gt;">
											<g id="&lt;Group&gt;">
												<path id="&lt;Path&gt;" class="s6" d="m316.4 894.8c0 0.2-1.8 0.5-4.7 0.1-1.4-0.2-3.1-0.7-4.9-1.4q-1.3-0.6-2.7-1.4c-0.5-0.3-1-0.6-1.5-1.1-0.5-0.5-0.8-1.7-0.2-2.4 0.5-0.7 1.3-1.1 2-1.1 0.7 0 1.2 0.1 1.7 0.2q1.6 0.4 3 1c1.8 0.7 3.3 1.8 4.4 2.7 2.2 2 2.9 3.7 2.8 3.8-0.2 0.2-1.3-1.3-3.5-2.9-1.2-0.8-2.6-1.6-4.3-2.3q-1.2-0.5-2.7-0.8c-1-0.2-1.8-0.2-2.1 0.2-0.1 0.2-0.1 0.3 0.1 0.6 0.3 0.2 0.7 0.5 1.1 0.8q1.3 0.7 2.5 1.3c1.7 0.8 3.2 1.3 4.6 1.7 2.7 0.7 4.4 0.8 4.4 1z"/>
											</g>
										</g>
									</g>
								</g>
							</g>
						</g>
					</g>
				</g>
			</g>
			<g id="&lt;Group&gt;">
				<g id="&lt;Group&gt;">
					<g id="&lt;Group&gt;">
						<g id="&lt;Group&gt;">
							<g id="&lt;Group&gt;">
								<g id="&lt;Group&gt;">
									<g id="&lt;Group&gt;">
										<g id="&lt;Group&gt;">
											<g id="&lt;Group&gt;">
												<g id="&lt;Group&gt;">
													<path id="&lt;Path&gt;" class="s10" d="m364.9 241.9c-0.8-18.2-15.4-32.7-33.5-33.4l-1.9-0.1c-19.5 0.4-30 17.2-29.1 36.7l-1.4 83.4c16.4 10.7 32.1 18.6 44.9 13.6l2-34.7c0 0 18.9-2.2 19.8-20.9 0.5-9-0.1-27.7-0.8-44.6z"/>
												</g>
												<g id="&lt;Group&gt;">
													<g id="&lt;Group&gt;">
														<g id="&lt;Group&gt;">
															<g id="&lt;Group&gt;">
																<g id="&lt;Group&gt;">
																	<g id="&lt;Group&gt;">
																		<g id="&lt;Group&gt;">
																			<g id="&lt;Group&gt;">
																				<g id="&lt;Group&gt;">
																					<g id="&lt;Group&gt;">
																						<g id="&lt;Group&gt;">
																							<g id="&lt;Group&gt;">
																								<g id="&lt;Group&gt;">
																									<g id="&lt;Group&gt;">
																										<path id="&lt;Path&gt;" class="s11" d="m346 307.4c0 0-11.9 0.5-24.2-7.9 0 0 5.1 13.8 23.9 12.9z"/>
																									</g>
																								</g>
																							</g>
																						</g>
																					</g>
																				</g>
																			</g>
																		</g>
																	</g>
																</g>
															</g>
														</g>
													</g>
												</g>
											</g>
										</g>
									</g>
									<g id="&lt;Group&gt;">
										<g id="&lt;Group&gt;">
											<g id="&lt;Group&gt;">
												<g id="&lt;Group&gt;">
													<g id="&lt;Group&gt;">
														<g id="&lt;Group&gt;">
															<g id="&lt;Group&gt;">
																<g id="&lt;Group&gt;">
																	<g id="&lt;Group&gt;">
																		<g id="&lt;Group&gt;">
																			<g id="&lt;Group&gt;">
																				<g id="&lt;Group&gt;">
																					<g id="&lt;Group&gt;">
																						<g id="&lt;Group&gt;">
																							<g id="&lt;Group&gt;">
																								<g id="&lt;Group&gt;">
																									<g id="&lt;Group&gt;">
																										<g id="&lt;Group&gt;">
																											<g id="&lt;Group&gt;">
																												<g id="&lt;Group&gt;">
																													<path id="&lt;Path&gt;" class="s6" d="m359.4 255.8c0 1.4-1.2 2.6-2.7 2.6-1.5 0.1-2.7-1.1-2.7-2.5 0-1.4 1.2-2.6 2.7-2.6 1.5 0 2.7 1.1 2.7 2.5z"/>
																												</g>
																											</g>
																										</g>
																									</g>
																								</g>
																							</g>
																						</g>
																					</g>
																				</g>
																			</g>
																		</g>
																	</g>
																</g>
															</g>
															<g id="&lt;Group&gt;">
																<g id="&lt;Group&gt;">
																	<g id="&lt;Group&gt;">
																		<g id="&lt;Group&gt;">
																			<g id="&lt;Group&gt;">
																				<g id="&lt;Group&gt;">
																					<g id="&lt;Group&gt;">
																						<g id="&lt;Group&gt;">
																							<g id="&lt;Group&gt;">
																								<g id="&lt;Group&gt;">
																									<g id="&lt;Group&gt;">
																										<g id="&lt;Group&gt;">
																											<g id="&lt;Group&gt;">
																												<g id="&lt;Group&gt;">
																													<g id="&lt;Group&gt;">
																														<path id="&lt;Path&gt;" class="s6" d="m360.5 250.9c-0.3 0.3-2.3-1.3-5.2-1.4-2.8-0.1-5 1.3-5.3 0.9-0.2-0.1 0.2-0.7 1.1-1.4 1-0.6 2.5-1.2 4.3-1.1 1.8 0.1 3.3 0.8 4.1 1.5 0.9 0.7 1.2 1.3 1 1.5z"/>
																													</g>
																												</g>
																											</g>
																										</g>
																									</g>
																								</g>
																							</g>
																						</g>
																					</g>
																				</g>
																			</g>
																		</g>
																	</g>
																</g>
															</g>
														</g>
														<g id="&lt;Group&gt;">
															<g id="&lt;Group&gt;">
																<g id="&lt;Group&gt;">
																	<g id="&lt;Group&gt;">
																		<g id="&lt;Group&gt;">
																			<g id="&lt;Group&gt;">
																				<g id="&lt;Group&gt;">
																					<g id="&lt;Group&gt;">
																						<g id="&lt;Group&gt;">
																							<g id="&lt;Group&gt;">
																								<g id="&lt;Group&gt;">
																									<g id="&lt;Group&gt;">
																										<g id="&lt;Group&gt;">
																											<g id="&lt;Group&gt;">
																												<g id="&lt;Group&gt;">
																													<path id="&lt;Path&gt;" class="s6" d="m332.5 255.8c0 1.4-1.2 2.6-2.6 2.6-1.5 0-2.7-1.1-2.7-2.5 0-1.4 1.2-2.6 2.7-2.6 1.4 0 2.6 1.1 2.6 2.5z"/>
																												</g>
																											</g>
																										</g>
																									</g>
																								</g>
																							</g>
																						</g>
																					</g>
																				</g>
																			</g>
																		</g>
																	</g>
																</g>
															</g>
															<g id="&lt;Group&gt;">
																<g id="&lt;Group&gt;">
																	<g id="&lt;Group&gt;">
																		<g id="&lt;Group&gt;">
																			<g id="&lt;Group&gt;">
																				<g id="&lt;Group&gt;">
																					<g id="&lt;Group&gt;">
																						<g id="&lt;Group&gt;">
																							<g id="&lt;Group&gt;">
																								<g id="&lt;Group&gt;">
																									<g id="&lt;Group&gt;">
																										<g id="&lt;Group&gt;">
																											<g id="&lt;Group&gt;">
																												<g id="&lt;Group&gt;">
																													<g id="&lt;Group&gt;">
																														<path id="&lt;Path&gt;" class="s6" d="m332.2 250.3c-0.3 0.4-2.3-1.2-5.2-1.3-2.8-0.1-5 1.3-5.3 0.9-0.1-0.2 0.2-0.8 1.2-1.4 0.9-0.7 2.5-1.2 4.2-1.2 1.8 0.1 3.3 0.8 4.2 1.5 0.8 0.7 1.1 1.4 0.9 1.5z"/>
																													</g>
																												</g>
																											</g>
																										</g>
																									</g>
																								</g>
																							</g>
																						</g>
																					</g>
																				</g>
																			</g>
																		</g>
																	</g>
																</g>
															</g>
														</g>
														<g id="&lt;Group&gt;">
															<g id="&lt;Group&gt;">
																<g id="&lt;Group&gt;">
																	<g id="&lt;Group&gt;">
																		<g id="&lt;Group&gt;">
																			<g id="&lt;Group&gt;">
																				<g id="&lt;Group&gt;">
																					<g id="&lt;Group&gt;">
																						<g id="&lt;Group&gt;">
																							<g id="&lt;Group&gt;">
																								<g id="&lt;Group&gt;">
																									<g id="&lt;Group&gt;">
																										<g id="&lt;Group&gt;">
																											<g id="&lt;Group&gt;">
																												<g id="&lt;Group&gt;">
																													<path id="&lt;Path&gt;" class="s6" d="m341.8 272.1c0-0.2 1.8-0.4 4.8-0.7 0.7 0 1.4-0.2 1.5-0.7 0.2-0.5-0.1-1.3-0.4-2.2q-0.9-2.7-1.9-5.6c-2.7-8.1-4.7-14.7-4.4-14.8 0.4-0.2 2.8 6.3 5.5 14.4q1 3 1.9 5.7c0.3 0.8 0.7 1.8 0.3 2.9-0.2 0.5-0.8 0.9-1.3 1-0.4 0.1-0.9 0.1-1.2 0.1-2.9 0.1-4.7 0-4.8-0.1z"/>
																												</g>
																											</g>
																										</g>
																									</g>
																								</g>
																							</g>
																						</g>
																					</g>
																				</g>
																			</g>
																		</g>
																	</g>
																</g>
															</g>
														</g>
													</g>
												</g>
											</g>
											<g id="&lt;Group&gt;">
												<g id="&lt;Group&gt;">
													<g id="&lt;Group&gt;">
														<g id="&lt;Group&gt;">
															<g id="&lt;Group&gt;">
																<g id="&lt;Group&gt;">
																	<g id="&lt;Group&gt;">
																		<g id="&lt;Group&gt;">
																			<g id="&lt;Group&gt;">
																				<g id="&lt;Group&gt;">
																					<g id="&lt;Group&gt;">
																						<g id="&lt;Group&gt;">
																							<g id="&lt;Group&gt;">
																								<g id="&lt;Group&gt;">
																									<path id="&lt;Path&gt;" class="s6" d="m319.1 243.7c0.3-0.7 3.2-0.4 6.5-0.8 3.4-0.3 6.2-1.3 6.6-0.6 0.2 0.4-0.3 1.1-1.4 1.9-1.1 0.7-2.8 1.4-4.8 1.7-2.1 0.2-3.9-0.2-5.2-0.7-1.2-0.5-1.8-1.1-1.7-1.5z"/>
																								</g>
																							</g>
																						</g>
																					</g>
																				</g>
																			</g>
																		</g>
																	</g>
																</g>
															</g>
														</g>
													</g>
												</g>
											</g>
											<g id="&lt;Group&gt;">
												<g id="&lt;Group&gt;">
													<g id="&lt;Group&gt;">
														<g id="&lt;Group&gt;">
															<g id="&lt;Group&gt;">
																<g id="&lt;Group&gt;">
																	<g id="&lt;Group&gt;">
																		<g id="&lt;Group&gt;">
																			<g id="&lt;Group&gt;">
																				<g id="&lt;Group&gt;">
																					<g id="&lt;Group&gt;">
																						<g id="&lt;Group&gt;">
																							<g id="&lt;Group&gt;">
																								<g id="&lt;Group&gt;">
																									<path id="&lt;Path&gt;" class="s6" d="m360 240.9c-0.6 0.6-3.1-0.1-6-0.3-2.9-0.2-5.4 0.2-6-0.5-0.2-0.3 0.2-0.9 1.3-1.5 1.1-0.6 2.9-1 4.9-0.9 2 0.1 3.8 0.8 4.8 1.5 1 0.7 1.3 1.4 1 1.7z"/>
																								</g>
																							</g>
																						</g>
																					</g>
																				</g>
																			</g>
																		</g>
																	</g>
																</g>
															</g>
														</g>
													</g>
												</g>
											</g>
										</g>
									</g>
								</g>
							</g>
						</g>
						<g id="&lt;Group&gt;">
							<g id="&lt;Group&gt;">
								<g id="&lt;Group&gt;">
									<g id="&lt;Group&gt;">
										<g id="&lt;Group&gt;">
											<g id="&lt;Group&gt;">
												<g id="&lt;Group&gt;">
													<g id="&lt;Group&gt;">
														<g id="&lt;Group&gt;">
															<g id="&lt;Group&gt;">
																<g id="&lt;Group&gt;">
																	<g id="&lt;Group&gt;">
																		<g id="&lt;Group&gt;">
																			<g id="&lt;Group&gt;">
																				<g id="&lt;Group&gt;">
																					<path id="&lt;Path&gt;" class="s10" d="m301.4 259c-0.3-0.1-12.7-4.3-12.8 8.5-0.1 12.8 12.8 10.3 12.8 9.9 0.1-0.4 0-18.4 0-18.4z"/>
																				</g>
																			</g>
																		</g>
																	</g>
																</g>
															</g>
														</g>
													</g>
												</g>
											</g>
										</g>
									</g>
								</g>
							</g>
							<g id="&lt;Group&gt;">
								<g id="&lt;Group&gt;">
									<g id="&lt;Group&gt;">
										<g id="&lt;Group&gt;">
											<g id="&lt;Group&gt;">
												<g id="&lt;Group&gt;">
													<g id="&lt;Group&gt;">
														<g id="&lt;Group&gt;">
															<g id="&lt;Group&gt;">
																<g id="&lt;Group&gt;">
																	<g id="&lt;Group&gt;">
																		<g id="&lt;Group&gt;">
																			<g id="&lt;Group&gt;">
																				<g id="&lt;Group&gt;">
																					<g id="&lt;Group&gt;">
																						<path id="&lt;Path&gt;" class="s11" d="m297.6 272.5c-0.1 0-0.3 0.2-0.7 0.4-0.3 0.1-1 0.2-1.6 0-1.4-0.5-2.5-2.7-2.5-5-0.1-1.2 0.2-2.3 0.6-3.2 0.4-0.9 1-1.6 1.7-1.7 0.7-0.1 1.1 0.3 1.3 0.6 0.2 0.4 0.1 0.7 0.2 0.7 0 0 0.2-0.2 0.1-0.8 0-0.2-0.2-0.5-0.5-0.8-0.3-0.2-0.7-0.4-1.2-0.3-1 0.1-1.9 1-2.3 2-0.6 1-0.9 2.2-0.8 3.5 0 2.6 1.3 5 3.2 5.6 0.9 0.2 1.6 0 2-0.3 0.4-0.4 0.5-0.6 0.5-0.7z"/>
																					</g>
																				</g>
																			</g>
																		</g>
																	</g>
																</g>
															</g>
														</g>
													</g>
												</g>
											</g>
										</g>
									</g>
								</g>
							</g>
						</g>
					</g>
					<g id="&lt;Group&gt;">
						<g id="&lt;Group&gt;">
							<g id="&lt;Group&gt;">
								<g id="&lt;Group&gt;">
									<g id="&lt;Group&gt;">
										<g id="&lt;Group&gt;">
											<g id="&lt;Group&gt;">
												<path id="&lt;Path&gt;" class="s11" d="m322.2 262.2c-0.2 0-0.3-0.1-0.4-0.3 0-0.2 0.1-0.4 0.3-0.4 0.2 0 0.3 0.1 0.4 0.3 0 0.2-0.1 0.4-0.3 0.4z"/>
											</g>
										</g>
									</g>
								</g>
							</g>
						</g>
					</g>
					<g id="&lt;Group&gt;">
						<g id="&lt;Group&gt;">
							<g id="&lt;Group&gt;">
								<g id="&lt;Group&gt;">
									<g id="&lt;Group&gt;">
										<g id="&lt;Group&gt;">
											<g id="&lt;Group&gt;">
												<path id="&lt;Path&gt;" class="s11" d="m327.7 261.2c-0.1 0-0.3-0.2-0.3-0.4-0.1-0.2 0-0.4 0.2-0.4 0.2 0 0.4 0.1 0.4 0.3 0 0.2-0.1 0.4-0.3 0.5z"/>
											</g>
										</g>
									</g>
								</g>
							</g>
						</g>
					</g>
					<g id="&lt;Group&gt;">
						<g id="&lt;Group&gt;">
							<g id="&lt;Group&gt;">
								<g id="&lt;Group&gt;">
									<g id="&lt;Group&gt;">
										<g id="&lt;Group&gt;">
											<g id="&lt;Group&gt;">
												<path id="&lt;Path&gt;" class="s11" d="m331.5 261.2c-0.2 0-0.4-0.2-0.4-0.5 0-0.3 0.1-0.5 0.3-0.5 0.1 0 0.3 0.2 0.3 0.5 0 0.3-0.1 0.5-0.2 0.5z"/>
											</g>
										</g>
									</g>
								</g>
							</g>
						</g>
					</g>
					<g id="&lt;Group&gt;">
						<g id="&lt;Group&gt;">
							<g id="&lt;Group&gt;">
								<g id="&lt;Group&gt;">
									<g id="&lt;Group&gt;">
										<g id="&lt;Group&gt;">
											<g id="&lt;Group&gt;">
												<path id="&lt;Path&gt;" class="s11" d="m324.8 265.8c-0.2-0.1-0.3-0.2-0.3-0.3 0-0.1 0.1-0.2 0.3-0.2 0.2 0.1 0.3 0.1 0.3 0.3 0 0.1-0.1 0.2-0.3 0.2z"/>
											</g>
										</g>
									</g>
								</g>
							</g>
						</g>
					</g>
					<g id="&lt;Group&gt;">
						<g id="&lt;Group&gt;">
							<g id="&lt;Group&gt;">
								<g id="&lt;Group&gt;">
									<g id="&lt;Group&gt;">
										<g id="&lt;Group&gt;">
											<g id="&lt;Group&gt;">
												<path id="&lt;Path&gt;" class="s11" d="m329.9 264.8c-0.2 0-0.4-0.2-0.4-0.4 0-0.2 0.1-0.3 0.3-0.3 0.2-0.1 0.3 0.1 0.4 0.3 0 0.2-0.2 0.4-0.3 0.4z"/>
											</g>
										</g>
									</g>
								</g>
							</g>
						</g>
					</g>
					<g id="&lt;Group&gt;">
						<g id="&lt;Group&gt;">
							<g id="&lt;Group&gt;">
								<g id="&lt;Group&gt;">
									<g id="&lt;Group&gt;">
										<g id="&lt;Group&gt;">
											<g id="&lt;Group&gt;">
												<path id="&lt;Path&gt;" class="s11" d="m356.2 262.6c-0.2 0.1-0.3-0.1-0.4-0.3 0-0.2 0.1-0.3 0.3-0.4 0.2 0 0.3 0.1 0.4 0.3 0 0.2-0.1 0.4-0.3 0.4z"/>
											</g>
										</g>
									</g>
								</g>
							</g>
						</g>
					</g>
					<g id="&lt;Group&gt;">
						<g id="&lt;Group&gt;">
							<g id="&lt;Group&gt;">
								<g id="&lt;Group&gt;">
									<g id="&lt;Group&gt;">
										<g id="&lt;Group&gt;">
											<g id="&lt;Group&gt;">
												<path id="&lt;Path&gt;" class="s11" d="m360 262.4c-0.2 0.1-0.4-0.1-0.4-0.3 0-0.3 0.1-0.4 0.3-0.5 0.2 0 0.3 0.2 0.3 0.4 0.1 0.2-0.1 0.4-0.2 0.4z"/>
											</g>
										</g>
									</g>
								</g>
							</g>
						</g>
					</g>
					<g id="&lt;Group&gt;">
						<g id="&lt;Group&gt;">
							<g id="&lt;Group&gt;">
								<g id="&lt;Group&gt;">
									<g id="&lt;Group&gt;">
										<g id="&lt;Group&gt;">
											<g id="&lt;Group&gt;">
												<path id="&lt;Path&gt;" class="s11" d="m352.9 262.6c-0.2 0-0.3-0.1-0.4-0.2 0-0.2 0.1-0.3 0.3-0.3 0.2-0.1 0.3 0 0.4 0.2 0 0.1-0.1 0.3-0.3 0.3z"/>
											</g>
										</g>
									</g>
								</g>
							</g>
						</g>
					</g>
					<g id="&lt;Group&gt;">
						<g id="&lt;Group&gt;">
							<g id="&lt;Group&gt;">
								<g id="&lt;Group&gt;">
									<g id="&lt;Group&gt;">
										<g id="&lt;Group&gt;">
											<g id="&lt;Group&gt;">
												<path id="&lt;Path&gt;" class="s11" d="m355.5 266.5c-0.1 0-0.3-0.1-0.4-0.3-0.1-0.2 0-0.4 0.2-0.4 0.1-0.1 0.3 0 0.4 0.2 0.1 0.2 0 0.4-0.2 0.5z"/>
											</g>
										</g>
									</g>
								</g>
							</g>
						</g>
					</g>
					<g id="&lt;Group&gt;">
						<g id="&lt;Group&gt;">
							<g id="&lt;Group&gt;">
								<g id="&lt;Group&gt;">
									<g id="&lt;Group&gt;">
										<g id="&lt;Group&gt;">
											<g id="&lt;Group&gt;">
												<path id="&lt;Path&gt;" class="s11" d="m358.7 265.9c-0.1 0-0.2-0.2-0.2-0.3 0.1-0.1 0.2-0.2 0.4-0.2 0.2 0.1 0.3 0.2 0.2 0.4 0 0.1-0.2 0.2-0.4 0.1z"/>
											</g>
										</g>
									</g>
								</g>
							</g>
						</g>
					</g>
				</g>
				<g id="&lt;Group&gt;">
					<g id="&lt;Group&gt;">
						<path id="&lt;Path&gt;" class="s6" d="m346.1 282c-0.1 0.3-2.5-0.9-5.6-1.4-3.1-0.6-5.6-0.3-5.7-0.6-0.1-0.3 2.6-1.1 5.9-0.4 3.3 0.5 5.6 2.2 5.4 2.4z"/>
					</g>
				</g>
				<g id="&lt;Group&gt;">
					<path id="&lt;Path&gt;" class="s6" d="m376.6 216.7c-0.7-0.4-1.6-0.5-2.2-1.1-1-0.9-1-2.4-1-3.7 0-1.4-0.2-2.9-1.4-3.6-1.6-0.9-3.6 0.6-5.3-0.1-1.7-0.6-1.9-2.9-2.8-4.5-1.1-2.1-3.9-3-6.1-2.1-1.4 0.7-3 2.1-4.4 1.3-1.3-0.7-1.1-2.6-1.6-3.9-0.7-1.8-3.2-2.6-4.8-1.6-1.3 0.8-2.4 2.4-3.8 1.8-1.1-0.6-1-2.4-2.1-3.2-0.8-0.6-2-0.3-2.8 0.4-0.8 0.7-1.2 1.7-1.9 2.5-0.6 0.9-1.5 1.6-2.5 1.6-1.2-0.1-2-1.2-2.9-1.9-2.9-2.5-7.6-2-10.8 0.2-2.1 1.5-3.7 3.4-5 5.5-3.5-0.7-7.1-0.7-10.5 0.3-7.6 2.2-13.7 9.7-13.2 17.7 0.2 3.7 1.7 7.2 2.4 10.9 0.7 4.3 0.1 8.8 0.2 13.2 0 4.5 0.3 8.5 3.2 11.9l3.8 0.9c0.3 0.5 0.5 0.9 0.9 1.3 1.2 1.5 3.5 2.5 5 1.4 0.9-0.7 1.3-1.9 1.6-2.9 2.4-8.1 4.7-16.7 3.6-24.8-0.6-4.5 1.4-9.1 5.4-11.2 1.1-0.6 2.7-1.5 3.8-1.7 1.4-0.3 2.8-0.3 4.1 0 2.8 0.5 5.4 2.2 7 4.5 1.1 1.7 2 3.8 4 4.3 2 0.6 4.1-1.1 6.2-1.1 2.2 0 4 1.8 5.6 3.3 1.7 1.6 3.8 3.1 6 2.4 1.9-0.5 3-2.7 4.9-3.3 1.4-0.5 2.9-0.1 4.2 0.5 1.3 0.6 2.6 1.3 4 1.6 1.4 0.3 3.1-0.1 3.8-1.3 0.9-1.4 0.4-3.4 1.4-4.7 0.9-1.1 2.5-1.1 3.9-1.7 1.7-0.7 3-2.6 3-4.5 0-2-1.2-3.8-2.9-4.6z"/>
				</g>
				<g id="&lt;Group&gt;">
					<g id="&lt;Group&gt;">
						<path id="&lt;Path&gt;" class="s9" d="m293.8 240.5c0-0.2 1.3 0 3.3-0.3 2-0.2 4.8-0.9 7.5-2.4 2.6-1.6 4.5-3.7 5.7-5.4 1.1-1.6 1.6-2.8 1.8-2.8 0.1 0.1-0.2 1.4-1.2 3.2-1.1 1.9-3 4.2-5.8 5.9-2.8 1.6-5.8 2.2-7.9 2.3-2.1 0-3.4-0.4-3.4-0.5z"/>
					</g>
				</g>
				<g id="&lt;Group&gt;">
					<g id="&lt;Group&gt;">
						<path id="&lt;Path&gt;" class="s9" d="m293.1 245.3c0-0.3 4.7 0.6 9.9-1.5 5.3-2 8.1-5.9 8.4-5.6 0.1 0-0.5 1.1-1.8 2.5-1.3 1.4-3.5 3-6.2 4.1-2.7 1-5.4 1.3-7.3 1.2-1.9-0.2-3-0.6-3-0.7z"/>
					</g>
				</g>
			</g>
			<g id="&lt;Group&gt;">
				<g id="&lt;Group&gt;">
					<path id="&lt;Path&gt;" class="s6" d="m279.4 500.2l-23.3 73.3 14.8 332 45.4-5.5 5.9-157.9 24.5-176.6 2.4-62.5z"/>
				</g>
				<g id="&lt;Group&gt;">
					<g id="&lt;Group&gt;">
						<g id="&lt;Group&gt;">
							<g id="&lt;Group&gt;">
								<g id="&lt;Group&gt;">
									<g id="&lt;Group&gt;">
										<g id="&lt;Group&gt;">
											<g id="&lt;Group&gt;">
												<path id="&lt;Path&gt;" class="s7" d="m294.3 825.9l-44.4 60.7 74.8 56.5c4.9-7.5-26.2-53.2-26.2-53.2l30.8-40z"/>
											</g>
										</g>
									</g>
								</g>
							</g>
							<g id="&lt;Group&gt;">
								<g id="&lt;Group&gt;">
									<g id="&lt;Group&gt;">
										<g id="&lt;Group&gt;">
											<g id="&lt;Group&gt;">
												<g id="&lt;Group&gt;">
													<path id="&lt;Path&gt;" class="s6" d="m281.1 871.3c-1.8-0.7-4 0.2-4.8 1.9-0.8 1.8 0.1 4 1.8 4.8 1.8 0.7 4.5-0.3 5.1-2.1 0.5-1.8-0.6-4.4-2.5-4.7"/>
												</g>
											</g>
										</g>
									</g>
								</g>
							</g>
							<g id="&lt;Group&gt;">
								<g id="&lt;Group&gt;">
									<g id="&lt;Group&gt;">
										<g id="&lt;Group&gt;">
											<g id="&lt;Group&gt;">
												<path id="&lt;Path&gt;" class="s6" d="m249.9 886.6l4.5-6.1 70.2 56.6c0 0 2.2 3.9 0.1 6z"/>
											</g>
										</g>
									</g>
								</g>
							</g>
							<g id="&lt;Group&gt;">
								<g id="&lt;Group&gt;">
									<g id="&lt;Group&gt;">
										<g id="&lt;Group&gt;">
											<g id="&lt;Group&gt;">
												<g id="&lt;Group&gt;">
													<path id="&lt;Path&gt;" class="s6" d="m299.1 891.5c-0.3 0.3-2.3-0.9-5-1.1-2.6-0.2-4.8 0.7-5 0.3-0.3-0.4 1.9-2.1 5.2-1.9 3.2 0.3 5.1 2.4 4.8 2.7z"/>
												</g>
											</g>
										</g>
									</g>
								</g>
							</g>
							<g id="&lt;Group&gt;">
								<g id="&lt;Group&gt;">
									<g id="&lt;Group&gt;">
										<g id="&lt;Group&gt;">
											<g id="&lt;Group&gt;">
												<g id="&lt;Group&gt;">
													<path id="&lt;Path&gt;" class="s6" d="m306.3 902.3c-0.2 0.4-2.2-0.2-4.6 0.4-2.5 0.6-4 2-4.4 1.7-0.4-0.2 1-2.5 4-3.2 3-0.8 5.3 0.7 5 1.1z"/>
												</g>
											</g>
										</g>
									</g>
								</g>
							</g>
							<g id="&lt;Group&gt;">
								<g id="&lt;Group&gt;">
									<g id="&lt;Group&gt;">
										<g id="&lt;Group&gt;">
											<g id="&lt;Group&gt;">
												<g id="&lt;Group&gt;">
													<path id="&lt;Path&gt;" class="s6" d="m303.8 914.6c-0.4-0.2 0.5-2.4 2.9-3.7 2.5-1.3 4.8-0.8 4.7-0.4 0 0.5-1.9 0.7-3.9 1.8-2.1 1-3.3 2.5-3.7 2.3z"/>
												</g>
											</g>
										</g>
									</g>
								</g>
							</g>
							<g id="&lt;Group&gt;">
								<g id="&lt;Group&gt;">
									<g id="&lt;Group&gt;">
										<g id="&lt;Group&gt;">
											<g id="&lt;Group&gt;">
												<g id="&lt;Group&gt;">
													<path id="&lt;Path&gt;" class="s6" d="m306 881c-0.4 0.2-1.7-1.5-3.8-3-2.2-1.4-4.3-1.9-4.3-2.4 0-0.4 2.6-0.6 5.2 1.1 2.5 1.7 3.3 4.2 2.9 4.3z"/>
												</g>
											</g>
										</g>
									</g>
								</g>
							</g>
							<g id="&lt;Group&gt;">
								<g id="&lt;Group&gt;">
									<g id="&lt;Group&gt;">
										<g id="&lt;Group&gt;">
											<g id="&lt;Group&gt;">
												<g id="&lt;Group&gt;">
													<path id="&lt;Path&gt;" class="s6" d="m314.1 873c-0.1 0.2-1.7-0.7-3.7-2.8-1-1.1-2.1-2.5-3-4.2q-0.7-1.3-1.3-2.8c-0.2-0.4-0.4-1-0.5-1.7-0.1-0.7 0.4-1.8 1.3-2.1 0.9-0.2 1.7 0 2.3 0.4 0.5 0.4 0.9 0.9 1.2 1.3q1 1.2 1.8 2.5c0.9 1.8 1.4 3.5 1.7 4.9 0.5 2.9 0.1 4.7-0.1 4.7-0.2 0-0.2-1.8-1-4.4-0.4-1.4-1-2.9-1.9-4.4q-0.7-1.2-1.7-2.3c-0.6-0.8-1.3-1.4-1.7-1.2-0.2 0.1-0.3 0.2-0.3 0.5 0 0.4 0.2 0.8 0.4 1.3q0.5 1.4 1.1 2.6c0.8 1.7 1.7 3 2.6 4.2 1.7 2.2 3 3.3 2.8 3.5z"/>
												</g>
											</g>
										</g>
									</g>
								</g>
							</g>
						</g>
					</g>
				</g>
				<g id="&lt;Group&gt;">
					<path id="&lt;Path&gt;" class="s6" d="m349.1 503l26.3 1c0 0 58.5 209.4 52.7 227.8-5.8 18.3-114.3 140.2-114.3 140.2l-32.4-34.1c0 0 34.7-59 50.3-75.8 11.1-12 40-35.1 40-35.1l-37.1-74.7z"/>
				</g>
				<g id="&lt;Group&gt;">
					<g id="&lt;Group&gt;">
						<path id="&lt;Path&gt;" class="s9" d="m351.7 584.4c0 0-0.4 1.2-1.1 3.3-0.8 2.1-1.9 5.1-3.3 8.9-2.6 7.6-5.9 18.1-8.8 30-2.8 11.8-4.7 22.7-5.7 30.7-0.6 3.9-1 7.2-1.2 9.4-0.3 2.2-0.4 3.4-0.5 3.4-0.1 0 0-1.2 0.1-3.5 0.1-2.2 0.4-5.4 0.8-9.4 0.9-8 2.6-19 5.5-30.9 2.9-11.9 6.3-22.4 9.1-29.9 1.5-3.8 2.7-6.8 3.6-8.9 0.9-2 1.4-3.1 1.5-3.1z"/>
					</g>
				</g>
				<g id="&lt;Group&gt;">
					<g id="&lt;Group&gt;">
						<path id="&lt;Path&gt;" class="s9" d="m313.8 872q0 0-0.6-0.6-0.7-0.7-1.8-1.7c-1.6-1.7-3.8-4-6.6-6.9-5.8-5.9-13.9-14.4-23.7-24.6l-0.3-0.2 0.2-0.3c8.4-14.1 18.5-31.2 30.2-48.9 10.1-15.1 20.7-28.7 31.4-39.1 5.3-5.3 10.7-9.6 15.5-13.5 2.5-1.8 4.9-3.6 7.1-5.1q3.4-2.3 6.3-4.3l0.1-0.1h0.2c5.3 1.2 9.6 2.2 12.6 2.9q2.1 0.4 3.3 0.7 1.1 0.3 1.1 0.4 0 0-1.1-0.2-1.3-0.2-3.4-0.6c-3-0.7-7.3-1.5-12.7-2.6h0.3q-2.9 2-6.3 4.3c-2.2 1.6-4.5 3.4-7 5.2-4.8 3.9-10.1 8.3-15.3 13.6-10.7 10.3-21.2 23.9-31.2 39-11.7 17.7-21.8 34.7-30.3 48.8l-0.1-0.6c9.7 10.3 17.7 18.9 23.4 24.9 2.8 3 5 5.3 6.5 7q1.1 1.1 1.7 1.8 0.6 0.7 0.5 0.7z"/>
					</g>
				</g>
			</g>
			<g id="&lt;Group&gt;">
				<path id="&lt;Path&gt;" class="s10" d="m381.4 460.7c0.1 0.5 9.5-2.8 10.5-6.5 1.1-3.7 0.8-14.4 0.8-14.4l-24-14.5 0.1 20c0 0 10.6 3.4 12.6 15.4z"/>
			</g>
			<g id="&lt;Group&gt;">
				<g id="&lt;Group&gt;">
					<g id="&lt;Group&gt;">
						<path id="&lt;Path&gt;" class="s10" d="m354.8 304.2l10.6 6.8c0 0 3.3 8.2 7.6 12.1 4.2 3.8 11.5 11.4 11.5 11.4l3.2 11.6 23.2-5.9-9.9-33.5-2.9-9c0 0-5.1-7.7-11.7-3.6 0 0 0.8-2.9-1.9-3.1-2.7-0.1-6.9 0.7-6.9 0.7 0 0-2.9-2.1-5.8-2.1-3 0.1-4.5 0.5-4.5 0.5 0 0-0.8-3.3-2.5-2.9-1.8 0.4-4 3.6-4.7 5.4-0.7 1.9-0.1 7-0.1 7z"/>
					</g>
					<g id="&lt;Group&gt;">
						<g id="&lt;Group&gt;">
							<path id="&lt;Path&gt;" class="s11" d="m387.5 294c0.1 0.2-2.3 0.9-3.9 4-0.8 1.5-1.3 3.5-1.2 5.8q0 1.8 0.3 3.6 0.1 1 0.3 1.9c0.1 0.7 0.2 1.4 0.4 1.9 0.2 0.4 0.7 0.7 1.3 0.8 0.5 0.2 1.1 0.2 1.6 0 1.1-0.2 1.9-1.1 2.1-2.1 0.6-2.1-0.1-4.3 0.2-6.2 0.1-0.9 0.5-1.8 1-2.3 0.5-0.6 1.1-1 1.6-1.1 1-0.3 1.6 0.2 1.6 0.2-0.1 0.1-0.6-0.2-1.5 0.2-0.8 0.3-1.9 1.4-2 3.1-0.2 1.7 0.6 3.8 0.1 6.3-0.4 2.7-4.8 4.5-6.9 1.5-0.4-0.8-0.4-1.4-0.5-2.1q-0.2-1-0.3-1.9-0.3-2-0.3-3.8c0-2.4 0.6-4.6 1.6-6.2 0.9-1.6 2.1-2.6 3-3 0.9-0.5 1.5-0.6 1.5-0.6z"/>
						</g>
					</g>
					<g id="&lt;Group&gt;">
						<g id="&lt;Group&gt;">
							<path id="&lt;Path&gt;" class="s11" d="m395.3 306.5c0 0.2-1.2 0.4-2.8 0.4-1.5 0.1-2.8 0.2-2.8-0.1-0.1-0.3 1.2-0.8 2.8-0.9 1.6-0.1 2.9 0.3 2.8 0.6z"/>
						</g>
					</g>
					<g id="&lt;Group&gt;">
						<g id="&lt;Group&gt;">
							<path id="&lt;Path&gt;" class="s11" d="m382.6 311.2c0 0 0.2 0.5 0.3 1.4 0 1 0 2.6-1.4 3.9-0.6 0.6-1.6 1.2-2.7 1.1-1.2 0-2.3-0.7-3-1.8-0.6-1-0.9-2.2-1.2-3.4q-0.3-1.8-0.5-3.7c-0.3-2.6-0.4-5.1-0.3-7.3 0.1-2.2 0.3-4.3 0.9-5.9 0.6-1.7 1.6-2.8 2.4-3.3 0.9-0.5 1.4-0.6 1.4-0.5 0.1 0.1-0.4 0.2-1.1 0.8-0.7 0.6-1.6 1.7-2 3.2-0.5 1.5-0.6 3.5-0.6 5.7 0 2.2 0 4.6 0.3 7.2 0.4 2.5 0.5 5 1.6 6.7 0.5 0.9 1.3 1.4 2.1 1.5 0.9 0 1.7-0.3 2.2-0.8 1.2-1.1 1.4-2.5 1.5-3.4 0.1-0.9 0-1.4 0.1-1.4z"/>
						</g>
					</g>
					<g id="&lt;Group&gt;">
						<g id="&lt;Group&gt;">
							<path id="&lt;Path&gt;" class="s11" d="m373.3 309.4c0.2 0-0.4 2-3.3 3-1.7 0.2-3.3-1.3-4-3.1-0.6-1.9-0.6-3.9-0.7-6 0-4.3 0.9-8.1 2.1-10.7 0.6-1.3 1.6-2.1 2.3-2.4 0.8-0.4 1.2-0.3 1.2-0.2 0.1 0.1-0.4 0.1-1 0.5-0.6 0.4-1.4 1.2-1.9 2.4-0.9 2.5-1.6 6.2-1.6 10.4 0 2 0 4 0.5 5.6 0.5 1.6 1.9 2.8 3 2.7 1.2-0.2 2.1-0.9 2.6-1.4 0.6-0.5 0.7-0.8 0.8-0.8z"/>
						</g>
					</g>
					<g id="&lt;Group&gt;">
						<g id="&lt;Group&gt;">
							<path id="&lt;Path&gt;" class="s11" d="m367.3 290.1c0.1 0 0.1 1-0.1 2.6-0.3 1.5-0.6 3.9-2.3 5.9-0.4 0.5-1 1-1.7 1.1-0.7 0.2-1.4 0-1.9-0.3-1.1-0.7-1.5-1.8-1.6-2.6-0.2-1.7 0.2-2.6 0.3-2.6 0.2 0 0.1 1 0.4 2.4 0.2 0.8 0.6 1.5 1.3 2 0.8 0.4 1.7 0.2 2.4-0.7 1.5-1.7 1.9-3.9 2.3-5.4 0.4-1.5 0.8-2.4 0.9-2.4z"/>
						</g>
					</g>
					<g id="&lt;Group&gt;">
						<g id="&lt;Group&gt;">
							<path id="&lt;Path&gt;" class="s11" d="m396.1 319c-0.2 0.1-1.8-2-4.5-3.6-2.7-1.7-5.3-1.9-5.3-2.2 0-0.3 2.9-0.5 5.8 1.3 3 1.7 4.3 4.4 4 4.5z"/>
						</g>
					</g>
					<g id="&lt;Group&gt;">
						<g id="&lt;Group&gt;">
							<path id="&lt;Path&gt;" class="s11" d="m400.1 324.5c0.3 0.1-1.7 3.5-6 5.3-4.2 1.9-8 1-7.9 0.8 0-0.3 3.6 0 7.5-1.8 4-1.6 6.2-4.5 6.4-4.3z"/>
						</g>
					</g>
				</g>
				<g id="&lt;Group&gt;">
					<g id="&lt;Group&gt;">
						<path id="&lt;Path&gt;" class="s11" d="m365.5 285.4c0.3 0 0.2 5.4-3.1 10.9-3.3 5.6-8 8.2-8.1 8-0.2-0.3 4-3.2 7.2-8.5 3.2-5.3 3.7-10.5 4-10.4z"/>
					</g>
				</g>
			</g>
			<g id="&lt;Group&gt;">
				<g id="&lt;Group&gt;">
					<path id="&lt;Path&gt;" class="s7" d="m367.5 347.7c0 0 6.9 3.1 10.3 13 2.3 6.8 15.3 30.4 15.3 30.4l-5.4-45 23-8.1c0 0 19.4 42.1 24.1 67.9 4.6 25.3-8.1 42.1-21.5 41.6-13.4-0.6-46.1-23.2-46.1-23.2z"/>
				</g>
				<g id="&lt;Group&gt;">
					<g id="&lt;Group&gt;">
						<path id="&lt;Path&gt;" class="s6" d="m387.7 346.1c0.1-0.1 0.3 0.9 0.6 2.6q0.4 2.9 1 7.3c0.8 6.2 1.9 14.8 3 24.2 0.4 3.7 0.9 7.2 1.2 10.5 0.6 3.4 1.2 6.6 1.7 9.4 0.5 2.9 1.1 5.3 1.8 7.3 1.4 4 2.6 6.2 2.5 6.3-0.1 0-0.4-0.5-1-1.5-0.5-1.1-1.3-2.6-2.1-4.6-0.7-2-1.5-4.4-2.1-7.3-0.5-2.9-1.1-6-1.7-9.4v-0.1c-0.4-3.2-0.9-6.8-1.3-10.5-1.1-9.4-2.1-18-2.7-24.2q-0.5-4.4-0.7-7.3c-0.2-1.8-0.2-2.7-0.2-2.7z"/>
					</g>
				</g>
				<g id="&lt;Group&gt;" style="opacity: .3">
					<g id="&lt;Group&gt;">
						<path id="&lt;Path&gt;" class="s8" d="m435.6 419.7c0.1-4.6-16 1.1-22.1 5.3-6.2 4.1-11.3 11.3-13.9 18.2 0 0 10.9 6.3 19.3 3.5 11.9-4.1 16.6-19.1 16.7-27z"/>
					</g>
				</g>
			</g>
			<g id="&lt;Group&gt;">
				<g id="&lt;Group&gt;">
					<path id="&lt;Path&gt;" class="s7" d="m292.4 317.8c0 0-43.4 21-48 33.8-4.7 12.8 3 45.8 3 45.8l17.2 89.1 3.5 33.3-9.2 13.4 3.9 13.8c46.7 6.2 90.4 7.5 127.7-1.7l-2.5-30.7-17.2-71.1-2.2-59.7-1.1-36.1-23.3-19.1c0 0-3.8 10.4-13.4 8.2-9.6-2.2-32.2-25-32.2-25z"/>
				</g>
				<g id="&lt;Group&gt;">
					<path id="&lt;Path&gt;" class="s7" d="m249 405.7c1.4 1.4 28.7 74.1 48 83 19.2 8.9 30.7 5.8 39.1 3.5 8.4-2.2 45.2-28.3 45.2-28.3 0 0-2.6-17.4-13.3-18-10.7-0.5-20.1 1.6-20.1 1.6l-13-8.5c0 0-7.5-14.7-11.8-15.4l-25.2-56c0 0-23.4-45.6-46.7-24.5-22.7 20.5-2.2 62.6-2.2 62.6z"/>
				</g>
				<g id="&lt;Group&gt;">
					<g id="&lt;Group&gt;">
						<path id="&lt;Path&gt;" class="s6" d="m348.4 333.9c0 0.1-0.4 0.9-1.4 2.2-1 1.4-2.6 3.3-5.1 5.1-1.2 0.9-2.7 1.7-4.5 2.2-1.7 0.5-3.7 0.7-5.7 0.6-4-0.3-8.3-1.5-12.5-3.3-4.3-1.8-8.1-4.1-11.2-6.7-3-2.5-5.5-5.2-7.5-7.4-1.9-2.3-3.4-4.2-4.4-5.5-1.1-1.4-1.6-2.2-1.5-2.2 0 0 0.7 0.6 1.8 1.9 1.1 1.3 2.6 3.1 4.7 5.3 2 2.2 4.5 4.7 7.5 7.2 3.1 2.5 6.8 4.6 11 6.4 4.1 1.8 8.3 3 12.2 3.3 3.9 0.4 7.3-0.8 9.7-2.4 2.5-1.6 4.1-3.5 5.2-4.7 1-1.3 1.6-2 1.7-2z"/>
					</g>
				</g>
				<g id="&lt;Group&gt;">
					<g id="&lt;Group&gt;">
						<path id="&lt;Path&gt;" class="s6" d="m365.2 367.8c0.3 0 1.4 17.3 2.4 38.7 1.1 21.3 1.7 38.7 1.4 38.7-0.3 0-1.4-17.3-2.4-38.7-1.1-21.3-1.7-38.7-1.4-38.7z"/>
					</g>
				</g>
				<g id="&lt;Group&gt;">
					<g id="&lt;Group&gt;">
						<path id="&lt;Path&gt;" class="s6" d="m257 344q0 0 0.5-0.2 0.5-0.2 1.5-0.6c1.3-0.5 3.3-1.1 6-1.4 2.7-0.3 6.2-0.2 9.9 1.2 3.8 1.2 7.7 3.7 11.3 7.2 3.7 3.5 7.1 8 10 13.3 1.5 2.7 2.7 5.6 4.1 8.5q2 4.5 4.1 9.2c5.7 12.7 12.2 26.9 19.1 42.2l-0.4-0.2c1.9 0.4 3 1.7 4.1 2.9 1.1 1.2 2.1 2.5 3 3.9q2.8 4.1 5.2 8.7l-0.1-0.1c1.5 1.6 3.3 3.3 5 5.1l-0.3-0.2c8 0.6 16.2 1.1 24.7 1.7q1.6 0.1 3.2 0.2c1.1 0.2 2.2 0.3 3.3 0.7 2.1 0.9 3.8 2.4 5.2 4.2 2.7 3.6 4.2 7.9 5.1 12.2q0.2 0.7 0.3 1.3v0.4l-0.2 0.1c-10.8 7.6-21.5 14.9-32 21.4-2.7 1.6-5.3 3.2-8.1 4.6q-1 0.6-2 1.1c-0.7 0.3-1.4 0.7-2.1 0.9-1.5 0.6-2.9 0.9-4.4 1.3-5.8 1.5-11.8 1.9-17.5 1.2-5.8-0.8-11.2-2.4-16.2-4.6-1.2-0.5-2.4-1-3.6-1.7-0.6-0.3-1.2-0.7-1.7-1.1-0.6-0.4-1.1-0.8-1.6-1.3-2-1.7-3.7-3.7-5.4-5.6-6.3-8-10.9-16.3-15-23.9-8-15.3-13.4-28.2-17.2-37.1-1.8-4.4-3.3-7.8-4.2-10.2-1-2.4-1.6-3.6-1.6-3.6 0.1 0 0.7 1.2 1.7 3.5 1.1 2.4 2.6 5.8 4.5 10.2 3.9 8.8 9.4 21.6 17.5 36.8 4.1 7.6 8.7 15.8 15 23.7 3.2 3.9 6.9 7.7 12 9.5 4.9 2.1 10.3 3.7 15.9 4.4 5.6 0.7 11.4 0.3 17.2-1.2 1.4-0.4 2.9-0.7 4.2-1.2 0.7-0.3 1.4-0.6 2.1-0.9q1-0.5 2-1.1c2.7-1.4 5.3-3 7.9-4.6 10.6-6.5 21.2-13.8 32-21.3l-0.2 0.5q-0.2-0.6-0.3-1.3c-0.9-4.2-2.4-8.4-4.9-11.8-1.3-1.7-2.9-3.1-4.8-3.8-1.9-0.8-4-0.7-6.2-0.9-8.4-0.6-16.7-1.1-24.7-1.7h-0.1l-0.2-0.1c-1.7-1.8-3.5-3.5-5-5.1l-0.1-0.1c-1.6-3-3.3-5.9-5.1-8.6-0.9-1.4-1.9-2.7-2.9-3.9-1.1-1.1-2.2-2.3-3.5-2.6l-0.3-0.1-0.1-0.2c-6.9-15.4-13.2-29.6-18.9-42.3q-2.1-4.7-4.1-9.2c-1.3-2.9-2.5-5.8-4-8.4-2.9-5.3-6.2-9.8-9.8-13.3-3.5-3.5-7.4-5.9-11-7.2-3.7-1.4-7.1-1.5-9.8-1.3-2.6 0.2-4.7 0.8-6 1.3q-0.9 0.3-1.5 0.5-0.5 0.2-0.5 0.1z"/>
					</g>
				</g>
				<g id="&lt;Group&gt;">
					<g id="&lt;Group&gt;">
						<path id="&lt;Path&gt;" class="s6" d="m350.6 444.8c0.1 0.6-5.4 0.4-12.1-0.1-3-0.3-5.8-0.5-8.5-0.8-2.2-0.2-3.5-0.3-3.5-0.4 0-0.4 5.4-0.4 12.1 0.1 3.3 0.3 6.4 0.6 8.5 0.9 1.2 0.1 2.3 0.2 3.5 0.3z"/>
					</g>
				</g>
				<g id="&lt;Group&gt;">
					<g id="&lt;Group&gt;">
						<path id="&lt;Path&gt;" class="s6" d="m303.8 424.8c0-0.3 4.3-0.8 9.6-1.2 5.3-0.3 9.7-0.4 9.7-0.1 0 0.3-4.3 0.8-9.6 1.2-5.4 0.3-9.7 0.4-9.7 0.1z"/>
					</g>
				</g>
				<g id="&lt;Group&gt;" style="opacity: .3">
					<g id="&lt;Group&gt;">
						<path id="&lt;Path&gt;" class="s8" d="m347.7 486.2c-6.3-10.5-16.2-18.2-28.3-20.5-12.1-2.3-26.3 1.7-36.1 9.1 0 0 8.5 15.9 29.5 19.1 21 3.1 34.9-7.7 34.9-7.7z"/>
					</g>
				</g>
				<g id="&lt;Group&gt;" style="opacity: .3">
					<g id="&lt;Group&gt;">
						<path id="&lt;Path&gt;" class="s8" d="m297 321.6c3.4 8.2 8 16.1 15 21.6 7 5.5 16.6 8.3 25 5.5 4.4-1.4 8.6-4.7 9-9.3-8.5 3.3-18.1 3.5-26.7 0.6-8.6-2.9-16.2-8.9-21-16.6"/>
					</g>
				</g>
				<g id="&lt;Group&gt;" style="opacity: .3">
					<g id="&lt;Group&gt;">
						<path id="&lt;Path&gt;" class="s8" d="m368.7 425.3c2.5-17 2.6-33.3-0.2-50.3-0.2-1.1-0.9-2.7-2.1-2.4-0.9 0.3-1.1 1.4-1.1 2.4-0.5 17.3 0.8 33.6 2.4 50.8"/>
					</g>
				</g>
				<g id="&lt;Group&gt;">
					<g id="&lt;Group&gt;">
						<path id="&lt;Path&gt;" class="s6" d="m365.4 534.4q0 0-1 0.3-1.1 0.3-2.8 0.8c-1.2 0.3-2.7 0.7-4.4 1.1-1.8 0.3-3.8 0.8-6 1.2-4.5 0.8-9.8 1.5-15.8 2-6 0.5-12.6 0.7-19.5 0.5-6.9-0.3-13.5-1-19.4-1.8-5.9-0.9-11.2-2-15.6-3.2-2.2-0.5-4.1-1.1-5.9-1.6-1.7-0.5-3.2-0.9-4.4-1.4q-1.6-0.5-2.7-0.9-1-0.4-1-0.4 0.1-0.1 1 0.2 1.2 0.3 2.8 0.8c1.3 0.3 2.7 0.7 4.5 1.2 1.7 0.4 3.7 1 5.9 1.4 4.4 1.1 9.7 2.1 15.6 2.9 5.9 0.8 12.4 1.5 19.3 1.7 6.8 0.3 13.4 0.1 19.3-0.3 6-0.5 11.3-1.1 15.7-1.9 2.3-0.3 4.3-0.7 6-1 1.8-0.3 3.3-0.6 4.5-0.9q1.8-0.4 2.9-0.6 1-0.2 1-0.1z"/>
					</g>
				</g>
				<g id="&lt;Group&gt;" style="opacity: .3">
					<g id="&lt;Group&gt;">
						<path id="&lt;Path&gt;" class="s8" d="m275.9 532.6c1.8-2.7 5.1-4 8.3-4.2 3.1-0.1 6.3 0.7 9.4 1.4 21.5 4.7 44.1 4.4 65.4-0.9 0.4 2.6-1.4 5.1-3.7 6.5-2.2 1.4-5 1.6-7.6 2.1-24 4.5-48.8 1.6-72-4"/>
					</g>
				</g>
			</g>
		</g>
	</g>
	<g id="Boxes">
		<g id="&lt;Group&gt;">
			<g id="&lt;Group&gt;">
				<g id="&lt;Group&gt;">
					<g id="&lt;Group&gt;">
						<g id="&lt;Group&gt;">
							<path id="&lt;Path&gt;" class="s7" d="m1387.3 531.3v193.8h-269.5v-193.8z"/>
						</g>
						<g id="&lt;Group&gt;">
							<path id="&lt;Path&gt;" class="s6" d="m1190 531.3c0.4 0 0 41 0 41h-19.9v-41z"/>
						</g>
					</g>
					<g id="&lt;Group&gt;" style="opacity: .4">
						<path id="&lt;Path&gt;" class="s8" d="m1252.5 725.1h134.8v-193.8h-134.8z"/>
					</g>
				</g>
				<g id="&lt;Group&gt;">
					<path id="&lt;Path&gt;" class="s5" d="m1162 712.7h-36v-25.5h36z"/>
					<path id="&lt;Compound Path&gt;" fill-rule="evenodd" class="s6" d="m1162.1 712.7h-36.2v-25.6h36.2zm-36.1-0.1h36v-25.4h-36z"/>
				</g>
				<g id="&lt;Group&gt;">
					<path id="&lt;Path&gt;" class="s5" d="m1186.7 712.7h-18v-25.5h18z"/>
					<path id="&lt;Compound Path&gt;" fill-rule="evenodd" class="s6" d="m1186.8 712.7h-18.1v-25.6h18.1zm-18-0.1h17.9v-25.4h-17.9z"/>
				</g>
			</g>
			<g id="&lt;Group&gt;">
				<g id="&lt;Group&gt;">
					<g id="&lt;Group&gt;">
						<g id="&lt;Group&gt;">
							<path id="&lt;Path&gt;" class="s7" d="m1375.2 725.3v220.4h-306.5v-220.4z"/>
						</g>
						<g id="&lt;Group&gt;">
							<path id="&lt;Path&gt;" class="s6" d="m1150.9 725.3c0.4 0 0 46.5 0 46.5h-22.7v-46.5z"/>
						</g>
					</g>
					<g id="&lt;Group&gt;" style="opacity: .4">
						<path id="&lt;Path&gt;" class="s8" d="m1221.9 945.7h153.3v-220.4h-153.3z"/>
					</g>
				</g>
				<g id="&lt;Group&gt;">
					<path id="&lt;Path&gt;" class="s5" d="m1119 931.5h-41v-29h41z"/>
					<path id="&lt;Compound Path&gt;" fill-rule="evenodd" class="s6" d="m1119.1 931.6h-41.1v-29.1h41.1zm-41-0.1h40.9v-29h-40.9z"/>
				</g>
				<g id="&lt;Group&gt;">
					<path id="&lt;Path&gt;" class="s5" d="m1147.1 931.5h-20.5v-29h20.5z"/>
					<path id="&lt;Compound Path&gt;" fill-rule="evenodd" class="s6" d="m1147.2 931.6h-20.6v-29.1h20.6zm-20.5-0.1h20.4v-29h-20.4z"/>
				</g>
			</g>
			<g id="&lt;Group&gt;">
				<g id="&lt;Group&gt;">
					<path id="&lt;Path&gt;" class="s6" d="m1387.3 725.1c0 0.3-60.4 0.5-134.8 0.5-74.4 0-134.7-0.2-134.7-0.5 0-0.3 60.3-0.5 134.7-0.5 74.4 0 134.8 0.2 134.8 0.5z"/>
				</g>
			</g>
		</g>
	</g>
	<g id="Speech Bubble">
		<g id="&lt;Group&gt;">
			<g id="&lt;Group&gt;">
				<g id="&lt;Group&gt;">
					<g id="&lt;Group&gt;">
						<g id="&lt;Group&gt;">
							<g id="&lt;Group&gt;">
								<g id="&lt;Group&gt;">
									<g id="&lt;Group&gt;">
										<path id="&lt;Path&gt;" class="s7" d="m192.8 149.1c0.8 0.4 1.4 1.2 1.4 2.2v12.1c0 0.7-0.4 1.5-1 1.9-0.6 0.5-1.4 0.6-2.1 0.4-2-0.5-4.1-0.2-6 0.9-1.7 1-2.8 2.6-3.2 4.3-0.3 1.7 0.1 3.7 1.3 5.3 1.2 1.8 3 3 4.9 3.3 3.9 0.6 8.3-2.2 9.6-6.1 0.4-1.3 1.7-2 3-1.6 1.3 0.4 2 1.8 1.6 3-2 6.3-8.7 10.5-14.9 9.5-3.3-0.5-6.3-2.4-8.2-5.3-1.9-2.8-2.7-6.1-2-9.1 0.6-3 2.6-5.7 5.4-7.4 2.1-1.3 4.4-1.9 6.7-1.9v-9.3c0-1.4 1.1-2.4 2.4-2.4q0.6 0 1.1 0.2z"/>
									</g>
								</g>
							</g>
						</g>
					</g>
				</g>
				<g id="&lt;Group&gt;">
					<g id="&lt;Group&gt;">
						<g id="&lt;Group&gt;">
							<g id="&lt;Group&gt;">
								<g id="&lt;Group&gt;">
									<g id="&lt;Group&gt;">
										<path id="&lt;Path&gt;" class="s7" d="m189.4 144c0-1.1 0.9-2 2-2 1.1-0.1 2 0.8 2 1.9 0 1.1-0.8 2-1.9 2-1.1 0.1-2-0.8-2.1-1.9z"/>
									</g>
								</g>
							</g>
						</g>
					</g>
				</g>
			</g>
			<g id="&lt;Group&gt;">
				<g id="&lt;Group&gt;">
					<g id="&lt;Group&gt;">
						<g id="&lt;Group&gt;">
							<g id="&lt;Group&gt;">
								<g id="&lt;Group&gt;">
									<g id="&lt;Group&gt;">
										<path id="&lt;Path&gt;" class="s6" d="m248.7 208.8c0 0-0.6 0-1.6 0.5-1 0.4-2.4 1.2-3.4 2.8-0.5 0.8-0.9 1.8-1 2.9-0.2 1.1 0 2.3 0.6 3.4 1 2.2 3.6 4.2 6.5 4 2.9-0.2 5.2-2.4 6-4.7 0.4-1.2 0.4-2.4 0.2-3.5-0.3-1-0.8-2-1.4-2.7-1.2-1.5-2.7-2.2-3.7-2.5-1-0.3-1.6-0.2-1.6-0.3q0 0 0.4 0 0.2 0 0.5 0 0.4 0 0.8 0.1c1 0.3 2.6 0.9 3.9 2.5 0.6 0.7 1.2 1.7 1.5 2.8 0.3 1.2 0.3 2.5-0.2 3.8-0.4 1.2-1.2 2.4-2.3 3.3-1.1 1-2.5 1.6-4.1 1.7-1.5 0.1-3-0.4-4.2-1.2-1.3-0.8-2.2-1.9-2.8-3.1-0.6-1.1-0.7-2.5-0.6-3.6 0.2-1.2 0.6-2.2 1.2-3.1 1.1-1.6 2.6-2.5 3.6-2.8q0.4-0.2 0.7-0.2 0.3-0.1 0.5-0.1 0.5-0.1 0.5 0z"/>
									</g>
								</g>
							</g>
						</g>
					</g>
				</g>
				<g id="&lt;Group&gt;">
					<g id="&lt;Group&gt;">
						<g id="&lt;Group&gt;">
							<g id="&lt;Group&gt;">
								<g id="&lt;Group&gt;">
									<g id="&lt;Group&gt;">
										<path id="&lt;Path&gt;" class="s6" d="m266.3 226.3c0 0.1-0.3 0.1-1 0.4-0.6 0.2-1.4 0.8-2 1.8-0.7 1-1 2.5-0.3 3.9 0.7 1.3 2.3 2.5 4 2.4 1.8-0.1 3.2-1.5 3.7-2.9 0.6-1.4 0-2.9-0.7-3.8-0.7-0.9-1.6-1.4-2.3-1.6-0.6-0.2-1-0.2-1-0.2 0 0 0.4-0.1 1.1 0 0.7 0.2 1.7 0.6 2.5 1.6 0.4 0.4 0.8 1 1 1.8 0.2 0.7 0.2 1.6-0.1 2.4-0.6 1.6-2.1 3.1-4.1 3.2-2.1 0.1-3.8-1.2-4.5-2.7-0.4-0.8-0.5-1.6-0.4-2.4 0.1-0.7 0.4-1.4 0.8-1.9 0.7-1.1 1.6-1.6 2.3-1.8 0.6-0.2 1-0.2 1-0.2z"/>
									</g>
								</g>
							</g>
						</g>
					</g>
				</g>
				<g id="&lt;Group&gt;">
					<g id="&lt;Group&gt;">
						<g id="&lt;Group&gt;">
							<g id="&lt;Group&gt;">
								<g id="&lt;Group&gt;">
									<g id="&lt;Group&gt;">
										<g id="&lt;Group&gt;">
											<path id="&lt;Path&gt;" class="s6" d="m245.7 172.8q0 0 0-0.9 0-1 0.1-2.7 0-0.9 0-2c0-0.7-0.1-1.5-0.1-2.3q-0.1-1.3-0.3-2.8 0-0.7-0.2-1.5-0.1-0.8-0.3-1.6c-0.6-4.4-2.2-9.7-5-15.4-2.8-5.6-7-11.6-12.9-16.9q-1.1-1-2.3-2c-0.8-0.6-1.6-1.2-2.5-1.8q-0.6-0.4-1.3-0.9c-0.4-0.3-0.8-0.6-1.3-0.9q-1.4-0.8-2.8-1.6-0.7-0.4-1.4-0.8-0.7-0.3-1.5-0.7-1.5-0.7-3-1.4c-1.1-0.4-2.2-0.7-3.2-1.1q-0.9-0.3-1.7-0.6-0.4-0.1-0.8-0.2l-0.9-0.2c-2.2-0.5-4.5-1.2-6.9-1.4-1.2-0.1-2.4-0.4-3.7-0.4q-1.8-0.1-3.7-0.1c-0.6 0-1.2-0.1-1.8-0.1q-1 0.1-1.9 0.2c-1.3 0.1-2.5 0.1-3.8 0.3-2.5 0.5-5.1 0.8-7.6 1.6q-1 0.3-1.9 0.5-0.5 0.2-1 0.3l-0.9 0.4q-1.8 0.7-3.7 1.4c-1.2 0.6-2.4 1.2-3.6 1.8-0.6 0.3-1.3 0.6-1.9 1l-1.7 1.1c-2.4 1.4-4.5 3.1-6.7 4.9q-1.6 1.4-3.1 2.8l-0.8 0.8q-0.3 0.4-0.7 0.8l-1.4 1.6-1.4 1.6-1.3 1.7-1.2 1.8-0.7 0.9q-0.3 0.4-0.5 0.9-1.1 1.9-2.2 3.8-0.9 2-1.9 4c-2.2 5.4-3.6 11.3-4.2 17.3-0.4 6.1 0.1 12.1 1.5 17.8q0.6 2.2 1.2 4.3 0.8 2 1.6 4.1l0.4 1 0.5 0.9 0.9 2 1 1.9 1.2 1.8 1.1 1.8 0.6 0.9 0.6 0.9q1.3 1.6 2.6 3.3c2 2 3.8 4.1 5.9 5.9l1.6 1.3c0.5 0.5 1.1 0.8 1.6 1.2 1.1 0.8 2.2 1.6 3.3 2.4q1.8 1 3.5 2l0.8 0.5q0.5 0.2 0.9 0.4 0.9 0.4 1.8 0.8c2.4 1.2 4.9 1.9 7.3 2.8 1.2 0.3 2.5 0.6 3.7 0.9q0.9 0.2 1.8 0.4c0.6 0.2 1.3 0.2 1.9 0.3q1.8 0.2 3.7 0.5c1.2 0.1 2.4 0.1 3.6 0.1 2.4 0.2 4.8-0.1 7.1-0.3h0.9q0.4-0.1 0.8-0.2 0.9-0.1 1.7-0.3c1.2-0.2 2.3-0.3 3.4-0.6q1.6-0.4 3.2-0.9 0.8-0.2 1.6-0.4 0.8-0.3 1.5-0.6 1.5-0.6 3-1.2c0.5-0.1 1-0.4 1.5-0.6q0.7-0.4 1.4-0.7c0.9-0.5 1.8-1 2.7-1.4q1.3-0.9 2.6-1.7c6.7-4.2 11.7-9.5 15.4-14.7q0.7-0.9 1.3-1.9 0.6-1 1.2-1.9 0.5-1 1.1-1.9c0.1-0.3 0.3-0.6 0.5-0.9q0.2-0.4 0.4-0.9 0.9-1.9 1.6-3.5c0.5-1.2 0.8-2.3 1.2-3.3q0.3-0.8 0.6-1.6 0.2-0.7 0.4-1.4 0.3-1.5 0.6-2.7c0.2-0.9 0.4-1.6 0.6-2.3q0.1-1.1 0.2-2 0.3-1.7 0.4-2.6 0.1-0.9 0.1-0.9 0 0-0.1 0.9-0.1 0.9-0.3 2.6-0.1 0.9-0.2 2c-0.1 0.7-0.3 1.5-0.5 2.3q-0.3 1.3-0.6 2.7-0.2 0.7-0.5 1.5-0.2 0.7-0.5 1.5c-0.4 1.1-0.7 2.2-1.2 3.3q-0.7 1.7-1.6 3.6-0.2 0.5-0.4 0.9c-0.2 0.4-0.3 0.6-0.5 1q-0.5 0.9-1.1 1.8-0.6 1-1.1 2-0.7 0.9-1.4 1.9c-3.6 5.2-8.7 10.5-15.4 14.9q-1.3 0.8-2.6 1.6c-0.9 0.5-1.8 0.9-2.8 1.4q-0.7 0.4-1.4 0.7c-0.4 0.3-0.9 0.5-1.4 0.7q-1.5 0.6-3 1.2-0.8 0.3-1.6 0.6-0.8 0.2-1.6 0.4-1.6 0.5-3.2 0.9c-1.1 0.3-2.3 0.4-3.4 0.7q-0.8 0.1-1.7 0.3-0.4 0-0.9 0.1l-0.8 0.1c-2.4 0.1-4.8 0.4-7.2 0.3-1.2-0.1-2.5-0.1-3.7-0.2q-1.8-0.2-3.7-0.5c-0.6 0-1.2-0.1-1.9-0.2q-0.9-0.2-1.8-0.5c-1.2-0.3-2.5-0.5-3.7-0.9-2.5-0.8-5-1.5-7.4-2.7q-0.9-0.4-1.8-0.9-0.4-0.2-0.9-0.4l-0.9-0.5q-1.7-1-3.5-2c-1.1-0.7-2.2-1.6-3.3-2.4-0.5-0.4-1.1-0.7-1.6-1.2l-1.6-1.4c-2.2-1.7-4-3.8-6-5.9q-1.3-1.7-2.6-3.3l-0.6-0.9-0.6-0.9-1.2-1.8-1.1-1.9-1-1.9-1-1.9-0.5-1-0.4-1q-0.8-2.1-1.6-4.1-0.6-2.2-1.2-4.3c-1.4-5.8-1.9-11.9-1.5-18 0.5-6.1 2-12 4.3-17.5q0.9-2 1.8-4 1.1-2 2.2-3.9 0.3-0.4 0.6-0.9l0.6-0.9 1.3-1.8 1.3-1.7 1.4-1.7 1.4-1.6q0.4-0.4 0.8-0.8l0.7-0.7q1.6-1.5 3.1-2.9c2.3-1.8 4.4-3.6 6.8-4.9l1.8-1.2c0.6-0.3 1.2-0.6 1.8-0.9 1.2-0.6 2.4-1.3 3.7-1.8q1.9-0.8 3.8-1.5l0.9-0.4q0.5-0.1 0.9-0.2 1-0.3 2-0.6c2.5-0.8 5.1-1.1 7.6-1.6 1.3-0.1 2.6-0.2 3.9-0.3q0.9 0 1.9-0.1c0.6 0 1.2 0 1.8 0q1.9 0.1 3.8 0.1c1.2 0.1 2.4 0.3 3.6 0.4 2.5 0.3 4.8 0.9 7.1 1.4l0.8 0.2q0.4 0.2 0.8 0.3 0.9 0.3 1.7 0.6c1.1 0.4 2.2 0.7 3.2 1.1q1.6 0.7 3.1 1.4 0.8 0.4 1.5 0.7 0.7 0.4 1.4 0.9 1.4 0.8 2.8 1.6c0.5 0.2 0.9 0.6 1.4 0.9q0.6 0.4 1.2 0.9c0.9 0.6 1.7 1.2 2.5 1.8q1.2 1 2.3 2c6 5.4 10.2 11.4 13 17.1 2.7 5.7 4.3 11 4.9 15.4q0.2 0.9 0.3 1.7 0.2 0.7 0.2 1.5 0.1 1.5 0.2 2.7c0.1 0.9 0.1 1.7 0.1 2.4q0 1.1 0 2-0.1 1.7-0.1 2.7-0.1 0.9-0.1 0.9z"/>
										</g>
									</g>
								</g>
							</g>
						</g>
					</g>
				</g>
			</g>
		</g>
	</g>
</svg>