<svg version="1.2" xmlns="http://www.w3.org/2000/svg" viewBox="0 0 1000 1000" width="1000" height="1000">
	<title>6181788-ai</title>
	<style>
		.s0 { fill: #ebebeb } 
		.s1 { fill:  #BA68C8 } 
		.s2 { fill: #263238 } 
		.s3 { fill: #455a64 } 
		.s4 { fill: #ffffff } 
		.s5 { fill: #dbdbdb } 
		.s6 { fill: none;stroke: #263238;stroke-miterlimit:10;stroke-width: .5 } 
		.s7 { fill: #ffffff;stroke: #263238;stroke-miterlimit:10;stroke-width: .5 } 
		.s8 { opacity: .1;fill: #000000 } 
		.s9 { fill: #000000 } 
		.s10 { opacity: .2;fill: #000000 } 
		.s11 { fill: none;stroke: #263238;stroke-miterlimit:10;stroke-width: .5;stroke-dasharray: 5.44336,5.44336 } 
		.s12 { fill: #a6a6a6 } 
		.s13 { fill: #fffefd } 
		.s14 { fill: #c7c7c7 } 
		.s15 { fill: #f7a9a0 } 
		.s16 { fill: #37474f } 
		.s17 { fill: #eb9481 } 
		.s18 { fill: #ff9bbc } 
	</style>
	<g id="Background Complete">
		<g id="&lt;Group&gt;">
			<path id="&lt;Path&gt;" class="s0" d="m804.1 747.6h70.4v-22.4h-70.4z"/>
			<path id="&lt;Path&gt;" class="s0" d="m376.8 441.9h70.3v-22.3h-70.3z"/>
			<g id="&lt;Group&gt;">
				<path id="&lt;Compound Path&gt;" fill-rule="evenodd" class="s0" d="m843.4 775.8l-0.5-22.4v-0.4h0.5l17.5-0.3 17.6-0.1 35.2-0.2h1v1l-0.1 22.4v0.9h-0.9l-17.8-0.1-17.6-0.2zm0 0l35.4-0.6 17.5-0.2 16.5-0.1-0.1-20.5-34.2-0.1-17.5-0.2-17.2-0.2zm69.4-0.9v0.9l1-0.9zm-0.1-20.5h1l-1-1zm-68.9-0.5v-0.5l-0.4 0.5z"/>
			</g>
			<g id="&lt;Group&gt;">
				<path id="&lt;Compound Path&gt;" fill-rule="evenodd" class="s0" d="m509 876.5l-0.5-22.3v-0.5h0.5l17.6-0.2 17.6-0.2 35.1-0.1h1v1l-0.1 22.3v1h-0.9l-17.7-0.1-17.7-0.3zm0 0l35.4-0.6 17.5-0.2 16.5-0.1-0.1-20.5-34.1-0.1-17.6-0.2-17.1-0.2zm69.4-0.9v0.9l0.9-0.9zm-0.1-20.5h1l-1-1zm-68.8-0.5v-0.4l-0.5 0.4z"/>
			</g>
			<g id="&lt;Group&gt;">
				<path id="&lt;Compound Path&gt;" fill-rule="evenodd" class="s0" d="m548.2 904.8l-0.5-22.4v-0.5h0.5l17.6-0.2 17.6-0.2 35.1-0.1h1v1l-0.1 22.4v0.9h-0.9l-17.7-0.1-17.7-0.2zm0 0l35.4-0.6 17.5-0.3 16.5-0.1v-20.4l-34.2-0.2-17.6-0.1-17.1-0.2zm69.4-1v1l0.9-1zm-0.1-20.4h1l-1-1zm-68.8-0.5v-0.5l-0.5 0.4z"/>
			</g>
			<path id="&lt;Path&gt;" class="s0" d="m587.3 876.5h70.3v-22.3h-70.3z"/>
			<path id="&lt;Path&gt;" class="s0" d="m86.3 775.8h70.3v-22.4h-70.3z"/>
			<path id="&lt;Path&gt;" class="s0" d="m125.5 112.2h70.4v-22.3h-70.4z"/>
			<g id="&lt;Group&gt;">
				<path id="&lt;Compound Path&gt;" fill-rule="evenodd" class="s0" d="m86.3 140.5l-0.5-22.4v-0.5h0.5l17.6-0.2 17.6-0.2 35.1-0.1h1v1l-0.1 22.4v0.9h-0.9l-17.7-0.1-17.7-0.2zm0 0l35.4-0.6 17.5-0.3 16.5-0.1v-20.4l-34.2-0.2-17.6-0.1-17.1-0.2zm69.4-1v1l0.9-1zm-0.1-20.4h1l-1-1zm-68.8-0.5v-0.5l-0.5 0.4z"/>
			</g>
			<g id="&lt;Group&gt;">
				<path id="&lt;Compound Path&gt;" fill-rule="evenodd" class="s0" d="m804.1 112.2l-0.4-22.3v-0.5h0.4l17.6-0.2 17.6-0.2 35.2-0.1h1v1l-0.1 22.3v1h-0.9l-17.8-0.1-17.6-0.3zm0 0l35.4-0.6 17.5-0.2 16.5-0.1-0.1-20.5-34.2-0.1-17.6-0.2-17.1-0.2zm69.4-0.9v0.9l0.9-0.9zm0-20.5h1l-1-1zm-68.9-0.5v-0.4l-0.5 0.4z"/>
			</g>
		</g>
	</g>
	<g id="Plant">
		<g id="&lt;Group&gt;">
			<g id="&lt;Group&gt;">
				<g id="&lt;Group&gt;">
					<path id="&lt;Path&gt;" class="s1" d="m902.4 770.2c-22.1 29.9-45 64.5-50.6 101.9-0.1 0.6 0.8 0.8 0.9 0.2 2.6-10.3 5.8-20.2 9.8-30 14.5-3.9 28.7-7.2 36.3-21.6 7.8-14.8 6.8-34.1 5.3-50.2-0.1-0.8-1.3-0.9-1.7-0.3z"/>
					<g id="&lt;Group&gt;">
						<path id="&lt;Path&gt;" class="s2" d="m862.7 842.1c9.9-22.3 22.6-44.6 38.8-62.8 0.1-0.2 0.2 0 0.1 0.1-10.5 13.1-18.6 27.2-26.4 41.6 7.3-7.4 15.3-14 22.2-21.9 0.1-0.1 0.3 0.1 0.2 0.3-6.9 8.2-14.4 17.2-23.3 23.2q-3.6 6.7-7.3 13.3 0.9-0.4 1.9-0.9c0.1 0 0.2 0.1 0.1 0.2-0.7 0.3-1.4 0.7-2.1 1q-1.7 3.1-3.5 6.3c-0.3 0.4-0.9 0-0.7-0.4z"/>
						<path id="&lt;Path&gt;" class="s2" d="m870.1 834.3c5.9-3.4 11.6-7 16.9-11.3 0.1-0.1 0.3 0.1 0.2 0.2-5.2 4.4-10.8 8.4-16.9 11.5-0.3 0.2-0.5-0.2-0.2-0.4z"/>
					</g>
				</g>
				<g id="&lt;Group&gt;">
					<path id="&lt;Path&gt;" class="s1" d="m849.2 866.6c0.1 0.4 0.8 0.4 0.8-0.1 0.1-12.3 0-24.7 0.2-37.1 3.2-6.3 10-9.9 14.7-15 3.4-3.7 6.3-7.8 8.8-12.2 5.8-10.4 8.9-22.2 10.2-34 1.3-13.2-3.7-56.7-9.3-55.2-2.9 0.8-12.2 22.3-14.7 29.5-4 11.7-6.9 23.8-8.8 36.1-4.5 29-4.1 58.8-1.9 88z"/>
					<g id="&lt;Group&gt;">
						<path id="&lt;Path&gt;" class="s2" d="m849.1 813.4q0.1 0 0.1-0.1c0.7-15.6 4.2-31.3 7.5-46.4 3.5-16.3 7.6-31.7 16-46.2 0.2-0.3 0.6 0 0.4 0.2-5.7 11.3-9.7 23.2-12.9 35.5 0.6-0.9 1.3-1.7 1.9-2.6 0.2-0.3 0.7 0 0.5 0.4-0.8 1.2-1.6 2.6-2.6 3.7q-0.1 0-0.1 0c-2.9 11.6-5 23.6-6.8 35.4q0.2-0.2 0.4-0.4c0.1-0.1 0.3 0 0.2 0.1q-0.3 0.6-0.7 1.2c-0.9 6-1.7 12.1-2.5 18 10.7-9.2 19.9-20 25-33.3 0.1-0.1 0.2 0 0.1 0-5 13.9-13 26.1-25.3 34.5q-0.3 2.4-0.7 4.9c0 0.3-0.6 0.2-0.6-0.1 0-1.4 0.1-2.9 0.2-4.3-0.2-0.1-0.3-0.4-0.1-0.5z"/>
						<path id="&lt;Path&gt;" class="s2" d="m854.2 790.8c8.2-12.3 15.9-24.2 21.9-37.7 0-0.1 0.3 0 0.2 0.1-5 13.5-12.1 27.1-21.7 37.9-0.2 0.2-0.6-0.1-0.4-0.3z"/>
						<path id="&lt;Path&gt;" class="s2" d="m865.1 750.1c3.4-6 7-11.9 10.2-18 0.1-0.2 0.3 0 0.2 0.1-2.7 6.3-5.9 12.7-9.9 18.2-0.2 0.3-0.7 0-0.5-0.3z"/>
						<path id="&lt;Path&gt;" class="s2" d="m863.8 752.7c0 0 0 0.1 0 0.1-0.1 0-0.1-0.1 0-0.1z"/>
					</g>
				</g>
				<g id="&lt;Group&gt;">
					<path id="&lt;Path&gt;" class="s1" d="m840.9 830.9c-0.2 8.2-1.1 16.3-2.9 24.3q0.2 1.3 0.4 2.7c2.5-8.9 3.9-18 4.3-27.1 0.2-0.3 0.2-0.5 0.1-0.9q0 0.1 0 0c0.4-12.2-0.7-24.6-2.8-36.7-3.8-22.6-12.1-44.3-27.9-61.3-0.5-0.5-1.5-0.3-1.8 0.3-6.3 16.2-4.1 35.6 1.3 51.8 3 8.7 7.2 17 12.5 24.5 5.5 7.6 12.4 14.1 16.8 22.4z"/>
					<g id="&lt;Group&gt;">
						<path id="&lt;Path&gt;" class="s2" d="m813.9 739.5c15 24.3 25.4 53.1 26.7 81.8 0 0.5-0.8 0.6-0.9 0.1q-0.5-3.9-1.2-7.7 0 0 0 0c-6.2-5.9-12.5-12.2-17-19.6 0-0.1 0.1-0.3 0.2-0.2 5.4 6.2 10.5 12.5 16.5 18q-1.6-9.5-3.8-18.7-0.6-0.7-1.2-1.4c-0.2-0.3 0.2-0.8 0.5-0.5q0.1 0.2 0.3 0.4c-2.1-8.4-4.7-16.7-7.8-24.8-3.8-4.6-8.1-8.5-10.9-14 0-0.1 0.2-0.2 0.2-0.1 2.3 3.1 4.4 6.3 7 9.2 1 1.1 2.1 2.2 3.1 3.4-3.4-8.7-7.4-17.2-12.2-25.6-0.2-0.4 0.3-0.7 0.5-0.3z"/>
						<path id="&lt;Path&gt;" class="s2" d="m817 769.4c4.8 6.6 10.3 12.8 14.8 19.5 0.2 0.2-0.1 0.4-0.3 0.2-5.8-5.4-10.7-12.8-14.9-19.5-0.1-0.2 0.2-0.4 0.4-0.2z"/>
						<path id="&lt;Path&gt;" class="s2" d="m832.5 790.4l0.2 0.2c0.2 0.2-0.1 0.4-0.2 0.2l-0.2-0.2c-0.2-0.1 0.1-0.3 0.2-0.2z"/>
					</g>
				</g>
				<g id="&lt;Group&gt;">
					<path id="&lt;Path&gt;" class="s1" d="m790.5 786.2c1.2 12.5 7.8 27.4 15.8 37 3.5 4.3 7.9 7.6 12.8 10 5.5 2.8 11.4 5.9 17.1 8.2 2.7 6.9 4.7 14 6.1 21.5q0.2-0.9 0.5-1.9c-3.7-31.7-24.2-58.7-50.4-76.1-0.9-0.6-2 0.2-1.9 1.3z"/>
					<g id="&lt;Group&gt;">
						<path id="&lt;Path&gt;" class="s2" d="m799.5 795.5c-0.1-0.1 0.1-0.5 0.3-0.3 13.9 10.3 26.4 25.3 33.4 41.1 0.2 0.5-0.4 0.8-0.7 0.4q-1.8-3.2-3.7-6.2 0 0 0 0c-6-1.2-11.6-5.4-16.1-9.4-0.1-0.1 0.1-0.3 0.2-0.1 2.3 2 4.8 3.9 7.6 5.3 2.4 1.2 5 2 7.6 3q-3.4-5.3-7-10.2c-6.4-2.2-12.5-6.1-17.9-10.1-0.2-0.1-0.1-0.4 0.1-0.3 5.5 3.3 11 6.3 16.7 8.9-3.6-4.8-7.5-9.3-11.8-13.7-2-1.1-4.1-2.2-6-3.3-0.2-0.1-0.1-0.4 0.1-0.3 1.6 0.5 3.2 1.3 4.6 2.3-2.3-2.4-4.8-4.8-7.4-7.1z"/>
						<path id="&lt;Path&gt;" class="s2" d="m800.1 806.5c0.4 0.2 0.7 0.4 1 0.7 0.1 0.1 0 0.2-0.1 0.1-0.4-0.1-0.7-0.3-1.1-0.6-0.2-0.1 0-0.4 0.2-0.2z"/>
					</g>
				</g>
			</g>
			<g id="&lt;Group&gt;">
				<g id="&lt;Group&gt;">
					<path id="&lt;Path&gt;" class="s3" d="m883.7 931.4h-71.8l5.8-65.3 1.3-14.4h57.6l1.3 14.4z"/>
					<path id="&lt;Path&gt;" class="s2" d="m877.9 866.1h-60.2l1.3-14.4h57.6z"/>
				</g>
				<path id="&lt;Path&gt;" class="s3" d="m880.1 855.8h-64.6v-14.2h64.6z"/>
			</g>
		</g>
	</g>
	<g id="Floor">
		<g id="&lt;Group&gt;">
			<path id="&lt;Path&gt;" class="s2" d="m94.9 931.4l101.3-0.4 101.2-0.2 202.6-0.4 202.6 0.4 101.2 0.2 101.3 0.4-101.3 0.5-101.2 0.2-202.6 0.3-202.6-0.3-101.2-0.2z"/>
		</g>
	</g>
	<g id="Screen">
		<g id="&lt;Group&gt;">
			<g id="&lt;Group&gt;">
				<g id="&lt;Group&gt;">
					<path id="&lt;Path&gt;" class="s4" d="m868.3 605.8h-736.6v-466h736.6z"/>
					<path id="&lt;Compound Path&gt;" fill-rule="evenodd" class="s2" d="m868.3 605.8l-736.6 0.3h-0.3v-0.3l-0.2-466v-0.5h0.5l736.6 0.3h0.2v0.2zm0 0l-0.2-465.7-735.9 0.3-0.2 465.1zm-0.2-465.7h0.2l-0.2-0.2zm-735.8 0.3v-0.5l-0.5 0.5zm-0.2 465.1h-0.3l0.3 0.3z"/>
				</g>
				<g id="&lt;Group&gt;">
					<path id="&lt;Path&gt;" class="s2" d="m868.3 157.8h-736.6v-18h736.6z"/>
					<g id="&lt;Group&gt;">
						<path id="&lt;Path&gt;" class="s1" d="m149 148.8c0 2-1.6 3.6-3.6 3.6-2 0-3.6-1.6-3.6-3.6 0-2 1.6-3.6 3.6-3.6 2 0 3.6 1.6 3.6 3.6z"/>
						<path id="&lt;Path&gt;" class="s4" d="m163.8 148.8c0 2-1.6 3.6-3.6 3.6-2 0-3.7-1.6-3.7-3.6 0-2 1.7-3.6 3.7-3.6 2 0 3.6 1.6 3.6 3.6z"/>
						<path id="&lt;Path&gt;" class="s3" d="m178.5 148.8c0 2-1.6 3.6-3.6 3.6-2 0-3.6-1.6-3.6-3.6 0-2 1.6-3.6 3.6-3.6 2 0 3.6 1.6 3.6 3.6z"/>
					</g>
				</g>
			</g>
			<g id="&lt;Group&gt;">
				<g id="&lt;Group&gt;">
					<path id="&lt;Path&gt;" class="s5" d="m204.9 350.4c17.1-0.3 34.2-0.5 51.3-0.6l51.4-0.2 51.3 0.2 25.6 0.2 25.7 0.4-25.7 0.4-25.6 0.2-51.3 0.2-51.4-0.2c-17.1-0.1-34.2-0.3-51.3-0.6z"/>
					<path id="&lt;Path&gt;" class="s5" d="m204.9 366.7c17.1-0.3 34.2-0.5 51.3-0.6l51.4-0.2 51.3 0.2 25.6 0.2 25.7 0.4-25.7 0.4-25.6 0.2-51.3 0.2-51.4-0.2c-17.1-0.1-34.2-0.3-51.3-0.6z"/>
					<path id="&lt;Path&gt;" class="s5" d="m204.9 383c17.1-0.4 34.2-0.5 51.3-0.6l51.4-0.2 51.3 0.2 25.6 0.2 25.7 0.4-25.7 0.4-25.6 0.2-51.3 0.2-51.4-0.2c-17.1-0.1-34.2-0.3-51.3-0.6z"/>
					<path id="&lt;Path&gt;" class="s5" d="m204.9 415.6c17.1-0.4 34.2-0.5 51.3-0.7l51.4-0.1 51.3 0.1 25.6 0.3 25.7 0.4-25.7 0.3-25.6 0.3-51.3 0.1-51.4-0.1c-17.1-0.2-34.2-0.3-51.3-0.6z"/>
					<path id="&lt;Path&gt;" class="s5" d="m204.9 431.8c17.1-0.3 34.2-0.4 51.3-0.6l51.4-0.2 51.3 0.2 25.6 0.2 25.7 0.4-25.7 0.4-25.6 0.3-51.3 0.1-51.4-0.2c-17.1-0.1-34.2-0.2-51.3-0.6z"/>
					<path id="&lt;Path&gt;" class="s5" d="m204.9 448.1c10.4-0.3 20.8-0.5 31.2-0.6 10.5-0.1 20.9-0.1 31.3-0.2 10.4 0.1 20.8 0.1 31.2 0.2l15.6 0.2c5.2 0.2 10.4 0.2 15.6 0.4-5.2 0.2-10.4 0.3-15.6 0.4l-15.6 0.2c-10.4 0.2-20.8 0.2-31.2 0.2-10.4 0-20.8 0-31.3-0.2-10.4-0.1-20.8-0.2-31.2-0.6z"/>
				</g>
				<g id="&lt;Group&gt;">
					<g id="&lt;Group&gt;">
						<path id="&lt;Path&gt;" class="s1" d="m299.3 507.6h-94.4v-25.9h94.4z"/>
					</g>
					<g id="&lt;Group&gt;">
						<path id="&lt;Compound Path&gt;" class="s4" d="m217.1 498.6v-7.9h0.7v7.2h4.6v0.7z"/>
						<path id="&lt;Compound Path&gt;" class="s4" d="m228.9 497.9v0.7h-5.3v-7.9h5.2v0.7h-4.4v2.8h3.9v0.7h-3.9v3z"/>
						<path id="&lt;Compound Path&gt;" fill-rule="evenodd" class="s4" d="m232.9 490.7h0.6l3.3 7.9h-0.8l-1-2.5h-3.6l-1 2.5h-0.9zm2 4.9l-1.6-3.9-1.7 3.9z"/>
						<path id="&lt;Compound Path&gt;" fill-rule="evenodd" class="s4" d="m238 498.6v-7.9h3.4q0.5 0 0.9 0.2 0.4 0.2 0.7 0.6 0.4 0.3 0.5 0.8 0.2 0.4 0.2 0.9 0 0.4-0.1 0.8-0.2 0.4-0.4 0.7-0.2 0.3-0.5 0.6-0.4 0.2-0.8 0.3l2 3h-0.9l-1.9-2.9h-2.3v2.9zm0.8-3.6h2.6q0.3 0 0.6-0.1 0.3-0.2 0.5-0.5 0.2-0.2 0.3-0.5 0.1-0.4 0.1-0.7 0-0.4-0.1-0.7-0.2-0.3-0.4-0.6-0.2-0.2-0.5-0.4-0.3-0.1-0.6-0.1h-2.5z"/>
						<path id="&lt;Compound Path&gt;" class="s4" d="m246.1 492.1v6.5h-0.8v-7.9h0.6l5.3 6.6v-6.6h0.8v7.9h-0.7z"/>
						<path id="&lt;Compound Path&gt;" class="s4" d="m263.9 498.6v-6.5l-2.9 5.1h-0.5l-2.9-5.1v6.5h-0.8v-7.9h0.8l3.1 5.4 3.2-5.4h0.8v7.9z"/>
						<path id="&lt;Compound Path&gt;" fill-rule="evenodd" class="s4" d="m269.9 498.7q-0.9 0-1.6-0.4-0.7-0.3-1.1-0.9-0.5-0.5-0.8-1.3-0.3-0.7-0.3-1.4 0-0.8 0.3-1.6 0.3-0.7 0.8-1.3 0.5-0.5 1.2-0.8 0.7-0.4 1.5-0.4 0.8 0 1.5 0.4 0.7 0.3 1.2 0.9 0.4 0.6 0.7 1.3 0.3 0.7 0.3 1.5 0 0.8-0.3 1.5-0.3 0.7-0.8 1.3-0.5 0.5-1.2 0.9-0.7 0.3-1.4 0.3zm-3-4q0 0.6 0.2 1.2 0.2 0.6 0.6 1.1 0.4 0.4 1 0.7 0.5 0.3 1.2 0.3 0.6 0 1.2-0.3 0.5-0.3 0.9-0.8 0.4-0.4 0.6-1 0.2-0.6 0.2-1.2 0-0.7-0.2-1.3-0.2-0.6-0.6-1.1-0.4-0.4-1-0.7-0.5-0.3-1.1-0.3-0.7 0-1.3 0.3-0.5 0.3-0.9 0.8-0.4 0.4-0.6 1-0.2 0.6-0.2 1.3z"/>
						<path id="&lt;Compound Path&gt;" fill-rule="evenodd" class="s4" d="m275.1 498.6v-7.9h3.3q0.5 0 1 0.2 0.4 0.2 0.7 0.6 0.3 0.3 0.5 0.8 0.2 0.4 0.2 0.9 0 0.4-0.2 0.8-0.1 0.4-0.3 0.7-0.2 0.3-0.6 0.6-0.3 0.2-0.7 0.3l2 3h-0.9l-1.9-2.9h-2.4v2.9zm0.8-3.6h2.6q0.4 0 0.7-0.1 0.3-0.2 0.5-0.5 0.2-0.2 0.3-0.5 0.1-0.4 0.1-0.7 0-0.4-0.2-0.7-0.1-0.3-0.3-0.6-0.2-0.2-0.5-0.4-0.3-0.1-0.6-0.1h-2.6z"/>
						<path id="&lt;Compound Path&gt;" class="s4" d="m287.7 497.9v0.7h-5.3v-7.9h5.2v0.7h-4.4v2.8h3.9v0.7h-3.9v3z"/>
					</g>
				</g>
				<g id="&lt;Group&gt;">
					<g id="&lt;Group&gt;">
						<path id="&lt;Compound Path&gt;" class="s2" d="m220 309v-30c0-1.6 1.2-2.8 2.8-2.8 1.6 0 2.8 1.2 2.8 2.8v12.2h13.2v-12.2c0-1.6 1.3-2.8 2.8-2.8 1.6 0 2.9 1.2 2.9 2.8v30c0 1.6-1.3 2.9-2.9 2.9-1.5 0-2.8-1.3-2.8-2.9v-12.2h-13.2v12.2c0 1.6-1.2 2.9-2.8 2.9-1.6 0-2.8-1.3-2.8-2.9z"/>
						<path id="&lt;Compound Path&gt;" class="s2" d="m252.3 309v-30c0-1.6 1.2-2.8 2.8-2.8 0 0 0 0 0.1 0h16.6c1.4 0 2.8 1.2 2.8 2.8 0 1.6-1.4 2.8-2.8 2.8h-13.9v9.4h11.9c1.5 0 2.8 1.3 2.8 2.8 0 1.5-1.3 2.8-2.8 2.8h-11.9v9.4h13.9c1.4 0 2.8 1.3 2.8 2.8 0 1.6-1.4 2.9-2.8 2.9h-16.6c-0.1 0-0.1-0.1-0.1-0.1v0.1c-1.6 0-2.8-1.3-2.8-2.9z"/>
						<path id="&lt;Compound Path&gt;" fill-rule="evenodd" class="s2" d="m300.7 303.4h-12.4l-2.5 6.7c-0.4 1.1-1.5 1.8-2.6 1.8q-0.5 0-1-0.2c-1.5-0.6-2.2-2.2-1.7-3.7l11.3-30c0.5-1.1 1.6-1.8 2.7-1.8 1.2 0 2.2 0.7 2.7 1.8l11.3 30c0.5 1.5-0.2 3.1-1.7 3.7-0.3 0.1-0.6 0.2-1 0.2-1.1 0-2.2-0.7-2.6-1.8zm-2.1-5.6l-4.1-11-4.1 11z"/>
						<path id="&lt;Compound Path&gt;" fill-rule="evenodd" class="s2" d="m315.5 309v-30c0-1.6 1.2-2.8 2.8-2.8h6c9.8 0 17.8 8 17.8 17.8 0 9.8-8 17.9-17.8 17.9h-6c-1.6 0-2.8-1.3-2.8-2.9zm5.6-2.8h3.2c6.7-0.1 12.1-5.5 12.1-12.2 0-6.7-5.4-12.2-12.1-12.2h-3.2z"/>
						<path id="&lt;Compound Path&gt;" class="s2" d="m348.3 309v-30c0-1.6 1.2-2.8 2.8-2.8 1.6 0 2.8 1.2 2.8 2.8v27.2h13.8c1.5 0 2.9 1.3 2.9 2.8 0 1.6-1.4 2.9-2.9 2.9h-16.5c-0.1 0-0.1 0-0.1 0q0 0 0 0c-1.6 0-2.8-1.3-2.8-2.9z"/>
						<path id="&lt;Compound Path&gt;" class="s2" d="m377.6 279c0-1.6 1.2-2.8 2.8-2.8 1.5 0 2.8 1.2 2.8 2.8v30c0 1.6-1.3 2.9-2.8 2.9-1.6 0-2.8-1.3-2.8-2.9z"/>
						<path id="&lt;Compound Path&gt;" class="s2" d="m398.4 309c0 1.6-1.3 2.9-2.8 2.9-1.5 0-2.8-1.3-2.8-2.9v-29.6q0 0 0 0c0-0.9 0.4-1.8 1.2-2.4 1.2-0.8 3-0.6 3.8 0.6l16.5 22.8v-21c0-1.4 1.2-2.7 2.7-2.7 1.6 0 2.9 1.3 2.9 2.7v29.6c0 1.6-1.3 2.9-2.9 2.9-0.8 0-1.5-0.5-2-1.1q-0.2-0.1-0.3-0.3l-16.3-22.6z"/>
						<path id="&lt;Path&gt;" class="s2" d="m426.1 315.8h-1.1v-41.4h1.1z"/>
					</g>
					<path id="&lt;Path&gt;" class="s6" d="m215.3 311.9h237.3"/>
					<g id="&lt;Group&gt;">
						<path id="&lt;Path&gt;" class="s6" d="m461.1 321.8h-254.3v-55.7h254.3z"/>
						<g id="&lt;Group&gt;">
							<path id="&lt;Path&gt;" class="s7" d="m208.6 268h-3.7v-3.7h3.7z"/>
							<path id="&lt;Path&gt;" class="s7" d="m335.8 268h-3.7v-3.7h3.7z"/>
							<path id="&lt;Path&gt;" class="s7" d="m208.6 295.8h-3.7v-3.7h3.7z"/>
							<path id="&lt;Path&gt;" class="s7" d="m208.6 323.7h-3.7v-3.7h3.7z"/>
							<path id="&lt;Path&gt;" class="s7" d="m335.8 323.7h-3.7v-3.7h3.7z"/>
							<path id="&lt;Path&gt;" class="s7" d="m463 268h-3.8v-3.7h3.8z"/>
							<path id="&lt;Path&gt;" class="s7" d="m463 295.8h-3.8v-3.7h3.8z"/>
							<path id="&lt;Path&gt;" class="s7" d="m463 323.7h-3.8v-3.7h3.8z"/>
						</g>
					</g>
				</g>
			</g>
			<g id="&lt;Group&gt;">
				<g id="&lt;Group&gt;">
					<g id="&lt;Group&gt;">
						<path id="&lt;Path&gt;" class="s1" d="m528.1 451.4h251.1v-171.2h-251.1z"/>
						<path id="&lt;Path&gt;" class="s8" d="m633.4 406.9h145.8l-72.9-55.7z"/>
						<g id="&lt;Group&gt;">
							<g id="&lt;Group&gt;">
								<path id="&lt;Path&gt;" class="s1" d="m577.5 406.9h120.3l-60.1-36.3z"/>
							</g>
							<g id="&lt;Group&gt;" style="opacity: .2">
								<path id="&lt;Path&gt;" class="s9" d="m577.5 406.9h120.3l-60.1-36.3z"/>
							</g>
						</g>
						<path id="&lt;Path&gt;" class="s1" d="m779.2 451.4h-251.1v-44.5h251.1z"/>
						<path id="&lt;Path&gt;" class="s10" d="m779.2 451.4h-251.1v-44.5h251.1z"/>
						<path id="&lt;Path&gt;" class="s8" d="m591.8 342c0 7.7-6.2 13.9-13.9 13.9-7.7 0-13.9-6.2-13.9-13.9 0-7.6 6.2-13.9 13.9-13.9 7.7 0 13.9 6.3 13.9 13.9z"/>
					</g>
					<g id="&lt;Group&gt;">
						<path id="&lt;Path&gt;" class="s6" d="m516.7 462.8h273.9v-194h-273.9z"/>
						<path id="&lt;Path&gt;" class="s7" d="m521.2 273.2h-9v-8.9h9z"/>
						<path id="&lt;Path&gt;" class="s7" d="m658.1 273.2h-8.9v-8.9h8.9z"/>
						<path id="&lt;Path&gt;" class="s7" d="m795.1 273.2h-9v-8.9h9z"/>
						<path id="&lt;Path&gt;" class="s7" d="m521.2 370.3h-9v-9h9z"/>
						<path id="&lt;Path&gt;" class="s7" d="m795.1 370.3h-9v-9h9z"/>
						<path id="&lt;Path&gt;" class="s7" d="m521.2 467.3h-9v-9h9z"/>
						<path id="&lt;Path&gt;" class="s7" d="m658.1 467.3h-8.9v-9h8.9z"/>
						<path id="&lt;Path&gt;" class="s7" d="m795.1 467.3h-9v-9h9z"/>
					</g>
				</g>
				<g id="&lt;Group&gt;">
					<g id="&lt;Group&gt;">
						<g id="&lt;Group&gt;">
							<path id="&lt;Path&gt;" class="s1" d="m528.1 551.9h65.9v-65.9h-65.9z"/>
							<path id="&lt;Path&gt;" class="s8" d="m538.8 501.8c-0.9 4.3 2.9 8.1 7.3 7.3 2.4-0.5 4.4-2.5 4.9-4.9 0.8-4.4-3-8.1-7.4-7.3-2.4 0.4-4.4 2.4-4.8 4.9z"/>
							<path id="&lt;Path&gt;" class="s8" d="m546.4 534.8h47.6l-23.8-26.7z"/>
							<g id="&lt;Group&gt;">
								<path id="&lt;Path&gt;" class="s1" d="m528.1 534.8h39.4l-19.7-17.4z"/>
							</g>
							<g id="&lt;Group&gt;" style="opacity: .2">
								<path id="&lt;Path&gt;" class="s9" d="m528.1 534.8h39.4l-19.7-17.4z"/>
							</g>
							<path id="&lt;Path&gt;" class="s1" d="m594 551.9h-65.9v-17.1h65.9z"/>
							<path id="&lt;Path&gt;" class="s10" d="m594 551.9h-65.9v-17.1h65.9z"/>
						</g>
					</g>
					<g id="&lt;Group&gt;">
						<g id="&lt;Group&gt;">
							<g id="&lt;Group&gt;">
								<g id="&lt;Group&gt;">
									<path id="&lt;Path&gt;" class="s6" d="m620.7 548.9v3h3"/>
									<path id="&lt;Path&gt;" class="s11" d="m629.2 551.9h51.7"/>
									<path id="&lt;Path&gt;" class="s6" d="m683.6 551.9h3v-3"/>
									<path id="&lt;Path&gt;" class="s11" d="m686.6 543.5v-51.7"/>
									<path id="&lt;Path&gt;" class="s6" d="m686.6 489v-3h-3"/>
									<path id="&lt;Path&gt;" class="s11" d="m678.2 486h-51.8"/>
									<path id="&lt;Path&gt;" class="s6" d="m623.7 486h-3v3"/>
									<path id="&lt;Path&gt;" class="s11" d="m620.7 494.5v51.7"/>
								</g>
							</g>
							<g id="&lt;Group&gt;">
								<path id="&lt;Path&gt;" class="s2" d="m655.3 534h-3.3v-30h3.3z"/>
								<path id="&lt;Path&gt;" class="s2" d="m638.6 520.6v-3.2h30.1v3.2z"/>
							</g>
						</g>
					</g>
					<g id="&lt;Group&gt;">
						<g id="&lt;Group&gt;">
							<path id="&lt;Path&gt;" class="s1" d="m713.3 551.9h65.9v-65.9h-65.9z"/>
							<path id="&lt;Path&gt;" class="s8" d="m723.9 501.8c-0.8 4.3 3 8.1 7.3 7.3 2.5-0.5 4.4-2.5 4.9-4.9 0.8-4.4-2.9-8.1-7.3-7.3-2.4 0.4-4.4 2.4-4.9 4.9z"/>
							<path id="&lt;Path&gt;" class="s8" d="m731.6 534.8h47.6l-23.8-26.7z"/>
							<g id="&lt;Group&gt;">
								<path id="&lt;Path&gt;" class="s1" d="m713.3 534.8h39.3l-19.6-17.4z"/>
							</g>
							<g id="&lt;Group&gt;" style="opacity: .2">
								<path id="&lt;Path&gt;" class="s9" d="m713.3 534.8h39.3l-19.6-17.4z"/>
							</g>
							<path id="&lt;Path&gt;" class="s1" d="m779.2 551.9h-65.9v-17.1h65.9z"/>
							<path id="&lt;Path&gt;" class="s10" d="m779.2 551.9h-65.9v-17.1h65.9z"/>
						</g>
					</g>
				</g>
			</g>
			<g id="&lt;Group&gt;">
				<g id="&lt;Group&gt;">
					<path id="&lt;Path&gt;" class="s0" d="m200.4 200.4h-14.6v-2.3h14.6z"/>
					<path id="&lt;Path&gt;" class="s0" d="m200.4 210.9h-14.6v-2.3h14.6z"/>
					<path id="&lt;Path&gt;" class="s0" d="m200.4 205.7h-14.6v-2.3h14.6z"/>
				</g>
				<path id="&lt;Path&gt;" class="s0" d="m456.3 208.6h-87.1v-5.2h87.1z"/>
				<path id="&lt;Path&gt;" class="s0" d="m575.6 208.6h-87v-5.2h87z"/>
				<path id="&lt;Path&gt;" class="s1" d="m694.9 208.6h-87v-5.2h87z"/>
				<path id="&lt;Path&gt;" class="s0" d="m814.2 208.6h-87v-5.2h87z"/>
			</g>
		</g>
	</g>
	<g id="Gears">
		<g id="&lt;Group&gt;">
			<g id="&lt;Group&gt;">
				<g id="&lt;Group&gt;">
					<g id="&lt;Group&gt;">
						<path id="&lt;Compound Path&gt;" fill-rule="evenodd" class="s12" d="m852.2 126.1c36.2 0 65.5 29.3 65.5 65.5 0 36.2-29.3 65.6-65.5 65.6-36.2 0-65.6-29.4-65.6-65.6 0-36.2 29.4-65.5 65.6-65.5zm0 108.2c23.5 0 42.6-19.2 42.6-42.7 0-23.5-19.1-42.6-42.6-42.6-23.5 0-42.6 19.1-42.6 42.6 0 23.5 19.1 42.7 42.6 42.7zm0-81.6c21.4 0 38.9 17.5 38.9 38.9 0 21.5-17.5 38.9-38.9 38.9-21.4 0-38.9-17.4-38.9-38.9 0-21.4 17.5-38.9 38.9-38.9zm0 69.5c16.9 0 30.6-13.7 30.6-30.6 0-16.9-13.7-30.6-30.6-30.6-16.9 0-30.6 13.7-30.6 30.6 0 16.9 13.7 30.6 30.6 30.6z"/>
						<g id="&lt;Group&gt;">
							<path id="&lt;Path&gt;" class="s12" d="m844.5 127.3h15l-1.5-15h-12z"/>
							<path id="&lt;Path&gt;" class="s12" d="m877.7 132l13 7.5 6.2-13.7-10.4-6z"/>
							<path id="&lt;Path&gt;" class="s12" d="m904.1 152.8l7.5 13 12.2-8.8-6-10.4z"/>
							<path id="&lt;Path&gt;" class="s12" d="m916.6 183.9v15l15-1.5v-12z"/>
							<path id="&lt;Path&gt;" class="s12" d="m911.8 217.2l-7.5 13 13.7 6.1 6-10.4z"/>
							<path id="&lt;Path&gt;" class="s12" d="m891 243.5l-12.9 7.5 8.7 12.3 10.4-6z"/>
							<path id="&lt;Path&gt;" class="s12" d="m859.9 256h-15l1.5 15h12z"/>
							<path id="&lt;Path&gt;" class="s12" d="m826.7 251.2l-13-7.5-6.2 13.7 10.4 6.1z"/>
							<path id="&lt;Path&gt;" class="s12" d="m800.3 230.5l-7.5-13-12.2 8.8 6 10.4z"/>
							<path id="&lt;Path&gt;" class="s12" d="m787.8 199.3v-15l-15 1.5v12z"/>
							<path id="&lt;Path&gt;" class="s12" d="m792.6 166.1l7.5-13-13.7-6.2-6 10.4z"/>
							<path id="&lt;Path&gt;" class="s12" d="m813.3 139.7l13-7.5-8.7-12.2-10.5 6z"/>
						</g>
					</g>
				</g>
			</g>
			<g id="&lt;Group&gt;">
				<g id="&lt;Group&gt;">
					<path id="&lt;Compound Path&gt;" fill-rule="evenodd" class="s3" d="m734.6 97.3c21.1 0.5 37.7 18.1 37.1 39.1-0.5 21.1-18 37.7-39.1 37.2-21.1-0.6-37.7-18.1-37.1-39.2 0.5-21 18-37.7 39.1-37.1zm-1.5 55.9c9.9 0.3 18.1-7.5 18.3-17.3 0.3-9.8-7.5-18-17.3-18.3-9.9-0.2-18 7.5-18.3 17.4-0.3 9.8 7.5 18 17.3 18.2z"/>
					<path id="&lt;Path&gt;" class="s3" d="m727.2 98.7l14.7 0.4-0.5-10.4-13.1-0.4z"/>
					<path id="&lt;Path&gt;" class="s3" d="m755 104.4l10.1 10.6 7-7.7-9-9.5z"/>
					<path id="&lt;Path&gt;" class="s3" d="m770.7 128l-0.4 14.7 10.4-0.6 0.3-13z"/>
					<path id="&lt;Path&gt;" class="s3" d="m765 155.8l-10.7 10.1 7.8 7 9.4-9z"/>
					<path id="&lt;Path&gt;" class="s3" d="m741.3 171.4l-14.7-0.3 0.6 10.4 13 0.3z"/>
					<path id="&lt;Path&gt;" class="s3" d="m713.5 165.8l-10.1-10.7-6.9 7.7 8.9 9.5z"/>
					<path id="&lt;Path&gt;" class="s3" d="m697.9 142.1l0.4-14.7-10.4 0.6-0.4 13z"/>
					<path id="&lt;Path&gt;" class="s3" d="m703.6 114.3l10.6-10.1-7.7-7-9.5 9z"/>
				</g>
				<path id="&lt;Compound Path&gt;" fill-rule="evenodd" class="s3" d="m746.8 138.8l-9.5 8.9-12.5-3.7-3-12.6 9.4-9 12.5 3.7zm-8.3-3.6c0-2.3-1.8-4.2-4.1-4.3-2.2 0-4.1 1.8-4.2 4.1-0.1 2.2 1.7 4.1 4 4.2 2.3 0.1 4.2-1.7 4.3-4z"/>
			</g>
			<g id="&lt;Group&gt;">
				<g id="&lt;Group&gt;">
					<path id="&lt;Compound Path&gt;" fill-rule="evenodd" class="s1" d="m115.5 393.3c21.1 0.5 37.7 18.1 37.2 39.1-0.6 21.1-18.1 37.7-39.2 37.2-21-0.6-37.7-18.1-37.1-39.2 0.5-21.1 18.1-37.7 39.1-37.1zm-1.5 55.9c9.9 0.3 18.1-7.5 18.3-17.3 0.3-9.9-7.5-18-17.3-18.3-9.8-0.3-18 7.5-18.3 17.3-0.3 9.9 7.5 18.1 17.3 18.3z"/>
					<path id="&lt;Path&gt;" class="s1" d="m108.2 394.7l14.6 0.3-0.5-10.4-13.1-0.3z"/>
					<path id="&lt;Path&gt;" class="s1" d="m135.9 400.3l10.1 10.7 7-7.8-9-9.4z"/>
					<path id="&lt;Path&gt;" class="s1" d="m151.6 424l-0.4 14.7 10.4-0.6 0.3-13z"/>
					<path id="&lt;Path&gt;" class="s1" d="m145.9 451.8l-10.7 10.1 7.8 7 9.5-9z"/>
					<path id="&lt;Path&gt;" class="s1" d="m122.2 467.4l-14.6-0.4 0.5 10.4 13 0.4z"/>
					<path id="&lt;Path&gt;" class="s1" d="m94.4 461.7l-10.1-10.6-6.9 7.7 8.9 9.5z"/>
					<path id="&lt;Path&gt;" class="s1" d="m78.8 438.1l0.4-14.7-10.4 0.5-0.4 13.1z"/>
					<path id="&lt;Path&gt;" class="s1" d="m84.5 410.3l10.6-10.1-7.7-7-9.5 9z"/>
				</g>
				<path id="&lt;Compound Path&gt;" fill-rule="evenodd" class="s1" d="m127.7 434.7l-9.5 9-12.5-3.7-3-12.7 9.4-8.9 12.6 3.7zm-8.4-3.6c0-2.3-1.8-4.2-4-4.3-2.3 0-4.2 1.8-4.3 4 0 2.3 1.8 4.2 4 4.3 2.3 0 4.2-1.7 4.3-4z"/>
			</g>
		</g>
	</g>
	<g id="Code">
		<g id="&lt;Group&gt;">
			<g id="&lt;Group&gt;">
				<g id="&lt;Group&gt;">
					<path id="&lt;Path&gt;" class="s4" d="m914.5 590.6v187.5h-296.3v-187.5z"/>
					<g id="&lt;Group&gt;">
						<path id="&lt;Compound Path&gt;" class="s4" d="m619.3 776.9h294.1v-185.2h-294.1z"/>
						<g id="&lt;Group&gt;">
							<path id="&lt;Compound Path&gt;" fill-rule="evenodd" class="s2" d="m619.3 776.9l-0.2-185.2v-0.2h0.2l294.1-0.3h0.5v0.5l-0.2 185.2v0.3h-0.3zm0 0l293.7-0.3-0.2-184.4-293.3-0.3zm293.7-0.3v0.3l0.3-0.3zm-0.2-184.4h0.5l-0.5-0.5zm-293.3-0.3v-0.2l-0.2 0.2z"/>
						</g>
					</g>
				</g>
				<g id="&lt;Group&gt;">
					<path id="&lt;Path&gt;" class="s2" d="m913.4 591.7v19.9h-294.1v-19.9z"/>
				</g>
			</g>
			<g id="&lt;Group&gt;">
				<path id="&lt;Path&gt;" class="s0" d="m652.7 658.9h-11.5v-4.2h11.5z"/>
				<path id="&lt;Path&gt;" class="s0" d="m792.5 658.9h-131.5v-4.2h131.5z"/>
				<g id="&lt;Group&gt;">
					<path id="&lt;Path&gt;" class="s1" d="m821.3 658.9h-21.8v-4.2h21.8z"/>
				</g>
				<g id="&lt;Group&gt;">
					<path id="&lt;Path&gt;" class="s12" d="m863.6 658.9h-37.6v-4.2h37.6z"/>
				</g>
				<path id="&lt;Path&gt;" class="s0" d="m664.1 670.1h-11.4v-4.2h11.4z"/>
				<g id="&lt;Group&gt;">
					<path id="&lt;Path&gt;" class="s12" d="m758.5 670.1h-86.3v-4.2h86.3z"/>
				</g>
				<g id="&lt;Group&gt;">
					<path id="&lt;Path&gt;" class="s12" d="m743.4 703.7h-82.4v-4.2h82.4z"/>
				</g>
				<g id="&lt;Group&gt;">
					<path id="&lt;Path&gt;" class="s1" d="m730 681.3h-57.8v-4.2h57.8z"/>
				</g>
				<g id="&lt;Group&gt;">
					<path id="&lt;Path&gt;" class="s12" d="m836.1 692.5h-22v-4.2h22z"/>
				</g>
				<g id="&lt;Group&gt;">
					<path id="&lt;Path&gt;" class="s12" d="m828.7 681.3h-92.3v-4.2h92.3z"/>
				</g>
				<g id="&lt;Group&gt;">
					<path id="&lt;Path&gt;" class="s1" d="m771.2 714.9h-110.2v-4.2h110.2z"/>
				</g>
				<g id="&lt;Group&gt;">
					<path id="&lt;Path&gt;" class="s1" d="m883.3 670.1h-59.7v-4.2h59.7z"/>
				</g>
				<path id="&lt;Path&gt;" class="s0" d="m818.8 670.1h-54.9v-4.2h54.9z"/>
				<path id="&lt;Path&gt;" class="s0" d="m870.1 681.3h-37.1v-4.2h37.1z"/>
				<path id="&lt;Path&gt;" class="s0" d="m664.1 681.3h-11.4v-4.2h11.4z"/>
				<g id="&lt;Group&gt;">
					<path id="&lt;Path&gt;" class="s12" d="m652.7 692.5h-11.5v-4.2h11.5z"/>
				</g>
				<path id="&lt;Path&gt;" class="s0" d="m728.7 692.5h-67.7v-4.2h67.7z"/>
				<path id="&lt;Path&gt;" class="s0" d="m821.3 703.7h-73.2v-4.2h73.2z"/>
				<g id="&lt;Group&gt;">
					<path id="&lt;Path&gt;" class="s1" d="m872.6 703.7h-46.6v-4.2h46.6z"/>
				</g>
				<g id="&lt;Group&gt;">
					<path id="&lt;Path&gt;" class="s1" d="m808.7 692.5h-73.1v-4.2h73.1z"/>
				</g>
				<path id="&lt;Path&gt;" class="s0" d="m652.7 703.7h-11.5v-4.2h11.5z"/>
				<path id="&lt;Path&gt;" class="s0" d="m652.7 714.9h-11.5v-4.2h11.5z"/>
				<g id="&lt;Group&gt;">
					<path id="&lt;Compound Path&gt;" class="s1" d="m648.3 643.6c0.4 0.5 0.4 1.1 0 1.5q-0.3 0.2-0.7 0.2-0.4 0-0.7-0.2l-4.4-4.5q-0.1 0-0.1-0.1-0.1 0-0.1 0 0-0.1 0-0.2-0.1 0-0.1 0 0-0.1 0-0.1c0-0.1 0-0.1 0-0.1q0-0.1 0-0.1 0-0.1 0-0.1c0 0 0-0.1 0-0.1q0 0 0-0.1c0 0 0-0.1 0-0.1q0 0 0-0.1 0 0 0.1 0 0-0.1 0-0.2c0 0 0 0 0.1 0q0-0.1 0.1-0.1l4.4-4.5c0.4-0.4 1-0.4 1.4 0 0.4 0.4 0.4 1 0 1.4l-3.7 3.8z"/>
					<path id="&lt;Compound Path&gt;" class="s1" d="m652.3 644.1l3.9-9.1c0.1-0.5 0.6-0.7 1.1-0.5 0.4 0.2 0.6 0.7 0.4 1.1l-3.8 9.2c-0.2 0.4-0.5 0.5-0.8 0.5q-0.2 0-0.3 0c-0.5-0.2-0.7-0.7-0.5-1.2z"/>
					<path id="&lt;Compound Path&gt;" class="s1" d="m665.3 640.5q0.1 0 0 0 0 0-0.1 0.1l-4.4 4.5c-0.2 0.1-0.5 0.2-0.7 0.2q-0.4 0-0.7-0.2c-0.4-0.4-0.4-1 0-1.5l3.7-3.7-3.7-3.8c-0.4-0.4-0.4-1 0-1.4 0.4-0.4 1-0.4 1.4 0l4.4 4.5q0.1 0 0.1 0.1c0 0 0 0 0 0q0.1 0.1 0.1 0.2 0 0 0 0c0.1 0.1 0.1 0.1 0.1 0.1q0 0.1 0 0.1 0 0.1 0 0.1c0 0 0 0.1 0 0.1 0 0 0 0 0 0.1q0 0 0 0.1 0 0 0 0 0 0.1-0.1 0.2 0 0 0 0 0 0.1-0.1 0.2z"/>
				</g>
			</g>
			<g id="&lt;Group&gt;">
				<path id="&lt;Path&gt;" class="s1" d="m634.8 601.5c0 2-1.6 3.6-3.6 3.6-2 0-3.6-1.6-3.6-3.6 0-2 1.6-3.6 3.6-3.6 2 0 3.6 1.6 3.6 3.6z"/>
				<path id="&lt;Path&gt;" class="s4" d="m649.5 601.5c0 2-1.6 3.6-3.6 3.6-2 0-3.6-1.6-3.6-3.6 0-2 1.6-3.6 3.6-3.6 2 0 3.6 1.6 3.6 3.6z"/>
				<path id="&lt;Path&gt;" class="s3" d="m664.3 601.5c0 2-1.6 3.6-3.6 3.6-2 0-3.6-1.6-3.6-3.6 0-2 1.6-3.6 3.6-3.6 2 0 3.6 1.6 3.6 3.6z"/>
			</g>
		</g>
	</g>
	<g id="Speech bubble">
		<g id="&lt;Group&gt;">
			<g id="&lt;Group&gt;">
				<path id="&lt;Path&gt;" class="s13" d="m396.8 458.7c-2.9-4.5-4.6-9.6-4.6-15 0-19 20.9-34.4 46.6-34.4 25.8 0 46.6 15.4 46.6 34.4 0 19-20.8 34.5-46.6 34.5-12.5 0-23.8-3.7-32.2-9.6l-16 4.1z"/>
				<path id="&lt;Compound Path&gt;" fill-rule="evenodd" class="s2" d="m396.8 458.7c-2.8-4.1-4.6-9.1-4.8-14.2-0.2-5 1-10.2 3.6-14.6 2.5-4.5 6.2-8.2 10.3-11.3 4.1-3 8.7-5.3 13.6-6.9 4.8-1.7 9.8-2.6 14.9-3.1 5.1-0.4 10.3 0 15.3 0.8 5.1 0.8 10 2.3 14.6 4.5 4.7 2.2 9 5.1 12.7 8.8 3.6 3.6 6.6 8 8.2 13 1.5 5 1.6 10.5 0.1 15.5-1.5 5-4.4 9.5-8 13.2-3.6 3.7-7.9 6.6-12.5 8.9-9.3 4.5-19.7 6.1-29.8 5.5-10.1-0.7-20.2-3.8-28.4-9.7l-16 3.9-0.4 0.1 0.2-0.5zm9.7 10.4h0.2l-0.4-0.1q0.1 0.1 0.2 0.1zm-9.7-10.4l-5.9 13.6 15.6-4.1 0.2-0.1 0.2 0.1c8.2 5.7 18.1 8.6 28.1 9.1 5 0.3 10-0.1 14.8-1 4.9-0.9 9.7-2.4 14.2-4.6 4.4-2.2 8.5-5.1 11.9-8.6 3.5-3.5 6.1-7.8 7.5-12.4 1.4-4.7 1.2-9.8-0.2-14.4-1.4-4.6-4.2-8.8-7.6-12.3-3.5-3.5-7.7-6.3-12.1-8.4-4.5-2.2-9.3-3.7-14.2-4.5-9.7-1.7-20-1.2-29.5 1.9-9.4 3-18.3 8.8-23.5 17.3-2.6 4.2-4 9.2-3.9 14.2 0.1 5 1.7 10 4.4 14.2zm-5.9 13.6l-0.4 0.2 0.2 0.3z"/>
			</g>
			<g id="&lt;Group&gt;">
				<path id="&lt;Compound Path&gt;" class="s1" d="m424.3 453c1 1 1 2.5 0 3.5q-0.8 0.7-1.7 0.7c-0.7 0-1.3-0.2-1.8-0.7l-10.9-11.1c-0.1 0-0.2-0.1-0.2-0.2 0 0-0.1-0.1-0.1-0.1-0.1-0.1-0.1-0.2-0.1-0.3-0.1 0-0.2-0.1-0.2-0.1 0-0.1 0-0.2 0-0.3 0-0.1-0.1-0.1-0.1-0.2q0-0.1 0-0.2c0-0.1-0.1-0.2-0.1-0.3 0 0 0.1-0.1 0.1-0.2 0 0 0-0.2 0-0.2 0-0.1 0.1-0.2 0.1-0.2 0-0.1 0-0.2 0-0.3 0 0 0.1 0 0.1-0.1 0.1-0.1 0.1-0.3 0.2-0.3 0 0 0-0.1 0.1-0.1 0-0.1 0.1-0.2 0.2-0.3l10.9-11.1c1-0.9 2.6-0.9 3.5 0 1 1 1 2.6 0 3.5l-9.2 9.3z"/>
				<path id="&lt;Compound Path&gt;" class="s1" d="m434.2 454.2l9.5-22.6c0.5-1.1 1.7-1.6 2.8-1.1 1.1 0.4 1.6 1.7 1.1 2.7l-9.5 22.7c-0.3 0.8-1.1 1.3-2 1.3-0.2 0-0.5 0-0.7-0.2-1.2-0.4-1.7-1.7-1.2-2.8z"/>
				<path id="&lt;Compound Path&gt;" class="s1" d="m466.4 445.1c0 0 0 0.1 0 0.1-0.1 0-0.2 0.2-0.3 0.2l-10.9 11.1c-0.5 0.5-1.1 0.7-1.7 0.7q-1 0-1.8-0.7c-1-1-1-2.5 0-3.5l9.2-9.3-9.2-9.3c-1-0.9-1-2.5 0-3.5 0.9-0.9 2.5-0.9 3.5 0l10.9 11.1c0.1 0.1 0.2 0.2 0.3 0.3 0 0 0 0.1 0 0.1 0.1 0.1 0.2 0.2 0.2 0.3 0 0.1 0.1 0.1 0.1 0.1 0 0.1 0 0.2 0.1 0.3 0 0.1 0 0.1 0 0.2 0 0 0 0.2 0 0.2 0 0.1 0.1 0.2 0.1 0.2 0 0.1-0.1 0.2-0.1 0.2 0 0.1 0 0.2 0 0.3 0 0.1 0 0.1 0 0.1-0.1 0.2-0.1 0.3-0.1 0.4 0 0-0.1 0-0.1 0.1q0 0.1-0.2 0.3z"/>
			</g>
		</g>
	</g>
	<g id="Character">
		<g id="&lt;Group&gt;">
			<g id="&lt;Group&gt;">
				<path id="&lt;Path&gt;" class="s14" d="m291.5 825.7l-131.2 105.7h7.4l151.5-105.7z"/>
				<path id="&lt;Path&gt;" class="s14" d="m303.8 825.7l-64.8 105.7h7.4l79.4-105.7z"/>
				<path id="&lt;Path&gt;" class="s14" d="m335.6 825.7l64.8 105.7h-7.4l-79.5-105.7z"/>
				<path id="&lt;Path&gt;" class="s14" d="m346.9 825.7l131.1 105.7h-7.4l-151.4-105.7z"/>
			</g>
			<path id="&lt;Path&gt;" class="s3" d="m565.8 786.9v-30.9l-180.1-7.4-95.2-254h-217.9l77.1 292.3 184.2 51.7h11.6z"/>
			<path id="&lt;Path&gt;" class="s8" d="m72.6 494.6h24.9l80.4 266.4 163 46.2 224.9-51.2v30.9l-220.3 51.7h-11.6l-184.2-51.7z"/>
		</g>
		<g id="&lt;Group&gt;">
			<g id="&lt;Group&gt;">
				<g id="&lt;Group&gt;">
					<g id="&lt;Group&gt;">
						<path id="&lt;Path&gt;" class="s15" d="m179.4 820.1c1.2-4.7 74.6-117.5 80-120 0.6-0.3 38.6 22.9 38.6 22.9 1.7 1.9 69.5-17.6 69.5-17.6l6.6 83-125.6 6.3c0 0-16.2 11.2-31.1 20.4q-0.1 0-0.1 0c-9.1 5.7-17.3 10.5-19.6 11.3-6.2 2.1-19.5-1.7-18.3-6.3z"/>
						<path id="&lt;Path&gt;" class="s4" d="m197.7 826.4c2.3-0.8 10.5-5.6 19.6-11.3q0.1 0 0.1 0c14.9-9.2 31.1-20.4 31.1-20.4l28-1.4 38.6-73.6c-9.5 2.4-16.5 3.9-17.1 3.3 0 0-38-23.2-38.6-22.9-5.4 2.5-78.8 115.3-79.9 120-1.3 4.6 12 8.4 18.2 6.3z"/>
						<g id="&lt;Group&gt;">
							<path id="&lt;Path&gt;" class="s1" d="m178.7 820.3c1.3-4.8 75-117.6 80.5-120.1 2.1-1 20.6 8.7 38.8 22.8l-47.6 72.6c0 0-46.6 29.2-53 31.3-6.3 2.1-19.9-1.8-18.7-6.6z"/>
							<g id="&lt;Group&gt;">
								<g id="&lt;Group&gt;">
									<path id="&lt;Path&gt;" class="s2" d="m184.3 821.6c12.8-18.6 62.8-94.8 74-114.2 0.1-0.2 0-0.2-0.1-0.1-13.1 18.2-62.4 94.8-74.2 114.1-0.3 0.4 0 0.6 0.3 0.2z"/>
									<path id="&lt;Path&gt;" class="s2" d="m206.2 822.3c3.1-4.4 3.9-10.1 2.8-14.3-1-4-3.3-8.4-7.3-10.8-0.1-0.1-0.3 0.1-0.2 0.2 6.7 5.9 8.8 16.9 4.5 24.8-0.1 0.1 0.1 0.3 0.2 0.1z"/>
									<path id="&lt;Path&gt;" class="s2" d="m244.7 800.3c5-7.5 8.1-18 5-26.7-0.2-0.4-0.6-0.2-0.7 0.1-0.9 9.2-2.5 17.4-5.4 26.2-0.2 0.6 0.7 1 1.1 0.4z"/>
									<path id="&lt;Path&gt;" class="s2" d="m238.6 804.7c5-7.5 8.1-18 5-26.8-0.2-0.3-0.6-0.1-0.7 0.2-0.9 9.1-2.5 17.3-5.4 26.1-0.2 0.6 0.7 1 1.1 0.5z"/>
									<path id="&lt;Path&gt;" class="s2" d="m232.5 809c5-7.5 8.1-18 5-26.7-0.2-0.4-0.6-0.2-0.7 0.1-0.9 9.2-2.5 17.4-5.4 26.2-0.2 0.6 0.7 1 1.1 0.4z"/>
									<path id="&lt;Path&gt;" class="s2" d="m226.4 813.4c5-7.5 8.1-18 5-26.8-0.2-0.3-0.6-0.1-0.7 0.2-0.9 9.1-2.5 17.3-5.4 26.1-0.2 0.6 0.7 1 1.1 0.5z"/>
									<path id="&lt;Path&gt;" class="s2" d="m273.2 724c5.5-8.5-7.7-17.2-13.3-8.6-5.5 8.5 7.7 17.1 13.3 8.6z"/>
								</g>
								<path id="&lt;Compound Path&gt;" fill-rule="evenodd" class="s2" d="m248.8 813.9c-2.6-7.6-1.8-16-2.1-23.8 0-0.8 0.9-1.1 1.5-0.9 0.1-0.2 0.3-0.3 0.4-0.1 6.3 4.7 12 12.2 14.9 19.5 1.7 4.5 1.7 11.4-4 13.1-5.4 1.7-9.2-3.4-10.7-7.8zm6 4.4c8.8 4.6 7.3-6.9 5.9-10.2-0.9-2.1-2.1-4.1-3.3-6.1-2.5-4.1-5.6-7.8-8.4-11.6 0.3 3.8 0.3 7.7 0.5 11.5 0.2 4.6 0.5 13.9 5.3 16.4z"/>
								<path id="&lt;Compound Path&gt;" fill-rule="evenodd" class="s2" d="m271 765.3c4.6 3.9 2 10.2-1.4 13.7-5.5 5.6-13.7 10.3-21.3 12.2-0.2 0.1-0.3-0.1-0.3-0.2-0.7-0.1-1.3-0.8-1-1.5 3.2-7.1 5.8-15.1 11.1-21.1 3.1-3.4 8.6-6.7 12.9-3.1zm-16.9 14.4c-1.7 3.5-3.2 7-5 10.4 4.2-2.4 8.4-4.6 12.3-7.4 1.9-1.3 3.7-2.8 5.4-4.3 2.6-2.5 8.4-12.6-1.4-11.7-5.4 0.5-9.3 8.9-11.3 13z"/>
							</g>
						</g>
					</g>
					<g id="&lt;Group&gt;">
						<path id="&lt;Path&gt;" class="s2" d="m346.4 687.9c0 0 105.3-49.1 152.4-48.8 56.1 0.3 100 66.6 31.6 115-60.4 42.8-251.9 40.9-251.9 40.9l44.2-80.6c0 0 52.8-20.9 122-23.5l-96.5 20.3z"/>
						<path id="&lt;Path&gt;" class="s16" d="m348.5 703.9c8.2-2.2 16.7-3.6 25.1-5.2 8.4-1.6 16.9-3 25.4-4.3 17-2.7 34.1-4.6 51.3-5.5q2.4-0.2 4.8-0.2c0.3-0.2 0.7-0.3 1-0.4q1.2-0.4 2.5-0.7c1.5-0.4 3-0.8 4.6-1.1 3.2-0.7 6.4-1.3 9.6-2.1 0.2-0.1 0.3 0.2 0.1 0.3-3.2 0.9-6.3 2.1-9.5 3q-1.4 0.4-2.8 0.8c6.3-0.1 12.6-0.1 18.9 0 0.2 0.1 0.3 0.4 0.1 0.4-8.6 0.1-17.2 0.6-25.8 1.4-8.4 0.7-16.9 1.5-25.3 2.6-17.1 2.2-34.1 5-51.1 8-9.5 1.7-19 3.5-28.6 4.6-0.9 0.1-1.3-1.4-0.3-1.6z"/>
						<path id="&lt;Path&gt;" class="s16" d="m297.9 791.2c2.7-5.1 5-10.5 7.4-15.8q3.7-7.9 7.4-15.8c4.9-10.5 22.7-46 24.5-48.5 0.2-0.1 0.4 0 0.4 0.2-0.8 2.7-11.8 26.1-14.4 31.3-5 10.5-10.4 20.8-15.8 31.1-1.5 3-3.1 5.9-4.6 8.8-1.5 3-3.2 5.9-4.6 8.9-0.1 0.2-0.4 0-0.3-0.2z"/>
					</g>
				</g>
				<g id="&lt;Group&gt;">
					<g id="&lt;Group&gt;">
						<path id="&lt;Path&gt;" class="s15" d="m547.5 817.5c-1.4-4.6-80.1-113.8-85.6-116-0.6-0.3-37.5 24.6-37.5 24.6-1.6 2-70.2-14.2-70.2-14.2l-2.7 83.2 125.8 0.3c0 0 16.7 10.4 32 18.9q0.1 0 0.1 0c9.4 5.3 17.8 9.7 20.2 10.4 6.2 1.7 19.3-2.6 17.9-7.2z"/>
						<path id="&lt;Path&gt;" class="s4" d="m529.6 824.7c-2.4-0.7-10.8-5.1-20.2-10.4q0 0-0.1 0c-15.3-8.5-32-18.9-32-18.9l-28-0.1-42.1-71.6c9.5 1.9 16.7 3.1 17.2 2.4 0 0 36.9-24.9 37.5-24.6 5.5 2.2 84.1 111.4 85.6 116 1.4 4.6-11.7 9-17.9 7.2z"/>
						<g id="&lt;Group&gt;">
							<path id="&lt;Path&gt;" class="s1" d="m548.2 817.6c-1.5-4.7-80.5-113.8-86.2-116.1-2.1-0.9-20.1 9.7-37.6 24.6l51 70.4c0 0 48 26.8 54.4 28.7 6.5 1.7 19.9-2.8 18.4-7.6z"/>
							<g id="&lt;Group&gt;">
								<g id="&lt;Group&gt;">
									<path id="&lt;Path&gt;" class="s2" d="m542.7 819.2c-13.7-17.9-67.2-91.7-79.4-110.5-0.1-0.2 0-0.2 0.1-0.1 14 17.5 66.9 91.7 79.6 110.4 0.3 0.4 0 0.6-0.3 0.2z"/>
									<path id="&lt;Path&gt;" class="s2" d="m520.8 821c-3.3-4.2-4.3-10-3.4-14.2 0.8-4.1 2.9-8.6 6.8-11.2 0.1 0 0.2 0.2 0.1 0.3-6.4 6.2-7.9 17.2-3.2 24.9 0.1 0.2-0.2 0.3-0.3 0.2z"/>
									<path id="&lt;Path&gt;" class="s2" d="m481.4 800.9c-5.4-7.3-9-17.6-6.3-26.5 0.1-0.4 0.6-0.2 0.7 0.1 1.3 9.1 3.4 17.2 6.6 25.8 0.2 0.6-0.6 1.1-1 0.6z"/>
									<path id="&lt;Path&gt;" class="s2" d="m487.7 804.9c-5.4-7.2-9-17.6-6.3-26.5 0.1-0.3 0.6-0.2 0.7 0.1 1.3 9.1 3.3 17.3 6.6 25.9 0.2 0.6-0.6 1-1 0.5z"/>
									<path id="&lt;Path&gt;" class="s2" d="m494 809c-5.4-7.3-9-17.6-6.3-26.5 0.1-0.4 0.6-0.2 0.7 0.1 1.3 9.1 3.3 17.2 6.6 25.9 0.2 0.6-0.6 1-1 0.5z"/>
									<path id="&lt;Path&gt;" class="s2" d="m500.3 813c-5.4-7.2-9-17.6-6.3-26.5 0.1-0.3 0.6-0.2 0.6 0.1 1.4 9.1 3.4 17.3 6.7 25.9 0.2 0.6-0.6 1.1-1 0.5z"/>
									<path id="&lt;Path&gt;" class="s2" d="m449.3 725.9c-5.9-8.2 6.8-17.4 12.8-9.2 5.9 8.3-6.9 17.5-12.8 9.2z"/>
								</g>
								<path id="&lt;Compound Path&gt;" fill-rule="evenodd" class="s2" d="m467.6 822.9c-5.8-1.5-6.2-8.3-4.6-12.9 2.5-7.4 7.9-15.2 13.9-20.2 0.1-0.1 0.3-0.1 0.4 0.1 0.6-0.3 1.5 0 1.5 0.9 0.2 7.8 1.3 16.1-0.9 23.8-1.3 4.4-4.9 9.7-10.3 8.3zm9-20.2c0.1-3.9-0.1-7.7 0-11.6-2.7 4-5.5 7.8-7.8 12-1.1 2-2.2 4.1-3 6.3-1.3 3.3-2.2 14.9 6.3 9.9 4.7-2.8 4.5-12 4.5-16.6z"/>
								<path id="&lt;Compound Path&gt;" fill-rule="evenodd" class="s2" d="m466.4 769.6c5.6 5.7 8.6 13.6 12.1 20.6 0.4 0.7-0.2 1.4-0.9 1.5 0 0.1-0.1 0.3-0.3 0.2-7.6-1.5-16.1-5.8-21.8-11.2-3.6-3.3-6.5-9.5-2.1-13.5 4.1-3.8 9.8-0.9 13 2.4zm-7.3-1.4c-9.9-0.4-3.6 9.4-0.9 11.8 1.8 1.5 3.7 2.8 5.6 4 4.1 2.7 8.4 4.7 12.6 6.9-1.9-3.4-3.6-6.8-5.4-10.2-2.2-4-6.5-12.2-11.9-12.5z"/>
							</g>
						</g>
					</g>
					<g id="&lt;Group&gt;">
						<path id="&lt;Path&gt;" class="s2" d="m351 686.3c0 0-106.5-32.1-163.3-25.3-55.7 6.7-78.5 76.4-24.2 114.3 59.2 41.3 282.3 26.8 282.3 26.8l-47.6-85.3c0 0-76-17.9-145.3-17.2l97.4 15.7z"/>
						<path id="&lt;Path&gt;" class="s16" d="m401.4 722.3c-0.1-0.1-0.1-0.3-0.1-0.4q-0.1-0.2-0.1-0.4-0.1-0.4-0.2-0.8-0.2-0.8-0.5-1.6-0.3-0.9-0.7-1.7c-0.2-0.5-0.6-1-0.9-1.5 0 0-0.1 0-0.1-0.1q-0.1 0-0.1 0-0.1-0.1-0.1-0.1-0.1 0-0.2 0c-8.3-1.8-65.2-11.3-73.6-12.5-8.6-1.2-17.1-2.2-25.7-3.1-17.1-1.8-34.3-2.9-51.4-3.1q-2.5 0-4.9 0.1c-0.3-0.1-0.7-0.2-1-0.3q-1.2-0.3-2.5-0.6c-1.5-0.4-3.1-0.6-4.6-0.9-3.3-0.6-6.5-1-9.7-1.7-0.2 0-0.3 0.3-0.1 0.3 3.2 0.8 6.4 1.8 9.6 2.6q1.4 0.4 2.8 0.7c-6.3 0.2-12.6 0.5-18.9 0.9-0.2 0-0.2 0.4 0 0.3 8.6-0.3 17.2-0.1 25.8 0.2 8.5 0.4 17 0.8 25.4 1.5 17.2 1.3 34.3 3.3 51.4 5.5 9.6 1.2 67.5 11.1 77.2 11.7q0 0 0.1 0 0.1 0.3 0.3 0.7 0.3 0.8 0.7 1.5 0.4 0.8 0.9 1.5 0.2 0.4 0.4 0.7 0.1 0.2 0.2 0.4c0.1 0.1 0.3 0.2 0.3 0.3 0 0.3 0.4 0.1 0.3-0.1z"/>
						<path id="&lt;Path&gt;" class="s16" d="m428.1 796.6c-3-5-5.5-10.3-8.2-15.5q-4-7.7-8.1-15.4c-5.4-10.3-24.9-44.8-26.8-47.3-0.1-0.1-0.4 0-0.3 0.2 0.8 2.7 13 25.5 15.8 30.7 5.5 10.2 11.4 20.2 17.2 30.2 1.7 2.9 3.4 5.8 5.1 8.6 1.7 2.9 3.5 5.7 5 8.6 0.1 0.2 0.4 0.1 0.3-0.1z"/>
					</g>
				</g>
			</g>
			<g id="&lt;Group&gt;">
				<g id="&lt;Group&gt;">
					<path id="&lt;Path&gt;" class="s2" d="m322.6 455.1c-17.1 10.5-26.5 32.1-26.5 32.1 0 0-18.8 19.6-18.1 32.8 0.7 13.3 10.7 18.7 10.7 18.7l0.3-7.1c0 0 2.3 9.8 16.3 17 14 7.1 34.7 7.3 46.2 4.6 11.4-2.7 18.2-9.6 18.2-9.6l-6.3 9c0 0 14.6 3 26.8-10.2 12.3-13.3-7-41.2-7.9-46.5-0.9-5.2 4.8-40.4-33-43.3 0 0-14.9-4.6-26.7 2.5z"/>
					<path id="&lt;Path&gt;" class="s2" d="m283.6 536.6c-3.6-3-6-8-7.1-12.4-1.2-4.7-1-9.7 1-14.2 2.3-5.3 6.5-9.6 10.5-13.7 4.2-4.2 8.7-8.2 12.7-12.5 0.3-0.3-0.1-0.6-0.3-0.4-4.2 2.9-8.1 6.4-11.9 9.7-3.7 3.2-7.3 6.5-10.1 10.5-2.6 3.6-4.6 7.8-4.8 12.3-0.1 3.7 0.7 7.3 2.2 10.7 1.9 3.9 4.8 6.9 7.6 10.2 0.1 0.2 0.4-0.1 0.2-0.2z"/>
					<path id="&lt;Path&gt;" class="s2" d="m397.1 527.3c-1.3-13.7-10.8-24.6-15.1-37.3-2.3-7-3.6-14.3-7.2-20.7-0.1-0.2-0.4 0-0.3 0.1 2.9 5.7 3.8 11.9 5.4 18 1.7 6.2 4.4 11.9 7.2 17.6 5.1 10.4 11.3 22.7 6.7 34.4-2.1 5.4-6.9 10.8-13 11.1-0.3 0.1-0.2 0.5 0 0.4 5.1-0.8 9.4-3.4 12.4-7.6 3.3-4.6 4.4-10.3 3.9-16z"/>
					<path id="&lt;Path&gt;" class="s2" d="m396.8 530.9c1.5-4.7 1.7-9.8 0.1-14.6-1.5-4.7-4.7-8.6-8-12.2-3.8-4.1-7.9-8.1-9.7-13.6 0-0.3-0.4-0.1-0.3 0.1 2.7 9 10.5 14.8 14.8 22.9 4.9 9.2 2.2 20.3-4.5 27.9-4.2 4.7-9.6 8-15.4 10.3-0.1 0 0 0.2 0.1 0.1 10-3.5 19.6-10.4 22.9-20.9z"/>
				</g>
				<g id="&lt;Group&gt;">
					<g id="&lt;Group&gt;">
						<path id="&lt;Path&gt;" class="s17" d="m315.1 566.4c14 39.7 39 86.3 48.2 93.2 11.6 8.8 74.5 16 78 16 8.7-0.1 15.1-58 5.9-58.3-14.1-0.4-52.8 0.3-56.2-2.4-3.5-2.9-27.9-27.3-53.2-55-17.5-19.2-31.4-18.1-22.7 6.5z"/>
						<g id="&lt;Group&gt;">
							<path id="&lt;Path&gt;" class="s17" d="m438 675.6c1.1 0.4 15.6 5.7 24.3 7.2 6.6 1.1 25.5 3.8 27.4-3.3 1.4-4.9-9.6-7.7-17.3-9.9-4-1.2-9.2-4.7-8.4-7.3 1.5-4.6 12-1.4 18.9 1.7 13.5 5.9 31.9 17.2 38.9 9.8 2.7-2.7-1.2-6.8-6.7-10.5 8.6 4.1 17.7 7.3 20.8 4.3 1.7-1.7 1.6-3.7 0.2-5.9 2.6 0.6 4.8 0.1 6.2-1.6 2.3-3.1 0.5-7-2.8-10.8 0.9-0.2 1.6-0.8 2.2-1.8 4.5-9.1-26-30.2-35.9-31.4-29-3.4-58.6 1.2-58.6 1.2-10.1 10.2-9.2 58.3-9.2 58.3z"/>
							<g id="&lt;Group&gt;">
								<path id="&lt;Path&gt;" class="s2" d="m476.6 644.8c6.7 0.3 13.6 2 19.6 5.1 7.7 3.9 13.1 8.9 19.8 13.8 0.2 0.1 0 0.4-0.2 0.2-3.2-2.3-16.2-10.9-19.5-12.8-6.1-3.5-12.7-5.7-19.7-6.2-0.1 0-0.1-0.1 0-0.1z"/>
								<path id="&lt;Path&gt;" class="s2" d="m480.4 632.2c7.7 1.2 15.5 2.4 22.8 5.1 8 3 14.6 8.5 21.1 13.9q5.9 4.8 11.5 9.9c0.2 0.2 0 0.4-0.2 0.3q-9.9-8.3-20.3-16c-6.5-4.9-13.5-8.3-21.4-10.3-4.4-1.2-9-2-13.5-2.7 0-0.1 0-0.2 0-0.2z"/>
								<path id="&lt;Path&gt;" class="s2" d="m487.2 620.8c7.4 0.7 13.8 1.2 20.6 4.3 9.1 4.2 18.2 11.9 21.4 14.6 3.6 3 7 6.1 10.4 9.3 0.2 0.1 0 0.4-0.2 0.3-7.7-7-15.9-13.4-24.5-19.3-4.1-2.8-8.5-5.1-13.2-6.6-4.7-1.4-9.7-1.9-14.5-2.5-0.1 0-0.1-0.1 0-0.1z"/>
							</g>
						</g>
					</g>
					<g id="&lt;Group&gt;">
						<path id="&lt;Path&gt;" class="s1" d="m447 613l-13.5 69.8c0 0-59.5-9.8-71.3-19.9-11.9-10.1-38-66.5-47-94.3-9-27.7 5.4-28.7 20.7-12.3 15.3 16.4 53.1 56 55.1 56.8 1.9 0.7 56-0.1 56-0.1z"/>
						<path id="&lt;Compound Path&gt;" class="s4" d="m421.8 655.8c-0.6 0.5-1.2 0.8-1.8 0.9-1.2 0.3-2.4-0.1-3.3-1-1.3-1.3-3.5-1.7-5.1-0.9-0.8 0.4-1.5 1.1-1.9 1.7-0.4 0.6-0.9 1.2-1.3 1.9 0.7-0.4 1.3-0.8 2-1.3 0.6-0.5 1.1-0.7 1.7-0.9 1.2-0.3 2.5 0 3.3 0.9 1.3 1.3 3.4 1.8 5.1 1 0.8-0.3 1.5-1 1.9-1.6 0.4-0.6 0.9-1.2 1.3-1.9-0.7 0.4-1.3 0.8-1.9 1.2zm-59.5-29.8c-0.6 0.5-1.1 0.7-1.8 0.9-1.2 0.2-2.4-0.1-3.2-1-1.4-1.4-3.5-1.7-5.1-0.9-0.9 0.3-1.5 1-1.9 1.6-0.5 0.7-0.9 1.3-1.3 2 0.7-0.4 1.3-0.9 1.9-1.3 0.6-0.5 1.1-0.8 1.8-1 1.2-0.3 2.4 0.1 3.3 0.9 1.2 1.3 3.4 1.8 5 1.1 0.8-0.4 1.5-1 2-1.7 0.4-0.6 0.9-1.2 1.2-1.9-0.6 0.4-1.2 0.9-1.9 1.3zm-46.4-73.1c-0.6 0.5-1.1 0.8-1.7 0.9q-0.9 0.2-1.8-0.1 0 0.9 0.1 1.8c0.7 0.1 1.5 0 2.1-0.3 0.9-0.3 1.6-1 2-1.6 0.4-0.6 0.9-1.2 1.3-1.9-0.7 0.4-1.3 0.8-2 1.2zm97 69.4c-0.7-0.1-1.3-0.3-1.8-0.6-1.1-0.7-1.7-1.8-1.7-3.1 0-1.8-1.2-3.6-2.9-4.2-0.8-0.3-1.8-0.3-2.5-0.2-0.8 0.2-1.6 0.3-2.3 0.5 0.7 0.2 1.5 0.3 2.3 0.4 0.8 0.1 1.3 0.3 1.9 0.6 1 0.7 1.7 1.8 1.7 3-0.1 1.8 1.1 3.6 2.8 4.3 0.8 0.3 1.8 0.4 2.5 0.2 0.8-0.1 1.5-0.2 2.3-0.4-0.8-0.3-1.5-0.3-2.3-0.5zm-56.7-35.2c-0.8-0.1-1.4-0.3-1.9-0.7-1-0.7-1.7-1.8-1.6-3 0-1.9-1.3-3.7-3-4.3-0.8-0.3-1.8-0.3-2.5-0.1-0.8 0.1-1.5 0.2-2.3 0.4 0.8 0.2 1.5 0.3 2.3 0.5 0.8 0.1 1.3 0.2 1.9 0.6 1 0.6 1.7 1.8 1.7 2.9 0 1.8 1.2 3.7 2.8 4.3 0.8 0.4 1.8 0.4 2.6 0.3 0.7-0.2 1.5-0.3 2.2-0.5-0.7-0.2-1.5-0.3-2.2-0.4zm11.8 77.1c-0.8-0.3-1.8-0.3-2.5-0.1q-0.7 0.1-1.4 0.2-0.4 0.1-0.9 0.2c0.6 0.2 1.3 0.3 1.9 0.4 0.1 0 0.3 0 0.4 0.1 0.8 0.1 1.3 0.2 1.9 0.5q0.7 0.5 1.1 1.1 1.1 0.5 2.4 1c-0.3-1.5-1.5-2.9-2.9-3.4z"/>
						<path id="&lt;Path&gt;" class="s2" d="m424.5 653.5c1.7-8.2 3.4-16.4 4.8-24.7 0.7-4.8 1.5-9.5 2.3-14.2 0-0.2-0.3-0.3-0.4-0.1-2 8.2-3.9 16.5-5.6 24.8-1.6 8.2-3.2 16.5-4.7 24.7q-1.3 7.1-2.2 14.2c0 0.1 0.2 0.1 0.2 0 2.3-8.1 3.9-16.4 5.6-24.7z"/>
						<path id="&lt;Path&gt;" class="s8" d="m434.8 675.9l-1.3 6.9c0 0-59.5-9.8-71.3-19.9-11.9-10.1-38-66.5-47-94.3-6.6-20.3-0.6-26.2 9-21.6 27.8 31.8 80.4 92.2 110.6 128.9z"/>
					</g>
				</g>
				<g id="&lt;Group&gt;">
					<path id="&lt;Path&gt;" class="s1" d="m234.8 684.4l138.6 2.4-6.9-44.3c0 0 11.2-9.8 4.6-28.3-4.2-12.1-23.7-40.5-33.5-52.3-23.9-28.8-40.5-12.8-47.2-5.4-25.3 28.3-55.6 127.9-55.6 127.9z"/>
					<path id="&lt;Compound Path&gt;" class="s4" d="m370.1 665.8c-0.5-0.7-1.3-1.3-2.1-1.6-0.8-0.3-1.8-0.3-2.5-0.1-0.8 0.1-1.5 0.2-2.3 0.4 0.8 0.2 1.5 0.3 2.3 0.5 0.8 0.1 1.3 0.2 1.9 0.5 1.1 0.7 1.7 1.8 1.7 3 0 1.5 0.8 3 2 3.9zm-96.6-80.6q-0.4-0.1-0.8-0.2-0.3 0.6-0.5 1.1 0.7 0.1 1.3 0c0.8-0.2 1.5-0.3 2.3-0.5-0.8-0.2-1.5-0.3-2.3-0.4zm45.3 63.3c-0.8-0.1-1.3-0.3-1.9-0.6-1-0.7-1.6-1.8-1.6-3.1 0-1.8-1.3-3.6-3-4.2-0.8-0.3-1.8-0.3-2.5-0.2-0.7 0.2-1.5 0.3-2.3 0.5 0.8 0.2 1.6 0.3 2.3 0.4 0.8 0.1 1.4 0.3 1.9 0.6 1.1 0.7 1.7 1.8 1.7 3 0 1.8 1.2 3.6 2.9 4.3 0.8 0.3 1.7 0.3 2.5 0.2 0.7-0.1 1.5-0.2 2.2-0.5-0.7-0.2-1.5-0.3-2.2-0.4zm37.1-61.6c-0.6-0.1-1.1-0.3-1.6-0.6-1-0.7-1.6-1.8-1.6-3q0-0.8-0.3-1.6c-0.3-0.7-0.7-1.3-1.2-1.7q-0.7-0.6-1.5-0.9c-0.8-0.4-1.8-0.3-2.5-0.2-0.7 0.2-1.5 0.2-2.3 0.5 0.8 0.2 1.6 0.3 2.3 0.4 0.8 0.1 1.4 0.3 1.9 0.6 1.1 0.6 1.7 1.8 1.7 2.9 0 1.8 1.2 3.7 2.9 4.3 0.8 0.4 1.7 0.4 2.5 0.3q0.1-0.1 0.3-0.1-0.3-0.4-0.6-0.9zm-41.2 9.4c-0.1-0.7-0.2-1.5-0.4-2.2-0.2 0.7-0.3 1.5-0.5 2.2-0.1 0.8-0.2 1.4-0.5 1.9-0.7 1.1-1.8 1.8-3 1.8-1.8-0.1-3.7 1.1-4.3 2.8-0.4 0.8-0.4 1.8-0.2 2.5 0.1 0.8 0.2 1.5 0.4 2.3 0.2-0.8 0.3-1.5 0.5-2.3 0.1-0.8 0.3-1.3 0.6-1.9 0.7-1 1.8-1.6 3-1.6 1.9 0 3.7-1.2 4.3-2.9 0.3-0.9 0.3-1.9 0.1-2.6zm-29.4 78.5c-0.1-0.8-0.2-1.5-0.4-2.3-0.2 0.8-0.3 1.5-0.5 2.3-0.1 0.8-0.2 1.3-0.6 1.9-0.6 1-1.7 1.7-2.9 1.7-1.8 0-3.7 1.1-4.3 2.8-0.4 0.8-0.4 1.8-0.3 2.5 0.1 0.5 0.2 0.9 0.3 1.4h0.4q0.1-0.7 0.3-1.4c0.1-0.7 0.2-1.3 0.6-1.8 0.7-1.1 1.8-1.7 3-1.6 1.9-0.1 3.7-1.3 4.3-3 0.3-0.8 0.3-1.8 0.1-2.5zm30.7-121.9c-0.6 0.4-1.2 0.7-1.8 0.8-1.2 0.3-2.4-0.1-3.3-1-1.3-1.3-3.5-1.6-5.1-0.8-0.8 0.3-1.5 1-1.9 1.6-0.4 0.7-0.9 1.2-1.3 1.9 0.7-0.4 1.3-0.8 2-1.2 0.6-0.5 1.1-0.8 1.7-1 1.2-0.3 2.5 0 3.3 0.9 1.3 1.3 3.4 1.8 5.1 1 0.8-0.3 1.5-1 1.9-1.6 0.4-0.6 0.9-1.2 1.3-1.9-0.7 0.4-1.3 0.8-1.9 1.3zm-41.4 81.5c-0.6 0.5-1.2 0.7-1.8 0.9-1.2 0.2-2.4-0.1-3.3-1-1.3-1.4-3.5-1.7-5.1-0.9-0.8 0.3-1.5 1-1.9 1.6-0.4 0.7-0.9 1.3-1.3 2 0.7-0.4 1.3-0.9 2-1.3 0.6-0.5 1.1-0.8 1.7-1 1.2-0.3 2.5 0.1 3.3 0.9 1.3 1.3 3.4 1.8 5.1 1.1 0.8-0.4 1.5-1 1.9-1.7 0.4-0.6 0.9-1.2 1.3-1.9-0.7 0.4-1.3 0.9-1.9 1.3zm87.7-8.5c-0.6 0.5-1.1 0.8-1.7 0.9-1.3 0.2-2.5-0.1-3.3-1-1.4-1.3-3.5-1.7-5.1-0.9-0.8 0.3-1.5 1.1-1.9 1.7-0.4 0.6-0.9 1.2-1.3 1.9 0.7-0.4 1.3-0.9 1.9-1.3 0.6-0.5 1.1-0.8 1.8-0.9 1.2-0.3 2.5 0 3.3 0.8 1.2 1.3 3.4 1.8 5 1.1 0.8-0.3 1.6-1 2-1.6 0.4-0.7 0.9-1.3 1.3-2-0.7 0.4-1.3 0.9-2 1.3zm-32.4 59.3c-1.3-1.3-3.5-1.6-5.1-0.9-0.7 0.4-1.4 1-1.8 1.5l1.8 0.1q0.2-0.1 0.5-0.2c0.8-0.2 1.6-0.1 2.3 0.2l3.3 0.1q-0.5-0.3-1-0.8zm5.1 0.2q-0.6 0.4-1.1 0.6h1.7q0 0 0 0c0.4-0.6 0.9-1.2 1.3-1.9-0.7 0.4-1.3 0.8-1.9 1.3z"/>
					<g id="&lt;Group&gt;">
						<g id="&lt;Group&gt;">
							<path id="&lt;Path&gt;" class="s2" d="m324.6 642.1c6-0.5 12.1-0.8 18.1-0.3 3 0.2 6 0.5 9 0.9q2.2 0.3 4.4 0.6c1.6 0.1 3.2 0.2 4.7 0 0.2 0 0.2 0.2 0.1 0.2-1.5 0.3-2.9 0.6-4.4 0.7-1.5 0.1-2.9 0.1-4.3 0-3.1-0.2-6.1-0.5-9.2-0.7-6.1-0.5-12.2-0.9-18.4-0.9-0.3 0-0.3-0.5 0-0.5z"/>
							<path id="&lt;Path&gt;" class="s2" d="m310.9 650c4.8-1.4 9.7-2.6 14.6-3.4 2.4-0.4 4.9-0.7 7.4-0.9q1.8-0.1 3.6-0.2c1.3-0.1 2.6 0 3.9-0.1 0.1 0 0.2 0.2 0 0.2-1.2 0.2-2.4 0.5-3.6 0.7q-1.9 0.3-3.7 0.5c-2.5 0.4-4.9 0.8-7.4 1.2-4.9 0.7-9.8 1.5-14.7 2.4-0.3 0-0.3-0.3-0.1-0.4z"/>
						</g>
					</g>
				</g>
				<g id="&lt;Group&gt;">
					<g id="&lt;Group&gt;">
						<path id="&lt;Path&gt;" class="s17" d="m307.2 550.2c-0.1 2.6 7.4 21.7 18.8 24.2 3.7 0.8 9-19.3 9-19.3l0.8-1.3 10.2-19.6-20.2-22.2-3-3c0 0-2.4 5.5-5.4 12.4q-0.2 0.5-0.4 1-0.3 0.6-0.5 1.2-0.7 1.5-1.4 3.1c-0.3 0.8-0.7 1.6-1 2.4-0.3 0.9-0.6 1.7-1 2.5-3.2 8.5-5.8 17.4-5.9 18.6z"/>
						<path id="&lt;Path&gt;" class="s2" d="m317.4 521.4c1.5 18.2 12.9 28.5 18.4 32.4l10.2-19.6-20.2-22.2-3-3c0 0-2.4 5.5-5.4 12.4z"/>
					</g>
					<g id="&lt;Group&gt;">
						<path id="&lt;Path&gt;" class="s17" d="m383.8 508.3c-4.3 38.4-27.8 40.1-36.1 39.2-7.5-0.9-33-4.7-32.7-43.4 0.3-38.7 19.6-48.8 36.9-47.7 17.3 1 36.2 13.5 31.9 51.9z"/>
						<g id="&lt;Group&gt;">
							<path id="&lt;Path&gt;" class="s2" d="m379.1 501c-0.9-0.2-1.6-0.6-2.5-0.9-1-0.3-1.8-0.5-2.4-1.4-0.3-0.4-0.2-1.3 0.2-1.6 1-0.9 2.3-0.8 3.5-0.4 1.3 0.4 2.1 1.1 2.9 2.2 0.7 1.1-0.5 2.4-1.7 2.1z"/>
							<path id="&lt;Path&gt;" class="s2" d="m352.9 496.2c0.9 0 1.7-0.1 2.6-0.2 1-0.1 1.9 0 2.7-0.7 0.5-0.3 0.5-1.2 0.2-1.7-0.7-1-2-1.2-3.2-1.2-1.3 0.1-2.4 0.5-3.4 1.3-0.9 0.9-0.1 2.5 1.1 2.5z"/>
							<g id="&lt;Group&gt;">
								<g id="&lt;Group&gt;">
									<path id="&lt;Path&gt;" class="s2" d="m357.7 507.6c0-0.1-0.3 0.1-0.3 0.2-0.2 2.6-0.9 5.6-3.3 6.2-0.1 0-0.1 0.2 0 0.2 2.9-0.1 3.8-4.1 3.6-6.6z"/>
									<path id="&lt;Path&gt;" class="s2" d="m355.6 504.6c-4.1-0.8-5.4 7.6-1.5 8.4 3.8 0.7 5-7.7 1.5-8.4z"/>
								</g>
								<path id="&lt;Path&gt;" class="s2" d="m353.9 504.8c-0.8 0.4-1.6 1.1-2.5 1.1-1.1-0.1-1.7-1.1-2.3-2 0-0.1-0.1-0.1-0.1 0-0.3 1.6 0.1 3.4 1.8 3.9 1.5 0.5 2.9-0.8 3.5-2.4 0.1-0.2-0.1-0.7-0.4-0.6z"/>
							</g>
							<g id="&lt;Group&gt;">
								<g id="&lt;Group&gt;">
									<path id="&lt;Path&gt;" class="s2" d="m372.2 509.3c0-0.1 0.2 0.1 0.2 0.2-0.5 2.6-0.7 5.7 1.6 6.9 0 0 0 0.2-0.1 0.1-2.8-0.8-2.6-4.9-1.7-7.2z"/>
									<path id="&lt;Path&gt;" class="s2" d="m375 506.9c4.2 0.4 3.2 8.8-0.7 8.5-3.9-0.3-2.9-8.8 0.7-8.5z"/>
								</g>
								<path id="&lt;Path&gt;" class="s2" d="m376.7 507.7c0.6 0.5 1.1 1.4 1.9 1.5 0.9 0.2 1.7-0.6 2.4-1.4 0.1-0.1 0.2 0 0.1 0.1-0.1 1.6-0.8 3.2-2.4 3.3-1.5 0.2-2.3-1.4-2.5-3-0.1-0.3 0.2-0.7 0.5-0.5z"/>
							</g>
							<path id="&lt;Path&gt;" class="s2" d="m354.1 528.9c0.5 0.8 1 1.7 1.9 2 0.9 0.2 2 0 2.9-0.1 0.1 0 0.2 0.1 0.1 0.1-0.9 0.9-2.4 1.2-3.6 0.8-1.1-0.4-1.5-1.6-1.5-2.7-0.1-0.2 0.2-0.2 0.2-0.1z"/>
							<g id="&lt;Group&gt;">
								<path id="&lt;Path&gt;" class="s2" d="m366.3 521c0 0 0 4-0.2 5.8 0 0.2-0.5 0.2-1.1 0.2q-0.1 0-0.1 0c-3.3 0-6.4-1.5-8-4.5-0.1-0.2 0.1-0.3 0.3-0.2 2.2 2.1 4.8 3 7.6 3.4 0.2-0.5-0.2-6.8 0.1-6.8 1 0.1 2.9 1 4.1 1.6 0.2-8.3-0.9-16.6-0.5-24.8 0-0.3 0.4-0.3 0.5 0 1.7 8.5 1.7 18 1.6 26.6 0 1.1-3.6-0.9-4.3-1.3z"/>
							</g>
							<g id="&lt;Group&gt;">
								<path id="&lt;Path&gt;" class="s2" d="m364.8 526.1c0 0-1.9 2.3-4.5 3-0.9 0.3-1.9 0.3-2.9 0-2.1-0.7-2-2.7-1.5-4.3 0.4-1.3 1.1-2.5 1.1-2.5 0 0 2.9 3.1 7.8 3.8z"/>
								<path id="&lt;Path&gt;" class="s18" d="m360.3 529.1c-0.9 0.3-1.9 0.3-2.9 0-2.1-0.7-2-2.7-1.5-4.3 2.2 0.4 4.4 2.1 4.4 4.3z"/>
							</g>
						</g>
						<g id="&lt;Group&gt;">
							<path id="&lt;Path&gt;" class="s2" d="m315.1 508.8c9.2-2.5 11.1-11.3 11.1-11.3 11.3-2.7 18.4-9.9 19.1-10.6-0.4 0.7-3.2 6.1-4.7 8.8 25.1-0.3 35.8-17.6 35.8-17.6 6.5 9.3 7.2 14.6 7.9 17.3 0 0 2.8-14.9-3.1-26.2-7.3-13.9-20.5-13.8-20.5-13.8 0 0-17.9-8.9-35.3 4.5-18.8 14.4-10.3 48.9-10.3 48.9z"/>
							<path id="&lt;Path&gt;" class="s2" d="m359.7 494.9c-4.2 1.5-8.8 2.2-13.2 2.4-0.1 0-0.1 0 0-0.1 7.2-0.7 13.9-3.2 19.7-7.6q3.7-2.8 6.5-6.4c2-2.6 4.1-5.6 4.9-8.7 0-0.3 0.4-0.2 0.3 0-0.8 3.4-1.7 6.4-3.6 9.3-1.8 2.7-4.1 5.2-6.8 7.1-2.3 1.7-5 3-7.8 4z"/>
						</g>
						<g id="&lt;Group&gt;">
							<path id="&lt;Compound Path&gt;" fill-rule="evenodd" class="s4" d="m350.1 520.4c-5-1.1-8.9-5.5-9-10.8-0.3-6.4 4.7-11.7 11.1-12 6.3-0.2 11.6 4.8 11.9 11.1 0.2 6.4-4.8 11.7-11.1 12q-1.5 0-2.9-0.3zm4.6-21q-1.2-0.3-2.5-0.2c-5.5 0.2-9.8 4.8-9.6 10.3 0.2 5.5 4.8 9.8 10.3 9.6 5.5-0.2 9.8-4.8 9.6-10.3-0.1-4.6-3.5-8.4-7.8-9.4z"/>
							<path id="&lt;Compound Path&gt;" fill-rule="evenodd" class="s4" d="m376.4 522.8c-4.3-0.9-7.2-6.2-6.6-12.1 0.3-3.1 1.4-5.8 3.2-7.8 1.8-2.1 4.1-3.1 6.4-2.9 2.3 0.2 4.4 1.7 5.8 4.1 1.3 2.3 1.9 5.2 1.6 8.2-0.6 6.3-4.9 11.1-9.6 10.6q-0.4 0-0.8-0.1zm3.4-21.2q-0.3 0-0.5 0c-1.9-0.2-3.7 0.6-5.2 2.3-1.5 1.8-2.5 4.2-2.8 6.9-0.5 5.5 2.2 10.2 6 10.6 3.9 0.4 7.5-3.8 8-9.2 0.3-2.7-0.3-5.3-1.4-7.4-1.1-1.7-2.5-2.8-4.1-3.2z"/>
							<path id="&lt;Path&gt;" class="s4" d="m363.6 510l-0.9-1.2c1.9-1.3 6.1-2.9 8.6 0.4l-1.2 0.9c-2.3-2.9-6.4-0.2-6.5-0.1z"/>
							<path id="&lt;Path&gt;" class="s4" d="m312.2 508l-1.3-0.8c0.4-0.6 3.9-5.9 7.4-6.1 3.2-0.2 23.6 3.7 24.5 3.9l-0.3 1.5c-5.9-1.2-21.6-4-24.1-3.9-2.3 0.2-5.3 4-6.2 5.4z"/>
						</g>
						<g id="&lt;Group&gt;">
							<path id="&lt;Path&gt;" class="s17" d="m312.7 517.1q0.9 0.6 1.7 0.8 0.9 0.4 1.8 0.5c0.8 0 1.6-0.1 2.3-0.3 0.6-0.2 1.2-0.5 1.6-0.8 1.2-0.9 1.9-1.9 1.9-1.9l-0.1-10.5c0 0-5.9-13.5-11.8-11.6-6 1.8-3.2 20.2 2.6 23.8z"/>
							<path id="&lt;Path&gt;" class="s2" d="m311 498.5c-0.1 0-0.1 0.1-0.1 0.2 4.1 2.6 5.6 7.2 6.4 11.8-1-1.9-2.6-3.2-5.1-2-0.2 0-0.1 0.2 0 0.2 1.9 0 3.2 0.6 4.1 2.3 0.7 1.2 1 2.6 1.4 3.9 0.1 0.4 0.9 0.4 0.8-0.1q0-0.1 0-0.1c1.2-5.6-1.6-14.4-7.5-16.2z"/>
						</g>
					</g>
				</g>
				<g id="&lt;Group&gt;">
					<g id="&lt;Group&gt;">
						<g id="&lt;Group&gt;">
							<path id="&lt;Path&gt;" class="s17" d="m286.3 559c-22.9 20.1-81.6 99-67.2 115.9 14.6 17.1 105 5.2 131-4.1 7.8-2.8-15.7-51.7-24.3-53.7-7.1-1.6-45.8 11.6-46.7 9.4-0.9-2.5 6.7-19.7 18.8-50.9 14-36-1.5-25.4-11.6-16.6z"/>
							<g id="&lt;Group&gt;">
								<g id="&lt;Group&gt;">
									<path id="&lt;Path&gt;" class="s17" d="m364 605.9c18.2-0.7 23 2 38.1-6.8 9.9-5.7 17.8-1.9 11.5 8.2-10.4 16.4-33.7 22.3-42.4 22z"/>
									<g id="&lt;Group&gt;">
										<path id="&lt;Path&gt;" class="s17" d="m314.6 618.4c0 0 21.3-9.1 40.6-11.8 13.4-1.8 42.9-2.6 68 29 5.9 7.5 9 22.3-5.1 13.6-10-6.2-14.5-13.1-21-15.7 0 0 1.7 19.4-6 25.1-3.5 2.5-13.1 9.2-21.3 13.3 0 0-1.4-1.5-2.8-3.7 0 0-7.8 4.6-21.2 1.9z"/>
									</g>
									<g id="&lt;Group&gt;">
										<path id="&lt;Path&gt;" class="s17" d="m368.3 606.9c5.9 3.9 18.3 12.3 26 22.7 8.6 11.6 22.1 36.2 13.5 42.5-6.4 4.6-12.3-4.4-12.3-4.4 0 0 3.4 11.4-3.2 14.3-6.1 2.6-10.3-4.6-10.3-4.6 0 0 0.9 7.3-5.4 8.7-7.5 1.7-8.1-13.7-17.3-18.6-2.1-1.1 9-60.6 9-60.6z"/>
										<g id="&lt;Group&gt;">
											<g id="&lt;Group&gt;">
												<path id="&lt;Path&gt;" class="s2" d="m380.6 636.7c4.9 4.5 13.6 17.8 15 30.8 0 0.3-0.2 0.4-0.3 0.2-4.6-14-11.6-26-14.8-31-0.1 0 0-0.1 0.1 0z"/>
											</g>
											<g id="&lt;Group&gt;">
												<path id="&lt;Path&gt;" class="s2" d="m369.1 645.7c3.9 4.4 12.2 18.4 13.2 31.6 0 0.3-0.2 0.5-0.3 0.2-4.2-14.7-10-26.6-13-31.7 0-0.1 0.1-0.2 0.1-0.1z"/>
											</g>
										</g>
									</g>
								</g>
								<path id="&lt;Path&gt;" class="s2" d="m397.1 633.4c5.7 2.3 9.2 5.6 13.8 9.5 2.3 2 4.6 3.9 7 5.5 2.3 1.6 5.6 3.9 8.4 2.1 1.5-1 1.7-3 1.5-4.7-0.2-1.8-1.6-5.3-2.5-6.9-0.1-0.1 0.1-0.2 0.1-0.1 0.9 1.4 2.5 4.6 2.9 6.3 0.4 1.4 0.7 3.1 0.1 4.6-1.2 3.1-5 3.2-7.6 2-1.6-0.7-3-1.7-4.4-2.7q-2-1.4-3.9-3c-2.6-2.2-5.1-4.5-7.6-6.7-2.9-2.4-4.9-3.6-7.9-5.7-0.1-0.1 0-0.2 0.1-0.2z"/>
								<path id="&lt;Path&gt;" class="s2" d="m407.3 655.3c-1.2-3.5-8-18.3-10.4-21.7 0-0.1 0.1-0.2 0.2-0.2 4.1 4.8 10.3 17.1 11.6 20.9 1.4 3.8 2.8 8.7 2.4 12.7-0.6 6.1-4.8 6.9-6.3 7-1.8 0.2-3.6-0.3-5.1-1.3-1.7-1.1-3.2-3.2-4.3-4.9 0-0.1 0.1-0.2 0.1-0.2 1.9 2.7 5.2 5.4 8.6 5.3 1.4 0 3-0.6 4-1.7 1.1-1.3 1.4-3.1 1.4-4.8 0.1-3.8-1-7.6-2.2-11.1z"/>
							</g>
						</g>
						<g id="&lt;Group&gt;">
							<path id="&lt;Path&gt;" class="s1" d="m314.6 618.4l22.3 62.5c0 0-113.2 13.7-120.9-6.5-7.6-20.3 43-91.4 64.6-111.4 25-23.2 27-14.3 19.8 7.8-7.6 23.1-21 56.3-21 56.3z"/>
							<path id="&lt;Compound Path&gt;" class="s4" d="m273.5 585.3c-0.8-0.1-1.3-0.3-1.9-0.7-1-0.7-1.6-1.8-1.6-3 0-1.8-1.2-3.5-2.8-4.2q-0.4 0.6-0.9 1.2 0.1 0 0.1 0.1c1.1 0.6 1.7 1.7 1.7 2.9 0 1.8 1.2 3.7 2.9 4.3 0.8 0.4 1.7 0.4 2.5 0.3 0.7-0.2 1.5-0.3 2.2-0.5-0.7-0.2-1.5-0.3-2.2-0.4zm45.3 63.3c-0.8-0.1-1.4-0.3-1.9-0.7-1-0.7-1.7-1.8-1.6-3 0-1.9-1.3-3.6-3-4.2-0.8-0.4-1.8-0.3-2.5-0.2-0.8 0.2-1.5 0.2-2.3 0.5 0.8 0.2 1.5 0.3 2.3 0.4 0.8 0.1 1.3 0.3 1.9 0.6 1.1 0.6 1.7 1.8 1.7 2.9 0 1.8 1.2 3.7 2.8 4.3 0.8 0.4 1.8 0.4 2.6 0.3 0.7-0.2 1.5-0.3 2.2-0.5-0.7-0.2-1.5-0.3-2.2-0.4zm-81.3 13.3c-0.7-0.1-1.3-0.2-1.8-0.6-1.1-0.7-1.7-1.8-1.7-3 0-1.9-1.2-3.7-2.9-4.3-0.9-0.3-1.9-0.3-2.6-0.1-0.7 0.1-1.5 0.2-2.2 0.4 0.7 0.2 1.5 0.3 2.2 0.5 0.8 0.1 1.4 0.2 1.9 0.6 1.1 0.6 1.8 1.7 1.8 2.9-0.1 1.8 1.1 3.7 2.8 4.3 0.8 0.4 1.8 0.4 2.5 0.2 0.8-0.1 1.5-0.2 2.3-0.4-0.8-0.2-1.5-0.3-2.3-0.5zm47.8 12.9c-0.1-0.7-0.2-1.5-0.4-2.2-0.3 0.7-0.3 1.5-0.5 2.2-0.1 0.8-0.2 1.4-0.6 1.9-0.6 1.1-1.8 1.8-2.9 1.8-1.8-0.1-3.7 1.1-4.3 2.8-0.4 0.8-0.4 1.8-0.3 2.5q0.2 0.7 0.3 1.5 0.2 0 0.4 0 0.1-0.8 0.2-1.5c0.1-0.7 0.3-1.3 0.7-1.8 0.7-1.1 1.8-1.7 3-1.7 1.9 0 3.7-1.2 4.2-2.9 0.4-0.9 0.3-1.9 0.2-2.6zm18.7-121.4q-0.1 0.1-0.1 0.2c-0.4 0.6-0.9 1.2-1.3 1.9q0.8-0.4 1.4-0.9 0-0.6 0-1.2zm-29.4 81.1c-0.6 0.4-1.2 0.7-1.8 0.8-1.2 0.3-2.5-0.1-3.3-1-1.3-1.3-3.5-1.6-5.1-0.8-0.8 0.3-1.5 1-1.9 1.6-0.4 0.7-0.9 1.3-1.3 1.9 0.7-0.4 1.3-0.8 1.9-1.2 0.7-0.5 1.2-0.8 1.8-1 1.2-0.3 2.5 0.1 3.3 0.9 1.3 1.3 3.4 1.8 5 1 0.9-0.3 1.6-1 2-1.6 0.4-0.6 0.9-1.2 1.3-1.9-0.7 0.4-1.3 0.8-1.9 1.3z"/>
							<g id="&lt;Group&gt;">
								<path id="&lt;Path&gt;" class="s2" d="m244.2 639.5c5.4-3 11.2-5.6 17.1-7.8 5.8-2.2 11.8-3.8 17.8-5.2 3.5-0.8 7-1.4 10.5-2 0.1 0 0.1 0.2 0 0.2-6.1 1.2-12.1 3-18 5q-8.9 2.9-17.6 6.1c-3.3 1.3-6.5 2.6-9.7 4-0.2 0-0.3-0.2-0.1-0.3z"/>
								<path id="&lt;Path&gt;" class="s2" d="m314.3 618.2c-0.6 0.1-31.9 7.1-32.9 7.5 0.2-0.5 7.2-16 8.3-18.3q0.1-0.4 0.3-0.7c0.6-1 1.3-2 1.9-3q1.2-2 2.4-4c0 0-0.1 0-0.1 0q-1.3 1.9-2.5 3.8-0.6 0.9-1.1 1.8 1-2.4 2-4.8c1.1-2.6 2.1-5.2 3.1-7.9 0-0.1-0.1-0.1-0.1 0-2.1 4.5-4.3 9-6.4 13.5-2.1 4.5-10.1 21.2-10 21.2 0 0 34.5-8.4 35.2-8.6 0.2-0.1 0.2-0.5-0.1-0.5z"/>
								<path id="&lt;Path&gt;" class="s2" d="m312.4 657.3c-2.4-7-4.8-13.9-7.5-20.8-1.6-3.9-3.1-7.8-4.6-11.7-0.1-0.2-0.4-0.1-0.3 0.1 2.2 7.1 4.4 14.2 6.9 21.1 2.5 7 4.9 14 7.5 20.9q2.2 5.9 4.7 11.6c0.1 0.1 0.2 0.1 0.2 0-2-7.2-4.4-14.2-6.9-21.2z"/>
								<path id="&lt;Path&gt;" class="s2" d="m338.2 681.9c-0.9-1.9-2-4.7-3-6.6-0.3-0.5-0.7-0.4-0.5 0.1 0.7 1.7 1.2 3.7 1.9 5.5-1.6 0.1-3.2 0.2-4.8 0.4q-2.7 0.3-5.5 0.6-5.4 0.5-10.7 1-11 0.9-21.9 1.3c-14.7 0.6-29.4 0.7-44-0.2q-6.2-0.4-12.3-1.1c-4.1-0.5-8.6-1-12-1.8-0.1 0-0.1 0.2 0 0.2 3.5 1.1 6.7 1.9 10.3 2.4q5.6 0.8 11.1 1.3c7.4 0.7 14.8 1 22.2 1 14.7 0.1 29.3-0.4 44-1.5q6.1-0.4 12.2-1 3.1-0.3 6.2-0.7c2.1-0.2 7-0.5 6.8-0.9z"/>
							</g>
						</g>
					</g>
				</g>
				<g id="&lt;Group&gt;">
					<g id="&lt;Group&gt;">
						<g id="&lt;Group&gt;">
							<g id="&lt;Group&gt;">
								<path id="&lt;Path&gt;" class="s14" d="m484.1 691.2v6.4h-142.5v-6.4z"/>
							</g>
							<g id="&lt;Group&gt;">
								<path id="&lt;Path&gt;" class="s12" d="m484.1 691.2v6.4h-96.9l4.9-6.4z"/>
							</g>
						</g>
						<g id="&lt;Group&gt;">
							<g id="&lt;Group&gt;">
								<path id="&lt;Path&gt;" class="s12" d="m406.8 697.6h124.8l18.1-88.1h-124.8z"/>
							</g>
							<g id="&lt;Group&gt;">
								<path id="&lt;Path&gt;" class="s14" d="m412.7 697.6h124.7l18.1-88.1h-124.8z"/>
							</g>
							<path id="&lt;Path&gt;" class="s4" d="m495.3 650.3c0.2 4.1-2.6 8.1-6.2 8.9-3.6 0.7-6.5-2.1-6.7-6.2-0.1-4.2 2.7-8.2 6.2-8.9 3.6-0.7 6.6 2 6.7 6.2z"/>
						</g>
					</g>
				</g>
			</g>
		</g>
	</g>
</svg>