<svg version="1.2" xmlns="http://www.w3.org/2000/svg" viewBox="0 0 1500 1000" width="1500" height="1000">
	<title>5994425-ai</title>
	<style>
		.s0 { fill:  #BA68C8 }
		.s1 { opacity: .7;fill: #ffffff }
		.s2 { fill: #263238 }
		.s3 { fill: #F7B9C7;stroke: #263238;stroke-linecap: round;stroke-linejoin: round;stroke-width: 2 }
		.s4 { fill: none;stroke: #000000;stroke-miterlimit:10;stroke-width: 2 }
		.s5 { fill:  #BA68C8;stroke: #263238;stroke-linecap: round;stroke-linejoin: round;stroke-width: 2 }
		.s6 { fill: #263238;stroke: #263238;stroke-linecap: round;stroke-linejoin: round;stroke-width: 2 }
		.s7 { fill: #c9c9c9;stroke: #263238;stroke-linecap: round;stroke-linejoin: round;stroke-width: 2 }
		.s8 { fill: none;stroke: #263238;stroke-linecap: round;stroke-linejoin: round;stroke-width: 2 }
		.s9 { fill: none;stroke: #ffffff;stroke-linecap: round;stroke-linejoin: round;stroke-width: 2 }
	</style>
	<g id="Background Simple">
		<g id="&lt;Group&gt;">
			<path id="&lt;Path&gt;" class="s0" d="m1398.9 530.9c0 0 20-356-282-454-302-98-454-26-550 66-96 92-128 152-238 164-110 12-212 32-264 166-52 134 14 240 114 306 100 66 216-4 308 38 92 42 150 112 338 120 188 8 194-46 290-130 96-84 266 4 284-276z"/>
			<path id="&lt;Path&gt;" class="s1" d="m1398.9 530.9c0 0 20-356-282-454-302-98-454-26-550 66-96 92-128 152-238 164-110 12-212 32-264 166-52 134 14 240 114 306 100 66 216-4 308 38 92 42 150 112 338 120 188 8 194-46 290-130 96-84 266 4 284-276z"/>
		</g>
	</g>
	<g id="Plant">
		<g id="&lt;Group&gt;">
			<g id="&lt;Group&gt;">
				<path id="&lt;Path&gt;" class="s2" d="m1182 456.2c8.1 3.6 28 3.1 28.1 3.1 0.2 0-4.3-13-4.7-13.8-4.4-9.2-18.2-24.3-29.4-22.7-8.1 1.1-12.7 9.2-10.8 16.8 1.8 7.8 9.8 13.6 16.8 16.6z"/>
				<path id="&lt;Path&gt;" class="s2" d="m1188.9 513.9c8.4 1.2 26.2-3.9 27.6-4.3 2.8 9.9 6.5 19.9 10.8 29.8 2.4 5.7 5.1 11.3 7.8 16.9-1.6-2.4-3.1-4.5-3.3-4.8-6.7-7.6-24-18.5-34.4-14.1-7.6 3.2-9.8 12.2-6 19.1 3.9 7 13.1 10.5 20.6 11.6 7.6 1.1 22.8-3 26.9-4.1 1 2.1 2.1 4.2 3.1 6.4 5.2 10.2 10.4 20.4 15.1 30.6 1.7 3.6 3.3 7.2 4.8 10.8-1.4-2.1-2.7-3.9-2.9-4.2-6.6-7.6-23.9-18.5-34.4-14.1-7.5 3.2-9.7 12.2-5.9 19.1 3.8 7 13.1 10.5 20.6 11.6 7.2 1 21.3-2.6 26.1-3.9 1.5 3.7 2.9 7.4 4.2 11.1 0.8 2.5 1.7 4.9 2.4 7.5q1.1 3.8 2.1 7.5c1.2 4.9 2.4 9.9 3.4 14.6 0.8 3.3 1.4 6.5 2 9.7-1.6-3.6-4.9-10.6-5.3-11.1-5.4-8.6-20.9-22-31.9-19.2-7.9 2-11.4 10.6-8.7 17.9 2.7 7.6 11.3 12.4 18.6 14.6 7.9 2.5 25.6 0.2 27.8-0.1 1 5.3 2 10.4 2.9 15.3 1.9 10.7 3.3 20.4 4.4 28.5h7.4c-1.3-8.4-3-18.5-5.2-29.7-1.1-5.4-2.3-11.1-3.6-16.9 1.3-0.6 8.8-3.6 15.5-7.3 5.8 6.3 20.7 13.6 22.6 14.6-2 4.9-4 9.8-6 14.3-4.1 9.5-8 17.9-11.5 25h8.1c2.9-6.6 6.2-14.1 9.6-22.4 2.1-5 4.2-10.5 6.3-16.1 2.2 0.5 19.6 4 27.8 2.2 7.3-1.7 16.3-5.9 19.6-13.2 3.2-7.1 0.3-15.9-7.4-18.5-10.8-3.7-27.2 8.6-33.2 16.7-0.4 0.5-3.6 6.2-5.6 9.8 0.8-2.3 1.7-4.6 2.5-6.9 1.7-4.7 3.3-9.4 5-14.5q1.1-3.7 2.3-7.5c0.8-2.5 1.3-5.2 2-7.9 1.5-6.1 2.6-12.4 3.7-18.8 4.1 1.5 18.7 6.6 26.3 6.1 7.6-0.6 17.1-3.3 21.4-10.1 4.3-6.5 2.8-15.7-4.5-19.4-10.1-5.2-28.2 4.4-35.3 11.5-0.5 0.5-5.1 6.2-7.5 9.3 0.6-3.8 1.2-7.6 1.7-11.5 1.4-11.3 2.4-22.7 3.6-34.1q0.5-5.2 1-10.5c1.5 0.6 18.8 7 27.3 6.4 7.5-0.5 17-3.3 21.4-10 4.2-6.6 2.7-15.7-4.6-19.5-10-5.2-28.1 4.4-35.3 11.6-0.5 0.5-7.1 8.7-8.7 10.9 0.8-7.7 1.7-15.3 2.9-22.8 1.6-10.3 3.7-20.4 6.5-30 0.7 0.3 18.7 7.1 27.4 6.5 7.5-0.5 17-3.3 21.4-10 4.3-6.6 2.7-15.8-4.5-19.5-10.1-5.2-28.2 4.4-35.4 11.5-0.6 0.6-7.6 9.4-8.8 11.1 0.2-0.5 0.3-1.1 0.5-1.7 3.1-10.2 7.4-19.7 11.8-28.4 2.6-5 5.4-9.7 8.1-14.2 3.3 1.6 18.1 8.8 26 9.1 7.5 0.3 17.3-1.4 22.3-7.6 5-6.1 4.5-15.3-2.3-19.8-9.5-6.3-28.5 1.2-36.4 7.5-0.4 0.4-4.4 4.4-7.3 7.3 1.3-2 2.6-4.1 3.8-6 4.8-7.2 9.6-13.4 13.9-18.9 2.4-3.1 4.7-5.9 6.9-8.5 4 0 20-0.5 27-3.8 6.9-3.2 14.7-9.2 16.4-17.1 1.6-7.6-3.1-15.6-11.2-16.5-11.3-1.2-24.7 14.2-28.9 23.5-0.3 0.8-4.5 14-4.2 14 0 0 0.1 0 0.2 0-2.1 2.4-4.4 5-6.8 7.9-4.4 5.4-9.4 11.6-14.3 18.7-4.9 7-10.1 14.9-14.8 23.6-4.7 8.7-9.2 18.1-12.6 28.4q-0.1 0.2-0.1 0.4c0-3.3-0.1-12.6-0.2-13.4-1.3-10-9.7-28.7-20.9-30.7-8.1-1.5-14.9 4.8-15.5 12.6-0.7 8 5.1 16 10.8 21 6.3 5.7 24 11.2 25.4 11.7-3.1 9.8-5.6 20.2-7.4 30.8-1.1 6.1-2 12.2-2.8 18.4-0.1-2.9-0.1-5.5-0.2-5.8-1.3-10.1-9.7-28.7-20.9-30.8-8-1.5-14.8 4.8-15.5 12.6-0.6 8 5.2 16 10.8 21.1 5.7 5.1 20.7 10.1 24.7 11.4q-0.5 3.5-0.9 7.1c-1.4 11.4-2.7 22.7-4.3 33.8-0.6 4-1.3 7.8-2 11.6 0-2.5-0.1-4.7-0.1-5-1.3-10-9.7-28.7-20.9-30.8-8-1.4-14.9 4.9-15.5 12.7-0.6 8 5.1 16 10.8 21 5.5 4.9 19.2 9.6 24 11.1-0.9 4-1.7 7.9-2.7 11.6-0.7 2.6-1.2 5.1-2.1 7.6q-1.2 3.8-2.4 7.5c-1.7 4.7-3.4 9.5-5.2 14-1.2 3.2-2.4 6.2-3.7 9.2 0.7-3.9 1.7-11.5 1.7-12.2 0.2-6.7-2.2-17.7-7-25.4q0.1-1.5-0.2-2.9c-1.2-7.8-8.5-13.5-16.4-11.4-11 2.9-17.9 22.1-18.4 32.3-0.1 0.6 0.3 7.1 0.6 11.2-0.5-2.4-1-4.7-1.6-7.2-1.2-4.8-2.5-9.6-3.8-14.8q-1.1-3.7-2.3-7.5c-0.7-2.5-1.8-5.1-2.6-7.7-2.2-5.9-4.7-11.8-7.3-17.7 4.2-1 19.2-4.9 25.3-9.5 6-4.6 12.3-12.1 12.3-20.2-0.1-7.8-6.4-14.6-14.5-13.7-11.3 1.2-21.1 19.2-23.2 29.1-0.1 0.6-0.7 7.9-1 11.9-1.6-3.5-3.2-7-5-10.5-5-10.2-10.5-20.3-15.8-30.4q-2.5-4.7-4.9-9.4c1.5-0.3 19.5-4.5 26.3-9.7 6-4.6 12.3-12.1 12.3-20.1-0.1-7.9-6.4-14.7-14.5-13.8-11.3 1.3-21.1 19.2-23.2 29.2-0.1 0.7-1.1 11.2-1.2 13.9-3.5-6.9-7-13.7-10.2-20.6-4.3-9.5-8.1-19.1-11-28.6 0.7-0.2 19.4-4.4 26.3-9.8 6.1-4.6 12.4-12.1 12.4-20.1-0.1-7.9-6.4-14.6-14.5-13.8-11.3 1.3-21.1 19.2-23.2 29.2-0.1 0.7-1.1 12-1.2 14.1-0.1-0.6-0.4-1.2-0.6-1.7-3-10.2-4.6-20.5-5.7-30.2-0.6-5.7-0.9-11.1-1.1-16.4 3.6-0.4 19.9-2.6 26.7-6.7 6.4-3.9 13.6-10.7 14.4-18.7 0.8-7.8-4.7-15.2-12.9-15.2-11.3 0-23 16.8-26.2 26.4-0.1 0.5-1.3 6-2.1 10.1 0-2.4-0.1-4.9-0.1-7.2 0.1-8.5 0.6-16.4 1.1-23.4 0.4-3.9 0.8-7.5 1.1-10.8 3.3-2.3 16.5-11.5 20.5-18.2 3.9-6.4 7.2-15.8 4.2-23.2-2.9-7.3-11.2-11.4-18.5-7.6-10.1 5.2-12.7 25.5-11 35.5 0.1 0.9 3.9 14.1 4.1 14 0 0 0.1-0.1 0.2-0.1-0.5 3.2-0.9 6.6-1.3 10.4-0.7 6.9-1.4 14.8-1.6 23.4-0.2 8.6-0.2 18 0.7 27.8 0.8 9.9 2.3 20.3 5.1 30.8q0.1 0.1 0.1 0.3c-1.8-2.8-7-10.5-7.5-11-6.6-7.7-23.9-18.6-34.4-14.2-7.5 3.2-9.7 12.3-5.9 19.1 3.8 7.1 13.1 10.5 20.6 11.6z"/>
				<path id="&lt;Path&gt;" class="s2" d="m1383.5 460.6c0.2 0.1 3.6-13.3 3.7-14.1 1.4-10.1-1.8-30.3-12-35.2-7.4-3.6-15.6 0.7-18.3 8.1-2.7 7.5 0.8 16.7 4.9 23.1 4.8 7.5 21.7 18.1 21.7 18.1z"/>
			</g>
			<path id="&lt;Path&gt;" class="s3" d="m1357.7 824.3h-108.9l-13.6-120.9h136.1z"/>
			<g id="&lt;Group&gt;">
				<path id="&lt;Path&gt;" class="s2" d="m1237.7 725.5l1.3 11.7h128.5l1.3-11.7z"/>
				<path id="&lt;Path&gt;" class="s2" d="m1364.6 763l1.3-11.7h-125.3l1.3 11.7z"/>
			</g>
		</g>
	</g>
	<g id="Gears">
		<g id="&lt;Group&gt;" style="opacity: .3">
			<path id="&lt;Compound Path&gt;" fill-rule="evenodd" class="s4" d="m302.7 214.9c-1.9 7.3-4.9 14.3-8.7 20.7l22 27.4-24.7 24.7-27.6-22c-6.4 3.7-13.4 6.6-20.8 8.5l-3.8 34.9h-35l-3.9-35c-7.3-2-14.3-4.9-20.7-8.7l-27.4 21.9-24.7-24.7 22-27.5c-3.7-6.5-6.6-13.4-8.5-20.8l-34.9-3.9v-34.9l35-3.9c2-7.4 4.9-14.3 8.7-20.7l-21.9-27.5 24.7-24.7 27.5 22.1c6.4-3.8 13.4-6.7 20.8-8.6l3.9-34.9h34.9l3.9 35.1c7.4 1.9 14.3 4.9 20.7 8.7l27.5-22 24.7 24.7-22.1 27.6c3.8 6.4 6.7 13.4 8.6 20.8l34.9 3.8v35zm-39.2-21.7c0-23-18.7-41.7-41.7-41.7-23 0-41.7 18.7-41.7 41.7 0 23 18.7 41.7 41.7 41.7 23 0 41.7-18.7 41.7-41.7z"/>
			<path id="&lt;Compound Path&gt;" fill-rule="evenodd" class="s4" d="m452.3 147.3c-0.5 5.1-1.7 10-3.5 14.7l17.6 15.7-13.6 19.1-20.7-11.5c-3.9 3.2-8.2 5.9-12.8 7.9l1.3 23.6-23.2 3.8-6.4-22.7c-5.1-0.5-10-1.7-14.7-3.5l-15.7 17.6-19.1-13.6 11.5-20.7c-3.2-3.9-5.9-8.2-8-12.8l-23.5 1.3-3.9-23.2 22.8-6.4c0.5-5.1 1.7-10 3.5-14.7l-17.6-15.7 13.6-19.1 20.7 11.5c3.9-3.2 8.1-5.9 12.8-8l-1.3-23.5 23.1-3.9 6.5 22.8c5.1 0.5 10 1.7 14.7 3.5l15.7-17.6 19.1 13.6-11.5 20.7c3.2 3.9 5.9 8.1 7.9 12.8l23.6-1.3 3.8 23.1zm-28.3-9.9c-2.5-15.3-17-25.6-32.2-23-15.3 2.5-25.5 17-23 32.2 2.6 15.2 17 25.5 32.2 23 15.3-2.6 25.6-17 23-32.2z"/>
		</g>
	</g>
	<g id="Device">
		<g id="&lt;Group&gt;">
			<path id="&lt;Path&gt;" class="s5" d="m1241.3 778.9h-951.2v-596.5c0-11.5 9.4-20.9 20.9-20.9h909.4c11.5 0 20.9 9.4 20.9 20.9z"/>
			<path id="&lt;Path&gt;" class="s6" d="m1094.7 781.4h-653.7v-32.2h653.7z"/>
			<path id="&lt;Path&gt;" class="s3" d="m1094.7 781.4h-653.7v-16.7h653.7z"/>
			<path id="&lt;Path&gt;" class="s6" d="m213.2 800.5c0 0 10.7 13.1 42.9 23.8h1023.5c0 0 23.9-6 34.6-22.7z"/>
			<path id="&lt;Path&gt;" class="s5" d="m1312.7 802h-1097.9c-2.1 0-3.8-1.7-3.8-3.8v-17.5c0-2.1 1.7-3.7 3.8-3.7h1097.9c2.1 0 3.8 1.6 3.8 3.7v17.5c0 2.1-1.7 3.8-3.8 3.8z"/>
			<path id="&lt;Path&gt;" class="s2" d="m773.8 180.2c0-4.6-3.7-8.4-8.3-8.4-4.6 0-8.4 3.8-8.4 8.4 0 4.6 3.8 8.3 8.4 8.3 4.6 0 8.3-3.7 8.3-8.3z"/>
			<g id="&lt;Group&gt;">
				<path id="&lt;Path&gt;" class="s3" d="m1202.7 703.6h-874v-493.9h874z"/>
			</g>
			<g id="&lt;Group&gt;">
				<path id="&lt;Path&gt;" class="s7" d="m1202.7 239.6h-874v-29.9h874z"/>
			</g>
		</g>
	</g>
	<g id="Table">
		<path id="&lt;Path&gt;" class="s8" d="m46.4 824.3h1392.2"/>
	</g>
	<g id="Video">
		<g id="&lt;Group&gt;">
			<g id="&lt;Group&gt;">
				<path id="&lt;Path&gt;" class="s8" d="m1132.7 670.4h-361v-203.9h361z"/>
				<path id="&lt;Path&gt;" class="s8" d="m1132.7 670.4h-361v-24.5h361z"/>
				<path id="&lt;Path&gt;" class="s8" d="m1132.7 661.5h-361v-6.6h361z"/>
			</g>
			<g id="&lt;Group&gt;">
				<path id="&lt;Path&gt;" class="s8" d="m992.3 557.9c0-21-17.1-38.1-38.2-38.1-21 0-38.1 17.1-38.1 38.1 0 21.1 17.1 38.2 38.1 38.2 21.1 0 38.2-17.1 38.2-38.2z"/>
				<path id="&lt;Path&gt;" class="s8" d="m983.5 558.1l-49.1-28.3v56.7z"/>
			</g>
		</g>
	</g>
	<g id="Picture">
		<g id="&lt;Group&gt;">
			<path id="&lt;Path&gt;" class="s8" d="m1132.4 445.9h-360.1v-170.4h360.1z"/>
			<path id="&lt;Path&gt;" class="s8" d="m772.3 445.9l130-101.4 70.3 39.4 83.5-73.9 76.3 48.8"/>
			<path id="&lt;Path&gt;" class="s8" d="m846.2 323.1c0-14.5-11.7-26.3-26.2-26.3-14.5 0-26.2 11.8-26.2 26.3 0 14.5 11.7 26.2 26.2 26.2 14.5 0 26.2-11.7 26.2-26.2z"/>
		</g>
	</g>
	<g id="Chart">
		<g id="&lt;Group&gt;">
			<path id="&lt;Path&gt;" class="s8" d="m427.8 474.5h-26.3v190.7h26.3z"/>
			<path id="&lt;Path&gt;" class="s8" d="m465.9 560.3h-26.2v104.9h26.2z"/>
			<path id="&lt;Path&gt;" class="s8" d="m504.1 590.1h-26.3v75.1h26.3z"/>
			<path id="&lt;Path&gt;" class="s8" d="m542.2 530.5h-26.2v134.7h26.2z"/>
			<path id="&lt;Path&gt;" class="s8" d="m580.4 543.6h-26.3v121.6h26.3z"/>
			<path id="&lt;Path&gt;" class="s8" d="m618.5 639h-26.2v26.2h26.2z"/>
			<path id="&lt;Path&gt;" class="s8" d="m635.2 488.8h75.1"/>
			<path id="&lt;Path&gt;" class="s8" d="m635.2 513.8h75.1"/>
			<path id="&lt;Path&gt;" class="s8" d="m635.2 538.9h75.1"/>
			<path id="&lt;Path&gt;" class="s8" d="m635.2 563.9h75.1"/>
			<path id="&lt;Path&gt;" class="s8" d="m635.2 588.9h75.1"/>
			<path id="&lt;Path&gt;" class="s8" d="m635.2 614h75.1"/>
			<path id="&lt;Path&gt;" class="s8" d="m635.2 639h75.1"/>
			<path id="&lt;Path&gt;" class="s8" d="m635.2 664.1h75.1"/>
		</g>
	</g>
	<g id="Text">
		<g id="&lt;Group&gt;">
			<g id="&lt;Group&gt;">
				<path id="&lt;Compound Path&gt;" class="s2" d="m415 387.4l-16.3-100.5h11.6l10.8 72.2 13.5-71.8h9.9l13.7 72.2 10.5-72.6h11.4l-16.1 100.5h-10.2l-14-74.4-14.1 74.4z"/>
			</g>
			<path id="&lt;Path&gt;" class="s8" d="m507.6 292.2h208"/>
			<path id="&lt;Path&gt;" class="s8" d="m507.6 314.2h208"/>
			<path id="&lt;Path&gt;" class="s8" d="m507.6 336.3h208"/>
			<path id="&lt;Path&gt;" class="s8" d="m507.6 358.3h208"/>
			<path id="&lt;Path&gt;" class="s8" d="m507.6 380.4h208"/>
		</g>
	</g>
	<g id="Code 3">
		<g id="&lt;Group&gt;">
			<path id="&lt;Path&gt;" class="s6" d="m1160.6 422h-120.8c-6.8 0-12.3 6.8-12.3 15.1v80.7c0 8.3 5.5 15.1 12.3 15.1h28.9l-18.9 41.7 50.5-41.7h60.3c6.8 0 12.3-6.8 12.3-15.1v-80.7c0-8.3-5.5-15.1-12.3-15.1z"/>
			<g id="&lt;Group&gt;">
				<path id="&lt;Compound Path&gt;" class="s0" d="m1079.2 503l-25.4-17.9v-9.5l25.4-18.2v9.6l-18.2 13.3 18.2 13.2z"/>
				<path id="&lt;Compound Path&gt;" class="s0" d="m1087 506.2l19.4-72h8.2l-19.4 72z"/>
				<path id="&lt;Compound Path&gt;" class="s0" d="m1122.4 503v-9.5l18.3-13.3-18.3-13.2v-9.6l25.5 18.1v9.5z"/>
			</g>
		</g>
	</g>
	<g id="Code 2">
		<g id="&lt;Group&gt;">
			<path id="&lt;Path&gt;" class="s6" d="m1152.8 151.7h-120.9c-6.8 0-12.3 6.8-12.3 15.1v80.7c0 8.3 5.5 15.1 12.3 15.1h28.9l-18.9 41.7 50.5-41.7h60.4c6.7 0 12.3-6.8 12.3-15.1v-80.7c0-8.3-5.6-15.1-12.3-15.1z"/>
			<g id="&lt;Group&gt;">
				<path id="&lt;Compound Path&gt;" class="s0" d="m1071.4 232.7l-25.5-18v-9.5l25.5-18.1v9.6l-18.2 13.2 18.2 13.3z"/>
				<path id="&lt;Compound Path&gt;" class="s0" d="m1079.1 235.9l19.4-72h8.3l-19.5 72z"/>
				<path id="&lt;Compound Path&gt;" class="s0" d="m1114.5 232.7v-9.5l18.3-13.3-18.3-13.2v-9.6l25.5 18v9.6z"/>
			</g>
		</g>
	</g>
	<g id="Code 1">
		<g id="&lt;Group&gt;">
			<path id="&lt;Path&gt;" class="s6" d="m677.8 360h-120.9c-6.8 0-12.3 6.8-12.3 15.1v80.7c0 8.3 5.5 15.1 12.3 15.1h29l-19 41.7 50.5-41.7h60.4c6.7 0 12.3-6.8 12.3-15.1v-80.7c0-8.3-5.6-15.1-12.3-15.1z"/>
			<g id="&lt;Group&gt;">
				<path id="&lt;Compound Path&gt;" class="s0" d="m596.4 441l-25.4-17.9v-9.5l25.4-18.2v9.6l-18.2 13.3 18.2 13.2z"/>
				<path id="&lt;Compound Path&gt;" class="s0" d="m604.1 444.2l19.4-72h8.3l-19.5 72z"/>
				<path id="&lt;Compound Path&gt;" class="s0" d="m639.5 441v-9.5l18.3-13.3-18.3-13.2v-9.6l25.5 18.1v9.5z"/>
			</g>
		</g>
	</g>
	<g id="Mug">
		<g id="&lt;Group&gt;">
			<g id="&lt;Group&gt;">
				<g id="&lt;Group&gt;">
					<path id="&lt;Path&gt;" class="s2" d="m379.9 770.2q-0.2 0-0.3-0.1c-1.2-0.1-11.4-1.2-13.7-8-1.7-5.2-1.7-19.9 2.3-24.6 3.8-4.3 9.5-2.2 12.1-0.5 1.3 0.9 1.7 2.7 0.8 4.1-0.9 1.4-2.8 1.8-4.2 0.9 0-0.1-3-1.9-4.1-0.6-2 2.3-2.7 14.2-1.2 18.8 0.8 2.2 5.6 3.7 8.6 4 1.6 0.1 2.8 1.6 2.7 3.2-0.2 1.6-1.5 2.8-3 2.8z"/>
				</g>
				<path id="&lt;Path&gt;" class="s6" d="m414.2 732.1h-36v44.2h36z"/>
			</g>
			<g id="&lt;Group&gt;">
				<path id="&lt;Path&gt;" class="s8" d="m387.1 726c0 0-2.2-7.3 2.1-14.1 4.3-6.9 12.8-8.1 12.4-20.1"/>
				<path id="&lt;Path&gt;" class="s8" d="m409.3 707.6c0 0-2.1 3.9-5.6 8.1-3.4 4.3-3 10.3-3 10.3"/>
				<path id="&lt;Path&gt;" class="s8" d="m413.1 699.9c0 0 2.6-5.5 1.7-13.2"/>
			</g>
		</g>
	</g>
	<g id="Character">
		<g id="&lt;Group&gt;">
			<g id="&lt;Group&gt;">
				<path id="&lt;Path&gt;" class="s6" d="m291.4 461.8c0 0-1.7-7.7-6.2-7.2-4.5 0.6-3.1 2.1-7.4 0.9-4.2-1.1-5.1-4.7-7.2-1.6-2.1 3.2 1.9 5.2-1.9 4.8-3.8-0.4-5.3-2.7-6.8-1.3-1.5 1.5-2.1 2.8-2.1 2.8l-0.7 1.7c0 0 2-4 6.1-1.5 4 2.4 6.9 2.9 7.5 0.7 0.6-2.1 5.6-1.9 5.7-0.7 0.2 1.3 1.6 2.7 1.6 2.7 0 0-11.1 1-14.3 1.3-3.3 0.4-5.7-2.2-10.4 0.1-4.7 2.2-8.6 4.3-10.3 7-1.8 2.7 2.3 5.9 1.8 8.1-0.6 2.1-9 4.8-8.6 7.6 0.3 2.9 4.1 3.3 0.2 5.8-3.8 2.5-7.2 5.4-6.1 7.8 1.1 2.3 3.9 4.9 3.4 7.4-0.5 2.6-4.9 7.3-2.6 9.5 2.4 2.2 3.8 0.3 3.4 3.7-0.5 3.4-2.5 10.2 0.1 11.2 2.6 0.9 5.6 2.2 5.6 5.5 0 3.3-0.5 5.9 1.8 7.7 2.2 1.8 7.6 1.5 8.2 6.4 0.6 4.9 1.2 6.5 3.4 7.5 2.2 1 5.6-1.5 7.3 2.4 1.7 4 6.7 3.8 9 2.7 2.4-1.1 4.2-3 6.4 1.3 2.2 4.3 4.7 4.8 7.9 3.6 3.2-1.2 7.8-0.5 9.7 1.7 2 2.3 6.4 1.7 8.7-0.2 2.3-1.9 3.9-5.8 5.9-2.8 2 3.1 6.9 5.8 8.6 3.1 1.8-2.7 2.9-6.9 5.7-4.8 2.7 2.2 6.7 0.9 8.1-1.4 1.4-2.2 4.4-4.7 7.8-4.2 3.3 0.4 7.5 0.3 7.4-3.8-0.1-4.2-0.4-7 2.9-6.6 3.4 0.4 8.5 1.5 8.4-2.7-0.1-4.1-0.4-6.5 2.1-6.8 2.4-0.3 6.2-3.7 5.5-6.1-0.7-2.4-2.6-10.9-1.4-11 1.3-0.2 2.9-3.7 1.2-7.6-1.7-3.9-2.1-7.2-0.9-7.8 1.1-0.5 2.2-5.2-0.6-8.2-2.9-3-4-5.3-1.7-7.2 2.2-2 2.6-5.7-0.2-8.3-2.8-2.6-4.3-4.5-4.5-6.5-0.2-2-5.7-6.4-7.5-7.4-1.8-1-3.8-3.7-4.3-8.2-0.6-4.5-1.4-4.8-9.2-7.1-7.7-2.4-9.6-4.3-12.7-6.4-3.2-2.1-11-1.2-14 0.9-3.1 2-15.2 1.4-19.8 11.5z"/>
			</g>
			<g id="&lt;Group&gt;">
				<path id="&lt;Path&gt;" class="s3" d="m209 671c13.2-10.2 41.2-56.7 41.2-56.7 0 0 3.3 23.7 7.2 35.1 4 11.3 9.3 18.7 8 31.7 0 0-0.2-2-0.2-2l71.7 2.1c-2.2-3.9-3.6-4.6-3.9-6.4-1.2-6.1 5.1-19.6 5.2-25.8 0-6.2 4.7-18 4.7-18 0 0 20.7 45.8 25.5 49.7 4.7 3.9 18 6 17.2-8.4-0.8-14.3-24.9-69.9-29.1-79.5-4.3-9.7-9.6-16.4-19.8-15.4-10.3 1-12.6 2.8-19.6 3.1-7 0.4-3.9-33.1-3.9-33.1 0 0-11 9.7-25.4 3.9 0 0 1.8 17.6-1.1 23.1-3 5.5-4.6 7.3-11.7 4.8-7.2-2.5-18.3-11-25.2-7.7-6.8 3.3-54.7 83-58.4 89.8-2.5 4.5-9.2 16-7.2 19.1z"/>
			</g>
			<g id="&lt;Group&gt;">
				<path id="&lt;Path&gt;" class="s5" d="m265.4 681.1q0.1-1 0.1-2h-0.3c0 0 0.2 2 0.2 2z"/>
				<path id="&lt;Path&gt;" class="s6" d="m249.8 571.5c-6.8 3.3-54.7 83-58.4 89.8-2.5 4.5-9.2 16-7.2 19.1l24.8-9.4c13.2-10.2 41.2-56.7 41.2-56.7 0 0 3.3 23.7 7.2 35.1 3.8 10.7 8.7 17.9 8.1 29.7l71.4 2.1c-2.2-3.9-3.6-4.6-3.9-6.4-1.2-6.1 5.1-19.6 5.2-25.8 0-6.2 4.7-18 4.7-18 0 0 20.7 45.8 25.5 49.7 4.7 3.9 18 6 17.2-8.4-0.8-14.3-24.9-69.9-29.1-79.5-4.3-9.7-9.6-16.4-19.8-15.4-5.1 0.5-8.2 1.2-10.9 1.8l-29.7 36.1-21.1-36.1c-7.2-2.5-18.3-11-25.2-7.7z"/>
			</g>
			<path id="&lt;Path&gt;" class="s6" d="m266.2 675.6c0 0-37.9 32.7-38.7 63.5-0.3 10.6 1.7 34.5 19.9 37 18.3 2.5 99.2 0 99.2 0 0 0 6.3-1.9 10-23.2 3.8-21.4-23.8-76.1-23.8-76.1z"/>
			<g id="&lt;Group&gt;">
				<path id="&lt;Path&gt;" class="s3" d="m293.9 688.6c0 0-6.9 8.6-7.9 9-1 0.4-2.3 3.7-4.6 8.7-2.3 5.1-1.7 5.5 1.1 4.2 2.7-1.2 5.4-6.9 5.4-6.9l5.2-3.3c0 0 5.2-13.2 0.8-11.7z"/>
				<path id="&lt;Path&gt;" class="s3" d="m364.8 665.7c0 0-6.5 8.7-21.5 15.4-15 6.7-29.6 4.7-37.8 5-8.3 0.4-9.5-1.4-13 5.1-3.5 6.6-0.4 24.7 1.3 25.8 1.7 1.2 1.9-7.1 1.9-7.1 0 0 1.5 8 3.9 8.1 2.4 0.2 3.2-6.8 3.2-6.8 0 0 2.1 4.9 4 4.3 2-0.7 1.6-5.9 1.6-5.9 0 0 2.3 3.1 3.5 1.4 1.2-1.7-1.6-12.1-1.6-12.1 0 0 10.6 1.8 14.5 0.5 3.9-1.4 6-4.4 6-4.4 0 0 19.4 0 31.1-1.9 11.8-1.9 28.1-14.2 24.4-21.7-3.8-7.6-16.3-9.3-16.3-9.3"/>
				<path id="&lt;Path&gt;" class="s8" d="m308.4 709.6c0 0-3.9-11.2-2.4-15.6"/>
				<path id="&lt;Path&gt;" class="s8" d="m302.8 711.2c0 0-2.6-10.8-2.1-17.4"/>
				<path id="&lt;Path&gt;" class="s8" d="m295.7 709.9c0 0-1.9-11.8-0.6-14.4"/>
				<path id="&lt;Path&gt;" class="s3" d=""/>
				<path id="&lt;Path&gt;" class="s6" d="m364.8 665.7c0 0-3.5 4.5-11 9.6 4 3 8.1 8.3 9.5 17.5 11.7-2.6 26.6-14.2 23-21.4-3.8-7.6-16.3-9.3-16.3-9.3"/>
			</g>
			<g id="&lt;Group&gt;">
				<path id="&lt;Path&gt;" class="s3" d="m246.7 641.2c0 0 4.2-1 8.7-3 4.4-2.1 7.5-6.6 8.9-4.8 1.4 1.7 0.4 4.8-2.2 7-2.6 2.2-10.1 6-10.1 6 0 0-8.2-1.6-5.3-5.2z"/>
				<path id="&lt;Path&gt;" class="s3" d="m228 658.8c0 0 10.2-27.1 14.8-27.2 4.7-0.1 26.6 3.8 25.6 6-1.1 2.2-3.7 2.9-6.3 2.8-2.7-0.1-12.5-2.9-12.5-2.9l-2.9 3.7c0 0 10.2 2.9 11.7 3.6 1.6 0.8 7.6 6.7 6.1 9.1-1.5 2.3-2.1 1.2-2.1 1.2 0 0 0.8 2.4-0.1 4.2-0.9 1.9-1.8 1.5-1.8 1.5-0.2 2.1-2.4 3.4-4.3 2.6-2.3-0.9-2.3-5.2-5.1-4.8-3.2 0.3-3.7-0.2-3.7-0.2 0 0-5.7 5.4-9.7 8.1-3.9 2.7-8.9 2.7-8.9 2.7 0 0-18.7 15.7-34.6 17.7-17.7 2.2-11.7-16.8-2.8-25.6 8.8-8.9 36.6-2.5 36.6-2.5z"/>
				<path id="&lt;Path&gt;" class="s8" d="m262.4 655.1c0 0-3.4-5.5-5.6-6.5-2.2-1.1-9.4-2.2-9.4-2.2"/>
				<path id="&lt;Path&gt;" class="s8" d="m260.5 660.8c0 0-5.2-7.6-6.8-7.7-1.7-0.1-7-1-7-1"/>
				<path id="&lt;Path&gt;" class="s6" d="m198.5 671.3c0.7-6.2 4.5-11.4 7.7-14.7-6 0.2-11.6 1.4-14.8 4.7-8.9 8.8-14.9 27.8 2.8 25.6 3.5-0.4 7.1-1.5 10.6-3-3.5-2.9-6.9-7.2-6.3-12.6z"/>
			</g>
			<g id="&lt;Group&gt;">
				<path id="&lt;Path&gt;" class="s9" d="m333.2 546.8c1.4 6 0.3 11.3-2.3 11.9-2.7 0.6-5.9-3.8-7.3-9.8-1.4-5.9-0.3-11.3 2.3-11.9 2.7-0.6 5.9 3.8 7.3 9.8z"/>
				<path id="&lt;Path&gt;" class="s9" d="m278.5 550.6c-0.1 5.8-2.2 10.5-4.8 10.4-2.6 0-4.6-4.7-4.6-10.5 0.1-5.8 2.2-10.5 4.8-10.5 2.6 0 4.6 4.8 4.6 10.6z"/>
				<path id="&lt;Path&gt;" class="s3" d="m296.9 497.6c0 0-6 1.4-6 6-0.1 4.6 0.6 6.2-2.9 7.6-3.5 1.4-5.4 2.6-4.9 5.8 0.6 3.3 2 4.3-2.5 5-4.4 0.8-4.1-2.2-5.1 2.1-0.9 4.4-1.1 5.6-2.7 5.9-1.6 0.3 0.4 14.6 4.3 23.1 3.9 8.5 13.2 21.1 18.7 21.8 5.5 0.8 12.7-5.9 17.6-11.7 4.5-5.2 11.1-21 11.1-21l1.4-1.5c0 0 2.5 0 3.2-3.5 0 0-0.5-5.3-3.2-6.5-2.7-1.3-5.5-5.4-5.7-6.6-0.2-1.2 1.1-3.1-0.7-4-1.8-1-4.9-1.7-5.8-4.5-0.8-2.8 2.2-7-1.4-8.5-3.6-1.5-5.5-0.3-6-3.2-0.4-2.8 1.1-6-1.6-7.2-2.7-1.2-7.8 0.9-7.8 0.9z"/>
				<g id="&lt;Group&gt;">
					<path id="&lt;Path&gt;" class="s2" d="m289 535.2c0.4 2.5-0.1 4.7-1.1 4.9-1.1 0.2-2.3-1.8-2.7-4.3-0.4-2.5 0.1-4.7 1.1-4.9 1.1-0.2 2.3 1.7 2.7 4.3z"/>
					<path id="&lt;Path&gt;" class="s2" d="m307.6 535.4c0 2.6-0.9 4.7-2 4.7-1-0.1-1.9-2.1-1.8-4.7 0-2.6 0.9-4.6 1.9-4.6 1.1 0 1.9 2.1 1.9 4.6z"/>
					<path id="&lt;Path&gt;" class="s8" d="m290.1 554.7c0 0 3.9 5.3 15.2 0"/>
					<path id="&lt;Path&gt;" class="s8" d="m278.4 528.4c0 0 5.7-6 12.4-2.1"/>
					<path id="&lt;Path&gt;" class="s8" d="m299.6 525.9c0 0 7.5-5.1 15.6 3.5"/>
					<path id="&lt;Path&gt;" class="s8" d="m292.2 542.1c0 0-0.8 1.8-0.6 2.9 0.2 1 1.7 4.1 5.1 3.6 3.4-0.6 4.6-3.6 3.5-6.1"/>
				</g>
			</g>
			<g id="&lt;Group&gt;">
				<path id="&lt;Path&gt;" class="s3" d="m306.3 723.2c-3.1 0.5-6 1.6-8.7 3.6-11.7 8.6-8.7 27.9-9.1 40.7q-0.8 24.2-1.6 48.4c-0.7 23.7-1.1 47.5-2.6 71.2-1.2 18.2-6.3 46.4-2.4 65.8 3.9 19.3 14 15 19.5-2.8 5.4-17.8-2.1-52.5-2.7-60.4-0.5-6.1 27.5-98.6 35.1-140.6 2.7-15.5-13.3-28.1-27.5-25.9z"/>
				<path id="&lt;Path&gt;" class="s6" d="m292.1 930.6c-5.2-1.2-8.6-7.5-10.7-13.5-1.1 12.5-1.6 25.4 0.5 35.8 3.9 19.3 14 15 19.5-2.8 2-6.7 2.2-15.8 1.7-25-2.8 3.7-6.4 6.6-11 5.5z"/>
			</g>
			<g id="&lt;Group&gt;">
				<path id="&lt;Path&gt;" class="s3" d="m258.9 721.8c3-0.2 6.2 0.4 9.2 1.9 13 6.2 13.7 25.8 16.4 38.4q5.2 23.6 10.5 47.2c5.1 23.2 9.9 46.5 15.7 69.5 4.5 17.6 14.8 44.5 14.5 64.2-0.3 19.7-11 17.4-19.6 0.8-8.7-16.5-7.7-51.9-8.5-59.8-0.7-6.1-45.3-91.9-60.5-131.7-5.6-14.7 7.9-30.1 22.3-30.5z"/>
				<path id="&lt;Path&gt;" class="s6" d="m311.1 923c4.9-2.1 7-9 8-15.3 3.4 12.2 6.2 24.7 6.1 35.3-0.3 19.7-11 17.4-19.6 0.8-3.3-6.2-5.2-15.1-6.3-24.2 3.3 3.1 7.5 5.3 11.8 3.4z"/>
			</g>
			<g id="&lt;Group&gt;">
				<path id="&lt;Path&gt;" class="s7" d="m345.5 721.8h-123.1v-76.4h123.1z"/>
				<path id="&lt;Path&gt;" class="s7" d="m345.5 724.5h-123.1v-4.4h123.1z"/>
			</g>
		</g>
	</g>
</svg>