<svg version="1.2" xmlns="http://www.w3.org/2000/svg" viewBox="0 0 1000 1000" width="1000" height="1000">
	<title>4091198-ai</title>
	<style>
		.s0 { fill: #dbdbdb } 
		.s1 { fill: #ffffff } 
		.s2 { fill: #ebebeb } 
		.s3 { fill: #263238 } 
		.s4 { fill: #455a64 } 
		.s5 { fill: #37474f } 
		.s6 { fill: #c7c7c7 } 
		.s7 { fill:  #BA68C8 } 
		.s8 { fill: #c95f50 } 
		.s9 { opacity: .1;fill: #000000 } 
		.s10 { fill: #ff9abb } 
		.s11 { opacity: .2;fill: #000000 } 
	</style>
	<g id="Background Complete">
		<g id="&lt;Group&gt;">
			<path id="&lt;Path&gt;" class="s0" d="m119.6 617.5c-15-29.6-3.1-65.8 26.6-80.8 29.6-15 65.8-3.1 80.7 26.6 15 29.6 3.2 65.8-26.5 80.7-29.6 15-65.8 3.2-80.8-26.5z"/>
			<path id="&lt;Path&gt;" class="s1" d="m204.9 590.7c-4.7 20-23.3 35.4-23.3 35.4 0 0-23.5-5.7-36.5-21.4-10.8-13.2-9.9-30.4 0.9-36.6 15.5-8.9 26.5 19.1 26.5 19.1 0 0-2.4-30 15.4-28.9 12.5 0.8 20.9 15.8 17 32.4z"/>
		</g>
		<g id="&lt;Group&gt;">
			<path id="&lt;Path&gt;" class="s0" d="m849.2 788.2c-5.5 2.8-11.5 4.8-17.9 5.8-16.6 2.5-32.6-1.9-45.1-11.2-12.2-9.1-21-22.8-23.5-39-5.1-32.9 17.4-63.6 50.2-68.7 32.8-5.1 63.5 17.4 68.6 50.2 4.1 26.5-9.7 51.5-32.3 62.9z"/>
			<g id="&lt;Group&gt;">
				<path id="&lt;Path&gt;" class="s1" d="m840.9 729.3c-0.9 10-9.7 17.5-19.8 16.6-10.1-0.8-17.5-9.7-16.7-19.8 0.9-10 9.8-17.5 19.8-16.6 10.1 0.8 17.6 9.7 16.7 19.8z"/>
				<path id="&lt;Path&gt;" class="s1" d="m849.9 780.7l-0.7 7.5c-5.5 2.8-11.5 4.8-17.9 5.8-16.6 2.5-32.6-1.9-45.1-11.2l0.7-7.5c1.4-17.4 16.8-30.3 34.2-28.8 17.4 1.5 30.3 16.8 28.8 34.2z"/>
			</g>
		</g>
		<g id="&lt;Group&gt;">
			<path id="&lt;Compound Path&gt;" fill-rule="evenodd" class="s2" d="m813.7 299.4h-7.1c-4.5 0-8.1-3.5-8.1-8.1 0-4.3 3.6-8 8.1-8h9.9l4.7-27h-9c-4.4 0-8.1-3.7-8.1-8 0-4.4 3.7-8.1 8.1-8.1h11.8l3-18.4c0.7-4.1 4.1-6.7 8.1-6.7 5.1 0 8.7 4.7 8 9.5l-2.7 15.6h24.3l3.1-18.4c0.6-4.1 4-6.7 8.2-6.7 5 0 8.7 4.7 7.9 9.5l-2.6 15.6h7.1c4.3 0 8 3.6 8 8.1 0 4.3-3.7 8-8 8h-9.9l-4.7 27h8.9c4.5 0 8 3.5 8 8 0 4.4-3.5 8.1-8 8.1h-11.7l-3.2 19c-0.6 3.9-4 6.7-8.1 6.7-5.1 0-8.8-4.6-8-9.4l2.9-16.3h-24.3l-3.3 19c-0.6 3.5-3.5 6.7-8.1 6.7-5 0-8.8-4.2-8-9.4zm43.6-16.1l4.7-27h-24.2l-4.7 27z"/>
		</g>
		<g id="&lt;Group&gt;">
			<path id="&lt;Path&gt;" class="s0" d="m694.4 152.8c-8.6-35.5 13.1-71.2 48.5-79.9 35.5-8.6 71.2 13.1 79.9 48.5 8.6 35.5-13.1 71.2-48.5 79.9-35.5 8.6-71.2-13.1-79.9-48.5z"/>
			<g id="xsrjP0 1 ">
				<g id="&lt;Group&gt;">
					<path id="&lt;Path&gt;" class="s1" d="m749.6 163.4c-1.8-1.1-3.3-2.7-5.6-2.5-0.9 0.1-0.7-0.6-0.7-1.1q0-13.2 0-26.4c0-0.7 0-1.2 0.7-1.5 6.7-3.4 9.6-10.1 13.7-15.8 4.4-6.1 6-12.7 4.9-20-0.3-1.9 0.7-2.8 2.4-3.2 2.2-0.5 4.3 0.1 5.1 1.6 1.8 3.6 3.3 7.4 3.8 11.5 0.4 3.3-0.8 6.6-1.2 9.9-0.3 2.4-0.9 4.8-1.3 7.2 0.5 0.4 1.2 0.2 1.9 0.2q11.1 0 22.3 0c3.1 0 4.6 0.9 5.1 3 0.5 2.6-0.9 5.2-3.3 6.5-0.5 0.2-1.5 0-1.6 0.9-0.1 0.9 1 0.8 1.5 1.1 2.7 1.9 2.2 5.7-0.9 7.9-0.8 0.5-2.2 0.3-2.3 1.4 0 0.8 1.4 0.8 2 1.4 2.1 2.2 1.1 6.2-2.2 7.8-0.4 0.2-0.9 0.3-1.3 0.5-0.4 0.3-0.7 0.5 0 1 3.2 2.3 3.2 5.5-0.1 7.9q-0.5 0.3-1 0.7c-1.1 0.8-2.5 0.8-3.9 0.8q-17.5 0.1-34.9 0c-1.1 0-2.2 0-3.1-0.8z"/>
					<path id="&lt;Path&gt;" class="s1" d="m716.4 147.9c0-5.6 0.1-11.2 0-16.8 0-1.1 0.1-1.7 1.5-1.7q10.3 0.1 20.5 0c1.3 0 1.5 0.5 1.5 1.7q0 16.8 0 33.7c0 1.4-0.4 1.8-1.8 1.8q-9.9-0.1-19.8 0c-1.7 0.1-1.9-0.5-1.9-2 0.1-5.5 0-11.1 0-16.7z"/>
				</g>
			</g>
		</g>
	</g>
	<g id="Shadow">
		<path id="&lt;Path&gt;" class="s2" d="m221 866.2c0 7.3-29.6 13.1-66.1 13.1-36.5 0-66.1-5.8-66.1-13.1 0-7.3 29.6-13.2 66.1-13.2 36.5 0 66.1 5.9 66.1 13.2z"/>
	</g>
	<g id="Floor">
		<path id="&lt;Path&gt;" class="s3" d="m78.9 817.1l105.3-0.5 105.3-0.2 210.5-0.3 210.5 0.3 105.3 0.2 105.3 0.5-105.3 0.5-105.3 0.2-210.5 0.3-210.5-0.3-105.3-0.2z"/>
	</g>
	<g id="Screen">
		<g id="&lt;Group&gt;">
			<path id="&lt;Path&gt;" class="s4" d="m771.7 866.2h-543.4v-678h543.4z"/>
			<path id="&lt;Path&gt;" class="s1" d="m740.8 745.2h-481.6v-481.6h481.6z"/>
			<g id="&lt;Group&gt;">
				<g id="&lt;Group&gt;">
					<path id="&lt;Path&gt;" class="s1" d="m282.4 239.2q-2 1.3-4.5 1.9c-4.3 1.1-8.6 0.3-12.1-1.9-3.4-2.1-6-5.5-7-9.7-2.1-8.4 3.1-17 11.6-19 8.5-2.1 17 3.1 19.1 11.5 1.6 6.9-1.4 13.7-7.1 17.2z"/>
					<g id="&lt;Group&gt;">
						<path id="&lt;Path&gt;" class="s5" d="m278.9 224c0 2.6-2.1 4.8-4.8 4.8-2.6 0-4.8-2.2-4.8-4.8 0-2.7 2.2-4.8 4.8-4.8 2.7 0 4.8 2.1 4.8 4.8z"/>
						<path id="&lt;Path&gt;" class="s5" d="m282.4 237.2v2q-2 1.3-4.5 1.9c-4.3 1.1-8.6 0.3-12.1-1.9v-2c0-4.5 3.7-8.3 8.3-8.3 4.6 0 8.3 3.8 8.3 8.3z"/>
					</g>
				</g>
				<g id="&lt;Group&gt;">
					<path id="&lt;Compound Path&gt;" class="s6" d="m731 224c0.9 0 1.5 0.7 1.5 1.5 0 0.8-0.6 1.5-1.5 1.5-0.8 0-1.4-0.7-1.4-1.5 0-0.8 0.6-1.5 1.4-1.5z"/>
					<path id="&lt;Compound Path&gt;" class="s6" d="m735.6 224c0.8 0 1.5 0.7 1.5 1.5 0 0.8-0.7 1.5-1.5 1.5-0.8 0-1.5-0.7-1.5-1.5 0-0.8 0.7-1.5 1.5-1.5z"/>
					<path id="&lt;Compound Path&gt;" class="s6" d="m740.2 224c0.8 0 1.5 0.7 1.5 1.5 0 0.8-0.7 1.5-1.5 1.5-0.8 0-1.5-0.7-1.5-1.5 0-0.8 0.7-1.5 1.5-1.5z"/>
				</g>
				<path id="&lt;Path&gt;" class="s5" d="m460.2 229.6h-152v-7.7h152z"/>
			</g>
			<path id="&lt;Path&gt;" class="s5" d="m740.8 745.2h-385.5v116z"/>
			<g id="&lt;Group&gt;">
				<path id="&lt;Path&gt;" class="s7" d="m290.9 781.3c-2 3.8-5.4 7.3-8.4 9.9-2.9 2.6-5.4 4.3-5.6 4.4h-1.5c-0.4-0.3-9.9-6.7-14-14.3-2.8-5.3-3.2-11.1-0.9-14.9 1.4-2.5 3.8-3.8 6.6-3.8 4.6 0 7.5 3.2 9.1 6.4 1.5-3.2 4.5-6.4 9.1-6.4 2.8 0 5.2 1.3 6.6 3.8 2.3 3.8 1.9 9.7-1 14.9z"/>
				<g id="&lt;Group&gt;">
					<path id="&lt;Compound Path&gt;" fill-rule="evenodd" class="s6" d="m389.3 797.5l-2.3-0.5-4.8-17.8-11.1-12.1 1-2.2h39l1 2.1zm-14.1-29.9l9.2 10.1 0.3 0.6 4.1 15.5 19.7-26.2z"/>
					<path id="&lt;Path&gt;" class="s6" d="m382.7 780.3l-1.1-2.4 30.1-13.4 1.1 2.4z"/>
				</g>
				<path id="&lt;Compound Path&gt;" fill-rule="evenodd" class="s6" d="m330.5 795.8c-9.2 0-16.6-7.5-16.6-16.6 0-9.2 7.4-16.6 16.6-16.6 9.1 0 16.6 7.4 16.6 16.6q0 2.4-0.7 4.7l2.5 10.3-1.6 1.6-8.7-2.1c-2.5 1.4-5.3 2.1-8.1 2.1zm0-30.6c-7.7 0-14 6.3-14 14 0 7.7 6.3 13.9 14 13.9 2.5 0 5-0.6 7.2-1.9l1-0.2 7.1 1.7-2.1-8.5 0.1-0.7q0.7-2.1 0.7-4.3c0-7.7-6.3-14-14-14z"/>
				<path id="&lt;Compound Path&gt;" fill-rule="evenodd" class="s6" d="m718.2 795.6l-2.1-1.1v-28.3l1.3-1.3h22.9l1.4 1.3v28.3l-2.1 1.1-10.7-9.8zm0.5-27.9v24.3l9.4-8.8h1.5l9.4 8.8v-24.3z"/>
			</g>
		</g>
	</g>
	<g id="Character">
		<g id="&lt;Group&gt;">
			<g id="&lt;Group&gt;">
				<g id="&lt;Group&gt;">
					<path id="&lt;Path&gt;" class="s3" d="m556.6 503.7c-0.1 0.9-0.8 1.7-1.7 1.7-2-0.1-4.4-0.3-7.1-0.5-4.2-17.4-9.3-31.5-8.2-26.1 1.6 7.8 2.1 18.7 1.1 25.6-3.1-0.2-10.4-0.8-14.1-1.1-1.6-29.9-5.9-52.5-6.3-45.8-1.8 27.2-4.5 35.6-7.6 44.6-34-2.8-78.6-7.1-110.8-10.9-1.5-16.6-2.5-34.4-3.2-33.3-5.6 8.5-8.5 21.6-10 31.8-10.2-1.3-18.3-2.5-23.3-3.5 0 0-0.6-13.9-0.3-18.4 0.5-11.4 3.3-22.9 8-33.4 4.9-10.9 12.1-20.1 19-29.6q0.1-0.1 0.2-0.2c0 0 0-0.1 0-0.1 4.8-6.6 8.5-13 11.3-19.9q0.1 0 0.1-0.1c2-5 3.6-10.1 4.8-15.9 4.1-19.7 17.6-35.4 37-38.2 39.7-28.7 73.2-10 80.6 16.9 0.7 2.6 1.3 5.6 1.9 8.8v0.1c2.1 12 3.3 27.4 4.8 39.3 0 0 0 0.1 0 0.1q0 0 0.1 0.1c0.7 5.7 1.5 10.6 2.4 13.9 6.2 22 25 36.4 21.3 94.1z"/>
					<path id="&lt;Path&gt;" class="s3" d="m436.6 334.8c-13.1 4.8-21.9 13.2-25.7 27.4-2.2 8.4-3.9 16.6-8.2 24.1-4.4 7.8-10.6 13.9-17 19.9-10.1 9.6-17.5 19.5-20.8 33.6-3.2 14.3-4.8 31.5-1.7 45.7 0 0 0.2 0 0.2-0.1-2.2-14.2 0.2-33.2 4.5-47.2 4.8-15.4 15-24.2 25.7-34.9 8.5-8.6 14.5-18.5 17.7-30.5 1.8-7 2.7-14.5 6.5-20.9 4.5-7.6 12-11.8 19.5-15.5 1-0.5 0.3-2-0.7-1.6z"/>
					<path id="&lt;Path&gt;" class="s3" d="m552.9 434.6c-7.1-12.4-14.9-23.2-18.1-37.9-3-13.4-3.8-27.2-6.9-40.6 0-0.2-0.3-0.1-0.3 0.1 4.3 23.6 2.7 46.6 14.8 67.5 6.6 11.4 13.3 22 16.9 35.1 3.8 13.8 4.3 27.7 2.8 42 0 0.5 0.6 0.6 0.7 0.1 5.2-22.9 1.4-46.8-9.9-66.3z"/>
				</g>
				<g id="&lt;Group&gt;">
					<g id="&lt;Group&gt;">
						<path id="&lt;Path&gt;" class="s8" d="m504.6 513.4c63.8 66.9 143.3 206.9 127.5 234.7-17.4 31-109.6-64.3-106.7-68.9 2.5-3.9-29.3-88.1-52.5-149.7-23.1-61.6 15.9-32.7 31.7-16.1z"/>
						<g id="&lt;Group&gt;">
							<path id="&lt;Path&gt;" class="s7" d="m582.8 593.7l-91.7 16.5c0 0-22.9-65-27.4-101.1-2.6-20.2 9.3-21 24.3-10.3 52.3 37.6 94.8 94.9 94.8 94.9z"/>
							<path id="&lt;Compound Path&gt;" fill-rule="evenodd" class="s1" d="m484.1 520.5c-0.4 0.7-1 1.3-1.6 1.8-0.5 0.5-0.9 0.8-1 0.8h-0.2c-0.1 0-1.8-1.2-2.6-2.6-0.5-0.9-0.6-2-0.1-2.7 0.2-0.4 0.6-0.7 1.1-0.7 0.9 0 1.4 0.6 1.7 1.2 0.3-0.6 0.8-1.2 1.6-1.2 0.6 0 1 0.3 1.2 0.7 0.5 0.7 0.4 1.8-0.1 2.7zm32.7 1.6q-0.1 0.1-0.2 0.2c-0.5 0.5-1 0.8-1 0.8h-0.3c-0.1 0-1.8-1.2-2.5-2.6-0.5-0.7-0.6-1.6-0.4-2.3 1.5 1.3 3 2.6 4.4 3.9zm-49.7-23.5c-0.4 0.7-1 1.3-1.6 1.8-0.5 0.5-0.9 0.8-1 0.8h-0.2c-0.1 0-0.4-0.2-0.8-0.5q0.5-3.3 1.8-5.3 0.3-0.2 0.7-0.2c0.5 0 1 0.3 1.2 0.7 0.4 0.7 0.4 1.8-0.1 2.7zm17 65.6c-0.4 0.6-1 1.3-1.6 1.8-0.5 0.4-0.9 0.7-1 0.7h-0.2c-0.1 0-1.8-1.2-2.6-2.5-0.5-1-0.6-2.1-0.1-2.7 0.2-0.5 0.6-0.7 1.1-0.7 0.9 0 1.4 0.6 1.7 1.1 0.3-0.5 0.8-1.1 1.6-1.1 0.6 0 1 0.2 1.2 0.7 0.5 0.7 0.4 1.7-0.1 2.7zm34 0c-0.4 0.6-1 1.3-1.5 1.8-0.6 0.4-1 0.7-1 0.7h-0.3c-0.1 0-1.8-1.2-2.5-2.5-0.6-1-0.6-2.1-0.2-2.7 0.2-0.5 0.7-0.7 1.2-0.7 0.8 0 1.3 0.6 1.6 1.1 0.3-0.5 0.8-1.1 1.7-1.1 0.5 0 0.9 0.2 1.2 0.7 0.4 0.7 0.3 1.7-0.2 2.7zm34 0c-0.3 0.6-1 1.3-1.5 1.8-0.5 0.4-1 0.7-1 0.7h-0.3c-0.1 0-1.8-1.2-2.5-2.5-0.5-1-0.6-2.1-0.2-2.7 0.3-0.5 0.7-0.7 1.2-0.7 0.8 0 1.4 0.6 1.7 1.1 0.2-0.5 0.8-1.1 1.6-1.1 0.5 0 0.9 0.2 1.2 0.7 0.4 0.7 0.3 1.7-0.2 2.7zm-51-21.9c-0.4 0.6-1 1.3-1.5 1.8-0.6 0.4-1 0.7-1.1 0.8h-0.2c-0.1-0.1-1.8-1.3-2.6-2.6-0.5-1-0.5-2-0.1-2.7 0.2-0.5 0.7-0.7 1.2-0.7 0.8 0 1.3 0.6 1.6 1.1 0.3-0.5 0.8-1.1 1.7-1.1 0.5 0 0.9 0.2 1.2 0.7 0.4 0.7 0.3 1.7-0.2 2.7zm34 0c-0.4 0.6-1 1.3-1.5 1.8-0.5 0.4-1 0.7-1 0.8h-0.3c-0.1-0.1-1.8-1.3-2.5-2.6-0.5-1-0.6-2-0.2-2.7 0.3-0.5 0.7-0.7 1.2-0.7 0.8 0 1.4 0.6 1.6 1.1 0.3-0.5 0.9-1.1 1.7-1.1 0.5 0 0.9 0.2 1.2 0.7 0.4 0.7 0.3 1.7-0.2 2.7zm-16.8 63l-6 1.1q0-0.8 0.3-1.3c0.2-0.4 0.7-0.7 1.2-0.7 0.8 0 1.3 0.6 1.6 1.2 0.3-0.6 0.8-1.2 1.7-1.2 0.5 0 0.9 0.3 1.2 0.7q0 0.1 0 0.2zm-17.2-19.4c-0.4 0.7-1 1.3-1.5 1.8-0.6 0.5-1 0.8-1.1 0.8h-0.2c-0.1-0.1-1.8-1.2-2.6-2.6-0.5-1-0.5-2-0.1-2.7 0.2-0.4 0.7-0.7 1.2-0.7 0.8 0 1.3 0.6 1.6 1.2 0.3-0.6 0.8-1.2 1.7-1.2 0.5 0 0.9 0.3 1.2 0.7 0.4 0.7 0.3 1.7-0.2 2.7zm34 0c-0.4 0.7-1 1.3-1.5 1.8-0.5 0.5-1 0.8-1 0.8h-0.3c-0.1-0.1-1.8-1.2-2.5-2.6-0.5-1-0.6-2-0.2-2.7 0.3-0.4 0.7-0.7 1.2-0.7 0.8 0 1.4 0.6 1.6 1.2 0.3-0.6 0.9-1.2 1.7-1.2 0.5 0 0.9 0.3 1.2 0.7 0.4 0.7 0.3 1.7-0.2 2.7zm34 0c-0.3 0.7-0.9 1.3-1.5 1.8-0.5 0.5-1 0.8-1 0.8h-0.3c0-0.1-1.8-1.2-2.5-2.6-0.5-1-0.6-2-0.2-2.7 0.3-0.4 0.7-0.7 1.2-0.7 0.9 0 1.4 0.6 1.7 1.2 0.3-0.6 0.8-1.2 1.6-1.2 0.5 0 1 0.3 1.2 0.7 0.4 0.7 0.4 1.7-0.2 2.7z"/>
							<g id="&lt;Group&gt;">
								<g id="&lt;Group&gt;">
									<path id="&lt;Path&gt;" class="s3" d="m491.7 595.2c13.9-3.8 51.9-12.7 77.4-15.3 0.1 0 0.2 0.5 0.1 0.6-20.9 5.3-63.1 13-77.3 15.5-0.3 0.1-0.4-0.8-0.2-0.8z"/>
								</g>
							</g>
							<path id="&lt;Path&gt;" class="s9" d="m570.5 595.9l-79.4 14.3c0 0-22.9-65-27.4-101.1-1.7-12.9 2.6-17.9 9.9-17z"/>
						</g>
					</g>
					<g id="&lt;Group&gt;">
						<path id="&lt;Path&gt;" class="s7" d="m541.8 745.3h-232.4c0 0 21.1-162.1 96-247.4 20.2-23 56.8-16.2 74.2-0.6 4.3 3.9 10.3 10.7 16.8 19.1 15.8 20.3 41.5 68.8 43.9 82 4 21.7-15.3 45.2-15.3 45.2z"/>
						<path id="&lt;Compound Path&gt;" fill-rule="evenodd" class="s1" d="m416 520.5c-0.4 0.7-1 1.3-1.5 1.8-0.5 0.5-1 0.8-1 0.8h-0.3c-0.1 0-1.8-1.2-2.5-2.6-0.5-0.9-0.6-2-0.2-2.7 0.3-0.4 0.7-0.7 1.2-0.7 0.8 0 1.4 0.6 1.6 1.2 0.3-0.6 0.9-1.2 1.7-1.2 0.5 0 0.9 0.3 1.2 0.7 0.4 0.7 0.3 1.8-0.2 2.7zm34 0c-0.3 0.7-0.9 1.3-1.5 1.8-0.5 0.5-1 0.8-1 0.8h-0.3c0 0-1.8-1.2-2.5-2.6-0.5-0.9-0.6-2-0.2-2.7 0.3-0.4 0.7-0.7 1.2-0.7 0.9 0 1.4 0.6 1.7 1.2 0.3-0.6 0.8-1.2 1.6-1.2 0.5 0 1 0.3 1.2 0.7 0.4 0.7 0.4 1.8-0.2 2.7zm34.1 0c-0.4 0.7-1 1.3-1.6 1.8-0.5 0.5-0.9 0.8-1 0.8h-0.2c-0.1 0-1.8-1.2-2.6-2.6-0.5-0.9-0.6-2-0.1-2.7 0.2-0.4 0.6-0.7 1.1-0.7 0.9 0 1.4 0.6 1.7 1.2 0.3-0.6 0.8-1.2 1.6-1.2 0.6 0 1 0.3 1.2 0.7 0.5 0.7 0.4 1.8-0.1 2.7zm-51.1-21.9c-0.3 0.7-1 1.4-1.5 1.8-0.5 0.5-1 0.8-1 0.8h-0.3c0 0-1.8-1.2-2.5-2.6-0.5-0.9-0.6-2-0.2-2.7 0.3-0.4 0.7-0.7 1.2-0.7 0.8 0 1.4 0.6 1.7 1.2 0.2-0.6 0.8-1.2 1.6-1.2 0.5 0 0.9 0.3 1.2 0.7 0.4 0.7 0.3 1.8-0.2 2.7zm34.1 0c-0.4 0.7-1 1.4-1.6 1.8-0.5 0.5-0.9 0.8-1 0.8h-0.2c-0.1 0-1.8-1.2-2.6-2.6-0.5-0.9-0.6-2-0.2-2.7 0.3-0.4 0.7-0.7 1.2-0.7 0.9 0 1.4 0.6 1.7 1.2 0.3-0.6 0.8-1.2 1.6-1.2 0.5 0 1 0.3 1.2 0.7 0.4 0.7 0.4 1.8-0.1 2.7zm-85.1 65.6c-0.4 0.6-1 1.3-1.5 1.8-0.6 0.4-1 0.7-1 0.7h-0.3c-0.1 0-1.8-1.2-2.6-2.5-0.5-1-0.5-2.1-0.1-2.7 0.2-0.5 0.7-0.7 1.2-0.7 0.8 0 1.3 0.6 1.6 1.1 0.3-0.5 0.8-1.1 1.7-1.1 0.5 0 0.9 0.2 1.2 0.7 0.4 0.7 0.3 1.7-0.2 2.7zm34 0c-0.4 0.6-1 1.3-1.5 1.8-0.5 0.4-1 0.7-1 0.7h-0.3c-0.1 0-1.8-1.2-2.5-2.5-0.5-1-0.6-2.1-0.2-2.7 0.3-0.5 0.7-0.7 1.2-0.7 0.8 0 1.4 0.6 1.6 1.1 0.3-0.5 0.9-1.1 1.7-1.1 0.5 0 0.9 0.2 1.2 0.7 0.4 0.7 0.3 1.7-0.2 2.7zm34 0c-0.3 0.6-0.9 1.3-1.5 1.8-0.5 0.4-1 0.7-1 0.7h-0.3c0 0-1.8-1.2-2.5-2.5-0.5-1-0.6-2.1-0.2-2.7 0.3-0.5 0.7-0.7 1.2-0.7 0.9 0 1.4 0.6 1.7 1.1 0.3-0.5 0.8-1.1 1.6-1.1 0.5 0 1 0.2 1.2 0.7 0.4 0.7 0.4 1.7-0.2 2.7zm34.1 0c-0.4 0.6-1 1.3-1.6 1.8-0.5 0.4-0.9 0.7-1 0.7h-0.2c-0.1 0-1.8-1.2-2.6-2.5-0.5-1-0.6-2.1-0.1-2.7 0.2-0.5 0.6-0.7 1.1-0.7 0.9 0 1.4 0.6 1.7 1.1 0.3-0.5 0.8-1.1 1.6-1.1 0.6 0 1 0.2 1.2 0.7 0.5 0.7 0.4 1.7-0.1 2.7zm34 0c-0.4 0.6-1 1.3-1.5 1.8-0.6 0.4-1 0.7-1 0.7h-0.3c-0.1 0-1.8-1.2-2.5-2.5-0.6-1-0.6-2.1-0.2-2.7 0.2-0.5 0.7-0.7 1.2-0.7 0.8 0 1.3 0.6 1.6 1.1 0.3-0.5 0.8-1.1 1.7-1.1 0.5 0 0.9 0.2 1.2 0.7 0.4 0.7 0.3 1.7-0.2 2.7zm-119.1-21.9c-0.4 0.6-1 1.3-1.5 1.8-0.6 0.4-1 0.7-1 0.8h-0.3c-0.1-0.1-1.8-1.3-2.5-2.6-0.6-1-0.6-2-0.2-2.7 0.2-0.5 0.7-0.7 1.2-0.7 0.8 0 1.3 0.6 1.6 1.1 0.3-0.5 0.8-1.1 1.7-1.1 0.5 0 0.9 0.2 1.2 0.7 0.4 0.7 0.3 1.7-0.2 2.7zm34 0c-0.3 0.6-1 1.3-1.5 1.8-0.5 0.4-1 0.7-1 0.8h-0.3c0-0.1-1.8-1.3-2.5-2.6-0.5-1-0.6-2-0.2-2.7 0.3-0.5 0.7-0.7 1.2-0.7 0.8 0 1.4 0.6 1.7 1.1 0.2-0.5 0.8-1.1 1.6-1.1 0.5 0 0.9 0.2 1.2 0.7 0.4 0.7 0.3 1.7-0.2 2.7zm34.1 0c-0.4 0.6-1 1.3-1.6 1.8-0.5 0.4-0.9 0.7-1 0.8h-0.2c-0.1-0.1-1.8-1.3-2.6-2.6-0.5-1-0.6-2-0.2-2.7 0.3-0.5 0.7-0.7 1.2-0.7 0.9 0 1.4 0.6 1.7 1.1 0.3-0.5 0.8-1.1 1.6-1.1 0.5 0 1 0.2 1.2 0.7 0.4 0.7 0.4 1.7-0.1 2.7zm34 0c-0.4 0.6-1 1.3-1.5 1.8-0.6 0.4-1 0.7-1.1 0.8h-0.2c-0.1-0.1-1.8-1.3-2.6-2.6-0.5-1-0.5-2-0.1-2.7 0.2-0.5 0.7-0.7 1.2-0.7 0.8 0 1.3 0.6 1.6 1.1 0.3-0.5 0.8-1.1 1.7-1.1 0.5 0 0.9 0.2 1.2 0.7 0.4 0.7 0.3 1.7-0.2 2.7zm-153.1 65.5c-0.4 0.7-1 1.3-1.6 1.8-0.5 0.4-0.9 0.8-1 0.8h-0.2c-0.1 0-0.8-0.5-1.5-1.2q0.7-1.9 1.5-3.8 0 0.1 0.1 0.2c0.3-0.6 0.8-1.2 1.6-1.2 0.5 0 1 0.3 1.2 0.7 0.4 0.7 0.4 1.8-0.1 2.7zm34 0c-0.4 0.7-1 1.3-1.5 1.8-0.6 0.5-1 0.8-1 0.8h-0.3c-0.1-0.1-1.8-1.2-2.6-2.6-0.5-1-0.5-2-0.1-2.7 0.2-0.5 0.7-0.7 1.2-0.7 0.8 0 1.3 0.6 1.6 1.2 0.3-0.6 0.8-1.2 1.7-1.2 0.5 0 0.9 0.2 1.2 0.7 0.4 0.7 0.3 1.7-0.2 2.7zm34 0c-0.4 0.7-1 1.3-1.5 1.8-0.5 0.5-1 0.8-1 0.8h-0.3c-0.1-0.1-1.8-1.2-2.5-2.6-0.5-1-0.6-2-0.2-2.7 0.3-0.5 0.7-0.7 1.2-0.7 0.8 0 1.4 0.6 1.6 1.2 0.3-0.6 0.9-1.2 1.7-1.2 0.5 0 0.9 0.2 1.2 0.7 0.4 0.7 0.3 1.7-0.2 2.7zm34 0c-0.3 0.7-0.9 1.3-1.5 1.8-0.5 0.5-1 0.8-1 0.8h-0.3c0-0.1-1.8-1.2-2.5-2.6-0.5-1-0.6-2-0.2-2.7 0.3-0.5 0.7-0.7 1.2-0.7 0.9 0 1.4 0.6 1.7 1.2 0.3-0.6 0.8-1.2 1.6-1.2 0.5 0 1 0.2 1.2 0.7 0.4 0.7 0.4 1.7-0.2 2.7zm34.1 0c-0.4 0.7-1 1.3-1.6 1.8-0.5 0.5-0.9 0.8-1 0.8h-0.2c-0.1-0.1-1.8-1.2-2.6-2.6-0.5-1-0.6-2-0.1-2.7 0.2-0.5 0.6-0.7 1.1-0.7 0.9 0 1.4 0.6 1.7 1.2 0.3-0.6 0.8-1.2 1.6-1.2 0.6 0 1 0.2 1.2 0.7 0.5 0.7 0.4 1.7-0.1 2.7zm34 0c-0.4 0.7-1 1.3-1.5 1.8-0.6 0.5-1 0.8-1 0.8h-0.3c-0.1-0.1-1.8-1.2-2.5-2.6-0.6-1-0.6-2-0.2-2.7 0.2-0.5 0.7-0.7 1.2-0.7 0.8 0 1.3 0.6 1.6 1.2 0.3-0.6 0.8-1.2 1.7-1.2 0.5 0 0.9 0.2 1.2 0.7 0.4 0.7 0.3 1.7-0.2 2.7zm-153.1-21.9c-0.4 0.7-1 1.3-1.5 1.8-0.6 0.5-1 0.8-1.1 0.8h-0.2c-0.1-0.1-1.8-1.2-2.6-2.6-0.5-1-0.6-2-0.1-2.7 0.2-0.4 0.6-0.7 1.2-0.7 0.8 0 1.3 0.6 1.6 1.2 0.3-0.6 0.8-1.2 1.7-1.2 0.5 0 0.9 0.3 1.1 0.7 0.5 0.7 0.4 1.7-0.1 2.7zm34 0c-0.4 0.7-1 1.3-1.5 1.8-0.6 0.5-1 0.8-1 0.8h-0.3c-0.1-0.1-1.8-1.2-2.5-2.6-0.6-1-0.6-2-0.2-2.7 0.2-0.4 0.7-0.7 1.2-0.7 0.8 0 1.3 0.6 1.6 1.2 0.3-0.6 0.8-1.2 1.7-1.2 0.5 0 0.9 0.3 1.2 0.7 0.4 0.7 0.3 1.7-0.2 2.7zm34 0c-0.3 0.7-1 1.3-1.5 1.8-0.5 0.5-1 0.8-1 0.8h-0.3c0-0.1-1.8-1.2-2.5-2.6-0.5-1-0.6-2-0.2-2.7 0.3-0.4 0.7-0.7 1.2-0.7 0.8 0 1.4 0.6 1.7 1.2 0.2-0.6 0.8-1.2 1.6-1.2 0.5 0 0.9 0.3 1.2 0.7 0.4 0.7 0.3 1.7-0.2 2.7zm34.1 0c-0.4 0.7-1 1.3-1.6 1.8-0.5 0.5-0.9 0.8-1 0.8h-0.2c-0.1-0.1-1.8-1.2-2.6-2.6-0.5-1-0.6-2-0.2-2.7 0.3-0.4 0.7-0.7 1.2-0.7 0.9 0 1.4 0.6 1.7 1.2 0.3-0.6 0.8-1.2 1.6-1.2 0.5 0 1 0.3 1.2 0.7 0.4 0.7 0.4 1.7-0.1 2.7zm34 0c-0.4 0.7-1 1.3-1.5 1.8-0.6 0.5-1 0.8-1.1 0.8h-0.2c-0.1-0.1-1.8-1.2-2.6-2.6-0.5-1-0.5-2-0.1-2.7 0.2-0.4 0.7-0.7 1.2-0.7 0.8 0 1.3 0.6 1.6 1.2 0.3-0.6 0.8-1.2 1.7-1.2 0.5 0 0.9 0.3 1.2 0.7 0.4 0.7 0.3 1.7-0.2 2.7zm34.4-1.1v0.1q-0.1 0.5-0.4 1c-0.4 0.7-1 1.3-1.5 1.8-0.5 0.5-1 0.8-1 0.8h-0.3c-0.1-0.1-1.8-1.2-2.5-2.6-0.6-1-0.6-2-0.2-2.7 0.3-0.5 0.7-0.7 1.2-0.7 0.8 0 1.4 0.6 1.6 1.2 0.3-0.6 0.8-1.2 1.7-1.2q0.2 0 0.4 0.1zm-187.5 66.5c-0.4 0.7-1 1.4-1.6 1.8-0.5 0.5-0.9 0.8-1 0.8h-0.2c-0.1 0-1.8-1.2-2.6-2.6-0.5-0.9-0.6-2-0.2-2.7 0.3-0.4 0.7-0.6 1.2-0.6 0.9 0 1.4 0.5 1.7 1.1 0.3-0.6 0.8-1.1 1.6-1.1 0.6 0 1 0.2 1.2 0.6 0.5 0.7 0.4 1.8-0.1 2.7zm34 0c-0.4 0.7-1 1.4-1.5 1.8-0.6 0.5-1 0.8-1 0.8h-0.3c-0.1 0-1.8-1.2-2.5-2.6-0.6-0.9-0.6-2-0.2-2.7 0.2-0.4 0.7-0.6 1.2-0.6 0.8 0 1.3 0.5 1.6 1.1 0.3-0.6 0.8-1.1 1.7-1.1 0.5 0 0.9 0.2 1.2 0.6 0.4 0.7 0.3 1.8-0.2 2.7zm34 0c-0.4 0.7-1 1.4-1.5 1.8-0.5 0.5-1 0.8-1 0.8h-0.3c-0.1 0-1.8-1.2-2.5-2.6-0.5-0.9-0.6-2-0.2-2.7 0.3-0.4 0.7-0.6 1.2-0.6 0.8 0 1.4 0.5 1.6 1.1 0.3-0.6 0.9-1.1 1.7-1.1 0.5 0 0.9 0.2 1.2 0.6 0.4 0.7 0.3 1.8-0.2 2.7zm34 0c-0.3 0.7-0.9 1.4-1.5 1.8-0.5 0.5-1 0.8-1 0.8h-0.3c0 0-1.8-1.2-2.5-2.6-0.5-0.9-0.6-2-0.2-2.7 0.3-0.4 0.7-0.6 1.2-0.6 0.9 0 1.4 0.5 1.7 1.1 0.3-0.6 0.8-1.1 1.6-1.1 0.5 0 1 0.2 1.2 0.6 0.4 0.7 0.4 1.8-0.2 2.7zm34.1 0c-0.4 0.7-1 1.4-1.5 1.8-0.6 0.5-1 0.8-1.1 0.8h-0.2c-0.1 0-1.8-1.2-2.6-2.6-0.5-0.9-0.6-2-0.1-2.7 0.2-0.4 0.6-0.6 1.2-0.6 0.8 0 1.3 0.5 1.6 1.1 0.3-0.6 0.8-1.1 1.7-1.1 0.5 0 0.9 0.2 1.2 0.6 0.4 0.7 0.3 1.8-0.2 2.7zm34 0c-0.4 0.7-1 1.4-1.5 1.8-0.5 0.5-1 0.8-1 0.8h-0.3c-0.1 0-1.8-1.2-2.5-2.6-0.6-0.9-0.6-2-0.2-2.7 0.2-0.4 0.7-0.6 1.2-0.6 0.8 0 1.4 0.5 1.6 1.1 0.3-0.6 0.8-1.1 1.7-1.1 0.5 0 0.9 0.2 1.2 0.6 0.4 0.7 0.3 1.8-0.2 2.7zm-153.1-21.8c-0.4 0.6-1 1.3-1.5 1.7-0.6 0.5-1 0.8-1.1 0.8h-0.2c-0.1 0-1.8-1.2-2.6-2.6-0.5-0.9-0.6-2-0.1-2.7 0.2-0.4 0.6-0.6 1.2-0.6 0.8 0 1.3 0.5 1.6 1.1 0.3-0.6 0.8-1.1 1.7-1.1 0.5 0 0.9 0.2 1.2 0.6 0.4 0.7 0.3 1.8-0.2 2.8zm34 0c-0.4 0.6-1 1.3-1.5 1.7-0.5 0.5-1 0.8-1 0.8h-0.3c-0.1 0-1.8-1.2-2.5-2.6-0.6-0.9-0.6-2-0.2-2.7 0.3-0.4 0.7-0.6 1.2-0.6 0.8 0 1.4 0.5 1.6 1.1 0.3-0.6 0.8-1.1 1.7-1.1 0.5 0 0.9 0.2 1.2 0.6 0.4 0.7 0.3 1.8-0.2 2.8zm34 0c-0.3 0.6-1 1.3-1.5 1.7-0.5 0.5-1 0.8-1 0.8h-0.3c0 0-1.8-1.2-2.5-2.6-0.5-0.9-0.6-2-0.2-2.7 0.3-0.4 0.7-0.6 1.2-0.6 0.8 0 1.4 0.5 1.7 1.1 0.2-0.6 0.8-1.1 1.6-1.1 0.5 0 0.9 0.2 1.2 0.6 0.4 0.7 0.4 1.8-0.2 2.8zm34.1 0c-0.4 0.6-1 1.3-1.6 1.7-0.5 0.5-0.9 0.8-1 0.8h-0.2c-0.1 0-1.8-1.2-2.6-2.6-0.5-0.9-0.6-2-0.2-2.7 0.3-0.4 0.7-0.6 1.2-0.6 0.9 0 1.4 0.5 1.7 1.1 0.3-0.6 0.8-1.1 1.6-1.1 0.6 0 1 0.2 1.2 0.6 0.5 0.7 0.4 1.8-0.1 2.8zm34 0c-0.4 0.6-1 1.3-1.5 1.7-0.6 0.5-1 0.8-1 0.8h-0.3c-0.1 0-1.8-1.2-2.6-2.6-0.5-0.9-0.5-2-0.1-2.7 0.2-0.4 0.7-0.6 1.2-0.6 0.8 0 1.3 0.5 1.6 1.1 0.3-0.6 0.8-1.1 1.7-1.1 0.5 0 0.9 0.2 1.2 0.6 0.4 0.7 0.3 1.8-0.2 2.8zm34.2-2.8c-0.9 1.9-1.8 3.7-2.7 5.3h-0.3c-0.1 0-1.8-1.2-2.5-2.6-0.5-0.9-0.6-2-0.2-2.7 0.3-0.4 0.7-0.6 1.2-0.6 0.8 0 1.4 0.5 1.6 1.1 0.3-0.6 0.9-1.1 1.7-1.1 0.5 0 0.9 0.2 1.2 0.6zm-187.3 68.3c-0.4 0.7-1 1.3-1.6 1.8-0.5 0.4-0.9 0.7-1 0.8h-0.2c-0.1-0.1-1.8-1.3-2.6-2.6-0.5-1-0.6-2-0.2-2.7 0.3-0.5 0.7-0.7 1.2-0.7 0.9 0 1.4 0.6 1.7 1.2 0.3-0.6 0.8-1.2 1.6-1.2 0.6 0 1 0.2 1.2 0.7 0.5 0.7 0.4 1.7-0.1 2.7zm34 0c-0.4 0.7-1 1.3-1.5 1.8-0.6 0.4-1 0.7-1 0.8h-0.3c-0.1-0.1-1.8-1.3-2.5-2.6-0.6-1-0.6-2-0.2-2.7 0.2-0.5 0.7-0.7 1.2-0.7 0.8 0 1.3 0.6 1.6 1.2 0.3-0.6 0.8-1.2 1.7-1.2 0.5 0 0.9 0.2 1.2 0.7 0.4 0.7 0.3 1.7-0.2 2.7zm34 0c-0.4 0.7-1 1.3-1.5 1.8-0.5 0.4-1 0.7-1 0.8h-0.3c-0.1-0.1-1.8-1.3-2.5-2.6-0.5-1-0.6-2-0.2-2.7 0.3-0.5 0.7-0.7 1.2-0.7 0.8 0 1.4 0.6 1.6 1.2 0.3-0.6 0.9-1.2 1.7-1.2 0.5 0 0.9 0.2 1.2 0.7 0.4 0.7 0.3 1.7-0.2 2.7zm34 0c-0.3 0.7-0.9 1.3-1.5 1.8-0.5 0.4-1 0.7-1 0.8h-0.3c0-0.1-1.8-1.3-2.5-2.6-0.5-1-0.6-2-0.2-2.7 0.3-0.5 0.7-0.7 1.2-0.7 0.9 0 1.4 0.6 1.7 1.2 0.3-0.6 0.8-1.2 1.6-1.2 0.5 0 1 0.2 1.2 0.7 0.4 0.7 0.4 1.7-0.2 2.7zm34.1 0c-0.4 0.7-1 1.3-1.5 1.8-0.6 0.4-1 0.7-1.1 0.8h-0.2c-0.1-0.1-1.8-1.3-2.6-2.6-0.5-1-0.6-2-0.1-2.7 0.2-0.5 0.6-0.7 1.2-0.7 0.8 0 1.3 0.6 1.6 1.2 0.3-0.6 0.8-1.2 1.7-1.2 0.5 0 0.9 0.2 1.2 0.7 0.4 0.7 0.3 1.7-0.2 2.7zm34 0c-0.4 0.7-1 1.3-1.5 1.8-0.5 0.4-1 0.7-1 0.8h-0.3c-0.1-0.1-1.8-1.3-2.5-2.6-0.6-1-0.6-2-0.2-2.7 0.2-0.5 0.7-0.7 1.2-0.7 0.8 0 1.4 0.6 1.6 1.2 0.3-0.6 0.8-1.2 1.7-1.2 0.5 0 0.9 0.2 1.2 0.7 0.4 0.7 0.3 1.7-0.2 2.7zm-187.2-21.9c-0.3 0.7-0.9 1.3-1.5 1.8-0.5 0.4-1 0.7-1 0.8h-0.3c0-0.1-1.8-1.3-2.5-2.6-0.5-1-0.6-2-0.2-2.7 0.3-0.5 0.7-0.7 1.2-0.7 0.9 0 1.4 0.6 1.7 1.2 0.3-0.6 0.8-1.2 1.6-1.2 0.5 0 1 0.2 1.2 0.7 0.4 0.7 0.4 1.7-0.2 2.7zm34.1 0c-0.4 0.7-1 1.3-1.5 1.8-0.6 0.4-1 0.7-1.1 0.8h-0.2c-0.1-0.1-1.8-1.3-2.6-2.6-0.5-1-0.6-2-0.1-2.7 0.2-0.5 0.6-0.7 1.2-0.7 0.8 0 1.3 0.6 1.6 1.2 0.3-0.6 0.8-1.2 1.7-1.2 0.5 0 0.9 0.2 1.2 0.7 0.4 0.7 0.3 1.7-0.2 2.7zm34 0c-0.4 0.7-1 1.3-1.5 1.8-0.5 0.4-1 0.7-1 0.8h-0.3c-0.1-0.1-1.8-1.3-2.5-2.6-0.6-1-0.6-2-0.2-2.7 0.3-0.5 0.7-0.7 1.2-0.7 0.8 0 1.4 0.6 1.6 1.2 0.3-0.6 0.8-1.2 1.7-1.2 0.5 0 0.9 0.2 1.2 0.7 0.4 0.7 0.3 1.7-0.2 2.7zm34 0c-0.3 0.7-1 1.3-1.5 1.8-0.5 0.4-1 0.7-1 0.8h-0.3c0-0.1-1.8-1.3-2.5-2.6-0.5-1-0.6-2-0.2-2.7 0.3-0.5 0.7-0.7 1.2-0.7 0.8 0 1.4 0.6 1.7 1.2 0.2-0.6 0.8-1.2 1.6-1.2 0.5 0 0.9 0.2 1.2 0.7 0.4 0.7 0.4 1.7-0.2 2.7zm34.1 0c-0.4 0.7-1 1.3-1.6 1.8-0.5 0.4-0.9 0.7-1 0.8h-0.2c-0.1-0.1-1.8-1.3-2.6-2.6-0.5-1-0.6-2-0.2-2.7 0.3-0.5 0.7-0.7 1.2-0.7 0.9 0 1.4 0.6 1.7 1.2 0.3-0.6 0.8-1.2 1.6-1.2 0.6 0 1 0.2 1.2 0.7 0.5 0.7 0.4 1.7-0.1 2.7zm34 0c-0.4 0.7-1 1.3-1.5 1.8-0.6 0.4-1 0.7-1 0.8h-0.3c-0.1-0.1-1.8-1.3-2.6-2.6-0.5-1-0.5-2-0.1-2.7 0.2-0.5 0.7-0.7 1.2-0.7 0.8 0 1.3 0.6 1.6 1.2 0.3-0.6 0.8-1.2 1.7-1.2 0.5 0 0.9 0.2 1.2 0.7 0.4 0.7 0.3 1.7-0.2 2.7zm28.9 0.3q-0.1-0.1-0.2-0.3c-0.5-0.9-0.6-1.8-0.3-2.5zm-216 65.2c-0.4 0.7-1 1.4-1.6 1.8-0.5 0.5-0.9 0.8-1 0.8h-0.3c0 0-0.4-0.3-1-0.8 0.2-1.3 0.4-2.8 0.8-4.6q0.2 0.3 0.4 0.6c0.3-0.6 0.8-1.2 1.6-1.2 0.6 0 1 0.3 1.2 0.7 0.5 0.7 0.4 1.8-0.1 2.7zm34 0c-0.4 0.7-1 1.4-1.5 1.8-0.6 0.5-1 0.8-1.1 0.8h-0.2c-0.1 0-1.8-1.2-2.6-2.6-0.5-0.9-0.5-2-0.1-2.7 0.2-0.4 0.7-0.7 1.2-0.7 0.8 0 1.3 0.6 1.6 1.2 0.3-0.6 0.8-1.2 1.7-1.2 0.5 0 0.9 0.3 1.2 0.7 0.4 0.7 0.3 1.8-0.2 2.7zm34 0c-0.4 0.7-1 1.4-1.5 1.8-0.5 0.5-1 0.8-1 0.8h-0.3c-0.1 0-1.8-1.2-2.5-2.6-0.5-0.9-0.6-2-0.2-2.7 0.3-0.4 0.7-0.7 1.2-0.7 0.8 0 1.4 0.6 1.6 1.2 0.3-0.6 0.9-1.2 1.7-1.2 0.5 0 0.9 0.3 1.2 0.7 0.4 0.7 0.3 1.8-0.2 2.7zm34 0c-0.3 0.7-0.9 1.4-1.5 1.8-0.5 0.5-1 0.8-1 0.8h-0.3c0 0-1.8-1.2-2.5-2.6-0.5-0.9-0.6-2-0.2-2.7 0.3-0.4 0.7-0.7 1.2-0.7 0.9 0 1.4 0.6 1.7 1.2 0.3-0.6 0.8-1.2 1.6-1.2 0.5 0 1 0.3 1.2 0.7 0.4 0.7 0.4 1.8-0.2 2.7zm34.1 0c-0.4 0.7-1 1.4-1.6 1.8-0.5 0.5-0.9 0.8-1 0.8h-0.2c-0.1 0-1.8-1.2-2.6-2.6-0.5-0.9-0.6-2-0.1-2.7 0.2-0.4 0.6-0.7 1.1-0.7 0.9 0 1.4 0.6 1.7 1.2 0.3-0.6 0.8-1.2 1.6-1.2 0.6 0 1 0.3 1.2 0.7 0.5 0.7 0.4 1.8-0.1 2.7zm34 0c-0.4 0.7-1 1.4-1.5 1.8-0.6 0.5-1 0.8-1 0.8h-0.3c-0.1 0-1.8-1.2-2.5-2.6-0.6-0.9-0.6-2-0.2-2.7 0.2-0.4 0.7-0.7 1.2-0.7 0.8 0 1.3 0.6 1.6 1.2 0.3-0.6 0.8-1.2 1.7-1.2 0.5 0 0.9 0.3 1.2 0.7 0.4 0.7 0.3 1.8-0.2 2.7zm34 0c-0.3 0.7-1 1.4-1.5 1.8-0.5 0.5-1 0.8-1 0.8h-0.3c-0.1 0-1.8-1.2-2.5-2.6-0.5-0.9-0.6-2-0.2-2.7 0.3-0.4 0.7-0.7 1.2-0.7 0.8 0 1.4 0.6 1.7 1.2 0.2-0.6 0.8-1.2 1.6-1.2 0.5 0 0.9 0.3 1.2 0.7 0.4 0.7 0.3 1.8-0.2 2.7zm-187.1-21.9c-0.4 0.7-1 1.4-1.5 1.8-0.6 0.5-1 0.8-1.1 0.8h-0.2c-0.1 0-1.8-1.2-2.6-2.6-0.5-0.9-0.6-2-0.1-2.7 0.2-0.4 0.6-0.7 1.1-0.7 0.9 0 1.4 0.6 1.7 1.2 0.3-0.6 0.8-1.2 1.6-1.2 0.6 0 1 0.3 1.2 0.7 0.5 0.7 0.4 1.8-0.1 2.7zm34 0c-0.4 0.7-1 1.4-1.5 1.8-0.6 0.5-1 0.8-1 0.8h-0.3c-0.1 0-1.8-1.2-2.5-2.6-0.6-0.9-0.6-2-0.2-2.7 0.2-0.4 0.7-0.7 1.2-0.7 0.8 0 1.3 0.6 1.6 1.2 0.3-0.6 0.8-1.2 1.7-1.2 0.5 0 0.9 0.3 1.2 0.7 0.4 0.7 0.3 1.8-0.2 2.7zm34 0c-0.3 0.7-1 1.4-1.5 1.8-0.5 0.5-1 0.8-1 0.8h-0.3c-0.1 0-1.8-1.2-2.5-2.6-0.5-0.9-0.6-2-0.2-2.7 0.3-0.4 0.7-0.7 1.2-0.7 0.8 0 1.4 0.6 1.7 1.2 0.2-0.6 0.8-1.2 1.6-1.2 0.5 0 0.9 0.3 1.2 0.7 0.4 0.7 0.3 1.8-0.2 2.7zm34.1 0c-0.4 0.7-1 1.4-1.6 1.8-0.5 0.5-0.9 0.8-1 0.8h-0.2c-0.1 0-1.8-1.2-2.6-2.6-0.5-0.9-0.6-2-0.2-2.7 0.3-0.4 0.7-0.7 1.2-0.7 0.9 0 1.4 0.6 1.7 1.2 0.3-0.6 0.8-1.2 1.6-1.2 0.5 0 1 0.3 1.2 0.7 0.4 0.7 0.4 1.8-0.1 2.7zm34 0c-0.4 0.7-1 1.4-1.5 1.8-0.6 0.5-1 0.8-1.1 0.8h-0.2c-0.1 0-1.8-1.2-2.6-2.6-0.5-0.9-0.5-2-0.1-2.7 0.2-0.4 0.7-0.7 1.2-0.7 0.8 0 1.3 0.6 1.6 1.2 0.3-0.6 0.8-1.2 1.7-1.2 0.5 0 0.9 0.3 1.2 0.7 0.4 0.7 0.3 1.8-0.2 2.7zm34 0c-0.4 0.7-1 1.4-1.5 1.8-0.5 0.5-1 0.8-1 0.8h-0.3c-0.1 0-1.8-1.2-2.5-2.6-0.5-0.9-0.6-2-0.2-2.7 0.3-0.4 0.7-0.7 1.2-0.7 0.8 0 1.4 0.6 1.6 1.2 0.3-0.6 0.9-1.2 1.7-1.2 0.5 0 0.9 0.3 1.2 0.7 0.4 0.7 0.3 1.8-0.2 2.7zm34 0c-0.3 0.7-0.9 1.4-1.5 1.8-0.5 0.5-1 0.8-1 0.8h-0.3c0 0-1.8-1.2-2.5-2.6-0.5-0.9-0.6-2-0.2-2.7 0.3-0.4 0.7-0.7 1.2-0.7 0.9 0 1.4 0.6 1.7 1.2 0.3-0.6 0.8-1.2 1.6-1.2 0.5 0 1 0.3 1.2 0.7 0.4 0.7 0.4 1.8-0.2 2.7z"/>
						<path id="&lt;Path&gt;" class="s3" d="m542.7 597.2c-2.2-9-7.2-17.1-11.6-25.1-4.6-8.5-9.4-16.8-14.4-25.1q-0.3-0.4-0.5-0.8c-0.9-2.7-2.1-5.3-3.1-7.8-1.2-3.3-2.6-6.5-3.9-9.8 0-0.1-0.2-0.1-0.2 0 1.1 3.5 2.1 6.9 3.3 10.2q0.5 1.3 1 2.6-2.5-4.1-5.1-8.2c-3-4.6-6.1-9.1-9-13.7-0.1-0.1-0.3 0-0.2 0.1 4.7 8.1 9.3 16.3 14 24.4 4.7 8.1 9.4 16.3 13.8 24.6q3.3 6.2 6.4 12.4c1.9 4 3.9 8 5.3 12.1 2.9 8.3 2.8 16.6 0.2 24.9-2.9 9.2-8 17.5-12.8 25.7-0.2 0.3 0.3 0.7 0.6 0.4 10.1-13.4 20.4-29.3 16.2-46.9z"/>
					</g>
					<g id="&lt;Group&gt;">
						<g id="&lt;Group&gt;">
							<path id="&lt;Path&gt;" class="s8" d="m632.1 748.1c-14.9 20.7-54.8 24-154.4 41.8-13.8 2.4-57.4-90.2-42.8-93.6 18.4-4.2 90.6-16.8 96-17.1 45.5-2.1 111.4 54.9 101.2 68.9z"/>
							<g id="&lt;Group&gt;">
								<path id="&lt;Path&gt;" class="s8" d="m454.9 692.1c0 0-42.2 5.7-63.4 15.5-28.5 13.2-47.6 36.3-55.1 46.4-15.5 21.2-38.3 83.2-21.6 92.9 15.1 8.8 35.2-55.8 35.2-55.8 0 0-31.4 62.4-11.2 69.6 20.1 7.3 39.3-69 39.3-69 0 0-30.9 64.9-8.9 69 16.6 3.2 37.8-64.9 37.8-64.9 0 0-26.1 55.9-9.2 59.9 18.7 4.4 42.2-57.2 42.2-57.2 44.8 2.8 67.2-14.1 81.8-28 3.5-3.4-66.9-78.4-66.9-78.4z"/>
								<g id="&lt;Group&gt;">
									<path id="&lt;Path&gt;" class="s3" d="m359.5 768.8c-3.9 7.2-8 14.5-11.3 22-3.3 7.5-6.3 15.2-8.9 23-6.4 19.1-7.4 32.1-7.2 31.3 3.5-18.8 14.9-45.9 18.2-53.4 3.3-7.5 6.2-15.2 9.5-22.7 0.1-0.2-0.2-0.3-0.3-0.2z"/>
									<path id="&lt;Path&gt;" class="s3" d="m386.9 780.3c-4.6 9.4-9.6 18.6-13.8 28.2-4.3 9.5-7.4 19-11 28.8-0.3 0.8 0.2 0.7 0.5-0.1 4-9.7 8.4-18.3 12.4-27.9 4.1-9.6 7.8-19.5 12.1-28.9 0.1-0.2-0.1-0.3-0.2-0.1z"/>
									<path id="&lt;Path&gt;" class="s3" d="m412.2 785.9c-7.9 14-13.1 29.4-17.9 44.7-0.3 0.8 0.4 0.6 0.7-0.2 5.6-15 10-26.8 17.7-44.3 0.1-0.2-0.4-0.5-0.5-0.2z"/>
								</g>
							</g>
						</g>
						<path id="&lt;Path&gt;" class="s3" d="m574.9 690.4c-6.6-4.2-25.4-14-43.8-11.3-0.3 0-0.3 0.3 0 0.3 15.2-0.1 36.9 7.7 43.6 11.3 0.2 0.1 0.3-0.2 0.2-0.3z"/>
					</g>
				</g>
				<g id="&lt;Group&gt;">
					<g id="&lt;Group&gt;">
						<g id="&lt;Group&gt;">
							<g id="&lt;Group&gt;">
								<path id="&lt;Path&gt;" class="s8" d="m436.8 487c1 3.8 20.1 28.3 37.7 27 5.8-0.4 4.8-31.8 4.8-31.8l0.5-2.3 6.3-32.7-38.8-23.5-5.6-3c0 0-1.2 9-2.5 20.3q-0.1 0.8-0.2 1.6-0.1 1-0.2 1.8-0.4 2.6-0.6 5.2c-0.2 1.3-0.3 2.5-0.4 3.9-0.2 1.4-0.3 2.7-0.4 4.1-1 13.7-1 27.7-0.6 29.4z"/>
								<path id="&lt;Path&gt;" class="s3" d="m439.2 441c10 25.6 31 35.6 40.6 38.9l6.3-32.7-38.8-23.5-5.6-3c0 0-1.2 9-2.5 20.3z"/>
							</g>
							<g id="&lt;Group&gt;">
								<path id="&lt;Path&gt;" class="s8" d="m534.4 391.5c9.5 57.6-24 69.8-36.4 71.8-11.3 1.8-50 6.7-65.4-49.7-15.3-56.4 8.6-79 34.2-84.6 25.6-5.6 58.2 4.8 67.6 62.5z"/>
								<g id="&lt;Group&gt;">
									<path id="&lt;Path&gt;" class="s3" d="m520.7 379.8c-1.3 0-2.6-0.2-4-0.4-1.5-0.2-2.8-0.1-4-1.2-0.7-0.5-0.7-1.8-0.3-2.5 1.2-1.6 3.1-1.9 5-1.8 2 0.2 3.5 0.8 5 2.2 1.4 1.3 0.2 3.7-1.7 3.7z"/>
									<path id="&lt;Path&gt;" class="s3" d="m483.4 384.2c1.3-0.3 2.5-0.8 3.8-1.2 1.5-0.5 2.7-0.8 3.7-2.1 0.5-0.6 0.3-1.9-0.3-2.5-1.5-1.3-3.4-1.1-5.2-0.6-1.9 0.6-3.3 1.5-4.4 3.2-1.1 1.6 0.6 3.6 2.4 3.2z"/>
									<g id="&lt;Group&gt;">
										<g id="&lt;Group&gt;">
											<path id="&lt;Path&gt;" class="s3" d="m492.8 398c-0.1-0.1-0.3 0.3-0.3 0.4 0.7 3.9 0.7 8.6-2.6 10.3-0.1 0.1-0.1 0.3 0 0.3 4.3-1.2 4.1-7.4 2.9-11z"/>
											<path id="&lt;Path&gt;" class="s3" d="m488.7 394.4c-6.4 0.4-5.2 13.2 0.7 12.8 5.9-0.3 4.6-13.1-0.7-12.8z"/>
										</g>
										<path id="&lt;Path&gt;" class="s3" d="m486.2 395.3c-1 0.8-2 2.2-3.3 2.5-1.6 0.3-2.9-0.9-4-2.1-0.1-0.2-0.2 0-0.2 0.1 0.2 2.5 1.4 4.9 4 5 2.5 0.1 4-2.2 4.3-4.7 0.1-0.5-0.3-1.1-0.8-0.8z"/>
									</g>
									<g id="&lt;Group&gt;">
										<g id="&lt;Group&gt;">
											<path id="&lt;Path&gt;" class="s3" d="m515.4 394.2c0-0.2 0.4 0.1 0.4 0.3 0.2 4 1.1 8.5 4.8 9.5 0.1 0 0.1 0.2 0 0.2-4.4-0.2-5.6-6.2-5.2-10z"/>
											<path id="&lt;Path&gt;" class="s3" d="m518.6 389.7c6.3-1 8 11.7 2.1 12.7-5.8 0.9-7.4-11.8-2.1-12.7z"/>
										</g>
										<path id="&lt;Path&gt;" class="s3" d="m521.4 390.2c1.1 0.6 2.2 1.7 3.4 1.6 1.4-0.1 2.3-1.6 3-3.1 0.1-0.1 0.2 0 0.2 0.2 0.4 2.4-0.1 5-2.4 5.8-2 0.7-3.9-1.2-4.8-3.6-0.1-0.4 0.1-1.1 0.6-0.9z"/>
									</g>
									<path id="&lt;Path&gt;" class="s3" d="m493.9 429.4c1 0.9 2 2.1 3.5 2.1 1.4 0.1 3-0.6 4.2-1.2 0.1 0 0.3 0.1 0.2 0.2-1 1.6-3.1 2.7-5 2.4-1.8-0.2-2.7-1.7-3.3-3.3 0-0.2 0.3-0.3 0.4-0.2z"/>
									<g id="&lt;Group&gt;">
										<path id="&lt;Path&gt;" class="s3" d="m510.7 412.5c0 0 1.4 5.8 1.7 8.6 0 0.3-8.4 3.1-15.1-2.9-0.3-0.3 0.1-0.6 0.3-0.5 4 2.3 8.2 2.6 12.6 2.2 0.1-0.8-2.9-9.9-2.4-10 1.5-0.3 4.6 0.4 6.5 0.8-2.7-12.3-7.3-24.1-9.8-36.3-0.1-0.5 0.5-0.7 0.7-0.3 5.7 12 9.1 26 12.2 38.6 0.4 1.6-5.6 0.1-6.7-0.2z"/>
									</g>
									<g id="&lt;Group&gt;">
										<path id="&lt;Path&gt;" class="s3" d="m508.6 421.2c0 0-2.2 3.6-5.4 5-1.2 0.6-2.5 0.9-4 0.6-2.9-0.5-3.2-3.1-2.9-5.4 0.3-1.9 1-3.5 1-3.5 0 0 4.5 3.5 11.3 3.3z"/>
										<path id="&lt;Path&gt;" class="s10" d="m503.2 426.2c-1.2 0.6-2.5 0.9-4 0.6-2.9-0.5-3.2-3.1-2.9-5.4 3.1 0.1 6.3 1.9 6.9 4.8z"/>
									</g>
								</g>
								<g id="&lt;Group&gt;">
									<g id="&lt;Group&gt;">
										<path id="&lt;Path&gt;" class="s3" d="m434.4 410.7c11 0.9 12.9-24.3 12.9-24.3 0 0 46.5-9.8 49-48 0 0 9 24 33.9 34 0 0-3.2-41.7-36.7-48.6 0 0-41.7-13.4-63.5 20.1-21.9 33.5-3 66.1 4.4 66.8z"/>
									</g>
									<path id="&lt;Path&gt;" class="s3" d="m496.4 335.5c0.8 5.8 0.2 11.8-1.5 17.5-1.6 5.7-4.4 11.2-8.2 15.8-0.9 1.2-2.1 2.1-3.1 3.2l-1.5 1.6q-0.9 0.8-1.8 1.4c-1.1 0.9-2.3 1.9-3.5 2.8q-1.9 1.1-3.8 2.2c-0.7 0.4-1.3 0.8-2 1.1l-2 0.9-4 1.7c-2.8 0.9-5.7 1.7-8.5 2.4 2.6-1.3 5.4-2.3 7.9-3.6l3.9-2 1.8-1c0.7-0.4 1.2-0.8 1.8-1.2q1.8-1.3 3.6-2.4c1.1-0.9 2.1-1.9 3.2-2.8l1.6-1.3 1.5-1.6c0.9-1 2-2 2.8-3.1 3.7-4.3 6.4-9.4 8.4-14.7 1-2.7 1.8-5.4 2.3-8.3 0.6-2.8 0.9-5.6 1.1-8.6z"/>
								</g>
								<g id="&lt;Group&gt;">
									<g id="&lt;Group&gt;">
										<path id="&lt;Path&gt;" class="s8" d="m442.5 414.5c0 0-14.1-17.2-22-12-7.9 5.1 3.7 30.8 13.6 33.6 10 2.9 12.8-6.2 12.8-6.2z"/>
										<path id="&lt;Path&gt;" class="s3" d="m424 409.7c-0.1 0-0.1 0.3 0 0.3 7 2.2 11.1 8.3 14.1 14.6-2.3-2.4-5.1-3.5-8.3-0.9-0.2 0.2 0 0.4 0.2 0.4 2.7-0.8 4.8-0.5 6.8 1.6 1.5 1.5 2.6 3.4 3.6 5.2 0.4 0.5 1.5 0.1 1.2-0.6q0 0-0.1-0.1c-0.5-8.7-8.1-20.3-17.5-20.5z"/>
									</g>
									<g id="&lt;Group&gt;">
										<path id="&lt;Path&gt;" class="s1" d="m439.6 433.1c0 1.3-1 2.4-2.4 2.4-1.3 0-2.3-1.1-2.3-2.4 0-1.3 1-2.3 2.3-2.3 1.4 0 2.4 1 2.4 2.3z"/>
										<path id="&lt;Path&gt;" class="s1" d="m433.8 429.2c0 1-0.8 1.8-1.7 1.8-1 0-1.7-0.8-1.7-1.8 0-0.9 0.7-1.7 1.7-1.7 0.9 0 1.7 0.8 1.7 1.7z"/>
									</g>
									<path id="&lt;Path&gt;" class="s7" d="m420.4 409.1l-3.6-0.3c-0.6-0.1-1.1-0.6-1.1-1.3v-0.1c0.1-0.7 0.7-1.1 1.3-1.1l3.6 0.3c0.7 0.1 1.2 0.7 1.1 1.3v0.1c0 0.7-0.6 1.2-1.3 1.1z"/>
									<path id="&lt;Path&gt;" class="s7" d="m420.6 412.7l-3.6 0.5c-0.7 0.1-1.3-0.4-1.4-1v-0.1c-0.1-0.7 0.4-1.3 1.1-1.4l3.5-0.4c0.7-0.1 1.3 0.3 1.4 1v0.1c0.1 0.7-0.4 1.3-1 1.3z"/>
								</g>
								<g id="&lt;Group&gt;">
									<path id="&lt;Compound Path&gt;" fill-rule="evenodd" class="s7" d="m439.9 383.6l-7.2 12-17-15.4 3.3-5.3zm-5.3 1.9l-13.7-6.6-0.8 1.3 11.9 9.5z"/>
									<path id="&lt;Compound Path&gt;" fill-rule="evenodd" class="s7" d="m443.4 365.4l-2.2 13.7-21.5-7.8 1.1-6.1zm-4.2 3.7l-15.2-1-0.2 1.5 14.6 4.3z"/>
								</g>
							</g>
						</g>
					</g>
					<g id="&lt;Group&gt;">
						<path id="&lt;Path&gt;" class="s3" d="m441.7 330.7c4.5-1.7 8.7-26.5-7.6-38.4-16.2-11.7-37.4 1.7-28.6 22.1 5.6 12.9 26.8 19.8 36.2 16.3z"/>
						<path id="&lt;Path&gt;" class="s3" d="m411.2 290.8c-5 4.1-8.2 9.9-9.4 15.8-1.3 6 0.5 12.1 4.9 16.1 4.3 4.1 10.2 6.5 16.3 7.9 3 0.7 6.2 1.1 9.3 1.1 3.2 0.2 6.4 0 9.4-1-2.7 1.8-6.1 2.3-9.3 2.8-3.3 0.3-6.6 0.3-9.9-0.2-6.5-0.9-13.2-3.3-18.2-8.1-2.5-2.4-4.5-5.5-5.4-8.9-0.9-3.4-0.8-7 0.2-10.3 1.8-6.6 6.3-12.2 12.1-15.2z"/>
					</g>
				</g>
				<g id="&lt;Group&gt;">
					<g id="&lt;Group&gt;">
						<g id="&lt;Group&gt;">
							<g id="&lt;Group&gt;">
								<path id="&lt;Path&gt;" class="s7" d="m589.4 558.6l27.8-3.8-10.8-80.6-35.3 4.8z"/>
								<path id="&lt;Path&gt;" class="s7" d="m571.1 479l7 30.3 11.3 49.3 27.8-3.8-10.8-80.6z"/>
								<path id="&lt;Path&gt;" class="s9" d="m571.1 479l7 30.3 32.4-4.3-4.1-30.8z"/>
							</g>
							<path id="&lt;Path&gt;" class="s7" d="m569.5 491.3l43.8-5.9-4.5-33.3-43.8 5.9z"/>
						</g>
						<g id="&lt;Group&gt;">
							<g id="&lt;Group&gt;">
								<path id="&lt;Path&gt;" class="s7" d="m534 449.8l34.5-1.2-7.3-53.9-33.6 8z"/>
							</g>
							<path id="&lt;Path&gt;" class="s7" d="m577.3 381.7l10.7 79.5 58.1-0.8 139.4 30.9-25.8-190.9-126.2 66.8z"/>
							<path id="&lt;Path&gt;" class="s7" d="m744.9 399.6c7.1 53 26.7 94.1 43.7 91.8 17.1-2.3 25.1-47.2 17.9-100.1-7.1-53-26.7-94.1-43.8-91.8-17 2.3-25 47.1-17.8 100.1z"/>
							<path id="&lt;Path&gt;" class="s11" d="m751.8 397c6.4 47 22.8 83.6 36.8 81.7 13.9-1.9 20.1-41.5 13.7-88.6-6.3-47-22.8-83.6-36.7-81.7-14 1.9-20.1 41.5-13.8 88.6z"/>
							<path id="&lt;Path&gt;" class="s7" d="m755.9 396.4c0.9 6.3 1.9 12.3 3.1 18.2 3.6 2.2 8 3.2 12.6 2.6 10.5-1.4 17.9-11.1 16.4-21.6l-1.2-9c-1.4-10.6-11.1-17.9-21.6-16.5-4.5 0.6-8.4 2.7-11.3 5.7 0.4 6.7 1.1 13.6 2 20.6z"/>
							<g id="&lt;Group&gt;">
								<path id="&lt;Path&gt;" class="s7" d="m557.8 469.8l66.7-2.3-14-104.2-65 15.5z"/>
								<path id="&lt;Path&gt;" class="s11" d="m557.8 469.8l66.7-2.3-14-104.2-65 15.5z"/>
							</g>
							<path id="&lt;Path&gt;" class="s11" d="m752.5 314.6c-4 6.1-5.9 13.3-7.5 20.4-1.4 7.1-2.3 14.3-2.6 21.6-0.2 3.6-0.1 7.2-0.2 10.9 0.2 3.6 0.2 7.2 0.4 10.9 0.3 3.6 0.5 7.2 0.9 10.8 0.5 3.6 0.8 7.2 1.3 10.8 2.1 14.4 4.9 28.7 9.6 42.5 2.4 6.8 5.1 13.6 8.6 20 3.7 6.2 7.9 12.4 13.8 16.7-5.6-4.6-9.6-10.9-12.9-17.2-3.3-6.4-5.8-13.2-8-20-4.3-13.8-7.2-28-9-42.3-2.1-14.2-3.3-28.7-2.9-43.1 0.1-7.2 0.8-14.4 2-21.5 1.2-7 2.9-14.2 6.5-20.5z"/>
						</g>
						<g id="&lt;Group&gt;">
							<path id="&lt;Path&gt;" class="s3" d="m822.4 301c-4.1 2.9-8 6.1-11.9 9.2-3.9 3.2-7.7 6.5-11.4 9.8-3.8 3.3-7.5 6.6-11.2 10.1l-5.4 5.2c-1.7 1.8-3.6 3.5-5.3 5.4 2.1-1.5 4-3 6-4.6l5.9-4.7c3.9-3.1 7.7-6.4 11.5-9.7 3.7-3.3 7.4-6.7 11.1-10.1 3.6-3.5 7.2-7 10.7-10.6z"/>
							<path id="&lt;Path&gt;" class="s3" d="m788.5 446.4c5.4 1.6 10.9 3 16.4 4.4 5.5 1.4 11 2.6 16.5 3.8 5.5 1.2 11.1 2.3 16.6 3.3l8.4 1.5c2.8 0.4 5.6 0.9 8.4 1.2-2.7-0.8-5.5-1.5-8.2-2.3l-8.2-2.1c-5.5-1.4-11-2.6-16.5-3.8-5.5-1.2-11.1-2.3-16.6-3.3-5.6-1-11.2-2-16.8-2.7z"/>
							<path id="&lt;Path&gt;" class="s3" d="m893.3 430.9c-8.3-1-16.5-1.8-24.8-2.5-8.3-0.7-16.6-1.2-24.9-1.8-8.2-0.5-16.5-1-24.8-1.3l-12.5-0.4c-4.1-0.1-8.3-0.3-12.5-0.3 4.2 0.5 8.3 0.9 12.4 1.4l12.4 1.1c8.3 0.7 16.6 1.2 24.9 1.8 8.3 0.5 16.6 1 24.9 1.3 8.3 0.3 16.6 0.6 24.9 0.7z"/>
							<path id="&lt;Path&gt;" class="s3" d="m868.6 304.5c-7.2 4.3-14.4 8.7-21.5 13.2-7.1 4.5-14.2 9.2-21.2 13.8-7 4.7-14 9.4-20.9 14.2l-10.3 7.2c-3.4 2.5-6.9 5-10.3 7.5 3.7-2.1 7.3-4.4 10.9-6.5l10.7-6.7c7.1-4.5 14.1-9.2 21.2-13.8 7-4.7 14-9.4 20.9-14.2 6.9-4.8 13.8-9.7 20.5-14.7z"/>
							<path id="&lt;Path&gt;" class="s3" d="m791.8 392.5c9.7-0.9 19.4-2.1 29-3.3 9.7-1.3 19.3-2.7 28.9-4 9.6-1.5 19.3-2.9 28.8-4.4l14.4-2.5c4.8-0.8 9.6-1.7 14.4-2.6-4.9 0.4-9.7 1-14.5 1.5l-14.5 1.8c-9.7 1.2-19.3 2.7-28.9 4-9.6 1.5-19.3 2.8-28.8 4.4-9.6 1.6-19.2 3.2-28.8 5.1z"/>
						</g>
					</g>
					<g id="&lt;Group&gt;">
						<path id="&lt;Path&gt;" class="s8" d="m383.9 526.6c-30.3 49.6-81.5 156.6-62.1 195.5 18.8 37.5 208.3-65.3 232.3-83.9 10.5-8.1-38.4-104.3-50.3-96.7-16 10.2-93.4 73.3-95.1 73.6-3.6 0.7 7.2-35 14.5-79.1 10.6-64.3-17.5-45-39.3-9.4z"/>
						<g id="&lt;Group&gt;">
							<path id="&lt;Path&gt;" class="s8" d="m630.4 502.2c7.1 8.4 1.1 18 1.1 18 0 0 8.4 2.4 12.6 9.7 4.8 8.4-6.2 19.6-6.2 19.6 0 0 8 4.2 11.6 12.3 3.8 8.5-5.7 21.4-5.7 21.4 0 0 5.3 8 3.4 17.3-3.3 15.9-26.5 24.7-41.3 30.2-21.9 8.2-61.8 7.9-70.7 9.2l-37.1-94.3c0 0 58.9-44.1 77.2-48.3 15.3-3.5 47.2-4.5 55.1 4.9z"/>
							<g id="&lt;Group&gt;">
								<path id="&lt;Path&gt;" class="s3" d="m630.3 518.9c-17.3-0.2-33.7 4.8-50.3 8.8-0.4 0.1-0.2 0.6 0.1 0.5 16.5-4.1 33.6-5 50.2-8.5 0.5-0.1 0.4-0.8 0-0.8z"/>
								<path id="&lt;Path&gt;" class="s3" d="m637.1 548.3c-3.9 0.1-7.8 1.5-11.5 2.6q-6 1.7-11.9 3.7-11.9 3.9-23.6 8.4c-0.4 0.2-0.2 0.7 0.1 0.6 7.9-2.6 15.9-5.1 23.9-7.3q6-1.7 12-3.3c3.8-1 7.8-1.7 11.3-3.6 0.5-0.2 0.3-1.1-0.3-1.1z"/>
								<path id="&lt;Path&gt;" class="s3" d="m643.5 583.3c-3.4-0.1-7.1 1.7-10.3 2.8q-5.3 1.9-10.7 3.7c-7.2 2.5-14.5 4.9-21.7 7.1-0.4 0.1-0.3 0.7 0.1 0.6 7.4-2.2 14.9-4.3 22.3-6.6q5.4-1.6 10.8-3.3c3.1-1 7.1-1.9 9.6-4 0.1-0.1 0-0.3-0.1-0.3z"/>
							</g>
						</g>
						<path id="&lt;Path&gt;" class="s3" d="m456.9 691.3c-12.2 6-24.6 11.7-37.3 16.9-12.5 5.1-25.3 9.7-38.2 13.8-7.2 2.3-14.5 4.5-21.9 6.4-0.2 0.1-0.1 0.4 0.1 0.3 13.4-2.6 26.7-5.9 39.6-10.3q9.7-3.3 19.1-7.2c6.2-2.6 12.5-5.3 18.5-8.3 6.9-3.6 13.7-7.2 20.4-11.2 0.2-0.2 0-0.5-0.3-0.4z"/>
						<path id="&lt;Path&gt;" class="s3" d="m591.9 634.2c-14.6 4-38 2.9-38.2 3.1-4.4 3.9-22.6 15.7-27.3 18.3-0.2 0.1 0 0.4 0.2 0.3 10-4.6 22.6-11.4 27.8-16.5 20.8 0.7 31.1-2.8 37.6-4.7 0.4-0.2 0.4-0.6-0.1-0.5z"/>
					</g>
					<g id="&lt;Group&gt;">
						<path id="&lt;Path&gt;" class="s7" d="m320.9 607.3l93.1 3.2c0 0 13.4-67.6 12.7-103.9-0.4-20.4-12.3-19.5-25.5-6.8-46.4 44.8-80.3 107.5-80.3 107.5z"/>
						<path id="&lt;Compound Path&gt;" fill-rule="evenodd" class="s1" d="m382.3 519.6q-0.1 0.5-0.3 0.9c-0.4 0.7-1 1.3-1.5 1.8-0.6 0.5-1 0.8-1.1 0.8h-0.1q1.5-1.7 3-3.5zm33.7 0.9c-0.4 0.7-1 1.3-1.5 1.8-0.5 0.5-1 0.8-1 0.8h-0.3c-0.1 0-1.8-1.2-2.5-2.6-0.5-0.9-0.6-2-0.2-2.7 0.3-0.4 0.7-0.7 1.2-0.7 0.8 0 1.4 0.6 1.6 1.2 0.3-0.6 0.9-1.2 1.7-1.2 0.5 0 0.9 0.3 1.2 0.7 0.4 0.7 0.3 1.8-0.2 2.7zm-67.8 43.2q-0.1 0.2-0.2 0.5c-0.3 0.4-0.7 0.9-1.1 1.3q0.6-0.9 1.3-1.8zm33.8 0.5c-0.4 0.6-1 1.3-1.5 1.8-0.6 0.4-1 0.7-1 0.7h-0.3c-0.1 0-1.8-1.2-2.6-2.5-0.5-1-0.5-2.1-0.1-2.7 0.2-0.5 0.7-0.7 1.2-0.7 0.8 0 1.3 0.6 1.6 1.1 0.3-0.5 0.8-1.1 1.7-1.1 0.5 0 0.9 0.2 1.2 0.7 0.4 0.7 0.3 1.7-0.2 2.7zm34 0c-0.4 0.6-1 1.3-1.5 1.8-0.5 0.4-1 0.7-1 0.7h-0.3c-0.1 0-1.8-1.2-2.5-2.5-0.5-1-0.6-2.1-0.2-2.7 0.3-0.5 0.7-0.7 1.2-0.7 0.8 0 1.4 0.6 1.6 1.1 0.3-0.5 0.9-1.1 1.7-1.1 0.5 0 0.9 0.2 1.2 0.7 0.4 0.7 0.3 1.7-0.2 2.7zm-50.6-24c0.1 0.6-0.1 1.4-0.4 2.1-0.4 0.6-1 1.3-1.5 1.7-0.6 0.5-1 0.8-1.1 0.9h-0.2q-0.1-0.1-0.3-0.2 1.7-2.3 3.5-4.5zm33.6 2.1c-0.4 0.6-1 1.3-1.5 1.8-0.6 0.4-1 0.7-1 0.8h-0.3c-0.1-0.1-1.8-1.3-2.5-2.6-0.6-1-0.6-2-0.2-2.7 0.2-0.5 0.7-0.7 1.2-0.7 0.8 0 1.3 0.6 1.6 1.1 0.3-0.5 0.8-1.1 1.7-1.1 0.5 0 0.9 0.2 1.2 0.7 0.4 0.7 0.3 1.7-0.2 2.7zm-51 65.5q-0.2 0.2-0.3 0.4l-4.9-0.1q-0.1-0.2-0.2-0.3c-0.5-0.9-0.6-2-0.2-2.7 0.3-0.4 0.7-0.7 1.2-0.7 0.9 0 1.4 0.6 1.7 1.2 0.3-0.6 0.8-1.2 1.6-1.2 0.5 0 1 0.3 1.2 0.7 0.4 0.7 0.4 1.8-0.1 2.7zm34 0c-0.3 0.6-0.8 1.1-1.3 1.6l-2.9-0.1c-0.4-0.4-0.9-1-1.2-1.5-0.5-0.9-0.5-2-0.1-2.7 0.2-0.4 0.7-0.7 1.2-0.7 0.8 0 1.3 0.6 1.6 1.2 0.3-0.6 0.8-1.2 1.7-1.2 0.5 0 0.9 0.3 1.2 0.7 0.4 0.7 0.3 1.8-0.2 2.7zm33.1-3.4c-0.4 2.7-0.8 4.6-1 5.5-0.3 0.3-0.6 0.5-0.6 0.5h-0.3c-0.1-0.1-1.8-1.2-2.5-2.6-0.6-0.9-0.6-2-0.2-2.7 0.3-0.4 0.7-0.7 1.2-0.7 0.8 0 1.4 0.6 1.6 1.2 0.3-0.6 0.8-1.2 1.7-1.2q0.1 0 0.1 0zm-50.1-18.5c-0.4 0.7-1 1.3-1.5 1.8-0.6 0.5-1 0.8-1.1 0.8h-0.2c-0.1-0.1-1.8-1.2-2.6-2.6-0.5-1-0.6-2-0.1-2.7 0.2-0.4 0.6-0.7 1.2-0.7 0.8 0 1.3 0.6 1.6 1.2 0.3-0.6 0.8-1.2 1.7-1.2 0.5 0 0.9 0.3 1.1 0.7 0.5 0.7 0.4 1.7-0.1 2.7zm34 0c-0.4 0.7-1 1.3-1.5 1.8-0.6 0.5-1 0.8-1 0.8h-0.3c-0.1-0.1-1.8-1.2-2.5-2.6-0.6-1-0.6-2-0.2-2.7 0.2-0.4 0.7-0.7 1.2-0.7 0.8 0 1.3 0.6 1.6 1.2 0.3-0.6 0.8-1.2 1.7-1.2 0.5 0 0.9 0.3 1.2 0.7 0.4 0.7 0.3 1.7-0.2 2.7z"/>
						<g id="&lt;Group&gt;">
							<g id="&lt;Group&gt;">
								<path id="&lt;Path&gt;" class="s3" d="m411.3 595.7c-14.3-1.6-53.2-5.1-78.8-4-0.1 0-0.2 0.6 0 0.6 21.4 2.3 64.3 3.9 78.7 4.3 0.3 0 0.3-0.8 0.1-0.9z"/>
							</g>
						</g>
						<path id="&lt;Path&gt;" class="s3" d="m426.6 541.3q-1.6 6-3 12.1 0.1-0.8 0.1-1.5c0.6-5.7 1.2-11.3 1.6-17 0-0.1-0.2-0.1-0.3 0-2.7 19.8-10.5 69.8-11 75.3-0.4-0.1-4.7 0.1-5.7 0-0.2 0-0.2 0.3 0 0.4 0.5 0 6.9 0.8 7 0.6 2.7-9.6 6.9-46.1 7.8-54.1q2.2-7.8 3.6-15.8c0-0.1-0.1-0.1-0.1 0z"/>
					</g>
				</g>
			</g>
		</g>
	</g>
	<g id="Hearts">
		<g id="&lt;Group&gt;">
			<path id="&lt;Path&gt;" class="s7" d="m599.5 309.2c-1.5 15.4-14 28.9-14 28.9 0 0-18.2-2-29.6-12.5-9.4-8.9-10.4-21.9-2.9-27.6 10.8-8.3 21.8 11.7 21.8 11.7 0 0-4.8-22.3 8.8-23.2 9.4-0.6 17.2 9.8 15.9 22.7z"/>
			<path id="&lt;Path&gt;" class="s7" d="m566.5 209.3c-0.6 6.2-5.6 11.7-5.6 11.7 0 0-7.3-0.8-11.9-5.1-3.8-3.5-4.2-8.7-1.2-11.1 4.4-3.3 8.8 4.8 8.8 4.8 0 0-1.9-9 3.5-9.4 3.8-0.2 6.9 4 6.4 9.1z"/>
			<path id="&lt;Path&gt;" class="s7" d="m622.1 257.2c-6.9 9.2-19.8 12.9-19.8 12.9 0 0-10.8-8.2-13.9-19.1-2.6-9.2 1.7-17.8 8.7-18.5 9.9-1.1 9.3 15.7 9.3 15.7 0 0 5.4-15.9 14.3-11.3 6.2 3.2 7.1 12.7 1.4 20.3z"/>
		</g>
	</g>
	<g id="Speech Bubbles">
		<g id="&lt;Group&gt;">
			<g id="&lt;Group&gt;">
				<path id="&lt;Path&gt;" class="s7" d="m308.1 373.9h-195.5v-110.4h195.5z"/>
				<path id="&lt;Path&gt;" class="s7" d="m145.6 373.9l-33 33.9v-33.9z"/>
				<g id="&lt;Group&gt;">
					<path id="&lt;Path&gt;" class="s1" d="m256.9 289.1h-116.1v-3.4h116.1z"/>
					<path id="&lt;Path&gt;" class="s1" d="m220.4 299.5h-79.6v-3.4h79.6z"/>
					<path id="&lt;Path&gt;" class="s1" d="m279.9 310h-139.1v-3.5h139.1z"/>
					<path id="&lt;Path&gt;" class="s1" d="m188.7 320.4h-47.9v-3.4h47.9z"/>
					<path id="&lt;Path&gt;" class="s1" d="m249.9 330.8h-109.1v-3.4h109.1z"/>
					<path id="&lt;Path&gt;" class="s1" d="m256.9 341.3h-116.1v-3.4h116.1z"/>
					<path id="&lt;Path&gt;" class="s1" d="m227.8 351.7h-87v-3.4h87z"/>
				</g>
			</g>
			<g id="&lt;Group&gt;">
				<path id="&lt;Path&gt;" class="s0" d="m151.1 489.5h195.6v-80.8h-195.6z"/>
				<path id="&lt;Path&gt;" class="s0" d="m313.6 489.5l33.1 33.9v-33.9z"/>
				<g id="&lt;Group&gt;">
					<path id="&lt;Path&gt;" class="s1" d="m286.6 429.4h-105.3v-3.6h105.3z"/>
					<path id="&lt;Path&gt;" class="s1" d="m315.3 440.1h-134v-3.5h134z"/>
					<path id="&lt;Path&gt;" class="s1" d="m278.7 450.9h-97.4v-3.6h97.4z"/>
					<path id="&lt;Path&gt;" class="s1" d="m303.8 461.6h-122.5v-3.5h122.5z"/>
					<path id="&lt;Path&gt;" class="s1" d="m261.6 472.4h-80.3v-3.6h80.3z"/>
				</g>
			</g>
		</g>
		<g id="&lt;Group&gt;">
			<path id="&lt;Path&gt;" class="s7" d="m760.1 206.4h-152v-64.3h152z"/>
			<path id="&lt;Path&gt;" class="s7" d="m666.5 206.4h35.3l-17.7 24.2z"/>
			<path id="&lt;Path&gt;" class="s1" d="m665.8 176.4c-2 3.8-5.4 7.3-8.4 9.9-2.9 2.6-5.4 4.3-5.6 4.4h-1.4c-0.4-0.3-10-6.7-14-14.3-2.9-5.2-3.3-11.1-1-14.9 1.4-2.5 3.8-3.8 6.6-3.8 4.6 0 7.5 3.3 9.1 6.4 1.6-3.1 4.5-6.4 9.1-6.4 2.8 0 5.2 1.3 6.6 3.8 2.3 3.8 1.9 9.7-1 14.9z"/>
			<g id="&lt;Group&gt;">
				<path id="&lt;Compound Path&gt;" class="s1" d="m730.6 162.7l-18.2 24.3-3.8-14.5-2.3 1-1.1-2.4 2.1-0.9-8.6-9.4h29.7l6-2.6h-38.7l-0.9 2.2 11 12 4.8 17.9 2.3 0.4 22.6-30.2z"/>
				<path id="&lt;Path&gt;" class="s1" d="m730.6 162.7l-18.2 24.3-3.8-14.5z"/>
				<path id="&lt;Path&gt;" class="s1" d="m728.4 160.8l-21.1 9.4-8.6-9.4z"/>
			</g>
		</g>
	</g>
	<g id="Plant">
		<g id="&lt;Group&gt;">
			<g id="&lt;Group&gt;">
				<g id="&lt;Group&gt;">
					<path id="&lt;Path&gt;" class="s7" d="m212.5 696.2c-23.2 31.4-47.4 68-53.3 107.4-0.1 0.6 0.9 0.8 1 0.2 2.7-10.8 6.1-21.3 10.3-31.6 15.2-4.2 30.2-7.6 38.3-22.8 8.1-15.6 7.1-35.9 5.5-52.9-0.1-0.9-1.3-0.9-1.8-0.3z"/>
					<g id="&lt;Group&gt;">
						<path id="&lt;Path&gt;" class="s3" d="m170.7 771.9c10.4-23.4 23.8-46.9 40.9-66.2 0.1-0.1 0.3 0.1 0.2 0.2-11.2 13.7-19.7 28.7-27.9 43.9 7.6-7.8 16.1-14.8 23.4-23.1 0.1-0.2 0.3 0.1 0.2 0.2-7.2 8.7-15.1 18.1-24.6 24.6q-3.8 7-7.6 14 0.9-0.5 1.9-1c0.1-0.1 0.2 0.1 0.1 0.2-0.7 0.3-1.4 0.7-2.2 1q-1.8 3.4-3.7 6.7c-0.2 0.5-0.9 0-0.7-0.5z"/>
						<path id="&lt;Path&gt;" class="s3" d="m178.5 763.8c6.2-3.6 12.2-7.4 17.8-11.9 0.2-0.2 0.4 0 0.2 0.2-5.5 4.6-11.4 8.8-17.8 12.1-0.3 0.2-0.5-0.3-0.2-0.4z"/>
					</g>
				</g>
				<g id="&lt;Group&gt;">
					<path id="&lt;Path&gt;" class="s7" d="m156.5 797.8c0 0.4 0.8 0.4 0.8-0.1 0.1-13 0-26 0.2-39.1 3.4-6.7 10.5-10.4 15.5-15.8 3.6-3.9 6.6-8.3 9.2-12.9 6.2-11 9.5-23.4 10.8-35.9 1.4-13.9-3.9-59.7-9.8-58.1-3 0.8-12.8 23.5-15.4 31-4.3 12.4-7.3 25.2-9.3 38.1-4.7 30.6-4.3 62-2 92.8z"/>
					<g id="&lt;Group&gt;">
						<path id="&lt;Path&gt;" class="s3" d="m156.4 741.7q0 0 0 0c0.8-16.5 4.5-33.1 7.9-49 3.8-17.2 8.1-33.4 17-48.7 0.1-0.3 0.6-0.1 0.4 0.2-6 11.9-10.3 24.5-13.6 37.4 0.6-0.9 1.3-1.8 1.9-2.7 0.3-0.3 0.8 0 0.6 0.3-0.9 1.3-1.7 2.9-2.8 3.9q0 0.1-0.1 0.1c-3 12.3-5.2 24.8-7.1 37.4q0.2-0.3 0.4-0.5c0.1-0.1 0.3 0 0.2 0.1q-0.3 0.7-0.7 1.3c-1 6.3-1.8 12.7-2.7 19 11.3-9.7 21-21.1 26.4-35.2 0.1 0 0.2 0 0.1 0.1-5.3 14.5-13.7 27.5-26.7 36.4q-0.3 2.5-0.7 5c-0.1 0.4-0.6 0.3-0.6 0 0-1.5 0.1-3 0.1-4.6-0.1-0.1-0.2-0.3 0-0.5z"/>
						<path id="&lt;Path&gt;" class="s3" d="m161.7 717.9c8.7-12.9 16.8-25.5 23.1-39.8 0.1-0.1 0.3 0 0.3 0.2-5.4 14.1-12.8 28.5-22.9 39.9-0.3 0.2-0.7-0.1-0.5-0.3z"/>
						<path id="&lt;Path&gt;" class="s3" d="m173.2 674.9c3.6-6.3 7.4-12.5 10.8-18.9 0.1-0.2 0.3-0.1 0.2 0.1-2.8 6.6-6.2 13.3-10.4 19.2-0.3 0.3-0.8 0-0.6-0.4z"/>
						<path id="&lt;Path&gt;" class="s3" d="m171.8 677.7c0.1 0 0.1 0.1 0 0.1-0.1 0-0.1-0.1 0-0.1z"/>
					</g>
				</g>
				<g id="&lt;Group&gt;">
					<path id="&lt;Path&gt;" class="s7" d="m147.7 760.2c-0.2 8.6-1.2 17.2-3.1 25.6q0.2 1.4 0.4 2.8c2.8-9.3 4.2-18.9 4.6-28.5 0.2-0.3 0.2-0.6 0.1-0.9q0 0 0-0.1c0.5-12.8-0.7-25.9-2.9-38.6-4-23.9-12.8-46.8-29.5-64.7-0.5-0.6-1.6-0.3-1.8 0.3-6.7 17.1-4.4 37.5 1.3 54.6 3.1 9.2 7.6 18 13.2 25.9 5.8 8 13 14.8 17.7 23.6z"/>
					<g id="&lt;Group&gt;">
						<path id="&lt;Path&gt;" class="s3" d="m119.3 663.8c15.8 25.6 26.8 56 28.1 86.2 0 0.6-0.9 0.7-1 0.2q-0.5-4.1-1.2-8.1 0-0.1 0-0.1c-6.5-6.2-13.2-12.8-17.9-20.6-0.1-0.2 0.1-0.3 0.2-0.2 5.7 6.5 11 13.1 17.4 18.9q-1.7-10-4-19.7-0.7-0.8-1.3-1.5c-0.3-0.3 0.2-0.8 0.5-0.5q0.2 0.2 0.4 0.5c-2.3-9-5-17.7-8.3-26.3-4-4.7-8.5-8.9-11.4-14.7-0.1-0.1 0.1-0.2 0.2-0.1 2.3 3.3 4.6 6.6 7.3 9.7 1 1.2 2.2 2.4 3.3 3.6-3.6-9.2-7.9-18.2-12.9-27-0.2-0.4 0.4-0.7 0.6-0.3z"/>
						<path id="&lt;Path&gt;" class="s3" d="m122.5 695.4c5.1 6.8 10.9 13.4 15.6 20.5 0.2 0.2-0.1 0.4-0.3 0.2-6.1-5.7-11.2-13.5-15.7-20.5-0.1-0.3 0.2-0.4 0.4-0.2z"/>
						<path id="&lt;Path&gt;" class="s3" d="m138.9 717.5l0.2 0.2c0.1 0.1-0.1 0.4-0.3 0.2l-0.2-0.2c-0.1-0.1 0.1-0.4 0.3-0.2z"/>
					</g>
				</g>
				<g id="&lt;Group&gt;">
					<path id="&lt;Path&gt;" class="s7" d="m94.6 713c1.2 13.2 8.2 28.9 16.6 39.1 3.8 4.5 8.3 7.9 13.5 10.5 5.9 2.9 12 6.3 18.1 8.6 2.8 7.3 4.9 14.8 6.3 22.7q0.3-1 0.6-2c-3.9-33.4-25.5-61.9-53.1-80.2-1-0.7-2.2 0.2-2 1.3z"/>
					<g id="&lt;Group&gt;">
						<path id="&lt;Path&gt;" class="s3" d="m104.1 722.9c-0.2-0.2 0.1-0.5 0.3-0.4 14.6 10.9 27.8 26.7 35.2 43.4 0.2 0.4-0.4 0.8-0.7 0.4q-1.9-3.4-3.9-6.6 0 0-0.1 0c-6.3-1.2-12.2-5.6-16.9-9.8-0.1-0.1 0.1-0.3 0.2-0.2 2.4 2.1 5 4.1 8 5.6 2.5 1.3 5.3 2.1 8 3.2q-3.5-5.6-7.3-10.8c-6.8-2.3-13.3-6.4-19-10.6-0.2-0.1 0-0.4 0.2-0.3 5.8 3.5 11.5 6.6 17.6 9.4-3.8-5.1-8-9.9-12.4-14.5-2.2-1.1-4.4-2.3-6.4-3.5-0.2-0.1-0.1-0.4 0.1-0.3 1.7 0.5 3.3 1.4 4.9 2.4-2.5-2.5-5.1-5-7.8-7.4z"/>
						<path id="&lt;Path&gt;" class="s3" d="m104.7 734.4c0.4 0.2 0.7 0.5 1 0.8 0.2 0 0 0.2-0.1 0.1-0.4-0.1-0.7-0.4-1.1-0.6-0.2-0.1 0-0.4 0.2-0.3z"/>
					</g>
				</g>
			</g>
			<g id="&lt;Group&gt;">
				<g id="&lt;Group&gt;">
					<path id="&lt;Path&gt;" class="s4" d="m192.8 866.2h-75.7l6.1-68.9 1.4-15.2h60.8l1.3 15.2z"/>
					<path id="&lt;Path&gt;" class="s3" d="m186.7 797.3h-63.5l1.4-15.2h60.8z"/>
				</g>
				<path id="&lt;Path&gt;" class="s4" d="m189 786.5h-68v-15.1h68z"/>
			</g>
		</g>
	</g>
</svg>