<svg version="1.2" xmlns="http://www.w3.org/2000/svg" viewBox="0 0 1500 1000" width="1500" height="1000">
	<title>8002002-ai</title>
	<style>
		.s0 { fill: #ebebeb } 
		.s1 { fill: #f5f5f5 } 
		.s2 { fill: #e0e0e0 } 
		.s3 { fill:  #BA68C8 } 
		.s4 { fill: #ffffff } 
		.s5 { fill: #000000 } 
		.s6 { fill: #263238 } 
		.s7 { fill: #ffbf9d } 
		.s8 { fill: #ff9a6c } 
		.s9 { fill: #455a64 } 
		.s10 { fill: none } 
		.s11 { fill: #fafafa } 
	</style>
	<g id="Background Complete">
		<g id="&lt;Group&gt;">
			<g id="&lt;Group&gt;">
				<g id="&lt;Group&gt;">
					<g id="&lt;Group&gt;">
						<g id="&lt;Group&gt;">
							<g id="&lt;Group&gt;">
								<g id="&lt;Group&gt;">
									<g id="&lt;Group&gt;">
										<g id="&lt;Group&gt;">
											<path id="&lt;Compound Path&gt;" fill-rule="evenodd" class="s0" d="m847.1 777.4c4.6-2.7 9.5-4.8 14.5-6.2l3-14.2 24.4-0.4 3.5 14c5.1 1.3 10 3.2 14.7 5.8l12.3-8 17.6 16.7-7.7 12.3c2.8 4.6 4.9 9.4 6.4 14.4l14.4 2.9 0.4 24-14.3 3.4c-1.3 5.1-3.2 10-5.8 14.6l8.1 12.1-17 17.2-12.5-7.5c-4.6 2.8-9.5 4.8-14.6 6.3l-3 14.1-24.3 0.5-3.5-14.1c-5.2-1.2-10.1-3.2-14.8-5.7l-12.3 7.9-17.5-16.6 7.6-12.4c-2.8-4.6-4.9-9.4-6.3-14.4l-14.5-2.9-0.4-24 14.3-3.4c1.3-5 3.2-9.9 5.8-14.6l-8-12.1 16.9-17.2zm15.5 29.7c-13.5 10.6-13.1 30.6 0.7 40.7 9.4 7 22.6 6.8 31.8-0.5 13.4-10.6 13.1-30.6-0.7-40.8-9.4-6.9-22.7-6.7-31.8 0.6z"/>
										</g>
									</g>
								</g>
							</g>
						</g>
					</g>
				</g>
			</g>
		</g>
		<g id="&lt;Group&gt;">
			<g id="&lt;Group&gt;">
				<g id="&lt;Group&gt;">
					<g id="&lt;Group&gt;">
						<g id="&lt;Group&gt;">
							<g id="&lt;Group&gt;">
								<g id="&lt;Group&gt;">
									<g id="&lt;Group&gt;">
										<path id="&lt;Compound Path&gt;" fill-rule="evenodd" class="s0" d="m995.9 768.8c2.9-1.7 6-3 9.2-3.9l1.9-8.9 15.3-0.3 2.2 8.9c3.2 0.7 6.3 1.9 9.3 3.6l7.7-5 11 10.4-4.8 7.8c1.8 2.9 3.1 5.9 4 9l9.1 1.9 0.2 15-9 2.2c-0.7 3.2-2 6.2-3.6 9.1l5.1 7.7-10.7 10.8-7.9-4.7c-2.9 1.7-6 3-9.1 3.9l-1.9 8.9-15.3 0.3-2.2-8.9c-3.2-0.7-6.4-1.9-9.3-3.6l-7.7 5-11.1-10.4 4.8-7.8c-1.7-2.9-3-5.9-3.9-9l-9.1-1.9-0.3-15 9-2.2c0.8-3.2 2-6.2 3.7-9.2l-5.1-7.6 10.6-10.8zm9.8 18.6c-8.5 6.7-8.2 19.3 0.4 25.7 6 4.3 14.3 4.2 20-0.4 8.5-6.7 8.3-19.2-0.4-25.6-6-4.4-14.3-4.2-20 0.3z"/>
									</g>
								</g>
							</g>
						</g>
					</g>
				</g>
			</g>
		</g>
		<g id="&lt;Group&gt;">
			<g id="&lt;Group&gt;">
				<g id="&lt;Group&gt;">
					<g id="&lt;Group&gt;">
						<g id="&lt;Group&gt;">
							<g id="&lt;Group&gt;">
								<g id="&lt;Group&gt;">
									<g id="&lt;Group&gt;">
										<path id="&lt;Compound Path&gt;" fill-rule="evenodd" class="s0" d="m1351.2 589.7c2.9-1.7 6-3 9.1-3.9l1.9-8.9 15.3-0.3 2.2 8.9c3.2 0.8 6.4 2 9.3 3.6l7.8-5 11 10.4-4.8 7.8c1.7 2.9 3 5.9 3.9 9l9.1 1.9 0.3 15.1-9 2.1c-0.8 3.2-2 6.3-3.7 9.2l5.1 7.6-10.6 10.8-7.9-4.7c-2.9 1.7-6 3-9.2 3.9l-1.9 8.9-15.3 0.3-2.2-8.9c-3.2-0.7-6.3-1.9-9.3-3.5l-7.7 4.9-11-10.4 4.8-7.8c-1.8-2.9-3.1-5.9-4-9l-9.1-1.9-0.2-15 9-2.2c0.8-3.2 2-6.2 3.6-9.1l-5.1-7.7 10.7-10.8zm9.7 18.7c-8.4 6.6-8.2 19.2 0.5 25.6 5.9 4.4 14.2 4.2 20-0.4 8.4-6.6 8.2-19.2-0.5-25.6-5.9-4.4-14.2-4.2-20 0.4z"/>
									</g>
								</g>
							</g>
						</g>
					</g>
				</g>
			</g>
		</g>
		<g id="&lt;Group&gt;">
			<g id="&lt;Group&gt;">
				<g id="&lt;Group&gt;">
					<g id="&lt;Group&gt;">
						<g id="&lt;Group&gt;">
							<g id="&lt;Group&gt;">
								<g id="&lt;Group&gt;">
									<g id="&lt;Group&gt;">
										<path id="&lt;Compound Path&gt;" fill-rule="evenodd" class="s0" d="m1014.6 209.7c2.3-1.4 4.8-2.4 7.3-3.1l1.5-7.1 12.2-0.2 1.7 7c2.6 0.6 5.1 1.6 7.4 2.9l6.2-4 8.8 8.3-3.9 6.2c1.4 2.3 2.5 4.7 3.2 7.2l7.2 1.5 0.2 12-7.1 1.7c-0.7 2.5-1.6 5-2.9 7.3l4 6-8.5 8.7-6.3-3.8c-2.3 1.4-4.7 2.4-7.2 3.1l-1.5 7.1-12.2 0.2-1.8-7c-2.5-0.6-5-1.6-7.4-2.9l-6.1 4-8.8-8.3 3.8-6.2c-1.4-2.3-2.4-4.7-3.1-7.2l-7.3-1.5-0.2-12 7.2-1.7c0.6-2.5 1.6-4.9 2.9-7.3l-4-6 8.4-8.7zm7.8 14.9c-6.7 5.3-6.6 15.3 0.3 20.4 4.8 3.5 11.4 3.4 16-0.3 6.7-5.3 6.5-15.3-0.4-20.4-4.7-3.5-11.3-3.3-15.9 0.3z"/>
									</g>
								</g>
							</g>
						</g>
					</g>
				</g>
			</g>
		</g>
		<g id="&lt;Group&gt;">
			<g id="&lt;Group&gt;">
				<g id="&lt;Group&gt;">
					<g id="&lt;Group&gt;">
						<g id="&lt;Group&gt;">
							<g id="&lt;Group&gt;">
								<g id="&lt;Group&gt;">
									<g id="&lt;Group&gt;">
										<path id="&lt;Compound Path&gt;" fill-rule="evenodd" class="s1" d="m1207.9 198.1c5.2-3 10.7-5.4 16.4-7l3.4-15.9 27.4-0.5 3.9 15.8c5.8 1.4 11.3 3.6 16.6 6.5l13.9-9 19.7 18.8-8.6 13.9c3.1 5.1 5.5 10.5 7.1 16.1l16.2 3.3 0.5 27-16.1 3.9c-1.4 5.6-3.6 11.1-6.5 16.3l9.1 13.7-19.1 19.4-14.1-8.5c-5.2 3.1-10.7 5.4-16.4 7l-3.4 16-27.4 0.4-3.9-15.8c-5.7-1.4-11.3-3.5-16.6-6.4l-13.9 8.9-19.7-18.7 8.6-13.9c-3.1-5.1-5.5-10.6-7.1-16.2l-16.2-3.3-0.5-26.9 16.1-3.9c1.4-5.7 3.6-11.2 6.5-16.4l-9.1-13.6 19.1-19.4zm17.4 33.4c-15.1 11.9-14.7 34.4 0.8 45.9 10.6 7.8 25.5 7.5 35.8-0.7 15.1-11.9 14.7-34.4-0.8-45.9-10.6-7.8-25.5-7.5-35.8 0.7z"/>
									</g>
								</g>
							</g>
						</g>
					</g>
				</g>
			</g>
		</g>
		<g id="&lt;Group&gt;">
			<g id="&lt;Group&gt;">
				<g id="&lt;Group&gt;">
					<g id="&lt;Group&gt;">
						<g id="&lt;Group&gt;">
							<g id="&lt;Group&gt;">
								<g id="&lt;Group&gt;">
									<g id="&lt;Group&gt;">
										<path id="&lt;Compound Path&gt;" fill-rule="evenodd" class="s1" d="m76.7 668c3.8-2.3 7.8-4 12-5.2l2.5-11.7 20.2-0.4 2.9 11.7c4.2 1 8.4 2.6 12.2 4.7l10.2-6.5 14.6 13.8-6.4 10.2c2.4 3.8 4.1 7.8 5.3 11.9l11.9 2.4 0.4 19.9-11.9 2.9c-1 4.1-2.6 8.2-4.8 12l6.7 10.1-14 14.3-10.4-6.3c-3.9 2.3-7.9 4-12.1 5.2l-2.5 11.8-20.2 0.3-2.9-11.7c-4.2-1-8.3-2.6-12.2-4.7l-10.2 6.6-14.6-13.8 6.4-10.3c-2.3-3.7-4.1-7.7-5.3-11.9l-11.9-2.4-0.4-19.9 11.9-2.8c1-4.2 2.6-8.3 4.8-12.1l-6.7-10 14-14.3zm12.9 24.6c-11.2 8.8-10.9 25.4 0.6 33.8 7.8 5.7 18.8 5.5 26.4-0.5 11.1-8.8 10.8-25.4-0.7-33.8-7.8-5.7-18.7-5.6-26.3 0.5z"/>
									</g>
								</g>
							</g>
						</g>
					</g>
				</g>
			</g>
		</g>
		<g id="&lt;Group&gt;">
			<g id="&lt;Group&gt;">
				<g id="&lt;Group&gt;">
					<g id="&lt;Group&gt;">
						<g id="&lt;Group&gt;">
							<g id="&lt;Group&gt;">
								<g id="&lt;Group&gt;">
									<g id="&lt;Group&gt;">
										<path id="&lt;Compound Path&gt;" fill-rule="evenodd" class="s0" d="m132.7 430c2.6-1.5 5.4-2.7 8.3-3.5l1.7-8.2 13.9-0.2 2 8.1c3 0.7 5.8 1.8 8.5 3.2l7-4.5 10.1 9.5-4.4 7.1c1.6 2.6 2.8 5.4 3.6 8.2l8.3 1.7 0.2 13.7-8.2 2c-0.7 2.9-1.8 5.7-3.3 8.3l4.6 6.9-9.7 9.9-7.2-4.3c-2.6 1.6-5.4 2.8-8.3 3.6l-1.7 8.1-13.9 0.2-2-8c-3-0.7-5.8-1.8-8.5-3.3l-7 4.5-10.1-9.5 4.4-7.1c-1.6-2.6-2.8-5.3-3.6-8.2l-8.3-1.7-0.2-13.7 8.2-1.9c0.7-2.9 1.8-5.7 3.3-8.4l-4.6-6.9 9.7-9.9zm8.8 17c-7.7 6.1-7.4 17.5 0.4 23.4 5.4 3.9 13 3.8 18.3-0.4 7.6-6 7.4-17.5-0.5-23.3-5.4-4-12.9-3.8-18.2 0.3z"/>
									</g>
								</g>
							</g>
						</g>
					</g>
				</g>
			</g>
		</g>
		<g id="&lt;Group&gt;">
			<g id="&lt;Group&gt;">
				<g id="&lt;Group&gt;">
					<g id="&lt;Group&gt;">
						<g id="&lt;Group&gt;">
							<g id="&lt;Group&gt;">
								<g id="&lt;Group&gt;">
									<g id="&lt;Group&gt;">
										<path id="&lt;Compound Path&gt;" fill-rule="evenodd" class="s0" d="m444.8 389.2q2.6-1.6 5.4-2.4l1.2-5.3 9.2-0.2 1.3 5.3q2.9 0.7 5.6 2.2l4.6-3 6.6 6.3-2.9 4.7q1.6 2.5 2.4 5.4l5.5 1.1 0.1 9-5.4 1.3q-0.7 2.9-2.2 5.5l3.1 4.6-6.4 6.5-4.7-2.8q-2.7 1.5-5.5 2.3l-1.2 5.4-9.2 0.1-1.3-5.3q-2.9-0.7-5.6-2.1l-4.6 3-6.6-6.3 2.9-4.7q-1.6-2.6-2.4-5.4l-5.5-1.1-0.1-9.1 5.4-1.3q0.7-2.8 2.2-5.5l-3.1-4.5 6.4-6.5zm5.8 11.2c-5 4-4.9 11.5 0.3 15.4 3.6 2.6 8.6 2.5 12-0.3 5.1-4 5-11.5-0.2-15.4-3.6-2.6-8.6-2.5-12.1 0.3z"/>
									</g>
								</g>
							</g>
						</g>
					</g>
				</g>
			</g>
		</g>
		<g id="&lt;Group&gt;">
			<g id="&lt;Group&gt;">
				<path id="&lt;Compound Path&gt;" fill-rule="evenodd" class="s2" d="m1372.5 509.7l-515.5 81.5 217-298.5zm-403.6 14.6l276.6-43.7-160.2-116.5z"/>
			</g>
			<g id="&lt;Group&gt;" style="mix-blend-mode: multiply">
				<g id="&lt;Group&gt;">
					<g id="&lt;Group&gt;">
						<path id="&lt;Path&gt;" class="s0" d="m1103.3 329.1l-1.2-0.9 7.1-9.9 1.3 0.9z"/>
					</g>
					<g id="&lt;Group&gt;">
						<path id="&lt;Path&gt;" class="s0" d="m1111.4 335l-1.2-0.9 7.1-9.9 1.3 0.9z"/>
					</g>
					<g id="&lt;Group&gt;">
						<path id="&lt;Path&gt;" class="s0" d="m1129.9 348.4l-1.3-0.9 7.2-9.9 1.3 0.9z"/>
					</g>
					<g id="&lt;Group&gt;">
						<path id="&lt;Path&gt;" class="s0" d="m1138 354.3l-1.3-1 7.2-9.8 1.3 0.9z"/>
					</g>
					<g id="&lt;Group&gt;">
						<path id="&lt;Path&gt;" class="s0" d="m1156.4 367.7l-1.3-1 7.2-9.9 1.3 1z"/>
					</g>
					<g id="&lt;Group&gt;">
						<path id="&lt;Path&gt;" class="s0" d="m1164.5 373.5l-1.3-0.9 7.2-9.9 1.3 1z"/>
					</g>
					<g id="&lt;Group&gt;">
						<path id="&lt;Path&gt;" class="s0" d="m1182.9 386.9l-1.3-0.9 7.2-9.9 1.3 0.9z"/>
					</g>
					<g id="&lt;Group&gt;">
						<path id="&lt;Path&gt;" class="s0" d="m1191 392.8l-1.3-0.9 7.2-9.9 1.3 0.9z"/>
					</g>
					<g id="&lt;Group&gt;">
						<path id="&lt;Path&gt;" class="s0" d="m1209.5 406.2l-1.3-0.9 7.2-9.9 1.3 0.9z"/>
					</g>
					<g id="&lt;Group&gt;">
						<path id="&lt;Path&gt;" class="s0" d="m1217.6 412.1l-1.3-1 7.2-9.8 1.2 0.9z"/>
					</g>
					<g id="&lt;Group&gt;">
						<path id="&lt;Path&gt;" class="s0" d="m1236 425.5l-1.3-1 7.2-9.9 1.3 1z"/>
					</g>
					<g id="&lt;Group&gt;">
						<path id="&lt;Path&gt;" class="s0" d="m1244.1 431.3l-1.3-0.9 7.2-9.9 1.3 0.9z"/>
					</g>
					<g id="&lt;Group&gt;">
						<path id="&lt;Path&gt;" class="s0" d="m1262.8 444.9l-1.3-0.9 7.1-9.9 1.3 0.9z"/>
					</g>
					<g id="&lt;Group&gt;">
						<path id="&lt;Path&gt;" class="s0" d="m1270.8 450.8l-1.2-1 7.1-9.9 1.3 1z"/>
					</g>
					<g id="&lt;Group&gt;">
						<path id="&lt;Path&gt;" class="s0" d="m1289.4 464.2l-1.3-0.9 7.2-9.9 1.3 0.9z"/>
					</g>
					<g id="&lt;Group&gt;">
						<path id="&lt;Path&gt;" class="s0" d="m1297.5 470.1l-1.3-0.9 7.2-9.9 1.3 0.9z"/>
					</g>
					<g id="&lt;Group&gt;">
						<path id="&lt;Path&gt;" class="s0" d="m1316.5 483.9l-1.3-0.9 7.2-9.9 1.2 0.9z"/>
					</g>
					<g id="&lt;Group&gt;">
						<path id="&lt;Path&gt;" class="s0" d="m1324.6 489.8l-1.3-1 7.2-9.9 1.2 1z"/>
					</g>
				</g>
				<g id="&lt;Group&gt;">
					<path id="&lt;Path&gt;" class="s0" d="m1088.3 330.9l-1.8-1.3 13.2-18.2 1.8 1.3z"/>
				</g>
				<g id="&lt;Group&gt;">
					<path id="&lt;Path&gt;" class="s0" d="m1114.9 350.2l-1.7-1.2 13.2-18.2 1.7 1.2z"/>
				</g>
				<g id="&lt;Group&gt;">
					<path id="&lt;Path&gt;" class="s0" d="m1141.5 369.6l-1.7-1.3 13.2-18.2 1.8 1.3z"/>
				</g>
				<g id="&lt;Group&gt;">
					<path id="&lt;Path&gt;" class="s0" d="m1168.2 388.9l-1.8-1.2 13.3-18.3 1.7 1.3z"/>
				</g>
				<g id="&lt;Group&gt;">
					<path id="&lt;Path&gt;" class="s0" d="m1194.8 408.3l-1.7-1.3 13.2-18.2 1.8 1.3z"/>
				</g>
				<g id="&lt;Group&gt;">
					<path id="&lt;Path&gt;" class="s0" d="m1221.5 427.6l-1.8-1.2 13.3-18.3 1.7 1.3z"/>
				</g>
				<g id="&lt;Group&gt;">
					<path id="&lt;Path&gt;" class="s0" d="m1248.1 447l-1.7-1.3 13.2-18.2 1.7 1.3z"/>
				</g>
				<g id="&lt;Group&gt;">
					<path id="&lt;Path&gt;" class="s0" d="m1274.8 466.3l-1.8-1.2 13.2-18.3 1.8 1.3z"/>
				</g>
				<g id="&lt;Group&gt;">
					<path id="&lt;Path&gt;" class="s0" d="m1301.4 485.7l-1.7-1.3 13.2-18.2 1.7 1.3z"/>
				</g>
				<g id="&lt;Group&gt;">
					<path id="&lt;Path&gt;" class="s0" d="m1328 505l-1.7-1.3 13.2-18.2 1.8 1.3z"/>
				</g>
			</g>
		</g>
		<g id="&lt;Group&gt;">
			<g id="&lt;Group&gt;">
				<path id="&lt;Compound Path&gt;" fill-rule="evenodd" class="s1" d="m616.5 825.5l-515.5 81.4 217.1-298.5zm-403.7 14.6l276.6-43.7-160.1-116.4z"/>
			</g>
			<g id="&lt;Group&gt;" style="mix-blend-mode: multiply">
				<g id="&lt;Group&gt;">
					<g id="&lt;Group&gt;">
						<path id="&lt;Path&gt;" class="s0" d="m347.4 644.9l-1.3-1 7.2-9.9 1.3 1z"/>
					</g>
					<g id="&lt;Group&gt;">
						<path id="&lt;Path&gt;" class="s0" d="m355.5 650.7l-1.3-0.9 7.2-9.9 1.3 0.9z"/>
					</g>
					<g id="&lt;Group&gt;">
						<path id="&lt;Path&gt;" class="s0" d="m373.9 664.1l-1.3-0.9 7.2-9.9 1.3 0.9z"/>
					</g>
					<g id="&lt;Group&gt;">
						<path id="&lt;Path&gt;" class="s0" d="m382 670l-1.3-0.9 7.2-9.9 1.3 0.9z"/>
					</g>
					<g id="&lt;Group&gt;">
						<path id="&lt;Path&gt;" class="s0" d="m400.4 683.4l-1.2-0.9 7.1-9.9 1.3 0.9z"/>
					</g>
					<g id="&lt;Group&gt;">
						<path id="&lt;Path&gt;" class="s0" d="m408.5 689.3l-1.2-1 7.1-9.9 1.3 1z"/>
					</g>
					<g id="&lt;Group&gt;">
						<path id="&lt;Path&gt;" class="s0" d="m427 702.7l-1.3-1 7.2-9.9 1.3 1z"/>
					</g>
					<g id="&lt;Group&gt;">
						<path id="&lt;Path&gt;" class="s0" d="m435.1 708.5l-1.3-0.9 7.2-9.9 1.3 0.9z"/>
					</g>
					<g id="&lt;Group&gt;">
						<path id="&lt;Path&gt;" class="s0" d="m453.5 721.9l-1.3-0.9 7.2-9.9 1.3 0.9z"/>
					</g>
					<g id="&lt;Group&gt;">
						<path id="&lt;Path&gt;" class="s0" d="m461.6 727.8l-1.3-0.9 7.2-9.9 1.3 0.9z"/>
					</g>
					<g id="&lt;Group&gt;">
						<path id="&lt;Path&gt;" class="s0" d="m480 741.2l-1.3-0.9 7.2-9.9 1.3 0.9z"/>
					</g>
					<g id="&lt;Group&gt;">
						<path id="&lt;Path&gt;" class="s0" d="m488.1 747.1l-1.3-1 7.2-9.9 1.3 1z"/>
					</g>
					<g id="&lt;Group&gt;">
						<path id="&lt;Path&gt;" class="s0" d="m506.8 760.6l-1.3-0.9 7.2-9.9 1.3 0.9z"/>
					</g>
					<g id="&lt;Group&gt;">
						<path id="&lt;Path&gt;" class="s0" d="m514.9 766.5l-1.3-0.9 7.2-9.9 1.3 0.9z"/>
					</g>
					<g id="&lt;Group&gt;">
						<path id="&lt;Path&gt;" class="s0" d="m533.4 780l-1.3-1 7.2-9.9 1.3 1z"/>
					</g>
					<g id="&lt;Group&gt;">
						<path id="&lt;Path&gt;" class="s0" d="m541.5 785.8l-1.3-0.9 7.2-9.9 1.3 0.9z"/>
					</g>
					<g id="&lt;Group&gt;">
						<path id="&lt;Path&gt;" class="s0" d="m560.5 799.6l-1.3-0.9 7.2-9.9 1.3 0.9z"/>
					</g>
					<g id="&lt;Group&gt;">
						<path id="&lt;Path&gt;" class="s0" d="m568.6 805.5l-1.3-0.9 7.2-9.9 1.3 0.9z"/>
					</g>
				</g>
				<g id="&lt;Group&gt;">
					<path id="&lt;Path&gt;" class="s0" d="m332.3 646.6l-1.7-1.3 13.2-18.2 1.7 1.3z"/>
				</g>
				<g id="&lt;Group&gt;">
					<path id="&lt;Path&gt;" class="s0" d="m358.9 666l-1.7-1.3 13.2-18.2 1.8 1.3z"/>
				</g>
				<g id="&lt;Group&gt;">
					<path id="&lt;Path&gt;" class="s0" d="m385.6 685.3l-1.8-1.3 13.3-18.2 1.7 1.3z"/>
				</g>
				<g id="&lt;Group&gt;">
					<path id="&lt;Path&gt;" class="s0" d="m412.2 704.7l-1.7-1.3 13.2-18.2 1.8 1.2z"/>
				</g>
				<g id="&lt;Group&gt;">
					<path id="&lt;Path&gt;" class="s0" d="m438.9 724l-1.8-1.3 13.2-18.2 1.8 1.3z"/>
				</g>
				<g id="&lt;Group&gt;">
					<path id="&lt;Path&gt;" class="s0" d="m465.5 743.4l-1.7-1.3 13.2-18.2 1.7 1.2z"/>
				</g>
				<g id="&lt;Group&gt;">
					<path id="&lt;Path&gt;" class="s0" d="m492.2 762.7l-1.8-1.3 13.2-18.2 1.8 1.3z"/>
				</g>
				<g id="&lt;Group&gt;">
					<path id="&lt;Path&gt;" class="s0" d="m518.8 782l-1.7-1.2 13.2-18.2 1.7 1.2z"/>
				</g>
				<g id="&lt;Group&gt;">
					<path id="&lt;Path&gt;" class="s0" d="m545.4 801.4l-1.7-1.3 13.2-18.2 1.8 1.3z"/>
				</g>
				<g id="&lt;Group&gt;">
					<path id="&lt;Path&gt;" class="s0" d="m572.1 820.7l-1.8-1.2 13.3-18.2 1.7 1.2z"/>
				</g>
			</g>
		</g>
	</g>
	<g id="Pencil">
		<g id="&lt;Group&gt;">
			<g id="&lt;Group&gt;">
				<g id="&lt;Group&gt;">
					<path id="&lt;Path&gt;" class="s3" d="m553.4 880.8c-8.5-18-0.7-39.5 17.4-48 18.1-8.4 39.6-0.6 48 17.5 8.5 18 0.7 39.5-17.4 48-18.1 8.4-39.6 0.6-48-17.5z"/>
				</g>
			</g>
			<g id="&lt;Group&gt;">
				<g id="&lt;Group&gt;">
					<g id="&lt;Group&gt;">
						<g id="&lt;Group&gt;">
							<g id="&lt;Group&gt;">
								<path id="&lt;Path&gt;" class="s3" d="m117.9 684.5l47.5 54.2 393.1 154.7 25.1-68.2-390.8-153.2-72.8 7.2c-2.3 0.2-3.6 3.5-2.1 5.3z"/>
							</g>
						</g>
						<g id="&lt;Group&gt;" style="opacity: .7">
							<g id="&lt;Group&gt;">
								<g id="&lt;Group&gt;">
									<path id="&lt;Path&gt;" class="s4" d="m192.8 672c0.5 3.4-1.3 7-4.4 7.3 4.4 3.4 6.3 10.6 4.3 17-2 6.5-7.6 11.6-13.4 12.3 2.9 5.2 2.8 12.5 0 18.5-2.9 6-8.6 10.4-14.2 11.1l-46.9-53.4c-1.6-1.8-0.2-5.4 2.2-5.6z"/>
								</g>
							</g>
						</g>
						<g id="&lt;Group&gt;">
							<g id="&lt;Group&gt;">
								<path id="&lt;Path&gt;" class="s3" d="m136.1 702.9c3.6-1.6 11.9-7.3 10.4-23.8-0.2-1.4-1.2-2.4-2.4-2.3l-24.4 2.4c-2.2 0.3-3.4 3.4-2 5.1l15.9 18.1c0.7 0.7 1.6 0.9 2.5 0.5z"/>
							</g>
						</g>
					</g>
				</g>
				<g id="&lt;Group&gt;" style="opacity: .3">
					<g id="&lt;Group&gt;">
						<path id="&lt;Path&gt;" class="s5" d="m179.3 708.6l389 150.6-11.6 33.4-391.3-153.9-0.3-0.5c0 0 3.3-0.2 6.9-2.6 2.4-1.7 5.1-4.3 7-8 2.4-4.7 2.8-9.3 2.3-12.8-0.5-3.8-2-6.2-2-6.2z"/>
					</g>
				</g>
				<g id="&lt;Group&gt;" style="opacity: .3">
					<g id="&lt;Group&gt;">
						<path id="&lt;Path&gt;" class="s5" d="m188.4 679.3l392 154.3 3.7-8.3-391.3-153.3c0 0 0.9 4.9-3.3 7-0.3 0.2-0.7 0.2-1.1 0.3z"/>
					</g>
				</g>
				<g id="&lt;Group&gt;">
					<g id="&lt;Group&gt;">
						<g id="&lt;Group&gt;">
							<path id="&lt;Path&gt;" class="s4" d="m162.2 712.2c0-0.1 0.2 0.3 0.8 0.2 0.6-0.1 1.5-0.8 1.6-2.1 0.1-1.2-0.3-2.7-1.2-4.1-0.4-0.6-1-1.2-1.8-1.5-0.8-0.2-1.8-0.1-2.6 0.7-0.7 0.7-1.1 2-1.2 3.2-0.1 1.2 0.1 2.4 0.3 3.7 0.5 2.5 1.4 5.1 2.9 7.3 0.7 1 1.8 1.9 3.1 1.8 1.3-0.1 2.6-1.2 3.4-2.5 1.6-2.9 1.5-6.6 0.8-9.7-1.4-6.4-6.2-10.9-11.3-11.3-1.3 0-2.5 0.5-3.4 1.6-0.9 1.1-1.4 2.4-1.8 3.7-0.8 2.6-1 5.1-1.1 7.4-0.1 4.5 0.9 7.9 1.7 10.2q0.6 1.6 1 2.5c0.3 0.5 0.5 0.8 0.5 0.8 0 0-0.8-1-1.7-3.2-0.8-2.2-1.8-5.7-1.8-10.3 0-2.3 0.3-4.8 1-7.5 0.4-1.3 1-2.7 1.9-3.9 1-1.1 2.4-1.8 3.8-1.8 5.3 0.4 10.1 5 11.6 11.6 0.4 1.7 0.6 3.4 0.5 5.1-0.1 1.7-0.4 3.5-1.3 5-0.9 1.5-2.3 2.7-3.8 2.8-1.5 0.1-2.6-0.9-3.4-2-1.6-2.3-2.5-4.9-3-7.5-0.2-1.3-0.3-2.5-0.2-3.8 0.1-1.3 0.5-2.6 1.4-3.5 0.8-0.8 2-0.9 2.8-0.7 0.9 0.3 1.5 1 1.9 1.7 0.9 1.4 1.3 2.9 1.2 4.2-0.1 1.4-1.2 2.1-1.8 2.2-0.6 0-0.8-0.4-0.8-0.3z"/>
						</g>
					</g>
				</g>
				<g id="&lt;Group&gt;">
					<g id="&lt;Group&gt;">
						<g id="&lt;Group&gt;">
							<path id="&lt;Path&gt;" class="s4" d="m160.1 676c0.1 0-0.1 1 0 2.8 0.1 1.8 0.7 4.3 2 7 1.2 2.7 3.3 5.4 5.7 8.3 2.4 3 5.2 6.2 6.8 10.7 1.6 4.4 1.7 9.4 0.8 13.7-0.8 4.3-2.6 8-4.5 10.7-1.9 2.8-3.8 4.6-5.2 5.7-1.4 1.1-2.2 1.5-2.2 1.5q0 0 0.5-0.4 0.6-0.4 1.6-1.3c1.3-1.1 3.2-2.9 5.1-5.7 1.8-2.7 3.6-6.3 4.3-10.6 0.9-4.2 0.7-9-0.8-13.4-1.6-4.4-4.3-7.6-6.7-10.5-2.4-3-4.5-5.8-5.7-8.5-1.3-2.8-1.8-5.4-1.8-7.2-0.1-1.8 0.1-2.8 0.1-2.8z"/>
						</g>
					</g>
				</g>
				<g id="&lt;Group&gt;">
					<g id="&lt;Group&gt;">
						<g id="&lt;Group&gt;">
							<path id="&lt;Path&gt;" class="s4" d="m178.1 673.2c0.2 0-1.6 1.6-1.8 5-0.2 3.3 0.8 7.7 2 12.3 1.3 4.7 2.9 8.6 4.3 11.4 0.6 1.3 1.2 2.4 1.6 3.2 0.4 0.7 0.6 1.1 0.6 1.2 0 0-0.3-0.4-0.7-1.1-0.5-0.7-1.1-1.8-1.8-3.1-1.4-2.7-3.1-6.7-4.4-11.4-0.7-2.3-1.2-4.6-1.5-6.7-0.4-2.1-0.6-4.1-0.4-5.8 0.2-1.7 0.7-3.1 1.2-3.9 0.5-0.8 0.9-1.1 0.9-1.1z"/>
						</g>
					</g>
				</g>
				<g id="&lt;Group&gt;">
					<g id="&lt;Group&gt;">
						<g id="&lt;Group&gt;">
							<path id="&lt;Path&gt;" class="s4" d="m191.6 699c-0.1 0.1-0.7-0.6-1.7-1.9-0.9-1.3-2.2-3.3-2.7-6-0.6-2.7 0.2-5.5 1.3-7 0.5-0.8 1-1.3 1.4-1.6 0.4-0.3 0.6-0.5 0.7-0.4 0 0-1 0.6-1.9 2.2-0.9 1.5-1.6 4.1-1.1 6.6 0.5 2.6 1.7 4.6 2.5 5.9 0.9 1.4 1.5 2.2 1.5 2.2z"/>
						</g>
					</g>
				</g>
				<g id="&lt;Group&gt;">
					<g id="&lt;Group&gt;">
						<g id="&lt;Group&gt;">
							<path id="&lt;Path&gt;" class="s4" d="m149.4 676.1q0 0 0.2 0.3 0.3 0.3 0.7 0.9c0.2 0.4 0.5 0.9 0.7 1.7 0.2 0.7 0.1 1.6-0.1 2.5-0.3 1.9-1 4.1-1.7 6.6-0.6 2.4-1.1 5.2-1.5 8-0.6 5.8-0.5 10.9-0.4 14.7q0 2.4 0.1 4.4c0 1 0 1.6 0 1.6 0 0-0.1-0.5-0.2-1.6-0.1-1-0.2-2.5-0.2-4.4-0.2-3.7-0.4-8.9 0.3-14.7 0.3-2.9 0.9-5.6 1.5-8.1 0.7-2.5 1.5-4.6 1.8-6.5 0.5-1.9 0.1-3.3-0.5-4.1-0.5-0.8-0.7-1.2-0.7-1.3z"/>
						</g>
					</g>
				</g>
			</g>
			<g id="&lt;Group&gt;">
				<g id="&lt;Group&gt;">
					<g id="&lt;Group&gt;">
						<path id="&lt;Path&gt;" class="s2" d="m556 892.5l28.1-67.2c0.4-0.9 1.5-1.4 2.4-1l20.7 8.7c1 0.4 1.4 1.5 1 2.4l-28.1 67.2c-0.4 1-1.5 1.4-2.4 1l-20.7-8.6c-1-0.4-1.4-1.5-1-2.5z"/>
					</g>
				</g>
				<g id="&lt;Group&gt;">
					<g id="&lt;Group&gt;">
						<g id="&lt;Group&gt;">
							<path id="&lt;Path&gt;" class="s6" d="m556 892.5c0 0-0.1 0.2-0.1 0.5 0 0.4 0 0.9 0.4 1.4 0.4 0.5 1.3 0.7 2.2 1.1q1.4 0.5 3.2 1.2 3.6 1.5 8.6 3.6 2.5 1 5.4 2.2 0.7 0.3 1.4 0.6c0.6 0.2 1 0.4 1.4 0.3 0.5 0 0.9-0.3 1.1-0.6 0.2-0.4 0.5-1 0.7-1.5 7-17 16.7-40.3 27.5-66.1 0.2-0.5 0-1.3-0.6-1.6-0.6-0.3-1.5-0.7-2.3-1q-2.3-1-4.7-2-4.7-2-9.3-3.9-2.2-0.9-4.5-1.9c-0.6-0.3-1.2-0.1-1.6 0.3q-0.2 0.2-0.2 0.4l-0.3 0.6-0.4 1.1q-1.9 4.3-3.6 8.5c-4.8 11.2-9 21.2-12.6 29.6-3.5 8.4-6.4 15.2-8.5 20q-1.5 3.4-2.4 5.4-0.3 0.8-0.6 1.4-0.2 0.4-0.2 0.4-0.1 0 0.1-0.5 0.2-0.5 0.6-1.4 0.8-2 2.1-5.5c2-4.8 4.8-11.6 8.3-20 3.5-8.5 7.7-18.6 12.3-29.7q1.7-4.2 3.6-8.6l0.4-1.1 0.3-0.6q0.1-0.3 0.4-0.6c0.6-0.8 1.8-1 2.7-0.6q2.2 0.9 4.5 1.9 4.6 1.9 9.3 3.9 2.4 1 4.7 2c0.9 0.3 1.6 0.6 2.5 1 1 0.6 1.4 1.9 0.9 2.9-10.8 25.7-20.6 49-27.8 66-0.2 0.5-0.3 1-0.7 1.6-0.4 0.5-1 0.9-1.6 0.9-0.7 0.1-1.3-0.2-1.7-0.4q-0.7-0.3-1.5-0.6-2.8-1.3-5.3-2.3-5-2.2-8.6-3.7-1.7-0.8-3.1-1.4c-0.9-0.4-1.7-0.6-2.2-1.2-0.5-0.5-0.5-1.1-0.4-1.5 0-0.3 0.2-0.5 0.2-0.5z"/>
						</g>
					</g>
				</g>
			</g>
			<g id="&lt;Group&gt;">
				<g id="&lt;Group&gt;">
					<g id="&lt;Group&gt;">
						<path id="&lt;Path&gt;" class="s6" d="m604.6 842.8c-0.1 0.3-5.5-1.6-12.1-4.2-6.5-2.6-11.7-4.9-11.6-5.1 0.1-0.3 5.5 1.6 12 4.2 6.6 2.6 11.8 4.9 11.7 5.1z"/>
					</g>
				</g>
			</g>
			<g id="&lt;Group&gt;">
				<g id="&lt;Group&gt;">
					<g id="&lt;Group&gt;">
						<path id="&lt;Path&gt;" class="s6" d="m594.7 868.8c-0.1 0.3-5.7-1.7-12.6-4-6.9-2.4-12.5-4.3-12.4-4.5 0-0.3 5.8 1.2 12.7 3.5 6.9 2.4 12.4 4.7 12.3 5z"/>
					</g>
				</g>
			</g>
			<g id="&lt;Group&gt;">
				<g id="&lt;Group&gt;">
					<g id="&lt;Group&gt;">
						<path id="&lt;Path&gt;" class="s6" d="m557.6 888.9c0.1-0.2 5.6 1.6 12.3 4.2 6.7 2.5 12 4.8 11.9 5-0.1 0.3-5.6-1.6-12.3-4.1-6.6-2.5-12-4.8-11.9-5.1z"/>
					</g>
				</g>
			</g>
			<g id="&lt;Group&gt;" style="opacity: .3">
				<path id="&lt;Path&gt;" class="s5" d="m373.5 820.7l143.5-21.5-37.9-14.9-144.2 21.2z"/>
			</g>
		</g>
	</g>
	<g id="Character">
		<g id="&lt;Group&gt;">
			<g id="&lt;Group&gt;">
				<g id="&lt;Group&gt;">
					<path id="&lt;Path&gt;" class="s7" d="m968.9 250.8l-37.1 12.4 37.1 108.6-56-52.1-34.8 69.6c0 0 78.3 54.9 106.8 58.8 28.5 3.9 48.8-13.4 48.5-45.3-0.1-13.4-64.5-152-64.5-152z"/>
				</g>
				<g id="&lt;Group&gt;">
					<g id="&lt;Group&gt;">
						<path id="&lt;Path&gt;" class="s8" d="m988 395.8c-0.3 0.2-4.5-4.8-9.5-11.2-5-6.4-8.8-11.7-8.6-11.9 0.2-0.2 4.4 4.9 9.4 11.2 5 6.4 8.9 11.8 8.7 11.9z"/>
					</g>
				</g>
				<g id="&lt;Group&gt;">
					<g id="&lt;Group&gt;">
						<g id="&lt;Group&gt;">
							<g id="&lt;Group&gt;">
								<path id="&lt;Path&gt;" class="s7" d="m926.4 214.4c0 0-10-11.2-15-8.7-5 2.6-10.9 9.2-10.7 13.7 0.2 4.6 2.4 8.2 4.4 7.5 1.9-0.6 6.8-6 6.8-6l9.3 7.8 0.1 12.8-6.2 5.5-6.2-7.4-0.8-10c0 0-5.9-2.8-6.6 5.5-0.7 8.3-0.2 22.9 9.2 27.5 9.3 4.7 26.2 10 26.2 10l33.9-11.9-2.2-43.1c0 0 10.2-17.7 9.6-23.6-0.6-6-4.4-23.8-4.4-23.8 0 0-4.9-2-6.1 3.5-1.1 5.4 0.2 20.2 0.2 20.2l-8.6 14.2-8.4-51.3c0 0-8.2-2.7-8.1 9.3 0 12 4.1 40.7 2.7 41-1.4 0.4-5.7 1.4-6.5-4.5-0.9-6-14.4-50.1-14.4-50.1 0 0-9.4 4.8-6.4 14 3.1 9.3 10.3 38.9 10.7 41.2 0.4 2.3-2.5 6.7-2.5 6.7z"/>
							</g>
						</g>
					</g>
					<g id="&lt;Group&gt;">
						<g id="&lt;Group&gt;">
							<g id="&lt;Group&gt;">
								<g id="&lt;Group&gt;">
									<path id="&lt;Path&gt;" class="s8" d="m947.3 254.5c-0.3 0.1-1.2-1.2-2.9-2.9-1.8-1.8-4.5-3.9-8-5.3-3.5-1.3-7-1.7-9.4-1.6-2.5 0.1-4.1 0.4-4.1 0.2-0.1-0.2 1.3-1 3.9-1.4 2.6-0.4 6.4-0.2 10.2 1.2 3.8 1.5 6.7 4 8.3 6 1.6 2.1 2.1 3.7 2 3.8z"/>
								</g>
							</g>
						</g>
					</g>
				</g>
			</g>
			<g id="&lt;Group&gt;">
				<g id="&lt;Group&gt;">
					<path id="&lt;Path&gt;" class="s6" d="m708.5 75.5c-5.5-6.8-13.9-12.3-23.7-12.3-13.2 0.1-25.5 11-28.2 22.8-2.8 11.9 2.8 23.7 12.1 31.4 9.4 7.6 21.9 11.5 34.7 13.4l9.7-4.8c8.4-16.8 6.6-36.7-4.6-50.5z"/>
				</g>
				<g id="&lt;Group&gt;">
					<g id="&lt;Group&gt;">
						<g id="&lt;Group&gt;">
							<g id="&lt;Group&gt;">
								<path id="&lt;Path&gt;" class="s3" d="m705.6 156.8c-0.8-3.5 1.5-6.9 5-7.6 3.5-0.8 6.9 1.5 7.6 5 0.7 3.5-1.5 6.9-5 7.6-3.5 0.7-6.9-1.5-7.6-5z"/>
							</g>
						</g>
					</g>
					<g id="&lt;Group&gt;">
						<g id="&lt;Group&gt;">
							<g id="&lt;Group&gt;">
								<g id="&lt;Group&gt;">
									<g id="&lt;Group&gt;">
										<g id="&lt;Group&gt;">
											<path id="&lt;Path&gt;" class="s3" d="m637.9 104.6l6 11.4 62 43.2 7.2-10.8-61.6-42.8-13-1.8c-0.4-0.1-0.8 0.5-0.6 0.8z"/>
										</g>
									</g>
								</g>
								<g id="&lt;Group&gt;" style="opacity: .7">
									<g id="&lt;Group&gt;">
										<g id="&lt;Group&gt;">
											<g id="&lt;Group&gt;">
												<path id="&lt;Path&gt;" class="s4" d="m651.5 105.6c-0.1 0.6-0.6 1.1-1.1 1 0.6 0.8 0.6 2.2 0 3.2-0.6 1-1.8 1.7-2.8 1.6 0.3 1 0 2.3-0.8 3.2-0.7 0.9-1.9 1.4-2.9 1.3l-6-11.2c-0.2-0.4 0.2-0.9 0.7-0.9z"/>
											</g>
										</g>
									</g>
								</g>
								<g id="&lt;Group&gt;">
									<g id="&lt;Group&gt;">
										<g id="&lt;Group&gt;">
											<path id="&lt;Path&gt;" class="s3" d="m640.3 108.6c0.7-0.1 2.4-0.8 2.8-3.7 0-0.3-0.1-0.5-0.3-0.5l-4.4-0.6c-0.4-0.1-0.7 0.4-0.5 0.8l2 3.8c0.1 0.2 0.2 0.2 0.4 0.2z"/>
										</g>
									</g>
								</g>
							</g>
						</g>
						<g id="&lt;Group&gt;" style="opacity: .3">
							<g id="&lt;Group&gt;">
								<g id="&lt;Group&gt;">
									<path id="&lt;Path&gt;" class="s5" d="m647.6 111.4l61.5 42.3-3.4 5.3-61.8-43v-0.1c0 0 0.6 0.1 1.3-0.1 0.5-0.2 1.1-0.6 1.6-1.1 0.6-0.8 0.8-1.5 0.9-2.2 0.1-0.6-0.1-1.1-0.1-1.1z"/>
								</g>
							</g>
						</g>
						<g id="&lt;Group&gt;" style="opacity: .3">
							<g id="&lt;Group&gt;">
								<g id="&lt;Group&gt;">
									<path id="&lt;Path&gt;" class="s5" d="m650.4 106.6l61.8 43.1 1-1.3-61.7-42.8c0 0-0.1 0.8-0.9 1q-0.1 0-0.2 0z"/>
								</g>
							</g>
						</g>
					</g>
					<g id="&lt;Group&gt;">
						<g id="&lt;Group&gt;">
							<g id="&lt;Group&gt;">
								<g id="&lt;Group&gt;">
									<path id="&lt;Path&gt;" class="s2" d="m705.5 158.9l7.7-10.5c0.1-0.1 0.3-0.2 0.5-0.1l3.2 2.4c0.2 0.1 0.2 0.3 0.1 0.5l-7.7 10.5c-0.1 0.1-0.3 0.2-0.4 0.1l-3.3-2.4c-0.1-0.1-0.2-0.3-0.1-0.5z"/>
								</g>
							</g>
						</g>
						<g id="&lt;Group&gt;">
							<g id="&lt;Group&gt;">
								<g id="&lt;Group&gt;">
									<g id="&lt;Group&gt;">
										<path id="&lt;Path&gt;" class="s6" d="m705.5 158.9q0 0 0 0.1c0 0.1 0 0.2 0 0.3 0.1 0.1 0.2 0.1 0.4 0.3q0.2 0.1 0.5 0.3 0.5 0.4 1.3 1 0.4 0.3 0.9 0.6 0.1 0.1 0.2 0.1 0.1 0.1 0.2 0.2 0.1 0 0.2-0.1c0.1-0.1 0.2-0.2 0.2-0.2 1.9-2.7 4.6-6.4 7.5-10.4 0.1-0.1 0.1-0.2 0-0.3-0.1-0.1-0.2-0.2-0.4-0.3q-0.3-0.2-0.7-0.5-0.7-0.5-1.5-1.1-0.3-0.2-0.7-0.5c-0.1-0.1-0.2-0.1-0.3 0q0 0 0 0.1h-0.1l-0.1 0.2q-0.5 0.7-1 1.4c-1.3 1.7-2.4 3.3-3.4 4.6-1 1.3-1.7 2.4-2.3 3.1q-0.4 0.5-0.6 0.9-0.1 0.1-0.2 0.2-0.1 0-0.1 0 0 0 0.1 0 0-0.1 0.1-0.3 0.3-0.3 0.6-0.8c0.6-0.8 1.4-1.9 2.3-3.2 1-1.3 2.1-2.9 3.4-4.6q0.5-0.7 1-1.4l0.1-0.2q0.1-0.1 0.1-0.1c0.2-0.1 0.4-0.1 0.5 0q0.4 0.2 0.8 0.5 0.7 0.5 1.4 1 0.4 0.3 0.7 0.6c0.2 0.1 0.3 0.2 0.4 0.3 0.2 0.1 0.2 0.4 0.1 0.5-3 4-5.6 7.7-7.6 10.3-0.1 0.1-0.1 0.2-0.2 0.3q-0.1 0.1-0.3 0.1c-0.1 0-0.2-0.1-0.3-0.2q-0.1 0-0.2-0.1-0.5-0.4-0.8-0.6-0.8-0.6-1.4-1-0.3-0.2-0.5-0.4c-0.1-0.1-0.2-0.2-0.3-0.3-0.1-0.1 0-0.2 0-0.3q0-0.1 0-0.1z"/>
									</g>
								</g>
							</g>
						</g>
					</g>
					<g id="&lt;Group&gt;">
						<g id="&lt;Group&gt;">
							<g id="&lt;Group&gt;">
								<g id="&lt;Group&gt;">
									<path id="&lt;Path&gt;" class="s6" d="m716.1 152.3c-0.1 0-0.9-0.5-2-1.2-1-0.8-1.8-1.4-1.8-1.4 0-0.1 0.9 0.5 1.9 1.2 1.1 0.7 1.9 1.4 1.9 1.4z"/>
								</g>
							</g>
						</g>
					</g>
					<g id="&lt;Group&gt;">
						<g id="&lt;Group&gt;">
							<g id="&lt;Group&gt;">
								<g id="&lt;Group&gt;">
									<path id="&lt;Path&gt;" class="s6" d="m713.3 156.4c-0.1 0.1-1-0.5-2.1-1.2-1.1-0.7-2-1.3-1.9-1.3 0-0.1 0.9 0.4 2 1.1 1.1 0.7 2 1.4 2 1.4z"/>
								</g>
							</g>
						</g>
					</g>
					<g id="&lt;Group&gt;">
						<g id="&lt;Group&gt;">
							<g id="&lt;Group&gt;">
								<g id="&lt;Group&gt;">
									<path id="&lt;Path&gt;" class="s6" d="m706 158.4c0-0.1 0.9 0.5 1.9 1.2 1.1 0.7 1.9 1.3 1.9 1.4 0 0-0.9-0.5-2-1.2-1-0.8-1.8-1.4-1.8-1.4z"/>
								</g>
							</g>
						</g>
					</g>
				</g>
				<g id="&lt;Group&gt;">
					<g id="&lt;Group&gt;">
						<path id="&lt;Path&gt;" class="s6" d="m835.3 117.6l-157.6 19.4c-18.4 45.6-22.4 97-11.2 145 65.7 9.8 133.3 6.5 197.8-9.6-3.9-52.5-14.2-104.3-29-154.8z"/>
					</g>
					<g id="&lt;Group&gt;">
						<g id="&lt;Group&gt;">
							<path id="&lt;Path&gt;" class="s6" d="m681.4 126.9c13.5-25.8 35.1-43.5 63.4-49.9 16-3.6 23.4-1.6 35.6-0.9 12.2 0.7 24 4.7 32.9 13.1 10.6 9.9 20.2 21.5 24.7 35.3 4.6 14.2 9.3 28.5 11.2 43.3 2 14.8 1.1 30.3-5.1 43.9l-35.7 14.1c-20.4 5-41 10-61.9 9.5-21-0.6-42.6-7.3-56.9-22.5-19.9-21.2-21.6-60.1-8.2-85.9z"/>
						</g>
						<g id="&lt;Group&gt;">
							<path id="&lt;Path&gt;" class="s7" d="m714.4 119.8l45.4-29.9 13.2-1.2c29.1-6 55.8 21.9 60.9 45.4 5.7 26.1 11.5 58.2 11.4 78.3-0.3 40.5-32.7 50.6-32.7 50.6l3.8 38.2 11.7 10 20.9 82.4-59.5 19.3-43.3-113.7-2.2-4.4-39.9-159c-1.3-7.2 3.2-14.2 10.3-16z"/>
						</g>
						<g id="&lt;Group&gt;">
							<path id="&lt;Path&gt;" class="s8" d="m785.2 215.4c-0.1-2.1 0.6-4.1 1.8-5.7 2.4-3 6.6-4.2 10.1-2.7 3.6 1.5 6.3 5.5 6.5 9.7-1.2 2.8-3.5 5-6.4 5.8q-0.7 0.2-1.4 0.3c-2.2 0.5-4.7 0.2-6.7-1.1-2.1-1.3-3.7-3.7-3.9-6.3z"/>
						</g>
						<g id="&lt;Group&gt;">
							<path id="&lt;Path&gt;" class="s6" d="m825.2 169.7c0.5 2.7-1.4 5.3-4.1 5.9-2.8 0.5-5.5-1.2-6-3.8-0.5-2.7 1.4-5.3 4.1-5.9 2.8-0.6 5.5 1.1 6 3.8z"/>
						</g>
						<g id="&lt;Group&gt;">
							<path id="&lt;Path&gt;" class="s6" d="m827.8 149c-0.6 0.8-4.8-1.5-10.3-0.7-5.5 0.8-9 4.2-9.7 3.6-0.4-0.2 0.1-1.5 1.6-3 1.6-1.6 4.3-3.2 7.7-3.7 3.4-0.5 6.5 0.3 8.3 1.3 1.9 1 2.6 2.2 2.4 2.5z"/>
						</g>
						<g id="&lt;Group&gt;">
							<path id="&lt;Path&gt;" class="s6" d="m801.9 198.5c-0.1-0.3 3.2-1.4 8.6-2.9 1.4-0.4 2.7-0.9 2.7-1.9 0.2-1-0.6-2.4-1.5-3.9q-2.7-4.8-5.7-10c-8.1-14.3-14.1-26-13.5-26.4 0.6-0.3 7.5 11 15.6 25.2q2.9 5.3 5.5 10.1c0.8 1.5 2 3.2 1.6 5.4-0.2 1.1-1.2 2-2 2.3-0.9 0.5-1.6 0.6-2.3 0.7-5.5 1.2-8.9 1.7-9 1.4z"/>
						</g>
						<g id="&lt;Group&gt;">
							<path id="&lt;Path&gt;" class="s8" d="m812.6 262.9c0 0-26.3 5.8-55.1-6.1 0 0 17.2 27.5 56.3 17.8z"/>
						</g>
						<g id="&lt;Group&gt;">
							<path id="&lt;Path&gt;" class="s6" d="m786.4 204.7c0.9-0.2 1.8 5.7 7.5 9.2 5.7 3.4 11.9 1.8 12.1 2.6 0.1 0.4-1.3 1.4-3.9 1.9-2.6 0.5-6.6 0.2-10-1.9-3.5-2.1-5.4-5.4-6-7.8-0.6-2.4-0.1-4 0.3-4z"/>
						</g>
						<g id="&lt;Group&gt;">
							<path id="&lt;Path&gt;" class="s6" d="m822 130.5c-0.7 1.5-5 1.2-9.9 2.4-4.8 0.9-8.6 3-9.9 2-0.6-0.6-0.2-1.9 1.3-3.5 1.4-1.6 4.1-3.3 7.4-4 3.4-0.8 6.5-0.4 8.5 0.5 2 0.8 2.9 1.9 2.6 2.6z"/>
						</g>
						<g id="&lt;Group&gt;">
							<path id="&lt;Path&gt;" class="s6" d="m766.2 179.3c0.4 2.6 3 4.5 5.8 4.1 2.8-0.4 4.8-2.8 4.4-5.5-0.5-2.7-3.1-4.5-5.9-4.2-2.8 0.4-4.7 2.9-4.3 5.6z"/>
						</g>
						<g id="&lt;Group&gt;">
							<path id="&lt;Path&gt;" class="s6" d="m754.3 162.1c0.7 0.5 4-3 9.4-4 5.4-1.1 10 0.9 10.4 0.1 0.2-0.3-0.6-1.4-2.6-2.3-1.9-0.9-5.1-1.6-8.5-0.9-3.3 0.6-5.9 2.4-7.3 4-1.4 1.6-1.8 2.9-1.4 3.1z"/>
						</g>
						<g id="&lt;Group&gt;">
							<path id="&lt;Path&gt;" class="s6" d="m753.9 144.2c1.3 1 5.3-1.1 10.3-2.1 5-1.2 9.4-0.9 10.2-2.4 0.3-0.7-0.6-1.8-2.7-2.6-2.1-0.9-5.3-1.2-8.8-0.5-3.4 0.8-6.2 2.5-7.7 4.1-1.5 1.6-1.9 2.9-1.3 3.5z"/>
						</g>
						<g id="&lt;Group&gt;">
							<path id="&lt;Path&gt;" class="s6" d="m715.5 191l8.3 5.6c23.4-34.1 65.9-116 63.6-111.2 0 0-21.7-4-42.7 4.2-21 8.2-60 27.7-54 53.2 6 25.5 24.8 48.2 24.8 48.2z"/>
						</g>
					</g>
				</g>
				<g id="&lt;Group&gt;">
					<g id="&lt;Group&gt;">
						<path id="&lt;Path&gt;" class="s7" d="m724.5 200.1c-0.5-3-4.9-9.4-7.9-9.4-8-0.1-21.9 2.7-19 22.4 3.9 27 30.2 17.5 30.1 16.7 0-0.6-1.7-19.6-3.2-29.7z"/>
					</g>
					<g id="&lt;Group&gt;">
						<path id="&lt;Path&gt;" class="s8" d="m718.9 221.1c-0.2-0.1-0.5 0.4-1.2 0.8-0.7 0.5-2 0.9-3.5 0.6-3-0.6-6.1-4.8-6.9-9.6-0.4-2.5-0.3-4.9 0.3-7 0.6-2.1 1.6-3.6 3-4.1 1.4-0.5 2.6 0.2 3 0.9 0.5 0.7 0.4 1.3 0.5 1.3 0.1 0.1 0.6-0.5 0.2-1.6-0.2-0.5-0.6-1.1-1.3-1.6-0.8-0.4-1.7-0.5-2.7-0.3-2.1 0.5-3.7 2.7-4.3 4.9-0.8 2.3-1.1 5-0.6 7.8 1 5.4 4.5 10.1 8.6 10.6 1.9 0.3 3.4-0.5 4.2-1.3 0.7-0.8 0.8-1.4 0.7-1.4z"/>
					</g>
				</g>
				<g id="&lt;Group&gt;">
					<path id="&lt;Path&gt;" class="s6" d="m648 147.6c5.2 4.2 12.9 5 18.9 2-5.5 7.3-13.7 12.4-22.7 14 11.9 5.2 27.1 2 35.9-7.6l1.3-29.1c-5.8 12-20.1 21-33.4 20.7z"/>
				</g>
			</g>
			<path id="&lt;Path&gt;" class="s7" d="m622.3 573l40.2 4.4 23.7-89.4 9.3-154.7-13.6-13.3c-24.4 14.2-41.5 38.3-46.7 66-8 42-14.1 89.1-16.4 102.5l-49.6-34.8-21.8 13.9c0 0 42.4 94.8 74.9 105.4z"/>
			<g id="&lt;Group&gt;">
				<g id="&lt;Group&gt;">
					<path id="&lt;Path&gt;" class="s3" d="m899.6 576.9c-1.5-13.2-2.6-24.5-3.1-31l7.9-41.4c0.6-1.7 3.7-12.8 5.3-56.9 1.7-42.6-5.8-83.5-13.9-124.7 0 0-0.7-10.6-7.6-13.3-18.2-7.2-57.3-15.1-59-16.9-10.8 18.7-36.9 35.7-88-1l-61.7 13.2c-8.7 3.7-22.4 13.1-21.5 22.5l33.5 126.8 19.6 69.3-27.3 53.4z"/>
				</g>
				<path id="&lt;Path&gt;" class="s3" d="m923.5 430.9l41.5-70.5c0 0-30.3-28.4-52.9-48.2-24.9-21.8-36.7-19.2-70.2-12.1 0 0 5.7 79.2 39.1 102.5 6.2 4.3 42.5 28.3 42.5 28.3z"/>
				<g id="&lt;Group&gt;">
					<g id="&lt;Group&gt;">
						<g id="&lt;Group&gt;" style="opacity: .3">
							<path id="&lt;Path&gt;" class="s5" d="m908.3 422.2c-1.2-18.9-4.4-44.8-4.4-44.8 0 0 21.6 29 18.6 54.2"/>
						</g>
						<g id="&lt;Group&gt;">
							<g id="&lt;Group&gt;">
								<path id="&lt;Path&gt;" class="s6" d="m898 357.8q0 0.1 0.3 1.7 0.5 1.8 1.1 4.8c0.6 2.1 1.2 4.6 1.8 7.6 0.6 2.9 1.4 6.3 2 10 0.7 3.8 1.4 7.9 2.1 12.3 0.7 4.4 1.2 9.2 1.8 14.2 1.1 10 1.8 21 2 32.6 0.1 11.7-0.4 22.7-1.2 32.7-0.4 5.1-0.8 9.8-1.5 14.3-0.5 4.4-1.1 8.5-1.7 12.3-0.6 3.7-1.3 7.1-1.8 10.1-0.5 3-1.1 5.5-1.5 7.6q-0.6 3-1 4.8-0.3 1.7-0.3 1.7 0.1 0 0.5-1.6 0.5-1.8 1.2-4.8c0.6-2.1 1.2-4.6 1.8-7.6 0.6-2.9 1.3-6.3 1.9-10.1 0.7-3.7 1.4-7.9 1.9-12.3 0.7-4.5 1.1-9.2 1.7-14.3 0.8-10 1.3-21.1 1.2-32.8-0.1-11.6-1-22.7-2.1-32.7-0.6-5.1-1.2-9.8-1.9-14.2-0.7-4.5-1.5-8.6-2.3-12.3-0.6-3.8-1.5-7.1-2.2-10.1-0.6-2.9-1.3-5.5-1.9-7.5q-0.8-3-1.3-4.7-0.5-1.7-0.6-1.7z"/>
							</g>
						</g>
					</g>
				</g>
				<path id="&lt;Path&gt;" class="s7" d="m864.3 295c0 0-46.9 96.3-57.6 88.1-10.7-8.3-111.2-81.5-111.2-81.5l55.5-12.1 64.3 0.4c21.3 5.5 49 5.1 49 5.1z"/>
				<g id="&lt;Group&gt;">
					<path id="&lt;Path&gt;" class="s3" d="m617.5 420c0 0 23.2-92.3 54-110.7 25.5-15.2 58.6 90.7 58.6 90.7l-6.1 38.2z"/>
				</g>
			</g>
			<g id="&lt;Group&gt;">
				<g id="&lt;Group&gt;">
					<g id="&lt;Group&gt;">
						<path id="&lt;Path&gt;" class="s9" d="m680.3 693.5l-232.4-418.1c-3.6-6.4-1.3-14.4 5.1-18l90.8-50.4c6.4-3.6 14.4-1.3 18 5.1l232.4 418c3.6 6.4 1.3 14.5-5.1 18l-90.8 50.5c-6.4 3.6-14.5 1.3-18-5.1z"/>
					</g>
					<g id="&lt;Group&gt;" style="opacity: .3">
						<path id="&lt;Path&gt;" class="s4" d="m582.3 248.9l-23.2 226.6 23.2 41.7 24.8-223.6z"/>
					</g>
					<g id="&lt;Group&gt;" style="opacity: .3">
						<path id="&lt;Path&gt;" class="s4" d="m621 318.6l-23.2 226.6 13.3 23.9 26.4-220.8z"/>
					</g>
					<g id="&lt;Group&gt;">
						<g id="&lt;Group&gt;">
							<path id="&lt;Path&gt;" class="s6" d="m524.6 284c0.2 0.4-11.8 7.6-26.9 16-15.1 8.4-27.5 14.8-27.7 14.4-0.3-0.5 11.7-7.6 26.8-16 15.1-8.4 27.5-14.8 27.8-14.4z"/>
						</g>
					</g>
					<g id="&lt;Group&gt;">
						<g id="&lt;Group&gt;">
							<path id="&lt;Path&gt;" class="s6" d="m520.3 331.9c0.3 0.5-6.5 4.7-15 9.5-8.6 4.7-15.7 8.2-16 7.8-0.2-0.4 6.5-4.7 15.1-9.4 8.6-4.8 15.7-8.3 15.9-7.9z"/>
						</g>
					</g>
					<g id="&lt;Group&gt;">
						<g id="&lt;Group&gt;">
							<path id="&lt;Path&gt;" class="s6" d="m563.3 353.6c0.2 0.5-11.8 7.6-26.9 16-15.1 8.4-27.5 14.9-27.7 14.4-0.3-0.4 11.8-7.6 26.9-16 15-8.3 27.5-14.8 27.7-14.4z"/>
						</g>
					</g>
					<g id="&lt;Group&gt;">
						<g id="&lt;Group&gt;">
							<path id="&lt;Path&gt;" class="s6" d="m559.1 401.6c0.2 0.4-6.5 4.6-15.1 9.4-8.6 4.8-15.7 8.3-16 7.8-0.2-0.4 6.5-4.6 15.1-9.4 8.6-4.7 15.7-8.3 16-7.8z"/>
						</g>
					</g>
					<g id="&lt;Group&gt;">
						<g id="&lt;Group&gt;">
							<path id="&lt;Path&gt;" class="s6" d="m602 423.3c0.3 0.4-11.8 7.6-26.8 16-15.1 8.4-27.6 14.8-27.8 14.4-0.2-0.5 11.8-7.6 26.9-16 15.1-8.4 27.5-14.8 27.7-14.4z"/>
						</g>
					</g>
					<g id="&lt;Group&gt;">
						<g id="&lt;Group&gt;">
							<path id="&lt;Path&gt;" class="s6" d="m597.8 471.2c0.2 0.5-6.5 4.7-15.1 9.5-8.6 4.7-15.7 8.2-15.9 7.8-0.3-0.5 6.5-4.7 15-9.4 8.6-4.8 15.7-8.3 16-7.9z"/>
						</g>
					</g>
					<g id="&lt;Group&gt;">
						<g id="&lt;Group&gt;">
							<path id="&lt;Path&gt;" class="s6" d="m640.7 492.9c0.3 0.5-11.7 7.6-26.8 16-15.1 8.4-27.5 14.8-27.8 14.4-0.2-0.4 11.8-7.6 26.9-16 15.1-8.4 27.5-14.8 27.7-14.4z"/>
						</g>
					</g>
					<g id="&lt;Group&gt;">
						<g id="&lt;Group&gt;">
							<path id="&lt;Path&gt;" class="s6" d="m636.5 540.9c0.3 0.4-6.5 4.6-15.1 9.4-8.5 4.8-15.7 8.3-15.9 7.8-0.3-0.4 6.5-4.6 15.1-9.4 8.5-4.7 15.7-8.3 15.9-7.8z"/>
						</g>
					</g>
					<g id="&lt;Group&gt;">
						<g id="&lt;Group&gt;">
							<path id="&lt;Path&gt;" class="s6" d="m679.5 562.6c0.2 0.4-11.8 7.6-26.9 16-15.1 8.3-27.5 14.8-27.8 14.4-0.2-0.5 11.8-7.6 26.9-16 15.1-8.4 27.5-14.9 27.8-14.4z"/>
						</g>
					</g>
					<g id="&lt;Group&gt;">
						<g id="&lt;Group&gt;">
							<path id="&lt;Path&gt;" class="s6" d="m675.2 610.5c0.3 0.5-6.5 4.7-15 9.4-8.6 4.8-15.8 8.3-16 7.9-0.2-0.5 6.5-4.7 15.1-9.4 8.5-4.8 15.7-8.3 15.9-7.9z"/>
						</g>
					</g>
					<g id="&lt;Group&gt;">
						<g id="&lt;Group&gt;">
							<path id="&lt;Path&gt;" class="s6" d="m718.2 632.2c0.2 0.5-11.8 7.6-26.9 16-15.1 8.4-27.5 14.8-27.7 14.4-0.3-0.4 11.7-7.6 26.8-16 15.1-8.4 27.5-14.8 27.8-14.4z"/>
						</g>
					</g>
				</g>
				<g id="&lt;Group&gt;">
					<g id="&lt;Group&gt;">
						<path id="&lt;Path&gt;" class="s7" d="m574.1 443.4c-1.2-2.6-4.6-4.2-7.2-2.9 2-1.5 3.7-3.4 4.6-5.7 0.8-2.3 0.7-5.1-0.9-7-1.5-1.9-4.5-2.7-6.5-1.2 0.7-3.8-3-7.3-6.9-7.9-3.8-0.5-7.6 1.1-11.1 2.8-3 1.5-6.4 3.4-10 3.4-0.5 0-1.1-0.1-1.6 0-0.8 0.2-1.6 0.6-2.4 0.9-1.7 0.6-3.5 1.1-5.3 1.2q-0.5 0-1.1 0c-1.1 0-2.1-0.2-3.1-0.3q-0.4-0.1-0.7 0c-0.5 0.2-0.8 0.6-1.2 0.8q-1.5 1.2-2.5 2.9c-1.4 2.2-1.9 4.9-1.4 7.4 0.8 4.2 4.4 7.7 8.7 8.2-2.6 1-4.1 4.1-3.7 6.8 0.4 2.8 2.5 5.1 5 6.3 2.4 1.3 3.7 0.3 6.5 0.1-3.6 3.9 1.4 13.6 5.2 13.4 0 0 1.2 6.6 7.8 9 2.7 0.9 9.9-4.4 12.4-6.9-0.9-1.4-4.8-8.8-4.8-8.8 2.3-1.8 10.1-7.2 12.5-8.7 2.5-1.4 5-3.2 6.6-5.5 1.6-2.4 2.3-5.6 1.1-8.3z"/>
						<g id="&lt;Group&gt;">
							<g id="&lt;Group&gt;">
								<g id="&lt;Group&gt;">
									<g id="&lt;Group&gt;">
										<path id="&lt;Path&gt;" class="s7" d="m514.6 419.3c-1.1-2.2-1.7-4.8-0.7-6.9 1.2-2.6 4.8-4.7 7.5-5.6 1.9 2.8 2.7 4.3 4.6 7.1 0.4 0.5 0.5 1.1 1.1 1.5 1.6 1 4.9-0.7 6.7-0.9 3.3-0.3 6.2 2.7 6.4 6 0.2 3.2-1.9 6.3-4.8 7.8-2.9 1.4-6.4 1.4-9.5 0.5-4.9-1.4-9.1-5-11.3-9.5z"/>
									</g>
								</g>
							</g>
						</g>
						<g id="&lt;Group&gt;">
							<g id="&lt;Group&gt;">
								<g id="&lt;Group&gt;">
									<g id="&lt;Group&gt;">
										<g id="&lt;Group&gt;">
											<path id="&lt;Path&gt;" class="s8" d="m524.6 446.5c0.3 0.5 9.4-3.5 20.2-9 10.9-5.5 19.5-10.4 19.2-10.9-0.2-0.6-9.3 3.4-20.2 8.9-10.9 5.5-19.5 10.4-19.2 11z"/>
										</g>
									</g>
								</g>
							</g>
						</g>
						<g id="&lt;Group&gt;">
							<g id="&lt;Group&gt;">
								<g id="&lt;Group&gt;">
									<g id="&lt;Group&gt;">
										<g id="&lt;Group&gt;">
											<path id="&lt;Path&gt;" class="s8" d="m532.7 459.5c0.2 0.6 8.8-2.3 18.5-7.7 9.8-5.3 16.8-11 16.5-11.5-0.4-0.5-7.9 4.3-17.6 9.5-9.6 5.3-17.7 9.1-17.4 9.7z"/>
										</g>
									</g>
								</g>
							</g>
						</g>
					</g>
					<g id="&lt;Group&gt;">
						<g id="&lt;Group&gt;">
							<g id="&lt;Group&gt;">
								<g id="&lt;Group&gt;">
									<g id="&lt;Group&gt;">
										<path id="&lt;Path&gt;" class="s8" d="m540.6 472.3c0.2 0.6 7.2-2.2 15-7 7.8-4.7 13.9-8.9 13.6-9.4-0.3-0.6-7 2.8-14.7 7.5-7.8 4.7-14.2 8.3-13.9 8.9z"/>
									</g>
								</g>
							</g>
						</g>
					</g>
					<g id="&lt;Group&gt;">
						<g id="&lt;Group&gt;">
							<g id="&lt;Group&gt;">
								<g id="&lt;Group&gt;">
									<g id="&lt;Group&gt;">
										<path id="&lt;Path&gt;" class="s8" d="m517.9 423c-0.2 0.1 0.1 1.7 2 3.4 1.8 1.6 5.2 2.9 8.9 2.7 3.7-0.4 6.7-1.2 9-2.3 2.4-1.4 2.3-3.5 2-3.4-0.3-0.1-0.8 1.3-2.7 1.9-1.9 0.6-5.2 1.3-8.4 1.5-3.3 0.2-6.1-0.6-7.9-1.7-1.8-1.1-2.6-2.3-2.9-2.1z"/>
									</g>
								</g>
							</g>
						</g>
					</g>
				</g>
			</g>
		</g>
	</g>
	<g id="Text">
		<g id="&lt;Group&gt;">
			<g id="&lt;Group&gt;">
				<g id="&lt;Group&gt;">
					<path id="&lt;Path&gt;" class="s4" d="m209.3 457.2v334.6h965.5v-334.6z"/>
				</g>
				<g id="&lt;Group&gt;">
					<g id="&lt;Group&gt;">
						<path id="&lt;Path&gt;" class="s6" d="m209.3 457.2c4.8 0 408.7-0.2 965.5-0.5h0.5v0.5c0 105.3 0.1 218.1 0.1 334.6v0.6h-0.6c-385.1-0.1-731.1-0.2-965.5-0.2h-0.3v-0.4c0.2-209.4 0.3-331.9 0.3-334.6 0 2.7 0.2 125.2 0.4 334.6l-0.4-0.3c234.4 0 580.4-0.1 965.5-0.2l-0.5 0.5c0-116.5 0-229.3 0-334.6l0.5 0.5c-556.8-0.3-960.7-0.5-965.5-0.5z"/>
					</g>
				</g>
			</g>
			<g id="&lt;Group&gt;" style="opacity: .3">
				<path id="&lt;Path&gt;" class="s5" d="m401 470.6q0-0.2 0-0.4c2.1-0.4 3.3-0.6 3.3-0.7 0 0-1.2 0.2-3.3 0.5q-0.3-2.2-0.5-4.3c3.1-2.3 6.1-5.4 9-8l-142.1 0.8c11.9 11.8 26.7 19.1 42.8 23.8q0.2 1.5 0.4 3c-3.4 0.7-5.4 1-5.3 1.1 0 0.1 1-0.1 3-0.4l-2.2 0.4c0.1 0.7 4.2 18 6.3 26.9q0.5 1.9 1.5 3.5 0 0 0 0 0 0 0.1 0c1 1.7 2.6 3 4.4 3.8l0.9 0.4q0.1 0.3 0.3 0.5c0.5 0.7 1.3 1 2.2 0.8q0.1 0 0.3 0l0.7 0.3 0.8-0.1q0.5 2 1.1 3.9l-0.9 0.2c-1 0.2-1.8 1.2-1.6 2.3v0.2c0.2 1.1 1.2 1.9 2.3 1.7l1.4-0.3q0.7 2.5 1.4 4.8l-1.3 0.2c-1 0.2-1.8 1.2-1.6 2.3v0.2c0.2 1.1 1.2 1.9 2.2 1.7l1.9-0.3q0.3 1 0.6 1.9c1.2 4.4 4.5 7.9 8.9 9.1 1.6 0.5 3.3 0.7 5.3 0.3q0.7-0.1 1.7-0.2c1.3 0.6 4 2.1 6 3.9 1.3 1.3 3.2 1.9 5.1 1.6l18-3c2-0.4 3.8-1.7 4.7-3.6 0.9-1.9 2.4-4.1 4.3-5.3 1.8-0.4 10.1-2.6 11.2-10.4 0.1-1.2 0.3-2.9 0.4-4.9 0.9-0.4 1.6-0.7 1.9-1l1.7-0.3c1.1-0.2 1.8-1.2 1.7-2.3v-0.2c-0.2-1.1-1.2-1.9-2.3-1.7l-2.8 0.5q0.1-2.3 0.2-4.8 0.2-0.1 0.4-0.3l2.5-0.4c1.1-0.2 1.8-1.2 1.7-2.3l-0.1-0.2c-0.1-1.1-1.1-1.9-2.2-1.7l-2.2 0.4q0-2 0-3.9l4-0.7 3.6-3.3c2.5-2.3 3.8-5.6 3.7-9l-1.6-27.6z"/>
			</g>
			<g id="&lt;Group&gt;">
				<g id="&lt;Group&gt;">
					<path id="&lt;Compound Path&gt;" fill-rule="evenodd" class="s6" d="m813.1 596.3q13.6 11.7 13.6 36v57.6h-33.8v-13.4q-7.9 15.2-30.7 15.2-12 0-20.8-4.2-8.8-4.3-13.3-11.4-4.5-7.2-4.5-16.4 0-14.7 11.3-22.9 11.3-8.1 34.8-8.1h20.7q-1-16.5-22-16.5-7.5 0-15.2 2.4-7.6 2.4-13 6.6l-12.2-24.7q8.6-5.7 20.9-8.9 12.4-3.1 24.8-3.1 25.9 0 39.4 11.8zm-29.6 69.3q4.8-3 6.9-9v-9h-15.7q-15.9 0-15.9 10.6 0 4.8 3.6 7.6 3.7 2.9 10 2.9 6.3 0 11.1-3.1z"/>
				</g>
				<g id="&lt;Group&gt;">
					<path id="&lt;Compound Path&gt;" class="s6" d="m948.4 596q11.7 11.5 11.7 34.6v59.3h-36.3v-53.4q0-21.2-17.1-21.2-9.4 0-15 6.1-5.6 6.1-5.6 18.4v50.1h-36.4v-103.7h36.3v11.3c4.1-4.2 7.3-7.4 12.9-9.7q8.4-3.3 18.4-3.3 19.3 0 31.1 11.5z"/>
				</g>
				<g id="&lt;Group&gt;">
					<path id="&lt;Compound Path&gt;" fill-rule="evenodd" class="s6" d="m1094.7 547.9v142h-34.7v-10.3q-10.1 12.1-30.4 12.1-14.2 0-25.8-6.6-11.7-6.6-18.5-18.9-6.8-12.2-6.8-28.3 0-16.1 6.8-28.2 6.8-12.2 18.5-18.7 11.6-6.5 25.8-6.5 18.6 0 28.7 10.7v-47.3zm-41.9 108.3q6.1-6.6 6.1-18.3 0-11.5-6-18-6-6.5-15.6-6.5-9.6 0-15.7 6.5-6.1 6.5-6.1 18 0 11.7 6.1 18.3 6.1 6.6 15.7 6.6 9.4 0 15.5-6.6z"/>
				</g>
			</g>
			<g id="&lt;Group&gt;">
				<path id="&lt;Compound Path&gt;" class="s3" d="m353.9 579.8q8.9-3.5 20.4-3.5v32.7q-5-0.6-8.3-0.6-11.6 0-18.2 6.3-6.6 6.4-6.6 19.4v47.6h-36.4v-103.7h34.6v12.4q5.6-7 14.5-10.6z"/>
				<path id="&lt;Compound Path&gt;" fill-rule="evenodd" class="s3" d="m493.7 639h-75.4q2.3 8.1 8.9 12.4 6.6 4.3 16.5 4.3 7.5 0 13-2.1 5.4-2.1 11-6.9l19.1 19.9q-15.1 16.9-44.2 16.8-18.2 0-32-6.8-13.8-6.9-21.3-19.2-7.6-12.2-7.6-27.7 0-15.3 7.4-27.5 7.4-12.1 20.4-19 13-6.9 29.3-6.9 15.5 0 28.1 6.4 12.6 6.4 20 18.6 7.4 12.1 7.4 28.8 0 0.3-0.6 8.9zm-68.8-32.1q-5.7 4.8-7.2 13h42.5q-1.5-8.2-7.2-13-5.6-4.8-14.1-4.8-8.4 0-14 4.8z"/>
			</g>
			<g id="&lt;Group&gt;">
				<g id="&lt;Group&gt;">
					<path id="&lt;Path&gt;" class="s9" d="m515.4 697.5c-0.3 0-0.6-35.5-0.6-79.4 0-43.9 0.3-79.5 0.6-79.5 0.2 0 0.5 35.6 0.5 79.5 0 43.9-0.3 79.4-0.5 79.4z"/>
				</g>
			</g>
			<g id="&lt;Group&gt;">
				<g id="&lt;Group&gt;">
					<path id="&lt;Path&gt;" class="s9" d="m551.1 699.1c-0.2 0-0.3-36.4-0.2-81.4 0.2-44.9 0.6-81.4 0.9-81.4 0.3 0 0.4 36.5 0.2 81.4-0.2 45-0.6 81.4-0.9 81.4z"/>
				</g>
			</g>
			<g id="&lt;Group&gt;">
				<g id="&lt;Group&gt;">
					<path id="&lt;Compound Path&gt;" fill-rule="evenodd" class="s10" d="m606.4 590.8q11.5 6.4 18.3 18.4 6.8 11.9 6.8 27.8 0 15.8-6.8 27.9-6.8 12-18.3 18.5-11.6 6.5-25.8 6.5c-13.6 0-22.7-3.9-29.5-11.8v10.1h-35.7v-139.8h36.3v46.5q10.5-10.5 28.9-10.5 14.2 0 25.8 6.4zm-17.7 64.2q6.1-6.5 6.1-18 0-11.3-6.1-17.7-6.2-6.5-15.7-6.5-9.6 0-15.7 6.5-6.2 6.4-6.2 17.7 0 11.5 6.2 18 6.1 6.5 15.7 6.5 9.5 0 15.7-6.5z"/>
				</g>
				<g id="&lt;Group&gt;">
					<g id="&lt;Group&gt;">
						<path id="&lt;Path&gt;" class="s9" d="m588.7 655q0 0-0.3 0.3c-0.1 0.2-0.4 0.5-0.7 0.8-0.7 0.7-1.8 1.7-3.4 2.7-3.2 2-8.7 3.7-15.5 2.7-3.3-0.5-6.9-1.9-10-4.5-3.1-2.5-5.6-6.2-6.9-10.5-1.2-4.3-1.5-9.1-1-13.9 0.5-4.8 2.3-9.9 6-13.7 1.7-1.8 3.9-3.4 6.2-4.5 2.3-1.1 4.7-1.7 7.2-1.9 4.8-0.5 9.7 0.3 13.6 2.5 4 2.2 7 5.6 8.7 9.2 1.7 3.6 2.3 7.3 2.5 10.7 0.3 6.7-1.1 12.2-3 15.4-0.8 1.7-1.7 2.9-2.4 3.6-0.3 0.4-0.6 0.6-0.8 0.8q-0.2 0.3-0.2 0.3c-0.2-0.1 1.4-1.5 3.1-4.8 1.7-3.3 3-8.7 2.5-15.3-0.2-3.3-0.8-6.9-2.5-10.4-1.7-3.4-4.6-6.6-8.3-8.7-3.8-2.1-8.5-2.8-13.1-2.3-2.4 0.2-4.7 0.8-6.9 1.8-2.2 1.1-4.2 2.6-5.9 4.4-3.4 3.6-5.2 8.3-5.7 13-0.5 4.7-0.3 9.4 1 13.5 1.1 4.2 3.5 7.7 6.5 10.2 2.9 2.5 6.3 3.9 9.6 4.4 6.5 1.1 11.9-0.5 15.1-2.4 3.2-1.9 4.5-3.5 4.6-3.4z"/>
					</g>
				</g>
				<g id="&lt;Group&gt;">
					<g id="&lt;Group&gt;">
						<path id="&lt;Path&gt;" class="s9" d="m606.4 590.8q-0.1 0-1-0.4-0.8-0.5-2.6-1.3c-2.4-1.1-6-2.5-11-3.4-4.9-1-11.1-1.5-18.2-0.6-3.5 0.4-7.3 1.3-11 2.9-3.8 1.6-7.4 4-10.6 7.2l-0.6 0.5v-0.8c0-13.4-0.1-29.1-0.1-46.5l0.4 0.4c-11.2 0-23.5 0-36.3 0l0.4-0.4c0 32.2 0.1 68.8 0.1 107.5 0 11 0 21.8 0 32.3l-0.5-0.5c12.3 0 24.2 0 35.7 0l-0.5 0.5q0-5.1 0-10.1v-1.4l0.9 1c4 4.7 9.2 8.2 14.8 9.8 5.7 1.8 11.6 2.1 17.2 1.9 11.4-0.5 22-4.7 29.8-11.3 7.9-6.6 12.9-15.3 15.5-23.8 2.5-8.6 2.8-17.1 2-24.5-0.7-7.5-2.9-14-5.6-19.2-2.7-5.3-5.9-9.2-8.8-12.1-2.9-2.9-5.5-4.8-7.3-6q-1.3-0.8-2.1-1.3-0.6-0.4-0.6-0.4c0 0 1 0.5 2.8 1.6 1.8 1.1 4.4 2.9 7.4 5.8 3 2.9 6.2 6.9 9 12.1 2.8 5.3 5 11.8 5.8 19.4 0.8 7.5 0.6 16.1-1.9 24.8-2.6 8.7-7.7 17.5-15.7 24.3-7.9 6.7-18.7 11-30.2 11.5-5.8 0.3-11.8-0.1-17.6-1.8-2.8-0.9-5.7-2.2-8.3-3.9-2.5-1.7-4.9-3.8-6.9-6.2l0.8-0.3q0 5 0 10.1v0.5h-0.5c-11.5 0.1-23.4 0.1-35.7 0.1h-0.6v-0.6c0-10.5 0-21.3 0-32.3 0-38.7 0.1-75.3 0.1-107.5v-0.5h0.5c12.8 0 25.1 0 36.3 0.1h0.4v0.4c0 17.4 0 33.1-0.1 46.5l-0.5-0.2c3.3-3.3 7-5.6 10.8-7.3 3.9-1.6 7.7-2.4 11.3-2.9 7.2-0.8 13.4-0.2 18.3 0.8 4.9 1 8.6 2.5 10.9 3.6 2.4 1.1 3.6 1.9 3.6 1.9z"/>
					</g>
				</g>
			</g>
			<g id="&lt;Group&gt;">
				<g id="&lt;Group&gt;">
					<path id="&lt;Compound Path&gt;" class="s10" d="m697.5 586.3q8.9-3.5 20.3-3.5v32.7q-4.9-0.6-8.2-0.6-11.7 0-18.3 6.3c-4.4 4.2-8.3 10.7-8.3 19.4v47.6h-34.6v-103.7h34.6v12.4q5.6-7 14.5-10.6z"/>
				</g>
				<g id="&lt;Group&gt;">
					<g id="&lt;Group&gt;">
						<path id="&lt;Path&gt;" class="s9" d="m697.5 586.3c0 0-0.4 0.2-1.1 0.5-0.7 0.4-1.8 0.8-3.1 1.6-2.7 1.5-6.5 4.1-10.1 8.7l-0.4 0.5v-0.7c0-3.6-0.1-7.8-0.1-12.4l0.3 0.3c-9.5 0-21.3 0-34.6 0.1l0.4-0.4c0 28.1 0 64.2 0.1 103.7l-0.5-0.5c2.6 0 5.4 0 8.3 0 8.9 0 17.8 0 26.3 0l-0.5 0.5c0-9.5 0-18.7 0-27.6q0-6.7 0-13.1 0-3.2 0-6.3c0-2.2 0.2-4.3 0.6-6.3 0.9-4.1 2.7-7.9 5.2-11 2.4-3.1 5.5-5.6 9-7.1 3.4-1.5 7.1-2.1 10.5-2.2 1.8-0.2 3.5 0.1 5.2 0.2q2.5 0.1 4.9 0.3l-0.4 0.4c0-13.3 0.1-24.3 0.1-32.7l0.2 0.2c-6.7 0-11.9 0.9-15.3 1.8-1.7 0.4-2.9 0.8-3.8 1.1q-1.2 0.4-1.2 0.4c0 0 1.6-0.8 5-1.8 3.4-0.9 8.5-1.9 15.3-2h0.3v0.3c0 8.4 0.1 19.4 0.1 32.7v0.4h-0.4q-2.4-0.2-4.9-0.4c-1.6-0.1-3.3-0.3-5-0.1-3.4 0.1-7 0.7-10.3 2.2-3.3 1.4-6.3 3.8-8.6 6.9-2.4 3-4.1 6.6-5 10.6-0.8 3.9-0.4 8.1-0.5 12.4q0 6.4 0 13.1c0 8.9 0 18.1 0 27.6v0.5h-0.5c-8.5 0-17.4 0-26.3 0-2.9 0-5.7 0-8.3 0h-0.6v-0.5c0.1-39.5 0.1-75.6 0.2-103.7v-0.4h0.4c13.3 0 25.1 0.1 34.6 0.1h0.3v0.3c0 4.6-0.1 8.8-0.1 12.4l-0.4-0.1c3.7-4.6 7.7-7.2 10.4-8.6 2.7-1.4 4.3-1.9 4.3-1.9z"/>
					</g>
				</g>
			</g>
			<g id="&lt;Group&gt;">
				<g id="&lt;Group&gt;">
					<path id="&lt;Path&gt;" class="s9" d="m648.4 693.6c-0.3 0-0.6-27.1-0.6-60.4 0-33.3 0.3-60.4 0.6-60.4 0.2 0 0.5 27.1 0.5 60.4 0 33.3-0.3 60.4-0.5 60.4z"/>
				</g>
			</g>
			<g id="&lt;Group&gt;">
				<g id="&lt;Group&gt;">
					<path id="&lt;Path&gt;" class="s9" d="m683 694.3c-0.3 0-0.5-27-0.5-60.4 0-33.3 0.2-60.3 0.5-60.3 0.3 0 0.5 27 0.5 60.3 0 33.4-0.2 60.4-0.5 60.4z"/>
				</g>
			</g>
			<g id="&lt;Group&gt;">
				<g id="&lt;Group&gt;">
					<path id="&lt;Path&gt;" class="s9" d="m717.8 576.9c0.3 0 0.6 9.7 0.6 21.6 0 11.9-0.3 21.6-0.6 21.6-0.3 0-0.5-9.7-0.5-21.6 0-11.9 0.2-21.6 0.5-21.6z"/>
				</g>
			</g>
			<g id="&lt;Group&gt;">
				<g id="&lt;Group&gt;">
					<path id="&lt;Path&gt;" class="s9" d="m826.6 582.8c0.3 0 0.5 24 0.5 53.7 0 29.7-0.2 53.8-0.5 53.8-0.3 0-0.5-24.1-0.5-53.8 0-29.7 0.2-53.7 0.5-53.7z"/>
				</g>
			</g>
			<g id="&lt;Group&gt;">
				<g id="&lt;Group&gt;">
					<path id="&lt;Path&gt;" class="s9" d="m849.2 582.8c0.3 0 0.5 24 0.5 53.7 0 29.7-0.2 53.8-0.5 53.8-0.3 0-0.6-24.1-0.6-53.8 0-29.7 0.3-53.7 0.6-53.7z"/>
				</g>
			</g>
			<g id="&lt;Group&gt;">
				<g id="&lt;Group&gt;">
					<path id="&lt;Path&gt;" class="s9" d="m886 582.8c0.3 0 0.5 24 0.5 53.7 0 29.7-0.2 53.8-0.5 53.8-0.3 0-0.5-24.1-0.5-53.8 0-29.7 0.2-53.7 0.5-53.7z"/>
				</g>
			</g>
			<g id="&lt;Group&gt;">
				<g id="&lt;Group&gt;">
					<path id="&lt;Path&gt;" class="s9" d="m960.2 622.8c0.3 0 0.5 15.1 0.5 33.7 0 18.7-0.2 33.8-0.5 33.8-0.3 0-0.5-15.1-0.5-33.8 0-18.6 0.2-33.7 0.5-33.7z"/>
				</g>
			</g>
			<g id="&lt;Group&gt;">
				<g id="&lt;Group&gt;">
					<path id="&lt;Path&gt;" class="s9" d="m923.2 629c0.3 0 0.5 13.7 0.5 30.6 0 17-0.2 30.7-0.5 30.7-0.3 0-0.5-13.7-0.5-30.7 0-16.9 0.2-30.6 0.5-30.6z"/>
				</g>
			</g>
			<g id="&lt;Group&gt;">
				<g id="&lt;Group&gt;">
					<path id="&lt;Path&gt;" class="s9" d="m722.7 691.6c-0.2 0-0.5-11.5-0.5-25.7 0-14.2 0.3-25.7 0.5-25.7 0.3 0 0.6 11.5 0.6 25.7 0 14.2-0.3 25.7-0.6 25.7z"/>
				</g>
			</g>
			<g id="&lt;Group&gt;">
				<g id="&lt;Group&gt;">
					<path id="&lt;Path&gt;" class="s9" d="m1060 689.9q0 0-0.1-1.4 0-1.6-0.1-4.1c-0.1-3.8-0.1-8.9-0.2-15.3-0.3-12.9-0.6-30.6-1-50.2-0.3-19.6-0.5-37.3-0.6-50.2 0-6.4 0.1-11.6 0.1-15.2q0.1-2.6 0.1-4.1 0-1.5 0.1-1.5 0.1 0 0.1 1.5 0.1 1.5 0.1 4.1c0.1 3.7 0.2 8.9 0.3 15.2 0.2 13 0.5 30.7 0.9 50.2 0.3 19.6 0.6 37.4 0.6 50.2 0 6.5 0 11.7-0.1 15.3q0 2.5-0.1 4.1 0 1.4-0.1 1.4z"/>
				</g>
			</g>
			<g id="&lt;Group&gt;">
				<g id="&lt;Group&gt;">
					<path id="&lt;Path&gt;" class="s9" d="m1094.9 689.9c-0.3 0-0.6-31.8-0.6-71-0.1-39.2 0.1-71 0.4-71 0.3 0 0.5 31.8 0.6 71 0.1 39.2-0.1 71-0.4 71z"/>
				</g>
			</g>
			<g id="&lt;Group&gt;">
				<g id="&lt;Group&gt;">
					<path id="&lt;Path&gt;" class="s9" d="m649.2 594.7c-0.2-0.2 0.9-2.4 2.6-5 1.7-2.6 3.2-4.5 3.5-4.4 0.2 0.2-0.9 2.4-2.6 5-1.7 2.6-3.2 4.5-3.5 4.4z"/>
				</g>
			</g>
			<g id="&lt;Group&gt;">
				<g id="&lt;Group&gt;">
					<path id="&lt;Path&gt;" class="s9" d="m648.9 599.1c-0.3-0.1 1.5-3.3 4-7.2 2.5-3.8 4.7-6.7 4.9-6.6 0.3 0.2-1.5 3.4-4 7.2-2.5 3.8-4.7 6.8-4.9 6.6z"/>
				</g>
			</g>
			<g id="&lt;Group&gt;">
				<g id="&lt;Group&gt;">
					<path id="&lt;Path&gt;" class="s9" d="m648.9 603.3c-0.3-0.2 2.2-4.4 5.4-9.4 3.3-5.1 6.1-9 6.4-8.9 0.2 0.2-2.2 4.4-5.5 9.4-3.2 5.1-6.1 9-6.3 8.9z"/>
				</g>
			</g>
			<g id="&lt;Group&gt;">
				<g id="&lt;Group&gt;">
					<path id="&lt;Path&gt;" class="s9" d="m649.2 607.9c-0.2-0.2 2.8-5.3 6.7-11.4 4-6.1 7.4-11 7.7-10.8 0.2 0.2-2.8 5.3-6.8 11.4-3.9 6.1-7.4 11-7.6 10.8z"/>
				</g>
			</g>
			<g id="&lt;Group&gt;">
				<g id="&lt;Group&gt;">
					<path id="&lt;Path&gt;" class="s9" d="m649.5 612.5c-0.2-0.1 3.4-6.1 8-13.3 4.7-7.2 8.7-12.9 8.9-12.8 0.3 0.2-3.3 6.1-8 13.4-4.7 7.2-8.6 12.9-8.9 12.7z"/>
				</g>
			</g>
			<g id="&lt;Group&gt;">
				<g id="&lt;Group&gt;">
					<path id="&lt;Path&gt;" class="s9" d="m649.5 617.7c-0.2-0.2 4.1-7.3 9.6-15.9 5.5-8.7 10.2-15.5 10.4-15.4 0.2 0.2-4 7.3-9.6 15.9-5.5 8.7-10.1 15.5-10.4 15.4z"/>
				</g>
			</g>
			<g id="&lt;Group&gt;">
				<g id="&lt;Group&gt;">
					<path id="&lt;Path&gt;" class="s9" d="m649.8 622.4c-0.3-0.1 4.6-8.2 10.9-18 6.2-9.8 11.5-17.6 11.7-17.4 0.3 0.1-4.6 8.2-10.9 18-6.2 9.8-11.5 17.6-11.7 17.4z"/>
				</g>
			</g>
			<g id="&lt;Group&gt;">
				<g id="&lt;Group&gt;">
					<path id="&lt;Path&gt;" class="s9" d="m649.7 627.1c-0.3-0.2 5.3-9.3 12.4-20.3 7.1-11.1 13-20 13.3-19.8 0.2 0.1-5.3 9.2-12.4 20.3-7.1 11.1-13.1 20-13.3 19.8z"/>
				</g>
			</g>
			<g id="&lt;Group&gt;">
				<g id="&lt;Group&gt;">
					<path id="&lt;Path&gt;" class="s9" d="m649.8 632.1c-0.2-0.1 5.8-10.3 13.5-22.6 7.7-12.3 14.2-22.2 14.4-22 0.3 0.1-5.8 10.3-13.5 22.6-7.7 12.3-14.1 22.2-14.4 22z"/>
				</g>
			</g>
			<g id="&lt;Group&gt;">
				<g id="&lt;Group&gt;">
					<path id="&lt;Path&gt;" class="s9" d="m649.8 637.8c-0.3-0.1 6.4-11.2 14.8-24.8 8.4-13.5 15.5-24.4 15.7-24.2 0.3 0.1-6.4 11.3-14.8 24.8-8.5 13.5-15.5 24.4-15.7 24.2z"/>
				</g>
			</g>
			<g id="&lt;Group&gt;">
				<g id="&lt;Group&gt;">
					<path id="&lt;Path&gt;" class="s9" d="m649.7 643.1c-0.3-0.2 6.6-11.4 15.2-25.1 8.7-13.8 15.9-24.8 16.1-24.6 0.3 0.2-6.5 11.4-15.2 25.1-8.7 13.7-15.9 24.7-16.1 24.6z"/>
				</g>
			</g>
			<g id="&lt;Group&gt;">
				<g id="&lt;Group&gt;">
					<path id="&lt;Path&gt;" class="s9" d="m649.7 648.2c-0.3-0.1 6.6-11.2 15.2-24.8 8.7-13.5 15.9-24.4 16.1-24.2 0.3 0.1-6.5 11.2-15.2 24.8-8.7 13.5-15.9 24.4-16.1 24.2z"/>
				</g>
			</g>
			<g id="&lt;Group&gt;">
				<g id="&lt;Group&gt;">
					<path id="&lt;Path&gt;" class="s9" d="m649.8 653.2c-0.3-0.1 6.3-10.7 14.7-23.7 8.3-13 15.3-23.3 15.6-23.2 0.2 0.2-6.4 10.8-14.8 23.8-8.3 12.9-15.3 23.3-15.5 23.1z"/>
				</g>
			</g>
			<g id="&lt;Group&gt;">
				<g id="&lt;Group&gt;">
					<path id="&lt;Path&gt;" class="s9" d="m649.8 658.3c-0.2-0.2 6.4-10.9 14.9-24 8.4-13 15.4-23.5 15.7-23.3 0.2 0.1-6.4 10.8-14.9 23.9-8.4 13.1-15.4 23.5-15.7 23.4z"/>
				</g>
			</g>
			<g id="&lt;Group&gt;">
				<g id="&lt;Group&gt;">
					<path id="&lt;Path&gt;" class="s9" d="m649.8 663.4c-0.2-0.1 6.5-11 15-24.2 8.5-13.2 15.7-23.8 15.9-23.6 0.2 0.2-6.5 11-15 24.2-8.5 13.2-15.6 23.8-15.9 23.6z"/>
				</g>
			</g>
			<g id="&lt;Group&gt;">
				<g id="&lt;Group&gt;">
					<path id="&lt;Path&gt;" class="s9" d="m649.5 668.2c-0.3-0.2 6.3-10.5 14.7-23.2 8.3-12.6 15.3-22.7 15.5-22.5 0.3 0.1-6.3 10.5-14.7 23.1-8.3 12.6-15.3 22.7-15.5 22.6z"/>
				</g>
			</g>
			<g id="&lt;Group&gt;">
				<g id="&lt;Group&gt;">
					<path id="&lt;Path&gt;" class="s9" d="m684.1 612.1c-0.2-0.1 3.2-5.8 7.5-12.6 4.4-6.8 8.2-12.2 8.4-12 0.3 0.1-3.1 5.8-7.5 12.6-4.4 6.8-8.1 12.2-8.4 12z"/>
				</g>
			</g>
			<g id="&lt;Group&gt;">
				<g id="&lt;Group&gt;">
					<path id="&lt;Path&gt;" class="s9" d="m683.8 607c-0.2-0.2 2.1-4.3 5.3-9.2 3.2-4.9 5.9-8.8 6.2-8.6 0.2 0.2-2.2 4.3-5.3 9.2-3.2 4.9-6 8.7-6.2 8.6z"/>
				</g>
			</g>
			<g id="&lt;Group&gt;">
				<g id="&lt;Group&gt;">
					<path id="&lt;Path&gt;" class="s9" d="m684.1 601.2c-0.3-0.1 1-2.5 2.7-5.2 1.8-2.7 3.4-4.8 3.7-4.7 0.2 0.2-1 2.5-2.8 5.3-1.8 2.7-3.4 4.8-3.6 4.6z"/>
				</g>
			</g>
			<g id="&lt;Group&gt;">
				<g id="&lt;Group&gt;">
					<path id="&lt;Path&gt;" class="s9" d="m684.2 617.2c-0.3-0.2 3.9-7.1 9.3-15.4 5.4-8.3 10-15 10.2-14.8 0.2 0.1-3.9 7-9.3 15.4-5.4 8.3-10 14.9-10.2 14.8z"/>
				</g>
			</g>
			<g id="&lt;Group&gt;">
				<g id="&lt;Group&gt;">
					<path id="&lt;Path&gt;" class="s9" d="m684.2 622.3c-0.3-0.1 4.9-8.6 11.6-18.9 6.6-10.3 12.2-18.5 12.5-18.4 0.2 0.2-5 8.7-11.6 19-6.7 10.3-12.3 18.5-12.5 18.3z"/>
				</g>
			</g>
			<g id="&lt;Group&gt;">
				<g id="&lt;Group&gt;">
					<path id="&lt;Path&gt;" class="s9" d="m683.9 627.8c-0.3-0.2 5.8-9.7 13.4-21.4 7.7-11.6 14.1-20.9 14.4-20.7 0.2 0.2-5.8 9.7-13.5 21.3-7.7 11.6-14.1 20.9-14.3 20.8z"/>
				</g>
			</g>
			<g id="&lt;Group&gt;">
				<g id="&lt;Group&gt;">
					<path id="&lt;Path&gt;" class="s9" d="m694.8 616.9c-0.3-0.1 4.3-7.5 10.2-16.5 6-8.9 11-16.1 11.2-15.9 0.2 0.1-4.4 7.5-10.3 16.5-5.9 8.9-10.9 16.1-11.1 15.9z"/>
				</g>
			</g>
			<g id="&lt;Group&gt;">
				<g id="&lt;Group&gt;">
					<path id="&lt;Path&gt;" class="s9" d="m699.7 615.1c-0.3-0.2 3.4-6.1 8.1-13.3 4.8-7.2 8.8-12.9 9.1-12.7 0.2 0.1-3.5 6.1-8.2 13.3-4.7 7.1-8.8 12.8-9 12.7z"/>
				</g>
			</g>
			<g id="&lt;Group&gt;">
				<g id="&lt;Group&gt;">
					<path id="&lt;Path&gt;" class="s9" d="m703.7 614.3c-0.2-0.2 2.4-4.6 5.9-9.9 3.5-5.3 6.6-9.5 6.8-9.3 0.2 0.2-2.4 4.6-5.9 9.9-3.5 5.3-6.6 9.5-6.8 9.3z"/>
				</g>
			</g>
			<g id="&lt;Group&gt;">
				<g id="&lt;Group&gt;">
					<path id="&lt;Path&gt;" class="s9" d="m708.6 612.7c-0.3-0.2 1.2-3 3.2-6.2 2-3.3 3.9-5.8 4.1-5.7 0.2 0.2-1.2 2.9-3.2 6.2-2 3.3-3.9 5.8-4.1 5.7z"/>
				</g>
			</g>
			<g id="&lt;Group&gt;">
				<g id="&lt;Group&gt;">
					<path id="&lt;Path&gt;" class="s9" d="m711.7 613c-0.3-0.2 0.6-1.9 1.8-4 1.3-2.1 2.6-3.7 2.8-3.5 0.2 0.1-0.6 1.9-1.9 4-1.2 2.1-2.5 3.6-2.7 3.5z"/>
				</g>
			</g>
			<g id="&lt;Group&gt;">
				<g id="&lt;Group&gt;">
					<path id="&lt;Path&gt;" class="s9" d="m649.5 673c-0.3-0.2 6.4-10.6 14.8-23.2 8.5-12.7 15.5-22.9 15.8-22.7 0.2 0.2-6.5 10.6-14.9 23.2-8.4 12.7-15.5 22.8-15.7 22.7z"/>
				</g>
			</g>
			<g id="&lt;Group&gt;">
				<g id="&lt;Group&gt;">
					<path id="&lt;Path&gt;" class="s9" d="m649.5 678.3c-0.3-0.1 6.5-10.7 15-23.6 8.5-12.8 15.6-23.1 15.9-23 0.2 0.2-6.5 10.7-15 23.6-8.6 12.9-15.7 23.2-15.9 23z"/>
				</g>
			</g>
			<g id="&lt;Group&gt;">
				<g id="&lt;Group&gt;">
					<path id="&lt;Path&gt;" class="s9" d="m649.5 683.4c-0.3-0.1 6.3-10.4 14.5-23 8.3-12.6 15.2-22.7 15.4-22.6 0.3 0.2-6.3 10.5-14.5 23.1-8.3 12.6-15.2 22.7-15.4 22.5z"/>
				</g>
			</g>
			<g id="&lt;Group&gt;">
				<g id="&lt;Group&gt;">
					<path id="&lt;Path&gt;" class="s9" d="m651.3 686.7c-0.2-0.1 5.9-10.1 13.8-22.4 7.8-12.2 14.4-22 14.6-21.8 0.3 0.1-5.9 10.2-13.7 22.4-7.9 12.2-14.4 22-14.7 21.8z"/>
				</g>
			</g>
			<g id="&lt;Group&gt;">
				<g id="&lt;Group&gt;">
					<path id="&lt;Path&gt;" class="s9" d="m654.7 686.7c-0.3-0.1 5.2-9.1 12.2-20 7-11 12.9-19.7 13.1-19.6 0.3 0.2-5.2 9.2-12.2 20.1-7 11-12.9 19.7-13.1 19.5z"/>
				</g>
			</g>
			<g id="&lt;Group&gt;">
				<g id="&lt;Group&gt;">
					<path id="&lt;Path&gt;" class="s9" d="m658.4 686c-0.3-0.1 4.4-8 10.4-17.5 6.1-9.5 11.1-17.1 11.4-16.9 0.2 0.2-4.5 8-10.5 17.5-6 9.5-11.1 17.1-11.3 16.9z"/>
				</g>
			</g>
			<g id="&lt;Group&gt;">
				<g id="&lt;Group&gt;">
					<path id="&lt;Path&gt;" class="s9" d="m661.2 686.8c-0.3-0.2 3.9-7.2 9.2-15.6 5.3-8.4 9.9-15.1 10.1-15 0.2 0.2-3.9 7.1-9.2 15.6-5.4 8.4-9.9 15.1-10.1 15z"/>
				</g>
			</g>
			<g id="&lt;Group&gt;">
				<g id="&lt;Group&gt;">
					<path id="&lt;Path&gt;" class="s9" d="m665.1 686c-0.2-0.1 3.1-5.8 7.5-12.6 4.4-6.8 8.2-12.2 8.4-12 0.3 0.1-3.1 5.8-7.5 12.6-4.4 6.8-8.2 12.2-8.4 12z"/>
				</g>
			</g>
			<g id="&lt;Group&gt;">
				<g id="&lt;Group&gt;">
					<path id="&lt;Path&gt;" class="s9" d="m668.2 686.6c-0.3-0.1 2.5-4.9 6.2-10.6 3.7-5.8 7-10.3 7.2-10.1 0.2 0.1-2.6 4.9-6.3 10.6-3.7 5.8-6.9 10.3-7.1 10.1z"/>
				</g>
			</g>
			<g id="&lt;Group&gt;">
				<g id="&lt;Group&gt;">
					<path id="&lt;Path&gt;" class="s9" d="m671.4 687c-0.3-0.2 1.8-3.8 4.5-8.1 2.8-4.2 5.2-7.6 5.5-7.4 0.2 0.1-1.8 3.7-4.6 8-2.8 4.3-5.2 7.6-5.4 7.5z"/>
				</g>
			</g>
			<g id="&lt;Group&gt;">
				<g id="&lt;Group&gt;">
					<path id="&lt;Path&gt;" class="s9" d="m674.4 687.4c-0.2-0.2 1.2-2.8 3.2-5.9 2-3 3.8-5.4 4.1-5.2 0.2 0.1-1.2 2.7-3.2 5.8-2 3.1-3.8 5.5-4.1 5.3z"/>
				</g>
			</g>
			<g id="&lt;Group&gt;">
				<g id="&lt;Group&gt;">
					<path id="&lt;Path&gt;" class="s9" d="m677.5 687.5c-0.2-0.2 0.4-1.6 1.5-3.2 1-1.6 2-2.7 2.3-2.6 0.2 0.2-0.4 1.6-1.5 3.2-1 1.6-2 2.7-2.3 2.6z"/>
				</g>
			</g>
			<g id="&lt;Group&gt;">
				<g id="&lt;Group&gt;">
					<path id="&lt;Path&gt;" class="s9" d="m1055.4 584.5c0 0.3-112.7 0.5-251.7 0.5-139 0-251.6-0.2-251.6-0.5 0-0.3 112.6-0.5 251.6-0.5 139 0 251.7 0.2 251.7 0.5z"/>
				</g>
			</g>
			<g id="&lt;Group&gt;">
				<g id="&lt;Group&gt;">
					<path id="&lt;Path&gt;" class="s9" d="m1055.4 690.3c0 0.3-112.7 0.5-251.7 0.5-139 0-251.6-0.2-251.6-0.5 0-0.3 112.6-0.6 251.6-0.6 139 0 251.7 0.3 251.7 0.6z"/>
				</g>
			</g>
			<g id="&lt;Group&gt;" style="opacity: .3">
				<path id="&lt;Path&gt;" class="s5" d="m315.1 715.7h105.3c10.7 0 19.4 8.7 19.4 19.3v57.1h-140.2v-60.9c0-8.5 6.9-15.5 15.5-15.5z"/>
			</g>
		</g>
	</g>
	<g id="Gear">
		<g id="&lt;Group&gt;">
			<g id="&lt;Group&gt;">
				<g id="&lt;Group&gt;">
					<g id="&lt;Group&gt;">
						<g id="&lt;Group&gt;">
							<g id="&lt;Group&gt;">
								<g id="&lt;Group&gt;">
									<g id="&lt;Group&gt;">
										<g id="&lt;Group&gt;">
											<path id="&lt;Compound Path&gt;" fill-rule="evenodd" class="s0" d="m703.9 756.5c3.9-2.4 8-4.1 12.3-5.3l2.5-12 20.7-0.4 2.9 11.9c4.4 1.1 8.6 2.7 12.5 4.9l10.5-6.7 14.8 14.1-6.5 10.4c2.4 3.9 4.2 8 5.4 12.2l12.2 2.5 0.4 20.3-12.1 2.9c-1.1 4.2-2.7 8.4-5 12.3l6.9 10.3-14.3 14.6-10.7-6.4c-3.9 2.3-8.1 4.1-12.3 5.3l-2.6 12-20.6 0.4-3-12c-4.3-1-8.5-2.6-12.5-4.8l-10.4 6.7-14.8-14.1 6.4-10.5c-2.3-3.8-4.1-7.9-5.3-12.1l-12.2-2.5-0.4-20.3 12.1-2.9c1.1-4.3 2.7-8.4 4.9-12.3l-6.8-10.3 14.3-14.6zm13.1 25.1c-11.3 9-11 26 0.7 34.6 7.9 5.8 19.1 5.7 26.9-0.5 11.4-9 11.1-25.9-0.6-34.5-8-5.9-19.2-5.7-27 0.4z"/>
										</g>
										<g id="&lt;Group&gt;">
											<g id="&lt;Group&gt;">
												<path id="&lt;Compound Path&gt;" fill-rule="evenodd" class="s10" d="m703.9 756.5c3.9-2.4 8-4.1 12.3-5.3l2.5-12 20.7-0.4 2.9 11.9c4.4 1.1 8.6 2.7 12.5 4.9l10.5-6.7 14.8 14.1-6.5 10.4c2.4 3.9 4.2 8 5.4 12.2l12.2 2.5 0.4 20.3-12.1 2.9c-1.1 4.2-2.7 8.4-5 12.3l6.9 10.3-14.3 14.6-10.7-6.4c-3.9 2.3-8.1 4.1-12.3 5.3l-2.6 12-20.6 0.4-3-12c-4.3-1-8.5-2.6-12.5-4.8l-10.4 6.7-14.8-14.1 6.4-10.5c-2.3-3.8-4.1-7.9-5.3-12.1l-12.2-2.5-0.4-20.3 12.1-2.9c1.1-4.3 2.7-8.4 4.9-12.3l-6.8-10.3 14.3-14.6zm13.1 25.1c-11.3 9-11 26 0.7 34.6 7.9 5.8 19.1 5.7 26.9-0.5 11.4-9 11.1-25.9-0.6-34.5-8-5.9-19.2-5.7-27 0.4z"/>
											</g>
											<g id="&lt;Group&gt;">
												<g id="&lt;Group&gt;">
													<path id="&lt;Path&gt;" class="s6" d="m717 781.6c0 0 1.4-1.4 4.5-3 3.2-1.5 8.4-2.9 14.7-1.5 3 0.7 6.3 2.2 9.2 4.6 2.8 2.4 5.4 5.7 6.7 9.7 1.4 4 1.8 8.6 0.5 13-1.1 4.5-3.9 8.6-7.7 11.7-3.8 3-8.5 4.6-13.1 4.8-4.6 0.2-9.1-1-12.7-3.2-3.6-2.2-6.4-5.3-8.1-8.5-1.8-3.3-2.6-6.8-2.7-10-0.1-6.4 2.6-11.2 4.7-13.9 1.2-1.3 2.1-2.3 2.9-2.9q1.1-0.8 1.1-0.8 0 0-1 1c-0.7 0.6-1.6 1.6-2.6 3-2.1 2.7-4.5 7.4-4.4 13.6 0.1 3 1 6.4 2.7 9.5 1.8 3.2 4.5 6.1 7.9 8.2 3.5 2 7.7 3.2 12.1 3 4.4-0.2 8.9-1.8 12.6-4.7 3.5-2.9 6.2-6.8 7.3-11.1 1.2-4.2 0.9-8.6-0.4-12.4-1.2-3.8-3.7-7-6.4-9.3-2.7-2.4-5.8-3.8-8.8-4.6-6-1.5-11.2-0.1-14.3 1.2-3.2 1.4-4.6 2.7-4.7 2.6z"/>
												</g>
											</g>
											<g id="&lt;Group&gt;">
												<g id="&lt;Group&gt;">
													<path id="&lt;Path&gt;" class="s6" d="m703.9 756.5q0 0-0.7-0.4-0.7-0.4-2.1-1.2-2.7-1.6-8-4.7h0.2c-3.6 3.8-8.4 8.7-14.2 14.7v-0.3c2.1 3.1 4.4 6.5 6.9 10.2l0.1 0.1-0.1 0.2c-2 3.6-3.7 7.7-4.9 12.3v0.2h-0.2c-3.8 0.9-7.9 1.9-12.1 3l0.3-0.4q0.2 9.6 0.4 20.3l-0.4-0.4c3.8 0.8 8 1.6 12.2 2.5h0.3l0.1 0.3c1.1 3.9 2.9 8.1 5.3 12l0.1 0.2-0.1 0.3c-2 3.2-4.2 6.8-6.4 10.5l-0.1-0.6c4.6 4.4 9.7 9.2 14.8 14.1l-0.6-0.1c3.3-2.1 6.8-4.4 10.5-6.7l0.2-0.2 0.3 0.2c3.6 2 7.9 3.7 12.4 4.7l0.2 0.1 0.1 0.3c1 3.7 2 7.8 3 11.9l-0.5-0.4c6.5-0.1 13.5-0.2 20.6-0.3l-0.5 0.4c0.8-3.8 1.7-7.9 2.6-12v-0.3l0.3-0.1c4.1-1.1 8.3-2.9 12.2-5.2l0.3-0.2 0.3 0.2q5.3 3.2 10.6 6.3l-0.6 0.1q7.2-7.4 14.3-14.6l-0.1 0.7q-3.4-5.2-6.8-10.3l-0.2-0.3 0.2-0.2c2.2-3.9 3.8-8 4.9-12.2l0.1-0.3 0.2-0.1q6.2-1.5 12.2-2.9l-0.4 0.5q-0.2-10.4-0.4-20.3l0.4 0.4q-6.2-1.2-12.2-2.5h-0.3v-0.3c-1.3-4.3-3.1-8.4-5.3-12l-0.2-0.3 0.2-0.2q3.3-5.4 6.4-10.5l0.1 0.6c-5.2-5-10.1-9.7-14.8-14.2l0.5 0.1c-3.7 2.3-7.1 4.6-10.4 6.7l-0.2 0.1-0.2-0.1c-4.2-2.3-8.4-3.8-12.4-4.8l-0.2-0.1-0.1-0.2c-1.1-4.3-2-8.2-2.9-11.9l0.3 0.2c-8 0.1-14.8 0.2-20.6 0.3l0.2-0.2c-1.1 4.8-1.9 8.7-2.6 12v0.1h-0.1c-4.4 1.2-7.5 2.7-9.5 3.6q-1.5 0.8-2.2 1.2c-0.5 0.3-0.7 0.4-0.7 0.4q0-0.1 0.7-0.5 0.7-0.4 2.2-1.2c1.9-1.1 5-2.5 9.4-3.8l-0.2 0.2c0.7-3.3 1.5-7.3 2.5-12.1l0.1-0.2h0.1c5.9-0.1 12.7-0.2 20.7-0.4h0.2l0.1 0.2c0.9 3.7 1.9 7.6 3 11.9l-0.3-0.2c4.2 1 8.4 2.5 12.6 4.8l-0.4 0.1c3.4-2.2 6.8-4.4 10.5-6.8l0.2-0.2 0.2 0.3c4.7 4.4 9.7 9.1 14.9 14l0.3 0.3-0.2 0.3q-3.2 5.1-6.5 10.5v-0.5c2.3 3.7 4.2 7.9 5.5 12.2l-0.4-0.3q6 1.2 12.2 2.5l0.4 0.1v0.4q0.2 9.9 0.4 20.3v0.4l-0.4 0.1q-6 1.4-12.1 2.9l0.4-0.4c-1.1 4.3-2.8 8.5-5 12.5v-0.6q3.4 5.1 6.8 10.3l0.2 0.3-0.3 0.3q-7 7.2-14.3 14.6l-0.3 0.3-0.3-0.2q-5.3-3.1-10.7-6.3h0.6c-4 2.4-8.3 4.1-12.5 5.3l0.4-0.4c-0.9 4.1-1.8 8.2-2.6 12l-0.1 0.4h-0.4c-7.1 0.1-14.1 0.3-20.6 0.4h-0.4l-0.1-0.4c-1-4.1-2-8.2-3-11.9l0.4 0.3c-4.6-1.1-8.9-2.8-12.6-4.9h0.5c-3.6 2.3-7.2 4.6-10.4 6.7l-0.4 0.2-0.2-0.2c-5.2-4.9-10.2-9.7-14.9-14.1l-0.2-0.3 0.2-0.3c2.2-3.7 4.4-7.3 6.4-10.5v0.5c-2.4-4-4.2-8.3-5.3-12.3l0.3 0.3c-4.3-0.9-8.4-1.7-12.2-2.5l-0.3-0.1-0.1-0.3q-0.1-10.7-0.3-20.3v-0.3l0.3-0.1c4.3-1 8.3-2 12.1-2.9l-0.2 0.3c1.1-4.6 2.9-8.7 5-12.4v0.3c-2.5-3.7-4.8-7.1-6.8-10.2l-0.1-0.2 0.1-0.2c5.9-5.9 10.7-10.8 14.4-14.5l0.1-0.1 0.1 0.1q5.1 3.1 7.9 4.8 1.3 0.8 2 1.2 0.7 0.4 0.7 0.5z"/>
												</g>
											</g>
										</g>
									</g>
								</g>
							</g>
						</g>
					</g>
				</g>
			</g>
		</g>
	</g>
	<g id="Icon User">
		<g id="&lt;Group&gt;">
			<g id="&lt;Group&gt;">
				<g id="&lt;Group&gt;">
					<g id="&lt;Group&gt;">
						<g id="&lt;Group&gt;">
							<g id="&lt;Group&gt;">
								<path id="&lt;Path&gt;" class="s4" d="m184.8 638.1c-32.4-0.3-58.5-26.8-58.2-59.1 0.3-32.4 26.7-58.5 59.1-58.2 32.4 0.2 58.5 26.7 58.2 59.1-0.2 32.4-26.7 58.4-59.1 58.2z"/>
								<g id="&lt;Group&gt;">
									<path id="&lt;Path&gt;" class="s6" d="m184.8 638.1q0 0 0.9-0.1 1-0.1 2.8-0.2 1 0 2.1-0.1c0.7-0.1 1.5-0.2 2.4-0.3q1.4-0.2 2.9-0.5c1-0.1 2.1-0.5 3.2-0.7 4.5-1 9.9-3.1 15.6-6.4 5.7-3.3 11.6-8.1 16.7-14.7q0.9-1.2 1.9-2.5c0.6-0.9 1.1-1.8 1.7-2.7 0.5-1 1.2-1.9 1.7-2.9q0.7-1.5 1.4-3 0.4-0.8 0.8-1.5 0.3-0.8 0.6-1.6 0.6-1.7 1.2-3.3c0.4-1.1 0.6-2.3 0.9-3.5 0.3-1.1 0.7-2.3 0.9-3.5 0.3-2.4 0.8-4.8 0.9-7.3 0-1.3 0.2-2.6 0.2-3.8q-0.1-2-0.2-3.9c-0.1-0.7 0-1.3-0.1-2l-0.3-1.9c-0.2-1.3-0.4-2.6-0.6-3.9-0.7-2.6-1.2-5.3-2.2-7.8-0.9-2.6-2.1-5.1-3.3-7.6-0.7-1.3-1.4-2.5-2.2-3.7-0.3-0.6-0.7-1.2-1.1-1.8l-1.3-1.7c-1.6-2.4-3.6-4.5-5.5-6.7-2.2-2-4.3-4-6.7-5.7l-1.8-1.4-1.9-1.2-1.9-1.2q-1-0.6-2-1.1-2.1-1-4.1-2-2.2-0.8-4.3-1.6c-5.9-1.9-12.1-3-18.4-3.2-6.3 0.1-12.5 1.1-18.4 2.9q-2.2 0.8-4.3 1.6-2.1 0.9-4.1 1.9l-1.1 0.5-0.9 0.6-2 1.1-1.9 1.2-1.8 1.3c-2.5 1.7-4.6 3.7-6.8 5.7-2 2.1-4 4.2-5.7 6.5l-1.3 1.7c-0.4 0.6-0.8 1.2-1.1 1.8-0.8 1.2-1.6 2.4-2.2 3.6-1.3 2.6-2.6 5-3.4 7.6-1.1 2.6-1.7 5.2-2.4 7.8-0.3 1.3-0.4 2.6-0.7 3.9l-0.3 1.9c-0.1 0.7-0.1 1.3-0.1 2q-0.1 1.9-0.2 3.8c-0.1 1.3 0 2.6 0.1 3.8 0 2.6 0.5 5 0.8 7.4 0.1 1.2 0.5 2.4 0.7 3.6 0.4 1.1 0.6 2.3 0.9 3.4q0.6 1.7 1.2 3.3l0.6 1.6 0.7 1.6q0.7 1.5 1.4 3c0.5 1 1.1 1.9 1.7 2.9 0.5 0.9 1 1.8 1.6 2.7q1 1.3 1.9 2.6c4.9 6.6 10.8 11.5 16.4 15 5.7 3.3 11 5.5 15.5 6.6 1.2 0.2 2.2 0.6 3.2 0.8q1.5 0.2 2.9 0.4c0.9 0.2 1.7 0.3 2.4 0.4q1.1 0.1 2.1 0.2 1.8 0.1 2.7 0.2 1 0.1 1 0.1 0 0-1-0.1-0.9 0-2.7-0.1-1 0-2.1-0.1c-0.8-0.1-1.6-0.2-2.5-0.3q-1.3-0.2-2.8-0.5c-1.1-0.1-2.1-0.5-3.2-0.7-4.6-1.1-10-3.2-15.7-6.6-5.7-3.4-11.6-8.3-16.7-15q-0.9-1.3-1.8-2.6c-0.6-0.9-1.2-1.8-1.7-2.7-0.6-1-1.2-1.9-1.7-2.9q-0.7-1.5-1.4-3.1l-0.8-1.5-0.6-1.7q-0.6-1.6-1.2-3.3c-0.3-1.1-0.6-2.3-0.9-3.5-0.2-1.2-0.6-2.3-0.8-3.6-0.3-2.4-0.8-4.9-0.8-7.4 0-1.3-0.1-2.6-0.1-3.9q0.1-1.9 0.2-3.9c0.1-0.6 0.1-1.3 0.2-1.9l0.3-2c0.2-1.3 0.4-2.7 0.6-4 0.8-2.6 1.3-5.3 2.4-7.8 0.9-2.7 2.2-5.2 3.4-7.7 0.7-1.2 1.5-2.4 2.2-3.7 0.4-0.6 0.8-1.2 1.2-1.8l1.3-1.7c1.7-2.4 3.8-4.5 5.8-6.7 2.2-1.9 4.3-4 6.8-5.7l1.9-1.4 1.9-1.1 2-1.2 1-0.6 1-0.5q2.1-1 4.2-2 2.2-0.7 4.4-1.5c5.9-1.9 12.2-2.9 18.6-2.9 6.4 0.1 12.7 1.2 18.6 3.2q2.2 0.8 4.4 1.6 2.1 1 4.1 2 1.1 0.5 2 1.2l2 1.2 1.9 1.2 1.8 1.3c2.5 1.8 4.6 3.9 6.8 5.9 2 2.2 4 4.3 5.6 6.7l1.3 1.8c0.5 0.6 0.8 1.2 1.2 1.8 0.7 1.3 1.5 2.5 2.1 3.7 1.2 2.6 2.5 5.1 3.3 7.7 1.1 2.6 1.6 5.3 2.3 7.9 0.2 1.4 0.4 2.7 0.6 4l0.3 2c0 0.6 0 1.3 0.1 2q0 1.9 0.1 3.9c0 1.2-0.1 2.5-0.2 3.8 0 2.6-0.5 5-0.9 7.4-0.1 1.3-0.6 2.4-0.8 3.6-0.4 1.2-0.6 2.3-1 3.5q-0.6 1.6-1.3 3.3-0.3 0.8-0.6 1.6-0.4 0.8-0.7 1.6-0.8 1.5-1.5 3c-0.5 1-1.2 1.9-1.7 2.9-0.6 0.9-1.2 1.8-1.8 2.7q-0.9 1.3-1.9 2.5c-5.1 6.7-11.1 11.5-16.9 14.8-5.7 3.3-11.2 5.3-15.7 6.3-1.2 0.2-2.2 0.6-3.3 0.7q-1.5 0.2-2.8 0.4c-0.9 0.1-1.7 0.3-2.5 0.3q-1.1 0.1-2.1 0.1-1.8 0-2.8 0.1-0.9 0-0.9 0z"/>
								</g>
							</g>
						</g>
					</g>
				</g>
			</g>
			<g id="&lt;Group&gt;">
				<g id="&lt;Group&gt;">
					<g id="&lt;Group&gt;">
						<g id="&lt;Group&gt;">
							<g id="&lt;Group&gt;">
								<path id="&lt;Path&gt;" class="s3" d="m190.4 578.8c5-2 8.6-7.1 8.6-13.2 0.1-8-5.8-14.5-13.3-14.6-7.5-0.1-13.6 6.3-13.7 14.2-0.1 6.2 3.5 11.4 8.5 13.6-20.8 2.9-20 25.5-20 25.5l49.1 0.7c0 0 1.3-22.9-19.2-26.2z"/>
							</g>
						</g>
					</g>
				</g>
			</g>
		</g>
	</g>
	<g id="Icon Text">
		<g id="&lt;Group&gt;">
			<g id="&lt;Group&gt;">
				<g id="&lt;Group&gt;">
					<g id="&lt;Group&gt;">
						<g id="&lt;Group&gt;">
							<path id="&lt;Path&gt;" class="s4" d="m401.6 861.4h-110c-8.9 0-16.2-7.2-16.2-16.2v-105.9c0-8.9 7.3-16.2 16.2-16.2h110c9 0 16.2 7.3 16.2 16.2v105.9c0 9-7.2 16.2-16.2 16.2z"/>
						</g>
					</g>
					<g id="&lt;Group&gt;">
						<g id="&lt;Group&gt;">
							<g id="&lt;Group&gt;">
								<path id="&lt;Path&gt;" class="s6" d="m405.9 861.4c-0.1-0.1 2 0.2 5.2-1.3 1.6-0.8 3.5-2.2 4.8-4.4 0.7-1.1 1.3-2.5 1.6-3.9 0.3-1.5 0.2-3.1 0.2-4.8-0.1-13.7-0.1-33.5-0.1-58-0.1-12.2-0.1-25.6-0.1-40q0-5.4 0-11c-0.1-1.8 0.1-3.7-0.3-5.5-0.4-1.8-1.2-3.5-2.5-4.9-1.2-1.4-2.7-2.6-4.5-3.3-1.7-0.7-3.6-0.9-5.6-0.8q-5.9 0-12 0c-32.3 0-67.9 0-105.2 0-4.6 0-8.9 2.9-10.7 7-0.4 1-0.7 2.1-0.8 3.2-0.1 1.1-0.1 2.3-0.1 3.4q0 3.4 0 6.9 0 13.6 0 26.8c0 17.6 0 34.6 0 50.8q0 12.1 0 23.6 0 1.5 0 2.9c0 0.9-0.1 1.9 0.1 2.8 0.2 1.8 0.8 3.5 1.8 5.1 2.1 3 5.5 4.9 9 5.1 14.4 0 27.8 0 40 0 24.4 0.1 44.2 0.1 57.9 0.2 6.9 0 12.2 0 15.8 0q2.7 0.1 4.1 0.1 1.4 0 1.4 0 0 0-1.4 0-1.4 0.1-4.1 0.1c-3.6 0-8.9 0-15.8 0.1-13.7 0-33.5 0-57.9 0.1-12.3 0-25.7 0-40.1 0-3.7-0.2-7.3-2.2-9.4-5.4-1.1-1.6-1.8-3.4-2-5.3-0.1-1-0.1-2-0.1-2.9q0-1.4 0-2.9 0-11.5 0-23.6c0-16.2 0-33.2-0.1-50.8q0-13.2 0-26.8 0-3.5 0-6.9c0-1.1 0-2.3 0.1-3.5 0.2-1.2 0.5-2.3 0.9-3.4 1.9-4.4 6.5-7.5 11.4-7.5 37.3 0.1 72.9 0.1 105.2 0.1q6.1 0 12 0c2-0.1 4.1 0.1 5.9 0.9 1.9 0.7 3.5 2 4.8 3.4 1.2 1.6 2.1 3.4 2.5 5.3 0.5 1.9 0.3 3.8 0.4 5.6q-0.1 5.6-0.1 11c0 14.4 0 27.8 0 40-0.1 24.5-0.1 44.3-0.1 58-0.1 1.7 0.1 3.3-0.3 4.8-0.3 1.5-0.9 2.9-1.6 4-1.4 2.3-3.3 3.7-4.9 4.4-1.6 0.8-3 1.1-3.9 1.2-0.9 0-1.4 0-1.4 0z"/>
							</g>
						</g>
					</g>
				</g>
			</g>
			<g id="&lt;Group&gt;">
				<path id="&lt;Compound Path&gt;" class="s9" d="m306.9 755.7h77.7l0.1 26h-3.7q-1.9-13.9-10.5-18.9-4.8-2.7-14.5-2.9v67.9q0 7.1 2.5 9.5 2.5 2.3 10.4 2.3v3.3h-46v-3.3q7.6 0 10.1-2.4 2.4-2.3 2.4-9.4v-67.9q-9.4 0.2-14.4 2.9-9.3 5.1-10.5 18.9h-3.7z"/>
			</g>
		</g>
	</g>
	<g id="Palette">
		<g id="freepik--pallete-1--inject-2">
			<g id="&lt;Group&gt;">
				<path id="&lt;Path&gt;" class="s11" d="m1138 781.1l269.3-83.4c7.9-2.5 16.3 1.9 18.7 9.8l21.6 69.6c2.4 7.9-2 16.2-9.9 18.7l-269.3 83.4c-7.9 2.5-16.3-1.9-18.7-9.8l-21.6-69.6c-2.4-7.9 2-16.3 9.9-18.7z"/>
				<path id="&lt;Path&gt;" class="s6" d="m1149.7 869.4l0.2 0.4q0.3 0.8 0.6 1.5c0.9 1.8 2.1 3.4 3.7 4.7 2.4 2.2 5.6 3.5 8.9 3.7 2.1 0.1 4.2-0.2 6.1-0.9q3.3-1 6.9-2.2c19.4-6 47.5-14.8 82.2-25.6 34.7-10.8 76-23.6 121.9-37.9q17.2-5.3 35.3-10.9 9-2.8 18.2-5.7c3-1 6.2-1.7 8.6-3.7 3.8-3 5.9-7.8 5.5-12.6q-0.3-2.4-1.1-4.7l-3-9.5-5.9-19.2-12.2-39.2c-2.1-6.7-8.6-10.9-15.5-10.2q-2.5 0.4-4.9 1.3-2.4 0.7-4.8 1.5l-9.7 3.1q-19.4 6-38.2 11.8c-24.9 7.7-49 15.2-72 22.3-46 14.1-87.3 27-122 37.7q-6.5 2-12.7 3.9-3.1 1-6.1 1.9c-2 0.5-3.9 1.3-5.7 2.4-4.8 3.4-7.2 9.4-6 15.2 0.5 1.8 1.1 3.6 1.6 5.3l10.9 35.4 6.8 22.3 1.8 5.9 0.6 1.9-0.7-1.9-1.8-5.8-7-22.4-11.1-35.3c-0.5-1.8-1.1-3.5-1.5-5.3-1.4-6 1.1-12.2 6.1-15.8 1.8-1.1 3.7-2 5.8-2.5q3-0.9 6.1-1.9 6.2-1.9 12.7-3.9c34.7-10.8 76-23.7 121.9-38 23-7.1 47-14.6 72.1-22.3q18.7-5.8 38.1-11.8l9.7-3q2.4-0.8 4.9-1.6 2.4-0.8 5-1.2c3.5-0.4 7.1 0.4 10.1 2.3 3 2 5.2 5 6.3 8.4l12.1 39.2 6.1 19.4 2.9 9.4q0.9 2.4 1.2 4.9c0.4 5.1-1.8 10.1-5.8 13.3-1.3 1.1-2.8 1.9-4.4 2.5-1.5 0.5-3 1-4.6 1.4q-9.2 2.9-18.2 5.6-18 5.6-35.2 10.9c-46 14.2-87.3 27-122.1 37.7-34.7 10.8-62.8 19.4-82.2 25.4q-3.7 1.1-6.9 2.1c-2 0.7-4.1 1-6.3 0.9-3.3-0.2-6.5-1.6-9-3.8-1.5-1.4-2.8-3-3.6-4.9q-0.3-0.7-0.6-1.4z"/>
				<path id="&lt;Path&gt;" class="s3" d="m1403.6 703.1l28 90.3-46.3 14.3-27.9-90.3z"/>
				<path id="&lt;Path&gt;" class="s3" d="m1338.1 723.4l28 90.2-46.3 14.4-27.9-90.3z"/>
				<path id="&lt;Path&gt;" class="s3" d="m1272.6 743.7l28 90.2-46.3 14.4-27.9-90.3z"/>
				<path id="&lt;Path&gt;" class="s3" d="m1207.1 764l28 90.2-46.3 14.3-27.9-90.2z"/>
				<g id="&lt;Group&gt;" style="opacity: .1">
					<path id="&lt;Path&gt;" class="s5" d="m1403.6 703.1l28 90.3-46.3 14.3-27.9-90.3z"/>
				</g>
				<g id="&lt;Group&gt;" style="opacity: .2">
					<path id="&lt;Path&gt;" class="s5" d="m1338.1 723.4l28 90.2-46.3 14.4-27.9-90.3z"/>
				</g>
				<g id="&lt;Group&gt;" style="opacity: .3">
					<path id="&lt;Path&gt;" class="s5" d="m1272.6 743.7l28 90.2-46.3 14.4-27.9-90.3z"/>
				</g>
				<g id="&lt;Group&gt;" style="opacity: .4">
					<path id="&lt;Path&gt;" class="s5" d="m1207.1 764l28 90.2-46.3 14.3-27.9-90.2z"/>
				</g>
			</g>
			<g id="&lt;Group&gt;">
				<path id="&lt;Path&gt;" class="s11" d="m1171.5 875.6l-55.5-45.6c-6.6-5.4-7.6-15.1-2.2-21.7l178.4-217.1c5.4-6.6 15.1-7.6 21.7-2.2l55.5 45.7c6.6 5.4 7.5 15.1 2.1 21.7l-178.3 217.1c-5.5 6.6-15.2 7.5-21.7 2.1z"/>
				<path id="&lt;Path&gt;" class="s6" d="m1171.5 875.6l0.4 0.3q0.6 0.5 1.3 0.9c1.7 1 3.7 1.7 5.7 2 3.2 0.5 6.6-0.1 9.5-1.6 3.6-1.7 6.1-5.7 9.4-9.5 12.8-15.7 31.4-38.5 54.5-66.6 23-28.1 50.4-61.5 80.9-98.6l23.3-28.4q6-7.3 12.1-14.7c2-2.5 4.3-4.9 5.2-7.9 1.1-3 1.1-6.3 0.2-9.3-1-3.1-2.9-5.8-5.4-7.7l-7.7-6.3-15.5-12.8-31.7-26c-2.7-2.2-5.9-3.4-9.3-3.5-3.4 0-6.7 1.1-9.4 3.1q-2 1.6-3.5 3.6-1.7 2-3.3 4-3.3 4-6.5 7.9-12.8 15.6-25.2 30.7c-16.6 20.2-32.6 39.7-47.9 58.3-30.5 37-58 70.4-81 98.5q-4.4 5.2-8.5 10.2-2 2.5-4.1 5c-1.4 1.5-2.5 3.2-3.3 5.1-1.6 3.6-1.6 7.7-0.2 11.4 0.7 1.7 1.7 3.3 2.9 4.7q2 1.9 4.1 3.6l28.6 23.5 18 14.9 4.7 3.9q1.5 1.4 1.5 1.4c0 0-0.5-0.4-1.6-1.3l-4.7-3.8-18.1-14.8-28.7-23.4q-2.2-1.7-4.1-3.7c-1.3-1.4-2.4-3-3.1-4.8-1.5-3.8-1.4-8.1 0.2-11.9 0.8-1.9 2-3.7 3.4-5.2q2-2.4 4.1-4.9 4.1-5 8.4-10.3c23.2-28.2 50.6-61.6 81-98.6 15.3-18.6 31.3-38.1 47.8-58.3q12.4-15.2 25.3-30.8 3.2-3.9 6.5-7.9 1.6-2 3.2-4 1.6-2.1 3.7-3.7c5.8-4.5 14-4.3 19.7 0.4l31.7 26 15.5 12.8 7.7 6.3c2.7 2 4.6 4.9 5.7 8.1 0.9 3.2 0.9 6.7-0.2 9.9-0.6 1.5-1.4 3-2.4 4.3-1 1.3-2 2.5-3 3.8q-6.2 7.4-12.1 14.7-12 14.5-23.4 28.4l-81.1 98.6c-23.1 27.9-41.8 50.7-54.6 66.3l-4.6 5.6c-3.5 4.3-9.1 6.4-14.6 5.5-2-0.3-4-1.1-5.7-2.2q-0.9-0.5-1.7-1.2z"/>
				<path id="&lt;Path&gt;" class="s3" d="m1292.4 597.4l73 60-30.7 37.4-73-60z"/>
				<path id="&lt;Path&gt;" class="s3" d="m1248.9 650.4l73 59.9-30.7 37.5-73-60z"/>
				<path id="&lt;Path&gt;" class="s3" d="m1205.4 703.4l73 59.9-30.7 37.4-73.1-59.9z"/>
				<path id="&lt;Path&gt;" class="s3" d="m1161.9 756.3l73 60-30.8 37.4-73-60z"/>
				<g id="&lt;Group&gt;" style="opacity: .5">
					<path id="&lt;Path&gt;" class="s4" d="m1292.4 597.4l73 60-30.7 37.4-73-60z"/>
				</g>
				<g id="&lt;Group&gt;" style="opacity: .6">
					<path id="&lt;Path&gt;" class="s4" d="m1248.9 650.4l73 59.9-30.7 37.5-73-60z"/>
				</g>
				<g id="&lt;Group&gt;" style="opacity: .7">
					<path id="&lt;Path&gt;" class="s4" d="m1205.4 703.4l73 59.9-30.7 37.4-73.1-59.9z"/>
				</g>
				<g id="&lt;Group&gt;" style="opacity: .8">
					<path id="&lt;Path&gt;" class="s4" d="m1161.9 756.3l73 60-30.8 37.4-73-60z"/>
				</g>
			</g>
			<path id="&lt;Path&gt;" class="s11" d="m1170.1 561.4l72 16.1c7.7 1.7 12.5 9.4 10.8 17.1l-61.4 275.3c-1.8 7.7-9.4 12.6-17.1 10.8l-72-16c-7.7-1.7-12.5-9.4-10.8-17.1l61.4-275.3c1.7-7.7 9.4-12.6 17.1-10.9z"/>
			<path id="&lt;Path&gt;" class="s6" d="m1175.7 882.3c0 0 0.7 0.1 2.1 0.2 2 0.2 4-0.1 5.9-0.8 3.1-1.2 5.7-3.4 7.4-6.2 1-1.9 1.7-3.9 2-6l1.5-7 18.5-84.2 27.6-124.9 8-36 4.1-18.7c0.3-1.5 0.8-3.1 1-4.7 0.8-4.7-1-9.6-4.6-12.7-1.3-1.1-2.6-1.9-4.1-2.4q-2.3-0.8-4.8-1.3l-9.7-2.2-19.6-4.3-40.2-9c-3.3-0.7-6.8-0.1-9.7 1.5-3 1.6-5.3 4.3-6.4 7.5q-0.7 2.4-1.2 4.9l-1.1 5-2.2 9.9-8.7 39-16.4 73.8-27.7 124.8-2.9 13q-0.7 3.2-1.4 6.3c-0.6 1.9-0.8 4-0.6 6 0.5 4 2.5 7.5 5.7 9.9 3.1 2.4 7 2.7 10.4 3.5l36.2 8.1 22.9 5.1 5.9 1.4q2 0.5 2 0.5c0 0-0.7-0.1-2-0.4l-6-1.3-22.9-5-36.3-7.9-5.4-1.2c-1.8-0.5-3.6-1.3-5.2-2.4-3.3-2.5-5.5-6.2-5.9-10.2-0.2-2.1-0.1-4.3 0.5-6.3l1.5-6.3 2.9-13 27.6-124.8c5.2-23.5 10.6-48.2 16.3-73.8l8.7-39 2.1-9.9 1.2-5q0.4-2.6 1.2-5c1.2-3.4 3.6-6.2 6.8-7.9 3.1-1.8 6.8-2.3 10.4-1.5l40.1 8.9 19.7 4.4 9.7 2.2q2.4 0.4 4.7 1.1c1.6 0.6 3.1 1.5 4.4 2.6 2.5 2.2 4.3 5.2 4.9 8.5 0.3 1.7 0.3 3.4 0 5-0.3 1.7-0.7 3.2-1 4.8l-4.2 18.6-8 36.2-27.7 124.7-18.8 84.1-1.5 7.1q-0.4 1.6-0.8 3.2l-0.6 1.4c-0.2 0.5-0.4 0.9-0.7 1.4-1.7 2.9-4.4 5.1-7.5 6.2-2 0.7-4 1-6.1 0.8q-0.7-0.1-1.5-0.2z"/>
			<path id="&lt;Path&gt;" class="s3" d="m1156.6 579.2l92.2 20.5-10.5 47.2-92.2-20.4z"/>
			<path id="&lt;Path&gt;" class="s3" d="m1141.8 646.1l92.2 20.5-10.5 47.2-92.2-20.4z"/>
			<path id="&lt;Path&gt;" class="s3" d="m1126.9 713.1l92.3 20.4-10.5 47.3-92.3-20.5z"/>
			<path id="&lt;Path&gt;" class="s3" d="m1112.1 780l92.2 20.5-10.4 47.2-92.3-20.4z"/>
			<g id="&lt;Group&gt;" style="opacity: .2">
				<path id="&lt;Path&gt;" class="s4" d="m1141.8 646.1l92.2 20.5-10.5 47.2-92.2-20.4z"/>
			</g>
			<g id="&lt;Group&gt;" style="opacity: .3">
				<path id="&lt;Path&gt;" class="s4" d="m1126.9 713.1l92.3 20.4-10.5 47.3-92.3-20.5z"/>
			</g>
			<g id="&lt;Group&gt;" style="opacity: .4">
				<path id="&lt;Path&gt;" class="s4" d="m1112.1 780l92.2 20.5-10.4 47.2-92.3-20.4z"/>
			</g>
			<path id="&lt;Path&gt;" class="s9" d="m1184.9 866.6c-2.7 5.7-9.5 8.1-15.1 5.3-5.7-2.7-8.1-9.5-5.4-15.1 2.7-5.7 9.5-8.1 15.2-5.4q0 0 0 0c5.6 2.7 8 9.5 5.3 15.2q0 0 0 0z"/>
			<path id="&lt;Path&gt;" class="s6" d="m1184.9 866.6c0 0 0.4-0.9 0.7-2.7 0.5-2.5 0.1-5-1.1-7.2-1.7-3.4-5-5.6-8.7-5.9-2.2-0.2-4.4 0.2-6.3 1.3-4.2 2.2-6.5 7-5.5 11.7 0.4 2.1 1.4 4.1 2.9 5.6 2.6 2.7 6.3 3.9 9.9 3.2 2.5-0.5 4.8-1.8 6.4-3.7 1.2-1.3 1.6-2.2 1.7-2.2q-0.1 0.4-0.3 0.7-0.5 0.9-1.1 1.8c-1.7 2-4 3.5-6.5 4-1.8 0.4-3.7 0.4-5.4-0.1-2-0.5-3.9-1.6-5.4-3.1-1.6-1.6-2.8-3.7-3.2-6.1-1-5 1.5-10.1 6-12.5 2.1-1.2 4.4-1.6 6.7-1.4 2.1 0.3 4.1 1 5.8 2.3 1.5 1.1 2.7 2.5 3.5 4.1 1.1 2.4 1.5 5.1 0.9 7.6q-0.2 1.1-0.7 2-0.2 0.6-0.3 0.6z"/>
		</g>
	</g>
	<g id="Eye">
		<g id="&lt;Group&gt;">
			<g id="&lt;Group&gt;">
				<g id="&lt;Group&gt;">
					<path id="&lt;Path&gt;" class="s11" d="m1241 508.1c0 0 66.8-81.2 145.1-1.2 0 0-64.4 83.9-145.1 1.2z"/>
				</g>
				<g id="&lt;Group&gt;">
					<g id="&lt;Group&gt;">
						<path id="&lt;Path&gt;" class="s6" d="m1241 508.1q0 0 0.7 0.6 0.7 0.6 1.9 1.7 1.2 1.2 2.9 2.8c1.2 1.2 2.5 2.4 4.2 3.8q2.4 2 5.4 4.5 3.1 2.3 6.7 5c2.4 1.7 5.2 3.4 8 5.2q2.3 1.2 4.6 2.5c0.8 0.4 1.6 0.8 2.4 1.2q1.3 0.6 2.6 1.2c6.8 3.1 14.7 5.7 23.5 6.9 8.8 1.2 18.4 0.7 28-1.6 19.3-4.8 38.6-17.3 53.4-34.8q0.2-0.2 0.4-0.5v0.7c-8-8.2-16.7-15.4-25.8-21.1-9.2-5.7-18.8-9.9-28.5-12.1-9.6-2.3-19.2-2.4-27.9-1.2-8.7 1.2-16.6 3.7-23.5 6.8-13.7 6.1-23.4 13.8-29.7 19.3-3.1 2.8-5.4 5.1-7 6.7q-1.1 1.1-1.7 1.8c-0.4 0.4-0.6 0.6-0.6 0.6 0 0 0.2-0.2 0.5-0.7q0.6-0.6 1.7-1.9c1.5-1.6 3.8-4 6.9-6.8 6.2-5.6 15.8-13.5 29.6-19.7 6.9-3.1 14.9-5.7 23.7-6.9 8.8-1.3 18.5-1.2 28.2 1.1 9.8 2.2 19.6 6.4 28.8 12.1 9.3 5.8 18 13.1 26.1 21.3l0.3 0.3-0.3 0.3q-0.2 0.3-0.4 0.6c-15 17.6-34.4 30.2-54 35-9.7 2.3-19.4 2.8-28.3 1.5-8.9-1.2-16.9-3.9-23.7-7.1q-1.3-0.6-2.6-1.1c-0.8-0.4-1.6-0.9-2.4-1.3q-2.4-1.3-4.6-2.6c-2.9-1.8-5.6-3.5-8.1-5.2q-3.6-2.8-6.7-5.1-2.9-2.5-5.3-4.6c-1.6-1.4-3-2.7-4.1-3.9q-1.7-1.7-3-2.9-1.1-1.1-1.7-1.8-0.6-0.6-0.6-0.6z"/>
					</g>
				</g>
			</g>
			<g id="&lt;Group&gt;">
				<path id="&lt;Path&gt;" class="s9" d="m1338.7 508.1c0 13.9-11.2 25.2-25.1 25.2-13.9 0-25.2-11.3-25.2-25.2 0-13.9 11.3-25.1 25.2-25.1 13.9 0 25.1 11.2 25.1 25.1z"/>
			</g>
			<g id="&lt;Group&gt;">
				<path id="&lt;Path&gt;" class="s6" d="m1323.8 508.1c0 5.7-4.6 10.2-10.2 10.2-5.7 0-10.3-4.5-10.3-10.2 0-5.6 4.6-10.2 10.3-10.2 5.6 0 10.2 4.6 10.2 10.2z"/>
			</g>
		</g>
	</g>
	<g id="Goal">
		<g id="&lt;Group&gt;">
			<g id="&lt;Group&gt;">
				<g id="&lt;Group&gt;">
					<path id="&lt;Path&gt;" class="s3" d="m1228.1 436.9c0 48-38.9 86.9-86.9 86.9-48 0-86.9-38.9-86.9-86.9 0-48 38.9-86.9 86.9-86.9 48 0 86.9 38.9 86.9 86.9z"/>
				</g>
				<g id="&lt;Group&gt;" style="opacity: .3">
					<path id="&lt;Path&gt;" class="s5" d="m1228.1 436.9c0 48-38.9 86.9-86.9 86.9-48 0-86.9-38.9-86.9-86.9 0-48 38.9-86.9 86.9-86.9 48 0 86.9 38.9 86.9 86.9z"/>
				</g>
				<g id="&lt;Group&gt;">
					<path id="&lt;Path&gt;" class="s3" d="m1228.1 427.3c0 48-38.9 86.9-86.9 86.9-48 0-86.9-38.9-86.9-86.9 0-48 38.9-86.9 86.9-86.9 48 0 86.9 38.9 86.9 86.9z"/>
				</g>
				<g id="&lt;Group&gt;">
					<path id="&lt;Path&gt;" class="s4" d="m1199.4 427.3c0 32.2-26 58.2-58.2 58.2-32.1 0-58.2-26-58.2-58.2 0-32.1 26.1-58.2 58.2-58.2 32.2 0 58.2 26.1 58.2 58.2z"/>
				</g>
				<g id="&lt;Group&gt;">
					<path id="&lt;Path&gt;" class="s3" d="m1169.7 427.3c0 15.8-12.8 28.5-28.5 28.5-15.7 0-28.5-12.7-28.5-28.5 0-15.7 12.8-28.5 28.5-28.5 15.7 0 28.5 12.8 28.5 28.5z"/>
				</g>
				<g id="&lt;Group&gt;">
					<path id="&lt;Path&gt;" class="s9" d="m1201.8 363.7l-2.4-18.5 18.9-20.2 1.3 20z"/>
				</g>
				<g id="&lt;Group&gt;">
					<path id="&lt;Path&gt;" class="s9" d="m1242.3 349l-19.2-1.6-19.2 18.5 19.2 2z"/>
				</g>
				<g id="&lt;Group&gt;" style="opacity: .3">
					<path id="&lt;Path&gt;" class="s5" d="m1145 426.9l66.5-50.7c-2.3-3.4-5.2-6.8-8.4-10.2l-58.1 56.4z"/>
				</g>
				<g id="&lt;Group&gt;">
					<g id="&lt;Group&gt;">
						<path id="&lt;Path&gt;" class="s6" d="m1220.4 342.2q-13.5 13.5-27 27-21.5 21.5-42.9 43-5 4.9-9.9 9.8c-3.1 3.2 1.8 8 4.9 4.8q13.5-13.5 27-27 21.5-21.5 42.9-42.9 5-5 9.9-9.9c3.1-3.1-1.7-8-4.9-4.8z"/>
					</g>
				</g>
			</g>
		</g>
	</g>
	<g id="Light Bulb">
		<g id="&lt;Group&gt;">
			<g id="&lt;Group&gt;">
				<g id="&lt;Group&gt;">
					<g id="&lt;Group&gt;">
						<g id="&lt;Group&gt;">
							<g id="&lt;Group&gt;">
								<g id="&lt;Group&gt;">
									<g id="&lt;Group&gt;">
										<g id="&lt;Group&gt;">
											<g id="&lt;Group&gt;">
												<g id="&lt;Group&gt;">
													<g id="&lt;Group&gt;">
														<path id="&lt;Path&gt;" class="s3" d="m414.7 364.8c-8-57.5-60.4-96.6-116.9-87.3-56.6 9.4-95.9 63.6-87.9 121.2 5.8 41.6 34.8 73.6 71.9 84.5 1.7 12.4 3.6 26.3 3.6 26.3l89.8-14.8c0 0-1.5-14.9-3.2-28.1 30.6-22.7 48.3-61.4 42.7-101.8z"/>
													</g>
												</g>
											</g>
										</g>
									</g>
								</g>
							</g>
						</g>
					</g>
					<g id="&lt;Group&gt;">
						<g id="&lt;Group&gt;">
							<g id="&lt;Group&gt;">
								<path id="&lt;Path&gt;" class="s4" d="m320 503c-5.2-33.8-8.2-67.9-14.1-101.5-1.1-6.8-2.4-13.5-4.2-20.2-2.1-8.3-5.4-17.5-13.9-20.9-3.7-1.5-8-1.6-11.6 0.5-3.4 2-5.6 5.6-6.9 9.4-2.7 8.1-2.2 17.5 0.1 25.5 4.9 16.5 17.8 29.3 34.5 32.5 16.6 3.2 34.9-3.2 45.6-17 10.6-13.7 14.3-34.9 6-50.3-3.5-6.6-10.7-13.5-18.8-11.2-7.9 2.2-10.6 11-11.4 18.4-0.8 8.5 0 17.4 0.6 25.9 0.7 10 1.6 19.9 2.7 29.8 2.2 20.4 4.8 40.8 7 61.2q0.7 6.7 1.3 13.5c0.1 1.5 2.4 1.1 2.3-0.4-3.3-36.3-9.1-72.2-11.2-108.5-0.5-8-1.3-16.5 0.1-24.5 0.6-3.8 2-8.1 5-10.8 3.2-2.9 7.5-3.3 11.3-1.6 7.8 3.6 11.5 13 12.7 21.2 1.2 8.5 0 17.3-3.3 25.2-6.7 16.2-22.1 26.7-39 27.5-16.7 0.8-31.9-8-39.7-22.9-3.7-7.1-5.6-15.3-5.2-23.5 0.4-8.1 3.7-20 14-18.6 9.8 1.4 13.4 12 15.6 20.4 1.6 5.9 2.7 11.9 3.8 17.9 5.5 31.1 8.6 62.6 13 93.9q0.7 4.8 1.4 9.5c0.2 1.5 2.5 1.1 2.3-0.4z"/>
							</g>
						</g>
					</g>
					<g id="&lt;Group&gt;">
						<g id="2gGvdE.tif 00000005255312143328988520000017637476125395066030 ">
							<g id="&lt;Group&gt;">
								<g id="&lt;Group&gt;">
									<g id="&lt;Group&gt;">
										<path id="&lt;Path&gt;" class="s9" d="m315.9 551c0 0 4.1 1.8 6.6 4.3 1.4 1.3 3.3 1.9 5.1 1.6l18.1-3c2-0.4 3.8-1.7 4.7-3.6 1-2.2 3-5 5.5-5.9z"/>
									</g>
								</g>
							</g>
						</g>
						<g id="&lt;Group&gt;">
							<g id="&lt;Group&gt;">
								<g id="&lt;Group&gt;">
									<path id="&lt;Path&gt;" class="s6" d="m289.2 503.1c0.1 0.4 8.3 28.4 11.4 39.1 1.3 4.4 4.6 7.9 9 9.1 1.5 0.5 3.3 0.7 5.3 0.3 7.7-1.2 39.4-6.5 39.4-6.5 0 0 10.4-1.7 11.5-10.5 1.3-9.1 1.1-44.4 1.1-44.4z"/>
								</g>
							</g>
						</g>
						<g id="&lt;Group&gt;">
							<g id="&lt;Group&gt;">
								<g id="&lt;Group&gt;">
									<g id="&lt;Group&gt;">
										<path id="&lt;Path&gt;" class="s9" d="m369.9 528.4l-71.7 12.2c-1.1 0.2-2.1-0.6-2.2-1.7l-0.1-0.2c-0.1-1.1 0.6-2.1 1.7-2.3l71.7-12.2c1.1-0.2 2.1 0.6 2.2 1.7l0.1 0.2c0.1 1.1-0.6 2.1-1.7 2.3z"/>
									</g>
								</g>
							</g>
						</g>
						<g id="&lt;Group&gt;">
							<g id="&lt;Group&gt;">
								<g id="&lt;Group&gt;">
									<g id="&lt;Group&gt;">
										<path id="&lt;Path&gt;" class="s9" d="m369.6 519.2l-73.6 12.5c-1.1 0.2-2.1-0.6-2.2-1.7v-0.2c-0.2-1.1 0.5-2.1 1.6-2.3l73.6-12.5c1-0.2 2 0.6 2.2 1.7v0.2c0.2 1.1-0.6 2.1-1.6 2.3z"/>
									</g>
								</g>
							</g>
						</g>
						<g id="&lt;Group&gt;">
							<g id="&lt;Group&gt;">
								<g id="&lt;Group&gt;">
									<g id="&lt;Group&gt;">
										<path id="&lt;Path&gt;" class="s2" d="m369.8 509.9l-76.5 13c-1.1 0.2-2.1-0.6-2.3-1.7v-0.2c-0.2-1.1 0.6-2.1 1.7-2.3l76.5-13c1.1-0.2 2.1 0.6 2.2 1.7l0.1 0.2c0.1 1.1-0.6 2.1-1.7 2.3z"/>
									</g>
								</g>
							</g>
							<g id="&lt;Group&gt;">
								<g id="&lt;Group&gt;">
									<g id="&lt;Group&gt;">
										<g id="&lt;Group&gt;">
											<path id="&lt;Path&gt;" class="s6" d="m369.8 509.9c-0.1 0 0.7 0 1.3-1 0.3-0.4 0.4-1.2 0.1-1.9-0.2-0.8-1.1-1.4-2.2-1.1-4.2 0.7-10.2 1.8-17.7 3.1-15 2.6-35.7 6.1-58.6 10-0.6 0.1-1.1 0.6-1.3 1.2-0.2 0.5-0.1 1.3 0.3 1.7 0.3 0.5 0.9 0.8 1.5 0.7q1.1-0.2 2.1-0.4 4.2-0.7 8.3-1.4 8.1-1.3 15.5-2.6c9.9-1.7 18.9-3.2 26.4-4.4 7.5-1.2 13.5-2.2 17.8-2.9q3.1-0.5 4.8-0.8 0.8-0.1 1.3-0.2 0.4 0 0.4 0 0 0-0.4 0.1-0.5 0.1-1.3 0.3-1.7 0.3-4.8 0.8c-4.2 0.8-10.3 1.9-17.8 3.2-7.5 1.3-16.4 2.8-26.3 4.5q-7.4 1.3-15.5 2.7-4.1 0.7-8.3 1.4-1 0.2-2.1 0.3c-0.8 0.2-1.7-0.1-2.2-0.8-0.2-0.4-0.4-0.8-0.4-1.2-0.1-0.4-0.1-0.8 0.1-1.2 0.2-0.9 1-1.5 1.8-1.6 22.9-3.9 43.6-7.4 58.6-9.9 7.5-1.2 13.6-2.2 17.8-2.9 1.1-0.3 2.1 0.5 2.4 1.3 0.3 0.8 0.2 1.6-0.2 2.1-0.3 0.5-0.7 0.7-1 0.8-0.3 0.1-0.4 0.1-0.4 0.1z"/>
										</g>
									</g>
								</g>
							</g>
						</g>
						<g id="&lt;Group&gt;">
							<g id="&lt;Group&gt;">
								<g id="&lt;Group&gt;">
									<path id="&lt;Path&gt;" class="s9" d="m277.7 487.3c0.1 0.7 4.2 18 6.3 26.9 0.8 3.3 3 6 6 7.3l4.4 2 76.3-12.7 3.6-3.3c2.6-2.3 3.9-5.6 3.7-9l-1.5-27.6z"/>
								</g>
							</g>
						</g>
						<g id="&lt;Group&gt;" style="opacity: .3">
							<g id="&lt;Group&gt;">
								<g id="&lt;Group&gt;">
									<g id="&lt;Group&gt;">
										<path id="&lt;Path&gt;" class="s5" d="m299.5 540.1c8.1 0.4 16.1-0.8 24.8-2.2 7-1.2 13.9-2.2 21.5-3.6 5.6-1.1 10.7-2.2 16.2-3.3 2.8-0.6 5.8-1.8 6.3-2.4z"/>
									</g>
								</g>
							</g>
						</g>
						<g id="&lt;Group&gt;" style="opacity: .3">
							<g id="&lt;Group&gt;">
								<g id="&lt;Group&gt;">
									<g id="&lt;Group&gt;">
										<path id="&lt;Path&gt;" class="s5" d="m298.2 531.2c8.2 0.3 16.1-0.8 24.8-2.3 7-1.2 14-2.2 21.6-3.6 5.5-1 10.6-2.1 16.2-3.3 2.8-0.6 5.8-1.8 6.3-2.4z"/>
									</g>
								</g>
							</g>
						</g>
						<g id="&lt;Group&gt;">
							<g id="&lt;Group&gt;">
								<g id="&lt;Group&gt;">
									<g id="&lt;Group&gt;">
										<path id="&lt;Path&gt;" class="s6" d="m376.7 502.6c0 0.2-20.4 3.7-45.6 7.9-25.2 4.2-45.6 7.4-45.6 7.2-0.1-0.2 20.3-3.7 45.5-7.9 25.2-4.2 45.7-7.4 45.7-7.2z"/>
									</g>
								</g>
							</g>
						</g>
						<g id="&lt;Group&gt;">
							<g id="&lt;Group&gt;">
								<g id="&lt;Group&gt;">
									<g id="&lt;Group&gt;">
										<path id="&lt;Path&gt;" class="s6" d="m375.9 470.4c0 0.3-22.1 4.2-49.5 8.9-27.3 4.6-49.5 8.2-49.6 8 0-0.2 22.1-4.1 49.5-8.8 27.3-4.7 49.5-8.3 49.6-8.1z"/>
									</g>
								</g>
							</g>
						</g>
					</g>
				</g>
				<g id="&lt;Group&gt;" style="opacity: .2">
					<g id="&lt;Group&gt;">
						<g id="&lt;Group&gt;">
							<path id="&lt;Path&gt;" class="s4" d="m281.5 311.5c-0.8-4.4 1.5-9.4 5.1-13.8 5.2-6.2 12.8-9.9 20.7-10.7 23.3-2.3 40.2 2.3 58.8 18.1 6.3 5.4 14.4 15.9 15.2 24.6 0.5 4.5-0.7 9-3.6 12.4-7.5 8.8-20.5 4.7-28.7-2-7.7-6.3-14.4-14.7-23.9-17.2-7.9-2-16.3 0.4-24.5 0.5-8.2 0.1-17.7-3.7-19.1-11.9z"/>
						</g>
					</g>
				</g>
				<g id="&lt;Group&gt;" style="opacity: .2">
					<g id="&lt;Group&gt;">
						<g id="&lt;Group&gt;">
							<path id="&lt;Path&gt;" class="s4" d="m374.6 364.9c1.3-7.1 8.8-12.8 14.5-12.5 4.7 0.4 9.2 3.1 11.7 7.2 2.9 4.9 2.5 11.8-1.1 16.4-3.6 4.6-10.2 6.5-15.4 4.3-5.3-2.2-10.7-9.6-9.7-15.4z"/>
						</g>
					</g>
				</g>
			</g>
			<g id="&lt;Group&gt;">
				<g id="&lt;Group&gt;">
					<g id="&lt;Group&gt;">
						<path id="&lt;Path&gt;" class="s6" d="m242.9 286.7c-0.2 0.2-7.4-6.7-16.2-15.4-8.8-8.8-15.7-16.1-15.5-16.3 0.2-0.2 7.5 6.8 16.2 15.5 8.8 8.8 15.7 16 15.5 16.2z"/>
					</g>
				</g>
				<g id="&lt;Group&gt;">
					<g id="&lt;Group&gt;">
						<path id="&lt;Path&gt;" class="s6" d="m294.7 263.6c-0.1 0-0.3-0.8-0.7-2.2-0.5-1.4-1-3.4-1.7-6-1.3-5.1-2.9-12.2-4.5-20.1-1.5-7.9-2.6-15.1-3.2-20.4-0.3-2.6-0.6-4.7-0.7-6.2-0.1-1.5-0.2-2.3-0.1-2.3 0.1 0 0.2 0.8 0.5 2.3q0.4 2.5 1 6.1c0.9 5.2 2.1 12.4 3.6 20.3 1.5 7.9 3 15 4.1 20.1q0.8 3.6 1.3 6.1c0.3 1.5 0.5 2.3 0.4 2.3z"/>
					</g>
				</g>
				<g id="&lt;Group&gt;">
					<g id="&lt;Group&gt;">
						<path id="&lt;Path&gt;" class="s6" d="m363 226.9c0.1 0-0.3 2.4-1.1 6.1-0.8 3.7-2.1 8.8-3.8 14.3-1.6 5.5-3.4 10.5-4.8 14-1.4 3.5-2.4 5.7-2.5 5.6-0.2 0 0.6-2.3 1.8-5.9 1.2-3.5 2.9-8.5 4.6-14 1.6-5.5 3-10.6 4-14.2 1-3.7 1.6-5.9 1.8-5.9z"/>
					</g>
				</g>
			</g>
		</g>
	</g>
</svg>