<svg version="1.2" xmlns="http://www.w3.org/2000/svg" viewBox="0 0 1500 1000" width="1500" height="1000">
	<title>6057227-ai</title>
	<style>
		.s0 { fill:  #BA68C8 } 
		.s1 { opacity: .7;fill: #ffffff } 
		.s2 { fill: none;stroke: #263238;stroke-linecap: round;stroke-linejoin: round;stroke-width: 2 } 
		.s3 { fill: #ffffff;stroke: #263238;stroke-linecap: round;stroke-linejoin: round;stroke-width: 2 } 
		.s4 { fill: #263238;stroke: #263238;stroke-linecap: round;stroke-linejoin: round;stroke-width: 2 } 
		.s5 { fill: #d1d1d1;stroke: #263238;stroke-linecap: round;stroke-linejoin: round;stroke-width: 2 } 
		.s6 { fill:  #BA68C8;stroke: #263238;stroke-linecap: round;stroke-linejoin: round;stroke-width: 2 } 
		.s7 { fill: none;stroke: #263238;stroke-linecap: round;stroke-linejoin: round;stroke-width: 2;stroke-dasharray: 8.0273,8.0273 } 
		.s8 { fill: none;stroke: #263238;stroke-linecap: round;stroke-linejoin: round;stroke-width: 4 } 
		.s9 { fill: #263238 } 
		.s10 { fill: none;stroke: #263238;stroke-linecap: round;stroke-linejoin: round;stroke-width: 2;stroke-dasharray: 7.81546,7.81546 } 
		.s11 { fill: #999999;stroke: #263238;stroke-linecap: round;stroke-linejoin: round;stroke-width: 2 } 
	</style>
	<g id="Background Simple">
		<g id="&lt;Group&gt;">
			<path id="&lt;Path&gt;" class="s0" d="m1280.3 257.1c0 0-205.5-210.5-472.7-226.8-267.1-16.2-422.9 156.3-496.7 259.3-73.8 102.9-257.9 274.4-236.3 431.4 21.7 157 234.7 276.1 539.7 223.8 305-52.3 393.5-72.2 532.5-32.5 138.9 39.7 319.4-19.8 323.1-245.5 3.6-225.6-189.6-409.7-189.6-409.7z"/>
			<path id="&lt;Path&gt;" class="s1" d="m1280.3 257.1c0 0-205.5-210.5-472.7-226.8-267.1-16.2-422.9 156.3-496.7 259.3-73.8 102.9-257.9 274.4-236.3 431.4 21.7 157 234.7 276.1 539.7 223.8 305-52.3 393.5-72.2 532.5-32.5 138.9 39.7 319.4-19.8 323.1-245.5 3.6-225.6-189.6-409.7-189.6-409.7z"/>
		</g>
	</g>
	<g id="Floor">
		<path id="&lt;Path&gt;" class="s2" d="m137.7 710.5h1251.9"/>
	</g>
	<g id="Money">
		<g id="&lt;Group&gt;">
			<g id="&lt;Group&gt;">
				<path id="&lt;Path&gt;" class="s3" d="m206.9 251.9c0-36.9-29.9-66.8-66.8-66.8-37 0-66.9 29.9-66.9 66.8 0 37 29.9 66.9 66.9 66.9 36.9 0 66.8-29.9 66.8-66.9z"/>
				<path id="&lt;Path&gt;" class="s3" d="m195.3 251.9c0-30.4-24.8-55.1-55.2-55.1-30.5 0-55.2 24.7-55.2 55.1 0 30.5 24.7 55.2 55.2 55.2 30.4 0 55.2-24.7 55.2-55.2z"/>
				<g id="&lt;Group&gt;">
					<path id="&lt;Compound Path&gt;" class="s3" d="m139.7 298.1v-7.7q-9.5-0.4-14.2-6.2-4.6-5.8-5.1-16.4l11.8-2.3q0.2 4.3 1 7.6 0.8 3.3 2.6 5.1 1.8 1.8 4.8 1.8 3.3 0 4.7-2 1.5-2 1.5-5 0-4.9-2.3-8-2.3-3.1-5.9-6.3l-9.4-8.2q-2.6-2.3-4.5-4.9-2-2.5-3.1-5.7-1.1-3.2-1.1-7.4 0-8.4 4.8-13.1 4.8-4.8 12.9-5.2v-7.5h3.9v7.4q4.7 0.3 7.8 2.1 3 1.8 4.8 4.6 1.8 2.8 2.7 6.3 0.9 3.5 1 7.2l-11.6 2.1q-0.1-3.5-0.7-6.3-0.5-2.8-2.1-4.5-1.5-1.6-4.4-1.4-3.2 0.1-4.8 2-1.6 2-1.6 4.9 0 4 1.8 6.4 1.7 2.5 4.3 4.9l9.4 8.1q2.9 2.7 5.5 5.8 2.5 3.2 4 7 1.5 3.9 1.5 8.9 0 5-1.9 8.9-2 3.9-5.6 6.3-3.6 2.4-8.6 2.9v7.8z"/>
				</g>
			</g>
			<g id="&lt;Group&gt;">
				<path id="&lt;Path&gt;" class="s3" d="m240.4 482.9c0-41.7-33.9-75.6-75.6-75.6-41.8 0-75.6 33.9-75.6 75.6 0 41.8 33.8 75.6 75.6 75.6 41.7 0 75.6-33.8 75.6-75.6z"/>
				<path id="&lt;Path&gt;" class="s3" d="m227.1 482.9c0-34.4-27.9-62.4-62.3-62.4-34.5 0-62.4 28-62.4 62.4 0 34.5 27.9 62.4 62.4 62.4 34.4 0 62.3-27.9 62.3-62.4z"/>
				<g id="&lt;Group&gt;">
					<path id="&lt;Compound Path&gt;" class="s3" d="m164.3 535.2v-8.8q-10.7-0.4-16-7-5.2-6.5-5.8-18.6l13.4-2.6q0.2 4.9 1.1 8.6 0.9 3.8 3 5.8 2 2 5.3 2 3.8 0 5.4-2.2 1.6-2.2 1.6-5.7 0-5.5-2.5-9-2.6-3.6-6.7-7.1l-10.7-9.4q-2.9-2.6-5.1-5.4-2.2-2.9-3.4-6.5-1.3-3.6-1.3-8.4 0-9.4 5.5-14.8 5.4-5.4 14.5-5.9v-8.4h4.5v8.3q5.3 0.3 8.7 2.4 3.5 2 5.5 5.2 2 3.1 3 7.1 1 3.9 1.2 8.2l-13.1 2.3q-0.2-4-0.8-7.1-0.6-3.2-2.4-5-1.7-1.8-5-1.6-3.6 0.1-5.4 2.3-1.8 2.1-1.8 5.5 0 4.4 2 7.2 2 2.8 4.9 5.5l10.6 9.2q3.3 3.1 6.2 6.6 2.8 3.5 4.6 7.9 1.7 4.4 1.7 10 0 5.6-2.3 10-2.2 4.5-6.3 7.2-4 2.7-9.6 3.3v8.9z"/>
				</g>
			</g>
			<g id="&lt;Group&gt;">
				<path id="&lt;Path&gt;" class="s3" d="m351.3 369.3c0-32.5-26.3-58.9-58.9-58.9-32.6 0-59 26.4-59 58.9 0 32.6 26.4 59 59 59 32.6 0 58.9-26.4 58.9-59z"/>
				<path id="&lt;Path&gt;" class="s3" d="m341 369.3c0-26.9-21.7-48.6-48.6-48.6-26.9 0-48.7 21.7-48.7 48.6 0 26.9 21.8 48.7 48.7 48.7 26.9 0 48.6-21.8 48.6-48.7z"/>
				<g id="&lt;Group&gt;">
					<path id="&lt;Compound Path&gt;" class="s3" d="m292 410.1v-6.9q-8.3-0.3-12.4-5.4-4.1-5.1-4.5-14.5l10.4-2.1q0.1 3.9 0.8 6.8 0.8 2.9 2.4 4.5 1.5 1.6 4.1 1.6 3 0 4.2-1.8 1.3-1.7 1.3-4.4 0-4.3-2-7.1-2-2.7-5.2-5.5l-8.3-7.3q-2.3-2-4-4.3-1.7-2.2-2.7-5-1-2.8-1-6.5 0-7.4 4.3-11.6 4.2-4.2 11.3-4.6v-6.6h3.5v6.5q4.2 0.3 6.8 1.9 2.7 1.5 4.3 4 1.6 2.5 2.4 5.6 0.7 3.1 0.9 6.4l-10.2 1.8q-0.2-3.1-0.7-5.6-0.5-2.5-1.8-3.9-1.4-1.4-4-1.2-2.7 0-4.1 1.8-1.5 1.7-1.5 4.3 0 3.4 1.6 5.6 1.5 2.1 3.8 4.3l8.3 7.2q2.6 2.3 4.8 5.1 2.2 2.8 3.6 6.2 1.3 3.4 1.3 7.8 0 4.3-1.7 7.8-1.8 3.4-4.9 5.6-3.2 2.1-7.6 2.6v6.9z"/>
				</g>
			</g>
			<g id="&lt;Group&gt;">
				<path id="&lt;Path&gt;" class="s3" d="m385.4 248.5c0-26.4-21.4-47.8-47.9-47.8-26.4 0-47.8 21.4-47.8 47.8 0 26.4 21.4 47.8 47.8 47.8 26.5 0 47.9-21.4 47.9-47.8z"/>
				<path id="&lt;Path&gt;" class="s3" d="m377 248.5c0-21.8-17.7-39.5-39.5-39.5-21.7 0-39.4 17.7-39.4 39.5 0 21.8 17.7 39.5 39.4 39.5 21.8 0 39.5-17.7 39.5-39.5z"/>
				<g id="&lt;Group&gt;">
					<path id="&lt;Compound Path&gt;" class="s3" d="m337.2 281.5v-5.5q-6.7-0.3-10.1-4.4-3.3-4.1-3.6-11.8l8.4-1.6q0.1 3.1 0.7 5.4 0.6 2.4 1.9 3.7 1.3 1.3 3.4 1.3 2.4 0 3.4-1.4 1-1.5 1-3.6 0-3.5-1.6-5.8-1.6-2.2-4.2-4.4l-6.8-6q-1.8-1.6-3.2-3.4-1.4-1.8-2.2-4.1-0.7-2.3-0.7-5.3 0-6 3.4-9.4 3.4-3.4 9.2-3.7v-5.3h2.8v5.2q3.4 0.2 5.6 1.5 2.1 1.3 3.4 3.3 1.3 2 1.9 4.5 0.6 2.5 0.8 5.2l-8.3 1.5q-0.1-2.5-0.5-4.5-0.4-2.1-1.5-3.2-1.1-1.2-3.2-1-2.3 0-3.4 1.4-1.2 1.4-1.2 3.5 0 2.8 1.3 4.6 1.2 1.7 3.1 3.4l6.7 5.9q2.1 1.9 3.9 4.2 1.8 2.2 2.9 5 1.1 2.7 1.1 6.3 0 3.5-1.4 6.3-1.4 2.8-4 4.5-2.6 1.8-6.1 2.1v5.6z"/>
				</g>
			</g>
			<g id="&lt;Group&gt;">
				<path id="&lt;Path&gt;" class="s3" d="m467.2 323.1c0-22.5-18.2-40.7-40.7-40.7-22.5 0-40.7 18.2-40.7 40.7 0 22.5 18.2 40.7 40.7 40.7 22.5 0 40.7-18.2 40.7-40.7z"/>
				<path id="&lt;Path&gt;" class="s3" d="m460.1 323.1c0-18.5-15.1-33.6-33.6-33.6-18.6 0-33.6 15.1-33.6 33.6 0 18.5 15 33.6 33.6 33.6 18.5 0 33.6-15.1 33.6-33.6z"/>
				<g id="&lt;Group&gt;">
					<path id="&lt;Compound Path&gt;" class="s3" d="m426.2 351.2v-4.7q-5.7-0.2-8.6-3.7-2.8-3.6-3.1-10.1l7.2-1.4q0.1 2.7 0.6 4.7 0.5 2 1.6 3.1 1.1 1.1 2.9 1.1 2 0 2.9-1.2 0.8-1.2 0.8-3.1 0-2.9-1.3-4.9-1.4-1.9-3.6-3.8l-5.8-5q-1.5-1.4-2.7-3-1.2-1.5-1.9-3.4-0.6-2-0.6-4.5 0-5.1 2.9-8 2.9-2.9 7.8-3.2v-4.5h2.4v4.5q2.9 0.1 4.8 1.2 1.8 1.1 2.9 2.8 1.1 1.7 1.6 3.9 0.6 2.1 0.7 4.4l-7.1 1.2q-0.1-2.1-0.4-3.8-0.4-1.7-1.3-2.7-0.9-1-2.7-0.9-1.9 0.1-2.9 1.3-1 1.1-1 2.9 0 2.4 1.1 3.9 1 1.5 2.6 3l5.7 4.9q1.8 1.7 3.4 3.6 1.5 1.9 2.4 4.2 0.9 2.4 0.9 5.4 0 3-1.2 5.4-1.2 2.4-3.3 3.9-2.2 1.4-5.3 1.8v4.7z"/>
				</g>
			</g>
		</g>
		<g id="&lt;Group&gt;">
			<g id="&lt;Group&gt;">
				<path id="&lt;Path&gt;" class="s3" d="m1431.1 251.9c0-36.9-29.9-66.8-66.8-66.8-37 0-66.9 29.9-66.9 66.8 0 37 29.9 66.9 66.9 66.9 36.9 0 66.8-29.9 66.8-66.9z"/>
				<path id="&lt;Path&gt;" class="s3" d="m1419.4 251.9c0-30.4-24.7-55.1-55.1-55.1-30.5 0-55.2 24.7-55.2 55.1 0 30.5 24.7 55.2 55.2 55.2 30.4 0 55.1-24.7 55.1-55.2z"/>
				<g id="&lt;Group&gt;">
					<path id="&lt;Compound Path&gt;" class="s3" d="m1363.9 298.1v-7.7q-9.5-0.4-14.2-6.2-4.6-5.8-5.1-16.4l11.8-2.3q0.2 4.3 1 7.6 0.8 3.3 2.6 5.1 1.8 1.8 4.8 1.8 3.3 0 4.7-2 1.4-2 1.4-5 0-4.9-2.2-8-2.3-3.1-5.9-6.3l-9.4-8.2q-2.6-2.3-4.6-4.9-1.9-2.5-3-5.7-1.1-3.2-1.1-7.4 0-8.4 4.8-13.1 4.8-4.8 12.9-5.2v-7.5h3.9v7.4q4.7 0.3 7.8 2.1 3 1.8 4.8 4.6 1.8 2.8 2.7 6.3 0.9 3.5 1 7.2l-11.6 2.1q-0.1-3.5-0.7-6.3-0.6-2.8-2.1-4.5-1.5-1.6-4.4-1.4-3.2 0.1-4.8 2-1.6 2-1.6 4.9 0 4 1.8 6.4 1.7 2.5 4.3 4.9l9.4 8.1q2.9 2.7 5.5 5.8 2.5 3.2 4 7 1.5 3.9 1.5 8.9 0 5-2 8.9-1.9 3.9-5.5 6.3-3.6 2.4-8.6 2.9v7.8z"/>
				</g>
			</g>
			<g id="&lt;Group&gt;">
				<path id="&lt;Path&gt;" class="s3" d="m1415.2 482.9c0-41.7-33.9-75.6-75.6-75.6-41.8 0-75.6 33.9-75.6 75.6 0 41.8 33.8 75.6 75.6 75.6 41.7 0 75.6-33.8 75.6-75.6z"/>
				<path id="&lt;Path&gt;" class="s3" d="m1402 482.9c0-34.4-28-62.4-62.4-62.4-34.5 0-62.4 28-62.4 62.4 0 34.5 27.9 62.4 62.4 62.4 34.4 0 62.4-27.9 62.4-62.4z"/>
				<g id="&lt;Group&gt;">
					<path id="&lt;Compound Path&gt;" class="s3" d="m1339.1 535.2v-8.8q-10.7-0.4-16-7-5.2-6.5-5.7-18.6l13.3-2.6q0.2 4.9 1.1 8.6 1 3.8 3 5.8 2 2 5.4 2 3.7 0 5.3-2.2 1.6-2.2 1.6-5.7 0-5.5-2.5-9-2.6-3.6-6.6-7.1l-10.8-9.4q-2.9-2.6-5.1-5.4-2.1-2.9-3.4-6.5-1.2-3.6-1.2-8.4 0-9.4 5.4-14.8 5.4-5.4 14.6-5.9v-8.4h4.4v8.3q5.3 0.3 8.8 2.4 3.4 2 5.4 5.2 2.1 3.1 3.1 7.1 0.9 3.9 1.2 8.2l-13.2 2.3q-0.2-4-0.8-7.1-0.6-3.2-2.3-5-1.8-1.8-5.1-1.6-3.5 0.1-5.3 2.3-1.9 2.1-1.9 5.5 0 4.4 2 7.2 2 2.8 4.9 5.5l10.6 9.2q3.3 3.1 6.2 6.6 2.9 3.5 4.6 7.9 1.7 4.4 1.7 10 0 5.6-2.2 10-2.3 4.5-6.3 7.2-4.1 2.7-9.7 3.3v8.9z"/>
				</g>
			</g>
			<g id="&lt;Group&gt;">
				<path id="&lt;Path&gt;" class="s3" d="m1270.9 369.3c0-32.5-26.4-58.9-58.9-58.9-32.6 0-59 26.4-59 58.9 0 32.6 26.4 59 59 59 32.5 0 58.9-26.4 58.9-59z"/>
				<path id="&lt;Path&gt;" class="s3" d="m1260.6 369.3c0-26.9-21.8-48.6-48.6-48.6-26.9 0-48.7 21.7-48.7 48.6 0 26.9 21.8 48.7 48.7 48.7 26.8 0 48.6-21.8 48.6-48.7z"/>
				<g id="&lt;Group&gt;">
					<path id="&lt;Compound Path&gt;" class="s3" d="m1211.6 410.1v-6.9q-8.4-0.3-12.5-5.4-4.1-5.1-4.5-14.5l10.4-2.1q0.2 3.9 0.9 6.8 0.7 2.9 2.3 4.5 1.6 1.6 4.2 1.6 2.9 0 4.2-1.8 1.2-1.7 1.2-4.4 0-4.3-2-7.1-1.9-2.7-5.1-5.5l-8.4-7.3q-2.2-2-3.9-4.3-1.8-2.2-2.7-5-1-2.8-1-6.5 0-7.4 4.2-11.6 4.2-4.2 11.4-4.6v-6.6h3.5v6.5q4.1 0.3 6.8 1.9 2.7 1.5 4.3 4 1.5 2.5 2.3 5.6 0.8 3.1 0.9 6.4l-10.2 1.8q-0.1-3.1-0.6-5.6-0.5-2.5-1.9-3.9-1.3-1.4-3.9-1.2-2.8 0-4.2 1.8-1.4 1.7-1.4 4.3 0 3.4 1.5 5.6 1.6 2.1 3.9 4.3l8.2 7.2q2.6 2.3 4.9 5.1 2.2 2.8 3.5 6.2 1.4 3.4 1.4 7.8 0 4.3-1.8 7.8-1.7 3.4-4.9 5.6-3.1 2.1-7.5 2.6v6.9z"/>
				</g>
			</g>
			<g id="&lt;Group&gt;">
				<path id="&lt;Path&gt;" class="s3" d="m1214.6 248.5c0-26.4-21.4-47.8-47.8-47.8-26.4 0-47.8 21.4-47.8 47.8 0 26.4 21.4 47.8 47.8 47.8 26.4 0 47.8-21.4 47.8-47.8z"/>
				<path id="&lt;Path&gt;" class="s3" d="m1206.3 248.5c0-21.8-17.7-39.5-39.5-39.5-21.8 0-39.5 17.7-39.5 39.5 0 21.8 17.7 39.5 39.5 39.5 21.8 0 39.5-17.7 39.5-39.5z"/>
				<g id="&lt;Group&gt;">
					<path id="&lt;Compound Path&gt;" class="s3" d="m1166.5 281.5v-5.5q-6.8-0.3-10.1-4.4-3.3-4.1-3.7-11.8l8.5-1.6q0.1 3.1 0.7 5.4 0.6 2.4 1.9 3.7 1.3 1.3 3.4 1.3 2.3 0 3.4-1.4 1-1.5 1-3.6 0-3.5-1.6-5.8-1.7-2.2-4.2-4.4l-6.8-6q-1.8-1.6-3.2-3.4-1.4-1.8-2.2-4.1-0.8-2.3-0.8-5.3 0-6 3.4-9.4 3.5-3.4 9.3-3.7v-5.3h2.8v5.2q3.3 0.2 5.5 1.5 2.2 1.3 3.5 3.3 1.3 2 1.9 4.5 0.6 2.5 0.7 5.2l-8.3 1.5q-0.1-2.5-0.5-4.5-0.4-2.1-1.5-3.2-1.1-1.2-3.2-1-2.2 0-3.4 1.4-1.1 1.4-1.1 3.5 0 2.8 1.2 4.6 1.3 1.7 3.1 3.4l6.8 5.9q2.1 1.9 3.9 4.2 1.8 2.2 2.9 5 1.1 2.7 1.1 6.3 0 3.5-1.5 6.3-1.4 2.8-3.9 4.5-2.6 1.8-6.2 2.1v5.6z"/>
				</g>
			</g>
			<g id="&lt;Group&gt;">
				<path id="&lt;Path&gt;" class="s3" d="m1118.6 323.1c0-22.5-18.3-40.7-40.7-40.7-22.5 0-40.7 18.2-40.7 40.7 0 22.5 18.2 40.7 40.7 40.7 22.4 0 40.7-18.2 40.7-40.7z"/>
				<path id="&lt;Path&gt;" class="s3" d="m1111.4 323.1c0-18.5-15-33.6-33.5-33.6-18.6 0-33.6 15.1-33.6 33.6 0 18.5 15 33.6 33.6 33.6 18.5 0 33.5-15.1 33.5-33.6z"/>
				<g id="&lt;Group&gt;">
					<path id="&lt;Compound Path&gt;" class="s3" d="m1077.6 351.2v-4.7q-5.8-0.2-8.6-3.7-2.8-3.6-3.1-10.1l7.2-1.4q0.1 2.7 0.6 4.7 0.5 2 1.6 3.1 1.1 1.1 2.9 1.1 2 0 2.9-1.2 0.8-1.2 0.8-3.1 0-2.9-1.3-4.9-1.4-1.9-3.6-3.8l-5.8-5q-1.5-1.4-2.7-3-1.2-1.5-1.9-3.4-0.6-2-0.6-4.5 0-5.1 2.9-8 2.9-2.9 7.8-3.2v-4.5h2.4v4.5q2.9 0.1 4.7 1.2 1.9 1.1 3 2.8 1.1 1.7 1.6 3.9 0.5 2.1 0.6 4.4l-7 1.2q-0.1-2.1-0.5-3.8-0.3-1.7-1.2-2.7-1-1-2.7-0.9-2 0.1-2.9 1.3-1 1.1-1 2.9 0 2.4 1.1 3.9 1 1.5 2.6 3l5.7 4.9q1.8 1.7 3.3 3.6 1.6 1.9 2.5 4.2 0.9 2.4 0.9 5.4 0 3-1.2 5.4-1.2 2.4-3.4 3.9-2.2 1.4-5.2 1.8v4.7z"/>
				</g>
			</g>
		</g>
	</g>
	<g id="Device">
		<g id="&lt;Group&gt;">
			<g id="&lt;Group&gt;">
				<path id="&lt;Path&gt;" class="s3" d="m831 688.8l-5.4-58.3h-112.2l-5.5 58.3c-1.3 14.1-9.5 26.5-21.9 33.3l-37.7 20.5h242.4l-37.7-20.5c-12.4-6.8-20.6-19.2-22-33.3z"/>
				<path id="&lt;Path&gt;" class="s4" d="m828.8 664.8l-3.2-34.3h-112.2l-3.2 34.3z"/>
				<path id="&lt;Path&gt;" class="s4" d="m890.6 753.5h-242.3v-10.9h242.3z"/>
			</g>
			<g id="&lt;Group&gt;">
				<path id="&lt;Path&gt;" class="s4" d="m1096.3 636.3h-653.6c-12.9 0-23.3-10.5-23.3-23.4v-459c0-8.5 6.9-15.4 15.4-15.4h669.4c8.5 0 15.4 6.9 15.4 15.4v459c0 12.9-10.4 23.4-23.3 23.4z"/>
				<path id="&lt;Path&gt;" class="s3" d="m1100.2 160.1v398.8h-660.6v-398.8z"/>
				<g id="&lt;Group&gt;">
					<path id="&lt;Path&gt;" class="s3" d="m583.5 228.2h74.6v101.1h-184.1v-101.1h95.7"/>
					<path id="&lt;Path&gt;" class="s3" d="m731.5 329.3h-58v-101.1h184.1v101.1h-116.6"/>
					<path id="&lt;Path&gt;" class="s3" d="m1057.1 262.2v67.1h-184.1v-101.1h184.1v19.4"/>
					<path id="&lt;Path&gt;" class="s2" d="m476.3 374h175.2"/>
					<path id="&lt;Path&gt;" class="s2" d="m476.3 398.7h175.2"/>
					<path id="&lt;Path&gt;" class="s2" d="m476.3 423.4h175.2"/>
					<path id="&lt;Path&gt;" class="s2" d="m476.3 448.1h175.2"/>
					<path id="&lt;Path&gt;" class="s2" d="m476.3 472.7h175.2"/>
					<path id="&lt;Path&gt;" class="s2" d="m476.3 497.4h175.2"/>
					<path id="&lt;Path&gt;" class="s2" d="m476.3 522.1h175.2"/>
					<g id="&lt;Group&gt;">
						<path id="&lt;Path&gt;" class="s2" d="m802.1 374h54v150.5h-185.8v-150.5h118.9"/>
						<path id="&lt;Path&gt;" class="s3" d="m856.1 455.5v69h-185.8l49.4-58.8 42.3 12.9 43.5-55.2z"/>
						<path id="&lt;Path&gt;" class="s3" d="m731.5 416.3c0 11-9 20-20 20-11.1 0-20-9-20-20 0-11 8.9-20 20-20 11 0 20 9 20 20z"/>
					</g>
					<g id="&lt;Group&gt;">
						<path id="&lt;Path&gt;" class="s3" d="m933.9 526.2h-49.8c-9.3 0-16.9-7.5-16.9-16.8v-9.8c0-9.3 7.6-16.9 16.9-16.9h49.8c9.3 0 16.8 7.6 16.8 16.9v9.8c0 9.3-7.5 16.8-16.8 16.8z"/>
						<path id="&lt;Path&gt;" class="s2" d="m883.1 504.5h49.4"/>
					</g>
					<path id="&lt;Path&gt;" class="s3" d="m1055.9 398.7h-179.8v-23.5h179.8z"/>
					<path id="&lt;Path&gt;" class="s3" d="m1055.9 439.8h-179.8v-23.5h179.8z"/>
				</g>
				<path id="&lt;Path&gt;" class="s5" d="m1086.5 160.1v398.8h13.7v-398.8z"/>
				<path id="&lt;Path&gt;" class="s6" d="m1100.2 198.8v-38.7h-660.6v38.7z"/>
				<path id="&lt;Path&gt;" class="s3" d="m917.2 172.9h-442v14.2h442z"/>
				<path id="&lt;Path&gt;" class="s3" d="m419.4 578v34.9c0 12.9 10.4 23.4 23.3 23.4h653.6c12.9 0 23.3-10.5 23.3-23.4v-34.9z"/>
			</g>
		</g>
	</g>
	<g id="Cart">
		<g id="&lt;Group&gt;">
			<path id="&lt;Path&gt;" class="s3" d="m1307.5 152.1h-111.9c-4.9 0-8.8-3.9-8.8-8.8v-56.9c0-4.9 3.9-8.8 8.8-8.8h111.9c4.9 0 8.9 3.9 8.9 8.8v56.9c0 4.9-4 8.8-8.9 8.8z"/>
			<g id="&lt;Group&gt;">
				<g id="&lt;Group&gt;">
					<path id="&lt;Path&gt;" class="s2" d="m1214.3 86.5h12.4l11.7 36.1 35.4-6.7 0.4-19.2-43.6-0.7"/>
					<path id="&lt;Path&gt;" class="s2" d="m1238.4 122.6c0 0-3 0.3-3.3 3-0.3 2.8 2.8 4.6 4 4.6 1.2 0 4.9-0.3 4.9-0.3l29.8-5.2"/>
					<path id="&lt;Path&gt;" class="s4" d="m1273.5 134.8c0-2.4-1.9-4.3-4.2-4.3-2.4 0-4.3 1.9-4.3 4.3 0 2.3 1.9 4.2 4.3 4.2 2.3 0 4.2-1.9 4.2-4.2z"/>
					<path id="&lt;Path&gt;" class="s4" d="m1245.5 134.8c0-2.4-1.9-4.3-4.3-4.3-2.3 0-4.2 1.9-4.2 4.3 0 2.3 1.9 4.2 4.2 4.2 2.4 0 4.3-1.9 4.3-4.2z"/>
				</g>
			</g>
		</g>
	</g>
	<g id="Chat">
		<g id="&lt;Group&gt;">
			<path id="&lt;Path&gt;" class="s4" d="m790.3 162.1h-71.8c-6.6 0-12 5.4-12 12v34.3c0 6.7 5.4 12.1 12 12.1h66.6l17.2 21.7v-33.8-34.3c0-6.6-5.4-12-12-12z"/>
			<path id="&lt;Path&gt;" class="s3" d="m794.8 156.2h-71.7c-6.7 0-12.1 5.4-12.1 12.1v34.3c0 6.6 5.4 12 12.1 12h66.5l17.3 21.7v-33.7-34.3c0-6.7-5.4-12.1-12.1-12.1z"/>
			<path id="&lt;Path&gt;" class="s4" d="m696.2 202.7h47.5c4.4 0 8 3.6 8 8v22.7c0 4.4-3.6 8-8 8h-44.1l-11.4 14.3v-22.3-22.7c0-4.4 3.6-8 8-8z"/>
			<path id="&lt;Path&gt;" class="s3" d="m699.9 198.3h47.5c4.4 0 8 3.6 8 8v22.7c0 4.4-3.6 8-8 8h-44.1l-11.3 14.3v-22.3-22.7c0-4.4 3.5-8 7.9-8z"/>
			<path id="&lt;Path&gt;" class="s2" d="m728.1 172.7h60.9"/>
			<path id="&lt;Path&gt;" class="s2" d="m728.1 185.5h60.9"/>
			<path id="&lt;Path&gt;" class="s2" d="m728.1 198.3h60.9"/>
			<path id="&lt;Path&gt;" class="s2" d="m701.8 213.3h45.7"/>
			<path id="&lt;Path&gt;" class="s2" d="m701.8 223.9h45.7"/>
		</g>
	</g>
	<g id="Clicks">
		<g id="&lt;Group&gt;">
			<g id="&lt;Group&gt;">
				<path id="&lt;Path&gt;" class="s4" d="m961.6 321.7l-12.8-6.7c-2.8-1.5-6.3-0.4-7.8 2.5-1.3 2.5-0.5 5.7 1.9 7.3l26.1 17.8c0 0 14 5.8 27.9-1q0.5-0.2 1-0.5c8.4-4.4 11.9-14.6 8.6-23.5l-6.8-17.8c-1.8-4.8-6.9-7.3-11.8-5.8q-0.1 0.1-0.2 0.1c0 0-5.7-3.7-11.7-0.7 0 0-6-3.3-11.2 1l-8.8-21.5c-1.5-3.5-5.5-5.1-8.9-3.6-3.3 1.5-4.9 5.3-3.5 8.7z"/>
				<path id="&lt;Path&gt;" class="s3" d="m963.1 316l-12.8-6.7c-2.8-1.5-6.3-0.4-7.8 2.5-1.3 2.6-0.5 5.7 1.9 7.4l26.2 17.7c0 0 13.9 5.8 27.8-1q0.6-0.2 1.1-0.5c8.3-4.4 11.9-14.6 8.5-23.5l-6.7-17.8c-1.8-4.8-7-7.3-11.8-5.8q-0.1 0.1-0.3 0.1c0 0-5.7-3.7-11.7-0.7 0 0-5.9-3.3-11.2 1l-8.8-21.5c-1.4-3.5-5.5-5.1-8.9-3.6-3.3 1.5-4.8 5.3-3.4 8.7z"/>
				<path id="&lt;Path&gt;" class="s2" d="m989.2 288.4l4.9 10.7"/>
				<path id="&lt;Path&gt;" class="s2" d="m977.3 288.4l5.9 13.4"/>
				<path id="&lt;Path&gt;" class="s2" d="m966.5 289.1l7.2 16.1"/>
			</g>
			<path id="&lt;Path&gt;" class="s2" d="m920.7 259.1l16.3 6.1"/>
			<path id="&lt;Path&gt;" class="s2" d="m941 242.2l5.4 12.2"/>
			<path id="&lt;Path&gt;" class="s2" d="m957.2 255.7l7.5-12.1"/>
			<path id="&lt;Path&gt;" class="s2" d="m927.5 280.7l10.8-5.4"/>
			<path id="&lt;Path&gt;" class="s2" d="m965.4 264.5l10.8-5.4"/>
		</g>
		<g id="&lt;Group&gt;">
			<g id="&lt;Group&gt;">
				<path id="&lt;Path&gt;" class="s4" d="m746 556.2l12.7-6.8c2.9-1.5 6.4-0.4 7.8 2.5 1.4 2.6 0.5 5.7-1.9 7.4l-26.1 17.8c0 0-13.9 5.7-27.9-1q-0.5-0.3-1-0.5c-8.4-4.5-11.9-14.7-8.6-23.6l6.8-17.8c1.8-4.7 7-7.3 11.8-5.7q0.1 0 0.2 0.1c0 0 5.8-3.8 11.7-0.8 0 0 6-3.2 11.2 1l8.8-21.5c1.5-3.5 5.5-5.1 9-3.5 3.3 1.4 4.8 5.3 3.4 8.6z"/>
				<path id="&lt;Path&gt;" class="s3" d="m744.4 550.5l12.8-6.7c2.8-1.5 6.3-0.4 7.8 2.4 1.3 2.6 0.5 5.8-1.9 7.4l-26.2 17.8c0 0-13.9 5.7-27.8-1q-0.5-0.3-1-0.5c-8.4-4.5-12-14.7-8.6-23.6l6.7-17.8c1.8-4.7 7-7.3 11.8-5.7q0.2 0 0.3 0.1c0 0 5.7-3.8 11.7-0.8 0 0 6-3.2 11.2 1l8.8-21.5c1.4-3.5 5.5-5.1 8.9-3.5 3.3 1.5 4.8 5.3 3.5 8.6z"/>
				<path id="&lt;Path&gt;" class="s2" d="m718.3 522.9l-4.9 10.6"/>
				<path id="&lt;Path&gt;" class="s2" d="m730.2 522.9l-5.9 13.3"/>
				<path id="&lt;Path&gt;" class="s2" d="m741 523.6l-7.2 16"/>
			</g>
			<path id="&lt;Path&gt;" class="s2" d="m786.8 493.5l-16.2 6.1"/>
			<path id="&lt;Path&gt;" class="s2" d="m766.5 476.6l-5.4 12.2"/>
			<path id="&lt;Path&gt;" class="s2" d="m750.3 490.2l-7.5-12.2"/>
			<path id="&lt;Path&gt;" class="s2" d="m780 515.2l-10.8-5.4"/>
			<path id="&lt;Path&gt;" class="s2" d="m742.2 499l-10.9-5.5"/>
		</g>
		<g id="&lt;Group&gt;">
			<g id="&lt;Group&gt;">
				<path id="&lt;Path&gt;" class="s4" d="m505.9 281.1l12.8-6.8c2.8-1.5 6.3-0.3 7.8 2.5 1.3 2.6 0.5 5.8-1.9 7.4l-26.1 17.8c0 0-14 5.7-27.9-1q-0.5-0.3-1-0.5c-8.4-4.5-11.9-14.7-8.6-23.6l6.8-17.8c1.7-4.7 6.9-7.3 11.8-5.7q0.1 0 0.2 0.1c0 0 5.7-3.8 11.7-0.8 0 0 6-3.2 11.2 1l8.8-21.5c1.5-3.5 5.5-5.1 8.9-3.5 3.3 1.4 4.9 5.3 3.5 8.6z"/>
				<path id="&lt;Path&gt;" class="s3" d="m504.4 275.4l12.7-6.7c2.9-1.5 6.4-0.4 7.9 2.4 1.3 2.6 0.5 5.8-1.9 7.4l-26.2 17.8c0 0-13.9 5.7-27.8-1q-0.6-0.3-1.1-0.5c-8.3-4.5-11.9-14.7-8.5-23.6l6.7-17.8c1.8-4.7 7-7.3 11.8-5.7q0.1 0 0.3 0.1c0 0 5.7-3.8 11.7-0.8 0 0 5.9-3.2 11.2 1l8.8-21.5c1.4-3.4 5.4-5.1 8.9-3.5 3.3 1.5 4.8 5.3 3.4 8.6z"/>
				<path id="&lt;Path&gt;" class="s2" d="m478.3 247.8l-4.9 10.6"/>
				<path id="&lt;Path&gt;" class="s2" d="m490.1 247.8l-5.8 13.4"/>
				<path id="&lt;Path&gt;" class="s2" d="m501 248.5l-7.2 16"/>
			</g>
			<path id="&lt;Path&gt;" class="s2" d="m546.7 218.4l-16.2 6.1"/>
			<path id="&lt;Path&gt;" class="s2" d="m526.5 201.6l-5.4 12.1"/>
			<path id="&lt;Path&gt;" class="s2" d="m510.2 215.1l-7.4-12.2"/>
			<path id="&lt;Path&gt;" class="s2" d="m540 240.1l-10.8-5.4"/>
			<path id="&lt;Path&gt;" class="s2" d="m502.1 223.9l-10.8-5.5"/>
		</g>
	</g>
	<g id="Clocks">
		<g id="&lt;Group&gt;">
			<g id="&lt;Group&gt;">
				<g id="&lt;Group&gt;">
					<path id="&lt;Path&gt;" class="s2" d="m249.9 178.2q2 0.3 4 0.4"/>
					<path id="&lt;Path&gt;" class="s7" d="m261.9 178.5c26.1-2.5 46.6-24.5 46.6-51.3 0-11.3-3.7-21.8-9.9-30.3"/>
					<path id="&lt;Path&gt;" class="s2" d="m296.1 93.7q-1.3-1.5-2.7-2.9"/>
				</g>
			</g>
			<g id="&lt;Group&gt;">
				<g id="&lt;Group&gt;">
					<path id="&lt;Path&gt;" class="s8" d="m284.7 83.8c-8-5.1-17.5-8.1-27.7-8.1-28.4 0-51.5 23.1-51.5 51.5 0 26 19.3 47.5 44.4 51"/>
					<g id="&lt;Group&gt;">
						<path id="&lt;Path&gt;" class="s9" d="m287.5 76.4l5.9 14.4-15.4-2z"/>
					</g>
				</g>
			</g>
			<path id="&lt;Path&gt;" class="s2" d="m257 94.4v32.8h30.3"/>
		</g>
		<g id="&lt;Group&gt;">
			<g id="&lt;Group&gt;">
				<g id="&lt;Group&gt;">
					<path id="&lt;Path&gt;" class="s2" d="m1328.4 675.9q2 0.2 4 0.3"/>
					<path id="&lt;Path&gt;" class="s10" d="m1340.2 675.9c21.6-2.8 38.3-21.2 38.3-43.6 0-9.3-2.9-17.9-7.8-25"/>
					<path id="&lt;Path&gt;" class="s2" d="m1368.3 604.2q-1.3-1.5-2.7-2.9"/>
				</g>
			</g>
			<g id="&lt;Group&gt;">
				<g id="&lt;Group&gt;">
					<path id="&lt;Path&gt;" class="s8" d="m1356.7 594.4c-6.5-3.8-14.1-6-22.2-6-24.2 0-43.9 19.7-43.9 43.9 0 22.2 16.5 40.6 37.8 43.6"/>
					<g id="&lt;Group&gt;">
						<path id="&lt;Path&gt;" class="s9" d="m1359.4 587l6.2 14.3-15.5-1.8z"/>
					</g>
				</g>
			</g>
			<path id="&lt;Path&gt;" class="s2" d="m1334.5 604.3v28h25.9"/>
		</g>
	</g>
	<g id="Traffic Light">
		<g id="&lt;Group&gt;">
			<path id="&lt;Path&gt;" class="s3" d="m190.3 688.8h-45.8v-104.7h45.8z"/>
			<path id="&lt;Path&gt;" class="s3" d="m181.6 601.3c0-7.7-6.2-13.9-13.9-13.9-7.6 0-13.9 6.2-13.9 13.9 0 7.7 6.3 13.9 13.9 13.9 7.7 0 13.9-6.2 13.9-13.9z"/>
			<path id="&lt;Path&gt;" class="s3" d="m181.6 633.3c0-7.7-6.2-13.9-13.9-13.9-7.6 0-13.9 6.2-13.9 13.9 0 7.6 6.3 13.8 13.9 13.8 7.7 0 13.9-6.2 13.9-13.8z"/>
			<path id="&lt;Path&gt;" class="s6" d="m181.6 665.2c0-7.6-6.2-13.8-13.9-13.8-7.6 0-13.9 6.2-13.9 13.8 0 7.7 6.3 13.9 13.9 13.9 7.7 0 13.9-6.2 13.9-13.9z"/>
		</g>
	</g>
	<g id="Characters 4">
		<g id="&lt;Group&gt;">
			<g id="&lt;Group&gt;">
				<path id="&lt;Path&gt;" class="s6" d="m1152.2 564.9l-20.8 9.6c0 0 6.5 38.6 9 48 2.5 9.4 2.1 18.5 2.1 18.5l-11.2 47.8c0 0 19.4 7 47.8 4.7 28.3-2.3 39.9-6.8 39.9-6.8 0 0-5.8-23.9-9.1-32.2-3.3-8.2-7.1-14.9-7.2-20.3-0.3-15.7 24.7-43.6 17.1-57.4-2.3-4.2-18.3-10.8-18.3-10.8 0 0-14.2-9.8-49.3-1.1z"/>
				<path id="&lt;Path&gt;" class="s4" d="m1131.6 686.1c-1.7 8.4-2.2 16.9-1.7 25.5 0.6 9.7 1.5 23.7 2.4 37.4 1.8 24.8 7.8 61.9 10.6 78.5 2.9 16.7 11.3 66.6 11.3 66.6 0 0-7 4.5-9 6.8-2 2.4-11.2 8.5-11.2 9.6 0 1 1.3 0.6 2.7 1.3 1.4 0.7 21.8 2.4 25.5 2.4 3.7 0 7.8-0.3 9.5-2.7 1.7-2.4-0.3-16.3-0.3-16.3 0 0-0.6-36.8 0.1-49 0.7-12.2 2.1-39.1 2.2-41.1 0.1-2.1 2.4-80.2 2.4-80.2l7.5-0.7c0 0 3.1 78.8 4.2 82.9 1.2 4.1 6 89.8 6 89.8 0 0 0.7 13.2 1.7 14.2 1 1.1 7.8 1.7 11.2 0.7 3.4-1 4.8-1.3 4.8-4.7 0-3.4-1.4-9.6-1.4-9.6 0 0 0-5.1 0-8.1 0-3.1 7.8-73.4 9.3-82.6 1.5-9.2 0.5-26.2 0.7-29.3 0.1-3 3-51.1 3.4-65.4 0.5-14.2-3.3-30.3-6.7-36.8-3.5-6.4-50-8.4-82.6-3.4 0 0-0.8 4.5-2.6 14.2z"/>
			</g>
			<path id="&lt;Path&gt;" class="s3" d="m1265.7 641.6c0 0.9-9.6 7.9-20 15.1-12.2 8.6-25.6 17.6-25.6 17.6-2.8 2-8.2-2-10.6-4.8-2.4-2.8-8.5-11.7-8.5-11.7 0 0 0 0-2.8 0-2.9 0-4.5 0-6.1-2.5-1.6-2.4 0.4-2.8 5.6-2.8 5.3 0 5.7-2 8.5-0.4 2.9 1.6 10.6 8.9 10.6 8.9 0 0 0.1 0.3 0.3 0.8l14.9-15.1 7.8-7.9-29.6-27.5c3.8-9.7 8.7-22.8 9.6-34.5 0 0 45.9 62.8 45.9 64.8z"/>
			<path id="&lt;Path&gt;" class="s3" d="m1191.8 534c0 0 2.3-15.4-10.5-22.9-12.8-7.6-20.5-4.9-27 4.9 0 0-2.9 4.9-4.5 6.7-1.6 1.9-6 0.4-5.8 3.8 0.2 3.4 3.8 6.4 3.8 6.4 0 0-0.6 18.8 3.4 20 4.1 1.1 12.1 0 12.1 0l-0.5 9.8q-3.8 0.6-8 1.6l0.5 0.1c0 0 13.8 4 23.5 3.2 5.8-0.5 10.2-3 12.9-5.1q-2.9-0.6-6.7-0.9l0.4-0.1c0 0-1.1-6.4 0.2-11.3 1.4-4.9 6.2-16.2 6.2-16.2z"/>
			<path id="&lt;Path&gt;" class="s4" d="m1170.1 495.3c0 0-8.8-11.3-18.3-10.6-9.5 0.8-16.9 20.3-11.9 25.6 5 5.3 14.4 5.7 14.4 5.7 0 0 5.8 18 10.5 22.9 4.6 4.9 8.3 13.6 16.7 11 8.4-2.7 21.3-18.5 21.4-34.7 0.1-16.2-4.4-30.5-32.8-19.9z"/>
			<path id="&lt;Path&gt;" class="s4" d="m1201.4 507.7c0 0 12.5-21.5 28.1-17.7 15.6 3.7 18.6 18.4 14.5 24.5-4.1 6-10.7 9.4-10.7 9.4 0 0 11.7 14.3 5.6 22.9-6.1 8.7-15.9 8.3-15.9 8.3l7.8 3c0 0-3.1 7.9-14 1.9-11-6-14.2-16.5-11.7-29.7 2.6-13.2-3.7-22.6-3.7-22.6z"/>
			<path id="&lt;Path&gt;" class="s6" d="m1134.7 573l-3.3 1.5c0 0-4.1 15.5-4.1 23 0 7.6-5 55.2-4.5 59.2 0.5 3.6 4.7 51 5.4 59.7-0.6 3.6-2.1 13.8-1.9 15.5 0.3 2.1 6 17.1 6 17.1 0 0 6 1.2 7.2 0.9 1.2-0.3 3.6-0.6 3-2.7-0.6-2.1-1.2-3-1.8-4.2-0.6-1.2 1.2-7.5 0.9-12.3-0.3-4.8-2.4-14.1-2.4-14.1l-0.3-9.2-0.5 0.3 6-52.5c0 0 5-36.1 5.5-42.6 0.3-4.8-0.1-10.9-0.4-13.8"/>
			<path id="&lt;Path&gt;" class="s3" d="m1139.5 658.6c-7.7 0.4-13.2-1.5-16.7-3.3q0 1 0 1.4c0.5 3.6 4.7 51 5.4 59.7-0.6 3.6-2.1 13.8-1.9 15.5 0.3 2.1 6 17.1 6 17.1 0 0 6 1.2 7.2 0.9 1.2-0.3 3.6-0.6 3-2.7-0.6-2.1-1.2-3-1.8-4.2-0.6-1.2 1.2-7.5 0.9-12.3-0.3-4.8-2.4-14.1-2.4-14.1l-0.3-9.2-0.5 0.3 5.6-49.3q-2.1 0.1-4.5 0.2z"/>
			<path id="&lt;Path&gt;" class="s6" d="m1265.7 641.6c0 0.9-9.6 7.9-20 15.1-8.6-2.8-12.3-6.8-13.7-10l7.8-7.9-29.6-27.5c3.8-9.7 8.7-22.8 9.6-34.5 0 0 45.9 62.8 45.9 64.8z"/>
		</g>
	</g>
	<g id="Characters 3">
		<g id="&lt;Group&gt;">
			<g id="&lt;Group&gt;">
				<path id="&lt;Path&gt;" class="s3" d="m987.7 497.6c0 0-1.5 3.2-3.7 5.8-2.3 2.7-5.2 2.9-4.3 4.5 1 1.6 5.3 4.8 5.3 4.8 0 0-1.8 14.6 0.2 15.6 2.1 1.1 11.9 4.8 11.9 4.8l-0.1 11.1 27.8-2.9 1.6-12.9c0 0 6.9-9 7.6-14.1 0.8-5 6.1-10.6-1.8-20.1-7.9-9.6-31.9-18.3-44.5 3.4z"/>
				<path id="&lt;Path&gt;" class="s4" d="m999.3 511.7c0 0-2.6 9.2 1 14.8 3.7 5.6 9.8 9.3 15.4 8.2 5.6-1 12.5-6.1 15.6-14.3 3.1-8.2 3.6-13 3.6-13 0 0-16 8-35.6 4.3z"/>
				<path id="&lt;Path&gt;" class="s3" d="m992.1 503.4c0 0-13.9-10-17.4-13.5-3.5-3.4 2.1-16.3 19.4-12.5 6.2 1.3 8.6 6.2 8.6 6.2z"/>
				<path id="&lt;Path&gt;" class="s3" d="m1001.7 477.4c0 0-9.2 9.2-10.6 16.5-1.4 7.3 5.1 22.4 17.4 27.2 12.3 4.9 22.9-1.9 25.5-6.8 2.7-4.8 9.4-10.7 8-21.4-1.3-10.7-23.1-27.7-40.3-15.5z"/>
			</g>
			<g id="&lt;Group&gt;">
				<path id="&lt;Path&gt;" class="s4" d="m911.8 593.5l14 34.5 17.5-6.9-14.6-33.8z"/>
				<path id="&lt;Path&gt;" class="s3" d="m943.2 629.3c0 0-3.3-7.9-3.2-8.8 0-1-1.2-7.5-1.4-8.8-0.3-1.3-6.2-1.6-8.3-3.4-2-1.9-4 0-4.2 2.8-0.1 2.8 4.2 4.4 5.7 4.7 1.5 0.3-0.2 2.8-0.2 2.8l-6.9 2.2c0 0-4.1-6-4.6-7.5-0.5-1.6-0.9-0.4-2 2.2-1.1 2.5-4.1 5.6-2.9 7.2 1.2 1.5 2.9 4 2.9 4 0 0 0.2 6.9 2 8.8 1.8 1.9 8.2 3.4 9.8 3.8 1.5 0.3 6.6 1.9 6.6 1.9z"/>
			</g>
			<g id="&lt;Group&gt;">
				<g id="&lt;Group&gt;">
					<path id="&lt;Path&gt;" class="s3" d="m969.5 883.2l-6.7 7.8c0 0-8 9.1-11.4 9.7-3.5 0.6-6 1.2-6.8 3.4-0.7 2.2-1.1 4.4 0.4 5.3 1.5 1 13 1 19.5 1.9 6.5 1 27 1 30.2-0.6 3.2-1.6 0.6-20.6 0.6-20.6z"/>
					<path id="&lt;Path&gt;" class="s3" d="m945 909.4c1.5 1 13 1 19.5 1.9 6.5 1 27 1 30.2-0.6 0.8-0.4 1.3-1.9 1.7-3.9-3.5 0.4-25.3 0.6-34-0.5-16.7-2.2-17.8-2.2-17.8-2.2-0.7 2.2-1.1 4.4 0.4 5.3z"/>
				</g>
				<g id="&lt;Group&gt;">
					<path id="&lt;Path&gt;" class="s3" d="m1035.3 887.8c0 0-0.6 21.7 0 22.6 0.6 0.9 10 5 16 3.4 6-1.5 17.7-1.8 18.4-3.3 0.7-1.6 2.4-9.4-1.2-12.3-3.6-2.8-8.3-9.1-8.3-9.1z"/>
					<path id="&lt;Path&gt;" class="s3" d="m1069.7 910.5c0.3-0.7 0.7-2.3 0.9-4.2-5.7 3.5-12.4 3.3-19.4 3.8-7.6 0.5-12.9-1.1-16.1-2.6 0 1.6 0.1 2.7 0.2 2.9 0.6 0.9 10 5 16 3.4 6-1.5 17.7-1.8 18.4-3.3z"/>
				</g>
				<path id="&lt;Path&gt;" class="s3" d="m967.9 666.8c0 0-11.7 31.3-10.7 40.7 1.1 9.4 4.6 23.8 5.2 25.1 0.5 1.2-1.1 62.9 3.4 84.5 4.4 21.6 4.1 57.9 4.1 57.9 0 0-3.3 4.1-2.5 6.3 0.8 2.2 1.2 6.6 1.2 6.6 0 0 6.8 6.2 12.7 7.2 5.9 0.9 8.4 0.3 10-1.3 1.7-1.6 3.6-2.8 4-3.7 0.4-1 0.8-8.5 1.1-13.5 0.2-5-1-11-1-11l9.8-91.4 4-49.1 16.3 114.2c0 0 9.1 50.7 9 51.7 0 0.9 1.1 2.2 3.6 3.1 2.4 1 8.4 0.3 10.6-0.3 2.2-0.6 10.7-1.9 11.5-4.7 0.8-2.8 4.3-11.2 3-14.7-1.4-3.4-7.7-8.4-6.8-12.8 0.9-4.4 4.1-12.2 3.1-22.9-0.9-10.6-4.8-134.3-4.8-134.3l-8.6-36.6z"/>
				<path id="&lt;Path&gt;" class="s2" d="m965.6 797.8c0 0 7.9 5.9 11.3 7.2 3.4 1.3 13.5 2.5 13.5 2.5l-2.1 8.8c0 0 1.6 1.3-7.2-0.4-8.8-1.7-14.3-6.3-14.3-6.3"/>
				<path id="&lt;Path&gt;" class="s2" d="m977.4 846.6c-1.9-0.2-3.8-0.9-5.5-2.1"/>
				<path id="&lt;Path&gt;" class="s2" d="m986.6 820.1c0 0 0.4 15.2 0.8 20.6 0.2 2.1-1 3.8-2.8 4.8"/>
				<path id="&lt;Path&gt;" class="s3" d="m1058.1 798.3l-6.8 5 0.4 6.3c0 0 5.1-2.9 5.9-4.6 0.9-1.7 2.1-3.4 0.5-6.7z"/>
				<path id="&lt;Path&gt;" class="s3" d="m1057.6 805c0 0 4.7 21 3.8 25.2-0.8 4.2-5.9 8-5.9 8l-2.9-18.9"/>
				<path id="&lt;Path&gt;" class="s2" d="m1020 721.3l4.1-0.6"/>
				<path id="&lt;Path&gt;" class="s2" d="m997.7 724.4l18.3-2.6"/>
			</g>
			<path id="&lt;Path&gt;" class="s6" d="m978.7 559.9c0 0-16.7 6.8-16.8 8.7-0.1 1.9-8.7 66-8.7 66l-10-5.3c0 0-3.1-1.1-5.2 3.1-2.1 4.3-2 8-1.5 8.8 0.4 0.8 0.9 6.1 6.7 11.4 5.8 5.3 17.3 11.6 17.3 11.6l5.8 0.3c0 0-3.6 2.4-0.3 5.3 3.3 2.9 15.1 8 39.4 7.7 24.3-0.2 39.5-4.5 41-6.9 1.4-2.3 2.1-4.5 2.1-5.3 0.1-0.8 1.3-12.4 1.3-12.4 0 0 17.9-4.5 21.4-10.1 3.4-5.5 5-5.5 3.5-11.4-1.5-5.8-19.8-61.4-21.5-64.6-1.6-3.2-9.2-8.8-12.3-9.8-3.2-1.1-56.1 1.5-56.1 1.5z"/>
			<g id="&lt;Group&gt;">
				<path id="&lt;Path&gt;" class="s6" d="m1035 538.7c0 0-22.6-1.9-34.8 0.2-12.3 2.2-15 9-16.2 11.2-1.2 2.1-7.1 8.4-5.3 9.8 1.8 1.3 13.9 6.1 14.7 6.9 0.7 0.8 19.3 25.9 30.9 23 11.5-2.9 18.5-34.9 18.5-34.9 0 0-1.9-13.3-7.8-16.2z"/>
				<path id="&lt;Path&gt;" class="s2" d="m1014.2 573.5c2.6 1.5 5.5 2.4 8.7 2"/>
				<path id="&lt;Path&gt;" class="s2" d="m985.5 551.9c0 0 9-1.6 13.7 4.5 2.5 3.3 5.9 9.1 10.2 13.4"/>
			</g>
			<g id="&lt;Group&gt;">
				<path id="&lt;Path&gt;" class="s11" d="m1014.4 581.6c0 0-16 65.2-15 70.2 1.1 5 2.9 15.4 12.7 19.1 9.8 3.7 21.8 0.8 34.3-0.3 12.5-1 19.9-11.3 21.1-18.5 1.2-7.2 2.3-18.8 1.9-21.2-0.4-2.4-9-50.6-12.8-54.3-3.7-3.7-31.6 0.5-42.2 5z"/>
				<path id="&lt;Path&gt;" class="s4" d="m1036.8 576.8l6-21.9c0 0 2.3 1.8 5.4 3.4 3 1.6 3 1.6 3 1.6l-2.4 15.1z"/>
				<path id="&lt;Path&gt;" class="s2" d="m1016.7 584c0 0-0.7 21.7-2.6 32.3-1.9 10.6 2.8 15.6 12 17 9.1 1.3 37.4-5.3 39.2-8.8 1.8-3.4-3-31-4.7-37.8-1.8-6.9-0.8-10.4-4-10.1-3.1 0.2-4.7 0.5-4.7 0.5"/>
				<path id="&lt;Path&gt;" class="s2" d="m1014.3 664.9c1.5 2.6 3.9 4.5 7.1 5.5"/>
				<path id="&lt;Path&gt;" class="s2" d="m1014.1 629.8c0 0-2.6 23.3-1.9 28.9"/>
				<path id="&lt;Path&gt;" class="s2" d="m1013.7 642c0 0 3.6 1.9 19 0.5 15.3-1.3 34-8.9 34.9-7.4 1 1.6 0.5 5.3-0.9 6.4-1.3 1.1-1.5 3.2-18.5 5.8-17 2.7-23.9 3.5-30.4 2.1"/>
			</g>
			<path id="&lt;Path&gt;" class="s2" d="m966.3 664.5c0 0 7.5-1.8 9.1-9.3 1.7-7.5 8.8-56.9 8.8-56.9"/>
		</g>
	</g>
	<g id="Characters 2">
		<g id="&lt;Group&gt;">
			<g id="&lt;Group&gt;">
				<path id="&lt;Path&gt;" class="s3" d="m485.2 592.9c0 0-11.9 42.9-13.2 47.1-1.3 4.2-1.6 13.5 2.9 16.1 4.5 2.6 8.4 1.6 11.3-0.6 2.9-2.3 8.1-7.8 8.1-7.8l-2.6-48.3z"/>
				<path id="&lt;Path&gt;" class="s3" d="m491.7 632.6l-7.8 19"/>
			</g>
			<path id="&lt;Path&gt;" class="s3" d="m503.9 580.4l-18.7 12.5 7.4 63.2h65.5l4.5-67.7-20.7-7.7z"/>
			<path id="&lt;Path&gt;" class="s3" d="m548.1 513.7c0 0 1.9 3.5 2.9 7.7 0.9 4.2 0.3 9 2.2 11.6 2 2.6 4.9 2.9 3.2 4.9-1.6 1.9-3.5 4.8-3.5 4.8 0 0-1.6 7.1-3.2 11.3-1.6 4.2-4.2 6.7-7.1 6.7-2.9 0-5.2 0-5.2 0l0.7 12.6-30.3 0.6 0.3-17.4c0 0 15.8-10.3 22.2-25.4 6.5-15.2 5.5-18.1 8.7-19.7 3.3-1.6 9.1 2.3 9.1 2.3z"/>
			<path id="&lt;Path&gt;" class="s4" d="m497.2 506.3c0 0-6.2 6.1-13.3 16.1-7 10-3.8 30.3 15.8 38.3 19.7 8.1 33.2-2.9 34.5-8 1.3-5.2 1.6-10 1.6-10 0 0 9.7-0.3 11.3-9 1.6-8.7-1.3-16.5-1.3-16.5 0 0 9.4-5.4 3.6-16.1-5.8-10.6-42.3-21.2-52.2 5.2z"/>
			<path id="&lt;Path&gt;" class="s6" d="m540.3 567.5l-37.7 1.3-0.9 11.6 40.2 0.3z"/>
			<path id="&lt;Path&gt;" class="s6" d="m503.9 580.4l-3.5 57 15.1 2.6-1.9-59.3z"/>
			<path id="&lt;Path&gt;" class="s3" d="m489.7 788.9l1.7 106.3h12.2l17.4-106.3z"/>
			<path id="&lt;Path&gt;" class="s3" d="m527.8 789.2l5.4 105h14.2c0 0 10.7-65.7 11.3-77.6 0.6-12 1-26.8 1-26.8z"/>
			<path id="&lt;Path&gt;" class="s3" d="m547.4 894.2l7.1 11c0 0 11.9 7.1 10.6 8-1.2 1-3.2 1-3.2 1h-30.6l1.9-20z"/>
			<path id="&lt;Path&gt;" class="s3" d="m503.6 895.2v18.7h-16.8c0 0 0.4-5.5 1.3-9.4 1-3.8 3.3-9.3 3.3-9.3z"/>
			<path id="&lt;Path&gt;" class="s4" d="m492.6 656.1c0 0-14.1 24.2-16.7 47-2.6 22.9 9.7 90.6 9.7 90.6h79.2c0 0 14.5-49.6 9.7-85.7-4.8-36.1-16.4-51.9-16.4-51.9z"/>
			<path id="&lt;Path&gt;" class="s3" d="m566.1 614.2c0 0 1.9-3.2 3.9-2.9 1.9 0.3 1.3 2.6 1.3 3.6 0 0.9 0 0.9 0 0.9 0 0 4.8 6.8 3.8 11.3-0.9 4.5-7.4 8.1-7.4 8.1z"/>
			<path id="&lt;Path&gt;" class="s2" d="m572.2 659l2.6 22.9"/>
			<path id="&lt;Path&gt;" class="s3" d="m562.6 588.4c0 0 8.7 59.3 9.6 64.5 1 5.1-0.9 19-6.4 19.6-5.5 0.7-6.5-4.2-10-10.9-3.5-6.8-8.1-45.1-8.1-45.1"/>
			<path id="&lt;Path&gt;" class="s2" d="m548.1 583.3c0 0-4.9 2.9-5.8 26.1-1 23.2 4.8 75.4 4.8 75.4"/>
			<g id="&lt;Group&gt;">
				<path id="&lt;Path&gt;" class="s6" d="m582.9 680.9l-42.2 2.6c0 0-3.9 44.1-0.7 47 3.2 2.9 14.2 3.6 14.2 3.6 0 0 34.8 0.6 38-9.4 3.2-10-9.3-43.8-9.3-43.8z"/>
				<path id="&lt;Path&gt;" class="s2" d="m548.4 689.3c0 0-1.9 39 1.9 41.9"/>
			</g>
		</g>
	</g>
	<g id="Character 1">
		<g id="&lt;Group&gt;">
			<g id="&lt;Group&gt;">
				<path id="&lt;Path&gt;" class="s3" d="m371.2 490.1c0 0-3-7.2-11.3-7.7-8.2-0.6-30.5-0.6-36.3 16.5-5.8 17-0.5 28 3.9 34.6 4.4 6.6 7.4 10.2 7.4 10.2l1.4 7.9 33.5-0.5 0.3-4.7c0 0 4.9 0.6 7.1-3 2.2-3.6 2.2-20.3 2.2-20.3 0 0 3.9-1.1 4.1-3.6 0.3-2.5-4.3-5-5.4-11.8-1.1-6.9-0.6-10.8-6.9-17.6z"/>
				<path id="&lt;Path&gt;" class="s4" d="m365.1 487.3c3.9 1.4 6.1 2.8 6.1 2.8 0 0-3-7.2-11.3-7.7-8.2-0.6-30.5-0.6-36.3 16.5-5.8 17-0.5 28 3.9 34.6 4.4 6.6 7.4 10.2 7.4 10.2 2.6 0 7.3-0.1 12.4-0.9 7.7-1.1 14.5-12.1 14.5-12.1 0 0-4.9-3.8-6.6-6.8-1.6-3-1.1-9.1 2-10.7 3-1.7 4.6 5.2 6 4.6 1.4-0.5-0.5-5.2-1.4-8.2-0.8-3 3.1-3.9 4.7-7.2 1.7-3.3-11.3-9-12.6-10.4-1.4-1.4 7.4-6.1 11.2-4.7z"/>
				<path id="&lt;Path&gt;" class="s3" d="m377 505.5c0 0-2.5-2.5-4.7 1.6"/>
				<path id="&lt;Path&gt;" class="s3" d="m376.1 509.9c0 0 0.3 3 0.6 4.6"/>
			</g>
			<path id="&lt;Path&gt;" class="s6" d="m376.4 558c0 0-5.2-9.1-9.1-10.2-3.8-1.1-34.6-0.3-38.7 3-4.2 3.3-5 9.4-5 9.4 0 0 14.9-5 31.4-4.2 16.5 0.9 21.4 2 21.4 2z"/>
			<g id="&lt;Group&gt;">
				<path id="&lt;Path&gt;" class="s3" d="m296.9 715.4l5 6.8c0 0 0 14.7-0.3 16.5-0.4 1.8 5.4 3.3 4.3 4.7-1.1 1.4-8.7 5.4-11.2 6.5-2.5 1.1-6.4-8.3-7.9-11.5-1.4-3.3-2.1-22-2.1-22z"/>
				<path id="&lt;Path&gt;" class="s2" d="m296.5 723.6c0 0-0.7 8.7-1.1 9.7-0.3 1.1-1.8 4.7-1.8 4.7l3.6 5.4"/>
			</g>
			<path id="&lt;Path&gt;" class="s6" d="m292.6 575.8c0 0-11.5 71.2-11.5 92.1 0 20.8 3.6 48.5 3.6 48.5l12.2-1 8.3-43.6z"/>
			<path id="&lt;Path&gt;" class="s6" d="m323.6 560.2c0 0-30.5 14.3-31 15.6-0.6 1.4 12.6 111.6 12.6 111.6l96.5-2.2-5.2-66.8c0 0 35.4 9.9 37.6 8 2.2-1.9 18.2-70.6 18.2-70.6l-12.1-3.1-19.3 36.3c0 0-20.9-26.1-23.1-26.6-2.2-0.6-23.3-5-23.3-5 0 0-36.6-6.6-50.9 2.8z"/>
			<path id="&lt;Path&gt;" class="s2" d="m420.9 589l11 11.6"/>
			<path id="&lt;Path&gt;" class="s3" d="m440.2 552.7c0 0 7.7-16.7 8.2-17.8 0.6-1.1 10.5-12.9 11.6-10.2 1.1 2.8-6.4 12.1-6.4 12.1 0 0 10.2 2.5 10.8 4.9 0.5 2.5-0.9 6.9-2.2 8.3-1.4 1.4-3.1-0.3-3.1-0.3 0 0-0.5 5-6.8 6.1z"/>
			<path id="&lt;Path&gt;" class="s2" d="m396.5 618.4l-13.3-3.7"/>
			<path id="&lt;Path&gt;" class="s4" d="m305.2 687.4l-5.8 47.7-10.8 156.1h16.9l41.4-163.6 6.1 0.7 17.2 158.6h18.7l14.1-177.3-1.3-24.4z"/>
			<path id="&lt;Path&gt;" class="s3" d="m388.9 886.9l24.1 20.8v3.3h-46.7l3.9-24.1z"/>
			<path id="&lt;Path&gt;" class="s3" d="m307 887.6h-18.4l-5.7 26.6h21.9z"/>
		</g>
	</g>
</svg>