<svg version="1.2" xmlns="http://www.w3.org/2000/svg" viewBox="0 0 1000 1000" width="1000" height="1000">
	<title>5150686-ai</title>
	<style>
		.s0 { fill: #e0e0e0 } 
		.s1 { fill: #fafafa } 
		.s2 { fill: #ffffff } 
		.s3 { fill: #f0f0f0 } 
		.s4 { fill: #ba68c8 } 
		.s5 { opacity: .2;fill: #ffffff } 
		.s6 { opacity: .1;fill: #000000 } 
		.s7 { opacity: .7;fill: #ffffff } 
		.s8 { opacity: .5;fill: #ffffff } 
		.s9 { opacity: .2;fill: #000000 } 
		.s10 { fill: #263238 } 
		.s11 { fill: #455a64 } 
		.s12 { fill: #37474f } 
		.s13 { opacity: .3;fill: #000000 } 
		.s14 { opacity: .8;fill: #ffffff } 
		.s15 { opacity: .2;fill: #ba68c8 } 
		.s16 { fill: #ffa8a7 } 
		.s17 { fill: #ebebeb } 
		.s18 { fill: #000000 } 
		.s19 { fill: #b16668 } 
		.s20 { fill: #f28f8f } 
		.s21 { opacity: .6;fill: #000000 } 
		.s22 { fill: #f5f5f5 } 
		.s23 { opacity: .5;fill: #000000 } 
		.s24 { opacity: .4;fill: #000000 } 
		.s25 { opacity: .1;fill: #ffffff } 
		.s26 { opacity: .3;fill: #ffffff } 
	</style>
	<g id="Shadow">
		<path id="Shadow 4 " class="s0" d="m423.1 980.8l-326.1-188.2 522.7-301.6 326.1 188.2z"/>
	</g>
	<g id="Pictures">
		<g id="Picture 3 ">
			<g id="Frame 5 ">
				<path id="&lt;Path&gt;" class="s1" d="m89.9 240.7l5.7 3.4 116.9-67.5-5.7-3.4z"/>
				<path id="&lt;Path&gt;" class="s2" d="m206.8 173.2l-111.2 64.2v-116.5l111.2-64.1z"/>
				<path id="&lt;Compound Path&gt;" fill-rule="evenodd" class="s3" d="m223.2 182.8l-138.4 79.9v-148l138.4-79.9zm-10.7-129.3l-116.9 67.5v123.1l116.9-67.5z"/>
				<path id="&lt;Path&gt;" class="s0" d="m212.5 176.6l-5.7-3.4v-116.4l5.7-3.3z"/>
				<path id="&lt;Path&gt;" class="s1" d="m223.2 34.8l-5.8-3.3-138.4 79.9 5.8 3.3z"/>
				<path id="&lt;Path&gt;" class="s0" d="m79 111.4l5.8 3.3v148l-5.8-3.3z"/>
			</g>
			<g id="&lt;Group&gt;">
				<g id="&lt;Group&gt;">
					<path id="&lt;Compound Path&gt;" fill-rule="evenodd" class="s3" d="m152.7 127.7l-5.7-9.8 5.5-15.9h0.1l11.1-6.5 0.2 0.3 5.5 9.5-5.5 15.9-0.1 0.1zm-4.9-9.9l5.1 9 10.5-6 5.3-15.4-5.2-9-10.4 6.1z"/>
					<path id="&lt;Compound Path&gt;" fill-rule="evenodd" class="s3" d="m168.9 130.9l-0.2-0.3-5.5-9.5 5.6-15.9 0.1-0.1 11.1-6.4 5.7 9.8-5.6 15.9h-0.1zm-4.9-9.8l5.2 8.9 10.4-6 5.3-15.4-5.1-8.9-10.5 6z"/>
					<path id="&lt;Compound Path&gt;" fill-rule="evenodd" class="s3" d="m152.7 152.8l-5.7-9.8 5.5-16h0.1l11.1-6.4 5.7 9.8-5.5 15.9h-0.1zm-4.9-9.8l5.1 8.9 10.5-6 5.3-15.4-5.2-8.9-10.4 6z"/>
					<path id="&lt;Compound Path&gt;" fill-rule="evenodd" class="s3" d="m136.4 174.6l-5.7-9.8 5.6-15.9h0.1l11.1-6.5 5.7 9.9-5.6 15.9h-0.1zm-4.9-9.9l5.2 9 10.4-6 5.3-15.4-5.1-9-10.5 6.1z"/>
					<path id="&lt;Compound Path&gt;" fill-rule="evenodd" class="s3" d="m136.4 199.7l-5.7-9.8 5.6-15.9 0.1-0.1 11.1-6.4 5.7 9.8-5.6 15.9h-0.1zm-4.9-9.8l5.2 8.9 10.4-6 5.3-15.4-5.1-8.9-10.5 6z"/>
					<path id="&lt;Compound Path&gt;" fill-rule="evenodd" class="s3" d="m120.2 196.5l-0.2-0.3-5.5-9.5 5.5-15.9h0.1l11.1-6.5 5.7 9.8-5.5 16h-0.1zm-4.9-9.9l5.1 9 10.5-6 5.3-15.4-5.2-9-10.4 6.1z"/>
					<path id="&lt;Path&gt;" class="s3" d="m166.6 119.3c0 2.2-1.3 4.8-3 5.7-1.6 1-3 0-3-2.3 0-2.2 1.4-4.7 3-5.7 1.7-0.9 3 0.1 3 2.3z"/>
					<path id="&lt;Path&gt;" class="s3" d="m172 103.7c0 2.2-1.3 4.7-3 5.7-1.6 0.9-3-0.1-3-2.3 0-2.2 1.4-4.8 3-5.7 1.7-1 3 0 3 2.3z"/>
					<path id="&lt;Path&gt;" class="s3" d="m155.8 150.6c0 2.2-1.4 4.7-3 5.7-1.7 0.9-3-0.1-3-2.3 0-2.2 1.3-4.7 3-5.7 1.6-0.9 3 0.1 3 2.3z"/>
					<path id="&lt;Path&gt;" class="s3" d="m139.5 172.5c0 2.2-1.3 4.7-3 5.7-1.6 0.9-3-0.1-3-2.3 0-2.2 1.4-4.8 3-5.7 1.7-1 3 0.1 3 2.3z"/>
					<path id="&lt;Path&gt;" class="s3" d="m134.1 163.1c0 2.2-1.3 4.7-3 5.7-1.6 0.9-3-0.1-3-2.3 0-2.2 1.4-4.7 3-5.7 1.7-0.9 3 0.1 3 2.3z"/>
					<path id="&lt;Path&gt;" class="s3" d="m154.1 101.5c0 1-0.6 2.1-1.3 2.5-0.8 0.4-1.3 0-1.3-1 0-1 0.5-2.1 1.3-2.5 0.7-0.4 1.3 0 1.3 1z"/>
					<path id="&lt;Path&gt;" class="s3" d="m164.9 95.2c0 1-0.6 2.1-1.3 2.6-0.7 0.4-1.3-0.1-1.3-1 0-1 0.6-2.1 1.3-2.6 0.7-0.4 1.3 0.1 1.3 1z"/>
					<path id="&lt;Path&gt;" class="s3" d="m148.7 117.1c0 1-0.6 2.1-1.3 2.6-0.8 0.4-1.4-0.1-1.4-1 0-1 0.6-2.2 1.4-2.6 0.7-0.4 1.3 0.1 1.3 1z"/>
					<path id="&lt;Path&gt;" class="s3" d="m154.1 126.5c0 1-0.6 2.1-1.3 2.5-0.8 0.5-1.3 0-1.3-1 0-0.9 0.5-2.1 1.3-2.5 0.7-0.4 1.3 0 1.3 1z"/>
					<path id="&lt;Path&gt;" class="s3" d="m181.2 98.4c0 0.9-0.6 2.1-1.3 2.5-0.8 0.4-1.4 0-1.4-1 0-1 0.6-2.1 1.4-2.5 0.7-0.5 1.3 0 1.3 1z"/>
					<path id="&lt;Path&gt;" class="s3" d="m186.6 107.7c0 1-0.6 2.2-1.3 2.6-0.8 0.4-1.3-0.1-1.3-1 0-1 0.5-2.1 1.3-2.6 0.7-0.4 1.3 0.1 1.3 1z"/>
					<path id="&lt;Path&gt;" class="s3" d="m181.2 123.4c0 1-0.6 2.1-1.3 2.5-0.8 0.4-1.4 0-1.4-1 0-1 0.6-2.1 1.4-2.5 0.7-0.4 1.3 0 1.3 1z"/>
					<path id="&lt;Path&gt;" class="s3" d="m170.4 129.6c0 1-0.6 2.1-1.4 2.6-0.7 0.4-1.3-0.1-1.3-1 0-1 0.6-2.1 1.3-2.6 0.8-0.4 1.4 0.1 1.4 1z"/>
					<path id="&lt;Path&gt;" class="s3" d="m164.9 145.3c0 1-0.6 2.1-1.3 2.5-0.7 0.4-1.3 0-1.3-1 0-1 0.6-2.1 1.3-2.5 0.7-0.4 1.3 0 1.3 1z"/>
					<path id="&lt;Path&gt;" class="s3" d="m148.7 142.2c0 0.9-0.6 2.1-1.3 2.5-0.8 0.4-1.4 0-1.4-1 0-1 0.6-2.1 1.4-2.5 0.7-0.5 1.3 0 1.3 1z"/>
					<path id="&lt;Path&gt;" class="s3" d="m137.9 148.4c0 1-0.6 2.1-1.4 2.5-0.7 0.5-1.3 0-1.3-1 0-0.9 0.6-2.1 1.3-2.5 0.8-0.4 1.4 0 1.4 1z"/>
					<path id="&lt;Path&gt;" class="s3" d="m148.7 167.2c0 0.9-0.6 2.1-1.3 2.5-0.8 0.4-1.4 0-1.4-1 0-1 0.6-2.1 1.4-2.5 0.7-0.5 1.3 0 1.3 1z"/>
					<path id="&lt;Path&gt;" class="s3" d="m154.1 176.5c0 1-0.6 2.2-1.3 2.6-0.8 0.4-1.3 0-1.3-1 0-1 0.5-2.1 1.3-2.6 0.7-0.4 1.3 0.1 1.3 1z"/>
					<path id="&lt;Path&gt;" class="s3" d="m148.7 192.2c0 1-0.6 2.1-1.3 2.5-0.8 0.4-1.4 0-1.4-1 0-1 0.6-2.1 1.4-2.5 0.7-0.4 1.3 0 1.3 1z"/>
					<path id="&lt;Path&gt;" class="s3" d="m137.9 198.4c0 1-0.6 2.1-1.4 2.6-0.7 0.4-1.3-0.1-1.3-1 0-1 0.6-2.1 1.3-2.6 0.8-0.4 1.4 0.1 1.4 1z"/>
					<path id="&lt;Path&gt;" class="s3" d="m121.6 195.3c0 1-0.6 2.1-1.3 2.5-0.8 0.5-1.3 0-1.3-1 0-0.9 0.5-2.1 1.3-2.5 0.7-0.4 1.3 0 1.3 1z"/>
					<path id="&lt;Path&gt;" class="s3" d="m132.4 189.1c0 0.9-0.6 2.1-1.3 2.5-0.7 0.4-1.3 0-1.3-1 0-1 0.6-2.1 1.3-2.5 0.7-0.5 1.3 0 1.3 1z"/>
					<path id="&lt;Path&gt;" class="s3" d="m121.6 170.3c0 1-0.6 2.1-1.3 2.5-0.8 0.4-1.3 0-1.3-1 0-1 0.5-2.1 1.3-2.5 0.7-0.4 1.3 0 1.3 1z"/>
					<path id="&lt;Path&gt;" class="s3" d="m116.2 185.9c0 1-0.6 2.1-1.3 2.6-0.8 0.4-1.4-0.1-1.4-1 0-1 0.6-2.1 1.4-2.6 0.7-0.4 1.3 0.1 1.3 1z"/>
				</g>
				<g id="&lt;Group&gt;">
					<path id="&lt;Path&gt;" class="s3" d="m161.1 169.9l39.9-23.1c0.8-0.4 1.5-1.4 1.5-2 0-0.7-0.7-0.9-1.5-0.4l-39.9 23.1c-0.9 0.5-1.5 1.4-1.5 2.1 0 0.6 0.6 0.8 1.5 0.3z"/>
					<path id="&lt;Path&gt;" class="s3" d="m161.1 163.6l39.9-23.1c0.8-0.5 1.5-1.4 1.5-2.1 0-0.6-0.7-0.8-1.5-0.3l-39.9 23.1c-0.9 0.4-1.5 1.4-1.5 2 0 0.7 0.6 0.9 1.5 0.4z"/>
				</g>
				<g id="&lt;Group&gt;">
					<path id="&lt;Path&gt;" class="s3" d="m101.9 147.7l27.9-16.2c0.8-0.5 1.5-1.4 1.5-2.1 0-0.7-0.7-0.8-1.5-0.4l-27.9 16.2c-0.8 0.5-1.5 1.4-1.5 2.1 0 0.7 0.7 0.8 1.5 0.4z"/>
					<path id="&lt;Path&gt;" class="s3" d="m101.9 141.3l27.9-16.2c0.8-0.4 1.5-1.4 1.5-2 0-0.7-0.7-0.9-1.5-0.4l-27.9 16.2c-0.8 0.5-1.5 1.4-1.5 2.1 0 0.6 0.7 0.8 1.5 0.3z"/>
				</g>
				<path id="&lt;Path&gt;" class="s3" d="m182.7 144.5c-0.2 0-0.3-0.1-0.3-0.3v-8.3l-10.8-4.3c-0.2-0.1-0.3-0.3-0.2-0.5 0.1-0.1 0.3-0.2 0.5-0.2l10.9 4.5c0.2 0 0.2 0.1 0.2 0.3v8.5c0 0.2-0.1 0.3-0.3 0.3z"/>
				<path id="&lt;Path&gt;" class="s3" d="m134.1 149.1q0 0-0.1 0l-16.6-2.7c-0.2 0-0.3-0.2-0.3-0.4v-4.4c0-0.2 0.1-0.3 0.3-0.3 0.2 0 0.4 0.1 0.4 0.3v4.2l16.3 2.6c0.2 0 0.4 0.2 0.3 0.4 0 0.1-0.1 0.3-0.3 0.3z"/>
			</g>
		</g>
		<g id="Picture 6 ">
			<path id="&lt;Path&gt;" class="s0" d="m268 101.6l5.8 3.3v148l-5.8-3.4z"/>
			<g id="&lt;Group&gt;">
				<path id="&lt;Path&gt;" class="s1" d="m278.8 230.8l5.7 3.4 116.9-67.4-5.7-3.4z"/>
				<path id="&lt;Compound Path&gt;" fill-rule="evenodd" class="s3" d="m412.2 173l-138.4 79.9v-148l138.4-79.9zm-10.8-129.4l-116.9 67.5v123.2l116.9-67.5z"/>
				<path id="&lt;Path&gt;" class="s0" d="m401.4 166.8l-5.7-3.4v-116.5l5.7-3.3z"/>
				<path id="&lt;Path&gt;" class="s1" d="m412.2 25l-5.8-3.3-138.4 79.9 5.8 3.3z"/>
				<path id="&lt;Path&gt;" class="s3" d="m348.9 125.2c0 0 0 0-0.1-0.1 0 0 0.1 0.1 0 0 0 0 0.1 0 0.2 0-0.1 0-0.1 0.1-0.1 0.1z"/>
			</g>
			<g id="&lt;Group&gt;">
				<g id="&lt;Group&gt;">
					<g id="&lt;Group&gt;">
						<g id="&lt;Group&gt;">
							<path id="&lt;Path&gt;" class="s2" d="m395.7 163.4l-111.2 64.1v-116.4l111.2-64.2z"/>
						</g>
					</g>
				</g>
				<g id="&lt;Group&gt;">
					<path id="&lt;Path&gt;" class="s0" d="m379.8 138.7c5.1-2.9 9.2-0.6 9.2 5.3 0 5.9-4.1 13-9.2 15.9-5.1 2.9-9.2 0.6-9.2-5.3 0-5.9 4.1-13 9.2-15.9z"/>
					<path id="&lt;Path&gt;" class="s0" d="m305.6 114.8l69.1-39.9c1.9-1.1 3.5-0.2 3.5 2v0.2c0 2.2-1.6 4.9-3.5 6l-69.1 40c-1.9 1.1-3.5 0.2-3.5-2v-0.3c0-2.2 1.6-4.9 3.5-6z"/>
					<g id="&lt;Group&gt;">
						<path id="&lt;Path&gt;" class="s3" d="m294.7 146.2l90.9-52.5c2-1.1 3.5-0.6 3.5 1.2 0 1.7-1.5 4-3.5 5.1l-91 52.6c-1.9 1.1-3.5 0.6-3.4-1.2 0-1.7 1.6-4 3.5-5.2z"/>
						<path id="&lt;Path&gt;" class="s3" d="m294.7 158.8l90.9-52.5c2-1.1 3.5-0.6 3.5 1.1 0 1.7-1.5 4-3.5 5.2l-91 52.5c-1.9 1.1-3.5 0.6-3.4-1.1 0-1.8 1.6-4.1 3.5-5.2z"/>
						<path id="&lt;Path&gt;" class="s3" d="m294.7 171.3l90.9-52.5c2-1.1 3.5-0.6 3.5 1.2 0 1.7-1.5 4-3.5 5.1l-91 52.6c-1.9 1.1-3.5 0.6-3.4-1.2 0-1.7 1.6-4.1 3.5-5.2z"/>
					</g>
					<path id="&lt;Compound Path&gt;" fill-rule="evenodd" class="s0" d="m364.1 166.9c-1.4 0.8-3.2 1.2-4.6 0.3-0.8-0.5-1.2-1.1-1.3-1.9-1.1 2.1-2.3 4.1-3.7 5.9-1.1 1.5-2.9 3.1-4.9 2.1-0.7-0.3-1.2-0.9-1.5-1.6-1.1 1.7-2.4 3.3-3.5 4.8-0.8 1.1-2.3 2.5-3.6 1.1q-0.2-0.2-0.3-0.5c-0.6 1-1.2 2-1.8 2.9-0.7 1.1-2 3.7-3.5 4-1.5 0.3-1.8-1.5-1.9-3.1-0.9 1.3-1.7 2.6-2.6 3.9-1 1.4-2.5 3.8-4.3 4.1-1.7 0.3-2.2-1-2.1-2.7-0.1 0.1-0.2 0.3-0.3 0.4-1.1 2.3-2.3 4.2-3.8 6.2-1.9 2.5-5.9 7-9.7 6-3.6-1-3.1-6-2.2-9.8-3 1.2-6.2 1.7-9.8 0.9-0.2 0-0.1-0.5 0.1-0.4 3.7 0.5 7-0.2 10-1.7 0.2-0.9 0.4-1.6 0.6-2.2 1.1-3.6 2.8-7.2 5.4-9.9 1.3-1.3 2.8-2.5 4.4-3.4 1.1-0.6 2.9-1.6 4.2-1 2 0.8 1.5 3.3 0.7 4.7-1.4 2.6-3.8 4.7-6 6.6-2.4 2.2-5 4.2-7.9 5.6-0.5 2-0.9 4.2-0.8 6.3 0 0.8 0.1 2 0.8 2.6 0.9 0.6 2.4 0 3.2-0.5 3.2-1.7 5.2-4 7.1-6.8 1.7-2.5 3.9-5.9 5.1-8.7 0.4-1.2 0.8-2.2 0.9-2.6 0.2-1 1.5 0.1 1.4 0.9-0.2 0.8-0.4 1.6-0.8 2.4-0.3 1-0.6 1.9-0.8 2.9-0.1 0.4-0.8 2.6-0.4 2.8 0.1 0 1.1-0.7 1.3-0.9 2.6-2.3 4.1-5.6 6.1-8.4 0.3-0.5 1 0.1 1.2 0.5 0.3 0.8 0.3 1.7 0.4 2.5 0 0.4 0.1 0.7 0.1 1.1q0.2-0.2 0.4-0.3c2.4-2.3 4.1-5.9 5.3-8.9 0.4-0.8 1.1 0.1 1.1 0.8q0.1 0 0.1 0 0 0.1-0.1 0.1 0 0 0 0c-0.1 0.6-0.4 1.3-0.3 1.9 0.1 0.4 0 0.8 0.7 0.7 0.3-0.1 0.6-0.5 0.7-0.7 0.7-0.8 1.3-1.7 1.9-2.6 1-1.3 2.1-2.8 3-4.4 0.1-1.9 0.7-4 1.1-5.2 0.4-0.8 1.4-0.1 1.4 0.5 0.2 2.1-0.3 3.9-1.2 5.7 0 1 0.3 1.9 1 2 1.9 0.5 3.4-2.4 4.2-3.7 1.2-2 2.7-4 3.9-6.1 0.5-0.9 1.3 0.1 1.3 0.7-0.1 1.4-0.3 3.4 1.7 3.4 0.8-0.1 1.5-0.3 2.3-0.6 0.6-0.4 1.2 0.9 0.6 1.3zm-53.5 19.9c2.4-1.4 4.6-3.2 6.7-5.1 1.9-1.7 3.8-3.5 5.3-5.6 0.4-0.7 1.2-1.8 1.2-2.7-0.1-1.5-2-0.7-2.9-0.2-5.4 2.7-8.6 7.9-10.3 13.6z"/>
				</g>
			</g>
		</g>
	</g>
	<g id="Gears">
		<g id="Gears 5 ">
			<g id="Gear 11 ">
				<g id="&lt;Group&gt;">
					<path id="&lt;Compound Path&gt;" fill-rule="evenodd" class="s4" d="m675.2 888.8c1.5-0.5 2.6-2.1 2.4-3.6l-0.8-6.1c-0.2-1.5 1-2.9 2.5-3.1l15.9-1.7c1.6-0.1 3.4 0.9 4.2 2.3l3.1 6.1c0.8 1.4 2.6 2.6 4.2 2.7q4.1 0.4 8.2 1.1c1.6 0.2 3.9-0.2 5.2-1.1l8.5-5.7c1.4-0.8 3.6-1.1 5-0.5l12.8 5.1c0.8 0.4 1.3 1 1.3 1.7v0.1q0 0 0 0v13c0 0.5-0.2 1-0.6 1.5l-0.7 0.8c1 0.6 2.4 1.1 3.5 1.1l14.5-0.6c1.6-0.1 3.2 1.1 3.7 2.6l2.2 7c0.1 0.3 0.1 0.6 0.1 0.9v13.1c0 1.2-0.8 2.1-2 2.3l-11.3 2 4.4 2.2c0.8 0.3 1.1 0.9 1.1 1.6v-0.1l0.1 13.2h-0.1c0 0.5-0.2 1-0.8 1.5l-8.1 6.7c-1.2 1.1-3.4 1.5-4.9 1l-12.4-3.9c-1.5-0.4-3.8-0.3-5.3 0.4q-3.2 1.3-6.6 2.4c-0.7 0.2-1.2 0.6-1.6 1.2v8.9h-0.1c0 1.4-1 2.5-2.4 2.7l-16 1.6c-1.5 0.2-3.4-0.8-4.1-2.2l-3.2-6.2c-0.7-1.4-2.5-2.5-4.1-2.7q-4.2-0.3-8.3-1c-1.5-0.3-3.8 0.2-5.1 1.1l-8.6 5.6c-1.3 0.9-3.5 1.1-5 0.6l-12.7-5.1c-0.9-0.4-1.4-1-1.4-1.7v-13.2q0 0 0 0c0-0.4 0.2-0.9 0.7-1.4l0.7-0.8c-1.1-0.6-2.4-1.1-3.5-1.1l-14.6 0.6c-1.5 0.1-3.2-1.1-3.7-2.6l-2.2-7q-0.1-0.4-0.1-0.8v-13.1h0.1c-0.1-1.2 0.7-2.2 2-2.4l11.3-2-4.4-2.2c-0.8-0.4-1.2-1-1.2-1.6v-13.1c0-0.5 0.3-1 0.8-1.5l8.2-6.8c1.2-1 3.4-1.4 4.8-0.9l12.5 3.9c1.4 0.4 3.8 0.2 5.2-0.4q3.2-1.4 6.7-2.4zm52.9 33c-2.2-3.1-5.8-5.9-10.9-7.9-13.8-5.5-32.8-3.5-42.4 4.4-1.4 1.2-2.4 2.3-3.2 3.5 2.1 3.1 5.8 5.8 10.9 7.9 13.8 5.5 32.8 3.5 42.4-4.4 1.3-1.2 2.3-2.3 3.2-3.5z"/>
					<path id="&lt;Compound Path&gt;" fill-rule="evenodd" class="s5" d="m675.2 888.8c1.5-0.5 2.6-2.1 2.4-3.6l-0.8-6.1c-0.2-1.5 1-2.9 2.5-3.1l15.9-1.7c1.6-0.1 3.4 0.9 4.2 2.3l3.1 6.1c0.8 1.4 2.6 2.6 4.2 2.7q4.1 0.4 8.2 1.1c1.6 0.2 3.9-0.2 5.2-1.1l8.5-5.7c1.4-0.8 3.6-1.1 5-0.5l12.8 5.1c0.8 0.4 1.3 1 1.3 1.7v0.1q0 0 0 0v13c0 0.5-0.2 1-0.6 1.5l-0.7 0.8c1 0.6 2.4 1.1 3.5 1.1l14.5-0.6c1.6-0.1 3.2 1.1 3.7 2.6l2.2 7c0.1 0.3 0.1 0.6 0.1 0.9v13.1c0 1.2-0.8 2.1-2 2.3l-11.3 2 4.4 2.2c0.8 0.3 1.1 0.9 1.1 1.6v-0.1l0.1 13.2h-0.1c0 0.5-0.2 1-0.8 1.5l-8.1 6.7c-1.2 1.1-3.4 1.5-4.9 1l-12.4-3.9c-1.5-0.4-3.8-0.3-5.3 0.4q-3.2 1.3-6.6 2.4c-0.7 0.2-1.2 0.6-1.6 1.2v8.9h-0.1c0 1.4-1 2.5-2.4 2.7l-16 1.6c-1.5 0.2-3.4-0.8-4.1-2.2l-3.2-6.2c-0.7-1.4-2.5-2.5-4.1-2.7q-4.2-0.3-8.3-1c-1.5-0.3-3.8 0.2-5.1 1.1l-8.6 5.6c-1.3 0.9-3.5 1.1-5 0.6l-12.7-5.1c-0.9-0.4-1.4-1-1.4-1.7v-13.2q0 0 0 0c0-0.4 0.2-0.9 0.7-1.4l0.7-0.8c-1.1-0.6-2.4-1.1-3.5-1.1l-14.6 0.6c-1.5 0.1-3.2-1.1-3.7-2.6l-2.2-7q-0.1-0.4-0.1-0.8v-13.1h0.1c-0.1-1.2 0.7-2.2 2-2.4l11.3-2-4.4-2.2c-0.8-0.4-1.2-1-1.2-1.6v-13.1c0-0.5 0.3-1 0.8-1.5l8.2-6.8c1.2-1 3.4-1.4 4.8-0.9l12.5 3.9c1.4 0.4 3.8 0.2 5.2-0.4q3.2-1.4 6.7-2.4zm52.9 33c-2.2-3.1-5.8-5.9-10.9-7.9-13.8-5.5-32.8-3.5-42.4 4.4-1.4 1.2-2.4 2.3-3.2 3.5 2.1 3.1 5.8 5.8 10.9 7.9 13.8 5.5 32.8 3.5 42.4-4.4 1.3-1.2 2.3-2.3 3.2-3.5z"/>
				</g>
				<path id="&lt;Compound Path&gt;" class="s6" d="m750.1 923.1c-0.7 1.4-0.3 3 1.2 3.7l5.8 3 11.3-2c1.2-0.2 2-1.1 2-2.3v-13c0 1.1-0.8 2-2 2.2l-13.9 2.4c-1.5 0.2-2.9 1.7-3.4 3.2q-0.4 1.4-1 2.8zm-2.4-37.1c0 0.5-0.2 1-0.6 1.5l-5.8 6.1c-1.1 1.1-0.9 2.8 0.4 3.7q1.9 1.5 3.4 3.2c0.4 0.3 0.8 0.6 1.2 0.9l0.8-0.8c0.4-0.5 0.6-1 0.6-1.5z"/>
				<path id="&lt;Path&gt;" class="s6" d="m717.2 900.8c11.9 4.8 16.1 13.6 10.9 21-2.2-3.1-5.8-5.8-10.9-7.9-13.8-5.5-32.8-3.6-42.4 4.4q-2 1.7-3.2 3.5c-3.7-5.3-2.9-11.6 3.2-16.6 9.6-8 28.6-10 42.4-4.4z"/>
				<g id="&lt;Group&gt;">
					<path id="&lt;Compound Path&gt;" class="s4" d="m695.8 959.3c0.5 0.5 1 1 1.3 1.5l3.2 6.2c0.5 0.9 1.3 1.6 2.4 2l-0.1-13.1c-0.9-0.4-1.8-1.1-2.3-2l-3.2-6.2c-0.3-0.6-0.7-1.1-1.3-1.5zm-43.8-1.8c0 0.7 0.4 1.4 1.3 1.7l12.7 5.1c1 0.4 2.2 0.4 3.4 0.1v-13.1c-1.1 0.3-2.4 0.3-3.4-0.1l-12.7-5.1c-0.9-0.4-1.3-1-1.3-1.7q0 0 0 0zm84.6-5.5l12.2 3.8c1 0.3 2.1 0.2 3.1-0.1v-13c-1 0.3-2.2 0.3-3.1 0l-12.2-3.8zm-107.3-20.8q-0.1 0.4 0.1 0.8l2.2 7c0.4 1.5 2.1 2.7 3.7 2.6l14.5-0.6c0.7 0 1.5 0.2 2.3 0.5v-13.1c-0.8-0.4-1.6-0.5-2.3-0.5l-14.6 0.6c-1.5 0-3.2-1.1-3.6-2.6l-2.2-7.1q-0.1-0.4-0.2-0.7zm7.8-21.3c0 0.6 0.4 1.2 1.2 1.6l4.4 2.2 2.6-0.4c1.5-0.3 2.9-1.8 3.4-3.3q0.4-1.4 1-2.7 0.1-0.4 0.2-0.7 0.1-0.3 0.1-0.5 0-0.6-0.2-1.1-0.2-0.6-0.7-1-0.2-0.3-0.6-0.5l-10.2-5.1q-0.4-0.2-0.6-0.5-0.4-0.3-0.5-0.6-0.1-0.3-0.1-0.5z"/>
					<path id="&lt;Compound Path&gt;" class="s7" d="m695.8 959.3c0.5 0.5 1 1 1.3 1.5l3.2 6.2c0.5 0.9 1.3 1.6 2.4 2l-0.1-13.1c-0.9-0.4-1.8-1.1-2.3-2l-3.2-6.2c-0.3-0.6-0.7-1.1-1.3-1.5zm-43.8-1.8c0 0.7 0.4 1.4 1.3 1.7l12.7 5.1c1 0.4 2.2 0.4 3.4 0.1v-13.1c-1.1 0.3-2.4 0.3-3.4-0.1l-12.7-5.1c-0.9-0.4-1.3-1-1.3-1.7q0 0 0 0zm84.6-5.5l12.2 3.8c1 0.3 2.1 0.2 3.1-0.1v-13c-1 0.3-2.2 0.3-3.1 0l-12.2-3.8zm-107.3-20.8q-0.1 0.4 0.1 0.8l2.2 7c0.4 1.5 2.1 2.7 3.7 2.6l14.5-0.6c0.7 0 1.5 0.2 2.3 0.5v-13.1c-0.8-0.4-1.6-0.5-2.3-0.5l-14.6 0.6c-1.5 0-3.2-1.1-3.6-2.6l-2.2-7.1q-0.1-0.4-0.2-0.7zm7.8-21.3c0 0.6 0.4 1.2 1.2 1.6l4.4 2.2 2.6-0.4c1.5-0.3 2.9-1.8 3.4-3.3q0.4-1.4 1-2.7 0.1-0.4 0.2-0.7 0.1-0.3 0.1-0.5 0-0.6-0.2-1.1-0.2-0.6-0.7-1-0.2-0.3-0.6-0.5l-10.2-5.1q-0.4-0.2-0.6-0.5-0.4-0.3-0.5-0.6-0.1-0.3-0.1-0.5z"/>
				</g>
				<g id="&lt;Group&gt;">
					<path id="&lt;Compound Path&gt;" fill-rule="evenodd" class="s4" d="m650.8 887.7l12.5 3.9c1.4 0.4 3.8 0.2 5.2-0.4q3.2-1.4 6.7-2.4c1.5-0.5 2.6-2.1 2.4-3.6l-0.8-6.1c-0.2-1.5 1-2.9 2.5-3.1l15.9-1.7c1.6-0.1 3.4 0.9 4.2 2.3l3.1 6.1c0.8 1.4 2.6 2.6 4.2 2.7q4.1 0.4 8.2 1.1c1.6 0.2 3.9-0.2 5.2-1.1l8.5-5.7c1.4-0.8 3.6-1.1 5-0.5l12.8 5.1c1.5 0.6 1.8 2 0.7 3.2l-5.8 6.1c-1.1 1.1-0.9 2.8 0.4 3.7q1.9 1.5 3.4 3.1c1.1 1.2 3.2 2.1 4.8 2.1l14.5-0.6c1.6-0.1 3.2 1.1 3.7 2.6l2.2 7c0.5 1.5-0.4 2.9-1.9 3.2l-13.9 2.4c-1.5 0.2-2.9 1.7-3.4 3.2q-0.4 1.4-1 2.8c-0.7 1.4-0.2 3 1.2 3.7l10.2 5.2c1.4 0.7 1.5 2 0.3 3l-8.1 6.8c-1.2 1-3.4 1.5-4.9 1l-12.4-3.9c-1.5-0.5-3.8-0.3-5.3 0.3q-3.2 1.4-6.6 2.5c-1.5 0.5-2.6 2-2.4 3.6l0.7 6c0.2 1.6-0.9 3-2.5 3.2l-15.9 1.6c-1.5 0.2-3.4-0.8-4.1-2.2l-3.2-6.2c-0.7-1.4-2.5-2.6-4.1-2.7q-4.2-0.3-8.3-1c-1.5-0.3-3.8 0.2-5.1 1l-8.6 5.7c-1.3 0.9-3.5 1.1-5 0.5l-12.7-5.1c-1.5-0.6-1.8-2-0.7-3.1l5.8-6.2c1-1.1 0.8-2.7-0.4-3.7q-1.9-1.5-3.5-3.1c-1.1-1.1-3.1-2.1-4.7-2l-14.6 0.6c-1.5 0.1-3.2-1.1-3.7-2.6l-2.2-7c-0.4-1.5 0.4-3 2-3.2l13.8-2.4c1.6-0.3 3-1.8 3.4-3.3q0.4-1.3 1.1-2.7c0.6-1.4 0.2-3.1-1.2-3.8l-10.2-5.1c-1.4-0.7-1.6-2.1-0.4-3.1l8.2-6.8c1.2-1 3.4-1.4 4.8-0.9zm24 17.5c-9.6 8-6.2 18.9 7.7 24.5 13.8 5.5 32.8 3.5 42.4-4.4 9.6-8 6.1-19-7.7-24.5-13.8-5.6-32.8-3.6-42.4 4.4z"/>
					<path id="&lt;Compound Path&gt;" fill-rule="evenodd" class="s8" d="m650.8 887.7l12.5 3.9c1.4 0.4 3.8 0.2 5.2-0.4q3.2-1.4 6.7-2.4c1.5-0.5 2.6-2.1 2.4-3.6l-0.8-6.1c-0.2-1.5 1-2.9 2.5-3.1l15.9-1.7c1.6-0.1 3.4 0.9 4.2 2.3l3.1 6.1c0.8 1.4 2.6 2.6 4.2 2.7q4.1 0.4 8.2 1.1c1.6 0.2 3.9-0.2 5.2-1.1l8.5-5.7c1.4-0.8 3.6-1.1 5-0.5l12.8 5.1c1.5 0.6 1.8 2 0.7 3.2l-5.8 6.1c-1.1 1.1-0.9 2.8 0.4 3.7q1.9 1.5 3.4 3.1c1.1 1.2 3.2 2.1 4.8 2.1l14.5-0.6c1.6-0.1 3.2 1.1 3.7 2.6l2.2 7c0.5 1.5-0.4 2.9-1.9 3.2l-13.9 2.4c-1.5 0.2-2.9 1.7-3.4 3.2q-0.4 1.4-1 2.8c-0.7 1.4-0.2 3 1.2 3.7l10.2 5.2c1.4 0.7 1.5 2 0.3 3l-8.1 6.8c-1.2 1-3.4 1.5-4.9 1l-12.4-3.9c-1.5-0.5-3.8-0.3-5.3 0.3q-3.2 1.4-6.6 2.5c-1.5 0.5-2.6 2-2.4 3.6l0.7 6c0.2 1.6-0.9 3-2.5 3.2l-15.9 1.6c-1.5 0.2-3.4-0.8-4.1-2.2l-3.2-6.2c-0.7-1.4-2.5-2.6-4.1-2.7q-4.2-0.3-8.3-1c-1.5-0.3-3.8 0.2-5.1 1l-8.6 5.7c-1.3 0.9-3.5 1.1-5 0.5l-12.7-5.1c-1.5-0.6-1.8-2-0.7-3.1l5.8-6.2c1-1.1 0.8-2.7-0.4-3.7q-1.9-1.5-3.5-3.1c-1.1-1.1-3.1-2.1-4.7-2l-14.6 0.6c-1.5 0.1-3.2-1.1-3.7-2.6l-2.2-7c-0.4-1.5 0.4-3 2-3.2l13.8-2.4c1.6-0.3 3-1.8 3.4-3.3q0.4-1.3 1.1-2.7c0.6-1.4 0.2-3.1-1.2-3.8l-10.2-5.1c-1.4-0.7-1.6-2.1-0.4-3.1l8.2-6.8c1.2-1 3.4-1.4 4.8-0.9zm24 17.5c-9.6 8-6.2 18.9 7.7 24.5 13.8 5.5 32.8 3.5 42.4-4.4 9.6-8 6.1-19-7.7-24.5-13.8-5.6-32.8-3.6-42.4 4.4z"/>
				</g>
				<path id="&lt;Compound Path&gt;" fill-rule="evenodd" class="s8" d="m704.1 957.3c-1.9 0-3.9-1.2-4.8-2.9l-3.2-6.2c-0.5-1-2-2-3.2-2.1-2.8-0.2-5.6-0.5-8.4-1-1.3-0.2-3.2 0.2-4.3 0.9l-8.6 5.6c-1.6 1.1-4.2 1.4-6 0.7l-12.8-5.1c-1-0.5-1.7-1.2-1.9-2.2-0.2-0.9 0.1-1.9 0.9-2.8l5.7-6.1q0.5-0.5 0.4-1c0-0.4-0.2-0.8-0.6-1.1q-2-1.5-3.6-3.2c-0.9-1-2.7-1.7-3.9-1.7l-14.5 0.6c-2.1 0.1-4.2-1.4-4.8-3.4l-2.2-7c-0.4-1.1-0.2-2.1 0.3-3 0.5-0.9 1.4-1.4 2.5-1.6l13.9-2.4c1-0.2 2.1-1.3 2.5-2.5q0.4-1.4 1.1-2.9c0.3-0.8 0.2-1.8-0.7-2.3l-10.2-5.1c-1-0.5-1.7-1.3-1.8-2.3-0.1-1 0.3-1.9 1.2-2.6l8.1-6.8c1.5-1.3 4.1-1.8 6-1.2l12.4 3.9c1.2 0.4 3.2 0.2 4.5-0.3 2.1-0.9 4.4-1.8 6.7-2.5 1-0.3 1.8-1.4 1.7-2.4l-0.8-6.1c-0.1-1 0.2-2 0.8-2.9 0.7-0.8 1.6-1.3 2.7-1.4l15.9-1.7c2-0.2 4.3 1.1 5.3 2.9l3.1 6.1c0.6 1.1 2.1 2 3.2 2.1 2.9 0.2 5.7 0.6 8.4 1.1 1.3 0.2 3.3-0.2 4.4-0.9l8.5-5.7c1.6-1.1 4.3-1.3 6.1-0.6l12.7 5.1c1.1 0.4 1.8 1.2 2 2.1 0.2 1-0.1 2-0.9 2.8l-5.8 6.2q-0.4 0.4-0.4 1c0.1 0.4 0.3 0.8 0.6 1.1q2 1.5 3.6 3.2c1 0.9 2.7 1.6 3.9 1.6l14.6-0.5c2.1-0.2 4.2 1.3 4.8 3.3l2.2 7.1c0.3 1 0.2 2.1-0.3 2.9-0.6 0.9-1.5 1.5-2.5 1.7l-13.9 2.4c-1 0.1-2.2 1.2-2.5 2.4q-0.4 1.5-1.1 2.9c-0.4 0.8-0.3 1.9 0.7 2.3l10.2 5.2c1 0.5 1.6 1.3 1.7 2.3 0.2 0.9-0.3 1.9-1.1 2.6l-8.2 6.8c-1.5 1.2-4.1 1.7-5.9 1.2l-12.4-3.9c-1.2-0.4-3.3-0.3-4.5 0.3-2.2 0.9-4.4 1.7-6.8 2.5-1 0.3-1.7 1.4-1.6 2.4l0.7 6c0.2 1.1-0.1 2.1-0.8 2.9-0.6 0.8-1.6 1.4-2.6 1.5l-16 1.6q-0.2 0.1-0.4 0.1zm-20.4-14.5q0.7 0 1.2 0.1c2.7 0.5 5.4 0.8 8.2 1 2 0.2 4.1 1.6 5 3.3l3.2 6.2c0.5 1 1.9 1.7 3 1.6l15.9-1.7c0.5 0 0.9-0.2 1.2-0.6 0.3-0.3 0.4-0.8 0.3-1.2l-0.7-6.1c-0.3-2 1.1-4.1 3.2-4.8 2.2-0.7 4.4-1.5 6.5-2.4 1.7-0.7 4.3-0.9 6-0.4l12.4 3.9c1.2 0.4 3 0 3.9-0.7l8.1-6.8c0.3-0.2 0.5-0.5 0.4-0.7 0-0.2-0.2-0.4-0.5-0.5l-10.2-5.2c-1.9-0.9-2.7-3.2-1.7-5.2q0.6-1.3 1-2.6c0.6-2 2.3-3.7 4.2-4l13.9-2.4c0.4-0.1 0.8-0.3 1-0.6 0.1-0.3 0.2-0.7 0.1-1.2l-2.3-7c-0.3-1-1.4-1.8-2.5-1.8l-14.6 0.6c-1.8 0.1-4.2-1-5.6-2.4q-1.5-1.5-3.3-3c-0.9-0.7-1.4-1.6-1.5-2.6-0.1-1 0.3-2 1-2.8l5.8-6.1c0.2-0.3 0.4-0.6 0.3-0.8 0-0.2-0.3-0.4-0.6-0.5l-12.8-5.1c-1.1-0.5-2.9-0.3-3.9 0.4l-8.6 5.7c-1.5 1-4.1 1.5-6 1.2-2.6-0.5-5.4-0.8-8.1-1-2-0.2-4.2-1.6-5.1-3.3l-3.1-6.2c-0.5-1-1.9-1.8-3-1.7l-16 1.7c-0.4 0.1-0.8 0.3-1.1 0.6-0.3 0.4-0.4 0.8-0.4 1.3l0.8 6c0.2 2.1-1.2 4.2-3.2 4.8-2.3 0.7-4.5 1.6-6.5 2.4-1.8 0.8-4.4 1-6.1 0.4l-12.4-3.9c-1.1-0.3-2.9 0-3.8 0.8l-8.2 6.8c-0.2 0.2-0.4 0.4-0.4 0.6 0.1 0.2 0.3 0.4 0.6 0.6l10.2 5.1c1.9 1 2.6 3.2 1.7 5.3q-0.6 1.3-1 2.6c-0.6 2-2.4 3.7-4.3 4l-13.8 2.4c-0.5 0-0.8 0.3-1 0.6-0.2 0.3-0.2 0.7-0.1 1.1l2.2 7.1c0.3 1 1.6 1.8 2.6 1.8l14.6-0.6c1.7-0.1 4.1 0.9 5.5 2.3q1.5 1.6 3.4 3c0.9 0.7 1.4 1.7 1.5 2.7 0 1-0.3 2-1 2.7l-5.8 6.2c-0.3 0.2-0.4 0.5-0.3 0.7 0 0.2 0.2 0.5 0.6 0.6l12.7 5.1c1.1 0.4 3 0.3 4-0.4l8.6-5.7c1.2-0.8 3.1-1.3 4.7-1.3zm16-8.9c-6.1 0-12.3-1-17.6-3.2-7.8-3.1-12.8-8.1-13.7-13.7-0.7-4.5 1.3-9 5.7-12.7 9.8-8.2 29.4-10.2 43.5-4.6 7.8 3.2 12.8 8.2 13.7 13.8 0.7 4.5-1.3 9-5.7 12.6-6.1 5.1-15.9 7.8-25.9 7.8zm0.1-35.2c-9.3 0-18.6 2.6-24.3 7.4-3.8 3.1-5.5 6.8-4.9 10.5 0.7 4.8 5.2 9.2 12.3 12 13.4 5.4 32 3.5 41.2-4.2 3.9-3.2 5.6-6.8 5-10.6-0.8-4.8-5.3-9.2-12.3-12-5.2-2.1-11.1-3.1-17-3.1z"/>
			</g>
			<g id="Gear 12 ">
				<g id="&lt;Group&gt;">
					<path id="&lt;Compound Path&gt;" fill-rule="evenodd" class="s4" d="m785.7 802.5l18.4-10.6c1.1-0.6 2.9-0.7 4.1-0.1l18.6 8.6c1.1 0.5 3 0.6 4.3 0.2 4.6-1.4 9.4-2.6 14.4-3.4 1.3-0.2 2.5-1.4 2.7-2.6l2.3-12.3c0.3-1.2 1.5-2.2 2.8-2.2h27c1.2 0 2.5 1 2.7 2.2l2.3 12.3c0.3 1.2 1.5 2.4 2.7 2.6 5 0.8 9.8 2 14.5 3.4 1.2 0.4 3.1 0.3 4.2-0.2l18.7-8.6c1.1-0.6 2.9-0.5 4 0.1l18.4 10.6c0.6 0.4 0.9 0.8 0.9 1.3v15.9c0 0.5-0.2 0.9-0.7 1.3l-8.5 6c0.7 0.5 1.4 0.9 2.1 0.9l24.5 1.6c1.3 0 2.3 1.1 2.3 2.4v10.4q0 0 0 0v19.2c0 1.3-1 2.3-2.3 2.4l-24.4 1.6c-0.8 0-1.5 0.4-2.2 0.9l8.4 6c0.5 0.4 0.8 0.8 0.8 1.2v16c0 0.5-0.3 0.9-0.8 1.2l-18.4 10.6c-1.1 0.7-2.9 0.8-4.1 0.2l-18.6-8.6c-1.2-0.5-3.1-0.6-4.3-0.3-4.6 1.5-9.5 2.6-14.4 3.5-1.3 0.2-2.5 1.4-2.7 2.6l-2.4 12.3c-0.2 1.2-1.4 2.2-2.7 2.2h-27c-1.3 0-2.5-1-2.7-2.2l-2.3-12.3c-0.3-1.2-1.5-2.4-2.7-2.6-5-0.9-9.9-2-14.5-3.5-1.2-0.3-3.1-0.2-4.3 0.3l-18.6 8.6c-1.1 0.6-3 0.5-4.1-0.2l-18.3-10.6c-0.6-0.3-0.9-0.7-0.9-1.2v-16c0-0.4 0.2-0.8 0.7-1.2l8.5-6.1c-0.7-0.4-1.4-0.8-2.1-0.8l-24.5-1.6c-1.3-0.1-2.3-1.1-2.3-2.4v-15.9q0 0 0 0v-13.7c0-1.3 1-2.4 2.2-2.4l24.5-1.6c0.7 0 1.5-0.4 2.2-0.9l-8.5-6c-0.4-0.4-0.7-0.8-0.7-1.3v-15.9c0-0.5 0.3-0.9 0.8-1.3zm124.1 41.3c-1.3-4.4-5.3-8.7-12-12.6-17.1-9.9-44.9-9.9-62.1 0-6.3 3.7-10.4 7.7-12.2 11.8 1.5 5 5.5 9.8 12.2 13.6 17.2 9.9 45 9.9 62.1 0 6.3-3.6 10.3-8.1 12-12.8z"/>
					<path id="&lt;Compound Path&gt;" fill-rule="evenodd" class="s5" d="m785.7 802.5l18.4-10.6c1.1-0.6 2.9-0.7 4.1-0.1l18.6 8.6c1.1 0.5 3 0.6 4.3 0.2 4.6-1.4 9.4-2.6 14.4-3.4 1.3-0.2 2.5-1.4 2.7-2.6l2.3-12.3c0.3-1.2 1.5-2.2 2.8-2.2h27c1.2 0 2.5 1 2.7 2.2l2.3 12.3c0.3 1.2 1.5 2.4 2.7 2.6 5 0.8 9.8 2 14.5 3.4 1.2 0.4 3.1 0.3 4.2-0.2l18.7-8.6c1.1-0.6 2.9-0.5 4 0.1l18.4 10.6c0.6 0.4 0.9 0.8 0.9 1.3v15.9c0 0.5-0.2 0.9-0.7 1.3l-8.5 6c0.7 0.5 1.4 0.9 2.1 0.9l24.5 1.6c1.3 0 2.3 1.1 2.3 2.4v10.4q0 0 0 0v19.2c0 1.3-1 2.3-2.3 2.4l-24.4 1.6c-0.8 0-1.5 0.4-2.2 0.9l8.4 6c0.5 0.4 0.8 0.8 0.8 1.2v16c0 0.5-0.3 0.9-0.8 1.2l-18.4 10.6c-1.1 0.7-2.9 0.8-4.1 0.2l-18.6-8.6c-1.2-0.5-3.1-0.6-4.3-0.3-4.6 1.5-9.5 2.6-14.4 3.5-1.3 0.2-2.5 1.4-2.7 2.6l-2.4 12.3c-0.2 1.2-1.4 2.2-2.7 2.2h-27c-1.3 0-2.5-1-2.7-2.2l-2.3-12.3c-0.3-1.2-1.5-2.4-2.7-2.6-5-0.9-9.9-2-14.5-3.5-1.2-0.3-3.1-0.2-4.3 0.3l-18.6 8.6c-1.1 0.6-3 0.5-4.1-0.2l-18.3-10.6c-0.6-0.3-0.9-0.7-0.9-1.2v-16c0-0.4 0.2-0.8 0.7-1.2l8.5-6.1c-0.7-0.4-1.4-0.8-2.1-0.8l-24.5-1.6c-1.3-0.1-2.3-1.1-2.3-2.4v-15.9q0 0 0 0v-13.7c0-1.3 1-2.4 2.2-2.4l24.5-1.6c0.7 0 1.5-0.4 2.2-0.9l-8.5-6c-0.4-0.4-0.7-0.8-0.7-1.3v-15.9c0-0.5 0.3-0.9 0.8-1.3zm124.1 41.3c-1.3-4.4-5.3-8.7-12-12.6-17.1-9.9-44.9-9.9-62.1 0-6.3 3.7-10.4 7.7-12.2 11.8 1.5 5 5.5 9.8 12.2 13.6 17.2 9.9 45 9.9 62.1 0 6.3-3.6 10.3-8.1 12-12.8z"/>
				</g>
				<path id="&lt;Compound Path&gt;" class="s9" d="m933.1 859c-0.9 0.9-0.8 2.2 0.3 2.9l6.1 4.5c0.6-0.5 1.4-0.9 2.1-0.9l24.5-1.6c1.3-0.1 2.3-1.1 2.3-2.4v-19.2 3.3c0 1.2-1 2.3-2.3 2.4l-24.5 1.5c-1.2 0.1-2.7 1.1-3.3 2.2q-2 3.7-5.2 7.3zm15.6-55q-0.1 0.5-0.8 1l-14.5 10.5c-1.1 0.7-1.2 2.1-0.3 3q3.2 3.5 5.2 7.2c0.3 0.5 0.7 1 1.2 1.4l8.5-6.1c0.5-0.4 0.7-0.8 0.7-1.3z"/>
				<path id="&lt;Path&gt;" class="s9" d="m835.7 820.8c17.2-9.9 45-9.9 62.1 0 10.8 6.3 14.8 15 12 23-1.3-4.4-5.3-8.7-12-12.6-17.1-9.9-44.9-9.9-62.1 0-6.2 3.7-10.4 7.6-12.2 11.7-2.3-7.8 1.8-16.1 12.2-22.1z"/>
				<g id="&lt;Group&gt;">
					<path id="&lt;Compound Path&gt;" class="s4" d="m765.2 861.5c0 1.2 1 2.3 2.3 2.4l24.5 1.6c0.4 0 0.8 0.1 1.2 0.3v-15.9c-0.4-0.2-0.9-0.3-1.3-0.4l-24.5-1.5c-1.1-0.1-2.1-1-2.2-2.1zm19.7-41.8c0 0.4 0.2 0.9 0.7 1.3l8.4 6c0.5-0.4 0.9-0.8 1.2-1.3 1.3-2.4 2.9-4.7 4.9-6.9q0.2-0.2 0.3-0.3 0.4-0.4 0.5-0.9 0-0.1 0.1-0.3 0-0.3 0-0.6-0.1-0.5-0.5-0.9-0.1-0.2-0.4-0.3l-14.5-10.5q-0.2-0.1-0.4-0.3-0.2-0.2-0.2-0.5-0.2-0.2-0.1-0.4h-0.1zm0.1 69.8c0 0.5 0.3 0.9 0.8 1.2l18.4 10.7c0.7 0.4 1.8 0.6 2.8 0.4v-15.9c-1 0.1-2.1 0-2.8-0.5l-18.4-10.6q-0.8-0.5-0.9-1.1zm120 2.9c0.7 0.1 1.4 0.2 1.9 0.5l18.6 8.6c0.5 0.2 1.1 0.3 1.7 0.3l-0.1-15.9c-0.6 0-1.2-0.1-1.6-0.3l-18.7-8.7c-0.5-0.2-1.1-0.3-1.8-0.4zm-54 19.4c0.5 0.8 1.4 1.3 2.4 1.4h27c0.6-0.1 1.1-0.3 1.6-0.6v-16c-0.5 0.4-1.1 0.6-1.7 0.6h-27c-0.9 0-1.7-0.5-2.3-1.2z"/>
					<path id="&lt;Compound Path&gt;" class="s7" d="m765.2 861.5c0 1.2 1 2.3 2.3 2.4l24.5 1.6c0.4 0 0.8 0.1 1.2 0.3v-15.9c-0.4-0.2-0.9-0.3-1.3-0.4l-24.5-1.5c-1.1-0.1-2.1-1-2.2-2.1zm19.7-41.8c0 0.4 0.2 0.9 0.7 1.3l8.4 6c0.5-0.4 0.9-0.8 1.2-1.3 1.3-2.4 2.9-4.7 4.9-6.9q0.2-0.2 0.3-0.3 0.4-0.4 0.5-0.9 0-0.1 0.1-0.3 0-0.3 0-0.6-0.1-0.5-0.5-0.9-0.1-0.2-0.4-0.3l-14.5-10.5q-0.2-0.1-0.4-0.3-0.2-0.2-0.2-0.5-0.2-0.2-0.1-0.4h-0.1zm0.1 69.8c0 0.5 0.3 0.9 0.8 1.2l18.4 10.7c0.7 0.4 1.8 0.6 2.8 0.4v-15.9c-1 0.1-2.1 0-2.8-0.5l-18.4-10.6q-0.8-0.5-0.9-1.1zm120 2.9c0.7 0.1 1.4 0.2 1.9 0.5l18.6 8.6c0.5 0.2 1.1 0.3 1.7 0.3l-0.1-15.9c-0.6 0-1.2-0.1-1.6-0.3l-18.7-8.7c-0.5-0.2-1.1-0.3-1.8-0.4zm-54 19.4c0.5 0.8 1.4 1.3 2.4 1.4h27c0.6-0.1 1.1-0.3 1.6-0.6v-16c-0.5 0.4-1.1 0.6-1.7 0.6h-27c-0.9 0-1.7-0.5-2.3-1.2z"/>
				</g>
				<g id="&lt;Group&gt;">
					<path id="&lt;Compound Path&gt;" fill-rule="evenodd" class="s4" d="m808.2 791.8l18.6 8.6c1.1 0.5 3 0.6 4.3 0.2 4.6-1.4 9.4-2.6 14.4-3.4 1.3-0.2 2.5-1.4 2.7-2.6l2.3-12.3c0.3-1.2 1.5-2.2 2.8-2.2h27c1.2 0 2.5 1 2.7 2.2l2.3 12.3c0.3 1.2 1.5 2.4 2.7 2.6 5 0.8 9.8 2 14.5 3.4 1.2 0.4 3.1 0.3 4.2-0.2l18.7-8.6c1.1-0.6 2.9-0.5 4 0.1l18.4 10.6c1.1 0.7 1.2 1.8 0.1 2.5l-14.5 10.5c-1.1 0.8-1.2 2.1-0.3 3q3.2 3.5 5.2 7.2c0.6 1.1 2 2.1 3.3 2.2l24.5 1.6c1.3 0 2.3 1.1 2.3 2.4v13.7c0 1.2-1 2.3-2.3 2.4l-24.5 1.5c-1.3 0.1-2.7 1.1-3.3 2.2q-2 3.8-5.2 7.3c-0.9 0.9-0.8 2.2 0.3 2.9l14.5 10.5c1.1 0.8 1 1.9-0.1 2.5l-18.4 10.6c-1.1 0.6-2.9 0.7-4 0.2l-18.7-8.6c-1.1-0.6-3-0.7-4.2-0.3-4.7 1.5-9.5 2.6-14.5 3.5-1.2 0.2-2.4 1.3-2.7 2.6l-2.3 12.2c-0.2 1.3-1.5 2.3-2.7 2.3h-27c-1.3 0-2.5-1-2.8-2.3l-2.3-12.2c-0.2-1.3-1.4-2.4-2.7-2.6-5-0.9-9.8-2-14.4-3.5-1.2-0.4-3.2-0.3-4.3 0.3l-18.6 8.6c-1.2 0.5-3 0.4-4.1-0.2l-18.4-10.6c-1.1-0.6-1.1-1.7-0.1-2.5l14.6-10.5c1-0.7 1.1-2 0.2-2.9q-3.2-3.5-5.2-7.3c-0.6-1.1-2-2.1-3.3-2.2l-24.5-1.5c-1.2-0.1-2.2-1.2-2.2-2.4v-13.7c0-1.3 1-2.4 2.2-2.4l24.5-1.6c1.3-0.1 2.7-1.1 3.3-2.2q2-3.7 5.2-7.2c0.9-0.9 0.8-2.2-0.2-3l-14.6-10.5c-1-0.7-1-1.8 0.1-2.5l18.4-10.6c1.1-0.6 2.9-0.7 4.1-0.1zm27.5 29c-17.1 9.9-17.1 26 0 35.8 17.2 9.9 45 9.9 62.1 0 17.2-9.8 17.2-25.9 0-35.8-17.1-9.9-44.9-9.9-62.1 0z"/>
					<path id="&lt;Compound Path&gt;" fill-rule="evenodd" class="s8" d="m808.2 791.8l18.6 8.6c1.1 0.5 3 0.6 4.3 0.2 4.6-1.4 9.4-2.6 14.4-3.4 1.3-0.2 2.5-1.4 2.7-2.6l2.3-12.3c0.3-1.2 1.5-2.2 2.8-2.2h27c1.2 0 2.5 1 2.7 2.2l2.3 12.3c0.3 1.2 1.5 2.4 2.7 2.6 5 0.8 9.8 2 14.5 3.4 1.2 0.4 3.1 0.3 4.2-0.2l18.7-8.6c1.1-0.6 2.9-0.5 4 0.1l18.4 10.6c1.1 0.7 1.2 1.8 0.1 2.5l-14.5 10.5c-1.1 0.8-1.2 2.1-0.3 3q3.2 3.5 5.2 7.2c0.6 1.1 2 2.1 3.3 2.2l24.5 1.6c1.3 0 2.3 1.1 2.3 2.4v13.7c0 1.2-1 2.3-2.3 2.4l-24.5 1.5c-1.3 0.1-2.7 1.1-3.3 2.2q-2 3.8-5.2 7.3c-0.9 0.9-0.8 2.2 0.3 2.9l14.5 10.5c1.1 0.8 1 1.9-0.1 2.5l-18.4 10.6c-1.1 0.6-2.9 0.7-4 0.2l-18.7-8.6c-1.1-0.6-3-0.7-4.2-0.3-4.7 1.5-9.5 2.6-14.5 3.5-1.2 0.2-2.4 1.3-2.7 2.6l-2.3 12.2c-0.2 1.3-1.5 2.3-2.7 2.3h-27c-1.3 0-2.5-1-2.8-2.3l-2.3-12.2c-0.2-1.3-1.4-2.4-2.7-2.6-5-0.9-9.8-2-14.4-3.5-1.2-0.4-3.2-0.3-4.3 0.3l-18.6 8.6c-1.2 0.5-3 0.4-4.1-0.2l-18.4-10.6c-1.1-0.6-1.1-1.7-0.1-2.5l14.6-10.5c1-0.7 1.1-2 0.2-2.9q-3.2-3.5-5.2-7.3c-0.6-1.1-2-2.1-3.3-2.2l-24.5-1.5c-1.2-0.1-2.2-1.2-2.2-2.4v-13.7c0-1.3 1-2.4 2.2-2.4l24.5-1.6c1.3-0.1 2.7-1.1 3.3-2.2q2-3.7 5.2-7.2c0.9-0.9 0.8-2.2-0.2-3l-14.6-10.5c-1-0.7-1-1.8 0.1-2.5l18.4-10.6c1.1-0.6 2.9-0.7 4.1-0.1zm27.5 29c-17.1 9.9-17.1 26 0 35.8 17.2 9.9 45 9.9 62.1 0 17.2-9.8 17.2-25.9 0-35.8-17.1-9.9-44.9-9.9-62.1 0z"/>
				</g>
				<path id="&lt;Compound Path&gt;" fill-rule="evenodd" class="s8" d="m880.3 898.3h-27c-1.7 0-3.3-1.3-3.6-3l-2.4-12.3c-0.1-0.8-1.1-1.7-1.9-1.9-5.1-0.8-10-2-14.6-3.4-1-0.3-2.7-0.2-3.6 0.2l-18.6 8.6c-1.5 0.7-3.6 0.6-4.9-0.2l-18.4-10.6c-0.8-0.5-1.3-1.2-1.3-2-0.1-0.7 0.3-1.5 1.1-2l14.5-10.5q0.5-0.3 0.5-0.7c0-0.3-0.1-0.7-0.3-0.9-2.2-2.4-4-4.9-5.4-7.4-0.4-0.9-1.6-1.7-2.5-1.8l-24.5-1.5c-1.7-0.1-3.1-1.6-3.1-3.3v-13.7c0-1.7 1.4-3.2 3.1-3.3l24.5-1.6c0.9 0 2.1-0.8 2.5-1.7 1.4-2.6 3.2-5.1 5.4-7.4q0.4-0.4 0.3-0.9 0-0.5-0.5-0.8l-14.5-10.4c-0.8-0.6-1.2-1.3-1.1-2.1 0-0.8 0.5-1.5 1.3-1.9l18.4-10.6c1.3-0.8 3.4-0.9 4.9-0.3l18.6 8.7c0.9 0.4 2.6 0.5 3.6 0.2 4.6-1.5 9.5-2.6 14.6-3.5 0.8-0.1 1.8-1 1.9-1.9l2.4-12.3c0.3-1.6 1.9-2.9 3.6-2.9h27c1.7 0 3.3 1.3 3.6 2.9l2.3 12.3c0.2 0.9 1.1 1.8 2 1.9 5 0.9 9.9 2 14.5 3.5 1.1 0.3 2.7 0.2 3.7-0.2l18.6-8.7c1.4-0.6 3.5-0.5 4.9 0.3l18.4 10.6c0.8 0.4 1.2 1.1 1.3 1.9 0 0.8-0.4 1.5-1.1 2.1l-14.6 10.4q-0.4 0.3-0.5 0.8 0 0.5 0.4 0.9c2.1 2.3 3.9 4.8 5.3 7.4 0.5 0.9 1.6 1.7 2.6 1.7l24.5 1.6c1.7 0.1 3.1 1.6 3.1 3.3v13.7c0 1.7-1.4 3.2-3.1 3.3l-24.5 1.5c-1 0.1-2.1 0.9-2.6 1.8-1.4 2.5-3.2 5-5.3 7.4q-0.4 0.4-0.4 0.9 0.1 0.4 0.5 0.7l14.6 10.5c0.7 0.5 1.1 1.3 1.1 2-0.1 0.8-0.5 1.5-1.3 2l-18.4 10.6c-1.4 0.8-3.5 0.9-4.9 0.2l-18.6-8.6c-1-0.4-2.6-0.5-3.6-0.2-4.6 1.4-9.6 2.6-14.6 3.4-0.9 0.2-1.8 1.1-2 1.9l-2.3 12.3c-0.3 1.7-1.9 3-3.6 3zm-51-22.6c0.8 0 1.4 0.1 2 0.3 4.6 1.4 9.4 2.5 14.4 3.4 1.6 0.2 3.1 1.7 3.4 3.3l2.3 12.3c0.2 0.8 1 1.5 1.9 1.5h27c0.8 0 1.7-0.7 1.8-1.5l2.3-12.3c0.3-1.6 1.9-3.1 3.5-3.3 5-0.9 9.8-2 14.3-3.4 1.5-0.5 3.6-0.4 4.9 0.3l18.6 8.6c0.9 0.4 2.4 0.3 3.3-0.2l18.4-10.6c0.2-0.1 0.4-0.3 0.4-0.4 0-0.2-0.2-0.4-0.4-0.5l-14.6-10.5c-0.7-0.5-1.1-1.2-1.2-2.1 0-0.8 0.2-1.6 0.8-2.3 2.1-2.2 3.8-4.6 5.1-7 0.8-1.4 2.5-2.6 4-2.7l24.5-1.5c0.8-0.1 1.5-0.7 1.5-1.5v-13.7c0-0.8-0.7-1.5-1.5-1.5l-24.5-1.6c-1.5-0.1-3.2-1.2-4-2.7-1.3-2.4-3-4.7-5.1-7-0.6-0.6-0.8-1.5-0.8-2.3 0.1-0.8 0.5-1.5 1.2-2l14.6-10.5c0.2-0.2 0.4-0.4 0.4-0.5 0-0.2-0.2-0.3-0.4-0.5l-18.4-10.6c-0.9-0.5-2.4-0.5-3.3-0.1l-18.6 8.6c-1.3 0.6-3.4 0.8-4.9 0.3-4.5-1.4-9.3-2.6-14.3-3.4-1.7-0.3-3.2-1.7-3.5-3.3l-2.3-12.3c-0.1-0.8-1-1.5-1.8-1.5h-27c-0.9 0-1.7 0.7-1.9 1.5l-2.3 12.3c-0.3 1.6-1.8 3-3.4 3.3-5 0.8-9.9 2-14.4 3.4-1.4 0.5-3.5 0.3-4.9-0.3l-18.6-8.6c-0.9-0.4-2.4-0.4-3.2 0.1l-18.4 10.6c-0.3 0.2-0.4 0.3-0.4 0.5 0 0.1 0.1 0.3 0.3 0.5l14.6 10.5c0.7 0.5 1.1 1.2 1.2 2 0.1 0.8-0.2 1.7-0.8 2.3-2 2.2-3.8 4.6-5.1 7-0.7 1.5-2.5 2.6-4 2.7l-24.5 1.6c-0.8 0-1.4 0.7-1.4 1.5v13.7c0 0.8 0.6 1.4 1.4 1.5l24.5 1.5c1.5 0.1 3.3 1.3 4 2.7 1.3 2.4 3.1 4.8 5.1 7 0.6 0.7 0.9 1.5 0.8 2.3-0.1 0.9-0.5 1.6-1.2 2.1l-14.6 10.5c-0.2 0.1-0.3 0.3-0.3 0.5 0 0.1 0.1 0.3 0.4 0.4l18.4 10.6c0.8 0.5 2.3 0.6 3.2 0.2l18.6-8.6c0.8-0.4 1.9-0.6 2.9-0.6zm37.5-10.8c-11.4 0-22.8-2.5-31.5-7.5-8.6-4.9-13.3-11.6-13.3-18.7 0-7.1 4.7-13.7 13.3-18.7 17.3-10 45.6-10 63 0 8.5 5 13.3 11.6 13.3 18.7 0 7.1-4.8 13.8-13.3 18.7-8.7 5-20.1 7.5-31.5 7.5zm0-50.6c-11.1 0-22.2 2.4-30.6 7.3-8 4.6-12.4 10.7-12.4 17.1 0 6.5 4.4 12.5 12.4 17.2 16.9 9.7 44.3 9.7 61.2 0 8-4.7 12.4-10.7 12.4-17.2 0-6.4-4.4-12.5-12.4-17.1-8.5-4.9-19.6-7.3-30.6-7.3z"/>
			</g>
		</g>
	</g>
	<g id="Character">
		<g id="Character 16 ">
			<g id="Chair 3 ">
				<path id="&lt;Path&gt;" class="s10" d="m447.1 663.9c0.5-6.6-4.7-14-16.2-22.8-21.2-16.3-98.2-69.8-128.1-89.7 0-0.2-0.2-0.2-0.2-0.2-22.9-16.6-28.1-129.9-40.5-184.1-0.2-0.5-1-4.6-2.8-10q-0.1-0.3-0.2-0.7-0.4-1.1-0.8-2.2c-0.1-0.4-0.2-0.8-0.4-1.1-2.2-5.9-5.5-12.5-9.9-17-0.3-0.4-2.1-2.4-5.1-4.3-2.6-1.7-8.9-4.9-10.3-5.8-15.5-11.1-55.1 17.1-83 29.6-17.3 7.8-32.4 17.5-42.6 37-4.9 9.3-8.7 20.9-11.2 35.7-4.6 27.6-3.7 120.6-1.2 161.4v-0.1c2.8 68.1 12.8 69.1 26.5 81.5 23.6 21.4 92.9 65.3 116 76.6 41.9 20.4 79.4-3 106.8-13.9 27.4-10.9 79.3-36.4 91-43.5 7-4.3 10.8-8.9 11.2-14 0.1-2 0.8-10.3 1-12.4z"/>
				<path id="&lt;Path&gt;" class="s11" d="m344.9 721.2c27.4-10.9 79.3-36.3 91-43.5 15.9-9.7 15.4-20.9-5-36.6-28.3-21.8-144.5-100.5-144.5-100.5 0 0-135.1 65.1-167.1 93.5-4.9 4.3-5.1 13.4-3.4 15.5 17.6 21.9 95.7 72.6 122.2 85.5 41.9 20.5 79.4-2.9 106.8-13.9z"/>
				<path id="&lt;Path&gt;" class="s11" d="m242.9 331.8q-0.2-0.1-0.4-0.2c-3.3-2.1-7.2-3.4-11.6-3.6-14.2-1.2-36.5 8.7-70 30.4-9.6 6.1-20 13.4-28.7 21.9q-0.3 0.2-0.5 0.5c-2.6 2.5-5.1 5.2-7.4 8.2q-0.5 0.7-1.1 1.5-0.3 0.4-0.6 0.8-0.7 1-1.3 2-1.4 2-2.6 4.2-0.2 0.3-0.3 0.5-0.5 0.9-0.9 1.8h-0.1l-10.4-7.2c10.2-19.5 26-29.6 42.2-39.5 27.9-17.1 59-39.4 78.8-29.8 1.5 0.7 12.3 6.8 14.9 8.5z"/>
				<path id="&lt;Compound Path&gt;" class="s12" d="m262.1 367.1c-1.9-7.1-8.1-37.9-31.2-39.1-14.2-1.2-36.5 8.7-70 30.4-15.6 10-33.6 22.9-42.5 39.6-13.1 20.7-15.2 78.2-14.4 133.5 0.8 55.3 4.4 108.4 11.9 118.2 13.1-36.9 168.5-109.5 186.7-98.5-22.9-16.6-28.1-129.9-40.5-184.1z"/>
			</g>
			<g id="Bottom 6 ">
				<g id="&lt;Group&gt;">
					<path id="&lt;Path&gt;" class="s4" d="m165.7 547.4c-13.7 31.2-16.3 63.2-12.9 81.1 3.4 17.9 6.6 42.6 51.2 70.8 50.9 32.1 88 50.8 88 50.8l169-108.3-115.3-70.2z"/>
					<path id="&lt;Path&gt;" class="s6" d="m165.7 547.4c-13.7 31.2-16.3 63.2-12.9 81.1 3.4 17.9 6.6 42.6 51.2 70.8 50.9 32.1 88 50.8 88 50.8l169-108.3-115.3-70.2z"/>
				</g>
				<path id="&lt;Path&gt;" class="s13" d="m208.5 664.6q-2.1-2.3-4.1-4.6c13-3.4 20.6-19.5 19-37.7-1-10.4-2-22.2-0.6-33.3l-2.3-0.3c-1.4 11.4-0.3 23.3 0.6 33.8 1.6 18.4-6.1 33.2-18.4 35.6-24.7-29.7-20.9-58.6-8.8-96.9l-2.2-0.6c-13.2 41.9-15.2 72.7 15.1 105.5 19.9 21.6 74.3 51 106.1 70.6l2.1-1.4c-31.7-19.5-86.6-49.2-106.5-70.7z"/>
				<path id="&lt;Path&gt;" class="s13" d="m347.2 603.1c-6.9 22.2-21.3 32.8-21.3 32.8 26.9 19.6 49 37.8 64.4 51.2l18.8-12.1-66.1-44.4c7.7-15.7 4.2-27.5 4.2-27.5z"/>
			</g>
			<g id="Desk 4 ">
				<g id="&lt;Group&gt;">
					<path id="&lt;Path&gt;" class="s4" d="m423.1 934.8l-296.9-171.4 494.5-285.4 297 171.4z"/>
					<path id="&lt;Path&gt;" class="s14" d="m423.1 934.8l-296.9-171.4 494.5-285.4 297 171.4z"/>
				</g>
				<g id="&lt;Group&gt;">
					<path id="&lt;Path&gt;" class="s4" d="m126.2 763.4v21.4l296.9 171.5v-21.5z"/>
					<path id="&lt;Path&gt;" class="s8" d="m126.2 763.4v21.4l296.9 171.5v-21.5z"/>
				</g>
				<g id="&lt;Group&gt;">
					<path id="&lt;Path&gt;" class="s4" d="m423.1 956.3l494.6-285.5v-21.4l-494.6 285.4z"/>
					<path id="&lt;Path&gt;" class="s7" d="m423.1 934.8l494.6-285.4v21.4l-494.6 285.5z"/>
				</g>
			</g>
			<g id="Laptop 1 ">
				<path id="&lt;Path&gt;" class="s15" d="m721 635.1l-129.1-74.5c-2.3-1.3-5.1-1.3-7.4 0l-223.9 129.3c-1.1 0.6-1.1 2.2 0 2.8l130.3 75.3z"/>
				<g id="Laptop 2 ">
					<g id="&lt;Group&gt;">
						<path id="&lt;Path&gt;" class="s12" d="m711.3 619.4v2.9c0 4.3-2.2 8.2-5.9 10.3l-208.6 120.4c-1.8 1.1-3.9 1.6-5.9 1.6-2.1 0-4.1-0.5-6-1.6l-113.7-65.4c-3.6-2.1-5.9-6.1-5.9-10.3v-4c0 0.5 0.2 1 0.8 1.3l124.8 72.1z"/>
						<path id="&lt;Path&gt;" class="s11" d="m711.3 619.4l-123.6-71.4c-2.2-1.2-4.9-1.2-7.1 0l-214.5 123.9c-1.1 0.6-1.1 2.1 0 2.7l124.8 72.1z"/>
						<path id="&lt;Path&gt;" class="s10" d="m490.9 746.7v7.9c2 0 4.1-0.5 5.9-1.6l208.6-120.4c3.7-2.1 5.9-6 5.9-10.3v-2.9z"/>
					</g>
					<g id="&lt;Group&gt;">
						<path id="&lt;Path&gt;" class="s12" d="m489.7 736.2l-66.7-38.5 195.1-112.6 67 38.3z"/>
						<path id="&lt;Path&gt;" class="s10" d="m685.1 623.4l-2.5 1.5-64.5-36.8-192.5 111.1-2.5-1.5 195-112.6z"/>
					</g>
					<g id="&lt;Group&gt;">
						<path id="&lt;Path&gt;" class="s10" d="m457 629.2l1.2 0.7 32.7 18.9 58.1-33.6 1.2-0.7-33.9-19.6z"/>
						<path id="&lt;Path&gt;" class="s12" d="m458.2 629.9l32.7 18.9 58.1-33.6-32.7-18.9z"/>
					</g>
				</g>
				<path id="Hand" class="s16" d="m533.1 563.4c-7.2-10.5-15.7-19.6-21.6-24.4-9.7-7.9-13.7-10.4-31.3-18.8l-26.1 35.1 7.9 2.4c3.2 1.2 5 1.5 6.3 4.5 0.7 1.7 0.8 6.3 1.5 10.5 0.6 4.2 1 8.9 3.8 17.2 2.7 8.3 4.5 7.7 9.5 14.3 4.6 6.1 6.4 10.1 9 9.8 2.6-0.3 5.7-5.3 4.4-10.9-1.3-5.7-6-13.7-6.6-16.1-0.6-2-1.6-5.8 4.5-3.9 6.3 2 17.3 15.8 22.8 21.5 5.5 5.7 8.9 14.4 14 18.2 5.1 3.8 12.9 3.6 10.7-4.7 0.8-4.8 3.8-13.1 4.5-20.8 0.7-7.7-7.6-25.7-13.3-33.9z"/>
				<g id="Screen">
					<path id="&lt;Path&gt;" class="s12" d="m494.2 748.5c4 1.5 8.5 1.2 12.2-1l207.6-119.9c3.7-2.1 6.2-5.7 6.9-9.8l22.7-135.6q0.2-1.1 0.2-2.3c0-3.8-1.5-7.4-4.2-10l-215.7 124.5c-2.7 1.6-4.6 4.3-5.1 7.4z"/>
					<path id="&lt;Path&gt;" class="s11" d="m490.9 746.7l1.4 0.8q0.9 0.5 1.9 1l24.6-146.7c0.5-3.1 2.4-5.8 5.1-7.4l215.7-124.5q-1.2-1.3-2.8-2.2l-216.2 124.8c-2.7 1.6-4.6 4.2-5.1 7.3z"/>
					<path id="&lt;Path&gt;" class="s10" d="m520.8 597.2l-3.3-1.9c-1 1.3-1.7 2.8-2 4.5l-24.6 146.9 1.4 0.8q0.9 0.5 1.9 1l24.6-146.7c0.3-1.7 1-3.3 2-4.6z"/>
					<path id="&lt;Path&gt;" class="s4" d="m615.5 620.8c1.1-6.9 8.3-16.1 16-20.5 7.6-4.5 12.9-2.4 11.7 4.5-1.1 6.9-8.3 16.2-16 20.6-7.6 4.4-12.9 2.4-11.7-4.6z"/>
				</g>
			</g>
			<g id="Body">
				<g id="&lt;Group&gt;">
					<path id="&lt;Path&gt;" class="s16" d="m340.1 340.4c13.7 3.3 34 9.6 42.8 37.4 10.6 33.1 21.6 108.1 21.6 108.1l75.7 34.3-26.1 35.1c0 0-55.7-13.8-82.6-21.6-29.1-8.5-28.1-17.2-37.4-65.1-6-31-12.4-69.1-12.4-69.1 3-26.1 18.4-59.1 18.4-59.1z"/>
					<path id="&lt;Path&gt;" class="s17" d="m341.9 339.9c21.9 5.1 29.9 13.6 37.2 24.2 7.3 10.6 14.5 46.9 20.1 75 5.6 28.2 8.1 45.5 8.1 45.5l40.6 21c0 0-9.9-1.9-19.3 16.5-6 11.7-2.9 26.1-2.9 26.1 0 0-53.1-10.9-63.3-14.5-10.1-3.5-17.1-7-22.4-24-5.3-17.1-22.1-114.2-22.1-114.2z"/>
				</g>
				<g id="Chest">
					<path id="&lt;Path&gt;" class="s10" d="m361.5 367.5c-10.1-17.1-18.2-25-21.4-27.1-10-3-43.6-5.6-60.4-1.7-29.8 4.1-51.3 9-72.8 16.9-7.2 2.6-11.3 10.4-13.2 15-3.9 9.8-4.7 34.2-4.9 47.3-0.5 31.6 0.7 55.6-4 77.5-2.8 13.3-24 44.1-32 95.3 73.1 67.5 187.7 7.3 192.9-19.1 0 0-3.2-18.1-7.3-39.6 0-7 10.1-33.6 9.8-33.2 50.4-26.3 41.7-85.1 13.3-131.3z"/>
					<path id="&lt;Path&gt;" class="s18" d="m325.9 493.6c-11.3 12.2-55.2 19.2-80-10.2 3.8 24.8 55.7 43.6 80 10.2z"/>
				</g>
				<g id="Head">
					<path id="&lt;Path&gt;" class="s10" d="m384.2 241.1c-5.8 9.7-2.6 17.5-7.9 27.5-1.9 3.6-99.6 27.5-116.4 34.4 0 0-4.8-16.4-12.8-32.6-9.2-18.3-13.2-36.9-10.6-50.7 2.9-16 13.3-21.4 18.4-21.4 0-13.1 14.3-31 43.9-37.5 59.1-13 113.2 34 85.4 80.3z"/>
					<path id="&lt;Path&gt;" class="s16" d="m371.3 205.3c3.9 1.3 6.8 4.5 8.4 8.3 3.3 8.1 8 27.4 0.6 64.1-6.4 31.9-17.4 46.3-28.8 50.8-6.9 2.8-22.9 1.6-32.6-0.9 0 0-0.4 0.9-1.3 4.1-1.4 5 2.4 5.7 2.4 5.7 0 0 26.2 35.8-9.4 41.2-15.7 2.4-30.8-1.8-44-10.6-16.5-10.9-20.1-14.7-28.7-21.7 11.8-3.1 13-6.1 15.9-16.4 5.2-18.5 9.9-48.1 9.9-48.1 0 0-9.3 8.2-18.2-2.9-10.5-13-11.5-32.1 0-38.7 14-8.2 23.1 1.6 26.2 11.5 3 9 12.8 10.4 16.5 0.1 5.1-14.7 4.3-33.9 20.8-44.5 10.4-6.7 26.4-6.7 41.3 10.4 7.6-11.9 14.8-14.5 21-12.4z"/>
					<g id="&lt;Group&gt;">
						<g id="&lt;Group&gt;">
							<path id="&lt;Path&gt;" class="s19" d="m321.1 287.8l18.6 7.2c-1.9 5.3-7.6 8.1-12.7 6.1-5.2-2-7.8-8-5.9-13.3z"/>
							<path id="&lt;Path&gt;" class="s20" d="m320.7 293.3c0.8 0.1 1.5 0.1 2.3 0.3 4.5 1 7.9 4 9.7 7.8-1.8 0.5-3.8 0.4-5.7-0.3-3.4-1.3-5.7-4.3-6.3-7.8z"/>
						</g>
						<g id="&lt;Group&gt;">
							<path id="&lt;Path&gt;" class="s10" d="m326.3 230.2l-14.3 4.7c-1.5-4 0.5-8.2 4.5-9.5 4-1.3 8.4 0.8 9.8 4.8z"/>
							<path id="&lt;Path&gt;" class="s10" d="m362.7 238.5l13.4 7c2.1-3.6 0.8-8.2-2.9-10.1-3.7-2-8.4-0.6-10.5 3.1z"/>
							<path id="&lt;Path&gt;" class="s10" d="m359.5 254.7c-0.1 3.1 2.4 5.9 5.6 6.1 3.1 0.2 5.8-2.2 6-5.4 0.1-3.1-2.4-5.8-5.6-6.1-3.2-0.2-5.9 2.2-6 5.4z"/>
							<path id="&lt;Path&gt;" class="s10" d="m316 252.2c-0.6 3.1 1.4 6.2 4.6 6.9 3.1 0.7 6.1-1.3 6.7-4.4 0.6-3.1-1.5-6.2-4.6-6.9-3.1-0.6-6.1 1.3-6.7 4.4z"/>
						</g>
						<path id="&lt;Path&gt;" class="s20" d="m342.5 247.6l-2.4 34.2 20.4-3.8z"/>
						<path id="&lt;Path&gt;" class="s20" d="m271.5 287.8c0 0-3.3 17.9 6.8 28.5 11.9 12.6 31.3 17.3 39.2 18.8-0.3-0.8-0.3-1.9 0.1-3.4 0.9-3.2 1.3-4.1 1.3-4.1-8.5-2.4-25.6-7.3-35.3-15.7-5.2-4.5-11.1-11.6-12.1-24.1z"/>
					</g>
					<path id="&lt;Path&gt;" class="s4" d="m259.4 273.5c0 2.3-1.9 4.1-4.1 4.1-2.3 0-4.2-1.8-4.2-4.1 0-2.2 1.9-4.1 4.2-4.1 2.2 0 4.1 1.9 4.1 4.1z"/>
				</g>
				<g id="Coat">
					<path id="&lt;Path&gt;" class="s1" d="m253.8 329.9c0 0 0.9 15.2 5 26.2 7.8 20.6 18.9 46.1 36.2 69.2 17.2 23.1 42.6 52.7 42.6 52.7 0 0 18.4-51.1-1.8-106-4.7-12.7-10.7-24.8-13.8-30.7-0.9-1.8-2.3-3.3-3.8-4.7-0.7-0.8-1.3-2.2-0.6-4.9l0.8-2.7c0 0 3.2 2.6 8.3 5.1 5.1 2.6 11.4 4.5 13 5.1 1.7 0.6 2.2 0.7 2.2 0.7 0 0 14.6 13.1 23.4 28.3 13.5 23.3 22.1 50.7 21.3 69.5-1.2 32.8-13.5 46.1-28 61-9.2 9.3-11.8 60-2.6 71.8 9.2 11.8 28.4 24.4 28.4 24.4 0 0-27 4.6-76.5 28.9-49.4 24.4-77.5 46-85.4 59.3-7.9 13.2-7.6 25.2-7.6 25.2 0 0-37.2-19-51.3-37.5-14.1-18.6-19.4-47.3-16.3-73.6 3.1-26.4 60.1-243.9 60.1-243.9 0 0 24.2-13.1 34.7-20.9 5.3-3.9 11.4-7.7 13-7.3z"/>
					<path id="&lt;Compound Path&gt;" fill-rule="evenodd" class="s0" d="m337.1 479.9c-11.2-5.8-22.2-12-33-18.4q-8.2-4.8-16.2-9.8c-5.4-3.3-10.7-6.7-16-10.2-5.2-3.5-10.5-7-15.6-10.8-5.2-3.8-10.3-7.4-15.2-12.1q-0.9-0.9-1.9-2c-0.3-0.4-0.6-0.7-0.9-1.3-0.2-0.2-0.4-0.4-0.6-0.8-0.1-0.3-0.3-0.6-0.5-1.2-0.1-0.2-0.2-0.5-0.2-0.7l-0.1-0.5-0.1-0.9c0-0.5 0-1.1 0-1.6q0.1-1.6 0.4-3c0.9-3.7 2.3-6.8 3.8-9.8 1.6-2.9 3.3-5.7 5.2-8.4-2.8 0.3-5.5 0.6-8.7 0.3-0.8-0.2-1.8-0.3-2.9-0.8-0.6-0.2-1.2-0.6-1.9-1.1-0.6-0.6-1.2-1.5-1.5-2.4q-0.1-0.8-0.1-1.4c0-0.4 0-0.4 0-0.6l0.1-1.1 0.1-2.2c0.2-2.9 0.4-5.8 0.8-8.7 0.7-5.8 1.6-11.6 3.1-17.2 1.4-5.7 3.3-11.2 5.8-16.5-1.4 5.7-2.2 11.3-2.8 17q-0.9 8.5-1 17c0 2.9 0 5.7 0 8.6l0.1 2.1v0.6q0.3 0 0.9 0.1c2.2 0 5-0.4 7.6-0.9 2.7-0.5 5.5-1.2 8.1-2 1.9-0.6 4 0.6 4.6 2.5 0.4 1.2 0.1 2.4-0.5 3.4l-0.2 0.1c-3.6 4.8-7.1 10-9.8 15.2-1.3 2.7-2.5 5.4-3 7.8q-0.2 0.9-0.2 1.7c-0.1 0.3 0 0.5 0 0.7v0.2q0 0 0.1 0.1c0 0.1 0.3 0.4 0.4 0.6q0.6 0.7 1.4 1.4c4.1 4.1 9.2 7.9 14.1 11.7 5 3.7 10 7.4 15.1 11.1l30.7 21.9c10.2 7.3 20.5 14.7 30.5 22.3zm-99.8-97q0-0.1 0-0.1c0 0 0 0.1 0 0.1z"/>
					<path id="&lt;Path&gt;" class="s0" d="m335 489.8c-0.4 9.3-1.4 18.5-2.5 27.8-1 9.2-2.3 18.4-3 27.6-0.4 4.7-0.7 9.3-0.7 13.9 0 4.6 0.3 9.2 1.3 13.6 1 4.5 2.4 9 4.3 13.2 1.8 4.2 4.1 8.3 7.4 11.6-1.8-1.5-3.3-3.3-4.7-5.2q-2-2.9-3.6-6c-2.1-4.2-3.7-8.6-4.9-13.2-1.3-4.6-1.6-9.3-1.6-14-0.1-4.7 0.2-9.4 0.5-14 0.9-9.3 2.1-18.5 3.5-27.7 1.4-9.2 2.7-18.4 4-27.6z"/>
					<path id="&lt;Compound Path&gt;" fill-rule="evenodd" class="s0" d="m369.9 391.3c0.1 3-0.2 5.8-0.5 8.6-0.7 5.6-1.6 11-2.9 16.3-1.2 5.4-2.6 10.7-4.1 16-1.6 5.2-3.3 10.4-5.3 15.5-2 5.1-4.1 10.2-6.6 15.1-2.4 4.9-5.2 9.7-8.7 13.9 4.8-9.8 7.6-20.2 10.4-30.6 1.3-5.2 2.6-10.4 3.8-15.6 1.1-5.3 2.3-10.5 3.2-15.8 0.9-5.2 1.8-10.5 2.4-15.7 0.2-2.5 0.4-5.1 0.3-7.5 0-1.2-0.1-2.4-0.3-2.9-0.2-0.7-0.7-1.8-1.4-2.7-1.2-1.9-2.8-3.9-4.6-5.8-1.7-1.9-3.6-3.8-5.5-5.6-3.7-3.7-7.9-7.2-11.9-10.5l-0.2-0.2c-1.3-1.2-1.5-3.2-0.4-4.5 0.7-0.8 1.8-1.2 2.7-1.1 1.6 0.1 3.5 0.2 5.1 0 0.8 0 1.5-0.2 2-0.4q0.1 0 0.2 0c-0.1-0.2-0.2-0.3-0.3-0.5q-0.7-1.1-1.5-2.2c-1.1-1.4-2.3-2.8-3.6-4.2-2.4-2.9-5-5.6-7.6-8.4l-7.9-8.4c3.2 2.1 6.3 4.4 9.4 6.7q4.6 3.4 9 7.2c1.4 1.3 2.9 2.6 4.3 4q1 1.1 2 2.3 0.6 0.7 1.1 1.5l0.2 0.6c0.1 0.1 0.2 0.3 0.3 0.7 0.1 0.6 0.1 1.1 0.1 1.6-0.1 1.1-0.7 2.3-1.4 2.9-0.3 0.4-0.6 0.6-1 0.8-0.3 0.3-0.6 0.4-0.9 0.6q-0.7 0.3-1.4 0.5 3.4 2.7 6.7 5.6c2.1 1.8 4.2 3.6 6.1 5.7 2 2.1 3.9 4.3 5.6 6.8 0.9 1.3 1.7 2.6 2.4 4.5 0.6 2.1 0.6 3.6 0.7 5.2zm-22.2-33.2q0.1 0.1 0.1 0.2c0 0.1 0 0.1 0 0v-0.1q0 0-0.1-0.1z"/>
					<path id="&lt;Path&gt;" class="s0" d="m229.1 486c0 0 37.9 6.3 63.9-1.2v-13.5c-26 7.5-63.9 1.2-63.9 1.2z"/>
				</g>
				<g id="Arm 11 ">
					<g id="&lt;Group&gt;">
						<path id="&lt;Path&gt;" class="s16" d="m134.1 516.9c8.2-47.1 16.2-86.1 27.1-120 6.5-20 22-31.1 45.7-41.3 25.5 18.1 14.8 74.9 11.2 88.2l-20.1 80.8c0 0 21.8 17.6 45.1 34.6 19.6 14.4 32.8 23 56 25.8 23.2 2.7 32.6 1.9 44.7 7.2 6.4 2.8 21.1 9.3 26.1 11.8 5.1 2.5 14 11.6 22.3 17.7 7.9 6.2-1.9 9.7-8 7.9-7.9-2.3-12.8-5.8-18.2-8.8-5.1-2.9-10.3-4-15.6-6 1.2 4 3.3 14.1 3.3 18.3 0 3.3 0.7 7.3-2.2 9.8-1.6 1.4-5 2.2-6.9 2.9 0 0-0.1 1.8-1.4 3.2-1.4 1.4-4.1 1.6-5.9 1.5-1.5-0.1-3.4-0.5-3.4-0.5-0.1 2.2-2.3 4.2-3.8 4.8-5.2 2.1-13 1-14.2 0.5-0.7-0.3-6-3.1-7.6-3.9-2.2-1.2-4.2-1.8-5.2-3.3-1.1-1.7 2.1-5.7 4.8-6.2 3-0.6 7.2 0.3 9.1 0.6-1.2-2.6-2.2-4.8-2.7-7.8-2.4-4-20.2 0.1-36.1-2.6-11.9-2.1-20.5-13.4-25.9-15.9-34.4-15.4-60.6-26.2-95.4-47.2-31.7-19.1-27.1-27.6-22.8-52.1z"/>
						<g id="&lt;Group&gt;">
							<path id="&lt;Path&gt;" class="s20" d="m353.4 615.9c-1.8-4.5-4.6-9.9-8.1-11.1 2.1 2.2 4.5 8.4 5.1 10q1.5 0.6 3 1.1z"/>
							<path id="&lt;Path&gt;" class="s20" d="m344.6 645.8c0.6-3.3 0.5-6.6 0.3-9.9-0.3-3.2-0.7-6.5-1.3-9.7-0.7-3.2-1.3-6.5-2.7-9.6-1.4-2.9-3.1-6-5.9-7.8 1.2 1.1 2 2.5 2.7 4q1.1 2.1 1.9 4.4c1 3 1.5 6.1 2.1 9.3 0.7 3.2 1.2 6.4 1.7 9.6 0.5 3.2 1 6.4 1.2 9.7z"/>
							<path id="&lt;Path&gt;" class="s20" d="m333.9 650c0.4-3.2 0.2-6.4 0-9.6-0.3-3.3-0.8-6.4-1.5-9.6-0.7-3.1-1.5-6.3-2.6-9.3-1.2-3-2.3-6.2-5-8.3 1.1 1.2 1.6 2.7 2.2 4.2q0.8 2.2 1.4 4.5 1.2 4.6 2.2 9.3c1.3 6.2 2.5 12.4 3.3 18.8z"/>
							<path id="&lt;Path&gt;" class="s20" d="m307.9 641.9c1.5 0.1 2.8 0.2 4 0.6 1.3 0.3 2.2 0.9 3.8 1.4l-0.6-1c-0.1 0.8 0 1.3 0.2 1.9 0.2 0.6 0.6 1.1 1 1.5 0.7 0.9 1.6 1.5 2.7 1.8-0.7-0.9-1.3-1.7-1.7-2.5-0.2-0.4-0.3-0.9-0.4-1.3 0-0.3 0-0.8 0-1.1l0.1-0.7-0.8-0.3c-1-0.4-2.2-0.7-3.7-0.8-1.6-0.1-3.3-0.3-4.6 0.5z"/>
						</g>
					</g>
					<path id="&lt;Path&gt;" class="s17" d="m207.4 353.3c-32.1 15.1-37.8 20.3-47.4 37.5-9.6 17.2-14.4 39-21 76.5-6.1 35.2-14.4 69-9.6 79.8 4.7 10.8 9.3 12.8 26.1 23.4 16.8 10.6 57.6 28.1 57.6 28.1 0 0 0.6-15.5 9.1-25.9 12.8-15.8 20.9-13.5 20.9-13.5l-40.7-35.6c0 0 17.4-73.3 21.7-90.6 4.2-17.3 9.8-65-16.7-79.7z"/>
				</g>
			</g>
		</g>
		<g id="Books 2 ">
			<path id="&lt;Path&gt;" class="s15" d="m362.1 880.2l104.4-60.2c4.1-2.4 4.1-6.3 0-8.7l-150.7-87.1c-4.1-2.4-10.8-2.4-14.9 0l-104.4 60.2c-4.1 2.4-4.1 6.3 0 8.6l150.6 87.2c4.2 2.3 10.9 2.3 15 0z"/>
			<g id="Book 5 ">
				<g id="&lt;Group&gt;">
					<path id="&lt;Path&gt;" class="s4" d="m444.9 815.8l-92.5 52.2-142.2-81.5 92.6-52.3z"/>
					<path id="&lt;Path&gt;" class="s21" d="m444.9 815.8l-92.5 52.2-142.2-81.5 92.6-52.3z"/>
				</g>
				<path id="&lt;Path&gt;" class="s22" d="m351.4 864.2l89.4-50.8c-2.2-6.3-2-8.2 0.5-16.6l-88.9 50.3c0 0-1.7-0.1-1 17.1z"/>
				<g id="&lt;Group&gt;">
					<path id="&lt;Path&gt;" class="s4" d="m356.7 840.2c-4.5 2.6-8.2 8.9-8.2 14.1v11c0 5.1 3.7 7.2 8.2 4.6l88.2-50.1v-4l-87.1 49.1c-2.7 1.6-4.9 0.3-4.9-2.8l0.1-9.8c0-3.1 2.2-6.9 4.9-8.4l87-49.2v-4.6z"/>
					<path id="&lt;Path&gt;" class="s23" d="m356.7 840.2c-4.5 2.6-8.2 8.9-8.2 14.1v11c0 5.1 3.7 7.2 8.2 4.6l88.2-50.1v-4l-87.1 49.1c-2.7 1.6-4.9 0.3-4.9-2.8l0.1-9.8c0-3.1 2.2-6.9 4.9-8.4l87-49.2v-4.6z"/>
				</g>
				<g id="&lt;Group&gt;">
					<path id="&lt;Path&gt;" class="s4" d="m444.9 790.1l-142.1-81.6-88.3 50.1c-4.5 2.6-8.1 8.9-8.1 14.1v11c0 2.6 0.9 4.4 2.4 5.2l142.1 81.6c-1.5-0.8-2.4-2.7-2.4-5.2v-11c0-5.2 3.7-11.5 8.2-14.1z"/>
					<path id="&lt;Path&gt;" class="s13" d="m444.9 790.1l-142.1-81.6-88.3 50.1c-4.5 2.6-8.1 8.9-8.1 14.1v11c0 2.6 0.9 4.4 2.4 5.2l142.1 81.6c-1.5-0.8-2.4-2.7-2.4-5.2v-11c0-5.2 3.7-11.5 8.2-14.1z"/>
				</g>
				<g id="&lt;Group&gt;">
					<path id="&lt;Path&gt;" class="s4" d="m350.9 846.3c-1.5 2.5-2.4 5.4-2.4 8v11c0 2.5 0.9 4.4 2.4 5.2l-142.1-81.6c-1.5-0.8-2.4-2.6-2.4-5.2v-11c0-2.6 0.9-5.5 2.4-8z"/>
					<path id="&lt;Path&gt;" class="s23" d="m350.9 846.3c-1.5 2.5-2.4 5.4-2.4 8v11c0 2.5 0.9 4.4 2.4 5.2l-142.1-81.6c-1.5-0.8-2.4-2.6-2.4-5.2v-11c0-2.6 0.9-5.5 2.4-8z"/>
				</g>
				<g id="&lt;Group&gt;">
					<path id="&lt;Path&gt;" class="s4" d="m228 775.6c-2.7 11.5-2.6 16 0 24.4l6.7 3.9c-2.6-8.4-2.6-12.9 0-24.4z"/>
					<path id="&lt;Path&gt;" class="s4" d="m321.2 829.2c-2.6 11.5-2.6 15.8 0 24.3l6.8 3.9c-2.6-8.5-2.7-12.8 0-24.3z"/>
				</g>
			</g>
			<g id="Book 4 ">
				<g id="&lt;Group&gt;">
					<path id="&lt;Path&gt;" class="s4" d="m463.6 788.7l-92.6 52.3-142.1-81.6 92.5-52.3z"/>
					<path id="&lt;Path&gt;" class="s24" d="m463.6 788.7l-92.6 52.3-142.1-81.6 92.5-52.3z"/>
				</g>
				<g id="&lt;Group&gt;">
					<path id="&lt;Path&gt;" class="s22" d="m370 837.2l89.5-50.9c-2.2-6.3-2.1-9.1 0.4-17.5l-88.9 50.3c0 0-1.6 0.8-1 18.1z"/>
				</g>
				<g id="&lt;Group&gt;">
					<path id="&lt;Path&gt;" class="s4" d="m375.4 812.2c-4.5 2.6-8.2 8.9-8.2 14.1v11.9c0 5.2 3.7 7.3 8.2 4.7l88.2-50.1v-4.1l-87.1 49.2c-2.7 1.5-4.9 0.3-4.9-2.8l0.1-10.7c0-3.1 2.2-6.9 4.9-8.5l87-49.2v-4.6z"/>
					<path id="&lt;Path&gt;" class="s13" d="m375.4 812.2c-4.5 2.6-8.2 8.9-8.2 14.1v11.9c0 5.2 3.7 7.3 8.2 4.7l88.2-50.1v-4.1l-87.1 49.2c-2.7 1.5-4.9 0.3-4.9-2.8l0.1-10.7c0-3.1 2.2-6.9 4.9-8.5l87-49.2v-4.6z"/>
				</g>
				<path id="&lt;Path&gt;" class="s4" d="m463.6 762.1l-142.2-81.6-88.2 50.2c-4.5 2.5-8.2 8.9-8.2 14v11.9c0 2.6 1 4.4 2.4 5.3l142.2 81.6c-1.5-0.9-2.4-2.7-2.4-5.3v-11.9c0-5.2 3.7-11.5 8.2-14.1z"/>
				<g id="&lt;Group&gt;">
					<path id="&lt;Path&gt;" class="s4" d="m369.6 818.3c-1.5 2.5-2.4 5.4-2.4 8v11.9c0 2.6 0.9 4.4 2.4 5.3l-142.2-81.6c-1.4-0.9-2.4-2.7-2.4-5.3v-11.9c0-2.6 1-5.4 2.4-8z"/>
					<path id="&lt;Path&gt;" class="s6" d="m369.6 818.3c-1.5 2.5-2.4 5.4-2.4 8v11.9c0 2.6 0.9 4.4 2.4 5.3l-142.2-81.6c-1.4-0.9-2.4-2.7-2.4-5.3v-11.9c0-2.6 1-5.4 2.4-8z"/>
				</g>
				<g id="&lt;Group&gt;">
					<path id="&lt;Path&gt;" class="s4" d="m246.6 747.6c-2.6 11.5-2.6 16.9 0 25.4l6.8 3.9c-2.6-8.5-2.6-13.9 0-25.4z"/>
					<path id="&lt;Path&gt;" class="s4" d="m339.9 801.3c-2.7 11.5-2.6 16.7 0 25.1l6.8 3.9c-2.7-8.4-2.7-13.6 0-25.2z"/>
				</g>
				<g id="&lt;Group&gt;" style="opacity: .4">
					<path id="&lt;Path&gt;" class="s2" d="m246.6 747.6c-2.6 11.5-2.6 16.9 0 25.4l6.8 3.9c-2.6-8.5-2.6-13.9 0-25.4z"/>
					<path id="&lt;Path&gt;" class="s2" d="m339.9 801.3c-2.7 11.5-2.6 16.7 0 25.1l6.8 3.9c-2.7-8.4-2.7-13.6 0-25.2z"/>
				</g>
			</g>
		</g>
		<g id="Pen 2 ">
			<path id="Shadow 20 " class="s9" d="m655.9 733.2l-110.8 64.1-15.4 3.1c-0.4 0.1-0.7-0.3-0.5-0.7l4.8-8.8 110.8-64.1c3.1-1.7 13.4 5.1 11.1 6.4z"/>
			<g id="Pen 3 ">
				<g id="&lt;Group&gt;">
					<path id="&lt;Compound Path&gt;" fill-rule="evenodd" class="s4" d="m645.2 720.5c0 2.6 1.9 5.8 4.1 7.1 0.9 0.5 1.7 0.7 2.4 0.5q-0.2 0.2-0.4 0.4l0.9-0.6q0.1 0 0.1 0 0.1-0.1 0.1-0.1 0.1-0.1 0.2-0.2 0.1 0 0.1-0.1 0.1 0 0.1 0 0-0.1 0.1-0.1 0.2-0.3 0.3-0.7 0-0.1 0.1-0.2 0 0 0-0.1 0 0 0-0.1 0.2-0.5 0.2-1.1c0-2.6-1.9-5.8-4.2-7.1q-1-0.6-1.8-0.5-0.2 0-0.3 0h-0.2q-0.1 0-0.2 0v0.1q-0.1 0-0.2 0v0.1q-0.1 0-0.2 0l-0.9 0.5q0.2-0.1 0.5-0.1c-0.5 0.5-0.8 1.3-0.8 2.3zm6.8 7.5q0 0 0.1 0-0.1 0-0.1 0z"/>
					<path id="&lt;Path&gt;" class="s3" d="m538.8 780l5.8 10.1 1-0.6 105.7-61q0.2-0.2 0.4-0.4c0.5-0.5 0.8-1.3 0.8-2.3 0-2.6-1.9-5.8-4.2-7.1q-1-0.6-1.8-0.6-0.3 0-0.5 0.1-0.3 0-0.5 0.1 0 0 0 0.1h-0.1q0 0 0 0z"/>
					<path id="&lt;Path&gt;" class="s4" d="m541.7 780.3c-2.3-1.3-4.1-0.3-4.1 2.4 0 2.6 1.8 5.8 4.1 7.1 2.2 1.3 4.1 0.2 4.1-2.4 0-2.6-1.9-5.8-4.1-7.1z"/>
				</g>
				<path id="&lt;Path&gt;" class="s0" d="m532.8 786.4q0.1-0.1 0.1-0.1l5.3-5.8q0 0 0 0 0.1-0.1 0.1-0.2h0.1c0.7-0.7 1.9-0.8 3.3 0 2.2 1.3 4.1 4.5 4.1 7.1 0 1.5-0.6 2.5-1.6 2.8l-0.1 0.1q-0.1 0-0.3 0 0 0 0 0l-7.7 1.7q-0.5 0.1-1.3-0.3c-1.3-0.7-2.3-2.6-2.3-4.1q0-0.8 0.3-1.2z"/>
				<g id="&lt;Group&gt;">
					<path id="&lt;Path&gt;" class="s11" d="m600.1 748.9q0 0 0 0l0.2-0.1q0.4-0.1 0.9 0.2c0.8 0.4 1.5 1.6 1.5 2.5q0 0.6-0.4 0.9 0 0 0 0l-0.1 0.1-62.6 36.1-4.1-2.4z"/>
					<path id="&lt;Path&gt;" class="s12" d="m545.4 785.2l-5.8 3.4-4.1-2.4 7.9-4.5c0.9 1 1.6 2.3 2 3.5z"/>
				</g>
				<g id="&lt;Group&gt;">
					<g id="&lt;Group&gt;">
						<path id="&lt;Path&gt;" class="s4" d="m530.8 789.1l4.7-5.2q0.1-0.1 0.1-0.1c0.6-0.6 1.4-0.6 2.4-0.1 1.6 1 2.9 3.2 2.9 5.1 0 1.1-0.4 1.8-1.1 2q0 0-0.1 0h-0.1l-7 1.6q-0.4 0-0.8-0.2c-0.7-0.4-1.3-1.5-1.3-2.3q0-0.5 0.3-0.8z"/>
						<path id="&lt;Path&gt;" class="s6" d="m530.8 789.1l4.7-5.2q0.1-0.1 0.1-0.1c0.6-0.6 1.4-0.6 2.4-0.1 1.6 1 2.9 3.2 2.9 5.1 0 1.1-0.4 1.8-1.1 2q0 0-0.1 0h-0.1l-7 1.6q-0.4 0-0.8-0.2c-0.7-0.4-1.3-1.5-1.3-2.3q0-0.5 0.3-0.8z"/>
					</g>
					<g id="&lt;Group&gt;">
						<path id="&lt;Path&gt;" class="s4" d="m530.5 789.9c0 0.8 0.6 1.9 1.3 2.3q0.4 0.2 0.8 0.2l3.5-0.8c0.6-0.1 0.9-0.7 0.9-1.5 0-1.3-0.9-3-2.1-3.7-0.7-0.4-1.3-0.3-1.7 0l-0.1 0.1-2.3 2.6q-0.3 0.3-0.3 0.8z"/>
						<path id="&lt;Path&gt;" class="s6" d="m531.8 789.1c-0.7-0.4-1.3 0-1.3 0.8 0 0.8 0.6 1.9 1.3 2.3 0.7 0.4 1.3 0.1 1.3-0.8 0-0.8-0.6-1.8-1.3-2.3z"/>
					</g>
				</g>
				<g id="&lt;Group&gt;">
					<path id="&lt;Path&gt;" class="s1" d="m636.6 727.8c0.3-0.2 0.7-0.1 1.1 0.1 0.8 0.5 1.4 1.6 1.4 2.5 0 0.5-0.1 0.8-0.4 1l-36.4 21q0.4-0.3 0.4-0.9c0-0.9-0.7-2.1-1.5-2.5q-0.5-0.3-0.9-0.2z"/>
					<path id="&lt;Path&gt;" class="s22" d="m636.2 728.7c0 1 0.7 2.1 1.5 2.6 0.4 0.2 0.7 0.2 1 0.1 0.3-0.2 0.4-0.5 0.4-1 0-0.9-0.6-2-1.4-2.5-0.4-0.2-0.8-0.3-1.1-0.1-0.2 0.1-0.4 0.5-0.4 0.9z"/>
				</g>
				<g id="&lt;Group&gt;">
					<path id="&lt;Path&gt;" class="s4" d="m639.5 722.5q0.1 0 0.1-0.1l6.1-3.5q0 0 0.1 0v-0.1c0.7-0.3 1.6-0.2 2.5 0.3 2.1 1.2 3.8 4.1 3.8 6.5 0 1.2-0.5 2-1.1 2.4l-6.2 3.5q0 0 0 0l-0.1 0.1c-0.6 0.3-1.5 0.2-2.5-0.3-2.1-1.2-3.7-4.1-3.7-6.4 0-1.2 0.4-2 1-2.4z"/>
					<path id="&lt;Path&gt;" class="s6" d="m639.5 722.5q0.1 0 0.1-0.1l6.1-3.5q0 0 0.1 0v-0.1c0.7-0.3 1.6-0.2 2.5 0.3 2.1 1.2 3.8 4.1 3.8 6.5 0 1.2-0.5 2-1.1 2.4l-6.2 3.5q0 0 0 0l-0.1 0.1c-0.6 0.3-1.5 0.2-2.5-0.3-2.1-1.2-3.7-4.1-3.7-6.4 0-1.2 0.4-2 1-2.4z"/>
				</g>
				<path id="&lt;Path&gt;" class="s6" d="m642.2 722.7c-2.1-1.2-3.7-0.2-3.7 2.2 0 2.3 1.6 5.2 3.7 6.4 2 1.1 3.7 0.2 3.7-2.2 0-2.3-1.7-5.2-3.7-6.4z"/>
				<g id="&lt;Group&gt;">
					<path id="&lt;Path&gt;" class="s11" d="m528.8 791.4l2.5-1.6q0.2-0.1 0.5 0.1c0.4 0.2 0.7 0.7 0.7 1.2q0 0.3-0.2 0.4l-2.5 1.5q-0.2 0.1-0.5 0.1c-0.5 0-0.9-0.4-0.9-0.9 0-0.4 0.1-0.7 0.4-0.8z"/>
					<path id="&lt;Path&gt;" class="s10" d="m528.7 791.5q0-0.1 0.1-0.1 0 0 0 0 0.2-0.1 0.5 0c0.3 0.2 0.6 0.8 0.6 1.2q0 0.3-0.2 0.4 0 0 0 0.1 0 0-0.1 0-0.1 0-0.3 0c-0.5 0-0.9-0.4-0.9-0.9q0-0.5 0.3-0.7z"/>
				</g>
			</g>
		</g>
		<g id="Pencil 1 ">
			<path id="Shadow 8 " class="s9" d="m592.8 785.5q1.7 4.6 9.7 5.6l96-55.9 10-10c0.6-0.6 0-1.6-0.8-1.3l-18.4 6z"/>
			<g id="Pencil">
				<g id="&lt;Group&gt;">
					<path id="&lt;Path&gt;" class="s16" d="m690.1 723.1l16.3-3.2c0.5-0.1 0.8 0.5 0.5 0.9l-11.1 12.5z"/>
					<path id="&lt;Path&gt;" class="s10" d="m706.9 720.8c0.3-0.4 0-1-0.5-0.9l-3.2 0.6c0.9 0.6 1.4 1.6 1.3 2.7v0.2z"/>
					<path id="&lt;Path&gt;" class="s11" d="m615.5 779.2l1.4-0.7 1.6-0.9 77.3-44.3c0.6-1.8 0.3-3.7-0.5-5.4-1.1-2.6-3.4-4.7-5.2-4.8l-77.3 44.3-3.1 1.7c2.1-1 7.9 9.1 5.8 10.1z"/>
				</g>
				<g id="&lt;Group&gt;">
					<path id="&lt;Path&gt;" class="s17" d="m620.6 776.3l3-1.7c0.9-0.4 0.4-2.6-0.6-4.8-1.4-3-4.1-5.9-5.2-5.3l-2.2 1.3-0.8 0.5c1.1-0.7 3.8 2.2 5.2 5.2 1 2.1 1.5 4.2 0.7 4.8q0 0-0.1 0z"/>
					<path id="&lt;Path&gt;" class="s4" d="m621.4 775.9c2-1.1-3.8-11.2-5.9-10.1l-3 1.7c2.1-1.1 7.9 9 5.9 10.1z"/>
					<path id="&lt;Path&gt;" class="s17" d="m615.5 779.2l3-1.6c2-1.1-3.6-10.9-5.7-10.2q0 0-0.1 0l-3 1.7c2.1-1 7.9 9.1 5.8 10.1z"/>
				</g>
				<path id="&lt;Path&gt;" class="s6" d="m706.9 720.2l-0.5-0.3-11.9 6.5-80.6 46.2q-0.1-0.3-0.3-0.1c1.8 2.7 3.1 6.1 1.9 6.7l1.4-0.7 1.6-0.9 77.3-44.3 11.1-12.5c0.1-0.2 0.1-0.4 0-0.6z"/>
				<g id="&lt;Group&gt;">
					<path id="&lt;Path&gt;" class="s20" d="m603 786.4l12.5-7.2c0.9-0.4 0.4-2.6-0.6-4.8-1.3-3-4-5.9-5.2-5.3q0 0 0 0l-12.5 7.2c-2.5 1.5-0.2 6.9 2.5 9.3 1.1 0.9 2.2 1.3 3.3 0.8z"/>
					<path id="&lt;Path&gt;" class="s6" d="m603.8 782.5c-0.7-2.8-3-5.6-5.1-6.2-0.8-0.2-1.4-0.1-1.9 0.3-1.9 1.7 0.3 6.7 2.9 9 1.1 0.9 2.2 1.3 3.3 0.8 0.9-0.5 1.3-2 0.8-3.9z"/>
				</g>
			</g>
		</g>
		<g id="Plant 2 ">
			<path id="Shadow 12 " class="s15" d="m845.4 658.4q-0.5 2.8-2.3 5.5c-2 2.9-5 5.6-9 8-15.5 8.9-40.7 8.9-56.2 0-4-2.4-7-5.1-8.9-8q-1.9-2.7-2.4-5.5c-1.4-6.8 2.4-13.8 11.3-18.9 15.5-9 40.7-9 56.2 0 8.9 5.1 12.7 12.1 11.3 18.9z"/>
			<g id="Plant 3 ">
				<g id="Pot 4 ">
					<path id="&lt;Path&gt;" class="s0" d="m836.6 628.5h-62l6.4 26.7c0.5 3.2 2.9 6.3 7.1 8.8 9.7 5.6 25.3 5.6 35 0 4.6-2.7 6.9-6.1 7.2-9.6z"/>
					<path id="&lt;Path&gt;" class="s1" d="m839.8 620.6q-0.4 2.4-2 4.8c-1.7 2.5-4.3 4.9-7.8 6.9-13.5 7.8-35.3 7.8-48.8 0-3.5-2-6.1-4.4-7.7-6.9q-1.6-2.4-2.1-4.8c-1.2-5.9 2.1-12 9.8-16.4 13.5-7.8 35.3-7.8 48.8 0 7.7 4.4 11 10.5 9.8 16.4z"/>
					<path id="&lt;Path&gt;" class="s17" d="m837.8 625.4c-1.7 2.5-4.3 4.9-7.8 6.9-13.5 7.8-35.3 7.8-48.8 0-3.5-2-6.1-4.4-7.7-6.9q-1.6-2.4-2.1-4.8l1.5 10.5c0.7 4.2 3.9 8.3 9.5 11.6 12.8 7.4 33.6 7.4 46.4 0 5.6-3.2 8.7-7.3 9.5-11.5l0.1-0.5 1.4-10.1q-0.4 2.4-2 4.8z"/>
					<path id="&lt;Path&gt;" class="s0" d="m825.9 606.5c-11.2-6.5-29.4-6.5-40.6 0-6.3 3.7-9.1 8.6-8.3 13.4 0.7 3.7 3.4 7.2 8.3 10 11.2 6.5 29.4 6.5 40.6 0 4.9-2.8 7.6-6.3 8.3-10 0.8-4.8-1.9-9.7-8.3-13.4z"/>
					<path id="&lt;Path&gt;" class="s4" d="m778.9 624.3c1.4 2.1 3.5 4 6.4 5.6 11.2 6.5 29.4 6.5 40.6 0 2.9-1.6 5-3.5 6.4-5.6-0.1-3.8-2.7-7.7-7.8-10.7-10.4-6-27.3-6-37.8 0-5.1 3-7.7 6.9-7.8 10.7z"/>
				</g>
				<g id="&lt;Group&gt;">
					<path id="&lt;Path&gt;" class="s10" d="m796.9 582.5c-0.5-15.8-6.5-40.4-12.2-50.4 8.7 10.4 17.4 27.8 18.1 46.9z"/>
					<g id="&lt;Group&gt;">
						<path id="&lt;Path&gt;" class="s11" d="m814.1 616.7c0.6-11 8.7-14.6 17.8-11 6.5 2.6 15.8 12.2 18.8 27.6-2.9-8-23.9-34.7-36.6-16.6z"/>
						<path id="&lt;Path&gt;" class="s12" d="m814.6 622c0.5-4.1 4.2-9.4 10.7-8.1 6.4 1.3 21.6 13.1 28 32.6-1.1-13.1-5.4-24.3-14.1-31.6-8.6-7.2-15-8.4-21.4-4.6-5.5 3.2-3.2 11.7-3.2 11.7z"/>
					</g>
					<path id="&lt;Path&gt;" class="s11" d="m803.1 627.4c-5.3-17.6-6.1-50.1-1-67.7 7.1-24.9 21.9-35.8 33-38.5-10.5 4.4-21.5 20.4-24.6 36-3.2 15.6-1.4 70.2-1.4 70.2z"/>
					<g id="&lt;Group&gt;">
						<path id="&lt;Path&gt;" class="s10" d="m807.4 610.3c0.6-9.8 6.4-31.6 17.7-40.3 11.3-8.8 23.9-2.9 27.8 1.7-6.9-4.8-15.1-4.6-21.1 0.3-5.9 4.9-12 19.7-15 33.7z"/>
						<path id="&lt;Path&gt;" class="s12" d="m822.8 572c7.1-7 12.7-11.7 21.5-11.2 8.8 0.4 20.6 12.8 27.5 38.9-7.1-16.6-16.2-31.2-30.9-32.7-11.5-1.3-18.1 5-18.1 5z"/>
					</g>
					<path id="&lt;Path&gt;" class="s11" d="m743.2 556.5c13-0.8 26.6 2.8 39.1 13.5 12.6 10.6 17.5 22.5 19.4 34.6l-7.8-1.3c0 0-6.5-20.6-17.9-31.3-10-9.5-17.5-13.3-32.8-15.5z"/>
					<path id="&lt;Path&gt;" class="s12" d="m803.7 599.7c0.6-8.9-3.6-27.5-17.1-40.1-13.5-12.6-18.4-15.3-32.3-18.9 7.4 3.5 20 12.4 28.9 24.1 9 11.7 9.4 25.5 9.4 30.8 1.5 4.1 7 12.6 11.1 4.1z"/>
					<path id="&lt;Path&gt;" class="s12" d="m803.1 604c-1.8-11.3 4.3-31.4 11.3-41.3 8.6-11.9 21.2-20.8 35.2-23.3-15 5.8-30.1 22.5-34.5 38.3-4.4 15.8-1.8 32.2-1.8 32.2z"/>
					<path id="&lt;Path&gt;" class="s11" d="m807.8 627.4c-1.9-10.6 1.5-32.5 18.8-44.6 17.3-12 29.3-8.8 33.9-7.5-13.4-0.9-26.9 6.6-35.1 15.8-5.8 6.4-11.1 16.9-11.5 34.4z"/>
					<g id="&lt;Group&gt;">
						<path id="&lt;Path&gt;" class="s10" d="m808.1 628.2c0 0 4.5-0.1 6.3-2.2 0-6.8 1.9-20.4 11.4-28.5 9.6-8 17-6.5 18.5-3.3 0-4.6-5.8-8.8-12.3-7.4-10.8 2.3-25.9 16.3-23.9 41.4z"/>
						<path id="&lt;Path&gt;" class="s12" d="m826.4 588.9c5.9-3.2 10.9-6 17.5-2.9 0.3-0.2 4-1.1 5.4 0.6 5.5 6.4 3.7 22.5-6.3 37.9 4.6-11.6 4.8-32.9-3.7-36.2-6.7-2.6-12.9 0.6-12.9 0.6z"/>
						<path id="&lt;Path&gt;" class="s10" d="m843.9 586c2.6 1.2 8 10.5 4.5 23.4 3.3-9.8 2.1-19.2-3.4-23.7q-0.6 0.1-1.1 0.3z"/>
					</g>
					<path id="&lt;Path&gt;" class="s10" d="m796.5 625.1c-0.5-4.1-4.2-9.5-10.6-8.2-6.5 1.4-21.6 13.2-28.1 32.6 1.2-13 6-24 13.8-32.2 7-7.4 16.2-10.9 23.5-7 7.3 3.9 1.4 14.8 1.4 14.8z"/>
					<g id="&lt;Group&gt;">
						<path id="&lt;Path&gt;" class="s11" d="m793.9 600.5c-5.7-5.6-9.6-11-20-8.9-10.4 2.1-17.6 13.5-20.4 28.7 1.8-5.9 7.1-19.4 17.8-21.7 10.6-2.3 15.8-1.5 22.6 1.9z"/>
						<path id="&lt;Path&gt;" class="s12" d="m796.5 625.1c-1.4-10-5.2-24.2-15.9-24.8-10.6-0.6-22.2 6.1-27.1 20 2.5-12.6 13.3-24.7 24.5-24.7 11.3-0.1 22.4 2.4 25.1 31.8z"/>
					</g>
					<g id="&lt;Group&gt;">
						<path id="&lt;Path&gt;" class="s12" d="m787.6 582.7c-4.5-4.5-11-6.6-14.7-7.2-3.6-0.6-10.6-3.4-18.2 3.6-7.5 7-15.4 23.4-12.6 34.9 1.2-12.2 17.5-46.3 45.5-31.3z"/>
						<path id="&lt;Path&gt;" class="s10" d="m804.6 628.4c0-9.3-6.8-38.7-17.5-46.1-13.3-9.4-22.3-1.4-22.3-1.4 0 0 8.2-3.1 15.9 2.5 6.9 5.1 13.4 19.8 15.8 41.7 0 0 2.4 3.3 8.1 3.3z"/>
					</g>
					<g id="&lt;Group&gt;">
						<path id="&lt;Path&gt;" class="s12" d="m798.5 600.8c-0.6 2.7 2.2 22.9 4.3 27.4q3.3 0.5 6.5-0.1c2-3.5 0.1-26.3 4-26.8-3.1-1.4-13.4-5.2-14.8-0.5z"/>
						<path id="&lt;Path&gt;" class="s11" d="m798.5 600.8c3.2-3.3 16 3.1 18.4 22.2 3.1-9 1.7-20.2-1.5-23.1-3.2-2.8-6.5-0.9-6.5-0.9 0 0-10-4.3-10.4 1.8z"/>
						<path id="&lt;Path&gt;" class="s12" d="m808.9 599c3.9 1.7 8.4 7.1 8.3 16.4 0.3-4.7-0.6-13.1-7.3-16.8q-0.6 0.2-1 0.4z"/>
					</g>
				</g>
			</g>
		</g>
	</g>
	<g id="Icons">
		<g id="Idea 4 ">
			<path id="&lt;Compound Path&gt;" fill-rule="evenodd" class="s0" d="m816.9 146c-11.5-3.2-12.8-8-12.9-8.5q-0.1-0.3 0-0.6l1.6-5.8c0.4-1.6 0-4.9-4.8-11.5q0-0.1-0.1-0.2c-6-8.7-7.8-19.6-4.9-29.8 5.4-18.9 25.1-30 44-24.6 18.9 5.3 29.9 25.1 24.6 44-2.9 10.1-10 18.4-19.7 22.8q0 0-0.1 0c-7.7 3.3-9.8 5.8-10.2 7.4l-1.7 5.8q-0.1 0.3-0.3 0.6c-0.4 0.4-4 3.7-15.5 0.4zm-10.1-8.8c0.4 0.8 2.5 3.8 10.9 6.1 8.2 2.4 11.6 1 12.5 0.5l1.5-5.4c0.9-3.2 4.6-6.1 11.6-9q0.1-0.1 0.2-0.1c8.9-4 15.6-11.7 18.2-21.1 5-17.4-5.2-35.6-22.6-40.5-17.5-5-35.7 5.2-40.6 22.6-2.7 9.4-1 19.5 4.5 27.6q0.1 0 0.1 0c4.5 6.4 6.1 10.7 5.2 13.9z"/>
			<path id="&lt;Compound Path&gt;" fill-rule="evenodd" class="s0" d="m811.7 164.4c-12-3.4-13.4-8.3-13.5-8.8q-0.1-0.3 0-0.7l3.3-11.6c0.2-0.6 0.8-1 1.4-1 0.6 0 1.2 0.5 1.3 1.1 0 0 1.3 3.8 11.5 6.7 10.3 2.9 13.4 0.3 13.4 0.3 0.5-0.4 1.2-0.5 1.7-0.2 0.5 0.4 0.8 1 0.6 1.6l-3.3 11.6q-0.1 0.3-0.3 0.6c-0.4 0.4-4.1 3.8-16.1 0.4zm-10.7-9.2c0.5 0.9 2.7 4.1 11.5 6.5 8.7 2.5 12.2 1 13.1 0.5l2.3-8.3c-2.4 0.6-6.5 0.7-12.9-1.1-6.5-1.8-9.9-4.1-11.6-5.9z"/>
			<path id="&lt;Compound Path&gt;" fill-rule="evenodd" class="s0" d="m814.8 136.2q-0.1 0-0.3-0.1c-0.7-0.4-0.9-1.3-0.5-1.9 0.1 0 2.2-3.9 4.3-17 0.6-3.9 0.6-7.3 0.1-10-5 0-8.4-2.7-9.4-5.3-0.9-2.2 0-4.3 2.2-5.2 1.8-0.8 3.7-0.5 5.4 0.9 1.6 1.2 3.1 3.4 4 6.6q1.1-0.2 2.2-0.6c2-0.7 3.7-1.6 5.1-2.7-1.1-3.6-1.1-7 0.2-9 1-1.5 2.7-2.1 4.5-1.6 1.9 0.6 3 1.9 3.1 3.7 0.1 2.4-1.8 5.4-4.5 7.8 0.6 1.7 1.6 3.4 2.9 4.9q0.8 1 1.6 1.7c2.4-2.2 4.9-3.3 6.8-3.5 2.2-0.3 4 0.5 5.1 2 1.4 2 1 4.2-0.9 5.7-2.1 1.7-6.5 2.2-10.8-0.5-1.8 2.1-3.6 5-5.1 8.7-5.1 12.2-5.3 16.6-5.3 16.6 0 0.8-0.6 1.4-1.4 1.4-0.7 0-1.3-0.6-1.3-1.4 0-0.2 0.1-4.8 5.4-17.7 1.6-4 3.6-7 5.5-9.3q-0.9-0.8-1.8-1.9c-1.2-1.5-2.2-3.2-3-4.9-1.6 1-3.3 1.9-5.1 2.6q-1.4 0.4-2.6 0.7c0.5 2.9 0.5 6.5-0.2 10.8-2.2 13.8-4.5 17.8-4.6 17.9-0.3 0.6-1 0.8-1.6 0.6zm-1.1-37.1q-0.7-0.2-1.4 0.1c-0.5 0.2-1.1 0.6-0.7 1.8 0.5 1.4 2.7 3.2 6.2 3.4-0.7-2.2-1.8-3.8-2.9-4.7q-0.6-0.4-1.2-0.6zm24.3 11c3 1.6 5.8 1.2 7 0.3 1-0.7 0.7-1.4 0.3-1.9q-0.8-1.1-2.5-0.9c-1.4 0.2-3.1 1-4.8 2.5zm-6.1-17.1c-0.9-0.3-1.2 0.1-1.5 0.4-0.6 1-0.7 3-0.2 5.5 1.8-1.8 2.7-3.6 2.7-4.8 0-0.4-0.1-0.8-1-1.1z"/>
		</g>
		<g id="Idea 3 ">
			<path id="&lt;Compound Path&gt;" fill-rule="evenodd" class="s17" d="m909 320.6q-0.1 0.1-0.1 0.2c-6.6 10-7.1 14.7-6.4 16.9l2.6 8.2q0.2 0.4 0.1 0.9c-0.1 0.8-1.8 7.6-18.1 12.8-16.3 5.3-21.6 0.7-22.2 0.2q-0.4-0.3-0.5-0.8l-2.6-8.2c-0.8-2.2-3.9-5.8-14.8-9.9q-0.1-0.1-0.3-0.1c-14.1-5.7-24.9-17.3-29.5-31.7-8.6-26.8 6.2-55.6 32.9-64.3 26.8-8.6 55.6 6.2 64.3 33 4.6 14.4 2.6 30-5.4 42.8zm-16.3-31.9c-2.6-1-5.3-0.4-7.7 1.6-2.1 1.8-4.2 5-5.3 9.6q-1.6-0.2-3.3-0.7c-2.8-0.9-5.3-2.1-7.4-3.6 1.4-5.1 1.3-10-0.8-12.9-1.5-2.1-3.8-2.8-6.5-2-2.7 0.9-4.2 2.9-4.2 5.5 0.1 3.5 2.8 7.5 6.9 10.9-0.9 2.4-2.1 4.9-3.9 7.2q-1.1 1.4-2.2 2.5c-3.7-3.1-7.2-4.5-10-4.7-3.1-0.3-5.6 0.9-7.1 3.2-1.9 2.8-1.3 6.1 1.5 8.1 3.2 2.2 9.4 2.7 15.4-1.3 2.7 2.9 5.5 6.9 7.8 12.1 7.9 17.3 8.4 23.6 8.4 23.6 0 1.1 1 2 2.1 1.9q0.2 0 0.5-0.1c0.8-0.3 1.4-1.1 1.4-2-0.1-0.2-0.4-6.8-8.7-25-2.6-5.6-5.5-9.9-8.4-13q1.3-1.3 2.5-2.9c1.6-2.2 3-4.7 4-7.2 2.3 1.5 4.9 2.7 7.5 3.5q1.9 0.6 3.7 0.8c-0.5 4.3-0.4 9.5 0.8 15.5 3.9 19.7 7.4 25.2 7.6 25.4 0.6 0.9 1.8 1.2 2.7 0.6 0.9-0.6 1.2-1.8 0.6-2.7 0-0.1-3.3-5.4-7-24.1-1.1-5.6-1.2-10.4-0.7-14.4 7.2-0.2 12-4.3 13.2-7.9 1.2-3.3-0.2-6.3-3.4-7.5zm-0.3 6.2c-0.7 2-3.7 4.7-8.7 5.2 0.9-3.2 2.3-5.5 3.9-6.8 1.2-1.1 2.5-1.4 3.7-0.9 0.7 0.3 1.6 0.8 1.1 2.5zm-27.4-9.9c1 1.4 1.3 4.3 0.6 7.9-2.6-2.5-4.1-5.1-4.1-6.7 0-0.6 0.1-1.3 1.4-1.7 1.3-0.4 1.8 0.1 2.1 0.5zm-17 21c2.1 0.2 4.5 1.3 7.1 3.3-4.3 2.5-8.3 2.1-10.1 0.8-1.4-1-1-2-0.5-2.6q0.6-1 1.6-1.3 0.9-0.3 1.9-0.2z"/>
			<path id="&lt;Compound Path&gt;" class="s17" d="m895.5 385.7c-17 5.5-22.5 0.8-23.1 0.2q-0.3-0.3-0.5-0.8l-5.3-16.5c-0.3-0.8 0.1-1.8 0.9-2.3 0.7-0.4 1.7-0.3 2.4 0.3 0 0 4.5 3.6 19.1-1.1 14.6-4.7 16.1-10.2 16.1-10.3 0.3-0.9 1-1.5 1.9-1.5 0.9-0.1 1.7 0.5 2 1.3l5.3 16.4q0.1 0.5 0 1c-0.1 0.8-1.8 7.8-18.8 13.3z"/>
			<g id="&lt;Group&gt;">
				<path id="&lt;Path&gt;" class="s17" d="m848 238.2c-1 0.4-2.1-0.2-2.5-1.2l-5.1-15.9c-0.3-1 0.3-2.1 1.3-2.5 1.1-0.3 2.2 0.3 2.5 1.3l5.1 15.8c0.3 1.1-0.2 2.2-1.3 2.5z"/>
				<path id="&lt;Path&gt;" class="s17" d="m879.5 237.2q-0.5 0.1-1 0c-1.1-0.2-1.8-1.3-1.5-2.4l3.5-16.2c0.2-1.1 1.3-1.8 2.3-1.5 1.1 0.2 1.8 1.3 1.5 2.3l-3.5 16.3c-0.1 0.7-0.6 1.2-1.3 1.5z"/>
				<path id="&lt;Path&gt;" class="s17" d="m907.3 252c-0.6 0.2-1.4 0-1.9-0.5-0.8-0.7-0.9-2-0.2-2.8l11.2-12.3c0.7-0.8 2-0.9 2.8-0.1 0.8 0.7 0.9 2 0.1 2.8l-11.1 12.3q-0.4 0.4-0.9 0.6z"/>
				<path id="&lt;Path&gt;" class="s17" d="m939.8 273.6l-15.8 5.1c-1 0.3-2.2-0.3-2.5-1.3-0.3-1 0.2-2.2 1.3-2.5l15.8-5.1c1.1-0.3 2.2 0.2 2.5 1.3 0.4 1-0.2 2.2-1.3 2.5z"/>
				<path id="&lt;Path&gt;" class="s17" d="m941.3 313.7q-0.4 0.1-1 0l-16.2-3.5c-1.1-0.2-1.8-1.3-1.6-2.3 0.3-1.1 1.3-1.8 2.4-1.6l16.3 3.5c1 0.3 1.7 1.3 1.5 2.4-0.2 0.7-0.7 1.3-1.4 1.5z"/>
				<path id="&lt;Path&gt;" class="s17" d="m821.8 255.7c-0.6 0.2-1.4 0.1-1.9-0.4l-12.4-11.2c-0.8-0.7-0.8-1.9-0.1-2.8 0.7-0.8 2-0.8 2.8-0.1l12.3 11.2c0.8 0.7 0.9 2 0.2 2.8q-0.4 0.4-0.9 0.5z"/>
				<path id="&lt;Path&gt;" class="s17" d="m807.9 284q-0.5 0.1-1.1 0l-16.2-3.5c-1.1-0.2-1.8-1.3-1.5-2.3 0.2-1.1 1.2-1.8 2.3-1.6l16.3 3.5c1 0.3 1.7 1.3 1.5 2.4-0.2 0.7-0.7 1.3-1.3 1.5z"/>
				<path id="&lt;Path&gt;" class="s17" d="m809.9 315.4l-15.8 5.1c-1.1 0.3-2.2-0.2-2.5-1.3-0.4-1 0.2-2.1 1.2-2.5l15.9-5.1c1-0.3 2.1 0.3 2.5 1.3 0.3 1.1-0.3 2.2-1.3 2.5z"/>
				<path id="&lt;Path&gt;" class="s17" d="m816.2 353.9c-0.6 0.3-1.4 0.1-1.9-0.4-0.9-0.7-0.9-2-0.2-2.8l11.2-12.3c0.7-0.8 2-0.9 2.8-0.1 0.8 0.7 0.9 2 0.1 2.8l-11.1 12.3q-0.4 0.4-0.9 0.5z"/>
			</g>
		</g>
		<path id="Gear 8 " fill-rule="evenodd" class="s17" d="m74.9 849.2l12.1 5.6c0.7 0.4 2 0.4 2.8 0.2q4.5-1.4 9.3-2.3c0.8-0.1 1.6-0.8 1.8-1.6l1.5-8c0.2-0.8 0.9-1.5 1.8-1.5h17.5c0.8 0 1.6 0.7 1.8 1.5l1.5 8c0.1 0.8 0.9 1.5 1.7 1.6q4.9 0.9 9.4 2.3c0.8 0.2 2 0.2 2.8-0.2l12.1-5.6c0.7-0.3 1.9-0.3 2.6 0.1l11.9 6.9c0.8 0.4 0.8 1.2 0.1 1.6l-9.4 6.8c-0.7 0.5-0.8 1.4-0.2 2q2.1 2.2 3.4 4.7c0.4 0.7 1.3 1.3 2.1 1.4l15.9 1c0.8 0 1.5 0.8 1.5 1.6v8.8c0 0.9-0.7 1.6-1.5 1.6l-15.9 1c-0.8 0.1-1.7 0.7-2.1 1.5q-1.3 2.4-3.4 4.6c-0.6 0.6-0.5 1.5 0.2 2l9.4 6.8c0.7 0.5 0.7 1.2-0.1 1.6l-11.9 6.9c-0.7 0.4-1.9 0.4-2.6 0.1l-12.1-5.6c-0.8-0.3-2-0.4-2.8-0.2q-4.5 1.4-9.4 2.3c-0.8 0.1-1.6 0.9-1.7 1.7l-1.5 7.9c-0.2 0.8-1 1.5-1.8 1.5h-17.5c-0.9 0-1.6-0.7-1.8-1.5l-1.5-7.9c-0.2-0.8-1-1.6-1.8-1.7q-4.8-0.9-9.3-2.3c-0.8-0.2-2.1-0.1-2.8 0.2l-12.1 5.6c-0.8 0.3-1.9 0.3-2.6-0.1l-12-6.9c-0.7-0.4-0.7-1.1-0.1-1.6l9.5-6.8c0.7-0.5 0.7-1.4 0.2-2q-2.1-2.2-3.4-4.6c-0.4-0.8-1.3-1.4-2.2-1.5l-15.8-1c-0.9 0-1.5-0.7-1.5-1.6v-8.8c0-0.8 0.6-1.6 1.5-1.6l15.8-1c0.9-0.1 1.8-0.7 2.2-1.4q1.3-2.5 3.4-4.7c0.5-0.6 0.5-1.5-0.2-2l-9.5-6.8c-0.6-0.4-0.6-1.2 0.1-1.6l12-6.9c0.7-0.4 1.8-0.4 2.6-0.1zm17.9 18.9c-11.1 6.4-11.1 16.8 0 23.2 11.1 6.5 29.2 6.5 40.3 0 11.1-6.4 11.1-16.8 0-23.2-11.1-6.5-29.2-6.5-40.3 0z"/>
		<path id="Gear 3 " fill-rule="evenodd" class="s17" d="m185.5 913.8l8 2.5c1 0.4 2.5 0.2 3.4-0.2q2.1-0.9 4.3-1.6c1-0.3 1.7-1.3 1.6-2.3l-0.5-3.9c-0.1-1 0.6-1.9 1.6-2.1l10.4-1c1-0.1 2.2 0.5 2.7 1.4l2 4c0.5 0.9 1.7 1.7 2.7 1.8q2.7 0.2 5.4 0.6c1 0.2 2.4-0.1 3.3-0.6l5.6-3.7c0.8-0.6 2.3-0.7 3.2-0.4l8.3 3.4c0.9 0.3 1.1 1.2 0.4 2l-3.7 4c-0.7 0.7-0.6 1.8 0.2 2.4q1.3 1 2.3 2c0.7 0.7 2 1.4 3 1.3l9.5-0.4c1 0 2.1 0.8 2.4 1.7l1.4 4.6c0.3 1-0.2 1.9-1.2 2.1l-9 1.5c-1 0.2-2 1.1-2.2 2.1q-0.3 0.9-0.7 1.8c-0.5 0.9-0.2 2 0.7 2.4l6.7 3.4c0.9 0.4 1 1.3 0.2 2l-5.3 4.4c-0.8 0.6-2.2 0.9-3.1 0.6l-8.1-2.5c-1-0.3-2.5-0.2-3.4 0.2q-2.1 0.9-4.3 1.6c-1 0.3-1.7 1.3-1.6 2.3l0.5 4c0.1 1-0.6 1.9-1.6 2l-10.4 1.1c-1 0.1-2.2-0.6-2.6-1.5l-2.1-4c-0.5-0.9-1.7-1.7-2.7-1.7q-2.7-0.3-5.3-0.7c-1-0.2-2.5 0.1-3.4 0.7l-5.6 3.7c-0.8 0.5-2.3 0.7-3.2 0.3l-8.3-3.3c-0.9-0.4-1.1-1.3-0.4-2.1l3.7-4c0.7-0.7 0.6-1.7-0.2-2.4q-1.2-0.9-2.3-2c-0.7-0.7-2-1.3-3-1.3l-9.5 0.4c-1 0-2.1-0.7-2.4-1.7l-1.4-4.6c-0.3-0.9 0.3-1.9 1.3-2l9-1.6c1-0.1 1.9-1.1 2.2-2.1q0.2-0.9 0.6-1.8c0.5-0.9 0.2-2-0.7-2.4l-6.7-3.3c-0.9-0.5-1-1.4-0.2-2.1l5.3-4.3c0.8-0.7 2.2-1 3.2-0.7zm15.5 11.4c-6.2 5.2-4 12.3 5 15.9 9 3.6 21.3 2.3 27.5-2.9 6.2-5.2 4-12.3-5-15.9-8.9-3.6-21.3-2.3-27.5 2.9z"/>
		<path id="Question Mark" class="s17" d="m926 176.8c-4.8 1.9-6 5.8-4.5 9.4 1.5 3.7 5.1 5.6 9.8 3.7 4.8-2 5.9-5.9 4.4-9.5-1.5-3.7-5.1-5.5-9.7-3.6zm-18.1-47.7c-11.9 4.9-17.5 14.5-16.2 24.7l14.6-1.9c0-4.3 1.4-7.3 6.6-9.4 5.4-2.2 8.4 0 9.5 2.9 1.4 3.4-0.6 7.1-11 15.8l5.8 14.1 14.1-5.8-3.2-7.8c5.9-5.4 11.9-13.6 7.7-23.9-4-9.7-14.8-14.1-27.9-8.7z"/>
	</g>
	<g id="Glass">
		<g id="Glass">
			<g id="&lt;Group&gt;">
				<g id="&lt;Group&gt;">
					<path id="&lt;Path&gt;" class="s4" d="m830.9 508.1q-0.1-0.1-0.3-0.3l-136.3-150.5c-2-2.1-2.6-5.5-1.4-9.7 2.4-8.4 11.4-16.8 20-18.9 4.3-1.1 7.7-0.3 9.7 1.7l147.4 140q0.1 0.1 0.2 0.2 0.3 0.2 0.4 0.4c10.6 10.8 10.3 27.9-0.6 38.2-10.9 10.4-28.3 10-38.8-0.7q-0.2-0.2-0.3-0.4z"/>
					<path id="&lt;Path&gt;" class="s13" d="m712.9 328.7c8.6-2.1 13.5 3 11.1 11.4-2.4 8.4-11.4 16.8-20 18.9-8.6 2.1-13.5-3-11.1-11.4 2.4-8.4 11.4-16.8 20-18.9z"/>
					<path id="&lt;Path&gt;" class="s6" d="m852.7 477.2l-132.6-129.6c1.8-2.4 3.1-5 3.9-7.5 1.2-4.2 0.6-7.5-1.4-9.6l147.4 139.9q0.1 0.1 0.2 0.2 0.3 0.2 0.4 0.4c10.6 10.8 10.3 27.9-0.6 38.2 4.6-7.3-4.2-19.3-17.3-32z"/>
				</g>
				<path id="&lt;Path&gt;" class="s0" d="m661.5 307.7c1.5-5.1 6.9-10.2 12.1-11.5 2.6-0.6 4.6-0.2 5.8 1.1l37.6 38.4c1.2 1.3 1.6 3.3 0.9 5.9-1.5 5-6.9 10.2-12.1 11.4-2.6 0.7-4.7 0.2-5.9-1l-37.5-38.5c-1.3-1.3-1.6-3.3-0.9-5.8z"/>
				<path id="&lt;Path&gt;" class="s13" d="m700.1 318.4l-14-14.3q-6.6 10.2-13.9 19.5l13.8 14.1q7.4-9.3 14.1-19.3z"/>
			</g>
			<g id="&lt;Group&gt;">
				<g id="&lt;Group&gt;">
					<path id="&lt;Compound Path&gt;" fill-rule="evenodd" class="s11" d="m739.2 170.5c0 78.5-55.2 174-123.2 213.3-19.8 11.4-38.4 16.8-55 16.8-11.9 0-22.7-2.8-32.1-8.2l-39.7-22.9c-22.3-12.9-36.1-40.5-36.1-79.7 0-78.6 55.2-174.1 123.2-213.4 34-19.6 64.8-21.5 87.1-8.6l39.8 23c22.2 12.8 36 40.4 36 79.7zm-59.3-23c0-18.6-3.4-34-9.8-45.4-13.3 0.2-28.6 5.1-44.3 14.2-30 17.3-58.3 47.4-79.9 84.8-21.6 37.3-33.5 77-33.5 111.6 0 18.6 3.5 34 9.9 45.4 13.2-0.2 28.5-5.1 44.2-14.2 30-17.3 58.4-47.4 79.9-84.8 21.6-37.3 33.5-77 33.5-111.6z"/>
					<path id="&lt;Compound Path&gt;" class="s25" d="m485.3 175.3l56.7 32.7q1.9-3.5 3.9-6.9c6.8-11.8 14.3-22.9 22.3-33l-56.8-32.8c-9.7 12.5-18.4 25.9-26.1 40zm56.1-72.9q-8.6 7.9-16.6 16.8l57 32.9c5.6-5.9 11.3-11.4 17.1-16.5z"/>
					<path id="&lt;Path&gt;" class="s12" d="m528.8 392.3l-39.6-22.8c-22.3-12.9-36.1-40.5-36.1-79.7 0-1.6 0.1-3.1 0.1-4.6l39.7 22.9q0 2.3 0 4.6c0 39.1 13.7 66.7 35.9 79.6z"/>
				</g>
				<path id="&lt;Compound Path&gt;" class="s10" d="m671 102.1q-0.4 0-0.9 0c6.4 11.4 9.8 26.8 9.8 45.4 0 34.6-11.9 74.3-33.5 111.6-21.5 37.4-49.9 67.5-79.9 84.8-15.7 9.1-31 14-44.2 14.2 8.3 14.8 21.5 23 38.7 23 13.5 0 29.1-5 45.2-14.2 30-17.3 58.4-47.4 80-84.8 21.6-37.4 33.4-77 33.4-111.6 0-42.8-18.1-68.4-48.6-68.4z"/>
				<path id="&lt;Path&gt;" class="s26" d="m701.1 159.8c0 34.6-11.8 74.3-33.4 111.7-21.6 37.3-50 67.4-79.9 84.7-16.1 9.3-31.8 14.2-45.3 14.2q-6.4 0-12.1-1.5-4.6-4.6-8.1-10.8c-6.4-11.4-9.9-26.8-9.9-45.4 0-34.6 11.9-74.3 33.5-111.6 21.6-37.4 49.9-67.5 79.9-84.8 15.7-9.1 31-14 44.3-14.2q0.5 0 0.9 0 6.5 0 12.2 1.5c11.6 11.6 17.9 30.9 17.9 56.2z"/>
				<g id="&lt;Group&gt;">
					<path id="&lt;Compound Path&gt;" fill-rule="evenodd" class="s12" d="m739.2 170.5c0 78.5-55.2 174-123.2 213.3-68 39.3-123.1 7.4-123.1-71.1 0-78.6 55.1-174.1 123.1-213.3 68-39.3 123.2-7.5 123.2 71.1zm-53 111.6c21.6-37.4 33.4-77 33.4-111.6 0-42.8-18.1-68.4-48.6-68.4q-0.4 0-0.9 0c-13.3 0.2-28.6 5.1-44.3 14.2-30 17.3-58.3 47.4-79.9 84.8-21.6 37.3-33.5 77-33.5 111.6 0 18.6 3.5 34 9.9 45.4 8.3 14.8 21.5 23 38.7 23 13.5 0 29.1-5 45.2-14.2 30-17.3 58.4-47.4 80-84.8z"/>
					<path id="&lt;Path&gt;" class="s11" d="m522.7 202.6c-11.2 22.2-19.9 45.7-25 70-2.4 12.1-4 24.5-4.2 36.9-0.2 12.4 1 24.8 4.1 36.8 3.1 11.9 8.2 23.5 16.3 32.8 8 9.4 18.9 16.2 30.9 19.1 12 3 24.8 2.4 36.8-0.6 12.1-2.7 23.6-7.8 34.4-13.8-10.7 6.2-22.1 11.5-34.3 14.5-12 3.1-24.9 3.8-37.1 0.8-12.2-2.8-23.4-9.7-31.6-19.2-8.3-9.5-13.6-21.2-16.8-33.3-3.1-12.1-4.2-24.7-3.9-37.1 0.2-12.5 1.9-24.9 4.5-37.1 2.6-12.2 6.1-24.2 10.5-35.9 4.4-11.6 9.6-22.9 15.4-33.9z"/>
					<path id="&lt;Path&gt;" class="s11" d="m671 102.1c6.2 0 12.4 0.9 18.1 3.3 5.7 2.4 10.9 6.1 15 10.7 4.2 4.6 7.3 10.1 9.7 15.8 2.5 5.7 4 11.8 5.1 17.9 2.1 12.2 2.3 24.7 1.1 37-1.1 12.4-3.6 24.5-6.9 36.5-3.3 11.9-7.6 23.5-12.7 34.8-5.1 11.3-10.9 22.2-17.4 32.7-13 21-28.6 40.6-47.2 57-9.4 8.2-19.5 15.6-30.3 21.6-10.9 6.1-22.7 10.9-35.2 12.7-6.2 0.9-12.6 1-18.9-0.2-6.3-1.3-12.3-3.8-17.4-7.7-2.6-1.9-4.9-4.1-7-6.5-2.1-2.4-4-5-5.5-7.7-3.2-5.5-5.5-11.4-7-17.5-3.2-12.1-3.8-24.7-3.1-37 0.7-12.4 2.6-24.7 5.7-36.6 3.1-12 7.1-23.7 12-35 4.8-11.3 10.5-22.3 16.8-32.8-11.8 21.5-21.4 44.4-26.9 68.2-2.9 11.9-4.6 24.1-5.2 36.3-0.4 12.2 0.4 24.5 3.6 36.1 1.6 5.8 3.8 11.5 6.9 16.6 3 5.1 6.9 9.7 11.7 13.2 4.7 3.6 10.3 5.9 16.1 7 5.8 1.1 11.8 1 17.7 0.1 11.9-1.8 23.3-6.5 33.8-12.4 10.6-6 20.4-13.3 29.6-21.3 18.3-16.1 33.8-35.2 46.8-55.9 12.9-20.8 23.2-43.2 30.2-66.6 3.5-11.7 6.1-23.7 7.3-35.8 1.4-12.1 1.4-24.4-0.4-36.5-1-6-2.3-12-4.6-17.6-2.3-5.6-5.2-11.1-9.1-15.7-4-4.6-9-8.4-14.5-10.9-5.6-2.5-11.7-3.6-17.9-3.8z"/>
				</g>
			</g>
		</g>
	</g>
	<g id="Speech Bubble">
		<g id="Speech Bubble 3 ">
			<g id="Speech Bubble 12 ">
				<g id="&lt;Group&gt;">
					<path id="&lt;Path&gt;" class="s4" d="m191.4 215.3q-0.6-0.4-1.5-0.4l-25.4-1.8v32.9l13.9 8 27.4-25.8c1.7-1.4 1.2-3.9-0.5-4.9-0.4-0.3-12.2-7.1-13.9-8z"/>
					<path id="&lt;Path&gt;" class="s9" d="m191.4 215.3q-0.6-0.4-1.5-0.4l-25.4-1.8v32.9l13.9 8 27.4-25.8c1.7-1.4 1.2-3.9-0.5-4.9-0.4-0.3-12.2-7.1-13.9-8z"/>
					<path id="&lt;Path&gt;" class="s4" d="m178.4 221.1l25.4 1.8c2.8 0 4.1 3.5 2 5.3l-27.4 25.8z"/>
				</g>
				<g id="&lt;Group&gt;">
					<path id="&lt;Path&gt;" class="s4" d="m180.2 172.1c0-3.5-2.5-7.8-5.5-9.5l-4.5-2.6c-3-1.7-8-1.7-11 0l-92.3 53.4c-3.1 1.7-5.5 6-5.5 9.5v114.5c0 3.5 2.4 7.8 5.5 9.5l4.5 2.6c3 1.8 7.9 1.8 10.9 0l92.4-53.4c3-1.7 5.5-6 5.5-9.5z"/>
					<path id="&lt;Path&gt;" class="s9" d="m61.4 337.4c0 3.5 2.4 7.8 5.5 9.5l4.5 2.6c2.7 1.6 7 1.7 10 0.5-2.6 0.9-4.6-0.5-4.6-3.7v-114.5c0-1.7 0.7-3.7 1.7-5.4l-15.5-8.9c-1 1.7-1.6 3.6-1.6 5.4z"/>
					<path id="&lt;Path&gt;" class="s26" d="m180 170.5c-0.7-2.3-2.8-3-5.3-1.6l-92.4 53.4c-1.5 0.9-2.9 2.4-3.8 4.1l-15.5-8.9c1-1.7 2.4-3.2 3.9-4.1l92.3-53.4c3-1.7 8-1.7 11 0l4.5 2.6c2.6 1.5 4.7 4.8 5.3 7.9z"/>
				</g>
			</g>
			<path id="Question Mark 1 " class="s2" d="m124.5 288.1c-4.8 2.8-7.3 8.6-7.3 14.4 0 5.7 2.5 8.9 7.3 6.1 4.9-2.8 7.3-8.7 7.3-14.5 0-5.8-2.5-8.8-7.3-6zm1.3-74.8c-12 6.9-20.4 21.6-22.9 37.6l13.4-2.3c1.5-6.6 3.8-11.2 9.1-14.3 5.5-3.2 7.3 0.4 7.3 5 0 5.2-3.1 10.9-15.3 23.8v22.3l14.4-8.3v-12.3c7.1-8.2 15.3-20.6 15.3-36.7 0-15.2-7.8-22.6-21.3-14.8z"/>
		</g>
	</g>
</svg>