<svg version="1.2" xmlns="http://www.w3.org/2000/svg" viewBox="0 0 1500 1000" width="1500" height="1000">
	<title>5370380-ai</title>
	<style>
		.s0 { fill: #ebebeb } 
		.s1 { fill: none;stroke: #c7c7c7;stroke-miterlimit:10;stroke-width: 2 } 
		.s2 { fill: #dbdbdb } 
		.s3 { fill: #263238 } 
		.s4 { fill:  #BA68C8 } 
		.s5 { opacity: .1;fill: #000000 } 
		.s6 { fill: #37474f } 
		.s7 { fill: #455a64 } 
		.s8 { fill: #d3766a } 
		.s9 { fill: #ff98b9 } 
		.s10 { fill: #ffffff } 
		.s11 { fill: #ad6359 } 
		.s12 { fill: #020100 } 
		.s13 { opacity: .2;fill: #020100 } 
	</style>
	<g id="Background Complete">
		<g id="&lt;Group&gt;">
			<g id="&lt;Group&gt;">
				<path id="&lt;Compound Path&gt;" fill-rule="evenodd" class="s0" d="m231.9 511l-26.2 0.6-13.3 0.2c-4.5 0.1-9 0.1-13.4 0.1h-0.9v-0.9l-0.1-22.4v-1h1l26.5 0.1c8.8 0.1 17.6 0.3 26.4 0.4h0.6v0.5c0 3.8-0.2 7.6-0.3 11.3zm0 0l-0.3-11.3c0-3.5-0.2-7-0.2-10.5-8.7 0.1-17.3 0.3-26 0.3l-25.4 0.1-0.1 20.5c4 0.1 8.1 0.1 12.2 0.1l13.1 0.3zm-0.5-21.9q0.2 0 0.5 0l-0.5-0.5q0 0.3 0 0.5zm-51.4 0.5v-1l-1 1zm-0.1 20.5q-0.5 0-0.9 0l0.9 0.9z"/>
			</g>
			<g id="&lt;Group&gt;">
				<path id="&lt;Compound Path&gt;" fill-rule="evenodd" class="s0" d="m202.4 539.2l-26.2 0.6-13.4 0.2c-4.4 0.1-8.9 0.1-13.4 0.1h-0.8v-0.9l-0.2-22.4v-1h1l26.5 0.2c8.8 0 17.7 0.2 26.5 0.3h0.6l-0.1 0.5c0 3.8-0.1 7.6-0.2 11.3zm0 0l-0.3-11.3c-0.1-3.5-0.2-7-0.3-10.5-8.6 0.1-17.2 0.3-25.9 0.3l-25.5 0.2-0.1 20.5c4.1 0 8.1 0 12.2 0.1l13.2 0.2zm-0.6-21.8q0.3 0 0.6 0l-0.6-0.6q0 0.3 0 0.6zm-51.4 0.4v-1l-1 1zm-0.1 20.5q-0.4 0-0.9 0l0.9 0.9z"/>
			</g>
			<g id="&lt;Group&gt;">
				<path id="&lt;Compound Path&gt;" fill-rule="evenodd" class="s0" d="m713 739.6l-26.2 0.5-13.4 0.3c-4.4 0.1-8.9 0-13.4 0.1h-0.8l-0.1-0.9-0.1-22.4v-1h1l26.5 0.1c8.8 0 17.7 0.3 26.5 0.4h0.6l-0.1 0.5c0 3.8-0.1 7.6-0.2 11.3zm0 0l-0.3-11.3c-0.1-3.5-0.2-7-0.3-10.5-8.6 0.1-17.2 0.3-25.9 0.3l-25.5 0.1-0.1 20.5c4.1 0.1 8.1 0 12.2 0.1l13.2 0.3zm-0.6-21.9q0.3 0 0.6 0l-0.6-0.5q0 0.3 0 0.5zm-51.4 0.5v-1l-1 1zm-0.1 20.5q-0.4 0-0.9 0l0.9 0.9z"/>
			</g>
			<g id="&lt;Group&gt;">
				<path id="&lt;Compound Path&gt;" fill-rule="evenodd" class="s0" d="m683.5 767.8l-26.3 0.6-13.3 0.2c-4.5 0.1-8.9 0.1-13.4 0.1h-0.9v-0.9l-0.1-22.4v-1h1l26.5 0.2c8.8 0 17.6 0.2 26.5 0.3h0.5v0.5c0 3.8-0.2 7.6-0.3 11.3zm0 0l-0.2-11.3c-0.1-3.5-0.3-7-0.3-10.5-8.6 0.1-17.3 0.3-25.9 0.3l-25.5 0.1-0.1 20.5c4 0.1 8.1 0.1 12.2 0.2l13.1 0.2zm-0.5-21.9q0.3 0 0.5 0l-0.5-0.5q0 0.3 0 0.5zm-51.4 0.5v-1l-1 1zm-0.1 20.5q-0.5 0-0.9 0l0.9 0.9z"/>
			</g>
			<g id="&lt;Group&gt;">
				<path id="&lt;Compound Path&gt;" fill-rule="evenodd" class="s0" d="m1350.6 535.2l-26.3 0.6-13.3 0.2c-4.5 0.1-8.9 0.1-13.4 0.1h-0.9v-0.9l-0.1-22.4v-1h1l26.5 0.2c8.8 0 17.6 0.2 26.5 0.3h0.5v0.5c0 3.8-0.2 7.6-0.3 11.3zm0 0l-0.2-11.3c-0.1-3.5-0.3-7-0.3-10.5-8.6 0.1-17.3 0.3-25.9 0.3l-25.5 0.2-0.1 20.5c4 0 8.1 0 12.2 0.1l13.1 0.2zm-0.5-21.8q0.3 0 0.5 0l-0.5-0.6q0 0.3 0 0.6zm-51.4 0.4v-1l-1 1zm-0.1 20.5q-0.5 0-0.9 0l0.9 0.9z"/>
			</g>
			<g id="&lt;Group&gt;">
				<path id="&lt;Compound Path&gt;" fill-rule="evenodd" class="s0" d="m1113.3 125.5l-26.3 0.6-13.3 0.2c-4.4 0.1-8.9 0-13.4 0.1h-0.9v-0.9l-0.1-22.4v-1h1l26.5 0.1c8.8 0.1 17.7 0.3 26.5 0.4h0.5v0.5c0 3.8-0.1 7.6-0.2 11.3zm0 0l-0.3-11.3c-0.1-3.5-0.2-7-0.3-10.5-8.6 0.1-17.3 0.3-25.9 0.3l-25.5 0.1-0.1 20.5c4.1 0.1 8.1 0.1 12.2 0.1l13.2 0.3zm-0.6-21.9q0.3 0 0.6 0l-0.6-0.5q0 0.3 0 0.5zm-51.4 0.5v-1l-1 1zm-0.1 20.5q-0.5 0-0.9 0l0.9 0.9z"/>
			</g>
			<g id="&lt;Group&gt;">
				<path id="&lt;Compound Path&gt;" fill-rule="evenodd" class="s0" d="m1142.8 153.7l-26.2 0.6-13.3 0.2c-4.5 0.1-9 0.1-13.4 0.1h-0.9v-0.9l-0.1-22.4v-1h1l26.4 0.2c8.9 0 17.7 0.2 26.5 0.3h0.6v0.5c-0.1 3.8-0.2 7.6-0.3 11.3zm0 0l-0.3-11.3c-0.1-3.5-0.2-7-0.2-10.5-8.7 0.1-17.3 0.3-26 0.3l-25.5 0.2-0.1 20.5c4.1 0 8.2 0 12.2 0.1l13.2 0.2zm-0.5-21.8q0.2 0 0.5-0.1l-0.5-0.5q0 0.3 0 0.6zm-51.5 0.4v-1l-1 1zm-0.1 20.5q-0.4 0-0.9 0l0.9 0.9z"/>
			</g>
			<g id="&lt;Group&gt;">
				<path id="&lt;Compound Path&gt;" fill-rule="evenodd" class="s0" d="m231.9 142.3l-26.2 0.5-13.3 0.3c-4.5 0.1-9 0-13.4 0.1h-0.9v-0.9l-0.1-22.4v-1h1l26.5 0.1c8.8 0 17.6 0.3 26.4 0.4h0.6v0.5c0 3.8-0.2 7.6-0.3 11.3zm0 0l-0.3-11.3c0-3.5-0.2-7-0.2-10.5-8.7 0.1-17.3 0.3-26 0.3l-25.4 0.1-0.1 20.5c4 0.1 8.1 0 12.2 0.1l13.1 0.3zm-0.5-21.9q0.2 0 0.5 0l-0.5-0.5q0 0.2 0 0.5zm-51.4 0.5v-1l-1 1zm-0.1 20.5q-0.5 0-0.9 0l0.9 0.9z"/>
			</g>
			<g id="&lt;Group&gt;">
				<path id="&lt;Compound Path&gt;" fill-rule="evenodd" class="s0" d="m611.4 345.1l-26.2 0.6-13.3 0.2c-4.5 0.1-9 0.1-13.4 0.1h-0.9v-0.9l-0.1-22.4v-1h1l26.4 0.1c8.9 0.1 17.7 0.3 26.5 0.4h0.6v0.5c-0.1 3.8-0.2 7.6-0.3 11.3zm0 0l-0.3-11.3c-0.1-3.5-0.2-7-0.2-10.5-8.7 0.1-17.3 0.3-26 0.3l-25.5 0.1-0.1 20.5c4.1 0.1 8.2 0.1 12.2 0.1l13.2 0.3zm-0.5-21.9q0.2 0 0.5 0l-0.5-0.5q0 0.3 0 0.5zm-51.5 0.5v-1l-1 1zm-0.1 20.5q-0.4 0-0.9 0l0.9 0.9z"/>
			</g>
		</g>
		<g id="&lt;Group&gt;">
			<g id="&lt;Group&gt;">
				<g id="&lt;Group&gt;">
					<path id="&lt;Path&gt;" class="s1" d="m411.4 51.3v-51.3"/>
					<g id="&lt;Group&gt;">
						<path id="&lt;Path&gt;" class="s0" d="m467.9 105.7l-4.6 9.9h-103.7l-4.6-9.9 44.2-30.6h24.5z"/>
						<path id="&lt;Path&gt;" class="s2" d="m426.7 45.6l-3 29.5h-24.5l-3.1-29.5z"/>
						<path id="&lt;Path&gt;" class="s2" d="m467.8 105.7l-4.5 9.9h-103.8l-4.5-9.9z"/>
					</g>
				</g>
			</g>
			<g id="&lt;Group&gt;">
				<g id="&lt;Group&gt;">
					<path id="&lt;Path&gt;" class="s1" d="m637.1 51.3v-51.3"/>
					<g id="&lt;Group&gt;">
						<path id="&lt;Path&gt;" class="s0" d="m693.6 105.7l-4.6 9.9h-103.7l-4.6-9.9 44.2-30.6h24.5z"/>
						<path id="&lt;Path&gt;" class="s2" d="m652.5 45.6l-3.1 29.5h-24.5l-3.1-29.5z"/>
						<path id="&lt;Path&gt;" class="s2" d="m693.6 105.7l-4.6 9.9h-103.7l-4.6-9.9z"/>
					</g>
				</g>
			</g>
			<g id="&lt;Group&gt;">
				<g id="&lt;Group&gt;">
					<path id="&lt;Path&gt;" class="s1" d="m862.9 51.3v-51.3"/>
					<g id="&lt;Group&gt;">
						<path id="&lt;Path&gt;" class="s0" d="m919.3 105.7l-4.6 9.9h-103.7l-4.6-9.9 44.2-30.6h24.5z"/>
						<path id="&lt;Path&gt;" class="s2" d="m878.2 45.6l-3.1 29.5h-24.5l-3-29.5z"/>
						<path id="&lt;Path&gt;" class="s2" d="m919.3 105.7l-4.6 9.9h-103.7l-4.6-9.9z"/>
					</g>
				</g>
			</g>
			<g id="&lt;Group&gt;">
				<g id="&lt;Group&gt;">
					<path id="&lt;Path&gt;" class="s1" d="m1088.6 51.3v-51.3"/>
					<g id="&lt;Group&gt;">
						<path id="&lt;Path&gt;" class="s0" d="m1145 105.7l-4.6 9.9h-103.7l-4.5-9.9 44.1-30.6h24.5z"/>
						<path id="&lt;Path&gt;" class="s2" d="m1103.9 45.6l-3.1 29.5h-24.5l-3-29.5z"/>
						<path id="&lt;Path&gt;" class="s2" d="m1145 105.7l-4.6 9.9h-103.7l-4.5-9.9z"/>
					</g>
				</g>
			</g>
		</g>
		<g id="&lt;Group&gt;">
			<path id="&lt;Path&gt;" class="s0" d="m213.8 710.3h-8.7v-189.2h8.7z"/>
			<path id="&lt;Path&gt;" class="s2" d="m188.5 597.2l-8.2-2.9 67.3-193.1 8.2 2.8z"/>
			<path id="&lt;Path&gt;" class="s0" d="m206.2 721.8v132.7c0 1.3 1 2.3 2.2 2.3 1.3 0 2.3-1 2.3-2.3l2.1-132.7z"/>
			<g id="&lt;Group&gt;">
				<path id="&lt;Path&gt;" class="s0" d="m199.6 721.8l-87.4 131.6c-0.5 1.2 0.2 2.6 1.5 3 1.2 0.5 2.6-0.2 3-1.4l89.5-130.9z"/>
				<path id="&lt;Path&gt;" class="s0" d="m219.4 721.8l87.4 131.6c0.4 1.2-0.3 2.6-1.5 3-1.3 0.5-2.6-0.2-3.1-1.4l-89.4-130.9z"/>
			</g>
			<path id="&lt;Path&gt;" class="s2" d="m198.7 710.3v6.8c0 5.9 4.9 10.7 10.8 10.7 5.9 0 10.7-4.8 10.7-10.7v-6.8z"/>
			<path id="&lt;Path&gt;" class="s2" d="m225.1 716.9h-31.3v-11.4h31.3z"/>
			<g id="&lt;Group&gt;">
				<path id="&lt;Path&gt;" class="s2" d="m195.9 523.7c0-7.4 6.1-13.5 13.6-13.5 7.4 0 13.5 6.1 13.5 13.5 0 7.5-6.1 13.6-13.5 13.6-7.5 0-13.6-6.1-13.6-13.6z"/>
				<path id="&lt;Path&gt;" class="s0" d="m200.9 523.7c0-4.7 3.8-8.5 8.6-8.5 4.7 0 8.5 3.8 8.5 8.5 0 4.8-3.8 8.6-8.5 8.6-4.8 0-8.6-3.8-8.6-8.6z"/>
			</g>
			<g id="&lt;Group&gt;">
				<path id="&lt;Path&gt;" class="s0" d="m254.1 375l25.7 54.1-34.2 16.3c-15 7-32.7 0.7-39.8-14.2-3.6-7.5-3.8-15.7-1.2-22.9 2.6-7.2 7.9-13.5 15.4-17z"/>
				<path id="&lt;Path&gt;" class="s2" d="m249.1 364.6l35.6 74.9-32.6 2.8-25.7-54.1z"/>
				<path id="&lt;Path&gt;" class="s0" d="m326.9 472.2l-42.2-32.7-35.6-74.9 1.2-53.4z"/>
				<path id="&lt;Path&gt;" class="s2" d="m377.4 474.5l-50.5-2.3-76.6-161 30.1-40.6z"/>
			</g>
		</g>
	</g>
	<g id="Shadow">
		<path id="&lt;Path&gt;" class="s0" d="m1391 907.4c0 15.1-287 27.4-641 27.4-354 0-641-12.3-641-27.4 0-15.2 287-27.4 641-27.4 354 0 641 12.2 641 27.4z"/>
	</g>
	<g id="Floor">
		<g id="&lt;Group&gt;">
			<path id="&lt;Path&gt;" class="s3" d="m109 855.4l160.3-0.4 160.2-0.2 320.5-0.3 320.5 0.3 160.2 0.2 160.3 0.4-160.3 0.5-160.2 0.2-320.5 0.3-320.5-0.3-160.2-0.2z"/>
		</g>
	</g>
	<g id="Plant">
		<g id="&lt;Group&gt;">
			<g id="&lt;Group&gt;">
				<g id="&lt;Group&gt;">
					<path id="&lt;Path&gt;" class="s4" d="m673.6 550.8c0 0-42.9-6-32.8-57.7 0 0 47.8 10.8 32.8 57.7z"/>
					<path id="&lt;Path&gt;" class="s5" d="m673.6 550.8c0 0-42.9-6-32.8-57.7 0 0 47.8 10.8 32.8 57.7z"/>
					<path id="&lt;Path&gt;" class="s3" d="m671.4 540q-1.3-3.9-2.9-7.7-0.1-0.5-0.1-1-0.1-1-0.2-2.1-0.2-2.3-0.3-4.6c-0.2-3.1-0.4-6.2-0.4-9.3 0-0.2-0.3-0.2-0.3 0 0 3.1-0.1 6.2 0.1 9.3q0 2.3 0.2 4.6 0 0.5 0.1 1.1c-2.4-5.2-5.3-10.1-8.6-14.7q-2.2-3.1-4.7-6c-1.7-1.9-3.5-3.8-5.2-5.7-0.1-0.1-0.3 0.1-0.2 0.2 3.1 3.3 5.7 7.2 8.2 10.9q2 3 3.7 6.1-0.2-0.1-0.4-0.2-0.7-0.3-1.5-0.6-1.7-0.6-3.5-1.3-3.4-1.3-6.9-2.6c-0.1 0-0.2 0.2-0.1 0.3q3.4 1.3 6.8 2.8 1.7 0.7 3.3 1.4 0.9 0.4 1.7 0.7c0.4 0.2 0.8 0.4 1.1 0.4 0.9 1.6 1.8 3.1 2.6 4.7 1.9 4 3.7 8.2 5.2 12.4q0.1 0.4 0.3 0.9c-1.1-0.8-2.4-1.2-3.5-1.7q-2.2-1.1-4.4-2.1c-3.1-1.3-6-2.7-8.9-4.4-0.2 0-0.3 0.2-0.1 0.3 2.9 1.6 5.8 3.3 8.7 4.9q2.2 1.2 4.5 2.3c1.2 0.6 2.6 1.4 4 1.6 1.4 4 2.5 8 2.8 12.1 0.5 5.9 0.5 11.8 0.6 17.6 0 0.2 0.1 0.1 0.1 0 0.5-5.3 0.7-10.6 0.7-16 0.1-5-1-9.8-2.5-14.6z"/>
					<path id="&lt;Path&gt;" class="s3" d="m664.8 509.6c-0.3 3-0.6 6.1-0.4 9.1 0 0.1 0.1 0.1 0.1 0 0.2-3 0.2-6 0.6-9 0-0.2-0.3-0.2-0.3-0.1z"/>
					<path id="&lt;Path&gt;" class="s3" d="m652.6 512.2c-1.9-0.8-3.8-1.5-5.5-2.7-0.2-0.1-0.3 0.1-0.2 0.2 1.8 1.1 3.6 2.2 5.6 2.7 0.1 0 0.2-0.1 0.1-0.2z"/>
				</g>
				<path id="&lt;Path&gt;" class="s3" d="m674.9 632.9c0-4.7-0.1-9.5-0.1-14.2-0.1-15.7-0.3-31.4-0.5-47.2q-0.4-18.7-0.9-37.4 0-0.1-0.1-0.1 0-5.1-0.1-10.3c0 0-0.1-0.1-0.2-0.1-0.1 0-0.2 0.1-0.2 0.2q0 5.1 0 10.2-0.1 0-0.1 0.1c-0.7 22.2-1.2 44.5-1.4 66.7q0 6.7 0 13.5-0.2 21.7-0.2 43.4 0 3.5 0 7c-0.1 13.2 0.1 26.5 0.1 39.7 0 0.7 0.8 1.1 1.6 1.1 1 0 2-0.3 2-1.2 0-14.6 0.1-29.2 0.1-43.8 0.1-9.2 0.1-18.4 0-27.6z"/>
				<g id="&lt;Group&gt;">
					<path id="&lt;Path&gt;" class="s4" d="m657.1 618.5c0 0-20.6-15.2-40.2-4.9-19.5 10.3-22.6 50-22.6 50 0 0 28.7 4.1 46.8-13.1 17.4-16.6 16-32 16-32z"/>
					<path id="&lt;Path&gt;" class="s3" d="m662.7 619.5c-3.8-1.6-7.9-2-12-1.6-0.8-0.2-1.7-0.2-2.5-0.2q-1.4-0.1-2.9-0.3c-2-0.1-4-0.2-6-0.4-4.1-0.3-8.1-0.5-12.2-0.9-0.1-0.1-0.2 0.2 0 0.2 4 0.5 8 1.1 12 1.5 2.1 0.2 4.2 0.4 6.2 0.6q0.8 0 1.5 0.1-0.9 0.2-1.8 0.5c-3.2 0.9-6.3 2.2-9.3 3.8-1.6 0.3-3.3 0.7-4.8 1.1q-3.9 0.9-7.7 1.9c-5 1.3-9.9 2.8-14.9 4.2-0.1 0.1-0.1 0.3 0.1 0.3 5-1.2 9.9-2.3 14.9-3.5q3.6-0.9 7.3-1.8 0.9-0.2 1.8-0.4c-5.5 3.4-10.5 7.8-14.6 12.7-4.1 5-7.4 10.3-10.2 16.1 0 0.1 0.2 0.3 0.2 0.1 3.4-5.8 7.6-11.3 12.4-16.1q-0.2 0.4-0.3 0.8-0.6 1.8-1.2 3.6-1.1 3.6-2.2 7.3c-0.1 0.2 0.2 0.2 0.2 0.1q1.3-3.6 2.6-7.1 0.6-1.8 1.2-3.5 0.3-0.9 0.6-1.8 0.1-0.3 0.2-0.6c2.3-2.2 4.8-4.3 7.3-6.2 3.4-2.5 7.1-4.6 10.9-6.2q-0.1 0.5-0.2 1-0.3 1.4-0.6 2.8-0.6 2.9-1.1 5.9c-0.8 4-1.3 8-2 12-0.1 0.2 0.2 0.2 0.2 0.1 0.9-4.1 2.1-8 3-12q0.7-3 1.3-6 0.3-1.5 0.6-2.9c0.1-0.5 0.2-1 0.3-1.6q0.6-0.2 1.1-0.4c5.4-2 11.4-3.5 17.2-2.4 5.5 1.1 10.2 4.8 12.4 10 0.1 0.4 0.9 0.1 0.7-0.3-1.1-5-5.2-8.6-9.7-10.5z"/>
					<path id="&lt;Path&gt;" class="s3" d="m631.1 636.4q-0.8 3.9-1.7 7.9c-0.6 2.5-1.2 5-1.4 7.6 0 0.1 0.1 0.1 0.1 0 0.9-2.5 1.3-5.1 1.8-7.7q0.7-3.8 1.5-7.7c0-0.2-0.2-0.2-0.3-0.1z"/>
					<path id="&lt;Path&gt;" class="s3" d="m611.2 643.1c-2.6 1.3-5.2 2.8-7.9 3.9-0.2 0.1-0.1 0.3 0.1 0.2 2.7-1.3 5.4-2.4 7.9-4 0-0.1 0-0.2-0.1-0.1z"/>
				</g>
				<g id="&lt;Group&gt;">
					<path id="&lt;Path&gt;" class="s4" d="m661.7 590.5c0 0-25.2 1.6-36.9-15-11.7-16.6-9.1-40.3-9.1-40.3 0 0 26.5 3.2 37 15.1 10.5 11.9 9 40.2 9 40.2z"/>
					<path id="&lt;Path&gt;" class="s3" d="m673.5 615.3c-0.9-2.7-2-5.3-3-8q-1.4-3.8-3.1-7.5c-2.3-5.1-4.8-10-7.5-14.8-1.8-3.1-3.7-6.1-5.7-9 0-0.4-0.1-0.9-0.2-1.3q-0.2-1.2-0.3-2.4-0.4-2.4-0.8-4.8c-0.6-3.4-1.3-6.9-1.9-10.4 0-0.1-0.3-0.1-0.2 0 0.5 3.5 0.8 6.9 1.3 10.4q0.3 2.5 0.7 5 0.1 1 0.3 1.9-5.8-8.4-12.5-16.2-0.9-1-1.8-2-0.1-0.3-0.2-0.6-0.3-0.7-0.6-1.5-0.5-1.5-1.1-3-1-2.9-1.8-5.9c-0.1-0.2-0.3-0.1-0.3 0q0.8 3.1 1.7 6.2 0.4 1.5 0.9 2.9 0.1 0.3 0.2 0.5c-3.2-3.5-6.6-6.9-10-10.2-0.1-0.1-0.3 0-0.1 0.2 6.5 6.7 12.3 14.1 17.8 21.8q-0.9-0.3-1.9-0.5c-1.9-0.3-3.9-0.6-5.8-0.9-4.1-0.5-8.2-1-12.3-1.6-0.2-0.1-0.2 0.2-0.1 0.2 3.9 0.8 7.8 1.7 11.7 2.6 1.8 0.4 3.6 0.7 5.5 1.1 1.5 0.3 2.9 0.8 4.4 1.3q0.6 0.8 1.2 1.7 2.8 4 5.4 8.2-1.3-0.3-2.6-0.5-2.9-0.6-5.8-1.1c-3.9-0.6-7.7-1.3-11.5-2.1-0.2-0.1-0.2 0.2-0.1 0.2 3.9 0.9 7.7 2 11.5 3q2.8 0.7 5.6 1.4 1.4 0.3 2.8 0.6c0.4 0 0.8 0.2 1.1 0.2q5.5 8.9 10.3 18.3 2.1 4.1 4.1 8.2c1.3 2.9 2.5 5.8 3.7 8.7 0.3 0.6 1.2 0.4 1-0.3z"/>
					<path id="&lt;Path&gt;" class="s3" d="m647.7 557.5q-0.7-3.6-1.5-7.2c0-0.2-0.3-0.1-0.2 0.1q0.7 3.5 1.3 7.1c0.4 2.3 0.8 4.7 1.5 7 0 0 0 0 0 0-0.1-2.4-0.6-4.7-1.1-7z"/>
					<path id="&lt;Path&gt;" class="s3" d="m633 556.8c-1.1-0.6-2.4-1.1-3.6-1.6q-0.9-0.3-1.9-0.7-0.5-0.2-1-0.4c-0.3-0.1-0.7-0.2-1-0.5-0.2-0.1-0.3 0.2-0.1 0.3 0.3 0 0.7 0.3 1 0.4q0.5 0.2 1 0.4 0.9 0.4 1.8 0.9c1.2 0.5 2.5 1 3.7 1.4 0.2 0.1 0.3-0.2 0.1-0.2z"/>
				</g>
				<g id="&lt;Group&gt;">
					<path id="&lt;Path&gt;" class="s4" d="m687.5 570.7c0 0 15.2-28.5 38.4-32.9 23.1-4.4 37.3 19.5 37.3 19.5 0 0-16.9 21.6-38.1 25.3-21.3 3.8-37.6-11.9-37.6-11.9z"/>
					<path id="&lt;Path&gt;" class="s3" d="m741.4 550.6c-6-0.8-12.2-0.7-18.2 0.2q0.5-0.3 1.1-0.6 2.5-1.3 5.1-2.6c3.6-1.9 7.2-3.8 10.9-5.3 0.2-0.1 0.1-0.3-0.1-0.3-3.6 1.7-7.4 3.1-11 4.8q-2.8 1.3-5.4 2.7c-1.2 0.6-2.4 1.1-3.6 1.9-5 1-10 2.6-14.7 4.9q1.5-1.6 2.9-3.2c2.2-2.4 4.3-4.8 6.7-7 0.1-0.1-0.1-0.3-0.2-0.2-2.4 2.2-5 4.3-7.4 6.6q-1.7 1.6-3.3 3.4-0.8 0.9-1.5 1.8c-10.1 5.5-18.7 13.8-24.3 23.8-3.2 5.7-5.5 11.8-6.8 18.2 0 0.2 0.2 0.3 0.2 0.1 3.2-10.8 9.2-20.9 17.1-28.8 8.5-8.7 19.3-15 31-18 7-1.8 14.3-2.4 21.5-2 0.3 0.1 0.3-0.4 0-0.4z"/>
					<path id="&lt;Path&gt;" class="s5" d="m763.2 557.3c0 0-16.9 21.6-38.1 25.3-16.3 2.9-29.6-5.6-35-9.7l-1.2-1.9c0 0 11-9.3 31.7-14.6 20.8-5.4 42.6 0.9 42.6 0.9z"/>
					<path id="&lt;Path&gt;" class="s3" d="m727.9 540.4c-1.7 1.1-3.5 2.2-5.1 3.4-1.6 1.3-3.1 2.6-4.5 4.1-0.1 0.2 0.1 0.3 0.2 0.2 1.6-1.3 3.1-2.7 4.7-3.9 1.6-1.3 3.2-2.5 4.9-3.5 0.1-0.1 0-0.4-0.2-0.3z"/>
					<path id="&lt;Path&gt;" class="s3" d="m740.7 545.3c-0.9 0.3-1.8 0.6-2.6 1q-1.3 0.5-2.6 1c-0.2 0.1-0.1 0.4 0.1 0.3q1.3-0.5 2.6-1c0.8-0.4 1.7-0.7 2.5-1.1 0.2-0.1 0.1-0.3 0-0.2z"/>
				</g>
				<g id="&lt;Group&gt;">
					<path id="&lt;Path&gt;" class="s4" d="m684.4 606.5c0 0 4.1 28.2 25.3 38.1 21.2 9.9 47.1 0 47.1 0 0 0-10.2-61.1-72.4-38.1z"/>
					<path id="&lt;Path&gt;" class="s3" d="m742.2 626.3c-2-0.3-3.9-0.6-5.8-1q-1.5-0.2-2.9-0.5-0.7-0.2-1.5-0.3-0.8-0.8-1.7-1.6c-4-3.5-8.4-6.7-13-9.4q-3.8-2.2-7.8-4 0.2 0 0.4 0 3.5 0.2 7 0.3c4.7 0.2 9.3 0.3 14 0.6 0.2 0.1 0.1-0.2 0-0.2-4.7-0.3-9.3-0.8-14-1.2q-3.4-0.3-6.8-0.7-1.7-0.1-3.5-0.3-0.4 0-0.9-0.1-1.8-0.6-3.7-1.2c-5.8-1.8-12-2.5-17.9-1-5.4 1.4-10.7 4.9-12.1 10.5 0 0.2 0.3 0.3 0.3 0.1 2-4.7 7.3-7 12-8 3.1-0.7 6.4-0.6 9.6-0.2 0.1 1.4 0.7 2.9 1.1 4.3q0.8 2.9 1.7 5.9c1.2 4 2.6 7.9 3.7 11.9 0.1 0.1 0.3 0.1 0.3-0.1-1-4-1.8-8-2.8-11.9q-0.7-3-1.4-5.9c-0.3-1.2-0.6-2.7-1.1-4q2.8 0.5 5.5 1.3 4.9 1.5 9.6 3.5c0.3 2.1 0.8 4 1.3 6 0.5 2.5 1.2 5 2 7.4 0 0.2 0.2 0.1 0.2 0q0-0.3-0.1-0.5 0 0 0 0-0.7-3.5-1.5-6.9c-0.4-1.9-0.7-3.8-1.1-5.6q3.9 1.8 7.7 3.9c0.1 0.6 0.2 1.2 0.3 1.7q0.2 1.4 0.5 2.9 0.6 3.3 1.4 6.5c1 4.1 2.1 8.3 3.6 12.3q-0.1 0 0 0.1 0.1 0.1 0.1 0.2c0.1 0.1 0.3 0 0.2-0.2-0.9-4.1-2.1-8.3-3-12.5q-0.7-3.1-1.3-6.3-0.3-1.6-0.6-3.1-0.1-0.5-0.2-1 4.3 2.6 8.3 5.5c4.5 3.4 8.9 7.3 12.6 11.6 0.2 0.1 0.5-0.1 0.4-0.3-1.7-2.1-3.3-4.2-5.1-6.1q-1.6-1.8-3.3-3.4 0.2 0 0.3 0.1 1.5 0.2 3 0.4c2 0.3 4 0.5 5.9 0.7 0.2 0 0.3-0.2 0.1-0.2z"/>
					<path id="&lt;Path&gt;" class="s3" d="m727.3 635.8q0 0 0 0-0.1-0.3-0.1-0.7c-0.1-0.3-0.3-0.6-0.3-0.9q0 0 0 0-0.7-2.9-1.2-5.7c0-0.2-0.2-0.1-0.2 0 0.1 2.5 0.7 5 1.6 7.4 0.1 0 0.2 0 0.2-0.1q0 0 0 0z"/>
					<path id="&lt;Path&gt;" class="s3" d="m709.5 635.4q0-0.1-0.1-0.1-0.9-3.8-1.7-7.6-0.4-1.9-0.8-3.9-0.2-1.1-0.4-2.2c-0.1-0.6-0.2-1.3-0.5-1.8 0-0.1-0.2-0.1-0.2 0-0.2 1.2 0.3 2.6 0.5 3.8q0.4 2.1 0.9 4.1 0.9 4.2 2.1 8.3c0 0.2 0.3 0.2 0.3 0q-0.1-0.3-0.1-0.6z"/>
					<path id="&lt;Path&gt;" class="s3" d="m740.3 618.1c-3.9-0.5-7.8-1.1-11.7-1.5-0.1-0.1-0.2 0.2 0 0.2 3.8 0.6 7.7 1.1 11.6 1.6 0.2 0 0.2-0.3 0.1-0.3z"/>
				</g>
				<g id="&lt;Group&gt;">
					<path id="&lt;Path&gt;" class="s4" d="m673.5 540.3c0 0-12.9-57 48.3-80.1 0 0 16.9 75.1-48.3 80.1z"/>
					<path id="&lt;Path&gt;" class="s3" d="m686.8 508q0.3-0.2 0.6-0.4 1.7-1 3.5-2l7.1-3.9c4.7-2.6 9.3-5.4 14-7.9 0.1-0.1 0-0.3-0.2-0.2-4.7 2.5-9.5 4.9-14.2 7.4l-7 3.7q-1.5 0.8-2.9 1.6c2-3.9 4.2-7.7 6.6-11.4 3.2-4.9 6.7-9.5 10.4-14.1 0.1-0.2-0.1-0.4-0.3-0.2-5.4 5.1-10.1 11-14.2 17.3q0-0.3 0-0.6 0.1-2.1 0.2-4.2c0-2.8-0.1-5.6-0.1-8.4 0.1-0.2-0.2-0.1-0.2 0-0.1 2.8-0.5 5.5-0.6 8.2q-0.1 2.1-0.2 4.1c0 0.8-0.1 1.6-0.1 2.4q-1.8 3-3.6 6.1c-2 3.7-3.8 7.5-5.4 11.5q-0.1-2.1-0.3-4.3c-0.2-3.1-0.5-6.2-0.7-9.3 0-0.2-0.2-0.2-0.2 0 0 3.1-0.1 6.2 0 9.4q0 2.3 0.2 4.6 0 0.9 0.1 1.8c-2 5.1-3.5 10.4-4.6 15.6-1.2 5.8-1.7 11.5-2.3 17.3 0 0 0 0 0.1 0 0.5-5.2 1.8-10.4 3.2-15.4q1.1-4 2.4-8c2.6-1.2 5-2.7 7.5-4.1q3.8-2.1 7.7-4.2c5.1-2.8 10.2-5.6 15.4-8.1 0.2-0.1 0-0.3-0.1-0.2-5.3 2.4-10.7 4.7-16 7.3q-3.9 2-7.7 4.2c-2.1 1.2-4.3 2.4-6.3 3.7q0.9-2.6 1.9-5.2 2.8-7.2 6.3-14.1z"/>
					<path id="&lt;Path&gt;" class="s3" d="m681.6 494.9c0-0.1-0.3-0.1-0.3 0.1 0.3 3.2 0.4 6.5 0.7 9.7 0 0.2 0.3 0.2 0.3 0-0.1-3.3-0.5-6.5-0.7-9.8z"/>
					<path id="&lt;Path&gt;" class="s3" d="m711 505.8c-3.9 1.6-7.7 3-11.6 4.6-0.1 0.1 0 0.3 0.1 0.2 3.9-1.4 7.7-3 11.5-4.5 0.2-0.1 0.1-0.3 0-0.3z"/>
					<path id="&lt;Path&gt;" class="s3" d="m716.8 479.5c-3.8 1.8-7.4 3.7-10.9 5.9-0.2 0.1 0 0.4 0.2 0.3 3.5-2.1 7.1-4.1 10.8-5.9 0.2-0.1 0-0.3-0.1-0.3z"/>
				</g>
			</g>
			<g id="&lt;Group&gt;">
				<path id="&lt;Path&gt;" class="s6" d="m715.8 756.6h-88.3v-93.1h88.3z"/>
				<g id="&lt;Group&gt;">
					<path id="&lt;Path&gt;" class="s3" d="m626 855.9h-4.5v-159.4h4.5z"/>
					<path id="&lt;Path&gt;" class="s3" d="m721.4 855.9h-4.5v-159.4h4.5z"/>
					<path id="&lt;Path&gt;" class="s3" d="m676.1 855.9h-4.5v-159.4h4.5z"/>
					<path id="&lt;Path&gt;" class="s3" d="m719.2 763.5h-95.5v-12.8h95.5z"/>
				</g>
			</g>
		</g>
	</g>
	<g id="Backdrop">
		<g id="&lt;Group&gt;">
			<g id="&lt;Group&gt;">
				<path id="&lt;Path&gt;" class="s2" d="m1257.9 156.1c0 0 0 477.8 0 615.2 0 124.3-109.9 136.9-109.9 136.9h-498.1c0 0 109.9-43.3 109.9-146.1 0-135.2 0-606 0-606z"/>
			</g>
			<path id="&lt;Path&gt;" class="s6" d="m1270.6 166.8h-523.6v-27h523.6z"/>
			<path id="&lt;Path&gt;" class="s3" d="m753.1 171.7h-12.2v-35.2h12.2z"/>
			<path id="&lt;Path&gt;" class="s3" d="m1276.7 171.7h-12.2v-35.2h12.2z"/>
		</g>
	</g>
	<g id="Lights">
		<g id="&lt;Group&gt;">
			<path id="&lt;Path&gt;" class="s7" d="m1285.9 767.9h8.6v-181.3h-8.6z"/>
			<path id="&lt;Path&gt;" class="s6" d="m1311.2 662.6l8.2-2.9-67.3-193.1-8.2 2.8z"/>
			<path id="&lt;Path&gt;" class="s7" d="m1293.5 779.5v132.7c0 1.2-1 2.2-2.2 2.2-1.3 0-2.3-1-2.3-2.2l-2.1-132.7z"/>
			<g id="&lt;Group&gt;">
				<path id="&lt;Path&gt;" class="s7" d="m1300.1 779.5l87.4 131.5c0.5 1.3-0.2 2.7-1.5 3.1-1.2 0.4-2.6-0.2-3-1.5l-89.5-130.9z"/>
				<path id="&lt;Path&gt;" class="s7" d="m1280.3 779.5l-87.4 131.5c-0.4 1.3 0.3 2.7 1.5 3.1 1.3 0.4 2.6-0.2 3.1-1.5l89.4-130.9z"/>
			</g>
			<path id="&lt;Path&gt;" class="s3" d="m1300.9 767.9v6.9c0 5.9-4.8 10.7-10.7 10.7-5.9 0-10.7-4.8-10.7-10.7v-6.9z"/>
			<path id="&lt;Path&gt;" class="s6" d="m1274.6 774.5h31.3v-11.4h-31.3z"/>
			<g id="&lt;Group&gt;">
				<path id="&lt;Path&gt;" class="s3" d="m1303.8 589.1c0-7.4-6.1-13.5-13.6-13.5-7.4 0-13.5 6.1-13.5 13.5 0 7.5 6.1 13.6 13.5 13.6 7.5 0 13.6-6.1 13.6-13.6z"/>
				<path id="&lt;Path&gt;" class="s7" d="m1298.8 589.1c0-4.7-3.8-8.5-8.6-8.5-4.7 0-8.5 3.8-8.5 8.5 0 4.8 3.8 8.6 8.5 8.6 4.8 0 8.6-3.8 8.6-8.6z"/>
			</g>
			<g id="&lt;Group&gt;">
				<path id="&lt;Path&gt;" class="s7" d="m1248.2 437.7l-24.3 54.7 34.7 15.4c15 6.6 32.7-0.2 39.4-15.3 3.3-7.5 3.3-15.7 0.5-22.9-2.7-7.1-8.2-13.2-15.8-16.6z"/>
				<path id="&lt;Path&gt;" class="s3" d="m1253 427l-33.7 75.9 32.7 2 24.3-54.8z"/>
				<path id="&lt;Path&gt;" class="s7" d="m1177.9 536.7l41.4-33.8 33.7-75.9-2.7-53.3z"/>
				<path id="&lt;Path&gt;" class="s6" d="m1127.5 540.3l50.4-3.6 72.4-163-31.1-39.8z"/>
			</g>
		</g>
		<g id="&lt;Group&gt;">
			<path id="&lt;Path&gt;" class="s7" d="m613.1 710.3h-8.6v-329.2h8.6z"/>
			<path id="&lt;Path&gt;" class="s6" d="m587.8 457.2l-8.2-2.9 67.3-193.1 8.2 2.8z"/>
			<path id="&lt;Path&gt;" class="s7" d="m605.5 721.8v132.7c0 1.3 1 2.3 2.3 2.3 1.2 0 2.2-1 2.2-2.3l2.1-132.7z"/>
			<g id="&lt;Group&gt;">
				<path id="&lt;Path&gt;" class="s7" d="m598.9 721.8l-87.4 131.6c-0.4 1.2 0.2 2.6 1.5 3 1.2 0.5 2.6-0.2 3-1.4l89.5-130.9z"/>
				<path id="&lt;Path&gt;" class="s7" d="m618.7 721.8l87.4 131.6c0.4 1.2-0.2 2.6-1.5 3-1.2 0.5-2.6-0.2-3-1.4l-89.5-130.9z"/>
			</g>
			<path id="&lt;Path&gt;" class="s3" d="m598.1 710.3v6.8c0 5.9 4.8 10.7 10.7 10.7 5.9 0 10.7-4.8 10.7-10.7v-6.8z"/>
			<path id="&lt;Path&gt;" class="s6" d="m624.5 716.9h-31.4v-11.4h31.4z"/>
			<g id="&lt;Group&gt;">
				<path id="&lt;Path&gt;" class="s3" d="m595.3 383.7c0-7.4 6-13.5 13.5-13.5 7.5 0 13.5 6.1 13.5 13.5 0 7.5-6 13.6-13.5 13.6-7.5 0-13.5-6.1-13.5-13.6z"/>
				<path id="&lt;Path&gt;" class="s7" d="m600.2 383.7c0-4.7 3.9-8.5 8.6-8.5 4.7 0 8.6 3.8 8.6 8.5 0 4.8-3.9 8.6-8.6 8.6-4.7 0-8.6-3.8-8.6-8.6z"/>
			</g>
			<g id="&lt;Group&gt;">
				<path id="&lt;Path&gt;" class="s7" d="m684.9 233l-16.8 57.5-36.4-10.7c-15.8-4.7-24.8-21.2-20.2-37.1 2.4-7.9 7.7-14.2 14.4-17.8 6.7-3.7 14.9-4.8 22.8-2.5z"/>
				<path id="&lt;Path&gt;" class="s3" d="m688.2 221.9l-23.3 79.6-26.3-19.6 16.9-57.5z"/>
				<path id="&lt;Path&gt;" class="s7" d="m674.5 354l-9.6-52.5 23.3-79.6 36.5-39z"/>
				<path id="&lt;Path&gt;" class="s6" d="m710.6 389.4l-36.1-35.4 50.2-171.1 49.5-10.2z"/>
			</g>
		</g>
	</g>
	<g id="Character 2">
		<g id="&lt;Group&gt;">
			<g id="&lt;Group&gt;">
				<g id="&lt;Group&gt;">
					<g id="&lt;Group&gt;">
						<g id="&lt;Group&gt;">
							<path id="&lt;Path&gt;" class="s8" d="m477.3 901.8c-4.4 1.4-128.3-0.9-133-4-1.8-1.1-2.5-19.2-2.8-41.1 0-0.2-1.6-80.7-1.6-80.7l79.3 1.2 2.3 80.8c0 0 47 22.1 51.8 26 4.7 3.9 8.3 16.5 4 17.8z"/>
							<path id="&lt;Path&gt;" class="s2" d="m341 831.6c0.3 13.9 0.5 25.1 0.5 25.2 0.3 21.8 1 39.9 2.8 41 4.7 3.1 128.6 5.4 132.9 4 4.4-1.4 0.8-13.9-3.9-17.8-4.8-3.9-51.9-26-51.9-26l-0.7-26z"/>
						</g>
						<path id="&lt;Path&gt;" class="s4" d="m440.2 866.6q-0.5-0.2-0.5-0.3 0 0 0.5 0.3z"/>
						<g id="&lt;Group&gt;">
							<path id="&lt;Path&gt;" class="s4" d="m477.5 901.7c-2.8 0.9-55.6 0.5-93.9-0.8-8.9-0.3-17-0.6-23.6-1-9-0.5-15.1-1.1-16.1-1.7-2.1-1.4-2.8-27.9-3-55.9l81 1-0.6 14.6c0 0 47.3 22 52.1 26 4.8 3.9 8.5 16.4 4.1 17.8z"/>
							<g id="&lt;Group&gt;">
								<g id="&lt;Group&gt;">
									<path id="&lt;Path&gt;" class="s3" d="m475.8 896.7c-20.9-0.8-105.1-2.1-125.8-1.4-0.1 0-0.1 0.2 0 0.2 20.7 1.2 104.9 1.9 125.8 1.6 0.4 0 0.4-0.4 0-0.4z"/>
									<path id="&lt;Path&gt;" class="s3" d="m424.3 853.3c-8.2-1.6-18.2-0.5-24.6 5.2-0.2 0.3 0.1 0.6 0.3 0.5 8.2-2.4 15.8-3.9 24.3-4.6 0.6-0.1 0.6-1 0-1.1z"/>
									<path id="&lt;Path&gt;" class="s3" d="m430.2 857c-8.2-1.7-18.3-0.6-24.6 5.2-0.3 0.2 0.1 0.6 0.3 0.5 8.2-2.5 15.8-4 24.2-4.7 0.6 0 0.7-0.9 0.1-1z"/>
									<path id="&lt;Path&gt;" class="s3" d="m436.1 860.6c-8.2-1.6-18.3-0.5-24.6 5.3-0.3 0.2 0 0.5 0.3 0.4 8.1-2.4 15.7-3.9 24.2-4.6 0.6-0.1 0.7-0.9 0.1-1.1z"/>
									<path id="&lt;Path&gt;" class="s3" d="m441.9 864.3c-8.1-1.7-18.2-0.5-24.6 5.2-0.2 0.2 0.1 0.6 0.4 0.5 8.1-2.4 15.7-4 24.2-4.7 0.6 0 0.6-0.9 0-1z"/>
								</g>
							</g>
						</g>
					</g>
					<g id="&lt;Group&gt;">
						<path id="&lt;Path&gt;" class="s3" d="m316.4 418.8c0 0 19.1 210 22.1 226 0.7 3.7 0.8 205.4 0.8 205.4l84.6-0.9c0 0-7.3-173.5-11-205.5-3.7-31.9-20.8-224.6-20.8-224.6z"/>
						<g id="&lt;Group&gt;">
							<path id="&lt;Path&gt;" class="s6" d="m342 832.6c2.5-0.5 5.1-0.5 7.6-0.6q3.8-0.1 7.6-0.3c5-0.1 10-0.3 15.1-0.5q15.3-0.4 30.5-0.9c5.8-0.2 11.5-0.1 17.3-0.1 0.2 0 0.2 0.4 0 0.4-20.3 1.9-40.8 2.2-61.2 2.6q-4.3 0.1-8.7 0.1c-2.8 0.1-5.6 0.2-8.3-0.1-0.4-0.1-0.3-0.6 0.1-0.6z"/>
							<path id="&lt;Path&gt;" class="s6" d="m327.8 428.1c5.9 51.2 11.8 102.4 16.6 153.8 2.4 25.4 4.7 50.9 6.1 76.5 1.5 25.7 2 51.5 2.2 77.2 0.2 29.2 0.8 58.3 0.2 87.5-0.1 0.2-0.5 0.2-0.5 0-2.2-51.5-1.2-103.1-3.7-154.6-2.4-51.6-7.8-102.9-13.1-154.2-3.1-28.7-5.9-57.4-8.7-86.1 0-0.5 0.9-0.6 0.9-0.1z"/>
						</g>
					</g>
				</g>
				<g id="&lt;Group&gt;">
					<g id="&lt;Group&gt;">
						<g id="&lt;Group&gt;">
							<path id="&lt;Path&gt;" class="s8" d="m302.8 910.6c-4.6 0.3-124.6-30.8-128.4-34.9-1.5-1.5 2.1-19.3 6.9-40.6q0.1-0.3 0.2-0.7c1-4.4 26.7-78.2 26.7-78.2l77.8 20.5-26.9 77-0.4 1.3c0 0 40.6 32.4 44.4 37.4 3.7 4.9 4.2 17.9-0.3 18.2z"/>
							<path id="&lt;Path&gt;" class="s2" d="m174.4 875.7c3.8 4.1 123.8 35.2 128.4 34.9 4.5-0.3 4-13.3 0.3-18.3-3.8-4.9-44.4-37.3-44.4-37.3l0.4-1.3 7.9-22.6c-15.1-5-54-14.9-77.5-20.8-4.3 12.5-7.7 22.6-8 24.1q-0.1 0.4-0.2 0.7c-4.8 21.3-8.4 39.1-6.9 40.6z"/>
						</g>
						<g id="&lt;Group&gt;">
							<path id="&lt;Path&gt;" class="s4" d="m303 911.1c-3 0.2-54.1-12.9-91-23.4-8.6-2.4-16.4-4.7-22.6-6.7-8.7-2.6-14.4-4.7-15.2-5.5-1.8-1.9 3.9-27.8 10.5-55l78.4 20.5-4.1 14c0 0 40.6 32.8 44.3 37.8 3.7 5 4.2 18-0.3 18.3z"/>
							<g id="&lt;Group&gt;">
								<g id="&lt;Group&gt;">
									<path id="&lt;Path&gt;" class="s3" d="m302.5 905.9c-20-5.9-101.4-27.5-121.7-31.7-0.2-0.1-0.2 0 0 0.1 19.7 6.2 101.3 27.2 121.6 31.9 0.4 0.1 0.5-0.2 0.1-0.3z"/>
									<path id="&lt;Path&gt;" class="s3" d="m263 851.3c-7.5-3.6-17.6-4.9-25.1-0.9-0.3 0.2-0.1 0.6 0.2 0.6 8.5-0.4 16.2 0 24.6 1.3 0.6 0.1 0.8-0.7 0.3-1z"/>
									<path id="&lt;Path&gt;" class="s3" d="m267.8 856.3c-7.5-3.6-17.6-4.9-25.1-0.9-0.3 0.2-0.1 0.6 0.2 0.6 8.5-0.4 16.2-0.1 24.6 1.3 0.6 0.1 0.9-0.8 0.3-1z"/>
									<path id="&lt;Path&gt;" class="s3" d="m272.6 861.3c-7.5-3.6-17.5-5-25.1-0.9-0.3 0.1-0.1 0.6 0.2 0.5 8.5-0.4 16.2 0 24.6 1.4 0.6 0.1 0.9-0.8 0.3-1z"/>
									<path id="&lt;Path&gt;" class="s3" d="m277.5 866.2c-7.6-3.6-17.6-4.9-25.2-0.8-0.3 0.1 0 0.5 0.2 0.5 8.5-0.4 16.3 0 24.7 1.3 0.6 0.1 0.8-0.7 0.3-1z"/>
								</g>
							</g>
						</g>
					</g>
					<g id="&lt;Group&gt;">
						<g id="&lt;Group&gt;">
							<path id="&lt;Path&gt;" class="s3" d="m266.7 847.7l-85.6-21.2c0 0 65-166.6 68.7-177.8 2.7-8.1 24.5-107.3 32.2-150.7 0 0-11-31.7 14.3-79.4l95.8 0.5c0 0-2.5 45.5-14.2 74.3 0 0-8.7 2.7-22.3 10.1 0 0-28.3 155.2-32.9 169.3-9.9 30.6-56 174.9-56 174.9z"/>
							<g id="&lt;Group&gt;">
								<path id="&lt;Path&gt;" class="s6" d="m339.9 586.5q5.3-27.4 10.6-54.8c1-5.2 2.1-10.3 3.2-15.4 1.1-5.1 2-10.4 3.5-15.4 0.1-0.3 0.6-0.2 0.6 0.1-0.3 4.7-1.2 9.3-1.8 14q-1 6.8-2.1 13.5c-1.7 9.2-3.4 18.4-5.2 27.6-3.6 18.3-7.2 36.7-11.6 54.8-2.4 10.3-4.7 20.5-7.3 30.7-0.1 0.2-0.4 0.1-0.3-0.1 3.3-18.3 6.8-36.7 10.4-55z"/>
								<path id="&lt;Path&gt;" class="s6" d="m360.6 480.7c-1.2-3.2-0.2-6.9 0.4-10.1q1.1-6.2 2.3-12.4 2.7-13.9 5.7-27.7c0.1-0.1 0.2-0.1 0.2 0q-1.4 11.1-3.1 22.1c-1.1 7.4-2.6 14.8-3.5 22.2-0.3 2.4-0.1 7.1 3.3 7.1 3 0.1 4.8-4.3 5.7-6.5 2.9-6.4 4-13.5 5.5-20.3 1.7-8.1 3.2-16.3 4.6-24.5 0.1-0.3 0.5-0.2 0.5 0-0.5 8.2-1.6 16.3-3 24.3-1.3 7.7-2.5 15.8-5.8 22.9-1.2 2.7-2.9 6-6 6.8q-0.7 0.1-1.4 0.1-0.4 3.7-1.2 7.3c-0.5 2.5-1 5.1-1.9 7.5-0.2 0.3-0.6 0.2-0.6-0.1q0 0 0 0c0.1-2.5 0.7-5.1 1.1-7.5q0.8-3.7 1.9-7.2c-2.1-0.3-3.8-2-4.7-4z"/>
								<path id="&lt;Path&gt;" class="s6" d="m344.4 504.5c4.8-2.2 10.1-3.8 15.3-4.9 5.2-1.2 10-1.6 15.3-2 0.2 0 0.2 0.3 0 0.3-5.1 0.8-25.4 5.6-30.5 6.9-0.1 0-0.2-0.2-0.1-0.3z"/>
								<path id="&lt;Path&gt;" class="s6" d="m218 765.9q7-18.2 14-36.4c9.3-24.1 18.8-48.1 28-72.2 9.1-23.9 13-49.2 18.1-74.2 2.5-12.7 5.1-25.4 7.6-38.1 2.6-12.6 5.7-25.2 7.2-38 1.5-12.4-0.3-25 0.9-37.4 1-11.2 4.1-22.1 9-32.2q1.8-3.8 4.1-7.4c0.1-0.3 0.5 0 0.4 0.3-5.7 10.4-9.5 21.7-11.3 33.4-0.8 5.9-1.1 11.7-1 17.6 0.1 6.3 0.6 12.6 0.2 18.9-0.6 12.6-3.6 25-6.1 37.4-2.5 12.6-5.1 25.1-7.7 37.7q-3.8 19.1-7.7 38.1c-2.5 12.4-5 24.8-9.1 36.7-4.1 12-8.9 23.8-13.4 35.6-4.7 12.1-9.4 24.3-14.1 36.4-9.4 24.2-18.6 48.4-28.4 72.4-1.2 2.8-2.3 5.6-3.6 8.3-0.1 0.4-0.7 0.1-0.6-0.3 4-12.3 8.9-24.4 13.5-36.6z"/>
								<path id="&lt;Path&gt;" class="s6" d="m191 808.7c2.5 0.3 5 1 7.4 1.7q3.8 0.9 7.4 1.9c4.9 1.3 9.7 2.6 14.6 3.9q14.7 4 29.5 8c5.6 1.5 11 3.2 16.5 4.9 0.2 0.1 0.1 0.4-0.1 0.4-20-4.1-39.7-9.7-59.3-15.3q-4.2-1.2-8.4-2.4c-2.6-0.8-5.3-1.5-7.8-2.6-0.4-0.1-0.1-0.6 0.2-0.5z"/>
							</g>
						</g>
					</g>
				</g>
			</g>
			<g id="&lt;Group&gt;">
				<g id="&lt;Group&gt;">
					<g id="&lt;Group&gt;">
						<g id="&lt;Group&gt;">
							<g id="&lt;Group&gt;">
								<path id="&lt;Path&gt;" class="s8" d="m384.2 342.4c26.4 45 47.9 69.9 61.2 69 14.7-1.1 50.9-40.9 68.7-62.3 2.4-2.9-36.8-32.6-39.8-29.5-12.2 12.2-30.9 39.7-35.8 41.6-3.2 1.3-14.7-10.6-38.3-29-21.1-16.4-27.7-9.8-16 10.2z"/>
							</g>
						</g>
						<g id="&lt;Group&gt;">
							<g id="&lt;Group&gt;">
								<path id="&lt;Path&gt;" class="s8" d="m512.1 351.2c4.6-4 20.6-20.5 27.9-34.9 3.5-6.9 11.5-28 6.4-31.1-5.1-3.2-8 2.8-8 2.8 0 0 2-9.4-3.4-12.1-5.5-2.7-9.7 6.7-9.7 6.7 0 0 1.4-9.8-4.2-12.1-5.7-2.2-8.3 7.9-8.3 7.9 0 0 1.7-8.9-3.7-8.8-6.6 0.1-7.8 16.9-12.1 24.4-1 1.7-22.3 33.2-22.3 33.2z"/>
								<g id="&lt;Group&gt;">
									<path id="&lt;Path&gt;" class="s3" d="m512.7 278.5c-1 12.4-3.6 17.6-10.9 27.4-0.1 0.2 0.1 0.5 0.3 0.3 8-8.9 12.2-15 11.2-27.6-0.1-0.7-0.6-0.6-0.6-0.1z"/>
									<path id="&lt;Path&gt;" class="s3" d="m525.5 282.2c-2.1 12.7-4.9 18.4-11.8 29.2-0.1 0.2 0.2 0.3 0.3 0.2 7.7-10 11.7-16.2 12.1-29.2 0-0.6-0.5-0.8-0.6-0.2z"/>
									<path id="&lt;Path&gt;" class="s3" d="m538.1 289c-2.9 12.2-5.6 18.6-13.7 28.2-0.2 0.2 0.1 0.5 0.3 0.3 9.2-9 12.7-16.9 13.8-28.3 0.1-0.8-0.2-0.9-0.4-0.2z"/>
								</g>
							</g>
							<g id="&lt;Group&gt;">
								<path id="&lt;Path&gt;" class="s8" d="m475.5 327.3c0 0-2.8-15.3-2.5-22.3 0.2-7 10.8-32.6 16.5-30.7 7.3 2.5 4.1 18.6 1.5 26.2 0 0 17 5.8 17.2 17.8 0.2 12-32.7 9-32.7 9z"/>
								<path id="&lt;Path&gt;" class="s3" d="m491.2 275.7c5 7.1 1 16.9-0.9 24.5-0.2 0.6 0.2 0.9 0.7 0.9 6.9 3 15.9 9.1 17.5 16.9 0.1 0.2 0.4 0.2 0.4-0.1-0.6-8.5-8.9-15.3-16.7-18 2.1-7.8 5.7-17.8-0.9-24.3 0 0-0.1 0-0.1 0.1z"/>
							</g>
						</g>
					</g>
					<g id="&lt;Group&gt;">
						<path id="&lt;Path&gt;" class="s6" d="m453.9 340.5l42.7 36.2c0 0-40.7 39.1-54.9 35.5-14.2-3.5-41.4-39.5-57.9-67.6-16.5-28.1 0.4-26.2 15.1-14.8 14.8 11.5 35.2 32.1 38.4 31.2 3.1-1 16.6-20.5 16.6-20.5z"/>
						<path id="&lt;Path&gt;" class="s7" d="m449.4 343.6l42.6 40.2 9.1-8.8-45.4-41.7z"/>
						<path id="&lt;Path&gt;" class="s3" d="m460 406c-7.3 4.5-14 7.3-18.3 6.2-14.2-3.5-41.4-39.5-57.9-67.6-8.7-14.8-8.1-21.3-3.5-22.4 11.9 12.5 60.5 63.4 79.7 83.8z"/>
					</g>
				</g>
				<g id="&lt;Group&gt;">
					<g id="&lt;Group&gt;">
						<path id="&lt;Path&gt;" class="s4" d="m398.9 441.9l-102.6-23.3c0 0 39.3-75.7 68.1-94.9 13.1-8.7 22.9-4.6 29.9 4.6 1.8 2.3 20.7 42.7 20.1 55.1-0.4 11-11.7 20.6-11.7 20.6z"/>
						<g id="&lt;Group&gt;">
							<path id="&lt;Path&gt;" class="s3" d="m388.1 394.5c-4.7-0.3-9.4-0.6-14.1-0.3-2.4 0.2-4.7 0.5-7 0.8q-1.8 0.2-3.5 0.4c-1.2 0.1-2.5 0.2-3.7 0-0.1 0-0.1 0.1 0 0.1 1.1 0.3 2.2 0.5 3.4 0.6 1.1 0.1 2.3 0.1 3.4 0 2.4-0.1 4.7-0.4 7.1-0.5 4.8-0.4 9.6-0.7 14.4-0.7 0.2 0 0.3-0.3 0-0.4z"/>
							<path id="&lt;Path&gt;" class="s3" d="m398.8 400.8c-3.7-1.1-7.5-2-11.4-2.7-1.9-0.3-3.8-0.6-5.8-0.7q-1.4-0.2-2.8-0.2c-1-0.1-2 0-3-0.1-0.1 0-0.2 0.2-0.1 0.2 1 0.1 2 0.3 2.9 0.5q1.4 0.2 2.9 0.4 2.9 0.5 5.7 1c3.9 0.6 7.7 1.2 11.6 1.9 0.2 0 0.2-0.3 0-0.3z"/>
						</g>
					</g>
					<g id="&lt;Group&gt;">
						<path id="&lt;Path&gt;" class="s6" d="m392 325.5c8.3 19.1 11.5 52.4 11.2 59.7-0.4 10.5-15.2 87.1-15.2 87.1l15.3-10.1 0.9-57.7c0 0 11.2-9 11.2-24.1 0-7-8.2-26.1-14.8-40.1-6.5-13.9-8.6-14.8-8.6-14.8z"/>
						<path id="&lt;Path&gt;" class="s6" d="m375.3 318.5c0 0-0.7 45.6-2.5 58.8-1.9 13.1-22.2 85.8-22.2 85.8l-67.8-31.5c0 0 43.6-70.2 60.9-91.5 17.2-21.4 31.6-21.6 31.6-21.6z"/>
					</g>
				</g>
				<g id="&lt;Group&gt;">
					<g id="&lt;Group&gt;">
						<path id="&lt;Path&gt;" class="s8" d="m375.5 326.2c0 2.1 6.2 17.1 15.3 18.9 3 0.6 6.8-15.4 6.8-15.4l0.6-1.1 7.8-15.6-16.4-17.3-2.4-2.3c0 0-1.8 4.4-4.1 9.9q-0.1 0.4-0.3 0.8-0.2 0.4-0.4 0.9-0.5 1.2-1 2.5c-0.3 0.6-0.5 1.3-0.7 1.9q-0.4 1-0.8 2.1c-2.4 6.7-4.4 13.8-4.4 14.7z"/>
						<path id="&lt;Path&gt;" class="s3" d="m383.1 303.3c1.5 14.3 10.7 22.3 15.1 25.3l7.8-15.6-16.4-17.3-2.4-2.3c0 0-1.8 4.4-4.1 9.9z"/>
					</g>
					<g id="&lt;Group&gt;">
						<path id="&lt;Path&gt;" class="s8" d="m433.7 287.2c2.7 30.6-15.3 35.6-21.9 36.2-5.9 0.5-26.3 1.5-32.2-28.5-5.8-30.1 7.5-41 21.1-42.9 13.6-2 30.3 4.7 33 35.2z"/>
						<g id="&lt;Group&gt;">
							<path id="&lt;Path&gt;" class="s3" d="m428.9 282.3c-0.7 0-1.4-0.1-2.1-0.2-0.8-0.2-1.4-0.2-2-0.8-0.4-0.3-0.4-0.9-0.1-1.3 0.6-0.8 1.6-0.9 2.6-0.8 1 0.1 1.8 0.5 2.6 1.2 0.7 0.8 0 2-1 1.9z"/>
							<path id="&lt;Path&gt;" class="s3" d="m408 283.7c0.7-0.2 1.3-0.4 2-0.6 0.8-0.2 1.4-0.3 2-1 0.3-0.3 0.2-1-0.1-1.3-0.8-0.7-1.8-0.7-2.7-0.5-1.1 0.3-1.8 0.8-2.4 1.6-0.6 0.8 0.2 1.9 1.2 1.8z"/>
							<g id="&lt;Group&gt;">
								<g id="&lt;Group&gt;">
									<path id="&lt;Path&gt;" class="s3" d="m413.3 290.9c0-0.1-0.2 0.1-0.1 0.2 0.2 2 0.1 4.4-1.7 5.3 0 0 0 0.1 0.1 0.1 2.2-0.5 2.3-3.7 1.7-5.6z"/>
									<path id="&lt;Path&gt;" class="s3" d="m411.3 288.8c-3.4 0.1-3.1 6.8 0 6.8 3.1-0.1 2.8-6.8 0-6.8z"/>
								</g>
								<path id="&lt;Path&gt;" class="s3" d="m409.9 289.3c-0.5 0.4-1.1 1.1-1.8 1.2-0.8 0.1-1.4-0.6-2-1.2-0.1-0.1-0.1 0-0.1 0.1 0 1.3 0.6 2.6 2 2.7 1.3 0.1 2.1-1.1 2.4-2.4 0-0.2-0.2-0.6-0.5-0.4z"/>
							</g>
							<path id="&lt;Path&gt;" class="s3" d="m413.9 308c0.5 0.5 1 1.1 1.8 1.2 0.7 0 1.6-0.3 2.2-0.6 0.1 0 0.2 0.1 0.1 0.2-0.5 0.8-1.7 1.3-2.6 1.1-1-0.2-1.4-1-1.7-1.8 0-0.2 0.2-0.2 0.2-0.1z"/>
							<g id="&lt;Group&gt;">
								<path id="&lt;Path&gt;" class="s3" d="m421.8 304.1c0 0-1.2 2.1-3.1 3-0.7 0.4-1.4 0.6-2.3 0.4-1.7-0.2-1.9-1.7-1.8-3.1 0.1-1.1 0.5-2.1 0.5-2.1 0 0 2.7 2 6.7 1.8z"/>
								<path id="&lt;Path&gt;" class="s9" d="m418.7 307.1c-0.7 0.4-1.4 0.6-2.3 0.4-1.7-0.2-1.9-1.7-1.8-3.1 1.8 0 3.7 1 4.1 2.7z"/>
							</g>
							<g id="&lt;Group&gt;">
								<path id="&lt;Path&gt;" class="s3" d="m422.2 299.9c0 0 0.6 3.1 0.7 4.5 0 0.2-0.4 0.3-0.9 0.3q0 0.1 0 0c-2.6 0.6-5.3-0.1-7-2.1-0.1-0.2 0.1-0.3 0.2-0.3 2.1 1.3 4.2 1.6 6.5 1.5 0.1-0.4-1.2-5.3-1-5.3 0.8-0.1 2.4 0.3 3.4 0.5-1.1-6.4-3.3-12.6-4.3-19.1 0-0.2 0.3-0.3 0.4-0.1 2.7 6.4 4.2 13.8 5.5 20.4 0.1 0.8-2.9-0.1-3.5-0.3z"/>
							</g>
							<g id="&lt;Group&gt;">
								<path id="&lt;Path&gt;" class="s3" d="m431.1 288.8c-0.5-0.1-1.1-0.1-1.6-0.1q-0.9 0.1-1.7 0.4c-0.5 0.3-1 0.6-1.5 1-0.4 0.4-0.7 1-0.9 1.6l-0.4 1 1.1-0.3c0.7-0.2 1.6-0.3 2.4-0.4 0.8 0 1.6 0 2.4 0.4-0.6-0.7-1.5-1.1-2.4-1.3q-1.4-0.2-2.8 0.2l0.8 0.8c0.3-0.9 0.9-1.6 1.8-2.1q1.2-0.7 2.8-1.2z"/>
								<path id="&lt;Path&gt;" class="s3" d="m428.7 293.8c-0.9-0.1-1.7-0.1-2.5-0.5-0.2-0.1-1-0.5-1-0.6 0-0.4 0.1-0.8 0.2-1.3-0.2 0.4-0.4 0.8-0.4 1.3 0.1 0.4 0.5 0.8 1 1 0.9 0.3 2 0.3 2.7 0.1z"/>
							</g>
						</g>
						<path id="&lt;Path&gt;" class="s3" d="m381.6 294.5c7.2 0 7-11.3 7-11.3 0 0 8.1-0.8 8.6-14 0 0 4 7.9 15.1 9.4 2.3 0.3-5.6-5.7-5.6-5.7 0 0 9.5 8.4 26.9 5 1.2-0.2-1.6-18.6-15.3-24.7-13.8-6.1-26.1-2.5-34.5 6.3 0 0-9.9 4.7-11 14.2-1 9.5 6 20.8 8.8 20.8z"/>
						<g id="&lt;Group&gt;">
							<g id="&lt;Group&gt;">
								<path id="&lt;Path&gt;" class="s8" d="m380.6 306.1q0.7 0.3 1.4 0.4 0.8 0.1 1.4 0c0.7-0.1 1.3-0.3 1.8-0.6 0.4-0.2 0.8-0.5 1.1-0.9 0.9-0.8 1.2-1.7 1.2-1.7l-1.7-8.2c0 0-6.7-9.5-11-7.1-4.4 2.4 0.7 16.2 5.8 18.1z"/>
								<path id="&lt;Path&gt;" class="s3" d="m376.3 291.9c-0.1 0-0.1 0.1 0 0.1 3.5 1.5 5.4 4.8 6.8 8.2-1.1-1.3-2.6-2-4.3-0.7-0.1 0 0 0.2 0.1 0.1 1.4-0.3 2.5 0 3.5 1.1 0.7 0.9 1.2 1.9 1.7 2.9 0.1 0.3 0.7 0.1 0.6-0.2q0-0.1 0-0.1c0-4.6-3.5-10.9-8.4-11.4z"/>
							</g>
							<path id="&lt;Path&gt;" class="s10" d="m381 304.8c0.1 0.8 0.9 1.3 1.7 1.1 0.7-0.1 1.2-0.9 1.1-1.6-0.2-0.8-0.9-1.3-1.7-1.2-0.8 0.2-1.3 1-1.1 1.7z"/>
							<path id="&lt;Path&gt;" class="s10" d="m378.1 302.7c0.1 0.5 0.6 0.9 1.1 0.8 0.6-0.1 0.9-0.7 0.8-1.2-0.1-0.6-0.6-0.9-1.2-0.8-0.5 0.1-0.8 0.6-0.7 1.2z"/>
						</g>
						<g id="&lt;Group&gt;">
							<path id="&lt;Path&gt;" class="s3" d="m383.1 261.1c5.1-2.3 20.1-23.8 2.2-39.3-17.6-15.4-47.2 5.4-36.5 27.5 7.2 14.8 23.5 16.7 34.3 11.8z"/>
						</g>
					</g>
				</g>
				<g id="&lt;Group&gt;">
					<g id="&lt;Group&gt;">
						<path id="&lt;Path&gt;" class="s7" d="m451.7 635.5h-9v-293.6h9z"/>
						<path id="&lt;Path&gt;" class="s7" d="m443.7 648.4v265.7c0 1.3 1.1 2.3 2.4 2.3 1.3 0 2.4-1 2.4-2.3l2.1-265.7z"/>
						<g id="&lt;Group&gt;">
							<path id="&lt;Path&gt;" class="s7" d="m436.9 648.4l-90.6 264.5c-0.4 1.3 0.3 2.7 1.6 3.2 1.3 0.4 2.7-0.3 3.1-1.6l92.7-263.8z"/>
							<path id="&lt;Path&gt;" class="s7" d="m457.4 648.4l90.6 264.5c0.5 1.3-0.2 2.7-1.5 3.2-1.3 0.4-2.7-0.3-3.2-1.6l-92.7-263.8z"/>
						</g>
						<path id="&lt;Path&gt;" class="s3" d="m436.1 638.1v7.1c0 6.1 4.9 11.1 11.1 11.1 6.1 0 11.1-5 11.1-11.1v-7.1z"/>
						<path id="&lt;Path&gt;" class="s6" d="m463.4 644.9h-32.5v-11.8h32.5z"/>
					</g>
					<g id="&lt;Group&gt;">
						<path id="&lt;Path&gt;" class="s7" d="m500.6 293.2l-42.6 6.7 2.1 29.7 42.7-0.9z"/>
						<path id="&lt;Path&gt;" class="s6" d="m431.4 344.3l34.1-2.5-6.9-55.9-30 2.2z"/>
						<path id="&lt;Path&gt;" class="s6" d="m445.5 286.9l-2.3-5.3-8.1 0.6-2.5 5.7z"/>
						<g id="&lt;Group&gt;">
							<path id="&lt;Path&gt;" class="s6" d="m532 285.9l-53.8 8.5 2.8 37.4 53.7-1z"/>
							<path id="&lt;Path&gt;" class="s7" d="m530.4 288.8c0 0-5.5 9.9-5.2 20.5 0.3 10.6 7.6 18.7 7.6 18.7z"/>
						</g>
					</g>
				</g>
				<g id="&lt;Group&gt;">
					<g id="&lt;Group&gt;">
						<g id="&lt;Group&gt;">
							<g id="&lt;Group&gt;">
								<path id="&lt;Path&gt;" class="s8" d="m374.2 336.6c5.3 8.3 42.5 72.2 45.2 74.5 0 0-14 36.1-32.9 22.3-17.9-13.1-27-65.9-29.5-92.4-1.3-14.3 7-20.1 17.2-4.4z"/>
							</g>
							<g id="&lt;Group&gt;">
								<path id="&lt;Path&gt;" class="s6" d="m374.2 336.6c5.3 8.3 42.5 72.2 45.2 74.5 0 0-14 36.1-32.9 22.3-17.9-13.1-27-65.9-29.5-92.4-1.3-14.3 7-20.1 17.2-4.4z"/>
							</g>
							<g id="&lt;Group&gt;">
								<path id="&lt;Path&gt;" class="s3" d="m367.9 398.8c-0.3-2.4-5.3-24.5-5.8-26.9-0.6-2.4-1.1-4.7-1.7-7.1-0.6-2.4-1.3-4.7-2-7.1 0.2 2.5 0.6 4.9 1 7.3 0.4 2.4 0.9 4.8 1.4 7.2q0.7 3.6 1.6 7.2c0.6 2.3 4.6 17.2 5.3 19.5z"/>
								<path id="&lt;Path&gt;" class="s3" d="m356.7 361.8c0.4 1.3 0.9 2.4 1.6 3.4 0.6 1.1 1.3 2.1 2.2 3-0.3-1.3-0.9-2.4-1.5-3.4-0.7-1.1-1.4-2.1-2.3-3z"/>
							</g>
						</g>
						<g id="&lt;Group&gt;">
							<path id="&lt;Path&gt;" class="s8" d="m421.6 359.3c5.6-3.4 40.3 23.7 34.2 31.2-29 35.4-47.8 44.9-56.5 47.1-8.5 2.2-19.4-11.6-20.1-19.3-1.1-11.1 36.8-55.7 42.4-59z"/>
							<g id="&lt;Group&gt;">
								<g id="&lt;Group&gt;">
									<g id="&lt;Group&gt;">
										<path id="&lt;Path&gt;" class="s8" d="m492.8 328.4c2 5.1-10.9 9-10.9 9 0 0 3.7 0.7 5.8 3.7 2.4 3.3-1.9 8.6-1.9 8.6 0 0 3.7 1.5 5.6 4.8 2 3.5-1.6 9.4-1.6 9.4 0 0 2.9 3.3 2.2 7.3-1 5.8-9.6 11.2-16.2 13.7-6.4 2.4-26.5 7.1-30.2 8l-18.6-44.2c0 0 22-16.1 29.7-18.7 6.5-2.1 33-9.3 36.1-1.6z"/>
										<g id="&lt;Group&gt;">
											<path id="&lt;Path&gt;" class="s3" d="m481.7 337.3c-7.4 0.7-14.7 3.1-21.7 5.5-0.1 0.1 0 0.3 0.1 0.3 6.9-2.5 14.7-3.2 21.7-5.4 0.2-0.1 0.1-0.4-0.1-0.4z"/>
											<path id="&lt;Path&gt;" class="s3" d="m485.7 349.4c-1.6 0.2-3.2 1-4.8 1.6q-2.5 1-5 2.1-4.9 2.2-9.7 4.6c-0.2 0.1-0.1 0.3 0.1 0.3q4.9-2.2 9.9-4.2 2.5-1 5-1.9c1.6-0.6 3.3-1.1 4.7-2 0.2-0.2 0.1-0.5-0.2-0.5z"/>
											<path id="&lt;Path&gt;" class="s3" d="m489.7 364c-1.5 0.1-3 1-4.3 1.6q-2.2 1.1-4.5 2.1c-3 1.4-5.9 2.7-9 4-0.1 0-0.1 0.3 0.1 0.2 3.1-1.3 6.2-2.5 9.3-3.8q2.2-0.9 4.5-1.9c1.3-0.5 2.9-1.1 4-2.1 0 0-0.1-0.1-0.1-0.1z"/>
										</g>
										<path id="&lt;Path&gt;" class="s8" d="m445.6 337.1c-3 0.1-5.6-7.4-6.3-12.2-0.7-4.9-5.5-11.8-9.4-11.6-4 0.2-3.9 9.6-3.5 15.4 0.4 5.9-3 27.8-4.8 30.6-1.8 2.8 12.4 5.6 12.4 5.6z"/>
									</g>
								</g>
							</g>
							<g id="&lt;Group&gt;">
								<path id="&lt;Path&gt;" class="s3" d="m436 412.4q5-5.4 9.8-11l4.9-5.5c1.6-1.9 3.2-3.8 4.6-5.7l0.2-0.2h0.2q6.1-1.5 12.2-3.2c4-1.2 8.1-2.3 11.7-4.4 3.6-2.1 7.2-4.4 9.7-7.5 1.3-1.6 2.2-3.4 2.2-5.4 0.1-1.9-0.8-3.8-2.2-5l-0.6-0.4 0.5-0.6c0.8-1 1.5-2.3 1.8-3.7 0.4-1.3 0.5-2.7 0.1-4-0.4-1.4-1.1-2.7-2-3.6-0.9-1-2.3-1.7-3.5-1.9l-1-0.2 0.6-0.7c0.8-1 1.6-2.2 2.1-3.4 0.5-1.2 0.9-2.6 0.5-3.7-0.4-1.1-1.5-2.1-2.6-2.8-1.1-0.8-2.4-1.4-3.6-1.9l-1-0.3 1-0.3c2.4-0.7 4.8-1.5 7-2.8 1.1-0.6 2.1-1.4 3-2.3 0.8-0.9 1.4-2.2 1.2-3.5 0.2 1.3-0.3 2.6-1.1 3.6-0.8 1-1.9 1.8-2.9 2.5-2.2 1.4-4.6 2.4-7 3.1v-0.6c1.3 0.5 2.6 1 3.8 1.8 1.2 0.8 2.4 1.7 3 3.2 0.6 1.5 0.2 3.1-0.4 4.4-0.5 1.3-1.3 2.5-2.2 3.7l-0.3-0.9c1.7 0.2 3.1 1 4.3 2.1 1.1 1.1 1.9 2.6 2.3 4.1 0.5 1.6 0.4 3.2 0 4.8-0.4 1.5-1.1 2.9-2.1 4.2l-0.1-1c1.9 1.5 2.9 3.8 2.8 6.2 0 2.3-1 4.5-2.4 6.2-2.8 3.4-6.6 5.7-10.2 7.8-3.8 2.3-8 3.3-12 4.5-4.1 1.1-8.3 2.1-12.4 2.9l0.3-0.2c-1.5 2-3.2 3.8-4.8 5.7-1.7 1.8-3.4 3.6-5.1 5.4q-5.1 5.3-10.3 10.5z"/>
							</g>
							<g id="&lt;Group&gt;">
								<path id="&lt;Path&gt;" class="s6" d="m405.6 374.8l34.9 37.6c0 0-31.7 26-43.6 25.5-10.1-0.5-19.8-14.3-18.1-21.8 2.7-11.5 26.8-41.3 26.8-41.3z"/>
								<g id="&lt;Group&gt;">
									<path id="&lt;Path&gt;" class="s3" d="m384.8 403.1c5.4-12.4 16.5-22.7 17.2-23.3 0.3-0.2 0.8 0 0.7 0.1-1.5 2.1-12.5 15-17.5 23.4 0 0-0.4-0.1-0.4-0.2z"/>
								</g>
								<path id="&lt;Path&gt;" class="s7" d="m402.7 378.5l33.7 39.5 9.9-7.8-36.2-41.3z"/>
							</g>
						</g>
					</g>
				</g>
			</g>
		</g>
	</g>
	<g id="Character 1">
		<g id="&lt;Group&gt;">
			<g id="&lt;Group&gt;">
				<g id="&lt;Group&gt;">
					<g id="&lt;Group&gt;">
						<path id="&lt;Path&gt;" class="s11" d="m990 716.8c0 0 50.8 56.4 50.8 56.4 9.8 10.8 18.2 20.3 22 25.7q0.1 0 0.1 0.1c1.4 2 2.3 3.4 2.2 4q0 0.1 0 0.2c-1.2 5-84.7 85.6-88.6 87.4-3.8 1.9-9.4-9-8.6-14.7 0.8-5.7 18.9-50.9 18.9-50.9l-50.2-56.8z"/>
						<path id="&lt;Path&gt;" class="s0" d="m1030.4 761.7c0 0 10.4 11.5 10.4 11.5 9.8 10.8 18.2 20.3 22 25.7q0.1 0 0.1 0.1c1.3 2.1 2.1 3.5 2.2 4q0 0.1 0 0.2c-1.2 5-84.7 85.6-88.6 87.4-3.8 1.9-9.4-9-8.6-14.7 0.8-5.7 18.9-50.9 18.9-50.9l-10.7-11.6z"/>
						<g id="&lt;Group&gt;">
							<path id="&lt;Path&gt;" class="s7" d="m976.5 890.6c3.9-1.8 87.4-82.4 88.6-87.4 0.5-2-10.5-14.8-24.3-30q-0.2-0.2-0.4-0.4l-54.5 51.3 0.9 0.9c0 0-18.1 45.2-18.9 50.9-0.7 5.7 4.8 16.6 8.6 14.7z"/>
							<path id="&lt;Path&gt;" class="s12" d="m986.1 824v0.3l-0.2-0.2z"/>
							<path id="&lt;Path&gt;" class="s6" d="m967.9 875.9c0.7-5.1 15-40.9 18.2-49.2l1.9 53.7c-6.3 6-10.7 9.8-11.5 10.2-3.8 1.9-9.3-9-8.6-14.7z"/>
							<g id="&lt;Group&gt;">
								<path id="&lt;Path&gt;" class="s3" d="m974.3 886.5c13.8-13.9 70.5-68.8 85.2-81.5 0.1-0.1 0.2-0.1 0 0.1-13.3 14.1-70.4 68.5-84.9 81.6-0.3 0.3-0.5 0.1-0.3-0.2z"/>
								<path id="&lt;Path&gt;" class="s3" d="m982.5 829.6c4.5-6.4 12.1-12.1 20.1-12.2 0.3 0 0.3 0.4 0.1 0.5-7.1 3.6-13.3 7.4-19.5 12.3-0.5 0.4-1.1-0.2-0.7-0.6z"/>
								<path id="&lt;Path&gt;" class="s3" d="m980.8 835.8c4.5-6.3 12.1-12 20.2-12.2 0.3 0 0.3 0.5 0 0.6-7.1 3.5-13.3 7.3-19.5 12.3-0.5 0.4-1-0.2-0.7-0.7z"/>
								<path id="&lt;Path&gt;" class="s3" d="m979.1 842.1c4.6-6.4 12.1-12.1 20.2-12.2 0.3 0 0.3 0.4 0.1 0.5-7.2 3.6-13.3 7.4-19.6 12.4-0.4 0.3-1-0.2-0.7-0.7z"/>
							</g>
						</g>
					</g>
					<g id="&lt;Group&gt;">
						<path id="&lt;Path&gt;" class="s4" d="m964 647.2c4.9 20.5 79.7 123.5 79.7 123.5l-61.1 60c0 0-108.3-129.7-103.6-175.5 4.1-39.9 57.9-201.5 57.9-201.5l68.5-2.4c0 0-46.3 175.8-41.4 195.9z"/>
						<g id="&lt;Group&gt;">
							<g id="&lt;Group&gt;">
								<g id="&lt;Group&gt;">
									<path id="&lt;Path&gt;" class="s13" d="m976.5 811.8c8.8-9 6.2-6.5 15.1-15.5 4.4-4.4 33.2-33.2 38-36.6 0.1-0.1 0.3 0.1 0.2 0.2-3.5 4.7-32.8 33-37.2 37.3-9.1 8.8-6.6 6.2-15.8 14.9-0.2 0.2-0.5-0.1-0.3-0.3z"/>
								</g>
							</g>
							<path id="&lt;Path&gt;" class="s13" d="m952 640.9c0.8-5.2 1.7-10.4 2.6-15.6q2.8-15.8 6-31.6c4.2-20.8 8.8-41.5 13.9-62.2 5.1-20.7 10.6-41.4 17-61.7q1.2-3.8 2.4-7.6c0.1-0.2 0.4-0.1 0.3 0.1-5.4 20.4-11.1 40.7-16.1 61.1-5.1 20.4-9.7 40.9-14 61.4-2.2 10.3-4.1 20.7-6.1 31q-1.4 7.7-2.7 15.3c-0.9 5.2-2.2 10.5-2.4 15.8-0.1 5.1 1.8 9.6 4.6 13.9 2.7 4.1 60.7 95.6 62.5 97.2 0.2 0.2 0 0.4-0.2 0.2-7.7-6.4-65.5-98.6-67.1-102.9-1.8-4.7-1.5-9.6-0.7-14.4z"/>
						</g>
					</g>
				</g>
				<g id="&lt;Group&gt;">
					<g id="&lt;Group&gt;">
						<path id="&lt;Path&gt;" class="s11" d="m984.9 788.5c0 0-12.3 72.6-12.3 72.6 0.4 14.5 0.4 27.3-0.2 33.8q0 0.1-0.1 0.1c-0.2 2.5-0.5 4.1-0.9 4.5q-0.1 0.1-0.1 0.1c-4.3 3.1-120.1 8.9-124.3 7.8-4.1-1.2-1.1-13 3.2-16.8 4.4-3.8 47.7-25.9 47.7-25.9l13-72.5z"/>
						<path id="&lt;Path&gt;" class="s0" d="m847 907.4c4.1 1.1 120-4.7 124.3-7.8q0 0 0.1-0.1c0.4-0.4 0.7-2 0.9-4.5q0.1 0 0.1-0.1c0.6-6.5 0.5-19.3 0.2-33.8 0 0 2.2-12.6 2.2-12.6l-74.5 2.6-2.4 13.6c0 0-43.3 22.1-47.7 25.9-4.3 3.8-7.3 15.6-3.2 16.8z"/>
						<g id="&lt;Group&gt;">
							<path id="&lt;Path&gt;" class="s7" d="m847 907.4c4.2 1.1 120-4.7 124.3-7.8 1.6-1.1 1.8-18 1.3-38.5q0-0.3 0-0.6l-74.8 2.9 0.1 1.3c0 0-43.3 22.1-47.7 25.9-4.3 3.8-7.3 15.6-3.2 16.8z"/>
							<g id="&lt;Group&gt;">
								<path id="&lt;Path&gt;" class="s3" d="m848.1 902.8c19.5-1.4 98.4-5.5 117.8-5.5 0.1 0 0.1 0.1 0 0.1-19.3 1.9-98.2 5.3-117.8 5.7-0.4 0.1-0.4-0.2 0-0.3z"/>
								<path id="&lt;Path&gt;" class="s3" d="m891.6 865.2c7.7-1.8 17.1-1.1 23.3 4.1 0.2 0.2-0.1 0.5-0.3 0.5-7.7-2-14.9-3.2-22.9-3.6-0.5 0-0.6-0.8-0.1-1z"/>
								<path id="&lt;Path&gt;" class="s3" d="m886.3 868.9c7.6-1.9 17-1.2 23.2 4 0.2 0.2-0.1 0.6-0.3 0.5-7.7-2-14.9-3.2-22.9-3.6-0.5 0-0.6-0.8 0-0.9z"/>
								<path id="&lt;Path&gt;" class="s3" d="m880.9 872.5c7.6-1.8 17.1-1.1 23.2 4.1 0.2 0.2 0 0.5-0.3 0.4-7.7-2-14.9-3.2-22.8-3.5-0.6-0.1-0.7-0.9-0.1-1z"/>
							</g>
						</g>
					</g>
					<g id="&lt;Group&gt;">
						<path id="&lt;Path&gt;" class="s4" d="m938.5 453.7c0.1 1.4 4.4 14.4 7 33.9 2 14.3 4.2 26.9 6.2 28.5 2.2 1.7 13.3 8.2 17 10.3 0 0-30.2 103.6-37.7 138-10.9 49.9-35.9 199.3-35.9 199.3l80.6-2.9c0 0 19.5-142.1 28.6-189.5 7.8-40.7 38.7-163 38.7-163 11.7-31.9-4.9-58.1-4.9-58.1 0 0-99.7 3.4-99.6 3.5z"/>
						<g id="&lt;Group&gt;">
							<path id="&lt;Path&gt;" class="s13" d="m897.5 847.9c12.6-0.5 9-0.5 21.7-0.9 6.2-0.2 46.9-1.3 52.7-0.5 0.1 0 0.1 0.2 0 0.3-5.8 1-46.5 1.5-52.7 1.5-12.7 0.2-9.1 0-21.7 0-0.3 0-0.3-0.4 0-0.4z"/>
							<g id="&lt;Group&gt;">
								<path id="&lt;Path&gt;" class="s13" d="m945.8 512.2c8 3.9 15.6 8.9 22.8 14.1 0.3 0.2 0 0.7-0.3 0.5-7.7-4.5-15.6-8.8-23-13.7-0.6-0.3-0.1-1.2 0.5-0.9z"/>
								<path id="&lt;Path&gt;" class="s13" d="m950 456.3c0.1-0.2 0.6-0.3 0.5 0-1.2 9.7-1.6 18.2-1.8 27.3-0.2 4.3 0.4 27.8 7.9 26.9 1.2-0.1 2-1.2 2.4-3 0.5-2.2 0-5-0.1-7.2-0.2-4.9-0.3-9.9-0.1-14.8 0.3-9.2 1.3-18.4 3.5-27.3 0.1-0.3 0.5-0.2 0.5 0.1-1.5 12.6-2.7 25.2-2.3 38 0.2 6.1 2.1 15.5-4.3 15.7-6.5 0.1-8.8-15.5-9.1-19.7-0.8-11.9 0.6-24.4 2.9-36z"/>
								<path id="&lt;Path&gt;" class="s13" d="m956.3 511.1c0.5 1.7 0.8 3.4 1.1 5 0.2 1.3 0.5 2.8 0.2 4.1-0.1 0.2-0.4 0.2-0.5 0-0.7-1.2-0.9-2.7-1.2-4-0.4-1.6-0.8-3.1-1.2-4.7-0.2-1 1.3-1.4 1.6-0.4z"/>
							</g>
							<path id="&lt;Path&gt;" class="s13" d="m980.2 821.8q0.2-2.9 0.5-5.8c0.4-3.7 0.9-7.4 1.3-11.1 0.8-7.5 1.8-14.9 2.8-22.3 2-14.8 4.4-29.6 7-44.3 1.5-8.3 3.2-16.5 5-24.8 0.2-0.5 1-0.3 0.9 0.3-1.1 7.5-2 15-3.3 22.5q-1.8 11.1-3.5 22.3c-2.3 14.8-4.4 29.6-6.7 44.3-0.7 4.2-1.3 8.4-1.9 12.6q-0.5 3.1-1 6.2c-0.4 2.1-0.9 4.1-1.2 6.2 0 0.2-0.3 0.1-0.2-0.1 0.2-2 0.2-4 0.3-6z"/>
							<path id="&lt;Path&gt;" class="s13" d="m923.6 695.3c2.2-13.5 5.4-26.8 8.6-40 6.4-26.7 14.1-53.1 21.8-79.5q3.3-11.4 6.6-22.7c1.1-3.8 6.5-24.3 7.2-26.2 0-0.2 0.3-0.2 0.3 0-1.5 7-3.6 17.1-5.3 24-1.8 6.8-3.7 13.6-5.6 20.4-3.6 13.3-7.4 26.7-10.9 40-7 26.5-13.9 52.9-19.4 79.7-1.5 7.5-3 15-4.4 22.5-1.4 7.5-5.6 26.2-6.9 33.7-0.1 0.2-0.4 0.2-0.4 0 0.9-13.7 6.2-38.4 8.4-51.9z"/>
							<path id="&lt;Path&gt;" class="s13" d="m976.2 763.5c3.5-25.7 7.9-51.2 12.9-76.6q7.6-38.4 17.2-76.2c6.3-25.3 13.5-50.3 21.3-75.2 3.7-11.7 7.4-23.5 9.7-35.7 2.2-12 3.1-24.9-0.1-36.9-0.8-3-1.8-5.9-3.1-8.8 0-0.2 0.2-0.4 0.3-0.2 10.5 22.2 5.1 47.2-1.5 69.7-3.6 12.3-7.5 24.6-11.1 37q-5.4 19-10.4 38.2c-6.5 25.3-12.6 50.7-17.9 76.4q-7.9 38.4-13.8 77.2c-4 25.9-7.1 51.9-10.4 78-0.4 3.4-0.7 6.8-1 10.2 0 0.2-0.3 0.2-0.3 0 2.2-25.8 4.6-51.5 8.2-77.1z"/>
						</g>
					</g>
				</g>
			</g>
			<g id="&lt;Group&gt;">
				<g id="&lt;Group&gt;">
				</g>
				<g id="&lt;Group&gt;">
					<g id="&lt;Group&gt;">
						<path id="&lt;Path&gt;" class="s6" d="m1047.1 471.5c-0.3 0.2-115.9-5.4-116.9-6.6-0.5-0.7-0.1-20.5 8.7-43 14.3-36.9 41-84.7 48.9-94 2.7-3.1 18.9-6.8 27.7 1.3 18.7 17.1 26.9 66.6 29.7 83.4 4.9 29.5 2.9 57.8 1.9 58.9z"/>
					</g>
					<g id="&lt;Group&gt;">
						<path id="&lt;Path&gt;" class="s7" d="m956 383.5l84.4 4c-1.2-5.7-2.7-11.7-4.4-17.7l-71.3-3.3c-2.9 5.4-5.8 11.2-8.7 17z"/>
						<path id="&lt;Path&gt;" class="s7" d="m949.7 396.8l93.5 4.3q-0.5-2.9-1.2-6.1l-89.5-4.2q-1.5 3-2.8 6z"/>
					</g>
				</g>
				<g id="&lt;Group&gt;">
					<path id="&lt;Path&gt;" class="s11" d="m988.1 332.8c-4.8 7.3-22.4 32.6-33.1 51.2-7.1 12.5-11.2 23.4-12.7 26.2 0 0 38-5.1 45.2-3.6 11.1 2.4 20.1 34.6 15.1 36.5-7.8 3.1-44 8.1-71.1 7.3-14.7-0.4-37.5-24.2-32.3-38.1 7.3-19.4 55.1-64.5 72.2-76.5 8.8-6.2 22.5-11.9 16.7-3z"/>
					<g id="&lt;Group&gt;">
						<path id="&lt;Path&gt;" class="s6" d="m896.3 416.1c-2.4 14.7 13 30.8 23.4 33.7 17.8 5 75.6 1 75.6 1l-12.3-45.3c0 0-39.7 4.5-40.7 4.7 0.6-1 17.1-33.3 23.6-43.7q0.6-0.9 1.1-1.8c1.9-2.9 4.4-6.7 7.2-10.8 1.5-2.3 3.1-4.7 4.7-7 6.8-10.1 13.5-19.7 13.5-19.7-6.5-0.4-13.3 1.6-25.7 10-12.3 8.4-66.3 54.8-70.4 78.9z"/>
						<path id="&lt;Compound Path&gt;" fill-rule="evenodd" class="s7" d="m962.1 407.9l12 44c-5.5 0.1-11.7 0.3-17.9 0.4l-11.6-42.4c3.5-0.4 10.5-1.2 17.5-2zm13.6-1.6l12.3 44.9q-2.8 0.2-6.3 0.3l-12.1-44.5c2.2-0.2 4.3-0.4 6.1-0.7z"/>
						<g id="&lt;Group&gt;">
							<path id="&lt;Path&gt;" class="s3" d="m983.5 438.3q-1.3-4.8-2.5-9.6-1.3-4.7-2.5-9.4c-0.9-3.3-1.9-6.6-2.4-9.9 0-0.1 0.1-0.1 0.1 0 1.3 2.9 2.2 6 3.1 9.1q1.4 4.8 2.7 9.6 1.3 4.7 2.5 9.5c0.8 3.2 1.6 6.6 1.9 9.9 0.1 0.2-0.1 0.2-0.2 0.1-1.1-3-1.9-6.2-2.7-9.3z"/>
							<path id="&lt;Path&gt;" class="s3" d="m929.7 413.7l12.6-3.5c0.6-1 17.1-33.3 23.6-43.7q0.6-0.9 1.1-1.8c1.9-2.9 4.4-6.7 7.2-10.8z"/>
							<path id="&lt;Path&gt;" class="s3" d="m919.3 416.7c3.6-1.7 7.5-3 11.3-4.2q2.8-0.9 5.8-1.5c2.1-0.5 4.2-0.7 6.3-1.1 0.1 0 0.2 0.2 0 0.2-1.9 0.5-3.8 1.2-5.7 1.8q-3 0.8-6 1.6c-3.9 1.1-7.8 2.3-11.7 3.3 0 0.1-0.1-0.1 0-0.1z"/>
							<g id="&lt;Group&gt;">
								<path id="&lt;Path&gt;" class="s3" d="m931.1 451.6l16.1 0.2c5.3 0 10.7 0.1 16 0 5.3 0.1 10.7-0.1 16-0.2q8.1-0.3 16.1-0.8c-5.3 1-10.6 1.5-16 1.9-5.4 0.4-10.7 0.5-16.1 0.6-5.4 0-10.7-0.1-16.1-0.4-5.3-0.3-10.7-0.7-16-1.3z"/>
							</g>
						</g>
					</g>
				</g>
				<g id="&lt;Group&gt;">
					<g id="&lt;Group&gt;">
						<path id="&lt;Path&gt;" class="s11" d="m929.7 413.7c2.8 0.7 15.2-2.6 18.4 2.1 13.1 19.7 14.7 15 17.6 17.5 21.9 19.8 57.2 38.5 69.1 41.1 18 4.1 28.5-9.5 28.6-24.5 0.2-29.6-26-93.1-40.1-111.6-7.5-9.7-9.3 2.2-8.3 15.7 0.6 8 2.1 19.9 3.7 31.7 1.4 10.5 5.3 37.3 5.4 37.9q0 0.1 0 0.1 0 0.1-0.2 0c-0.8-0.3-20-15-40.3-25.2-7.1-3.6-22.3-9.8-28.5-8.5-3.7 0.7-5.1 3.5-5.1 3.5 0 0-3.6-0.7-6.1 0.8-2.1 1.3-2.8 4.3-2.8 4.3 0 0-3 0.1-4.9 1.5-2.2 1.7-1.6 5.9-1.6 5.9-5.4 0.6-4.9 7.7-4.9 7.7z"/>
						<g id="&lt;Group&gt;">
							<path id="&lt;Path&gt;" class="s3" d="m956.5 394.3c2.2 0.6 4.4 1.4 6.6 2.3 0.1 0 0 0.2-0.1 0.2-2.2-0.7-4.4-1.3-6.6-1.8-2.2-0.6-4.4-1.1-6.6-1.5q0 0 0 0c2.3 0.1 4.5 0.3 6.7 0.8z"/>
							<path id="&lt;Path&gt;" class="s3" d="m941.1 398.6c4.1-0.2 7.4-0.2 12.2 1.5 0.1 0.1 0 0.3-0.1 0.3-4.6-1.3-7.8-1.5-12.1-1.7-0.1 0-0.1-0.1 0-0.1z"/>
							<path id="&lt;Path&gt;" class="s3" d="m934.7 405.9c4.3-0.7 7.4-0.6 11.8 0.4 0.2 0 0.2 0.2 0 0.2-4.3-0.5-7.5-0.6-11.7-0.4-0.2 0-0.2-0.1-0.1-0.2z"/>
							<path id="&lt;Path&gt;" class="s3" d="m984.6 398.9c1.8 0.7 3.6 1.7 5.3 2.5q2.8 1.4 5.5 2.9c3.6 2.1 7 4.4 10.3 6.9 0.1 0.1 0 0.3-0.2 0.2q-5.2-3.1-10.5-6.2-2.6-1.5-5.1-3c-1.8-1-3.7-1.9-5.4-3-0.1-0.1 0-0.3 0.1-0.3z"/>
						</g>
					</g>
					<g id="&lt;Group&gt;">
						<path id="&lt;Path&gt;" class="s6" d="m998.7 406.2c-3.7-2.2-5.5-2.5-5.5-2.5l-30.7 33.1c0 0 57.1 35.7 69.6 39.8 12.4 4 29-2.8 32.8-18.8 5.2-22.3-19.7-84.2-33.6-109-6.4-11.4-14.7-20.5-17.6-19.5-3.4 1.2-0.6 14.4 0.3 24 1.7 17.7 9.9 70.4 9.9 70.4 0 0-20.8-14.8-25.2-17.5z"/>
						<path id="&lt;Compound Path&gt;" fill-rule="evenodd" class="s7" d="m1011.9 415.3q0.7 0.4 1.3 0.8c4.1 3 9.6 7.2 12.8 9.6l-29.1 32c-5.2-3.1-10.5-6.3-15.2-9.1zm-11.2-7.7c1.3 0.8 3.1 2 5 3.4l-30.5 33.6c-2-1.1-3.7-2.2-5.3-3.2z"/>
						<g id="&lt;Group&gt;">
							<path id="&lt;Path&gt;" class="s3" d="m993.4 403.7c3.5 0.9 17.4 9.5 24.2 14.2 6.6 4.8 12.9 10.1 18.6 16 3.2 3.4 6.2 6.9 9.1 10.6 0.1 0.1-0.1 0.2-0.2 0.1-5.5-6-11.5-11.7-17.7-17-6.2-5.3-12.6-10.5-19.4-15-3.8-2.5-10.6-6.6-14.5-8.5-1.1-0.6-0.2-0.5-0.1-0.4z"/>
							<path id="&lt;Path&gt;" class="s3" d="m1015.5 373.7c0.6 1.7 1.2 3.4 1.7 5.2q0 0.1 0.1 0.2-0.6-5.8-1.1-11.7c0-0.2 0.4-0.3 0.4 0 2.4 14.6 4.4 29.3 6.2 44.1 0.6 4.1 0.9 8.2 1.3 12.3 0 0.2-0.2 0.2-0.3 0.1-0.7-3.7-1.5-7.3-2.1-11-0.6-3.6-1.1-7.3-1.6-11q-1.4-9.6-2.4-19.3-0.7-1.7-1.2-3.5c-0.6-1.8-0.9-3.6-1.3-5.4 0-0.2 0.2-0.2 0.3 0z"/>
							<path id="&lt;Path&gt;" class="s3" d="m978.9 431.1q3.4-3.6 6.8-7.3 3.3-3.6 6.5-7.2c2.3-2.5 4.5-5.1 7-7.4 0.1 0 0.1 0 0.1 0.1-1.8 2.7-3.9 5.1-6 7.6q-3.2 3.8-6.6 7.5-3.2 3.6-6.6 7.2c-2.3 2.4-4.6 4.9-7.3 7-0.1 0.1-0.2 0-0.2-0.1 1.9-2.6 4.2-5 6.3-7.4z"/>
							<path id="&lt;Path&gt;" class="s3" d="m961.6 436.6c2.6-3.2 6.3-6.2 9.2-9.2 0.2-0.2 0.3 0 0.2 0.1-2.6 2.9-5.2 6-7.8 9 7.8 5.3 16.1 10.4 24.1 15.4 8.2 5.1 16.6 10 25.1 14.6 4.7 2.6 9.5 5.3 14.3 7.7 0.3 0.2 0.2 0.4-0.2 0.3-8.8-3.7-17.2-8.4-25.5-13.1-8.5-4.9-16.7-10-24.9-15.3-4.6-3-14.7-9.2-14.5-9.5z"/>
						</g>
					</g>
					<g id="&lt;Group&gt;">
						<path id="&lt;Path&gt;" class="s4" d="m1022.9 394.3c0 0 22.5 0.3 32.3 4.6 9.9 4.4 24.7 19.5 28.6 30.6 3.9 11.2 5.3 110.3 4.7 113.4-0.5 3-9.7 12-9.8 13.4 0 1.4-1.6 22.3-2.5 23.9-0.9 1.6-23 0.8-23.8-1.3-0.7-2.1-0.6-3.7-0.9-6.1-0.3-2.4-8.6-8.8-10.7-15.2-2.1-6.4 8.2-100.8 5.7-109.3-5-17.5-23.6-25.7-23.6-25.7z"/>
						<path id="&lt;Path&gt;" class="s13" d="m1022.9 394.3c0 0 22.5 0.3 32.3 4.6 9.9 4.4 24.7 19.5 28.6 30.6 3.9 11.2 5.3 110.3 4.7 113.4-0.5 3-9.7 12-9.8 13.4 0 1.4-1.6 22.3-2.5 23.9-0.9 1.6-23 0.8-23.8-1.3-0.7-2.1-0.6-3.7-0.9-6.1-0.3-2.4-8.6-8.8-10.7-15.2-2.1-6.4 8.2-100.8 5.7-109.3-5-17.5-23.6-25.7-23.6-25.7z"/>
						<g id="&lt;Group&gt;" style="opacity: .1">
							<path id="&lt;Path&gt;" class="s12" d="m1085 548.3c-2.8 3.4-6.2 7.1-6.3 8-0.8-11.1-0.6-69.7 0.1-73 0.6-2.6 4.6 45.2 6.2 65z"/>
							<path id="&lt;Path&gt;" class="s12" d="m1051.5 572.8c-0.2-1.4-3-4.1-5.8-7.4 1.9-14.9 7-53.1 9.2-53 2.8 0.1-4.2 47.2-3.4 60.4z"/>
							<path id="&lt;Path&gt;" class="s12" d="m1083.3 463.5c-3.2 3.5-1.1 26.6 0.1 26.4 1.3-0.2 1.7-28.2-0.1-26.4z"/>
						</g>
					</g>
					<g id="&lt;Group&gt;">
						<path id="&lt;Path&gt;" class="s11" d="m985.2 399.1c11 5.5 23.4 13.4 28.9 17.1q0.3 0.1 0.5 0.2c4.8 3.3 7.8 5.5 8.5 5.8q0.1 0 0.2-0.1 1-0.4 1.9-0.5c1.6-0.2 16.4 1.1 17-3.4 0.6-4.5-5.3-5.5-6.2-5.7 1 0 9.2-0.1 7.5-4.5-1.2-3.2-9.1-4.5-9.8-4.6 0.8-0.1 8.5-0.9 6.9-5.4-1.2-3.2-9.9-4.7-10.9-4.8 0.9-0.1 7.5 0.2 5.2-3.9-1.5-2.8-18.3-3.9-26.3-1.9-11.9 3.1-23.4 11.7-23.4 11.7z"/>
						<g id="&lt;Group&gt;">
							<path id="&lt;Path&gt;" class="s3" d="m1014.1 416.2q0.3 0.1 0.5 0.2c2.9-1.4 13.4-4.3 21-3.7 0.5 0.1 0.6-0.2 0.1-0.3-9.3-1.6-18.7 2.1-21.6 3.8z"/>
							<path id="&lt;Path&gt;" class="s3" d="m1033.2 403.6c-10.6-0.2-15.8 1.1-25.8 4.8-0.1 0-0.2-0.2-0.1-0.3 9.6-4.3 15.3-6.3 25.9-4.8 0.5 0.1 0.5 0.3 0 0.3z"/>
							<path id="&lt;Path&gt;" class="s3" d="m1029.3 393.4c-10.4 0.4-16 1.6-25.4 6.3-0.2 0.1-0.4-0.2-0.1-0.3 9-5.6 16.1-7.1 25.5-6.3 0.6 0 0.7 0.2 0 0.3z"/>
						</g>
					</g>
				</g>
				<g id="&lt;Group&gt;">
					<g id="&lt;Group&gt;">
						<g id="&lt;Group&gt;">
							<path id="&lt;Path&gt;" class="s11" d="m986 349.7c6.8 2.5 21.7-7.4 27.4-15.5 0.4-0.6 0.3-6.9 0.4-14.7 0.2-4.6 0.4-9.9 1-14.6l-30.7 3.7c0 0 1.8 10.3 0.7 18.5q-0.1 1.1-0.4 1.9 0 0.2-0.1 0.4c-1 3.6-4.9 17.9 1.7 20.3z"/>
						</g>
						<path id="&lt;Path&gt;" class="s3" d="m984.4 329.1q0 0.1-0.1 0.3 1.4 0.3 3.1 0.5c17.2 1.7 23.8-18.9 25.3-24.8l-7.6 1-21 2.5c0 0 1.8 10.3 0.7 18.5q-0.1 1.1-0.4 2z"/>
					</g>
					<g id="&lt;Group&gt;">
						<g id="&lt;Group&gt;">
							<path id="&lt;Path&gt;" class="s11" d="m1020.5 270.5c2 11.2-7.4 41.7-15.9 47.7-12.4 8.7-30.7 7.5-37.6-6.9-6.7-14 6.3-53.4 15.6-58.7 13.7-7.8 35 1.4 37.9 17.9z"/>
						</g>
						<g id="&lt;Group&gt;">
							<g id="&lt;Group&gt;">
								<path id="&lt;Path&gt;" class="s3" d="m987.6 286.4c0-0.1 0.1 0.1 0.1 0.2-0.7 2-1.1 4.5 0.5 5.7 0.1 0.1 0 0.2 0 0.1-2.2-1-1.6-4.2-0.6-6z"/>
								<path id="&lt;Path&gt;" class="s3" d="m990.1 284.8c3.4 0.7 1.6 7.4-1.5 6.7-3.1-0.6-1.3-7.3 1.5-6.7z"/>
							</g>
							<g id="&lt;Group&gt;">
								<path id="&lt;Path&gt;" class="s3" d="m976.1 283.2c0-0.1-0.2 0-0.2 0.1-0.5 2.1-1.4 4.4-3.4 4.6-0.1 0-0.1 0.1-0.1 0.1 2.4 0.3 3.6-2.8 3.7-4.8z"/>
								<path id="&lt;Path&gt;" class="s3" d="m974.8 280.5c-3.3-1.1-5.3 5.5-2.2 6.5 2.9 1.1 5-5.6 2.2-6.5z"/>
							</g>
							<path id="&lt;Path&gt;" class="s3" d="m993.5 282.4c-0.8-0.5-1.5-1-2.3-1.6-0.9-0.6-1.7-1-2.1-2.1-0.2-0.5 0.1-1.4 0.7-1.6 1.2-0.7 2.5-0.2 3.6 0.5 1.2 0.8 2 1.7 2.4 3.1 0.4 1.3-1.1 2.3-2.3 1.7z"/>
							<path id="&lt;Path&gt;" class="s3" d="m973.1 276.4c1 0.1 1.9 0.1 2.9 0 1.1 0 1.9 0.1 2.9-0.5 0.5-0.3 0.6-1.2 0.3-1.7-0.6-1.3-2-1.6-3.3-1.6-1.4-0.1-2.5 0.3-3.7 1.1-1.1 0.9-0.4 2.6 0.9 2.7z"/>
							<path id="&lt;Path&gt;" class="s3" d="m985.1 305.9c-0.6 0.3-1.3 0.9-2.1 0.7-0.7-0.1-1.5-0.7-2.1-1.1 0 0-0.1 0-0.1 0.1 0.4 0.9 1.4 1.7 2.4 1.8 0.9 0.1 1.6-0.6 2.1-1.4 0-0.1-0.1-0.2-0.2-0.1z"/>
							<g id="&lt;Group&gt;">
								<g id="&lt;Group&gt;">
									<path id="&lt;Path&gt;" class="s3" d="m984.6 299.1c-1.7 1.5-3.6 2-5.6 1.9-0.9-0.1-1.7-0.3-2.6-0.6q-0.2 0-0.4-0.2-0.2 0-0.5-0.1c-0.2-0.1-0.3-0.4-0.3-0.6q0.1-0.1 0.1-0.2 0 0 0-0.1l0.1-0.1c0.3-1.7 1.1-4 1.1-4-0.6 0.1-4 0.7-3.7-0.2 2.2-6.8 4.7-14.4 8.4-20.7 0.1-0.2 0.4 0 0.3 0.2-1.8 6.6-4.9 12.9-6.9 19.5 1.1-0.1 2.8-0.4 3.6-0.1 0.2 0.1-1.6 4.6-1.7 5.3q0 0 0 0.1c2.6 1 4.8 0.7 7.9-0.4 0.2 0 0.3 0.1 0.2 0.3z"/>
								</g>
							</g>
							<g id="&lt;Group&gt;">
								<path id="&lt;Path&gt;" class="s3" d="m977.4 300.3c0 0 1.1 2.2 2.9 3.3 0.6 0.4 1.4 0.6 2.2 0.6 1.8-0.2 2.1-1.7 2-3 0-1.1-0.3-2.1-0.3-2.1 0 0-2.9 1.8-6.8 1.2z"/>
								<path id="&lt;Path&gt;" class="s9" d="m980.3 303.6c0.6 0.4 1.4 0.6 2.2 0.6 1.8-0.2 2.1-1.7 2-3-1.8-0.2-3.8 0.7-4.2 2.4z"/>
							</g>
						</g>
						<path id="&lt;Path&gt;" class="s3" d="m1016.8 299c1.3-2.7 14.1-31.7 13.9-35.2-0.2-3.1-3.7-2.5-3.7-2.7 0-0.2 0.4-2.9-1.1-4.3-1.4-1.2-3.7-0.6-3.7-0.6 0 0 0-3-1.7-4.1-1.7-1.1-3.7 0.1-3.7 0.1 0 0-0.1-2.9-2.3-4-2.2-1.1-3.7 0.7-3.7 0.7 0 0-0.3-2.9-2.1-3.8-1.8-0.9-3.8 0.9-3.8 0.9 0 0-0.6-2.7-2.9-3.2-2.4-0.4-3.7 1.9-3.7 1.9 0 0-0.9-2.7-3.1-3.1-2.1-0.5-3.4 2.1-3.4 2.1 0 0-0.4-2.6-2.5-2.8-2-0.2-3 2.5-3 2.5 0 0-0.7-2.8-3.2-2.5-3.9 0.5-7.6 18.1-9.9 25.6 0 0 1.7-3.5 3.3-3.3 1.6 0.1 2.3 2.8 5.1 4 4 1.7 11.8-1.9 17.3 0.3 5.4 2.2 8.4 8.8 8.8 18 0.5 10.2 6 19.8 9.1 13.5z"/>
						<g id="&lt;Group&gt;">
							<path id="&lt;Compound Path&gt;" fill-rule="evenodd" class="s4" d="m982.3 285.5c2-4.8 7.5-7 12.2-5 4.7 2 7 7.5 5 12.2-1.7 4-5.9 6.3-10 5.6q-1.1-0.1-2.2-0.6c-3.9-1.6-6.1-5.6-5.7-9.6q0.2-1.3 0.7-2.6zm5.4 11.1c4.1 1.7 8.9-0.2 10.6-4.3 1.8-4.1-0.2-8.9-4.3-10.6q-0.9-0.4-1.9-0.6c-3.6-0.5-7.2 1.4-8.7 4.9-1.7 4.1 0.2 8.8 4.3 10.6z"/>
							<path id="&lt;Path&gt;" class="s3" d="m987.7 296.6c4.1 1.7 8.9-0.2 10.6-4.3 1.8-4.1-0.2-8.9-4.3-10.6q-0.9-0.4-1.9-0.6c-3.6-0.5-7.2 1.4-8.7 4.9-1.7 4.1 0.2 8.8 4.3 10.6z"/>
							<path id="&lt;Compound Path&gt;" fill-rule="evenodd" class="s4" d="m964.1 281.6c0.6-2.3 1.9-4.4 3.6-5.7 1.7-1.4 3.7-1.9 5.5-1.4 1.8 0.5 3.3 1.9 4.1 4 0.7 2 0.8 4.4 0.1 6.8-1.2 4.7-5 7.8-8.5 7.3q-0.3-0.1-0.6-0.1c-3.7-1.1-5.6-5.9-4.2-10.9zm4.5 9.7c3 0.8 6.5-2 7.6-6.3 0.6-2.1 0.6-4.3-0.1-6.1-0.7-1.7-1.8-2.8-3.2-3.2q-0.2-0.1-0.5-0.1c-1.3-0.2-2.7 0.2-3.9 1.2-1.5 1.2-2.7 3.1-3.3 5.2-1.1 4.3 0.4 8.4 3.4 9.3z"/>
							<path id="&lt;Path&gt;" class="s3" d="m968.6 291.3c3 0.8 6.5-2 7.6-6.3 0.6-2.1 0.6-4.3-0.1-6.1-0.7-1.7-1.8-2.8-3.2-3.2q-0.2-0.1-0.5-0.1c-1.3-0.2-2.7 0.2-3.9 1.2-1.5 1.2-2.7 3.1-3.3 5.2-1.1 4.3 0.4 8.4 3.4 9.3z"/>
							<path id="&lt;Path&gt;" class="s4" d="m982.3 286.6l1-0.7c-1-1.5-3.7-3.9-6.6-2.2l0.7 1.1c2.5-1.6 4.8 1.7 4.9 1.8z"/>
							<path id="&lt;Path&gt;" class="s4" d="m1021.7 299.9l1.3-0.3c-0.2-0.5-1.3-5.6-3.9-6.7-2.4-1.1-18.9-4-19.6-4.1l-0.2 1.2c4.7 0.8 17.5 3.2 19.3 4 1.7 0.8 2.9 4.5 3.1 5.9z"/>
						</g>
						<g id="&lt;Group&gt;">
							<path id="&lt;Path&gt;" class="s11" d="m1009.9 295c0 0 8.4-9 12.6-5.9 4.2 3.1-3.1 17-8.8 18.2-5.6 1.2-6.8-4-6.8-4z"/>
							<path id="&lt;Path&gt;" class="s3" d="m1020.3 293c0.1 0 0.1 0.1 0 0.2-4 0.9-6.4 4.1-8.3 7.6 1.3-1.3 2.9-1.8 4.6-0.2 0.1 0.1 0 0.2-0.1 0.2-1.5-0.6-2.7-0.5-3.9 0.6-0.8 0.8-1.5 1.8-2.2 2.7-0.2 0.3-0.8 0.1-0.6-0.3q0 0 0.1-0.1c0.5-4.8 5.2-10.9 10.4-10.7z"/>
						</g>
					</g>
				</g>
			</g>
		</g>
	</g>
</svg>