<svg version="1.2" xmlns="http://www.w3.org/2000/svg" viewBox="0 0 1500 1000" width="1500" height="1000">
	<title>4989916-ai</title>
	<style>
		.s0 { fill: #ebebeb } 
		.s1 { fill: #a6a6a6 } 
		.s2 { fill:  #BA68C8 } 
		.s3 { fill: #dbdbdb } 
		.s4 { fill: #263238 } 
		.s5 { opacity: .1;fill: #263238 } 
		.s6 { opacity: .1;fill: #000000 } 
		.s7 { fill: #37474f } 
		.s8 { fill: #ffffff } 
		.s9 { fill: #455a64 } 
		.s10 { fill: #c7c7c7 } 
		.s11 { opacity: .6;fill: #ffffff } 
		.s12 { opacity: .2;fill: #000000 } 
		.s13 { fill: none;stroke: #dbdbdb;stroke-miterlimit:10;stroke-width: 1.5;stroke-dasharray: 4 } 
		.s14 { fill: none;stroke: #dbdbdb;stroke-miterlimit:10;stroke-width: 1.5 } 
		.s15 { fill: none;stroke: #dbdbdb;stroke-miterlimit:10;stroke-width: 1.5;stroke-dasharray: 3.83444,3.83444 } 
		.s16 { fill: none;stroke:  #BA68C8;stroke-miterlimit:10;stroke-width: 1.5 } 
		.s17 { fill: none;stroke:  #BA68C8;stroke-miterlimit:10;stroke-width: 1.5;stroke-dasharray: 3.83444,3.83444 } 
		.s18 { fill: #ffc4c0 } 
		.s19 { opacity: .4;fill: #000000 } 
		.s20 { fill: #000000 } 
		.s21 { fill: #f7a9a0 } 
		.s22 { fill: #ff99ba } 
	</style>
	<g id="Background Complete">
		<g id="&lt;Group&gt;">
			<path id="&lt;Compound Path&gt;" fill-rule="evenodd" class="s0" d="m533.3 279.4h-253.3v-173.3h253.3zm-251.3-2h249.3v-169.3h-249.3z"/>
			<g id="&lt;Group&gt;">
				<path id="&lt;Path&gt;" class="s1" d="m299.8 117.3c0 2.8-2.3 5-5.1 5-2.7 0-5-2.2-5-5 0-2.8 2.3-5.1 5-5.1 2.8 0 5.1 2.3 5.1 5.1z"/>
				<path id="&lt;Path&gt;" class="s0" d="m320.4 117.3c0 2.8-2.3 5-5.1 5-2.8 0-5-2.2-5-5 0-2.8 2.2-5.1 5-5.1 2.8 0 5.1 2.3 5.1 5.1z"/>
				<path id="&lt;Path&gt;" class="s2" d="m341 117.3c0 2.8-2.3 5-5.1 5-2.8 0-5-2.2-5-5 0-2.8 2.2-5.1 5-5.1 2.8 0 5.1 2.3 5.1 5.1z"/>
			</g>
			<path id="&lt;Path&gt;" class="s0" d="m532.3 128.2h-251.3v-2h251.3z"/>
		</g>
		<g id="&lt;Group&gt;">
			<path id="&lt;Compound Path&gt;" fill-rule="evenodd" class="s0" d="m1325.6 359.2c-1.7-1-3.8-1-5.5 0.1q-0.7 0.4-1.5 0.8-0.7 0.4-1.4 0.7c-1.8 0.9-3.1 2.6-3.1 4.6l-0.3 6.9-22.3-0.7 0.2-6.9c0.1-2-1-3.8-2.8-4.8q-1.4-0.8-2.8-1.7c-1.6-1.2-3.8-1.3-5.5-0.4l-6.1 3.3-10.5-19.7 6-3.3c1.8-0.9 2.8-2.8 2.8-4.8q-0.1-1.7 0.1-3.3c0.2-2-0.8-3.9-2.5-5l-5.8-3.6 11.8-19 5.8 3.6c1.7 1.1 3.9 1 5.6 0q0.7-0.4 1.4-0.8 0.7-0.4 1.5-0.8c1.8-0.8 3-2.6 3.1-4.6l0.2-6.9 22.3 0.7-0.2 6.9c-0.1 2 1 3.8 2.8 4.8q1.5 0.8 2.8 1.8c1.7 1.1 3.8 1.3 5.6 0.3l6-3.2 10.6 19.7-6.1 3.2c-1.7 0.9-2.8 2.8-2.7 4.8q0 1.7-0.1 3.4c-0.2 2 0.7 3.9 2.4 5l5.8 3.6-11.7 18.9zm-5.6-35.2c-4.8-8.9-15.9-12.3-24.8-7.5-8.9 4.8-12.3 15.9-7.5 24.8 4.8 8.9 15.9 12.2 24.8 7.5 8.9-4.8 12.2-15.9 7.5-24.8z"/>
			<path id="&lt;Compound Path&gt;" fill-rule="evenodd" class="s0" d="m217.8 528.6c-1.7-1-3.8-1-5.6 0.1q-0.7 0.4-1.4 0.8-0.7 0.4-1.5 0.7c-1.8 0.9-3 2.6-3.1 4.6l-0.2 6.9-22.3-0.7 0.2-6.9c0.1-2-1-3.8-2.8-4.8q-1.5-0.8-2.8-1.7c-1.7-1.2-3.8-1.3-5.6-0.4l-6 3.3-10.6-19.7 6.1-3.3c1.7-0.9 2.8-2.8 2.7-4.8q0-1.6 0.1-3.3c0.2-2-0.7-3.9-2.4-5l-5.8-3.6 11.7-19 5.9 3.6c1.7 1.1 3.8 1 5.5 0q0.7-0.4 1.5-0.8 0.7-0.4 1.4-0.8c1.9-0.8 3.1-2.6 3.1-4.6l0.3-6.8 22.3 0.6-0.2 6.9c-0.1 2 1 3.8 2.8 4.8q1.4 0.8 2.8 1.8c1.6 1.1 3.8 1.3 5.5 0.3l6.1-3.2 10.5 19.7-6 3.2c-1.8 1-2.8 2.8-2.8 4.8q0.1 1.7-0.1 3.4c-0.1 2 0.8 3.9 2.5 5l5.8 3.6-11.8 18.9zm-5.6-35.2c-4.7-8.9-15.8-12.3-24.7-7.5-9 4.8-12.3 15.9-7.5 24.8 4.8 8.9 15.8 12.2 24.7 7.5 9-4.8 12.3-15.9 7.5-24.8z"/>
			<path id="&lt;Compound Path&gt;" fill-rule="evenodd" class="s0" d="m1247.3 221.1c-1.2 0.7-1.9 2.1-1.8 3.5q0 0.6 0 1.1 0 0.6 0 1.2c-0.1 1.4 0.6 2.7 1.8 3.4l4.1 2.4-7.8 13.6-4.1-2.4c-1.3-0.7-2.8-0.6-3.9 0.1q-1 0.7-2.1 1.2c-1.2 0.6-2 1.9-2 3.3v4.8h-15.7v-4.8c0-1.4-0.8-2.7-2-3.3q-1.1-0.5-2-1.2c-1.2-0.7-2.7-0.8-3.9-0.1l-4.2 2.4-7.8-13.6 4.2-2.4c1.2-0.7 1.8-2 1.8-3.4q-0.1-0.6-0.1-1.2 0-0.5 0.1-1.1c0-1.4-0.6-2.8-1.8-3.5l-4.2-2.4 7.8-13.5 4.2 2.4c1.2 0.7 2.7 0.6 3.9-0.2q0.9-0.6 2-1.1c1.2-0.7 2-1.9 2-3.3v-4.8h15.7v4.8c0 1.4 0.8 2.6 2.1 3.3q1 0.5 2 1.1c1.2 0.8 2.7 0.9 3.9 0.2l4.1-2.4 7.8 13.5zm-23.6-8.2c-7 0-12.8 5.8-12.8 12.8 0 7.1 5.8 12.8 12.8 12.8 7.1 0 12.8-5.7 12.8-12.8 0-7-5.7-12.8-12.8-12.8z"/>
		</g>
		<g id="&lt;Group&gt;">
			<g id="&lt;Group&gt;">
				<path id="&lt;Compound Path&gt;" fill-rule="evenodd" class="s0" d="m165.3 150.6l26.2-0.6 13.3-0.2c4.5-0.1 9-0.1 13.4-0.1h0.9v0.9l0.1 22.4v1h-1l-26.5-0.1c-8.8-0.1-17.6-0.3-26.4-0.4h-0.6v-0.5c0-3.8 0.2-7.6 0.3-11.3zm0 0l0.3 11.3c0 3.5 0.2 7 0.2 10.5 8.7-0.1 17.3-0.3 26-0.3l25.4-0.1 0.1-20.5c-4-0.1-8.1-0.1-12.2-0.1l-13.1-0.3zm0.5 21.9q-0.2 0-0.5 0l0.5 0.5q0-0.3 0-0.5zm51.5-0.5l-0.1 1 1-1zm0.1-20.5q0.5 0 0.9 0l-0.9-0.9z"/>
			</g>
			<g id="&lt;Group&gt;">
				<path id="&lt;Compound Path&gt;" fill-rule="evenodd" class="s0" d="m194.8 122.4l26.2-0.6 13.4-0.2c4.4-0.1 8.9-0.1 13.4-0.1h0.8l0.1 0.9 0.1 22.4v1h-1l-26.5-0.2c-8.8 0-17.7-0.2-26.5-0.3h-0.6l0.1-0.5c0-3.8 0.1-7.6 0.2-11.3zm0 0l0.3 11.3c0.1 3.5 0.2 7 0.3 10.5 8.6-0.1 17.2-0.3 25.9-0.3l25.5-0.2 0.1-20.5c-4.1 0-8.1 0-12.2-0.1l-13.2-0.2zm0.6 21.8q-0.3 0-0.6 0l0.6 0.6q0-0.3 0-0.6zm51.4-0.4v1l1-1zm0.1-20.5q0.4 0 0.9 0l-0.9-0.9z"/>
			</g>
			<g id="&lt;Group&gt;">
				<path id="&lt;Compound Path&gt;" fill-rule="evenodd" class="s0" d="m135.7 122.4l26.3-0.6 13.3-0.2c4.4-0.1 8.9-0.1 13.4-0.1h0.9v0.9l0.1 22.4v1h-1l-26.5-0.2c-8.8 0-17.7-0.2-26.5-0.3h-0.5v-0.5c0-3.8 0.1-7.6 0.2-11.3zm0 0l0.3 11.3c0.1 3.5 0.2 7 0.3 10.5 8.6-0.1 17.3-0.3 25.9-0.3l25.5-0.2 0.1-20.5c-4.1 0-8.1 0-12.2-0.1l-13.2-0.2zm0.6 21.8q-0.3 0-0.6 0l0.6 0.6q0-0.3 0-0.6zm51.4-0.4v1l1-1zm0.1-20.5q0.4 0 0.9 0l-0.9-0.9z"/>
			</g>
			<g id="&lt;Group&gt;">
				<path id="&lt;Compound Path&gt;" fill-rule="evenodd" class="s0" d="m920.4 416.9l26.3-0.5 13.3-0.3c4.4-0.1 8.9 0 13.4-0.1h0.9v0.9l0.1 22.4v1h-1l-26.5-0.1c-8.8 0-17.7-0.3-26.5-0.4h-0.5v-0.5c0-3.8 0.1-7.6 0.2-11.3zm0 0l0.3 11.3c0.1 3.5 0.2 7 0.3 10.5 8.6-0.1 17.3-0.3 25.9-0.3l25.5-0.1 0.1-20.5c-4.1-0.1-8.1 0-12.2-0.1l-13.2-0.3zm0.6 21.9q-0.3 0-0.6 0l0.6 0.5q0-0.3 0-0.5zm51.4-0.5v1l1-1zm0.1-20.5q0.4 0 0.9 0l-0.9-0.9z"/>
			</g>
			<g id="&lt;Group&gt;">
				<path id="&lt;Compound Path&gt;" fill-rule="evenodd" class="s0" d="m950 388.7l26.2-0.6 13.3-0.2c4.5-0.1 9-0.1 13.4-0.1h0.9v0.9l0.1 22.4v1h-1l-26.5-0.2c-8.8 0-17.6-0.2-26.4-0.3h-0.6v-0.5c0.1-3.8 0.2-7.6 0.3-11.3zm0 0l0.3 11.3c0 3.5 0.2 7 0.2 10.5 8.7-0.1 17.3-0.3 26-0.3l25.4-0.1 0.1-20.5c-4-0.1-8.1-0.1-12.2-0.2l-13.1-0.2zm0.5 21.9q-0.2 0-0.5 0l0.5 0.5q0-0.3 0-0.5zm51.5-0.5l-0.1 1 1-1zm0.1-20.5q0.5 0 0.9 0l-0.9-0.9z"/>
			</g>
			<g id="&lt;Group&gt;">
				<path id="&lt;Compound Path&gt;" fill-rule="evenodd" class="s0" d="m890.9 388.7l26.2-0.6 13.3-0.2c4.5-0.1 9-0.1 13.4-0.1h0.9v0.9l0.1 22.4v1h-1l-26.4-0.2c-8.9 0-17.7-0.2-26.5-0.3h-0.6v-0.5c0.1-3.8 0.2-7.6 0.3-11.3zm0 0l0.3 11.3c0.1 3.5 0.2 7 0.2 10.5 8.7-0.1 17.3-0.3 26-0.3l25.5-0.1 0.1-20.5c-4.1-0.1-8.2-0.1-12.2-0.2l-13.2-0.2zm0.5 21.9q-0.2 0-0.5 0l0.5 0.5q0-0.3 0-0.5zm51.5-0.5v1l1-1zm0.1-20.5q0.4 0 0.9 0l-0.9-0.9z"/>
			</g>
			<g id="&lt;Group&gt;">
				<path id="&lt;Compound Path&gt;" fill-rule="evenodd" class="s0" d="m1287.2 142.7l26.3-0.5 13.3-0.2c4.5-0.1 8.9-0.1 13.4-0.1l0.9-0.1v0.9l0.1 22.4v1h-1l-26.5-0.1c-8.8 0-17.6-0.2-26.5-0.3h-0.5v-0.6c0-3.8 0.2-7.6 0.3-11.3zm0 0l0.2 11.3c0.1 3.6 0.3 7.1 0.3 10.5 8.6-0.1 17.3-0.3 25.9-0.3l25.5-0.1 0.1-20.5c-4 0-8.1 0-12.2-0.1l-13.1-0.2zm0.5 21.8q-0.3 0-0.5 0l0.5 0.6q0-0.3 0-0.6zm51.4-0.4v1l1-1zm0.1-20.5q0.5 0 0.9 0l-0.9-0.9z"/>
			</g>
			<g id="&lt;Group&gt;">
				<path id="&lt;Compound Path&gt;" fill-rule="evenodd" class="s0" d="m474.3 416.9l26.2-0.5 13.3-0.3c4.5 0 9 0 13.4-0.1h0.9v0.9l0.1 22.4v1h-1l-26.4-0.1c-8.9 0-17.7-0.2-26.5-0.3l-0.6-0.1v-0.5c0.1-3.8 0.2-7.6 0.3-11.3zm0 0l0.3 11.3c0.1 3.5 0.2 7 0.2 10.5 8.7-0.1 17.3-0.3 26-0.3l25.5-0.1 0.1-20.5c-4.1 0-8.2 0-12.2-0.1l-13.2-0.2zm0.5 21.8q-0.2 0-0.5 0l0.5 0.5q0-0.2 0-0.5zm51.5-0.5v1l1-1zm0.1-20.5q0.4 0 0.9 0l-0.9-0.8z"/>
			</g>
			<g id="&lt;Group&gt;">
				<path id="&lt;Compound Path&gt;" fill-rule="evenodd" class="s0" d="m168.3 634.3l26.3-0.6 13.3-0.2c4.4-0.1 8.9-0.1 13.4-0.1h0.9v0.9l0.1 22.4v1h-1l-26.5-0.2c-8.8 0-17.7-0.2-26.5-0.3h-0.5v-0.5c0-3.8 0.1-7.6 0.2-11.3zm0 0l0.3 11.3c0.1 3.5 0.2 7 0.3 10.5 8.6-0.1 17.3-0.3 25.9-0.3l25.5-0.2 0.1-20.5c-4.1 0-8.1 0-12.2-0.1l-13.2-0.2zm0.6 21.8q-0.3 0-0.6 0.1l0.6 0.5q0-0.3 0-0.6zm51.4-0.4v1l1-1zm0.1-20.5q0.5 0 0.9 0l-0.9-0.9z"/>
			</g>
			<g id="&lt;Group&gt;">
				<path id="&lt;Compound Path&gt;" fill-rule="evenodd" class="s0" d="m138.8 606.1l26.2-0.6 13.3-0.2c4.5-0.1 9-0.1 13.4-0.1h0.9v0.9l0.1 22.3v1.1l-1-0.1-26.4-0.1c-8.9 0-17.7-0.2-26.5-0.3h-0.6v-0.6c0.1-3.7 0.2-7.5 0.3-11.3zm0 0l0.3 11.3c0.1 3.6 0.2 7.1 0.2 10.6 8.7-0.1 17.3-0.3 26-0.4l25.5-0.1 0.1-20.5c-4.1 0-8.2 0-12.2-0.1l-13.2-0.2zm0.5 21.8q-0.2 0-0.5 0l0.5 0.6q0-0.3 0-0.6zm51.5-0.4v1l1-1zm0.1-20.5q0.4 0 0.9 0l-0.9-0.9z"/>
			</g>
			<g id="&lt;Group&gt;">
				<path id="&lt;Compound Path&gt;" fill-rule="evenodd" class="s0" d="m1311.3 634.3l26.3-0.6 13.3-0.2c4.4-0.1 8.9-0.1 13.4-0.1h0.9v0.9l0.1 22.3v1h-1l-26.5-0.1c-8.8 0-17.6-0.2-26.5-0.3h-0.5v-0.6c0-3.8 0.2-7.5 0.2-11.3zm0 0l0.3 11.3c0.1 3.6 0.2 7.1 0.3 10.6 8.6-0.1 17.3-0.3 25.9-0.4l25.5-0.1 0.1-20.5c-4.1 0-8.1 0-12.2-0.1l-13.1-0.2zm0.5 21.8q-0.3 0-0.5 0l0.5 0.6q0-0.3 0-0.6zm51.4-0.4v1l1-1zm0.1-20.5q0.5 0 0.9 0l-0.9-0.9z"/>
			</g>
		</g>
		<g id="&lt;Group&gt;">
			<g id="&lt;Group&gt;">
				<path id="&lt;Path&gt;" class="s3" d="m1322.5 778.8h-208.1v-287.9h208.1z"/>
				<path id="&lt;Path&gt;" class="s0" d="m1332.6 490.9h-228.2v-10.7h228.2z"/>
				<path id="&lt;Path&gt;" class="s3" d="m1404.4 490.9h-71.8v-10.7h71.8z"/>
				<path id="&lt;Path&gt;" class="s0" d="m1393 778.8h-70.5v-287.9h70.5z"/>
				<g id="&lt;Group&gt;">
					<path id="&lt;Compound Path&gt;" fill-rule="evenodd" class="s1" d="m1300.1 624.1h-163.2v-92.2h163.2zm-162.7-0.5h162.2v-91.3h-162.2z"/>
					<g id="&lt;Group&gt;">
						<path id="&lt;Path&gt;" class="s1" d="m1227.5 577.1h-31.8v-18.3h31.8z"/>
						<path id="&lt;Compound Path&gt;" fill-rule="evenodd" class="s1" d="m1237.1 576h-32.3v-16h32.3zm-31.8-0.5h31.3v-15h-31.3z"/>
					</g>
				</g>
				<g id="&lt;Group&gt;">
					<path id="&lt;Compound Path&gt;" fill-rule="evenodd" class="s1" d="m1300.1 740.1h-163.2v-92.3h163.2zm-162.7-0.5h162.2v-91.3h-162.2z"/>
					<g id="&lt;Group&gt;">
						<path id="&lt;Path&gt;" class="s1" d="m1227.5 693h-31.8v-18.2h31.8z"/>
						<path id="&lt;Compound Path&gt;" fill-rule="evenodd" class="s1" d="m1237.1 691.9h-32.3v-16h32.3zm-31.8-0.5h31.3v-15h-31.3z"/>
					</g>
				</g>
			</g>
		</g>
	</g>
	<g id="Plant">
		<g id="&lt;Group&gt;">
			<g id="&lt;Group&gt;">
				<g id="&lt;Group&gt;">
					<path id="&lt;Path&gt;" class="s2" d="m223.5 651.7c0 0 34.6-7.8 53.6-25.3 18.9-17.5 29.5-48.8 29.5-48.8 0 0-20.4 3.7-38.8 10.2-3.1 3.3-9 10.1-11.7 16.6 0 0-0.6-6.8-0.1-11.9-5 2.3-9.3 4.8-12.4 7.5-15.7 13.8-20.1 51.7-20.1 51.7z"/>
					<g id="&lt;Group&gt;">
						<path id="&lt;Path&gt;" class="s4" d="m285 592.8c4.7-3.3 9.5-6.4 14.2-9.7 0.3-0.2 0-0.6-0.3-0.5-8.9 5.4-17.7 11.1-26.2 17q-4.4 3.2-8.7 6.5 0.3-0.5 0.6-1c1-1.8 2.1-3.5 3.2-5.2 2.2-3.4 4.6-6.8 7.3-9.8 0.1-0.1 0-0.3-0.1-0.2-2.7 3.1-5.4 6.2-7.9 9.5q-1.7 2.4-3.3 4.9-0.8 1.3-1.5 2.6-0.3 0.4-0.5 0.9c-4.5 3.5-8.9 7.2-13 11q-3.9 3.6-7.5 7.5c1.4-4.2 2.5-8.5 4.1-12.6 0.1-0.1-0.2-0.2-0.2-0.1-1.5 4.4-3.2 8.7-4.4 13.2q-3.9 4.3-7.5 8.9 0-0.3 0.1-0.6 0.6-2.4 1.2-4.9c0.9-3.1 1.8-6.2 2.9-9.3 2.1-6.3 4.9-12.4 9.3-17.5 0-0.1-0.1-0.3-0.2-0.2-6.8 8-10.7 17.6-13.3 27.7q-0.5 2.2-1 4.4c-0.2 0.8-0.4 1.6-0.6 2.4q-1.5 2.1-3 4.3c-6 9-10.7 18.7-14.7 28.7-4.4 11.3-7.9 23-11 34.6-0.1 0.3 0.2 0.3 0.3 0.1 6.8-20.2 13.7-40.8 25.3-58.9q3.7-5.7 7.9-11c5.7-0.4 11.4-1.6 16.8-3.4 6-2 11.6-4.7 16.9-8.1 3-2 5.8-4.3 8.6-6.6 0.2-0.1 0-0.3-0.1-0.2-4.7 4-10.3 7.1-15.9 9.6-5.6 2.6-11.4 4.6-17.4 5.9-2.6 0.6-5.2 1-7.8 1.3q4.8-5.9 10.2-11.3c1.2-1.2 2.4-2.3 3.6-3.4 4-2.9 8.4-5.2 12.8-7.3 5.7-2.8 11.3-5.7 16.9-8.5 3.1-1.6 6.3-3.3 9.5-4.8 0.1-0.1 0-0.3-0.1-0.2-5.7 2.7-11.5 5.3-17.3 7.9-5.4 2.5-10.8 5-16 7.9q-0.3 0.2-0.7 0.4c4.7-4.1 9.6-8 14.5-11.8q6.9-5.2 14-10.1z"/>
						<path id="&lt;Path&gt;" class="s4" d="m283 610.7c-2.8 1.2-5.6 2.3-8.4 3.6-2.9 1.3-5.6 2.9-8.3 4.5-0.1 0.1 0 0.2 0.1 0.2 2.7-1.3 5.5-2.6 8.3-3.9 2.8-1.5 5.5-3 8.4-4.2 0.1-0.1 0.1-0.3-0.1-0.2z"/>
					</g>
				</g>
				<g id="&lt;Group&gt;">
					<path id="&lt;Path&gt;" class="s2" d="m111 477.3c0 0 9.7 11.1 10.4 28.7 0.1 3.1-0.4 7.5-0.8 12.5 12.9 6.9 22.6 19.3 22.6 19.3-7.3-4.4-17.4-6.1-22.8-5.4 0.2 3.3 0.6 6.8 1.3 10.3 2.4-0.1 7 0.2 14.7 2.9 0 0-7.5-0.2-13.2 2.7 6.1 19.6 24.5 39.8 75.1 48.3 0 0 9.8-34.4-9-71.2-15.1-29.9-78.3-48.1-78.3-48.1z"/>
					<g id="&lt;Group&gt;">
						<path id="&lt;Path&gt;" class="s4" d="m215.8 680.6q-1.3-12.6-3.2-25.1c-2.6-16.6-6-33.2-10.3-49.5-2-7.7-4.4-15.3-7.3-22.6 0.2-1.4 0.2-2.7 0.2-4.1q0.1-2.4 0-4.8 0-4.9-0.4-9.8c-0.6-6.3-1.5-12.7-3.1-19-1-3.6-2-7.1-3.1-10.7 0-0.1-0.3-0.1-0.2 0.1 1.8 6.2 2.8 12.6 3.7 18.9q1.4 9.5 1.7 19 0.1 2.7 0.1 5.3 0 1.1 0 2.2c-2.5-6-5.3-11.9-8.6-17.7-5.1-9-10.9-17.7-17.3-25.9 0.1-0.9-0.2-1.9-0.4-2.8q-0.4-1.7-0.8-3.4-0.7-3.5-1.7-6.9c-1.2-4.6-2.9-9-4.3-13.6-0.1-0.1-0.3-0.1-0.3 0.1 1.4 4.5 2.3 9.1 3.3 13.7q0.7 3.4 1.5 6.8 0.4 1.7 0.7 3.4 0 0.1 0.1 0.2-3.1-3.9-6.3-7.6c-9.7-11.4-20.3-21.8-31-32.2-1.3-1.3-2.6-2.5-3.9-3.8-0.2-0.1-0.3 0.1-0.2 0.2 10.2 10.6 20.2 21.4 29.7 32.7q3.4 4 6.7 8.1-1.7-1.2-3.4-2.3c-3-1.9-6-3.8-9-5.5-3.1-1.8-6.2-3.4-9.4-5-3.2-1.6-6.7-2.9-9.8-4.7-0.2-0.1-0.3 0.1-0.1 0.2 3.2 1.3 6.2 3.3 9.2 5.1 3.1 1.8 6.2 3.7 9.2 5.6 3 1.9 6 3.7 8.9 5.6 2.5 1.6 4.9 3.4 7.5 4.9 5.8 7.5 11.3 15.4 16.2 23.6q4.6 7.7 8.4 15.9-0.9-0.4-1.8-0.8-2.4-1-4.7-2.1-4.5-1.9-8.9-3.9c-5.7-2.4-11.5-4.7-17.1-7.4-3.1-1.5-6.2-3.1-9.1-5.1-0.1-0.1-0.2 0.2-0.1 0.2 10.4 7.2 22.1 12.2 33.5 17.3l5 2.2c1.4 0.6 2.8 1.3 4.2 1.8q5.1 11.4 8.5 23.5c4.7 16.1 8.2 32.5 11.1 49 2.9 16.6 4.8 33.2 6.4 49.9q0.2 3.2 0.6 6.3c0.1 0.8 1.3 0.8 1.3 0-0.1-8.5-1-17-1.9-25.5z"/>
						<path id="&lt;Path&gt;" class="s4" d="m185 540.8c-0.9-5.2-2.3-10.2-3.7-15.3 0-0.1-0.2 0-0.2 0.1 1.3 4.9 2.2 10 3.1 15q1.5 7.7 2.6 15.4c0 0.1 0.1 0.1 0.1 0q-0.5-7.7-1.9-15.2z"/>
						<path id="&lt;Path&gt;" class="s4" d="m163.2 554.7c-3.4-2.4-7.3-4.3-11-6.2q-2.8-1.4-5.6-2.7c-1.9-1-3.9-1.8-5.8-2.7-0.2-0.1-0.3 0.1-0.2 0.2 1.9 0.9 3.7 2 5.5 3q2.8 1.6 5.6 3.1c3.7 2 7.3 4.2 11.2 5.8 0.4 0.2 0.6-0.3 0.3-0.5z"/>
					</g>
				</g>
				<g id="&lt;Group&gt;">
					<path id="&lt;Path&gt;" class="s5" d="m224.1 591.8c0 0 32-7.7 46.7-29.2 14.1-20.5 18.6-55.5 19-58.6-0.6 2.9-7.2 33.4-29 47.7-16.7 10.9-32.8 19.9-36.7 40.1z"/>
					<path id="&lt;Path&gt;" class="s4" d="m253.7 536.4c-5.7 5.4-9.9 11.8-11.9 19.5 0 0 0.1 0.1 0.1 0 2.5-7.1 6.4-14.1 11.9-19.3 0.1-0.1 0-0.3-0.1-0.2z"/>
					<g id="&lt;Group&gt;">
						<path id="&lt;Path&gt;" class="s2" d="m224.1 591.8c0 0 32-7.7 46.7-29.2 14.1-20.5 18.6-55.5 19-58.6q0-0.2 0-0.2c0 0-15.3 21.9-31.5 27.4-16.1 5.6-38.8 24.9-34.2 60.6z"/>
						<path id="&lt;Path&gt;" class="s4" d="m284.1 515.9c-2.9 5.8-6 11.6-9.9 16.9-3.7 5.2-8.2 9.6-13.1 13.6-4.4 3.4-9 6.5-13.4 9.9q0.1 0 0.1-0.1 1.3-1.9 2.6-3.6c1.9-2.4 3.9-4.6 5.9-6.8 4-4.3 8-8.5 11.6-13.2 2-2.6 3.7-5.3 5.1-8.3 0.1-0.1-0.1-0.2-0.2 0-5.2 10.8-15.6 17.7-23 26.9q-1.6 1.9-2.9 4c-0.7 1-1.5 2.1-1.9 3.3-4 3.3-7.7 6.9-10.9 11 0.3-2.1 0.7-4.2 1.3-6.2 0.8-2.9 1.8-5.6 3.4-8.1 0.1-0.1-0.1-0.3-0.2-0.1-1.5 2.5-2.9 5.2-3.8 8-0.7 2.3-1 4.6-1.1 6.9q0 0 0 0.1c-1.6 2.1-3.1 4.4-4.4 6.7q0.2-1 0.4-2.1c0.7-3.2 1.4-6.3 2.2-9.5 1.7-6.4 4-12.6 7.7-18 0.1-0.2-0.1-0.3-0.2-0.2-3.7 5.4-6.5 11.5-8.5 17.7-1 3.1-1.9 6.3-2.6 9.6q-0.5 2.3-1 4.7c-0.1 0.8-0.3 1.7-0.4 2.5-3.3 6.9-5.6 14.3-7.4 21.7-3.3 13.3-5.3 26.9-6.8 40.5-1.6 14.3-2.5 28.7-2.2 43 0 1.8 0.1 3.6 0.2 5.4 0 0.5 0.7 0.5 0.7 0.1 0.3-7.2 0.5-14.3 0.9-21.4q0.7-10.6 1.9-21.2c1.4-13.9 3.6-27.8 6.6-41.5 2.6-11.7 6-23.5 12.4-33.7 3.2-5.2 7-9.7 11.5-13.8 4.5-4 9.4-7.5 14.2-11.3 4.7-3.7 9.2-7.7 13-12.4 4-5.1 7.2-10.8 10.1-16.6q1.2-2.1 2.3-4.3c0.1-0.1-0.1-0.3-0.2-0.1z"/>
						<path id="&lt;Path&gt;" class="s4" d="m278.6 520.6c-2 4.3-4.5 8.4-7.1 12.4-0.1 0.1 0.1 0.2 0.1 0.1 2.8-3.9 5.1-8.1 7.2-12.5 0.1-0.1-0.1-0.2-0.2 0z"/>
					</g>
				</g>
				<g id="&lt;Group&gt;">
					<path id="&lt;Path&gt;" class="s2" d="m106.6 577.6c0 0-0.6 45.5 26.7 58.7 27.2 13.1 41.8 2.1 60.3 6.5q0 0.1-0.1 0c-0.7-1.1-13.9-20-34.9-25.3-21.6-5.3-45.5-20.9-52-39.9z"/>
					<path id="&lt;Path&gt;" class="s6" d="m106.6 577.6c0 0-0.6 45.5 26.7 58.7 27.2 13.1 41.8 2.1 60.3 6.5q0 0.1-0.1 0c-0.7-0.3-14.2-7.1-30.9-9.1-17.2-2.1-50-13.3-56-56.1z"/>
					<g id="&lt;Group&gt;">
						<path id="&lt;Path&gt;" class="s4" d="m195.4 643.7c-3.3-3-6.9-5.5-10.9-7.4-0.6-0.3-1.2-0.5-1.7-0.7q-0.5-0.6-1-1.1-1.2-1.3-2.5-2.4c-1.7-1.5-3.6-2.8-5.5-4-4.5-2.6-9.4-4.5-14.1-6.9-0.1-0.1-0.2 0.1-0.1 0.2 2.3 1.2 4.5 2.5 6.7 3.8 2.2 1.2 4.4 2.4 6.5 3.8q2.8 1.8 5.4 4 0.7 0.6 1.4 1.3c-3-1-6.1-1.8-9.2-2.4-5-1-10-1.7-15-2.8q-3.7-0.8-7.2-1.9c-2.3-1.8-4.5-3.6-6.7-5.6-2.6-2.4-4.9-5-7-7.8-0.1-0.1-0.3 0-0.2 0.1 3.3 4.3 6.9 8.7 11.1 12.3q-1.7-0.6-3.4-1.4c-9.3-4.2-17.5-10.9-23.2-19.3-0.1-0.1-0.3 0-0.2 0.1 4.9 7.2 11.3 13.4 18.7 18 3.8 2.3 7.7 4.2 11.9 5.6 4.8 1.6 9.7 2.6 14.7 3.5 4.9 0.9 9.7 1.8 14.4 3.4 4.4 1.5 8.5 3.7 12.1 6.4 7 5.2 12.5 12.4 16.3 20.2 5.2 10.4 7.7 21.9 9 33.3 0.1 0.5 0.8 0.5 0.8 0-1.3-19.1-6.4-39.1-21.1-52.3z"/>
						<path id="&lt;Path&gt;" class="s4" d="m163.8 628.8c-1.4-2.2-3.4-3.8-5.6-5.1-2.6-1.4-4.9-3-6.7-5.5-0.1-0.1-0.3 0-0.2 0.2 1.7 2.1 3.6 3.8 5.9 5.2 2.4 1.5 4.8 3 6.4 5.3 0.1 0.1 0.2 0 0.2-0.1z"/>
					</g>
				</g>
			</g>
			<g id="&lt;Group&gt;">
				<g id="&lt;Group&gt;">
					<path id="&lt;Path&gt;" class="s7" d="m178.2 677.3l1.3 25 3.7 76.5h57.1l3.8-76.5 1.3-25z"/>
					<path id="&lt;Path&gt;" class="s4" d="m178.2 677.3l1.3 25h64.6l1.3-25z"/>
				</g>
				<path id="&lt;Path&gt;" class="s7" d="m174.2 690.7h75.2v-23.9h-75.2z"/>
			</g>
		</g>
	</g>
	<g id="Floor">
		<path id="&lt;Path&gt;" class="s4" d="m101.4 778.8l162.2-0.5 162.1-0.2 324.3-0.3 324.3 0.3 162.1 0.2 162.2 0.5-162.2 0.5-162.1 0.2-324.3 0.3-324.3-0.3-162.1-0.2z"/>
	</g>
	<g id="Shadow">
		<path id="&lt;Path&gt;" class="s0" d="m1338 886c0 25.8-263.2 46.7-588 46.7-324.8 0-588-20.9-588-46.7 0-25.7 263.2-46.6 588-46.6 324.8 0 588 20.9 588 46.6z"/>
	</g>
	<g id="Device">
		<g id="&lt;Group&gt;">
			<g id="&lt;Group&gt;">
				<path id="&lt;Path&gt;" class="s7" d="m1176.1 144.1v579.5h-852.2v-579.5z"/>
				<path id="&lt;Path&gt;" class="s0" d="m1176.1 638.2v85.4h-852.2v-85.4z"/>
				<path id="&lt;Path&gt;" class="s3" d="m916.1 855.9h-332.2v-27.8h332.2z"/>
				<g id="&lt;Group&gt;">
					<path id="&lt;Path&gt;" class="s0" d="m876.5 828.1h-253l6.4-48.2 0.3-2.2 0.6-4.5 0.3-2.3 0.6-4.5 0.1-0.7 0.2-1.6 0.6-4.5 0.3-2.3 4.5-33.6h225.2l4.2 31.7 0.2 1.5 0.7 5.3 0.2 1.5 0.3 2 0.4 3.3 0.2 1.5 0.7 5.3 0.2 1.5z"/>
				</g>
				<path id="&lt;Path&gt;" class="s7" d="m763.9 675.1c0 7.8-6.4 14.2-14.2 14.2-7.7 0-14.1-6.4-14.1-14.2 0-7.8 6.4-14.1 14.1-14.1 7.8 0 14.2 6.3 14.2 14.1z"/>
				<g id="&lt;Group&gt;">
					<path id="&lt;Path&gt;" class="s3" d="m868.2 765.7l-235.3-8.4 4.5-33.6h225.2z"/>
				</g>
				<path id="&lt;Path&gt;" class="s8" d="m1136.8 598h-773.6v-416.2h773.6z"/>
				<g id="&lt;Group&gt;">
					<path id="&lt;Path&gt;" class="s8" d="m1136.8 598h-773.6v-416.2h773.6z"/>
					<g id="&lt;Group&gt;">
						<path id="&lt;Path&gt;" class="s2" d="m1123.1 254.5h-759.9v-53.8h759.9z"/>
						<g id="&lt;Group&gt;">
							<g id="&lt;Group&gt;">
								<path id="&lt;Path&gt;" class="s8" d="m407.1 221.6h-18.3v-3h18.3z"/>
								<path id="&lt;Path&gt;" class="s8" d="m407.1 234.8h-18.3v-2.9h18.3z"/>
								<path id="&lt;Path&gt;" class="s8" d="m407.1 228.3h-18.3v-3h18.3z"/>
							</g>
							<g id="&lt;Group&gt;">
								<g id="&lt;Group&gt;">
									<path id="&lt;Path&gt;" class="s8" d="m1003.2 234.7h-416.6v-15.9h416.6z"/>
									<path id="&lt;Compound Path&gt;" class="s8" d="m1003.4 234.8h-416.9v-16.2h416.9z"/>
								</g>
								<path id="&lt;Path&gt;" class="s9" d="m1003.4 234.8h-16.2v-16.2h16.2z"/>
								<g id="&lt;Group&gt;">
									<g id="&lt;Group&gt;">
										<path id="&lt;Path&gt;" class="s8" d="m1000.3 231.2l-1.4 1.1-2.7-3.6-1-1.3q0.3-0.1 0.5-0.3 0.5-0.4 0.8-1l1 1.4z"/>
										<path id="&lt;Compound Path&gt;" fill-rule="evenodd" class="s8" d="m997.5 227.5q-0.3 0.5-0.8 0.8-0.3 0.2-0.5 0.4c-1.7 0.9-3.9 0.5-5.1-1.1-1.3-1.7-1-4.3 0.7-5.6 1.8-1.3 4.3-1 5.6 0.7 1.1 1.5 1.1 3.4 0.1 4.8zm-1-1.4c0.3-0.8 0.2-1.7-0.3-2.4-0.8-1-2.3-1.2-3.4-0.4-1 0.8-1.2 2.3-0.4 3.3 0.6 0.9 1.8 1.2 2.8 0.8q0.3-0.1 0.5-0.3 0.5-0.4 0.8-1z"/>
									</g>
								</g>
								<path id="&lt;Path&gt;" class="s10" d="m590.8 231.5h-0.9v-9.6h0.9z"/>
							</g>
							<g id="&lt;Group&gt;">
								<g id="&lt;Group&gt;">
									<path id="&lt;Path&gt;" class="s9" d="m1095.2 235.3q-1.1 0.7-2.6 1.1c-2.4 0.6-4.9 0.1-6.8-1.1-2-1.2-3.5-3.2-4-5.5-1.2-4.9 1.7-9.8 6.6-10.9 4.8-1.2 9.7 1.7 10.8 6.6 1 3.9-0.7 7.8-4 9.8z"/>
									<g id="&lt;Group&gt;">
										<path id="&lt;Path&gt;" class="s8" d="m1093.2 226.6c0 1.5-1.2 2.7-2.7 2.7-1.5 0-2.7-1.2-2.7-2.7 0-1.5 1.2-2.8 2.7-2.8 1.5 0 2.7 1.3 2.7 2.8z"/>
										<path id="&lt;Path&gt;" class="s8" d="m1095.2 234.1v1.2q-1.1 0.7-2.6 1.1c-2.4 0.6-4.9 0.1-6.8-1.1v-1.2c0-2.6 2.1-4.7 4.7-4.7 2.6 0 4.7 2.1 4.7 4.7z"/>
									</g>
								</g>
							</g>
							<path id="&lt;Compound Path&gt;" fill-rule="evenodd" class="s9" d="m1064 236.6h-6.2v-2.2q0-0.2-0.2-0.3-0.4-0.2-0.7-0.4-0.2-0.1-0.3 0l-2 1.1-3.1-5.4 1.9-1.1q0.2-0.1 0.2-0.3 0-0.2 0-0.4 0-0.2 0-0.4 0-0.2-0.2-0.3l-1.9-1.2 3.1-5.4 2 1.1q0.1 0.1 0.3 0 0.3-0.2 0.7-0.4 0.2-0.1 0.2-0.3v-2.2h6.2v2.2q0 0.2 0.2 0.3 0.4 0.2 0.7 0.4 0.2 0.1 0.4 0l1.9-1.1 3.1 5.4-1.9 1.2q-0.2 0.1-0.2 0.3 0 0.2 0 0.4 0 0.2 0 0.3 0 0.3 0.2 0.4l1.9 1.1-3.1 5.4-1.9-1.1q-0.2-0.1-0.4 0-0.3 0.2-0.7 0.4-0.1 0.1-0.2 0.3zm-4.7-1.6h3.2v-0.6c0-0.7 0.4-1.4 1-1.7q0.3-0.1 0.6-0.3c0.6-0.4 1.3-0.4 1.9-0.1l0.6 0.4 1.6-2.8-0.6-0.3c-0.6-0.4-1-1-0.9-1.7v-0.4-0.3c-0.1-0.7 0.3-1.4 0.9-1.7l0.6-0.3-1.6-2.8-0.5 0.4c-0.7 0.3-1.4 0.3-2-0.1q-0.3-0.2-0.6-0.3c-0.6-0.3-1-1-1-1.7v-0.6h-3.2v0.6c0 0.7-0.4 1.4-1 1.7q-0.3 0.1-0.5 0.3c-0.6 0.4-1.4 0.4-2 0.1l-0.6-0.4-1.6 2.8 0.6 0.3c0.6 0.3 1 1 0.9 1.7v0.3 0.4c0.1 0.7-0.3 1.4-0.9 1.7l-0.6 0.3 1.6 2.8 0.6-0.4c0.6-0.3 1.4-0.3 2 0.1q0.2 0.2 0.5 0.3c0.6 0.3 1 1 1 1.7zm1.6-2.9c-2.5 0-4.6-2.1-4.6-4.6 0-2.6 2.1-4.6 4.6-4.6 2.6 0 4.6 2 4.6 4.6 0 2.5-2 4.6-4.6 4.6zm0-7.7c-1.7 0-3.1 1.4-3.1 3.1 0 1.7 1.4 3.1 3.1 3.1 1.7 0 3.1-1.4 3.1-3.1 0-1.7-1.4-3.1-3.1-3.1z"/>
							<path id="&lt;Path&gt;" class="s9" d="m548.9 231.4h-126.2v-6.1h126.2z"/>
						</g>
					</g>
					<g id="&lt;Group&gt;">
						<path id="&lt;Path&gt;" class="s9" d="m1136.8 200.7h-773.6v-18.9h773.6z"/>
						<g id="&lt;Group&gt;">
							<path id="&lt;Path&gt;" class="s10" d="m378.2 191.2c0 2.6-2.1 4.7-4.7 4.7-2.6 0-4.7-2.1-4.7-4.7 0-2.5 2.1-4.6 4.7-4.6 2.6 0 4.7 2.1 4.7 4.6z"/>
							<path id="&lt;Path&gt;" class="s8" d="m397.3 191.2c0 2.6-2.1 4.7-4.7 4.7-2.6 0-4.7-2.1-4.7-4.7 0-2.5 2.1-4.6 4.7-4.6 2.6 0 4.7 2.1 4.7 4.6z"/>
							<path id="&lt;Path&gt;" class="s2" d="m416.3 191.2c0 2.6-2.1 4.7-4.6 4.7-2.6 0-4.7-2.1-4.7-4.7 0-2.5 2.1-4.6 4.7-4.6 2.5 0 4.6 2.1 4.6 4.6z"/>
						</g>
					</g>
					<g id="&lt;Group&gt;">
						<path id="&lt;Path&gt;" class="s3" d="m1136.8 598h-13.7v-397.3h13.7z"/>
						<path id="&lt;Path&gt;" class="s1" d="m1129.9 363.8c-1.9 0-3.5-1.6-3.5-3.6v-153.2c0-2 1.6-3.6 3.5-3.6 2 0 3.6 1.6 3.6 3.6v153.2c0 2-1.6 3.6-3.6 3.6z"/>
					</g>
					<g id="&lt;Group&gt;">
						<g id="&lt;Group&gt;">
							<path id="&lt;Path&gt;" class="s2" d="m693.4 548.3h124.5v-95.5h-124.5z"/>
							<path id="&lt;Path&gt;" class="s11" d="m705.8 473.7c-1.5 7.9 5.3 14.8 13.3 13.3 4.4-0.9 8-4.5 8.9-8.9 1.5-8-5.4-14.8-13.3-13.3-4.5 0.8-8.1 4.4-8.9 8.9z"/>
							<g id="&lt;Group&gt;">
								<path id="&lt;Path&gt;" class="s2" d="m734.5 527.7h83.4l-41.7-51.4z"/>
								<path id="&lt;Path&gt;" class="s12" d="m734.5 527.7h83.4l-41.7-51.4z"/>
							</g>
							<g id="&lt;Group&gt;">
								<path id="&lt;Path&gt;" class="s2" d="m693.4 527.8h74l-37-33.5z"/>
								<path id="&lt;Path&gt;" class="s6" d="m693.4 527.8h74l-37-33.5z"/>
							</g>
							<g id="&lt;Group&gt;">
								<path id="&lt;Path&gt;" class="s2" d="m817.9 548.3h-124.5v-20.6h124.5z"/>
								<path id="&lt;Path&gt;" class="s6" d="m817.9 548.3h-124.5v-20.6h124.5z"/>
							</g>
						</g>
						<g id="&lt;Group&gt;">
							<path id="&lt;Path&gt;" class="s1" d="m491.9 460.7h-93.5v-7.9h93.5z"/>
							<path id="&lt;Path&gt;" class="s0" d="m669 478.9h-270.6v-7.9h270.6z"/>
							<path id="&lt;Path&gt;" class="s0" d="m669 496.2h-270.6v-7.8h270.6z"/>
							<path id="&lt;Path&gt;" class="s0" d="m669 513.5h-270.6v-7.8h270.6z"/>
							<path id="&lt;Path&gt;" class="s0" d="m669 530.8h-270.6v-7.8h270.6z"/>
							<path id="&lt;Path&gt;" class="s0" d="m669 548.2h-270.6v-7.9h270.6z"/>
						</g>
						<g id="&lt;Group&gt;">
							<path id="&lt;Path&gt;" class="s1" d="m817.9 317.4h-192.1v-21.1h192.1z"/>
							<path id="&lt;Path&gt;" class="s0" d="m817.9 339.8h-192.1v-7.9h192.1z"/>
							<path id="&lt;Path&gt;" class="s0" d="m817.9 357.1h-192.1v-7.9h192.1z"/>
							<path id="&lt;Path&gt;" class="s0" d="m817.9 374.4h-192.1v-7.9h192.1z"/>
							<path id="&lt;Path&gt;" class="s0" d="m817.9 391.7h-192.1v-7.9h192.1z"/>
							<path id="&lt;Path&gt;" class="s0" d="m817.9 414.7h-192.1v-7.8h192.1z"/>
							<path id="&lt;Path&gt;" class="s0" d="m817.9 432h-192.1v-7.8h192.1z"/>
						</g>
						<g id="&lt;Group&gt;">
							<path id="&lt;Path&gt;" class="s13" d="m602.2 431.3h-203.8v-135h203.8z"/>
							<g id="&lt;Group&gt;">
								<path id="&lt;Path&gt;" class="s2" d="m518.7 363.8c0 10.2-8.2 18.4-18.4 18.4-10.2 0-18.4-8.2-18.4-18.4 0-10.1 8.2-18.4 18.4-18.4 10.2 0 18.4 8.3 18.4 18.4z"/>
								<g id="&lt;Group&gt;">
									<path id="&lt;Path&gt;" class="s8" d="m502 374.7h-3.4v-21.8h3.4z"/>
									<path id="&lt;Path&gt;" class="s8" d="m489.4 365.6v-3.5h21.8v3.5z"/>
								</g>
							</g>
						</g>
						<g id="&lt;Group&gt;">
							<path id="&lt;Path&gt;" class="s13" d="m1094.8 548.3h-251.8v-115.2h251.8z"/>
							<g id="&lt;Group&gt;">
								<path id="&lt;Path&gt;" class="s2" d="m987.3 490.7c0 10.2-8.3 18.4-18.4 18.4-10.2 0-18.4-8.2-18.4-18.4 0-10.2 8.2-18.4 18.4-18.4 10.1 0 18.4 8.2 18.4 18.4z"/>
								<g id="&lt;Group&gt;">
									<path id="&lt;Path&gt;" class="s8" d="m970.6 501.6h-3.5v-21.8h3.5z"/>
									<path id="&lt;Path&gt;" class="s8" d="m957.9 492.4v-3.5h21.9v3.5z"/>
								</g>
							</g>
						</g>
						<g id="&lt;Group&gt;">
							<g id="&lt;Group&gt;">
								<g id="&lt;Group&gt;">
									<path id="&lt;Path&gt;" class="s14" d="m912.2 363.7v2h-2"/>
									<path id="&lt;Path&gt;" class="s15" d="m906.3 365.7h-59.4"/>
									<path id="&lt;Path&gt;" class="s14" d="m845 365.7h-2v-2"/>
									<path id="&lt;Path&gt;" class="s15" d="m843 359.9v-59.4"/>
									<path id="&lt;Path&gt;" class="s14" d="m843 298.5v-2h2"/>
									<path id="&lt;Path&gt;" class="s15" d="m848.8 296.5h59.4"/>
									<path id="&lt;Path&gt;" class="s14" d="m910.2 296.5h2v2"/>
									<path id="&lt;Path&gt;" class="s15" d="m912.2 302.4v59.4"/>
								</g>
							</g>
							<g id="&lt;Group&gt;">
								<path id="&lt;Path&gt;" class="s3" d="m843 296.5c5.9 5.6 11.7 11.3 17.4 17l17.3 17.2 17.3 17.4 8.6 8.8 8.5 8.8-8.7-8.4-8.7-8.6-17.3-17.2-17.2-17.4c-5.8-5.8-11.5-11.6-17.2-17.6z"/>
								<path id="&lt;Path&gt;" class="s3" d="m912.1 296.5c-5.7 6-11.4 11.8-17.1 17.6l-17.3 17.4-17.3 17.2-8.6 8.6-8.8 8.4 8.6-8.8 8.6-8.8 17.2-17.4 17.3-17.2c5.8-5.7 11.6-11.4 17.4-17z"/>
							</g>
						</g>
						<g id="&lt;Group&gt;">
							<g id="&lt;Group&gt;">
								<path id="&lt;Path&gt;" class="s2" d="m982.7 331.3c0 7.6-6.2 13.8-13.8 13.8-7.6 0-13.8-6.2-13.8-13.8 0-7.6 6.2-13.8 13.8-13.8 7.6 0 13.8 6.2 13.8 13.8z"/>
								<g id="&lt;Group&gt;">
									<path id="&lt;Path&gt;" class="s8" d="m970.2 339.5h-2.6v-16.4h2.6z"/>
									<path id="&lt;Path&gt;" class="s8" d="m960.7 332.6v-2.6h16.4v2.6z"/>
								</g>
							</g>
							<g id="&lt;Group&gt;">
								<g id="&lt;Group&gt;">
									<path id="&lt;Path&gt;" class="s16" d="m1003.5 363.9v2h-2"/>
									<path id="&lt;Path&gt;" class="s17" d="m997.6 365.9h-59.4"/>
									<path id="&lt;Path&gt;" class="s16" d="m936.3 365.9h-2v-2"/>
									<path id="&lt;Path&gt;" class="s17" d="m934.3 360.1v-59.5"/>
									<path id="&lt;Path&gt;" class="s16" d="m934.3 298.7v-2h2"/>
									<path id="&lt;Path&gt;" class="s17" d="m940.1 296.7h59.5"/>
									<path id="&lt;Path&gt;" class="s16" d="m1001.5 296.7h2v2"/>
									<path id="&lt;Path&gt;" class="s17" d="m1003.5 302.5v59.5"/>
								</g>
							</g>
						</g>
						<g id="&lt;Group&gt;">
							<g id="&lt;Group&gt;">
								<path id="&lt;Path&gt;" class="s3" d="m1025.7 296.7c5.8 5.6 11.6 11.3 17.4 17l17.3 17.2 17.2 17.4 8.6 8.8 8.6 8.8-8.7-8.5-8.7-8.5-17.3-17.2-17.3-17.4c-5.7-5.8-11.4-11.7-17.1-17.6z"/>
								<path id="&lt;Path&gt;" class="s3" d="m1094.8 296.7c-5.7 5.9-11.4 11.8-17.2 17.6l-17.2 17.4-17.3 17.2-8.7 8.5-8.7 8.5 8.6-8.8 8.5-8.8 17.3-17.4 17.3-17.2c5.8-5.7 11.5-11.4 17.4-17z"/>
							</g>
							<g id="&lt;Group&gt;">
								<g id="&lt;Group&gt;">
									<path id="&lt;Path&gt;" class="s14" d="m1094.8 363.7v2h-2"/>
									<path id="&lt;Path&gt;" class="s15" d="m1089 365.7h-59.4"/>
									<path id="&lt;Path&gt;" class="s14" d="m1027.6 365.7h-2v-2"/>
									<path id="&lt;Path&gt;" class="s15" d="m1025.6 359.9v-59.4"/>
									<path id="&lt;Path&gt;" class="s14" d="m1025.6 298.5v-2h2"/>
									<path id="&lt;Path&gt;" class="s15" d="m1031.5 296.5h59.4"/>
									<path id="&lt;Path&gt;" class="s14" d="m1092.8 296.5h2v2"/>
									<path id="&lt;Path&gt;" class="s15" d="m1094.8 302.4v59.4"/>
								</g>
							</g>
						</g>
						<path id="&lt;Path&gt;" class="s2" d="m1095.2 414.7h-252.2v-30.9h252.2z"/>
					</g>
				</g>
			</g>
		</g>
	</g>
	<g id="Gears">
		<g id="&lt;Group&gt;">
			<g id="&lt;Group&gt;">
				<g id="&lt;Group&gt;">
					<g id="&lt;Group&gt;">
						<g id="&lt;Group&gt;">
							<path id="&lt;Compound Path&gt;" fill-rule="evenodd" class="s2" d="m1301.9 245.9c-7.9 25.1-34.6 39-59.7 31.1-25.1-7.9-39.1-34.6-31.2-59.7 8-25.1 34.7-39.1 59.8-31.2 25.1 7.9 39.1 34.7 31.1 59.8zm-37.5-39.2c-13.8-4.4-28.5 3.3-32.8 17-4.4 13.8 3.3 28.5 17 32.8 13.8 4.3 28.5-3.3 32.8-17.1 4.3-13.7-3.3-28.4-17-32.7z"/>
							<g id="&lt;Group&gt;">
								<path id="&lt;Path&gt;" class="s2" d="m1251.5 277.9l-17.5-5.5-2.9 12.7 15.5 4.9z"/>
								<path id="&lt;Path&gt;" class="s2" d="m1220.1 261.5l-8.5-16.2-11 6.9 7.5 14.4z"/>
								<path id="&lt;Path&gt;" class="s2" d="m1209.5 227.8l5.5-17.5-12.7-3-4.9 15.6z"/>
								<path id="&lt;Path&gt;" class="s2" d="m1225.8 196.3l16.3-8.4-6.9-11.1-14.5 7.6z"/>
								<path id="&lt;Path&gt;" class="s2" d="m1259.6 185.7l17.5 5.5 2.9-12.7-15.5-4.9z"/>
								<path id="&lt;Path&gt;" class="s2" d="m1291 202.1l8.5 16.2 11-6.9-7.5-14.4z"/>
								<path id="&lt;Path&gt;" class="s2" d="m1301.7 235.9l-5.6 17.4 12.7 3 4.9-15.6z"/>
								<path id="&lt;Path&gt;" class="s2" d="m1285.3 267.3l-16.3 8.4 6.9 11.1 14.5-7.6z"/>
							</g>
						</g>
					</g>
				</g>
			</g>
			<g id="&lt;Group&gt;">
				<g id="&lt;Group&gt;">
					<g id="&lt;Group&gt;">
						<g id="&lt;Group&gt;">
							<path id="&lt;Compound Path&gt;" fill-rule="evenodd" class="s2" d="m1082.8 145.8c-5.1 16.1-22.2 25.1-38.3 20-16.1-5.1-25.1-22.2-20-38.3 5.1-16.1 22.2-25 38.3-20 16.1 5.1 25.1 22.3 20 38.3zm-24.1-25.1c-8.8-2.8-18.2 2.1-21 10.9-2.8 8.9 2.1 18.3 10.9 21 8.8 2.8 18.2-2.1 21-10.9 2.8-8.8-2.1-18.2-10.9-21z"/>
							<g id="&lt;Group&gt;">
								<path id="&lt;Path&gt;" class="s2" d="m1050.4 166.4l-11.2-3.6-1.8 8.2 9.9 3.1z"/>
								<path id="&lt;Path&gt;" class="s2" d="m1030.3 155.9l-5.4-10.4-7.1 4.4 4.8 9.2z"/>
								<path id="&lt;Path&gt;" class="s2" d="m1023.5 134.2l3.5-11.2-8.1-1.9-3.1 10z"/>
								<path id="&lt;Path&gt;" class="s2" d="m1034 114.1l10.4-5.5-4.4-7-9.3 4.8z"/>
								<path id="&lt;Path&gt;" class="s2" d="m1055.6 107.3l11.3 3.5 1.8-8.1-9.9-3.2z"/>
								<path id="&lt;Path&gt;" class="s2" d="m1075.8 117.8l5.4 10.4 7.1-4.4-4.8-9.3z"/>
								<path id="&lt;Path&gt;" class="s2" d="m1082.6 139.4l-3.5 11.2 8.1 1.9 3.1-10z"/>
								<path id="&lt;Path&gt;" class="s2" d="m1072.1 159.5l-10.4 5.5 4.4 7 9.3-4.8z"/>
							</g>
						</g>
					</g>
				</g>
				<g id="&lt;Group&gt;" style="opacity: .6">
					<g id="&lt;Group&gt;">
						<g id="&lt;Group&gt;">
							<path id="&lt;Compound Path&gt;" fill-rule="evenodd" class="s8" d="m1082.8 145.8c-5.1 16.1-22.2 25.1-38.3 20-16.1-5.1-25.1-22.2-20-38.3 5.1-16.1 22.2-25 38.3-20 16.1 5.1 25.1 22.3 20 38.3zm-24.1-25.1c-8.8-2.8-18.2 2.1-21 10.9-2.8 8.9 2.1 18.3 10.9 21 8.8 2.8 18.2-2.1 21-10.9 2.8-8.8-2.1-18.2-10.9-21z"/>
							<g id="&lt;Group&gt;">
								<path id="&lt;Path&gt;" class="s8" d="m1050.4 166.4l-11.2-3.6-1.8 8.2 9.9 3.1z"/>
								<path id="&lt;Path&gt;" class="s8" d="m1030.3 155.9l-5.4-10.4-7.1 4.4 4.8 9.2z"/>
								<path id="&lt;Path&gt;" class="s8" d="m1023.5 134.2l3.5-11.2-8.1-1.9-3.1 10z"/>
								<path id="&lt;Path&gt;" class="s8" d="m1034 114.1l10.4-5.5-4.4-7-9.3 4.8z"/>
								<path id="&lt;Path&gt;" class="s8" d="m1055.6 107.3l11.3 3.5 1.8-8.1-9.9-3.2z"/>
								<path id="&lt;Path&gt;" class="s8" d="m1075.8 117.8l5.4 10.4 7.1-4.4-4.8-9.3z"/>
								<path id="&lt;Path&gt;" class="s8" d="m1082.6 139.4l-3.5 11.2 8.1 1.9 3.1-10z"/>
								<path id="&lt;Path&gt;" class="s8" d="m1072.1 159.5l-10.4 5.5 4.4 7 9.3-4.8z"/>
							</g>
						</g>
					</g>
				</g>
			</g>
			<g id="&lt;Group&gt;">
				<g id="&lt;Group&gt;">
					<path id="&lt;Compound Path&gt;" fill-rule="evenodd" class="s4" d="m1153.3 197.9c-32.1-7.8-51.7-40.1-43.9-72.2 7.8-32 40.1-51.6 72.1-43.8 32.1 7.8 51.7 40.1 43.9 72.1-7.8 32-40.1 51.7-72.1 43.9zm20.7-85.1c-15-3.6-30 5.5-33.7 20.5-3.6 14.9 5.5 30 20.5 33.7 15 3.6 30-5.6 33.7-20.5 3.6-15-5.5-30.1-20.5-33.7z"/>
					<path id="&lt;Path&gt;" class="s4" d="m1165 198.2l-22.3-5.4-2.6 16 19.8 4.9z"/>
					<path id="&lt;Path&gt;" class="s4" d="m1124.4 180.3l-11.9-19.6-13.3 9.5 10.6 17.5z"/>
					<path id="&lt;Path&gt;" class="s4" d="m1108.3 139l5.4-22.3-16.1-2.6-4.8 19.8z"/>
					<path id="&lt;Path&gt;" class="s4" d="m1126.2 98.4l19.6-12-9.6-13.2-17.4 10.6z"/>
					<path id="&lt;Path&gt;" class="s4" d="m1167.5 82.3l22.3 5.4 2.6-16.1-19.8-4.8z"/>
					<path id="&lt;Path&gt;" class="s4" d="m1208.1 100.1l11.9 19.6 13.3-9.5-10.6-17.4z"/>
					<path id="&lt;Path&gt;" class="s4" d="m1224.2 141.5l-5.4 22.3 16.1 2.6 4.8-19.8z"/>
					<path id="&lt;Path&gt;" class="s4" d="m1206.4 182.1l-19.7 11.9 9.6 13.2 17.4-10.6z"/>
				</g>
				<path id="&lt;Compound Path&gt;" fill-rule="evenodd" class="s4" d="m1148.3 130.4l17.5-10.6 17.9 9.8 0.5 20.4-17.5 10.6-17.9-9.8zm11.6 8.3c-0.8 3.5 1.3 7 4.8 7.8 3.5 0.9 7-1.3 7.8-4.7 0.9-3.5-1.3-7-4.7-7.9-3.5-0.8-7 1.3-7.9 4.8z"/>
			</g>
		</g>
	</g>
	<g id="Character 2">
		<g id="&lt;Group&gt;">
			<g id="&lt;Group&gt;">
				<path id="&lt;Path&gt;" class="s4" d="m1121 403.4c1 0.2 5.4 1 11.8 2.2 3-3.7 6.8-10.6 7.3-21.1 0.1-1.7 2.5 8.7-1.3 22.2 12.4 2.4 29.4 5.5 44.2 8.1 1.2-5.7 2.6-11 2.6-11-0.2 4.3 0.1 8.2 0.6 11.6 2 0.4 4 0.7 5.9 1.1 1-9.1 5.1-24.5 5.1-24.5-0.4 11.1 1.6 20.4 3.3 25.9 9.4 1.6 15.7 2.4 15.3 1.9-11.6-18.6 0.4-26.4-1.3-41.4-2.1-18-16.5-23.2-14-36.1 2.1-10.5 6.5-29.4-6.2-35.6 0 0-8.9-13.6-26.9-9.8-22.4 4.6-19.3 38.4-21.8 44.8-3.6 9.1-8.6 11.7-13.7 21.9-5.2 10.4-1.4 18.4-2.1 25.9-0.6 7.5-11.1 13.5-8.8 13.9z"/>
				<path id="&lt;Path&gt;" class="s4" d="m1216.6 417.5c-1.4-3.2-2.6-6.5-3.1-9.9-0.5-3.4 0.5-6.6 1.7-9.9 1.2-3.3 2.5-6.6 3.4-10.1 0.9-3.6 1.3-7.3 0.7-11.1-0.5-3.7-2-7.2-4.1-10.2-2.1-3.1-4.6-5.7-7-8.2-2.4-2.6-4.7-5.1-6.4-8.2-1.6-3-2.3-6.5-2.2-10-0.7 3.5-0.4 7.2 1.1 10.6 1.4 3.4 3.7 6.3 5.9 9 2.3 2.7 4.6 5.3 6.4 8.2 1.8 2.8 3.1 6 3.6 9.2 0.4 3.3 0.2 6.7-0.6 10-0.8 3.4-2 6.6-3 10.1-0.5 1.7-0.9 3.4-1.2 5.3-0.2 1.8-0.1 3.8 0.3 5.5 0.9 3.6 2.5 6.8 4.5 9.7z"/>
				<path id="&lt;Path&gt;" class="s4" d="m1153.5 307c-2.3 3.7-3.6 8-4.9 12.1-1.2 4.2-2.2 8.4-3.2 12.7l-1.5 6.3c-0.5 2.1-1.1 4-2 5.9-1.6 3.8-4.4 6.9-7.5 10-1.5 1.5-3 3.2-4.3 5-1.3 1.9-2.5 3.9-3.4 5.9-0.8 2.2-1.5 4.3-2 6.5-0.5 2.2-0.7 4.4-0.7 6.7 0 2.2 0.3 4.4 0.5 6.5 0.2 2.2 0.2 4.3 0 6.4-0.4 4.1-3.2 7.9-6.9 10 4-1.6 7.4-5.3 8.2-9.8 0.4-2.2 0.6-4.4 0.5-6.6 0-2.3-0.2-4.4-0.1-6.5 0.2-4.1 1.4-8.3 3-12.1 0.8-1.9 1.9-3.7 3.1-5.3 1.2-1.7 2.7-3.2 4.2-4.8 1.5-1.5 3-3.2 4.4-4.9 1.4-1.8 2.6-3.8 3.5-5.9 0.9-2.1 1.5-4.3 1.9-6.5 0.5-2.1 0.9-4.3 1.3-6.4 0.7-4.3 1.5-8.5 2.4-12.7 0.8-4.3 1.8-8.5 3.5-12.5z"/>
			</g>
			<g id="&lt;Group&gt;">
				<g id="&lt;Group&gt;">
					<g id="&lt;Group&gt;">
						<path id="&lt;Path&gt;" class="s18" d="m1083.9 905c4 1.3 116.2-0.2 120.5-3 1.6-1 2.3-17.3 2.7-37.2q0-0.3 0-0.6c0-4.1 0.1-8.3 0.1-12.5q0-0.9 0-1.8c0.2-28.6-0.3-58.2-0.3-58.2l-75.1 0.7 2.3 57.7 0.1 2.3 0.4 12 0.1 1.2c0 0-42.7 19.8-47.1 23.3-4.3 3.5-7.6 14.9-3.7 16.1z"/>
						<path id="&lt;Path&gt;" class="s2" d="m1117.7 873.3q0.4-0.2 0.4-0.3 0 0-0.4 0.3z"/>
						<path id="&lt;Path&gt;" class="s4" d="m1083.9 905c4 1.3 116.2-0.2 120.5-3 1.4-0.9 2.2-13.9 2.5-30.7-20.5 4.3-100.2 20.4-102.4 13.6-0.9-2.7 5.9-7.3 10.2-9.9-11.7 5.6-24.8 12-27.1 13.9-4.3 3.5-7.6 14.8-3.7 16.1z"/>
					</g>
					<g id="&lt;Group&gt;">
						<path id="&lt;Path&gt;" class="s4" d="m1230 468.3c0 0-16.9 189.7-19.6 204.2-0.7 3.3-1.1 21.2-1.3 44.3-0.6 50.2-0.3 140.9-0.3 140.9h-79.1c0 0 2.4-157.1 5.9-186 3.5-29 25.9-203.4 25.9-203.4z"/>
						<g id="&lt;Group&gt;">
							<path id="&lt;Path&gt;" class="s7" d="m1133.3 843.9c12.3-0.2 8.8-0.3 21.1-0.4 6.1-0.1 45.8-0.4 51.4 0.5 0.2 0 0.2 0.2 0 0.2-5.6 1-45.3 0.6-51.4 0.6-12.3-0.1-8.8-0.2-21.1-0.5-0.2 0-0.2-0.4 0-0.4z"/>
							<path id="&lt;Path&gt;" class="s7" d="m1193.8 754.1q0.1-17.2 0.3-34.4c0-11.1 0-22.3 0.6-33.4 1-22.5 5.6-44.6 8.8-66.8 3.3-22.2 6-44.6 8.4-66.9 2.8-25.1 5.2-50.2 7.8-75.3 0-0.2 0.3-0.2 0.3 0-3.8 44.8-7.9 89.6-14.1 134.1q-2.3 16.6-5.1 33.2c-1.8 11.2-3.7 22.3-4.6 33.6-0.8 11.1-1 22.2-1.1 33.3q-0.1 17.2-0.3 34.4c-0.3 25.4-0.5 64.7-0.8 90.1 0 0.5-0.7 0.5-0.7 0 0.2-22.7 0.3-59.2 0.5-81.9z"/>
						</g>
					</g>
					<path id="&lt;Path&gt;" class="s7" d="m1246.7 468.3c0 0-33.6 189.7-36.3 204.2-0.7 3.3-1.1 21.2-1.3 44.3l-37.8-248.5z"/>
				</g>
				<g id="&lt;Group&gt;">
					<g id="&lt;Group&gt;">
						<path id="&lt;Path&gt;" class="s18" d="m1271.1 911.4c4.1-0.7 103.6-52.7 106.1-57 1-1.7-5.8-16.6-14.4-34.5q-0.2-0.2-0.3-0.5c-1.8-3.7-37.3-63.6-37.3-63.6l-61.2 35.9 33.9 60.5 0.6 1.1c0 0-29.1 36.9-31.4 42.1-2.3 5-0.1 16.6 4 16z"/>
						<path id="&lt;Path&gt;" class="s4" d="m1271.1 911.4c4.1-0.7 103.6-52.7 106.1-57.1 0.8-1.4-4-12.5-10.8-26.8-14.2 10.8-83.1 62.5-88.1 57.2-1.1-1.2-0.3-3.9 1.1-6.7-6 7.9-11.4 15.3-12.3 17.4-2.3 5-0.1 16.6 4 16z"/>
					</g>
					<g id="&lt;Group&gt;">
						<path id="&lt;Path&gt;" class="s4" d="m1289.1 850l72.6-44.8c0 0-83.9-120-84.3-130.7-0.6-15.9-8.2-81.3-14.6-134.3 0 0 12.1-28.6-10.6-72h-90.8c0 0 6.1 41.3 16.5 67.4 0 0 7.9 2.5 20.2 9.2 0 0 9 118.1 9.4 132.9 0.6 29.1 81.6 172.3 81.6 172.3z"/>
						<g id="&lt;Group&gt;">
							<path id="&lt;Path&gt;" class="s7" d="m1284.7 833.3c10.5-6.6 7.4-4.9 17.9-11.3 5.2-3.2 39.1-23.8 44.4-25.9 0.1-0.1 0.2 0.1 0.1 0.2-4.3 3.7-38.6 23.8-43.8 26.8-10.7 6.3-7.7 4.4-18.4 10.5-0.2 0.1-0.4-0.2-0.2-0.3z"/>
							<g id="&lt;Group&gt;">
								<path id="&lt;Path&gt;" class="s7" d="m1174.5 533.8c8.1 2.8 16 6.8 23.6 11 0.3 0.2 0.1 0.7-0.2 0.5-8-3.4-16.1-6.7-23.9-10.5-0.6-0.3-0.2-1.2 0.5-1z"/>
								<path id="&lt;Path&gt;" class="s7" d="m1185.6 520.7c-0.8-4.8-1.4-9.5-1.8-14.3-0.8-9-0.8-17.9 0.2-26.9 0.1-0.3 0.5-0.2 0.5 0.1 0 12.3 0.3 24.7 2.2 37 0.9 5.9 3.8 14.8-2.3 15.7-6.3 0.9-10.4-14-11.2-18-2.1-11.4-2.2-23.7-1.3-35.1 0-0.3 0.5-0.4 0.5-0.1 0 9.5 0.6 17.8 1.4 26.6 0.3 4.1 3.6 26.8 10.7 25.2 1.2-0.3 1.8-1.5 2-3.3 0.3-2.1-0.6-4.8-0.9-6.9z"/>
								<path id="&lt;Path&gt;" class="s7" d="m1184.4 531.5c0.6 1.5 1.1 3.1 1.6 4.7 0.3 1.2 0.8 2.5 0.6 3.8 0 0.3-0.3 0.3-0.5 0.1-0.8-1-1.2-2.5-1.6-3.7-0.6-1.5-1.1-2.9-1.6-4.4-0.4-1 1.1-1.5 1.5-0.5z"/>
							</g>
							<path id="&lt;Path&gt;" class="s7" d="m1241.6 474c2.9 4.6 5.2 9.7 7.1 14.8 2 5.2 3.4 10.5 4.4 15.9 0.6 2.7 0.8 5.5 1.2 8.2 0.1 2.8 0.4 5.5 0.3 8.3 0.1 5.5-0.8 11-1.7 16.5v-0.2c2.4 22.9 4.7 45.7 7 68.6q3.5 34.3 6.8 68.6l0.2 2.2 0.1 1.1c0.1 0.3 0.1 0.7 0.2 0.9 0.4 1 1.2 2.4 1.9 3.6 1.4 2.5 2.9 4.9 4.4 7.4l9.1 14.6 18.4 29.2 37 58.3c-12.8-19.1-25.6-38.3-38.1-57.6-6.3-9.6-12.6-19.2-18.8-28.9l-9.1-14.7c-1.5-2.4-3-4.9-4.5-7.4-0.7-1.3-1.4-2.4-2.1-4-0.2-0.5-0.2-0.8-0.2-1.2l-0.1-1-0.2-2.2q-3.5-34.3-6.8-68.7-3.4-34.3-6.5-68.7v-0.1-0.1c1-5.3 1.9-10.7 1.9-16.2 0.2-2.7-0.1-5.5-0.1-8.2-0.3-2.7-0.5-5.5-1-8.1-0.9-5.4-2.2-10.8-4-16-1.8-5.1-4-10.2-6.8-14.9z"/>
						</g>
					</g>
				</g>
			</g>
			<g id="&lt;Group&gt;">
				<g id="&lt;Group&gt;">
					<g id="&lt;Group&gt;">
						<path id="&lt;Path&gt;" class="s18" d="m1176.7 389.4c-3.1 15-19.1 65.5-34.9 76.9-11.3 8.2-50.2 15.8-80.2 15.4-10.3-0.1-3.6-44.2 6.2-49.6 5.8-3.3 49.6-1 56.3-3.7 5.1-2 16.9-26.9 38-49.4 11.6-12.4 18.9-9.6 14.6 10.4z"/>
						<g id="&lt;Group&gt;">
							<path id="&lt;Path&gt;" class="s18" d="m1064.3 481.7c-6 0-39.5-0.2-46.9-2.6-7.4-2.4-28.2-10.8-26.9-16.7 1.2-5.8 7.5-3.8 7.5-3.8 0 0-8.2-5-6.4-10.8 1.8-5.8 11.5-2.4 11.5-2.4 0 0-8.1-5.7-5.9-11.3 2.3-5.7 11.4-0.6 11.4-0.6 0 0-7.6-4.9-3.8-8.8 4.5-4.6 17.6 6 26 8 1.9 0.5 39.2 6.6 39.2 6.6z"/>
							<g id="&lt;Group&gt;">
								<path id="&lt;Path&gt;" class="s4" d="m1007.8 433.1c9.6 7.7 15.2 9.5 27.3 10.9 0.2 0 0.2 0.4 0 0.4-12-0.3-19.3-1.5-27.7-10.9-0.4-0.4 0-0.8 0.4-0.4z"/>
								<path id="&lt;Path&gt;" class="s4" d="m1002.3 444.8c10.7 7.2 16.7 9.1 29.3 11.5 0.2 0.1 0.1 0.4-0.1 0.3-12.5-1.3-19.7-2.6-29.4-11.2-0.5-0.4-0.2-0.9 0.2-0.6z"/>
								<path id="&lt;Path&gt;" class="s4" d="m998.7 458.7c10.8 6.2 17.3 8.6 29.8 9.3 0.3 0.1 0.3 0.5 0 0.5-12.8 0.4-20.9-2.5-30-9.5-0.6-0.5-0.5-0.7 0.2-0.3z"/>
							</g>
							<g id="&lt;Group&gt;">
								<g id="&lt;Group&gt;">
									<path id="&lt;Path&gt;" class="s18" d="m1079.3 435.8c0 0-12.8-11-19.2-13.7-6.4-2.7-34-4.1-34.7 1.9-0.8 7.7 15 11.6 23 12.5 0 0-1.9 17.8 8.8 23 10.8 5.3 22.1-23.7 22.1-23.7z"/>
								</g>
								<path id="&lt;Path&gt;" class="s4" d="m1025.9 426.2c4.3 7.5 14.9 8 22.6 9.5 0.5 0.1 0.7 0.6 0.5 1-0.3 7.5 1.4 18.2 7.8 23 0.2 0.1 0 0.4-0.2 0.3-7.5-4.2-10.1-14.6-9.2-22.8-7.9-1.3-18.5-2.3-21.6-11 0-0.1 0.1-0.1 0.1 0z"/>
							</g>
						</g>
					</g>
					<g id="&lt;Group&gt;">
						<path id="&lt;Path&gt;" class="s2" d="m1149.2 468.9l-19.3-49.6c0 0 14.8-22.8 30.8-41.7 16-18.8 25.1-18.4 18.4 11.7-6.6 30.1-17.8 65.6-29.9 79.6z"/>
						<path id="&lt;Path&gt;" class="s2" d="m1149.2 468.9l-19.3-49.6c0 0 14.8-22.8 30.8-41.7 16-18.8 25.1-18.4 18.4 11.7-6.6 30.1-17.8 65.6-29.9 79.6z"/>
						<path id="&lt;Compound Path&gt;" fill-rule="evenodd" class="s8" d="m1174.6 365.4c-0.2 1.2-1.3 2-2.6 2q-0.4 0-0.7-0.1 1.8-1.3 3.3-1.9zm-16.8 28.6c0 1.5-1.2 2.7-2.7 2.7-1.5 0-2.7-1.2-2.7-2.7 0-1.5 1.2-2.7 2.7-2.7 1.5 0 2.7 1.2 2.7 2.7zm16.9 0c0 1.5-1.2 2.7-2.7 2.7-1.5 0-2.7-1.2-2.7-2.7 0-1.5 1.2-2.7 2.7-2.7 1.5 0 2.7 1.2 2.7 2.7zm-8.4-14.5c0 1.5-1.2 2.7-2.7 2.7-1.5 0-2.7-1.2-2.7-2.7 0-1.5 1.2-2.7 2.7-2.7 1.5 0 2.7 1.2 2.7 2.7zm14.8-2.6q-0.1 2.4-0.6 5.3c-1.5 0-2.7-1.2-2.7-2.7 0-1.5 1.2-2.7 2.7-2.7q0.3 0 0.6 0.1zm-40.2 46.4c0 1.5-1.2 2.7-2.7 2.7-1.5 0-2.7-1.2-2.7-2.7 0-1.5 1.2-2.7 2.7-2.7 1.5 0 2.7 1.2 2.7 2.7zm16.9 0c0 1.5-1.2 2.7-2.7 2.7-1.5 0-2.7-1.2-2.7-2.7 0-1.5 1.2-2.7 2.7-2.7 1.5 0 2.7 1.2 2.7 2.7zm13.1-2.5q-0.6 2-1.2 3.9-0.4-0.7-0.4-1.4c0-1.1 0.7-2.1 1.6-2.5zm-21.5-12c0 1.5-1.2 2.7-2.7 2.7-1.5 0-2.8-1.2-2.8-2.7 0-1.5 1.3-2.7 2.8-2.7 1.5 0 2.7 1.2 2.7 2.7zm16.9 0c0 1.5-1.2 2.7-2.7 2.7-1.5 0-2.7-1.2-2.7-2.7 0-1.5 1.2-2.7 2.7-2.7 1.5 0 2.7 1.2 2.7 2.7zm-8.5 43.8c0 1.4-1.2 2.7-2.7 2.7-1.5 0-2.7-1.3-2.7-2.7 0-1.5 1.2-2.8 2.7-2.8 1.5 0 2.7 1.3 2.7 2.8zm-8.4-14.5c0 1.5-1.2 2.7-2.7 2.7-1.5 0-2.8-1.2-2.8-2.7 0-1.5 1.3-2.7 2.8-2.7 1.5 0 2.7 1.2 2.7 2.7zm16.3-1.6q-0.8 2.1-1.6 4.2-0.2 0.1-0.5 0.1c-1.5 0-2.7-1.2-2.7-2.7 0-1.5 1.2-2.7 2.7-2.7 0.9 0 1.6 0.4 2.1 1.1zm-16.3 30.9q0 0.6-0.3 1.1l-1.5-3.6c1 0.3 1.8 1.3 1.8 2.5z"/>
						<path id="&lt;Path&gt;" class="s6" d="m1134.1 430.2l15.1 38.7c12.1-14 23.3-49.5 29.9-79.6 3.8-17.3 2.5-24.8-2.4-24.5z"/>
						<path id="&lt;Path&gt;" class="s4" d="m1136.2 417.2c3 6.7 5.8 13.5 8.4 20.4q1.9 5.2 3.7 10.5c1.2 3.5 2.2 7.2 3.3 10.8 0.1 0.2-0.2 0.2-0.3 0.1-2.4-7-5.1-14-7.7-20.9q-3.8-10.4-7.7-20.8c0-0.1 0.2-0.2 0.3-0.1z"/>
					</g>
				</g>
				<g id="&lt;Group&gt;">
					<g id="&lt;Group&gt;">
						<path id="&lt;Path&gt;" class="s2" d="m1156.1 474.4l100.5-1.1c0 0-31.6-86.7-56-106.4-11.1-8.9-20.4-6-27.4 1.7-1.8 2-22.1 36.8-22.7 48.1-0.5 9.9 8.9 19.5 8.9 19.5z"/>
						<path id="&lt;Compound Path&gt;" fill-rule="evenodd" class="s8" d="m1191.7 364.7c0 1.5-1.3 2.7-2.8 2.7-1.4 0-2.7-1.2-2.7-2.7 0-1.5 1.3-2.7 2.7-2.7 1.5 0 2.8 1.2 2.8 2.7zm-17 29.3c0 1.5-1.2 2.7-2.7 2.7-1.5 0-2.7-1.2-2.7-2.7 0-1.5 1.2-2.7 2.7-2.7 1.5 0 2.7 1.2 2.7 2.7zm17 0c0 1.5-1.3 2.7-2.8 2.7-1.4 0-2.7-1.2-2.7-2.7 0-1.5 1.3-2.7 2.7-2.7 1.5 0 2.8 1.2 2.8 2.7zm16.9 0c0 1.5-1.2 2.7-2.7 2.7-1.5 0-2.7-1.2-2.7-2.7 0-1.5 1.2-2.7 2.7-2.7 1.5 0 2.7 1.2 2.7 2.7zm13.8 2.7c-1.3-0.2-2.3-1.3-2.3-2.7q0-0.5 0.2-1 1 1.8 2.1 3.7zm-56.3-16.3q-0.1 0.5-0.5 1 0.3-0.5 0.5-1zm17.1-0.9c0 1.5-1.2 2.7-2.7 2.7-1.5 0-2.7-1.2-2.7-2.7 0-1.5 1.2-2.7 2.7-2.7 1.5 0 2.7 1.2 2.7 2.7zm16.9 0c0 1.5-1.2 2.7-2.7 2.7-1.5 0-2.7-1.2-2.7-2.7 0-1.5 1.2-2.7 2.7-2.7 1.5 0 2.7 1.2 2.7 2.7zm13.4 2.6c-1.1-0.3-1.9-1.3-1.9-2.6q0 0 0-0.1 1 1.3 1.9 2.7zm-55.7 41.2c0 1.5-1.2 2.7-2.7 2.7-1.5 0-2.7-1.2-2.7-2.7 0-1.5 1.2-2.7 2.7-2.7 1.5 0 2.7 1.2 2.7 2.7zm16.9 0c0 1.5-1.2 2.7-2.7 2.7-1.5 0-2.7-1.2-2.7-2.7 0-1.5 1.2-2.7 2.7-2.7 1.5 0 2.7 1.2 2.7 2.7zm17 0c0 1.5-1.3 2.7-2.8 2.7-1.4 0-2.7-1.2-2.7-2.7 0-1.5 1.3-2.7 2.7-2.7 1.5 0 2.8 1.2 2.8 2.7zm16.9 0c0 1.5-1.2 2.7-2.7 2.7-1.5 0-2.7-1.2-2.7-2.7 0-1.5 1.2-2.7 2.7-2.7 1.5 0 2.7 1.2 2.7 2.7zm16.9 0c0 1.5-1.2 2.7-2.7 2.7-1.5 0-2.7-1.2-2.7-2.7 0-1.5 1.2-2.7 2.7-2.7 1.5 0 2.7 1.2 2.7 2.7zm-59.2-14.5c0 1.5-1.2 2.7-2.7 2.7-1.5 0-2.7-1.2-2.7-2.7 0-1.5 1.2-2.7 2.7-2.7 1.5 0 2.7 1.2 2.7 2.7zm16.9 0c0 1.5-1.2 2.7-2.7 2.7-1.5 0-2.7-1.2-2.7-2.7 0-1.5 1.2-2.7 2.7-2.7 1.5 0 2.7 1.2 2.7 2.7zm16.9 0c0 1.5-1.2 2.7-2.7 2.7-1.5 0-2.7-1.2-2.7-2.7 0-1.5 1.2-2.7 2.7-2.7 1.5 0 2.7 1.2 2.7 2.7zm16.9 0c0 1.5-1.2 2.7-2.7 2.7-1.5 0-2.7-1.2-2.7-2.7 0-1.5 1.2-2.7 2.7-2.7 1.5 0 2.7 1.2 2.7 2.7zm13 2.4c-0.9-0.4-1.5-1.3-1.5-2.4q0-0.2 0.1-0.4 0.7 1.4 1.4 2.8zm-55.3 41.4c0 1.4-1.2 2.7-2.7 2.7-1.5 0-2.7-1.3-2.7-2.7 0-1.5 1.2-2.8 2.7-2.8 1.5 0 2.7 1.3 2.7 2.8zm17 0c0 1.4-1.3 2.7-2.8 2.7-1.4 0-2.7-1.3-2.7-2.7 0-1.5 1.3-2.8 2.7-2.8 1.5 0 2.8 1.3 2.8 2.8zm16.9 0c0 1.4-1.2 2.7-2.7 2.7-1.5 0-2.7-1.3-2.7-2.7 0-1.5 1.2-2.8 2.7-2.8 1.5 0 2.7 1.3 2.7 2.8zm16.9 0c0 1.4-1.2 2.7-2.7 2.7-1.5 0-2.7-1.3-2.7-2.7 0-1.5 1.2-2.8 2.7-2.8 1.5 0 2.7 1.3 2.7 2.8zm16.9 0c0 1.4-1.2 2.7-2.7 2.7-1.5 0-2.7-1.3-2.7-2.7 0-1.5 1.2-2.8 2.7-2.8 1.5 0 2.7 1.3 2.7 2.8zm-76.1-14.5c0 1.5-1.2 2.7-2.7 2.7-1.5 0-2.7-1.2-2.7-2.7 0-1.5 1.2-2.7 2.7-2.7 1.5 0 2.7 1.2 2.7 2.7zm16.9 0c0 1.5-1.2 2.7-2.7 2.7-1.5 0-2.7-1.2-2.7-2.7 0-1.5 1.2-2.7 2.7-2.7 1.5 0 2.7 1.2 2.7 2.7zm16.9 0c0 1.5-1.2 2.7-2.7 2.7-1.5 0-2.7-1.2-2.7-2.7 0-1.5 1.2-2.7 2.7-2.7 1.5 0 2.7 1.2 2.7 2.7zm16.9 0c0 1.5-1.2 2.7-2.7 2.7-1.5 0-2.7-1.2-2.7-2.7 0-1.5 1.2-2.7 2.7-2.7 1.5 0 2.7 1.2 2.7 2.7zm17 0c0 1.5-1.3 2.7-2.8 2.7-1.5 0-2.7-1.2-2.7-2.7 0-1.5 1.2-2.7 2.7-2.7 1.5 0 2.8 1.2 2.8 2.7zm-67.7 29.3c0 1.5-1.2 2.7-2.7 2.7-1.5 0-2.7-1.2-2.7-2.7 0-1.5 1.2-2.7 2.7-2.7 1.5 0 2.7 1.2 2.7 2.7zm16.9 0c0 1.5-1.2 2.7-2.7 2.7-1.5 0-2.7-1.2-2.7-2.7 0-1.5 1.2-2.7 2.7-2.7 1.5 0 2.7 1.2 2.7 2.7zm16.9 0c0 1.5-1.2 2.7-2.7 2.7-1.5 0-2.7-1.2-2.7-2.7 0-1.5 1.2-2.7 2.7-2.7 1.5 0 2.7 1.2 2.7 2.7zm16.9 0c0 1.5-1.2 2.7-2.7 2.7-1.5 0-2.7-1.2-2.7-2.7 0-1.5 1.2-2.7 2.7-2.7 1.5 0 2.7 1.2 2.7 2.7zm17 0c0 1.5-1.3 2.7-2.8 2.7-1.5 0-2.7-1.2-2.7-2.7 0-1.5 1.2-2.7 2.7-2.7 1.5 0 2.8 1.2 2.8 2.7zm16.9 0c0 1.5-1.2 2.7-2.7 2.7-1.5 0-2.8-1.2-2.8-2.7 0-1.5 1.3-2.7 2.8-2.7 1.5 0 2.7 1.2 2.7 2.7z"/>
					</g>
					<g id="&lt;Group&gt;">
						<path id="&lt;Path&gt;" class="s4" d="m1174.9 430.8c4.8 0.6 9.6 1.4 14.2 2.7 2.3 0.7 4.5 1.5 6.8 2.3q1.7 0.6 3.4 1.1c1.1 0.4 2.4 0.7 3.6 0.8 0.1 0 0.1 0.2 0 0.2-1.2 0-2.3 0-3.5-0.2-1.1-0.1-2.3-0.4-3.4-0.7-2.3-0.7-4.6-1.4-6.9-2.1-4.7-1.4-9.5-2.7-14.2-3.8-0.3 0-0.2-0.4 0-0.3z"/>
						<path id="&lt;Path&gt;" class="s4" d="m1162.9 434.6c4-0.2 8-0.3 12-0.2 1.9 0.1 3.9 0.3 5.9 0.6q1.4 0.1 2.8 0.4c1 0.1 2 0.4 3.1 0.6 0.1 0 0.1 0.2 0 0.2-1-0.2-2-0.1-3-0.2q-1.5 0-3-0.1-2.9-0.2-5.9-0.3c-4-0.3-7.9-0.5-11.9-0.6-0.2 0-0.2-0.3 0-0.4z"/>
					</g>
				</g>
				<g id="&lt;Group&gt;">
					<g id="&lt;Group&gt;">
						<path id="&lt;Path&gt;" class="s18" d="m1191.5 365.5c-0.2 1.8-7.1 14.9-15.4 15.8-2.7 0.2-4.9-14.5-4.9-14.5l-0.4-1.1-5.7-14.7 16.1-14.2 2.4-1.9c0 0 1.3 4.1 2.9 9.3q0.1 0.3 0.2 0.7 0.1 0.4 0.3 0.8 0.3 1.2 0.7 2.4c0.2 0.6 0.3 1.2 0.5 1.8q0.3 0.9 0.5 1.9c1.7 6.3 2.8 12.9 2.8 13.7z"/>
						<path id="&lt;Path&gt;" class="s4" d="m1186.5 344.2c-2.5 12.8-11.5 19.2-15.7 21.5l-5.7-14.7 16.1-14.2 2.4-1.9c0 0 1.3 4.1 2.9 9.3z"/>
					</g>
					<g id="&lt;Group&gt;">
						<path id="&lt;Path&gt;" class="s18" d="m1142 323.7c-6.1 27.1 9.4 33.8 15.3 35.1 5.3 1.2 23.5 4.6 32.3-21.7 8.9-26.3-1.7-37.7-13.7-41-12-3.4-27.7 0.6-33.9 27.6z"/>
						<g id="&lt;Group&gt;">
							<path id="&lt;Path&gt;" class="s4" d="m1146.9 319.9c0.7 0.1 1.3 0 1.9 0 0.8 0 1.3 0.1 2-0.4 0.3-0.2 0.4-0.8 0.2-1.2-0.4-0.8-1.4-1-2.2-1-1 0-1.7 0.2-2.5 0.8-0.7 0.6-0.3 1.8 0.6 1.8z"/>
							<path id="&lt;Path&gt;" class="s4" d="m1165.6 323.7c-0.7-0.2-1.2-0.5-1.8-0.8-0.7-0.3-1.2-0.5-1.6-1.1-0.3-0.4-0.1-1 0.2-1.2 0.7-0.6 1.7-0.4 2.5-0.1 0.9 0.4 1.5 0.9 1.9 1.7 0.5 0.8-0.4 1.7-1.2 1.5z"/>
							<g id="&lt;Group&gt;">
								<g id="&lt;Group&gt;">
									<path id="&lt;Path&gt;" class="s4" d="m1159.9 329.5c0-0.1 0.1 0.1 0.1 0.2-0.5 1.8-0.7 4 0.8 4.9 0.1 0.1 0 0.2 0 0.1-2-0.7-1.6-3.6-0.9-5.2z"/>
									<path id="&lt;Path&gt;" class="s4" d="m1162 327.9c3 0.5 1.9 6.5-0.9 6-2.8-0.4-1.6-6.4 0.9-6z"/>
								</g>
								<path id="&lt;Path&gt;" class="s4" d="m1163.1 328.4c0.5 0.5 0.9 1.2 1.5 1.4 0.7 0.2 1.4-0.4 2-0.9 0 0 0.1 0 0 0.1-0.2 1.2-0.8 2.3-2.1 2.2-1.1-0.1-1.7-1.2-1.8-2.4 0-0.3 0.2-0.5 0.4-0.4z"/>
							</g>
							<g id="&lt;Group&gt;">
								<g id="&lt;Group&gt;">
									<path id="&lt;Path&gt;" class="s4" d="m1149.6 327.1c0 0-0.1 0.1-0.1 0.2-0.3 1.8-0.9 3.9-2.7 4.3-0.1 0-0.1 0.1 0 0.1 2.1 0 2.9-2.7 2.8-4.6z"/>
									<path id="&lt;Path&gt;" class="s4" d="m1148.3 324.9c-2.9-0.8-4.2 5.2-1.5 5.9 2.7 0.7 4-5.3 1.5-5.9z"/>
								</g>
								<path id="&lt;Path&gt;" class="s4" d="m1147 325c-0.5 0.2-1.1 0.7-1.7 0.6-0.7-0.1-1-0.8-1.3-1.5 0-0.1-0.1-0.1-0.1 0-0.3 1.1-0.1 2.4 0.9 2.9 1 0.4 1.9-0.4 2.4-1.5 0.1-0.2 0-0.6-0.2-0.5z"/>
							</g>
							<path id="&lt;Path&gt;" class="s4" d="m1157.3 344.7c-0.5 0.4-1.1 1-1.8 0.9-0.6 0-1.3-0.4-1.9-0.7-0.1-0.1-0.1 0-0.1 0 0.4 0.8 1.3 1.4 2.2 1.4 0.9 0 1.4-0.7 1.7-1.5 0.1-0.1-0.1-0.1-0.1-0.1z"/>
							<g id="&lt;Group&gt;">
								<path id="&lt;Path&gt;" class="s4" d="m1150.8 336.5c0 0-0.9 2.7-1.1 4-0.1 0.1 0.2 0.2 0.7 0.4q0 0 0 0c2.3 0.8 4.7 0.5 6.5-1.2 0.1-0.1 0-0.2-0.1-0.2-2 0.9-4 0.9-6 0.5-0.1-0.4 1.7-4.5 1.5-4.6-0.7-0.2-2.2 0-3.1 0.1 1.8-5.7 4.5-11 6.2-16.7 0-0.2-0.3-0.3-0.4-0.1-3.2 5.4-5.4 11.8-7.3 17.6-0.3 0.8 2.6 0.3 3.1 0.2z"/>
							</g>
						</g>
						<path id="&lt;Path&gt;" class="s4" d="m1188.8 337c-6.9-1-6.7-22.5-6.6-25.2-0.2 1.7-0.8 10.5-1.5 10.8-0.2 0-1-0.2-2.2-0.7 0.1-1 0.1-2 0.1-3.1 0-0.5-0.3 1-0.8 2.9q-0.5-0.3-1.2-0.5c0.2-1.9 0.4-4.3 0-6.8-0.1-0.8-0.7 2.9-1.9 6.1-4.6-1.8-11.4-4.2-17.8-5.1-1.7-0.3-3.2-0.4-4.6-0.5 0.3-2.6 0.9-5.3 0.6-4.7-0.7 1.6-1.2 3.3-1.6 4.7q-1.1-0.1-2-0.1c0.2-3.7 2.6-9.3 1.9-8.5-2.6 3.2-3.9 6.8-4.5 8.7-2.5 0.2-3.3 0.6-3.3-0.1 0-1.1 2.5-11.3 11.3-18 9.6-7.2 27.1-7.5 35.6 6.1 0 0 7.5 6.1 7.9 14.7 0.3 8.6-5.4 19.9-9.4 19.3z"/>
						<g id="&lt;Group&gt;">
							<g id="&lt;Group&gt;">
								<path id="&lt;Path&gt;" class="s18" d="m1187.4 347.1q-0.7 0.2-1.3 0.2-0.7 0-1.3-0.2c-0.6-0.1-1.1-0.4-1.5-0.7-0.4-0.3-0.7-0.6-0.9-0.9-0.7-0.9-0.9-1.7-0.9-1.7l2.6-7.2c0 0 7.1-7.7 10.7-5.1 3.6 2.7-2.6 14.5-7.4 15.6z"/>
								<path id="&lt;Path&gt;" class="s4" d="m1193 334.9c0.1 0 0.1 0.1 0 0.1-3.4 0.9-5.5 3.6-7.1 6.5 1.1-1 2.5-1.5 3.9-0.1 0.1 0 0 0.2-0.1 0.1-1.2-0.4-2.2-0.3-3.2 0.6-0.8 0.6-1.3 1.5-1.9 2.3-0.2 0.3-0.7 0.1-0.5-0.2q0-0.1 0-0.1c0.5-4.1 4.4-9.4 8.9-9.2z"/>
							</g>
							<path id="&lt;Path&gt;" class="s8" d="m1187.2 345.9c-0.2 0.7-1 1-1.6 0.8-0.7-0.2-1.1-1-0.8-1.6 0.2-0.7 0.9-1.1 1.6-0.8 0.7 0.2 1 0.9 0.8 1.6z"/>
							<path id="&lt;Path&gt;" class="s8" d="m1190.1 344.3c-0.2 0.5-0.7 0.8-1.2 0.6-0.4-0.2-0.7-0.7-0.5-1.2 0.1-0.4 0.7-0.7 1.1-0.5 0.5 0.2 0.8 0.7 0.6 1.1z"/>
						</g>
					</g>
				</g>
				<g id="&lt;Group&gt;">
					<g id="&lt;Group&gt;">
						<path id="&lt;Path&gt;" class="s8" d="m1227.3 559.3l-232.3-97.2 44.4-106.3 232.3 97.2z"/>
						<path id="&lt;Compound Path&gt;" fill-rule="evenodd" class="s4" d="m1227.3 559.3l-232.5-96.8-0.3-0.2 0.1-0.3 44.4-106.4 0.2-0.4 0.4 0.1 232.2 97.4 0.3 0.1-0.1 0.3zm0 0l44.1-106.2-231.7-96.7-44.2 105.5zm44.1-106.2l0.3 0.1-0.2-0.3zm-231.7-96.7l0.2-0.4-0.6 0.2zm-44.2 105.5l-0.4-0.2 0.2 0.6z"/>
					</g>
					<g id="&lt;Group&gt;">
						<path id="&lt;Path&gt;" class="s0" d="m1060.5 418.7c-2 0.3-4 0.3-6.1-0.1-5.4-0.9-9.9-3.9-12.8-8.1-2.8-4-4.1-9.1-3.2-14.4 1.8-10.7 11.9-17.8 22.6-16 10.6 1.8 17.8 11.9 16 22.6-1.5 8.5-8.3 14.8-16.5 16z"/>
						<g id="&lt;Group&gt;">
							<path id="&lt;Path&gt;" class="s8" d="m1064 399.7c-1.3 3-4.8 4.4-7.8 3.1-3-1.3-4.4-4.8-3.1-7.8 1.3-3.1 4.8-4.4 7.8-3.1 3 1.3 4.4 4.8 3.1 7.8z"/>
							<path id="&lt;Path&gt;" class="s8" d="m1061.5 416.5l-1 2.2c-2 0.3-4 0.3-6.1-0.1-5.4-0.9-9.9-3.9-12.8-8.1l1-2.2c2.3-5.2 8.3-7.6 13.5-5.4 5.2 2.3 7.6 8.4 5.4 13.6z"/>
						</g>
					</g>
					<path id="&lt;Path&gt;" class="s0" d="m1235 504.2l-206.3-86.3-3 7.3 206.3 86.3z"/>
					<path id="&lt;Path&gt;" class="s0" d="m1228.4 520.2l-206.4-86.3-3 7.3 206.3 86.2z"/>
					<path id="&lt;Path&gt;" class="s0" d="m1221.7 536.2l-206.3-86.3-3.1 7.2 206.3 86.3z"/>
					<path id="&lt;Path&gt;" class="s0" d="m1202.6 453.7l-114.1-47.7 4.1-9.8 114.1 47.7z"/>
					<path id="&lt;Path&gt;" class="s3" d="m1138.3 445.8l-56.6-23.6 4.1-9.8 56.5 23.6z"/>
				</g>
				<g id="&lt;Group&gt;">
					<g id="&lt;Group&gt;">
						<path id="&lt;Path&gt;" class="s18" d="m1211.2 382.1c18.9 34.7 37.2 63 32.8 79.3-6.6 24.5-43 67.4-55.9 74.1-5.5 2.9-34.7-36.1-29.8-40.7 5.9-5.4 44-44.5 44.7-48.6 1-6.9-3.3-21-8-58.7-3.6-29.2 8.9-18.8 16.2-5.4z"/>
						<g id="&lt;Group&gt;">
							<g id="&lt;Group&gt;">
								<path id="&lt;Path&gt;" class="s18" d="m1175.1 487.2c0 0-11.3-1.1-23.5-3.7-6.8-1.5-18.7-3-24.2-1.8-8.3 1.8-41.5 14.6-38.6 22.7 2.7 7.4 29.8-7.2 29.8-7.2 0 0-28.7 12.3-23.8 20.6 4.8 8.2 33.3-12.4 33.3-12.4 0 0-29.2 13.4-22.9 21.1 4.8 5.9 31.6-11.3 31.6-11.3 0 0-25 11.6-20.4 17.8 5.2 6.9 31-7.4 31-7.4 14.4 13.8 32.8 16.4 43.6 8.4 1.8-1.4-15.9-46.8-15.9-46.8z"/>
								<g id="&lt;Group&gt;">
									<path id="&lt;Path&gt;" class="s4" d="m1128.3 492.3c-3.4 1.3-6.9 2.6-10.2 4.2-3.3 1.7-6.5 3.4-9.7 5.3-7.6 4.8-11.7 8.9-11.4 8.7 6.6-5.4 18.3-11.4 21.6-13.1 3.3-1.6 6.5-3.4 9.8-5 0 0 0-0.2-0.1-0.1z"/>
									<path id="&lt;Path&gt;" class="s4" d="m1134.4 504.1c-4.3 1.8-8.6 3.6-12.9 5.6-4.2 2.1-8 4.4-12 6.8-0.3 0.2-0.1 0.3 0.2 0.1 4.1-2.2 8.1-3.9 12.3-6 4.1-2.2 8.2-4.5 12.4-6.4 0.1-0.1 0.1-0.2 0-0.1z"/>
									<path id="&lt;Path&gt;" class="s4" d="m1141.4 513.2c-6.7 2.6-12.9 6.4-19 10.2-0.3 0.2 0 0.3 0.3 0.1 6.3-3.5 11.2-6.3 18.8-10 0.1-0.1 0.1-0.3-0.1-0.3z"/>
								</g>
							</g>
						</g>
					</g>
					<g id="&lt;Group&gt;">
						<path id="&lt;Path&gt;" class="s2" d="m1249.5 460.9l-48.7-21.6c0 0-5.6-26.6-7.5-51.3-1.9-24.6 4.7-30.7 21.2-4.7 16.6 26.1 33.6 59.1 35 77.6z"/>
						<path id="&lt;Compound Path&gt;" fill-rule="evenodd" class="s8" d="m1208.6 394c0 1.5-1.2 2.7-2.7 2.7-1.5 0-2.7-1.2-2.7-2.7 0-1.5 1.2-2.7 2.7-2.7 1.5 0 2.7 1.2 2.7 2.7zm14.1 2.7c-1.5-0.1-2.6-1.2-2.6-2.7q0-0.6 0.3-1.2 1.2 1.9 2.3 3.9zm-22.6-17.2c0 1.5-1.2 2.7-2.7 2.7-1.5 0-2.7-1.2-2.7-2.7 0-1.5 1.2-2.7 2.7-2.7 1.5 0 2.7 1.2 2.7 2.7zm13.7 2.7c-1.3-0.3-2.2-1.3-2.2-2.7q0-0.2 0.1-0.5 1 1.5 2.1 3.2zm-5.2 41.1c0 1.5-1.2 2.7-2.7 2.7-1.5 0-2.7-1.2-2.7-2.7 0-1.5 1.2-2.7 2.7-2.7 1.5 0 2.7 1.2 2.7 2.7zm16.9 0c0 1.5-1.2 2.7-2.7 2.7-1.5 0-2.7-1.2-2.7-2.7 0-1.5 1.2-2.7 2.7-2.7 1.5 0 2.7 1.2 2.7 2.7zm12.4 2c-0.5-0.5-0.9-1.1-0.9-1.9q0.4 1 0.9 1.9zm-37.8-16.5c0 1.5-1.2 2.7-2.7 2.7-0.5 0-1.1-0.1-1.5-0.4q-0.3-2-0.6-4c0.5-0.6 1.3-1 2.1-1 1.5 0 2.7 1.2 2.7 2.7zm16.9 0c0 1.5-1.2 2.7-2.7 2.7-1.5 0-2.7-1.2-2.7-2.7 0-1.5 1.2-2.7 2.7-2.7 1.5 0 2.7 1.2 2.7 2.7zm14 2.7c-1.4-0.1-2.5-1.3-2.5-2.7q0-0.7 0.3-1.2 1.1 1.9 2.2 3.9zm11.4 41.1c0 1.4-1.2 2.7-2.7 2.7-1.5 0-2.7-1.3-2.7-2.7 0-1.5 1.2-2.8 2.7-2.8 1.5 0 2.7 1.3 2.7 2.8zm-25.4-14.5c0 1.5-1.2 2.7-2.7 2.7-1.5 0-2.7-1.2-2.7-2.7 0-1.5 1.2-2.7 2.7-2.7 1.5 0 2.7 1.2 2.7 2.7zm17 0c0 1.5-1.3 2.7-2.8 2.7-1.5 0-2.7-1.2-2.7-2.7 0-1.5 1.2-2.7 2.7-2.7 1.5 0 2.8 1.2 2.8 2.7z"/>
						<g id="&lt;Group&gt;">
							<path id="&lt;Path&gt;" class="s4" d="m1193.3 403.3c0.7 1.4 1.2 3 1.6 4.5q0.3 0.7 0.5 1.5-0.5-4.3-1-8.6c0-0.2 0.3-0.2 0.3 0 1.1 6.4 5.9 36.8 6.1 38.4 0.1 0 2.6 1.3 2.7 1.3 0.1 0-0.1 0.3-0.1 0.2-0.1-0.1-3.6-1.2-3.6-1.2-0.5-1.4-3.7-24.7-4.1-27.5q-0.1-0.2-0.2-0.4-0.2-0.6-0.4-1.2-0.3-1.1-0.7-2.2c-0.5-1.6-1-3.2-1.3-4.8 0-0.1 0.1-0.1 0.2 0z"/>
							<path id="&lt;Path&gt;" class="s4" d="m1201.9 433.8c1.9 0.4 3.9 1.2 5.7 1.9 1.9 0.6 3.8 1.3 5.7 2q5.5 1.9 10.8 4.1c7.2 3 14.4 6 21.2 9.7 0.2 0.1 0 0.3-0.1 0.2-7.4-2.8-14.6-6-21.9-8.9q-5.3-2.2-10.7-4.4c-1.8-0.7-3.6-1.5-5.4-2.2-1.8-0.8-3.7-1.3-5.4-2.2-0.1-0.1 0-0.2 0.1-0.2z"/>
						</g>
					</g>
				</g>
			</g>
		</g>
	</g>
	<g id="Character 1">
		<g id="Capa 4">
		</g>
		<g id="&lt;Group&gt;">
			<g id="&lt;Group&gt;">
				<g id="&lt;Group&gt;">
					<path id="&lt;Path&gt;" class="s2" d="m521.3 886h-11.3l-90.8-422.4h-95.5l54.6 422.4h-11.2l-55.9-432.2h117.2z"/>
					<path id="&lt;Path&gt;" class="s19" d="m521.3 886h-11.3l-90.8-422.4h-95.5l54.6 422.4h-11.2l-55.9-432.2h117.2z"/>
					<g id="&lt;Group&gt;">
						<path id="&lt;Path&gt;" class="s2" d="m433.8 442.1h-129.9v11.7h129.9z"/>
						<path id="&lt;Path&gt;" class="s12" d="m433.8 442.1h-129.9v11.7h129.9z"/>
					</g>
				</g>
				<g id="&lt;Group&gt;">
					<g id="&lt;Group&gt;">
						<path id="&lt;Path&gt;" class="s2" d="m428.4 455.4l-45.7 453.3h-11.2l44.6-442.3h-95.6l-80.7 442.3h-11.2l82.6-453.3z"/>
						<path id="&lt;Path&gt;" class="s2" d="m416.5 563.9h-113v-11.1h113z"/>
						<path id="&lt;Path&gt;" class="s2" d="m398.6 653.8h-113v-11.1h113z"/>
						<path id="&lt;Path&gt;" class="s2" d="m389.8 743.7h-123.3v-11.1h123.3z"/>
						<path id="&lt;Path&gt;" class="s2" d="m383 833.6h-131.2v-11.1h131.2z"/>
					</g>
					<g id="&lt;Group&gt;" style="opacity: .2">
						<path id="&lt;Path&gt;" class="s20" d="m428.4 455.4l-45.7 453.3h-11.2l44.6-442.3h-95.6l-80.7 442.3h-11.2l82.6-453.3z"/>
						<path id="&lt;Path&gt;" class="s20" d="m416.5 563.9h-113v-11.1h113z"/>
						<path id="&lt;Path&gt;" class="s20" d="m398.6 653.8h-113v-11.1h113z"/>
						<path id="&lt;Path&gt;" class="s20" d="m389.8 743.7h-123.3v-11.1h123.3z"/>
						<path id="&lt;Path&gt;" class="s20" d="m383 833.6h-131.2v-11.1h131.2z"/>
					</g>
				</g>
			</g>
			<g id="&lt;Group&gt;">
				<g id="&lt;Group&gt;">
					<g id="&lt;Group&gt;">
						<g id="&lt;Group&gt;">
							<path id="&lt;Path&gt;" class="s21" d="m263.7 602.4c0 0-39.1 73.5-39.1 73.5-2.3 13.9-4 26.1-4.3 32.5q0 0.1 0 0.1c-0.1 2.4-0.1 4 0.3 4.5q0 0 0.1 0.1c3.6 3.5 114.1 24.9 118.2 24.4 4.1-0.6 2.8-12.3-0.8-16.6-3.6-4.2-42.2-31.4-42.2-31.4l38.3-73.5z"/>
							<path id="&lt;Path&gt;" class="s8" d="m231.9 661.2c0 0-7.3 14.7-7.3 14.7-2.3 13.9-4 26.1-4.3 32.5q0 0.1 0 0.1c0 2.4 0.1 4 0.3 4.5q0 0 0.1 0.1c3.6 3.5 114.1 24.9 118.2 24.4 4.1-0.6 2.8-12.3-0.8-16.6-3.6-4.2-42.2-31.4-42.2-31.4l7.5-14.8z"/>
							<g id="&lt;Group&gt;">
								<g id="&lt;Group&gt;">
									<path id="&lt;Path&gt;" class="s4" d="m302.7 690.7c-7.2-2.4-16.4-2.6-22.8 1.8-0.3 0.2 0 0.5 0.2 0.5 7.6-1.2 14.7-1.7 22.4-1.4 0.5 0.1 0.7-0.7 0.2-0.9z"/>
									<path id="&lt;Path&gt;" class="s4" d="m307.5 694.7c-7.2-2.5-16.4-2.6-22.8 1.8-0.2 0.2 0 0.5 0.3 0.5 7.6-1.2 14.6-1.7 22.4-1.4 0.5 0.1 0.6-0.7 0.1-0.9z"/>
									<path id="&lt;Path&gt;" class="s4" d="m312.4 698.7c-7.2-2.5-16.4-2.6-22.8 1.8-0.3 0.2 0 0.5 0.2 0.5 7.7-1.3 14.7-1.7 22.4-1.4 0.6 0 0.7-0.7 0.2-0.9z"/>
								</g>
								<path id="&lt;Path&gt;" class="s7" d="m338.9 737.5c-4.1 0.5-114.6-20.9-118.2-24.4-1.5-1.3 0.7-17.6 3.9-37.2q0.1-0.3 0.1-0.6l71.4 13-0.2 1.2c0 0 38.6 27.2 42.2 31.4 3.6 4.3 4.9 16 0.8 16.6z"/>
								<path id="&lt;Path&gt;" class="s2" d="m224.7 675.3l-0.1 0.6c-3.2 19.6-5.4 35.9-3.9 37.2 1.6 1.6 25.4 6.9 51.3 12.1 30.9 6.3 64.6 12.6 66.9 12.3 4.1-0.6 2.8-12.3-0.8-16.6-3.6-4.2-42.2-31.4-42.2-31.4l0.2-1.2-23.8-4.3z"/>
								<path id="&lt;Path&gt;" class="s4" d="m338.5 732.9c-18.6-4-93.7-18.7-112.3-21.3-0.1-0.1-0.2 0 0 0.1 18.3 4.4 93.5 18.5 112.2 21.5 0.4 0.1 0.4-0.2 0.1-0.3z"/>
								<path id="&lt;Path&gt;" class="s6" d="m272.3 684c-0.2 12.3-0.5 30.4-0.3 41.2 30.9 6.3 64.6 12.6 66.9 12.3 4.1-0.6 2.8-12.3-0.8-16.6-3.6-4.2-42.2-31.4-42.2-31.4l0.2-1.2z"/>
							</g>
						</g>
						<g id="&lt;Group&gt;">
							<path id="&lt;Path&gt;" class="s9" d="m220.1 668.4l82.7 10.9c0 0 100.5-152.4 91.8-198.5-4.8-25.4-91.1-65.2-91.1-65.2l-8.7-17.6h-60.9c0 0-24.8 36.6-6.9 70.9 12.1 23.4 78.6 41.2 81 48.7 3.2 9.9-87.9 150.8-87.9 150.8z"/>
							<g id="&lt;Group&gt;">
								<g id="&lt;Group&gt;">
									<path id="&lt;Path&gt;" class="s4" d="m236 653.8c2.1-0.1 4.3 0.2 6.5 0.3 2.4 0.1 4.8 0.2 7.2 0.4q6.9 0.6 13.8 1.4c9.3 1.1 18.6 2.3 27.8 3.7q7.9 1.2 15.7 2.5c0.2 0.1 0.2 0.4 0 0.4-9.3-0.8-18.5-1.8-27.7-2.7-9.2-0.9-18.4-1.9-27.6-3.1-2.6-0.4-5.3-0.7-7.9-1.2-2.6-0.5-5.3-0.7-7.8-1.3-0.2-0.1-0.2-0.3 0-0.4z"/>
								</g>
								<path id="&lt;Path&gt;" class="s4" d="m301.5 648.3c7.2-11.1 14.2-22.3 21.1-33.6 6.9-11.2 13.7-22.6 20.2-34 6.4-11.5 12.8-23.1 18.6-34.9 2.9-5.9 5.7-11.9 8.3-18 2.5-6 4.9-12.2 6.7-18.5 1.7-6.2 3.3-12.8 2-19-0.7-3.1-1.9-6.1-3.7-8.8-0.8-1.4-1.8-2.6-2.8-3.9-1-1.3-2-2.5-3.2-3.7-9.1-9.3-20.5-16.3-31.9-22.7-11.6-6.4-23.6-11.9-35.5-17.5-3-1.4-6-2.8-8.9-4.3-1.5-0.8-3-1.6-4.4-2.4-1.4-0.9-2.9-1.9-3.7-3.4-3.4-5.8-4.7-12.4-5.3-19 0.7 6.5 2.3 13.1 5.7 18.8 0.8 1.4 2.2 2.2 3.6 3q2.2 1.2 4.4 2.3c3 1.4 6 2.8 9 4.1 12 5.4 24.1 10.8 35.8 17 5.9 3.2 11.6 6.5 17.1 10.2 5.5 3.8 10.8 7.9 15.4 12.7 1.2 1.1 2.3 2.4 3.4 3.7 1 1.4 2.1 2.7 2.9 4.1 1.9 2.9 3.2 6.1 4 9.4 0.9 3.4 0.5 6.9 0.2 10.2-0.3 1.6-0.5 3.3-0.9 4.9-0.4 1.6-0.8 3.3-1.3 4.9-1.8 6.4-4.3 12.6-6.9 18.7-2.6 6.1-5.4 12.1-8.3 18-6 11.8-12.3 23.4-19 34.8-6.7 11.4-13.6 22.7-20.7 33.9-7.1 11.1-14.4 22.1-21.9 33z"/>
							</g>
						</g>
					</g>
				</g>
				<g id="&lt;Group&gt;">
					<g id="&lt;Group&gt;">
						<g id="&lt;Group&gt;">
							<path id="&lt;Path&gt;" class="s21" d="m306.4 711.3c0 0 0.6 73.6 0.6 73.6 0.1 14.1 0.4 26.5 1.1 32.8q0 0.1 0 0.1c0.3 2.4 0.7 4 1.1 4.4q0 0 0.1 0.1c4.2 2.8 116.6 5.7 120.6 4.5 4-1.2 0.8-12.6-3.5-16.2-4.3-3.6-46.8-24-46.8-24l-1.4-73.5z"/>
							<path id="&lt;Path&gt;" class="s8" d="m306.9 769.8c0 0 0.1 15.1 0.1 15.1 0.1 14.1 0.4 26.5 1.1 32.8q0 0.1 0 0.1c0.5 2.4 0.8 4 1.1 4.4q0 0 0.1 0.1c4.2 2.8 116.6 5.7 120.6 4.5 4-1.2 0.8-12.6-3.5-16.2-4.3-3.6-46.8-24-46.8-24v-15.3z"/>
							<g id="&lt;Group&gt;">
								<g id="&lt;Group&gt;">
									<path id="&lt;Path&gt;" class="s4" d="m386.5 786.7c-7.5-1.3-16.6 0.1-22.2 5.5-0.2 0.2 0.1 0.5 0.3 0.4 7.3-2.4 14.2-4.1 21.8-5 0.6-0.1 0.6-0.8 0.1-0.9z"/>
									<path id="&lt;Path&gt;" class="s4" d="m391.9 789.8c-7.5-1.2-16.6 0.1-22.2 5.5-0.2 0.2 0.1 0.6 0.4 0.5 7.3-2.5 14.1-4.1 21.8-5.1 0.5 0 0.5-0.8 0-0.9z"/>
									<path id="&lt;Path&gt;" class="s4" d="m397.4 792.9c-7.5-1.2-16.6 0.1-22.2 5.6-0.2 0.2 0.1 0.5 0.3 0.4 7.3-2.5 14.2-4.1 21.9-5 0.5-0.1 0.5-0.9 0-1z"/>
								</g>
								<path id="&lt;Path&gt;" class="s2" d="m429.9 826.8c-4 1.2-116.4-1.7-120.6-4.5-1.6-1.1-2.2-17.5-2.2-37.4q0-0.3 0-0.6l72.5 1.1v1.2c0 0 42.5 20.4 46.8 24 4.3 3.6 7.5 15 3.5 16.2z"/>
								<path id="&lt;Path&gt;" class="s4" d="m428.7 822.4c-18.9-1-95.4-3-114.2-2.5-0.2 0-0.2 0.1 0 0.1 18.7 1.3 95.3 2.8 114.2 2.7 0.4 0 0.4-0.3 0-0.3z"/>
							</g>
						</g>
						<g id="&lt;Group&gt;">
							<path id="&lt;Path&gt;" class="s9" d="m269.2 475.9c0.1 0.1 33.4 105.2 34 124.6 0.5 16.5-1.6 185.7-1.6 185.7l84.6 0.5c0 0-7.2-172.6-8.5-189.8-2.5-32.1-30.6-120.3-50.7-198.9h-91.2c0 0 0.8 41.2 19.5 70.9 0 0 8.5 4 13.9 7z"/>
							<g id="&lt;Group&gt;">
								<path id="&lt;Path&gt;" class="s4" d="m306.1 770.6c9.8-0.3 19.9-0.6 29.7-0.3 9.7 0.2 19.4 0.3 29 0.9 5.5 0.3 11 0.5 16.5 1.1 0.2 0 0.2 0.3 0 0.3-9.8 0.5-19.6 0.4-29.3 0.3-9.7-0.1-19.4-0.2-29.1-0.6-5.5-0.3-11-0.5-16.5-0.9-0.5-0.1-0.9-0.8-0.3-0.8z"/>
								<path id="&lt;Path&gt;" class="s4" d="m324.6 447.6c3 10.1 5.6 20.3 8.3 30.4q4 15.4 8.1 30.7c5.2 19.8 10.3 39.6 14.2 59.7 4 20.2 6.4 40.6 6.8 61.2 0.4 21 0 42-0.1 62.9-0.2 21.1-0.4 42.1-0.7 63.2q-0.1 3.9-0.2 7.9c0 0.2-0.4 0.2-0.4 0-0.6-21-0.3-42-0.2-63 0.1-20.9 0.3-41.9 0.2-62.8-0.2-20.9-1.8-41.6-5.4-62.1-3.5-20.2-8.5-40.1-13.7-59.9-2.9-11.3-5.9-22.6-8.8-33.9-2.9-11.3-6.1-22.7-8.7-34.1-0.1-0.4 0.5-0.6 0.6-0.2z"/>
								<path id="&lt;Path&gt;" class="s4" d="m290.1 478c-4.2-0.1-8.4-0.4-12.5-1.2-4.2-0.8-8.1-2.2-12.2-3.4-3.8-1.1-7.9-1.3-11.9-1.9-4-0.7-8-1.7-11.7-3.5-0.1-0.1-0.3 0.2-0.1 0.3 3.6 1.8 7.3 3.6 11.2 4.8 4 1.3 8.2 1.5 12.2 2.5 4.2 1 8.3 2.3 12.6 2.8 4.1 0.5 8.3 0.5 12.5-0.2 0.2 0 0.1-0.2-0.1-0.2z"/>
								<path id="&lt;Path&gt;" class="s4" d="m303.5 678.2l-0.1-25.9c-0.1-8.6-0.1-17.3-0.3-25.9-0.2-8.6-0.2-17.3-0.8-25.9-0.3-4.2-1.1-8.4-2.1-12.6-0.9-4.2-2-8.4-3.1-12.5-4.3-16.7-9.1-33.4-13.8-50l-14.1-49.8c2.7 8.2 5.3 16.4 8 24.6l7.6 24.8q7.6 24.8 14.2 49.9c1.1 4.2 2.2 8.4 3.1 12.6 0.9 4.2 1.7 8.6 2 12.9 0.5 8.7 0.6 17.3 0.6 26q-0.1 25.9-1.2 51.8z"/>
								<path id="&lt;Path&gt;" class="s4" d="m370.9 560.7c-3.1-10.9-6.1-21.9-9-32.8l-8.8-33-8.6-32.9q-2.1-8.3-4.4-16.5c-1.5-5.4-2.9-10.9-4.9-16.2 4.5 10.4 7.5 21.4 10.8 32.3 3.2 10.9 6.1 21.9 9.1 32.8 2.8 11 5.6 22 8.2 33.1 2.7 11 5.3 22.1 7.6 33.2z"/>
							</g>
						</g>
					</g>
				</g>
			</g>
			<g id="&lt;Group&gt;">
				<g id="&lt;Group&gt;">
					<g id="&lt;Group&gt;">
						<path id="&lt;Path&gt;" class="s21" d="m331.7 289.6c1.8 25.9 12.6 77.6 20.3 85.7 6.3 6.7 40 32.5 59.8 41.1 7.4 3.2 21.6-42.4 13.9-46.7-5.2-3-39.3-12.3-42.5-15.7-5.9-6.3-22.4-48-35.4-68.1-7.2-11.2-17.2-12.4-16.1 3.7z"/>
						<g id="&lt;Group&gt;">
							<g id="&lt;Group&gt;">
								<path id="&lt;Path&gt;" class="s21" d="m403.3 412.1c4.9 2.8 32 16.2 39.1 17.7 7.2 1.5 28.1 4.4 29.8-0.9 1.7-5.4-4.4-6.7-4.4-6.7 0 0 9.1-0.2 10.3-5.7 1.2-5.6-8.2-7.4-8.2-7.4 0 0 9.2-0.8 10.1-6.4 0.8-5.7-9-5.8-9-5.8 0 0 8.5-0.4 7.2-5.4-1.5-5.9-17.1-3.4-24.8-5.7-1.8-0.5-35-13-35-13z"/>
								<g id="&lt;Group&gt;">
									<path id="&lt;Path&gt;" class="s4" d="m471.8 396.9c-11.4 1.8-16.8 0.6-27.2-3.9-0.2-0.1-0.4 0.2-0.2 0.3 9.9 5.3 16.3 7.8 27.5 4.1 0.6-0.1 0.5-0.6-0.1-0.5z"/>
									<path id="&lt;Path&gt;" class="s4" d="m470.8 409c-12.1 0.8-17.9-0.4-29.2-4.4-0.1 0-0.3 0.2-0.1 0.3 10.8 4.8 17.3 7.1 29.2 4.7 0.6-0.1 0.6-0.7 0.1-0.6z"/>
									<path id="&lt;Path&gt;" class="s4" d="m467.3 422c-11.8-0.1-18.1-1.2-28.7-6.4-0.2-0.1-0.4 0.2-0.2 0.4 10.2 6.3 18.2 7.8 28.8 6.3 0.8-0.1 0.8-0.3 0.1-0.3z"/>
								</g>
							</g>
							<g id="&lt;Group&gt;">
								<path id="&lt;Path&gt;" class="s21" d="m414.9 366.7c0 0 13.7-4.8 20.2-5.5 6.5-0.8 31.7 5.3 30.7 10.8-1.3 7.1-16.5 6.5-23.9 5.2 0 0-3 16.5-14 18.4-11.1 1.9-13-28.9-13-28.9z"/>
								<path id="&lt;Path&gt;" class="s4" d="m464.8 373.8c-5.8 5.7-15.5 3.4-22.8 2.7-0.5-0.1-0.8 0.3-0.7 0.8-1.7 6.8-6.1 15.9-13.1 18.6-0.2 0.1-0.1 0.4 0.1 0.3 7.9-1.8 12.9-10.4 14.3-18 7.5 0.8 17.2 2.7 22.3-4.3 0-0.1 0-0.1-0.1-0.1z"/>
							</g>
						</g>
					</g>
					<g id="&lt;Group&gt;">
						<path id="&lt;Path&gt;" class="s2" d="m417 358.1l-22.1 52.5c0 0-39.1-22.1-44.8-34-5.7-11.9-20.1-68-19.9-86.7 0.2-18.7 9.9-16.6 18.8-3.3 9 13.3 36.1 59.4 37 60.1 0.8 0.8 31 11.4 31 11.4z"/>
						<g id="&lt;Group&gt;">
							<path id="&lt;Path&gt;" class="s4" d="m396.7 379.8c1.7-3.8 3.4-7.7 5.1-11.5 0.8-1.8 1.6-3.7 2.4-5.5 0.8-2.1 1.8-4.1 2.4-6.1 0.1-0.2-0.1-0.2-0.2-0.1-1.1 1.8-2 3.9-3 5.8-1 1.7-1.8 3.6-2.7 5.4-1.9 3.7-3.7 7.5-5.5 11.3-3.5 7.6-6.7 15.3-9.9 23.1-0.1 0.2 0.2 0.3 0.3 0.1 3.8-7.5 7.5-14.9 11.1-22.5z"/>
						</g>
						<path id="&lt;Path&gt;" class="s6" d="m369.1 394.2c-8.6-6.1-16.6-12.7-19-17.6-5.7-11.9-20.1-68-19.9-86.7 0.1-9.1 2.5-13.3 5.9-13.6 4.3 13.8 23.9 82.4 33 117.9z"/>
					</g>
				</g>
				<g id="&lt;Group&gt;">
					<g id="&lt;Group&gt;">
						<g id="&lt;Group&gt;">
							<path id="&lt;Path&gt;" class="s21" d="m335 291.5c-5.8 0.3-16-8.4-18.5-17-0.1-0.6 1.9-6 4.2-12.6 1.3-4 2.7-8.5 3.6-12.7 0.2-0.9 25 12.4 25 12.4 0 0-4.7 8.3-6.3 15.6q-0.2 0.9-0.2 1.8 0 0.1 0 0.3c-0.3 3.4-1.7 11.9-7.8 12.2z"/>
						</g>
						<path id="&lt;Path&gt;" class="s4" d="m342.8 279q0 0.1 0 0.3-1.3-0.2-2.8-0.5c-15.4-3.9-15.1-24.3-14.7-29.4 4.5 1.7 24 12.2 24 12.2 0 0-4.7 8.3-6.3 15.6q-0.2 0.9-0.2 1.8z"/>
					</g>
					<g id="&lt;Group&gt;">
						<g id="&lt;Group&gt;">
							<path id="&lt;Path&gt;" class="s21" d="m319.8 221.3c-2.1 9.9 5.4 37 12.8 42.6 10.6 8 26.9 7.5 33.4-5.1 6.3-12.1-4.1-47.4-12.2-52.3-11.9-7.2-31 0.3-34 14.8z"/>
						</g>
						<g id="&lt;Group&gt;">
							<g id="&lt;Group&gt;">
								<path id="&lt;Path&gt;" class="s4" d="m348.2 235.5c0-0.1-0.1 0.1-0.1 0.2 0.6 1.8 0.9 4-0.6 5-0.1 0.1 0 0.1 0 0.1 2-0.8 1.5-3.7 0.7-5.3z"/>
								<path id="&lt;Path&gt;" class="s4" d="m346 234c-3 0.6-1.6 6.6 1.2 6 2.7-0.5 1.4-6.5-1.2-6z"/>
							</g>
							<g id="&lt;Group&gt;">
								<path id="&lt;Path&gt;" class="s4" d="m359 233.3c0-0.1 0.2 0.1 0.2 0.1 0.3 1.9 1.1 4 2.9 4.2 0 0 0.1 0.1 0 0.1-2.1 0.2-3.1-2.6-3.1-4.4z"/>
								<path id="&lt;Path&gt;" class="s4" d="m360.2 231c2.9-0.9 4.5 5 1.8 5.8-2.7 0.9-4.3-5-1.8-5.8z"/>
							</g>
							<path id="&lt;Path&gt;" class="s4" d="m343.1 231.8c0.7-0.4 1.4-0.9 2.1-1.3 0.8-0.6 1.5-0.9 1.9-1.8 0.2-0.5-0.1-1.3-0.6-1.5-1-0.6-2.2-0.2-3.2 0.4-1.1 0.6-1.8 1.4-2.2 2.6-0.4 1.1 0.9 2.1 2 1.6z"/>
							<path id="&lt;Path&gt;" class="s4" d="m361.8 227.5c-0.8 0-1.6-0.1-2.5-0.1-1-0.1-1.7 0-2.6-0.6-0.4-0.3-0.5-1.1-0.2-1.5 0.6-1.1 1.8-1.3 2.9-1.3 1.3 0 2.3 0.3 3.3 1.1 0.9 0.7 0.2 2.3-0.9 2.4z"/>
							<path id="&lt;Path&gt;" class="s4" d="m350.4 253c0.6 0.4 1.2 0.9 1.8 0.8 0.7-0.1 1.4-0.6 1.9-1 0.1 0 0.2 0.1 0.1 0.1-0.3 0.8-1.2 1.5-2.1 1.6-0.9 0-1.4-0.6-1.8-1.3-0.1-0.1 0.1-0.2 0.1-0.2z"/>
							<g id="&lt;Group&gt;">
								<g id="&lt;Group&gt;">
									<path id="&lt;Path&gt;" class="s4" d="m351.1 247.1c1.4 1.3 3.1 1.9 4.9 1.8q1.1-0.1 2.3-0.4 0.2-0.1 0.4-0.2 0.2 0 0.4-0.1c0.2-0.1 0.3-0.3 0.2-0.5q0-0.1 0-0.2 0 0 0 0l-0.1-0.2c-0.3-1.4-0.9-3.6-0.9-3.6 0.6 0.2 3.5 0.8 3.3 0-1.8-6.1-3.8-12.8-6.8-18.5-0.1-0.2-0.4-0.1-0.4 0.1 1.5 5.9 4 11.5 5.6 17.5-0.9-0.2-2.4-0.4-3.2-0.3-0.1 0.1 1.4 4.1 1.4 4.8q0 0 0 0.1c-2.3 0.8-4.3 0.5-7-0.6-0.1 0-0.2 0.1-0.1 0.3z"/>
								</g>
							</g>
							<g id="&lt;Group&gt;">
								<path id="&lt;Path&gt;" class="s4" d="m357.2 247.9c0 0-0.8 2-2.4 3.1-0.6 0.3-1.3 0.6-2 0.6-1.6-0.1-1.9-1.4-1.9-2.7 0-1 0.2-1.9 0.2-1.9 0 0 2.6 1.5 6.1 0.9z"/>
								<path id="&lt;Path&gt;" class="s22" d="m354.8 251c-0.6 0.3-1.3 0.6-2 0.6-1.6-0.1-1.9-1.4-1.9-2.7 1.6-0.2 3.4 0.5 3.9 2.1z"/>
							</g>
						</g>
						<g id="&lt;Group&gt;">
							<path id="&lt;Path&gt;" class="s4" d="m324 247.6c0 0-11.8-15.5-11.8-25.2-0.1-4.4 5.5-8 5.5-8 0 0-2.3-5.1 2.1-10.2 4.6-5.3 17.2-5.6 17.2-5.6 0 0 6.8-12.4 18.7-9 11.9 3.4 5.8 17.1 5.8 17.1 0 0 4.8 5.5-4.9 11.2-9.5 5.6-30.3 3.3-30.3 3.3 0 0 2.7 10.2 1.9 21.1-0.3 4-4.2 5.3-4.2 5.3z"/>
							<path id="&lt;Path&gt;" class="s4" d="m339 198.6c-2.7-0.8-5.5-0.9-8.2-0.6-2.5 0.2-4.9 0.8-7.1 1.9-4 1.9-7.3 5.3-7.5 9.8-0.1 2.3 0.7 4.5 2.2 6.2 0.1 0.1 0.2-0.1 0.1-0.1-3-3-2.1-8.2 0.3-11.2 2.8-3.5 7.4-5.1 11.6-5.8 2.8-0.4 5.7-0.2 8.5 0 0.2 0.1 0.2-0.2 0.1-0.2z"/>
							<path id="&lt;Path&gt;" class="s4" d="m364.4 194.2c-1.3-3.1-4.2-4.8-7.4-5.5-3.6-0.7-7.4-0.1-10.7 1.5-3.4 1.7-6.1 4.4-8.2 7.5 0 0.1 0.1 0.1 0.1 0.1 3.8-5.6 10.2-9.1 17-8.4 3 0.3 6.1 1.5 7.8 4.2 1.5 2.4 1.6 5.8 0.6 8.5-1.2 3.3-3.8 6-6.5 8.1-0.1 0 0 0.1 0.1 0.1 2.6-1.8 5.1-4.1 6.6-7 1.4-2.8 1.8-6.2 0.6-9.1z"/>
							<path id="&lt;Path&gt;" class="s4" d="m359.1 218.2c-4.3 2.4-9.2 3.6-14.1 4-5.1 0.4-10.2 0.2-15.3-0.5q-4.4-0.6-8.8-1.4c-0.1-0.1-0.1 0.1 0 0.1 5.2 1.5 10.5 2.8 15.9 3.1 5.1 0.4 10.1-0.1 14.9-1.7 2.6-0.8 5.1-2 7.5-3.5 0-0.1 0-0.1-0.1-0.1z"/>
						</g>
						<g id="&lt;Group&gt;">
							<path id="&lt;Path&gt;" class="s21" d="m328.8 243.5c0 0-7.2-8.2-11-5.5-3.8 2.6 2.3 15.1 7.2 16.3 5 1.3 6.2-3.3 6.2-3.3z"/>
							<path id="&lt;Path&gt;" class="s4" d="m319.6 241.5c-0.1 0-0.1 0.1 0 0.1 3.5 1 5.6 3.9 7.2 7-1.2-1.2-2.6-1.7-4.1-0.3-0.1 0 0 0.2 0.1 0.1 1.3-0.4 2.3-0.3 3.4 0.7 0.7 0.7 1.3 1.7 1.8 2.5 0.2 0.3 0.7 0.1 0.6-0.3q0 0 0 0c-0.4-4.3-4.4-9.9-9-9.8z"/>
						</g>
					</g>
				</g>
				<g id="&lt;Group&gt;">
					<path id="&lt;Path&gt;" class="s7" d="m335.9 336.4l172.4 104.9 69.4-113.9-172.4-105z"/>
					<path id="&lt;Path&gt;" class="s8" d="m404.9 256.4c-7.5 8.4-4.3 21.5 6.3 25.5 5.9 2.2 12.8 0.6 17-4.1 7.6-8.4 4.4-21.6-6.2-25.6-5.9-2.2-12.8-0.5-17.1 4.2z"/>
					<g id="&lt;Group&gt;">
						<path id="&lt;Path&gt;" class="s4" d="m423.7 356.2l99.5 60.6-12.4-91.7z"/>
					</g>
					<g id="&lt;Group&gt;">
						<path id="&lt;Path&gt;" class="s9" d="m374.6 326.4l88.3 53.7-19.8-66.8z"/>
					</g>
					<g id="&lt;Group&gt;">
						<path id="&lt;Path&gt;" class="s9" d="m508.3 441.3l-172.4-104.9 15-24.5 172.3 104.9z"/>
					</g>
				</g>
				<g id="&lt;Group&gt;">
					<g id="&lt;Group&gt;">
						<g id="&lt;Group&gt;">
							<path id="&lt;Path&gt;" class="s2" d="m225.1 401.7c0 0 114.3 28.6 114.3 28.6-0.5 2.3 16-91.1-0.2-152.5-1.1-4.2-18.1-12.7-27.8-7.3-42.7 23.3-86.7 132.7-86.3 131.2z"/>
						</g>
					</g>
				</g>
				<g id="&lt;Group&gt;">
					<g id="&lt;Group&gt;">
						<path id="&lt;Path&gt;" class="s21" d="m329.9 301.5c21.2 24.1 62.9 67.1 85.7 65.7 24.2-1.5 52.2-31.8 64.6-41.7 5.3-4.2-31.9-36.4-38.5-33.4-6.5 3-24.7 23.3-30 24.6-5.2 1.3-42.5-23.7-67.6-36.2-29.6-14.5-31.4 1.4-14.2 21z"/>
						<g id="&lt;Group&gt;">
							<path id="&lt;Path&gt;" class="s21" d="m480.2 244.3c5.2 1.6 5.2 7.3 5.2 7.3 0 0 4.2-1.2 8 0.8 4.3 2.2 2.6 9.9 2.6 9.9 0 0 4.5-0.4 8.2 2.1 3.9 2.6 3.3 10.6 3.3 10.6 0 0 4.5 2 6.1 6.5 2.9 7.6-4.6 17.5-9.4 23.9-4.7 6.3-24.1 19.9-27.5 22.8l-42.3-30.5c0 0 7.8-26.9 21-40.7 5.5-5.7 18.8-14.6 24.8-12.7z"/>
							<g id="&lt;Group&gt;">
								<path id="&lt;Path&gt;" class="s4" d="m484.6 251.4c-7.4 4.6-13 11.1-19 17.2-0.1 0.2 0.1 0.4 0.2 0.2 5.9-6.2 12.9-11.1 19-17.1 0.2-0.1 0-0.4-0.2-0.3z"/>
								<path id="&lt;Path&gt;" class="s4" d="m495.3 262.1c-1.6 1-2.9 2.7-4.1 4.1q-2.1 2.4-4.1 4.8-4 4.9-7.7 9.9c-0.2 0.2 0 0.4 0.2 0.2q3.9-4.8 8.1-9.5 2.1-2.3 4.3-4.6c1.3-1.5 2.8-2.9 3.8-4.5 0.1-0.3-0.2-0.6-0.5-0.4z"/>
								<path id="&lt;Path&gt;" class="s4" d="m507.4 275.2c-1.4 0.8-2.5 2.6-3.5 3.9q-1.8 2.2-3.6 4.5c-2.4 3-4.8 5.9-7.3 8.8-0.1 0.2 0.1 0.4 0.2 0.2 2.6-2.9 5.2-5.8 7.7-8.7q1.8-2.2 3.7-4.4c1-1.2 2.5-2.7 3-4.2 0-0.1-0.1-0.2-0.2-0.1z"/>
							</g>
						</g>
					</g>
					<g id="&lt;Group&gt;">
						<path id="&lt;Path&gt;" class="s2" d="m432 297.8l39 44.2c0 0-38.7 32.3-63.1 27.1-24.3-5.2-67.3-49.8-82.3-70.8-15-21-6.2-31.2 17.3-19.4 23.5 11.9 65.6 35.4 67.1 35.7 1.6 0.4 22-16.8 22-16.8z"/>
						<g id="&lt;Group&gt;">
							<path id="&lt;Path&gt;" class="s4" d="m441.2 326.4c-2.7-3.2-5.5-6.4-8.2-9.5-1.3-1.5-2.6-3.1-4-4.5-1.5-1.6-2.9-3.4-4.4-4.9-0.1-0.1-0.3 0.1-0.2 0.2 1.1 1.8 2.6 3.5 3.9 5.2 1.2 1.6 2.5 3.2 3.7 4.8 2.6 3.2 5.3 6.5 7.9 9.7 5.4 6.4 11 12.7 16.6 18.9 0.2 0.1 0.4 0 0.3-0.2-5.1-6.7-10.3-13.2-15.6-19.7z"/>
						</g>
						<g id="&lt;Group&gt;">
							<path id="&lt;Path&gt;" class="s4" d="m441.6 361.3c-4.8 3-10.1 5.3-15.6 7-5.5 1.5-11.3 2.3-17 1.5-2.9-0.3-5.7-1.3-8.3-2.5-2.7-1.2-5.2-2.6-7.6-4.1-4.9-3-9.6-6.3-14.1-9.7-9-7.1-17.6-14.6-25.7-22.7q-6-6-11.7-12.4c-3.8-4.3-7.4-8.7-10.8-13.3 3.6 4.4 7.4 8.7 11.3 12.8q5.8 6.2 12 12.1c8.2 7.8 16.8 15.4 25.8 22.3 4.5 3.4 9.1 6.8 13.9 9.7 2.4 1.5 4.9 2.9 7.4 4.1 2.6 1.2 5.2 2.2 7.9 2.6 5.6 0.8 11.3 0.3 16.8-1.1 5.4-1.4 10.8-3.6 15.7-6.3z"/>
							<path id="&lt;Path&gt;" class="s4" d="m332.2 310c2 1.5 4.1 2.8 6.1 4.2-1.2-0.3-2.3-1-3.3-1.6-1-0.8-2-1.6-2.8-2.6z"/>
						</g>
					</g>
				</g>
			</g>
		</g>
	</g>
</svg>