<svg version="1.2" xmlns="http://www.w3.org/2000/svg" viewBox="0 0 1000 1000" width="1000" height="1000">
	<title>4950545-ai</title>
	<style>
		.s0 { fill: #ebebeb } 
		.s1 { fill: #37474f } 
		.s2 { fill: #ffffff } 
		.s3 { fill: #455a64 } 
		.s4 { fill:  #BA68C8 } 
		.s5 { fill: #000000 } 
		.s6 { fill: #263238 } 
		.s7 { fill: #fefefe } 
		.s8 { fill: #ad6359 } 
		.s9 { fill: #ff97b8 } 
		.s10 { opacity: .2;fill: #263238 } 
	</style>
	<g id="Background Complete">
		<g id="&lt;Group&gt;">
			<path id="&lt;Path&gt;" class="s0" d="m908.5 347.4h-224.3c0 0 22.3-60.8 56.5-60.8 34.2 0 44.9 42 44.9 42 0 0 23.1-22.8 42.1-22.8 18.9 0 35.4 30.1 35.4 30.1 0 0 26.8-16.2 45.4 11.5z"/>
			<path id="&lt;Path&gt;" class="s0" d="m783 137.5h-104.8c0 0 23.4-33.9 41.8-33.9 18.5 0 23.9 22.6 23.9 22.6 0 0 13-10.5 25.1-8.6 12.1 1.8 14 19.9 14 19.9z"/>
			<path id="&lt;Path&gt;" class="s0" d="m299.6 571.1h-104.8c0 0 23.4-33.9 41.8-33.9 18.5 0 23.9 22.6 23.9 22.6 0 0 13.1-10.5 25.1-8.7 12.1 1.9 14 20 14 20z"/>
			<path id="&lt;Path&gt;" class="s0" d="m295.7 329.3h-204.2c0 0 28-62.4 57.9-66.3 29.9-3.9 44.2 46.4 44.2 46.4 0 0 19.3-17.8 34.4-17.8 15.2 0 26.9 23.4 26.9 23.4 0 0 30.4-16 40.8 14.3z"/>
			<path id="&lt;Path&gt;" class="s0" d="m439.2 174.9h-138c0 0 23.7-45.2 49.4-45.9 25.7-0.7 39.2 34.2 39.2 34.2 0 0 40-32 49.4 11.7z"/>
			<path id="&lt;Path&gt;" class="s0" d="m767.5 607.3h-137.9c0 0 23.6-45.2 49.3-45.9 25.7-0.7 39.2 34.2 39.2 34.2 0 0 40-32.1 49.4 11.7z"/>
		</g>
	</g>
	<g id="Shadow">
		<path id="&lt;Path&gt;" class="s0" d="m758.3 906.3c0 15.3-115.6 27.7-258.3 27.7-142.7 0-258.3-12.4-258.3-27.7 0-15.3 115.6-27.7 258.3-27.7 142.7 0 258.3 12.4 258.3 27.7z"/>
	</g>
	<g id="Plants">
		<g id="&lt;Group&gt;">
			<g id="&lt;Group&gt;">
				<g id="&lt;Group&gt;">
					<path id="&lt;Path&gt;" class="s1" d="m354.2 728.9c-10 0.3-21.2 0.9-29.5-5.6-7.6-6-14.5-14.9-13.5-25.2 0.3-2.9 1-4.7 4.1-3.5 4.8 1.9 8.5 7.2 11.8 10.9 4.3 4.8 8.8 9.2 13.9 13.2 3.6 2.7 7.4 5.1 11 7.7q0.7 0.5 1.4 1 0.3 0.2 0.5 0.4 0.2 0 0.3 0 0.3 0 0.4 0.2 0.1 0.1 0.1 0.2c0.1 0.3-0.1 0.6-0.5 0.7z"/>
					<path id="&lt;Path&gt;" class="s2" d="m354.7 728.2c-8.8-0.2-18.3 0.2-25.4-5.7-3.2-2.8-5.9-6.3-8.1-10-1-1.6-4.1-6.6-2.8-8.5 2.3-3.6 12.7 10.9 14.2 12.3 5.5 5.2 12.3 8.3 19.4 10.1q0.7 0.5 1.4 1c-5.1-1.1-10.1-2.9-14.6-5.6-6.2-3.7-9.7-9.2-14.6-14.4-1.1-1.1-4.3-4.8-5.5-2.5-0.7 1.5 2.2 6.4 2.8 7.4 2.1 3.4 4.7 6.8 7.8 9.4 7 6.2 16.4 6 25.3 6.3q0.1 0.1 0.1 0.2z"/>
				</g>
				<g id="&lt;Group&gt;">
					<path id="&lt;Path&gt;" class="s1" d="m359.7 735q-0.1 0.5-0.2 1.1 0 0 0 0.1-0.1 0.1-0.2 0.2c-0.2 0-0.5-0.1-0.5-0.2q-0.1-0.1 0-0.3 0-0.1 0-0.1 0.1-0.2 0.1-0.4 0 0 0 0 0-0.1 0-0.1c-1.8-6.6-2.5-13.5-4.4-20.2-1.8-6.3-4-12.5-5.3-19-0.8-4-3.6-24.5 5.4-21.9 4 1.1 6.7 6.9 8.2 10.3 2.1 4.7 3.1 9.7 3.4 14.7 0.6 12.5-4 23.8-6.5 35.8z"/>
					<path id="&lt;Compound Path&gt;" fill-rule="evenodd" class="s2" d="m359.7 733.4q0 0.8 0 1.6 0 0.1 0 0.2-0.1 0.4-0.2 0.9 0 0 0 0.1-0.1-0.5-0.1-1 0 0.6-0.1 1.2c-0.2 0-0.5-0.1-0.5-0.2q0-0.2 0-0.4 0-0.3 0.1-0.5 0-0.7 0.1-1.5 0.2-0.8 0.3-1.7c-0.5-9.2-1.5-18.3-3.3-27.3-0.9-4.4-2.4-9.1-1.8-13.6 0.1-1.1 0.4-4.3 2.1-4.4 2.5-0.2 4.5 7.3 4.9 8.9 1.2 4.5 1.5 9.2 1.4 13.8-0.2 8.1-1.8 16-2.9 23.9zm1.8-17.5c0.5-4.2 0.7-8.5 0.3-12.7-0.3-3.8-0.9-10.4-3.5-13.5-3.6-4.3-3.8 2.6-3.7 4.5 0.1 2.4 0.6 4.8 1.1 7.2 0.9 4.2 1.7 8.5 2.3 12.7q1.2 8 1.6 16.1c0.7-4.8 1.5-9.5 1.9-14.3z"/>
				</g>
				<g id="&lt;Group&gt;">
					<path id="&lt;Path&gt;" class="s1" d="m365.1 762.4c-0.2 0.1-0.3 0.1-0.4 0.1-9.1-0.5-21.3 0.4-28.9-5.7-5.7-4.4-11.2-13.3-9.4-20.8 2-8.4 13.4 1.7 16.5 4.1 7.7 6.3 22.4 21.6 22.4 21.9q0.1 0.1 0.1 0.1 0 0.1 0 0.1c0.1 0.1-0.1 0.2-0.3 0.2z"/>
					<path id="&lt;Compound Path&gt;" fill-rule="evenodd" class="s2" d="m365.1 762.4q-0.1 0-0.2-0.1-0.5-0.1-0.9-0.2c-7-1.8-14.4-2.7-20.5-6.5-2.6-1.6-5-3.7-6.9-6.2-1.1-1.3-4.5-5.4-3.6-7.4 1.6-3.2 11.9 5.9 13.3 7 5.7 4.3 11.5 8.4 17.5 12.2q0.8 0.5 1.6 1c0.1 0.1-0.1 0.2-0.3 0.2zm-1.3-0.7q-6.7-4.2-13.1-8.8-3.9-2.9-7.6-5.9c-1.5-1.1-2.9-2.3-4.4-3.3q-0.9-0.6-1.9-1.1c-1.5-0.7-2.1-1.4-2.9-0.2-1.4 2.3 4 7.8 5.5 9.2 2.3 2.2 5 4.1 7.9 5.4 5.2 2.3 11 3 16.5 4.7z"/>
				</g>
				<g id="&lt;Group&gt;">
					<path id="&lt;Path&gt;" class="s1" d="m381.8 743.6c-2.3 10.5-7.9 20-15.7 27.4q0 0.1-0.1 0.1c-0.2 0.1-0.4 0-0.5-0.2-0.1-0.1-0.1-0.3 0-0.5q0.3-0.2 0.5-0.5c1.5-12.4 3.2-24.8 4.5-37.3 0.3-2.9 2.6-21.7 8.3-18.6 3.6 1.9 3.8 9.6 4.1 13 0.5 5.5 0.1 11.2-1.1 16.6z"/>
					<path id="&lt;Compound Path&gt;" fill-rule="evenodd" class="s2" d="m378.5 739.8q-0.7 6.3-2.6 12.4c-2.1 6.2-5.2 12.3-9.1 17.6q0 0 0 0-0.4 0.5-0.8 1 0 0.2 0 0.3c-0.2 0.1-0.4 0-0.5-0.2q0.3-0.4 0.6-0.7 0.3-1.3 0.6-2.5c2.4-9.9 4.8-19.5 6.3-29.6 0.4-2.4 1.3-11.2 3.5-12.6 1.2-0.7 1.7 0.4 2 1.4 1.2 3.8 0.5 9.1 0 12.9zm-0.2-7.9c0-0.7 0-2.1-0.1-2.9-0.1-1-0.1-2.9-1.5-2.1-1.3 0.8-2.1 5.5-2.5 7.1-0.8 3.9-1.2 7.9-1.9 11.8-1.3 7.7-3.3 15.4-5.6 22.8q-0.1 0.5-0.3 1 0.2-0.2 0.4-0.5c7.6-10.9 11.7-23.6 11.5-37.2z"/>
				</g>
				<path id="&lt;Path&gt;" class="s1" d="m367.7 797.8h-1.9q0-2.4-0.1-4.8c-0.2-6.5-0.5-13-0.8-19.5-0.3-3.7-0.5-7.4-0.9-11q0-0.2 0-0.4-0.1-0.5-0.2-0.9 0-0.5-0.1-1c-1-8.2-2.7-16.2-6.3-23.9-1.1-2.5-2.4-5-3.7-7.4q-0.2-0.4-0.4-0.7-0.1-0.1-0.1-0.2-0.2-0.4-0.4-0.7-0.2-0.3-0.4-0.6c-4.2-7.4-9-14.6-13.6-21.7q-2-3.1-4-6.2-0.1-0.2-0.2-0.4-0.1-0.2-0.3-0.4c-5.8-9.2-11.4-18.3-17.4-27.3-0.3-0.3 0.3-0.6 0.5-0.3 4 6 8.2 11.8 12.4 17.7q0.8 1.1 1.7 2.3 1.6 2.3 3.2 4.6 3.3 4.7 6.4 9.4c5.9 8.8 12.1 17.7 16.9 27.3q0.5 1 1 2.1 0.4 0.7 0.7 1.4 0.3 0.8 0.7 1.6c4 9.3 5.5 18.9 6.1 28.8q0.1 1 0.2 2.1 0 0.4 0 0.9 0 0.3 0.1 0.5 0 0.4 0 0.7 0 0 0 0 0 0.3 0 0.5 0 0.9 0.1 1.8c0.2 6.5 0.4 13 0.6 19.5q0 3.1 0.2 6.2z"/>
				<g id="&lt;Group&gt;">
					<path id="&lt;Path&gt;" class="s1" d="m313 680c-5-6.7-11.4-20.6-4-27.9 2.9-2.9 7.1-3.2 10.4-0.7 3.9 2.8 5.7 8.1 6.9 12.5 3.4 11.8 5.7 23.8 9.9 35.4 0.1 0.1 0.4 1 0.5 1.2 0.1 0.3-0.3 0.4-0.4 0.1q-0.2-0.5-0.4-1.1c-8-5.8-17-11.5-22.9-19.5z"/>
					<path id="&lt;Compound Path&gt;" fill-rule="evenodd" class="s2" d="m336.3 699.5c0 0.2-0.2 0.3-0.4 0.2q0 0-0.1-0.1-0.1-0.1-0.1-0.2-0.1-0.2-0.2-0.3-0.4-0.3-0.9-0.7c-6.5-4.8-12.7-10.2-16.6-17.4-2-3.6-3.4-7.5-3.9-11.6-0.3-2.5-0.5-6.2 1.3-8.3 4.5-4.9 8.1 7.5 8.9 10 2.1 6.6 4.3 13.1 7.2 19.3 1.4 3 2.9 5.9 4.6 8.7q0.1 0.1 0.2 0.2 0 0.1 0 0.2zm-1-0.8c-2.1-3.4-3.9-7-5.5-10.6q-1.4-3.2-2.6-6.5c-1.2-3.3-2.2-6.5-3.3-9.8-0.6-2-1.2-4-2-5.9q-0.5-1.1-1.1-2.2c-1.3-2.1-1.9-3.2-3.7-2.9-1.5 0.3-2.6 3.1-2.7 5.6 0 1.1 0.1 2.3 0.2 3.5 0.2 1.5 0.6 3.1 1 4.5 1 3.4 2.7 6.5 4.6 9.4 3.8 5.5 8.9 10 14.1 14.2q0.5 0.4 1 0.7z"/>
				</g>
			</g>
			<g id="&lt;Group&gt;">
				<g id="&lt;Group&gt;">
					<g id="&lt;Group&gt;">
						<path id="&lt;Path&gt;" class="s1" d="m646.7 698.9c-0.9 6.6-2.1 13.2-3.5 19.8-0.8 3.8-1.6 7.5-2.3 11.3-0.9 4.1-2.1 8.3-1 12.4q0.1 0.1 0.1 0.1c0 0 0 0.5 0 0.5q0 0.1 0 0.1c-0.2 0.3-0.8 0.3-0.9-0.1q0-0.2-0.1-0.3 0-0.1 0-0.1c-0.8-1-1.2-2.8-1.5-3.5-1.3-3.1-2.4-6.4-3.3-9.6-1.9-6.7-3.1-13.7-3.3-20.6-0.1-6.3 0.5-12.6 2-18.6 1.2-4.9 2.9-12.1 6.5-15.8 3.3-3.4 6 2 6.9 4.7 2.2 6.2 1.1 13.3 0.4 19.7z"/>
						<path id="&lt;Compound Path&gt;" fill-rule="evenodd" class="s2" d="m640.9 714.3c-1 8-2.2 16.1-1.5 24.1q0 1.1 0.2 2.2 0.1 1.3 0.4 2.5c-0.2 0.3-0.8 0.3-0.9-0.2q0-0.1-0.1-0.2 0-0.1 0-0.1-0.3-0.6-0.4-1.1c-3.2-9.4-5.2-19.2-5.1-29.2 0.1-5.5 0.7-11 2.1-16.4 0.9-3.4 2.6-11.2 5.1-11.2 3.2 0 1.3 20.3 0.2 29.6zm-1.1 4.3c0.6-5.3 1.4-10.6 1.8-15.9 0.2-2.4 0.4-4.9 0.4-7.3q0.1-1.8 0-3.6c0-0.1-0.3-6-1.3-6.3-1.5-0.3-3.3 6.3-3.6 7.3q-1.2 3.8-1.9 7.7c-0.9 4.9-1.3 9.8-1.1 14.7 0.2 8.8 2 17.3 4.6 25.7q0.3 1.2 0.7 2.3-0.3-1.6-0.5-3.2c-0.8-7.1 0-14.4 0.9-21.4z"/>
					</g>
					<g id="&lt;Group&gt;">
						<path id="&lt;Path&gt;" class="s1" d="m685 717.3c-4.4 8.7-12 15.4-19.8 21.1-4.1 3.1-8.4 6-12.7 8.9-3.5 2.5-7.8 5.2-11 8.5q-0.2 0.2-0.4 0.5-1.3 1.4-2.3 3.1-0.1 0.1-0.2 0.1 0 0.2-0.1 0.4c-0.1 0.1-0.2 0.1-0.2 0q0-0.2 0.1-0.5 0 0 0 0-0.2-0.1-0.1-0.3 0.1-0.1 0.1-0.2 0-0.2 0.1-0.4c1.2-10.2 8.4-20.5 14.4-28.4 6-7.8 13.5-14.8 22.8-18.3 2.3-0.9 7.7-3.4 10-1.5 2.2 1.7 0.3 5.2-0.7 7z"/>
						<path id="&lt;Compound Path&gt;" fill-rule="evenodd" class="s2" d="m673.8 726.2c-3.8 4.6-8.3 8.7-12.9 12.5-6.6 5.5-13.5 10.8-19.4 17.1q-0.2 0.2-0.4 0.4-1.3 1.4-2.4 2.9-0.2 0.1-0.3 0.3c-0.1-0.1-0.1-0.2-0.1-0.3q0.1-0.1 0.1-0.2 0-0.2 0.1-0.4 0.1-0.1 0.2-0.3c4-8.9 9.9-16.6 16.5-23.9 4.1-4.5 8.2-8.9 13-12.6 1.5-1.2 7.8-6.5 9.9-4.4 1.8 1.8-3.3 7.7-4.3 8.9zm1.9-8.4c-1.2 0.3-3.2 1.6-4.3 2.3-2.2 1.5-4.3 3.3-6.4 5.1-3.7 3.4-7.1 7.1-10.5 10.8-5.8 6.5-11.4 13.6-15.3 21.5 4.4-5.2 9.5-9.6 14.8-13.9 7.7-6.4 16.9-12.8 22.2-21.6 0.9-1.5 2.5-5.1-0.5-4.2z"/>
					</g>
					<g id="&lt;Group&gt;">
						<path id="&lt;Path&gt;" class="s1" d="m637.4 780.2c-0.1 0.1-0.3 0.2-0.4 0.2q0 0.1 0.1 0.2c0 0.1 0 0.2-0.1 0.2 0 0.1-0.1 0.1-0.2 0-8.2-8.4-16.2-18.6-20.3-29.8-1.8-4.7-2.8-9.6-3-14.7-0.1-3.4-0.3-10.3 2.7-12.8 5.9-5 11.3 16.3 12.1 19.5 1.4 5.9 2.4 11.9 3.8 17.7 1.4 6.5 3.4 12.8 5.3 19.1q0.1 0.2 0 0.4z"/>
						<path id="&lt;Compound Path&gt;" fill-rule="evenodd" class="s2" d="m637 780.4q0 0.1 0.1 0.2c0 0.1 0 0.2-0.1 0.2q-0.2-0.3-0.4-0.6c-5.4-6.7-10-14.2-13.6-22-2.1-4.7-3.8-9.6-4.8-14.6-0.4-2.3-1.2-10.9-0.2-12.1 2-2.3 3.4 2.3 3.9 3.5 1.9 4.7 2.9 9.9 3.9 14.9 2.3 10.3 5.6 19.6 10.7 28.6q0.4 0.9 0.9 1.7c-0.1 0.1-0.2 0.2-0.4 0.2zm-1-1.7c-3.6-5.8-6.3-12.2-8.2-18.7-1.4-4.5-2.3-9.2-3.3-13.8q-0.7-3.5-1.6-7c-0.5-1.5-1-3.2-1.7-4.7-1.2-2.3-1.7-2.7-2.1-2.7-0.7 0.2-1 1.2-1 5.1 0 1.6 0.2 3.2 0.4 4.7q0.4 3.1 1.2 6c1.4 5 3.4 9.7 5.7 14.2 3.1 6 6.6 11.6 10.6 16.9z"/>
					</g>
					<g id="&lt;Group&gt;">
						<path id="&lt;Path&gt;" class="s1" d="m663.9 759.7c-0.8 4.1-3 7.9-5.4 11.3-4.9 6.8-11.2 12.4-16.5 18.8q-1.2 1.4-2.4 2.9c0 0.2-0.7 1.6-0.7 1.5 0-0.1 0.1-0.6 0.3-1.5 0.9-4.5 3.7-18.1 7.2-25 2.2-4.3 4.7-8.6 7.9-12.3 1.5-1.7 5-5.4 7.7-4.6 2.9 0.9 2.4 6.8 1.9 8.9z"/>
						<path id="&lt;Compound Path&gt;" fill-rule="evenodd" class="s2" d="m657.6 764.4c-1.7 3.8-3.7 7.4-6 11-3.1 4.8-6.4 9.6-9.6 14.4q-1 1.2-2 2.4-0.2 0.3-0.4 0.5c0 0.2-0.6 1.5-0.7 1.5 0-0.1 0.1-0.6 0.3-1.5q0.3-1.2 0.7-2.4c1.9-7.1 4.7-13.8 8.4-20.2 1-1.7 8.4-14.9 11.3-13.1 1.2 0.8-1.6 6.5-2 7.4zm1.1-6.6c-0.5-0.3-2.2 1.4-2.8 2.1-1.3 1.4-2.4 3.3-3.5 4.9q-3.2 4.6-5.7 9.5c-2.8 5.4-5 11-6.8 16.8q-0.1 0.4-0.2 0.9 0.1-0.3 0.3-0.5c6.3-10.2 14.7-19.3 18.7-30.8 0.3-0.8 0.9-2.5 0-2.9z"/>
					</g>
					<g id="&lt;Group&gt;">
						<path id="&lt;Path&gt;" class="s1" d="m692.8 664.8c-8.6 19.6-31 28.7-40.7 47.6q0 0.1 0 0.1-0.5 0.9-0.9 1.8c-0.1 0.3-0.4 0.2-0.6 0.1q-0.1-0.2 0-0.4 0.1-0.2 0.2-0.4c1.5-11.8 6.3-23.9 11.9-34.3 4.9-9 11.7-17.5 21-22.2 2.3-1.2 6.7-3.7 9.3-1.8 2.7 2.1 0.8 7.1-0.2 9.5z"/>
						<path id="&lt;Compound Path&gt;" fill-rule="evenodd" class="s2" d="m671 686.1c-4.4 4.9-9 9.7-12.8 15.1-2.4 3.6-4.4 7.3-6.1 11.2q0 0.1 0 0.2c-0.3 0.5-0.6 1.1-0.9 1.7-0.1 0.3-0.4 0.2-0.6 0.1q0.1-0.4 0.2-0.8 0.7-3 1.7-6c2.8-8.7 7.3-17 12.1-24.6 2.9-4.5 6.3-8.8 10.4-12.3 1.9-1.7 4.1-3.2 6.4-4.4 1-0.5 2.6-1.5 3.7-0.7 3.7 2.8-12.4 18.6-14.1 20.5zm13.8-19.7c-0.7-0.9-3.2 0.2-6 2-2.5 1.7-4.7 3.6-6.7 5.8-3.8 3.9-6.8 8.5-9.5 13.1q0 0.1-0.1 0.2c-3 5.3-5.9 10.8-8.2 16.5q-0.1 0.1-0.1 0.1c-1.3 3.2-2.5 6.5-3.3 9.8 1.2-3.2 2.8-6.4 4.6-9.4 2.2-3.6 4.8-7 7.5-10.2 3.5-4 7.1-7.9 10.6-11.9 3.5-3.9 7.5-7.6 10.1-12.2 0.8-1.4 1.5-3.2 1.1-3.8z"/>
					</g>
				</g>
				<path id="&lt;Path&gt;" class="s1" d="m663 687.8c-2.6 5.5-5 11.1-7.5 16.7q-1.7 4-3.4 7.9 0 0.1 0 0.2-0.7 1.4-1.3 2.8c-3.7 8.6-7.7 17.4-10 26.5-1.2 4.8-1.8 9.8-2 14.8q-0.1 0.7-0.1 1.5 0 0.4 0 0.9 0 0.2 0 0.4c-0.2 4.3-0.1 8.6-0.1 12.8 0.2 5.9 0.6 11.7 1.2 17.5q0 0.2 0.1 0.5 0 0.4 0 0.8 0 0.2 0.1 0.4 0 0.4 0 0.7 0.3 2.8 0.5 5.6h-1.7c-1.2-5.6-1.9-11.4-2.2-17.2q0-0.2 0-0.4-0.1-0.8-0.1-1.7-0.1-1-0.1-2.1-0.1-2.5-0.1-4.9c-0.2-9.6-0.1-19.6 2-28.9q0.1-0.4 0.2-0.8 0-0.2 0.1-0.3 0-0.3 0.1-0.6l0.2-0.9q0.2-0.8 0.5-1.6 0-0.2 0.1-0.4c2.5-8.2 6.3-16.1 9.9-23.8q0.9-2.1 1.9-4.2 0.6-1.2 1.2-2.4 0.8-1.7 1.7-3.5 0 0 0.1-0.1c2.7-5.5 5.5-10.9 8.2-16.5 0.2-0.2 0.6 0 0.5 0.3z"/>
			</g>
		</g>
		<g id="&lt;Group&gt;">
			<path id="&lt;Path&gt;" class="s1" d="m323.2 797.3h-125.3c0 0 0.3-18.6 12.6-23.6 12.3-4.9 19.7 4.7 19.7 4.7 0 0 5-34.3 27.9-34.3 23 0 34 29.6 34 29.6 0 0 5.1-8.9 17.9-7.3 12.7 1.7 13.2 30.9 13.2 30.9z"/>
			<path id="&lt;Path&gt;" class="s1" d="m895.2 797.3c0 0-3.9-17.9-11.5-20.7-7.7-2.7-12.4 5.3-12.4 5.3 0 0-1.8-17.1-12.7-22.3-10.8-5.1-19 5.4-19 5.4 0 0-8.4-21.7-23.3-21.7-14.9 0-22.4 31.8-22.4 31.8 0 0-8.8-9.5-17.8-4.1-9 5.3-9 26.3-9 26.3z"/>
			<path id="&lt;Path&gt;" class="s3" d="m220.4 797.3h-115.6c0 0 3.8-16.3 11.5-17.4 7.7-1.2 11.2 6.4 11.2 6.4 0 0-0.3-22.8 14-26.6 14.3-3.9 26.3 16.2 26.3 16.2 0 0 9-11.5 21.2-10.7 12.2 0.7 15.3 19.6 15.3 19.6 0 0 11.2-6.6 16.1 12.5z"/>
			<path id="&lt;Path&gt;" class="s3" d="m775.3 797.3h-70.9c0 0 0.1-10.6 7.1-13.4 7-2.8 11.1 2.7 11.1 2.7 0 0 2.9-19.4 15.9-19.4 13 0 19.2 16.7 19.2 16.7 0 0 2.9-5 10.1-4.1 7.3 1 7.5 17.5 7.5 17.5z"/>
		</g>
	</g>
	<g id="Tree">
		<g id="&lt;Group&gt;">
			<g id="&lt;Group&gt;">
				<g id="&lt;Group&gt;">
					<path id="&lt;Path&gt;" class="s4" d="m374.3 286.7c0 19.1 0 110.6 86 125.5 0 0 1.4 9.7 4.2 24.8 3.2 18.3 8.5 44.6 15.4 71.4q0 0.1 0.1 0.2c2.4 9.2 5 18.4 7.8 27.4q0 0.1 0 0.2 0.4 1.3 0.8 2.6c5.8 18.4 10.2 35.8 13.4 52.3 26.4 136.8-29.9 206.7-29.9 206.7h118.4c0 0 29.4-128-32.9-256.4-11.5-23.8 34.3-43.1 54.3-87.4 17-37.4 16.5-221.8 8.3-233.7-8.3-11.9-21.4-8.9-21.4 7.5 0 16.3 0 169.4-11.6 199.1-11.5 29.7-60.7 65.4-60.7 65.4 0 0-25.3-41.4-39.5-132.1q0 0 0 0c-6.7-42.6-10.9-96.1-8.8-161.4q0 0 0 0 0.6-20.7 2.2-43c1.1-17-16.5-9.5-22.4 5.4-5.9 14.9-14.2 101-2.4 217 0 0-58.9-8.3-58.9-101.1 0-17-22.4-9.6-22.4 9.6z"/>
				</g>
				<g id="&lt;Group&gt;" style="opacity: .5">
					<path id="&lt;Path&gt;" class="s5" d="m374.3 286.7c0 19.1 0 110.6 86 125.5 0 0 1.4 9.7 4.2 24.8 3.2 18.3 8.5 44.6 15.4 71.4q0 0.1 0.1 0.2c2.4 9.2 5 18.4 7.8 27.4q0 0.1 0 0.2 0.4 1.3 0.8 2.6c5.8 18.4 10.2 35.8 13.4 52.3 26.4 136.8-29.9 206.7-29.9 206.7h118.4c0 0 29.4-128-32.9-256.4-11.5-23.8 34.3-43.1 54.3-87.4 17-37.4 16.5-221.8 8.3-233.7-8.3-11.9-21.4-8.9-21.4 7.5 0 16.3 0 169.4-11.6 199.1-11.5 29.7-60.7 65.4-60.7 65.4 0 0-25.3-41.4-39.5-132.1q0 0 0 0c-6.7-42.6-10.9-96.1-8.8-161.4q0 0 0 0 0.6-20.7 2.2-43c1.1-17-16.5-9.5-22.4 5.4-5.9 14.9-14.2 101-2.4 217 0 0-58.9-8.3-58.9-101.1 0-17-22.4-9.6-22.4 9.6z"/>
				</g>
			</g>
			<g id="&lt;Group&gt;" style="opacity: .1">
				<g id="&lt;Group&gt;">
					<path id="&lt;Path&gt;" class="s5" d="m531.8 540.1c6.8 23.2 16.1 45.7 22.8 69 6.8 23.3 12.2 47.4 15.3 71.3 3 23.2 3.8 46.7 2.3 70-1 16-4.7 31.7-7.5 47.4h10.8c12.8-36.6 11.1-78 4.5-115-4.4-24.4-11.2-48-19-71.6-7.9-24-15.5-48.6-25.6-72-0.9-1.9-4.2-1.2-3.6 0.9z"/>
					<path id="&lt;Path&gt;" class="s5" d="m484.2 401.9c4.7 48.9 26.3 96.4 41.8 143 15.8 47.6 21.6 96.2 18.7 145.8-0.1 1.1-2.1 1.1-2.1 0-0.5-26.7-0.9-53.6-6.4-79.9-5-23.8-12.9-47.2-20.7-70.3-7.8-22.6-16.4-45.1-22.8-68.1-6.4-23.2-9.7-46.6-10.8-70.5-0.1-1.3 2.1-1.3 2.3 0z"/>
					<path id="&lt;Path&gt;" class="s5" d="m484.4 797.8h11.9c3.3-6.6 6.3-13.4 9.1-20 8.5-19.5 14.8-39.8 18.7-60.5 7.7-40.8 5.9-81.2-3.4-121.6-0.2-1.2-2.1-0.7-1.9 0.4 7 40.2 5 82.5-4.3 122.2-4.6 19.5-10.7 38.5-18.7 57.1-3.4 7.7-7.3 15.1-11.4 22.4z"/>
					<path id="&lt;Path&gt;" class="s5" d="m528.7 745.1c2.8-9 4.4-20.1 9.1-28.4 1.8-3.3 4.8-5.5 8.4-5.7q0.4-0.2 0.9-0.1 0.6 0 1.2 0.1 1.1 0.2 2.2 0.5c1.5 0.5 3.1 1.5 3.4 3.1q0 0.1 0 0.2c5.3 7.5 3.3 23.5 2.6 29.4-1.1 9.2-3.9 33.4-19.9 31.2-15.5-2.1-10.5-21.6-7.9-30.3z"/>
					<path id="&lt;Compound Path&gt;" class="s5" d="m464.5 437c3.2 18.3 8.5 44.6 15.4 71.4q0 0.1 0.1 0.2 1.3 4.5 2.7 9.1c1.8 6.1 3.5 12.2 5.1 18.3q0 0.1 0 0.2 0.4 1.3 0.8 2.6c5.8 18.4 10.2 35.8 13.4 52.3 2.7-23-1.7-45.8-8.4-68.6-8.6-29-18.2-57.4-29.1-85.5z"/>
					<path id="&lt;Path&gt;" class="s5" d="m609.1 377.9c-0.1-1.7 0.3-3.3 1.1-4.9 0.6-1.2 2.5-1.8 3.9-1.6 1.6 0.2 2.6 1.1 3.1 2.5q0.1 0.2 0.2 0.5c0.3 0.3 0.5 0.6 0.5 1.1q0.3 1.1 0.1 2.2c1.1 1.8 0.2 4.1-1.3 5.7-2 1.8-5 1.1-6.4-0.8-1.1-1.4-1.5-3.1-1.2-4.7z"/>
					<path id="&lt;Path&gt;" class="s5" d="m542.1 497.6c27.9-29.8 60.7-64.8 60.6-106.1 0-1 1.6-0.9 1.7 0 6.3 45.4-25.8 79.1-60 108.2-1.6 1.4-3.7-0.7-2.3-2.1z"/>
					<path id="&lt;Path&gt;" class="s5" d="m546.3 517.5c1.4-7.4 7.8-13.7 13.2-19.2 7.4-7.3 15.3-13.9 21.5-22.1 0.8-1 2.7-0.1 2 1.1-4.6 7.3-10.3 13.8-16.3 20.2-6.3 6.8-11.5 14.8-18.1 21.2-1 1-2.5 0-2.3-1.2z"/>
					<path id="&lt;Path&gt;" class="s5" d="m615.3 246.7c0-0.8 1.3-0.8 1.4 0 5.4 36.2 6.2 74.9-1.2 111-0.2 1.2-2.2 0.9-2.2-0.2 0-36.9 2-73.9 2-110.8z"/>
					<path id="&lt;Path&gt;" class="s5" d="m606.6 302.8c0-0.3 0.5-0.3 0.5 0 0.2 23.9 0.2 49.8-5.7 73.2-0.3 1.4-2.7 1.1-2.7-0.3 0.2-24.1 5-48.9 7.9-72.9z"/>
					<path id="&lt;Path&gt;" class="s5" d="m394.7 340.7c6.1 15.9 12.8 30.1 26.9 41.6 6.5 5.3 13.7 9.9 21.4 13.6 7.5 3.5 15.8 5.1 23.1 8.7 1.1 0.5 0.5 1.8-0.6 1.9-17.4 1.9-37.3-10.9-48.7-21.7-12.2-11.8-23.2-27.3-24.4-43.8-0.1-1.3 1.9-1.4 2.3-0.3z"/>
					<path id="&lt;Path&gt;" class="s5" d="m392.1 304.8c3.6 29.6 20.9 54.6 43.7 75.4 0.6 0.6-0.2 1.6-1 1.1-28.3-16.9-42.2-46.8-43.2-76.5 0-0.3 0.5-0.3 0.5 0z"/>
					<path id="&lt;Path&gt;" class="s5" d="m458.9 240c0.1-1.1 2-1.2 2 0-1.3 65.8 12.8 130.5 18.4 195.9 0.1 1.1-1.9 1.3-2.2 0.2-6.4-32-11.3-64.6-15.3-97-4-33-6.2-66.1-2.9-99.1z"/>
					<path id="&lt;Path&gt;" class="s5" d="m467.9 278.2c1.9 27.1 8.1 55.9 19.1 82-6.7-42.6-10.9-96.1-8.8-161.4-3 9.2-5.7 18.4-7.5 27.8-3.1 17.1-4 34.4-2.8 51.6z"/>
					<path id="&lt;Path&gt;" class="s5" d="m459.7 203.6c1-5.8 3.8-11.2 5-17 0.3-1.2 2.5-1.3 2.8 0 0.9 5-0.9 9.3-2.3 14.2-2.1 6.8-2.5 13.8-3.5 20.8-0.2 1.3-2.2 1.4-2.3 0-0.6-5.9-0.7-12.1 0.3-18z"/>
					<path id="&lt;Path&gt;" class="s5" d="m538.1 524.2c16.4 25.4 26.5 52.9 32.7 81.6 0.3 1.2-1.5 1.7-1.9 0.5-10.2-27.3-21.8-54.3-32.6-81.4-0.3-1 1.3-1.5 1.8-0.7z"/>
					<path id="&lt;Path&gt;" class="s5" d="m508.7 547.2c5.3 9.8 11.2 24.2 8.8 35.3 0 0.2-0.4 0.2-0.5 0-2.9-4.9-3.6-10.6-5-16-1.7-6.2-3.8-12.3-5.5-18.5-0.3-1.1 1.6-2 2.2-0.8z"/>
					<path id="&lt;Path&gt;" class="s5" d="m544.9 793.9c7.9-10 12.2-20.4 14.5-32.4 2.8-14.1 5.7-29.2 2.9-43.4-2.3-11.6-6.8-22.6-8.5-34.4-2.1-14.2-2.2-28.1-0.6-42.3 0.1-0.9 1.6-1 1.6 0-0.7 16.3 0.9 32.7 5.2 48.6 3.6 13.2 9.3 25.9 9.2 39.6-0.1 21-3.6 51-22.2 65.7-1.1 0.9-3-0.3-2.1-1.4z"/>
					<path id="&lt;Path&gt;" class="s5" d="m519.8 797.8h7c0.5-3.3 0.2-6.6-0.9-10.5-2.4-8.1-7-17.1-5.6-25.8 0-0.4-0.7-0.9-1-0.3-5.8 12.1-1.1 24.3 0.5 36.6z"/>
					<path id="&lt;Path&gt;" class="s5" d="m521.6 753.7c0 0 0.1 0 0 0.1q-1 1.6-0.8 3.4c0 0-0.1 0-0.1 0q-0.1-1.9 0.9-3.5z"/>
				</g>
			</g>
		</g>
	</g>
	<g id="Floor">
		<g id="&lt;Group&gt;">
			<path id="&lt;Path&gt;" class="s6" d="m91.5 797.8l102.1-0.5 102.2-0.1 204.2-0.4 204.2 0.4 102.2 0.1 102.1 0.5-102.1 0.5-102.2 0.2-204.2 0.3-204.2-0.3-102.2-0.2z"/>
		</g>
	</g>
	<g id="Social Icons">
		<g id="&lt;Group&gt;">
			<g id="&lt;Group&gt;">
				<g id="&lt;Group&gt;">
					<path id="&lt;Path&gt;" class="s1" d="m812.1 496c0 24.9-20.1 45-45 45-24.8 0-45-20.1-45-45 0-24.9 20.2-45 45-45 24.9 0 45 20.1 45 45z"/>
				</g>
				<path id="&lt;Compound Path&gt;" fill-rule="evenodd" class="s2" d="m767.1 530c-12.1-13.9-23.5-29.3-21.9-46.2 1.1-10.9 8.7-21.8 21.9-21.8 13.3 0 20.8 10.9 21.9 21.8 1.7 16.9-9.7 32.3-21.9 46.2zm12-46c0-6.6-5.3-12-12-12-6.6 0-12 5.4-12 12 0 6.6 5.4 12 12 12 6.7 0 12-5.4 12-12z"/>
			</g>
			<g id="&lt;Group&gt;">
				<path id="&lt;Path&gt;" class="s3" d="m589.3 154c0 52.4-42.5 95-95 95-52.5 0-95-42.6-95-95 0-52.5 42.5-95 95-95 52.5 0 95 42.5 95 95z"/>
				<path id="&lt;Path&gt;" class="s2" d="m492 127.6c-0.2 6.1-0.1 12.2-0.1 18.7h23.6c-1 7.8-1.8 15-3 22.1-0.1 0.8-1.9 1.6-2.9 1.7-5.7 0.1-11.3 0.1-17.5 0.1v78.7c-8.7-0.2-17.1-1.5-25.1-3.9v-74.7h-20.6v-23.7h20.2c0.1-1.8 0.2-3.3 0.2-4.6 0.2-6.3-0.1-12.6 0.5-18.8 1.3-13.6 9.7-23.1 23.1-25 8.4-1.1 17.1-0.2 25.8-0.2v21.6c-3.1 0-6.2-0.1-9.3 0-2.7 0-5.6-0.1-8.3 0.5-3.8 0.9-6.5 3.5-6.6 7.5z"/>
			</g>
			<g id="&lt;Group&gt;">
				<path id="&lt;Path&gt;" class="s3" d="m416.2 413.4c0 52.4-42.6 95-95 95-52.5 0-95-42.6-95-95 0-52.5 42.5-95 95-95 52.4 0 95 42.5 95 95z"/>
				<g id="&lt;Group&gt;">
					<path id="&lt;Path&gt;" class="s2" d="m269.3 457.9c12.6 0.3 24-2.8 34.2-10.5-14.1-4.3-19.8-8.6-21.8-16.7q4.7-0.2 9.4-0.4c-11.1-4.3-17.7-11.8-18.6-24.1 3.5 0.9 6.6 1.7 9.8 2.6-10.2-12.9-12.3-22.9-6.2-32.3 13.3 15.2 29.8 23.8 50.2 25.2-0.1-1.6-0.2-2.8-0.2-4-0.4-10.6 4-18.6 13.5-23.3 9.3-4.6 18.5-3.4 26.6 3.2 1.8 1.5 3.4 1.9 5.4 1.2 3.8-1.5 7.7-2.9 11.9-4.4-1.8 5.1-5.1 8.9-9.4 12q0.2 0.3 0.3 0.6 5.9-1.5 11.7-3 0.3 0.3 0.5 0.5c-3 3-5.9 6.2-9.1 9.1-1.7 1.5-2.6 2.8-2.6 5.2 0.1 35.9-26.9 65.7-62.5 68.9-14.4 1.3-28-1.3-40.8-8.3-0.8-0.5-1.5-1-2.3-1.5z"/>
				</g>
			</g>
			<g id="&lt;Group&gt;">
				<path id="&lt;Path&gt;" class="s3" d="m585.7 514c0 36.8-29.8 66.7-66.6 66.7-36.8 0-66.6-29.9-66.6-66.7 0-36.8 29.8-66.6 66.6-66.6 36.8 0 66.6 29.8 66.6 66.6z"/>
				<g id="2dqxSk.tif 1 ">
					<g id="&lt;Group&gt;">
						<path id="&lt;Path&gt;" class="s2" d="m493 479.1q0.1 0.1 0.3 0.1 3.1 0.2 5.3 2.4 1.9 1.9 2.3 4.6 0.7 4.7-2.8 7.8c-1.1 1-2.5 1.6-4 1.9q-1.1 0.2-2.3 0.1c-3.5-0.4-6.4-2.8-7.3-6q-0.2-0.9-0.3-1.7c0-0.2 0.1-0.3-0.1-0.3q0-0.4 0-0.8c0.1 0 0.1-0.2 0.1-0.3q0.1-0.3 0.1-0.7c0.3-1.6 1-3.1 2.1-4.3q2.3-2.5 5.6-2.7 0.1 0 0.3-0.1 0.3 0 0.7 0z"/>
						<path id="&lt;Path&gt;" class="s2" d="m523 508.5q0.1-0.2 0.2-0.3 1-1.6 2.4-2.9 2.9-2.7 6.8-3.6c1.2-0.3 2.5-0.5 3.8-0.5q1.3-0.1 2.6 0c2.4 0.2 4.9 0.7 7.1 1.8 2.3 1.1 4.1 2.8 5.4 5.1 0.8 1.4 1.3 2.9 1.7 4.5q0.5 1.6 0.7 3.2 0.1 0.9 0.1 1.7 0.1 1.5 0.2 3.1 0 0 0 0.1 0.1 1.4 0.1 2.9 0 4.9 0 9.8 0 7.5 0 14.9c0 0.6 0 0.6-0.6 0.6q-3.1 0-6.3 0-2.9 0-5.8 0-0.5 0-1 0.1 0 0-0.1 0c-0.7-0.1-0.7-0.2-0.7-0.8q0-6.1 0-12.3 0-6.1 0-12.2c0-1.6-0.2-3.1-0.6-4.6-0.3-0.9-0.6-1.7-1.2-2.5-0.8-1.3-2.1-2.1-3.6-2.4q-0.9-0.2-1.8-0.2c-0.6 0-1.2 0-1.9 0.1-2.7 0.3-4.7 1.6-5.9 4.2-0.4 1.1-0.7 2.3-0.9 3.5q-0.2 1.9-0.2 3.8 0 11.2 0 22.4 0 0.3 0 0.6c-0.1 0.2-0.2 0.3-0.4 0.3q-0.2 0-0.4 0-3.6 0-7.1 0-2.3 0-4.6 0-0.6 0-1.3 0.1-0.1 0-0.2 0c-0.6-0.1-0.6-0.3-0.6-0.7q0-0.3 0-0.7 0-14.7 0-29.5 0-7.5 0-14.9 0-0.2 0-0.4c0-0.3 0.1-0.5 0.5-0.5q0.1 0 0.2 0 6.3 0 12.6 0 0.1 0 0.2 0c0.3 0 0.5 0.1 0.5 0.5q-0.1 0.8-0.1 1.7 0 1.2 0 2.4 0.1 0.6 0.1 1.2 0 0.2 0 0.4 0 0 0.1 0z"/>
						<path id="&lt;Path&gt;" class="s2" d="m485.3 525.6q0-11.3 0-22.6 0-0.2 0.1-0.4 0-0.3 0.2-0.3 0.2 0 0.4 0 6.6 0 13.2 0 0.1 0 0.1 0c0.5 0 0.6 0.2 0.6 0.7q0.1 2.5 0.1 5.1 0 20-0.1 40 0.1 0.2 0 0.5c0 0.2-0.1 0.3-0.3 0.3q-0.5 0-1.1 0-0.1 0-0.3 0-5.6 0-11.2 0-0.4 0-0.8 0.1-0.1 0-0.2 0c-0.5-0.1-0.7-0.2-0.7-0.7q0-11.4 0-22.7 0 0 0 0z"/>
					</g>
				</g>
			</g>
			<g id="&lt;Group&gt;">
				<path id="&lt;Path&gt;" class="s4" d="m806.6 360.3c0 52.4-42.5 94.9-94.9 94.9-52.4 0-94.9-42.5-94.9-94.9 0-52.4 42.5-94.9 94.9-94.9 52.4 0 94.9 42.5 94.9 94.9z"/>
				<g id="&lt;Group&gt;">
					<g id="&lt;Group&gt;">
						<path id="&lt;Compound Path&gt;" fill-rule="evenodd" class="s2" d="m768.3 391.6c-0.1 15.3-9.9 25.3-25.1 25.5q-31.4 0.3-62.8 0c-15.5-0.2-25.2-10.2-25.3-26-0.1-10.3 0-20.6 0-31 0-10.5-0.1-21.1 0-31.6 0.3-14.9 9.9-24.8 24.9-25q31.7-0.3 63.4 0c15.2 0.2 24.9 10.1 24.9 25.5q0.2 31.3 0 62.6zm-10.1-31.4c0-10.5 0.1-21.1 0-31.6-0.1-9.7-5.5-15.2-15.1-15.2q-31.4-0.3-62.7 0c-9.7 0-15.1 5.6-15.1 15.2q-0.2 31.7 0 63.3c0 9.7 5.3 15.1 15.1 15.1q31.4 0.2 62.7 0c9.8-0.1 15-5.4 15.1-15.2 0.1-10.5 0-21.1 0-31.6z"/>
						<path id="&lt;Compound Path&gt;" fill-rule="evenodd" class="s2" d="m741.2 360.6c-0.2 16.5-13.6 29.5-30.2 29.2-16.2-0.4-28.9-13.6-28.7-30 0.1-16.2 13.4-29.2 29.5-29.2 16.4 0 29.6 13.5 29.4 30zm-9.7-0.2c0.1-10.8-8.9-19.6-19.8-19.6-10.9 0-19.8 8.8-19.7 19.6 0.1 10.5 8.9 19.3 19.4 19.5 10.7 0.2 20-8.8 20.1-19.5z"/>
						<path id="&lt;Path&gt;" class="s2" d="m750.2 329.9c-0.3 4.1-3 6.3-7.1 6.1-4.5-0.2-6.7-2.9-6.4-7.4 0.3-4.1 3-6 7.1-6.2 4.2 0.7 6.7 3.1 6.4 7.5z"/>
					</g>
				</g>
			</g>
			<g id="&lt;Group&gt;">
				<path id="&lt;Path&gt;" class="s4" d="m716.8 516.7c0 35.4-28.7 64.1-64.2 64.1-35.4 0-64.1-28.7-64.1-64.1 0-35.5 28.7-64.2 64.1-64.2 35.5 0 64.2 28.7 64.2 64.2z"/>
				<g id="&lt;Group&gt;">
					<path id="&lt;Path&gt;" class="s2" d="m628.7 541.3v-49.3l58.8 24.7z"/>
				</g>
			</g>
			<g id="&lt;Group&gt;">
				<path id="&lt;Path&gt;" class="s1" d="m449.3 532c0 25.1-20.3 45.5-45.5 45.5-25.1 0-45.5-20.4-45.5-45.5 0-25.2 20.4-45.6 45.5-45.6 25.2 0 45.5 20.4 45.5 45.6z"/>
				<path id="&lt;Path&gt;" class="s2" d="m429.2 537.8c-7.5 15.1-25.4 24.1-25.4 24.1 0 0-17.8-9-25.3-24.1-6.3-12.7-2.3-26.3 7.5-29.3 14.2-4.3 17.8 20.4 17.8 20.4 0 0 3.6-24.7 17.8-20.4 9.9 3 13.9 16.6 7.6 29.3z"/>
			</g>
			<g id="&lt;Group&gt;">
				<path id="&lt;Path&gt;" class="s1" d="m726.3 189.6c0 36.8-29.8 66.6-66.6 66.6-36.8 0-66.7-29.8-66.7-66.6 0-36.8 29.9-66.6 66.7-66.6 36.8 0 66.6 29.8 66.6 66.6z"/>
				<g id="QfoS7x.tif 1 ">
					<g id="&lt;Group&gt;">
						<path id="&lt;Compound Path&gt;" fill-rule="evenodd" class="s7" d="m691.7 181.4c0 0.1-0.1 0.2-0.3 0.2-0.3 0-0.6 0-1 0q-0.8-0.1-1.6-0.2-1.3-0.2-2.6-0.4-1.6-0.4-3.3-0.8-2.3-0.7-4.4-1.7-1.3-0.6-2.4-1.3-1.3-0.8-2.5-1.8-0.2-0.2-0.5-0.4v0.3c0 4.8 0 9.6 0 14.5 0 4.8 0.1 9.6-0.1 14.4q-0.1 0.6-0.1 1.1-0.2 0.9-0.3 1.9-0.3 1.3-0.6 2.5-0.7 2.3-1.7 4.5-0.9 1.9-2.1 3.6-0.9 1.3-1.9 2.4c-0.9 1-1.9 1.9-2.9 2.7q-2 1.5-4.3 2.5-1.9 0.8-4 1.3-1.4 0.3-2.8 0.4-1.2 0.2-2.4 0.2c-0.9 0-1.8 0-2.7-0.1q-0.5 0-0.9-0.1c-0.6-0.1-1.2-0.2-1.8-0.3-0.7-0.1-1.4-0.2-2.1-0.4q-2-0.7-3.9-1.6-1.5-0.7-3-1.6-1.1-0.7-2.1-1.5 0 0 0 0-0.3-0.3-0.5-0.4-0.1-0.1-0.2-0.2 0 0.1 0 0.2 0.6 0.7 1.3 1.4c-0.6-0.6-1.7-1.8-1.7-1.9-0.1-0.3-0.3-0.5-0.5-0.8q-1.2-1.8-2.1-3.8-0.7-1.7-1.2-3.5-0.5-1.8-0.7-3.6-0.1-1.1-0.2-2.3c0-1.3 0.1-2.6 0.2-3.9q0.1-1 0.3-1.9 0.4-2.1 1.1-4.1 0.5-1.4 1.2-2.8 0.8-1.8 2-3.5 1-1.4 2.1-2.6 0.9-1 1.9-1.9 1-0.8 2.1-1.6 1.6-1 3.3-1.8 1-0.5 2.2-0.9 1.6-0.5 3.2-0.8 1.5-0.2 2.9-0.3c0.9 0 1.7 0 2.6 0q0 5.5 0 11.1c0 0.2-0.1 0.3-0.3 0.2-0.6-0.1-1.1-0.1-1.7-0.1q-1.2-0.1-2.5 0-0.7 0.1-1.5 0.3-1.8 0.4-3.4 1.3-1.7 1-2.9 2.6-1 1.5-1.6 3.2-0.5 1.7-0.5 3.5 0 0.4 0 0.9 0.1 0.9 0.2 1.7 0.2 1 0.6 2 0.6 1.7 1.9 3 0.4 0.4 0.9 0.8 0 0 0 0 0.4 0.4 0.9 0.6 0 0 0 0 0-0.1 0-0.1-0.6-1.1-0.9-2.2c0.4 1.2 0.9 2.2 0.9 2.3 0.6 1.1 1.3 1.9 2.2 2.6q1.2 1 2.6 1.5 2 0.9 4.2 0.9 0.6 0 1.2 0 0.6-0.1 1.2-0.2 1.7-0.3 3.3-1.2 1.1-0.6 2-1.5 1.3-1.2 2.2-2.7c0.2-0.4 0.5-0.8 0.6-1.2q0.4-1.5 0.6-3 0.1-1.2 0.1-2.4 0-2.1 0-4.2 0-24.1 0-48.2c0-0.3 0.1-0.3 0.3-0.3q0.6 0 1.3 0 0.3 0 0.6 0 0.7 0 1.5 0 0.2 0 0.4 0c3.1 0 6.4 0 6.4 0 0 0-0.1 0.1-0.1 0.1q0 0 0.1 0 0 0.1 0 0.1 0 0 0 0 0 0 0 0 0.1 0.8 0.3 1.6 0.5 2.3 1.5 4.3 1 2.1 2.5 3.9 0.9 1.1 2.1 2.1c0.1 0.1 0.3 0.3 0.5 0.3q0.5 0.8 1.1 1.4 0 0.1 0.1 0.2 0.1 0.1 0.2 0.2 0.7 0.7 1.4 1.3 1.4 1.1 3 2 1.6 0.8 3.4 1.3 1 0.3 2.1 0.5 0 2.6 0 5.2 0 2.5 0 5zm-10.6-16.6q-0.4-0.2-0.7-0.5 0 0 0 0 0 0 0 0 0 0 0 0 0 0 0 0 0.3 0.2 0.7 0.5zm-0.8-0.5c0-0.1-0.1-0.1-0.1-0.1q-0.6-0.9-1.1-1.8c0.6 1 1.1 1.7 1.2 1.9zm-47.8 56.7q0-0.1-0.1-0.1 0 0 0 0.1 0 0 0.1 0 0 0 0 0zm0.2 0.1q0 0-0.1 0 0 0 0 0 0 0 0 0 0.1 0 0.1 0zm1.3 1.6q0 0.1 0.1 0.1-0.1 0-0.1-0.1z"/>
						<path id="&lt;Path&gt;" class="s3" d="m694.9 184.8c0 0.2-0.1 0.2-0.3 0.2q-1.1 0-2.2-0.2-0.9-0.1-1.8-0.2-1-0.2-2-0.4-2-0.4-3.9-1.1-1.5-0.5-3-1.2-1.8-0.8-3.5-2-1-0.6-1.8-1.4c-0.1 0-0.1 0.1-0.1 0.1 0.1 2.1 0 4.1 0 6.1q0 10.7 0 21.3 0 1.1-0.2 2.2-0.1 0.7-0.2 1.4-0.1 1.1-0.4 2.1-0.3 1.4-0.7 2.8-0.6 1.7-1.4 3.2-0.9 2-2.1 3.7-0.6 0.8-1.2 1.6-0.6 0.6-1.2 1.3-0.9 0.8-1.8 1.6-0.9 0.7-1.9 1.3-1.6 1-3.3 1.8-1.6 0.6-3.2 1-1 0.2-2 0.4c-0.6 0.1-1.3 0.2-2 0.2-0.2 0.1-0.4 0-0.5 0.1h-2.7c0-0.1-0.1 0-0.2-0.1q-1.1 0-2.1-0.2-0.9-0.1-1.8-0.2c-1.2-0.2-2.5-0.6-3.7-1.1q-1-0.4-2.1-0.8-1.8-0.9-3.4-2-1-0.6-1.8-1.3-1.2-1-2.3-2.1 0 0 0 0 0 0 0-0.1-0.1 0-0.1-0.1c-0.6-0.6-1.7-1.8-1.7-1.9 0.2 0.1 0.4 0.3 0.6 0.5 0.2 0.1 0.3 0.3 0.5 0.4q0 0 0 0 1 0.8 2.1 1.5 1.5 0.9 3 1.6 1.9 0.9 3.9 1.6c0.7 0.2 1.4 0.3 2.1 0.4 0.6 0.1 1.2 0.2 1.8 0.3q0.4 0.1 0.9 0.1c0.9 0.1 1.8 0.1 2.7 0.1q1.2 0 2.4-0.2 1.4-0.1 2.8-0.4 2.1-0.5 4-1.3 2.3-1 4.3-2.5c1-0.8 2-1.7 2.9-2.7q1-1.1 1.9-2.4 1.2-1.7 2.1-3.6 1-2.2 1.7-4.5 0.3-1.2 0.6-2.5 0.1-1 0.3-1.9 0-0.5 0.1-1.1c0.2-4.8 0.1-9.6 0.1-14.4 0-4.9 0-9.7 0-14.5v-0.3q0.3 0.2 0.5 0.4 1.2 1 2.5 1.8 1.1 0.7 2.4 1.3 2.1 1 4.4 1.7 1.7 0.4 3.3 0.8 1.3 0.2 2.6 0.4 0.8 0.1 1.6 0.2c0.4 0 0.7 0 1 0 0.2 0 0.3-0.1 0.3-0.2q0-2.5 0-5 0-2.6 0-5.2 0 0 0 0c0.3 0.1 0.6 0.1 0.9 0.1q0.8 0.1 1.5 0.2c0.2 0 0.4 0 0.6 0.1 0.1 0 0.2 0 0.2 0.1q-0.1 0.1 0 0.1-0.1 6.5 0 13z"/>
						<path id="&lt;Path&gt;" class="s4" d="m652.7 180.7q0 0 0 0c-0.9 0-1.7 0-2.6 0q-1.4 0.1-2.9 0.3-1.6 0.3-3.2 0.8-1.2 0.4-2.2 0.9-1.7 0.8-3.3 1.8-1.1 0.8-2.1 1.6-1 0.9-1.9 1.9-1.1 1.2-2.1 2.6-1.2 1.7-2 3.5-0.7 1.4-1.2 2.8-0.7 2-1.1 4.1-0.2 0.9-0.3 1.9c-0.1 1.3-0.2 2.6-0.2 3.9q0.1 1.2 0.2 2.3 0.2 1.8 0.7 3.6 0.5 1.8 1.2 3.6 0.9 1.9 2.1 3.7c0.2 0.3 0.4 0.5 0.5 0.8q-0.2-0.2-0.5-0.4-1.3-1.3-2.4-2.7-1.1-1.5-2-3.1-1.1-2-1.8-4.2-0.5-1.7-0.8-3.4-0.1-0.9-0.2-1.9c-0.1-0.3 0-0.6-0.1-0.8v-3.2c0.1 0 0-0.1 0-0.1 0-0.7 0.1-1.3 0.2-1.9 0.2-1.2 0.4-2.5 0.8-3.7q0.4-1.7 1.1-3.2 1-2.7 2.7-5 0.7-1 1.5-1.9 0.9-1.1 1.9-2 1.7-1.6 3.8-2.8 2.1-1.3 4.5-2.1 1.7-0.5 3.4-0.8 0.9-0.1 1.9-0.2 1.5-0.1 3-0.1 1.2 0.1 2.4 0.2 0.4 0.1 0.8 0.1c0.2 0.1 0.2 0.1 0.2 0.3q0 1.4 0 2.8z"/>
						<path id="&lt;Path&gt;" class="s4" d="m673.5 151.9c0 0-3.6 0-6.8 0q-0.8 0-1.5 0-0.3 0-0.6 0-0.7 0-1.3 0c-0.2 0-0.3 0-0.3 0.3q0 24.1 0 48.2 0 2.1 0 4.2 0 1.2-0.1 2.4-0.2 1.5-0.6 3c-0.1 0.4-0.4 0.8-0.6 1.2q-0.9 1.5-2.2 2.7-0.9 0.9-2 1.5-1.6 0.9-3.3 1.2-0.6 0.1-1.2 0.2-0.6 0-1.2 0-2.2 0-4.2-0.9-1.4-0.5-2.6-1.5c-0.9-0.7-1.6-1.5-2.2-2.6q0.3 0.1 0.5 0.3c1 0.5 1.9 0.8 3 1.1 1.1 0.2 2.3 0.3 3.4 0.2q2.3-0.1 4.3-1.2 1.1-0.6 2.1-1.4c0.9-0.7 1.7-1.7 2.3-2.7q0.8-1.3 1-2.8 0.2-1 0.3-2 0.1-0.6 0.1-1.3c0-0.7 0.1-1.4 0.1-2.1q0-25.5 0-51 0-0.1 0-0.2 0-0.2 0.1-0.1 0.1 0 0.2 0h12.6c0.4 0 0.4 0 0.4 0.3 0 0.9 0.1 1.8 0.2 2.7q0.1 0.1 0.1 0.3z"/>
						<path id="&lt;Path&gt;" class="s3" d="m655.9 183.8v11.4c0 0.3 0 0.3-0.3 0.2q-0.4-0.1-0.9-0.1-0.6 0-1.3 0-1.7-0.1-3.4 0.3-1.6 0.3-3.1 1.1-1 0.5-1.8 1.3c-0.9 0.8-1.7 1.7-2.3 2.8q-0.7 1.5-1 3-0.2 0.7-0.2 1.4c-0.1 0.5-0.1 1.1-0.1 1.7q0.1 1 0.3 2.1 0.1 0.2 0.1 0.5c0.4 1.2 0.9 2.2 0.9 2.3q0 0 0 0-0.5-0.3-0.9-0.6-0.5-0.4-0.9-0.8-1.3-1.3-1.9-3-0.4-1-0.6-2-0.1-0.8-0.2-1.7 0-0.5 0-0.9 0-1.8 0.5-3.5 0.6-1.7 1.6-3.2 1.2-1.6 2.9-2.6 1.6-0.9 3.4-1.3 0.8-0.2 1.5-0.3 1.3-0.1 2.5 0c0.6 0 1.1 0 1.7 0.1 0.2 0.1 0.3 0 0.3-0.2q0-5.6 0-11.1 0 0 0 0 0.2 0.1 0.4 0 1.1 0.1 2.2 0.3c0.2 0 0.3 0 0.5 0 0.1 0 0.1 0.1 0.1 0.2q0 1.3 0 2.6z"/>
						<path id="&lt;Path&gt;" class="s6" d="m680.4 164.3q0 0 0 0c-0.2 0-0.4-0.2-0.5-0.3q-1.2-1-2.1-2.1-1.5-1.8-2.5-3.9-1-2-1.5-4.3-0.2-0.8-0.3-1.6 0 0 0 0 0 0 0 0 0 0 0-0.1c-0.1 0 0-0.1 0-0.1q1.3 0 2.7 0c0.1 0 0.1 0 0.1 0.1q0 1.2 0.2 2.4 0.3 1.9 0.8 3.8 0.5 1.6 1.3 3.2 0.2 0.5 0.5 0.9 0 0 0 0.1c0.6 1 1.1 1.7 1.2 1.9q0 0 0 0 0.1 0 0.1 0 0 0 0 0 0 0 0 0 0 0 0 0z"/>
						<path id="&lt;Path&gt;" class="s4" d="m691.7 168.4q0 1.4 0 2.8 0 0 0 0-1.1-0.2-2.1-0.5-1.8-0.5-3.4-1.3-1.6-0.9-3-2-0.7-0.6-1.4-1.3-0.1-0.1-0.2-0.2-0.7-0.7-1.2-1.6 0 0 0 0 0 0 0 0 0 0 0 0 0 0 0 0 0.3 0.2 0.7 0.5 0 0 0.1 0.1 1.2 0.8 2.6 1.5 0.9 0.4 1.8 0.7 1.8 0.6 3.5 0.8 1.2 0.2 2.5 0.3c0.1 0 0.1 0 0.1 0.2z"/>
					</g>
				</g>
			</g>
			<g id="&lt;Group&gt;">
				<path id="&lt;Path&gt;" class="s1" d="m608.7 347.3c0 52.5-42.6 95-95 95-52.5 0-95-42.5-95-95 0-52.4 42.5-95 95-95 52.4 0 95 42.6 95 95z"/>
				<g id="&lt;Group&gt;">
					<path id="&lt;Compound Path&gt;" fill-rule="evenodd" class="s2" d="m453.1 408c2.6-9.5 4.9-18.3 7.5-27 0.9-2.9 0.6-5.1-0.7-7.8-18.3-37 6-81.7 47.1-86.7 37.7-4.6 69.7 23.9 68.9 61.4-0.7 30.8-26.8 57.4-57.7 58.8-10.6 0.4-20.6-1.4-30.2-5.8-1.7-0.7-4-0.8-5.8-0.4-9.5 2.3-18.9 4.8-29.1 7.5zm14.7-14.4c6.1-1.5 11.1-3 16.3-4.1 1.7-0.3 3.9-0.1 5.4 0.7 7.7 4 15.8 6.2 24.5 6.4 31.4 0.5 56.7-28.6 50.7-59.2-4.1-21.1-17.1-35-38.1-39.8-21.5-4.9-39.8 2-52.8 19.8-12.8 17.4-13.1 36.1-2.7 55.1 0.9 1.6 1.2 4.1 0.8 6-1 4.8-2.6 9.6-4.1 15.1z"/>
					<path id="&lt;Path&gt;" class="s2" d="m488 322c4.1-5.6 9.7-4.5 12.6 1.7 1.1 2.4 1.4 3.2 2.5 5.9 1.7 4.2 1.3 7-1.7 9.6-2.2 2-2 3.7-0.5 5.9 4.7 7 10.8 12.2 18.5 15.7 2.4 1 3.9 0.8 5.6-1.3 5.4-6.4 5.5-6.3 13-2.8q1.3 0.7 2.6 1.3c5.8 2.8 6.7 8 2 12.6-4.9 4.7-10.7 5.7-17.1 4.1-16.3-4.1-28-14.4-37-28.1-2.7-4.2-4.8-8.6-4.6-13.8 0.5-4.8 1.8-7.8 4.1-10.8z"/>
				</g>
			</g>
			<g id="&lt;Group&gt;">
				<g id="&lt;Group&gt;">
					<path id="&lt;Path&gt;" class="s3" d="m271.2 298.5c0 24.8-20.2 45-45 45-24.9 0-45.1-20.2-45.1-45 0-24.9 20.2-45.1 45.1-45.1 24.8 0 45 20.2 45 45.1z"/>
				</g>
				<g id="xsrjP0 1 ">
					<g id="&lt;Group&gt;">
						<path id="&lt;Path&gt;" class="s2" d="m219.3 318.4c-1.3-0.8-2.5-2-4.3-1.9-0.7 0.1-0.5-0.5-0.5-0.8q-0.1-10.2-0.1-20.3c0-0.5 0-0.9 0.5-1.2 5.2-2.6 7.4-7.7 10.6-12.1 3.3-4.7 4.5-9.7 3.7-15.3-0.3-1.5 0.4-2.2 1.8-2.5 1.7-0.4 3.3 0 3.9 1.2 1.4 2.8 2.6 5.7 2.9 8.8 0.4 2.6-0.6 5.1-0.9 7.6-0.2 1.8-0.6 3.7-1 5.6 0.5 0.3 1 0.1 1.5 0.1q8.6 0 17.1 0c2.4 0 3.6 0.6 3.9 2.2 0.5 2-0.6 4.1-2.4 5-0.5 0.2-1.2 0-1.3 0.7 0 0.7 0.8 0.6 1.2 0.9 2 1.4 1.7 4.3-0.7 6-0.6 0.4-1.7 0.2-1.7 1.1-0.1 0.6 1 0.6 1.5 1.1 1.6 1.6 0.8 4.7-1.7 6-0.3 0.1-0.7 0.2-1 0.4-0.3 0.2-0.5 0.4 0 0.8 2.5 1.7 2.5 4.2 0 6q-0.4 0.2-0.8 0.5c-0.9 0.7-1.9 0.7-3 0.7q-13.4 0-26.8 0.1c-0.9 0-1.7 0-2.4-0.7z"/>
						<path id="&lt;Path&gt;" class="s2" d="m193.8 306.6c0-4.3 0-8.6 0-12.9 0-0.8 0.1-1.3 1.1-1.3q7.9 0.1 15.7 0c1.1 0 1.2 0.3 1.2 1.2q0 13 0.1 25.9c0 1.1-0.3 1.5-1.4 1.4q-7.6 0-15.2 0.1c-1.3 0-1.5-0.4-1.4-1.5 0-4.3 0-8.6-0.1-12.9z"/>
					</g>
				</g>
			</g>
			<g id="&lt;Group&gt;">
				<g id="&lt;Group&gt;">
					<path id="&lt;Path&gt;" class="s4" d="m462.8 457.3c0 12.5-10.1 22.6-22.5 22.6-12.5 0-22.6-10.1-22.6-22.6 0-12.4 10.1-22.5 22.6-22.5 12.4 0 22.5 10.1 22.5 22.5z"/>
				</g>
				<g id="K0pxJE 2 ">
					<g id="&lt;Group&gt;">
						<path id="&lt;Path&gt;" class="s2" d="m439.9 441.6c2.4 0 4.2 0.5 5.8 1.7q2.2 1.6 3 4.2c0.2 0.5 0.2 1.2 0.3 1.8 0 0.9 0 1.8 0 2.7q-0.1 1.2-0.2 2.3c0 0.3 0 0.4 0.3 0.5 0.5 0.2 0.9 0.1 1.4 0q0.3-0.1 0.7-0.3c0.5-0.2 1.3 0 1.7 0.4 0.2 0.3 0.2 0.7-0.1 1.1-0.3 0.4-0.8 0.6-1.3 0.8-0.3 0.1-0.7 0.2-1.1 0.4q-0.4 0.1-0.7 0.3-0.9 0.7-0.5 1.8c0.2 0.7 0.6 1.4 1.1 2.1 0.8 1.3 1.8 2.4 3.2 3.2q1.2 0.8 2.7 1.1c0.3 0.1 0.4 0.3 0.3 0.6-0.1 0.3-0.4 0.4-0.6 0.6-0.7 0.4-1.4 0.5-2.2 0.7q-0.6 0.2-1.2 0.2-0.3 0.1-0.4 0.4c-0.2 0.4-0.2 0.9-0.4 1.3-0.1 0.5-0.2 0.6-0.7 0.5-0.6 0-1.2-0.2-1.7-0.2-1.5-0.1-2.8 0.2-4 1.1q-0.9 0.7-1.9 1.3c-1 0.6-2.2 0.8-3.4 0.8-1.3-0.1-2.5-0.5-3.6-1.3-0.6-0.4-1.2-0.9-1.9-1.3-0.6-0.4-1.3-0.5-2-0.6-1-0.1-1.9 0.1-2.8 0.2q0 0-0.1 0c-0.6 0.1-0.7 0-0.8-0.5q-0.2-0.6-0.3-1.1c-0.1-0.4-0.2-0.5-0.6-0.6-1-0.1-2.1-0.3-3.1-0.8q-0.2-0.1-0.5-0.3-0.2-0.2-0.3-0.5c-0.1-0.3 0-0.5 0.3-0.5q1.1-0.2 2.1-0.7c1.3-0.6 2.4-1.6 3.2-2.7q1-1.2 1.6-2.7 0.2-0.3 0.2-0.7c0.1-0.6-0.2-1.1-0.7-1.4-0.4-0.3-0.8-0.5-1.2-0.6-0.6-0.2-1.1-0.4-1.5-0.7q-0.2-0.1-0.3-0.3c-0.3-0.4-0.3-0.8 0.1-1.1 0.5-0.4 1-0.5 1.5-0.2 0.5 0.2 0.9 0.4 1.5 0.3q0.4 0 0.8-0.2 0.1-0.1 0.1-0.2-0.1-1.6-0.2-3.2 0-1.1 0.1-2.3c0-0.6 0.1-1.2 0.3-1.8 0.9-2.4 2.6-4.1 5-5 1.1-0.4 2.2-0.6 3-0.6z"/>
					</g>
				</g>
			</g>
			<g id="&lt;Group&gt;">
				<g id="&lt;Group&gt;">
					<path id="&lt;Path&gt;" class="s3" d="m633.8 271.1c0 12.4-10.1 22.5-22.5 22.5-12.5 0-22.6-10.1-22.6-22.5 0-12.5 10.1-22.6 22.6-22.6 12.4 0 22.5 10.1 22.5 22.6z"/>
				</g>
				<g id="&lt;Group&gt;">
					<path id="&lt;Path&gt;" class="s2" d="m618.8 262.5c0 4.2-3.4 7.5-7.5 7.5-4.2 0-7.5-3.3-7.5-7.5 0-4.1 3.3-7.5 7.5-7.5 4.1 0 7.5 3.4 7.5 7.5z"/>
					<path id="&lt;Path&gt;" class="s2" d="m624.3 283.2v2.8h-26v-2.8c0-7.1 5.8-12.9 13-12.9 7.1 0 13 5.8 13 12.9z"/>
				</g>
			</g>
			<g id="&lt;Group&gt;">
				<g id="&lt;Group&gt;">
					<path id="&lt;Path&gt;" class="s3" d="m272.9 248.6c4 38.3 38.3 66.1 76.5 62.1 15.5-1.6 29.3-8.2 39.9-18l34.9 5.1-17.5-30.1c4.2-10.3 6-21.8 4.8-33.6-4-38.3-38.3-66-76.6-62-38.2 4-66 38.2-62 76.5z"/>
					<path id="&lt;Compound Path&gt;" class="s4" d="m293.7 191.1c7.6-7.4 16.8-13.1 26.9-16.5 10.1-3.4 21-4.3 31.5-2.9 10.6 1.4 20.9 5.2 29.8 11.1 8.8 6 16.4 14 21.8 23.3 10.8 18.5 12.7 42.2 4.3 62.1l-0.1-1.2 17.3 30.2 1.3 2.2-2.5-0.4-34.8-5.3 0.8-0.3c-9.7 8.8-21.7 14.7-34.5 17q-4.8 0.9-9.6 1c-3.3 0.3-6.5 0-9.7-0.1-6.4-0.8-12.8-2-18.8-4.5-6-2.4-11.7-5.4-16.8-9.4-2.7-1.8-4.9-4.1-7.3-6.2-2.2-2.4-4.5-4.6-6.4-7.3-7.9-10.1-12.6-22.6-14-35.3-2.3-21 5.4-42.9 20.8-57.5z"/>
				</g>
				<g id="&lt;Group&gt;">
					<path id="&lt;Path&gt;" class="s6" d="m303.3 243.5c0 4.6 3.8 8.4 8.5 8.4 4.6 0 8.4-3.8 8.4-8.4 0-4.7-3.8-8.5-8.4-8.5-4.7 0-8.5 3.8-8.5 8.5z"/>
					<path id="&lt;Path&gt;" class="s6" d="m333.6 243.5c0 4.6 3.7 8.4 8.4 8.4 4.7 0 8.4-3.8 8.4-8.4 0-4.7-3.7-8.5-8.4-8.5-4.7 0-8.4 3.8-8.4 8.5z"/>
					<path id="&lt;Path&gt;" class="s6" d="m363.8 243.5c0 4.6 3.8 8.4 8.4 8.4 4.7 0 8.5-3.8 8.5-8.4 0-4.7-3.8-8.5-8.5-8.5-4.6 0-8.4 3.8-8.4 8.5z"/>
				</g>
			</g>
			<g id="&lt;Group&gt;">
				<g id="&lt;Group&gt;">
					<path id="&lt;Path&gt;" class="s3" d="m818.6 225.4c-2.6 24.6-24.6 42.5-49.2 39.9-9.9-1-18.8-5.3-25.6-11.6l-22.4 3.3 11.2-19.3c-2.7-6.7-3.9-14-3.1-21.6 2.6-24.6 24.6-42.5 49.2-39.9 24.6 2.6 42.5 24.6 39.9 49.2z"/>
					<path id="&lt;Compound Path&gt;" class="s3" d="m818.6 225.4c-0.9 8.2-3.9 16.2-9 22.7-1.2 1.7-2.7 3.1-4.1 4.7-1.5 1.3-3 2.8-4.7 4-3.3 2.5-7 4.5-10.8 6-3.8 1.6-8 2.4-12.1 2.9-2 0.1-4.1 0.3-6.2 0.1q-3.1-0.1-6.2-0.6c-8.2-1.5-16-5.4-22.2-11l0.6 0.2-22.4 3.4-1.6 0.3 0.8-1.5 11.1-19.4v0.8c-5.4-12.8-4.2-28 2.7-39.9 3.5-6 8.4-11.1 14.1-15 5.7-3.8 12.3-6.2 19.1-7.1 6.8-0.9 13.8-0.3 20.2 1.8 6.5 2.2 12.4 5.9 17.3 10.6 9.9 9.4 14.9 23.5 13.4 37z"/>
				</g>
				<g id="&lt;Group&gt;">
					<path id="&lt;Path&gt;" class="s2" d="m799 222.1c0 3-2.4 5.4-5.4 5.4-3 0-5.4-2.4-5.4-5.4 0-3 2.4-5.4 5.4-5.4 3 0 5.4 2.4 5.4 5.4z"/>
					<path id="&lt;Path&gt;" class="s2" d="m779.6 222.1c0 3-2.4 5.4-5.4 5.4-3 0-5.4-2.4-5.4-5.4 0-3 2.4-5.4 5.4-5.4 3 0 5.4 2.4 5.4 5.4z"/>
					<path id="&lt;Path&gt;" class="s2" d="m760.2 222.1c0 3-2.5 5.4-5.4 5.4-3 0-5.5-2.4-5.5-5.4 0-3 2.5-5.4 5.5-5.4 2.9 0 5.4 2.4 5.4 5.4z"/>
				</g>
			</g>
			<g id="&lt;Group&gt;">
				<g id="&lt;Group&gt;">
					<path id="&lt;Path&gt;" class="s4" d="m401 120.4c0 24.9-20.1 45.1-45 45.1-24.9 0-45-20.2-45-45.1 0-24.8 20.1-45 45-45 24.9 0 45 20.2 45 45z"/>
				</g>
				<g id="&lt;Group&gt;">
					<g id="&lt;Group&gt;" style="opacity: .5">
						<g id="&lt;Group&gt;">
							<path id="&lt;Path&gt;" class="s5" d="m376.8 108c0 5-4.1 9.1-9.1 9.1-5.1 0-9.1-4.1-9.1-9.1 0-5 4-9.1 9.1-9.1 5 0 9.1 4.1 9.1 9.1z"/>
							<path id="&lt;Path&gt;" class="s5" d="m383.5 133.2v3.3h-31.6v-3.3c0-8.7 7.1-15.8 15.8-15.8 8.7 0 15.8 7.1 15.8 15.8z"/>
						</g>
					</g>
					<g id="&lt;Group&gt;">
						<path id="&lt;Path&gt;" class="s2" d="m353.4 113.5c0 5-4.1 9.1-9.1 9.1-5 0-9.1-4.1-9.1-9.1 0-5 4.1-9.1 9.1-9.1 5 0 9.1 4.1 9.1 9.1z"/>
						<path id="&lt;Path&gt;" class="s2" d="m360.1 138.7v3.3h-31.6v-3.3c0-8.7 7.1-15.8 15.8-15.8 8.7 0 15.8 7.1 15.8 15.8z"/>
					</g>
				</g>
			</g>
			<g id="&lt;Group&gt;">
				<g id="&lt;Group&gt;">
					<g id="&lt;Group&gt;">
						<path id="&lt;Path&gt;" class="s3" d="m614.9 437c0 12.5-10.1 22.6-22.5 22.6-12.5 0-22.6-10.1-22.6-22.6 0-12.4 10.1-22.5 22.6-22.5 12.4 0 22.5 10.1 22.5 22.5z"/>
					</g>
				</g>
				<g id="&lt;Group&gt;">
					<path id="&lt;Compound Path&gt;" fill-rule="evenodd" class="s2" d="m583.6 444.6h-1.8c-1.1 0-2.1-1-2.1-2.1 0-1.1 1-2.1 2.1-2.1h2.6l1.2-6.9h-2.4c-1.1 0-2-1-2-2.1 0-1.1 0.9-2.1 2-2.1h3.1l0.8-4.7c0.1-1.1 1-1.8 2.1-1.8 1.3 0 2.2 1.2 2 2.5l-0.7 4h6.3l0.8-4.7c0.1-1.1 1-1.8 2.1-1.8 1.3 0 2.2 1.2 2 2.5l-0.6 4h1.8c1.1 0 2.1 0.9 2.1 2.1 0 1.1-1 2.1-2.1 2.1h-2.6l-1.2 6.9h2.3c1.2 0 2.1 0.9 2.1 2.1 0 1.1-0.9 2.1-2.1 2.1h-3l-0.8 4.9c-0.2 1-1.1 1.7-2.1 1.7-1.3 0-2.3-1.2-2.1-2.4l0.8-4.2h-6.3l-0.8 4.9c-0.2 0.9-0.9 1.7-2.1 1.7-1.3 0-2.3-1.1-2.1-2.4zm11.3-4.2l1.2-6.9h-6.3l-1.2 6.9z"/>
				</g>
			</g>
			<g id="&lt;Group&gt;">
				<g id="&lt;Group&gt;">
					<g id="&lt;Group&gt;">
						<path id="&lt;Path&gt;" class="s1" d="m308.8 145c3.9 11.8-2.5 24.6-14.3 28.5-11.8 3.9-24.6-2.5-28.5-14.3-3.9-11.8 2.5-24.6 14.3-28.5 11.8-3.9 24.6 2.5 28.5 14.3z"/>
					</g>
				</g>
				<g id="&lt;Group&gt;">
					<g id="&lt;Group&gt;">
						<path id="&lt;Compound Path&gt;" fill-rule="evenodd" class="s2" d="m302.2 150.3q0.4 3.7-0.8 6.9v0.1q0 0-0.1 0.1-1.3 2.7-3.4 3.6c-0.4 0.1-0.7 0.2-0.9 0.2-1.5 0.2-2.4-0.5-2.8-0.9q-0.8-1-0.9-2.1l-0.1-0.7c-1.3 1.5-2.9 2.4-4.8 2.7-4.3 0.5-8.2-2.8-8.7-7.2-0.5-4.5 2.5-8.5 6.8-9 4.2-0.5 8 2.7 8.5 7.2l0.1 0.5c0 0.1 0.4 4.6 0.7 6 0.1 0.2 0.2 0.6 0.4 0.8 0 0 0.1 0.1 0.5 0.1h0.3c1.1-0.5 1.8-1.9 1.9-2.3 0.7-1.7 0.9-3.6 0.7-5.7-0.8-6.7-6.9-11.5-13.6-10.7-6.8 0.8-11.6 6.9-10.8 13.6 0.8 6.7 6.9 11.6 13.7 10.8 1.1-0.2 2-0.3 2.9-0.7 0.4-0.2 0.9-0.1 1.2 0q0.4 0.3 0.5 0.7c0.1 0.3 0.1 0.7 0 1-0.2 0.3-0.4 0.6-0.8 0.7q-1.7 0.7-3.5 0.9c-8.2 0.9-15.6-4.9-16.6-13.1-1-8.1 4.9-15.6 13.1-16.5 8.1-1 15.5 4.9 16.5 13zm-9.8 1.2c-0.3-3-2.9-5.2-5.6-4.9-2.8 0.4-4.7 3.1-4.3 6 0.3 3.1 2.8 5.2 5.5 4.8 2.8-0.3 4.8-3 4.4-5.9z"/>
					</g>
				</g>
			</g>
		</g>
	</g>
	<g id="Character">
		<g id="&lt;Group&gt;">
			<g id="&lt;Group&gt;">
				<g id="&lt;Group&gt;">
					<g id="&lt;Group&gt;">
						<g id="&lt;Group&gt;">
							<path id="&lt;Path&gt;" class="s8" d="m299.9 912.6c1.4-4.1 77.6-100.6 82.7-102.3 0.6-0.3 33.2 24 33.2 24 1.4 1.8 64.7-10.2 64.7-10.2l-1 76.1-114.7-4.9c0 0-15.7 8.8-30 15.9q-0.1 0.1-0.1 0.1c-8.8 4.4-16.6 8.1-18.8 8.6-5.8 1.4-17.5-3.2-16-7.3z"/>
							<path id="&lt;Path&gt;" class="s2" d="m315.9 919.9c2.2-0.5 10-4.2 18.8-8.7q0 0.1 0.1 0.1c14.3-7.2 30-16 30-16l25.5 1.1 41.3-63.7c-8.8 1.4-15.3 2.2-15.8 1.6 0 0-32.6-24.3-33.2-24-5.1 1.7-81.3 98.2-82.7 102.3-1.5 4.1 10.2 8.7 16 7.3z"/>
							<g id="&lt;Group&gt;">
								<path id="&lt;Path&gt;" class="s4" d="m299.2 912.7c1.5-4.2 78-100.6 83.3-102.4 2-0.7 18 9.6 33.3 24l-49.4 62.1c0 0-44.8 22.5-50.8 23.9-5.9 1.4-18-3.3-16.4-7.6z"/>
								<g id="&lt;Group&gt;">
									<g id="&lt;Group&gt;">
										<path id="&lt;Path&gt;" class="s6" d="m304.1 914.4c13.2-15.8 65.1-81 77-97.6 0-0.2 0-0.2-0.1-0.1-13.5 15.4-64.8 81-77.1 97.5-0.3 0.3-0.1 0.5 0.2 0.2z"/>
										<path id="&lt;Path&gt;" class="s6" d="m324 916.9c3.2-3.7 4.4-8.9 3.7-12.8-0.6-3.8-2.3-7.9-5.7-10.5-0.1 0-0.3 0.1-0.2 0.2 5.6 6 6.6 16.1 2 22.9-0.1 0.2 0.1 0.3 0.2 0.2z"/>
										<path id="&lt;Path&gt;" class="s6" d="m360.8 900.1c5.2-6.4 8.9-15.7 6.8-23.9-0.1-0.3-0.5-0.2-0.6 0.1-1.6 8.2-3.8 15.6-7.1 23.3-0.2 0.6 0.5 1 0.9 0.5z"/>
										<path id="&lt;Path&gt;" class="s6" d="m354.9 903.6c5.2-6.4 8.9-15.7 6.8-23.9-0.1-0.4-0.5-0.2-0.6 0-1.6 8.3-3.8 15.6-7.1 23.4-0.2 0.5 0.5 0.9 0.9 0.5z"/>
										<path id="&lt;Path&gt;" class="s6" d="m349 907c5.2-6.4 8.9-15.7 6.8-23.9-0.1-0.3-0.6-0.2-0.6 0.1-1.6 8.2-3.8 15.6-7.1 23.3-0.2 0.6 0.5 1 0.9 0.5z"/>
										<path id="&lt;Path&gt;" class="s6" d="m343.1 910.5c5.2-6.4 8.9-15.7 6.8-23.9-0.1-0.4-0.6-0.2-0.6 0-1.6 8.3-3.8 15.6-7.1 23.4-0.2 0.5 0.5 0.9 0.9 0.5z"/>
										<path id="&lt;Path&gt;" class="s6" d="m393.1 833.1c5.8-7.3-5.5-16.2-11.3-8.9-5.7 7.2 5.6 16.2 11.3 8.9z"/>
									</g>
									<path id="&lt;Compound Path&gt;" fill-rule="evenodd" class="s6" d="m363.4 912.8c-1.7-7.1-0.3-14.6 0.2-21.8 0-0.7 0.8-1 1.4-0.7 0.1-0.1 0.2-0.2 0.4-0.1 5.2 4.8 9.9 12.1 11.8 19 1.2 4.3 0.6 10.5-4.7 11.6-5 1.1-8.1-3.9-9.1-8zm5.2 4.5c7.5 5 7.1-5.7 6.1-8.8-0.6-2-1.6-3.9-2.5-5.8-1.9-3.9-4.4-7.5-6.7-11.2 0 3.5-0.3 7-0.4 10.5-0.2 4.2-0.7 12.6 3.5 15.3z"/>
									<path id="&lt;Compound Path&gt;" fill-rule="evenodd" class="s6" d="m387.7 870.5c3.8 3.9 0.9 9.4-2.4 12.3-5.5 4.7-13.4 8.3-20.4 9.3-0.2 0.1-0.3-0.1-0.3-0.2-0.6-0.1-1.1-0.8-0.8-1.4 3.6-6.2 6.6-13.3 11.9-18.2 3.1-2.9 8.4-5.4 12-1.8zm-16.6 11.7c-1.8 3-3.4 6.1-5.4 9 4-1.8 8-3.5 11.8-5.7 1.8-1.1 3.6-2.2 5.3-3.5 2.5-2 8.7-10.7-0.3-10.7-5 0-9.2 7.3-11.4 10.9z"/>
								</g>
							</g>
						</g>
						<g id="&lt;Group&gt;">
							<path id="&lt;Path&gt;" class="s1" d="m484.2 806.1l51.7-4.1c0 0 74.7-21.7 117.9-10.3 49.5 13 56.5 70.8 6.2 94-49.8 22.9-269 14.5-269 14.5l47-69.6c0 0 72.1-17 135.3-13.5l-89.4 10.3z"/>
							<path id="&lt;Path&gt;" class="s6" d="m484.7 820.8c7.7-1.3 15.5-1.9 23.3-2.6 7.8-0.8 15.6-1.3 23.5-1.8 15.6-1 31.4-1.3 47-0.7q2.2 0.1 4.4 0.2c0.4-0.1 0.7-0.2 1-0.2q1.1-0.3 2.3-0.5c1.4-0.2 2.8-0.4 4.3-0.6 2.9-0.4 5.9-0.6 8.9-1.1 0.2-0.1 0.2 0.2 0 0.2-2.9 0.6-5.9 1.4-8.9 2q-1.2 0.3-2.5 0.5c5.7 0.4 11.4 1 17.2 1.6 0.1 0.1 0.1 0.3 0 0.3-7.8-0.6-15.7-0.8-23.5-0.8-7.8-0.1-15.6-0.1-23.3 0.2-15.7 0.6-31.4 1.7-47.1 3-8.8 0.7-17.6 1.6-26.4 1.8-0.9 0-1.1-1.4-0.2-1.5z"/>
							<path id="&lt;Path&gt;" class="s6" d="m413.4 898.6c2.9-4.5 5.4-9.2 8.1-13.8q4-6.9 8-13.7c5.3-9.2 24.5-39.9 26.4-42.1 0.1-0.1 0.3 0.1 0.3 0.2-1 2.4-12.9 22.8-15.7 27.3-5.5 9.1-11.3 18-17 26.9-1.6 2.6-3.3 5.1-4.9 7.7-1.7 2.5-3.4 5-4.9 7.6-0.1 0.2-0.4 0-0.3-0.1z"/>
						</g>
					</g>
					<g id="&lt;Group&gt;">
						<g id="&lt;Group&gt;">
							<path id="&lt;Path&gt;" class="s8" d="m670.8 926.6c-1.3-4.2-72.8-104.1-77.8-106.1-0.6-0.3-34.4 22.4-34.4 22.4-1.4 1.8-64-13.2-64-13.2l-2.7 76 114.8 0.6c0 0 15.3 9.5 29.3 17.3q0 0 0 0c8.6 4.9 16.2 8.9 18.4 9.6 5.7 1.6 17.7-2.4 16.4-6.6z"/>
							<path id="&lt;Path&gt;" class="s2" d="m654.4 933.2c-2.2-0.7-9.8-4.7-18.4-9.6q0 0 0 0c-14-7.8-29.3-17.3-29.3-17.3l-25.5-0.1-38.3-65.6c8.8 1.8 15.3 2.9 15.7 2.3 0 0 33.8-22.7 34.4-22.4 5 2 76.5 101.9 77.8 106.1 1.3 4.2-10.7 8.2-16.4 6.6z"/>
							<g id="&lt;Group&gt;">
								<path id="&lt;Path&gt;" class="s4" d="m671.5 926.8c-1.4-4.3-73.3-104.2-78.4-106.3-2-0.8-18.4 8.8-34.5 22.4l46.4 64.3c0 0 43.8 24.7 49.7 26.4 5.8 1.6 18.1-2.5 16.8-6.8z"/>
								<g id="&lt;Group&gt;">
									<g id="&lt;Group&gt;">
										<path id="&lt;Path&gt;" class="s6" d="m666.4 928.2c-12.4-16.4-61.1-83.9-72.2-101.1-0.1-0.2 0-0.2 0.1-0.1 12.7 16 60.9 83.9 72.4 101 0.2 0.4 0 0.6-0.3 0.2z"/>
										<path id="&lt;Path&gt;" class="s6" d="m646.5 929.8c-3.1-3.9-4-9.1-3.2-13 0.8-3.7 2.7-7.8 6.3-10.2 0.1 0 0.2 0.1 0.1 0.2-5.8 5.7-7.3 15.8-3 22.8 0 0.1-0.1 0.3-0.2 0.2z"/>
										<path id="&lt;Path&gt;" class="s6" d="m610.5 911.3c-4.9-6.6-8.1-16.1-5.7-24.2 0.1-0.3 0.6-0.2 0.6 0.1 1.3 8.3 3.1 15.7 6 23.6 0.2 0.6-0.6 1-0.9 0.5z"/>
										<path id="&lt;Path&gt;" class="s6" d="m616.2 915c-4.9-6.6-8.1-16.1-5.6-24.2 0.1-0.3 0.5-0.2 0.6 0.1 1.2 8.3 3 15.7 5.9 23.6 0.2 0.6-0.5 1-0.9 0.5z"/>
										<path id="&lt;Path&gt;" class="s6" d="m622 918.7c-4.9-6.6-8.2-16.1-5.7-24.2 0.1-0.3 0.6-0.2 0.6 0.1 1.2 8.3 3.1 15.8 6 23.7 0.2 0.5-0.6 0.9-0.9 0.4z"/>
										<path id="&lt;Path&gt;" class="s6" d="m627.7 922.5c-4.9-6.7-8.1-16.2-5.6-24.3 0.1-0.3 0.5-0.1 0.5 0.1 1.3 8.3 3.1 15.8 6 23.7 0.2 0.5-0.5 0.9-0.9 0.5z"/>
										<path id="&lt;Path&gt;" class="s6" d="m581.4 842.8c-5.4-7.6 6.3-15.9 11.7-8.4 5.4 7.5-6.3 15.9-11.7 8.4z"/>
									</g>
									<path id="&lt;Compound Path&gt;" fill-rule="evenodd" class="s6" d="m597.8 931.4c-5.2-1.4-5.6-7.6-4.1-11.8 2.3-6.8 7.2-13.9 12.7-18.4 0.2-0.1 0.3-0.1 0.4 0 0.5-0.2 1.4 0.1 1.4 0.9 0.1 7.1 1.1 14.7-0.9 21.7-1.2 4.1-4.5 8.9-9.5 7.6zm8.4-18.5c0-3.5-0.2-7 0-10.5-2.5 3.6-5.1 7.1-7.2 10.9-1.1 1.9-2.1 3.8-2.8 5.7-1.2 3.1-2 13.7 5.7 9.1 4.3-2.5 4.2-11 4.3-15.2z"/>
									<path id="&lt;Compound Path&gt;" fill-rule="evenodd" class="s6" d="m596.9 882.7c5.1 5.2 7.8 12.4 11 18.8 0.4 0.7-0.2 1.3-0.8 1.4 0 0.1-0.1 0.2-0.3 0.2-7-1.4-14.7-5.4-19.9-10.3-3.2-3-5.9-8.7-1.9-12.4 3.8-3.4 8.9-0.7 11.9 2.3zm-6.7-1.3c-9-0.4-3.3 8.6-0.8 10.7 1.6 1.4 3.3 2.6 5.1 3.8 3.7 2.4 7.6 4.2 11.5 6.2-1.8-3-3.3-6.2-5-9.3-1.9-3.6-5.8-11.2-10.8-11.4z"/>
								</g>
							</g>
						</g>
						<g id="&lt;Group&gt;">
							<path id="&lt;Path&gt;" class="s1" d="m491.7 806.3l-51.5-1.3c0 0-53.2-27.4-96.8-18.1-50.1 10.6-58.1 73-21.5 96 46.3 29.3 256.1 29.4 256.1 29.4l-43.2-78c0 0-69.4-16.5-132.7-16.1l88.9 14.6z"/>
							<path id="&lt;Path&gt;" class="s6" d="m537.6 839.4c0-0.1 0-0.3 0-0.4q-0.1-0.2-0.1-0.4-0.1-0.3-0.2-0.7-0.2-0.8-0.5-1.5-0.3-0.8-0.6-1.5c-0.2-0.5-0.5-0.9-0.8-1.4 0 0-0.1 0-0.1-0.1q0 0-0.1 0 0-0.1-0.1-0.1-0.1 0-0.1 0c-7.6-1.7-59.5-10.5-67.3-11.6-7.8-1.1-15.6-2-23.4-2.9-15.6-1.7-31.3-2.8-47-2.9q-2.2 0-4.4 0c-0.3-0.1-0.6-0.2-0.9-0.3q-1.1-0.3-2.3-0.6c-1.4-0.3-2.8-0.5-4.2-0.8-3-0.5-5.9-0.9-8.9-1.5-0.1-0.1-0.2 0.2 0 0.3 2.9 0.7 5.8 1.6 8.7 2.4q1.3 0.3 2.6 0.6c-5.8 0.1-11.5 0.4-17.3 0.8-0.1 0-0.2 0.3 0 0.3 7.9-0.3 15.7-0.1 23.5 0.2 7.8 0.3 15.6 0.7 23.3 1.4 15.7 1.3 31.3 3.1 46.9 5.2 8.7 1.1 61.6 10.3 70.4 10.9q0.1 0 0.1 0 0.1 0.3 0.3 0.6 0.3 0.7 0.7 1.4 0.3 0.7 0.7 1.4 0.2 0.3 0.4 0.6 0.2 0.2 0.3 0.3c0 0.1 0.1 0.3 0.2 0.4 0 0.2 0.3 0 0.2-0.1z"/>
							<path id="&lt;Path&gt;" class="s6" d="m561.8 907.2c-2.7-4.5-4.9-9.4-7.4-14.1q-3.7-7.1-7.4-14.1c-4.9-9.4-22.6-41-24.3-43.2-0.1-0.2-0.4 0-0.3 0.1 0.8 2.5 11.8 23.4 14.3 28 5.1 9.4 10.5 18.5 15.7 27.7 1.5 2.7 3.1 5.3 4.6 7.9 1.5 2.6 3.2 5.2 4.6 7.9 0 0.1 0.3 0 0.2-0.2z"/>
						</g>
					</g>
				</g>
				<g id="&lt;Group&gt;">
					<g id="&lt;Group&gt;">
						<g id="&lt;Group&gt;">
							<g id="&lt;Group&gt;">
								<path id="&lt;Path&gt;" class="s1" d="m392.8 592.6l7.9 59.2c0.4 1.7-0.6 3-2.3 2.8l-29.6-3.4c-1.7-0.2-3.4-1.8-3.8-3.5l-7.9-59.2c-0.4-1.8 0.6-3 2.2-2.8l29.7 3.4c1.7 0.2 3.4 1.7 3.8 3.5z"/>
								<path id="&lt;Path&gt;" class="s3" d="m389.3 592.2l7.9 59.1c0.4 1.8-0.6 3.1-2.3 2.9l-29.7-3.4c-1.6-0.2-3.3-1.8-3.7-3.6l-7.9-59.1c-0.4-1.8 0.6-3.1 2.2-2.9l29.7 3.4c1.7 0.2 3.3 1.8 3.8 3.6z"/>
								<path id="&lt;Path&gt;" class="s6" d="m380.8 593.9c-0.1 1.4 0.9 2.6 2.3 2.7 1.4 0.1 2.7-0.9 2.8-2.3 0.1-1.4-0.9-2.6-2.3-2.7-1.4-0.2-2.6 0.9-2.8 2.3z"/>
							</g>
							<path id="&lt;Path&gt;" class="s8" d="m478.7 686.7c-20.6 34-63.7 76.2-79.2 77.7-7.5 0.7-20.8 1-29.7-8.5-19.3-20.9-33.3-58.4-34.8-79.2-0.5-7.4 36.5-19.4 41-12.9 10.8 15.1 22.1 43.7 24.3 43.8 8 0.2 38.1-20.7 62.7-35.5 28.9-17.5 24 1 15.7 14.6z"/>
							<g id="&lt;Group&gt;">
								<path id="&lt;Path&gt;" class="s8" d="m338.1 639.1c5.3-14.3 8.9-17.2 6.9-31.7-1.3-9.5 4.2-14.4 10-6.2 9.5 13.2 6.5 33.2 3.5 39.8z"/>
								<g id="&lt;Group&gt;">
									<path id="&lt;Path&gt;" class="s8" d="m336.1 683.2c0 0-4.4-21.2-0.3-37.1 2.9-10.9 11.7-34.1 44.2-43.3 7.7-2.2 20.2 0.1 9 8.3-8 5.8-14.9 7-18.9 11.2 0 0 15.6 4.9 17.5 12.7 0.8 3.5 2.9 13.1 3.5 20.8 0 0-1.7 0.5-3.8 1 0 0 1.5 7.3-4.8 16.9z"/>
								</g>
								<path id="&lt;Path&gt;" class="s8" d="m340.2 636.1c4.9-3.3 15.4-10.2 26-12.9 11.7-2.9 35.1-5.5 37.2 3.2 1.5 6.4-7.3 8.1-7.3 8.1 0 0 9.8 1 10 7.1 0.1 5.5-6.8 6.4-6.8 6.4 0 0 5.9 1.7 4.9 7-1.1 6.4-13.2 1.9-20 7.5-1.5 1.2-44-26.4-44-26.4z"/>
								<g id="&lt;Group&gt;">
									<path id="&lt;Path&gt;" class="s6" d="m367.2 636.1c5.1-2.4 18.2-4.8 28.7-1.8 0.2 0.1 0.3 0.3 0.1 0.3-12.3-0.9-23.9 0.7-28.8 1.6 0 0 0 0 0-0.1z"/>
								</g>
								<g id="&lt;Group&gt;">
									<path id="&lt;Path&gt;" class="s6" d="m370.5 647.9c4.7-1.6 18.2-3.5 28.8-0.1 0.2 0.1 0.3 0.3 0 0.3-12.8-1.5-23.8-0.8-28.7-0.1-0.1 0-0.1-0.1-0.1-0.1z"/>
								</g>
							</g>
						</g>
						<g id="&lt;Group&gt;">
							<path id="&lt;Path&gt;" class="s4" d="m452.8 724l-43.6-21.5c0 0 41.6-27.3 61-35.4 20.1-8.5 26.9-3.9 10.4 20-16.6 23.9-27.8 36.9-27.8 36.9z"/>
							<path id="&lt;Compound Path&gt;" fill-rule="evenodd" class="s2" d="m460.2 714.8q-0.1 0.1-0.2 0.3c-2.5-1.6-5.2-3.1-7.9-4.4-2.6-1.3-5.4-2.4-8.2-3.2q0.1-0.2 0.3-0.3c2.8 0.8 5.5 1.9 8.1 3.2q4 2 7.9 4.4zm-17.9-7.6c-3.3-0.8-6.8-0.9-10.2-0.3-2.8 0.5-5.5 1.6-8.1 2.9l-0.6-0.3c2.7-1.4 5.6-2.5 8.6-3 3.4-0.7 7-0.5 10.4 0.3q0.6 0.1 1.2 0.2-0.2 0.2-0.4 0.4-0.4-0.2-0.9-0.2zm45.8-32.9q-0.1 0.3-0.3 0.6-0.3 0.2-0.7 0.4c-3 1.7-5.8 3.7-8.3 6.2-2.4 2.4-4.5 5.3-6.2 8.3-1.7 3.1-3.1 6.5-4.2 9.8q-0.1 0-0.2 0-0.2 0-0.4-0.1c1.2-3.4 2.6-6.8 4.4-10 1.7-3 3.7-5.9 6.2-8.4 2.5-2.5 5.4-4.5 8.5-6.2q0.6-0.3 1.2-0.6zm-22.3 33.2q-0.5 0.8-1.1 1.4c1-3 1.9-6 3-9q0.2 0.1 0.4 0.1 0.1 0 0.1 0c-0.8 2.5-1.6 5-2.4 7.5zm-8.1-7.8c-3.4 0.8-6.6 2.4-9.6 4.1q-2.4 1.5-4.5 3.2 0.3 0.1 0.6 0.2 2-1.6 4.2-2.9c2.9-1.8 6.1-3.3 9.5-4.1 3.1-0.7 6.5-0.8 9.8-0.3q0-0.2 0.1-0.4c-3.3-0.5-6.8-0.5-10.1 0.2zm-17.8 10.7c-1.5 1.6-2.9 3.4-4.2 5.2l0.5 0.2q1.9-2.6 4.1-5 1.7-1.8 3.6-3.3-0.3-0.1-0.7-0.1c-1.1 0.9-2.2 1.9-3.3 3zm31-9.8q0.2-0.2 0.3-0.3-1.4-0.4-2.8-0.7c-0.1 0.2-0.1 0.3-0.2 0.4q1.4 0.3 2.7 0.6z"/>
							<g id="&lt;Group&gt;">
								<path id="&lt;Path&gt;" class="s6" d="m453.5 715c-1-0.6-2-1.1-3.1-1.6q-1.5-0.9-3.1-1.7-3.3-1.7-6.5-3.3c-4.3-2.2-8.7-4.3-13-6.4q-1.8-0.9-3.7-1.7c-1.2-0.5-2.5-1-3.8-1.6-0.1 0-0.1 0.1-0.1 0.1 1.1 0.6 2.1 1.2 3.2 1.8q1.6 0.9 3.2 1.7 3.3 1.7 6.5 3.3c4.3 2.1 8.6 4.2 12.9 6.2q1.8 0.8 3.6 1.6c1.3 0.6 2.5 1.3 3.9 1.7 0 0.1 0.1 0 0-0.1z"/>
							</g>
							<g id="&lt;Group&gt;" style="opacity: .1">
								<path id="&lt;Path&gt;" class="s5" d="m480.6 687.1c-16.6 23.9-27.8 36.9-27.8 36.9l-19.4-9.6 53.8-50.8c4.9 1.6 3.4 9-6.6 23.5z"/>
							</g>
						</g>
					</g>
					<g id="&lt;Group&gt;">
						<path id="&lt;Path&gt;" class="s4" d="m430 805.8c1.8 2.1 121.2 0.7 121.9 0 1.7-2-19.2-105-40.1-136.4-7.1-10.6-29.6-12.8-37.5-2.5-22.5 29.5-45.8 137-44.3 138.9z"/>
						<path id="&lt;Compound Path&gt;" fill-rule="evenodd" class="s2" d="m527.5 734.8c-3.1 1.7-6.4 2.9-9.8 3.8-3.4 0.8-7 1-10.4 0.7-3.5-0.3-7-1.1-10.2-2.3-3.3-1.1-6.5-2.6-9.6-4.3-3.3-1.8-6.6-3.8-9.8-6q0.1 0 0.1-0.1 0.5 0.3 0.9 0.6 4.4 2.8 8.9 5.3c3.1 1.7 6.3 3.1 9.6 4.3 3.2 1.2 6.6 1.9 10.1 2.2 3.4 0.3 6.9 0.1 10.3-0.8 3.3-0.9 6.6-2.1 9.6-3.8 2.6-1.4 5-3.1 7.1-5h0.1q0.3 0 0.7 0c-2.3 2.1-4.9 3.9-7.6 5.4zm7.5-6.1q0 0.2 0 0.3-0.2 0-0.3 0 0.1-0.1 0.3-0.3zm-65.1-7.2q-3.6-2.4-7.2-4.8 0-0.1 0.1-0.2c2.4 1.5 4.8 3.2 7.2 4.8 2.5 1.7 4.9 3.4 7.3 5q0 0-0.1 0.1c-2.5-1.6-4.9-3.2-7.3-4.9zm-16.1-10q0.1-0.1 0.1-0.3c2.9 1.5 5.7 3.2 8.4 4.9q-0.1 0.2-0.1 0.3c-2.7-1.7-5.5-3.4-8.4-4.9zm59.5-39.7c-2.1-0.5-4.2-0.9-6.3-1.1q-0.6 0-1.4 0 0.2-0.2 0.4-0.3 0.5 0 1.1 0 3 0.3 5.9 1 0.1 0.2 0.3 0.4zm-16.6-0.3c-3.3 0.9-6.6 2.1-9.6 3.8-3 1.7-5.8 3.7-8.3 6.2-2.4 2.4-4.5 5.3-6.2 8.3-1.7 3.1-3.1 6.5-4.2 9.8q-0.1 0-0.2 0-0.2 0-0.4-0.1c1.2-3.4 2.6-6.8 4.4-10 1.7-3 3.7-5.9 6.2-8.4 2.5-2.5 5.4-4.5 8.5-6.2 3-1.7 6.3-2.9 9.7-3.8 2.8-0.7 5.8-0.9 8.6-0.8q-0.1 0.2-0.3 0.3c-2.8 0-5.5 0.2-8.2 0.9zm-31.4 37.7c-0.8 2.4-1.6 4.9-2.5 7.3q-0.3-0.2-0.5-0.4c0.9-2.3 1.7-4.7 2.4-7 1-3.1 1.9-6.2 3-9.2q0.2 0.1 0.4 0.1 0.1 0 0.1 0c-1 3.1-2 6.2-2.9 9.2zm-3.1 7.2c0.2 0.1 0.3 0.2 0.5 0.3-1.6 4.1-3.5 8-6.1 11.5-1.6 2.1-3.4 4.1-5.4 5.8-0.3-0.1-0.6-0.1-0.9-0.2 2.2-1.7 4.2-3.7 5.8-5.9 2.6-3.5 4.5-7.4 6.1-11.5zm-13.1 19.2q-1.7 1.1-3.4 2 0.1-0.4 0.2-0.8 1.5-0.8 2.8-1.7 0.6-0.4 1.1-0.9 0.4 0.1 0.8 0.2-0.7 0.6-1.5 1.2zm60.9-68.4q-2.1 1.4-4 3.2-0.4-0.1-0.8-0.1 2.1-1.9 4.4-3.4 0.2 0.2 0.4 0.3zm-5.1 3.4q0.4 0.1 0.7 0.1-1.1 1-2.1 2.1c-2.4 2.6-4.3 5.5-5.8 8.6-3.1 6.2-4.8 13-6.6 19.7-0.7 2.4-1.3 4.9-2.2 7.3q-0.2-0.2-0.5-0.3c0.8-2.4 1.5-4.8 2.2-7.2 1.8-6.7 3.4-13.5 6.6-19.8 1.5-3.1 3.5-6.1 5.9-8.7q0.8-0.9 1.8-1.8zm-21.6 49.8c-1.6 2.3-3.4 4.4-5.5 6.2q-0.2-0.1-0.5-0.3c2.1-1.8 3.9-3.9 5.5-6.2 2.4-3.6 4.2-7.6 5.5-11.7q0.3 0.1 0.6 0.3c-1.4 4.1-3.2 8.1-5.6 11.7zm-6.1 6q0.2 0.2 0.5 0.3-0.8 0.7-1.6 1.4c-2.8 2.1-6 3.8-9.2 5.1-3.3 1.3-6.8 1.8-10.3 1.8-2-0.1-4-0.3-6-0.6q0.3-0.2 0.6-0.4 2.6 0.4 5.4 0.4c3.4 0 6.9-0.5 10.1-1.8 3.2-1.3 6.2-2.9 9-5q0.7-0.6 1.5-1.2zm-26.9 7.4q-0.2 0.2-0.5 0.4-1.5-0.2-2.9-0.6 0-0.2 0.1-0.4 1.7 0.4 3.3 0.6zm84.4-4.8q-0.2 0.2-0.4 0.4c-3.5-0.2-6.9-0.8-10.2-1.9q-5-1.6-9.7-3.9c-6.3-3.1-12.2-6.8-18.1-10.4q-3.7-2.3-7.4-4.5 0-0.1 0-0.3c2.6 1.5 5 3 7.5 4.6 3 1.8 5.9 3.7 8.9 5.5q4.5 2.6 9.2 4.9c3.1 1.5 6.3 2.8 9.7 3.8 3.3 1.1 6.7 1.7 10.2 1.8zm-46.3-20.9q0 0.2 0 0.3c-3.4-2-6.8-3.8-10.3-5.3-3.2-1.4-6.5-2.5-9.8-3.1 0-0.1 0-0.2 0.1-0.4 3.4 0.6 6.6 1.8 9.8 3.2 3.5 1.5 6.9 3.4 10.2 5.3zm-20.6-8.6q-0.1 0.2-0.1 0.4c-3.3-0.5-6.6-0.4-9.8 0.3q0.1-0.3 0.2-0.5c3.2-0.7 6.5-0.7 9.7-0.2zm67.3 29.9q0 0 0-0.1 0.1 0 0.1 0.1zm8 30.4c-3.2 1.1-6.1 2.6-8.9 4.5-5.7 4-10.4 9.1-15.2 14.1-1.8 1.9-3.6 3.7-5.5 5.4q-0.1-0.2-0.3-0.5c1.9-1.7 3.6-3.5 5.4-5.3 4.8-4.9 9.5-10.2 15.3-14.1 2.8-2 5.8-3.6 9-4.7q0.1 0.3 0.2 0.6zm-40.3 31.8c-3.1 1.6-6.4 2.6-9.8 3.2q-0.2-0.3-0.3-0.6c3.4-0.5 6.7-1.6 9.8-3.1 3.9-2 7.3-4.6 10.5-7.6q0.2 0.2 0.3 0.5c-3.2 3-6.6 5.6-10.5 7.6zm-10 3.2q0 0 0 0c-3.5 0.5-7.1 0.5-10.5 0.1-2.9-0.4-5.7-1.4-8.4-2.7q0.3-0.1 0.6-0.3c2.5 1.2 5.1 2 7.8 2.4 3.4 0.4 6.8 0.4 10.1 0q0.2 0.3 0.4 0.5c2.5 4.1 5.1 8.1 8 12h0.3q-2.7-3.6-5.1-7.3-1.5-2.3-3-4.7-0.1 0-0.2 0zm-20.4-3.4c-3.1-1.7-5.8-3.9-8.4-6.3-4.4-4.1-8.5-8.5-13-12.5q0.1 0 0.2-0.1c4.6 3.8 8.7 8.3 13.1 12.3 2.6 2.3 5.3 4.5 8.3 6.2q0.6 0.3 1.2 0.6-0.2 0.2-0.5 0.3-0.5-0.2-0.9-0.5zm-21.7-19q0.1-0.1 0.2-0.2-0.9-0.8-1.9-1.6c-2.8-2.1-5.8-4-9-5.3q-0.7-0.3-1.3-0.5-0.1-0.1-0.3-0.1 0.1-0.2 0.1-0.4 1.3-0.6 2.5-1.1c3.3-1.2 6.8-1.9 10.3-2.2 3.5-0.3 7-0.2 10.4 0.6q2.4 0.6 4.6 1.6-0.3 0.1-0.6 0.2-2-0.8-4.1-1.4c-3.3-0.8-6.8-0.8-10.3-0.5-3.4 0.3-6.8 1.1-10.1 2.2q-1.3 0.5-2.5 1.1-0.1 0-0.2 0.1 0.7 0.2 1.4 0.5c3.2 1.4 6.1 3.3 8.9 5.4q0.9 0.8 1.9 1.6zm76.1 34.1h-0.3c-3.2-4.9-6-9.9-8.8-15q-2.2-3.7-4.4-7.5 0.1-0.1 0.2-0.2c1.5 2.5 2.9 5.1 4.4 7.6 1.7 3.1 3.3 6.1 5.1 9.1q1.8 3 3.8 6zm-13.6-23.2q-0.1 0.1-0.2 0.2c-2-3.3-4.1-6.6-6.4-9.6-1.9-2.4-3.9-4.6-6.1-6.5q0.1-0.2 0.3-0.3c2.2 1.9 4.2 4.2 6 6.6 2.4 3 4.5 6.3 6.4 9.6zm-13.8-16.9c-2.7-2.2-5.8-3.9-9.1-4.8-3.3-0.9-6.9-1.1-10.3-1-3.5 0.2-6.9 0.8-10.2 1.8q-1.5 0.5-2.9 1.1-0.3-0.2-0.6-0.3 1.6-0.7 3.4-1.3c3.3-1 6.8-1.7 10.3-1.8 3.5-0.1 7 0.1 10.4 1.1 3.4 0.9 6.5 2.7 9.2 4.9q0.4 0.3 0.7 0.6-0.1 0.1-0.3 0.3-0.3-0.3-0.6-0.6zm-47.9 5.8q-0.1 0.1-0.3 0.3-0.1-0.2-0.3-0.3 0.2-0.2 0.4-0.3c4.5-3.2 9.3-6.3 14.4-8.5q0.3 0.1 0.6 0.3c-5.2 2.1-10.1 5.2-14.8 8.5zm-0.8 0.2q0.1 0.1 0.3 0.2c-5.5 3.9-10.8 8.1-16.8 11.3q-0.1 0-0.3 0.1 0-0.1 0-0.1 0-0.1 0-0.3 0.1 0 0.1 0c5.9-3.2 11.2-7.3 16.7-11.2zm42 21.8q-0.1 0-0.3 0.1-1-1.8-2.1-3.5c-1.6-2.5-3.1-4.9-4.7-7.4q0.1-0.1 0.2-0.2c1.6 2.5 3.1 5 4.7 7.4 0.7 1.2 1.4 2.4 2.2 3.6zm-14.3-20.6c-2.2-2.7-4.7-5.1-7.5-7.2q-2.2-1.6-4.6-2.7 0.3-0.1 0.6-0.2 2.2 1.1 4.2 2.6c2.9 2.1 5.4 4.6 7.6 7.3 2.5 3 4.7 6.1 6.8 9.3q-0.1 0.1-0.2 0.2c-2.2-3.2-4.4-6.3-6.9-9.3zm-40-8.8q0 0 0.1 0.1-0.1 0-0.1 0 0 0 0-0.1zm104.2-6.8c-2.3-1.1-4.9-2-7.4-2.4-3.5-0.6-7-0.9-10.5-0.5-3.5 0.2-7 0.9-10.2 2.2-3.3 1.2-6.4 3-9.2 5.1-1.7 1.3-3.4 2.8-5 4.3q0.3 0.1 0.5 0.4 2.3-2.3 4.9-4.2c2.7-2.1 5.7-3.9 9-5.1 3.2-1.3 6.6-2 10-2.3 3.5-0.3 7-0.1 10.4 0.5 2.6 0.4 5.2 1.3 7.6 2.4q0-0.2-0.1-0.4zm-52 19.3c-1.7 1.8-3.4 3.7-5.1 5.4q0.2 0.3 0.3 0.5 2.7-2.7 5.2-5.6c3.1-3.5 6.1-7 9.5-10.2q-0.2-0.3-0.5-0.4c-3.3 3.2-6.3 6.8-9.4 10.3zm-15.5 13.7q-0.6 0.3-1.3 0.6 0.4 0.2 0.7 0.3 0.5-0.2 0.9-0.4c3.8-2.2 7.2-5 10.2-8.1q-0.2-0.2-0.3-0.5c-3.1 3.1-6.4 5.9-10.2 8.1zm-9.7 3.5c-3.4 0.7-6.9 0.8-10.3 0.5-3.4-0.2-6.8-1.3-9.9-2.9-3-1.5-5.9-3.6-8.5-5.8q-1.4-1.1-2.8-2.3 0 0-0.1 0 0 0.2 0 0.4 1.3 1.1 2.6 2.2c2.6 2.3 5.5 4.4 8.6 6 3.1 1.6 6.5 2.7 10 3 3.5 0.3 7.1 0.2 10.5-0.5 2.9-0.6 5.8-1.5 8.4-2.9q-0.3-0.1-0.6-0.3c-2.5 1.2-5.2 2.1-7.9 2.6z"/>
					</g>
					<g id="&lt;Group&gt;">
						<g id="&lt;Group&gt;">
							<path id="&lt;Path&gt;" class="s8" d="m524.4 675.2c49.5 42.1 93.2 98 87.8 114.8-5.6 17.9-42.6 36-74.5 38.2-6.5 0.5-23.7-48.2-17-50 5.3-1.4 29.2-6.7 32.2-9.7 2.1-2.2-32.9-50.9-43.1-78.4-10.8-28.8 1.3-26.1 14.6-14.9z"/>
							<g id="&lt;Group&gt;">
								<g id="&lt;Group&gt;">
									<path id="&lt;Path&gt;" class="s8" d="m534.2 777.5c0 0-19.9 0.8-32.9 2-7.3 0.6-19.6 2.8-24.7 5.7-7.6 4.4-36.8 27.4-31.4 34.6 4.9 6.5 13.5-2.8 13.5-2.8 0 0-10.3 9.3-3.5 14.3 7 5 16.9-8.3 16.9-8.3 0 0-11.6 9.2-3.8 13.7 6.8 4 20-10 20-10 0 0-13.3 8.3-6.7 13.1 7.2 5.2 29.6-13.3 29.6-13.3 16.8 2.9 27.3 2.4 39.4-0.3 2.2-0.4-16.4-48.7-16.4-48.7z"/>
								</g>
								<g id="&lt;Group&gt;">
									<path id="&lt;Path&gt;" class="s6" d="m469 826.1q1.2-1.5 2.5-3c1.6-1.9 3.2-3.8 5.1-5.6q2.7-2.6 5.5-4.9c2.1-1.7 4.3-3.1 6.2-4.8 0.2-0.2 0.4 0.1 0.2 0.2-2 1.6-3.8 3.5-5.6 5.3q-2.7 2.7-5.3 5.4c-1.8 1.8-3.6 3.4-5.4 5.1q-1.3 1.3-2.6 2.7c-0.8 0.8-1.6 1.8-2.5 2.4-0.1 0.1-0.2 0-0.1-0.1 0.5-1 1.3-1.8 2-2.7z"/>
									<path id="&lt;Path&gt;" class="s6" d="m456.6 819c1.1-2 7.5-9 9.2-10.8 3.4-3.3 7-6.3 11-8.8 0.1-0.1 0.3 0.1 0.2 0.2-3.4 3.3-6.8 6.6-10.2 9.9-1.6 1.6-9 9.1-9.8 9.8-0.3 0.2-0.5-0.1-0.4-0.3z"/>
									<path id="&lt;Path&gt;" class="s6" d="m480.4 833.2c1.1-1.8 7.2-8.3 8.9-9.9 1.6-1.4 8.8-6.6 11.1-7.8 0.1-0.1 0.3 0.1 0.2 0.2-3.5 2.9-7 5.7-10.4 8.7-1.6 1.5-7.8 7.8-9.5 9.1-0.2 0.1-0.4-0.1-0.3-0.3z"/>
								</g>
							</g>
						</g>
						<g id="&lt;Group&gt;">
							<path id="&lt;Path&gt;" class="s4" d="m528 731.8l47-12.2c0 0-35.2-35.1-52.5-47-18.1-12.4-25.7-9.2-14.3 17.5 11.4 26.8 19.8 41.7 19.8 41.7z"/>
							<path id="&lt;Compound Path&gt;" class="s2" d="m532.6 680.4q-2.8-1.8-5.8-3.4c-3.1-1.7-6.2-3.1-9.5-4.3-3.3-1.2-6.8-2-10.2-2.3q-0.6 0-1.1 0-0.4-0.1-0.8-0.1-1.1 0-2.3 0 0 0.2 0 0.4 1-0.1 2-0.1 0.4 0.1 0.7 0.1 0.8 0 1.4 0c3.5 0.3 6.9 1.1 10.2 2.3 3.2 1.1 6.4 2.6 9.5 4.2q3.5 2 7 4.1-0.5-0.5-1.1-0.9zm-21.9-14.2q-2.9 1.8-5.5 4.1-0.1 0.2-0.3 0.3-1 0.9-1.8 1.8-0.1 0.1-0.2 0.2 0 0.4 0.1 0.8 0.2-0.3 0.5-0.6 1-1.1 2.1-2.1 0.2-0.2 0.4-0.3 2.4-2.3 5.2-4-0.3-0.1-0.5-0.2zm55.8 45c-1.3 2.1-2.7 4.1-4.4 5.9-2.3 2.5-5 4.7-8 6.5q-2.9 1.8-6.1 3l2.8-0.7q1.8-0.8 3.5-1.9c3-1.8 5.8-4 8.2-6.6 1.7-1.7 3.1-3.7 4.4-5.8q-0.2-0.2-0.4-0.4z"/>
							<path id="&lt;Path&gt;" class="s2" d="m551 696.6q-0.7 2-1.4 4.1c-2.1 6.6-4 13.4-7.4 19.5-1.7 3.1-3.8 5.9-6.3 8.4q-0.2 0.2-0.5 0.4 2.1 0.1 4.1-0.2l-2 0.6q-1.2 0-2.4 0-0.5 0.5-1 0.8l-1.2 0.4q0.7-0.6 1.4-1.2c-2.8-0.2-5.6-0.6-8.4-1.3q0-0.2-0.1-0.4c2.8 0.8 5.7 1.2 8.6 1.3h0.3q0.4-0.3 0.8-0.8c2.5-2.4 4.5-5.2 6.2-8.3 3.4-6 5.3-12.8 7.4-19.4 0.4-1.4 0.9-2.9 1.4-4.3q0.3 0.2 0.5 0.4z"/>
							<g id="&lt;Group&gt;">
								<path id="&lt;Path&gt;" class="s6" d="m529.1 722.9c1-0.4 2.2-0.7 3.3-1q1.7-0.5 3.5-1 3.4-1 7-1.9c4.6-1.2 9.3-2.5 14-3.6q1.9-0.5 3.9-0.9c1.4-0.3 2.7-0.5 4.1-0.8 0.1-0.1 0.1 0.1 0 0.1-1.1 0.3-2.2 0.8-3.4 1.1q-1.8 0.5-3.5 1-3.5 1-7.1 1.9c-4.6 1.2-9.2 2.4-13.8 3.4q-2 0.5-3.9 0.9c-1.4 0.4-2.7 0.7-4.1 0.9-0.1 0-0.1-0.1 0-0.1z"/>
								<path id="&lt;Path&gt;" class="s6" d="m511.7 703.2c-0.1-0.1 0.1-0.2 0.1-0.1q1.9 2.1 3.4 4.5-0.5-1.2-1-2.4c-1.2-2.5-2.3-5.1-3.4-7.7 0-0.1 0.1-0.1 0.1 0 2.3 4.3 4.8 8.5 7 12.9 2.1 4.3 4.3 8.7 6.4 13.1 1.1 2.5 2.4 5.6 3.5 8 1.4-0.2 3.1-0.7 4.7-0.9 0.1 0 0.1 0.2 0 0.2-1.6 0.5-3.3 1.2-5 1.5-0.2 0-8-15.5-11.5-23q-2.2-3-4.3-6.1z"/>
							</g>
						</g>
					</g>
					<g id="&lt;Group&gt;">
						<g id="&lt;Group&gt;">
							<g id="&lt;Group&gt;">
								<g id="&lt;Group&gt;">
									<path id="&lt;Path&gt;" class="s8" d="m481.2 685.9c6.8 2 19.1-7.8 24.2-16 0.3-0.6-0.2-6.7-0.5-14.3-0.2-4.5-0.3-9.6 0-14.2 0-1-29.6 5.4-29.6 5.4 0 0 2.4 9.9 1.9 18q-0.1 1-0.3 1.9-0.1 0.1-0.1 0.3c-0.8 3.6-2.1 16.9 4.4 18.9z"/>
								</g>
								<path id="&lt;Path&gt;" class="s6" d="m503.1 641.4c-1.8 7.8-7.8 26.5-23.3 25.9q-1.6 0-3-0.3c0-0.1 0-0.2 0.1-0.3q0.2-0.9 0.3-1.9c0.5-8.1-1.9-18-1.9-18 0 0 21.4-4.6 27.8-5.4z"/>
							</g>
							<g id="&lt;Group&gt;">
								<g id="&lt;Group&gt;">
									<path id="&lt;Path&gt;" class="s8" d="m508.7 607.1c2.7 10.4-4.2 40-11.8 46.3-11.1 9.2-28.6 9.3-36.2-3.9-7.4-12.8 2.2-51.2 10.7-56.9 12.5-8.3 33.4-1 37.3 14.5z"/>
								</g>
								<g id="&lt;Group&gt;">
									<path id="&lt;Path&gt;" class="s8" d="m508.7 607.1c2.7 10.4-4.2 40-11.8 46.3-11.1 9.2-28.6 9.3-36.2-3.9-7.4-12.8 2.2-51.2 10.7-56.9 12.5-8.3 33.4-1 37.3 14.5z"/>
								</g>
								<g id="&lt;Group&gt;">
									<g id="&lt;Group&gt;">
										<path id="&lt;Path&gt;" class="s6" d="m478.2 624.3c0-0.1 0.1 0.1 0.1 0.2-0.5 2-0.8 4.3 0.9 5.4 0 0 0 0.1-0.1 0.1-2.1-0.8-1.7-3.9-0.9-5.7z"/>
										<path id="&lt;Path&gt;" class="s6" d="m480.4 622.6c3.3 0.5 2.1 7-0.9 6.5-3-0.4-1.8-6.9 0.9-6.5z"/>
									</g>
									<g id="&lt;Group&gt;">
										<path id="&lt;Path&gt;" class="s6" d="m466.9 622.2c0 0-0.2 0.1-0.2 0.2-0.3 2-1 4.3-2.9 4.6-0.1 0-0.1 0.1 0 0.1 2.2 0.1 3.1-2.9 3.1-4.9z"/>
										<path id="&lt;Path&gt;" class="s6" d="m465.5 619.8c-3.2-0.8-4.6 5.6-1.7 6.4 2.9 0.8 4.4-5.7 1.7-6.4z"/>
									</g>
									<path id="&lt;Path&gt;" class="s6" d="m484.4 617.5c-0.9-0.3-1.7-0.6-2.6-0.9-1-0.4-1.8-0.6-2.4-1.5-0.4-0.4-0.2-1.3 0.2-1.7 1-0.8 2.3-0.7 3.5-0.3 1.3 0.4 2.2 1.1 2.9 2.2 0.7 1.1-0.5 2.5-1.6 2.2z"/>
									<path id="&lt;Path&gt;" class="s6" d="m463.5 616.4c0.9 0 1.8-0.1 2.7-0.2 1-0.1 1.9 0 2.7-0.7 0.5-0.4 0.6-1.2 0.2-1.7-0.7-1.1-2-1.3-3.2-1.3-1.4 0.1-2.4 0.5-3.4 1.4-1 0.9-0.2 2.5 1 2.5z"/>
									<path id="&lt;Path&gt;" class="s6" d="m478.1 643.6c-0.6 0.4-1.2 0.9-1.9 0.9-0.8-0.1-1.5-0.6-2.1-0.9-0.1-0.1-0.2 0-0.1 0 0.4 0.9 1.4 1.6 2.3 1.6 1 0 1.6-0.7 1.9-1.5 0.1-0.1-0.1-0.2-0.1-0.1z"/>
									<g id="&lt;Group&gt;">
										<g id="&lt;Group&gt;">
											<path id="&lt;Path&gt;" class="s6" d="m477.1 637.2c-1.5 1.5-3.3 2.2-5.2 2.2-0.8 0-1.6-0.1-2.5-0.4q-0.2 0-0.4-0.1-0.2-0.1-0.4-0.2c-0.3 0-0.4-0.3-0.4-0.5q0.1-0.1 0.1-0.2 0 0 0 0v-0.2c0.3-1.5 0.9-3.9 0.9-3.9-0.6 0.2-3.8 1-3.6 0.2 1.7-6.7 3.5-14 6.5-20.3 0.1-0.2 0.5-0.1 0.4 0.1-1.3 6.5-3.8 12.6-5.2 19.1 1-0.2 2.6-0.6 3.4-0.4 0.2 0.1-1.2 4.5-1.3 5.2q0 0 0 0c2.6 0.9 4.7 0.4 7.5-0.8 0.2-0.1 0.3 0 0.2 0.2z"/>
										</g>
									</g>
									<g id="&lt;Group&gt;">
										<path id="&lt;Path&gt;" class="s6" d="m470.5 638.4c0 0 1 2.1 2.8 3.1 0.6 0.4 1.4 0.7 2.2 0.6 1.7-0.1 2-1.6 1.9-2.9 0-1.1-0.3-2.1-0.3-2.1 0 0-2.8 1.8-6.6 1.3z"/>
										<path id="&lt;Path&gt;" class="s9" d="m473.3 641.5c0.6 0.4 1.4 0.7 2.2 0.6 1.7-0.1 2-1.6 1.9-2.9-1.7-0.2-3.7 0.7-4.1 2.3z"/>
									</g>
								</g>
								<g id="&lt;Group&gt;">
									<path id="&lt;Path&gt;" class="s10" d="m507.5 628.9c-1.9-0.8-5-8.5-6.3-11.7-1.5-3.2 0.8-17.5 1.4-20.8 3 2.8 5.2 6.4 6.2 10.5 1.3 4.7 0.6 13.3-1.3 22z"/>
									<g id="&lt;Group&gt;">
										<path id="&lt;Path&gt;" class="s6" d="m475.4 602.3c1.8 3.1 5 5.2 8.7 5.4 3.5 0.1 7.4-1.5 9.3-4.6 0-0.1 0.2 0 0.1 0.1-2 3.3-5.5 5.6-9.5 5.3-3.7-0.2-7.2-2.7-8.8-6.1 0-0.1 0.2-0.3 0.2-0.1z"/>
										<path id="&lt;Path&gt;" class="s6" d="m491.2 579.3c5.9 1.3 10.7 5.7 12 10.2 0.8 2.7 0.5 5.2-0.4 7.7-0.1 0.1-0.3 0-0.2-0.1 1.1-3.9 0.1-8.9-3.6-12.6-3.6-3.5-8.9-5.5-14-4.7-2.7 0.5-5 1.6-6.4 3.3-0.2 0.2-0.6 0-0.5-0.2 2.4-3.4 7.8-4.9 13.1-3.6z"/>
										<path id="&lt;Path&gt;" class="s6" d="m454.2 585c1.5-2.7 4.1-4.8 7-5.9 4.1-1.5 8.1-0.3 12.1 1 0.1 0 0.1 0.2 0 0.1-3.4-1-6.9-1.9-10.5-0.9-2.8 0.8-5.5 2.5-7.2 5-3.5 5.1-2.7 12.5 2 16.6 2.7 2.3 6.3 3.5 9.8 3.1 0.1 0 0.2 0.2 0.1 0.2-6.5 0.9-13-3.3-14.5-9.7-0.8-3.2-0.4-6.7 1.2-9.5z"/>
										<path id="&lt;Path&gt;" class="s6" d="m509.6 613.1c0 0 7.7-9.4 4.3-16.5-2-4-10.9-5.3-10.9-5.3 0 0-1.8-5.7-8.8-8.8-7.1-3.2-16.8-0.7-16.8-0.7 0 0-6.2-5.4-13.5-3-10.3 3.4-11.9 17.6-3.6 24 5.9 4.5 15.8 0.5 15.8 0.5 0.9 0.3 8.5 7.2 16.6 0.8 0 0 4.4 5.8 9.8 3.5 0 0 1.5 5.3 7.1 5.5z"/>
									</g>
								</g>
								<g id="&lt;Group&gt;">
									<path id="&lt;Path&gt;" class="s8" d="m501.2 631.1c0 0 7.4-9.2 11.6-6.5 4.2 2.7-1.8 16.3-7.1 17.9-5.2 1.6-6.8-3.3-6.8-3.3z"/>
									<path id="&lt;Path&gt;" class="s6" d="m511 628.5c0.1 0 0.1 0.1 0 0.1-3.7 1.2-5.8 4.4-7.4 7.8 1.2-1.3 2.7-1.9 4.4-0.5 0.1 0.1 0 0.2-0.1 0.2-1.5-0.4-2.6-0.2-3.6 0.9-0.8 0.8-1.3 1.8-1.9 2.7-0.2 0.3-0.8 0.1-0.6-0.2q0-0.1 0-0.1c0.2-4.6 4.2-10.8 9.2-10.9z"/>
								</g>
							</g>
						</g>
					</g>
					<path id="&lt;Path&gt;" class="s6" d="m508.9 672.1c-3.4 3.8-6.6 7.7-10.4 11.1-3.6 3.2-7.8 6.1-12.6 6.5-4.6 0.3-9.2-0.7-10.9-6.3-1.3-4.5-1-9.1-0.2-14.9 0.1-0.2-0.3-0.3-0.3 0-1.1 7.4-2.3 18.8 4.4 21.4 7.5 3 14.9-0.8 20.2-6 3.6-3.5 7.1-7.4 9.9-11.7 0.1-0.1-0.1-0.2-0.1-0.1z"/>
				</g>
			</g>
		</g>
	</g>
</svg>