<svg version="1.2" xmlns="http://www.w3.org/2000/svg" viewBox="0 0 1500 1000" width="1500" height="1000">
	<title>7039194-ai</title>
	<style>
		.s0 { fill: #ebebeb } 
		.s1 { fill: #f5f5f5 } 
		.s2 { fill: #e0e0e0 } 
		.s3 { fill: #ffffff } 
		.s4 { fill: #263238 } 
		.s5 { fill: #455a64 } 
		.s6 { fill:  #BA68C8 } 
		.s7 { fill: #000000 } 
		.s8 { fill: #fafafa } 
		.s9 { fill: #ffbf9d } 
		.s10 { fill: #ff9a6c } 
	</style>
	<g id="Background Complete">
		<g id="&lt;Group&gt;">
			<g id="&lt;Group&gt;">
				<g id="&lt;Group&gt;">
					<path id="&lt;Compound Path&gt;" fill-rule="evenodd" class="s0" d="m301.6 607.7c4.2-2.5 8.6-4.4 13.1-5.7l2.7-12.9 22-0.4 3.1 12.9c4.6 1.1 9.1 2.8 13.3 5.2l11.1-7.3 15.8 15.3-6.9 11.3c2.5 4.1 4.4 8.5 5.7 13.1l13 2.7 0.3 21.9-12.8 3.2c-1.2 4.5-2.9 9-5.3 13.3l7.3 11-15.2 15.8-11.3-6.9c-4.2 2.5-8.6 4.4-13.1 5.7l-2.7 13-22 0.4-3.1-12.9c-4.6-1.1-9.1-2.9-13.3-5.2l-11.1 7.2-15.8-15.2 6.9-11.3c-2.5-4.1-4.4-8.6-5.7-13.1l-13-2.7-0.3-21.9 12.8-3.2c1.2-4.6 2.9-9 5.3-13.3l-7.3-11.1 15.2-15.7zm11.7 29.2c-9 9.3-8.8 24.2 0.6 33.2 9.3 9 24.2 8.8 33.2-0.6 9.1-9.3 8.8-24.2-0.6-33.2-9.3-9-24.2-8.8-33.2 0.6z"/>
				</g>
			</g>
		</g>
		<g id="&lt;Group&gt;">
			<g id="&lt;Group&gt;">
				<g id="&lt;Group&gt;">
					<path id="&lt;Compound Path&gt;" fill-rule="evenodd" class="s1" d="m1238.7 105.7c3.6-2.2 7.4-3.9 11.4-5l2.3-11.3 19.1-0.3 2.8 11.2c4 1 7.9 2.5 11.6 4.5l9.6-6.3 13.8 13.3-6 9.9c2.2 3.6 3.8 7.4 5 11.4l11.3 2.3 0.3 19.1-11.2 2.8c-1 4-2.5 7.9-4.6 11.6l6.4 9.6-13.3 13.8-9.9-6c-3.6 2.2-7.4 3.8-11.4 4.9l-2.4 11.3-19.1 0.4-2.7-11.2c-4-1-7.9-2.5-11.6-4.6l-9.7 6.3-13.7-13.2 6-9.9c-2.2-3.6-3.9-7.5-5-11.4l-11.3-2.4-0.3-19.1 11.2-2.7c1-4 2.5-7.9 4.6-11.6l-6.4-9.7 13.3-13.7zm10.2 25.4c-7.9 8.2-7.7 21.1 0.5 29 8.1 7.9 21.1 7.6 29-0.5 7.8-8.1 7.6-21.1-0.5-29-8.2-7.8-21.2-7.6-29 0.5z"/>
				</g>
			</g>
		</g>
		<g id="&lt;Group&gt;">
			<g id="&lt;Group&gt;">
				<g id="&lt;Group&gt;">
					<path id="&lt;Compound Path&gt;" fill-rule="evenodd" class="s1" d="m150.4 111.5c4.1-2.5 8.5-4.4 13.1-5.7l2.7-13 22-0.4 3.2 12.9c4.6 1.1 9.1 2.9 13.4 5.3l11.1-7.3 15.8 15.3-6.9 11.3c2.5 4.2 4.4 8.6 5.7 13.2l13.1 2.7 0.4 22-13 3.2c-1.1 4.6-2.9 9.1-5.2 13.3l7.3 11.2-15.3 15.8-11.4-6.9c-4.2 2.5-8.6 4.4-13.2 5.7l-2.7 13-22 0.4-3.1-12.9c-4.7-1.1-9.1-2.9-13.4-5.2l-11.1 7.2-15.9-15.2 6.9-11.4c-2.5-4.2-4.4-8.6-5.7-13.2l-13-2.7-0.4-22 12.9-3.2c1.2-4.6 2.9-9.1 5.3-13.3l-7.3-11.1 15.3-15.9zm11.7 29.3c-9 9.4-8.8 24.4 0.6 33.4 9.4 9.1 24.3 8.8 33.4-0.6 9-9.3 8.8-24.3-0.6-33.3-9.4-9.1-24.3-8.8-33.4 0.5z"/>
				</g>
			</g>
		</g>
		<g id="&lt;Group&gt;">
			<g id="&lt;Group&gt;">
				<g id="&lt;Group&gt;">
					<g id="&lt;Group&gt;">
						<g id="&lt;Group&gt;">
							<path id="&lt;Path&gt;" class="s0" d="m244.7 780.1c8.7-6.3 19.7-8.5 30.4-8.3 5.7 0.1 11.8 0.9 16.2 4.5 4.5 3.7 6.3 11 2.4 15.2-2.3 2.6-5.8 3.4-9.2 3.9-8.2 1.1-17.5 1-23.3 6.9-3.3 3.3-5.1 8.3-9.3 10.4-4.2 2-9.4 0.1-12.3-3.5-2.9-3.5-3.7-8.4-3.3-13 0 0-0.3-9.8 8.4-16.1z"/>
						</g>
					</g>
				</g>
				<g id="&lt;Group&gt;">
					<g id="&lt;Group&gt;">
						<g id="&lt;Group&gt;">
							<path id="&lt;Path&gt;" class="s0" d="m217.1 758c6.9 7.4 17.7 3 22.1-2.8 4.5-5.7 5.6-13.3 6.6-20.5 2.2-16.5 4.3-33.8-1.4-49.4-1.8-4.6-4.3-9.2-8.2-12.2-3.9-3.1-9.4-4.5-14-2.5-5.4 2.3-8.1 8.3-9.8 13.9-5.2 16.6-6.6 34.2-4.1 51.3 1.1 8 3.3 16.3 8.8 22.2z"/>
						</g>
					</g>
				</g>
				<g id="&lt;Group&gt;">
					<g id="&lt;Group&gt;">
						<g id="&lt;Group&gt;">
							<path id="&lt;Path&gt;" class="s0" d="m205.1 794.2c4.8-7.6 4.4-17.7 0.6-25.8-3.8-8.2-10.7-14.6-18.2-19.5-8.8-5.8-18.7-9.8-29.1-11.9-4-0.7-8.3-1.2-12.3-0.2-4 1-7.8 3.7-9.2 7.6-2 5.8 1.6 11.9 5.3 16.8 6.6 8.6 13.8 16.7 21.6 24.1 6.2 6.1 13.3 11.9 21.8 13.7 8.4 1.9 16.7 0.3 20.2-5.9"/>
						</g>
					</g>
				</g>
				<g id="&lt;Group&gt;">
					<g id="&lt;Group&gt;">
						<g id="&lt;Group&gt;">
							<g id="&lt;Group&gt;">
								<path id="&lt;Path&gt;" class="s2" d="m235 865.5c0.1 0 0.1-1.4-0.1-3.8q-0.2-4.1-0.5-10.3c-0.1-4.4-0.3-9.6 0.1-15.3 0.4-5.7 1.4-12 2.8-18.4 1.6-6.4 3.8-12.3 6.7-17.2 2.8-5 6.4-8.8 9.9-11.2 3.6-2.4 6.9-3.7 9.2-4.4 2.3-0.6 3.6-0.9 3.6-1.1 0-0.1-1.3 0.1-3.8 0.5-2.4 0.6-5.8 1.7-9.6 4.1-3.7 2.4-7.6 6.3-10.6 11.3-3 5.1-5.3 11.1-6.9 17.6-1.5 6.6-2.4 12.9-2.7 18.7-0.3 5.8-0.1 11.1 0.2 15.4 0.3 4.4 0.7 7.9 1 10.3 0.3 2.5 0.6 3.8 0.7 3.8z"/>
							</g>
						</g>
					</g>
				</g>
				<g id="&lt;Group&gt;">
					<g id="&lt;Group&gt;">
						<g id="&lt;Group&gt;">
							<g id="&lt;Group&gt;">
								<path id="&lt;Path&gt;" class="s2" d="m234.5 873.8q0.1 0-0.1-1.7-0.3-1.9-0.8-4.9c-0.6-4.3-1.5-10.5-2.4-18.2-1.9-15.4-3-32.1-3.9-55.8-0.8-22.2-1.4-48.2-0.4-65.2 0.2-3.9 0.4-7.4 0.7-10.5 0.2-3 0.4-5.7 0.6-7.9q0.3-3 0.5-4.9 0.1-1.8 0-1.8 0 0-0.3 1.7-0.3 2-0.8 5c-0.3 2.1-0.6 4.8-0.9 7.8-0.3 3.1-0.6 6.6-0.9 10.5-1.2 15.5-1.6 37-0.8 60.7 0.9 23.7 2.9 45.1 5.1 60.5 1 7.7 2.1 13.9 2.9 18.2q0.7 2.9 1.1 4.9 0.3 1.7 0.4 1.6z"/>
							</g>
						</g>
					</g>
				</g>
				<g id="&lt;Group&gt;">
					<g id="&lt;Group&gt;">
						<g id="&lt;Group&gt;">
							<g id="&lt;Group&gt;">
								<path id="&lt;Path&gt;" class="s2" d="m228.6 850.1c0.1 0-0.2-1.7-0.8-4.8-0.6-3-1.7-7.3-3.3-12.6-1.7-5.3-3.9-11.5-7-18.1-1.3-3.1-4.5-10.4-11.1-21-8.7-14.5-19.4-25.8-28.3-32.5-2.1-1.8-4.3-3-6.1-4.2-1-0.6-1.8-1.2-2.6-1.6q-1.3-0.6-2.3-1.2c-2.8-1.3-4.4-2-4.4-1.9-0.2 0.3 6.2 2.9 14.8 9.7 8.6 6.8 19 18.1 27.7 32.4 4.8 7.8 8.4 14.8 11.1 20.8 3.1 6.6 5.4 12.7 7.2 17.9 1.8 5.2 3 9.5 3.8 12.5 0.7 2.9 1.2 4.6 1.3 4.6z"/>
							</g>
						</g>
					</g>
				</g>
			</g>
			<g id="&lt;Group&gt;">
				<g id="&lt;Group&gt;">
					<g id="&lt;Group&gt;">
						<path id="&lt;Path&gt;" class="s2" d="m185.4 849.5l4.2 56.8h73l4.1-56.8z"/>
					</g>
				</g>
			</g>
			<g id="&lt;Group&gt;">
				<g id="&lt;Group&gt;">
					<g id="&lt;Group&gt;">
						<path id="&lt;Path&gt;" class="s2" d="m178.4 827.1v22.4h97.1v-22.4z"/>
					</g>
				</g>
			</g>
			<g id="&lt;Group&gt;">
				<g id="&lt;Group&gt;">
					<g id="&lt;Group&gt;">
						<path id="&lt;Path&gt;" class="s0" d="m178.4 904.2v6.2h4.5 90.9v-6.2z"/>
					</g>
				</g>
			</g>
			<g id="&lt;Group&gt;">
				<g id="&lt;Group&gt;">
					<g id="&lt;Group&gt;">
						<path id="&lt;Path&gt;" class="s2" d="m187.4 921.3l-4.5-10.9h87.5l-5.2 10.9z"/>
					</g>
				</g>
			</g>
			<g id="&lt;Group&gt;">
				<g id="&lt;Group&gt;">
					<g id="&lt;Group&gt;">
						<g id="&lt;Group&gt;">
							<path id="&lt;Path&gt;" class="s1" d="m265.4 868.1q0 0-0.4 0.5-0.4 0.6-1 1.5-1.6 1.9-4.3 5.4l-0.2 0.2-0.2-0.2c-2.6-3.7-6.2-8.7-10.4-14.5h0.6c-3.1 4.4-6.6 9.3-10.3 14.6l-0.3 0.5-0.4-0.5c-3.8-4.5-7.9-9.4-12.2-14.5h0.7q-0.3 0.4-0.7 0.8c-3.7 4.8-7.4 9.4-10.9 13.7l-0.3 0.5-0.4-0.5c-3.7-5.2-7.1-10.1-10.3-14.6l0.6 0.1c-5 5.7-9.3 10.6-12.6 14.4l-0.3 0.3-0.1-0.3q-2.5-4.2-4-6.7-0.6-1.1-1-1.8-0.4-0.6-0.3-0.6 0 0 0.4 0.6 0.4 0.6 1.1 1.7 1.5 2.4 4.2 6.5h-0.4c3.2-3.8 7.5-8.8 12.5-14.6l0.3-0.4 0.3 0.4c3.1 4.4 6.6 9.3 10.3 14.5h-0.7c3.5-4.4 7.2-9 10.9-13.7q0.4-0.5 0.7-0.9l0.3-0.4 0.4 0.4c4.3 5.1 8.4 10 12.2 14.6h-0.7c3.7-5.2 7.2-10.1 10.4-14.5l0.3-0.4 0.3 0.4c4.1 5.9 7.6 10.9 10.2 14.6h-0.4q2.8-3.4 4.5-5.3 0.7-0.8 1.1-1.4 0.5-0.4 0.5-0.4z"/>
						</g>
					</g>
				</g>
			</g>
			<g id="&lt;Group&gt;">
				<g id="&lt;Group&gt;">
					<g id="&lt;Group&gt;">
						<g id="&lt;Group&gt;">
							<path id="&lt;Path&gt;" class="s1" d="m267.8 849.1c0 0.3-18.3 0.5-40.9 0.5-22.6 0-40.9-0.2-40.9-0.5 0-0.2 18.3-0.4 40.9-0.4 22.6 0 40.9 0.2 40.9 0.4z"/>
						</g>
					</g>
				</g>
			</g>
			<g id="&lt;Group&gt;">
				<g id="&lt;Group&gt;">
					<g id="&lt;Group&gt;">
						<g id="&lt;Group&gt;">
							<path id="&lt;Path&gt;" class="s1" d="m271.4 911c0 0.2-19.8 0.4-44.4 0.4-24.5 0-44.4-0.2-44.4-0.4 0-0.3 19.9-0.5 44.4-0.5 24.6 0 44.4 0.2 44.4 0.5z"/>
						</g>
					</g>
				</g>
			</g>
		</g>
		<g id="&lt;Group&gt;">
			<g id="&lt;Group&gt;">
				<g id="&lt;Group&gt;">
					<g id="&lt;Group&gt;">
						<g id="&lt;Group&gt;">
							<g id="&lt;Group&gt;">
								<path id="&lt;Path&gt;" class="s2" d="m1115.4 769.9c-0.1 0-0.2-1.4-0.7-3.8-0.5-2.4-1.3-5.9-3-9.9-1.7-4-4.4-8.6-8.6-12.6-4.1-4-10.2-7-16.8-7-6.7 0-12.8 2.9-16.9 6.9-4.2 3.9-7 8.5-8.7 12.5-1.7 4.1-2.6 7.5-3 10-0.5 2.4-0.6 3.7-0.7 3.7q-0.1 0 0-1c0-0.6 0.1-1.6 0.3-2.8 0.4-2.5 1.1-6 2.8-10.1 1.7-4.1 4.4-8.9 8.7-13 4.2-4.1 10.5-7.2 17.5-7.1 6.9 0 13.2 3.1 17.4 7.2 4.2 4.2 6.9 8.9 8.6 13 1.7 4.1 2.4 7.7 2.8 10.2 0.1 1.2 0.2 2.1 0.3 2.8q0 1 0 1z"/>
							</g>
						</g>
					</g>
				</g>
				<g id="&lt;Group&gt;">
					<g id="&lt;Group&gt;">
						<g id="&lt;Group&gt;">
							<g id="&lt;Group&gt;">
								<path id="&lt;Path&gt;" class="s2" d="m1125.4 769.9c0 0-0.1-1.4-0.6-3.8-0.5-2.4-1.3-5.9-3-9.9-1.8-4-4.4-8.6-8.6-12.6-4.2-4-10.2-7-16.9-7-6.6 0-12.7 2.9-16.8 6.9-4.3 3.9-7 8.5-8.7 12.5-1.8 4.1-2.6 7.5-3.1 10-0.4 2.4-0.5 3.7-0.6 3.7q-0.1 0 0-1c0-0.6 0.1-1.6 0.3-2.8 0.4-2.5 1.1-6 2.8-10.1 1.7-4.1 4.4-8.9 8.7-13 4.2-4.1 10.5-7.2 17.4-7.1 7 0 13.3 3.1 17.5 7.2 4.2 4.2 6.9 8.9 8.6 13 1.7 4.1 2.4 7.7 2.7 10.2 0.2 1.2 0.3 2.1 0.3 2.8q0.1 1 0 1z"/>
							</g>
						</g>
					</g>
				</g>
				<g id="&lt;Group&gt;">
					<g id="&lt;Group&gt;">
						<g id="&lt;Group&gt;">
							<path id="&lt;Path&gt;" class="s0" d="m1028.1 766.3l113.9-0.9 2.5 155.2h-127.8z"/>
						</g>
					</g>
				</g>
				<g id="&lt;Group&gt;">
					<g id="&lt;Group&gt;">
						<g id="&lt;Group&gt;">
							<path id="&lt;Path&gt;" class="s2" d="m1142 765.4h14.3l12.3 155.2h-24.1z"/>
						</g>
					</g>
				</g>
			</g>
			<g id="&lt;Group&gt;">
				<g id="&lt;Group&gt;">
					<g id="&lt;Group&gt;">
						<path id="&lt;Path&gt;" class="s3" d="m1114 839h-64.8v-12.5h64.8z"/>
					</g>
				</g>
			</g>
		</g>
		<g id="&lt;Group&gt;">
			<path id="&lt;Path&gt;" class="s2" d="m1347.3 420.4c0 0-26.6 10.1-20.3 38.5 6.4 28.4 19 50.7 32.2 60.1 13.2 9.3 30.8 4.6 36.5-2 3.3-3.8-3.8-24.6-14.6-25.7-5-0.5-10 11.8-17.9 6.7-7.9-5-19.6-32-18.6-38.7 1-6.7 12-5.9 15.9-8.4 7.2-4.6-2.7-37.2-13.2-30.5z"/>
		</g>
	</g>
	<g id="Floor">
		<g id="&lt;Group&gt;">
			<g id="&lt;Group&gt;">
				<path id="&lt;Path&gt;" class="s4" d="m106.9 921.3c0-0.3 285.8-0.5 638.2-0.5 352.6 0 638.3 0.2 638.3 0.5 0 0.3-285.7 0.5-638.3 0.5-352.4 0-638.2-0.2-638.2-0.5z"/>
			</g>
		</g>
	</g>
	<g id="Device">
		<g id="&lt;Group&gt;">
			<g id="&lt;Group&gt;">
				<g id="&lt;Group&gt;">
					<g id="&lt;Group&gt;">
						<g id="&lt;Group&gt;">
							<g id="&lt;Group&gt;">
								<g id="&lt;Group&gt;">
									<g id="&lt;Group&gt;">
										<g id="&lt;Group&gt;">
											<g id="&lt;Group&gt;">
												<g id="&lt;Group&gt;">
													<g id="&lt;Group&gt;">
														<g id="&lt;Group&gt;">
															<g id="&lt;Group&gt;">
																<g id="&lt;Group&gt;">
																	<g id="&lt;Group&gt;">
																		<g id="&lt;Group&gt;">
																			<g id="&lt;Group&gt;">
																				<g id="&lt;Group&gt;">
																					<g id="&lt;Group&gt;">
																						<g id="&lt;Group&gt;">
																							<g id="&lt;Group&gt;">
																								<g id="&lt;Group&gt;">
																									<g id="&lt;Group&gt;">
																										<path id="&lt;Path&gt;" class="s4" d="m1023.5 920.8h-522.9c-14.1 0-25.6-11.4-25.6-25.6v-772.7c0-14.2 11.5-25.6 25.6-25.6h522.9c14.2 0 25.7 11.4 25.7 25.6v772.7c0 14.2-11.5 25.6-25.7 25.6z"/>
																									</g>
																								</g>
																							</g>
																						</g>
																					</g>
																				</g>
																				<g id="&lt;Group&gt;">
																					<g id="&lt;Group&gt;">
																						<g id="&lt;Group&gt;">
																							<g id="&lt;Group&gt;">
																								<g id="&lt;Group&gt;">
																									<g id="&lt;Group&gt;">
																										<g id="&lt;Group&gt;">
																											<path id="&lt;Path&gt;" class="s4" d="m1023.5 920.8q0 0 1.8-0.1 0.9 0 2.2-0.2c0.9-0.1 1.9-0.4 3-0.7 2.3-0.7 5-1.8 7.8-3.8 2.8-2 5.7-5 7.9-9 1-2 1.8-4.3 2.3-6.8 0.5-2.5 0.5-5.2 0.5-8.1q0-8.5 0-18.5c0-13.4 0-28.9-0.1-46.3 0-69.6-0.1-170.4-0.2-294.9 0-62.3 0-130.5 0-203.7 0-36.6 0-74.4-0.1-113.4q0-29.3 0-59.4 0-15 0-30.2c0-2.6 0.1-5.1-0.4-7.6-0.4-2.4-1.1-4.8-2.3-7-2.3-4.5-6-8.2-10.4-10.7-2.2-1.2-4.6-2-7.1-2.5-2.5-0.5-5-0.5-7.6-0.5q-7.8 0-15.6 0-15.6 0-31.4 0-31.6 0-64 0c-43 0-87 0-131.8 0-89.6 0-182.3 0-277.3 0-5.8 0.1-11.6 2.1-16.1 5.8-4.4 3.7-7.5 9-8.6 14.6-0.6 2.9-0.4 5.8-0.4 8.7v8.9q0 8.8 0 17.6 0 35.2 0 69.9c0 46.3-0.1 91.9-0.1 136.7 0 89.6 0 176 0 258.3 0 82.3 0 160.6 0 233.8q0 13.7 0 27.2-0.1 6.7-0.1 13.4c0.1 2.3 0 4.5 0.3 6.6 0.3 2.2 1 4.3 1.8 6.3 3.4 7.9 11.1 13.9 19.6 14.9 2.1 0.3 4.2 0.3 6.4 0.3q3.2 0 6.5 0 6.4 0 12.8 0c33.9 0 66.6 0 97.7 0 124.5 0.1 225.3 0.2 294.9 0.2 34.8 0.1 61.8 0.1 80.2 0.1 9.1 0.1 16.1 0.1 20.8 0.1 4.7 0 7.1 0 7.1 0 0 0-2.4 0.1-7.1 0.1-4.7 0-11.7 0-20.8 0.1-18.4 0-45.4 0-80.2 0.1-69.6 0-170.4 0.1-294.9 0.2-31.1 0-63.8 0-97.7 0q-6.4 0-12.8 0-3.3 0-6.5 0c-2.1 0-4.3 0-6.5-0.3-8.8-1.1-16.8-7.2-20.4-15.5-0.8-2-1.5-4.2-1.8-6.5-0.3-2.2-0.3-4.5-0.3-6.7q0-6.7 0-13.4 0-13.5 0-27.2c0-73.2 0-151.5-0.1-233.8 0-82.3 0-168.7 0-258.3 0-44.8 0-90.4 0-136.7q0-34.7 0-69.9 0-8.8 0-17.6v-8.9c0-2.9-0.2-5.9 0.5-8.9 1.1-5.9 4.3-11.4 9-15.3 4.7-3.9 10.7-6 16.8-6 95 0 187.7 0 277.3 0 44.8 0 88.8 0 131.8 0q32.4 0 64 0 15.8 0 31.4 0 7.8 0 15.6 0c2.6 0 5.2 0 7.8 0.5 2.6 0.6 5.1 1.5 7.4 2.7 4.6 2.5 8.4 6.4 10.8 11.1 1.2 2.3 2 4.8 2.5 7.4 0.5 2.5 0.4 5.1 0.4 7.7q0 15.2 0 30.2 0 30.1 0 59.4c0 39-0.1 76.8-0.1 113.4 0 73.2 0 141.4 0 203.7-0.1 124.5-0.2 225.3-0.2 294.9 0 17.4-0.1 32.9-0.1 46.3q0 10 0 18.5c0 2.9 0 5.6-0.5 8.1-0.6 2.5-1.4 4.9-2.4 6.9-2.2 4.1-5.1 7-8 9-2.8 2.1-5.6 3.2-7.8 3.8-1.2 0.3-2.2 0.6-3.1 0.7q-1.3 0.2-2.2 0.2-1.8 0.1-1.8 0z"/>
																										</g>
																									</g>
																								</g>
																							</g>
																						</g>
																					</g>
																				</g>
																			</g>
																		</g>
																	</g>
																</g>
															</g>
														</g>
													</g>
													<g id="&lt;Group&gt;">
														<g id="&lt;Group&gt;">
															<g id="&lt;Group&gt;">
																<g id="&lt;Group&gt;">
																	<g id="&lt;Group&gt;">
																		<g id="&lt;Group&gt;">
																			<g id="&lt;Group&gt;">
																				<g id="&lt;Group&gt;">
																					<g id="&lt;Group&gt;">
																						<g id="&lt;Group&gt;">
																							<g id="&lt;Group&gt;">
																								<g id="&lt;Group&gt;">
																									<g id="&lt;Group&gt;">
																										<path id="&lt;Path&gt;" class="s5" d="m784.1 879.4c0 12.2-9.9 22.1-22 22.1-12.2 0-22.1-9.9-22.1-22.1 0-12.1 9.9-22 22.1-22 12.1 0 22 9.9 22 22z"/>
																									</g>
																								</g>
																							</g>
																						</g>
																					</g>
																				</g>
																			</g>
																		</g>
																	</g>
																</g>
															</g>
														</g>
													</g>
												</g>
											</g>
										</g>
									</g>
								</g>
								<g id="&lt;Group&gt;">
									<g id="&lt;Group&gt;">
										<g id="&lt;Group&gt;">
											<g id="&lt;Group&gt;">
												<g id="&lt;Group&gt;">
													<path id="&lt;Path&gt;" class="s5" d="m820.9 140.4h-117.3c-4.5 0-8.1-3.7-8.1-8.2 0-4.5 3.6-8.2 8.1-8.2h117.3c4.5 0 8.2 3.7 8.2 8.2 0 4.5-3.7 8.2-8.2 8.2z"/>
												</g>
											</g>
										</g>
									</g>
								</g>
							</g>
						</g>
						<g id="&lt;Group&gt;">
							<g id="&lt;Group&gt;">
								<g id="&lt;Group&gt;">
									<g id="&lt;Group&gt;">
										<g id="&lt;Group&gt;">
											<g id="&lt;Group&gt;">
												<g id="&lt;Group&gt;">
													<g id="&lt;Group&gt;">
														<g id="&lt;Group&gt;">
															<g id="&lt;Group&gt;">
																<g id="&lt;Group&gt;">
																	<g id="&lt;Group&gt;">
																		<g id="&lt;Group&gt;">
																			<path id="&lt;Path&gt;" class="s3" d="m1030.6 843.8h-538v-688.2h538z"/>
																		</g>
																	</g>
																</g>
															</g>
														</g>
													</g>
												</g>
											</g>
										</g>
									</g>
								</g>
							</g>
						</g>
					</g>
				</g>
			</g>
			<g id="&lt;Group&gt;">
				<path id="&lt;Path&gt;" class="s2" d="m746.7 529.9h-145.3c-6.2 0-11.2-5-11.2-11.2 0-6.2 5-11.2 11.2-11.2h145.3c6.1 0 11.2 5 11.2 11.2 0 6.2-5.1 11.2-11.2 11.2z"/>
			</g>
			<g id="&lt;Group&gt;">
				<path id="&lt;Path&gt;" class="s2" d="m941.3 524.8h-42.8c-6.2 0-11.2-5-11.2-11.2 0-6.2 5-11.2 11.2-11.2h42.8c6.2 0 11.2 5 11.2 11.2 0 6.2-5 11.2-11.2 11.2z"/>
			</g>
			<g id="&lt;Group&gt;">
				<path id="&lt;Path&gt;" class="s2" d="m795.7 577.5h-194.3c-6.2 0-11.2-5.1-11.2-11.2 0-6.2 5-11.2 11.2-11.2h194.3c6.2 0 11.2 5 11.2 11.2 0 6.1-5 11.2-11.2 11.2z"/>
			</g>
			<g id="&lt;Group&gt;">
				<path id="&lt;Path&gt;" class="s2" d="m941.3 572.4h-42.8c-6.2 0-11.2-5.1-11.2-11.2 0-6.2 5-11.2 11.2-11.2h42.8c6.2 0 11.2 5 11.2 11.2 0 6.1-5 11.2-11.2 11.2z"/>
			</g>
			<g id="&lt;Group&gt;">
				<path id="&lt;Path&gt;" class="s2" d="m680.4 625h-79c-6.2 0-11.2-5-11.2-11.2 0-6.2 5-11.2 11.2-11.2h79c6.2 0 11.2 5 11.2 11.2 0 6.2-5 11.2-11.2 11.2z"/>
			</g>
			<g id="&lt;Group&gt;">
				<path id="&lt;Path&gt;" class="s2" d="m941.3 619.9h-42.8c-6.2 0-11.2-5-11.2-11.2 0-6.2 5-11.2 11.2-11.2h42.8c6.2 0 11.2 5 11.2 11.2 0 6.2-5 11.2-11.2 11.2z"/>
			</g>
			<g id="&lt;Group&gt;">
				<path id="&lt;Path&gt;" class="s5" d="m941.3 665.2h-42.8c-6.2 0-11.2-5-11.2-11.2 0-6.2 5-11.2 11.2-11.2h42.8c6.2 0 11.2 5 11.2 11.2 0 6.2-5 11.2-11.2 11.2z"/>
			</g>
			<g id="&lt;Group&gt;">
				<g id="&lt;Group&gt;">
					<g id="&lt;Group&gt;">
						<g id="&lt;Group&gt;">
							<path id="&lt;Path&gt;" class="s6" d="m843.4 450.7h-148.3c-4.3 0-7.7-3.5-7.7-7.7v-148.4c0-4.2 3.4-7.6 7.7-7.6h148.3c4.3 0 7.7 3.4 7.7 7.6v148.4c0 4.2-3.4 7.7-7.7 7.7z"/>
						</g>
						<g id="&lt;Group&gt;">
							<g id="&lt;Group&gt;">
								<path id="&lt;Path&gt;" class="s3" d="m796.5 381.5h-54c-0.5 0-0.8-0.3-0.8-0.7 0-0.5 0.3-0.8 0.8-0.8h53.4l6.2-35h-64.7c-0.5 0-0.8-0.3-0.8-0.7 0-0.4 0.3-0.8 0.8-0.8h65.6q0.3 0 0.6 0.3 0.2 0.3 0.1 0.6l-6.4 36.5c-0.1 0.3-0.4 0.6-0.8 0.6z"/>
							</g>
							<g id="&lt;Group&gt;">
								<path id="&lt;Path&gt;" class="s3" d="m794.7 394.3l-51.5-0.2c-0.3 0-0.7-0.3-0.7-0.7l-7.5-58.1h-15.8c-0.5 0-0.8-0.3-0.8-0.7 0-0.4 0.3-0.8 0.8-0.8h16.5c0.4 0 0.7 0.3 0.7 0.7l7.5 58.1 50.8 0.2c0.4 0 0.8 0.3 0.8 0.7 0 0.4-0.4 0.8-0.8 0.8z"/>
							</g>
							<g id="&lt;Group&gt;">
								<path id="&lt;Compound Path&gt;" fill-rule="evenodd" class="s3" d="m751.6 412.6c-3.9 0-7.1-3.2-7.1-7.2 0-3.9 3.2-7.1 7.1-7.1 4 0 7.2 3.2 7.2 7.1 0 4-3.2 7.2-7.2 7.2zm0-12.8c-3.1 0-5.6 2.5-5.6 5.6 0 3.2 2.5 5.7 5.6 5.7 3.2 0 5.7-2.5 5.7-5.7 0-3.1-2.5-5.6-5.7-5.6z"/>
							</g>
							<g id="&lt;Group&gt;">
								<path id="&lt;Compound Path&gt;" fill-rule="evenodd" class="s3" d="m787.2 412.6c-4 0-7.2-3.2-7.2-7.2 0-3.9 3.2-7.1 7.2-7.1 3.9 0 7.1 3.2 7.1 7.1 0 4-3.2 7.2-7.1 7.2zm0-12.8c-3.1 0-5.7 2.5-5.7 5.6 0 3.2 2.6 5.7 5.7 5.7 3.1 0 5.6-2.5 5.6-5.7 0-3.1-2.5-5.6-5.6-5.6z"/>
							</g>
							<g id="&lt;Group&gt;">
								<path id="&lt;Path&gt;" class="s3" d="m759.1 381.5c-0.3 0-0.7-0.3-0.7-0.7l-2.2-35.3c0-0.4 0.3-0.8 0.7-0.8 0.4 0 0.8 0.3 0.8 0.7l2.2 35.3c0 0.4-0.3 0.8-0.7 0.8q0 0-0.1 0z"/>
							</g>
							<g id="&lt;Group&gt;">
								<path id="&lt;Path&gt;" class="s3" d="m778.9 381.5q0 0 0 0c-0.4 0-0.8-0.4-0.7-0.8l1.9-35.3c0.1-0.4 0.4-0.7 0.8-0.7 0.4 0 0.8 0.4 0.7 0.8l-1.9 35.3c-0.1 0.4-0.4 0.7-0.8 0.7z"/>
							</g>
							<g id="&lt;Group&gt;">
								<path id="&lt;Path&gt;" class="s3" d="m739.4 363.9c-0.5 0-0.8-0.4-0.8-0.8 0-0.4 0.3-0.7 0.7-0.7l60.4-0.6q0 0 0.1 0c0.4 0 0.7 0.3 0.7 0.7 0 0.4-0.3 0.8-0.7 0.8l-60.4 0.6q0 0 0 0z"/>
							</g>
						</g>
					</g>
					<g id="&lt;Group&gt;">
						<path id="&lt;Path&gt;" class="s3" d="m824 338.3c0 9.8-7.9 17.7-17.7 17.7-9.7 0-17.6-7.9-17.6-17.7 0-9.7 7.9-17.6 17.6-17.6 9.8 0 17.7 7.9 17.7 17.6z"/>
					</g>
				</g>
				<g id="&lt;Group&gt;">
					<path id="&lt;Compound Path&gt;" class="s6" d="m811.4 338.9q1.1 1.3 1.1 3.1 0 1.3-0.7 2.5-0.7 1.2-2.2 1.9-1.5 0.7-3.7 0.7-1.6 0-3.3-0.5-1.6-0.4-2.7-1.2l1.4-2.8q0.9 0.7 2.1 1 1.2 0.4 2.5 0.4 1.3 0 2.1-0.5 0.8-0.6 0.8-1.5 0-2-2.9-2h-1.7v-2.4l3.2-3.7h-6.7v-3h11.1v2.4l-3.6 4.1q2.1 0.3 3.2 1.5z"/>
				</g>
			</g>
			<g id="&lt;Group&gt;">
				<path id="&lt;Path&gt;" class="s2" d="m1030.6 229.8h-538v-74.2h538z"/>
			</g>
			<g id="&lt;Group&gt;">
				<path id="&lt;Path&gt;" class="s3" d="m537 194.3c0 4.7-3.8 8.6-8.5 8.6-4.8 0-8.6-3.9-8.6-8.6 0-4.8 3.8-8.6 8.6-8.6 4.7 0 8.5 3.8 8.5 8.6z"/>
			</g>
			<g id="&lt;Group&gt;">
				<path id="&lt;Path&gt;" class="s3" d="m562.5 194.3c0 4.7-3.8 8.6-8.6 8.6-4.7 0-8.6-3.9-8.6-8.6 0-4.8 3.9-8.6 8.6-8.6 4.8 0 8.6 3.8 8.6 8.6z"/>
			</g>
			<g id="&lt;Group&gt;">
				<path id="&lt;Path&gt;" class="s3" d="m587.9 194.3c0 4.7-3.8 8.6-8.5 8.6-4.8 0-8.6-3.9-8.6-8.6 0-4.8 3.8-8.6 8.6-8.6 4.7 0 8.5 3.8 8.5 8.6z"/>
			</g>
			<g id="&lt;Group&gt;">
				<g id="&lt;Group&gt;">
					<path id="&lt;Path&gt;" class="s6" d="m824.3 776.2h-117.5c-20.4 0-37-16.6-37-37.1 0-20.4 16.6-37 37-37h117.5c20.5 0 37.1 16.6 37.1 37 0 20.5-16.6 37.1-37.1 37.1z"/>
				</g>
				<g id="&lt;Group&gt;">
					<g id="&lt;Group&gt;">
						<g id="&lt;Group&gt;">
							<path id="&lt;Compound Path&gt;" fill-rule="evenodd" class="s3" d="m757 737.2c0 3.4-2.5 5.4-6.5 5.4h-2.6v3.9h-4.2v-14.7h6.8c4 0 6.5 2.1 6.5 5.4zm-4.2 0c0-1.4-0.9-2.2-2.6-2.2h-2.3v4.4h2.3c1.7 0 2.6-0.8 2.6-2.2z"/>
						</g>
					</g>
					<g id="&lt;Group&gt;">
						<g id="&lt;Group&gt;">
							<path id="&lt;Compound Path&gt;" fill-rule="evenodd" class="s3" d="m768.2 743.6h-6.3l-1.1 2.9h-4.3l6.5-14.7h4.1l6.5 14.7h-4.3zm-1.2-3.1l-1.9-4.7-1.9 4.7z"/>
						</g>
					</g>
					<g id="&lt;Group&gt;">
						<g id="&lt;Group&gt;">
							<path id="&lt;Compound Path&gt;" class="s3" d="m781.8 741.2v5.3h-4.2v-5.4l-5.6-9.3h4.4l3.5 5.8 3.5-5.8h4z"/>
						</g>
					</g>
				</g>
			</g>
		</g>
	</g>
	<g id="Bags">
		<g id="&lt;Group&gt;">
			<g id="&lt;Group&gt;">
				<g id="&lt;Group&gt;">
					<g id="&lt;Group&gt;">
						<g id="&lt;Group&gt;">
							<g id="&lt;Group&gt;">
								<g id="&lt;Group&gt;">
									<path id="&lt;Path&gt;" class="s5" d="m487.7 735.7c-0.2 0-0.3-1.6-0.9-4.6-0.5-3-1.5-7.3-3.7-12.3-2.1-4.9-5.4-10.6-10.6-15.5-5-4.9-12.5-8.6-20.7-8.6-8.2-0.1-15.7 3.6-20.8 8.4-5.2 4.9-8.6 10.6-10.7 15.5-2.2 5-3.2 9.3-3.8 12.3-0.6 3-0.7 4.6-0.8 4.6q-0.1 0 0-1.2c0.1-0.8 0.2-2 0.4-3.5 0.5-3 1.3-7.4 3.5-12.5 2-5 5.4-10.9 10.7-15.9 5.2-5.1 12.9-8.9 21.5-8.9 8.5 0.1 16.3 3.9 21.5 9 5.2 5.1 8.5 10.9 10.6 16 2.1 5.1 2.9 9.5 3.4 12.5 0.2 1.5 0.3 2.7 0.4 3.5q0 1.2 0 1.2z"/>
								</g>
							</g>
						</g>
					</g>
					<g id="&lt;Group&gt;">
						<g id="&lt;Group&gt;">
							<g id="&lt;Group&gt;">
								<g id="&lt;Group&gt;">
									<path id="&lt;Path&gt;" class="s5" d="m500.1 735.7c-0.1 0-0.2-1.6-0.8-4.6-0.6-3-1.6-7.3-3.7-12.3-2.2-4.9-5.5-10.6-10.6-15.5-5.1-4.9-12.6-8.6-20.8-8.6-8.2-0.1-15.7 3.6-20.8 8.4-5.2 4.9-8.5 10.6-10.7 15.5-2.1 5-3.1 9.3-3.7 12.3-0.6 3-0.7 4.6-0.9 4.6q0 0 0.1-1.2c0-0.8 0.1-2 0.3-3.5 0.5-3 1.4-7.4 3.5-12.5 2.1-5 5.4-10.9 10.7-15.9 5.2-5.1 13-8.9 21.5-8.9 8.6 0.1 16.3 3.9 21.5 9 5.3 5.1 8.5 10.9 10.6 16 2.1 5.1 3 9.5 3.4 12.5 0.2 1.5 0.3 2.7 0.4 3.5q0.1 1.2 0 1.2z"/>
								</g>
							</g>
						</g>
					</g>
					<g id="&lt;Group&gt;">
						<g id="&lt;Group&gt;">
							<g id="&lt;Group&gt;">
								<path id="&lt;Path&gt;" class="s0" d="m380.1 731.3l140.4-1.1 3 191.3h-157.4z"/>
							</g>
						</g>
					</g>
					<g id="&lt;Group&gt;">
						<g id="&lt;Group&gt;">
							<g id="&lt;Group&gt;">
								<path id="&lt;Path&gt;" class="s2" d="m520.5 730.2h17.6l15.2 191.3h-29.8z"/>
							</g>
						</g>
					</g>
				</g>
				<g id="&lt;Group&gt;">
					<g id="&lt;Group&gt;">
						<g id="&lt;Group&gt;">
							<path id="&lt;Path&gt;" class="s3" d="m490.7 820.9h-91.8v-15.4h91.8z"/>
						</g>
					</g>
				</g>
			</g>
			<g id="&lt;Group&gt;">
				<g id="&lt;Group&gt;">
					<g id="&lt;Group&gt;">
						<g id="&lt;Group&gt;">
							<g id="&lt;Group&gt;">
								<g id="&lt;Group&gt;">
									<path id="&lt;Path&gt;" class="s4" d="m409.3 788.8c-0.3 0.1-0.3-6.3-3.7-15.5-1.7-4.5-4.4-9.7-8.5-14.2-4.1-4.5-10.1-7.9-16.6-7.9-6.6 0-12.6 3.3-16.7 7.7-4.2 4.5-6.9 9.7-8.6 14.2-3.4 9.2-3.5 15.6-3.7 15.5q-0.1 0 0-1.1c0-0.7 0.1-1.8 0.3-3.2 0.3-2.8 1-6.8 2.7-11.5 1.7-4.7 4.3-10 8.6-14.7 4.2-4.7 10.5-8.2 17.4-8.2 6.9 0.1 13.1 3.6 17.3 8.3 4.2 4.7 6.9 10.1 8.5 14.8 1.7 4.7 2.4 8.7 2.7 11.5 0.2 1.4 0.3 2.5 0.3 3.2q0.1 1.1 0 1.1z"/>
								</g>
							</g>
						</g>
					</g>
					<g id="&lt;Group&gt;">
						<g id="&lt;Group&gt;">
							<g id="&lt;Group&gt;">
								<g id="&lt;Group&gt;">
									<path id="&lt;Path&gt;" class="s4" d="m419.3 788.8c-0.3 0.1-0.3-6.3-3.7-15.5-1.7-4.5-4.4-9.7-8.5-14.2-4.1-4.5-10.1-7.9-16.6-7.9-6.6 0-12.6 3.3-16.7 7.7-4.2 4.5-6.9 9.7-8.6 14.2-3.4 9.2-3.5 15.6-3.7 15.5q-0.1 0 0-1.1c0-0.7 0.1-1.8 0.2-3.2 0.4-2.8 1.1-6.8 2.8-11.5 1.7-4.7 4.3-10 8.6-14.7 4.2-4.7 10.5-8.2 17.4-8.2 6.9 0.1 13.1 3.6 17.3 8.3 4.2 4.7 6.9 10.1 8.5 14.8 1.7 4.7 2.4 8.7 2.7 11.5 0.2 1.4 0.3 2.5 0.3 3.2q0.1 1.1 0 1.1z"/>
								</g>
							</g>
						</g>
					</g>
					<g id="&lt;Group&gt;">
						<g id="&lt;Group&gt;">
							<g id="&lt;Group&gt;">
								<path id="&lt;Path&gt;" class="s6" d="m317.9 782.1l112.8-0.8 2.5 140h-126.6z"/>
							</g>
						</g>
					</g>
					<g id="&lt;Group&gt;">
						<g id="&lt;Group&gt;">
							<g id="&lt;Group&gt;">
								<path id="&lt;Path&gt;" class="s6" d="m430.7 781.3h14.2l12.2 140h-23.9z"/>
							</g>
						</g>
					</g>
					<g id="&lt;Group&gt;" style="opacity: .3">
						<g id="&lt;Group&gt;">
							<g id="&lt;Group&gt;">
								<path id="&lt;Path&gt;" class="s7" d="m430.7 781.3h14.2l12.2 140h-23.9z"/>
							</g>
						</g>
					</g>
				</g>
				<g id="&lt;Group&gt;">
					<g id="&lt;Group&gt;">
						<g id="&lt;Group&gt;">
							<path id="&lt;Path&gt;" class="s3" d="m411.5 843h-73.9v-14.1h73.9z"/>
						</g>
					</g>
				</g>
			</g>
		</g>
	</g>
	<g id="Tab">
		<g id="&lt;Group&gt;">
			<g id="&lt;Group&gt;">
				<g id="&lt;Group&gt;">
					<g id="&lt;Group&gt;">
						<g id="&lt;Group&gt;">
							<path id="&lt;Path&gt;" class="s3" d="m1165 451.7h-218.1c-8.1 0-14.7-6.6-14.7-14.8v-303.2c0-8.1 6.6-14.7 14.7-14.7h218.1c8.1 0 14.7 6.6 14.7 14.7v303.2c0 8.2-6.6 14.8-14.7 14.8z"/>
						</g>
					</g>
					<g id="&lt;Group&gt;">
						<g id="&lt;Group&gt;">
							<path id="&lt;Path&gt;" class="s2" d="m1179.7 158h-247.5v-26.7c0-6.8 5.5-12.3 12.3-12.3h222.9c6.8 0 12.3 5.5 12.3 12.3z"/>
						</g>
					</g>
					<g id="&lt;Group&gt;">
						<g id="&lt;Group&gt;">
							<g id="&lt;Group&gt;">
								<path id="&lt;Path&gt;" class="s4" d="m1169.6 451.7q0 0 0.7-0.1c0.4 0 1.1-0.1 2-0.4 1.8-0.5 4.5-2 6.2-5.5q0.6-1.3 0.9-2.9c0.2-1.1 0.2-2.2 0.2-3.5q0-3.6 0-7.9 0-8.7 0-20c-0.1-30-0.1-73.4-0.2-127 0-26.8 0-56.1 0-87.6q0-23.7 0-48.9 0-6.3-0.1-12.7c0-2.1 0.1-4.3 0-6.3-0.2-2.1-1-4.1-2.2-5.7-1.2-1.6-2.9-2.8-4.7-3.4-1.9-0.6-3.9-0.4-5.9-0.4q-6 0-12.1 0c-65.2 0-136.8 0-212 0-2.3 0-4.5 0.9-6.3 2.5-1.7 1.5-2.9 3.7-3.3 6.1-0.3 1.2-0.2 2.4-0.2 3.7v3.8q0 3.8 0 7.6 0 15.2 0 30.1 0 29.9 0 58.9c0 38.5 0 75.7 0 111.2q0 26.6 0 51.8-0.1 12.6-0.1 24.8 0 6.1 0 12.1 0 3 0 6c0 2-0.1 4 0.5 5.8 1 3.6 3.9 6.5 7.3 7.3 1.6 0.3 3.4 0.1 5.2 0.2q2.7 0 5.3 0 10.5 0 20.6 0 20.1 0 38.6 0c49.3 0.1 89.2 0.2 116.8 0.2 13.7 0 24.4 0.1 31.7 0.1q5.4 0 8.3 0c1.8 0 2.8 0.1 2.8 0.1 0 0-1 0-2.8 0q-2.9 0-8.3 0.1c-7.3 0-18 0-31.7 0.1-27.6 0-67.5 0.1-116.8 0.1q-18.5 0-38.6 0-10.1 0.1-20.6 0.1-2.6 0-5.3 0c-1.7-0.1-3.5 0.1-5.4-0.3-3.6-0.8-6.7-3.9-7.8-7.8-0.6-2-0.5-4-0.5-6q0-3 0-6 0-6 0-12.1 0-12.2 0-24.8 0-25.2 0-51.8c0-35.5-0.1-72.7-0.1-111.2q0-29 0-58.9 0-14.9 0-30.1 0-3.8 0-7.6v-3.8c0-1.2 0-2.5 0.2-3.9 0.5-2.6 1.8-5 3.7-6.7 1.9-1.7 4.3-2.6 6.8-2.6 75.2 0 146.8 0 212 0q6.1 0 12.1 0h3c1.1 0.1 2.1 0.2 3.1 0.5 2 0.7 3.8 2 5.1 3.7 1.3 1.7 2.1 3.9 2.4 6.1 0.1 2.2 0 4.3 0 6.4q0 6.4 0 12.7 0 25.2 0 48.9c0 31.5 0 60.8-0.1 87.6 0 53.6-0.1 97-0.1 127q0 11.3 0 20 0 4.3-0.1 7.9c0.1 1.2 0 2.4-0.2 3.5q-0.3 1.7-0.9 3c-1.8 3.5-4.6 5-6.3 5.5-0.9 0.3-1.7 0.3-2.1 0.4q-0.7 0-0.7 0z"/>
							</g>
						</g>
					</g>
					<g id="&lt;Group&gt;">
						<g id="&lt;Group&gt;">
							<g id="&lt;Group&gt;">
								<path id="&lt;Path&gt;" class="s3" d="m957.4 138.5c0 3.4-2.6 6.2-5.8 6.2-3.1 0-5.7-2.8-5.7-6.2 0-3.5 2.6-6.3 5.7-6.3 3.2 0 5.8 2.8 5.8 6.3z"/>
							</g>
						</g>
						<g id="&lt;Group&gt;">
							<g id="&lt;Group&gt;">
								<path id="&lt;Path&gt;" class="s3" d="m973.9 138.5c0 3.4-2.5 6.2-5.7 6.2-3.2 0-5.8-2.8-5.8-6.2 0-3.5 2.6-6.3 5.8-6.3 3.2 0 5.7 2.8 5.7 6.3z"/>
							</g>
						</g>
						<g id="&lt;Group&gt;">
							<g id="&lt;Group&gt;">
								<path id="&lt;Path&gt;" class="s3" d="m990.5 138.5c0 3.4-2.6 6.2-5.8 6.2-3.1 0-5.7-2.8-5.7-6.2 0-3.5 2.6-6.3 5.7-6.3 3.2 0 5.8 2.8 5.8 6.3z"/>
							</g>
						</g>
					</g>
				</g>
			</g>
			<g id="&lt;Group&gt;">
				<path id="&lt;Path&gt;" class="s2" d="m1112.1 344.9h-102.3c-5.6 0-10.2-4.6-10.2-10.2 0-5.6 4.6-10.1 10.2-10.1h102.3c5.6 0 10.2 4.5 10.2 10.1 0 5.6-4.6 10.2-10.2 10.2z"/>
			</g>
			<g id="&lt;Group&gt;">
				<path id="&lt;Path&gt;" class="s2" d="m1110.4 302.2h-102.3c-5.6 0-10.2-4.6-10.2-10.2 0-5.6 4.6-10.2 10.2-10.2h102.3c5.6 0 10.2 4.6 10.2 10.2 0 5.6-4.6 10.2-10.2 10.2z"/>
			</g>
			<g id="&lt;Group&gt;">
				<g id="&lt;Group&gt;">
					<g id="&lt;Group&gt;">
						<g id="&lt;Group&gt;">
							<g id="&lt;Group&gt;">
								<path id="&lt;Path&gt;" class="s8" d="m1092.6 226c0 18.5-14.9 33.4-33.3 33.4-18.5 0-33.4-14.9-33.4-33.4 0-18.4 14.9-33.3 33.4-33.3 18.4 0 33.3 14.9 33.3 33.3z"/>
							</g>
						</g>
					</g>
					<g id="&lt;Group&gt;">
						<g id="&lt;Group&gt;">
							<g id="&lt;Group&gt;">
								<g id="&lt;Group&gt;">
									<g id="&lt;Group&gt;">
										<g id="&lt;Group&gt;">
											<g id="&lt;Group&gt;">
												<g id="&lt;Group&gt;">
													<g id="&lt;Group&gt;">
														<g id="&lt;Group&gt;">
															<path id="&lt;Path&gt;" class="s2" d="m1062.6 226.5c2.8-1.1 4.8-3.8 4.8-7 0-4.3-3.4-7.7-7.6-7.7-4.2 0-7.6 3.4-7.6 7.6-0.1 3.2 2 6 4.8 7.1-11.7 1.7-11.2 13.7-11.2 13.7l27.8 0.1c0 0 0.6-12.1-11-13.8z"/>
														</g>
													</g>
												</g>
											</g>
										</g>
									</g>
								</g>
							</g>
						</g>
					</g>
				</g>
				<g id="&lt;Group&gt;">
					<g id="&lt;Group&gt;">
						<g id="&lt;Group&gt;">
							<g id="&lt;Group&gt;">
								<path id="&lt;Path&gt;" class="s4" d="m1092.6 226c-0.1 0.1 0.1-2.9-1.2-8.1-0.6-2.5-1.8-5.6-3.7-8.8-1.9-3.1-4.7-6.5-8.5-9.3-3.7-2.8-8.4-5.2-13.9-6.1-5.4-0.9-11.5-0.8-17.3 1.4-2.9 1.1-5.7 2.6-8.3 4.5-1.3 0.9-2.5 2.1-3.7 3.2-1.1 1.2-2.3 2.4-3.2 3.8-4.1 5.4-6.3 12.3-6.4 19.4 0.1 7.2 2.3 14.1 6.4 19.5 0.9 1.4 2.1 2.6 3.2 3.8 1.2 1.1 2.4 2.2 3.7 3.2 2.6 1.9 5.4 3.4 8.3 4.5 5.8 2.2 11.9 2.3 17.3 1.4 5.5-0.9 10.2-3.3 13.9-6.1 3.8-2.8 6.6-6.2 8.5-9.4 1.9-3.2 3.1-6.2 3.7-8.8 1.3-5.1 1.1-8.1 1.2-8.1q0.1 0 0.1 0.6 0 0.6-0.1 1.6c0 0.7 0 1.5-0.2 2.6-0.1 1-0.2 2.2-0.6 3.4-0.5 2.7-1.7 5.8-3.6 9-1.9 3.3-4.7 6.8-8.5 9.7-3.8 2.9-8.6 5.3-14.2 6.4-5.5 1-11.8 0.8-17.8-1.4-3-1.1-5.9-2.6-8.6-4.6-1.3-1-2.6-2.2-3.8-3.3-1.2-1.3-2.4-2.5-3.3-3.9-4.2-5.6-6.6-12.7-6.7-20.1 0.1-7.3 2.5-14.5 6.7-20 0.9-1.4 2.1-2.7 3.3-3.9 1.3-1.2 2.5-2.3 3.8-3.3 2.7-2 5.6-3.5 8.6-4.6 6-2.2 12.3-2.4 17.8-1.4 5.6 1 10.4 3.5 14.2 6.4 3.8 2.9 6.6 6.4 8.5 9.6 1.9 3.3 3 6.4 3.6 9 0.4 1.3 0.5 2.5 0.6 3.5 0.2 1 0.2 1.9 0.2 2.6q0.1 1 0.1 1.6 0 0.5-0.1 0.5z"/>
							</g>
						</g>
					</g>
				</g>
			</g>
			<g id="&lt;Group&gt;">
				<g id="&lt;Group&gt;">
					<path id="&lt;Path&gt;" class="s6" d="m1111.5 415.6h-102.5c-11 0-19.9-8.9-19.9-19.8 0-11 8.9-19.8 19.9-19.8h102.5c10.9 0 19.8 8.8 19.8 19.8 0 10.9-8.9 19.8-19.8 19.8z"/>
				</g>
			</g>
		</g>
	</g>
	<g id="Speech Bubble 2">
		<g id="&lt;Group&gt;">
			<g id="&lt;Group&gt;">
				<g id="&lt;Group&gt;">
					<g id="&lt;Group&gt;">
						<g id="&lt;Group&gt;">
							<g id="&lt;Group&gt;">
								<g id="&lt;Group&gt;">
									<g id="&lt;Group&gt;">
										<g id="&lt;Group&gt;">
											<g id="&lt;Group&gt;">
												<g id="&lt;Group&gt;">
													<g id="&lt;Group&gt;">
														<g id="&lt;Group&gt;">
															<path id="&lt;Path&gt;" class="s3" d="m1284.6 305.9l3.2-14.8c-4.8-9-7.2-19.5-6.4-30.5 2.1-31.7 29.4-55.6 61.1-53.5 31.6 2.2 55.5 29.5 53.4 61.2-2.1 31.6-29.5 55.5-61.1 53.4-13.2-0.9-25.1-6.2-34.3-14.3h0.1z"/>
														</g>
														<g id="&lt;Group&gt;">
															<g id="&lt;Group&gt;">
																<path id="&lt;Path&gt;" class="s4" d="m1284.6 305.9c0 0 0.4 0 1.1 0.1q1.1 0 3.1 0.2c2.7 0.2 6.7 0.5 11.8 1l-0.2 0.3q0 0 0 0l-0.9-1.4 1.2 1.1c5.3 4.7 13.4 10 24.4 12.7 2.7 0.6 5.6 1.1 8.6 1.3 1.5 0.2 3.1 0.1 4.7 0.2q1.1 0 2.3 0 1.2-0.1 2.5-0.2c6.4-0.5 13.2-2.2 19.8-5.3 6.6-3.1 12.9-7.7 18.2-13.7 5.2-5.9 9.4-13.2 11.9-21.4 5.1-16.3 2.2-36.2-9.4-51l-2.2-2.8-2.5-2.6c-1.5-1.7-3.4-3.1-5.2-4.7-3.7-2.7-7.6-5.3-11.7-7.1-8.3-3.7-17.3-5.4-25.9-5-8.6 0.3-16.8 2.7-23.9 6.4-7.1 3.7-13.1 8.7-17.7 14.4-9.4 11.3-13 24.8-13 36-0.1 11.3 3.2 20.4 6.4 26.7v0.1c-1.1 4.7-1.9 8.3-2.5 10.8q-0.4 1.9-0.6 2.9c-0.2 0.6-0.3 1-0.3 1q0 0 0.2-0.9 0.2-1.1 0.5-2.9c0.6-2.5 1.3-6.2 2.3-11v0.1c-3.3-6.2-6.7-15.3-6.7-26.8 0-11.3 3.5-25 13-36.6 4.7-5.7 10.8-10.9 18-14.7 7.2-3.7 15.5-6.1 24.3-6.5 8.7-0.4 17.9 1.3 26.3 5.1 4.2 1.8 8.2 4.4 12 7.2 1.7 1.6 3.7 3 5.3 4.8l2.5 2.6 2.2 2.8c11.8 15.2 14.8 35.5 9.6 52-2.6 8.3-6.9 15.7-12.2 21.7-5.4 6.1-11.8 10.7-18.5 13.9-6.7 3.1-13.6 4.8-20.2 5.3q-1.2 0.1-2.4 0.2-1.2 0-2.4-0.1c-1.6 0-3.2 0.1-4.7-0.1-3.1-0.3-6-0.8-8.8-1.5-11.1-2.7-19.2-8.2-24.5-13l0.3-0.3q0 0.1 0 0.1l0.3 0.3h-0.5c-5.1-0.5-9.1-1-11.9-1.2q-1.9-0.3-3-0.4-1-0.1-1-0.1z"/>
															</g>
														</g>
													</g>
												</g>
											</g>
										</g>
									</g>
								</g>
							</g>
						</g>
					</g>
				</g>
			</g>
			<g id="&lt;Group&gt;">
				<g id="&lt;Group&gt;">
					<g id="&lt;Group&gt;">
						<g id="&lt;Group&gt;">
							<path id="&lt;Path&gt;" class="s4" d="m1324.6 256h7.5c0 0 0-6.3 6.5-6.4 3.4 0 5.2 2.2 5.9 3.9 0.8 2 0.6 4.2-0.6 6.1-1.2 2-4 4-9.1 3.1v16.8h7.4v-9.8c0 0 10.4-2.7 10.4-14.2 0-10.9-9.8-13.5-14-13.5-3.2 0-14.2 0.8-14 14z"/>
						</g>
					</g>
				</g>
				<g id="&lt;Group&gt;">
					<g id="&lt;Group&gt;">
						<g id="&lt;Group&gt;">
							<path id="&lt;Path&gt;" class="s4" d="m1342.3 290h-7.5v-7h7.5z"/>
						</g>
					</g>
				</g>
			</g>
		</g>
	</g>
	<g id="Character 2">
		<g id="&lt;Group&gt;">
			<g id="&lt;Group&gt;">
				<g id="&lt;Group&gt;">
					<g id="&lt;Group&gt;">
						<path id="&lt;Path&gt;" class="s9" d="m1065.8 475.6c0 0 5 6.5 8.3 8.9 3.2 2.4 5.9 2.3 8.9 7.3 3 5 6.4 10.3 6.4 10.3 0 0 13.7 5.8 13.2 6.1-0.5 0.3-5.6 20.3-5.6 20.3l-23.8-12.1-28.4-8-14.9-15 0.4-1.7-2-3.2c0 0 0.9-4.5 4.9-2.3 0 0-1.8-4.7 4.1-2.7 5.8 2 17.1 8.1 17.9 8.1 0.7-0.1 10.7 1.1 10.7 1.1l4.3-1.6c0 0-3.9-1.4-5.7-4.7-1.9-3.2-4.7-4.8-3.4-8.1 1.2-3.3 4.7-2.7 4.7-2.7z"/>
					</g>
				</g>
				<g id="&lt;Group&gt;">
					<g id="&lt;Group&gt;">
						<g id="&lt;Group&gt;">
							<path id="&lt;Path&gt;" class="s10" d="m1074.5 502.9c0 0.1-0.6-0.1-1.6-0.3-1-0.1-2.5-0.2-4.4-0.1-3.7 0.2-8.9 1.2-14.5 3l-0.1 0.1-0.1-0.1q-1.6-0.5-3.2-1.1-0.8-0.3-1.6-0.6h-0.1l-0.1-0.1q-1.8-2.9-3.5-5.5c-0.5-0.9-1.2-1.6-2-1.8-0.7-0.3-1.6-0.1-2.2 0.4l0.1-0.3c1.5 6.1 2.2 10.2 1.9 10.2-0.1 0-0.2-1-0.7-2.7-0.4-1.8-1-4.3-1.9-7.4v-0.2l0.1-0.1c0.8-0.6 1.9-1 3-0.6 1 0.3 1.8 1.2 2.4 2q1.6 2.6 3.5 5.5l-0.2-0.2q0.8 0.3 1.6 0.6 1.6 0.6 3.1 1.1h-0.2c5.7-1.7 10.9-2.6 14.7-2.7 1.9-0.1 3.4 0.1 4.5 0.4 1 0.2 1.5 0.5 1.5 0.5z"/>
						</g>
					</g>
				</g>
				<g id="&lt;Group&gt;">
					<g id="&lt;Group&gt;">
						<g id="&lt;Group&gt;">
							<path id="&lt;Path&gt;" class="s10" d="m1051.8 496.3c-0.2 0.2-4.4-2-9.4-4.9-5.1-2.9-9.1-5.4-9-5.6 0.1-0.2 4.3 2 9.4 4.9 5 2.9 9.1 5.4 9 5.6z"/>
						</g>
					</g>
				</g>
				<g id="&lt;Group&gt;">
					<g id="&lt;Group&gt;">
						<g id="&lt;Group&gt;">
							<path id="&lt;Path&gt;" class="s10" d="m1039.7 496.8c-0.1 0-0.6-0.4-1.4-1.1-0.7-0.8-1.7-1.8-3-2.6-1.3-0.9-2.7-1.3-3.7-1.4-1-0.1-1.6 0.1-1.7 0 0-0.1 0.6-0.5 1.7-0.6 1.1 0 2.7 0.3 4.1 1.3 1.4 0.9 2.4 2 3.1 2.9 0.6 0.8 0.9 1.4 0.9 1.5z"/>
						</g>
					</g>
				</g>
				<g id="&lt;Group&gt;">
					<g id="&lt;Group&gt;">
						<g id="&lt;Group&gt;">
							<path id="&lt;Path&gt;" class="s10" d="m1057.3 493.3c0.2 0.2-2.2 1.4-3.9 4-1.7 2.6-1.8 5.3-2.1 5.3-0.1 0-0.2-0.7-0.1-1.8 0.2-1 0.6-2.5 1.5-3.9 0.9-1.4 2.1-2.4 3-3 0.9-0.6 1.6-0.7 1.6-0.6z"/>
						</g>
					</g>
				</g>
			</g>
			<g id="&lt;Group&gt;">
				<g id="&lt;Group&gt;">
					<g id="&lt;Group&gt;">
						<g id="&lt;Group&gt;">
							<path id="&lt;Path&gt;" class="s4" d="m1280.3 344.8c-1.4-1.6-3.3-3-4-5-0.9-2.3-0.3-4.9 0-7.3 0.7-6.3-1.3-13.2-6.2-17.2-4.9-4-12.9-4.3-17.4 0.1l-37 23.9c-6.1 7.7-8.9 18-7.5 27.8 0.6 4 2 8.1 5.1 10.8 3.1 2.6 8.1 3.2 11.1 0.5 0.9 6.2 5.7 11.7 11.8 13.3 6.1 1.7 13-0.7 16.9-5.6 3.1 3.7 8.6 5.4 13.2 3.9 4.7-1.4 8.3-5.8 8.8-10.7 0.3-2.9-0.5-5.9 0.4-8.6 1-3.3 3.9-5.5 5.8-8.3 3.5-5.2 3.1-12.8-1-17.6z"/>
						</g>
					</g>
				</g>
				<g id="&lt;Group&gt;">
					<g id="&lt;Group&gt;">
						<g id="&lt;Group&gt;">
							<g id="&lt;Group&gt;">
								<path id="&lt;Path&gt;" class="s4" d="m1255.5 328c3.8-4.4 3.5-11.5-0.5-15.6 2.4-2.8 1.7-7.1-0.5-10-2.2-2.8-5.6-4.5-8.9-6.1-1.5-8.3-10.8-14.4-19.2-12.7-4.1-6.4-13.3-7.7-20.9-5.8-1.8 0.4-3.6 1-5.5 1-1.4-0.1-2.7-0.5-4.1-0.7-7.5-1.3-15.2 3.6-18.4 10.4-0.5 1.1-1 2.2-1.7 3.1-1.1 1.2-2.6 1.9-3.9 2.8-2.8 2-4.7 5.2-4.9 8.6-0.2 2.8 0.6 5.9-0.8 8.5-0.6 1.3-1.8 2.3-2.3 3.6-1.5 3.9 2.8 8.1 1.8 12.1-0.2 0.9-0.6 1.6-0.9 2.4-0.5 1.7-0.4 3.5 0.3 5.1 0.5 1.3 1.5 2.4 1.5 3.7 0 1.1-0.5 2-0.7 3-0.6 2.4 4.4 12 6.6 13.4l64.5 2.8c4.9-0.8 9-5 9.7-9.8 0.1-0.8 0.1-1.7 0.7-2.3 0.4-0.5 1.1-0.8 1.8-1.1 4.2-2 4.9-7.6 4.6-12.2 0-0.6-0.1-1.3 0.1-1.9 0.3-0.9 1-1.6 1.6-2.3z"/>
							</g>
						</g>
					</g>
					<g id="&lt;Group&gt;">
						<g id="&lt;Group&gt;">
							<g id="&lt;Group&gt;">
								<path id="&lt;Path&gt;" class="s9" d="m1233.9 396.8l-0.2-0.1c0.1 0 0.2 0 0.2 0.1z"/>
							</g>
						</g>
					</g>
					<g id="&lt;Group&gt;">
						<g id="&lt;Group&gt;">
							<g id="&lt;Group&gt;">
								<path id="&lt;Path&gt;" class="s9" d="m1169.9 320.1c1.2-12.6 14.6-23.8 18.2-24.5 0 0 6.9-3.9 15.3-2.6 3.8 0.5 9.4 0.8 16.4 4.4 11.1 5.9 17.8 18.9 17.2 30.1l-3.3 69.2c-7.5 8.3-28.1 15.4-28.1 15.4 0 0-13.1 3-16.8-2.2 0 0 1.6-23.9 1.6-23.8 0 0-18.4-3.2-21.3-24.3-1.4-10.5-0.4-27.7 0.8-41.7z"/>
							</g>
						</g>
					</g>
					<g id="&lt;Group&gt;">
						<g id="&lt;Group&gt;">
							<g id="&lt;Group&gt;">
								<path id="&lt;Path&gt;" class="s4" d="m1175.5 336.8c0 1.4 1.1 2.6 2.6 2.7 1.6 0.2 2.9-0.9 3-2.3 0-1.4-1.1-2.7-2.6-2.8-1.6-0.1-2.9 0.9-3 2.4z"/>
							</g>
						</g>
					</g>
					<g id="&lt;Group&gt;">
						<g id="&lt;Group&gt;">
							<g id="&lt;Group&gt;">
								<path id="&lt;Path&gt;" class="s4" d="m1174.7 328.3c0.3 0.4 2.4-1.1 5.4-1 3 0 5.1 1.6 5.5 1.2 0.1-0.2-0.2-0.8-1.1-1.5-0.9-0.7-2.5-1.4-4.4-1.4-1.8-0.1-3.4 0.6-4.3 1.2-1 0.7-1.3 1.3-1.1 1.5z"/>
							</g>
						</g>
					</g>
					<g id="&lt;Group&gt;">
						<g id="&lt;Group&gt;">
							<g id="&lt;Group&gt;">
								<path id="&lt;Path&gt;" class="s4" d="m1191.5 351.7c0-0.2-1.8-0.6-4.8-1-0.7-0.1-1.5-0.3-1.6-0.8-0.1-0.5 0.2-1.3 0.6-2.2q1.1-2.6 2.4-5.6c3.3-7.9 5.7-14.5 5.4-14.6-0.3-0.2-3.3 6.2-6.6 14.2q-1.2 2.9-2.3 5.6c-0.3 0.9-0.8 1.8-0.5 2.9 0.2 0.6 0.8 1 1.2 1.1 0.5 0.2 0.9 0.2 1.3 0.2 3 0.3 4.9 0.3 4.9 0.2z"/>
							</g>
						</g>
					</g>
					<g id="&lt;Group&gt;">
						<g id="&lt;Group&gt;">
							<g id="&lt;Group&gt;">
								<path id="&lt;Path&gt;" class="s10" d="m1190.3 386c0 0 14.6 1.3 29.2-6.8 0 0-7.3 14.9-28.9 12.4z"/>
							</g>
						</g>
					</g>
					<g id="&lt;Group&gt;">
						<g id="&lt;Group&gt;">
							<g id="&lt;Group&gt;">
								<path id="&lt;Path&gt;" class="s4" d="m1176.9 316.7c0.5 0.7 2.8 0.3 5.5 0.6 2.6 0.2 4.8 1 5.4 0.4 0.3-0.3 0-1-0.9-1.8-0.9-0.7-2.5-1.4-4.3-1.5-1.8-0.2-3.5 0.2-4.5 0.8-1 0.5-1.4 1.2-1.2 1.5z"/>
							</g>
						</g>
					</g>
					<g id="&lt;Group&gt;">
						<g id="&lt;Group&gt;">
							<g id="&lt;Group&gt;">
								<path id="&lt;Path&gt;" class="s4" d="m1208.4 339c-0.1 1.4-1.3 2.5-2.9 2.5-1.5 0-2.7-1.1-2.7-2.6 0.1-1.4 1.4-2.5 2.9-2.5 1.5 0 2.7 1.1 2.7 2.6z"/>
							</g>
						</g>
					</g>
					<g id="&lt;Group&gt;">
						<g id="&lt;Group&gt;">
							<g id="&lt;Group&gt;">
								<path id="&lt;Path&gt;" class="s4" d="m1215.4 330.4c-0.4 0.3-2.4-1.3-5.3-1.5-3-0.2-5.3 1.2-5.6 0.8-0.1-0.2 0.3-0.8 1.3-1.4 0.9-0.6 2.6-1.2 4.4-1.1 1.9 0.2 3.4 0.9 4.2 1.7 0.9 0.7 1.2 1.4 1 1.5z"/>
							</g>
						</g>
					</g>
					<g id="&lt;Group&gt;">
						<g id="&lt;Group&gt;">
							<g id="&lt;Group&gt;">
								<path id="&lt;Path&gt;" class="s4" d="m1215.8 319c-0.6 0.6-2.9-0.2-5.6-0.4-2.8-0.3-5.1 0.1-5.6-0.6-0.3-0.3 0.2-1 1.2-1.5 1.1-0.6 2.8-1 4.7-0.8 1.9 0.1 3.5 0.8 4.4 1.6 0.9 0.7 1.2 1.4 0.9 1.7z"/>
							</g>
						</g>
					</g>
					<g id="&lt;Group&gt;">
						<g id="&lt;Group&gt;">
							<g id="&lt;Group&gt;">
								<path id="&lt;Path&gt;" class="s9" d="m1233.1 347.4c0-1.6 2-5.3 3.6-5.5 4.2-0.5 11.8 0 11.7 10.5-0.3 14.4-15 11.1-15 10.7-0.1-0.3-0.5-10.3-0.3-15.7z"/>
							</g>
						</g>
					</g>
					<g id="&lt;Group&gt;">
						<g id="&lt;Group&gt;">
							<g id="&lt;Group&gt;">
								<path id="&lt;Path&gt;" class="s10" d="m1237.5 358c0.1-0.1 0.3 0.1 0.7 0.3 0.4 0.2 1.1 0.4 1.9 0.1 1.6-0.5 2.9-2.9 3-5.5 0.1-1.3-0.2-2.5-0.6-3.6-0.4-1-1.1-1.8-1.9-1.9-0.8-0.2-1.3 0.2-1.5 0.6-0.2 0.4-0.1 0.7-0.2 0.7-0.1 0.1-0.3-0.2-0.2-0.8 0.1-0.3 0.2-0.6 0.6-0.9 0.4-0.3 0.9-0.4 1.4-0.3 1.2 0.1 2.2 1.1 2.7 2.2 0.5 1.2 0.8 2.6 0.8 4.1-0.2 2.8-1.7 5.5-3.9 6.1-1 0.2-1.9-0.1-2.3-0.4-0.5-0.4-0.5-0.7-0.5-0.7z"/>
							</g>
						</g>
					</g>
					<g id="&lt;Group&gt;">
						<g id="&lt;Group&gt;">
							<g id="&lt;Group&gt;">
								<path id="&lt;Path&gt;" class="s4" d="m1166.6 320.2c3.1-1.7 5-4.2 4.9-7.6 2 0.6 4.1-1.8 5.2-3.4 1.2-1.7 2.7-2.5 2.6-4.5 0-0.4 0-0.8 0.2-1.1 0.3-0.6 1-0.7 1.6-0.9 3.2-0.9 5.8-3.4 6.7-6.5 3.1 1.4 6.6 2 10.1 1.8 1.4 2.2 4.1 3.6 6.8 3.6 2.7-0.1 5.3-1.6 6.7-3.8 0.8 1.8 2.7 3 4.6 3.6 2 0.5 4.1 0.5 6.1 0.4-0.9 3.9 1.5 8.2 5.4 9.5 0.5 0.2 1.1 0.3 1.3 0.8 0.2 0.5 0 1.1-0.3 1.6-1.3 3.3 0.8 7.5 4.3 8.4-2.5 1.7-2.3 6 0.2 7.6 0.6 0.3 1.2 0.7 1.1 1.3 0 0.2-0.1 0.4-0.3 0.6-1.1 1.4-2.3 2.9-2.4 4.7-0.2 1.8 1 3.8 2.8 3.9-1 0.8-1.9 1.8-2 3.1 0 1.2 1.2 2.5 2.4 2.1 0.6-0.2 7.9-1.4 8.3-1.8 4.3-5.4-0.8-11.6-1.1-18.5-0.2-6.8-2.5-13.5-5.8-19.5-1.4-2.6-3-5-5.1-7.1-2.3-2.4-5.1-4.2-7.9-6-3.7-2.4-7.4-4.7-11.7-5.8-7.9-2-16.2 0.6-23.7 3.8-2.8 1.2-5.7 2.5-8.1 4.4-2.9 2.2-5.1 5.3-7 8.4-2.7 4.5-5 9.4-5.7 14.6"/>
							</g>
						</g>
					</g>
					<g id="&lt;Group&gt;">
						<g id="&lt;Group&gt;">
							<g id="&lt;Group&gt;">
								<path id="&lt;Path&gt;" class="s5" d="m1163.9 315.1c0 0 0.2-0.6 0.8-1.5 0.3-0.5 0.8-1 1.2-1.7 0.5-0.7 0.8-1.6 0.9-2.7 0.2-1 0.1-2.2 0.1-3.5-0.1-1.3-0.1-2.8 0.2-4.3 0.3-1.5 1-3.1 2.1-4.5q0.7-1 1.8-2c0.7-0.6 1.6-1.1 2.4-1.6 0.8-0.5 1.6-1.1 2.3-1.8 0.6-0.8 1-1.7 1.4-2.7 0.9-1.9 2.2-3.8 3.8-5.4 1.6-1.7 3.5-3.2 5.8-4.2 1.1-0.5 2.3-0.9 3.6-1.2 1.2-0.2 2.5-0.4 3.8-0.3 0.7 0 1.4 0.1 2 0.2q1 0.2 2 0.4c1.3 0.3 2.6 0.3 3.9 0.1 1.3-0.2 2.6-0.7 4-0.9 1.4-0.4 2.8-0.6 4.2-0.7 1.4-0.1 2.9 0 4.3 0.1q2.2 0.2 4.3 0.9c2.8 0.9 5.5 2.5 7.3 5q0.2 0.3 0.5 0.7l-0.2-0.1c4.5-0.9 9.1 0.4 12.6 2.8 3.5 2.4 6.1 6.1 6.8 10l-0.1-0.1c1.8 0.9 3.5 1.7 5.1 2.8 1.6 1 3 2.3 4.1 3.8 1.1 1.5 1.7 3.2 1.8 5 0.1 1.7-0.4 3.5-1.6 4.8v-0.3c2.1 2.2 3.1 4.9 3.2 7.5 0.2 2.6-0.5 5.1-1.7 7.1-0.3 0.5-0.7 1-1 1.4-0.4 0.4-0.8 0.8-1.1 1.3q-0.4 0.6-0.5 1.4c-0.1 0.4-0.1 0.9 0 1.4 0.1 2 0 3.9-0.3 5.5-0.4 1.6-0.9 3-1.6 4.1-0.7 1.1-1.6 1.8-2.4 2.3-0.7 0.4-1.4 0.6-1.8 0.9-0.4 0.2-0.5 0.4-0.5 0.4 0 0 0.1-0.2 0.5-0.5 0.4-0.3 1-0.4 1.8-0.9 0.7-0.5 1.6-1.2 2.3-2.3 0.7-1 1.2-2.4 1.4-4 0.3-1.7 0.4-3.5 0.3-5.4 0-0.5-0.1-1 0-1.6 0.1-0.5 0.3-1 0.6-1.5 0.3-0.5 0.7-0.9 1.1-1.3 0.3-0.4 0.7-0.8 0.9-1.3 1.2-2 1.8-4.4 1.7-7-0.2-2.5-1.2-5.2-3.1-7.2l-0.2-0.1 0.2-0.1c1-1.3 1.5-2.9 1.4-4.6-0.1-1.7-0.7-3.4-1.7-4.8-1.1-1.5-2.5-2.7-4-3.7-1.6-1-3.3-1.9-5.1-2.7l-0.1-0.1v-0.1c-0.7-3.8-3.2-7.4-6.7-9.7-3.4-2.4-7.9-3.6-12.2-2.8h-0.2l-0.1-0.1q-0.2-0.3-0.5-0.7c-1.7-2.3-4.3-3.9-7-4.8q-2.1-0.6-4.2-0.9c-1.5-0.1-2.9-0.1-4.3 0-1.4 0.1-2.8 0.2-4.1 0.6-1.3 0.2-2.7 0.7-4 0.9q-1 0.2-2.1 0.2c-0.7-0.1-1.4-0.2-2-0.3q-1-0.2-2-0.4c-0.6-0.1-1.2-0.2-1.9-0.2-1.3-0.1-2.5 0.1-3.7 0.3-1.3 0.3-2.5 0.6-3.5 1.2-2.3 1-4.2 2.4-5.8 4-1.6 1.6-2.8 3.5-3.6 5.4-0.5 0.9-0.9 1.9-1.6 2.7-0.6 0.8-1.5 1.4-2.3 1.9-0.9 0.5-1.7 1-2.4 1.6q-1 0.8-1.8 1.9c-1.1 1.4-1.7 2.9-2.1 4.4-0.3 1.4-0.3 2.8-0.2 4.2 0 1.3 0.1 2.5-0.1 3.5-0.1 1.1-0.5 2-0.9 2.7-0.5 0.7-1 1.3-1.3 1.7q-0.5 0.7-0.7 1.1-0.2 0.4-0.2 0.4z"/>
							</g>
						</g>
					</g>
					<g id="&lt;Group&gt;">
						<g id="&lt;Group&gt;">
							<g id="&lt;Group&gt;">
								<path id="&lt;Path&gt;" class="s5" d="m1219.6 280.3c0 0-0.4-0.3-1.1-0.6-0.7-0.4-1.8-0.8-3.2-1-1.4-0.2-3.1-0.2-4.8 0.5-1.7 0.7-3.4 2-4.5 3.8-0.4 0.5-0.6 1.1-0.8 1.6-0.2 0.6-0.2 1.1 0.1 1.5l0.3 0.5-0.6-0.2c-1.6-0.4-3.3-0.2-4.6 0.5-1.2 0.6-2.1 1.6-2.5 2.5-0.5 1-0.6 1.8-0.7 2.4 0 0.6 0 0.9 0 0.9q0 0-0.1-0.2 0-0.3 0-0.7c0-0.6 0.1-1.5 0.5-2.5 0.5-0.9 1.3-2.1 2.7-2.8 1.3-0.7 3.1-1 4.8-0.5l-0.2 0.4c-0.4-0.6-0.3-1.3-0.1-1.9q0.3-0.9 0.8-1.7c1.1-1.9 2.9-3.2 4.7-3.9 1.8-0.7 3.6-0.8 5.1-0.5 1.4 0.2 2.5 0.7 3.2 1.1q0.5 0.3 0.8 0.5 0.2 0.2 0.2 0.3z"/>
							</g>
						</g>
					</g>
					<g id="&lt;Group&gt;">
						<g id="&lt;Group&gt;">
							<g id="&lt;Group&gt;">
								<path id="&lt;Path&gt;" class="s2" d="m1250.4 310.9q0 0 0 0.3c-0.1 0.1-0.2 0.4-0.4 0.7-0.3 0.5-1.2 1.2-2.4 1.4-1.2 0.3-2.7 0-4.2-0.5-0.7-0.3-1.5-0.6-2.3-1-0.7-0.4-1.6-0.9-2-1.8q0-0.2 0-0.3l0.3 0.1c-1.4 1.1-2.9 2-4.4 2.5-1.5 0.5-3 0.5-4.2 0.3-1.1-0.3-2-0.8-2.5-1.2q-0.4-0.3-0.5-0.6-0.2-0.2-0.1-0.2c0 0 0.2 0.3 0.7 0.7 0.5 0.3 1.4 0.8 2.5 1 1.1 0.2 2.5 0.1 3.9-0.4 1.5-0.5 2.9-1.4 4.3-2.4l0.3-0.2 0.1 0.3q0 0.1 0.1 0.2c0.3 0.8 1 1.3 1.7 1.6 0.8 0.4 1.6 0.7 2.3 1 1.4 0.6 2.8 0.9 4 0.6 1.1-0.2 1.9-0.7 2.3-1.2 0.4-0.5 0.5-0.9 0.5-0.9z"/>
							</g>
						</g>
					</g>
					<g id="&lt;Group&gt;">
						<g id="&lt;Group&gt;">
							<g id="&lt;Group&gt;">
								<path id="&lt;Path&gt;" class="s10" d="m1194.8 358.7c1-1.3 2.7-2.1 4.5-2 1.2 0.1 2.4 0.7 3.2 1.7 0.8 0.9 0.9 2.3 0.3 3.3-0.7 1-2.3 1.3-3.6 1-1.4-0.3-2.5-1.2-3.6-2-0.4-0.3-0.7-0.5-0.9-0.8-0.2-0.4-0.2-0.8 0-1.1"/>
							</g>
						</g>
					</g>
					<g id="&lt;Group&gt;">
						<g id="&lt;Group&gt;">
							<g id="&lt;Group&gt;">
								<path id="&lt;Path&gt;" class="s4" d="m1201.7 353.8c-0.4-0.1-0.4 3-2.9 5.2-2.5 2.2-5.7 2-5.8 2.4 0 0.2 0.8 0.5 2.1 0.5 1.4 0.1 3.3-0.4 4.9-1.8 1.5-1.3 2.1-3.1 2.2-4.4 0.1-1.2-0.3-2-0.5-1.9z"/>
							</g>
						</g>
					</g>
				</g>
			</g>
			<g id="&lt;Group&gt;">
				<g id="&lt;Group&gt;">
					<g id="&lt;Group&gt;">
						<g id="&lt;Group&gt;">
							<g id="&lt;Group&gt;">
								<g id="&lt;Group&gt;">
									<g id="&lt;Group&gt;">
										<g id="&lt;Group&gt;">
											<g id="&lt;Group&gt;">
												<path id="&lt;Path&gt;" class="s4" d="m1218.3 901.7v1.9c0 0-33.9 13.5-34.2 19.8l67.6-1-1.2-21.7c-10 4.6-20.5 5.3-32.2 1z"/>
											</g>
										</g>
									</g>
								</g>
							</g>
						</g>
					</g>
				</g>
				<g id="&lt;Group&gt;">
					<g id="&lt;Group&gt;">
						<g id="&lt;Group&gt;">
							<g id="&lt;Group&gt;">
								<g id="&lt;Group&gt;">
									<g id="&lt;Group&gt;">
										<g id="&lt;Group&gt;">
											<g id="&lt;Group&gt;">
												<path id="&lt;Path&gt;" class="s5" d="m1251.7 922.4l-0.3-5.2-64.7 2.8c0 0-3 1.4-2.6 3.4z"/>
											</g>
										</g>
									</g>
								</g>
							</g>
						</g>
					</g>
				</g>
				<g id="&lt;Group&gt;">
					<g id="&lt;Group&gt;">
						<g id="&lt;Group&gt;">
							<g id="&lt;Group&gt;">
								<g id="&lt;Group&gt;">
									<g id="&lt;Group&gt;">
										<g id="&lt;Group&gt;">
											<g id="&lt;Group&gt;">
												<g id="&lt;Group&gt;">
													<path id="&lt;Path&gt;" class="s3" d="m1218.1 903.8c0 0.3 1.7 0.4 3.3 1.4 1.7 1 2.5 2.4 2.8 2.2 0.3 0-0.2-1.9-2.2-3.1-2-1.2-4-0.8-3.9-0.5z"/>
												</g>
											</g>
										</g>
									</g>
								</g>
							</g>
						</g>
					</g>
				</g>
				<g id="&lt;Group&gt;">
					<g id="&lt;Group&gt;">
						<g id="&lt;Group&gt;">
							<g id="&lt;Group&gt;">
								<g id="&lt;Group&gt;">
									<g id="&lt;Group&gt;">
										<g id="&lt;Group&gt;">
											<g id="&lt;Group&gt;">
												<g id="&lt;Group&gt;">
													<path id="&lt;Path&gt;" class="s3" d="m1211 906.7c0 0.3 1.4 0.9 2.6 2.2 1.1 1.3 1.4 2.8 1.8 2.7 0.3 0.1 0.5-1.8-1-3.4-1.4-1.7-3.4-1.8-3.4-1.5z"/>
												</g>
											</g>
										</g>
									</g>
								</g>
							</g>
						</g>
					</g>
				</g>
				<g id="&lt;Group&gt;">
					<g id="&lt;Group&gt;">
						<g id="&lt;Group&gt;">
							<g id="&lt;Group&gt;">
								<g id="&lt;Group&gt;">
									<g id="&lt;Group&gt;">
										<g id="&lt;Group&gt;">
											<g id="&lt;Group&gt;">
												<g id="&lt;Group&gt;">
													<path id="&lt;Path&gt;" class="s3" d="m1207.1 915c0.3 0.1 0.8-1.5-0.1-3.3-0.9-1.7-2.4-2.4-2.6-2.1-0.1 0.2 0.9 1.2 1.6 2.6 0.7 1.4 0.8 2.8 1.1 2.8z"/>
												</g>
											</g>
										</g>
									</g>
								</g>
							</g>
						</g>
					</g>
				</g>
				<g id="&lt;Group&gt;">
					<path id="&lt;Path&gt;" class="s4" d="m1273.8 905.6c-0.2-1.8-1.9-5.9-1.9-6.2l-0.4-1q0 0 0 0l-5.9-36-24.2 2.5 4.3 41q0-0.1-0.1-0.1l-1.7 4.9-6.3 34.8c-0.4 2.2 0.9 4.5 3.2 5.2 1.8 0.4 3.7-0.1 4.9-1.4 6.3-6.9 29.6-32.3 29-35.4z"/>
				</g>
				<g id="&lt;Group&gt;">
					<g id="&lt;Group&gt;">
						<g id="&lt;Group&gt;">
							<path id="&lt;Path&gt;" class="s5" d="m1241.7 950.8l32.8-39.8 0.1 1.8c0.4 1.9-0.4 2.8-1.3 4.1-2.6 4.1-9.9 13.2-27.5 32.4-1 1.1-2.5 1.7-4.1 1.5z"/>
						</g>
					</g>
				</g>
				<g id="&lt;Group&gt;">
					<g id="&lt;Group&gt;">
						<g id="&lt;Group&gt;">
							<path id="&lt;Path&gt;" class="s3" d="m1250.3 931.2c-0.2 0.1-1.4-2.1-4.3-3-2.8-1.1-5.2-0.2-5.3-0.5-0.1-0.1 0.5-0.5 1.5-0.7 1.1-0.3 2.6-0.3 4.2 0.3 1.5 0.5 2.7 1.5 3.3 2.3 0.6 0.9 0.7 1.5 0.6 1.6z"/>
						</g>
					</g>
				</g>
				<g id="&lt;Group&gt;">
					<g id="&lt;Group&gt;">
						<g id="&lt;Group&gt;">
							<path id="&lt;Path&gt;" class="s3" d="m1247.6 937.2c-0.2 0.2-1.8-1.1-4.2-1.5-2.4-0.5-4.4 0.1-4.5-0.2-0.1-0.2 2-1.3 4.7-0.7 2.8 0.5 4.3 2.2 4 2.4z"/>
						</g>
					</g>
				</g>
				<g id="&lt;Group&gt;">
					<g id="&lt;Group&gt;">
						<g id="&lt;Group&gt;">
							<path id="&lt;Path&gt;" class="s3" d="m1255.7 923.3c-0.2 0.2-2.7-1.8-6.3-2.7-3.7-1.1-6.9-0.6-6.9-0.9-0.1-0.3 3.2-1.2 7.1-0.1 4 1.1 6.3 3.5 6.1 3.7z"/>
						</g>
					</g>
				</g>
				<g id="&lt;Group&gt;">
					<g id="&lt;Group&gt;">
						<g id="&lt;Group&gt;">
							<path id="&lt;Path&gt;" class="s5" d="m1244.7 900.1c0.2 0 0.3 2.1 0.4 5.4-0.4 2.3-0.9 5.3-1.5 8.5-0.7 3.8-1.3 7.2-1.9 9.7-0.5 2.5-0.9 4-1 4-0.1 0 0.1-1.6 0.4-4.1 0.4-2.5 1-5.9 1.7-9.7 0.6-3.2 1.1-6.2 1.6-8.5v0.1c0.1-3.3 0.2-5.4 0.3-5.4z"/>
						</g>
					</g>
				</g>
			</g>
			<g id="&lt;Group&gt;">
				<g id="&lt;Group&gt;">
					<g id="&lt;Group&gt;">
						<g id="&lt;Group&gt;">
							<path id="&lt;Path&gt;" class="s4" d="m1285.7 642.9c8.5-39.7-17.7-80.3-17.7-80.3l-68.2 53.7c0 0-14.4 160.7-5.9 181.6 8.6 20.8 49.5 105.8 49.5 105.8l31.3-7.3c0 0-11.6-69.3-20.9-86.9-6.7-12.7-17.7-18.7-12.6-35.2 5.2-16.5 37.5-98.9 44.5-131.4z"/>
						</g>
					</g>
				</g>
				<g id="&lt;Group&gt;">
					<g id="&lt;Group&gt;">
						<g id="&lt;Group&gt;">
							<path id="&lt;Path&gt;" class="s4" d="m1144.9 580.1c0 0-0.1-0.1-0.1-0.1 3-11.1 11.7-33.6 16.5-43.7 0 0 21.3 16.9 40.7 20.8 19.5 3.8 62.7-14.2 62.7-14.2l7.7 27.6-62.2 41c2.3 4.7 7.6 18 4.1 38.2-4.4 25.5 4.4 96.1 17.1 141.2 12.8 45.2 13.7 112.2 13.7 112.2-8.6 4.7-17.9 3.4-26.8-1.4 0 0-6.3-16.8-14.8-44.9-11.6-38.5-13-51.1-13.8-63.3-0.9-12.1-13.3-57.3-35.4-113.7-20.4-51.8-11.1-93.2-9.4-99.7z"/>
						</g>
					</g>
				</g>
				<g id="&lt;Group&gt;">
					<g id="&lt;Group&gt;">
						<g id="&lt;Group&gt;">
							<path id="&lt;Path&gt;" class="s5" d="m1180.7 589.4q0 0 0.3 0.4 0.4 0.5 1 1.4 1.3 1.8 3.8 5.2c3.3 4.6 8.2 11.3 14.2 19.8h0.1v0.1c-0.7 7.4-1 16-1.4 25.6-0.5 9.6-1 20.2-1.6 31.5-0.6 11.3-1.3 23.4-1.9 36.1-0.8 12.7-1.5 25.9-2.8 39.6-1.4 11.3-2.6 22.5-1.6 33.2 0.3 2.6 0.6 5.3 1.1 7.9 0.6 2.5 1.1 5.1 2 7.5 1.8 4.8 4 9.5 6 14 8.3 18.1 16.1 34.3 22.5 48 6.5 13.5 11.8 24.5 15.4 32.2 1.8 3.8 3.2 6.7 4.2 8.8q0.7 1.4 1 2.2 0.4 0.8 0.4 0.8 0 0-0.4-0.7-0.5-0.8-1.2-2.3c-1-2-2.4-4.9-4.3-8.7-3.7-7.6-9-18.6-15.6-32.1-6.6-13.6-14.4-29.7-22.7-47.9-2.1-4.5-4.2-9.1-6.1-14-0.9-2.5-1.4-5.1-2-7.7-0.5-2.6-0.9-5.3-1.1-8-1-10.8 0.2-22 1.5-33.3 1.3-13.6 2-26.9 2.8-39.6 0.7-12.6 1.4-24.7 2-36.1 0.6-11.3 1.2-21.8 1.7-31.4 0.5-9.6 0.8-18.2 1.6-25.6v0.2c-6-8.6-10.7-15.3-14-20q-2.4-3.4-3.7-5.3-0.6-0.8-0.9-1.3-0.3-0.5-0.3-0.5z"/>
						</g>
					</g>
				</g>
				<g id="&lt;Group&gt;">
					<g id="&lt;Group&gt;">
						<g id="&lt;Group&gt;">
							<g id="&lt;Group&gt;">
								<path id="&lt;Path&gt;" class="s5" d="m1164.9 708q-0.1 0-0.7-1.5-0.6-1.6-1.7-4.3c-1.4-3.7-3.4-9.1-5.8-15.8-2.4-6.8-5.1-14.8-7.8-23.9-2.6-9.1-5.2-19.1-6.9-29.9-3.5-21.7-0.8-41.8 3-55.5 2-6.9 4.1-12.3 5.9-15.9 0.8-1.8 1.6-3.2 2.1-4.1q0.7-1.4 0.8-1.4 0 0.1-0.6 1.5c-0.5 1-1.2 2.3-1.9 4.2-1.7 3.6-3.7 9-5.5 15.9-3.6 13.7-6.2 33.6-2.7 55.1 1.6 10.7 4.2 20.8 6.8 29.8 2.6 9.1 5.2 17.2 7.5 23.9 2.3 6.7 4.2 12.1 5.5 16q1 2.7 1.5 4.3 0.5 1.5 0.5 1.6z"/>
							</g>
						</g>
					</g>
				</g>
			</g>
			<g id="&lt;Group&gt;">
				<g id="&lt;Group&gt;">
					<g id="&lt;Group&gt;">
						<g id="&lt;Group&gt;">
							<g id="&lt;Group&gt;">
								<g id="&lt;Group&gt;">
									<path id="&lt;Path&gt;" class="s6" d="m1159.6 414.1c0 0-8.3 2.5-15.3 17.5-5.6 11.9-8.2 79.5-8.2 79.5l-45.1-9.2-7.1 33.9c0 0 37.9 15.1 61.9 23 10.9 3.6 19.5-9.1 20.7-12.4 4-10.5-1.2-87.6-1.2-87.6z"/>
								</g>
							</g>
						</g>
					</g>
					<g id="&lt;Group&gt;">
						<g id="&lt;Group&gt;">
							<g id="&lt;Group&gt;">
								<g id="&lt;Group&gt;">
									<g id="&lt;Group&gt;">
										<path id="&lt;Path&gt;" class="s6" d="m1155.8 438.6l3.8-24.5c3.6-3.9 28.3-10.8 28.3-10.8 29.1 6.7 43.1-6.5 46.1-7 2.1-0.3 24.3 6.8 24.3 6.8l11.2 65.4c0 0-2.6 47.7-2.8 48-0.3 0.4 2.9 37.8 2.9 37.8 0 0-50.4 17.4-72.6 22.4-22.2 5.1-45.4-23.4-45.4-23.4 5-13.2 7.1-29.3 6.1-48.4z"/>
									</g>
								</g>
							</g>
						</g>
						<g id="&lt;Group&gt;">
							<g id="&lt;Group&gt;">
								<g id="&lt;Group&gt;">
									<g id="&lt;Group&gt;">
										<path id="&lt;Path&gt;" class="s4" d="m1197.5 471.9c0.2 0 0.2 2.2 0.9 5.7 0.7 3.4 2.4 8.1 5.4 12.6 3 4.4 6.7 7.7 9.6 9.6 2.9 2 5 2.8 4.9 3 0 0.1-0.5-0.1-1.5-0.4-0.9-0.4-2.3-1-3.8-1.9-1.6-0.9-3.3-2.2-5.1-3.8-1.7-1.7-3.5-3.6-5.1-5.9-1.5-2.3-2.7-4.7-3.5-6.9-0.8-2.3-1.4-4.4-1.6-6.2-0.3-1.8-0.4-3.2-0.3-4.2 0-1 0-1.6 0.1-1.6z"/>
									</g>
								</g>
							</g>
						</g>
					</g>
					<g id="&lt;Group&gt;">
						<g id="&lt;Group&gt;">
							<path id="&lt;Path&gt;" class="s4" d="m1151.2 461.3c0.3 0-1.2 5.2-0.9 13.6 0.1 4.3 0.6 9.3 1.7 14.7 1.1 5.5 2.8 11.4 4.8 17.6 0.4 1.5 0.8 3.2 0.9 4.8q0.3 2.3 0.5 4.6c0.2 3.1 0.2 6.1 0 8.9-0.5 5.7-2.1 10.5-3.3 14.6-1.3 4-2.1 7.3-2.6 9.6-0.4 2.4-0.7 3.7-0.7 3.6q-0.1 0 0-0.9c0.1-0.6 0.1-1.6 0.3-2.7 0.4-2.4 1.1-5.8 2.3-9.8 1.1-4.1 2.6-8.9 3-14.5 0.3-2.8 0.2-5.7 0-8.7q-0.2-2.3-0.5-4.6c-0.2-1.6-0.5-3.1-0.9-4.6-1.9-6.2-3.7-12.1-4.7-17.7-1.1-5.5-1.5-10.6-1.5-14.8-0.1-2.2 0.1-4.1 0.2-5.8 0.2-1.7 0.3-3.1 0.6-4.3q0.3-1.6 0.5-2.7 0.2-0.9 0.3-0.9z"/>
						</g>
					</g>
				</g>
				<g id="&lt;Group&gt;">
					<g id="&lt;Group&gt;">
						<path id="&lt;Path&gt;" class="s6" d="m1258.3 403.1c0 0 22.3 2.4 29.7 30.9 3.9 15.1 20.3 113.3 18.9 121.7-1.3 8.5-1.5 64.9-1.5 64.9l-33.4-6.4 0.4-73.4-17-76.1-9.6-41.3z"/>
					</g>
					<g id="&lt;Group&gt;">
						<g id="&lt;Group&gt;">
							<path id="&lt;Path&gt;" class="s4" d="m1250.3 448.6c0.3 0 4.4 16.1 9.1 36.1 4.7 20 8.3 36.3 8.1 36.3-0.3 0.1-4.4-16.1-9.1-36.1-4.7-19.9-8.3-36.2-8.1-36.3z"/>
						</g>
					</g>
				</g>
			</g>
			<g id="&lt;Group&gt;">
				<g id="&lt;Group&gt;">
					<path id="&lt;Path&gt;" class="s2" d="m1291.6 679.8h-2v-7.6h2z"/>
				</g>
				<g id="&lt;Group&gt;">
					<g id="&lt;Group&gt;">
						<g id="&lt;Group&gt;">
							<path id="&lt;Path&gt;" class="s2" d="m1312.6 680.5l48.7 130.6-29.4 11.2-34-135.8z"/>
						</g>
					</g>
					<g id="&lt;Group&gt;">
						<g id="&lt;Group&gt;">
							<path id="&lt;Path&gt;" class="s2" d="m1331.9 822.3l-65.4-23-3.5-114.5 34.9 1.7z"/>
						</g>
					</g>
					<g id="&lt;Group&gt;">
						<g id="&lt;Group&gt;">
							<g id="&lt;Group&gt;">
								<path id="&lt;Path&gt;" class="s4" d="m1331.9 822.3c-0.2 0 0.5-2.4 1.6-6.2 1.1-3.8 2.7-9.1 4.6-14.9l0.2-0.6 0.6 0.2q0.5 0.3 1.2 0.5c5.9 2.6 11.2 5 15.1 6.7 3.8 1.8 6.1 3 6.1 3.1-0.1 0.1-2.5-0.8-6.5-2.3-3.9-1.6-9.3-3.9-15.2-6.4q-0.6-0.3-1.2-0.5l0.8-0.4c-1.9 5.9-3.7 11.1-5 14.8-1.3 3.8-2.2 6-2.3 6z"/>
							</g>
						</g>
					</g>
					<g id="&lt;Group&gt;">
						<g id="&lt;Group&gt;">
							<g id="&lt;Group&gt;">
								<path id="&lt;Path&gt;" class="s4" d="m1305.5 683.4c0.3-0.1 8 26.2 17.1 58.8 9.2 32.6 16.3 59 16 59.1-0.3 0.1-7.9-26.2-17.1-58.8-9.1-32.6-16.3-59.1-16-59.1z"/>
							</g>
						</g>
					</g>
					<g id="&lt;Group&gt;" style="opacity: .3">
						<g id="&lt;Group&gt;">
							<path id="&lt;Path&gt;" class="s7" d="m1331.9 822.3l-65.4-23-3.5-114.5 34.9 1.7z"/>
						</g>
					</g>
					<g id="&lt;Group&gt;">
						<g id="&lt;Group&gt;">
							<path id="&lt;Path&gt;" class="s5" d="m1321 834.5l-40.1 10 11-146.8 3.2-0.2z"/>
						</g>
					</g>
					<g id="&lt;Group&gt;">
						<g id="&lt;Group&gt;">
							<path id="&lt;Path&gt;" class="s5" d="m1280.9 844.5l-39.5-33.5 18-121.3 32.5 8z"/>
						</g>
					</g>
					<g id="&lt;Group&gt;" style="opacity: .3">
						<g id="&lt;Group&gt;">
							<path id="&lt;Path&gt;" class="s7" d="m1280.9 844.5l-39.5-33.5 18-121.3 32.5 8z"/>
						</g>
					</g>
					<g id="&lt;Group&gt;">
						<g id="&lt;Group&gt;">
							<g id="&lt;Group&gt;">
								<path id="&lt;Path&gt;" class="s4" d="m1280.9 844.5c-0.1-0.1 0.3-0.7 1.2-1.9 0.8-1.1 2.1-2.8 3.6-4.8 3.1-4 7.5-9.6 12.3-15.6q1.2-1.4 2.2-2.7l0.4-0.5 0.4 0.4c5.6 4.1 10.5 7.8 14 10.5 3.5 2.7 5.6 4.4 5.5 4.5 0 0.1-2.3-1.3-5.9-3.9-3.6-2.5-8.6-6.1-14.3-10.2l0.8-0.1q-1 1.3-2.2 2.7c-4.8 6-9.3 11.5-12.6 15.4-1.6 2-2.9 3.5-3.9 4.6-0.9 1.1-1.5 1.6-1.5 1.6z"/>
							</g>
						</g>
					</g>
					<g id="&lt;Group&gt;">
						<g id="&lt;Group&gt;">
							<g id="&lt;Group&gt;">
								<path id="&lt;Path&gt;" class="s4" d="m1293.3 697.8c0.3 0 2.2 27.3 4.3 61 2 33.7 3.4 61 3.1 61-0.3 0-2.2-27.3-4.3-61-2-33.6-3.4-61-3.1-61z"/>
							</g>
						</g>
					</g>
					<g id="&lt;Group&gt;">
						<g id="&lt;Group&gt;">
							<path id="&lt;Path&gt;" class="s6" d="m1283.8 690.2l-6.1 110.7-37.7-4.9 41-106.5z"/>
						</g>
					</g>
					<g id="&lt;Group&gt;">
						<g id="&lt;Group&gt;">
							<path id="&lt;Path&gt;" class="s6" d="m1240 796l-26.5-21.6 41.6-93.8 25.9 8.9z"/>
						</g>
					</g>
					<g id="&lt;Group&gt;" style="opacity: .3">
						<g id="&lt;Group&gt;">
							<path id="&lt;Path&gt;" class="s7" d="m1240 796l-26.5-21.6 41.6-93.8 25.9 8.9z"/>
						</g>
					</g>
					<g id="&lt;Group&gt;">
						<g id="&lt;Group&gt;">
							<g id="&lt;Group&gt;">
								<path id="&lt;Path&gt;" class="s4" d="m1240 796c-0.1-0.1 2.2-1.3 6-3 3.8-1.8 9-4.2 14.9-6.7q1-0.5 1.9-0.9l0.3-0.1 0.3 0.3c4.1 4.2 7.8 7.9 10.4 10.7 2.5 2.8 4.1 4.5 3.9 4.6-0.1 0.1-1.8-1.4-4.5-4.1-2.7-2.6-6.4-6.3-10.6-10.5l0.6 0.2q-0.9 0.4-1.9 0.8c-5.8 2.6-11.1 4.8-15 6.4-3.8 1.6-6.3 2.5-6.3 2.3z"/>
							</g>
						</g>
					</g>
					<g id="&lt;Group&gt;">
						<g id="&lt;Group&gt;">
							<g id="&lt;Group&gt;">
								<path id="&lt;Path&gt;" class="s4" d="m1282.4 689.9c0.3 0-3.8 21.6-9.1 48.1-5.4 26.6-10 48-10.3 48-0.3-0.1 3.8-21.7 9.2-48.2 5.3-26.5 9.9-48 10.2-47.9z"/>
							</g>
						</g>
					</g>
					<g id="&lt;Group&gt;">
						<g id="&lt;Group&gt;">
							<path id="&lt;Path&gt;" class="s4" d="m1312.6 680.5l-40.5-1.3 1.1 6.1 24.7 1.2z"/>
						</g>
					</g>
					<g id="&lt;Group&gt;">
						<g id="&lt;Group&gt;">
							<path id="&lt;Path&gt;" class="s4" d="m1295.1 697.5l-11.5-3v1.2l8.3 2z"/>
						</g>
					</g>
				</g>
				<g id="&lt;Group&gt;">
					<path id="&lt;Path&gt;" class="s2" d="m1294.3 679.8h-2v-7.6h2z"/>
				</g>
				<g id="&lt;Group&gt;">
					<g id="&lt;Group&gt;">
						<g id="&lt;Group&gt;">
							<g id="&lt;Group&gt;">
								<path id="&lt;Path&gt;" class="s9" d="m1282.4 620.5c0.1 0.6-0.4 4-3.5 7.9-3.2 3.8-4.8 10.8-4.8 10.8 0 0-2.5 14.9-3 19.7-0.6 4.8-0.5 9.3 3.3 8.3 3.8-1 4.9-3.9 5.4-12.8l2.1-4.7 2.2 3.6 0.7 13.3c0 0-10.2 4.6-9.4 7.2 0.7 2.7 2.5 2.2 2.5 2.2l1.6 1.5 15.3-5.2 5-18.9-2.2-24.1 0.6-10.1-16.7-3.2z"/>
							</g>
						</g>
					</g>
				</g>
				<g id="&lt;Group&gt;">
					<path id="&lt;Path&gt;" class="s2" d="m1275.2 687.4l-2-0.4c0.1-0.8 3.6-19 11.3-21.3l0.6 1.9c-5.5 1.6-9 14.8-9.9 19.8z"/>
				</g>
				<g id="&lt;Group&gt;">
					<path id="&lt;Path&gt;" class="s2" d="m1271.2 686.2l-1.8-0.7c0.3-0.8 7.5-17.5 15.1-19.8l0.6 1.9c-5.6 1.7-11.9 14-13.9 18.6z"/>
				</g>
			</g>
		</g>
	</g>
	<g id="Character 1">
		<g id="&lt;Group&gt;">
			<g id="&lt;Group&gt;">
				<path id="&lt;Path&gt;" class="s1" d="m577.6 391.9c0 135.9-110.1 246-245.9 246-135.9 0-246-110.1-246-246 0-135.8 110.1-245.9 246-245.9 135.8 0 245.9 110.1 245.9 245.9z"/>
			</g>
			<g id="&lt;Group&gt;">
				<g id="&lt;Group&gt;">
					<path id="&lt;Path&gt;" class="s4" d="m577.6 391.9c0 0-0.1-1.3-0.1-4q-0.1-2-0.2-4.9c0-1.9-0.1-4.2-0.3-6.8q-0.3-3.8-0.7-8.6c-0.3-3.1-0.8-6.6-1.3-10.3-1.1-7.4-2.7-16-5-25.4-2.5-9.5-5.6-19.9-10.1-30.9-4.4-11-9.9-22.8-17.1-34.6-14.2-23.8-34.6-48.7-62.4-69.9-13.9-10.6-29.6-20.1-46.9-28-17.4-7.9-36.3-14.2-56.5-17.8-20.2-3.8-41.5-5.2-63.3-3.5-10.9 0.6-21.9 2.4-32.9 4.6-11 2.3-22 5.5-32.8 9.3-10.8 4.1-21.6 8.7-32 14.3-10.3 5.7-20.5 12-30.2 19.1-9.7 7.3-19 15.2-27.7 23.9-8.7 8.8-16.8 18.2-24.3 28.3-7.5 10.1-14 20.9-20 32.2-1.4 2.9-3 5.7-4.3 8.6q-1.9 4.4-3.9 8.8c-2.4 6-4.8 11.9-6.8 18.1-4 12.3-7.3 25-9.3 38-2.1 13-3.2 26.2-3.3 39.5 0.1 13.3 1.2 26.5 3.2 39.5 2 13 5.4 25.7 9.4 38 1.9 6.2 4.4 12.1 6.8 18.1q1.9 4.4 3.9 8.8c1.3 2.9 2.9 5.7 4.3 8.6 5.9 11.3 12.5 22.2 20 32.2 7.5 10.1 15.6 19.6 24.3 28.3 8.7 8.7 18 16.6 27.7 23.9 9.7 7.2 19.9 13.5 30.2 19.1 10.4 5.6 21.2 10.3 32 14.3 10.8 3.9 21.8 7 32.8 9.4 11 2.2 22 3.9 32.9 4.6 21.8 1.7 43.1 0.2 63.3-3.5 20.2-3.7 39.2-10 56.5-17.9 17.3-7.8 33.1-17.4 46.9-28 27.8-21.2 48.2-46.1 62.4-69.8 7.2-11.9 12.7-23.6 17.1-34.6 4.5-11 7.6-21.5 10.1-30.9 2.3-9.5 3.9-18 5-25.5 0.5-3.7 1-7.1 1.3-10.3q0.4-4.8 0.7-8.6c0.2-2.6 0.3-4.8 0.3-6.8q0.1-2.9 0.2-4.9c0-2.6 0.1-4 0.1-4 0 0 0 1.4 0 4q-0.1 2-0.1 4.9c-0.1 2-0.1 4.2-0.3 6.8q-0.3 3.9-0.7 8.6c-0.3 3.2-0.8 6.6-1.2 10.4-1 7.4-2.6 16-4.9 25.5-2.5 9.4-5.5 19.9-10 30.9-4.4 11.1-9.9 22.9-17.1 34.8-14.2 23.8-34.6 48.8-62.4 70.1-13.9 10.7-29.7 20.3-47.1 28.2-17.4 7.9-36.4 14.3-56.6 17.9-20.3 3.8-41.7 5.3-63.6 3.6-10.9-0.6-21.9-2.4-33-4.6-11-2.3-22.1-5.5-33-9.4-10.8-4-21.6-8.7-32-14.3-10.5-5.7-20.7-12-30.4-19.2-9.7-7.3-19-15.3-27.8-24-8.7-8.8-16.9-18.3-24.4-28.4-7.5-10.1-14.2-21-20.1-32.3-1.4-2.9-3-5.7-4.3-8.7q-2-4.4-4-8.8c-2.4-6-4.8-12-6.8-18.2-4-12.4-7.4-25.1-9.4-38.1-2-13.1-3.1-26.3-3.2-39.7 0.1-13.4 1.2-26.6 3.2-39.7 2-13 5.4-25.8 9.4-38.1 2-6.2 4.4-12.2 6.8-18.2q2-4.4 4-8.8c1.3-3 2.9-5.8 4.3-8.7 6-11.3 12.6-22.2 20.1-32.3 7.5-10.1 15.7-19.6 24.4-28.4 8.8-8.7 18.1-16.7 27.8-24 9.7-7.2 20-13.5 30.4-19.2 10.4-5.6 21.2-10.2 32-14.3 10.9-3.9 22-7 33-9.4 11.1-2.1 22.1-3.9 33-4.6 21.9-1.6 43.3-0.2 63.6 3.6 20.2 3.7 39.2 10 56.6 18 17.4 7.9 33.2 17.5 47 28.1 27.9 21.4 48.3 46.3 62.5 70.2 7.2 11.9 12.7 23.6 17.1 34.7 4.5 11 7.5 21.5 10 31 2.3 9.5 3.9 18 4.9 25.5 0.4 3.7 0.9 7.2 1.2 10.3q0.4 4.8 0.7 8.6c0.2 2.6 0.2 4.9 0.3 6.8q0 2.9 0.1 4.9c0 2.7 0 4 0 4z"/>
				</g>
			</g>
			<g id="&lt;Group&gt;">
				<g id="&lt;Group&gt;">
					<g id="&lt;Group&gt;">
						<path id="&lt;Path&gt;" class="s4" d="m256.9 626.6c0 0 37.6 12.5 79 11.2 46-1.4 75.9-13.3 75.9-13.3l-16.8-62.9-53.1 16.1-65.4-9.4z"/>
					</g>
					<g id="&lt;Group&gt;">
						<g id="&lt;Group&gt;">
							<g id="&lt;Group&gt;">
								<g id="&lt;Group&gt;">
									<path id="&lt;Path&gt;" class="s1" d="m366.3 355.7l-7.9-20-47.2-2.5-19.3 2.5-2.1 5.6-13.1 231.5c0 0 45.7 9.3 68.6 6 22.9-3.2 49.7-13.6 49.7-13.6v-131.7z"/>
								</g>
							</g>
							<g id="&lt;Group&gt;">
								<g id="&lt;Group&gt;">
									<g id="&lt;Group&gt;">
										<path id="&lt;Path&gt;" class="s4" d="m295.3 365.1q-0.1 0.1 0.3 0.5 0.4 0.4 1 1.1c0.9 1 2.3 2.4 4 4.2 3.6 3.5 8.8 8.3 15.5 13.5l0.2 0.2 0.2-0.2c4.6-5 9.5-11 14.2-17.8q0.7-1 1.4-2h-0.6c4.1 5.5 7.9 10.6 11.4 15.3 0.4 0.6 0.9 1.2 1.5 1.6 0.6 0.4 1.4 0.7 2.2 0.6 0.8-0.1 1.4-0.6 1.9-1.1 0.5-0.5 0.9-1 1.3-1.5q2.4-3 4.5-5.6c2.7-3.4 4.9-6.2 6.4-8.1q1.1-1.4 1.8-2.3 0.5-0.7 0.5-0.8 0 0-0.7 0.7-0.6 0.9-1.8 2.2c-1.6 1.9-3.8 4.6-6.6 8q-2.1 2.5-4.5 5.5c-0.8 1-1.6 2.2-2.9 2.4-1.2 0.2-2.3-0.9-3.1-2-3.5-4.7-7.3-9.8-11.3-15.3l-0.3-0.4-0.3 0.4q-0.7 1-1.4 2c-4.7 6.7-9.5 12.8-14.1 17.8l0.5-0.1c-6.7-5.1-12-9.8-15.6-13.3-1.8-1.7-3.2-3.1-4.2-4q-0.6-0.7-1.1-1.1-0.3-0.4-0.4-0.4z"/>
									</g>
								</g>
							</g>
							<g id="&lt;Group&gt;" style="opacity: .3">
								<g id="&lt;Group&gt;">
									<path id="&lt;Path&gt;" class="s7" d="m349.2 379.8c0 0-6 7.4-7.7 5.5-1.7-1.8-10.5-15.5-11.6-16.1-1-0.6-11.8 18.7-16 17.3-4.2-1.3-19.2-16.3-19.2-16.3l-0.3-5.9 21.9 19.9 15.5-19.8 13 17c0 0 2.8 2.2 4.4-1.6z"/>
								</g>
							</g>
						</g>
						<g id="&lt;Group&gt;">
							<g id="&lt;Group&gt;">
								<path id="&lt;Path&gt;" class="s4" d="m339.2 580.2c0 0 0-0.7 0-2.1q-0.1-2.3-0.2-6.2c-0.2-5.6-0.6-13.3-0.9-22.9-0.9-19.3-1.9-46-3-75.4-1-29.5-1.7-56.2-2.3-75.5-0.2-9.5-0.5-17.3-0.6-22.8q-0.2-4-0.2-6.3c-0.1-1.4-0.2-2.1-0.2-2.1-0.1 0-0.1 0.7-0.1 2.1q0 2.3 0 6.3c0 5.5 0.1 13.3 0.2 22.8 0.3 19.4 0.9 46 1.9 75.5 1 29.5 2.3 56.1 3.3 75.4 0.6 9.6 1 17.4 1.4 22.9q0.3 3.9 0.4 6.2c0.1 1.4 0.2 2.2 0.3 2.1z"/>
							</g>
						</g>
						<g id="&lt;Group&gt;">
							<g id="&lt;Group&gt;" style="opacity: .3">
								<path id="&lt;Path&gt;" class="s7" d="m380.7 486.8c-3.8 56.9-4.3 87.4 5.1 143.6 4.3-0.8 10.1-2.3 16.3-4-8.3-54.3-13.1-85.4-21.4-139.6z"/>
							</g>
							<g id="&lt;Group&gt;">
								<path id="&lt;Path&gt;" class="s6" d="m415.2 540.4c0 0 0.4-6.9 0.5-8.7l1.4-27.8 3.4-58.1 15.4-66.2c-2.8-9-10.2-18.8-18.8-21.7q-1-0.4-2.1-0.6l-18.9-4.8-14.6-2.8-22.8-13.6c0 0 21 126.8 22.3 159.4 1.4 32.6 14 134.7 14 134.7 20.7-5 39.2-13.3 52.8-21.3z"/>
							</g>
							<g id="&lt;Group&gt;">
								<g id="&lt;Group&gt;">
									<g id="&lt;Group&gt;">
										<path id="&lt;Path&gt;" class="s4" d="m382.5 479.3q0 0 0.1-0.3 0.1-0.4 0.3-1.1 0.3-1.4 0.9-4c0.8-3.5 1.8-8.6 2.7-14.9 1-6.3 1.9-13.9 2.7-22.3 0.7-8.4 1.3-17.7 1.8-27.5q0.2-5.4 0.4-10.7 0.2-2.6 0.3-5.1 0-1.3 0.1-2.6v-1.2-0.7q0-0.1 0-0.3 0-0.1-0.1-0.2 0-0.1 0-0.2c-0.1-0.1-0.4-0.1-0.4-0.1-0.3 0.2-0.2 0.2-0.3 0.2l0.5-0.1q-3.9-2.7-7.5-5.2v0.5q4.2-1.9 8.1-3.8l0.2-0.1v-0.2c-1.2-4.6-2.7-8.7-4-12.4-1.3-3.6-2.5-6.8-3.5-9.3-1-2.6-1.8-4.6-2.4-6q-0.4-0.9-0.6-1.5-0.3-0.5-0.3-0.5 0 0 0.2 0.5 0.2 0.6 0.6 1.6 0.8 2.2 2.2 6c0.9 2.6 2.1 5.7 3.4 9.4 1.2 3.6 2.6 7.7 3.8 12.3l0.2-0.3q-3.9 1.8-8.2 3.8l-0.5 0.2 0.5 0.3q3.6 2.6 7.4 5.3l0.5-0.1c0 0-0.2-0.2-0.2-0.2 0-0.1 0 0 0 0q-0.1 0.1-0.2 0.1h-0.1q0 0 0 0v0.1l0.1 0.3v0.6l-0.1 1.2q0 1.3-0.1 2.5-0.1 2.6-0.2 5.2-0.3 5.2-0.5 10.7c-0.5 9.8-1.1 19-1.8 27.4-0.7 8.5-1.6 16-2.4 22.3-0.9 6.4-1.9 11.5-2.5 15q-0.5 2.5-0.8 4-0.2 0.7-0.2 1.1-0.1 0.3-0.1 0.3z"/>
									</g>
								</g>
							</g>
						</g>
						<g id="&lt;Group&gt;">
							<g id="&lt;Group&gt;">
								<path id="&lt;Path&gt;" class="s6" d="m294.3 361.4l-2.2-28.2c-6.3 5.6-18 16.4-18 16.4l-50.2 18.4 17.8 180.2-25.9 60.7c15.5 7.8 38.5 17.7 55 21.7 7.8-37.9 8.9-37 19.6-95.2 10.7-58.3 3.9-174 3.9-174z"/>
							</g>
							<g id="&lt;Group&gt;" style="opacity: .3">
								<g id="&lt;Group&gt;">
									<path id="&lt;Path&gt;" class="s7" d="m355.2 567.4c0 0 3.4 4.5-4.1 5.8-7.5 1.4-92.9-4.9-92.9-4.9l-31.4 14.9 4.1-11.3 22.2-19z"/>
								</g>
							</g>
							<g id="&lt;Group&gt;">
								<g id="&lt;Group&gt;">
									<path id="&lt;Path&gt;" class="s6" d="m223.9 368c0 0-15.2 7.4-17.5 28.7-2 18.7-5.3 133.4-4.9 142.6 0.4 9.3 8.4 35.4 22.7 36.3 22.6 1.5 28.9-16 28.9-16l-6.1-58.6z"/>
								</g>
							</g>
							<g id="&lt;Group&gt;">
								<g id="&lt;Group&gt;">
									<g id="&lt;Group&gt;">
										<path id="&lt;Path&gt;" class="s4" d="m281.4 473.1q0 0 0-0.3-0.1-0.4-0.2-1-0.3-1.4-0.8-3.8c-0.6-3.4-1.5-8.2-2.3-14.2-1.8-12-3.3-28.6-4.2-47.1q-0.3-6.5-0.6-12.7-0.2-3.1-0.3-6.1-0.1-1.4-0.2-2.9 0-0.7 0-1.4v-0.7q0-0.2 0-0.4c0 0 0-0.1 0-0.1q0 0 0 0.1c0 0 0 0 0 0-0.1 0.1-0.2 0.1-0.3 0.1 0 0-0.2-0.1-0.1-0.1h-0.1l0.5 0.1q3.9-2.8 7.5-5.3l0.4-0.3-0.5-0.2q-4.3-2-8.1-3.8l0.1 0.3c0.9-3.6 1.3-7 1.7-9.9 0.4-2.9 0.7-5.5 1.1-7.5 0.4-2.1 0.9-3.7 1.2-4.7q0.2-0.7 0.4-1.2 0.1-0.4 0.1-0.4 0 0-0.2 0.4-0.2 0.4-0.5 1.1c-0.3 1.1-0.8 2.7-1.3 4.7-0.4 2.1-0.8 4.6-1.2 7.5-0.5 3-0.9 6.3-1.8 9.9l-0.1 0.2 0.2 0.1q3.8 1.8 8.2 3.8l-0.1-0.5q-3.5 2.5-7.5 5.3l0.5 0.1-0.1-0.1c0-0.1-0.1-0.2-0.2-0.2-0.1 0-0.2 0.1-0.3 0.1 0 0.1 0 0.1 0 0.1q-0.1 0.1-0.1 0.1c0 0.1 0 0.2 0 0.3q-0.1 0.2-0.1 0.3v0.8q0.1 0.7 0.1 1.4 0.1 1.5 0.1 3 0.2 2.9 0.3 6 0.3 6.2 0.6 12.7c0.9 18.5 2.5 35.2 4.4 47.2 0.9 6 1.9 10.8 2.6 14.1q0.5 2.4 0.9 3.8 0.1 0.6 0.2 1 0.1 0.3 0.1 0.3z"/>
									</g>
								</g>
							</g>
							<g id="&lt;Group&gt;">
								<g id="&lt;Group&gt;">
									<path id="&lt;Path&gt;" class="s4" d="m252.6 425.5l107.5 5.4c2.5 0.2 4.6 2.2 4.7 4.7l7.1 127.5c0.2 2.9-2.2 5.4-5.2 5.2l-104.2-5.5c-2.5-0.1-4.5-2-4.7-4.5l-10.3-127.5c-0.3-3 2.2-5.5 5.1-5.3z"/>
								</g>
							</g>
							<g id="&lt;Group&gt;">
								<g id="&lt;Group&gt;">
									<g id="&lt;Group&gt;">
										<path id="&lt;Path&gt;" class="s4" d="m230.1 397.5q-0.1 0 0.2 1.2 0.2 1.2 0.6 3.2c0.6 2.9 1.4 7 2.3 12 2 10.1 4.6 24.1 7 39.6 2.5 15.5 4.3 29.6 5.6 39.8 0.6 5 1.1 9.1 1.4 12.1q0.3 2 0.4 3.3 0.2 1.1 0.2 1.1 0.1 0 0-1.2-0.1-1.2-0.3-3.3c-0.2-2.8-0.7-7-1.2-12.1-1.1-10.2-2.9-24.3-5.4-39.9-2.4-15.5-5.1-29.4-7.2-39.5-1-5.1-1.9-9.1-2.6-11.9q-0.4-2.1-0.7-3.3-0.3-1.1-0.3-1.1z"/>
									</g>
								</g>
							</g>
							<g id="&lt;Group&gt;">
								<g id="&lt;Group&gt;">
									<g id="&lt;Group&gt;">
										<path id="&lt;Path&gt;" class="s9" d="m250.4 508.9c0 0-6.1 0.4-11.6 9.6l-10.5 6.6c0 0-9.2 14.4 0 27.9 9.2 13.4 20.2 2 20.2 2 0 0 11.1 5.5 14.2 4.5 3.1-0.9 24.1-12.2 27.1-14.8 0.9-0.8 7.7-8.5 7.7-8.5 0 0 9.4-2 10.4-4.2 1.1-2.1 1.2-7-5.1-6.6 0 0 6.1-1.8 6.8-4.9 0.7-3.1 0-7.1-10.9-5.6-10.8 1.6-31.7 7.4-34.1 6.8-0.6-0.2-1.5-2 0.2-2.8 0.8-0.3 25.4-9.9 29.3-11 4.3-1.1 4.9-10.6-3.9-8.4-8.8 2.3-37.5 9.2-37.5 9.2z"/>
									</g>
								</g>
								<g id="&lt;Group&gt;">
									<g id="&lt;Group&gt;">
										<g id="&lt;Group&gt;">
											<path id="&lt;Path&gt;" class="s10" d="m266.6 545.4c0.1 0.1 1.8-0.5 4.6-1.4 2.8-0.9 6.6-2.1 10.9-3.4 4.3-1.2 8.2-2.3 11.1-3 2.8-0.7 4.6-1.2 4.5-1.3 0 0-0.4 0-1.2 0.1-0.8 0.2-2 0.4-3.4 0.7-2.9 0.6-6.9 1.6-11.2 2.8-4.3 1.3-8.1 2.6-10.9 3.6-1.4 0.6-2.5 1-3.2 1.3-0.8 0.3-1.2 0.5-1.2 0.6z"/>
										</g>
									</g>
								</g>
								<g id="&lt;Group&gt;">
									<g id="&lt;Group&gt;">
										<g id="&lt;Group&gt;">
											<path id="&lt;Path&gt;" class="s10" d="m263.1 534c0 0 0.6 0 1.6-0.1 1-0.1 2.5-0.3 4.4-0.6 3.6-0.5 8.7-1.4 14.2-2.6 5.5-1.2 10.5-2.4 14-3.5 1.8-0.5 3.2-0.9 4.2-1.2 1-0.3 1.6-0.5 1.5-0.6 0 0-0.5 0.1-1.5 0.3q-1.8 0.5-4.3 1.1c-3.6 0.9-8.6 2-14.1 3.2-5.5 1.2-10.5 2.2-14.1 2.8q-2.6 0.5-4.3 0.8c-1 0.2-1.6 0.3-1.6 0.4z"/>
										</g>
									</g>
								</g>
								<g id="&lt;Group&gt;">
									<g id="&lt;Group&gt;">
										<g id="&lt;Group&gt;">
											<path id="&lt;Path&gt;" class="s10" d="m233.3 531.5c0 0 0 0.4 0 1.2 0 0.7 0.1 1.7 0.4 3 0.5 2.6 1.7 6 3.9 9.3 2.2 3.4 4.9 5.8 7 7.3 1.1 0.7 2 1.3 2.7 1.6 0.6 0.3 1 0.4 1 0.4 0.1-0.1-1.3-0.9-3.4-2.4-2-1.5-4.6-4-6.7-7.2-2.2-3.3-3.4-6.6-4-9.1-0.6-2.5-0.8-4.1-0.9-4.1z"/>
										</g>
									</g>
								</g>
								<g id="&lt;Group&gt;">
									<g id="&lt;Group&gt;">
										<g id="&lt;Group&gt;">
											<path id="&lt;Path&gt;" class="s4" d="m229.8 556.5c0.1-0.1-1.3-1.5-2.9-4.2-1.7-2.7-3.3-6.9-3.5-11.8-0.1-4.8 1.3-9.1 2.7-11.9 1.5-2.8 2.8-4.3 2.7-4.4 0 0-0.4 0.3-0.9 1-0.6 0.7-1.4 1.8-2.2 3.2-1.6 2.8-3.1 7.2-3 12.2 0.2 5 2 9.2 3.8 11.9 0.8 1.4 1.7 2.4 2.3 3 0.6 0.7 1 1 1 1z"/>
										</g>
									</g>
								</g>
							</g>
							<g id="&lt;Group&gt;">
								<g id="&lt;Group&gt;">
									<g id="&lt;Group&gt;">
										<path id="&lt;Path&gt;" class="s4" d="m205.6 510.7c0.1 0.1 1.8-1.2 4.8-2.6 1.5-0.8 3.4-1.5 5.5-2.1 2.2-0.6 4.6-1.1 7.1-1.3 2.6-0.2 5-0.1 7.2 0.2 2.2 0.3 4.2 0.7 5.8 1.3 3.2 1 5.1 2 5.1 1.9 0.1-0.1-0.4-0.3-1.2-0.8q-0.7-0.4-1.6-0.8c-0.6-0.2-1.3-0.6-2.1-0.8-1.6-0.6-3.6-1.1-5.9-1.4-2.2-0.3-4.7-0.5-7.3-0.3-2.6 0.2-5.1 0.7-7.3 1.3-2.1 0.7-4 1.5-5.5 2.3-0.8 0.4-1.4 0.8-2 1.2q-0.9 0.5-1.4 1c-0.8 0.6-1.2 0.9-1.2 0.9z"/>
									</g>
								</g>
							</g>
							<g id="&lt;Group&gt;" style="opacity: .3">
								<g id="&lt;Group&gt;">
									<path id="&lt;Path&gt;" class="s7" d="m275.9 351.9c0 0-9.1 21.1-7.8 22.9 1.2 1.7 6 3 6 3 0 0-7.8 3.4-7.8 6.4 0 5.9 8.4 41.2 8.4 41.2l-2.1-43.1 7.5-5.2-8.1-3.8z"/>
								</g>
							</g>
						</g>
					</g>
					<g id="&lt;Group&gt;">
						<g id="&lt;Group&gt;">
							<path id="&lt;Path&gt;" class="s9" d="m495.8 459.8c0 0 12.9-16.8 16.1-22.7 3.2-6 5.3-8.2 10.3-12.2 5-4.1 18.8-13.8 23.8-13.2 5 0.6 24.6-1.7 24.6-1.7l-14.8 23.3c0 0 4.5 16.2 1 19.9-3.5 3.6-3 2.8-8 4.4-4.9 1.6-23.7 2.7-23.9 3.2-0.3 0.6-10.9 17.2-10.9 17.2z"/>
						</g>
						<g id="&lt;Group&gt;">
							<path id="&lt;Path&gt;" class="s4" d="m559.2 422.1l50.3-27.9 1.5-3c0.3-0.5-0.1-1.1-0.6-1.1l-3.3-0.2-50.3 27.9z"/>
						</g>
						<g id="&lt;Group&gt;">
							<path id="&lt;Path&gt;" class="s9" d="m582.8 405.1c0 0-4-1.5-7.2 3.9-3.1 5.3-4.9 9.5-4.9 9.5-0.4 0.2-3.7 0.8-3.7 0.8l-5 6.9 1.5 4.4c0 0 10.1-1.9 12-4.8 1.9-2.9 7.6-15.9 7.9-18.1 0.3-2.1-0.6-2.6-0.6-2.6z"/>
						</g>
						<g id="&lt;Group&gt;">
							<g id="&lt;Group&gt;">
								<path id="&lt;Path&gt;" class="s9" d="m549.3 445.2l2-3.6-3.5-3.7c0 0-7 2.7-9.7-0.5-2.7-3.2-2-3.5-2-3.5l9.3-3.2-5.7-1.1c0 0-7.6 3-9.3-1.4l0.2-2.7c0 0 7.2-2.3 10.5-2.7 3.4-0.3 13.9 0.8 13.9 0.8l-9.7-2.6c0 0-3.4 0.7-6.2-0.2-1.7-0.5-2.4-2.4-1.6-4 0.3-0.6 0.8-1 1.3-1.2 1.6-0.8 5-2.2 7.6-2.3 3.4-0.3 14.8 1.2 17.8 3.6 2.9 2.5 3.3 3.7 2.5 6.7-0.8 3-4.1 8.2-4.1 8.2 0 0 0.1 4.1-1.5 6.6 0 0 1.9 6.8-4.3 14.8"/>
							</g>
							<g id="&lt;Group&gt;">
								<g id="&lt;Group&gt;">
									<path id="&lt;Path&gt;" class="s10" d="m556.8 453.2q0 0 0.7-0.8c0.4-0.6 1.1-1.4 1.7-2.6 0.7-1.2 1.4-2.8 1.9-4.7 0.5-1.9 0.9-4.2 0.3-6.8v0.3c1.2-1.9 1.6-4.2 1.6-6.8v0.2c0.9-1.5 1.9-3.1 2.7-4.9 0.9-1.7 1.8-3.6 1.8-6 0-1.2-0.7-2.3-1.5-3.1-0.8-0.8-1.6-1.6-2.7-2.2-2.1-1-4.4-1.6-6.8-2q-3.5-0.7-7.3-1c-1.2-0.1-2.5-0.2-3.9 0-1.3 0.2-2.6 0.6-3.8 1.1q-0.9 0.3-1.9 0.7c-0.5 0.3-1.2 0.4-1.9 1-1.2 1-1.5 3-0.6 4.4 0.4 0.7 1.2 1.2 1.9 1.4q1.1 0.3 2.2 0.4c1.4 0.1 2.8 0 4.2-0.2h-0.2c1.2 0.3 2.6 0.7 3.9 1q2.9 0.8 5.8 1.5l0.2-1.1c-4.4-0.4-8.6-0.8-12.8-0.8-2.2 0-4.2 0.6-6.1 1.1q-3 0.8-5.7 1.7l-0.4 0.1v0.3q-0.1 1.4-0.3 2.7v0.2l0.1 0.1c0.3 0.9 1.1 1.8 2 2.2 0.9 0.4 1.9 0.5 2.8 0.5 1.8 0 3.5-0.4 5.1-1.1l-0.2 0.1q2.9 0.5 5.7 1l-0.1-0.9q-3.6 1.3-6.9 2.5-0.8 0.3-1.6 0.6l-0.4 0.1-0.2 0.1h-0.1v0.1c-0.2 0-0.2 0.1-0.2 0.1-0.4 0.7 0 0.9 0 1.2 0.5 1.1 1.2 1.9 1.9 2.7 0.7 0.8 1.7 1.3 2.7 1.5 1 0.2 1.9 0.2 2.8 0.1 1.8-0.1 3.3-0.6 4.7-1.1h-0.3q2.1 2.1 3.5 3.6v-0.2c-0.6 1.2-1.1 2.1-1.4 2.8q-0.5 0.9-0.4 0.9 0 0.1 0.5-0.8c0.4-0.7 1-1.6 1.6-2.8l0.1-0.1-0.1-0.1q-1.4-1.5-3.4-3.7l-0.1-0.1h-0.2c-1.3 0.5-2.9 0.9-4.6 1-1.6 0.1-3.6 0-4.8-1.5-0.6-0.8-1.3-1.6-1.7-2.5q-0.1-0.2-0.1-0.3c-0.1-0.1 0-0.1-0.3-0.2v-0.1c-0.2-0.2 0.2 0.3 0.1 0.3h0.1l0.2-0.1 0.4-0.1q0.8-0.3 1.6-0.6 3.3-1.1 6.9-2.4l1.7-0.5-1.8-0.4q-2.7-0.5-5.7-1.1h-0.1-0.1c-1.5 0.6-3.2 1-4.8 1-1.6 0-3.3-0.6-3.8-2.1v0.2q0.1-1.3 0.3-2.7l-0.4 0.5q2.7-0.9 5.6-1.6c2-0.5 3.9-1 5.9-1 4.1 0 8.4 0.4 12.7 0.7l0.2-1.1q-2.9-0.7-5.8-1.5c-1.3-0.4-2.7-0.7-3.9-1l-0.2-0.1-0.1 0.1c-1.3 0.2-2.7 0.2-4 0.1q-0.9 0-1.9-0.3c-0.5-0.1-0.9-0.5-1.2-0.9-0.6-0.9-0.4-2.3 0.4-3 0.3-0.3 1-0.5 1.6-0.8q0.9-0.4 1.8-0.7c1.2-0.4 2.4-0.8 3.6-1 1.2-0.2 2.4-0.1 3.6 0 2.5 0.1 4.9 0.5 7.2 0.9 2.3 0.5 4.6 1 6.5 1.9 1 0.5 1.8 1.2 2.5 2 0.7 0.7 1.2 1.5 1.3 2.5 0 1.9-0.8 3.8-1.7 5.5-0.8 1.8-1.7 3.4-2.6 4.9l-0.1 0.1v0.1c0 2.4-0.4 4.8-1.4 6.4l-0.1 0.1v0.2c0.6 2.3 0.3 4.6-0.1 6.5-0.4 1.9-1.1 3.4-1.7 4.6-1.2 2.4-2.2 3.5-2.1 3.6z"/>
								</g>
							</g>
						</g>
						<g id="&lt;Group&gt;">
							<g id="&lt;Group&gt;">
								<path id="&lt;Path&gt;" class="s10" d="m546.6 447c0.1-0.1-1.2-1.1-3.5-2.4-2.2-1.2-5.6-2.6-9.5-3.4-3.9-0.8-7.6-0.9-10.2-0.7-2.6 0.3-4.1 0.8-4.1 0.9 0 0.4 6.4-0.7 14 0.9 7.7 1.5 13.1 5.1 13.3 4.7z"/>
							</g>
						</g>
						<g id="&lt;Group&gt;">
							<g id="&lt;Group&gt;">
								<path id="&lt;Path&gt;" class="s10" d="m544.6 430.7c0 0.2 1.1-0.2 2.8-0.4 1.8-0.1 4.2 0.3 6.4 1.8 2.3 1.4 4 3.3 5.3 4.5 1.2 1.3 2.1 2.1 2.2 2 0.1-0.1-0.5-1.1-1.6-2.5-1.2-1.4-2.8-3.4-5.3-5-2.4-1.6-5.2-2-7.1-1.6-1.8 0.4-2.8 1.1-2.7 1.2z"/>
							</g>
						</g>
						<g id="&lt;Group&gt;">
							<g id="&lt;Group&gt;">
								<path id="&lt;Path&gt;" class="s10" d="m554.6 423.5c0 0.3 2.5 0.9 4.7 3.2 2.2 2.2 3.3 4.6 3.6 4.5 0.3-0.1-0.4-2.9-2.8-5.3-1.2-1.3-2.6-2.1-3.7-2.3-1.1-0.4-1.8-0.3-1.8-0.1z"/>
							</g>
						</g>
					</g>
					<g id="&lt;Group&gt;">
						<g id="&lt;Group&gt;">
							<path id="&lt;Path&gt;" class="s6" d="m426.7 364.3l9.2 15.3 32.4 92.3 30.3-31.3 31.3 31.3c0 0-38.2 51.4-44.8 59.6-10.5 13.2-39.9 12.3-50.4-11.1-9.1-20-16.1-33.6-16.1-33.6l1.8-38.9z"/>
						</g>
						<g id="&lt;Group&gt;">
							<g id="&lt;Group&gt;">
								<path id="&lt;Path&gt;" class="s4" d="m423 400.3q0 0 0 0.5 0 0.7 0 1.7-0.1 2.2-0.3 6.2c-0.2 5.6-0.6 13.5-1.1 23.2-1 19.6-2.5 46.6-4.1 76.3-0.6 11.3-1.2 22.2-1.8 32.2v-0.3c9.3 19.9 17.4 37.1 23.2 49.3 2.8 6.1 5.1 10.9 6.7 14.3q1.1 2.5 1.7 3.9 0.6 1.3 0.5 1.3 0 0-0.7-1.2-0.6-1.4-1.8-3.8c-1.7-3.4-4-8.2-6.9-14.2-5.9-12.2-14.1-29.3-23.6-49.1l-0.1-0.1v-0.2c0.6-10 1.2-20.8 1.8-32.1 1.7-29.8 3.2-56.7 4.4-76.3 0.6-9.8 1.1-17.6 1.4-23.2q0.3-4 0.5-6.3 0.1-1 0.1-1.6 0.1-0.5 0.1-0.5z"/>
							</g>
						</g>
						<g id="&lt;Group&gt;">
							<g id="&lt;Group&gt;">
								<path id="&lt;Path&gt;" class="s4" d="m464.2 501.9c-0.2 0-0.2-1.7-0.1-4.4 0.1-2.8 0.4-6.6 0.9-10.7 0.6-4.2 1.3-7.9 2-10.6 0.6-2.7 1.1-4.3 1.3-4.3 0.3 0.1-1.1 6.7-2.2 15-1.2 8.3-1.6 15-1.9 15z"/>
							</g>
						</g>
					</g>
				</g>
				<g id="&lt;Group&gt;">
					<g id="&lt;Group&gt;">
						<g id="&lt;Group&gt;">
							<path id="&lt;Path&gt;" class="s4" d="m386.7 222.6c0 0 12.4 46.2 13.4 78.9l0.4 10.8c0 0-27.3 22.7-50.1 24.1l-19.2-47.2z"/>
						</g>
						<g id="&lt;Group&gt;">
							<path id="&lt;Path&gt;" class="s4" d="m265.7 250.9c5.2-22.5 7.2-48.7 25.9-63.4 13.9-10.9 29.8-13.9 47.4-13.2 8.7 0.4 18.5 4.4 26.1 8.7 10.3 5.8 14.7 17.8 19.7 28.6 10.1 21.7 8.8 51 2 59.2l-90.6 47.8c-18.1-9.4-29.4-13.2-32.3-37.3-1.2-10.1-0.5-20.4 1.8-30.4z"/>
						</g>
						<g id="&lt;Group&gt;">
							<path id="&lt;Path&gt;" class="s9" d="m292.6 205.4l57-16.8c18.4-2.7 31.5 19.5 33.4 38 2.1 20.5 3.9 45.6 2 61.1-3.6 31-27.1 35.9-27.1 35.9 0-0.1 0.1 12.4 0.1 12.4l-25.9 27.6-39.7-26.5-9.1-120.3c-0.3-5.6 3.7-10.6 9.3-11.4z"/>
						</g>
						<g id="&lt;Group&gt;">
							<g id="&lt;Group&gt;">
								<path id="&lt;Path&gt;" class="s4" d="m377.6 258.5c0.2 2.1-1.5 3.9-3.6 4.1-2.2 0.2-4.1-1.3-4.2-3.4-0.2-2.1 1.4-3.9 3.6-4.1 2.2-0.2 4.1 1.3 4.2 3.4z"/>
							</g>
						</g>
						<g id="&lt;Group&gt;">
							<g id="&lt;Group&gt;">
								<path id="&lt;Path&gt;" class="s4" d="m379.2 245.2c-0.4 0.5-3.5-1.6-7.8-1.4-4.2 0.1-7.3 2.4-7.7 1.9-0.3-0.2 0.2-1.1 1.5-2.2 1.3-1 3.5-2.1 6.2-2.2 2.7 0 4.9 0.8 6.2 1.8 1.4 0.9 1.9 1.9 1.6 2.1z"/>
							</g>
						</g>
						<g id="&lt;Group&gt;">
							<g id="&lt;Group&gt;">
								<path id="&lt;Path&gt;" class="s4" d="m341.1 258.5c0.1 2.1-1.5 3.9-3.7 4.1-2.1 0.2-4-1.3-4.2-3.4-0.1-2.1 1.5-3.9 3.7-4.1 2.1-0.2 4 1.3 4.2 3.4z"/>
							</g>
						</g>
						<g id="&lt;Group&gt;">
							<g id="&lt;Group&gt;">
								<path id="&lt;Path&gt;" class="s4" d="m337.4 245.7c-0.5 0.5-3.6-1.6-7.9-1.4-4.2 0.1-7.3 2.4-7.7 1.9-0.3-0.2 0.2-1.1 1.5-2.2 1.3-1 3.6-2.1 6.2-2.2 2.7 0 4.9 0.8 6.3 1.8 1.3 0.9 1.8 1.9 1.6 2.1z"/>
							</g>
						</g>
						<g id="&lt;Group&gt;">
							<g id="&lt;Group&gt;">
								<path id="&lt;Path&gt;" class="s4" d="m353.9 273.3c0-0.2 2.6-0.8 6.9-1.5 1.1-0.2 2.1-0.4 2.3-1.2 0.2-0.8-0.3-1.9-0.9-3.2q-1.7-3.9-3.5-8.1c-5-11.6-8.6-21.2-8.1-21.4 0.5-0.2 4.8 9.1 9.8 20.7q1.8 4.3 3.4 8.2c0.4 1.2 1.2 2.6 0.7 4.2-0.2 0.9-1 1.5-1.7 1.7-0.7 0.2-1.3 0.3-1.8 0.3-4.4 0.4-7 0.5-7.1 0.3z"/>
							</g>
						</g>
						<g id="&lt;Group&gt;">
							<g id="&lt;Group&gt;">
								<path id="&lt;Path&gt;" class="s10" d="m358 323.6c0 0-20.7 2.1-41.8-9.4 0 0 11.1 21.2 41.9 17.1z"/>
							</g>
						</g>
						<g id="&lt;Group&gt;">
							<path id="&lt;Path&gt;" class="s10" d="m340.1 282.8c1.1-1.9 3-2.9 5.1-3 2.9-0.2 5.4 0.7 7.4 3.3 0.7 0.8 0.7 3 0.5 3.6-0.3 0.6-0.1 0.3-0.5 0.7-1.7 1.6-3.4 3.2-5.6 3.8-2.2 0.6-5 0-6.5-2.1-1.3-1.8-1.4-4.5-0.4-6.3z"/>
						</g>
						<g id="&lt;Group&gt;">
							<g id="&lt;Group&gt;">
								<path id="&lt;Path&gt;" class="s4" d="m340.8 276.9c0.7 0 0.9 4.6 5 7.7 4.1 3.1 9 2.3 9 3 0.1 0.3-1 0.9-3.1 1.1-2 0.2-5-0.4-7.5-2.3-2.6-1.9-3.7-4.5-4-6.4-0.2-1.9 0.2-3.1 0.6-3.1z"/>
							</g>
						</g>
						<g id="&lt;Group&gt;">
							<g id="&lt;Group&gt;">
								<path id="&lt;Path&gt;" class="s4" d="m339 230.1c-0.3 1.2-4.6 1.1-9.5 2.2-5 0.9-8.9 2.8-9.6 1.8-0.4-0.4 0.2-1.6 1.8-2.9 1.5-1.2 3.9-2.6 6.9-3.2 2.9-0.6 5.7-0.4 7.6 0.2 1.9 0.5 2.9 1.3 2.8 1.9z"/>
							</g>
						</g>
						<g id="&lt;Group&gt;">
							<g id="&lt;Group&gt;">
								<path id="&lt;Path&gt;" class="s4" d="m378.9 233.7c-1 0.9-4.1-0.6-8-1.2-3.9-0.7-7.3-0.4-7.9-1.5-0.3-0.5 0.4-1.4 2-2.1 1.5-0.7 4-1.1 6.7-0.7 2.7 0.5 4.9 1.7 6.1 2.9 1.2 1.2 1.5 2.2 1.1 2.6z"/>
							</g>
						</g>
						<g id="&lt;Group&gt;">
							<path id="&lt;Path&gt;" class="s4" d="m349.8 185.3q0.1 0.3 0.1 0.6l-0.1 0.1q0-0.4 0-0.7z"/>
						</g>
						<g id="&lt;Group&gt;">
							<path id="&lt;Path&gt;" class="s4" d="m304.7 334.6c3 0.8 6-1.1 6.5-4.1 1.1-6.4 0.9-12.5 0.2-18.8-1-8.5-6.8-17.5-7.6-26.1-1.3-16.4 0.1-25.6 1.9-39.4 7.8-0.9 15-5.6 20.1-11.6 6.2-7.2 9.9-16.1 13.6-24.9-0.2 8.6-3.2 17.1-8.4 24 3.4 0.7 7-0.8 9.6-3.1 2.6-2.4 4.3-5.6 5.6-8.8 3.4-7.8 5.2-16.2 5.5-24.7 1.1 12.1-0.2 24.5-4 36.1 2.1-0.7 4.4-0.1 6.7 0.2 2.2 0.3 4.8 0.3 6.4-1.3 1-1.1 1.4-2.7 1.7-4.1 2.1-10.4 2.5-21 1-31.5 2.8 5.7 5.5 11.4 7.1 17.4 1.6 6.1 2 12.6 0.1 18.6 0.9 1.1 2.8 1 3.9 0 1-1 1.4-2.5 1.7-3.9 0.8-5.2-0.1-10.4-1.1-15.6 3.1 5.5 4.2 11.8 5.9 17.8 1.7 6.1 4.4 12.3 9.6 15.7 0.9-9 0.6-15.2-0.7-23.7-1.1-6.4-4.1-12.8-7-18.7-3.2-6.7-7.6-13.1-12.5-17.5-9.1-7.9-12.9-4.5-18.7-1.5l-0.7 0.3q0-0.2 0-0.4l-0.3-1.2c-15.1-3.4-31.1-2.7-45.9 2.1-10.9 3.6-11.9 27.1-14.6 15.9-1.6-6.7-10.4-0.5-10.5-0.4-12.9 23.3-26.6 60.3-27.2 118.6z"/>
						</g>
					</g>
					<g id="&lt;Group&gt;">
						<g id="&lt;Group&gt;">
							<g id="&lt;Group&gt;">
								<path id="&lt;Path&gt;" class="s2" d="m303.7 277.8c5.7 10.2 16.7 16.8 28.4 17.1 1.6 0 1.6-2.5 0-2.5-10.8-0.3-21-6.5-26.2-15.9-0.8-1.4-2.9-0.1-2.2 1.3z"/>
							</g>
						</g>
						<g id="&lt;Group&gt;">
							<path id="&lt;Path&gt;" class="s6" d="m335.4 299.7l-5.5-0.9c-2.7-0.4-4.6-3-4.1-5.6 0.4-2.7 2.9-4.6 5.6-4.2l5.5 0.9c2.7 0.4 4.5 3 4.1 5.6-0.4 2.7-2.9 4.6-5.6 4.2z"/>
						</g>
						<g id="&lt;Group&gt;">
							<path id="&lt;Path&gt;" class="s6" d="m315.1 269.4c0 12.5-10.1 22.7-22.7 22.7-12.5 0-22.6-10.2-22.6-22.7 0-12.5 10.1-22.7 22.6-22.7 12.6 0 22.7 10.2 22.7 22.7z"/>
						</g>
						<g id="&lt;Group&gt;">
							<path id="&lt;Path&gt;" class="s6" d="m286.1 250c0 0-4-54.1 33.7-74.7l10.2-1.1c0 0-38.9 21.8-30.8 80.9z"/>
						</g>
					</g>
				</g>
			</g>
		</g>
	</g>
	<g id="Speech Bubble 1">
		<g id="&lt;Group&gt;">
			<g id="&lt;Group&gt;">
				<g id="&lt;Group&gt;">
					<g id="&lt;Group&gt;">
						<g id="&lt;Group&gt;">
							<g id="&lt;Group&gt;">
								<g id="&lt;Group&gt;">
									<path id="&lt;Path&gt;" class="s3" d="m473.7 286.9l16.3-8.2c13.3 3.4 27.8 2.8 41.8-2.6 33-12.8 51.1-49.2 41.6-83.3-11.1-39.3-53.5-60.7-91.9-45.8-32.6 12.7-50.7 48.4-41.8 82.2 4.4 16.7 14.6 30.3 27.6 39.3z"/>
								</g>
								<g id="&lt;Group&gt;">
									<g id="&lt;Group&gt;">
										<path id="&lt;Path&gt;" class="s4" d="m473.7 286.9q0 0-0.4-1.1-0.5-1.3-1.3-3.5c-1.2-3.2-2.9-7.8-5-13.7-0.1-0.2 0-0.4 0.2-0.4q0.1-0.1 0.2 0h0.1l-0.3 0.6c-7.2-4.9-16-12.8-22.4-25-3.2-6.1-5.7-13.2-7.1-21-1.3-7.9-1.2-16.5 0.5-25.3 1.8-8.7 5.5-17.5 11-25.6 5.5-8 12.8-15.4 21.9-20.6 9.1-5.3 19.6-8.7 30.6-9.6 11.1-0.9 22.6 1.1 33.1 5.8 10.7 4.6 20 11.9 26.9 20.7 6.9 8.9 11.4 19.1 13.6 29.4 2.2 10.4 1.6 20.9-0.8 30.5-2.4 9.5-6.6 18.2-12 25.4-5.4 7.1-11.9 12.9-18.6 17.2q-2.6 1.4-5.2 2.9c-1.7 0.9-3.5 1.5-5.2 2.3-3.4 1.5-6.8 2.5-10.2 3.4-13.4 3.2-25.1 1.9-33.4-0.2l0.2-0.1c-5.2 2.6-9.3 4.6-12.2 5.9q-2 1-3.1 1.5-1.1 0.5-1.1 0.5 0.1-0.1 1.1-0.6 1.2-0.6 3.2-1.7c2.8-1.4 6.7-3.5 11.8-6.2q0.2 0 0.3 0c8.2 2 19.8 3.2 33-0.1 3.3-0.9 6.7-1.9 10-3.4 1.7-0.8 3.4-1.5 5.1-2.4q2.5-1.4 5-2.9c6.6-4.2 13-9.9 18.2-17 5.3-7 9.4-15.5 11.7-24.9 2.2-9.3 2.8-19.6 0.6-29.7-2.1-10.2-6.5-20.2-13.3-28.8-6.7-8.6-15.8-15.7-26.2-20.2-10.3-4.6-21.6-6.6-32.4-5.7-10.7 0.8-21 4.1-29.9 9.3-8.9 5.1-16.1 12.3-21.5 20.2-5.4 7.8-9 16.5-10.8 25-1.8 8.6-1.9 17-0.7 24.8 1.3 7.7 3.7 14.7 6.8 20.7 6.3 12.1 14.9 20 21.8 24.9 0.2 0.1 0.2 0.3 0.1 0.5-0.1 0.1-0.2 0.2-0.4 0.1l0.4-0.4c2 5.9 3.5 10.4 4.6 13.6q0.7 2.3 1.1 3.6 0.4 1.2 0.4 1.3z"/>
									</g>
								</g>
							</g>
						</g>
					</g>
				</g>
			</g>
			<g id="&lt;Group&gt;">
				<g id="&lt;Group&gt;">
					<path id="&lt;Path&gt;" class="s4" d="m492.3 214.6c0 4.2-3.4 7.6-7.6 7.6-4.1 0-7.5-3.4-7.5-7.6 0-4.2 3.4-7.6 7.5-7.6 4.2 0 7.6 3.4 7.6 7.6z"/>
				</g>
				<g id="&lt;Group&gt;">
					<path id="&lt;Path&gt;" class="s4" d="m517.8 214.6c0 4.2-3.4 7.6-7.5 7.6-4.2 0-7.6-3.4-7.6-7.6 0-4.2 3.4-7.6 7.6-7.6 4.1 0 7.5 3.4 7.5 7.6z"/>
				</g>
				<g id="&lt;Group&gt;">
					<path id="&lt;Path&gt;" class="s4" d="m542.7 214.6c0 4.2-3.4 7.6-7.6 7.6-4.2 0-7.6-3.4-7.6-7.6 0-4.2 3.4-7.6 7.6-7.6 4.2 0 7.6 3.4 7.6 7.6z"/>
				</g>
			</g>
		</g>
	</g>
</svg>