<svg version="1.2" xmlns="http://www.w3.org/2000/svg" viewBox="0 0 1000 1000" width="1000" height="1000">
	<title>4549545-ai</title>
	<style>
		.s0 { fill: #ebebeb } 
		.s1 { fill: #dbdbdb } 
		.s2 { fill: #c7c7c7 } 
		.s3 { fill: #263238 } 
		.s4 { fill: #ffffff } 
		.s5 { fill: #455a64 } 
		.s6 { fill:  #BA68C8 } 
		.s7 { fill: #37474f } 
		.s8 { fill: #a6a6a6 } 
		.s9 { fill: #ad6359 } 
		.s10 { fill: #ff98b9 } 
		.s11 { opacity: .1;fill: #000000 } 
		.s12 { fill: #000000 } 
	</style>
	<g id="Background Complete">
		<g id="&lt;Group&gt;">
			<g id="&lt;Group&gt;">
				<path id="&lt;Path&gt;" class="s0" d="m840 841.4h-176.5v-244.2h176.5z"/>
				<path id="&lt;Path&gt;" class="s1" d="m848.5 597.2h-193.6v-9h193.6z"/>
				<path id="&lt;Path&gt;" class="s0" d="m909.4 597.2h-60.9v-9h60.9z"/>
				<path id="&lt;Path&gt;" class="s1" d="m899.8 841.4h-59.8v-244.2h59.8z"/>
				<g id="&lt;Group&gt;">
					<path id="&lt;Compound Path&gt;" fill-rule="evenodd" class="s2" d="m821 710.3h-138.5v-78.3h138.5zm-138-0.5h137.5v-77.4h-137.5z"/>
					<g id="&lt;Group&gt;">
						<path id="&lt;Path&gt;" class="s2" d="m759.4 670.4h-27v-15.5h27z"/>
						<path id="&lt;Compound Path&gt;" fill-rule="evenodd" class="s2" d="m767.6 669.4h-27.5v-13.6h27.5zm-27-0.5h26.5v-12.7h-26.5z"/>
					</g>
				</g>
				<g id="&lt;Group&gt;">
					<path id="&lt;Compound Path&gt;" fill-rule="evenodd" class="s2" d="m821 808.6h-138.5v-78.3h138.5zm-138-0.5h137.5v-77.3h-137.5z"/>
					<g id="&lt;Group&gt;">
						<path id="&lt;Path&gt;" class="s2" d="m759.4 768.7h-27v-15.5h27z"/>
						<path id="&lt;Compound Path&gt;" fill-rule="evenodd" class="s2" d="m767.6 767.8h-27.5v-13.7h27.5zm-27-0.5h26.5v-12.7h-26.5z"/>
					</g>
				</g>
			</g>
		</g>
		<g id="&lt;Group&gt;">
			<g id="&lt;Group&gt;">
				<path id="&lt;Path&gt;" class="s2" d="m171.8 184.3h-2v-184.3h2z"/>
				<g id="&lt;Group&gt;">
					<path id="&lt;Path&gt;" class="s0" d="m234.8 245.9l-5.2 11.3h-117.7l-5.1-11.3 50.1-34.6h27.8z"/>
					<path id="&lt;Path&gt;" class="s1" d="m188.1 177.8l-3.4 33.5h-27.8l-3.5-33.5z"/>
					<path id="&lt;Path&gt;" class="s1" d="m234.8 245.9l-5.2 11.4h-117.7l-5.1-11.4z"/>
				</g>
			</g>
			<g id="&lt;Group&gt;">
				<path id="&lt;Path&gt;" class="s2" d="m309.2 147.8h-2v-147.8h2z"/>
				<g id="&lt;Group&gt;">
					<path id="&lt;Path&gt;" class="s0" d="m372.2 209.4l-5.2 11.4h-117.7l-5.1-11.4 50.1-34.6h27.7z"/>
					<path id="&lt;Path&gt;" class="s1" d="m325.5 141.3l-3.5 33.5h-27.7l-3.5-33.5z"/>
					<path id="&lt;Path&gt;" class="s1" d="m372.1 209.4l-5.1 11.4h-117.7l-5.1-11.4z"/>
				</g>
			</g>
		</g>
		<g id="&lt;Group&gt;">
			<g id="&lt;Group&gt;">
				<path id="&lt;Path&gt;" class="s0" d="m162.5 294.1c-83.2 0-83.3 118.2 0 118.2 83.2 0 83.4-118.2 0-118.2z"/>
				<path id="&lt;Path&gt;" class="s1" d="m213.1 364.3c-4.4 20.3-21.3 38-50.6 38-69.1 0-69-98.2 0-98.2q0.7 0 1.4 0c-65 1.2-64.7 94.2 1.3 94.2 26.8 0 42.9-15.6 47.9-34z"/>
				<g id="&lt;Group&gt;">
					<path id="&lt;Compound Path&gt;" fill-rule="evenodd" class="s1" d="m163 317.1c1.2 0 2.2 0.9 2.2 1.9v3.3c6.5 0.5 11.1 2.5 16 5.8 0.8 0.6 1.3 1.1 1.3 1.9 0 1.1-1.1 2-2.4 2-0.5 0-1 0-1.6-0.5-4.4-3.2-8.7-4.9-13.5-5.4v23.1c13.7 2.6 19.4 7.3 19.4 15.4 0 8.7-8 14.9-19.2 15.2v6.4c0 1.1-1 2-2.2 2-1.1 0-2.1-0.9-2.1-2v-6.5c-7.9-0.6-14.3-3.2-20.3-8-0.6-0.5-1-1-1-1.7 0-1.1 1.1-2.1 2.3-2.1 0.8 0 1.3 0.4 1.6 0.6 5 4.3 10.5 6.9 17.5 7.5v-23.5c-13.5-2.7-19-7.2-19-15.4 0-8.4 7.9-14.7 18.9-14.9v-3.2c0-1 1-1.9 2.1-1.9zm-2 31.2v-22.4c-8.7 0.1-14.4 4.9-14.4 10.8 0 5.6 2.8 9.1 14.4 11.6zm4 5.1v22.7c9-0.2 14.9-4.9 14.9-11.2 0-5.7-3.2-9.1-14.9-11.5z"/>
				</g>
			</g>
			<g id="&lt;Group&gt;">
				<path id="&lt;Path&gt;" class="s1" d="m578.7 520.9c-51.8 39.3 6.5 116 58.3 76.6 51.7-39.4-6.5-116.1-58.3-76.6z"/>
				<path id="&lt;Path&gt;" class="s0" d="m583.5 517.2c-49.3 37.5 9 114.2 58.3 76.6 49.3-37.5-8.9-114.2-58.3-76.6z"/>
				<path id="&lt;Path&gt;" class="s1" d="m648.1 539.8c7.4 15.2 6.1 34.3-11.2 47.5-41 31.2-89.4-32.5-48.4-63.6q0.4-0.3 0.8-0.6c-37.9 30.1 8.1 90.2 47.2 60.4 15.9-12.1 17.7-29.4 11.6-43.7z"/>
				<g id="&lt;Group&gt;">
					<path id="&lt;Compound Path&gt;" fill-rule="evenodd" class="s1" d="m602.7 527.9c0.8-0.3 1.8 0.2 2.1 1l0.9 2.5c4.7-1.3 8.5-1 12.8 0.2 0.7 0.3 1.2 0.5 1.4 1.2 0.4 0.8-0.1 1.8-1 2.1-0.4 0.2-0.7 0.2-1.3 0-4-1.3-7.5-1.4-11-0.6l6.6 17.6c10.3-1.5 15.6 0.6 17.9 6.7 2.5 6.7-1.3 13.5-9.1 16.6l1.8 4.9c0.3 0.9-0.1 1.8-0.9 2.1-0.8 0.3-1.8-0.1-2.1-0.9l-1.8-5c-5.7 1.6-10.9 1.2-16.4-0.8-0.6-0.2-1-0.5-1.2-1.1-0.3-0.8 0.2-1.8 1-2.1 0.5-0.3 1-0.1 1.3 0 4.7 1.9 9.3 2.5 14.3 1.1l-6.6-17.9c-10.2 1.5-15.4-0.5-17.7-6.8-2.4-6.4 1.3-13.3 8.9-16.3l-0.9-2.4c-0.3-0.8 0.2-1.8 1-2.1zm7.5 24.4l-6.4-17.1c-6 2.4-8.7 7.5-7 12 1.6 4.3 4.6 6.2 13.4 5.1zm4.2 2.8l6.4 17.4c6.3-2.5 9-7.7 7.2-12.4-1.6-4.4-4.8-6.2-13.6-5z"/>
				</g>
			</g>
			<g id="&lt;Group&gt;">
				<path id="&lt;Path&gt;" class="s1" d="m132.1 475.8c60.6 10.9 44.6 100.6-16.1 89.7-60.5-10.9-44.5-100.6 16.1-89.7z"/>
				<path id="&lt;Path&gt;" class="s0" d="m126.4 474.8c57.7 10.4 41.7 100.1-16.1 89.7-57.7-10.4-41.7-100.1 16.1-89.7z"/>
				<path id="&lt;Path&gt;" class="s1" d="m81.8 521.8c0.3 15.9 9.6 31.4 29.9 35.1 48 8.6 61.3-65.9 13.4-74.5q-0.5-0.1-1-0.1c44.9 9 32.1 79.4-13.7 71.2-18.6-3.3-27.6-17.1-28.6-31.7z"/>
				<g id="&lt;Group&gt;">
					<path id="&lt;Compound Path&gt;" fill-rule="evenodd" class="s1" d="m121.8 489c0.8 0.1 1.3 0.9 1.2 1.7l-0.5 2.5c4.4 1.2 7.4 3.3 10.3 6.5 0.5 0.5 0.7 0.9 0.6 1.6-0.1 0.8-1 1.4-1.9 1.2-0.4-0.1-0.7-0.2-1-0.6-2.6-3-5.4-4.8-8.6-5.8l-3.3 17.4c9.1 3.8 12.5 8.1 11.3 14.2-1.2 6.6-7.6 10.3-15.5 9.1l-0.9 4.8c-0.1 0.8-1 1.4-1.8 1.2-0.8-0.1-1.3-0.9-1.2-1.7l0.9-5c-5.3-1.4-9.4-4.2-12.9-8.6-0.3-0.5-0.5-0.9-0.4-1.5 0.1-0.8 1-1.4 1.8-1.2 0.6 0.1 0.9 0.4 1.1 0.6 2.9 3.9 6.3 6.6 11.1 8l3.3-17.8c-9-3.8-12.2-8-11-14.2 1.1-6.3 7.5-10.1 15.2-8.8l0.4-2.4c0.2-0.8 1-1.4 1.8-1.2zm-5.8 23.4l3.2-17c-6.1-1-10.8 1.9-11.6 6.3-0.8 4.3 0.7 7.3 8.4 10.7zm2 4.3l-3.2 17.2c6.3 1.1 11-1.8 11.9-6.5 0.8-4.3-0.9-7.4-8.7-10.7z"/>
				</g>
			</g>
		</g>
	</g>
	<g id="Floor">
		<path id="&lt;Path&gt;" class="s3" d="m89.3 841.5l102.7-0.5 102.7-0.1 205.3-0.4 205.3 0.3 102.7 0.2 102.7 0.5-102.7 0.5-102.7 0.2-205.3 0.3-205.3-0.3-102.7-0.2z"/>
	</g>
	<g id="Shadow">
		<g id="&lt;Group&gt;">
			<path id="&lt;Path&gt;" class="s0" d="m846 910.9c0 18.8-154.9 34-346 34-191.1 0-346-15.2-346-34 0-18.7 154.9-33.9 346-33.9 191.1 0 346 15.2 346 33.9z"/>
		</g>
	</g>
	<g id="Window">
		<g id="&lt;Group&gt;">
			<g id="&lt;Group&gt;">
				<path id="&lt;Path&gt;" class="s4" d="m918.3 463.8h-515.6v-386.4h515.6z"/>
				<path id="&lt;Compound Path&gt;" fill-rule="evenodd" class="s0" d="m918.3 463.8l-515.6 0.5h-0.5v-0.5l-0.2-386.4v-0.7h0.7l515.6 0.2h0.5v0.5zm0 0l-0.5-385.9-514.4 0.3-0.2 385.1zm-0.4-386h0.4l-0.4-0.4zm-514.4 0.3v-0.8l-0.8 0.8zm-0.2 385.1h-0.5l0.5 0.5z"/>
			</g>
			<g id="&lt;Group&gt;">
				<g id="&lt;Group&gt;">
					<path id="&lt;Path&gt;" class="s2" d="m455.3 251.5l205.2-0.4c59.4 0.2 146.3 0.1 205.7 0.4-59.4 0.3-146.3 0.2-205.7 0.3z"/>
					<path id="&lt;Path&gt;" class="s2" d="m455.3 262.4l178.2-0.4c59.4 0.2 173.3 0.1 232.7 0.4-59.4 0.3-173.3 0.2-232.7 0.4z"/>
					<path id="&lt;Path&gt;" class="s2" d="m455.3 273.3l178.2-0.3c59.4 0.1 173.3 0 232.7 0.3-59.4 0.3-173.3 0.2-232.7 0.4z"/>
					<path id="&lt;Path&gt;" class="s2" d="m455.3 284.2l178.2-0.3c59.4 0.1 173.3 0 232.7 0.3-59.4 0.3-173.3 0.3-232.7 0.4z"/>
					<path id="&lt;Path&gt;" class="s2" d="m455.3 295.1l178.2-0.3c59.4 0.1 173.3 0 232.7 0.3-59.4 0.4-173.3 0.3-232.7 0.4z"/>
					<path id="&lt;Path&gt;" class="s2" d="m455.3 306.1l178.2-0.4c59.4 0.1 173.3 0.1 232.7 0.4-59.4 0.3-173.3 0.2-232.7 0.3z"/>
					<path id="&lt;Path&gt;" class="s2" d="m455.3 317l178.2-0.4c59.4 0.1 173.3 0.1 232.7 0.4-59.4 0.3-173.3 0.2-232.7 0.3z"/>
					<path id="&lt;Path&gt;" class="s2" d="m455.3 327.9l178.2-0.4c59.4 0.2 173.3 0.1 232.7 0.4-59.4 0.3-173.3 0.2-232.7 0.3z"/>
					<path id="&lt;Path&gt;" class="s2" d="m455.3 338.8l178.2-0.4c59.4 0.2 173.3 0.1 232.7 0.4-59.4 0.3-173.3 0.2-232.7 0.4z"/>
					<path id="&lt;Path&gt;" class="s2" d="m455.3 349.7l178.2-0.3c59.4 0.1 173.3 0 232.7 0.3-59.4 0.3-173.3 0.2-232.7 0.4z"/>
					<path id="&lt;Path&gt;" class="s2" d="m455.3 360.6l178.2-0.3c59.4 0.1 173.3 0 232.7 0.3-59.4 0.3-173.3 0.3-232.7 0.4z"/>
					<path id="&lt;Path&gt;" class="s2" d="m455.3 371.5l178.2-0.3c59.4 0.1 173.3 0 232.7 0.3-59.4 0.3-173.3 0.3-232.7 0.4z"/>
					<path id="&lt;Path&gt;" class="s2" d="m455.3 382.5l178.2-0.4c59.4 0.1 173.3 0 232.7 0.4-59.4 0.3-173.3 0.2-232.7 0.3z"/>
					<path id="&lt;Path&gt;" class="s2" d="m455.3 393.4l178.2-0.4c59.4 0.1 173.3 0.1 232.7 0.4-59.4 0.3-173.3 0.2-232.7 0.3z"/>
					<path id="&lt;Path&gt;" class="s2" d="m455.3 404.3l178.2-0.4c59.4 0.2 173.3 0.1 232.7 0.4-59.4 0.3-173.3 0.2-232.7 0.3z"/>
				</g>
				<g id="&lt;Group&gt;">
					<path id="&lt;Path&gt;" class="s0" d="m499.8 373.3h-18.4v43.8h18.4z"/>
					<path id="&lt;Path&gt;" class="s0" d="m533.1 379.3h-18.4v37.8h18.4z"/>
					<path id="&lt;Path&gt;" class="s0" d="m566.4 365.1h-18.4v52h18.4z"/>
					<path id="&lt;Path&gt;" class="s0" d="m599.7 361h-18.4v56.1h18.4z"/>
					<path id="&lt;Path&gt;" class="s0" d="m633 338.8h-18.4v78.3h18.4z"/>
					<path id="&lt;Path&gt;" class="s0" d="m666.3 345.2h-18.4v71.9h18.4z"/>
					<path id="&lt;Path&gt;" class="s0" d="m699.6 331.1h-18.4v86h18.4z"/>
					<path id="&lt;Path&gt;" class="s0" d="m732.9 316.6h-18.4v100.5h18.4z"/>
					<path id="&lt;Path&gt;" class="s0" d="m766.2 317.2h-18.4v99.9h18.4z"/>
					<path id="&lt;Path&gt;" class="s0" d="m799.5 321.1h-18.4v96h18.4z"/>
					<path id="&lt;Path&gt;" class="s0" d="m832.8 301.6h-18.4v115.5h18.4z"/>
				</g>
				<path id="&lt;Path&gt;" class="s2" d="m465 243.8l0.7 43.3 0.5 43.3c0.4 28.9 0.5 57.7 0.6 86.6l-1.8-1.3 86.7-0.1 86.7 0.2 129.8 0.4 98 0.8-98 0.8-129.8 0.4-86.7 0.2-86.7-0.1h-1.8v-1.3c0.1-28.9 0.2-57.7 0.6-86.6l0.5-43.3z"/>
			</g>
			<g id="&lt;Group&gt;">
				<path id="&lt;Path&gt;" class="s5" d="m918.3 77.4h-515.6v-14.3h515.6z"/>
				<g id="&lt;Group&gt;">
					<path id="&lt;Path&gt;" class="s2" d="m414.1 70.3c0 1.9-1.6 3.5-3.6 3.5-1.9 0-3.5-1.6-3.5-3.5 0-2 1.6-3.6 3.5-3.6 2 0 3.6 1.6 3.6 3.6z"/>
					<path id="&lt;Path&gt;" class="s4" d="m428.5 70.3c0 1.9-1.6 3.5-3.5 3.5-2 0-3.6-1.6-3.6-3.5 0-2 1.6-3.6 3.6-3.6 1.9 0 3.5 1.6 3.5 3.6z"/>
					<path id="&lt;Path&gt;" class="s6" d="m442.9 70.3c0 1.9-1.5 3.5-3.5 3.5-2 0-3.5-1.6-3.5-3.5 0-2 1.5-3.6 3.5-3.6 2 0 3.5 1.6 3.5 3.6z"/>
				</g>
			</g>
			<g id="&lt;Group&gt;">
				<path id="&lt;Path&gt;" class="s6" d="m654.6 221.1h-199.3v-101.2h199.3z"/>
				<g id="&lt;Group&gt;">
					<path id="&lt;Compound Path&gt;" class="s7" d="m473.9 144.2c0.3-0.4 0.9-0.5 1.2-0.2 0.8 0.7 2.1 1.4 3.3 1.4 0.9 0 1.7-0.3 2.2-0.7 0.5-0.4 0.7-0.8 0.7-1.2 0-0.2 0-0.4-0.1-0.6q-0.2-0.2-0.5-0.5c-0.5-0.3-1.4-0.6-2.4-0.8-0.8-0.2-1.6-0.4-2.3-0.7-0.6-0.3-1.2-0.7-1.6-1.3q-0.3-0.6-0.4-1.4c0-1.1 0.6-2 1.4-2.5 0.8-0.6 1.9-1 3-1 1.7 0 2.9 0.9 3.8 1.4 0.4 0.3 0.5 0.9 0.2 1.2-0.3 0.5-0.8 0.6-1.2 0.3-0.9-0.6-1.7-1.1-2.8-1.1-0.8 0-1.5 0.2-1.9 0.6-0.5 0.3-0.7 0.7-0.7 1.1 0 0.2 0.1 0.3 0.1 0.5q0.2 0.2 0.5 0.4c0.5 0.3 1.2 0.6 2.2 0.8 0.9 0.1 1.7 0.4 2.4 0.7 0.7 0.3 1.3 0.8 1.7 1.4 0.3 0.4 0.4 0.9 0.4 1.5 0 1.1-0.6 2-1.5 2.7-0.8 0.6-1.9 0.9-3.2 0.9-1.8 0-3.4-0.9-4.4-1.7-0.3-0.3-0.4-0.9-0.1-1.2z"/>
					<path id="&lt;Compound Path&gt;" fill-rule="evenodd" class="s7" d="m492.9 146.2c0 0.5-0.4 1-0.9 1-0.5 0-0.8-0.4-0.9-0.8-0.7 0.5-1.5 0.8-2.3 0.8-1.2 0-2.2-0.5-3-1.3-0.7-0.8-1.1-1.9-1.1-3 0-1.2 0.4-2.3 1.1-3.1 0.8-0.8 1.8-1.3 3-1.3 0.8 0 1.6 0.3 2.3 0.8 0.1-0.4 0.4-0.8 0.9-0.8 0.5 0 0.9 0.4 0.9 1zm-1.9-3.4c0-0.7-0.2-1.4-0.6-1.8-0.4-0.4-1-0.7-1.6-0.7-0.7 0-1.2 0.3-1.6 0.7-0.4 0.4-0.7 1.1-0.7 1.8 0 0.7 0.3 1.3 0.7 1.8 0.4 0.4 0.9 0.6 1.6 0.6 0.6 0 1.2-0.2 1.6-0.6 0.4-0.5 0.6-1.1 0.6-1.8z"/>
					<path id="&lt;Compound Path&gt;" class="s7" d="m497.6 135.1c0.5 0 0.9 0.4 0.9 0.9v10.2c0 0.5-0.4 1-0.9 1-0.6 0-1-0.5-1-1v-10.2c0-0.5 0.4-0.9 1-0.9z"/>
					<path id="&lt;Compound Path&gt;" fill-rule="evenodd" class="s7" d="m501 142.8c0-2.3 1.8-4.3 4.2-4.3 2.2 0 4 1.7 4.1 4q0 0.1 0 0.1c0 0.1 0 0.1 0 0.2-0.1 0.4-0.4 0.7-0.9 0.7h-5.5c0.1 0.4 0.3 0.8 0.6 1.1 0.4 0.4 1.1 0.7 1.7 0.8 0.6 0 1.3-0.1 1.8-0.5 0.3-0.3 1-0.3 1.2 0 0.3 0.2 0.4 0.8 0 1.1q-1.2 1.2-3 1.2c-2.4-0.1-4.2-2-4.2-4.4zm1.8-0.8h4.9c-0.2-0.7-1-1.7-2.5-1.8-1.5 0-2.2 1.1-2.4 1.8z"/>
					<path id="&lt;Compound Path&gt;" class="s7" d="m511.6 144.7c0.4-0.4 1-0.5 1.3-0.2 0.5 0.4 1.3 0.8 1.9 0.8 0.5 0 0.9-0.1 1.2-0.3 0.2-0.2 0.3-0.4 0.3-0.5 0-0.1 0-0.2 0-0.2q-0.1-0.1-0.3-0.2c-0.2-0.2-0.7-0.4-1.3-0.5h-0.1q-0.8-0.1-1.5-0.4c-0.4-0.3-0.8-0.6-1.1-1q-0.3-0.5-0.3-1.1c0-0.8 0.4-1.5 1-1.9q0.9-0.7 2.1-0.7c1.2 0 2 0.6 2.6 1 0.4 0.3 0.5 0.8 0.3 1.3-0.3 0.4-0.9 0.5-1.3 0.2-0.6-0.4-1-0.6-1.6-0.6-0.4 0-0.8 0.1-1 0.3-0.3 0.1-0.3 0.3-0.3 0.4 0 0 0 0.1 0 0.1q0 0.1 0.2 0.2c0.2 0.1 0.7 0.3 1.3 0.4q0.9 0.2 1.6 0.5c0.5 0.2 0.9 0.5 1.2 1 0.2 0.4 0.4 0.8 0.4 1.2 0 0.8-0.5 1.5-1.1 2-0.6 0.4-1.4 0.7-2.3 0.7-1.3-0.1-2.3-0.7-3-1.2-0.4-0.3-0.5-0.9-0.2-1.3z"/>
					<path id="&lt;Compound Path&gt;" fill-rule="evenodd" class="s7" d="m533.4 146.1c0 2.3-1.8 4.1-4.1 4.1-0.7 0-1.3-0.1-1.8-0.4-0.5-0.2-0.7-0.8-0.4-1.2 0.2-0.5 0.7-0.7 1.2-0.5q0.4 0.3 1 0.3c1.1 0 2-0.8 2.2-1.9-0.6 0.5-1.4 0.7-2.2 0.7-1.2 0-2.2-0.5-2.9-1.3-0.8-0.7-1.3-1.8-1.3-3 0-1.2 0.5-2.3 1.3-3.1 0.7-0.8 1.7-1.3 2.9-1.3 0.9 0 1.7 0.3 2.3 0.8 0.1-0.5 0.5-0.8 0.9-0.8 0.5 0 0.9 0.4 0.9 0.9zm-1.8-3.2c0-0.7-0.3-1.3-0.7-1.7q-0.6-0.8-1.6-0.8c-0.6 0-1.2 0.3-1.6 0.8-0.4 0.4-0.7 1-0.7 1.7 0 0.8 0.3 1.4 0.7 1.8 0.4 0.5 1 0.7 1.6 0.7q1 0 1.6-0.7c0.4-0.4 0.7-1 0.7-1.8z"/>
					<path id="&lt;Compound Path&gt;" class="s7" d="m542.4 139.4c0 0.5-0.4 1-0.9 1q-0.6 0-1 0.3-0.5 0.3-0.8 0.8c-0.5 0.6-0.7 1.2-0.7 1.5v3.2c0 0.5-0.5 1-1 1-0.5 0-0.9-0.5-0.9-1v-6.8c0-0.5 0.4-0.8 0.9-0.8 0.5 0 1 0.3 1 0.8v0.2c0.1-0.2 0.2-0.3 0.3-0.4 0.6-0.4 1.3-0.7 2.2-0.6 0.5 0 0.9 0.3 0.9 0.8z"/>
					<path id="&lt;Compound Path&gt;" fill-rule="evenodd" class="s7" d="m545 145.9c-0.7-0.8-1.2-1.8-1.2-3 0-1.2 0.5-2.2 1.2-3.1 0.8-0.8 1.8-1.3 3-1.3 1.1 0 2.2 0.5 2.9 1.3 0.7 0.9 1.2 1.9 1.2 3.1 0 1.2-0.5 2.2-1.2 3-0.7 0.8-1.8 1.3-2.9 1.3-1.2 0-2.2-0.5-3-1.3zm0.7-3q0 1.1 0.6 1.8 0.7 0.6 1.7 0.6c0.6 0 1.1-0.2 1.6-0.6q0.6-0.7 0.6-1.8c0-0.7-0.2-1.4-0.6-1.8-0.5-0.4-1-0.7-1.6-0.7-0.7 0-1.2 0.3-1.7 0.7-0.4 0.4-0.6 1.1-0.6 1.8z"/>
					<path id="&lt;Compound Path&gt;" class="s7" d="m565.4 139.9l-2.8 6.7q-0.1 0.1-0.1 0.1 0 0.1 0 0.1-0.1 0-0.1 0.1 0 0-0.1 0 0 0-0.1 0.1 0 0 0 0 0 0.1-0.1 0.1 0 0 0 0-0.1 0-0.2 0 0 0 0 0-0.1 0.1-0.2 0.1-0.1 0-0.1-0.1-0.1 0-0.1 0 0 0-0.1 0 0 0 0 0 0 0 0 0-0.1 0-0.2-0.1 0 0 0 0-0.1-0.1-0.1-0.1c0 0 0 0 0 0q-0.1-0.1-0.1-0.1 0 0 0-0.1-0.1 0-0.1-0.1l-1.3-3-1.2 3q0 0.1-0.1 0.1v0.1q0 0-0.1 0.1 0 0 0 0 0 0-0.1 0.1-0.1 0.1-0.1 0.1h-0.1q0 0 0 0-0.1 0-0.1 0 0 0 0 0-0.1 0.1-0.2 0.1-0.1 0-0.2-0.1 0 0 0 0-0.1 0-0.1 0-0.1 0-0.1 0-0.1 0-0.1-0.1 0 0 0 0-0.1-0.1-0.1-0.1 0 0-0.1 0 0-0.1-0.1-0.1 0 0 0-0.1 0 0-0.1-0.1l-2.8-6.7c-0.2-0.5 0-1 0.5-1.2 0.4-0.2 1 0 1.2 0.5l2 4.7 1.2-2.9c0.2-0.3 0.5-0.6 0.8-0.6 0.4 0 0.7 0.3 0.9 0.6l1.2 2.9 2-4.7c0.2-0.5 0.8-0.7 1.2-0.5 0.5 0.2 0.7 0.7 0.5 1.2z"/>
					<path id="&lt;Compound Path&gt;" class="s7" d="m573 139.5c0 0.5-0.4 0.9-0.9 0.9h-0.5v4.8c0.6 0 1 0.5 1 1 0 0.5-0.4 1-1 1-1 0-1.9-0.9-1.9-2v-4.8h-0.5c-0.5 0-0.9-0.4-0.9-0.9 0-0.6 0.4-1 0.9-1h0.5v-2.5c0-0.5 0.5-0.9 1-0.9 0.5 0 0.9 0.4 0.9 0.9v2.5h0.5c0.5 0 0.9 0.4 0.9 1z"/>
					<path id="&lt;Compound Path&gt;" class="s7" d="m577.6 146.2c0 0.5-0.4 1-0.9 1-0.5 0-0.8-0.4-1-0.8q0-0.1 0-0.2v-10.2c0-0.5 0.4-0.9 1-0.9 0.5 0 0.9 0.4 0.9 0.9v3c0.6-0.3 1.2-0.5 1.9-0.5 2.1 0 3.7 1.7 3.7 3.8v3.9c0 0.5-0.4 1-0.9 1-0.6 0-1-0.5-1-1v-3.9c0-1-0.8-1.8-1.8-1.9-1 0.1-1.9 0.9-1.9 1.9z"/>
				</g>
				<g id="&lt;Group&gt;">
					<path id="&lt;Compound Path&gt;" fill-rule="evenodd" class="s7" d="m561 188.1c0 1.3-1.1 2.3-2.4 2.3h-0.4v3.2c0 1.3-1 2.3-2.3 2.3-1.3 0-2.3-1-2.3-2.3v-3.2h-13.3c-0.5 0-1-0.1-1.4-0.5-1.1-0.8-1.2-2.2-0.4-3.2l15.6-19.4c0 0 0-0.1 0.1-0.1q0-0.1 0.1-0.2c0.1 0 0.1-0.1 0.2-0.1 0 0 0.1-0.1 0.2-0.1 0-0.1 0.1-0.1 0.2-0.1q0.1-0.1 0.2-0.1c0-0.1 0.1-0.1 0.2-0.1 0.1 0 0.2 0 0.2-0.1 0.1 0 0.2 0 0.3 0q0 0 0.1 0c0 0 0 0 0.1 0 0 0 0.2 0 0.2 0 0.1 0.1 0.1 0.1 0.2 0.1 0.1 0 0.2 0 0.3 0.1 0 0 0.1 0 0.1 0q0.2 0.1 0.3 0.2c0 0 0.1 0.1 0.2 0.1 0 0 0 0 0 0 0.1 0 0.1 0.1 0.1 0.1q0.2 0.1 0.2 0.2c0 0 0.1 0.1 0.1 0.2 0.1 0 0.1 0.1 0.2 0.2 0 0 0 0.1 0.1 0.1 0 0.1 0 0.2 0.1 0.3 0 0 0 0.1 0 0.2 0.1 0 0.1 0.1 0.1 0.2 0 0.1 0 0.1 0 0.2q0 0.1 0 0.2v17h0.4c1.3 0 2.4 1 2.4 2.3zm-7.4-12.7l-8.4 10.4h8.4z"/>
					<path id="&lt;Compound Path&gt;" class="s7" d="m581.9 178.1c2.1 2 3.1 4.7 3.1 7.4 0 2.6-1 5.3-3.1 7.4-2 2-4.7 3-7.3 3-0.1 0-0.1 0-0.1 0-2.6 0-5.4-1-7.3-3-1-0.9-1-2.5 0-3.4 0.8-0.9 2.4-0.9 3.3 0 1.1 1.1 2.6 1.7 4.1 1.7 1.4 0 2.9-0.6 4-1.7 1.1-1.1 1.7-2.6 1.7-4 0-1.5-0.6-3-1.7-4.1-1.1-1.1-2.6-1.6-4-1.6-1.5 0-3 0.5-4.1 1.6-0.9 1-2.4 1-3.3 0-0.2-0.1-0.3-0.3-0.5-0.5q0-0.1 0-0.1-0.1-0.2-0.1-0.2c0-0.2-0.1-0.3-0.1-0.3 0-0.1 0-0.1 0-0.1q-0.1-0.4 0-0.7l1.3-11c0.1-0.7 0.5-1.3 1-1.6 0.1-0.1 0.1-0.1 0.2-0.1 0-0.1 0.1-0.1 0.1-0.1 0.3-0.2 0.7-0.3 1.1-0.3h12.4c1.4 0 2.4 1.1 2.4 2.4 0 1.3-1 2.4-2.4 2.4h-10.3l-0.5 4.2c0.9-0.3 1.8-0.4 2.8-0.4 2.6 0 5.3 1 7.3 3.1z"/>
					<path id="&lt;Compound Path&gt;" fill-rule="evenodd" class="s7" d="m591.5 173.7v-0.1c0-4.1 2.8-7.5 7-7.5 4.1 0 6.9 3.4 6.9 7.5 0 4.1-2.8 7.6-7 7.6-4.2 0-6.9-3.4-6.9-7.5zm10.1 0v-0.1c0-2.3-1.3-4.3-3.2-4.3-2 0-3.2 2-3.2 4.3 0 2.4 1.4 4.3 3.3 4.3 1.9 0 3.1-1.9 3.1-4.2zm-5.3 19.7l19.3-26.4c0.3-0.5 0.9-0.8 1.5-0.8 0.9 0 1.7 0.7 1.7 1.7 0 0.4-0.2 0.8-0.4 1.1l-19.4 26.4c-0.3 0.5-0.8 0.7-1.4 0.7-1 0-1.7-0.7-1.7-1.6 0-0.4 0.2-0.8 0.4-1.1zm13-4.6v-0.1c0-4.1 2.8-7.5 7-7.5 4.1 0 6.9 3.4 6.9 7.4v0.1c0 4.1-2.8 7.6-7 7.6-4.1 0-6.9-3.4-6.9-7.5zm10.1 0v-0.1c0-2.3-1.3-4.3-3.2-4.3-2 0-3.2 2-3.2 4.2v0.1c0 2.4 1.4 4.3 3.3 4.3 2 0 3.1-1.9 3.1-4.2z"/>
				</g>
				<g id="&lt;Group&gt;">
					<g id="&lt;Group&gt;">
						<path id="&lt;Path&gt;" class="s5" d="m523.9 182c0 10.7-6.7 19.8-16.1 23.4-2.8 1.1-5.9 1.7-9 1.7-13.9 0-25.1-11.3-25.1-25.1 0-13.9 11.2-25.1 25.1-25.1 9.3 0 17.4 5.1 21.7 12.6 2.1 3.7 3.4 8 3.4 12.5z"/>
						<path id="&lt;Path&gt;" class="s4" d="m523.9 182c0 10.7-6.7 19.8-16.1 23.4l-9-23.4v-25.1c9.3 0 17.4 5.1 21.7 12.6 2.1 3.7 3.4 8 3.4 12.5z"/>
					</g>
					<g id="&lt;Group&gt;">
						<g id="&lt;Group&gt;">
							<path id="&lt;Path&gt;" class="s6" d="m516.1 182c0 9.6-7.7 17.3-17.3 17.3-9.6 0-17.4-7.7-17.4-17.3 0-9.6 7.8-17.4 17.4-17.4 9.6 0 17.3 7.8 17.3 17.4z"/>
						</g>
					</g>
				</g>
				<g id="&lt;Group&gt;">
					<path id="&lt;Path&gt;" class="s7" d="m603.5 141h-6.9v6.2h6.9z"/>
					<path id="&lt;Path&gt;" class="s7" d="m593.5 141h13.1l-6.6-6.9z"/>
				</g>
				<g id="&lt;Group&gt;">
					<path id="&lt;Path&gt;" class="s0" d="m865.7 221.4h-199.3v-101.5h199.3z"/>
					<g id="&lt;Group&gt;">
						<g id="&lt;Group&gt;">
							<path id="&lt;Compound Path&gt;" fill-rule="evenodd" class="s5" d="m690 130.7c0.5 0 0.9 0.4 0.9 0.9v0.5c1.3 0.2 2.3 0.6 3.3 1.2 0.4 0.2 0.7 0.5 0.7 1 0 0.7-0.6 1.2-1.2 1.2q-0.3 0-0.7-0.2-1.1-0.7-2.2-0.9v4.1c3.3 0.8 4.7 2.1 4.7 4.5 0 2.3-1.9 3.9-4.6 4.2v1.2c0 0.6-0.4 1-0.9 1-0.5 0-1-0.4-1-1v-1.3c-1.6-0.2-3.1-0.7-4.4-1.7-0.4-0.2-0.6-0.6-0.6-1 0-0.7 0.5-1.2 1.2-1.2 0.3 0 0.5 0.1 0.7 0.2 1 0.8 2 1.3 3.2 1.5v-4.3c-3.1-0.8-4.6-2-4.6-4.4 0-2.3 1.8-3.9 4.5-4.1v-0.5c0-0.5 0.5-0.9 1-0.9zm-0.9 7.4v-3.8c-1.4 0.1-2.1 0.8-2.1 1.8 0 0.9 0.5 1.4 2.1 2zm1.7 3v3.9c1.4-0.2 2.1-0.9 2.1-1.9 0-0.9-0.4-1.5-2.1-2z"/>
							<path id="&lt;Compound Path&gt;" class="s5" d="m713.9 146c0 0.6-0.5 1.2-1.1 1.2h-7.7q0 0 0 0c-0.3 0-0.7-0.2-0.9-0.4-0.5-0.5-0.4-1.3 0.1-1.7l6.3-5.8c0.7-0.5 0.9-1.3 0.9-2.1 0-0.6-0.2-1.3-0.7-1.8-0.5-0.7-1.3-0.9-2-0.9-0.7 0-1.4 0.2-1.9 0.7l-0.7 0.6c-0.5 0.4-1.2 0.4-1.7-0.1-0.4-0.5-0.4-1.2 0.1-1.7l0.7-0.6c1-0.9 2.2-1.3 3.5-1.3 1.4 0 2.8 0.6 3.8 1.7 0.9 0.9 1.3 2.2 1.3 3.4 0 1.4-0.5 2.9-1.7 3.9l-4 3.7h4.6c0.6 0 1.1 0.5 1.1 1.2z"/>
							<path id="&lt;Compound Path&gt;" class="s5" d="m718.9 144.1c0.9 0 1.6 0.7 1.6 1.6 0 0.9-0.7 1.6-1.6 1.6-0.9 0-1.6-0.7-1.6-1.6 0-0.9 0.7-1.6 1.6-1.6z"/>
							<path id="&lt;Compound Path&gt;" class="s5" d="m725.3 133.3v12.7c0 0.6-0.6 1.2-1.2 1.2-0.7 0-1.2-0.6-1.2-1.2v-10.6l-0.9 0.5q-0.3 0.1-0.6 0.1c-0.4 0-0.8-0.2-1-0.6-0.4-0.5-0.2-1.3 0.4-1.6l2.6-1.6c0.1 0 0.1 0 0.1 0 0.1 0 0.1 0 0.1-0.1q0.1 0 0.2 0 0 0 0.1 0 0 0 0.1 0 0 0 0.1 0 0.1 0 0.1 0 0.1 0 0.1 0c0.1 0 0.1 0 0.2 0q0 0 0 0.1c0.1 0 0.1 0 0.2 0q0 0.1 0.1 0.1 0 0 0 0.1 0.1 0 0.1 0 0.1 0.1 0.1 0.1 0 0.1 0.1 0.1v0.1q0 0 0 0 0.1 0.1 0.1 0.1 0 0.1 0 0.1 0 0.1 0 0.1 0 0.1 0.1 0.2 0 0 0 0.1z"/>
							<path id="&lt;Compound Path&gt;" fill-rule="evenodd" class="s5" d="m728 139.6c0-2 0.5-3.8 1.5-5.1 0.9-1.4 2.3-2.4 4-2.4 1.6 0 3.1 1 4 2.4 0.9 1.3 1.4 3.1 1.4 5.1 0 2-0.5 3.8-1.4 5.2-0.9 1.3-2.4 2.4-4 2.4-1.7 0-3.1-1.1-4-2.4-1-1.4-1.5-3.2-1.5-5.2zm8.5 0c0-1.5-0.4-2.9-1-3.8-0.6-0.9-1.3-1.4-2-1.3-0.7-0.1-1.4 0.4-2.1 1.3-0.6 0.9-1 2.3-1 3.8 0 1.5 0.4 2.9 1 3.8 0.7 1 1.4 1.4 2.1 1.4 0.7 0 1.4-0.4 2-1.4 0.6-0.9 1-2.3 1-3.8z"/>
							<path id="&lt;Compound Path&gt;" class="s5" d="m752.8 146c0 0.6-0.5 1.2-1.1 1.2h-7.7q0 0 0 0c-0.3 0-0.7-0.2-0.9-0.4-0.5-0.5-0.4-1.3 0.1-1.7l6.3-5.8c0.7-0.5 0.9-1.3 0.9-2.1 0-0.6-0.2-1.3-0.7-1.8-0.5-0.7-1.3-0.9-2-0.9-0.7 0-1.4 0.2-1.9 0.7l-0.7 0.6c-0.5 0.4-1.2 0.4-1.7-0.1-0.4-0.5-0.4-1.2 0.1-1.7l0.7-0.6c1-0.9 2.2-1.3 3.5-1.3 1.4 0 2.8 0.6 3.8 1.7 0.9 0.9 1.3 2.2 1.3 3.4 0 1.4-0.5 2.9-1.7 3.9l-4 3.7h4.6c0.6 0 1.1 0.5 1.1 1.2z"/>
							<path id="&lt;Compound Path&gt;" class="s5" d="m756.1 149.1c1-0.3 1.5-1 1.4-1.9-0.6-0.2-1.2-0.7-1.2-1.5v-0.2c0-0.8 0.6-1.4 1.5-1.4 0.9 0 1.5 0.7 1.5 1.9v0.2c0 1.5-0.4 2.5-1 3.1-0.6 0.6-1.5 1-2.1 1-0.4 0-0.6-0.3-0.6-0.6 0-0.3 0.2-0.5 0.5-0.6z"/>
							<path id="&lt;Compound Path&gt;" fill-rule="evenodd" class="s5" d="m770.8 142c0 2.8-2.3 5.2-5.1 5.2-2.8 0-5.1-2.4-5.1-5.2 0-1.8 0.9-3.3 2.3-4.3-0.5-0.5-0.8-1.3-0.8-2.1 0-1.9 1.6-3.5 3.6-3.5 2 0 3.6 1.6 3.6 3.5 0 0.8-0.3 1.6-0.8 2.1 1.4 1 2.3 2.5 2.3 4.3zm-2.3 0c0-1.5-1.2-2.8-2.8-2.8-1.5 0-2.8 1.3-2.8 2.8 0 1.6 1.3 2.8 2.8 2.8 1.6 0 2.8-1.2 2.8-2.8zm-4-6.4c0 0.7 0.5 1.2 1.2 1.2 0.7 0 1.2-0.5 1.2-1.2 0-0.6-0.5-1.2-1.2-1.2-0.7 0-1.2 0.6-1.2 1.2z"/>
							<path id="&lt;Compound Path&gt;" fill-rule="evenodd" class="s5" d="m784.8 141.9c0 2.9-2.3 5.3-5.2 5.3-2.7 0-5-2.1-5.2-4.7q0 0 0-0.1-0.1-0.6-0.1-1.2c0-1.4 0.2-3 0.8-4.4 0.5-1.4 1.4-2.8 2.8-3.7 0.9-0.6 2-1 3.2-1 0.7 0 1.2 0.5 1.2 1.1 0.1 0.7-0.5 1.2-1.1 1.3-0.8 0-1.5 0.2-2.1 0.6q-0.8 0.5-1.3 1.5-0.2 0.3-0.3 0.6c0.6-0.3 1.3-0.5 2.1-0.5 2.9 0 5.2 2.4 5.2 5.2zm-2.4 0c0-1.5-1.2-2.8-2.8-2.8-1.6 0-2.8 1.3-2.8 2.8 0 1.6 1.2 2.9 2.8 2.9 1.6 0 2.8-1.3 2.8-2.9z"/>
						</g>
						<g id="&lt;Group&gt;">
							<path id="&lt;Compound Path&gt;" fill-rule="evenodd" class="s5" d="m690 182c0.5 0 0.9 0.4 0.9 0.9v0.5c1.3 0.1 2.3 0.5 3.3 1.2 0.4 0.2 0.7 0.5 0.7 1 0 0.7-0.6 1.2-1.2 1.2q-0.3 0-0.7-0.2-1.1-0.7-2.2-1v4.2c3.3 0.8 4.7 2.1 4.7 4.4 0 2.4-1.9 4-4.6 4.2v1.3c0 0.5-0.4 0.9-0.9 0.9-0.5 0-1-0.4-1-0.9v-1.3c-1.6-0.2-3.1-0.8-4.4-1.7-0.4-0.2-0.6-0.6-0.6-1 0-0.7 0.5-1.2 1.2-1.2 0.3 0 0.5 0.1 0.7 0.2 1 0.7 2 1.2 3.2 1.5v-4.3c-3.1-0.8-4.6-2-4.6-4.4 0-2.3 1.8-3.9 4.5-4.1v-0.5c0-0.5 0.5-0.9 1-0.9zm-0.9 7.3v-3.8c-1.4 0.1-2.1 0.9-2.1 1.8 0 0.9 0.5 1.5 2.1 2zm1.7 3v3.9c1.4-0.1 2.1-0.8 2.1-1.8 0-1-0.4-1.6-2.1-2.1z"/>
							<path id="&lt;Compound Path&gt;" class="s5" d="m708.7 184.5v12.7c0 0.7-0.6 1.2-1.2 1.2-0.7 0-1.2-0.5-1.2-1.2v-10.6l-0.9 0.5q-0.3 0.2-0.6 0.2c-0.4 0-0.8-0.2-1-0.6-0.4-0.5-0.2-1.3 0.4-1.6l2.6-1.6c0.1 0 0.1 0 0.1 0 0.1 0 0.1-0.1 0.1-0.1q0.1 0 0.2 0 0 0 0.1 0 0-0.1 0.1-0.1 0 0 0.1 0 0.1 0 0.1 0 0.1 0.1 0.1 0.1 0.1 0 0.2 0 0 0 0 0c0.1 0.1 0.1 0.1 0.2 0.1q0 0 0.1 0.1 0 0 0 0 0.1 0.1 0.1 0.1 0.1 0 0.1 0.1c0 0 0.1 0.1 0.1 0.1q0 0.1 0 0.1 0.1 0 0.1 0.1 0 0.1 0 0.1 0 0.1 0 0.1 0 0.1 0.1 0.2 0 0 0 0z"/>
							<path id="&lt;Compound Path&gt;" class="s5" d="m713.4 195.4c0.9 0 1.6 0.7 1.6 1.6 0 0.9-0.7 1.6-1.6 1.6-0.9 0-1.6-0.7-1.6-1.6 0-0.9 0.7-1.6 1.6-1.6z"/>
							<path id="&lt;Compound Path&gt;" fill-rule="evenodd" class="s5" d="m727.9 194.4c0 0.7-0.5 1.2-1.2 1.2h-0.2v1.6c0 0.7-0.5 1.2-1.2 1.2-0.7 0-1.2-0.5-1.2-1.2v-1.6h-6.8c-0.2 0-0.5-0.1-0.7-0.3-0.5-0.4-0.6-1.1-0.2-1.6l8-9.9q0 0 0-0.1 0 0 0.1-0.1 0.1 0 0.1 0 0-0.1 0.1-0.1c0 0 0 0 0.1 0q0-0.1 0.1-0.1 0 0 0.1 0 0.1 0 0.1-0.1 0.1 0 0.2 0 0 0 0 0 0 0 0 0c0.1 0 0.1 0 0.2 0q0 0.1 0.1 0.1c0 0 0.1 0 0.1 0q0 0 0.1 0 0.1 0.1 0.1 0.1 0.1 0 0.1 0.1 0 0 0 0c0 0 0.1 0 0.1 0q0 0.1 0.1 0.1 0 0.1 0 0.1 0.1 0 0.1 0.1 0 0.1 0.1 0.1c0 0.1 0 0.1 0 0.1 0 0.1 0 0.1 0 0.1 0.1 0.1 0.1 0.1 0.1 0.2q0 0 0 0.1 0 0 0 0v8.7h0.2c0.7 0 1.2 0.6 1.2 1.2zm-3.8-6.5l-4.3 5.3h4.3z"/>
							<path id="&lt;Compound Path&gt;" class="s5" d="m738.6 189.3c1.1 1 1.6 2.4 1.6 3.8 0 1.3-0.5 2.7-1.6 3.7-1 1.1-2.4 1.6-3.7 1.6q-0.1 0-0.1 0c-1.3 0-2.7-0.5-3.7-1.6-0.5-0.4-0.5-1.2 0-1.7 0.4-0.5 1.2-0.5 1.7 0 0.6 0.6 1.3 0.9 2.1 0.9 0.7 0 1.5-0.3 2-0.9 0.6-0.5 0.9-1.3 0.9-2 0-0.8-0.3-1.5-0.9-2.1-0.5-0.6-1.3-0.8-2-0.8-0.8 0-1.5 0.2-2.1 0.8-0.5 0.5-1.3 0.5-1.7 0q-0.1-0.1-0.3-0.3 0 0 0 0 0-0.1 0-0.1 0-0.1 0-0.2-0.1 0-0.1 0 0-0.2 0-0.4l0.7-5.6c0-0.3 0.2-0.7 0.5-0.8q0.1-0.1 0.1-0.1 0 0 0.1 0 0.2-0.2 0.5-0.2h6.4c0.7 0 1.2 0.6 1.2 1.3 0 0.6-0.5 1.2-1.2 1.2h-5.3l-0.3 2.1q0.7-0.2 1.5-0.2c1.3 0 2.7 0.5 3.7 1.6z"/>
							<path id="&lt;Compound Path&gt;" fill-rule="evenodd" class="s5" d="m743.7 190.9c0-2 0.5-3.8 1.5-5.2 0.9-1.3 2.3-2.4 4-2.4 1.7 0 3.1 1.1 4 2.4 0.9 1.4 1.4 3.2 1.4 5.2 0 1.9-0.5 3.7-1.4 5.1-0.9 1.4-2.3 2.4-4 2.4-1.7 0-3.1-1-4-2.4-1-1.4-1.5-3.2-1.5-5.1zm8.5 0c0-1.6-0.4-2.9-1-3.9-0.6-0.9-1.3-1.3-2-1.3-0.7 0-1.4 0.4-2.1 1.3-0.6 1-1 2.3-1 3.9 0 1.5 0.4 2.9 1 3.8 0.7 0.9 1.4 1.3 2.1 1.3 0.7 0 1.4-0.4 2-1.3 0.6-0.9 1-2.3 1-3.8z"/>
							<path id="&lt;Compound Path&gt;" class="s5" d="m758.9 200.4c0.9-0.4 1.5-1 1.4-2-0.6-0.2-1.2-0.7-1.2-1.4v-0.2c0-0.8 0.6-1.5 1.5-1.5 0.9 0 1.5 0.8 1.5 1.9v0.3c0 1.4-0.4 2.4-1.1 3.1-0.5 0.6-1.4 0.9-2 0.9-0.4 0-0.6-0.2-0.6-0.6 0-0.3 0.2-0.5 0.5-0.5z"/>
							<path id="&lt;Compound Path&gt;" class="s5" d="m773.3 197.2c0 0.7-0.5 1.2-1.2 1.2h-7.6q0 0 0 0h-0.1c-0.3 0-0.6-0.1-0.9-0.4-0.4-0.5-0.4-1.2 0.1-1.7l6.4-5.7c0.6-0.6 0.9-1.3 0.9-2.1 0-0.7-0.2-1.3-0.7-1.9-0.6-0.6-1.3-0.9-2.1-0.9-0.7 0-1.3 0.3-1.9 0.7l-0.6 0.6c-0.5 0.5-1.3 0.5-1.7 0-0.4-0.5-0.4-1.3 0.1-1.7l0.6-0.6c1-0.9 2.3-1.4 3.5-1.4 1.4 0 2.8 0.6 3.9 1.7 0.9 1 1.3 2.3 1.3 3.5 0 1.4-0.6 2.8-1.7 3.8l-4.1 3.7h4.6c0.7 0 1.2 0.6 1.2 1.2z"/>
							<path id="&lt;Compound Path&gt;" class="s5" d="m784.2 189.3c1.1 1 1.6 2.4 1.6 3.8 0 1.3-0.6 2.7-1.6 3.7-1 1.1-2.4 1.6-3.8 1.6q0 0 0 0c-1.3 0-2.7-0.5-3.7-1.6-0.5-0.4-0.5-1.2 0-1.7 0.4-0.5 1.2-0.5 1.7 0 0.5 0.6 1.3 0.9 2 0.9 0.8 0 1.5-0.3 2.1-0.9 0.5-0.5 0.9-1.3 0.9-2 0-0.8-0.3-1.5-0.9-2.1-0.6-0.6-1.3-0.8-2.1-0.8-0.7 0-1.5 0.2-2 0.8-0.5 0.5-1.3 0.5-1.7 0q-0.2-0.1-0.3-0.3 0 0 0 0 0-0.1 0-0.1-0.1-0.1-0.1-0.2 0 0 0 0 0-0.2 0-0.4l0.7-5.6c0-0.3 0.2-0.7 0.5-0.8q0.1-0.1 0.1-0.1 0 0 0 0 0.3-0.2 0.6-0.2h6.4c0.6 0 1.2 0.6 1.2 1.3 0 0.6-0.6 1.2-1.2 1.2h-5.3l-0.3 2.1q0.7-0.2 1.4-0.2c1.4 0 2.8 0.5 3.8 1.6z"/>
						</g>
						<g id="&lt;Group&gt;">
							<path id="&lt;Compound Path&gt;" class="s8" d="m726.9 156.5c0-2.1 1.8-3.9 4-3.9 0.9 0 1.8 0.3 2.5 0.9 0.2 0.2 0.3 0.6 0.1 0.8-0.2 0.3-0.6 0.3-0.9 0.1q-0.7-0.5-1.7-0.5c-0.8 0-1.4 0.3-1.9 0.7-0.5 0.5-0.8 1.2-0.8 1.9 0 0.7 0.3 1.4 0.8 1.9 0.5 0.5 1.1 0.8 1.9 0.8q1 0 1.7-0.6c0.3-0.2 0.7-0.2 0.9 0.1 0.2 0.3 0.1 0.6-0.1 0.8-0.7 0.6-1.6 0.9-2.5 0.9-2.2 0-4-1.7-4-3.9z"/>
							<path id="&lt;Compound Path&gt;" class="s8" d="m737.6 160.4c-1.2 0-2.3-1-2.3-2.3v-2.5c0-0.3 0.3-0.6 0.6-0.6 0.3 0 0.6 0.3 0.6 0.6v2.5c0 0.7 0.5 1.1 1.1 1.1 0.6 0 1.1-0.4 1.1-1.1v-2.5c0-0.3 0.3-0.6 0.6-0.6 0.3 0 0.6 0.3 0.6 0.6v2.5c0 1.3-1.1 2.3-2.3 2.3z"/>
							<path id="&lt;Compound Path&gt;" class="s8" d="m745.4 155.6c0 0.3-0.3 0.5-0.6 0.5q-0.4 0-0.6 0.2-0.3 0.2-0.5 0.6c-0.3 0.3-0.4 0.7-0.5 0.9v2c0 0.3-0.2 0.6-0.6 0.6-0.3 0-0.5-0.3-0.5-0.6v-4.2c0-0.3 0.2-0.6 0.5-0.6 0.4 0 0.6 0.3 0.6 0.6q0.1-0.1 0.3-0.2c0.3-0.2 0.8-0.4 1.3-0.4 0.3 0 0.6 0.3 0.6 0.6z"/>
							<path id="&lt;Compound Path&gt;" class="s8" d="m750.1 155.6c0 0.3-0.2 0.5-0.6 0.5q-0.3 0-0.6 0.2-0.3 0.2-0.5 0.6c-0.3 0.3-0.4 0.7-0.4 0.9v2c0 0.3-0.3 0.6-0.6 0.6-0.3 0-0.6-0.3-0.6-0.6v-4.2c0-0.3 0.3-0.6 0.6-0.6 0.3 0 0.6 0.3 0.6 0.6q0.1-0.1 0.2-0.2c0.3-0.2 0.8-0.4 1.3-0.4 0.4 0 0.6 0.3 0.6 0.6z"/>
							<path id="&lt;Compound Path&gt;" fill-rule="evenodd" class="s8" d="m750.6 157.7c0-1.5 1.2-2.7 2.6-2.7 1.4 0 2.5 1 2.6 2.5q0 0 0 0.1c0 0 0 0 0 0 0 0.3-0.2 0.5-0.5 0.5h-3.5c0.1 0.2 0.2 0.5 0.4 0.7 0.2 0.3 0.7 0.4 1 0.5 0.4 0 0.9-0.1 1.2-0.3 0.2-0.2 0.6-0.2 0.8 0 0.1 0.1 0.2 0.4 0 0.7q-0.8 0.7-2 0.7c-1.4 0-2.6-1.2-2.6-2.7zm1.2-0.5h3c-0.1-0.5-0.6-1.1-1.6-1.2-0.9 0.1-1.3 0.7-1.4 1.2z"/>
							<path id="&lt;Compound Path&gt;" class="s8" d="m762 157.2v2.6c0 0.3-0.2 0.6-0.5 0.6-0.3 0-0.6-0.3-0.6-0.6v-2.6c0-0.6-0.5-1-1.1-1-0.6 0-1.1 0.4-1.1 1v2.6q0 0.1 0 0.1c-0.1 0.3-0.3 0.5-0.6 0.5-0.3 0-0.6-0.3-0.6-0.6v-2.6-1.6c0-0.3 0.3-0.6 0.6-0.6 0.2 0 0.4 0.1 0.5 0.3 0.4-0.2 0.8-0.3 1.2-0.3 1.2 0 2.2 1 2.2 2.2z"/>
							<path id="&lt;Compound Path&gt;" class="s8" d="m766.6 155.6c0 0.3-0.3 0.6-0.6 0.6h-0.3v3c0.3 0 0.6 0.3 0.6 0.6 0 0.3-0.3 0.6-0.6 0.6-0.7 0-1.2-0.6-1.2-1.2v-3h-0.3c-0.3 0-0.6-0.3-0.6-0.6 0-0.3 0.3-0.6 0.6-0.6h0.3v-1.6c0-0.3 0.3-0.6 0.6-0.6 0.3 0 0.6 0.3 0.6 0.6v1.6h0.3c0.3 0 0.6 0.3 0.6 0.6z"/>
							<path id="&lt;Compound Path&gt;" fill-rule="evenodd" class="s8" d="m774.3 157.5h-1.3v2.3c0 0.3-0.3 0.6-0.6 0.6-0.3 0-0.6-0.3-0.6-0.6v-6.4c0-0.3 0.3-0.6 0.6-0.6h1.9c1.3 0 2.4 1.1 2.4 2.4 0 1.2-1.1 2.3-2.4 2.3zm-1.3-1.2h1.3c0.7 0 1.1-0.5 1.2-1.1-0.1-0.7-0.5-1.2-1.2-1.2h-1.3z"/>
							<path id="&lt;Compound Path&gt;" fill-rule="evenodd" class="s8" d="m777.5 157.7c0-1.5 1.1-2.7 2.6-2.7 1.4 0 2.5 1 2.6 2.5q0 0 0 0.1c0 0 0 0 0 0 0 0.3-0.2 0.5-0.6 0.5h-3.4c0.1 0.2 0.2 0.5 0.4 0.7 0.2 0.3 0.6 0.4 1 0.5 0.4 0 0.9-0.1 1.1-0.3 0.3-0.2 0.7-0.2 0.9 0 0.1 0.1 0.2 0.4 0 0.7q-0.8 0.7-2 0.7c-1.5 0-2.6-1.2-2.6-2.7zm1.2-0.5h3c-0.1-0.5-0.6-1.1-1.6-1.2-0.9 0.1-1.3 0.7-1.4 1.2z"/>
							<path id="&lt;Compound Path&gt;" class="s8" d="m787.5 155.6c0 0.3-0.2 0.5-0.5 0.5q-0.4 0-0.7 0.2-0.3 0.2-0.5 0.6c-0.3 0.3-0.4 0.7-0.4 0.9v2c0 0.3-0.3 0.6-0.6 0.6-0.3 0-0.6-0.3-0.6-0.6v-4.2c0-0.3 0.3-0.6 0.6-0.6 0.3 0 0.6 0.3 0.6 0.6q0.1-0.1 0.2-0.2c0.3-0.2 0.8-0.4 1.4-0.4 0.3 0 0.5 0.3 0.5 0.6z"/>
							<path id="&lt;Compound Path&gt;" class="s8" d="m790.1 153.6c0 0.4-0.2 0.6-0.6 0.6-0.3 0-0.6-0.2-0.6-0.6v-0.2c0-0.3 0.3-0.6 0.6-0.6 0.4 0 0.6 0.3 0.6 0.6zm0 2v4.2c0 0.3-0.2 0.6-0.6 0.6-0.3 0-0.6-0.3-0.6-0.6v-4.2c0-0.4 0.3-0.6 0.6-0.6 0.4 0 0.6 0.2 0.6 0.6z"/>
							<path id="&lt;Compound Path&gt;" fill-rule="evenodd" class="s8" d="m792.5 159.6c-0.5-0.5-0.8-1.1-0.8-1.9 0-0.7 0.3-1.4 0.8-1.9 0.4-0.5 1.1-0.8 1.8-0.8 0.7 0 1.4 0.3 1.8 0.8q0.8 0.8 0.8 1.9c0 0.8-0.3 1.4-0.8 1.9-0.4 0.5-1.1 0.8-1.8 0.8-0.7 0-1.4-0.3-1.8-0.8zm0.4-1.9q0 0.7 0.4 1.1 0.4 0.4 1 0.4 0.6 0 1-0.4 0.4-0.4 0.4-1.1 0-0.7-0.4-1.1c-0.3-0.3-0.6-0.4-1-0.4-0.4 0-0.8 0.1-1 0.4q-0.4 0.4-0.4 1.1z"/>
							<path id="&lt;Compound Path&gt;" fill-rule="evenodd" class="s8" d="m803.6 159.8c0 0.3-0.3 0.6-0.6 0.6-0.3 0-0.5-0.2-0.6-0.5-0.4 0.3-0.9 0.5-1.4 0.5-1.5 0-2.7-1.2-2.7-2.7 0-1.5 1.2-2.7 2.7-2.7 0.5 0 1 0.2 1.4 0.4v-2c0-0.3 0.3-0.6 0.6-0.6 0.3 0 0.6 0.3 0.6 0.6 0 0 0 4.3 0 4.3zm-2.6-3.6c-0.4 0-0.8 0.1-1.1 0.4-0.2 0.3-0.4 0.7-0.4 1.1 0 0.4 0.2 0.8 0.4 1.1 0.3 0.2 0.7 0.4 1.1 0.4q0.6 0 1-0.4c0.2-0.3 0.4-0.7 0.4-1.1 0-0.4-0.2-0.8-0.4-1.1q-0.4-0.4-1-0.4z"/>
						</g>
						<g id="&lt;Group&gt;">
							<path id="&lt;Compound Path&gt;" fill-rule="evenodd" class="s8" d="m729.8 207.9h-1.3v2.3c0 0.3-0.3 0.6-0.6 0.6-0.4 0-0.6-0.3-0.6-0.6v-6.4c0-0.3 0.2-0.5 0.6-0.5h1.9c1.3 0 2.3 1 2.3 2.3 0 1.2-1 2.3-2.3 2.3zm-1.3-1.2h1.3c0.6 0 1.1-0.5 1.1-1.1 0-0.7-0.5-1.2-1.1-1.2h-1.3z"/>
							<path id="&lt;Compound Path&gt;" class="s8" d="m736.8 206c0 0.3-0.3 0.6-0.6 0.6q-0.4-0.1-0.7 0.2-0.3 0.2-0.5 0.5c-0.2 0.3-0.3 0.7-0.4 0.9v2c0 0.3-0.3 0.6-0.6 0.6-0.3 0-0.6-0.3-0.6-0.6v-4.2c0-0.3 0.3-0.6 0.6-0.6 0.3 0 0.6 0.3 0.6 0.6v0.1q0.1-0.2 0.2-0.3c0.4-0.2 0.8-0.4 1.4-0.4 0.3 0 0.6 0.3 0.6 0.6z"/>
							<path id="&lt;Compound Path&gt;" fill-rule="evenodd" class="s8" d="m737.2 208.1c0.1-1.5 1.2-2.7 2.7-2.7 1.4 0 2.5 1.1 2.6 2.5q0 0 0 0.1c0 0 0 0 0 0.1-0.1 0.2-0.3 0.4-0.6 0.4h-3.4c0 0.2 0.1 0.5 0.3 0.7 0.3 0.3 0.7 0.5 1.1 0.5 0.4 0 0.8-0.1 1.1-0.3 0.2-0.2 0.7-0.2 0.8 0 0.1 0.1 0.3 0.5 0 0.7q-0.8 0.7-1.9 0.7c-1.5 0-2.6-1.2-2.7-2.7zm1.2-0.5h3.1c-0.1-0.5-0.7-1.1-1.6-1.2-0.9 0.1-1.4 0.7-1.5 1.2z"/>
							<path id="&lt;Compound Path&gt;" class="s8" d="m748.2 206.3l-1.8 4.2q0 0 0 0 0 0 0 0-0.1 0.1-0.1 0.1 0 0 0 0-0.1 0.1-0.1 0.1 0 0 0 0 0 0-0.1 0.1 0 0 0 0 0 0 0 0 0 0-0.1 0 0 0 0 0-0.1 0-0.1 0 0 0-0.1 0 0 0 0 0-0.1 0-0.1 0 0 0 0 0 0 0 0 0-0.1-0.1-0.1-0.1 0 0 0 0-0.1 0-0.1-0.1 0 0 0 0-0.1 0-0.1-0.1 0 0 0 0 0 0 0 0l-1.8-4.2c-0.1-0.3 0-0.6 0.3-0.8 0.3-0.1 0.6 0.1 0.7 0.3l1.3 3 1.2-3c0.2-0.2 0.5-0.4 0.8-0.3 0.3 0.2 0.4 0.5 0.3 0.8z"/>
							<path id="&lt;Compound Path&gt;" class="s8" d="m751.4 204.1c0 0.3-0.3 0.6-0.6 0.6-0.3 0-0.6-0.3-0.6-0.6v-0.3c0-0.3 0.3-0.5 0.6-0.5 0.3 0 0.6 0.2 0.6 0.5zm0 2v4.2c0 0.3-0.3 0.6-0.6 0.6-0.3 0-0.6-0.3-0.6-0.6v-4.2c0-0.4 0.3-0.6 0.6-0.6 0.3 0 0.6 0.2 0.6 0.6z"/>
							<path id="&lt;Compound Path&gt;" fill-rule="evenodd" class="s8" d="m753.7 210c-0.5-0.5-0.7-1.1-0.7-1.9 0-0.7 0.2-1.4 0.7-1.9 0.5-0.5 1.1-0.8 1.9-0.8 0.7 0 1.3 0.3 1.8 0.8q0.7 0.8 0.7 1.9c0 0.8-0.2 1.4-0.7 1.9-0.5 0.5-1.1 0.8-1.8 0.8-0.8 0-1.4-0.3-1.9-0.8zm0.4-1.9q0 0.7 0.4 1.2 0.4 0.4 1.1 0.4 0.5 0 1-0.4 0.4-0.5 0.4-1.2 0-0.7-0.4-1.1c-0.3-0.2-0.7-0.4-1-0.4-0.4 0-0.8 0.2-1.1 0.4q-0.4 0.4-0.4 1.1z"/>
							<path id="&lt;Compound Path&gt;" class="s8" d="m761.9 210.8c-1.2 0-2.2-1-2.2-2.2v-2.6c0-0.3 0.2-0.6 0.5-0.6 0.4 0 0.6 0.3 0.6 0.6v2.6c0 0.6 0.5 1.1 1.1 1.1 0.6 0 1.1-0.5 1.1-1.1v-2.6c0-0.3 0.3-0.6 0.6-0.6 0.3 0 0.6 0.3 0.6 0.6v2.6c0 1.2-1 2.2-2.3 2.2z"/>
							<path id="&lt;Compound Path&gt;" class="s8" d="m766.1 209.3c0.2-0.3 0.6-0.3 0.8-0.1 0.3 0.2 0.8 0.5 1.2 0.4 0.3 0 0.6-0.1 0.8-0.2q0.2-0.2 0.1-0.3 0-0.1 0-0.1 0 0-0.1-0.1c-0.2-0.1-0.5-0.2-0.9-0.3q-0.5-0.1-0.9-0.3-0.5-0.2-0.8-0.6-0.2-0.3-0.2-0.7c0-0.5 0.3-0.9 0.7-1.2q0.5-0.4 1.3-0.4c0.7 0 1.3 0.4 1.6 0.6 0.3 0.2 0.3 0.5 0.2 0.8-0.2 0.3-0.5 0.3-0.8 0.1-0.4-0.2-0.7-0.4-1-0.4-0.3 0-0.5 0.1-0.7 0.2-0.1 0.1-0.1 0.2-0.1 0.3q0 0 0 0.1 0 0 0.1 0.1c0.2 0.1 0.4 0.2 0.8 0.2v0.1q0.6 0 1 0.3c0.3 0.1 0.6 0.3 0.8 0.6q0.2 0.3 0.2 0.7c0 0.5-0.3 1-0.7 1.3-0.4 0.2-0.9 0.4-1.4 0.4-0.8 0-1.5-0.4-1.9-0.7-0.2-0.2-0.3-0.6-0.1-0.8z"/>
							<path id="&lt;Compound Path&gt;" fill-rule="evenodd" class="s8" d="m777.6 207.9h-1.4v2.3c0 0.3-0.2 0.6-0.6 0.6-0.3 0-0.6-0.3-0.6-0.6v-6.4c0-0.3 0.3-0.5 0.6-0.5h2c1.2 0 2.3 1 2.3 2.3 0 1.2-1.1 2.3-2.3 2.3zm-1.4-1.2h1.4c0.6 0 1.1-0.5 1.1-1.1 0-0.7-0.5-1.2-1.1-1.2h-1.4z"/>
							<path id="&lt;Compound Path&gt;" fill-rule="evenodd" class="s8" d="m780.7 208.1c0-1.5 1.2-2.7 2.6-2.7 1.4 0 2.6 1.1 2.6 2.5q0 0 0 0.1c0 0 0 0 0 0.1 0 0.2-0.2 0.4-0.5 0.4h-3.5c0.1 0.2 0.2 0.5 0.4 0.7 0.2 0.3 0.7 0.5 1 0.5 0.4 0 0.9-0.1 1.2-0.3 0.2-0.2 0.6-0.2 0.8 0 0.1 0.1 0.2 0.5 0 0.7q-0.8 0.7-2 0.7c-1.4 0-2.6-1.2-2.6-2.7zm1.2-0.5h3c-0.1-0.5-0.6-1.1-1.6-1.2-0.9 0.1-1.3 0.7-1.4 1.2z"/>
							<path id="&lt;Compound Path&gt;" class="s8" d="m790.7 206c0 0.3-0.2 0.6-0.5 0.6q-0.4-0.1-0.7 0.2-0.3 0.2-0.5 0.5c-0.2 0.3-0.4 0.7-0.4 0.9v2c0 0.3-0.3 0.6-0.6 0.6-0.3 0-0.6-0.3-0.6-0.6v-4.2c0-0.3 0.3-0.6 0.6-0.6 0.3 0 0.6 0.3 0.6 0.6v0.1q0.1-0.2 0.2-0.3c0.4-0.2 0.8-0.4 1.4-0.4 0.3 0 0.5 0.3 0.5 0.6z"/>
							<path id="&lt;Compound Path&gt;" class="s8" d="m793.3 204.1c0 0.3-0.2 0.6-0.6 0.6-0.3 0-0.5-0.3-0.5-0.6v-0.3c0-0.3 0.2-0.5 0.5-0.5 0.4 0 0.6 0.2 0.6 0.5zm0 2v4.2c0 0.3-0.2 0.6-0.6 0.6-0.3 0-0.5-0.3-0.5-0.6v-4.2c0-0.4 0.2-0.6 0.5-0.6 0.4 0 0.6 0.2 0.6 0.6z"/>
							<path id="&lt;Compound Path&gt;" fill-rule="evenodd" class="s8" d="m795.7 210c-0.5-0.5-0.8-1.1-0.8-1.9 0-0.7 0.3-1.4 0.8-1.9 0.5-0.5 1.1-0.8 1.8-0.8 0.7 0 1.4 0.3 1.8 0.8q0.8 0.8 0.8 1.9c0 0.8-0.3 1.4-0.8 1.9-0.4 0.5-1.1 0.8-1.8 0.8-0.7 0-1.3-0.3-1.8-0.8zm0.4-1.9q0 0.7 0.4 1.2 0.4 0.4 1 0.4 0.6 0 1-0.4 0.4-0.5 0.4-1.2 0-0.7-0.4-1.1c-0.2-0.2-0.6-0.4-1-0.4-0.4 0-0.7 0.2-1 0.4q-0.4 0.4-0.4 1.1z"/>
							<path id="&lt;Compound Path&gt;" fill-rule="evenodd" class="s8" d="m806.8 210.2c0 0.3-0.3 0.6-0.6 0.6-0.3 0-0.5-0.2-0.6-0.5-0.4 0.3-0.9 0.5-1.4 0.5-1.5 0-2.6-1.2-2.6-2.7 0-1.5 1.1-2.7 2.6-2.7 0.5 0 1 0.2 1.4 0.5v-2.1c0-0.3 0.3-0.5 0.6-0.5 0.3 0 0.6 0.2 0.6 0.5 0 0 0 4.3 0 4.3zm-2.6-3.6c-0.4 0-0.8 0.1-1 0.4-0.3 0.3-0.5 0.7-0.5 1.1 0 0.4 0.2 0.8 0.5 1.1 0.2 0.3 0.6 0.4 1 0.4q0.6 0 1-0.4c0.3-0.3 0.4-0.7 0.4-1.1 0-0.4-0.1-0.8-0.4-1.1q-0.4-0.4-1-0.4z"/>
						</g>
					</g>
					<path id="&lt;Path&gt;" class="s2" d="m679 170.6l21.8-0.2 21.7-0.1 43.6-0.2 43.5 0.2 21.8 0.1 21.7 0.2-21.7 0.3-21.8 0.1-43.5 0.1-43.6-0.1-21.7-0.1z"/>
					<g id="&lt;Group&gt;">
						<g id="&lt;Group&gt;">
							<path id="&lt;Path&gt;" class="s1" d="m845.7 125.1c-20.7 0-20.8 29.5 0 29.5 20.8 0 20.8-29.5 0-29.5z"/>
							<path id="&lt;Path&gt;" class="s4" d="m858.3 142.6c-1.1 5.1-5.3 9.5-12.6 9.5-17.2 0-17.2-24.5 0-24.5q0.2 0 0.4 0c-16.2 0.3-16.2 23.5 0.3 23.5 6.7 0 10.7-3.9 11.9-8.5z"/>
							<g id="&lt;Group&gt;">
								<path id="&lt;Compound Path&gt;" fill-rule="evenodd" class="s4" d="m845.8 130.8c0.3 0 0.6 0.3 0.6 0.5v0.9c1.6 0.1 2.8 0.6 4 1.4 0.2 0.1 0.3 0.3 0.3 0.5 0 0.3-0.3 0.5-0.6 0.5-0.1 0-0.2 0-0.4-0.2-1.1-0.8-2.2-1.2-3.4-1.3v5.8c3.4 0.6 4.9 1.8 4.9 3.8 0 2.2-2 3.7-4.8 3.8v1.6c0 0.3-0.3 0.5-0.6 0.5-0.2 0-0.5-0.2-0.5-0.5v-1.6c-1.9-0.2-3.5-0.8-5-2-0.2-0.1-0.3-0.3-0.3-0.5 0-0.2 0.3-0.5 0.6-0.5 0.2 0 0.3 0.1 0.4 0.2 1.2 1 2.6 1.7 4.4 1.8v-5.8c-3.4-0.7-4.8-1.8-4.8-3.9 0-2 2-3.6 4.7-3.7v-0.8c0-0.2 0.3-0.5 0.5-0.5zm-0.4 7.8v-5.6c-2.2 0.1-3.7 1.3-3.7 2.8 0 1.4 0.8 2.2 3.7 2.8zm0.9 1.3v5.7c2.3-0.1 3.7-1.3 3.7-2.8 0-1.4-0.7-2.3-3.7-2.9z"/>
							</g>
						</g>
						<g id="&lt;Group&gt;">
							<path id="&lt;Path&gt;" class="s4" d="m835.3 182.2c-18.7 3.4-13.7 31.1 5 27.7 18.7-3.4 13.7-31-5-27.7z"/>
							<path id="&lt;Path&gt;" class="s1" d="m837.1 181.9c-17.8 3.2-12.9 30.9 4.9 27.7 17.8-3.2 12.9-30.9-4.9-27.7z"/>
							<path id="&lt;Path&gt;" class="s4" d="m850.8 196.4c-0.1 4.9-2.9 9.7-9.2 10.8-14.8 2.7-18.9-20.3-4.1-22.9q0.1 0 0.3-0.1c-13.9 2.8-9.9 24.5 4.2 22 5.8-1 8.5-5.3 8.8-9.8z"/>
							<g id="&lt;Group&gt;">
								<path id="&lt;Compound Path&gt;" fill-rule="evenodd" class="s4" d="m840.6 187.3c0.3 0 0.5 0.2 0.4 0.5l-0.1 0.8c1.4 0.3 2.4 0.8 3.3 1.7 0.2 0.2 0.3 0.3 0.3 0.5-0.1 0.3-0.3 0.5-0.6 0.4-0.1 0-0.2 0-0.3-0.1-0.9-0.9-1.8-1.4-2.8-1.6l-0.6 5.4c2.8 1 4 2.2 3.7 4.1-0.2 2.1-2.1 3.3-4.5 3.1l-0.2 1.5c-0.1 0.3-0.3 0.5-0.5 0.5-0.3-0.1-0.5-0.3-0.5-0.6l0.2-1.5c-1.7-0.3-3-1.1-4.1-2.4q-0.2-0.2-0.2-0.4c0-0.3 0.3-0.5 0.5-0.5 0.2 0.1 0.3 0.2 0.4 0.2 1 1.2 2.1 1.9 3.6 2.2l0.6-5.5c-2.8-1-3.9-2.2-3.7-4.1 0.3-2 2.1-3.3 4.5-3.1l0.1-0.7c0-0.3 0.3-0.5 0.5-0.4zm-1.3 7.3l0.7-5.3c-1.9-0.2-3.3 0.8-3.5 2.2-0.1 1.3 0.4 2.2 2.8 3.1zm0.7 1.3l-0.6 5.4c2 0.1 3.4-0.8 3.5-2.3 0.2-1.4-0.4-2.2-2.9-3.1z"/>
							</g>
						</g>
						<g id="&lt;Group&gt;">
							<path id="&lt;Path&gt;" class="s4" d="m822.7 144.7c15.1 2.7 11.1 25.1-4 22.4-15.1-2.8-11.1-25.1 4-22.4z"/>
							<path id="&lt;Path&gt;" class="s1" d="m821.3 144.4c14.4 2.6 10.4 25-4 22.4-14.4-2.6-10.4-24.9 4-22.4z"/>
							<path id="&lt;Path&gt;" class="s4" d="m810.2 156.1c0.1 4 2.4 7.9 7.4 8.8 12 2.1 15.3-16.4 3.4-18.6q-0.1 0-0.3 0c11.2 2.2 8 19.8-3.4 17.8-4.6-0.9-6.9-4.3-7.1-8z"/>
							<g id="&lt;Group&gt;">
								<path id="&lt;Compound Path&gt;" fill-rule="evenodd" class="s4" d="m820.1 148c0.2 0 0.4 0.2 0.4 0.4l-0.2 0.6c1.1 0.3 1.9 0.9 2.6 1.6 0.1 0.2 0.2 0.3 0.2 0.4-0.1 0.3-0.3 0.4-0.5 0.4-0.1-0.1-0.2-0.1-0.3-0.2-0.6-0.8-1.3-1.2-2.1-1.5l-0.8 4.4c2.2 0.9 3.1 2 2.8 3.5-0.3 1.7-1.9 2.6-3.9 2.3l-0.2 1.2c0 0.2-0.3 0.3-0.5 0.3-0.2 0-0.3-0.2-0.3-0.4l0.3-1.3c-1.4-0.3-2.4-1-3.2-2.1q-0.2-0.2-0.2-0.4c0.1-0.2 0.3-0.3 0.5-0.3 0.1 0 0.2 0.1 0.3 0.2 0.7 0.9 1.5 1.6 2.7 1.9l0.9-4.4c-2.3-0.9-3.1-2-2.8-3.5 0.3-1.6 1.9-2.5 3.8-2.2l0.1-0.6c0-0.2 0.2-0.4 0.4-0.3zm-1.4 5.8l0.8-4.2c-1.5-0.3-2.7 0.4-2.9 1.6-0.2 1 0.2 1.8 2.1 2.6zm0.5 1.1l-0.8 4.3c1.6 0.2 2.8-0.5 3-1.7 0.2-1-0.3-1.8-2.2-2.6z"/>
							</g>
						</g>
					</g>
				</g>
			</g>
			<g id="&lt;Group&gt;">
				<path id="&lt;Path&gt;" class="s6" d="m858.1 289.5h-68.8v-25.3h68.8z"/>
				<path id="&lt;Path&gt;" class="s6" d="m830.7 289.5h-14.1l7.1 7.2z"/>
				<g id="&lt;Group&gt;">
					<path id="&lt;Compound Path&gt;" fill-rule="evenodd" class="s5" d="m799.1 271.3c0.3 0 0.6 0.2 0.6 0.5v0.3c0.7 0.1 1.4 0.3 1.9 0.7 0.3 0.1 0.4 0.3 0.4 0.6 0 0.4-0.3 0.7-0.7 0.7q-0.2 0-0.4-0.1-0.6-0.4-1.3-0.5v2.4c2 0.5 2.8 1.3 2.8 2.6 0 1.4-1.1 2.3-2.7 2.5v0.8c0 0.3-0.3 0.5-0.6 0.5-0.3 0-0.5-0.2-0.5-0.5v-0.8q-1.5-0.2-2.6-1-0.4-0.2-0.4-0.6c0-0.4 0.3-0.7 0.7-0.7q0.3 0 0.4 0.1c0.6 0.4 1.2 0.7 1.9 0.9v-2.5c-1.8-0.5-2.7-1.2-2.7-2.7 0-1.3 1.1-2.3 2.7-2.4v-0.3c0-0.3 0.2-0.5 0.5-0.5zm-0.5 4.3v-2.2c-0.8 0.1-1.2 0.5-1.2 1 0 0.6 0.2 0.9 1.2 1.2zm1 1.8v2.3c0.8-0.1 1.3-0.5 1.3-1.1 0-0.6-0.3-0.9-1.3-1.2z"/>
					<path id="&lt;Compound Path&gt;" class="s5" d="m809.5 280.3c0 0.4-0.3 0.7-0.7 0.7h-4.5q0 0-0.1 0c-0.2 0-0.4-0.1-0.5-0.2-0.3-0.3-0.2-0.8 0-1l3.8-3.4c0.4-0.4 0.6-0.8 0.6-1.3q0-0.6-0.5-1.1c-0.3-0.3-0.7-0.5-1.2-0.5-0.4 0-0.8 0.1-1.1 0.4l-0.4 0.4c-0.3 0.2-0.7 0.2-1-0.1-0.2-0.3-0.2-0.7 0.1-1l0.4-0.3c0.5-0.6 1.3-0.8 2-0.8 0.8 0 1.7 0.3 2.3 1 0.5 0.6 0.8 1.3 0.8 2 0 0.9-0.4 1.7-1 2.3l-2.4 2.2h2.7c0.4 0 0.7 0.3 0.7 0.7z"/>
					<path id="&lt;Compound Path&gt;" class="s5" d="m812.4 279.2c0.5 0 0.9 0.4 0.9 0.9 0 0.6-0.4 1-0.9 1-0.5 0-1-0.4-1-1 0-0.5 0.5-0.9 1-0.9z"/>
					<path id="&lt;Compound Path&gt;" class="s5" d="m816.2 272.8v7.5c0 0.4-0.4 0.7-0.8 0.7-0.3 0-0.7-0.3-0.7-0.7v-6.3l-0.5 0.3q-0.1 0.1-0.3 0.1c-0.3 0-0.5-0.1-0.6-0.3-0.2-0.3-0.1-0.8 0.2-1l1.6-0.9q0 0 0 0 0.1 0 0.1-0.1 0 0 0.1 0 0 0 0 0 0.1 0 0.1 0 0 0 0 0h0.1q0 0 0 0 0.1 0 0.1 0 0 0 0.1 0 0 0 0 0 0.1 0.1 0.1 0.1 0 0 0.1 0 0 0 0 0.1 0 0 0.1 0 0 0 0 0.1 0 0 0 0h0.1q0 0.1 0 0.1 0 0 0 0 0 0.1 0 0.1 0 0 0 0.1 0 0 0.1 0.1 0 0 0 0z"/>
					<path id="&lt;Compound Path&gt;" fill-rule="evenodd" class="s5" d="m817.8 276.5c0-1.1 0.3-2.2 0.8-3 0.6-0.8 1.4-1.4 2.4-1.4 1 0 1.8 0.6 2.4 1.4 0.5 0.8 0.8 1.9 0.8 3 0 1.2-0.3 2.3-0.8 3.1-0.6 0.8-1.4 1.4-2.4 1.4-1 0-1.8-0.6-2.4-1.4-0.5-0.8-0.8-1.9-0.8-3.1zm5 0c0-0.9-0.2-1.7-0.6-2.2-0.4-0.6-0.8-0.8-1.2-0.8-0.4 0-0.8 0.2-1.2 0.8-0.4 0.5-0.6 1.3-0.6 2.2 0 0.9 0.2 1.8 0.6 2.3 0.4 0.5 0.8 0.8 1.2 0.8 0.4 0 0.8-0.3 1.2-0.8 0.4-0.5 0.6-1.4 0.6-2.3z"/>
					<path id="&lt;Compound Path&gt;" class="s5" d="m832.4 280.3c0 0.4-0.3 0.7-0.7 0.7h-4.5q0 0 0 0c-0.2 0-0.4-0.1-0.5-0.2-0.3-0.3-0.3-0.8 0-1l3.8-3.4c0.4-0.4 0.5-0.8 0.5-1.3q0-0.6-0.4-1.1c-0.3-0.3-0.8-0.5-1.2-0.5-0.4 0-0.8 0.1-1.1 0.4l-0.4 0.4c-0.3 0.2-0.7 0.2-1-0.1-0.3-0.3-0.2-0.7 0-1l0.4-0.3c0.6-0.6 1.4-0.8 2.1-0.8 0.8 0 1.7 0.3 2.3 1 0.5 0.6 0.7 1.3 0.7 2 0 0.9-0.3 1.7-1 2.3l-2.4 2.2h2.7c0.4 0 0.7 0.3 0.7 0.7z"/>
					<path id="&lt;Compound Path&gt;" class="s5" d="m834.4 282.1c0.5-0.1 0.8-0.5 0.8-1.1-0.4-0.1-0.7-0.4-0.7-0.9v-0.1c0-0.5 0.3-0.8 0.9-0.8 0.5 0 0.9 0.4 0.9 1.1v0.1c0 0.9-0.3 1.5-0.6 1.9-0.4 0.3-0.9 0.5-1.2 0.5-0.3 0-0.4-0.1-0.4-0.3 0-0.2 0.1-0.3 0.3-0.4z"/>
					<path id="&lt;Compound Path&gt;" fill-rule="evenodd" class="s5" d="m843.1 278c0 1.6-1.4 3-3 3-1.7 0-3.1-1.4-3.1-3 0-1.1 0.5-2 1.4-2.6-0.3-0.3-0.5-0.8-0.5-1.2 0-1.2 1-2.1 2.2-2.1 1.1 0 2 0.9 2 2.1 0 0.4-0.1 0.9-0.4 1.2 0.8 0.6 1.4 1.5 1.4 2.6zm-1.4 0c0-0.9-0.7-1.7-1.6-1.7-1 0-1.7 0.8-1.7 1.7 0 0.9 0.7 1.6 1.7 1.6 0.9 0 1.6-0.7 1.6-1.6zm-2.4-3.8c0 0.4 0.3 0.7 0.8 0.7 0.3 0 0.7-0.3 0.7-0.7 0-0.4-0.4-0.7-0.7-0.7-0.5 0-0.8 0.3-0.8 0.7z"/>
					<path id="&lt;Compound Path&gt;" fill-rule="evenodd" class="s5" d="m851.3 277.9c0 1.7-1.4 3.1-3.1 3.1-1.6 0-2.9-1.2-3-2.8q0 0 0 0-0.1-0.4-0.1-0.7c0-0.9 0.2-1.8 0.5-2.6 0.3-0.9 0.8-1.7 1.6-2.2q0.8-0.5 1.9-0.6c0.4 0 0.7 0.3 0.8 0.7 0 0.4-0.3 0.7-0.7 0.7-0.5 0-0.9 0.2-1.2 0.4q-0.5 0.3-0.8 0.9-0.1 0.1-0.2 0.3 0.6-0.3 1.2-0.3c1.7 0 3.1 1.4 3.1 3.1zm-1.4 0c0-0.9-0.7-1.7-1.7-1.7-0.9 0-1.6 0.8-1.6 1.7 0 0.9 0.7 1.7 1.6 1.7 1 0 1.7-0.8 1.7-1.7z"/>
				</g>
			</g>
			<g id="&lt;Group&gt;">
				<g id="&lt;Group&gt;">
					<path id="&lt;Path&gt;" class="s6" d="m480.7 402.2c14.6 1.1 29.6 1.4 44.4 1.3q22.4-0.1 44.7-1.6 22.2-1.5 44.4-4.6c14.7-2 29.4-4.5 44-7.7 29.1-6.4 57.7-15.4 84.7-28 13.4-6.5 26.5-13.6 38.8-22.1 12.3-8.5 23.8-18.1 34.3-28.8l0.2 0.2c-10.3 10.9-21.6 20.8-33.7 29.7-12.2 8.8-25.2 16.3-38.6 23.1-26.9 13.4-55.5 23.1-84.7 30.2-14.6 3.6-29.4 6.5-44.2 8.8q-22.3 3.6-44.7 5.7-22.5 2-45 2.7c-15.1 0.4-30.1 0.4-45.3-0.4z"/>
					<path id="&lt;Compound Path&gt;" fill-rule="evenodd" class="s6" d="m505.3 412.4c-9.1 0-17.4-0.2-25.3-0.6h-1.1l0.8-10.8 1 0.1c13.1 1 27.2 1.4 44.4 1.3 14.7 0 29.7-0.6 44.6-1.6 14.9-1 29.8-2.5 44.3-4.5 16.1-2.2 30.5-4.8 43.9-7.8 31.1-6.8 59.5-16.2 84.5-27.9 14.9-7.1 27.5-14.3 38.7-22 12.5-8.7 24-18.3 34.1-28.6l0.7-0.8 1.8 1.7-0.7 0.8c-10 10.6-21.4 20.7-33.9 29.8-11.2 8-23.8 15.6-38.7 23.2-25.1 12.4-53.7 22.6-85 30.2-13.5 3.4-28 6.3-44.2 8.9-14.7 2.4-29.7 4.3-44.8 5.7-15 1.3-30.2 2.2-45.1 2.6-7.1 0.2-13.8 0.3-20 0.3zm-24.1-2.7c12.9 0.6 27 0.7 44 0.3 14.9-0.4 30-1.3 45-2.7 15-1.4 30-3.3 44.6-5.6 16.2-2.6 30.6-5.5 44.1-8.9 31.1-7.5 59.6-17.7 84.5-30.1q4-2 7.7-4-3.8 1.9-7.8 3.9c-25.1 11.7-53.7 21.2-84.9 28-13.5 3-27.9 5.6-44.1 7.8-14.5 2-29.5 3.5-44.5 4.6-14.9 1-29.9 1.5-44.7 1.6-16.8 0-30.7-0.3-43.5-1.3z"/>
				</g>
				<g id="&lt;Group&gt;">
					<path id="&lt;Path&gt;" class="s6" d="m820.7 318.3l3.5-16.7-16.2 5.3z"/>
				</g>
			</g>
		</g>
	</g>
	<g id="Character">
		<g id="&lt;Group&gt;">
			<g id="&lt;Group&gt;">
				<g id="&lt;Group&gt;">
					<g id="&lt;Group&gt;">
						<path id="&lt;Path&gt;" class="s2" d="m426.9 642.2l5.9 35 39.4 213.2h6.4l-28.7-213.2-4.3-35z"/>
					</g>
				</g>
				<path id="&lt;Path&gt;" class="s8" d="m445.6 642.2h-18.7l5.9 35h17.1z"/>
			</g>
			<g id="&lt;Group&gt;">
				<g id="&lt;Group&gt;">
					<g id="&lt;Group&gt;">
						<path id="&lt;Path&gt;" class="s2" d="m302.9 890.4h6.4l39.5-213.2 5.8-35h-18.7l-4.3 35z"/>
					</g>
				</g>
				<path id="&lt;Path&gt;" class="s8" d="m335.9 642.2l-4.3 35h17.2l5.8-35z"/>
			</g>
			<g id="&lt;Group&gt;">
				<g id="&lt;Group&gt;">
					<g id="&lt;Group&gt;">
						<path id="&lt;Path&gt;" class="s2" d="m184.5 890.4h6.3l39.5-213.2 5.8-35h-18.7l-4.2 35z"/>
					</g>
				</g>
				<path id="&lt;Path&gt;" class="s8" d="m213.2 677.2h17.1l5.8-35h-18.7z"/>
			</g>
			<path id="&lt;Path&gt;" class="s2" d="m194.6 658.6h289.3v-30.5h-108.3l-56.4-316h-153.6z"/>
			<path id="&lt;Path&gt;" class="s1" d="m195.8 628.1h288.1v30.5h-289.2z"/>
			<path id="&lt;Path&gt;" class="s1" d="m194.6 658.6h15.7l-29.7-346.5h-15z"/>
		</g>
		<g id="&lt;Group&gt;">
			<g id="&lt;Group&gt;">
				<g id="&lt;Group&gt;">
					<g id="&lt;Group&gt;">
						<path id="&lt;Path&gt;" class="s9" d="m472.7 931.1c-5.6 0.5-158.8-36-163.7-41-0.5-0.5 2.5-14.4 6.9-33.4l0.1-0.4c2.7-12 47.4-109.4 47.4-109.4l99.3 27.7-45.1 90.3c0 0 18.7 13.5 34.7 26.3q0 0 0 0.1c9.9 7.8 18.4 14.9 20.3 17.2 4.6 6 5.7 22.1 0.1 22.6z"/>
						<path id="&lt;Path&gt;" class="s0" d="m472.7 931c-5.6 0.6-158.8-35.9-163.7-40.9-0.6-0.5 2.5-14.4 6.9-33.4l0.1-0.4c1-4.5 7.9-20.9 16-39.6 16.4 4.4 75 20.2 96.3 26.8l-10.7 21.4c0 0 18.7 13.5 34.7 26.3 0 0 0 0 0 0.1 9.9 7.8 18.5 14.9 20.3 17.2 4.6 6 5.7 22.1 0.1 22.5z"/>
						<g id="&lt;Group&gt;">
							<path id="&lt;Path&gt;" class="s6" d="m473.2 931.8c-5.8 0.5-159.1-36.4-164.1-41.5-1.8-2 1.5-26.1 9.9-51.8l98.9 23.9c0 0 50.4 40 55.3 46.2 4.8 6.1 5.8 22.7 0 23.2z"/>
							<g id="&lt;Group&gt;">
								<g id="&lt;Group&gt;">
									<path id="&lt;Path&gt;" class="s3" d="m472.5 925.1c-25.6-6.8-129.2-31.9-155-36.7-0.2 0-0.3 0.1-0.1 0.2 25.2 7.3 129.1 31.5 155 36.9 0.5 0.2 0.6-0.2 0.1-0.4z"/>
									<path id="&lt;Path&gt;" class="s3" d="m464.6 900.7c-6-1.7-12.7-0.3-16.8 2.5-4.1 2.8-8 7-9.1 12.4 0 0.1 0.3 0.2 0.3 0.1 3.9-9.7 15.2-16.4 25.6-14.7 0.2 0 0.2-0.3 0-0.3z"/>
									<path id="&lt;Path&gt;" class="s3" d="m425.3 867c-10.2-2.7-23-1.9-31.5 5-0.3 0.2 0.1 0.7 0.4 0.6 10.5-2.5 20.2-4 31-4.3 0.7-0.1 0.8-1.2 0.1-1.3z"/>
									<path id="&lt;Path&gt;" class="s3" d="m432.5 872c-10.2-2.7-23.1-1.9-31.5 5-0.3 0.2 0.1 0.7 0.4 0.6 10.5-2.5 20.2-4 31-4.3 0.7-0.1 0.8-1.2 0.1-1.3z"/>
									<path id="&lt;Path&gt;" class="s3" d="m439.7 877c-10.3-2.7-23.1-1.9-31.5 5-0.3 0.2 0.1 0.7 0.4 0.6 10.5-2.5 20.2-4 31-4.3 0.7 0 0.8-1.1 0.1-1.3z"/>
									<path id="&lt;Path&gt;" class="s3" d="m446.9 882c-10.3-2.6-23.1-1.9-31.5 5-0.3 0.3 0.1 0.7 0.4 0.6 10.5-2.5 20.2-4 31-4.3 0.7 0 0.8-1.1 0.1-1.3z"/>
									<path id="&lt;Path&gt;" class="s3" d="m329.9 865.6c-11.5-2.8-15.8 15.2-4.3 17.9 11.6 2.8 15.9-15.2 4.3-17.9z"/>
								</g>
								<path id="&lt;Compound Path&gt;" fill-rule="evenodd" class="s3" d="m438.6 857.1c-7.3 5.8-16.8 8.3-25.4 11.6-0.9 0.3-1.6-0.5-1.6-1.3-0.2 0-0.3-0.2-0.3-0.4 2.7-8.7 8.8-18 15.7-24 4.3-3.8 11.9-6.4 16-0.8 4 5.2-0.2 11.5-4.4 14.9zm2.5-8.5c1.7-11.4-10.5-5.2-13.5-2.4-2 1.9-3.8 4-5.5 6.1-3.5 4.3-6.4 9.1-9.4 13.8 4.1-1.9 8.3-3.4 12.4-5.1 5-2.1 15.1-6 16-12.4z"/>
								<path id="&lt;Compound Path&gt;" fill-rule="evenodd" class="s3" d="m376.4 851.7c2.4-6.6 10.4-6.2 15.6-3.8 8.3 3.8 16.7 11 21.8 18.6 0.1 0.2 0 0.4-0.1 0.4 0.2 0.8-0.3 1.8-1.3 1.7-9.1-0.7-18.9-0.4-27.6-3.9-5-2.1-10.7-6.9-8.4-13zm22.4 13c4.5 0.4 9 0.7 13.5 1.3-4.3-3.6-8.4-7.4-13-10.6-2.2-1.5-4.5-3-6.9-4.2-3.8-1.9-17.2-4.4-12.4 6.1 2.7 5.8 13.5 6.8 18.8 7.4z"/>
							</g>
						</g>
					</g>
					<g id="&lt;Group&gt;">
						<path id="&lt;Path&gt;" class="s3" d="m426.3 853.1l-105.4-28.2c0 0 92.7-192.2 85.2-202.8-3.8-5.2-102.6-9.7-133.2-37.3-39.9-35.9-10.9-88-10.9-88h110.5c0 0-2 23 2.2 26.6 2.8 2.4 134 17.4 147.2 62.3 16.1 54.9-95.6 267.4-95.6 267.4z"/>
						<g id="&lt;Group&gt;">
							<path id="&lt;Path&gt;" class="s5" d="m428.2 837.7c-2.7-1.4-5.8-2.3-8.7-3.3-3-1.1-6.1-2.1-9.2-3.1q-9-3-18.2-5.7c-12.4-3.5-24.7-7-37.1-10.3-6.5-1.6-20.4-5.3-21.3-5.2-0.4 0.1-0.5 0.8-0.1 0.9 12 4.4 24.2 8.1 36.4 11.9 12.1 3.8 24.3 7.5 36.7 10.7 3.4 0.9 6.8 1.7 10.3 2.5 3.5 0.9 7.2 2.1 10.9 2.4 0.3 0 0.7-0.6 0.3-0.8z"/>
						</g>
						<path id="&lt;Path&gt;" class="s5" d="m425.2 613.5c-2.1-1.9-5.5-2.2-8.2-2.8q-23.8-4.7-47.6-9.4c-14.8-3-29.8-5.7-44.5-9-12.3-2.7-24.7-6.3-35.1-13.3-10.4-7-17.5-17.2-20.9-29.1-3.3-11.8-3.2-24.4-1.7-36.5 0.4-2.9 1-5.9 1.7-8.8 0-0.2-0.3-0.3-0.4-0.1-4.7 22.5-5.9 48.8 10.6 67.4 8 9 19.2 14.5 30.7 18.2 12.9 4.2 26.5 6.4 39.9 9q23.8 4.7 47.6 9.4c7.6 1.5 15.4 2.8 22.9 4.6 1.5 0.3 3.1 0.8 4.1 1.9 1.4 1.6 1 3.8 0.5 5.6-0.8 3.7-2 7.4-3.1 11.1-9.6 29.4-76.9 169-78.7 172.2-0.2 0.4 0.3 0.7 0.5 0.3 15.4-25.6 65.6-133.4 76.1-161.2 2.6-7.1 5.1-14.3 6.9-21.7 0.6-2.7 1-5.7-1.3-7.8z"/>
					</g>
				</g>
				<g id="&lt;Group&gt;">
					<g id="&lt;Group&gt;">
						<path id="&lt;Path&gt;" class="s9" d="m742.6 934.9c-5.2 2.1-162.5 10.1-168.6 6.7-0.7-0.3-1.7-14.6-2.8-34l-0.8-18.4c-0.3-6.2-81.2-96.4-81.2-96.4l112.8-6.9 69.1 101c0 0 21.7 7.7 40.7 15.5q0 0 0 0.1c11.8 4.7 21.9 9.1 24.3 10.8 6.2 4.4 11.8 19.6 6.5 21.6z"/>
						<path id="&lt;Path&gt;" class="s0" d="m549.8 862.1c11.7 14 20.5 25.1 20.6 27.1l0.8 18.4c1.1 19.4 2.1 33.7 2.8 34 6.1 3.4 163.4-4.6 168.6-6.7 5.3-2.1-0.3-17.2-6.5-21.6-2.4-1.7-12.5-6.1-24.2-10.9 0 0-0.1 0-0.1 0-19-7.8-40.7-15.5-40.7-15.5l-20-29.1z"/>
						<g id="&lt;Group&gt;">
							<path id="&lt;Path&gt;" class="s6" d="m743.3 935.5c-5.4 2.1-162.9 9.7-169.1 6.2-2.4-1.3-5.9-25.5-5.1-52.4l101.6-4.8c0 0 59.6 24.1 66 28.7 6.4 4.6 12 20.2 6.6 22.3z"/>
							<g id="&lt;Group&gt;">
								<g id="&lt;Group&gt;">
									<path id="&lt;Path&gt;" class="s3" d="m740.7 929.3c-26.4 0.6-133 5.7-159.1 8.3-0.2 0-0.2 0.2 0 0.2 26.3-0.1 132.8-6 159.2-8.1 0.5 0 0.5-0.4-0.1-0.4z"/>
									<path id="&lt;Path&gt;" class="s3" d="m726.3 908c-6.3 0.1-12.2 3.3-15.5 7.2-3.1 3.8-5.6 9-5.2 14.4 0 0.2 0.3 0.2 0.3 0 1-10.4 10-19.9 20.4-21.3 0.2 0 0.2-0.3 0-0.3z"/>
									<path id="&lt;Path&gt;" class="s3" d="m679.1 886.7c-10.6 0.4-22.7 4.7-28.8 13.7-0.2 0.3 0.3 0.6 0.6 0.5 9.3-5.4 18.2-9.5 28.4-12.9 0.8-0.2 0.6-1.3-0.2-1.3z"/>
									<path id="&lt;Path&gt;" class="s3" d="m687.4 889.5c-10.6 0.4-22.6 4.7-28.8 13.6-0.2 0.4 0.3 0.7 0.6 0.5 9.3-5.3 18.2-9.5 28.5-12.8 0.7-0.3 0.5-1.3-0.3-1.3z"/>
									<path id="&lt;Path&gt;" class="s3" d="m695.7 892.3c-10.6 0.3-22.6 4.7-28.8 13.6-0.2 0.4 0.3 0.7 0.6 0.5 9.3-5.4 18.2-9.5 28.5-12.8 0.7-0.3 0.5-1.4-0.3-1.3z"/>
									<path id="&lt;Path&gt;" class="s3" d="m704 895.1c-10.5 0.3-22.6 4.6-28.8 13.6-0.2 0.4 0.3 0.7 0.6 0.5 9.3-5.4 18.2-9.5 28.5-12.9 0.7-0.2 0.5-1.3-0.3-1.2z"/>
									<path id="&lt;Path&gt;" class="s3" d="m587.1 912.2c-11.8 0.6-10.9 19 1 18.4 11.9-0.6 10.9-19-1-18.4z"/>
								</g>
								<path id="&lt;Compound Path&gt;" fill-rule="evenodd" class="s3" d="m689.1 873.5c-5.4 7.6-13.9 12.7-21.1 18.2-0.8 0.6-1.7 0-2-0.7-0.1 0-0.3-0.1-0.3-0.3 0.1-9.1 3.3-19.8 8.3-27.5 3.1-4.8 9.6-9.4 15.1-5.3 5.3 4 3.1 11.1 0 15.6zm0-8.8c-1.6-11.4-11.5-2.1-13.7 1.5-1.3 2.3-2.4 4.8-3.5 7.3-2.1 5.2-3.5 10.6-5.2 16 3.4-3 7.1-5.6 10.6-8.5 4.2-3.3 12.7-10 11.8-16.3z"/>
								<path id="&lt;Compound Path&gt;" fill-rule="evenodd" class="s3" d="m627.8 885.8c0.5-7 8.3-8.8 13.9-8 9.1 1.3 19.2 5.8 26.2 11.7 0.2 0.2 0.2 0.3 0 0.5 0.4 0.7 0.3 1.7-0.7 1.9-8.9 1.9-18.3 5-27.6 4-5.4-0.6-12.2-3.6-11.8-10.1zm25.3 6.1c4.4-0.8 8.8-1.8 13.2-2.4-5.1-2.3-10.1-4.8-15.4-6.5-2.6-0.9-5.2-1.7-7.9-2.2-4.1-0.7-17.6 0.7-10.1 9.4 4.2 4.8 14.9 2.7 20.2 1.7z"/>
							</g>
						</g>
					</g>
					<g id="&lt;Group&gt;">
						<path id="&lt;Path&gt;" class="s3" d="m675.9 865.8l-126.1 15.4c0 0-124.8-149.2-134.8-159.2-31.3-30.8-143.3-83.9-176.7-133.4-30-44.4 0.4-91.8 0.4-91.8h123.1c0 0-4.4 19.4-12.5 38.4 0 0 102.3 77 156.8 132.1 35.1 35.4 169.8 198.5 169.8 198.5z"/>
						<g id="&lt;Group&gt;">
							<path id="&lt;Path&gt;" class="s5" d="m371.2 527.4c-3.6 0.5-7.2 1.8-10.6 3-3.5 1.3-7.1 2.7-10.5 4.2-6.8 3.1-13.4 6.7-19.8 10.5-0.2 0.1 0 0.4 0.2 0.3 6.7-3.3 13.7-6.2 20.7-8.9q5-2 10.1-4c3.3-1.4 6.9-2.5 10.1-4.2 0.5-0.2 0.3-1-0.2-0.9z"/>
							<path id="&lt;Path&gt;" class="s5" d="m364.7 496.8c-1.6 5.6-3 11.2-4.8 16.7-0.8 2.5-1.6 5.1-2.6 7.6-0.9 2-2.2 4.4-4.6 4.8-2.8 0.4-3.6-2-3.3-4.3 0.4-2.5 1.1-5.1 1.7-7.6 0.6-2.9 3.9-17 3.9-17.1 0.1-0.2 0.1-0.2-0.1-0.4q-0.1-0.1-0.2 0c-0.6 0.3-4 11.1-4.7 13.8q-1.2 4-2.3 8c-0.6 2-1.2 4.2-0.7 6.3 0.5 2.2 2.3 3.4 4.3 3.7q-0.2 0.2-0.3 0.5c-0.3 0.6-0.5 1.1-0.7 1.7q-0.4 0.9-0.6 1.7-0.2 0.5-0.2 0.9c-0.1 0.3 0 0.7-0.1 1-0.1 0.5 0.6 0.8 0.9 0.3 0.1-0.3 0.4-0.5 0.5-0.8 0.2-0.2 0.4-0.6 0.5-0.9q0.3-0.8 0.5-1.7c0.2-0.5 0.4-1.1 0.5-1.7 0.1-0.3 0.1-0.7 0.1-1 1.2-0.1 2.3-0.4 3.3-1.1 1.7-1.3 2.7-3.2 3.5-5.1 0.9-2.3 1.7-4.7 2.4-7.1 1.8-5.8 3.3-11.8 4.1-17.9 0.1-0.7-0.8-1-1-0.3z"/>
							<path id="&lt;Path&gt;" class="s5" d="m291.1 508.4c-0.6 2.7-1 5.6-1.7 8.3-0.7 2.7-1.5 5.4-2.5 8-0.9 2.5-2.1 5-3.6 7.1-1.6 2.1-3.6 3.9-5.7 5.4-4 3-8.6 5.4-13.4 6.9q-3.6 1.2-7.4 2-1.9 0.4-3.9 0.5c-1.1 0.2-2.2 0.2-3.2 0.7-0.4 0.2-0.4 0.9 0 1.1 1.7 0.9 4.1 0.5 5.9 0.3q3.1-0.2 6.2-0.9c4.2-0.9 8.2-2.5 12-4.6 3.6-2 7.3-4.6 10.1-7.8 2.8-3.2 4.5-7.2 5.6-11.3 1.3-5 2.3-10.5 2.1-15.7 0-0.3-0.4-0.3-0.5 0z"/>
							<g id="&lt;Group&gt;">
								<path id="&lt;Path&gt;" class="s5" d="m648.2 847.2c-3.4-0.2-6.9 0.2-10.2 0.4-3.6 0.3-7.2 0.5-10.7 0.8q-10.5 0.8-21 2c-14.1 1.6-28.2 3.3-42.2 5.2-7.3 1-23 3.1-23.8 3.6-0.4 0.2-0.3 0.9 0.2 0.9 14-0.8 28.1-2.1 42.1-3.5 14-1.3 28-2.7 41.9-4.6 3.9-0.5 7.7-1.2 11.5-1.8 4.1-0.6 8.3-0.9 12.2-2.1 0.4-0.1 0.5-0.8 0-0.9z"/>
							</g>
							<path id="&lt;Path&gt;" class="s5" d="m376.6 693.4c6.6 4.2 12.9 8.7 19.2 13.2 5.9 4.1 12.1 8 17.5 12.8 2.7 2.6 5.2 5.4 7.6 8.2q3.8 4.4 7.6 8.7 7.5 8.7 14.9 17.5 4.2 5 8.4 10c2.8 3.4 5.5 7.1 8.4 10.5 0.2 0.2-0.1 0.5-0.3 0.3-5.1-5.8-10.6-11.3-15.7-17.1-5.1-5.8-10.2-11.6-15.3-17.5-4.9-5.6-9.6-11.5-14.8-16.9-5.1-5.3-11.3-9.3-17.2-13.5-7-5-14.1-9.9-20.9-15.2-0.5-0.5 0-1.5 0.6-1z"/>
							<path id="&lt;Path&gt;" class="s5" d="m351.3 536.1c21 14.8 42.8 31.3 62.5 47.7 19.8 16.4 39.4 33.1 58.5 50.3q8.1 7.2 15.9 14.6c5.4 4.9 10.6 11.1 15.9 16.1 0.3 0.3-0.2 0.7-0.5 0.4-9.6-8.6-19.5-18-29.3-26.5q-14.5-12.6-29.1-25.1c-19.6-16.8-39.4-33.2-59.5-49.4-11.1-9-24.1-18.2-35-27.5-0.3-0.3 0.2-0.9 0.6-0.6z"/>
							<path id="&lt;Path&gt;" class="s5" d="m242.4 511.3q1.8-5.3 3.8-10.5c0.1-0.2 0.4-0.1 0.3 0.1-4.9 14.6-10 29.6-10.5 45.2-0.3 7.5 0.6 15 3.2 22 2.4 6.8 6.4 12.9 11.2 18.3 9.8 11.1 22.3 19.8 34 28.6 12.8 9.6 25.9 18.9 39 28 13.2 9 26.7 17.6 40.3 26 13.6 8.2 27.5 15.8 41.1 24 6.5 4 12.7 8.4 18.3 13.6 5.7 5.3 10.8 11.2 15.9 17.1 10.9 12.5 21.8 25.2 32.6 37.8q32.3 38.1 63.4 77.2 3.8 4.8 7.6 9.6c0.1 0.1-0.1 0.3-0.2 0.2-21.3-26.1-42.9-52.1-64.7-77.8-10.8-12.8-21.7-25.6-32.7-38.2-10.5-12.1-20.6-25-33.9-34.1-6.5-4.4-13.4-8.2-20.2-12q-10.6-6.1-21.1-12.4-20.8-12.5-41-26.1c-13.4-8.9-26.6-18.1-39.5-27.7q-9.8-7.2-19.3-14.6c-5.4-4.2-10.9-8.5-15.8-13.4-4.9-4.7-9.4-10-12.7-15.9-3.5-6.3-5.6-13.2-6.3-20.3-1.6-15.2 2.4-30.4 7.2-44.7z"/>
						</g>
					</g>
				</g>
			</g>
			<g id="&lt;Group&gt;">
				<g id="&lt;Group&gt;">
					<g id="&lt;Group&gt;">
						<g id="&lt;Group&gt;">
							<path id="&lt;Path&gt;" class="s9" d="m310.5 353.7c20.2 18.6 98.9 72.5 121.2 65.3 16.5-5.4 19-24.8 9.6-39.9-8.2-13.2-87.7-35.3-110-41.3-21.3-5.7-40.7-2.3-20.8 15.9z"/>
						</g>
					</g>
					<g id="&lt;Group&gt;">
						<path id="&lt;Path&gt;" class="s6" d="m361 396.8l46.3-39.6c0 0-58.9-20.3-84.9-24.1-27.1-4.1-35.1 5-6.5 27.4 28.1 22.1 45.1 36.3 45.1 36.3z"/>
						<path id="&lt;Compound Path&gt;" class="s4" d="m347.4 351c-0.5 0.3-0.9 0.6-1.4 0.7-1 0.2-2-0.1-2.6-0.8-1.1-1.1-2.8-1.4-4.1-0.7-0.7 0.2-1.2 0.8-1.5 1.3-0.4 0.5-0.7 1-1 1.5 0.5-0.3 1-0.7 1.5-1 0.5-0.4 0.9-0.6 1.4-0.8 1-0.2 2 0.1 2.6 0.7 1 1.1 2.7 1.5 4.1 0.9 0.6-0.3 1.2-0.8 1.5-1.3 0.4-0.5 0.7-1 1-1.6-0.5 0.4-1 0.7-1.5 1.1zm29.4-3.7c-1 0.3-1.9 1.1-2.3 2.1-0.3 0.6-0.3 1.4-0.2 2 0.1 0.6 0.2 1.2 0.4 1.8 0.1-0.6 0.2-1.2 0.3-1.8 0.1-0.6 0.3-1.1 0.5-1.5 0.6-0.8 1.5-1.3 2.5-1.3 0.6 0 1.1-0.1 1.6-0.4q-1.3-0.5-2.8-0.9zm-25.3 37.9c-0.2-0.6-0.2-1.2-0.4-1.8-0.2 0.6-0.3 1.2-0.4 1.8 0 0.6-0.2 1-0.4 1.5q-0.3 0.4-0.7 0.7 0.5 0.5 1.1 0.9 0.4-0.5 0.6-1.1c0.3-0.7 0.3-1.5 0.2-2zm-46.4-52.6q0 0.1 0.1 0.2 0-0.1 0-0.2 0 0-0.1 0zm79 42c0-1.5-1-2.9-2.4-3.4-0.6-0.3-1.4-0.3-2-0.1-0.6 0.1-1.2 0.1-1.8 0.3 0.6 0.2 1.2 0.3 1.8 0.4 0.6 0.1 1.1 0.2 1.5 0.4 0.9 0.6 1.4 1.5 1.4 2.4 0 1 0.4 2 1.2 2.7l1-0.8c-0.5-0.5-0.7-1.2-0.7-1.9z"/>
						<path id="&lt;Path&gt;" class="s3" d="m357.3 386.1c1-1 2.2-2 3.3-2.9q1.6-1.5 3.3-3 3.4-3.1 6.8-6c4.6-4 9.2-7.9 13.9-11.8q1.9-1.6 3.9-3.2c1.3-1.1 2.8-2 4.2-3.1 0-0.1 0.1 0 0.1 0.1-1.2 1-2.2 2.1-3.3 3.2q-1.7 1.5-3.4 3-3.4 3-6.9 6c-4.6 3.8-9.1 7.7-13.7 11.4q-2 1.6-3.9 3.2c-1.4 1.1-2.7 2.3-4.2 3.2 0 0.1-0.1 0-0.1-0.1z"/>
						<path id="&lt;Path&gt;" class="s3" d="m315.9 360.5c28.1 22.1 45.1 36.2 45.1 36.2l14.8-12.6-76.7-48.6c-3.6 4.3 1 12.6 16.8 25z"/>
					</g>
					<g id="&lt;Group&gt;">
						<g id="&lt;Group&gt;">
							<g id="&lt;Group&gt;">
								<path id="&lt;Path&gt;" class="s9" d="m442.3 411.5c-11.3 17.2-31.5 1.3-34.5-12.7-7.1-33-6.4-71.2-4.4-95.1 0.8-9.8 61.1-12 60.2-1.6-1.8 22-1.8 79.6-21.3 109.4z"/>
							</g>
						</g>
						<path id="&lt;Path&gt;" class="s3" d="m402.3 359.4c0.5 2.6 0.8 5.1 1.2 7.7 0.3 2.5 0.6 5.1 0.9 7.7l0.8 7.6q0.2 2 0.5 3.9c0.1 1.3 0.3 2.5 0.4 3.8-0.8-2.4-1.2-5-1.7-7.5-0.4-2.6-0.8-5.2-1.1-7.7-0.2-2.6-0.5-5.2-0.7-7.7-0.1-2.6-0.3-5.2-0.3-7.8z"/>
						<path id="&lt;Path&gt;" class="s3" d="m403.9 375.2c0 1.6-0.1 3-0.2 4.4q-0.1 1.1-0.2 2.2c-0.1 0.7-0.2 1.5-0.4 2.2-0.5-1.5-0.5-3-0.4-4.4 0-0.8 0.1-1.5 0.3-2.3 0.2-0.7 0.5-1.4 0.9-2.1z"/>
						<g id="&lt;Group&gt;">
							<path id="&lt;Path&gt;" class="s9" d="m462.2 264.1c4 12.2 2.5 40.3-0.5 46.9-3 6.6-50.9 5.5-55.3-0.5-4.4-6-14.7-48-10.1-60.3 4.6-12.2 61.8 1.3 65.9 13.9z"/>
							<g id="&lt;Group&gt;">
								<path id="&lt;Path&gt;" class="s9" d="m393 270.5c5.2 4.4 7.4-4.2 7.4-4.2 0 0-0.2 13.2 6.8 15.7 6.8 2.4 9.2-8.1 9.4-8.9 0 0.7 0 12.8 7.4 14.6 7.7 1.9 8.3-9 8.3-9.7 0.2 0.6 3 9.3 8.9 9.4 10.1 0.1 3.6-22.3 7.9-29.3 0 0 12.7 5.9 13.1 6 0 0-5.7-21.5-15.5-26.7-5.1-2.8-8.7 1.5-8.7 1.5 0 0-1.1-7.1-6.8-8.7-3-0.8-6.9 3.2-6.9 3.2 0 0-1.1-5.7-6.3-6.8-4.2-0.9-7.5 3.3-7.5 3.3 0 0-3.6-5-8.1-4.5-9.2 0.9-20.4 35.6-9.4 45.1z"/>
								<g id="&lt;Group&gt;">
									<path id="&lt;Path&gt;" class="s3" d="m409.9 230.5c0-0.1-0.1-0.2-0.2-0.1-6.4 10.5-10.3 24-9.4 36.3 0 0.5 0.7 0.6 0.7 0.1 1.5-12.9 3.9-24.3 8.9-36.3z"/>
									<path id="&lt;Path&gt;" class="s3" d="m424.3 233.2c0-0.1-0.2-0.2-0.3-0.1-6.6 10.8-10.6 26.2-7.8 40.3 0.1 0.5 0.6 0.8 0.6 0.3-1.1-9.6 2.9-29.7 7.5-40.5z"/>
									<path id="&lt;Path&gt;" class="s3" d="m432.8 278.9c-2.1-13.7 0.4-26.6 4.9-39.6 0-0.1-0.2-0.2-0.3-0.1-3.9 5.8-5.9 14.3-6.9 21.1-0.9 6.5-0.5 12.5 1.8 18.6 0.1 0.3 0.6 0.3 0.5 0z"/>
								</g>
								<path id="&lt;Path&gt;" class="s3" d="m400.4 266.3c0.2 2.5 0.6 5.1 1.3 7.5 0.6 2.4 1.6 4.8 3.3 6.4 0.8 0.8 1.9 1.3 3 1.3 1.1 0 2.3-0.2 3.3-0.7 2-1.1 3.2-3.4 3.6-5.5l1.2-5.5 0.8 5.5c0.4 2.5 1.1 4.9 2.2 7.1 1.1 2.1 2.8 4 4.9 4.5 2.2 0.6 4.3-0.1 5.4-2.1 1.2-1.9 1.7-4.5 1.8-6.8l0.2-6.6 1.9 6.2c0.6 1.7 1.4 3.5 2.3 5 1 1.5 2.2 2.9 3.7 3.5 1.5 0.6 3.3 0.4 4.4-0.6 1.2-1 1.8-2.9 2.3-4.6 0.8-3.7 0.9-7.6 1.2-11.4 0.1-1.9 0.2-3.9 0.4-5.8 0.3-1.9 0.5-3.9 1.5-5.6-0.8 1.8-0.8 3.7-1 5.6 0 2 0 3.9 0 5.8 0.1 3.9 0.1 7.8-0.6 11.7-0.4 1.9-0.9 4-2.5 5.7-1.7 1.7-4.4 1.9-6.5 1.1-2.1-0.9-3.5-2.6-4.7-4.2-1.1-1.8-1.9-3.6-2.6-5.5l2.2-0.4c-0.1 2.8-0.5 5.6-2 8.1-0.7 1.3-2 2.4-3.5 3-1.5 0.5-3 0.4-4.5 0.1-3-0.8-5-3.3-6.2-5.7-1.2-2.5-1.9-5.1-2.3-7.8h2c-0.7 2.8-2.3 5.3-4.9 6.6-1.3 0.6-2.7 0.8-4.1 0.7-1.4-0.1-2.8-0.8-3.8-1.8-1.9-2-2.6-4.7-3.1-7.2-0.5-2.5-0.7-5.1-0.6-7.6z"/>
							</g>
							<g id="&lt;Group&gt;">
								<path id="&lt;Path&gt;" class="s9" d="m403.4 303.7c0 0-35.9-40.9-13.1-47.1 6.8-1.8 36.9-1.3 36.9 4.7 0 7.8-12.6 10-20.7 10 0 0 14.2 12.2 8.6 24.6-3.4 7.8-11.7 7.8-11.7 7.8z"/>
								<path id="&lt;Path&gt;" class="s3" d="m388.5 257.3c2.5-1.2 5.3-1.6 8-2 2.8-0.3 5.5-0.4 8.3-0.4 5.6 0.1 11.1 0.4 16.6 1.5 1.4 0.3 2.8 0.6 4.2 1.4 0.7 0.3 1.4 0.8 2 1.6 0.3 0.3 0.5 0.6 0.6 1.2q0.3 0.7 0.3 1.3c0 1.8-0.8 3.4-1.8 4.6-1 1.1-2.3 2-3.6 2.7-2.6 1.4-5.4 2.1-8.2 2.5-2.8 0.5-5.6 0.6-8.4 0.6l0.6-1.7c1.6 1.5 3 3 4.3 4.7q1.9 2.6 3.2 5.5c0.9 1.9 1.5 3.9 1.8 6 0.3 2.1 0.2 4.2-0.3 6.3 0.2-2.1 0.1-4.2-0.4-6.2-0.4-1.9-1.2-3.8-2.2-5.6q-1.4-2.7-3.4-5c-1.3-1.5-2.7-3-4.2-4.2l-1.9-1.6 2.5-0.1c2.7-0.2 5.4-0.3 8-0.8 2.7-0.5 5.3-1.1 7.5-2.4 2.2-1.2 4.2-3.1 4.2-5.2 0.1-1.9-2.7-2.9-5.3-3.5-2.6-0.6-5.3-1-8-1.3-2.7-0.4-5.4-0.7-8.1-0.9-5.5-0.2-11-0.5-16.3 1z"/>
							</g>
						</g>
					</g>
				</g>
				<g id="&lt;Group&gt;">
					<path id="&lt;Path&gt;" class="s6" d="m381.6 518c-2.7 3.9-160 18.6-160.9 17.7-2.3-2.2 7.7-143.1 56.3-200.1 8.6-10 26.1-9.7 34.6-6.3 4.3 1.8 20.4 19.7 26.6 36.3 6.2 16.6 45.1 149.9 43.4 152.4z"/>
					<path id="&lt;Compound Path&gt;" class="s4" d="m317.6 374.4c-0.6-0.1-1.1-0.2-1.5-0.5-0.8-0.6-1.3-1.4-1.3-2.4 0-1.5-1-2.9-2.4-3.4-0.6-0.3-1.4-0.2-2-0.1-0.6 0.1-1.2 0.2-1.8 0.3 0.6 0.2 1.2 0.3 1.8 0.4 0.7 0.1 1.1 0.2 1.5 0.4 0.9 0.6 1.4 1.5 1.4 2.4 0 1.4 0.9 2.9 2.3 3.4 0.6 0.3 1.4 0.4 2 0.2 0.6-0.1 1.2-0.2 1.8-0.3-0.6-0.2-1.2-0.3-1.8-0.4zm27.7 116c-0.6-0.1-1-0.3-1.4-0.5-0.9-0.6-1.4-1.5-1.3-2.5 0-1.5-1.1-2.9-2.4-3.3-0.7-0.3-1.5-0.3-2-0.2-0.6 0.1-1.2 0.2-1.8 0.4 0.6 0.2 1.2 0.2 1.8 0.4 0.6 0 1.1 0.1 1.5 0.4 0.8 0.5 1.4 1.4 1.4 2.4-0.1 1.4 0.9 2.9 2.2 3.4 0.7 0.3 1.5 0.3 2 0.2 0.7-0.1 1.3-0.2 1.9-0.4-0.6-0.1-1.2-0.2-1.9-0.3zm-80.6-69.4c-0.6-0.1-1.1-0.3-1.5-0.5-0.8-0.6-1.3-1.5-1.3-2.5 0-1.5-1-2.9-2.4-3.3-0.6-0.3-1.4-0.3-2-0.2-0.6 0.2-1.2 0.2-1.8 0.4 0.6 0.2 1.2 0.2 1.8 0.4 0.6 0 1.1 0.2 1.5 0.4 0.9 0.5 1.4 1.4 1.4 2.4 0 1.4 0.9 2.9 2.3 3.4 0.6 0.3 1.4 0.3 2 0.2 0.6-0.1 1.2-0.2 1.8-0.4-0.6-0.1-1.2-0.2-1.8-0.3zm66.1 103c-0.7-0.3-1.5-0.3-2-0.1-0.6 0.1-1.2 0.2-1.8 0.3 0.6 0.2 1.2 0.3 1.8 0.4 0.6 0.1 1 0.2 1.5 0.4q0.2 0.2 0.5 0.4 0.8-0.1 1.6-0.2c-0.4-0.5-1-1-1.6-1.2zm-30-52.4c-0.6-0.1-1-0.3-1.4-0.5-0.9-0.6-1.4-1.5-1.3-2.5 0-1.5-1.1-2.9-2.4-3.4-0.7-0.2-1.5-0.2-2-0.1-0.6 0.1-1.2 0.2-1.8 0.4 0.6 0.1 1.2 0.2 1.8 0.3 0.6 0.1 1.1 0.2 1.5 0.5 0.8 0.5 1.4 1.4 1.4 2.4 0 1.4 0.9 2.9 2.2 3.4 0.7 0.3 1.5 0.3 2 0.2 0.7-0.1 1.3-0.2 1.9-0.4-0.6-0.1-1.2-0.2-1.9-0.3zm-64.8 10.6c-0.7 0-1.1-0.2-1.5-0.5-0.9-0.5-1.4-1.4-1.3-2.4 0-1.5-1.1-2.9-2.4-3.4-0.7-0.3-1.5-0.2-2-0.1-0.6 0.1-1.2 0.2-1.8 0.3 0.6 0.2 1.2 0.3 1.8 0.4 0.6 0.1 1.1 0.2 1.5 0.5 0.8 0.5 1.4 1.4 1.4 2.3 0 1.5 0.9 3 2.2 3.5 0.7 0.3 1.5 0.3 2.1 0.2 0.6-0.2 1.2-0.2 1.8-0.4-0.6-0.2-1.2-0.2-1.8-0.4zm94.7-59.8c-0.6-0.1-1-0.2-1.5-0.5-0.8-0.5-1.3-1.4-1.3-2.4 0-1.5-1-2.9-2.3-3.4-0.7-0.3-1.5-0.2-2-0.1-0.6 0.1-1.3 0.2-1.9 0.3 0.6 0.2 1.3 0.3 1.9 0.4 0.6 0.1 1 0.2 1.5 0.5 0.8 0.5 1.4 1.4 1.3 2.3 0 1.5 1 2.9 2.3 3.5 0.7 0.2 1.4 0.3 2 0.1 0.6-0.1 1.2-0.2 1.8-0.3-0.6-0.2-1.2-0.3-1.8-0.4zm-54.9-76.8c-0.5 0.4-0.9 0.7-1.4 0.8-1 0.2-2 0-2.6-0.7-0.5-0.5-1.1-0.8-1.7-1q-0.5 0.7-0.9 1.3c0.6 0.1 1.1 0.3 1.5 0.8 1.1 1 2.8 1.3 4.1 0.7 0.6-0.3 1.2-0.9 1.5-1.3 0.4-0.6 0.7-1 1-1.6-0.5 0.3-1 0.7-1.5 1zm30.1-17.9c-0.4 0.4-0.7 0.8-0.9 1.3-0.3 0.7-0.3 1.4-0.2 2 0.1 0.6 0.2 1.2 0.4 1.8 0.2-0.6 0.2-1.2 0.3-1.8 0.1-0.6 0.3-1 0.5-1.5 0.6-0.7 1.4-1.2 2.3-1.2q-1.2-0.3-2.4-0.6zm-8.3 102.2c-0.1-0.6-0.2-1.2-0.3-1.8-0.2 0.6-0.3 1.2-0.4 1.8-0.1 0.6-0.2 1.1-0.5 1.5-0.5 0.9-1.4 1.4-2.3 1.4-1.5 0-2.9 0.9-3.5 2.3-0.2 0.6-0.3 1.4-0.1 2 0.1 0.6 0.1 1.2 0.3 1.8 0.2-0.6 0.3-1.2 0.4-1.8 0.1-0.6 0.2-1.1 0.5-1.5 0.5-0.9 1.4-1.3 2.4-1.3 1.5 0 2.9-1 3.4-2.4 0.3-0.6 0.2-1.4 0.1-2zm74.8 78.9c-0.2-0.6-0.2-1.2-0.4-1.8-0.2 0.6-0.3 1.2-0.4 1.8 0 0.6-0.2 1.1-0.4 1.5-0.6 0.9-1.5 1.4-2.4 1.4-1.4 0-2.9 0.9-3.4 2.2-0.3 0.7-0.3 1.5-0.2 2.1 0.1 0.6 0.2 1.2 0.3 1.8 0.2-0.6 0.3-1.2 0.4-1.8 0.1-0.6 0.2-1.1 0.5-1.5 0.6-0.9 1.5-1.3 2.4-1.3 1.5 0 2.9-1 3.4-2.4 0.3-0.6 0.3-1.4 0.2-2zm-133.2-75.1c-0.1-0.6-0.2-1.2-0.4-1.8-0.2 0.6-0.2 1.2-0.4 1.8 0 0.6-0.1 1.1-0.4 1.5-0.5 0.9-1.4 1.4-2.4 1.4-0.6 0-1.2 0.1-1.7 0.4q-0.3 1.1-0.5 2.2c0.5-0.7 1.3-1.1 2.3-1.1 1.5 0 2.9-1 3.3-2.4 0.3-0.7 0.3-1.4 0.2-2zm34.2-59c-0.1-0.6-0.1-1.2-0.3-1.8-0.2 0.6-0.3 1.2-0.4 1.8-0.1 0.6-0.2 1.1-0.4 1.5-0.6 0.9-1.5 1.4-2.4 1.4-1.4 0-2.9 0.9-3.4 2.3-0.3 0.6-0.3 1.4-0.2 2 0.1 0.6 0.2 1.2 0.3 1.8 0.2-0.6 0.3-1.2 0.4-1.8 0.1-0.6 0.2-1.1 0.5-1.5 0.6-0.8 1.4-1.3 2.4-1.3 1.5 0 2.9-1 3.4-2.4 0.3-0.6 0.3-1.4 0.1-2zm72.3 14.1c-0.6 0.4-1 0.9-1.2 1.5-0.3 0.7-0.3 1.5-0.2 2 0.1 0.6 0.2 1.2 0.3 1.9 0.2-0.7 0.3-1.3 0.4-1.9 0.1-0.6 0.2-1 0.5-1.4q0.2-0.4 0.6-0.7-0.2-0.7-0.4-1.4zm-71.6 103.7c-0.1-0.6-0.2-1.2-0.3-1.8-0.2 0.6-0.3 1.2-0.4 1.8-0.1 0.7-0.2 1.1-0.5 1.6-0.5 0.8-1.4 1.3-2.3 1.3-1.5 0-2.9 1-3.5 2.3-0.2 0.6-0.3 1.4-0.1 2 0.1 0.6 0.1 1.2 0.3 1.8 0.2-0.6 0.3-1.2 0.4-1.8 0.1-0.6 0.2-1 0.5-1.5 0.5-0.8 1.4-1.3 2.4-1.3 1.5 0 2.9-1 3.4-2.3 0.3-0.7 0.2-1.5 0.1-2.1zm24.5-97.3c-0.5 0.4-0.9 0.6-1.4 0.7-1 0.2-2-0.1-2.6-0.8-1.1-1.1-2.8-1.4-4.1-0.7-0.7 0.2-1.2 0.8-1.5 1.3-0.4 0.5-0.7 1-1.1 1.5 0.6-0.3 1.1-0.7 1.6-1 0.5-0.4 0.9-0.6 1.4-0.8 0.9-0.2 2 0.1 2.6 0.7 1 1.1 2.7 1.5 4.1 0.9 0.6-0.3 1.2-0.8 1.5-1.3 0.4-0.5 0.7-1 1-1.5-0.5 0.3-1 0.6-1.5 1zm-33.1 65.1c-0.4 0.4-0.9 0.6-1.4 0.7-1 0.2-1.9-0.1-2.6-0.8-1.1-1.1-2.8-1.3-4.1-0.7-0.6 0.2-1.2 0.8-1.5 1.3-0.3 0.5-0.7 1-1 1.5 0.5-0.3 1-0.6 1.5-1 0.5-0.4 0.9-0.6 1.4-0.7 1-0.3 2 0 2.7 0.7 1 1 2.7 1.4 4 0.8 0.6-0.3 1.2-0.8 1.6-1.3 0.3-0.5 0.7-1 1-1.5-0.6 0.3-1.1 0.7-1.6 1zm14.3 67.7c-0.5 0.3-0.9 0.6-1.4 0.7-1 0.2-1.9-0.1-2.6-0.8-1.1-1.1-2.8-1.4-4.1-0.8-0.6 0.3-1.2 0.9-1.5 1.4-0.3 0.5-0.7 1-1 1.5 0.5-0.3 1-0.7 1.5-1 0.5-0.4 0.9-0.6 1.4-0.8 1-0.2 2 0.1 2.6 0.7 1.1 1.1 2.8 1.5 4.1 0.9 0.6-0.3 1.2-0.8 1.5-1.3 0.4-0.5 0.8-1 1.1-1.6-0.6 0.3-1.1 0.7-1.6 1.1zm64-74.4c-0.5 0.4-0.9 0.6-1.4 0.7-1 0.2-2-0.1-2.6-0.8-1.1-1.1-2.8-1.3-4.1-0.7-0.7 0.3-1.2 0.8-1.5 1.3-0.4 0.5-0.7 1-1 1.5 0.5-0.3 1-0.6 1.5-1 0.5-0.4 0.9-0.6 1.4-0.7 1-0.3 2 0 2.6 0.7 1 1 2.7 1.4 4.1 0.8 0.6-0.2 1.2-0.8 1.5-1.3 0.4-0.5 0.7-1 1-1.5-0.5 0.3-1 0.7-1.5 1zm-30 47.4c-0.5 0.4-0.9 0.6-1.4 0.7-1 0.2-2-0.1-2.7-0.8-1-1-2.8-1.3-4-0.7-0.7 0.3-1.2 0.8-1.6 1.3-0.3 0.5-0.7 1-1 1.6 0.6-0.4 1-0.7 1.6-1.1 0.5-0.4 0.9-0.6 1.4-0.7 0.9-0.2 1.9 0 2.6 0.7 1 1 2.7 1.4 4 0.8 0.7-0.2 1.2-0.8 1.6-1.3 0.3-0.5 0.7-1 1-1.5-0.5 0.3-1 0.7-1.5 1zm-68.2 9.3c-0.5 0.4-0.9 0.6-1.4 0.7-1 0.2-2-0.1-2.6-0.8-1.1-1-2.8-1.3-4.1-0.7-0.7 0.3-1.2 0.9-1.5 1.3-0.4 0.6-0.7 1-1 1.6 0.5-0.3 1-0.7 1.5-1 0.5-0.4 0.9-0.7 1.4-0.8 1-0.2 2 0 2.6 0.7 1 1 2.7 1.4 4.1 0.8 0.6-0.2 1.2-0.8 1.5-1.3 0.4-0.5 0.7-0.9 1-1.5-0.5 0.3-1 0.7-1.5 1z"/>
				</g>
				<g id="&lt;Group&gt;">
					<g id="&lt;Group&gt;">
						<path id="&lt;Path&gt;" class="s9" d="m253.9 358.1c-21 26.9-72.7 108.5-56.2 127.2 16.7 18.8 123.5 24.2 152.5 13.2 8.6-3.3-18.7-57.7-28.4-59.7-8-1.7-61.6-1.6-61.9-3.3-0.6-3 12.1-37.9 20.1-72.7 8.5-37.3-12-22.9-26.1-4.7z"/>
						<g id="&lt;Group&gt;">
							<g id="&lt;Group&gt;">
								<path id="&lt;Path&gt;" class="s9" d="m369.5 429.2c20.5 1.1 25.6 4.5 43.3-3.7 11.6-5.4 20.1-0.3 12 10.3-13.3 17.4-39.9 21.5-49.6 20.3z"/>
								<g id="&lt;Group&gt;">
									<path id="&lt;Path&gt;" class="s9" d="m313 438.1c0 0 24.7-8.1 46.6-9.1 15.2-0.6 48.3 1.6 73 39.5 5.8 9 7.8 25.9-7.1 14.7-10.6-7.9-14.9-16.2-21.9-19.7 0 0 0 21.9-9.3 27.4-4.1 2.5-15.5 8.9-25.1 12.7 0 0-1.4-1.9-2.8-4.5 0 0-9.1 4.3-23.9 0z"/>
								</g>
								<g id="&lt;Group&gt;">
									<path id="&lt;Path&gt;" class="s9" d="m374.2 430.7c6.2 4.9 19.2 15.7 26.8 28.1 8.4 13.9 20.9 42.8 10.6 48.9-7.6 4.5-13.3-6.1-13.3-6.1 0 0 2.6 13-5.1 15.6-7 2.3-10.9-6.2-10.9-6.2 0 0 0.2 8.2-7 9.1-8.6 1.2-7.7-16.2-17.4-22.6-2.2-1.4 16.3-66.8 16.3-66.8z"/>
									<g id="&lt;Group&gt;">
										<g id="&lt;Group&gt;">
											<path id="&lt;Path&gt;" class="s3" d="m384.9 465.3c5 5.6 13.3 21.3 13.6 36 0 0.3-0.3 0.5-0.3 0.2-3.8-16.1-10.3-30.3-13.5-36.1 0-0.1 0.1-0.2 0.2-0.1z"/>
										</g>
										<g id="&lt;Group&gt;">
											<path id="&lt;Path&gt;" class="s3" d="m371.1 474.2c3.9 5.3 11.7 21.9 11.5 36.7 0 0.4-0.3 0.5-0.3 0.2-3.3-16.9-8.5-30.8-11.3-36.8 0-0.1 0.1-0.2 0.1-0.1z"/>
										</g>
									</g>
								</g>
							</g>
							<path id="&lt;Path&gt;" class="s3" d="m403.7 463.4c6.1 3.1 9.7 7.1 14.4 12 2.3 2.4 4.7 4.8 7.3 6.9 2.4 2 5.9 4.9 9.1 3.2 1.8-0.9 2.2-3.2 2.2-5.1 0-2.1-1.2-6.1-2.1-8 0-0.1 0.1-0.2 0.2-0.1 0.8 1.7 2.3 5.4 2.6 7.3 0.3 1.7 0.4 3.6-0.4 5.2-1.7 3.4-6 3-8.8 1.5-1.6-1-3.1-2.3-4.6-3.5q-2.1-1.8-4-3.8c-2.7-2.7-5.2-5.5-7.9-8.2-2.9-3-5-4.6-8.2-7.2-0.1-0.1 0-0.3 0.2-0.2z"/>
							<path id="&lt;Path&gt;" class="s3" d="m412.8 488.8c-1-4-7.1-21.2-9.3-25.3-0.1-0.1 0.1-0.2 0.1-0.1 4.2 5.8 9.8 20.1 10.9 24.5 1.1 4.4 2.3 10 1.4 14.5-1.3 6.8-6.1 7.2-7.8 7.2-2.1 0-4-0.8-5.6-2.1-1.8-1.4-3.3-3.9-4.3-5.9 0-0.1 0.1-0.2 0.2-0.1 1.8 3.1 5.2 6.5 9 6.7 1.6 0.1 3.4-0.3 4.6-1.4 1.5-1.4 2-3.4 2.2-5.3 0.4-4.2-0.4-8.5-1.4-12.7z"/>
						</g>
					</g>
					<g id="&lt;Group&gt;">
						<path id="&lt;Path&gt;" class="s6" d="m266.6 421.2l-60.7-5.4c0 0 36.4-50.7 55.4-68.9 19.8-18.9 31.5-16.1 21.2 18.7-10.2 34.3-15.9 55.6-15.9 55.6z"/>
						<path id="&lt;Compound Path&gt;" class="s4" d="m243 367.3q-0.3 0.4-0.6 0.8 0.2 0 0.4-0.1c0.6-0.1 1.2-0.2 1.8-0.3-0.5-0.2-1-0.3-1.6-0.4zm21.7 53.7c-0.6-0.1-1.1-0.3-1.5-0.5-0.8-0.6-1.3-1.5-1.3-2.5 0-1.5-1-2.9-2.4-3.3-0.6-0.3-1.4-0.3-2-0.2-0.6 0.2-1.2 0.2-1.8 0.4 0.6 0.2 1.2 0.2 1.8 0.4 0.6 0 1.1 0.2 1.5 0.4 0.9 0.5 1.4 1.4 1.4 2.4 0 1 0.4 2 1.2 2.7l4 0.3q-0.5 0-0.9-0.1zm11.1-75.4c-0.5 0.4-0.9 0.7-1.4 0.8-1 0.2-2 0-2.6-0.7-1-1-2.8-1.4-4.1-0.8-0.6 0.2-1.2 0.8-1.5 1.3-0.4 0.5-0.7 0.9-1.1 1.5 0.6-0.3 1.1-0.7 1.6-1 0.5-0.4 0.9-0.6 1.4-0.7 1-0.2 1.9 0.1 2.6 0.8 1.1 1 2.8 1.3 4.1 0.7 0.6-0.3 1.2-0.9 1.5-1.3 0.4-0.6 0.7-1 1-1.6-0.5 0.3-1 0.7-1.5 1zm-2.4 29.1c-0.1-0.6-0.1-1.2-0.3-1.8-0.2 0.6-0.3 1.2-0.4 1.8-0.1 0.6-0.2 1.1-0.4 1.5-0.6 0.9-1.5 1.4-2.4 1.4-1.4 0-2.9 0.9-3.4 2.3-0.3 0.6-0.3 1.4-0.2 2 0.1 0.6 0.2 1.2 0.3 1.8 0.2-0.6 0.3-1.2 0.4-1.8 0.1-0.6 0.2-1.1 0.5-1.5 0.6-0.8 1.4-1.3 2.4-1.3 1.5 0 2.9-1 3.4-2.4 0.3-0.6 0.3-1.4 0.1-2zm-33.3 22c-0.4 0.4-0.9 0.6-1.4 0.7-0.9 0.2-1.9-0.1-2.6-0.8-1.1-1-2.8-1.3-4.1-0.7-0.6 0.3-1.2 0.8-1.5 1.3-0.3 0.5-0.7 1-1 1.6 0.5-0.4 1-0.7 1.5-1.1 0.5-0.4 0.9-0.6 1.4-0.7 1-0.3 2 0 2.7 0.7 1 1 2.7 1.4 4 0.8 0.7-0.2 1.2-0.8 1.6-1.3 0.3-0.5 0.7-1 1-1.5-0.6 0.3-1 0.7-1.6 1z"/>
						<g id="&lt;Group&gt;">
							<path id="&lt;Path&gt;" class="s3" d="m263.4 410.4c-1.4-0.3-2.9-0.4-4.3-0.5q-2.2-0.3-4.5-0.5-4.5-0.5-9-1c-6.1-0.5-12.1-1.1-18.1-1.6q-2.5-0.2-5-0.3c-1.8-0.1-3.5-0.1-5.3-0.2-0.1 0-0.1 0.2 0 0.2 1.5 0.2 3 0.5 4.5 0.7q2.3 0.3 4.6 0.5 4.5 0.5 9 0.9c6 0.5 11.9 1 17.9 1.4q2.5 0.2 5 0.3c1.7 0.1 3.5 0.3 5.2 0.3 0.1 0 0.1-0.1 0-0.2z"/>
							<g id="&lt;Group&gt;">
								<path id="&lt;Path&gt;" class="s3" d="m263.7 420.9q1.7 0 3.3 0.1l-0.2 0.1c0.8-4 1.8-8 2.8-12q1.5-6 3.1-12c2.3-7.9 4.6-15.8 7.4-23.6-1.6 8.2-3.6 16.1-5.7 24.1q-1.6 6-3.4 11.9c-1.3 3.9-2.4 7.9-3.8 11.8l-0.1 0.2-0.1-0.1q-1.7-0.2-3.3-0.5z"/>
								<path id="&lt;Path&gt;" class="s3" d="m274.9 393.2c0.6-2.2 1.6-4.2 2.6-6.2 1.1-1.9 2.2-3.8 3.8-5.5-0.6 2.3-1.6 4.3-2.6 6.2-1.1 2-2.3 3.9-3.8 5.5z"/>
							</g>
						</g>
					</g>
				</g>
				<g id="&lt;Group&gt;">
					<g id="&lt;Group&gt;">
						<g id="&lt;Group&gt;">
							<path id="&lt;Path&gt;" class="s9" d="m310 357.3c-8.5 1.5-22.1-12.1-27.1-22.8-0.3-0.7 4.3-28.9 4.6-34.5 0.1-1.2 35.1 10.7 35.1 10.7 0 0-4.2 11.7-4.7 21.6-0.1 0.8 0.3 23.6-7.9 25z"/>
						</g>
						<path id="&lt;Path&gt;" class="s3" d="m322.6 310.7c0 0-4.2 11.7-4.7 21.6q0 0.4 0 0.8v0.1q0 0.7-0.1 1.8c-1.1 0.1-2.2 0.1-3.5 0-19.3-1.6-24.4-25.7-25.7-35q0.5 0.1 1.1 0.2 0.5 0.2 1.1 0.3 0.4 0.1 0.7 0.2 1.1 0.3 2.5 0.7 0.5 0.2 1 0.3c1.6 0.5 3.3 1 5.1 1.6q0.3 0.1 0.7 0.2c1.6 0.5 3.3 1.1 4.9 1.6q0.3 0.1 0.7 0.2 0.7 0.3 1.5 0.5 0.7 0.3 1.5 0.5c1.6 0.5 3.2 1.1 4.7 1.5q0.3 0.2 0.6 0.3 1.3 0.4 2.4 0.7 0.3 0.1 0.5 0.2 1.4 0.5 2.5 0.9 0.2 0 0.4 0.1 0.8 0.3 1.3 0.4 0.1 0.1 0.2 0.1 0.4 0.1 0.5 0.2 0.1 0 0.1 0z"/>
					</g>
					<g id="&lt;Group&gt;">
						<g id="&lt;Group&gt;">
							<path id="&lt;Path&gt;" class="s9" d="m292.2 255.2c-6.6 11.5-8.1 48.6-1.1 58.5 10.1 14.4 30.7 20.2 43.9 7.1 12.8-12.7 14-61.1 5.8-70.5-12-13.9-39-12.1-48.6 4.9z"/>
						</g>
						<g id="&lt;Group&gt;">
							<g id="&lt;Group&gt;">
								<path id="&lt;Path&gt;" class="s3" d="m322.7 284.7c0-0.1-0.2 0.1-0.2 0.2-0.1 2.6-0.5 5.4-2.8 6.1-0.1 0.1-0.1 0.2 0 0.2 2.8-0.3 3.3-4.1 3-6.5z"/>
								<path id="&lt;Path&gt;" class="s3" d="m320.6 282c-4-0.5-4.7 7.6-1 8 3.6 0.5 4.3-7.6 1-8z"/>
							</g>
							<g id="&lt;Group&gt;">
								<path id="&lt;Path&gt;" class="s3" d="m336.4 286.3c0-0.1 0.2 0.1 0.2 0.2-0.3 2.5-0.2 5.4 2 6.4 0 0.1 0 0.2-0.1 0.2-2.7-0.7-2.8-4.5-2.1-6.8z"/>
								<path id="&lt;Path&gt;" class="s3" d="m338.9 283.9c4 0 3.6 8.1-0.1 8-3.7 0-3.3-8.1 0.1-8z"/>
							</g>
							<path id="&lt;Path&gt;" class="s3" d="m317.7 278.1c1.1-0.2 2.1-0.6 3.2-0.9 1.2-0.3 2.3-0.4 3.1-1.4 0.5-0.6 0.4-1.6-0.1-2.1-1.1-1.2-2.7-1.2-4.2-0.8-1.6 0.4-2.8 1.1-3.8 2.4-1 1.2 0.3 3 1.8 2.8z"/>
							<path id="&lt;Path&gt;" class="s3" d="m342.3 280.1c-1.1-0.3-2-0.7-3.1-1.1-1.2-0.5-2.2-0.7-3-1.7-0.4-0.6-0.2-1.7 0.3-2.1 1.2-1.1 2.8-0.9 4.3-0.4 1.5 0.5 2.6 1.3 3.5 2.6 0.9 1.4-0.5 3.1-2 2.7z"/>
							<path id="&lt;Path&gt;" class="s3" d="m317.7 307.6c0.6 0.6 1.1 1.5 2 1.6 0.9 0.2 1.9-0.1 2.7-0.4 0.1 0 0.2 0.1 0.1 0.2-0.7 0.9-2.1 1.4-3.2 1-1.1-0.2-1.6-1.3-1.8-2.3 0-0.2 0.2-0.2 0.2-0.1z"/>
							<g id="&lt;Group&gt;">
								<g id="&lt;Group&gt;">
									<path id="&lt;Path&gt;" class="s3" d="m321 300.3c1.2 2.3 3.2 3.7 5.3 4.3 1 0.3 2.1 0.4 3.1 0.4q0.3 0 0.6 0 0.2 0 0.5 0c0.3-0.1 0.5-0.3 0.6-0.6q0-0.1 0-0.2 0 0 0-0.1v-0.2c0.2-1.9 0.3-4.8 0.3-4.8 0.6 0.4 4.1 2.3 4.1 1.3 0.2-8.3 0.5-17.6-1.1-26 0-0.3-0.5-0.2-0.5 0.1-0.5 8 0.4 16 0 24.1-1.1-0.6-2.9-1.5-3.9-1.6-0.3 0.1 0 5.7-0.2 6.5q0 0 0 0.1c-3.3 0.2-5.6-1-8.5-3.5-0.2-0.1-0.4 0-0.3 0.2z"/>
								</g>
							</g>
							<g id="&lt;Group&gt;">
								<path id="&lt;Path&gt;" class="s3" d="m328.3 303.9c0 0-1.9 2.2-4.3 2.8-0.9 0.3-1.8 0.3-2.7 0-2-0.7-1.9-2.6-1.4-4.1 0.4-1.3 1.1-2.3 1.1-2.3 0 0 2.7 3 7.3 3.6z"/>
								<path id="&lt;Path&gt;" class="s10" d="m324 306.7c-0.9 0.3-1.8 0.3-2.7 0-2-0.7-1.9-2.6-1.4-4.1 2.1 0.4 4.1 2 4.1 4.1z"/>
							</g>
						</g>
						<g id="&lt;Group&gt;">
							<path id="&lt;Path&gt;" class="s3" d="m289.6 288c6.7 0.4 8-16.1 8-16.1 0 0 10.5-0.6 17.2-14.1 0 0 12.3 9.8 23.6 9.1 17.8-1.1 20-23.7 14-29.1-8.4-7.6-26 0-26 0 0 0-24-9.9-33.4 6 0 0-11.1-0.8-13.4 11.3-2.2 12.2 4.9 32.6 10 32.9z"/>
							<path id="&lt;Path&gt;" class="s3" d="m295 273.5c5.1-0.3 10-2.1 13.8-5.5 4-3.6 6.7-9.4 5.8-14.7 0-0.3 0.4-0.4 0.5-0.1 0.5 5.9-0.5 11.8-4.8 16.2-3.8 4-9.8 6.1-15.3 4.6-0.3 0-0.3-0.4 0-0.5z"/>
							<path id="&lt;Path&gt;" class="s3" d="m279.6 247.9c3.9-4 9.3-4 14.4-3.2 0.3 0 0.2 0.5-0.1 0.4-5-1.2-10.5 1.6-13.7 5.5-3 3.7-3.1 8.9-2.5 13.6 0.9 8.9 5.1 17.3 11.8 23.2 0.1 0.1 0 0.3-0.1 0.2-7.7-6.3-12.8-15.6-13.4-25.5-0.3-4.8 0-10.6 3.6-14.2z"/>
							<path id="&lt;Path&gt;" class="s3" d="m325.7 238.5c2.7-3.3 6.2-5.5 10.4-6.2 4.8-0.8 10.1 0.5 14.2 3.2 3.5 2.3 5.1 6.3 4.9 10.5-0.3 4.7-3 8.9-6.1 12.3-0.1 0.1-0.2-0.1-0.2-0.2 2.6-3.2 4.7-7 5-11.2 0.2-4.2-1.6-8-5.1-10.1-6.8-4-17.3-4.7-22.8 2-0.2 0.2-0.5-0.1-0.3-0.3z"/>
						</g>
						<g id="&lt;Group&gt;">
							<path id="&lt;Compound Path&gt;" fill-rule="evenodd" class="s6" d="m315.9 295.8c-4.7-1-8.3-5.1-8.4-10.1-0.3-5.9 4.3-10.9 10.2-11.1 5.9-0.2 10.9 4.4 11.2 10.3 0.2 5.9-4.4 10.9-10.3 11.1q-1.4 0-2.7-0.2zm4.2-19.6q-1.1-0.2-2.3-0.2c-5.1 0.2-9.1 4.5-8.9 9.6 0.2 5.2 4.5 9.2 9.6 9 5.1-0.2 9.1-4.6 8.9-9.7-0.1-4.3-3.3-7.8-7.3-8.7z"/>
							<path id="&lt;Compound Path&gt;" fill-rule="evenodd" class="s6" d="m340.4 297.9c-4-0.8-6.8-5.7-6.3-11.3 0.3-2.8 1.4-5.3 3-7.2 1.7-1.9 3.8-2.9 6-2.7 2.2 0.2 4.1 1.5 5.4 3.8 1.2 2.1 1.8 4.8 1.5 7.6-0.5 5.9-4.5 10.3-8.9 9.9q-0.4 0-0.7-0.1zm3.1-19.7q-0.3 0-0.5-0.1c-1.7-0.1-3.4 0.7-4.8 2.2-1.5 1.7-2.4 4-2.6 6.5-0.5 5.1 2 9.5 5.6 9.8 3.6 0.3 6.9-3.5 7.4-8.6 0.2-2.5-0.3-4.9-1.4-6.8-0.9-1.6-2.2-2.7-3.7-3z"/>
							<path id="&lt;Path&gt;" class="s6" d="m328.4 286.1l-0.8-1.2c1.7-1.2 5.6-2.7 8 0.3l-1.2 0.9c-2.1-2.7-5.9-0.1-6 0z"/>
							<path id="&lt;Path&gt;" class="s6" d="m280.6 284.3l-1.2-0.7c0.4-0.6 3.6-5.5 6.9-5.7 3-0.2 21.9 3.4 22.7 3.5l-0.2 1.4c-5.5-1-20.1-3.7-22.4-3.5-2.2 0.1-4.9 3.7-5.8 5z"/>
						</g>
						<g id="&lt;Group&gt;">
							<path id="&lt;Path&gt;" class="s9" d="m293.2 285.9c0 0-5.7-13.2-11.5-11.4-5.9 1.8-3.2 19.8 2.5 23.4 5.7 3.6 9-1.6 9-1.6z"/>
							<path id="&lt;Path&gt;" class="s3" d="m282.5 279.7c-0.1-0.1-0.1 0.1 0 0.1 3.9 2.7 5.4 7.1 6.1 11.6-0.9-1.8-2.5-3.1-4.9-2-0.2 0.1-0.1 0.3 0 0.3 1.9-0.1 3.1 0.5 4 2.2 0.6 1.2 1 2.5 1.3 3.8 0.1 0.5 0.9 0.4 0.8-0.1q0 0 0-0.1c1.3-5.5-1.5-14.1-7.3-15.8z"/>
						</g>
					</g>
				</g>
				<path id="&lt;Path&gt;" class="s3" d="m279.4 336.6c1 1.8 1.9 3.7 3 5.5q1.7 2.8 3.7 5.3c2.5 3.3 5.4 6.3 8.6 8.9 3.4 2.9 7.3 5.4 11.8 5.6 4.3 0.3 7.9-1.8 10.2-5.4 2.9-4.4 2.9-9.9 2.9-15.3 0-0.2 0.3-0.2 0.3 0 0.1 5.6 0.2 10.1-1.9 14.8-1.6 3.8-4.7 6.7-8.8 7.4-9.4 1.6-17.2-6.7-22.4-13.5q-2.3-3-4.2-6.2c-1.3-2.3-2.6-4.6-3.5-7-0.1-0.2 0.2-0.3 0.3-0.1z"/>
			</g>
		</g>
	</g>
	<g id="Desk">
		<g id="&lt;Group&gt;">
			<g id="&lt;Group&gt;">
				<path id="&lt;Path&gt;" class="s7" d="m141.5 545.9h717v-25.5h-717z"/>
			</g>
			<g id="&lt;Group&gt;">
				<path id="&lt;Path&gt;" class="s5" d="m141.5 545.9h717v-10h-717z"/>
			</g>
			<g id="&lt;Group&gt;">
				<path id="&lt;Path&gt;" class="s5" d="m832.8 903.7h10.3l-30-357.8h-26.3z"/>
				<path id="&lt;Path&gt;" class="s3" d="m786.8 545.9l3.1 23.9h25.2l-2-23.9z"/>
			</g>
			<g id="&lt;Group&gt;">
				<path id="&lt;Path&gt;" class="s5" d="m167.2 903.7h-10.3l30-357.8h26.3z"/>
				<path id="&lt;Path&gt;" class="s3" d="m213.2 545.9l-3.1 23.9h-25.2l2-23.9z"/>
			</g>
		</g>
	</g>
	<g id="Device">
		<g id="&lt;Group&gt;">
			<g id="&lt;Group&gt;">
				<path id="&lt;Path&gt;" class="s2" d="m366.5 513.4v7h156.1v-7z"/>
				<path id="&lt;Path&gt;" class="s8" d="m444 513.4v7h78.6v-7z"/>
			</g>
			<g id="&lt;Group&gt;">
				<path id="&lt;Path&gt;" class="s2" d="m452.5 520.4h152.1l19.9-103.3h-152.1z"/>
				<path id="&lt;Path&gt;" class="s8" d="m529.3 468.7c-0.5 5.1 3.3 9.3 8.4 9.3 5.1 0 9.6-4.2 10.1-9.3 0.4-5.1-3.4-9.2-8.5-9.2-5.1 0-9.6 4.1-10 9.2z"/>
			</g>
		</g>
	</g>
	<g id="Plant">
		<g id="&lt;Group&gt;">
			<g id="&lt;Group&gt;">
				<g id="&lt;Group&gt;">
					<path id="&lt;Path&gt;" class="s6" d="m804.6 708.2c-18.3 24.7-37.3 53.4-42 84.4 0 0.5 0.7 0.7 0.9 0.2q3.1-12.7 8-24.8c12-3.3 23.8-6.1 30.1-18 6.5-12.2 5.6-28.2 4.4-41.5-0.1-0.8-1-0.8-1.4-0.3z"/>
					<g id="&lt;Group&gt;">
						<path id="&lt;Path&gt;" class="s3" d="m771.7 767.7c8.2-18.4 18.7-36.9 32.1-52 0.1-0.1 0.3 0 0.2 0.1-8.8 10.8-15.4 22.6-21.9 34.5 6-6.1 12.6-11.6 18.4-18.1 0.1-0.2 0.2 0 0.1 0.1-5.6 6.9-11.9 14.3-19.3 19.3q-3 5.5-6 11.1 0.8-0.4 1.5-0.8c0.1-0.1 0.2 0.1 0.1 0.1-0.6 0.3-1.1 0.6-1.7 0.9q-1.4 2.6-2.9 5.2c-0.2 0.4-0.8 0-0.6-0.4z"/>
						<path id="&lt;Path&gt;" class="s3" d="m777.8 761.3c4.9-2.8 9.6-5.8 14-9.4 0.2 0 0.3 0.1 0.2 0.2-4.3 3.7-8.9 7-14 9.6-0.2 0.1-0.4-0.3-0.2-0.4z"/>
					</g>
				</g>
				<g id="&lt;Group&gt;">
					<path id="&lt;Path&gt;" class="s6" d="m760.5 788c0.1 0.4 0.7 0.4 0.7 0 0.1-10.2 0-20.5 0.2-30.7 2.6-5.3 8.2-8.2 12.1-12.5 2.8-3 5.2-6.5 7.3-10.1 4.8-8.7 7.4-18.4 8.4-28.2 1.1-10.9-3-47-7.6-45.7-2.4 0.6-10.2 18.5-12.2 24.4-3.4 9.7-5.7 19.8-7.3 29.9-3.7 24.1-3.4 48.7-1.6 72.9z"/>
					<g id="&lt;Group&gt;">
						<path id="&lt;Path&gt;" class="s3" d="m760.5 744q0-0.1 0-0.1c0.6-12.9 3.5-26 6.2-38.5 2.9-13.5 6.4-26.2 13.3-38.3 0.2-0.2 0.5 0 0.4 0.2-4.8 9.4-8.1 19.3-10.7 29.4 0.4-0.7 1-1.4 1.5-2.1 0.2-0.3 0.6 0 0.4 0.3-0.6 1-1.3 2.2-2.1 3q-0.1 0.1-0.1 0.1c-2.4 9.6-4.1 19.5-5.6 29.4q0.2-0.2 0.3-0.4c0.1-0.1 0.2 0 0.2 0.1q-0.3 0.5-0.6 1c-0.8 5-1.4 10-2.1 14.9 8.9-7.6 16.5-16.6 20.8-27.6 0-0.1 0.1-0.1 0 0-4.2 11.5-10.8 21.7-21 28.6q-0.3 2-0.5 4c-0.1 0.3-0.5 0.2-0.5-0.1 0-1.1 0-2.3 0.1-3.5-0.1-0.1-0.2-0.3 0-0.4z"/>
						<path id="&lt;Path&gt;" class="s3" d="m764.7 725.2c6.8-10.1 13.1-20 18.1-31.2 0-0.1 0.3 0 0.2 0.1-4.2 11.1-10.1 22.4-18 31.4-0.2 0.2-0.5-0.1-0.3-0.3z"/>
						<path id="&lt;Path&gt;" class="s3" d="m773.7 691.5c2.8-5 5.8-9.8 8.4-14.9 0.1-0.2 0.3 0 0.2 0.1-2.2 5.2-4.8 10.5-8.2 15-0.2 0.3-0.6 0.1-0.4-0.2z"/>
						<path id="&lt;Path&gt;" class="s3" d="m772.6 693.7c0 0 0 0 0 0-0.1 0-0.1 0 0 0z"/>
					</g>
				</g>
				<g id="&lt;Group&gt;">
					<path id="&lt;Path&gt;" class="s6" d="m753.6 758.5c-0.2 6.8-0.9 13.5-2.4 20.1q0.2 1.1 0.3 2.2c2.2-7.3 3.3-14.8 3.6-22.4 0.2-0.2 0.2-0.5 0.1-0.7q0 0 0 0c0.4-10.2-0.6-20.4-2.3-30.4-3.1-18.8-10.1-36.8-23.1-50.9-0.5-0.4-1.3-0.2-1.5 0.3-5.3 13.4-3.4 29.5 1.1 42.9 2.4 7.2 5.9 14.1 10.4 20.3 4.4 6.4 10.2 11.7 13.8 18.6z"/>
					<g id="&lt;Group&gt;">
						<path id="&lt;Path&gt;" class="s3" d="m731.3 682.7c12.4 20.1 21 44 22.1 67.8 0 0.4-0.7 0.5-0.7 0.1q-0.5-3.2-1-6.4 0 0 0 0c-5.2-4.9-10.4-10.1-14.1-16.2-0.1-0.1 0.1-0.3 0.2-0.2 4.4 5.2 8.6 10.4 13.6 14.9q-1.3-7.9-3.1-15.5-0.5-0.6-1-1.2c-0.2-0.2 0.1-0.6 0.3-0.3q0.2 0.1 0.3 0.3-2.6-10.5-6.5-20.6c-3.1-3.8-6.6-7-8.9-11.6-0.1-0.1 0.1-0.2 0.1-0.1 1.9 2.6 3.7 5.3 5.8 7.7 0.8 0.9 1.7 1.8 2.6 2.8-2.8-7.2-6.2-14.3-10.2-21.2-0.2-0.3 0.3-0.6 0.5-0.3z"/>
						<path id="&lt;Path&gt;" class="s3" d="m733.8 707.5c4 5.4 8.6 10.6 12.3 16.2 0.1 0.1-0.1 0.3-0.2 0.2-4.8-4.5-8.9-10.7-12.4-16.2-0.1-0.2 0.2-0.3 0.3-0.2z"/>
						<path id="&lt;Path&gt;" class="s3" d="m746.7 724.9l0.2 0.2c0.1 0.1-0.1 0.3-0.2 0.2l-0.2-0.2c-0.1-0.1 0.1-0.3 0.2-0.2z"/>
					</g>
				</g>
				<g id="&lt;Group&gt;">
					<path id="&lt;Path&gt;" class="s6" d="m711.9 721.4c1 10.4 6.4 22.8 13.1 30.7 2.9 3.6 6.5 6.3 10.6 8.3 4.6 2.3 9.4 4.9 14.1 6.8 2.3 5.7 4 11.6 5.1 17.8q0.2-0.8 0.4-1.6c-3-26.2-20-48.6-41.7-63-0.8-0.5-1.7 0.1-1.6 1z"/>
					<g id="&lt;Group&gt;">
						<path id="&lt;Path&gt;" class="s3" d="m719.4 729.2c-0.2-0.2 0-0.4 0.2-0.3 11.5 8.5 21.9 20.9 27.7 34.1 0.1 0.3-0.4 0.6-0.6 0.3q-1.5-2.7-3.1-5.2 0 0 0 0c-4.9-0.9-9.6-4.4-13.3-7.7-0.1-0.1 0-0.3 0.1-0.2 2 1.7 4 3.3 6.3 4.4 2 1.1 4.2 1.7 6.3 2.5q-2.8-4.3-5.8-8.4c-5.3-1.8-10.4-5.1-14.8-8.4-0.2-0.1-0.1-0.3 0.1-0.2 4.6 2.7 9.1 5.2 13.8 7.4-3-4-6.2-7.8-9.7-11.4-1.7-0.9-3.4-1.8-5.1-2.7-0.1-0.1 0-0.3 0.1-0.3 1.3 0.4 2.7 1.1 3.9 1.9-2-2-4-3.9-6.1-5.8z"/>
						<path id="&lt;Path&gt;" class="s3" d="m719.8 738.2c0.3 0.2 0.6 0.4 0.9 0.6 0 0.1-0.1 0.2-0.1 0.2-0.4-0.2-0.6-0.4-0.9-0.5-0.2-0.1 0-0.4 0.1-0.3z"/>
					</g>
				</g>
			</g>
			<g id="&lt;Group&gt;">
				<g id="&lt;Group&gt;">
					<path id="&lt;Path&gt;" class="s5" d="m789.1 841.8h-59.5l4.8-54.2 1.1-11.9h47.8l1 11.9z"/>
					<path id="&lt;Path&gt;" class="s3" d="m784.3 787.6h-49.9l1.1-11.9h47.8z"/>
				</g>
				<path id="&lt;Path&gt;" class="s5" d="m786.1 779.2h-53.5v-11.9h53.5z"/>
			</g>
		</g>
	</g>
	<g id="Coins">
		<g id="&lt;Group&gt;">
			<g id="&lt;Group&gt;">
				<path id="&lt;Path&gt;" class="s6" d="m400.1 112.8c-60.7 0-60.8 86.4 0 86.4 60.7 0 60.8-86.4 0-86.4z"/>
				<path id="&lt;Path&gt;" class="s6" d="m437.1 164.1c-3.3 14.8-15.6 27.7-37 27.7-50.4 0-50.4-71.6 0-71.6q0.5 0 1 0c-47.4 0.8-47.2 68.7 0.9 68.7 19.7 0 31.4-11.4 35.1-24.8z"/>
				<path id="&lt;Path&gt;" class="s11" d="m437.1 164.1c-3.3 14.8-15.6 27.7-37 27.7-50.4 0-50.4-71.6 0-71.6q0.5 0 1 0c-47.4 0.8-47.2 68.7 0.9 68.7 19.7 0 31.4-11.4 35.1-24.8z"/>
				<g id="&lt;Group&gt;">
					<path id="&lt;Compound Path&gt;" fill-rule="evenodd" class="s6" d="m400.5 129.6c0.8 0 1.6 0.7 1.6 1.4v2.5c4.7 0.3 8.1 1.8 11.7 4.2 0.6 0.4 0.9 0.7 0.9 1.3 0 0.9-0.8 1.5-1.7 1.5-0.4 0-0.7 0-1.2-0.4-3.2-2.3-6.4-3.5-9.9-3.9v16.8c10 2 14.2 5.4 14.2 11.3 0 6.4-5.8 10.9-14 11.1v4.7c0 0.8-0.8 1.4-1.6 1.4-0.9 0-1.6-0.6-1.6-1.4v-4.8c-5.7-0.4-10.4-2.3-14.8-5.8-0.4-0.3-0.7-0.7-0.7-1.2 0-0.8 0.8-1.6 1.7-1.6 0.5 0 0.9 0.3 1.1 0.5 3.7 3.1 7.7 5 12.8 5.4v-17.1c-9.8-2-13.9-5.3-13.9-11.3 0-6.1 5.8-10.7 13.8-10.9v-2.3c0-0.7 0.7-1.4 1.6-1.4zm-1.5 22.8v-16.4c-6.3 0.2-10.5 3.6-10.5 8 0 4.1 2.1 6.6 10.5 8.4zm2.9 3.7v16.6c6.6-0.1 10.9-3.6 10.9-8.2 0-4.1-2.3-6.6-10.9-8.4z"/>
				</g>
				<g id="&lt;Group&gt;" style="opacity: .1">
					<path id="&lt;Compound Path&gt;" fill-rule="evenodd" class="s12" d="m400.5 129.6c0.8 0 1.6 0.7 1.6 1.4v2.5c4.7 0.3 8.1 1.8 11.7 4.2 0.6 0.4 0.9 0.7 0.9 1.3 0 0.9-0.8 1.5-1.7 1.5-0.4 0-0.7 0-1.2-0.4-3.2-2.3-6.4-3.5-9.9-3.9v16.8c10 2 14.2 5.4 14.2 11.3 0 6.4-5.8 10.9-14 11.1v4.7c0 0.8-0.8 1.4-1.6 1.4-0.9 0-1.6-0.6-1.6-1.4v-4.8c-5.7-0.4-10.4-2.3-14.8-5.8-0.4-0.3-0.7-0.7-0.7-1.2 0-0.8 0.8-1.6 1.7-1.6 0.5 0 0.9 0.3 1.1 0.5 3.7 3.1 7.7 5 12.8 5.4v-17.1c-9.8-2-13.9-5.3-13.9-11.3 0-6.1 5.8-10.7 13.8-10.9v-2.3c0-0.7 0.7-1.4 1.6-1.4zm-1.5 22.8v-16.4c-6.3 0.2-10.5 3.6-10.5 8 0 4.1 2.1 6.6 10.5 8.4zm2.9 3.7v16.6c6.6-0.1 10.9-3.6 10.9-8.2 0-4.1-2.3-6.6-10.9-8.4z"/>
				</g>
			</g>
			<g id="&lt;Group&gt;">
				<path id="&lt;Path&gt;" class="s6" d="m893.5 328c-54.7 9.8-40.3 90.8 14.5 81 54.7-9.8 40.2-90.8-14.5-81z"/>
				<path id="&lt;Path&gt;" class="s11" d="m893.5 328c-54.7 9.8-40.3 90.8 14.5 81 54.7-9.8 40.2-90.8-14.5-81z"/>
				<path id="&lt;Path&gt;" class="s6" d="m898.6 327.1c-52.1 9.3-37.7 90.3 14.5 81 52.1-9.4 37.7-90.4-14.5-81z"/>
				<path id="&lt;Path&gt;" class="s6" d="m938.9 369.5c-0.3 14.4-8.7 28.4-27 31.7-43.3 7.8-55.3-59.5-12.1-67.2q0.5-0.1 0.9-0.2c-40.6 8.2-28.9 71.8 12.3 64.4 16.9-3.1 25-15.5 25.9-28.7z"/>
				<path id="&lt;Path&gt;" class="s11" d="m938.9 369.5c-0.3 14.4-8.7 28.4-27 31.7-43.3 7.8-55.3-59.5-12.1-67.2q0.5-0.1 0.9-0.2c-40.6 8.2-28.9 71.8 12.3 64.4 16.9-3.1 25-15.5 25.9-28.7z"/>
				<g id="&lt;Group&gt;">
					<path id="&lt;Compound Path&gt;" fill-rule="evenodd" class="s6" d="m909 342.8c0.7 0 1.3 0.7 1.2 1.5l-0.3 2.3c4.1 0.8 6.9 2.5 9.7 5.1 0.5 0.5 0.7 0.9 0.6 1.4-0.1 0.8-0.8 1.4-1.6 1.3-0.4-0.1-0.6-0.2-1-0.5-2.5-2.6-5.1-4-8.1-4.7l-1.9 15.9c8.5 2.8 11.7 6.5 11.1 12.1-0.7 6-6.3 9.7-13.4 9.1l-0.6 4.4c0 0.7-0.7 1.3-1.5 1.2-0.7-0.1-1.3-0.8-1.2-1.5l0.5-4.5c-4.9-1-8.7-3.3-12.1-7-0.4-0.4-0.6-0.8-0.5-1.3 0.1-0.8 0.9-1.4 1.6-1.3 0.5 0.1 0.8 0.4 1 0.5 2.8 3.4 6.1 5.6 10.5 6.5l1.9-16.2c-8.3-2.9-11.5-6.4-10.8-12.1 0.6-5.7 6.2-9.5 13.1-8.9l0.3-2.1c0.1-0.8 0.8-1.3 1.5-1.2zm-3.8 21.4l1.8-15.5c-5.5-0.5-9.5 2.3-10 6.4-0.5 3.9 1.1 6.5 8.2 9.1zm2.1 3.8l-1.8 15.7c5.7 0.5 9.7-2.3 10.2-6.7 0.5-3.9-1.2-6.5-8.4-9z"/>
				</g>
				<g id="&lt;Group&gt;" style="opacity: .1">
					<path id="&lt;Compound Path&gt;" fill-rule="evenodd" class="s12" d="m909 342.8c0.7 0 1.3 0.7 1.2 1.5l-0.3 2.3c4.1 0.8 6.9 2.5 9.7 5.1 0.5 0.5 0.7 0.9 0.6 1.4-0.1 0.8-0.8 1.4-1.6 1.3-0.4-0.1-0.6-0.2-1-0.5-2.5-2.6-5.1-4-8.1-4.7l-1.9 15.9c8.5 2.8 11.7 6.5 11.1 12.1-0.7 6-6.3 9.7-13.4 9.1l-0.6 4.4c0 0.7-0.7 1.3-1.5 1.2-0.7-0.1-1.3-0.8-1.2-1.5l0.5-4.5c-4.9-1-8.7-3.3-12.1-7-0.4-0.4-0.6-0.8-0.5-1.3 0.1-0.8 0.9-1.4 1.6-1.3 0.5 0.1 0.8 0.4 1 0.5 2.8 3.4 6.1 5.6 10.5 6.5l1.9-16.2c-8.3-2.9-11.5-6.4-10.8-12.1 0.6-5.7 6.2-9.5 13.1-8.9l0.3-2.1c0.1-0.8 0.8-1.3 1.5-1.2zm-3.8 21.4l1.8-15.5c-5.5-0.5-9.5 2.3-10 6.4-0.5 3.9 1.1 6.5 8.2 9.1zm2.1 3.8l-1.8 15.7c5.7 0.5 9.7-2.3 10.2-6.7 0.5-3.9-1.2-6.5-8.4-9z"/>
				</g>
			</g>
			<g id="&lt;Group&gt;">
				<path id="&lt;Path&gt;" class="s6" d="m851.6 412.3c44.2 7.9 32.6 73.4-11.7 65.4-44.2-7.9-32.5-73.4 11.7-65.4z"/>
				<path id="&lt;Path&gt;" class="s11" d="m851.6 412.3c44.2 7.9 32.6 73.4-11.7 65.4-44.2-7.9-32.5-73.4 11.7-65.4z"/>
				<path id="&lt;Path&gt;" class="s6" d="m847.5 411.5c42.1 7.6 30.4 73.1-11.7 65.5-42.2-7.6-30.5-73 11.7-65.5z"/>
				<path id="&lt;Path&gt;" class="s6" d="m814.9 445.8c0.2 11.7 7 23 21.9 25.6 35 6.3 44.7-48 9.7-54.3q-0.3-0.1-0.7-0.1c32.8 6.5 23.4 58-10 52-13.6-2.5-20.2-12.5-20.9-23.2z"/>
				<path id="&lt;Path&gt;" class="s11" d="m814.9 445.8c0.2 11.7 7 23 21.9 25.6 35 6.3 44.7-48 9.7-54.3q-0.3-0.1-0.7-0.1c32.8 6.5 23.4 58-10 52-13.6-2.5-20.2-12.5-20.9-23.2z"/>
				<g id="&lt;Group&gt;">
					<path id="&lt;Compound Path&gt;" fill-rule="evenodd" class="s6" d="m844.1 421.9c0.6 0.1 1 0.7 0.9 1.3l-0.3 1.8c3.2 0.9 5.3 2.4 7.5 4.7 0.3 0.4 0.5 0.7 0.4 1.1-0.1 0.7-0.8 1.1-1.4 1-0.3-0.1-0.5-0.2-0.8-0.5-1.9-2.2-3.9-3.5-6.2-4.2l-2.4 12.7c6.6 2.7 9.1 5.9 8.2 10.3-0.9 4.9-5.5 7.5-11.3 6.6l-0.6 3.6c-0.1 0.6-0.7 1-1.3 0.9-0.6-0.1-1-0.7-0.9-1.3l0.7-3.6c-3.9-1.1-6.9-3.1-9.5-6.3-0.2-0.4-0.4-0.7-0.3-1.1 0.1-0.6 0.8-1 1.4-0.9 0.4 0.1 0.6 0.3 0.7 0.5 2.1 2.8 4.6 4.7 8.1 5.8l2.4-13c-6.5-2.8-8.9-5.8-8-10.4 0.8-4.6 5.5-7.3 11.1-6.4l0.3-1.7c0.1-0.6 0.7-1 1.3-0.9zm-4.2 17.1l2.3-12.5c-4.4-0.7-7.8 1.4-8.5 4.7-0.5 3.1 0.6 5.3 6.2 7.8zm1.5 3.1l-2.4 12.6c4.6 0.7 8-1.3 8.7-4.8 0.6-3.1-0.7-5.4-6.3-7.8z"/>
				</g>
				<g id="&lt;Group&gt;" style="opacity: .1">
					<path id="&lt;Compound Path&gt;" fill-rule="evenodd" class="s12" d="m844.1 421.9c0.6 0.1 1 0.7 0.9 1.3l-0.3 1.8c3.2 0.9 5.3 2.4 7.5 4.7 0.3 0.4 0.5 0.7 0.4 1.1-0.1 0.7-0.8 1.1-1.4 1-0.3-0.1-0.5-0.2-0.8-0.5-1.9-2.2-3.9-3.5-6.2-4.2l-2.4 12.7c6.6 2.7 9.1 5.9 8.2 10.3-0.9 4.9-5.5 7.5-11.3 6.6l-0.6 3.6c-0.1 0.6-0.7 1-1.3 0.9-0.6-0.1-1-0.7-0.9-1.3l0.7-3.6c-3.9-1.1-6.9-3.1-9.5-6.3-0.2-0.4-0.4-0.7-0.3-1.1 0.1-0.6 0.8-1 1.4-0.9 0.4 0.1 0.6 0.3 0.7 0.5 2.1 2.8 4.6 4.7 8.1 5.8l2.4-13c-6.5-2.8-8.9-5.8-8-10.4 0.8-4.6 5.5-7.3 11.1-6.4l0.3-1.7c0.1-0.6 0.7-1 1.3-0.9zm-4.2 17.1l2.3-12.5c-4.4-0.7-7.8 1.4-8.5 4.7-0.5 3.1 0.6 5.3 6.2 7.8zm1.5 3.1l-2.4 12.6c4.6 0.7 8-1.3 8.7-4.8 0.6-3.1-0.7-5.4-6.3-7.8z"/>
				</g>
			</g>
		</g>
	</g>
</svg>