<svg version="1.2" xmlns="http://www.w3.org/2000/svg" viewBox="0 0 1000 1000" width="1000" height="1000">
	<title>4855099-ai</title>
	<style>
		.s0 { fill: #f5f5f5 } 
		.s1 { fill: #e0e0e0 } 
		.s2 { fill: #ba68c8 } 
		.s3 { opacity: .3;fill: #ffffff } 
		.s4 { fill: #ffffff } 
		.s5 { opacity: .7;fill: #ffffff } 
		.s6 { fill: #263238 } 
		.s7 { opacity: .2;fill: #ffffff } 
		.s8 { opacity: .5;fill: #ffffff } 
		.s9 { opacity: .1;fill: #000000 } 
		.s10 { opacity: .5;fill: #ffffff;stroke: #ffffff;stroke-miterlimit:10;stroke-width: 2 } 
		.s11 { opacity: .5;fill: #ffffff;stroke: #ffffff;stroke-miterlimit:10;stroke-width: 2.3 } 
		.s12 { opacity: .3;fill: #000000 } 
		.s13 { opacity: .5;fill: #000000 } 
		.s14 { opacity: .4;fill: #000000 } 
		.s15 { fill: #37474f } 
		.s16 { fill: #fafafa } 
		.s17 { fill: #f0f0f0 } 
		.s18 { fill: #000000 } 
		.s19 { fill: #455a64 } 
		.s20 { opacity: .9;fill: #ffffff } 
		.s21 { opacity: .3;fill: #ba68c8 } 
		.s22 { fill: #ebebeb } 
		.s23 { opacity: .5;fill: #37474f } 
		.s24 { opacity: .2;fill: #000000 } 
		.s25 { fill: #c8856a } 
		.s26 { fill: #af6152 } 
		.s27 { fill: #f28f8f } 
	</style>
	<g id="Floor">
		<path id="Floor 10 " class="s0" d="m165.9 904.7c-184.6-106.6-184.6-279.3 0-385.9 184.5-106.5 483.7-106.5 668.2 0.1 184.6 106.5 184.6 279.2 0 385.8-184.5 106.5-483.7 106.5-668.2 0z"/>
	</g>
	<g id="Shadows">
		<path id="Shadow 44 " class="s1" d="m242.2 912.9l-19.6-11.5c-3-1.7-8-1.7-11 0l-30.4 17.5c-3 1.8-7.9 1.8-11 0l-102.8-59.3c-3-1.8-3-4.6 0-6.4l340.8-196.7c3-1.8 8-1.8 11 0l102.8 59.3c3.1 1.8 3.1 4.7 0 6.4l-30.4 17.9c-3 1.8-3 4.6 0.1 6.4l19.5 11.1c3.1 1.8 3.1 4.6 0 6.4l-258 148.9c-3 1.8-8 1.8-11 0z"/>
		<path id="Shadow 43 " class="s1" d="m863.9 770.3c64.1 37.1 64.1 97.1 0 134.1-64.1 37-168.1 37-232.2 0-64.2-37-64.2-97 0-134.1 64.1-37 168.1-37 232.2 0z"/>
	</g>
	<g id="Plants">
		<g id="Plants 9 ">
			<g id="&lt;Group&gt;">
				<g id="&lt;Group&gt;">
					<path id="&lt;Path&gt;" class="s2" d="m880.2 789.8c1.5-21.4-0.1-43.2 13.2-72.7 11.2-24.8 29.7-44.3 50.7-45.8 8.7-0.6 15 1.4 18.7 7.6 6.4 10.9-3.1 22.6-13.4 29.3-4.5 3-41.6 22.2-51.8 64.8l-4.5 24.2-1.4-0.8z"/>
					<path id="&lt;Path&gt;" class="s3" d="m880.2 789.8c1.5-21.4-0.1-43.2 13.2-72.7 11.2-24.8 29.7-44.3 50.7-45.8 8.7-0.6 15 1.4 18.7 7.6 6.4 10.9-3.1 22.6-13.4 29.3-4.5 3-41.6 22.2-51.8 64.8l-4.5 24.2-1.4-0.8z"/>
				</g>
				<g id="&lt;Group&gt;">
					<path id="&lt;Path&gt;" class="s4" d="m887 782.4c0.4 0 0.7-0.3 0.8-0.8 6.6-51.8 26.3-82.8 62.2-94.9 0.5-0.2 0.7-0.8 0.4-1.3-0.2-0.5-0.7-0.6-1.2-0.5-36.2 11.6-56.6 44-63.3 96.5-0.1 0.5 0.3 1 0.8 1q0.1 0.1 0.3 0z"/>
				</g>
			</g>
			<g id="&lt;Group&gt;">
				<g id="&lt;Group&gt;">
					<path id="&lt;Path&gt;" class="s2" d="m900.1 801.4c1.5-7.5 5.5-16.1 20.6-32.6 13.1-14.3 33.4-22.3 37.4-31.2 4.8-10.7-3.8-20.5-20.2-18.4-19.6 2.6-39.7 31.9-47 76.7z"/>
					<path id="&lt;Path&gt;" class="s5" d="m900.1 801.4c1.5-7.5 5.5-16.1 20.6-32.6 13.1-14.3 33.4-22.3 37.4-31.2 4.8-10.7-3.8-20.5-20.2-18.4-19.6 2.6-39.7 31.9-47 76.7z"/>
				</g>
				<g id="&lt;Group&gt;">
					<path id="&lt;Path&gt;" class="s4" d="m895.5 794.8c0.3 0 0.7-0.3 0.8-0.6 10.6-38.9 35.5-60.2 48.7-63 0.5-0.1 0.8-0.6 0.7-1.1-0.1-0.5-0.6-0.9-1.1-0.8-14.6 3.1-39.3 24.7-50.2 64.4-0.1 0.5 0.2 1 0.7 1.1q0.2 0.1 0.4 0z"/>
				</g>
			</g>
		</g>
		<g id="Plants 8 ">
			<g id="Leaves 1 ">
				<path id="&lt;Path&gt;" class="s2" d="m115.6 681.4c0 0-11.2-15.5-7.4-41.9 3-21.1 12-29.8 14.1-29.1 2.2 0.7 4.4 9.9 1.3 33.5-1.3 9.8-8 37.5-8 37.5z"/>
				<path id="&lt;Path&gt;" class="s2" d="m120.3 717.9c-0.4-2.2 0.8-23.6 8.6-44.9 4.2-11.4 9.6-15.9 11.6-14.1 1.2 1.1 2.5 10.4-3.8 27.6-6.4 17.3-16 33.5-16.4 31.4z"/>
				<path id="&lt;Path&gt;" class="s2" d="m117 698.7c-0.2-2.3-4-8.9-12.2-18.7-5.5-6.7-11.4-14.8-13.9-13.6-2.6 1.3-0.6 12.2 5.8 19.9 6.4 7.7 20.5 14.7 20.3 12.4z"/>
				<path id="&lt;Path&gt;" class="s2" d="m122.2 729.1c-0.9-2.5-12.6-12-18.1-16.3-5.4-4.3-12.5-8.2-15.9-6.9-3.3 1.4 0.9 9.9 10.7 16.5 9.7 6.5 24.2 9.1 23.3 6.7z"/>
				<path id="&lt;Path&gt;" class="s2" d="m130.5 752.6c-1.3-1.6 0.6-14.3 3.5-26.2 3-11.8 9.3-25.2 12.7-22.3 3.4 2.9 3 11.7-1.3 23.9-4.8 13.5-13.6 26.3-14.9 24.6z"/>
				<path id="&lt;Path&gt;" class="s2" d="m134.5 761.5c0-1.3-9.7-6.2-19.3-12.1-9.3-5.7-13.5-8.2-16-6.1-2.6 2.2-0.5 9.5 10.7 14.9 11.2 5.5 24.7 4.7 24.6 3.3z"/>
				<path id="&lt;Path&gt;" class="s6" d="m118.5 623c-3.4 16.1-4.5 32.6-4.3 49 0.2 16.4 1.8 32.9 5 49 3.3 16.2 7.9 32.3 15.7 46.9 5.1 9.5 11.5 18.6 19.3 26.2 4.1 3.9 4.6 2.2 0.6-2.3-6.7-7.7-12.2-16.4-16.7-25.5-7.2-14.5-12.5-30-16.1-45.9-3.5-15.9-5.5-32.1-6-48.5-0.7-16.3 0-32.7 2.9-48.8 0-0.1-0.1-0.2-0.2-0.2-0.1-0.1-0.2 0-0.2 0.1z"/>
			</g>
			<g id="&lt;Group&gt;">
				<g id="&lt;Group&gt;">
					<g id="&lt;Group&gt;">
						<path id="&lt;Path&gt;" class="s2" d="m97.9 782.3c-1.1-0.6-2.4-0.8-4.2-0.7-17 0.4-34.1 4.5-49.9 10.9 6.1 7.9 11.7 15.3 13.3 25.4 0.3 1.5 0.6 3.2 1.9 3.9 0.7 0.5 1.6 0.5 2.5 0.5q11.9-0.3 23.7-1.9c-6.4 4.3-13.7 7.4-21.3 9-1.1 0.2-2.4 0.5-2.9 1.5-0.4 0.7-0.4 1.5-0.3 2.3 0.5 5.4 1.4 10.8 2.8 16 1.3 5 2.2 9.9 4.4 14.6 1.1 2.3 2.4 4.6 4.2 6.3 4.7 4.7 11.8 3.1 17.6 1.8 6.6-1.4 12.9-4 18.6-7.7-3.7 9.2-13.9 15-23 17.7-0.4 0.1-0.8 0.2-1.1 0.6-0.3 0.3-0.4 0.8-0.4 1.3-0.1 2.5 1.3 4.7 2.8 6.6 7.9 10.4 20.6 16.8 33.6 18.1 9.7 1 19.5-0.8 28.6-4.2 5.7-2.1 14.3-7.3 18.3-17.4 0.4-1.2 0.7-4 1.6-5 0.7-0.7 2.6-0.9 3.7-1.2 3.1-1.1 6-2.6 8.7-4.4 5.2-3.6 9.5-8.6 12.2-14.4 7.3-15.9 1.7-37.2-11.2-48.7-2.4-2.2-7-7-9.4-2.7-1.2 2.1-1.6 4.7-2.5 6.9-0.7 1.6-3 4.4-3.1 6 0.6-9.6-2.4-19.4-8.2-27.1-5.9-7.6-14.6-13-24-14.9-7.4-1.5-15-0.9-22.5-0.3-1.5 0.1-3.4 0.5-4 1.9-0.3 0.6-0.2 1.2-0.2 1.9 0 4.4-0.7 8.8-2.3 12.9-0.4-3.8-1.7-7.6-3.7-10.9-1.4-2.3-2.6-3.8-4.3-4.6z"/>
					</g>
				</g>
				<g id="&lt;Group&gt;" style="opacity: .5">
					<g id="&lt;Group&gt;">
						<path id="&lt;Path&gt;" class="s4" d="m97.9 782.3c-1.1-0.6-2.4-0.8-4.2-0.7-17 0.4-34.1 4.5-49.9 10.9 6.1 7.9 11.7 15.3 13.3 25.4 0.3 1.5 0.6 3.2 1.9 3.9 0.7 0.5 1.6 0.5 2.5 0.5q11.9-0.3 23.7-1.9c-6.4 4.3-13.7 7.4-21.3 9-1.1 0.2-2.4 0.5-2.9 1.5-0.4 0.7-0.4 1.5-0.3 2.3 0.5 5.4 1.4 10.8 2.8 16 1.3 5 2.2 9.9 4.4 14.6 1.1 2.3 2.4 4.6 4.2 6.3 4.7 4.7 11.8 3.1 17.6 1.8 6.6-1.4 12.9-4 18.6-7.7-3.7 9.2-13.9 15-23 17.7-0.4 0.1-0.8 0.2-1.1 0.6-0.3 0.3-0.4 0.8-0.4 1.3-0.1 2.5 1.3 4.7 2.8 6.6 7.9 10.4 20.6 16.8 33.6 18.1 9.7 1 19.5-0.8 28.6-4.2 5.7-2.1 14.3-7.3 18.3-17.4 0.4-1.2 0.7-4 1.6-5 0.7-0.7 2.6-0.9 3.7-1.2 3.1-1.1 6-2.6 8.7-4.4 5.2-3.6 9.5-8.6 12.2-14.4 7.3-15.9 1.7-37.2-11.2-48.7-2.4-2.2-7-7-9.4-2.7-1.2 2.1-1.6 4.7-2.5 6.9-0.7 1.6-3 4.4-3.1 6 0.6-9.6-2.4-19.4-8.2-27.1-5.9-7.6-14.6-13-24-14.9-7.4-1.5-15-0.9-22.5-0.3-1.5 0.1-3.4 0.5-4 1.9-0.3 0.6-0.2 1.2-0.2 1.9 0 4.4-0.7 8.8-2.3 12.9-0.4-3.8-1.7-7.6-3.7-10.9-1.4-2.3-2.6-3.8-4.3-4.6z"/>
					</g>
				</g>
				<g id="&lt;Group&gt;">
					<path id="&lt;Path&gt;" class="s4" d="m92 841.7q0.3 0 0.6-0.2c0.2-0.1 19.7-13.8 46.8-5 0.6 0.2 1.1-0.1 1.3-0.7 0.2-0.5-0.1-1.1-0.6-1.3-28.2-9.1-48.5 5.2-48.7 5.3-0.5 0.3-0.6 1-0.2 1.5 0.2 0.2 0.5 0.4 0.8 0.4z"/>
				</g>
				<g id="&lt;Group&gt;">
					<path id="&lt;Path&gt;" class="s4" d="m166.1 880.3c-0.5 0.1-1-0.2-1.2-0.7-9.5-42.7-60.5-74.6-91.6-81.8-0.6-0.1-0.9-0.6-0.8-1.2 0.1-0.5 0.7-0.8 1.2-0.7 31.6 7.3 83.5 39.9 93.1 83.2 0.2 0.6-0.2 1.1-0.7 1.2q0 0 0 0z"/>
				</g>
			</g>
		</g>
	</g>
	<g id="Wrench">
		<g id="Wrench 1 ">
			<path id="&lt;Path&gt;" class="s2" d="m123.9 117.6c0.1-4.9 4.2-11.8 2.9-15.5l-9.1-5.3-18.3 46-18.7 10.6-9.2-13.4 27.6-41.2-9.1-5.3q-1.8 0.8-3.5 1.8c-20.9 11.9-37.9 41.1-38.1 65.2-0.1 12.2 4.2 20.8 11.1 24.7l9.1 5.3 1-2.8q0.3 0 0.7 0v214c-12.8 14.3-21.8 34.3-21.9 51.8 0 9 2.3 16.1 6.3 20.8l9.1 5.2 9.2-51.2 18.6-10.6 9.3 13.4-18.5 46.5 9.1 5.2c0 0 32.3-48.1 32.4-72.2 0.1-7.1-1.4-13-3.9-17.4l2.3-1.9-9.1-5.3v0.1c-3.2-2-6.9-2.9-11.1-2.8v-213.9c12.8-14.3 21.7-34.3 21.8-51.8z"/>
			<path id="&lt;Path&gt;" class="s7" d="m123.9 117.6c0.1-4.9 4.2-11.8 2.9-15.5l-9.1-5.3-18.3 46-18.7 10.6-9.2-13.4 27.6-41.2-9.1-5.3q-1.8 0.8-3.5 1.8c-20.9 11.9-37.9 41.1-38.1 65.2-0.1 12.2 4.2 20.8 11.1 24.7l9.1 5.3 1-2.8q0.3 0 0.7 0v214c-12.8 14.3-21.8 34.3-21.9 51.8 0 9 2.3 16.1 6.3 20.8l9.1 5.2 9.2-51.2 18.6-10.6 9.3 13.4-18.5 46.5 9.1 5.2c0 0 32.3-48.1 32.4-72.2 0.1-7.1-1.4-13-3.9-17.4l2.3-1.9-9.1-5.3v0.1c-3.2-2-6.9-2.9-11.1-2.8v-213.9c12.8-14.3 21.7-34.3 21.8-51.8z"/>
			<path id="&lt;Path&gt;" class="s2" d="m111.2 388.6v-213.9c12.8-14.3 21.7-34.4 21.9-51.8 0-9.1-2.3-16.1-6.3-20.8l-18.3 46-18.6 10.6-9.3-13.5 18.5-46.4q-1.7 0.8-3.5 1.8c-20.9 11.9-37.9 41-38 65.2-0.2 17.7 8.8 27.7 21.8 27.2v214c-12.8 14.2-21.7 34.3-21.8 51.8-0.1 9 2.2 16.1 6.2 20.7l18.3-45.9 18.7-10.7 9.2 13.5-18.5 46.4q1.8-0.8 3.5-1.8c20.9-11.8 37.9-41 38.1-65.2 0.1-17.7-8.9-27.7-21.9-27.2z"/>
			<path id="&lt;Path&gt;" class="s8" d="m111.2 388.6v-213.9c12.8-14.3 21.7-34.4 21.9-51.8 0-9.1-2.3-16.1-6.3-20.8l-18.3 46-18.6 10.6-9.3-13.5 18.5-46.4q-1.7 0.8-3.5 1.8c-20.9 11.9-37.9 41-38 65.2-0.2 17.7 8.8 27.7 21.8 27.2v214c-12.8 14.2-21.7 34.3-21.8 51.8-0.1 9 2.2 16.1 6.2 20.7l18.3-45.9 18.7-10.7 9.2 13.5-18.5 46.4q1.8-0.8 3.5-1.8c20.9-11.8 37.9-41 38.1-65.2 0.1-17.7-8.9-27.7-21.9-27.2z"/>
			<path id="&lt;Compound Path&gt;" class="s2" d="m96.8 425.2l4.1 5.9-18.5 46.5 9.1 5.2 18.5-46.4-9.2-13.5zm11.7-277.1l18.3-46-9.2-5.2-18.3 45.9-14.6 8.4 5.1 7.5z"/>
			<path id="&lt;Compound Path&gt;" class="s7" d="m96.8 425.2l4.1 5.9-18.5 46.5 9.1 5.2 18.5-46.4-9.2-13.5zm11.7-277.1l18.3-46-9.2-5.2-18.3 45.9-14.6 8.4 5.1 7.5z"/>
			<path id="&lt;Compound Path&gt;" class="s9" d="m96.8 425.2l4.1 5.9-18.5 46.5 9.1 5.2 18.5-46.4-9.2-13.5zm11.7-277.1l18.3-46-9.2-5.2-18.3 45.9-14.6 8.4 5.1 7.5z"/>
		</g>
	</g>
	<g id="Gears">
		<g id="Gears 1 ">
			<g id="&lt;Group&gt;">
				<g id="&lt;Group&gt;">
					<path id="&lt;Compound Path&gt;" fill-rule="evenodd" class="s2" d="m893.4 389.2v23.7c0 1.4-0.9 3.2-2.1 4l-18.7 13.2c-1.2 0.8-2.3 2.6-2.6 4-1.2 5.3-2.8 10.6-4.8 15.9-0.5 1.3 0 3.1 1 4.1l10.6 9.1c1.1 0.9 1.4 2.6 0.7 3.9l-15.1 26.1c-0.7 1.2-2.4 1.8-3.7 1.3l-13.2-4.6c-1.3-0.4-3.1 0.1-4 1.2-3.6 4.3-7.4 8.4-11.4 12-1 1-2 2.9-2.1 4.3l-2.1 22.8c-0.1 1.4-1.2 3.1-2.4 3.8l-20.5 11.9c-0.7 0.4-1.3 0.4-1.7 0.1l-15.4-8.8c-0.5-0.3-0.8-0.7-0.8-1.4l-1.2-11.6c-0.8 0.4-1.6 0.9-2 1.5l-15.2 22.8c-0.7 1.2-2.4 1.6-3.6 0.9l-10-5.8q-0.1 0-0.1 0l-18.5-10.7c-1.2-0.7-1.7-2.3-1.1-3.5l12.2-24.6c0.3-0.7 0.4-1.6 0.3-2.5l-10.5 4.7c-0.7 0.3-1.2 0.3-1.6 0l-15.5-8.8c-0.4-0.3-0.7-0.8-0.7-1.5v-23.7c0-1.4 0.9-3.2 2.1-4l18.7-13.2c1.2-0.8 2.3-2.6 2.7-4 1.1-5.3 2.7-10.6 4.7-15.9 0.5-1.3 0-3.1-1-4.1l-10.6-9.1c-1.1-0.9-1.4-2.6-0.6-3.9l15-26.1c0.7-1.2 2.4-1.8 3.7-1.3l13.2 4.6c1.3 0.4 3.1-0.1 4-1.2 3.6-4.3 7.4-8.4 11.4-12 1-1 2-2.9 2.1-4.3l2.1-22.8c0.1-1.4 1.2-3.1 2.4-3.8l20.5-11.9c0.7-0.3 1.3-0.4 1.7-0.1l15.5 8.8c0.4 0.3 0.7 0.8 0.7 1.4l1.2 11.6c0.8-0.4 1.6-0.9 2-1.5l15.2-22.8c0.7-1.2 2.4-1.6 3.6-0.9l15.3 8.8q0.1 0 0.1 0l13.2 7.7c1.2 0.7 1.7 2.3 1.1 3.5l-12.2 24.6c-0.3 0.7-0.4 1.6-0.3 2.5l10.6-4.7c0.6-0.3 1.1-0.3 1.5 0l15.5 8.8c0.4 0.3 0.7 0.8 0.7 1.5zm-109.1 96.9c5 1.2 11.3-0.2 18.8-4.5 19.2-11.1 34.7-37.9 34.7-60 0-8.1-1.6-14.3-4.5-18.4-5.7-1.4-12.6-0.1-20.1 4.2-19.1 11-34.6 37.9-34.6 60 0 8.1 2.1 14.5 5.7 18.7z"/>
					<path id="&lt;Compound Path&gt;" fill-rule="evenodd" class="s7" d="m893.4 389.2v23.7c0 1.4-0.9 3.2-2.1 4l-18.7 13.2c-1.2 0.8-2.3 2.6-2.6 4-1.2 5.3-2.8 10.6-4.8 15.9-0.5 1.3 0 3.1 1 4.1l10.6 9.1c1.1 0.9 1.4 2.6 0.7 3.9l-15.1 26.1c-0.7 1.2-2.4 1.8-3.7 1.3l-13.2-4.6c-1.3-0.4-3.1 0.1-4 1.2-3.6 4.3-7.4 8.4-11.4 12-1 1-2 2.9-2.1 4.3l-2.1 22.8c-0.1 1.4-1.2 3.1-2.4 3.8l-20.5 11.9c-0.7 0.4-1.3 0.4-1.7 0.1l-15.4-8.8c-0.5-0.3-0.8-0.7-0.8-1.4l-1.2-11.6c-0.8 0.4-1.6 0.9-2 1.5l-15.2 22.8c-0.7 1.2-2.4 1.6-3.6 0.9l-10-5.8q-0.1 0-0.1 0l-18.5-10.7c-1.2-0.7-1.7-2.3-1.1-3.5l12.2-24.6c0.3-0.7 0.4-1.6 0.3-2.5l-10.5 4.7c-0.7 0.3-1.2 0.3-1.6 0l-15.5-8.8c-0.4-0.3-0.7-0.8-0.7-1.5v-23.7c0-1.4 0.9-3.2 2.1-4l18.7-13.2c1.2-0.8 2.3-2.6 2.7-4 1.1-5.3 2.7-10.6 4.7-15.9 0.5-1.3 0-3.1-1-4.1l-10.6-9.1c-1.1-0.9-1.4-2.6-0.6-3.9l15-26.1c0.7-1.2 2.4-1.8 3.7-1.3l13.2 4.6c1.3 0.4 3.1-0.1 4-1.2 3.6-4.3 7.4-8.4 11.4-12 1-1 2-2.9 2.1-4.3l2.1-22.8c0.1-1.4 1.2-3.1 2.4-3.8l20.5-11.9c0.7-0.3 1.3-0.4 1.7-0.1l15.5 8.8c0.4 0.3 0.7 0.8 0.7 1.4l1.2 11.6c0.8-0.4 1.6-0.9 2-1.5l15.2-22.8c0.7-1.2 2.4-1.6 3.6-0.9l15.3 8.8q0.1 0 0.1 0l13.2 7.7c1.2 0.7 1.7 2.3 1.1 3.5l-12.2 24.6c-0.3 0.7-0.4 1.6-0.3 2.5l10.6-4.7c0.6-0.3 1.1-0.3 1.5 0l15.5 8.8c0.4 0.3 0.7 0.8 0.7 1.5zm-109.1 96.9c5 1.2 11.3-0.2 18.8-4.5 19.2-11.1 34.7-37.9 34.7-60 0-8.1-1.6-14.3-4.5-18.4-5.7-1.4-12.6-0.1-20.1 4.2-19.1 11-34.6 37.9-34.6 60 0 8.1 2.1 14.5 5.7 18.7z"/>
				</g>
				<path id="&lt;Compound Path&gt;" class="s9" d="m756.7 500.2c-0.5-1.4-1.8-2-3.1-1.4l-7.7 3.5c0.1 0.9 0 1.8-0.3 2.5l-12.2 24.6c-0.6 1.2-0.1 2.8 1.1 3.5l18.5 10.7-3.1-1.8c-1.2-0.7-1.7-2.3-1.1-3.6l12.2-24.5c0.6-1.3 0.5-3.2-0.3-4.4q-2.4-4.1-4-9.1zm44.4 45.7q-0.5-0.4-0.6-1.3l-2-19.9c-0.2-1.4-1.4-2.2-2.7-1.9q-5.2 1.1-9.9 1c-0.7 0-1.4 0.1-2 0.4l1.2 11.6c0 0.7 0.3 1.1 0.8 1.4z"/>
				<path id="&lt;Path&gt;" class="s9" d="m847.8 427.4c0 22.1-15.4 48.9-34.6 60-12.1 7-22.7 6-28.9-1.3 5 1.2 11.3-0.2 18.8-4.5 19.2-11.1 34.7-37.9 34.7-60 0-8.1-1.6-14.3-4.5-18.4 8.8 2.1 14.5 10.7 14.5 24.2z"/>
				<g id="&lt;Group&gt;">
					<path id="&lt;Compound Path&gt;" class="s2" d="m847.9 336.5c-1.2-0.7-2.8-0.3-3.6 0.9l-15.2 22.8c-0.2 0.3-0.6 0.6-1 0.9l15.4 8.9c0.4-0.3 0.8-0.6 1-1l15.2-22.8c0.7-1.1 2.1-1.5 3.3-1zm29.3 42.3c-0.4-0.2-0.9-0.2-1.5 0.1l-10.6 4.7c0.1 0.7 0.3 1.4 0.6 1.9 1.6 2.5 2.9 5.4 3.9 8.6q0.1 0.2 0.2 0.4 0.2 0.6 0.5 1 0.2 0.1 0.3 0.2 0.3 0.2 0.6 0.4 0.5 0.1 1.1 0 0.3 0 0.5-0.1l18.3-8.3q0.2-0.1 0.4-0.1 0.4-0.1 0.7-0.1 0.3 0.1 0.5 0.2zm-67.5-39c-0.5-0.2-1.1-0.2-1.7 0.2l-20.5 11.8c-0.8 0.5-1.6 1.5-2 2.5l15.3 8.8c0.5-1 1.3-1.9 2.1-2.4l20.5-11.9c0.6-0.3 1.2-0.4 1.6-0.2zm-69.8 114.4c-0.5 0.6-1 1.2-1.5 1.5l-18.7 13.2c-0.5 0.4-0.9 0.9-1.2 1.4l15.4 8.9c0.3-0.6 0.7-1.1 1.2-1.4l18.8-13.2c0.5-0.4 1-0.9 1.4-1.5zm11.4-63.1c-1.1 0.1-2.1 0.6-2.6 1.6l-15.1 26.1c-0.3 0.5-0.4 1.2-0.4 1.9l15.5 8.8c-0.1-0.6 0-1.3 0.3-1.9l15.1-26.1c0.5-0.9 1.4-1.4 2.4-1.5z"/>
					<path id="&lt;Compound Path&gt;" class="s5" d="m847.9 336.5c-1.2-0.7-2.8-0.3-3.6 0.9l-15.2 22.8c-0.2 0.3-0.6 0.6-1 0.9l15.4 8.9c0.4-0.3 0.8-0.6 1-1l15.2-22.8c0.7-1.1 2.1-1.5 3.3-1zm29.3 42.3c-0.4-0.2-0.9-0.2-1.5 0.1l-10.6 4.7c0.1 0.7 0.3 1.4 0.6 1.9 1.6 2.5 2.9 5.4 3.9 8.6q0.1 0.2 0.2 0.4 0.2 0.6 0.5 1 0.2 0.1 0.3 0.2 0.3 0.2 0.6 0.4 0.5 0.1 1.1 0 0.3 0 0.5-0.1l18.3-8.3q0.2-0.1 0.4-0.1 0.4-0.1 0.7-0.1 0.3 0.1 0.5 0.2zm-67.5-39c-0.5-0.2-1.1-0.2-1.7 0.2l-20.5 11.8c-0.8 0.5-1.6 1.5-2 2.5l15.3 8.8c0.5-1 1.3-1.9 2.1-2.4l20.5-11.9c0.6-0.3 1.2-0.4 1.6-0.2zm-69.8 114.4c-0.5 0.6-1 1.2-1.5 1.5l-18.7 13.2c-0.5 0.4-0.9 0.9-1.2 1.4l15.4 8.9c0.3-0.6 0.7-1.1 1.2-1.4l18.8-13.2c0.5-0.4 1-0.9 1.4-1.5zm11.4-63.1c-1.1 0.1-2.1 0.6-2.6 1.6l-15.1 26.1c-0.3 0.5-0.4 1.2-0.4 1.9l15.5 8.8c-0.1-0.6 0-1.3 0.3-1.9l15.1-26.1c0.5-0.9 1.4-1.4 2.4-1.5z"/>
				</g>
				<g id="&lt;Group&gt;">
					<path id="&lt;Compound Path&gt;" fill-rule="evenodd" class="s2" d="m891.3 416.9l-18.7 13.2c-1.2 0.8-2.3 2.6-2.6 4-1.2 5.3-2.8 10.6-4.8 15.9-0.5 1.3 0 3.1 1 4.1l10.6 9.1c1.1 0.9 1.4 2.6 0.7 3.9l-15.1 26.1c-0.7 1.2-2.4 1.8-3.7 1.3l-13.2-4.6c-1.3-0.4-3.1 0.1-4 1.2-3.6 4.3-7.4 8.4-11.4 12-1 1-2 2.9-2.1 4.3l-2.1 22.8c-0.1 1.4-1.2 3.1-2.4 3.8l-20.5 11.9c-1.3 0.7-2.4 0.1-2.5-1.3l-2-19.9c-0.2-1.4-1.4-2.2-2.7-1.9q-5.2 1.1-9.9 1c-1.4-0.1-3.2 0.8-4 1.9l-15.2 22.8c-0.7 1.2-2.4 1.6-3.6 0.9l-13.2-7.6c-1.2-0.7-1.7-2.3-1.1-3.6l12.2-24.5c0.6-1.3 0.5-3.2-0.3-4.5q-2.4-4-4-9c-0.5-1.3-1.8-2-3.1-1.4l-18.2 8.2c-1.3 0.6-2.4-0.1-2.4-1.5v-23.7c0-1.4 1-3.2 2.1-4l18.8-13.2c1.1-0.8 2.3-2.6 2.6-4 1.2-5.3 2.8-10.6 4.7-15.9 0.5-1.3 0.1-3.1-1-4l-10.6-9.1c-1-0.9-1.3-2.7-0.6-3.9l15-26.1c0.8-1.2 2.4-1.9 3.7-1.4l13.2 4.6c1.3 0.5 3.1 0 4-1.1 3.6-4.4 7.4-8.4 11.4-12.1 1.1-1 2-2.8 2.2-4.3l2-22.8c0.1-1.4 1.2-3.1 2.5-3.8l20.5-11.8c1.2-0.7 2.3-0.2 2.4 1.2l2 19.9c0.2 1.5 1.4 2.3 2.8 2q5.1-1.2 9.9-1c1.4 0 3.1-0.8 3.9-2l15.2-22.8c0.8-1.2 2.4-1.6 3.6-0.9l13.2 7.7c1.2 0.7 1.7 2.3 1.1 3.5l-12.2 24.6c-0.6 1.2-0.4 3.2 0.3 4.4q2.5 4 4.1 9c0.4 1.4 1.7 2 3 1.5l18.3-8.3c1.3-0.6 2.3 0.1 2.3 1.5v23.7c0 1.4-0.9 3.2-2.1 4zm-43.4 10.5c0-22.1-15.6-31.1-34.7-20-19.1 11-34.6 37.9-34.6 60 0 22.1 15.5 31 34.6 20 19.1-11.1 34.7-37.9 34.7-60z"/>
					<path id="&lt;Compound Path&gt;" fill-rule="evenodd" class="s10" d="m891.3 416.9l-18.7 13.2c-1.2 0.8-2.3 2.6-2.6 4-1.2 5.3-2.8 10.6-4.8 15.9-0.5 1.3 0 3.1 1 4.1l10.6 9.1c1.1 0.9 1.4 2.6 0.7 3.9l-15.1 26.1c-0.7 1.2-2.4 1.8-3.7 1.3l-13.2-4.6c-1.3-0.4-3.1 0.1-4 1.2-3.6 4.3-7.4 8.4-11.4 12-1 1-2 2.9-2.1 4.3l-2.1 22.8c-0.1 1.4-1.2 3.1-2.4 3.8l-20.5 11.9c-1.3 0.7-2.4 0.1-2.5-1.3l-2-19.9c-0.2-1.4-1.4-2.2-2.7-1.9q-5.2 1.1-9.9 1c-1.4-0.1-3.2 0.8-4 1.9l-15.2 22.8c-0.7 1.2-2.4 1.6-3.6 0.9l-13.2-7.6c-1.2-0.7-1.7-2.3-1.1-3.6l12.2-24.5c0.6-1.3 0.5-3.2-0.3-4.5q-2.4-4-4-9c-0.5-1.3-1.8-2-3.1-1.4l-18.2 8.2c-1.3 0.6-2.4-0.1-2.4-1.5v-23.7c0-1.4 1-3.2 2.1-4l18.8-13.2c1.1-0.8 2.3-2.6 2.6-4 1.2-5.3 2.8-10.6 4.7-15.9 0.5-1.3 0.1-3.1-1-4l-10.6-9.1c-1-0.9-1.3-2.7-0.6-3.9l15-26.1c0.8-1.2 2.4-1.9 3.7-1.4l13.2 4.6c1.3 0.5 3.1 0 4-1.1 3.6-4.4 7.4-8.4 11.4-12.1 1.1-1 2-2.8 2.2-4.3l2-22.8c0.1-1.4 1.2-3.1 2.5-3.8l20.5-11.8c1.2-0.7 2.3-0.2 2.4 1.2l2 19.9c0.2 1.5 1.4 2.3 2.8 2q5.1-1.2 9.9-1c1.4 0 3.1-0.8 3.9-2l15.2-22.8c0.8-1.2 2.4-1.6 3.6-0.9l13.2 7.7c1.2 0.7 1.7 2.3 1.1 3.5l-12.2 24.6c-0.6 1.2-0.4 3.2 0.3 4.4q2.5 4 4.1 9c0.4 1.4 1.7 2 3 1.5l18.3-8.3c1.3-0.6 2.3 0.1 2.3 1.5v23.7c0 1.4-0.9 3.2-2.1 4zm-43.4 10.5c0-22.1-15.6-31.1-34.7-20-19.1 11-34.6 37.9-34.6 60 0 22.1 15.5 31 34.6 20 19.1-11.1 34.7-37.9 34.7-60z"/>
				</g>
			</g>
			<g id="&lt;Group&gt;">
				<g id="&lt;Group&gt;">
					<path id="&lt;Compound Path&gt;" fill-rule="evenodd" class="s2" d="m915.1 237.3c-0.4 1.5 0.5 3.2 1.9 3.9l5.7 2.4c1.4 0.6 2.1 2.3 1.5 3.7l-6.6 14.8c-0.7 1.5-2.5 2.6-4.1 2.5l-7-0.3c-1.6-0.1-3.5 0.9-4.4 2.2q-2.4 3.5-5.1 6.7c-1 1.2-1.8 3.5-1.7 5l0.6 10.4c0.1 1.6-0.8 3.7-2 4.7l-11 8.6c-0.7 0.5-1.4 0.6-2 0.3l-0.2-0.1q0 0 0 0l-11.4-6.6c-0.4-0.2-0.7-0.6-0.9-1.3l-0.3-1c-1.2 0.6-2.3 1.5-2.8 2.5l-6.8 13.1c-0.8 1.4-2.6 2.2-4.1 1.9l-7.3-1.6c-0.3-0.1-0.6-0.3-0.8-0.4h-0.1l-11.5-6.6c-0.9-0.6-1.4-1.8-0.9-3l4-10.8-4.2 2.7c-0.7 0.5-1.4 0.5-2 0.2l-11.5-6.7c-0.4-0.2-0.7-0.7-0.8-1.4l-1.9-10.5c-0.2-1.6 0.5-3.7 1.7-4.8l9.6-8.9c1.2-1.1 2.2-3.2 2.4-4.8q0.4-3.5 1.2-7.1c0.2-0.6 0.1-1.3-0.2-2l-7.8-4.5h0.1c-1.3-0.7-1.8-2.2-1.2-3.5l6.6-14.8c0.7-1.5 2.5-2.6 4.1-2.5l7 0.3c1.6 0.1 3.5-0.9 4.4-2.2q2.4-3.5 5.1-6.7c1-1.2 1.8-3.5 1.7-5l-0.7-10.4c-0.1-1.6 0.9-3.7 2.1-4.7l10.9-8.6c0.8-0.5 1.6-0.6 2.2-0.3l11.5 6.7q0 0 0 0c0.4 0.2 0.7 0.6 0.9 1.3l0.3 1c1.1-0.6 2.2-1.5 2.7-2.5l6.9-13.1c0.7-1.4 2.6-2.2 4.1-1.9l7.3 1.6q0.4 0.1 0.8 0.3l11.5 6.6-0.1 0.1c1.1 0.6 1.6 1.8 1.1 3l-4 10.8 4.2-2.7c0.7-0.5 1.4-0.5 2-0.2l11.4 6.6c0.5 0.3 0.8 0.8 0.9 1.5l1.8 10.5c0.3 1.6-0.4 3.7-1.6 4.8l-9.7 8.9c-1.1 1.1-2.1 3.2-2.3 4.8q-0.4 3.5-1.2 7.1zm-55.7 29.6c3.8-0.3 8.1-2.1 12.4-5.6 11.9-9.3 19.7-26.9 17.6-39.3-0.3-1.8-0.8-3.3-1.4-4.6-3.8 0.3-8.1 2.1-12.4 5.6-11.9 9.3-19.7 26.9-17.6 39.3 0.3 1.7 0.8 3.2 1.4 4.6z"/>
					<path id="&lt;Compound Path&gt;" fill-rule="evenodd" class="s7" d="m915.1 237.3c-0.4 1.5 0.5 3.2 1.9 3.9l5.7 2.4c1.4 0.6 2.1 2.3 1.5 3.7l-6.6 14.8c-0.7 1.5-2.5 2.6-4.1 2.5l-7-0.3c-1.6-0.1-3.5 0.9-4.4 2.2q-2.4 3.5-5.1 6.7c-1 1.2-1.8 3.5-1.7 5l0.6 10.4c0.1 1.6-0.8 3.7-2 4.7l-11 8.6c-0.7 0.5-1.4 0.6-2 0.3l-0.2-0.1q0 0 0 0l-11.4-6.6c-0.4-0.2-0.7-0.6-0.9-1.3l-0.3-1c-1.2 0.6-2.3 1.5-2.8 2.5l-6.8 13.1c-0.8 1.4-2.6 2.2-4.1 1.9l-7.3-1.6c-0.3-0.1-0.6-0.3-0.8-0.4h-0.1l-11.5-6.6c-0.9-0.6-1.4-1.8-0.9-3l4-10.8-4.2 2.7c-0.7 0.5-1.4 0.5-2 0.2l-11.5-6.7c-0.4-0.2-0.7-0.7-0.8-1.4l-1.9-10.5c-0.2-1.6 0.5-3.7 1.7-4.8l9.6-8.9c1.2-1.1 2.2-3.2 2.4-4.8q0.4-3.5 1.2-7.1c0.2-0.6 0.1-1.3-0.2-2l-7.8-4.5h0.1c-1.3-0.7-1.8-2.2-1.2-3.5l6.6-14.8c0.7-1.5 2.5-2.6 4.1-2.5l7 0.3c1.6 0.1 3.5-0.9 4.4-2.2q2.4-3.5 5.1-6.7c1-1.2 1.8-3.5 1.7-5l-0.7-10.4c-0.1-1.6 0.9-3.7 2.1-4.7l10.9-8.6c0.8-0.5 1.6-0.6 2.2-0.3l11.5 6.7q0 0 0 0c0.4 0.2 0.7 0.6 0.9 1.3l0.3 1c1.1-0.6 2.2-1.5 2.7-2.5l6.9-13.1c0.7-1.4 2.6-2.2 4.1-1.9l7.3 1.6q0.4 0.1 0.8 0.3l11.5 6.6-0.1 0.1c1.1 0.6 1.6 1.8 1.1 3l-4 10.8 4.2-2.7c0.7-0.5 1.4-0.5 2-0.2l11.4 6.6c0.5 0.3 0.8 0.8 0.9 1.5l1.8 10.5c0.3 1.6-0.4 3.7-1.6 4.8l-9.7 8.9c-1.1 1.1-2.1 3.2-2.3 4.8q-0.4 3.5-1.2 7.1zm-55.7 29.6c3.8-0.3 8.1-2.1 12.4-5.6 11.9-9.3 19.7-26.9 17.6-39.3-0.3-1.8-0.8-3.3-1.4-4.6-3.8 0.3-8.1 2.1-12.4 5.6-11.9 9.3-19.7 26.9-17.6 39.3 0.3 1.7 0.8 3.2 1.4 4.6z"/>
				</g>
				<path id="&lt;Compound Path&gt;" class="s9" d="m847.2 285.5c-0.9-1.3-2.6-1.8-3.9-0.9l-5.5 3.7-4 10.8c-0.5 1.2 0 2.4 0.9 3l11.4 6.5c-0.9-0.6-1.2-1.7-0.8-2.9l4.9-13.3c0.5-1.5-0.1-3.4-1.1-4.6q-1-1-1.9-2.3zm33.6 16.6c-0.4-0.2-0.8-0.6-0.9-1.2l-2.5-8.2c-0.4-1.5-2-2.2-3.4-1.6q-2.3 1-4.5 1.5c-0.5 0.1-1 0.3-1.5 0.6l0.4 1.1c0.2 0.6 0.5 1 0.9 1.2z"/>
				<path id="&lt;Path&gt;" class="s9" d="m883.3 268c-10.2 8-20 7.2-23.9-1.1 3.8-0.3 8.1-2.2 12.4-5.6 11.8-9.3 19.7-26.9 17.6-39.3q-0.5-2.7-1.4-4.6c6.5-0.5 11.5 3.4 12.9 11.2 2.1 12.4-5.8 30.1-17.6 39.4z"/>
				<g id="&lt;Group&gt;">
					<path id="&lt;Compound Path&gt;" class="s2" d="m842.9 219.6c-0.7 0.3-1.4 0.5-2 0.4l-7-0.3c-1 0-2.1 0.4-3 1.1l11.5 6.6c0.9-0.7 2-1.1 2.9-1.1l7.1 0.4c0.6 0 1.3-0.1 2-0.4zm23.7-37.5c-0.6-0.3-1.4-0.3-2.2 0.3l-10.9 8.6c-0.8 0.6-1.4 1.7-1.8 2.9l11.5 6.6c0.3-1.1 1-2.2 1.8-2.9l10.9-8.5c0.8-0.6 1.6-0.7 2.2-0.3q0-0.1 0-0.1zm-38 76.9l-9.5 8.8c-0.8 0.6-1.3 1.7-1.5 2.7l11.4 6.6c0.3-1 0.9-2 1.6-2.7l9.5-8.8zm72.5-83.4q-0.4-0.2-0.8-0.3l-7.3-1.6c-1.5-0.4-3.4 0.5-4.1 1.9l-6.9 13c-0.3 0.7-0.9 1.3-1.5 1.8l11.5 6.6c0.6-0.5 1.2-1.1 1.5-1.8l6.9-13c0.7-1.4 2.6-2.3 4.1-1.9l7.3 1.6q0.4 0.1 0.7 0.3zm14.7 17.6c-0.5-0.3-1.2-0.3-2 0.2l-4.1 2.7-1 2.5c-0.5 1.5 0.1 3.4 1.2 4.6q1 1 1.9 2.3 0.2 0.3 0.5 0.6 0.2 0.1 0.4 0.3 0.5 0.3 1 0.4 0.6 0.1 1.2-0.1 0.4-0.1 0.7-0.3l9.7-6.4q0.4-0.2 0.7-0.3 0.5-0.2 0.8-0.1 0.3 0.1 0.5 0.2z"/>
					<path id="&lt;Compound Path&gt;" class="s5" d="m842.9 219.6c-0.7 0.3-1.4 0.5-2 0.4l-7-0.3c-1 0-2.1 0.4-3 1.1l11.5 6.6c0.9-0.7 2-1.1 2.9-1.1l7.1 0.4c0.6 0 1.3-0.1 2-0.4zm23.7-37.5c-0.6-0.3-1.4-0.3-2.2 0.3l-10.9 8.6c-0.8 0.6-1.4 1.7-1.8 2.9l11.5 6.6c0.3-1.1 1-2.2 1.8-2.9l10.9-8.5c0.8-0.6 1.6-0.7 2.2-0.3q0-0.1 0-0.1zm-38 76.9l-9.5 8.8c-0.8 0.6-1.3 1.7-1.5 2.7l11.4 6.6c0.3-1 0.9-2 1.6-2.7l9.5-8.8zm72.5-83.4q-0.4-0.2-0.8-0.3l-7.3-1.6c-1.5-0.4-3.4 0.5-4.1 1.9l-6.9 13c-0.3 0.7-0.9 1.3-1.5 1.8l11.5 6.6c0.6-0.5 1.2-1.1 1.5-1.8l6.9-13c0.7-1.4 2.6-2.3 4.1-1.9l7.3 1.6q0.4 0.1 0.7 0.3zm14.7 17.6c-0.5-0.3-1.2-0.3-2 0.2l-4.1 2.7-1 2.5c-0.5 1.5 0.1 3.4 1.2 4.6q1 1 1.9 2.3 0.2 0.3 0.5 0.6 0.2 0.1 0.4 0.3 0.5 0.3 1 0.4 0.6 0.1 1.2-0.1 0.4-0.1 0.7-0.3l9.7-6.4q0.4-0.2 0.7-0.3 0.5-0.2 0.8-0.1 0.3 0.1 0.5 0.2z"/>
				</g>
				<g id="&lt;Group&gt;">
					<path id="&lt;Compound Path&gt;" fill-rule="evenodd" class="s2" d="m928.3 216.5l-9.7 8.9c-1.1 1.1-2.1 3.2-2.3 4.8q-0.4 3.5-1.2 7.1c-0.4 1.5 0.5 3.2 1.9 3.9l5.7 2.4c1.4 0.6 2.1 2.3 1.5 3.7l-6.6 14.8c-0.7 1.5-2.5 2.6-4.1 2.5l-7-0.3c-1.6-0.1-3.5 0.9-4.4 2.2q-2.4 3.5-5.1 6.7c-1 1.2-1.8 3.5-1.7 5l0.6 10.4c0.1 1.6-0.8 3.7-2 4.7l-11 8.6c-1.2 0.9-2.6 0.5-3-1l-2.5-8.2c-0.5-1.5-2-2.2-3.4-1.6q-2.3 1-4.5 1.5c-1.6 0.4-3.4 1.7-4.2 3.1l-6.8 13.1c-0.8 1.4-2.6 2.2-4.1 1.9l-7.3-1.6c-1.6-0.4-2.4-1.9-1.8-3.4l4.9-13.3c0.5-1.5 0-3.4-1.1-4.6q-1-1-1.9-2.3c-0.9-1.3-2.6-1.7-3.9-0.9l-9.7 6.4c-1.3 0.9-2.6 0.3-2.9-1.3l-1.8-10.5c-0.2-1.6 0.5-3.7 1.7-4.8l9.6-8.9c1.2-1 2.2-3.2 2.4-4.8q0.4-3.5 1.2-7c0.4-1.6-0.5-3.3-1.9-3.9l-5.7-2.5c-1.5-0.6-2.1-2.3-1.5-3.7l6.6-14.8c0.7-1.4 2.5-2.5 4.1-2.5l7 0.4c1.6 0.1 3.5-1 4.4-2.3q2.4-3.5 5.1-6.7c1-1.2 1.8-3.4 1.7-5l-0.7-10.4c-0.1-1.6 0.9-3.7 2.1-4.6l10.9-8.6c1.3-1 2.7-0.6 3.1 1l2.5 8.1c0.4 1.5 1.9 2.2 3.4 1.6q2.3-0.9 4.5-1.5c1.5-0.4 3.4-1.7 4.1-3.1l6.9-13c0.7-1.5 2.6-2.3 4.1-2l7.3 1.7c1.6 0.3 2.4 1.8 1.8 3.3l-4.9 13.3c-0.6 1.5 0 3.5 1.1 4.6q1 1.1 1.9 2.3c0.9 1.3 2.6 1.8 3.9 0.9l9.6-6.4c1.4-0.8 2.7-0.3 2.9 1.3l1.8 10.5c0.3 1.6-0.4 3.7-1.6 4.8zm-27.4 12.1c-2.2-12.4-13.5-14.9-25.3-5.6-11.9 9.3-19.7 26.9-17.6 39.3 2.1 12.4 13.5 15 25.3 5.7 11.8-9.3 19.7-27 17.6-39.4z"/>
					<path id="&lt;Compound Path&gt;" fill-rule="evenodd" class="s11" d="m928.3 216.5l-9.7 8.9c-1.1 1.1-2.1 3.2-2.3 4.8q-0.4 3.5-1.2 7.1c-0.4 1.5 0.5 3.2 1.9 3.9l5.7 2.4c1.4 0.6 2.1 2.3 1.5 3.7l-6.6 14.8c-0.7 1.5-2.5 2.6-4.1 2.5l-7-0.3c-1.6-0.1-3.5 0.9-4.4 2.2q-2.4 3.5-5.1 6.7c-1 1.2-1.8 3.5-1.7 5l0.6 10.4c0.1 1.6-0.8 3.7-2 4.7l-11 8.6c-1.2 0.9-2.6 0.5-3-1l-2.5-8.2c-0.5-1.5-2-2.2-3.4-1.6q-2.3 1-4.5 1.5c-1.6 0.4-3.4 1.7-4.2 3.1l-6.8 13.1c-0.8 1.4-2.6 2.2-4.1 1.9l-7.3-1.6c-1.6-0.4-2.4-1.9-1.8-3.4l4.9-13.3c0.5-1.5 0-3.4-1.1-4.6q-1-1-1.9-2.3c-0.9-1.3-2.6-1.7-3.9-0.9l-9.7 6.4c-1.3 0.9-2.6 0.3-2.9-1.3l-1.8-10.5c-0.2-1.6 0.5-3.7 1.7-4.8l9.6-8.9c1.2-1 2.2-3.2 2.4-4.8q0.4-3.5 1.2-7c0.4-1.6-0.5-3.3-1.9-3.9l-5.7-2.5c-1.5-0.6-2.1-2.3-1.5-3.7l6.6-14.8c0.7-1.4 2.5-2.5 4.1-2.5l7 0.4c1.6 0.1 3.5-1 4.4-2.3q2.4-3.5 5.1-6.7c1-1.2 1.8-3.4 1.7-5l-0.7-10.4c-0.1-1.6 0.9-3.7 2.1-4.6l10.9-8.6c1.3-1 2.7-0.6 3.1 1l2.5 8.1c0.4 1.5 1.9 2.2 3.4 1.6q2.3-0.9 4.5-1.5c1.5-0.4 3.4-1.7 4.1-3.1l6.9-13c0.7-1.5 2.6-2.3 4.1-2l7.3 1.7c1.6 0.3 2.4 1.8 1.8 3.3l-4.9 13.3c-0.6 1.5 0 3.5 1.1 4.6q1 1.1 1.9 2.3c0.9 1.3 2.6 1.8 3.9 0.9l9.6-6.4c1.4-0.8 2.7-0.3 2.9 1.3l1.8 10.5c0.3 1.6-0.4 3.7-1.6 4.8zm-27.4 12.1c-2.2-12.4-13.5-14.9-25.3-5.6-11.9 9.3-19.7 26.9-17.6 39.3 2.1 12.4 13.5 15 25.3 5.7 11.8-9.3 19.7-27 17.6-39.4z"/>
				</g>
			</g>
		</g>
		<g id="&lt;Group&gt;">
			<path id="&lt;Compound Path&gt;" fill-rule="evenodd" class="s1" d="m782.8 178.9q-0.4 0-0.7-0.1l-5.8-1.3c-0.8-0.2-1.5-0.7-1.9-1.4-0.4-0.7-0.4-1.6-0.1-2.4l3.9-10.5c0.2-0.8-0.1-2-0.8-2.8q-0.8-0.8-1.5-1.9c-0.4-0.6-1.2-0.9-1.9-0.4l-7.6 5c-0.8 0.5-1.6 0.6-2.3 0.3-0.7-0.3-1.2-1-1.4-1.9l-1.4-8.3c-0.3-1.5 0.4-3.5 1.6-4.6l7.6-7c0.7-0.7 1.5-2.2 1.6-3.3q0.3-2.7 1-5.6c0.2-0.8-0.3-1.8-1.1-2.1l-4.4-1.9c-0.8-0.4-1.4-1-1.7-1.7-0.3-0.8-0.3-1.7 0.1-2.4l5.2-11.7c0.6-1.5 2.4-2.6 4-2.5l5.5 0.3c1 0 2.2-0.6 2.8-1.4 1.3-1.9 2.6-3.7 4-5.4 0.7-0.8 1.2-2.4 1.2-3.4l-0.5-8.2c-0.1-1.5 0.7-3.4 1.9-4.4l8.7-6.8c0.7-0.5 1.5-0.7 2.2-0.5 0.8 0.3 1.3 0.9 1.6 1.7l1.9 6.5q0.2 0.5 0.6 0.7c0.3 0.1 0.6 0.1 1 0q1.8-0.8 3.6-1.2c1.1-0.3 2.3-1.2 2.8-2l5.4-10.4c0.7-1.4 2.6-2.3 4.2-1.9l5.8 1.3c0.8 0.2 1.5 0.7 1.9 1.4 0.4 0.7 0.4 1.5 0.1 2.3l-3.9 10.6c-0.3 0.8 0 2 0.7 2.7q0.9 0.9 1.6 1.9c0.4 0.6 1.2 1 1.9 0.5l7.6-5c0.8-0.5 1.6-0.6 2.3-0.3 0.7 0.3 1.2 1 1.3 1.8l1.5 8.4c0.2 1.5-0.5 3.5-1.6 4.5l-7.6 7.1c-0.8 0.7-1.5 2.1-1.6 3.2q-0.3 2.8-1 5.7c-0.2 0.8 0.3 1.8 1 2.1l4.5 1.9c0.8 0.3 1.4 0.9 1.7 1.7 0.3 0.8 0.3 1.6-0.1 2.4l-5.2 11.7c-0.6 1.5-2.4 2.6-4 2.5l-5.6-0.3c-0.9-0.1-2.2 0.6-2.7 1.4q-1.9 2.8-4.1 5.4c-0.7 0.8-1.2 2.3-1.1 3.3l0.5 8.2c0.1 1.6-0.8 3.5-2 4.4l-8.6 6.8c-0.7 0.6-1.5 0.8-2.3 0.5-0.7-0.2-1.3-0.8-1.5-1.7l-2-6.4q-0.1-0.5-0.5-0.7c-0.3-0.2-0.7-0.2-1 0q-1.9 0.7-3.7 1.2c-1 0.2-2.3 1.2-2.7 2l-5.4 10.3c-0.7 1.3-2.1 2.1-3.5 2.1zm-8.1-22.8c1 0 2 0.5 2.6 1.4q0.7 1 1.4 1.7c1.2 1.3 1.6 3.2 1.1 4.6l-3.9 10.5q-0.2 0.5 0 0.9 0.3 0.5 0.8 0.6l5.8 1.3c0.8 0.2 1.9-0.3 2.3-1.1l5.4-10.3c0.6-1.3 2.3-2.5 3.8-2.9q1.7-0.4 3.4-1.1c0.8-0.4 1.7-0.4 2.4 0 0.7 0.3 1.3 1 1.5 1.8l2 6.4q0.1 0.5 0.4 0.6c0.1 0 0.4-0.1 0.6-0.2l8.7-6.8c0.7-0.6 1.3-2 1.3-2.9l-0.6-8.3c0-1.4 0.6-3.4 1.6-4.5q2.1-2.5 3.9-5.3c0.9-1.3 2.8-2.2 4.3-2.1l5.6 0.2c0.8 0.1 1.9-0.6 2.3-1.4l5.2-11.7c0.2-0.3 0.2-0.7 0.1-1.1-0.2-0.3-0.4-0.6-0.8-0.7l-4.5-1.9c-1.5-0.7-2.4-2.5-2-4.1q0.6-2.8 0.9-5.5c0.2-1.5 1.1-3.3 2.2-4.3l7.6-7c0.7-0.7 1.2-2.1 1-3l-1.4-8.4c0-0.2-0.2-0.5-0.3-0.5-0.2-0.1-0.4 0-0.6 0.1l-7.7 5.1c-1.4 0.9-3.2 0.5-4.2-1q-0.7-0.9-1.4-1.7c-1.2-1.2-1.6-3.1-1.1-4.5l3.9-10.6q0.2-0.5-0.1-0.9-0.2-0.4-0.7-0.5l-5.8-1.3c-0.8-0.2-1.9 0.3-2.3 1.1l-5.4 10.3c-0.7 1.2-2.3 2.5-3.8 2.9q-1.7 0.4-3.5 1.1c-0.8 0.3-1.6 0.3-2.4 0-0.7-0.4-1.2-1-1.4-1.8l-2-6.5q-0.1-0.4-0.4-0.5-0.3-0.1-0.7 0.2l-8.6 6.8c-0.7 0.6-1.3 1.9-1.3 2.9l0.5 8.2c0.1 1.5-0.5 3.4-1.5 4.6q-2.1 2.5-4 5.2c-0.9 1.4-2.8 2.3-4.2 2.2l-5.6-0.3c-0.9 0-2 0.7-2.3 1.5l-5.3 11.7c-0.1 0.3-0.1 0.7 0 1 0.2 0.4 0.4 0.6 0.8 0.8l4.4 1.9c1.6 0.6 2.5 2.4 2.1 4.1q-0.7 2.8-1 5.4c-0.1 1.5-1.1 3.4-2.1 4.4l-7.7 7c-0.7 0.7-1.1 2-1 3l1.5 8.3c0 0.3 0.1 0.5 0.3 0.6 0.1 0 0.4 0 0.6-0.2l7.6-5c0.6-0.3 1.1-0.5 1.7-0.5zm19.7-6.6q-1.9 0-3.6-0.7c-3.4-1.3-5.7-4.5-6.5-9-1.7-10 4.6-24.4 14.2-31.9 5.3-4.1 10.7-5.6 14.9-4 3.4 1.3 5.7 4.5 6.5 9 1.7 10.1-4.6 24.4-14.2 32-3.9 3-7.8 4.6-11.3 4.6zm15.4-44.5c-3.1 0-6.7 1.5-10.2 4.3-9.2 7.1-15.2 20.7-13.6 30.2 0.7 4 2.5 6.6 5.4 7.7 3.6 1.4 8.4 0 13.2-3.7 9.1-7.2 15.2-20.8 13.6-30.3-0.7-3.9-2.6-6.5-5.4-7.6q-1.4-0.6-3-0.6z"/>
		</g>
	</g>
	<g id="Device">
		<g id="Mobile 5 ">
			<g id="&lt;Group&gt;">
				<path id="&lt;Compound Path&gt;" fill-rule="evenodd" class="s2" d="m485.2 64.7v657.6c0 6-4.3 13.4-9.5 16.4l-279.2 161.2c-5.2 3-9.4 0.6-9.4-5.5v-657.6c0-6 4.2-13.4 9.4-16.4l279.2-161.2c5.2-3 9.5-0.6 9.5 5.5zm-13.6 59.1c0-4.2-4.5-6.8-8.1-4.7l-255.7 147.7c-5 2.9-8.1 8.2-8.1 14v546.8c0 5.2 3.6 7.2 8.1 4.7l255.7-147.7c4.4-2.5 8.1-5.8 8.1-11z"/>
				<path id="&lt;Compound Path&gt;" fill-rule="evenodd" class="s12" d="m485.2 64.7v657.6c0 6-4.3 13.4-9.5 16.4l-279.2 161.2c-5.2 3-9.4 0.6-9.4-5.5v-657.6c0-6 4.2-13.4 9.4-16.4l279.2-161.2c5.2-3 9.5-0.6 9.5 5.5zm-13.6 59.1c0-4.2-4.5-6.8-8.1-4.7l-255.7 147.7c-5 2.9-8.1 8.2-8.1 14v546.8c0 5.2 3.6 7.2 8.1 4.7l255.7-147.7c4.4-2.5 8.1-5.8 8.1-11z"/>
			</g>
			<g id="&lt;Group&gt;">
				<path id="&lt;Path&gt;" class="s2" d="m471.6 673.6c0 5.2-3.7 8.5-8.1 11l-255.7 147.7c-4.5 2.5-8.1 0.5-8.1-4.7v-546.8c0-5.8 3.1-11.1 8.1-14l255.7-147.7c3.6-2.1 8.1 0.5 8.1 4.7z"/>
				<path id="&lt;Path&gt;" class="s13" d="m471.6 673.6c0 5.2-3.7 8.5-8.1 11l-255.7 147.7c-4.5 2.5-8.1 0.5-8.1-4.7v-546.8c0-5.8 3.1-11.1 8.1-14l255.7-147.7c3.6-2.1 8.1 0.5 8.1 4.7z"/>
			</g>
			<g id="&lt;Group&gt;">
				<path id="&lt;Path&gt;" class="s2" d="m207.8 832.3l255.7-147.7c1.8-1 3.5-2.2 4.8-3.5l-268.6-151.4v297.9c0 5.2 3.6 7.2 8.1 4.7z"/>
				<path id="&lt;Path&gt;" class="s14" d="m207.8 832.3l255.7-147.7c1.8-1 3.5-2.2 4.8-3.5l-268.6-151.4v297.9c0 5.2 3.6 7.2 8.1 4.7z"/>
			</g>
			<path id="&lt;Path&gt;" class="s15" d="m450.9 664v-537.6l-243.1 140.4c-5 2.9-8.1 8.2-8.1 14v534.5l243.1-140.3c4.5-2.6 8.1-5.9 8.1-11z"/>
			<g id="&lt;Group&gt;">
				<path id="&lt;Path&gt;" class="s2" d="m195.3 900.5c-5.2 2.4-12.8 2.2-17.7-0.6l-10.8-6.2c-5.2-3.1-9.5-10.3-9.5-16.4v-657.6c0-2.3 0.6-4.7 1.7-7.1q0.5-1.1 1.1-2.2 0-0.1 0-0.1l29.7 17.2c-0.6 1.1-1.2 2.3-1.6 3.4-0.7 2-1.1 4-1.1 5.9v657.7c0 5.5 3.6 8 8.2 6z"/>
				<path id="&lt;Path&gt;" class="s13" d="m195.3 900.5c-5.2 2.4-12.8 2.2-17.7-0.6l-10.8-6.2c-5.2-3.1-9.5-10.3-9.5-16.4v-657.6c0-2.3 0.6-4.7 1.7-7.1q0.5-1.1 1.1-2.2 0-0.1 0-0.1l29.7 17.2c-0.6 1.1-1.2 2.3-1.6 3.4-0.7 2-1.1 4-1.1 5.9v657.7c0 5.5 3.6 8 8.2 6z"/>
			</g>
			<path id="&lt;Compound Path&gt;" class="s2" d="m344.4 768.1c6.1 0 6.7 6.7 6.7 9.7 0 10.5-7.7 23.9-16.8 29.1-2.3 1.4-4.6 2.1-6.5 2.1-6.1 0-6.7-6.8-6.7-9.7 0-10.5 7.7-23.9 16.8-29.2 2.4-1.3 4.6-2 6.5-2z"/>
			<g id="&lt;Group&gt;">
				<path id="&lt;Path&gt;" class="s6" d="m335.9 150.3c2.5-1.4 4.6-0.2 4.6 2.7 0 2.9-2.1 6.5-4.6 8-2.6 1.5-4.6 0.3-4.6-2.7 0-2.9 2-6.5 4.6-8z"/>
				<g id="&lt;Group&gt;">
					<path id="&lt;Path&gt;" class="s6" d="m306.1 189.3c2.3-1.3 4.1-0.2 4.1 2.4 0 2.6-1.8 5.8-4.1 7.1-2.3 1.3-4.1 0.2-4.1-2.4 0-2.6 1.8-5.8 4.1-7.1z"/>
					<path id="&lt;Path&gt;" class="s6" d="m319.8 181.2l45.9-26.5c2.5-1.4 4.5-0.4 4.5 2.3 0 2.8-2 6.1-4.5 7.6l-45.9 26.5c-2.5 1.4-4.5 0.4-4.5-2.3 0-2.8 2-6.1 4.5-7.6z"/>
				</g>
			</g>
			<g id="&lt;Group&gt;">
				<path id="&lt;Path&gt;" class="s2" d="m485.1 63.2c-0.7-4.9-4.6-6.7-9.4-4l-279.2 161.2c-2.6 1.5-5 4.1-6.7 7.1l-29.7-17.2c1.7-2.9 4.1-5.5 6.7-7l279.2-161.2c5.2-3 13.6-3 18.9 0l10.8 6.2c4.8 2.8 8.8 9.2 9.4 14.9z"/>
				<path id="&lt;Path&gt;" class="s14" d="m485.1 63.2c-0.7-4.9-4.6-6.7-9.4-4l-279.2 161.2c-2.6 1.5-5 4.1-6.7 7.1l-29.7-17.2c1.7-2.9 4.1-5.5 6.7-7l279.2-161.2c5.2-3 13.6-3 18.9 0l10.8 6.2c4.8 2.8 8.8 9.2 9.4 14.9z"/>
			</g>
			<g id="Device 3 ">
				<g id="Mobile 8 ">
					<g id="&lt;Group&gt;">
						<path id="&lt;Path&gt;" class="s2" d="m411.8 83.1c-2.7 1.6-6.9 1.7-9.4 0.2-1.3-0.7-1.8-1.6-1.8-2.6 0-0.7-0.1-3.2 0-3.9 0-1.1 0.7-2.1 2.1-2.9l29.9-17.3c2.7-1.5 6.9-1.6 9.5-0.1 1.1 0.6 1.7 1.5 1.7 2.4 0.1 0.7 0.1 3.4 0.1 4.1 0 1-0.8 2-2.1 2.9z"/>
						<path id="&lt;Path&gt;" class="s12" d="m411.8 83.1c-2.7 1.6-6.9 1.7-9.4 0.2-1.3-0.7-1.8-1.6-1.8-2.6 0-0.7-0.1-3.2 0-3.9 0-1.1 0.7-2.1 2.1-2.9l29.9-17.3c2.7-1.5 6.9-1.6 9.5-0.1 1.1 0.6 1.7 1.5 1.7 2.4 0.1 0.7 0.1 3.4 0.1 4.1 0 1-0.8 2-2.1 2.9z"/>
						<path id="&lt;Path&gt;" class="s2" d="m411.8 79.2l30-17.3c2.7-1.5 2.8-4 0.3-5.4-2.6-1.5-6.8-1.4-9.5 0.1l-29.9 17.3c-2.7 1.6-2.9 4-0.3 5.5 2.5 1.4 6.7 1.4 9.4-0.2z"/>
						<path id="&lt;Path&gt;" class="s12" d="m411.8 79.2l30-17.3c2.7-1.5 2.8-4 0.3-5.4-2.6-1.5-6.8-1.4-9.5 0.1l-29.9 17.3c-2.7 1.6-2.9 4-0.3 5.5 2.5 1.4 6.7 1.4 9.4-0.2z"/>
					</g>
				</g>
			</g>
			<g id="Device 2 ">
				<g id="Mobile 7 ">
					<g id="&lt;Group&gt;">
						<path id="&lt;Path&gt;" class="s2" d="m176 318.8c0-3.2-2-6.9-4.6-8.3-1.2-0.7-2.3-0.8-3.1-0.3-0.6 0.4-2.8 1.6-3.4 2-0.9 0.5-1.4 1.6-1.4 3.2v73.4c0 3.1 2 6.8 4.5 8.2 1.2 0.7 2.3 0.8 3.1 0.4 0.6-0.4 2.9-1.7 3.5-2.1 0.9-0.5 1.4-1.6 1.4-3.2z"/>
						<path id="&lt;Path&gt;" class="s12" d="m176 318.8c0-3.2-2-6.9-4.6-8.3-1.2-0.7-2.3-0.8-3.1-0.3-0.6 0.4-2.8 1.6-3.4 2-0.9 0.5-1.4 1.6-1.4 3.2v73.4c0 3.1 2 6.8 4.5 8.2 1.2 0.7 2.3 0.8 3.1 0.4 0.6-0.4 2.9-1.7 3.5-2.1 0.9-0.5 1.4-1.6 1.4-3.2z"/>
						<path id="&lt;Path&gt;" class="s2" d="m172.6 320.7v73.3c0 3.2-2 4.5-4.6 3-2.5-1.4-4.5-5.1-4.5-8.2v-73.4c0-3.1 2-4.4 4.5-3 2.6 1.5 4.6 5.2 4.6 8.3z"/>
						<path id="&lt;Path&gt;" class="s14" d="m172.6 320.7v73.3c0 3.2-2 4.5-4.6 3-2.5-1.4-4.5-5.1-4.5-8.2v-73.4c0-3.1 2-4.4 4.5-3 2.6 1.5 4.6 5.2 4.6 8.3z"/>
					</g>
					<g id="&lt;Group&gt;">
						<path id="&lt;Path&gt;" class="s2" d="m176 416.9c0-3.1-2-6.8-4.6-8.3-1.2-0.7-2.3-0.7-3.1-0.2-0.6 0.3-2.8 1.6-3.4 1.9-0.9 0.5-1.4 1.7-1.4 3.3v34.5c0 3.2 2 6.9 4.5 8.3 1.2 0.7 2.3 0.8 3.1 0.3 0.6-0.3 2.9-1.6 3.5-2 0.9-0.5 1.4-1.6 1.4-3.2z"/>
						<path id="&lt;Path&gt;" class="s12" d="m176 416.9c0-3.1-2-6.8-4.6-8.3-1.2-0.7-2.3-0.7-3.1-0.2-0.6 0.3-2.8 1.6-3.4 1.9-0.9 0.5-1.4 1.7-1.4 3.3v34.5c0 3.2 2 6.9 4.5 8.3 1.2 0.7 2.3 0.8 3.1 0.3 0.6-0.3 2.9-1.6 3.5-2 0.9-0.5 1.4-1.6 1.4-3.2z"/>
						<path id="&lt;Path&gt;" class="s2" d="m172.6 418.9v34.5c0 3.1-2 4.5-4.6 3-2.5-1.4-4.5-5.1-4.5-8.3v-34.5c0-3.1 2-4.5 4.5-3 2.6 1.4 4.6 5.2 4.6 8.3z"/>
						<path id="&lt;Path&gt;" class="s14" d="m172.6 418.9v34.5c0 3.1-2 4.5-4.6 3-2.5-1.4-4.5-5.1-4.5-8.3v-34.5c0-3.1 2-4.5 4.5-3 2.6 1.4 4.6 5.2 4.6 8.3z"/>
					</g>
				</g>
			</g>
		</g>
	</g>
	<g id="Window">
		<g id="Wintow 1 ">
			<g id="&lt;Group&gt;">
				<path id="&lt;Path&gt;" class="s1" d="m494.8 137.8l-258 148.8c-3.2 1.9-5.8 6.4-5.8 10.1v545.8c0 3.7 2.6 8.2 5.8 10l3.6 2.1c3.2 1.8 8.4 1.8 11.6 0l258.1-149c3.2-1.9 5.8-6.4 5.8-10.1v-545.6c0-3.7-2.6-8.2-5.8-10l-3.7-2.1c-3.2-1.8-8.4-1.8-11.6 0z"/>
				<g id="&lt;Group&gt;">
					<path id="&lt;Path&gt;" class="s16" d="m515.9 695.9c0 5.1-3.6 8.4-8 10.9l-253.6 146.5c-4.5 2.5-8.1 0.5-8.1-4.7v-540.7c0-5.7 3.1-11 8-13.8l253.6-146.5c3.6-2.1 8.1 0.5 8.1 4.6z"/>
				</g>
				<path id="&lt;Path&gt;" class="s0" d="m246.2 426.4v422.2c0 5.2 3.6 7.2 8.1 4.7l253.6-146.5c4.4-2.5 8-5.8 8-10.9l-0.1-425.1z"/>
				<path id="&lt;Compound Path&gt;" fill-rule="evenodd" class="s1" d="m515.9 152.2v543.7c0 5.1-3.6 8.4-8 10.9l-253.6 146.5c-1.3 0.7-2.5 1.1-3.6 1.1-2.6 0-4.5-2.1-4.5-5.8v-540.7c0-5.7 3.1-11 8-13.8l253.6-146.5c0.9-0.5 1.8-0.8 2.7-0.8 2.8 0 5.4 2.3 5.4 5.4zm-6.9-2.7l-253.7 146.5c-4.2 2.5-6.8 7-6.8 11.9v540.7c0 1.1 0.2 3.5 2.2 3.5 0.7 0 1.5-0.2 2.4-0.8l253.6-146.4c4.8-2.7 6.9-5.5 6.9-9v-543.7c0-1.9-1.6-3.1-3.1-3.1q-0.8 0-1.5 0.4z"/>
				<path id="&lt;Path&gt;" class="s17" d="m515.9 149.9v2.3c0-4.1-4.5-6.7-8.1-4.6l-253.6 146.5c-2.5 1.4-4.4 3.4-5.8 5.8q-0.1 0.1-0.1 0.2l-15.7-9.1c1.1-1.8 2.5-3.4 4.2-4.4l258-148.8c3.2-1.8 8.4-1.8 11.6 0l3.7 2.1c3.2 1.8 5.8 6.3 5.8 10z"/>
			</g>
			<g id="&lt;Group&gt;">
				<g id="&lt;Group&gt;" style="opacity: .1">
					<path id="&lt;Path&gt;" class="s18" d="m279.9 422.9l53-30.5c2.7-1.6 4.9-0.5 4.9 2.4 0 2.9-2.2 6.5-4.9 8.1l-53 30.5c-2.7 1.6-4.9 0.5-4.9-2.4 0-2.9 2.2-6.5 4.9-8.1z"/>
				</g>
				<g id="&lt;Group&gt;">
					<path id="&lt;Path&gt;" class="s1" d="m266 458.2c-0.4 0-0.8-0.2-1-0.5-0.3-0.6-0.1-1.2 0.4-1.6l236.2-136.3c0.5-0.3 1.2-0.1 1.5 0.4 0.3 0.5 0.1 1.2-0.4 1.5l-236.2 136.4q-0.2 0.1-0.5 0.1z"/>
				</g>
				<g id="&lt;Group&gt;">
					<g id="&lt;Group&gt;">
						<g id="&lt;Group&gt;">
							<g id="&lt;Group&gt;">
								<path id="&lt;Path&gt;" class="s19" d="m466.6 315.5c2.3-1.4 4.1-0.3 4.1 2.3 0 2.6-1.9 5.8-4.1 7.1-2.3 1.3-4.2 0.2-4.1-2.4 0-2.6 1.8-5.7 4.1-7z"/>
							</g>
						</g>
					</g>
					<g id="&lt;Group&gt;">
						<g id="&lt;Group&gt;">
							<path id="&lt;Compound Path&gt;" fill-rule="evenodd" class="s19" d="m463.9 328.8q-1.1 0-2.1-0.5c-1.4-0.8-2.2-2.5-2.2-4.6-0.1-4.3 3.1-9.5 7-11.8l13.9-8c2.1-1.2 4.1-1.4 5.6-0.5 1.5 0.8 2.2 2.4 2.2 4.5 0 4.4-3.1 9.5-7 11.8l-13.9 8.1c-1.2 0.7-2.4 1-3.5 1zm-2.8-5.1c0 1.6 0.5 2.7 1.5 3.2 1 0.6 2.5 0.4 4.1-0.5l13.8-8c3.5-2 6.3-6.7 6.3-10.5 0-1.5-0.5-2.7-1.4-3.2-1.1-0.6-2.6-0.4-4.1 0.5l-13.9 8c-3.5 2-6.3 6.7-6.3 10.5z"/>
						</g>
					</g>
				</g>
				<g id="&lt;Group&gt;" style="opacity: .1">
					<path id="&lt;Path&gt;" class="s18" d="m279.9 464.9l81.1-46.9c2.7-1.6 4.9-0.5 4.9 2.4 0 2.9-2.2 6.5-4.9 8.1l-81.1 46.8c-2.7 1.6-4.9 0.5-4.9-2.4 0-2.9 2.2-6.5 4.9-8z"/>
				</g>
				<g id="&lt;Group&gt;">
					<path id="&lt;Path&gt;" class="s1" d="m266 500.1c-0.4 0-0.8-0.2-1-0.5-0.3-0.6-0.1-1.2 0.4-1.5l236.2-136.4c0.5-0.3 1.2-0.1 1.5 0.4 0.3 0.6 0.1 1.2-0.4 1.5l-236.2 136.4q-0.2 0.1-0.5 0.1z"/>
				</g>
				<g id="&lt;Group&gt;">
					<g id="&lt;Group&gt;">
						<g id="&lt;Group&gt;">
							<path id="&lt;Compound Path&gt;" class="s2" d="m463.9 370.7q-1.1 0-2.1-0.5c-1.4-0.8-2.2-2.5-2.2-4.6-0.1-4.3 3.1-9.5 7-11.8l13.9-8c2.1-1.2 4.1-1.4 5.6-0.5 1.5 0.8 2.2 2.4 2.2 4.6 0 4.3-3.1 9.4-7 11.7l-13.9 8.1c-1.2 0.7-2.4 1-3.5 1z"/>
						</g>
					</g>
					<g id="&lt;Group&gt;">
						<g id="&lt;Group&gt;">
							<g id="&lt;Group&gt;">
								<path id="&lt;Path&gt;" class="s16" d="m481.4 348.7c2.3-1.3 4.1-0.3 4.1 2.4 0 2.6-1.8 5.7-4.1 7-2.3 1.3-4.1 0.3-4.1-2.3 0-2.6 1.9-5.8 4.1-7.1z"/>
							</g>
						</g>
					</g>
				</g>
				<g id="&lt;Group&gt;">
					<g id="&lt;Group&gt;">
						<g id="&lt;Group&gt;">
							<path id="&lt;Compound Path&gt;" class="s2" d="m463.9 454.6q-1.1 0-2.1-0.6c-1.4-0.8-2.2-2.4-2.2-4.6-0.1-4.2 3.1-9.5 7-11.8l13.9-8c2.1-1.2 4.1-1.4 5.6-0.5 1.5 0.8 2.2 2.4 2.2 4.6 0 4.3-3.1 9.5-7 11.8l-13.9 8c-1.2 0.7-2.4 1.1-3.5 1.1z"/>
						</g>
					</g>
					<g id="&lt;Group&gt;">
						<g id="&lt;Group&gt;">
							<g id="&lt;Group&gt;">
								<path id="&lt;Path&gt;" class="s16" d="m481.4 432.5c2.3-1.3 4.1-0.2 4.1 2.4 0 2.6-1.8 5.8-4.1 7.1-2.3 1.2-4.1 0.2-4.1-2.4 0-2.6 1.9-5.8 4.1-7.1z"/>
							</g>
						</g>
					</g>
				</g>
				<g id="&lt;Group&gt;">
					<g id="&lt;Group&gt;">
						<g id="&lt;Group&gt;">
							<path id="&lt;Compound Path&gt;" class="s2" d="m463.9 496.5q-1.1 0-2.1-0.6c-1.4-0.8-2.2-2.4-2.2-4.6-0.1-4.2 3.1-9.5 7-11.8l13.9-8c2.1-1.2 4.1-1.4 5.6-0.5 1.5 0.8 2.2 2.4 2.2 4.6 0 4.3-3.1 9.5-7 11.8l-13.9 8c-1.2 0.7-2.4 1.1-3.5 1.1z"/>
						</g>
					</g>
					<g id="&lt;Group&gt;">
						<g id="&lt;Group&gt;">
							<g id="&lt;Group&gt;">
								<path id="&lt;Path&gt;" class="s16" d="m481.4 474.4c2.3-1.3 4.1-0.2 4.1 2.4 0 2.6-1.8 5.8-4.1 7.1-2.3 1.3-4.1 0.2-4.1-2.4 0-2.6 1.9-5.8 4.1-7.1z"/>
							</g>
						</g>
					</g>
				</g>
				<g id="&lt;Group&gt;" style="opacity: .1">
					<path id="&lt;Path&gt;" class="s18" d="m279.9 506.8l53-30.6c2.7-1.6 4.9-0.5 4.9 2.4 0 2.9-2.2 6.5-4.9 8.1l-53 30.6c-2.7 1.5-4.9 0.4-4.9-2.5 0-2.9 2.2-6.5 4.9-8z"/>
				</g>
				<g id="&lt;Group&gt;">
					<path id="&lt;Path&gt;" class="s1" d="m266 542.1c-0.4 0-0.8-0.3-1-0.6-0.3-0.5-0.1-1.2 0.4-1.5l236.2-136.4c0.5-0.3 1.2-0.1 1.5 0.4 0.3 0.6 0.1 1.2-0.4 1.6l-236.2 136.3q-0.2 0.2-0.5 0.2z"/>
				</g>
				<g id="&lt;Group&gt;">
					<g id="&lt;Group&gt;">
						<g id="&lt;Group&gt;">
							<g id="&lt;Group&gt;">
								<path id="&lt;Path&gt;" class="s19" d="m466.6 399.3c2.3-1.3 4.1-0.3 4.1 2.4 0 2.6-1.9 5.7-4.1 7-2.3 1.3-4.2 0.3-4.1-2.3 0-2.6 1.8-5.8 4.1-7.1z"/>
							</g>
						</g>
					</g>
					<g id="&lt;Group&gt;">
						<g id="&lt;Group&gt;">
							<path id="&lt;Compound Path&gt;" fill-rule="evenodd" class="s19" d="m463.9 412.7q-1.1 0-2.1-0.6c-1.4-0.8-2.2-2.4-2.2-4.6-0.1-4.2 3.1-9.5 7-11.8l13.9-8c2.1-1.2 4.1-1.4 5.6-0.5 1.5 0.8 2.2 2.4 2.2 4.6 0 4.3-3.1 9.4-7 11.7l-13.9 8.1c-1.2 0.7-2.4 1.1-3.5 1.1zm-2.8-5.2c0 1.6 0.5 2.7 1.5 3.3 1 0.6 2.5 0.4 4.1-0.6l13.8-8c3.5-2 6.3-6.7 6.3-10.4 0-1.6-0.5-2.8-1.4-3.3-1.1-0.6-2.6-0.4-4.1 0.5l-13.9 8.1c-3.5 2-6.3 6.6-6.3 10.4z"/>
						</g>
					</g>
				</g>
				<g id="&lt;Group&gt;" style="opacity: .1">
					<path id="&lt;Path&gt;" class="s18" d="m279.9 548.7l72.1-41.6c2.6-1.5 4.8-0.4 4.8 2.5 0 2.9-2.2 6.5-4.8 8l-72.1 41.6c-2.7 1.5-4.9 0.4-4.9-2.5 0-2.9 2.2-6.5 4.9-8z"/>
				</g>
				<g id="&lt;Group&gt;">
					<path id="&lt;Path&gt;" class="s1" d="m266 584c-0.4 0-0.8-0.2-1-0.6-0.3-0.5-0.1-1.2 0.4-1.5l236.2-136.4c0.5-0.3 1.2-0.1 1.5 0.4 0.3 0.6 0.1 1.3-0.4 1.6l-236.2 136.3q-0.2 0.2-0.5 0.2z"/>
				</g>
				<g id="&lt;Group&gt;" style="opacity: .1">
					<path id="&lt;Path&gt;" class="s18" d="m279.9 590.6l53-30.6c2.7-1.5 4.9-0.4 4.9 2.5 0 2.9-2.2 6.5-4.9 8l-53 30.6c-2.7 1.5-4.9 0.4-4.9-2.5 0-2.9 2.2-6.5 4.9-8z"/>
				</g>
				<g id="&lt;Group&gt;" style="opacity: .1">
					<path id="&lt;Path&gt;" class="s18" d="m270.8 643.2l90.2-52.1c2.7-1.6 4.9-0.5 4.9 2.4 0 2.9-2.2 6.5-4.9 8.1l-90.2 52.1c-2.7 1.5-4.8 0.4-4.8-2.5 0-2.9 2.1-6.5 4.8-8z"/>
				</g>
				<g id="&lt;Group&gt;" style="opacity: .1">
					<path id="&lt;Path&gt;" class="s18" d="m279.9 674.7l99.3-57.4c2.7-1.6 4.8-0.5 4.8 2.4 0 2.9-2.1 6.5-4.8 8l-99.3 57.5c-2.7 1.5-4.9 0.4-4.9-2.5 0-2.9 2.2-6.4 4.9-8z"/>
				</g>
				<g id="&lt;Group&gt;">
					<path id="&lt;Path&gt;" class="s1" d="m266 668.1c-0.4 0-0.8-0.2-1-0.6-0.3-0.5-0.1-1.2 0.4-1.5l236.2-136.4c0.5-0.3 1.2-0.1 1.5 0.4 0.3 0.6 0.1 1.3-0.4 1.6l-236.2 136.3q-0.2 0.2-0.5 0.2z"/>
				</g>
				<g id="&lt;Group&gt;">
					<path id="&lt;Path&gt;" class="s1" d="m266 710c-0.4 0-0.8-0.2-1-0.6-0.3-0.5-0.1-1.2 0.4-1.5l236.2-136.3c0.5-0.3 1.2-0.2 1.5 0.4 0.3 0.5 0.1 1.2-0.4 1.5l-236.2 136.3q-0.2 0.2-0.5 0.2z"/>
				</g>
				<g id="&lt;Group&gt;" style="opacity: .1">
					<path id="&lt;Path&gt;" class="s18" d="m279.9 716.6l81.1-46.9c2.7-1.5 4.9-0.4 4.9 2.5 0 2.9-2.2 6.5-4.9 8l-81.1 46.9c-2.7 1.5-4.9 0.5-4.9-2.4 0-2.9 2.2-6.5 4.9-8.1z"/>
				</g>
				<g id="&lt;Group&gt;">
					<g id="&lt;Group&gt;">
						<path id="&lt;Path&gt;" class="s1" d="m435.2 584.9l48.2-27.8c2.7-1.6 4.9-0.5 4.9 2.4 0 2.9-2.2 6.5-4.9 8.1l-48.2 27.8c-2.7 1.5-4.9 0.4-4.9-2.5 0-2.9 2.2-6.5 4.9-8z"/>
					</g>
					<g id="&lt;Group&gt;">
						<g id="&lt;Group&gt;">
							<path id="&lt;Compound Path&gt;" class="s2" d="m493.1 554q-0.1 0-0.3-0.1-0.1-0.2-0.1-0.4v-1.5q0-0.2 0.1-0.3 0-0.2 0.1-0.3 0.1 0 0.1 0 0 0 0.1 0l4 1.9q0.2 0.1 0.3 0.2 0 0.1 0 0.3v0.8q0 0.3 0 0.5-0.1 0.2-0.3 0.4l-4 6.5q-0.1 0.1-0.1 0.1 0 0.1-0.1 0.1-0.1 0-0.1 0-0.1-0.1-0.1-0.3v-1.5q0-0.2 0.1-0.5 0.2-0.3 0.3-0.5l2.6-4.2z"/>
						</g>
					</g>
				</g>
				<g id="&lt;Group&gt;">
					<g id="&lt;Group&gt;">
						<path id="&lt;Path&gt;" class="s1" d="m435.2 626.9l48.2-27.9c2.7-1.5 4.9-0.4 4.9 2.5 0 2.9-2.2 6.5-4.9 8l-48.2 27.8c-2.7 1.6-4.9 0.5-4.9-2.4 0-2.9 2.2-6.5 4.9-8z"/>
					</g>
					<g id="&lt;Group&gt;">
						<g id="&lt;Group&gt;">
							<path id="&lt;Compound Path&gt;" class="s2" d="m493.1 596q-0.1-0.1-0.3-0.2-0.1-0.1-0.1-0.4v-1.5q0-0.1 0.1-0.3 0-0.1 0.1-0.2 0.1 0 0.1 0 0 0 0.1 0l4 1.8q0.2 0.1 0.3 0.2 0 0.1 0 0.4v0.7q0 0.3 0 0.5-0.1 0.2-0.3 0.5l-4 6.5q-0.1 0.1-0.1 0.1 0 0-0.1 0-0.1 0.1-0.1 0-0.1-0.1-0.1-0.2v-1.5q0-0.3 0.1-0.6 0.2-0.2 0.3-0.4l2.6-4.2z"/>
						</g>
					</g>
				</g>
				<g id="&lt;Group&gt;">
					<g id="&lt;Group&gt;">
						<path id="&lt;Compound Path&gt;" fill-rule="evenodd" class="s1" d="m277.7 807.5q-1 0-1.8-0.5c-1.3-0.7-2-2.2-2-4.1v-20.3c0-3.5 2.4-7.6 5.4-9.3l63-36.4c1.7-1 3.3-1.1 4.6-0.3 1.2 0.7 1.9 2.1 1.9 4.1v20.2c0 3.5-2.3 7.6-5.4 9.4l-62.9 36.4q-1.5 0.8-2.8 0.8zm67.3-69.2q-0.7 0-1.6 0.5l-62.9 36.4c-2.4 1.3-4.3 4.7-4.3 7.4v20.3c0 1.1 0.3 1.8 0.8 2.2 0.6 0.3 1.4 0.1 2.3-0.4l63-36.3c2.3-1.4 4.3-4.8 4.3-7.5v-20.2c0-1.1-0.3-1.9-0.9-2.2q-0.3-0.2-0.7-0.2z"/>
					</g>
					<g id="&lt;Group&gt;">
						<path id="&lt;Compound Path&gt;" class="s1" d="m294.1 779.8q0 0.3 0 0.6 0 0.4 0 0.8 0 0.4 0 0.8 0 0.4 0 0.6 0.1 0.4 0.1 0.7 0.1 0.3 0.3 0.4 0.1 0.2 0.4 0.2 0.2 0 0.6-0.2 0.3-0.2 0.6-0.4 0.2-0.3 0.4-0.6 0.1-0.3 0.2-0.5 0.1-0.3 0.1-0.5 0.1-0.3 0.1-0.5 0.1-0.1 0.3-0.2l1.4-0.8q0.1-0.1 0.1 0 0.1 0 0.1 0.2 0 0.8-0.3 1.7-0.2 0.9-0.7 1.7-0.4 0.8-1 1.5-0.6 0.7-1.3 1.1-0.8 0.4-1.4 0.4-0.6 0-1-0.4-0.4-0.3-0.7-1-0.2-0.7-0.2-1.6-0.1-0.6-0.1-1.4 0-0.8 0.1-1.5 0-0.9 0.2-1.9 0.2-0.9 0.7-1.8 0.4-0.8 1-1.5 0.6-0.7 1.4-1.2 0.7-0.4 1.3-0.4 0.6 0 1 0.2 0.5 0.3 0.7 0.9 0.3 0.6 0.3 1.4 0 0.2-0.1 0.3 0 0.2-0.1 0.2l-1.4 0.8q-0.2 0.2-0.3 0.1 0-0.1-0.1-0.3 0-0.2-0.1-0.4-0.1-0.2-0.2-0.3-0.2-0.1-0.4-0.1-0.3 0-0.6 0.3-0.4 0.2-0.6 0.5-0.3 0.3-0.4 0.6-0.2 0.4-0.3 0.8 0 0.3-0.1 0.7z"/>
						<path id="&lt;Compound Path&gt;" fill-rule="evenodd" class="s1" d="m300 781.2q0-1.1 0.5-2.1 0.5-1 1.8-2.1l1.2-1q0-0.4-0.1-0.6-0.2-0.2-0.5 0-0.3 0.2-0.4 0.4-0.1 0.1-0.2 0.3-0.1 0.1-0.2 0.2-0.1 0.1-0.2 0.2l-1.3 0.8q-0.1 0-0.2 0-0.1-0.1-0.1-0.3 0.1-0.4 0.2-0.9 0.2-0.5 0.6-1 0.3-0.6 0.8-1.1 0.4-0.5 1-0.8 0.6-0.4 1.1-0.4 0.5 0 0.8 0.2 0.3 0.3 0.5 0.8 0.1 0.5 0.1 1.2v5q0 0.2-0.1 0.4 0 0.2-0.2 0.2l-1.3 0.8q-0.1 0.1-0.2 0-0.1-0.1-0.1-0.3v-0.4q-0.3 0.6-0.6 1.1-0.4 0.5-1 0.9-0.5 0.2-0.8 0.3-0.4 0-0.6-0.2-0.3-0.3-0.4-0.7-0.1-0.4-0.1-0.9zm2.4-1q0.2-0.2 0.4-0.4 0.2-0.3 0.4-0.6 0.1-0.3 0.2-0.6 0.1-0.3 0.1-0.7l-1 0.8q-0.3 0.3-0.4 0.6-0.2 0.3-0.2 0.6 0 0.3 0.1 0.3 0.1 0.1 0.4 0z"/>
						<path id="&lt;Compound Path&gt;" class="s1" d="m312.8 775.7q0 0.2 0 0.4-0.1 0.2-0.2 0.2l-1.4 0.8q-0.1 0.1-0.2 0-0.1-0.1-0.1-0.3v-4.1q0-0.7-0.2-1-0.2-0.3-0.7 0-0.5 0.2-0.7 0.8-0.2 0.5-0.2 1.2v4.2q0 0.2-0.1 0.4-0.1 0.2-0.2 0.2l-1.4 0.8q-0.1 0.1-0.2 0 0-0.1 0-0.3v-7.6q0-0.2 0-0.4 0.1-0.2 0.2-0.3l1.3-0.7q0.1-0.1 0.2 0 0.1 0.1 0.1 0.3v0.4q0.1-0.3 0.2-0.5 0.2-0.3 0.3-0.5 0.2-0.3 0.5-0.5 0.2-0.2 0.5-0.4 0.5-0.3 1-0.3 0.4-0.1 0.7 0.2 0.3 0.3 0.5 0.9 0.1 0.6 0.1 1.6z"/>
						<path id="&lt;Compound Path&gt;" class="s1" d="m316.3 769.3q-0.1 0.3-0.1 0.6 0 0.4 0.1 0.6 0 0.6 0.3 0.8 0.2 0.2 0.6 0 0.4-0.2 0.6-0.5 0.2-0.3 0.3-0.6 0-0.2 0.1-0.3 0.1-0.2 0.2-0.2l1.4-0.8q0.1-0.1 0.2 0 0.1 0 0.1 0.2 0 0.3-0.2 0.9-0.1 0.6-0.4 1.3-0.3 0.6-0.9 1.3-0.5 0.7-1.4 1.2-0.6 0.3-1.1 0.4-0.5 0-0.9-0.2-0.4-0.3-0.6-0.9-0.2-0.5-0.3-1.4 0-0.2 0-0.7 0-0.4 0-0.6 0.1-0.9 0.3-1.7 0.2-0.9 0.6-1.6 0.4-0.7 0.9-1.3 0.5-0.5 1.1-0.9 0.9-0.5 1.4-0.4 0.6 0 0.9 0.4 0.3 0.3 0.4 0.7 0.2 0.5 0.2 0.7 0 0.2-0.1 0.4-0.1 0.2-0.2 0.2l-1.4 0.8q-0.1 0.1-0.2 0-0.1 0-0.1-0.1-0.1-0.2-0.3-0.3-0.2 0-0.6 0.2-0.4 0.2-0.6 0.7-0.3 0.5-0.3 1.1z"/>
						<path id="&lt;Compound Path&gt;" fill-rule="evenodd" class="s1" d="m323.2 766.9q0 0.3 0.1 0.5 0.1 0.2 0.2 0.3 0.2 0.1 0.3 0 0.2 0 0.4-0.1 0.3-0.2 0.5-0.4 0.2-0.2 0.3-0.5 0.1-0.2 0.2-0.3 0 0 0.1-0.1l1.4-0.8q0.3-0.1 0.3 0.2 0 0.2-0.2 0.7-0.2 0.5-0.5 1.1-0.3 0.6-0.9 1.3-0.5 0.6-1.2 1-0.7 0.4-1.3 0.4-0.5 0-0.9-0.3-0.3-0.4-0.5-1.1-0.2-0.7-0.2-1.8 0-0.9 0.2-1.8 0.2-1 0.5-1.8 0.4-0.8 0.9-1.4 0.6-0.7 1.3-1.1 0.7-0.4 1.3-0.3 0.5 0 0.9 0.5 0.3 0.4 0.5 1.1 0.1 0.7 0.1 1.5v0.5q0 0.2 0 0.4-0.1 0.1-0.2 0.2zm0.9-3.7q-0.4 0.2-0.7 0.8-0.2 0.5-0.2 1.1l1.9-1.1q-0.1-0.5-0.3-0.8-0.2-0.3-0.7 0z"/>
						<path id="&lt;Compound Path&gt;" class="s1" d="m330.5 765.6q0 0.1-0.1 0.3-0.1 0.2-0.2 0.3l-1.4 0.7q-0.1 0.1-0.2 0 0-0.1 0-0.2v-10.8q0-0.2 0-0.4 0.1-0.2 0.2-0.2l1.4-0.8q0.1-0.1 0.2 0 0.1 0.1 0.1 0.3z"/>
					</g>
				</g>
				<g id="&lt;Group&gt;">
					<g id="&lt;Group&gt;">
						<path id="&lt;Path&gt;" class="s2" d="m424.8 716.5v-20.3c0-3.1 2.1-6.8 4.8-8.4l63-36.3c2.7-1.6 4.8-0.3 4.8 2.7v20.3c0 3.1-2.1 6.9-4.8 8.4l-63 36.4c-2.7 1.5-4.8 0.3-4.8-2.8z"/>
					</g>
					<g id="&lt;Group&gt;">
						<path id="&lt;Compound Path&gt;" fill-rule="evenodd" class="s16" d="m449.3 685.9q0.3-0.1 0.4 0 0.1 0.1 0.1 0.3l2.4 9q0 0.1 0 0.2 0 0.1-0.1 0.3 0 0.1-0.1 0.2l-1.4 0.8q-0.2 0.1-0.3 0-0.1-0.1-0.1-0.2l-0.3-1.2-2.8 1.6-0.3 1.6q-0.1 0.1-0.2 0.3 0 0.2-0.3 0.3l-1.3 0.8q-0.1 0.1-0.2 0 0-0.1 0-0.2 0-0.1 0-0.3l2.3-11.7q0.1-0.2 0.2-0.4 0.1-0.3 0.3-0.4zm-1.7 8.2l1.7-1-0.9-3.5z"/>
						<path id="&lt;Compound Path&gt;" fill-rule="evenodd" class="s16" d="m456.8 693.2q-0.3 0.2-0.5 0.3-0.3 0-0.4 0-0.2-0.1-0.3-0.2-0.1-0.1-0.2-0.2v3.5q0 0.2-0.1 0.4-0.1 0.1-0.2 0.2l-1.3 0.8q-0.2 0-0.2 0-0.1-0.1-0.1-0.3v-10.8q0-0.2 0.1-0.4 0-0.1 0.2-0.2l1.2-0.8q0.2 0 0.3 0.1 0 0 0 0.2v0.4q0.1-0.2 0.2-0.5 0.2-0.2 0.3-0.4 0.2-0.3 0.4-0.5 0.3-0.2 0.6-0.4 0.5-0.3 0.9-0.3 0.5-0.1 0.8 0.2 0.3 0.3 0.5 0.9 0.2 0.6 0.2 1.5 0 0.3 0 0.7 0 0.4 0 0.7 0 1-0.2 1.8-0.2 0.8-0.5 1.5-0.3 0.6-0.8 1.1-0.4 0.5-0.9 0.7zm0.5-4.2q0-0.5 0-0.9 0-0.6-0.2-0.9-0.3-0.3-0.8 0-0.2 0.1-0.4 0.3-0.1 0.3-0.2 0.5-0.2 0.3-0.2 0.5-0.1 0.3-0.1 0.6 0 0.2 0 0.5 0 0.4 0 0.6 0 0.2 0.1 0.4 0 0.2 0.2 0.4 0.1 0.1 0.2 0.1 0.2 0 0.4-0.1 0.5-0.3 0.8-0.9 0.2-0.5 0.2-1.1z"/>
						<path id="&lt;Compound Path&gt;" fill-rule="evenodd" class="s16" d="m464.1 689q-0.3 0.2-0.5 0.2-0.2 0.1-0.4 0-0.2 0-0.3-0.1-0.1-0.1-0.2-0.2v3.5q0 0.1-0.1 0.3-0.1 0.2-0.2 0.3l-1.3 0.8q-0.2 0-0.2-0.1-0.1 0-0.1-0.2v-10.8q0-0.2 0.1-0.4 0-0.2 0.2-0.2l1.3-0.8q0.1 0 0.2 0 0 0.1 0 0.3v0.4q0.1-0.2 0.3-0.5 0.1-0.2 0.2-0.5 0.2-0.2 0.4-0.4 0.3-0.3 0.6-0.5 0.5-0.2 0.9-0.3 0.5 0 0.8 0.3 0.3 0.3 0.5 0.9 0.2 0.6 0.2 1.5 0 0.3 0 0.7 0 0.4 0 0.7 0 0.9-0.2 1.8-0.2 0.8-0.5 1.4-0.3 0.7-0.8 1.2-0.4 0.4-0.9 0.7zm0.5-4.2q0-0.5 0-1 0-0.5-0.2-0.8-0.2-0.3-0.7 0-0.3 0.1-0.5 0.3-0.1 0.2-0.2 0.5-0.2 0.2-0.2 0.5-0.1 0.3-0.1 0.5 0 0.3 0 0.6 0 0.4 0 0.6 0 0.2 0.1 0.4 0 0.2 0.2 0.3 0.1 0.2 0.2 0.2 0.2 0 0.5-0.1 0.5-0.3 0.7-0.9 0.2-0.5 0.2-1.1z"/>
						<path id="&lt;Compound Path&gt;" class="s16" d="m470 685q0 0.2-0.1 0.4-0.1 0.2-0.2 0.2l-1.3 0.8q-0.1 0.1-0.2 0-0.1-0.1-0.1-0.3v-10.8q0-0.1 0.1-0.3 0.1-0.2 0.2-0.3l1.3-0.7q0.1-0.1 0.2 0 0.1 0.1 0.1 0.2z"/>
						<path id="&lt;Compound Path&gt;" class="s16" d="m474.7 685.5q-0.1 0.2-0.1 0.3-0.1 0.2-0.2 0.3l-1.4 0.8q-0.1 0-0.2 0-0.1-0.1-0.1-0.3 0 0 0-0.1l0.8-3.4-2.1-6.5q0 0 0-0.1 0-0.1 0-0.3 0.1-0.2 0.2-0.2l1.4-0.8q0.1-0.1 0.2 0 0.1 0.1 0.1 0.2l1.2 3.6 1.2-5q0-0.1 0.1-0.3 0.1-0.2 0.2-0.2l1.4-0.9q0.1 0 0.2 0 0.1 0.1 0.1 0.3 0 0.1 0 0.1z"/>
					</g>
				</g>
			</g>
			<g id="&lt;Group&gt;">
				<g id="&lt;Group&gt;">
					<path id="&lt;Compound Path&gt;" class="s19" d="m265.5 352.4l2.7 1.2q0.1 0.1 0.2 0.2 0.1 0.1 0.1 0.4v1.5q0 0.2 0 0.3-0.1 0.2-0.2 0.2 0 0-0.1 0 0 0.1 0 0l-4.1-1.8q-0.2-0.1-0.2-0.2-0.1-0.1-0.1-0.4v-0.7q0-0.3 0.1-0.5 0-0.2 0.2-0.5l4.1-6.5q0-0.1 0-0.1 0.1 0 0.1 0 0.1-0.1 0.2 0 0 0 0 0.2v1.5q0 0.3-0.1 0.6-0.1 0.2-0.2 0.4z"/>
					<path id="&lt;Compound Path&gt;" fill-rule="evenodd" class="s19" d="m270.4 355.8q-0.1 0.1-0.2 0-0.1-0.1-0.1-0.3v-11.5q0-0.2 0.1-0.3 0.1-0.2 0.2-0.3l3.4-2q0.8-0.4 1.3-0.4 0.5 0.1 0.8 0.5 0.3 0.3 0.4 0.8 0.1 0.6 0.1 1.1 0 0.6-0.1 1-0.1 0.5-0.2 0.9-0.1 0.3-0.3 0.6-0.1 0.3-0.2 0.4 0.4 0.2 0.7 0.7 0.3 0.5 0.3 1.5 0 0.7-0.2 1.5-0.1 0.7-0.4 1.5-0.4 0.7-0.8 1.3-0.5 0.6-1.1 0.9zm4.4-11.4q0-0.7-0.2-0.9-0.3-0.2-0.9 0.2l-2.1 1.2v2.7l2.1-1.2q0.6-0.3 0.9-0.8 0.2-0.5 0.2-1.2zm-3.2 8.5l2.2-1.3q0.6-0.3 0.9-0.9 0.3-0.6 0.3-1.3 0-0.7-0.3-0.9-0.3-0.3-0.9 0.1l-2.2 1.2z"/>
					<path id="&lt;Compound Path&gt;" fill-rule="evenodd" class="s19" d="m277.9 344.5q0.1-0.4 0.2-0.9 0.2-0.5 0.5-1.1 0.3-0.5 0.8-1 0.4-0.5 1-0.9 0.6-0.3 1.1-0.3 0.4-0.1 0.8 0.2 0.3 0.3 0.5 0.9 0.2 0.6 0.2 1.5v5.2q0 0.2-0.1 0.4-0.1 0.2-0.2 0.3l-0.9 0.5q-0.1 0-0.2 0-0.1-0.1-0.1-0.3v-0.6q-0.3 0.6-0.7 1.3-0.5 0.6-1.2 1-0.5 0.3-0.9 0.3-0.4 0-0.6-0.2-0.3-0.2-0.4-0.6-0.2-0.5-0.2-1.1 0-1.2 0.6-2.2 0.6-1 1.5-1.8l1.9-1.6q0-0.7-0.3-0.9-0.3-0.1-0.8 0.2-0.3 0.1-0.4 0.4-0.2 0.2-0.4 0.5-0.1 0.2-0.1 0.3-0.1 0.1-0.2 0.2l-1.1 0.6q-0.1 0-0.2 0-0.1-0.1-0.1-0.3zm2 3.9q0.4-0.2 0.7-0.5 0.3-0.4 0.5-0.8 0.2-0.4 0.3-0.8 0.1-0.4 0.1-0.8v-0.2l-1.6 1.4q-0.5 0.4-0.7 0.7-0.2 0.4-0.2 0.8 0 0.4 0.3 0.4 0.2 0 0.6-0.2z"/>
					<path id="&lt;Compound Path&gt;" class="s19" d="m285.7 341.7q0 0.3 0 0.7 0 0.3 0 0.6 0.1 0.5 0.2 0.8 0.1 0.4 0.3 0.5 0.2 0.1 0.4 0.1 0.3 0 0.5-0.2 0.3-0.1 0.5-0.3 0.2-0.2 0.3-0.4 0.2-0.2 0.3-0.4 0.1-0.3 0.2-0.5 0-0.2 0.1-0.5 0.1-0.2 0.3-0.2l0.8-0.5q0.2-0.1 0.3 0 0.1 0 0 0.3 0 0.3-0.1 1-0.2 0.6-0.5 1.3-0.4 0.7-0.9 1.3-0.5 0.6-1.3 1.1-0.6 0.3-1.1 0.3-0.5 0-0.9-0.4-0.4-0.3-0.6-0.9-0.2-0.6-0.3-1.4 0-0.3 0-0.7 0-0.4 0-0.8 0.1-0.8 0.3-1.7 0.2-0.9 0.6-1.6 0.4-0.8 0.9-1.4 0.5-0.7 1.1-1 0.8-0.5 1.3-0.4 0.5 0 0.9 0.3 0.3 0.3 0.5 0.7 0.1 0.5 0.1 0.8 0.1 0.2 0 0.4-0.1 0.2-0.3 0.3l-0.8 0.5q-0.2 0.1-0.3 0-0.1-0.1-0.1-0.3-0.1-0.1-0.2-0.2-0.1-0.1-0.3-0.2-0.1 0-0.3 0-0.2 0-0.5 0.2-0.2 0.1-0.5 0.4-0.2 0.2-0.4 0.6-0.2 0.3-0.3 0.8-0.1 0.5-0.2 1z"/>
					<path id="&lt;Compound Path&gt;" class="s19" d="m292.7 339.4v3.1q0 0.2-0.1 0.4-0.1 0.2-0.2 0.3l-0.9 0.5q-0.1 0-0.2-0.1-0.1 0-0.1-0.2v-11.7q0-0.2 0.1-0.4 0.1-0.2 0.2-0.3l0.9-0.5q0.1-0.1 0.2 0 0.1 0.1 0.1 0.3v5.6l1.9-3.5q0.1-0.1 0.2-0.3 0.1-0.2 0.3-0.3l1.2-0.6q0.1-0.1 0.2 0 0 0.1 0 0.2 0 0.1 0 0.2 0 0.1-0.1 0.3l-2.7 4.9 3 2.6q0 0.1 0.1 0.1 0 0.1 0 0.2 0 0.2-0.1 0.3-0.1 0.2-0.2 0.3l-1.1 0.6q-0.2 0.1-0.3 0.1-0.1 0-0.2-0.1z"/>
				</g>
				<g id="&lt;Group&gt;">
					<g id="&lt;Group&gt;">
						<path id="&lt;Path&gt;" class="s19" d="m479.7 222.9c-0.2 0-0.4-0.1-0.5-0.3-0.2-0.2-0.1-0.6 0.2-0.8l14.7-8.5c0.3-0.1 0.7 0 0.9 0.2 0.1 0.3 0 0.7-0.3 0.8l-14.7 8.6q-0.1 0-0.3 0z"/>
					</g>
					<g id="&lt;Group&gt;">
						<path id="&lt;Path&gt;" class="s19" d="m479.7 229.4c-0.2 0-0.4-0.1-0.5-0.3-0.2-0.2-0.1-0.6 0.2-0.8l14.7-8.5c0.3-0.1 0.7 0 0.9 0.2 0.1 0.3 0 0.7-0.3 0.9l-14.7 8.5q-0.1 0-0.3 0z"/>
					</g>
					<g id="&lt;Group&gt;">
						<path id="&lt;Path&gt;" class="s19" d="m479.7 236c-0.2 0-0.4-0.2-0.5-0.3-0.2-0.3-0.1-0.7 0.2-0.9l14.7-8.5c0.3-0.1 0.7 0 0.9 0.3 0.1 0.2 0 0.6-0.3 0.8l-14.7 8.5q-0.1 0.1-0.3 0.1z"/>
					</g>
					<g id="&lt;Group&gt;">
						<path id="&lt;Path&gt;" class="s19" d="m479.7 220.1c1-0.5 1.8-0.1 1.8 1.1 0 1.2-0.8 2.7-1.9 3.2-1 0.6-1.8 0.1-1.8-1 0-1.2 0.8-2.7 1.9-3.3z"/>
					</g>
					<g id="&lt;Group&gt;">
						<path id="&lt;Path&gt;" class="s19" d="m491 220.1c1.1-0.5 1.9-0.1 1.9 1.1 0 1.2-0.9 2.7-1.9 3.2-1 0.6-1.9 0.1-1.9-1 0.1-1.2 0.9-2.7 1.9-3.3z"/>
					</g>
					<g id="&lt;Group&gt;">
						<path id="&lt;Path&gt;" class="s19" d="m486.1 229.6c1-0.6 1.8-0.2 1.8 1 0 1.2-0.8 2.7-1.8 3.2-1.1 0.6-1.9 0.1-1.9-1 0-1.2 0.8-2.7 1.9-3.2z"/>
					</g>
				</g>
				<g id="&lt;Group&gt;">
					<path id="&lt;Compound Path&gt;" fill-rule="evenodd" class="s19" d="m343.9 317.4q0-0.2 0.1-0.5l2.8-19.3q0.1-0.8 1.1-1.4l1.1-0.7q1-0.5 1.1 0.2l2.8 16q0 0.4 0 0.5 0 0.6-0.7 1l-1 0.6q-0.8 0.5-0.9 0l-0.5-3.2-2.7 1.6-0.5 3.7q-0.1 0.6-0.9 1.1l-0.9 0.5q-0.9 0.5-0.9-0.1zm5.6-10l-0.8-5.4q-0.1-0.9-0.2-1.9h-0.1q-0.1 1.2-0.2 2.2l-0.8 6.4z"/>
					<path id="&lt;Compound Path&gt;" fill-rule="evenodd" class="s19" d="m354.2 311.8q-0.2-0.2-0.2-0.8v-17.2q0-0.5 0.2-0.9 0.1-0.4 0.5-0.6l3.4-1.9q2.3-1.4 3.4 0.4 1.1 1.8 1.2 6.6-0.1 4.9-1.2 8-1.1 3-3.4 4.4l-3.4 1.9q-0.4 0.2-0.5 0.1zm3.8-5.6q1-0.6 1.4-2.2 0.4-1.6 0.4-4.9 0-3.3-0.4-4.5-0.4-1.1-1.4-0.6l-1.1 0.7v12.2z"/>
					<path id="&lt;Compound Path&gt;" class="s19" d="m366 304.7l-2.8-16.2q0-0.4 0-0.5 0-0.6 1-1.2l0.7-0.4q0.9-0.5 1 0.2l1.5 11.7 0.2 1.8v-0.1l0.2-2 1.6-13.4q0.1-0.9 1-1.4l0.7-0.4q1-0.6 1 0 0 0.2-0.1 0.6l-2.7 19.4q-0.1 0.6-0.9 1.1l-1.5 0.8q-0.8 0.5-0.9 0z"/>
					<path id="&lt;Compound Path&gt;" fill-rule="evenodd" class="s19" d="m371.9 301.2q0-0.2 0.1-0.5l2.7-19.2q0.2-0.9 1.1-1.4l1.2-0.7q1-0.6 1.1 0.1l2.8 16q0 0.4 0 0.5 0 0.6-0.7 1.1l-1 0.5q-0.9 0.5-0.9 0l-0.5-3.1-2.7 1.6-0.5 3.6q-0.1 0.7-0.9 1.1l-0.9 0.5q-0.9 0.5-0.9-0.1zm5.6-9.9l-0.8-5.4q-0.2-0.9-0.2-2h-0.1q-0.1 1.2-0.2 2.3l-0.8 6.3z"/>
					<path id="&lt;Compound Path&gt;" class="s19" d="m381.9 295.2v-17.8q0-0.8 1.1-1.4l0.4-0.3q0.4-0.2 0.6-0.2 0.2 0 0.4 0.4l3.2 7.2q0.2 0.6 0.6 1.8l0.1-0.1q-0.2-1.4-0.2-2.1v-8.8q0-0.9 1.1-1.5l0.4-0.3q1.1-0.6 1.1 0.3v17.7q0 0.9-1.1 1.5l-0.3 0.2q-0.4 0.2-0.6 0.2-0.3 0-0.4-0.4l-3.4-7.4q-0.2-0.4-0.5-1.5l-0.1 0.1q0.1 1.2 0.1 1.8v9.1q0 0.9-1 1.5l-0.4 0.3q-1.1 0.6-1.1-0.3z"/>
					<path id="&lt;Compound Path&gt;" class="s19" d="m393.4 287.2q-1.1-1.7-1.1-6.9 0-5 1.2-8.1 1.2-3.2 3.7-4.6 0.8-0.5 1.5-0.6 0.6-0.1 0.6 0.9 0 1-0.3 2-0.2 1-0.6 1-0.5 0-1.1 0.4-1.1 0.6-1.6 2.4-0.6 1.8-0.6 5 0 3.1 0.6 4.3 0.5 1.2 1.7 0.5 0.3-0.2 0.5-0.4 0.3-0.2 0.7-0.5 0-0.1 0.1-0.2 0.4-0.2 0.6 0.4 0.1 0.6 0.1 1.7 0 0.5-0.1 0.8-0.1 0.4-0.4 0.7-0.3 0.3-0.8 0.8-0.5 0.4-1 0.7-2.6 1.4-3.7-0.3z"/>
					<path id="&lt;Compound Path&gt;" class="s19" d="m401 284.7q-0.1-0.2-0.1-0.7v-17.2q0-0.6 0.1-1 0.2-0.3 0.5-0.5l5.4-3.1q0.2-0.1 0.4 0.1 0.1 0.3 0.1 1v0.9q0 0.7-0.1 1.1-0.2 0.4-0.4 0.5l-3.2 1.9v4l2.8-1.6q0.3-0.2 0.4 0.1 0.1 0.2 0.1 1v0.8q0 0.7-0.1 1.1-0.1 0.4-0.4 0.6l-2.8 1.6v4.5l3.2-1.8q0.2-0.2 0.4 0.1 0.1 0.2 0.1 1v0.8q0 0.7-0.1 1.1-0.2 0.4-0.4 0.6l-5.4 3.1q-0.3 0.2-0.5 0z"/>
					<path id="&lt;Compound Path&gt;" fill-rule="evenodd" class="s19" d="m409.3 280q-0.2-0.2-0.2-0.8v-17.2q0-0.6 0.2-0.9 0.1-0.4 0.5-0.6l3.4-1.9q2.3-1.4 3.4 0.4 1.1 1.7 1.2 6.6-0.1 4.9-1.2 8-1.1 3-3.4 4.4l-3.4 1.9q-0.4 0.2-0.5 0.1zm3.8-5.6q1-0.6 1.4-2.2 0.4-1.6 0.4-4.9 0-3.3-0.4-4.5-0.4-1.1-1.4-0.6l-1.1 0.7v12.1z"/>
					<path id="&lt;Compound Path&gt;" class="s19" d="m325.8 359.5q-1.1-1.7-1.1-6.9 0-5 1.2-8.1 1.2-3.2 3.7-4.6 0.8-0.5 1.5-0.6 0.6-0.1 0.6 0.8 0 1.1-0.3 2.1-0.2 0.9-0.6 1-0.5 0-1.1 0.3-1.1 0.7-1.6 2.5-0.6 1.8-0.6 4.9 0 3.1 0.6 4.4 0.5 1.2 1.7 0.5 0.3-0.2 0.5-0.4 0.3-0.2 0.7-0.6 0 0 0.1-0.1 0.4-0.2 0.6 0.4 0.1 0.6 0.1 1.7 0 0.4-0.1 0.8-0.1 0.3-0.4 0.7-0.3 0.3-0.8 0.7-0.5 0.5-1 0.8-2.6 1.4-3.7-0.3z"/>
					<path id="&lt;Compound Path&gt;" class="s19" d="m334.3 355.4q-1.1-0.9-1.1-3.7v-12.9q0-0.8 1-1.4l0.7-0.5q1.1-0.6 1.1 0.3v12.6q0 1.2 0.4 1.6 0.4 0.5 1.1 0.1 0.7-0.4 1.1-1.4 0.4-0.9 0.4-2v-12.6q0-0.9 1.1-1.5l0.7-0.4q1-0.6 1 0.2v12.9q0 2.8-1.1 5-1.2 2.3-3.2 3.4-2 1.2-3.2 0.3z"/>
					<path id="&lt;Compound Path&gt;" class="s19" d="m344.7 350.6q-0.9 0.1-1.2-0.4-0.3-0.4-0.3-0.8 0-0.8 0.3-1.8 0.3-0.9 0.6-1.1 0.1-0.1 0.4 0 0.4 0.1 0.5 0.1 0.7 0.2 1.2-0.1 0.6-0.4 1-1 0.4-0.7 0.4-1.7 0-0.7-0.2-1.1-0.2-0.4-0.5-0.6-0.3-0.1-0.9-0.3-1.4-0.4-2-1.4-0.6-0.9-0.6-3.2 0-2.5 1-4.5 1.1-2 2.8-3 0.6-0.3 1.3-0.4 0.6-0.1 1 0.1 0.3 0.1 0.3 0.7 0 0.8-0.2 1.7-0.2 0.9-0.5 1.1-0.1 0.1-0.5 0.1-0.7-0.1-1.2 0.2-0.7 0.4-1 1.1-0.2 0.6-0.2 1.2 0 1 0.3 1.4 0.4 0.3 1.1 0.5l0.4 0.1q1.3 0.4 1.8 1.4 0.6 0.9 0.6 3 0 1.6-0.4 3.1-0.5 1.6-1.4 2.9-0.8 1.3-2.1 2.1-0.9 0.5-1.8 0.6z"/>
					<path id="&lt;Compound Path&gt;" class="s19" d="m353.3 345v-15l-2 1.2q-0.3 0.1-0.4-0.1-0.1-0.3-0.1-1v-0.9q0-0.7 0.1-1.1 0.1-0.4 0.4-0.5l6.8-4q0.3-0.2 0.4 0.1 0.2 0.3 0.2 1v0.8q0 0.8-0.2 1.2-0.1 0.4-0.4 0.5l-2 1.2v14.9q0 0.9-1 1.5l-0.8 0.5q-1 0.6-1-0.3z"/>
					<path id="&lt;Compound Path&gt;" fill-rule="evenodd" class="s19" d="m359.1 332.7q0-9.9 4.7-12.6 2.3-1.3 3.5 0.4 1.2 1.7 1.2 6.8 0 5.1-1.2 8.2-1.2 3.1-3.5 4.4-4.7 2.8-4.7-7.2zm5.8 2.4q0.4-0.7 0.6-2.2 0.2-1.5 0.2-4 0-2.4-0.2-3.6-0.2-1.3-0.6-1.6-0.4-0.3-1.1 0-0.6 0.4-1 1.2-0.4 0.8-0.6 2.3-0.2 1.5-0.2 3.9 0 2.4 0.2 3.7 0.2 1.2 0.6 1.5 0.4 0.4 1 0 0.7-0.4 1.1-1.2z"/>
					<path id="&lt;Compound Path&gt;" class="s19" d="m374.8 327q-0.2 0-0.3-0.3l-1.3-3.1q-0.1-0.2-0.2-0.5-0.1-0.4-0.2-0.5h-0.1q0.1 1 0.1 1.5v9.6q0 0.4-0.2 0.8-0.2 0.3-0.8 0.7l-0.6 0.3q-0.6 0.3-0.8 0.3-0.3-0.1-0.3-0.6v-17.7q0-0.5 0.3-0.8 0.2-0.4 0.8-0.7l0.5-0.3q0.5-0.3 0.7-0.2 0.3 0 0.4 0.3l2.3 5.3q0.1 0.4 0.3 1.1 0.1-0.8 0.3-1.5l2.3-7.8q0.1-0.5 0.4-0.8 0.2-0.4 0.6-0.6l0.6-0.3q0.6-0.4 0.8-0.3 0.2 0.1 0.2 0.5v17.8q0 0.4-0.2 0.8-0.2 0.3-0.8 0.7l-0.6 0.3q-0.6 0.3-0.8 0.3-0.3-0.1-0.3-0.6v-9.6q0-0.6 0.2-1.6l-0.1 0.1q-0.1 0.6-0.4 1.5l-1.3 4.6q-0.2 0.4-0.3 0.7-0.2 0.2-0.5 0.4l-0.3 0.1q-0.2 0.2-0.4 0.1z"/>
					<path id="&lt;Compound Path&gt;" class="s19" d="m382.5 328.1v-17.8q0-0.9 1.1-1.5l0.7-0.4q1.1-0.6 1.1 0.3v17.7q0 1-1.1 1.5l-0.7 0.5q-1.1 0.6-1.1-0.3z"/>
					<path id="&lt;Compound Path&gt;" class="s19" d="m387 325.4q-0.3-0.7-0.3-1.4 0-0.2 0.1-0.3l4.5-15.6-3.7 2.1q-0.2 0.2-0.3-0.1-0.2-0.3-0.2-1v-0.9q0-0.7 0.2-1.1 0.1-0.4 0.3-0.5l6.6-3.8q0.2-0.2 0.5 0.7 0.2 0.8 0.2 1.4 0 0.1 0 0.2 0 0 0 0l-4.6 15.7 4.1-2.4q0.3-0.1 0.4 0.1 0.1 0.3 0.1 1v0.9q0 0.7-0.1 1.1-0.1 0.4-0.4 0.6l-7 4q-0.2 0.1-0.4-0.7z"/>
					<path id="&lt;Compound Path&gt;" fill-rule="evenodd" class="s19" d="m395.5 320.9q0-0.2 0-0.6l2.8-19.2q0.1-0.8 1.1-1.4l1.2-0.7q1-0.5 1.1 0.2l2.8 16q0 0.4 0 0.5 0 0.6-0.8 1l-0.9 0.6q-0.9 0.5-1-0.1l-0.4-3.1-2.8 1.6-0.5 3.7q0 0.6-0.8 1l-0.9 0.6q-0.9 0.5-0.9-0.1zm5.6-10l-0.9-5.4q-0.1-0.9-0.2-2l-0.1 0.1q-0.1 1.2-0.2 2.2l-0.8 6.4z"/>
					<path id="&lt;Compound Path&gt;" class="s19" d="m406.7 314.1v-14.9l-2 1.1q-0.2 0.2-0.4-0.1-0.1-0.2-0.1-1v-0.8q0-0.7 0.1-1.1 0.2-0.5 0.4-0.6l6.9-4q0.3-0.1 0.4 0.1 0.1 0.3 0.1 1v0.9q0 0.7-0.1 1.1-0.1 0.4-0.4 0.6l-2 1.1v15q0 0.9-1.1 1.5l-0.7 0.4q-1.1 0.6-1.1-0.3z"/>
					<path id="&lt;Compound Path&gt;" class="s19" d="m413.2 310.4v-17.8q0-0.9 1-1.5l0.8-0.4q1-0.6 1 0.3v17.8q0 0.9-1 1.5l-0.8 0.4q-1 0.6-1-0.3z"/>
					<path id="&lt;Compound Path&gt;" fill-rule="evenodd" class="s19" d="m417.6 298.9q0-9.9 4.8-12.6 2.3-1.3 3.5 0.4 1.2 1.7 1.2 6.8 0 5.1-1.2 8.2-1.2 3.1-3.5 4.4-4.8 2.8-4.8-7.2zm5.8 2.4q0.4-0.7 0.6-2.2 0.2-1.5 0.2-4 0-2.4-0.2-3.6-0.2-1.3-0.6-1.6-0.4-0.3-1 0-0.7 0.4-1.1 1.2-0.4 0.8-0.6 2.3-0.2 1.5-0.2 3.9 0 2.4 0.2 3.7 0.2 1.2 0.6 1.6 0.4 0.3 1.1-0.1 0.6-0.4 1-1.2z"/>
					<path id="&lt;Compound Path&gt;" class="s19" d="m428.7 301.4v-17.7q0-0.9 1-1.5l0.5-0.3q0.4-0.2 0.6-0.1 0.2 0 0.3 0.4l3.3 7.1q0.2 0.6 0.6 1.9l0.1-0.1q-0.2-1.4-0.2-2.2v-8.8q0-0.9 1.1-1.5l0.4-0.2q1-0.6 1 0.3v17.7q0 0.9-1 1.5l-0.4 0.2q-0.3 0.2-0.6 0.2-0.2-0.1-0.3-0.4l-3.5-7.5q-0.1-0.3-0.5-1.5v0.2q0.1 1.2 0.1 1.8v9.1q0 0.9-1 1.5l-0.5 0.2q-1 0.6-1-0.3z"/>
				</g>
			</g>
			<g id="&lt;Group&gt;">
				<g id="&lt;Group&gt;">
					<path id="&lt;Compound Path&gt;" fill-rule="evenodd" class="s19" d="m295.8 302.2q-0.1-0.1-0.1-0.4v-1.9l-2.9 1.7q-0.3 0.2-0.3-0.2v-0.7q0-0.2 0-0.4 0.1-0.1 0.2-0.3l3.1-8.5q0-0.3 0.1-0.4 0.1-0.1 0.2-0.2l0.4-0.2q0.2-0.1 0.3 0 0.1 0.1 0.1 0.4v6.6l0.6-0.4q0.2-0.1 0.3 0 0.1 0.1 0.1 0.4v0.4q0 0.3-0.1 0.5-0.1 0.2-0.3 0.3l-0.6 0.3v1.9q0 0.3-0.1 0.5-0.1 0.2-0.3 0.3l-0.5 0.3q-0.2 0.1-0.2 0zm0.1-4v-4.6l-2.1 5.9z"/>
					<path id="&lt;Compound Path&gt;" class="s19" d="m299.2 299q-0.8-1-0.8-3.8 0-2.8 0.9-4.8 0.8-2 2.4-2.9 0.6-0.4 1.1-0.5 0.6 0 1 0.2 0 0 0 0.1 0 0.1 0 0.3l-0.3 0.9q0 0.2-0.1 0.2 0 0.1-0.1 0-0.6-0.2-1.5 0.3-1 0.6-1.6 2-0.6 1.4-0.6 3.5 0 2.2 0.5 2.9 0.6 0.7 1.6 0.2 0.4-0.3 0.8-0.6 0.3-0.3 0.5-0.6v-3l-1.2 0.7q-0.2 0.1-0.3 0 0-0.1 0-0.4v-0.5q0-0.3 0-0.4 0.1-0.2 0.3-0.3l2-1.1q0.2-0.2 0.2 0 0.1 0.1 0.1 0.5v4.3q0 0.2 0 0.4 0 0.1-0.1 0.3-0.9 1.4-2.3 2.2-1.6 1-2.5-0.1z"/>
				</g>
				<g id="&lt;Group&gt;">
					<g id="&lt;Group&gt;">
						<path id="&lt;Path&gt;" class="s19" d="m323.9 284.1c0 1.5-0.7 3.1-1.7 3.6-0.9 0.5-1.7-0.2-1.7-1.6 0-1.5 0.8-3.1 1.7-3.6 1-0.6 1.7 0.2 1.7 1.6z"/>
					</g>
					<g id="&lt;Group&gt;">
						<g id="&lt;Group&gt;">
							<path id="&lt;Compound Path&gt;" class="s19" d="m322.2 278.2c-1.7 1-3.2 3.3-3.9 5.9-0.2 0.5-0.1 1.1 0.1 1.2h0.1c0.3 0.2 0.8-0.2 0.9-0.9 0.6-1.8 1.6-3.5 2.8-4.2 1.2-0.7 2.3-0.2 2.8 1 0.2 0.5 0.7 0.3 1-0.2 0.3-0.5 0.3-1.1 0.2-1.4-0.8-1.8-2.3-2.4-4-1.4z"/>
						</g>
					</g>
					<g id="&lt;Group&gt;">
						<g id="&lt;Group&gt;">
							<path id="&lt;Compound Path&gt;" class="s19" d="m322.2 274c-2.5 1.5-4.8 4.8-6 8.6-0.2 0.6-0.2 1.2 0.1 1.3 0.3 0.2 0.8-0.1 1-0.8 1-3.1 2.8-5.8 4.9-7 2.1-1.2 3.9-0.6 5 1.3 0.2 0.4 0.6 0.3 1-0.3 0.2-0.5 0.3-1.1 0.1-1.5-1.3-2.3-3.5-3.1-6.1-1.6z"/>
						</g>
					</g>
				</g>
				<g id="&lt;Group&gt;">
					<path id="&lt;Compound Path&gt;" class="s19" d="m366.6 254.6q-0.1-0.1 0-0.3 0-0.2 0.1-0.4l2.4-4.4q0.1-0.1 0.2-0.3 0.1-0.1 0.2-0.2l0.9-0.5q0.1-0.1 0.2 0 0.1 0.1 0.1 0.3v11.2q0 0.2-0.1 0.3-0.1 0.2-0.2 0.3l-0.9 0.5q-0.2 0.1-0.2 0-0.1-0.1-0.1-0.3v-8.5l-1.6 2.8q-0.1 0.2-0.2 0.3-0.2 0-0.3-0.1z"/>
					<path id="&lt;Compound Path&gt;" class="s19" d="m372.3 251.3q-0.1-0.1-0.1-0.3 0.1-0.2 0.2-0.4l2.4-4.4q0.1-0.1 0.2-0.3 0.1-0.1 0.2-0.2l0.9-0.5q0.1-0.1 0.2 0 0.1 0.1 0.1 0.3v11.2q0 0.2-0.1 0.4-0.1 0.2-0.2 0.2l-0.9 0.5q-0.2 0.1-0.3 0 0-0.1 0-0.2v-8.6l-1.6 2.8q-0.1 0.2-0.3 0.3-0.1 0-0.2-0.1z"/>
					<path id="&lt;Compound Path&gt;" class="s19" d="m379.8 246.5q0.1-0.1 0.2 0 0.1 0.1 0.1 0.3v1.7q0 0.2-0.1 0.4-0.1 0.2-0.2 0.2l-1.1 0.6q-0.1 0.1-0.2 0-0.1-0.1-0.1-0.3v-1.7q0-0.1 0.1-0.3 0.1-0.2 0.2-0.3zm0 6.1q0.1-0.1 0.2 0 0.1 0.1 0.1 0.3v1.6q0 0.2-0.1 0.4-0.1 0.2-0.2 0.3l-1 0.6q-0.1 0.1-0.2 0-0.1-0.1-0.1-0.3v-1.7q0-0.2 0.1-0.4 0.1-0.2 0.2-0.2z"/>
					<path id="&lt;Compound Path&gt;" fill-rule="evenodd" class="s19" d="m385.8 251.7q-0.2 0.1-0.2 0-0.1-0.1-0.1-0.3v-2.1l-3.5 2q-0.1 0.1-0.2 0-0.1-0.1-0.1-0.2v-1.3q0-0.2 0.1-0.4 0-0.3 0.1-0.5l3.5-8.6q0.2-0.6 0.4-0.7l0.9-0.5q0.1-0.1 0.2 0 0.1 0.1 0.1 0.3v6.9l1-0.6q0.1 0 0.2 0.1 0.1 0 0.1 0.2v1.3q0 0.1-0.1 0.3-0.1 0.2-0.2 0.3l-1 0.6v2.1q0 0.1-0.1 0.3-0.1 0.2-0.2 0.3zm-0.3-4.6v-3.7l-1.9 4.9z"/>
					<path id="&lt;Compound Path&gt;" class="s19" d="m390.3 237.5q0-0.2 0.1-0.4 0.1-0.2 0.2-0.3l4.2-2.4q0.1-0.1 0.2 0 0.1 0.1 0.1 0.3v1.2q0 0.2-0.1 0.4-0.1 0.2-0.2 0.2l-3.1 1.9-0.2 2.3q0.3-0.4 0.6-0.6 0.3-0.2 0.5-0.3 0.7-0.4 1.2-0.4 0.5-0.1 0.9 0.2 0.4 0.3 0.6 0.9 0.3 0.6 0.3 1.6 0 1.1-0.3 2-0.2 0.9-0.6 1.7-0.4 0.7-0.9 1.2-0.6 0.6-1.2 0.9-0.8 0.5-1.3 0.5-0.6 0.1-0.9-0.2-0.4-0.3-0.6-0.8-0.2-0.5-0.2-1.1 0-0.2 0.1-0.4 0.1-0.2 0.2-0.3l0.9-0.5q0.1-0.1 0.2 0 0.1 0.1 0.2 0.2 0 0.4 0.2 0.5 0.1 0.2 0.3 0.3 0.2 0 0.4-0.1 0.3-0.1 0.5-0.2 0.7-0.4 1.1-1.2 0.4-0.7 0.4-1.7 0-0.7-0.4-1-0.4-0.3-1.1 0-0.3 0.2-0.5 0.4-0.2 0.2-0.3 0.4-0.2 0.2-0.3 0.3-0.1 0.1-0.2 0.2l-1 0.6q-0.2 0.1-0.3 0-0.1-0.1 0-0.3z"/>
				</g>
				<g id="&lt;Group&gt;">
					<path id="&lt;Path&gt;" class="s19" d="m263.4 322.2v-3.6l3.1-1.8v3.6z"/>
					<path id="&lt;Path&gt;" class="s19" d="m268.1 319.5v-7.2l3.1-1.8v7.2z"/>
					<path id="&lt;Path&gt;" class="s19" d="m272.8 316.8v-10.8l3.1-1.8v10.8z"/>
					<path id="&lt;Path&gt;" class="s19" d="m277.5 314.1v-14.4l3.1-1.8v14.4z"/>
				</g>
				<g id="&lt;Group&gt;">
					<path id="&lt;Compound Path&gt;" fill-rule="evenodd" class="s19" d="m497.4 177.8v6.6c0 1.5-0.6 3.1-1.3 3.5l-11.7 6.7q-0.4 0.2-0.7 0.1-0.2-0.1-0.5-0.4c-0.3-0.5-0.5-1.3-0.5-2.1v-6.6c0-1.5 0.6-3.1 1.4-3.5l11.7-6.7c0.4-0.3 0.8-0.2 1.1 0.3 0.3 0.5 0.5 1.3 0.5 2.1zm-13.3 15.7l11.7-6.7c0.5-0.3 1-1.6 1-2.7v-6.6c0-0.4-0.1-0.7-0.2-0.9q-0.1-0.1-0.2-0.2-0.1 0-0.3 0.1l-11.7 6.7c-0.6 0.3-1 1.6-1 2.7v6.6c0 0.4 0 0.7 0.2 0.9q0.2 0.3 0.5 0.1z"/>
					<g id="&lt;Group&gt;">
						<path id="&lt;Path&gt;" class="s19" d="m486.6 183.1v7.7l-1.8 1.1c-0.2 0.1-0.4-0.1-0.4-0.2v-5.8c0-0.8 0.4-1.8 0.8-2z"/>
						<path id="&lt;Path&gt;" class="s19" d="m487.5 182.6l2.2-1.3v7.8l-2.2 1.2z"/>
						<path id="&lt;Path&gt;" class="s19" d="m490.5 180.8l2.2-1.2v7.8l-2.2 1.2z"/>
						<path id="&lt;Path&gt;" class="s19" d="m495.7 178.3v5.6c0 1.1-0.5 2-1.4 2.5l-0.8 0.5v-7.8l1.8-1c0.2-0.1 0.4 0 0.4 0.2z"/>
					</g>
					<g id="&lt;Group&gt;">
						<path id="&lt;Path&gt;" class="s19" d="m497.9 177.6c0.3-0.2 0.5 0.8 0.5 2.1v1.2c0 1.4-0.2 2.6-0.6 2.9l-0.5 0.4v-6.2c0 0 0.2-0.2 0.6-0.4z"/>
					</g>
				</g>
				<path id="&lt;Path&gt;" class="s19" d="m465 197.4l11.4-10-3.5 14.7-1.7-6.1z"/>
			</g>
		</g>
	</g>
	<g id="Controls">
		<g id="Controls 1 ">
			<path id="&lt;Path&gt;" class="s2" d="m552.1 142.9l150.1-87.1c2.8-1.6 5.1-0.4 5.1 2.6 0 3-2.3 6.8-5.1 8.5l-150.1 87c-2.8 1.6-5.1 0.5-5.1-2.6 0-3 2.3-6.8 5.1-8.4z"/>
			<path id="&lt;Path&gt;" class="s20" d="m552.1 142.9l150.1-87.1c2.8-1.6 5.1-0.4 5.1 2.6 0 3-2.3 6.8-5.1 8.5l-150.1 87c-2.8 1.6-5.1 0.5-5.1-2.6 0-3 2.3-6.8 5.1-8.4z"/>
			<path id="&lt;Path&gt;" class="s21" d="m593.6 119l-41.5 23.9c-2.8 1.6-5.1 5.4-5.1 8.4 0 3.1 2.3 4.2 5.1 2.6l41.5-23.9z"/>
			<path id="&lt;Path&gt;" class="s21" d="m576.9 134.5c0 1.8 0.3 3.4 0.9 4.6l15.8-9.1v-11l-15.5 8.9c-0.8 2.2-1.2 4.5-1.2 6.6z"/>
			<path id="&lt;Path&gt;" class="s2" d="m593.6 110.5c6.7-3.8 12.1-0.7 12.1 7 0 7.7-5.4 17.1-12.1 21-6.7 3.8-12.1 0.7-12.1-7 0-7.7 5.4-17.1 12.1-21z"/>
			<path id="&lt;Path&gt;" class="s3" d="m593.6 110.5c6.7-3.8 12.1-0.7 12.1 7 0 7.7-5.4 17.1-12.1 21-6.7 3.8-12.1 0.7-12.1-7 0-7.7 5.4-17.1 12.1-21z"/>
			<path id="&lt;Path&gt;" class="s2" d="m552.1 184.9l150.1-87.1c2.8-1.6 5.1-0.5 5.1 2.6 0 3-2.3 6.8-5.1 8.4l-150.1 87.1c-2.8 1.6-5.1 0.5-5.1-2.6 0-3 2.3-6.8 5.1-8.4z"/>
			<path id="&lt;Path&gt;" class="s20" d="m552.1 184.9l150.1-87.1c2.8-1.6 5.1-0.5 5.1 2.6 0 3-2.3 6.8-5.1 8.4l-150.1 87.1c-2.8 1.6-5.1 0.5-5.1-2.6 0-3 2.3-6.8 5.1-8.4z"/>
			<path id="&lt;Path&gt;" class="s21" d="m662.6 120.9l-110.5 64c-2.8 1.6-5.1 5.4-5.1 8.4 0 3.1 2.3 4.2 5.1 2.6l110.5-64z"/>
			<path id="&lt;Path&gt;" class="s21" d="m646.4 136.1c0 1.8 0.3 3.4 0.9 4.7l15.3-8.9v-11l-15.1 8.7c-0.7 2.2-1.1 4.4-1.1 6.5z"/>
			<path id="&lt;Path&gt;" class="s2" d="m663.1 112.1c6.7-3.9 12.1-0.7 12.1 7 0 7.7-5.4 17.1-12.1 21-6.7 3.8-12.1 0.7-12.1-7 0-7.7 5.4-17.1 12.1-21z"/>
			<path id="&lt;Path&gt;" class="s3" d="m663.1 112.1c6.7-3.9 12.1-0.7 12.1 7 0 7.7-5.4 17.1-12.1 21-6.7 3.8-12.1 0.7-12.1-7 0-7.7 5.4-17.1 12.1-21z"/>
			<path id="&lt;Path&gt;" class="s2" d="m552.1 226.8l150.1-87c2.8-1.6 5.1-0.5 5.1 2.6 0 3-2.3 6.8-5.1 8.4l-150.1 87.1c-2.8 1.6-5.1 0.4-5.1-2.6 0-3.1 2.3-6.8 5.1-8.5z"/>
			<path id="&lt;Path&gt;" class="s20" d="m552.1 226.8l150.1-87c2.8-1.6 5.1-0.5 5.1 2.6 0 3-2.3 6.8-5.1 8.4l-150.1 87.1c-2.8 1.6-5.1 0.4-5.1-2.6 0-3.1 2.3-6.8 5.1-8.5z"/>
			<path id="&lt;Path&gt;" class="s21" d="m593.6 202.9l-41.5 23.9c-2.8 1.7-5.1 5.4-5.1 8.5 0 3 2.3 4.2 5.1 2.6l41.5-23.9z"/>
			<path id="&lt;Path&gt;" class="s21" d="m576.9 218.4c0 1.9 0.3 3.4 0.9 4.7l15.8-9.1v-11.1l-15.5 9c-0.8 2.2-1.2 4.4-1.2 6.5z"/>
			<path id="&lt;Path&gt;" class="s2" d="m593.6 194.5c6.7-3.9 12.1-0.8 12.1 7 0 7.7-5.4 17.1-12.1 20.9-6.7 3.9-12.1 0.8-12.1-7 0-7.7 5.4-17.1 12.1-20.9z"/>
			<path id="&lt;Path&gt;" class="s3" d="m593.6 194.5c6.7-3.9 12.1-0.8 12.1 7 0 7.7-5.4 17.1-12.1 20.9-6.7 3.9-12.1 0.8-12.1-7 0-7.7 5.4-17.1 12.1-20.9z"/>
		</g>
	</g>
	<g id="Boxes">
		<g id="Box 5 ">
			<g id="&lt;Group&gt;" style="opacity: .2">
				<path id="&lt;Path&gt;" class="s18" d="m493.6 308.7l222.3-128.3c1.4-0.9 2.6-0.2 2.6 1.5v69.1c0 1.7-1.2 3.7-2.6 4.5l-222.3 128.4c-1.4 0.8-2.6 0.1-2.6-1.5v-69.2c0-1.6 1.2-3.7 2.6-4.5z"/>
			</g>
			<g id="Speech Bubble 5 ">
				<g id="&lt;Group&gt;">
					<g id="&lt;Group&gt;">
						<path id="&lt;Path&gt;" class="s22" d="m510.4 322.8q0.1-0.4 0.3-0.7h0.1q-0.2 0.3-0.4 0.7z"/>
						<path id="&lt;Path&gt;" class="s23" d="m734.6 194.3c-0.2-0.8-0.8-1.2-1.5-1.2-0.3 0-0.8 0.1-1.3 0.4l-219 126.4c-0.8 0.5-1.5 1.3-2.1 2.2l-10.6-6.2c0.5-0.8 1.2-1.6 2-2l219-126.5c1.6-0.9 4.2-0.9 5.8 0l4.9 2.7c1.4 0.8 2.5 2.5 2.8 4.2z"/>
					</g>
					<g id="&lt;Group&gt;" style="opacity: .9">
						<path id="&lt;Path&gt;" class="s6" d="m512.8 394.9c-1.5 0.9-4.4 1-5.8 0.1l-4.9-2.9c-1.6-0.9-3-3.2-3-5v-68.2c0-0.9 0.4-2 1-3l10.7 6.2c-0.6 0.9-0.9 1.9-0.9 2.9v68.3c0 1.7 1.2 2.6 2.9 1.6z"/>
					</g>
				</g>
				<g id="&lt;Group&gt;" style="opacity: .9">
					<path id="&lt;Compound Path&gt;" class="s15" d="m733.1 193.1q-0.6 0-1.3 0.4l-219 126.4c-1.6 1-2.9 3.2-2.9 5.1v68.3c0 1.3 0.7 2 1.6 2q0.6 0 1.3-0.4l219-126.4c1.6-0.9 2.9-3.2 2.9-5.1v-68.2c0-1.4-0.6-2.1-1.6-2.1z"/>
					<path id="&lt;Compound Path&gt;" fill-rule="evenodd" class="s19" d="m734.7 195.2v68.2c0 1.9-1.3 4.2-2.9 5.1l-219 126.4q-0.7 0.4-1.3 0.4c-0.9 0-1.6-0.7-1.6-2v-68.3c0-1.9 1.3-4.1 2.9-5.1l219-126.4q0.7-0.4 1.3-0.4c1 0 1.6 0.7 1.6 2.1zm-2.2-0.6l-219 126.4c-1.2 0.7-2.3 2.6-2.3 4v68.3c0 0.1 0 0.7 0.3 0.7 0.1 0 0.3 0 0.7-0.2l219-126.4c1.2-0.7 2.2-2.6 2.2-4v-68.2c0-0.2 0-0.8-0.3-0.8 0 0-0.3 0-0.6 0.2z"/>
				</g>
			</g>
			<g id="&lt;Group&gt;">
				<path id="&lt;Path&gt;" class="s2" d="m554.8 333.3c0 9.4-5.7 20.3-12.7 24.3-7.1 4.1-12.8-0.2-12.8-9.6 0-9.4 5.7-20.3 12.8-24.4 7-4 12.7 0.3 12.7 9.7z"/>
				<path id="&lt;Path&gt;" class="s5" d="m554.8 333.3c0 9.4-5.7 20.3-12.7 24.3-7.1 4.1-12.8-0.2-12.8-9.6 0-9.4 5.7-20.3 12.8-24.4 7-4 12.7 0.3 12.7 9.7z"/>
				<path id="&lt;Path&gt;" class="s2" d="m594.9 310.1c0 9.4-5.7 20.3-12.7 24.3-7 4.1-12.7-0.2-12.7-9.6 0-9.4 5.7-20.3 12.7-24.3 7-4.1 12.7 0.2 12.7 9.6z"/>
				<path id="&lt;Path&gt;" class="s8" d="m594.9 310.1c0 9.4-5.7 20.3-12.7 24.3-7 4.1-12.7-0.2-12.7-9.6 0-9.4 5.7-20.3 12.7-24.3 7-4.1 12.7 0.2 12.7 9.6z"/>
				<path id="&lt;Path&gt;" class="s2" d="m635.1 286.9c0 9.4-5.7 20.3-12.8 24.4-7 4-12.7-0.3-12.7-9.7 0-9.3 5.7-20.2 12.7-24.3 7.1-4.1 12.8 0.3 12.8 9.6z"/>
				<path id="&lt;Path&gt;" class="s3" d="m635.1 286.9c0 9.4-5.7 20.3-12.8 24.4-7 4-12.7-0.3-12.7-9.7 0-9.3 5.7-20.2 12.7-24.3 7.1-4.1 12.8 0.3 12.8 9.6z"/>
				<path id="&lt;Path&gt;" class="s2" d="m675.2 263.8c0 9.3-5.7 20.2-12.7 24.3-7.1 4.1-12.8-0.2-12.8-9.6 0-9.4 5.7-20.3 12.8-24.4 7-4 12.7 0.3 12.7 9.7z"/>
				<path id="&lt;Path&gt;" class="s2" d="m715.3 240.6c0 9.4-5.7 20.3-12.7 24.3-7.1 4.1-12.8-0.2-12.8-9.6 0-9.4 5.7-20.3 12.8-24.3 7-4.1 12.7 0.2 12.7 9.6z"/>
				<path id="&lt;Path&gt;" class="s24" d="m715.3 240.6c0 9.4-5.7 20.3-12.7 24.3-7.1 4.1-12.8-0.2-12.8-9.6 0-9.4 5.7-20.3 12.8-24.3 7-4.1 12.7 0.2 12.7 9.6z"/>
			</g>
		</g>
		<g id="Box 4 ">
			<g id="&lt;Group&gt;" style="opacity: .2">
				<path id="&lt;Path&gt;" class="s18" d="m493.6 593.8l222.3-128.3c1.4-0.9 2.6-0.2 2.6 1.5v69.1c0 1.7-1.2 3.7-2.6 4.5l-222.3 128.4c-1.4 0.8-2.6 0.1-2.6-1.5v-69.2c0-1.7 1.2-3.7 2.6-4.5z"/>
			</g>
			<g id="Speech Bubble 4 ">
				<g id="&lt;Group&gt;">
					<g id="&lt;Group&gt;">
						<path id="&lt;Path&gt;" class="s22" d="m510.4 607.9q0.1-0.4 0.3-0.7h0.1q-0.2 0.3-0.4 0.7z"/>
						<path id="&lt;Path&gt;" class="s23" d="m734.6 479.4c-0.2-0.8-0.8-1.2-1.5-1.2-0.3 0-0.8 0.1-1.3 0.4l-219 126.4c-0.8 0.5-1.5 1.3-2.1 2.2l-10.6-6.2c0.5-0.8 1.2-1.6 2-2l219-126.5c1.6-0.9 4.2-0.9 5.8 0l4.9 2.7c1.4 0.8 2.5 2.5 2.8 4.2z"/>
					</g>
					<g id="&lt;Group&gt;" style="opacity: .9">
						<path id="&lt;Path&gt;" class="s6" d="m512.8 680c-1.5 0.9-4.4 1-5.8 0.1l-4.9-2.9c-1.6-0.9-3-3.2-3-5v-68.2c0-1 0.4-2 1-3l10.7 6.2c-0.6 0.9-0.9 1.9-0.9 2.9v68.2c0 1.7 1.2 2.7 2.9 1.7z"/>
					</g>
				</g>
				<g id="&lt;Group&gt;" style="opacity: .9">
					<path id="&lt;Compound Path&gt;" class="s15" d="m733.1 478.2q-0.6 0-1.3 0.4l-219 126.4c-1.6 0.9-2.9 3.2-2.9 5.1v68.2c0 1.4 0.7 2.1 1.6 2.1q0.6 0 1.3-0.4l219-126.4c1.6-0.9 2.9-3.2 2.9-5.1v-68.3c0-1.3-0.6-2-1.6-2z"/>
					<path id="&lt;Compound Path&gt;" fill-rule="evenodd" class="s19" d="m734.7 480.2v68.3c0 1.9-1.3 4.2-2.9 5.1l-219 126.4q-0.7 0.4-1.3 0.4c-0.9 0-1.6-0.7-1.6-2.1v-68.2c0-1.9 1.3-4.2 2.9-5.1l219-126.4q0.7-0.4 1.3-0.4c1 0 1.6 0.7 1.6 2zm-2.2-0.5l-219 126.4c-1.2 0.7-2.3 2.6-2.3 4v68.2c0 0.2 0 0.8 0.3 0.8 0.1 0 0.3 0 0.7-0.2l219-126.4c1.2-0.7 2.2-2.6 2.2-4v-68.3c0-0.1 0-0.7-0.3-0.7 0 0-0.3 0-0.6 0.2z"/>
				</g>
			</g>
			<g id="&lt;Group&gt;">
				<g id="&lt;Group&gt;">
					<g id="&lt;Group&gt;">
						<path id="&lt;Compound Path&gt;" fill-rule="evenodd" class="s17" d="m601.8 609.3l3-2.5 7.9-39.7 3.1-1.7 7.8 30.9 2.6-1v2.6l-10.9 6.3v-2.7l3.3-2.5-1.8-7.5-8.2 4.7-1.8 9.4 3.3-1.1v2.7l-8.3 4.8zm7.5-16.5l6.9-3.9-3.4-14.1z"/>
					</g>
					<g id="&lt;Group&gt;">
						<path id="&lt;Compound Path&gt;" fill-rule="evenodd" class="s17" d="m638.2 587.3c-1.8 4-3 6.2-5.4 7.6-2.8 1.6-5 0.4-5-4.4 0-3.7 1.3-7.2 6.7-13 1-1.1 2.3-2.4 3.6-3.7v-1.6c0-5.4-0.8-6.4-3.3-5q-0.7 0.4-1.5 1.1l-0.5 3.5c-0.2 2.9-1.1 4.7-2.3 5.4-1.2 0.7-2 0.2-2.2-1.4 0.5-4.9 3.4-9.6 8-12.2 4.3-2.5 6.2-0.7 6.2 6.8v12.6c0 1.9 0.5 2.4 1.1 2 0.6-0.3 0.9-0.9 1.3-2l0.9 0.6c-0.9 3.2-2.1 4.9-3.9 5.9-1.9 1.2-3.2 0.3-3.7-2.2zm-3.4 2.2c1.1-0.6 1.7-1.5 3.3-4.2v-9.2c-1 1.1-2 2.2-2.7 2.9-2.5 3.1-3.2 5.6-3.2 7.8 0 3 1.1 3.6 2.6 2.7z"/>
					</g>
				</g>
				<g id="&lt;Group&gt;">
					<g id="&lt;Group&gt;">
						<path id="&lt;Compound Path&gt;" fill-rule="evenodd" class="s17" d="m539.5 609.1q0.6-0.3 0.9 0 0.3 0.3 0.5 1.1l8.7 29.8q0.1 0.1 0.1 0.4 0 0.6-0.3 1.2-0.3 0.6-0.7 0.8l-2.6 1.5q-0.7 0.4-1 0.1-0.3-0.3-0.4-0.7l-1.5-5.2-11.3 6.5-1.6 7q-0.1 0.5-0.3 1.2-0.3 0.6-1.1 1l-2.5 1.5q-0.4 0.2-0.7 0-0.3-0.3-0.3-0.9 0-0.2 0-0.4l8.8-39.9q0.2-1.1 0.5-1.7 0.3-0.7 0.9-1zm1.9 23.1l-3.9-13.5-3.9 18z"/>
					</g>
					<g id="&lt;Group&gt;">
						<path id="&lt;Compound Path&gt;" fill-rule="evenodd" class="s17" d="m552.6 618.5q0.2-1.2 0.7-2.8 0.5-1.6 1.4-3.3 1-1.8 2.4-3.3 1.4-1.5 3.2-2.6 1.8-1 3.3-1.1 1.4-0.1 2.5 0.7 1.1 0.8 1.6 2.6 0.6 1.9 0.6 4.7v16.2q0 0.6-0.3 1.2-0.3 0.6-0.7 0.9l-2.7 1.5q-0.4 0.3-0.7 0-0.3-0.3-0.3-0.9v-1.8q-0.7 2-2.1 4-1.4 1.9-3.6 3.2-1.6 0.9-2.8 0.9-1.2 0.1-2-0.6-0.8-0.7-1.3-2-0.4-1.3-0.4-3.2 0-3.8 1.7-6.9 1.8-3.2 4.7-5.7l5.8-4.9q0-2.2-0.9-2.6-1-0.4-2.4 0.4-0.9 0.5-1.4 1.2-0.5 0.7-1 1.6-0.3 0.7-0.6 1-0.2 0.3-0.6 0.5l-3.3 1.9q-0.4 0.2-0.6 0-0.3-0.2-0.2-0.8zm6 12.1q1.2-0.7 2.2-1.7 0.9-1.1 1.6-2.4 0.6-1.2 0.9-2.5 0.3-1.3 0.3-2.5v-0.5l-4.8 4.1q-1.5 1.3-2.1 2.4-0.7 1.1-0.7 2.4 0 1.1 0.8 1.2 0.8 0.1 1.8-0.5z"/>
					</g>
				</g>
				<g id="&lt;Group&gt;">
					<g id="&lt;Group&gt;">
						<path id="&lt;Compound Path&gt;" fill-rule="evenodd" class="s17" d="m699.4 550.2c0.2 1 0.6 2 0.6 3.1 0 1.3-0.9 2.6-1.6 3l-0.2 0.2c-1.2 0.6-1.5-0.8-1.8-2.1l-1-4.5-0.8-3.3c-1.9 1.2-3.8 2.3-5.7 3.5l-3.5 2.5-0.7 0.5c-0.7 2.9-1.4 5.8-2 8.7-0.4 1.8-0.6 4.2-1.9 4.9-1.3 0.8-1.8-0.2-1.8-1.4 0-0.7 0.1-1.5 0.3-2l2-8.7q-0.3-0.4-0.3-1.7c0-1.8 0.7-2.8 1.6-3.5q1.1-4.5 2.2-9.1c1.2-4.8 2.6-9.9 3.5-14.7l0.3-1.3c0.4-1.6 0.7-2.4 1.6-3.1 0.1-0.1 0.3-0.2 0.5-0.3 0.4-0.3 0.7-0.2 0.9-0.1 0.3 0.1 0.5 0.5 0.6 1.3 0.7 3.1 1.4 6.1 2.1 9.1 1.4 5.6 3 11.2 4.5 16.8zm-5.9-8l-0.4-1.4-2.1-8-0.7-2.7-0.3 1.1-2.9 11.6c-0.4 1.5-0.7 3-1.1 4.5 2.5-1.6 5-3.4 7.5-5.1z"/>
					</g>
					<g id="&lt;Group&gt;">
						<path id="&lt;Compound Path&gt;" fill-rule="evenodd" class="s17" d="m719.3 541c0 2-1.1 3.6-1.8 4-0.7 0.5-1.3-0.4-1.7-1.3-1.7 2.9-4 5-5.8 6.1-4.2 2.4-8.3 0-8.3-8.1 0-2.8 0.6-6.2 1.7-9.2 1.9-5.2 5.1-8.9 7.9-10.5 1.4-0.9 2.9-1.2 4.3-1 0.1-0.9 0.3-1.7 0.9-2.4 0.3-0.5 0.6-0.8 1.1-1.1 1.1-0.6 1.3 1.1 1.3 1.8 0 0.5-0.1 1.1-0.1 1.6-0.3 2.4-0.4 8.7-0.4 10.3 0 1.6 0.2 6.1 0.2 7.6 0 1.3 0.7 1.2 0.7 2.2zm-4.2-3.3q0.1-0.4 0.3-0.9v-9.4c-0.2-0.1-0.3-0.2-0.5-0.3-1.2-1-2.5-0.7-3.9 0.1-3.2 1.9-6.3 7.3-6.3 13.1 0 3.4 1.5 6.9 5.3 4.7 2-1.1 4.3-3.9 5.1-7.3z"/>
					</g>
				</g>
				<g id="&lt;Group&gt;">
					<path id="&lt;Path&gt;" class="s17" d="m585 627.8c-0.6 0-1-0.4-1-1v-52.3c0-0.6 0.4-1 1-1 0.5 0 1 0.4 1 1v52.3c0 0.6-0.5 1-1 1z"/>
				</g>
				<g id="&lt;Group&gt;">
					<path id="&lt;Path&gt;" class="s17" d="m662.6 583c-0.5 0-1-0.5-1-1v-52.4c0-0.5 0.5-1 1-1 0.6 0 1 0.5 1 1v52.4c0 0.5-0.4 1-1 1z"/>
				</g>
			</g>
		</g>
		<g id="Box 3 ">
			<g id="&lt;Group&gt;" style="opacity: .2">
				<path id="&lt;Path&gt;" class="s18" d="m541 406.9l232.9-134.5c1.4-0.8 2.6-0.2 2.6 1.5v103.1c0 1.7-1.2 3.7-2.6 4.5l-232.9 134.5c-1.5 0.8-2.6 0.2-2.6-1.5v-103.1c0-1.7 1.1-3.7 2.6-4.5z"/>
			</g>
			<g id="Speech Bubble 3 ">
				<g id="&lt;Group&gt;">
					<g id="&lt;Group&gt;">
						<path id="&lt;Path&gt;" class="s22" d="m557.7 421q0.2-0.4 0.4-0.7-0.2 0.3-0.4 0.7z"/>
						<path id="&lt;Path&gt;" class="s23" d="m792.6 286.3c-0.2-0.8-0.8-1.2-1.5-1.2-0.4 0-0.8 0.1-1.3 0.4l-229.6 132.6c-0.8 0.4-1.6 1.2-2.1 2.2l-10.7-6.2c0.6-0.9 1.2-1.6 2-2.1l229.7-132.5c1.6-1 4.2-1 5.8-0.1l4.9 2.8c1.4 0.7 2.5 2.5 2.8 4.1z"/>
					</g>
					<g id="&lt;Group&gt;" style="opacity: .9">
						<path id="&lt;Path&gt;" class="s6" d="m560.2 527.1c-1.6 0.9-4.4 0.9-5.9 0l-4.9-2.9c-1.6-0.9-2.9-3.1-2.9-5v-102.1c0-1 0.4-2.1 0.9-3l10.7 6.2c-0.5 0.9-0.8 1.9-0.8 2.8v102.3c0 1.7 1.2 2.7 2.9 1.7z"/>
					</g>
				</g>
				<g id="&lt;Group&gt;" style="opacity: .9">
					<path id="&lt;Compound Path&gt;" class="s15" d="m791.1 285.1q-0.6 0-1.3 0.4l-229.6 132.6c-1.6 0.9-2.9 3.2-2.9 5v102.3c0 1.3 0.6 2.1 1.6 2.1q0.6 0 1.3-0.4l229.6-132.6c1.6-0.9 2.9-3.2 2.9-5v-102.3c0-1.3-0.6-2.1-1.6-2.1z"/>
					<path id="&lt;Compound Path&gt;" fill-rule="evenodd" class="s19" d="m792.7 287.2v102.3c0 1.8-1.3 4.1-2.9 5l-229.6 132.6q-0.7 0.4-1.3 0.4c-1 0-1.6-0.8-1.6-2.1v-102.3c0-1.8 1.3-4.1 2.9-5l229.6-132.6q0.7-0.4 1.3-0.4c1 0 1.6 0.8 1.6 2.1zm-2.2-0.6l-229.7 132.6c-1.2 0.7-2.2 2.5-2.2 3.9v102.3c0 0.1 0 0.8 0.3 0.8 0 0 0.3 0 0.6-0.2l229.7-132.6c1.2-0.7 2.2-2.5 2.2-3.9v-102.3c0-0.1 0-0.8-0.3-0.8-0.1 0-0.3 0-0.6 0.2z"/>
				</g>
			</g>
			<g id="&lt;Group&gt;">
				<path id="&lt;Path&gt;" class="s16" d="m573.5 497.7v-31.6c0-1.6 1.1-3.6 2.6-4.5l35.4-20.4c1.4-0.8 2.6-0.2 2.6 1.5v31.5c0 1.7-1.2 3.7-2.6 4.5l-35.4 20.5c-1.5 0.8-2.6 0.1-2.6-1.5z"/>
				<g id="&lt;Group&gt;">
					<path id="&lt;Path&gt;" class="s2" d="m575.5 466.1c0-0.9 0.7-2.2 1.6-2.7l35-20.2v31c0 1-0.8 2.3-1.6 2.8l-35 20.2z"/>
					<path id="&lt;Path&gt;" class="s5" d="m575.5 466.1c0-0.9 0.7-2.2 1.6-2.7l35-20.2v31c0 1-0.8 2.3-1.6 2.8l-35 20.2z"/>
				</g>
				<path id="&lt;Path&gt;" class="s2" d="m597.2 473l1.9 3.5-12.3-9.7-11.3 22.3v8.1l35-20.2c0.8-0.5 1.6-1.8 1.6-2.8v-4l-9.3-5.8z"/>
				<path id="&lt;Path&gt;" class="s2" d="m597.8 456.8c1.6-0.9 2.9-0.2 2.9 1.6 0 1.9-1.3 4.1-2.9 5-1.5 0.9-2.8 0.1-2.8-1.7 0-1.8 1.3-4 2.8-4.9z"/>
			</g>
			<g id="&lt;Group&gt;">
				<path id="&lt;Path&gt;" class="s16" d="m630.3 463.7v-44.2c0-2.3 1.7-5.1 3.7-6.3l49.6-28.6c2-1.2 3.6-0.2 3.6 2.1v44.1c0 2.4-1.6 5.2-3.6 6.3l-49.6 28.7c-2 1.1-3.7 0.2-3.7-2.1z"/>
				<g id="&lt;Group&gt;">
					<path id="&lt;Path&gt;" class="s2" d="m633.1 419.5c0-1.3 1.1-3.2 2.3-3.8l49-28.3v43.4c0 1.4-1.1 3.3-2.2 3.9l-49.1 28.3z"/>
					<path id="&lt;Path&gt;" class="s5" d="m633.1 419.5c0-1.3 1.1-3.2 2.3-3.8l49-28.3v43.4c0 1.4-1.1 3.3-2.2 3.9l-49.1 28.3z"/>
				</g>
				<path id="&lt;Path&gt;" class="s2" d="m663.5 429.1l2.7 4.9-17.1-13.6-16 31.3v11.3l49.1-28.3c1.1-0.6 2.2-2.5 2.2-3.9v-5.6l-13-8.1z"/>
				<path id="&lt;Path&gt;" class="s2" d="m664.5 406.5c2.2-1.3 3.9-0.3 3.9 2.3 0 2.5-1.7 5.6-3.9 6.9-2.2 1.2-4 0.2-4-2.3 0-2.6 1.8-5.7 4-6.9z"/>
			</g>
			<g id="&lt;Group&gt;">
				<path id="&lt;Path&gt;" class="s16" d="m703.5 420.2v-56.7c0-3 2.1-6.6 4.7-8.1l63.7-36.8c2.6-1.5 4.7-0.3 4.7 2.7v56.7c0 3-2.1 6.6-4.7 8.1l-63.7 36.8c-2.6 1.5-4.7 0.3-4.7-2.7z"/>
				<g id="&lt;Group&gt;">
					<path id="&lt;Path&gt;" class="s2" d="m707.1 363.5c0-1.7 1.4-4.1 2.9-5l63-36.4v55.9c0 1.7-1.4 4.1-2.9 5l-63 36.4z"/>
					<path id="&lt;Path&gt;" class="s5" d="m707.1 363.5c0-1.7 1.4-4.1 2.9-5l63-36.4v55.9c0 1.7-1.4 4.1-2.9 5l-63 36.4z"/>
				</g>
				<path id="&lt;Path&gt;" class="s2" d="m746.1 375.7l3.4 6.4-22-17.5-20.4 40.2v14.6l63-36.4c1.5-0.9 2.9-3.3 2.9-5v-7.3l-16.7-10.4z"/>
				<path id="&lt;Path&gt;" class="s2" d="m747.3 346.7c2.9-1.7 5.2-0.3 5.2 2.9 0 3.3-2.3 7.3-5.2 8.9-2.8 1.6-5.1 0.3-5.1-3 0-3.2 2.3-7.2 5.1-8.8z"/>
			</g>
		</g>
	</g>
	<g id="Character">
		<g id="Character 3 ">
			<g id="&lt;Group&gt;">
				<g id="&lt;Group&gt;">
					<g id="&lt;Group&gt;">
						<path id="&lt;Path&gt;" class="s25" d="m723.9 850.2c3 5.3 9.5 3.5 12.7 9.2 2.4 4.2 2.8 8.2 1.8 12.9-0.5 2.2-1.5 4.5-1.3 6.7 0.3 2.8 0.7 5.6 0.9 8.4 0.4 4.5 1.4 8.8 2.4 13.1 2.4 10.7-2.1 21.9-8.6 30.2-3.4 4.4-6.9 7.7-11.7 10.5-3.2 1.9-8.2 3.5-11.6 1.1-3.4-2.3-4.4-6.9-4.6-10.7-0.1-4.7 1.7-9.3 2.7-13.8 0.9-4.5 2.2-11 0.5-15.3-1.5-3.5-2.3-7.4-3.4-11.1q-2.9-10.2-5.5-20.5-0.3-1-0.5-2.1c-2-6.4-7.9-17.6-7.9-17.6l30.8-8.9c0 0 1.1 4.2 3.3 7.9z"/>
						<g id="&lt;Group&gt;">
							<g id="&lt;Group&gt;">
								<path id="&lt;Path&gt;" class="s6" d="m738.6 859.3c1.2 0.3 3.9 2.3 5.6 5.5 0.2 2.4-0.1 7.5-2.3 13.6-2.1 6.1-2.9 8.6-1.3 13.2 1.6 4.7 4 10.4 3.4 19-0.7 8.5-4.4 19.6-16.8 29.1-10.3 7.7-19.3 7.4-22.7 6.8-3.4-0.6-4.2-5.3-4.2-5.3z"/>
								<path id="&lt;Path&gt;" class="s15" d="m722.1 846.6c0.5 1.6 1.8 4.4 2.3 7.8 0.8 6.8-6.2 15.7-8.2 18 0 0-1.6-1.9-5.4-1.9-4.5 0-12.2 0.8-12.9 2.7-0.8 2 5.9 16 7.1 26.3 1.1 10.4-1.5 18.9-4.1 24.3-2.6 5.3-7.1 12.6 0.5 19.1 4.4 1.2 22.6-1.3 33.2-16.8 9.4-13.8 5-27.9 2.5-35.1-2.4-7.2-0.4-11.6 1.7-20.5 0.9-3.9 1.8-6.8-0.2-11.2-3.6-4.4-8.9-6.4-11.9-9-2.5-2.2-2.8-4.6-4.6-3.7z"/>
								<path id="&lt;Path&gt;" class="s16" d="m734.6 926.1c-1.4-4.1-8.1-9.8-16.5-11.4-10.5-2-14.1 0.1-16.3 3.6-1.9 3-12.2 19.7-0.9 24.9 3.7 2.2 21.4 2 33.7-17.1z"/>
								<g id="&lt;Group&gt;">
									<path id="&lt;Path&gt;" class="s6" d="m716.2 872.4c-0.6 0.6-1.2 1.3-1.3 2.3 0 0.9 0.2 1.8 0.4 2.6 0.5 1.6 0.9 3.2 1.3 4.9q1.3 4.9 2.4 9.8 1 5 1.5 10c0.2 3.3 0.3 6.7-0.2 10.1 1.1-3.3 1.4-6.8 1.4-10.2-0.1-3.4-0.5-6.8-1.2-10.2q-1-5-2.6-9.9c-0.6-1.6-1.2-3.2-1.8-4.8-0.3-0.8-0.6-1.5-0.7-2.3-0.1-0.8 0.3-1.6 0.8-2.3z"/>
								</g>
								<path id="&lt;Path&gt;" class="s16" d="m722.3 909.5c-4.1-1.7-15.2-2.1-17.5 1.4l-0.2 1.1c0 0-0.6-1.4 0.1-3.6 0.7-2.2 8.3-4.6 17.7-1.5 1 0.9 1.2 2.9-0.1 2.6z"/>
								<path id="&lt;Path&gt;" class="s16" d="m721.8 900.7c-4-1.9-14.2-2.5-16.7 0.8l0.1 1c0 0-1.1-1.2-0.2-3.3 0.8-2.1 7.8-4.6 17.1-1.1 0.9 1 1 3.1-0.3 2.6z"/>
								<path id="&lt;Path&gt;" class="s16" d="m720.5 891.9c-4.1-1.5-14.4-1.8-16.6 1.8l0.3 1.1c0 0-1.2-1.4-0.9-3.1 0.5-2.3 7.8-5.1 17.3-2.4 1 0.9 1.2 2.9-0.1 2.6z"/>
								<path id="&lt;Path&gt;" class="s16" d="m719.1 884.4c-4.1-1.5-15.2-1.9-17.3 1.7l0.3 1.1c0 0-1.3-1.6-0.9-3.3 0.5-2.3 8.4-4.8 17.9-2.1 1 0.9 1.2 3 0 2.6z"/>
							</g>
						</g>
					</g>
					<g id="&lt;Group&gt;">
						<path id="&lt;Path&gt;" class="s19" d="m762.9 736.1c-3.5 4.7-9.4 2.4-26.6 0-33.7-4.8-48.2-7.3-63.4-4.5-8.6 1.6-16.5 3.9-21.9 12.2-4.1 6.2-7 16.3-3.4 30.5 8.1 31.3 24.4 56.3 37 82.4 0 0 23.4-12.1 39.8-11.5l-10.6-41.5 54.6 16z"/>
						<path id="&lt;Path&gt;" class="s15" d="m685 834.9c-5.6-3.2-24.9-33.4-34.9-52.1 8.6 27.4 23.1 50.2 34.5 73.9 0 0 23.4-12.1 39.8-11.5l-1.6-6.4c-10.2-0.2-32.5-0.8-37.8-3.9z"/>
						<path id="&lt;Path&gt;" class="s15" d="m768.4 819.7l-4.4-8.8c0 0-15.9-4.4-30.7-10.2-12.4-4.9-17.6-15.6-21-23.8-3.3-8.1-8.7-15.2-14.8-17.6 7.4 6.5 11.4 27.8 16.3 44.4z"/>
					</g>
				</g>
				<g id="&lt;Group&gt;">
					<g id="&lt;Group&gt;">
						<path id="&lt;Path&gt;" class="s25" d="m669.7 840.9c-5.7-2.3-4.8-9-10.9-11.4-4.5-1.7-8.5-1.5-13 0.2-2.1 0.7-4.3 2.1-6.5 2.2-2.8 0.1-5.6 0.1-8.4 0.3-4.5 0.2-8.9-0.1-13.4-0.5-10.8-0.9-21.3 5.2-28.6 12.8-3.8 4-6.6 7.9-8.7 13-1.4 3.6-2.3 8.7 0.5 11.7 2.8 3 7.5 3.4 11.3 3 4.7-0.5 8.9-3 13.3-4.6 4.2-1.5 10.6-3.7 15-2.6 3.7 0.9 7.7 1.2 11.5 1.7q10.5 1.4 21.1 2.5 1 0.2 2.1 0.3c6.7 1 18.5 5.3 18.5 5.3l4.5-31.8c0 0-4.3-0.5-8.3-2.1z"/>
						<g id="&lt;Group&gt;">
							<g id="&lt;Group&gt;">
								<path id="&lt;Path&gt;" class="s6" d="m658.6 827.6c-0.5-1.2-2.8-3.6-6.2-4.7-2.5 0.1-7.4 1.2-13.2 4.1-5.7 3-8 4.1-12.9 3.2-4.8-0.9-10.8-2.4-19.2-0.6-8.4 1.8-18.8 7.1-26.4 20.8-6.2 11.2-4.6 20.1-3.6 23.4 1.1 3.3 5.9 3.4 5.9 3.4z"/>
								<path id="&lt;Path&gt;" class="s15" d="m673.6 842.1c-1.7-0.2-4.7-1.2-8.1-1.1-6.9 0.1-14.6 8.3-16.6 10.7 0 0 2.1 1.2 2.6 5 0.6 4.4 1 12.2-0.9 13.2-1.8 1-16.6-3.6-27-3.3-10.5 0.4-18.5 4.2-23.4 7.5-5 3.4-11.6 8.9-19 2.3-1.9-4.2-2-22.6 11.9-35.3 12.3-11.3 26.8-9 34.3-7.5 7.5 1.4 11.5-1.3 20.1-4.6 3.7-1.4 6.5-2.8 11.1-1.4 4.9 2.9 7.6 7.9 10.7 10.5 2.5 2.2 4.9 2.1 4.3 4z"/>
								<path id="&lt;Path&gt;" class="s16" d="m593.1 841.1c4.2 0.8 10.8 6.6 13.6 14.7 3.5 10.1 1.9 13.9-1.3 16.7-2.6 2.3-17.7 14.8-24.4 4.4-2.8-3.4-5.1-21 12.1-35.8z"/>
								<g id="&lt;Group&gt;">
									<path id="&lt;Path&gt;" class="s6" d="m648.9 851.7c-0.5 0.6-1.2 1.3-2.1 1.5-0.9 0.2-1.8 0.1-2.7 0-1.7-0.2-3.3-0.4-5-0.6q-5-0.6-10.1-0.9-5-0.3-10-0.1c-3.4 0.2-6.7 0.7-10 1.6 3.1-1.5 6.4-2.3 9.8-2.8 3.5-0.4 6.9-0.4 10.3-0.3q5.2 0.3 10.2 1.2c1.7 0.3 3.4 0.7 5 1.1 0.8 0.2 1.6 0.4 2.4 0.3 0.8 0 1.5-0.5 2.2-1z"/>
								</g>
								<path id="&lt;Path&gt;" class="s16" d="m611.3 850.9c2.2 3.8 4.2 14.8 1.1 17.5l-1.2 0.4c0 0 1.6 0.4 3.6-0.6 2.1-1 3.4-8.9-1-17.8-1-0.9-3.1-0.7-2.5 0.5z"/>
								<path id="&lt;Path&gt;" class="s16" d="m620 850.1c2.4 3.7 4.6 13.7 1.6 16.6l-1 0.1c0 0 1.3 0.9 3.3-0.2 2-1.1 3.5-8.4-1.4-17.1-1.1-0.8-3.1-0.5-2.5 0.6z"/>
								<path id="&lt;Path&gt;" class="s16" d="m628.9 850.1c2.1 3.9 3.9 14.1 0.6 16.7l-1.2-0.1c0 0 1.6 1 3.2 0.4 2.3-0.8 4-8.4 0-17.4-1.1-0.9-3.1-0.8-2.6 0.4z"/>
								<path id="&lt;Path&gt;" class="s16" d="m636.5 850.5c2.1 3.9 4.1 14.7 0.8 17.4l-1.1-0.1c0 0 1.7 1 3.3 0.4 2.3-0.8 3.7-9.1-0.4-18.1-1-0.9-3.1-0.8-2.6 0.4z"/>
							</g>
						</g>
					</g>
					<g id="&lt;Group&gt;">
						<path id="&lt;Path&gt;" class="s19" d="m768.4 819.7l-21.8 23.4c0 0-11-3.7-23.6-3.3-12.5 0.4-39.9 2.7-48 1.5-9.6 4.5-17.3 19.1-9.8 31.4 17.8 5.5 47.7 14.8 66.5 18.8 22.7 4.9 37.5 7.1 56.1-4.3 18.6-11.3 54.6-38.9 65.4-51.8 10.8-12.8 14.2-36.2 14.9-52-27.2 4.7-89.2-6.7-100.5-45.8-16.2 18.2-7.3 51 0.8 82.1z"/>
						<path id="&lt;Path&gt;" class="s15" d="m774.9 811.7c0 0-16.9-9.7-16.8-28.2-4.7 18.1 4.2 27.8 10.3 36.2z"/>
						<path id="&lt;Path&gt;" class="s15" d="m865 783.9q-0.2 0-0.3 0-1.6 0.2-3.4 0.3 0 0 0 0c-1.6 17.7-3.8 33.9-21 54.2-23.6 27.9-54.9 49.9-57.2 51.5q2.4-1.2 4.7-2.7c18.6-11.3 54.6-38.9 65.4-51.8q2-2.4 3.7-5.2c2.3-3.8 4.1-8.2 5.6-12.7 3.7-11.4 5.2-24.2 5.6-34.1q-1.5 0.3-3.1 0.5z"/>
					</g>
				</g>
			</g>
			<g id="Top 5 ">
				<g id="Arm 1 ">
					<path id="&lt;Path&gt;" class="s25" d="m639.4 654.2c12.7 2.8 58.5 4.2 58.5 4.2 0 0 18.7-10 29.3-16.1 36.6-21.1 50.3-30.1 62.9-25.9l-20.3 50.5c0 0-31.6 14-54.9 22.8-12.1 4.6-16.2 5-24.3 2.9-9.9-2.7-12.4-3.4-27-6.8-18.3-4.3-26.5-6.2-26.5-6.2 0 0-10.4-28.3 2.3-25.4z"/>
					<path id="&lt;Path&gt;" class="s2" d="m790.1 615.4c-9-1.9-14.9-1.6-35.3 10.1-20.5 11.7-41.4 23.9-41.4 23.9 0 0 5.5 24.1 17.9 34.9l40.9-16.7 18.9-50.5z"/>
					<g id="&lt;Group&gt;">
						<path id="&lt;Path&gt;" class="s25" d="m646.9 655.6c-12-2.4-16.6-2.3-19.9-9.7-3.3-7.4-4.5-8.8-5.9-10.2-1.3-1.4-10-6.4-13.6-8.4-2.8-1.4-5.2-1.3-10.2-2.3-2.5-0.6-5.3-1.4-7.7-2.1-2-0.5-4.1-1.7-6.2-1.7-2.7 0.1-2.1 4-0.2 5.8 2 2 5 3.2 7.7 4.3 1.9 0.8 6.7 2.6 6.7 2.6-0.7 1.6-2.6 4.6-2.6 6.6 0.1 1.9 0.4 2.7 4 6.2 0 0-1.6 1.7-1.2 3.3 0.4 1.7 1.7 3.1 2.7 4.2 0 0-1 1.1-1 2.7 0 1.6 2.7 4.6 5.5 6.9 2.8 3.1 5.2 7.7 7.8 10.2 2.5 2.4 6.3 3.1 12.4 3.6 6.2 0.5 22 4.4 22 4.4 0 0 11.2-24.1-0.3-26.4z"/>
						<path id="&lt;Path&gt;" class="s26" d="m617 639.6c-3.6-0.9-6.4-2.3-8.5-4.9-2.1-2.5-4.3-5.5-5.2-5.1-1.7 0.7-3.4 5.1-0.3 9.6 2.9 4.2 7.5 8.7 8.2 9.9 0.8 1.3 1 5 1.2 7.9 0.1 2.8 2.2 9.5 10.4 12.1 0 0-4.3 0.2-8.8-3.9-4.5-4.1-3.7-10.7-4.2-13.4-0.5-2.8-0.5-3.3-4-6.9-3.4-3.5-7-7.4-5.6-13 1.5-5.6 3.8-4.2 5-3.1 1.2 1.1 6.1 9.5 11.8 10.8z"/>
						<path id="&lt;Path&gt;" class="s26" d="m597.6 633.9l3.2 0.8-0.6 1.2c0 0-2.8-0.5-4.6 2.1 0.5-1.1 1.4-2.9 2-4.1z"/>
						<path id="&lt;Path&gt;" class="s26" d="m599 646.7c1.1 1.1 4.8 4.5 5.6 5.2 0.7 0.7 2.3-0.3 2.5-2.3 0.2-2.1-0.1-3.3-1-4.9 0 0 2 2.2 1.8 4.9-0.2 2.6-1.6 3.6-2.7 3.7-1 0.2-3.8-4.2-6.2-6.6z"/>
						<path id="&lt;Path&gt;" class="s26" d="m600.5 654.2c0.9 0.9 2.2 1.9 4.6 4.3 1.4 1.4 2.2 2.3 3.2 1.7 0.9-0.6 1.8-3.5 0.6-5.5-1.2-1.9-2.3-3.1-2.3-3.1l0.6-0.7c0 0 2.6 2.5 3.3 5.2 0.7 2.6-0.9 5.6-2.2 5.4-1.4-0.2-2.1-1-4-3-1.9-2.1-3.8-4.3-3.8-4.3z"/>
						<path id="&lt;Path&gt;" class="s26" d="m607.6 660.8c0.5 0.7 0.8 2.4-0.4 3-1.1 0.6-2.2 0-2.2 0 0 0 1.2 1.3 2.7 0.6 1.4-0.7 1.4-2.5 1.1-3.8z"/>
					</g>
				</g>
				<g id="Top 10 ">
					<g id="&lt;Group&gt;">
						<g id="&lt;Group&gt;">
							<path id="&lt;Path&gt;" class="s6" d="m822 621.2c15.4 4.3 23.4 7.4 41.8 19 4.4 4.3 12.8 15.1 12.9 34.2 0.3 28.9 2.2 37.7-1.1 71.5-2.4 23.9-7.6 46.2-7.6 46.2-52.9 14-110.4-28.6-113.6-53.2 5.3-7.4 4.9-18.9 7.6-71.3 1.5-30.8 10.3-53.1 28.1-52.2 4.9 1.2 16.6 1.5 31.9 5.8z"/>
						</g>
					</g>
					<g id="&lt;Group&gt;">
						<g id="Mobile 1 ">
							<g id="&lt;Group&gt;">
								<path id="&lt;Path&gt;" class="s19" d="m709.2 645q0.3-0.2 0.9 0.1l30.8 13.6c0.9 0.4 1.8 1.5 2.2 2.3l22.5 60.8c0.1 0.5 0.1 0.8-0.1 1-0.2 0.1-3.5 2.5-3.7 2.7q-0.3 0.2-0.9-0.1l-30.8-13.6c-0.9-0.4-1.8-1.4-2.2-2.3l-22.5-60.8c-0.1-0.5-0.1-0.8 0.1-1 0.2-0.1 3.5-2.5 3.7-2.7z"/>
								<path id="&lt;Path&gt;" class="s15" d="m738.4 662.4c0.4 0.4 0.8 0.9 1 1.3l22.5 60.8q0.2 0.7-0.1 0.9c0.4-0.2 3.5-2.5 3.7-2.6 0.2-0.2 0.2-0.5 0.1-1l-22.5-60.8c-0.2-0.4-0.6-0.9-1-1.3z"/>
								<path id="&lt;Path&gt;" class="s6" d="m760.9 725.4l-30.8-13.6c-0.9-0.4-1.8-1.4-2.2-2.3l-22.5-60.8c-0.3-0.9 0.1-1.3 1-0.9l30.8 13.6c0.9 0.4 1.8 1.5 2.2 2.3l22.5 60.8c0.3 0.9-0.1 1.3-1 0.9z"/>
							</g>
							<g id="&lt;Group&gt;">
								<g id="&lt;Group&gt;">
									<path id="&lt;Path&gt;" class="s15" d="m739.3 673.7l-2.3-6.2c-0.4-1-1.5-2.2-2.5-2.7l-1.2-0.5c-1.6-0.7-2.4 0.1-1.8 1.7l2.3 6.2c0.4 1 1.5 2.2 2.5 2.6l1.2 0.5c1.6 0.7 2.4 0 1.8-1.6z"/>
								</g>
								<g id="&lt;Group&gt;">
									<path id="&lt;Path&gt;" class="s19" d="m738.1 672.9c-0.4-0.9-1.4-2-2.4-2.4-1-0.4-1.5-0.1-1.2 0.9 0.4 0.9 1.4 1.9 2.4 2.4 1 0.4 1.5 0 1.2-0.9z"/>
									<path id="&lt;Path&gt;" class="s7" d="m737.2 672.5c-0.2-0.4-0.7-1-1.2-1.2-0.5-0.2-0.8 0-0.6 0.4 0.2 0.5 0.7 1.1 1.2 1.3 0.5 0.2 0.8 0 0.6-0.5z"/>
								</g>
								<g id="&lt;Group&gt;">
									<path id="&lt;Path&gt;" class="s19" d="m736.3 668.3c-0.3-0.9-1.4-2-2.3-2.4-1-0.4-1.5 0-1.2 0.9 0.3 0.9 1.4 2 2.4 2.4 0.9 0.4 1.5 0 1.1-0.9z"/>
									<path id="&lt;Path&gt;" class="s7" d="m735.5 667.9c-0.2-0.4-0.8-1-1.2-1.2-0.5-0.2-0.8 0-0.6 0.4 0.1 0.5 0.7 1.1 1.2 1.3 0.5 0.2 0.7 0 0.6-0.5z"/>
								</g>
							</g>
							<g id="&lt;Group&gt;">
								<path id="&lt;Path&gt;" class="s6" d="m742.8 668.1l0.5-0.4q0.3-0.2 0.5-0.1c0.1 0.1 0.5 0.2 0.6 0.3q0.2 0.1 0.3 0.3l2 5.5c0.2 0.4 0 0.9-0.3 1.1l-0.5 0.3q-0.2 0.2-0.5 0.1c-0.1 0-0.5-0.2-0.6-0.3q-0.2 0-0.2-0.3l-2.1-5.5c-0.1-0.3 0-0.8 0.3-1z"/>
								<path id="&lt;Path&gt;" class="s19" d="m745.1 674.9l-2-5.5c-0.1-0.4 0-0.9 0.3-1.1l0.5-0.3c0.3-0.3 0.7-0.1 0.8 0.2l2 5.5c0.2 0.4 0 0.9-0.3 1.1l-0.5 0.3c-0.3 0.3-0.6 0.1-0.8-0.2z"/>
							</g>
							<g id="&lt;Group&gt;">
								<path id="&lt;Path&gt;" class="s6" d="m746.2 677.1l0.5-0.3q0.2-0.2 0.5-0.1c0.1 0 0.5 0.2 0.6 0.2q0.2 0.1 0.3 0.4l2 5.5c0.1 0.3 0 0.8-0.3 1l-0.5 0.4q-0.3 0.2-0.5 0.1c-0.1-0.1-0.5-0.3-0.6-0.3q-0.2-0.1-0.3-0.3l-2-5.5c-0.2-0.4 0-0.9 0.3-1.1z"/>
								<path id="&lt;Path&gt;" class="s19" d="m748.5 683.9l-2-5.5c-0.2-0.3 0-0.8 0.3-1l0.5-0.4c0.3-0.2 0.6-0.1 0.8 0.3l2 5.5c0.1 0.3 0 0.8-0.3 1l-0.5 0.4c-0.3 0.2-0.7 0.1-0.8-0.3z"/>
							</g>
						</g>
						<g id="&lt;Group&gt;">
							<g id="&lt;Group&gt;">
								<path id="&lt;Path&gt;" class="s25" d="m750.8 682.1l-1-2.9c-0.2-4.6 3.2-6.6 5.4-1.4 1.8 4.2 8.8 11 10.5 16.3 1.7 5.4 1.4 10.5 7.6 16.3 6.5 6.1 51 20.6 51 20.6l18.7-49.5c0 0 6.8-31.6 20.8-39.6 13 6.6 15.4 15.5 17.2 24.7 2.3 12-0.3 25.9-9.9 49.9-9.2 22.9-15.5 37.6-20.8 45.6-6.5 10-13.7 12-32.8 4.6-19.2-7.5-37.1-21.6-57-34.2-9.7-6.1-16-9.3-23.3-15.8-3.6-3.3-5.4-5.5-7.2-8.4-1.8-2.9-3.1-6.1-3.3-9.5 0-0.6 0-1.2-0.2-1.8-0.2-0.6-0.5-1.1-0.8-1.7-0.6-1-1.2-2-1.4-3.1-0.3-1.2-0.1-2.5-0.1-3.7 0-0.6 0.1-1.2 0-1.7q-0.1-0.9-0.4-1.7c-0.5-1.5-1.1-3-1.1-4.5 0.1-1.5 1.2-2 1.2-2 0 0-0.9-1.8-1.2-2.4q-0.6-1.3-0.8-2.7c-0.1-0.4-0.2-0.8 0.1-1.1 0.1-0.2 0.3-0.3 0.5-0.3 3.4-1.2 6.1 1.2 8.2 3.4 5.6 5.8 8 10.6 14.2 15.7 8.6 7.1 10.3 2.7 10.3 2.7z"/>
								<path id="&lt;Path&gt;" class="s26" d="m824.3 731c8.5 3.1 13.3 7 13.3 7 0 0-4-7.2-12.1-10.2z"/>
								<path id="&lt;Path&gt;" class="s26" d="m723.9 679c0.9 1.8 1.9 3.6 2.9 5.3 1 1.8 2.1 3.4 3.1 5.2 0.6 0.8 1 1.7 1.6 2.5q0.9 1.3 1.8 2.5 1.9 2.4 3.9 4.6l-1.7-2.5q-0.9-1.2-1.7-2.5c-0.6-0.8-1.2-1.6-1.7-2.4-0.5-0.9-1-1.8-1.5-2.6q-1.6-2.6-3.3-5.1z"/>
								<path id="&lt;Path&gt;" class="s26" d="m724.1 686.6c0.3 1.5 0.9 3 1.6 4.4q1 2.1 2.1 4.1 1.2 2 2.5 4c0.8 1.2 1.8 2.5 2.8 3.7-0.8-1.4-1.5-2.7-2.3-4.1l-2.3-4-2.3-4c-0.7-1.3-1.5-2.7-2.1-4.1z"/>
							</g>
						</g>
					</g>
					<path id="&lt;Path&gt;" class="s2" d="m863.8 640.2c7.2 4.2 17.2 12.2 18.9 31.4 1.7 19.1-15.5 55.6-15.5 55.6 0 0-25-3.2-37.1-15.8 0 0 7.6-22.6 12.4-37.6 4.7-15 12.8-30.3 21.3-33.6z"/>
					<g id="&lt;Group&gt;">
						<g id="&lt;Group&gt;">
							<path id="&lt;Path&gt;" class="s6" d="m778.1 566.2c-2.8-2.2-5.2-4.5-6.6-8.4-1.4-4.1-1.9-7.4-1.5-11.8 0-1 0.6-3.3 1.1-4.1 0.9-1.5 2.8-2 4.5-2.2q1.6-0.2 3.3-0.4c-2-2.1-4-4.3-5-7-0.7-2.1-0.8-4.3-0.3-6.4 0.1-0.6 0.3-1.2 0.7-1.6 0.9-1 2.5-0.8 3.7-0.5 10.2 2.9 20 2.1 23.4 2 6.3-0.4 9.4-1.1 17.9-1.9 8.6-0.7 23.8 3.3 26.3 19.4 11.5 1.9 12.9 20.4 9.6 28.2-6.1 14.3-11.9 23.7-15 34-0.6-0.4-38.9-22.7-47.6-29q-4.9-3.5-9.9-7.1c-1.5-1.1-3.1-2.1-4.6-3.2z"/>
							<path id="&lt;Path&gt;" class="s25" d="m851.3 595c-6.8 5.1-11.2 0.2-11.2 0.2l0.1 32.7c-14.1 18.4-52.2 15.3-35.9-3.2v-6.2c0 0-5.7 0.3-10.4-0.5-2.1-0.4-4.5-1.2-6.1-2.3-3.9-2.4-6.6-5.7-8.3-11.1-2-6.6-3.1-15.3-3.2-25 0-10.1 1-23.1 4.4-29.9 6-5.3 24-5.9 39.1-1.5 0.3 3.8-0.1 7.1 3 11.2 1.4 2.1 3.8 3.6 5.7 4.6 0.4 7.3 0.7 9.3 2.1 12.5 0.8 1.9 2.3 4.7 6 3.4 1.7-0.7 3.1-4.6 4.9-7.2 2.4-3.5 10.1-5.1 13.9 2.4 3.7 7.7 0.6 16.4-4.1 19.9z"/>
							<path id="&lt;Path&gt;" class="s26" d="m804.3 618.4c7.7-0.7 21.3-3.6 25.2-8.3 4-4.6 7-15.4 7-15.4 0 0-1.5 12.1-4.5 17.3-3 5.3-9.6 7.4-14.4 8.9-4.8 1.5-13.3 2.2-13.3 2.2z"/>
						</g>
						<g id="&lt;Group&gt;">
							<path id="&lt;Path&gt;" class="s6" d="m809.5 566.9l7.3 3.2c0.8-2.1-0.1-4.5-2.2-5.4-2-0.9-4.3 0.1-5.1 2.2z"/>
							<path id="&lt;Path&gt;" class="s6" d="m788.3 566.5l-7.1 3.7c-0.9-2-0.2-4.5 1.8-5.5 1.9-1.1 4.3-0.3 5.3 1.8z"/>
							<path id="&lt;Path&gt;" class="s26" d="m811.8 593.2l-13.2 5.1c1.5 3.7 5.8 5.5 9.4 4.1 3.7-1.4 5.4-5.5 3.8-9.2z"/>
							<path id="&lt;Path&gt;" class="s27" d="m811.4 596c-3.8 0-6.8 3-6.9 6.8 1.2 0.2 2.4 0.1 3.5-0.4 2.7-1 4.4-3.6 4.4-6.3q-0.5-0.1-1-0.1z"/>
							<path id="&lt;Path&gt;" class="s26" d="m801 567.7l-2.4 23.9-12.4-5.2z"/>
							<path id="&lt;Path&gt;" class="s6" d="m814 575.6c0 1.8-1.5 3.3-3.3 3.3-1.8 0.1-3.2-1.4-3.3-3.2 0-1.8 1.4-3.3 3.2-3.3 1.8 0 3.3 1.4 3.4 3.2z"/>
							<path id="&lt;Path&gt;" class="s6" d="m789.8 574.9c0 1.8-1.5 3.3-3.3 3.3-1.8 0.1-3.2-1.4-3.3-3.2 0-1.8 1.4-3.3 3.2-3.3 1.8 0 3.3 1.4 3.4 3.2z"/>
						</g>
					</g>
				</g>
			</g>
		</g>
	</g>
</svg>