<svg version="1.2" xmlns="http://www.w3.org/2000/svg" viewBox="0 0 1500 1000" width="1500" height="1000">
	<title>8459336-ai</title>
	<style>
		.s0 { fill: #e0e0e0 } 
		.s1 { fill: #ebebeb } 
		.s2 { fill: #e6e6e6 } 
		.s3 { fill: none;stroke: #e0e0e0;stroke-miterlimit:10;stroke-width: 1.5 } 
		.s4 { fill: none;stroke: #e0e0e0;stroke-linecap: round;stroke-linejoin: round;stroke-width: 1.5 } 
		.s5 { fill: none;stroke: #e0e0e0;stroke-linecap: round;stroke-linejoin: round } 
		.s6 { fill: #f5f5f5 } 
		.s7 { fill: #fafafa } 
		.s8 { fill:  #BA68C8 } 
		.s9 { opacity: .8;fill: #ffffff } 
		.s10 { fill: #ffffff } 
		.s11 { opacity: .2;fill: #000000 } 
		.s12 { fill: none;stroke:  #BA68C8;stroke-miterlimit:10 } 
		.s13 { fill: #263238 } 
		.s14 { fill: none;stroke:  #BA68C8;stroke-linecap: round;stroke-linejoin: round } 
		.s15 { opacity: .3;fill: #000000 } 
		.s16 { opacity: .6;fill: #ffffff } 
		.s17 { opacity: .6;fill:  #BA68C8 } 
		.s18 { opacity: .2;fill:  #BA68C8 } 
		.s19 { opacity: .7;fill: #ffffff } 
		.s20 { fill: #e9b376 } 
		.s21 { opacity: .2;fill: #ffffff } 
		.s22 { fill: none;stroke:  #BA68C8;stroke-miterlimit:10;stroke-width: .5 } 
		.s23 { opacity: .6;fill: #000000 } 
		.s24 { opacity: .4;fill: #ffffff } 
		.s25 { opacity: .2;fill: #263238 } 
		.s26 { fill: none;stroke: #000000;stroke-linecap: round;stroke-linejoin: round;stroke-width: .4 } 
		.s27 { fill: #000000 } 
		.s28 { fill: #d58745 } 
		.s29 { opacity: .1;fill: none;stroke: #000000;stroke-miterlimit:10 } 
		.s30 { fill: #c15854 } 
		.s31 { fill: #a77865 } 
		.s32 { fill: none;stroke: #ffffff;stroke-linecap: round;stroke-linejoin: round;stroke-width: 4 } 
		.s33 { opacity: .4;fill: #263238 } 
		.s34 { fill: #8e4f42 } 
		.s35 { fill: none;stroke: #263238;stroke-linecap: round;stroke-linejoin: round } 
		.s36 { fill: none;stroke: #263238;stroke-miterlimit:10;stroke-width: 2 } 
		.s37 { opacity: .3;fill: #ffffff } 
	</style>
	<g id="Background complete">
		<g id="&lt;Group&gt;">
			<g id="&lt;Group&gt;">
				<g id="&lt;Group&gt;">
					<g id="&lt;Group&gt;">
						<g id="&lt;Group&gt;">
							<g id="&lt;Group&gt;">
								<path id="&lt;Compound Path&gt;" fill-rule="evenodd" class="s0" d="m1347.5 664.9h-361.5c-6.5 0-11.7-5.2-11.7-11.7v-526.5c0-6.5 5.2-11.7 11.7-11.7h361.5c6.4 0 11.7 5.2 11.7 11.7v526.5c0 6.5-5.3 11.7-11.7 11.7zm-361.5-549.4c-6.2 0-11.2 5-11.2 11.2v526.5c0 6.2 5 11.2 11.2 11.2h361.5c6.2 0 11.2-5 11.2-11.2v-526.5c0-6.2-5-11.2-11.2-11.2z"/>
							</g>
						</g>
						<g id="&lt;Group&gt;">
							<g id="&lt;Group&gt;">
								<path id="&lt;Compound Path&gt;" fill-rule="evenodd" class="s0" d="m930.6 664.9h-361.5c-6.4 0-11.7-5.2-11.7-11.7v-526.5c0-6.5 5.3-11.7 11.7-11.7h361.5c6.5 0 11.7 5.2 11.7 11.7v526.5c0 6.5-5.2 11.7-11.7 11.7zm-361.5-549.4c-6.2 0-11.2 5-11.2 11.2v526.5c0 6.2 5 11.2 11.2 11.2h361.5c6.2 0 11.2-5 11.2-11.2v-526.5c0-6.2-5-11.2-11.2-11.2z"/>
							</g>
						</g>
					</g>
					<g id="&lt;Group&gt;">
						<g id="&lt;Group&gt;">
							<g id="&lt;Group&gt;">
								<path id="&lt;Compound Path&gt;" fill-rule="evenodd" class="s0" d="m514 664.9h-361.5c-6.4 0-11.7-5.2-11.7-11.7v-526.5c0-6.5 5.3-11.7 11.7-11.7h361.5c6.5 0 11.7 5.2 11.7 11.7v526.5c0 6.5-5.2 11.7-11.7 11.7zm-361.5-549.4c-6.2 0-11.2 5-11.2 11.2v526.5c0 6.2 5 11.2 11.2 11.2h361.5c6.2 0 11.2-5 11.2-11.2v-526.5c0-6.2-5-11.2-11.2-11.2z"/>
							</g>
						</g>
					</g>
				</g>
				<g id="&lt;Group&gt;">
					<g id="&lt;Group&gt;">
						<path id="&lt;Path&gt;" class="s0" d="m1500 787.3h-1500v-0.2h1500z"/>
					</g>
				</g>
			</g>
			<g id="&lt;Group&gt;">
				<path id="&lt;Path&gt;" class="s1" d="m1307.3 845.8h111.4v0.9h-111.4z"/>
				<path id="&lt;Path&gt;" class="s1" d="m990.1 855h29.2v0.8h-29.2z"/>
				<path id="&lt;Path&gt;" class="s1" d="m81.3 820.2h145.3v0.9h-145.3z"/>
				<path id="&lt;Path&gt;" class="s1" d="m256.6 820.2h21.3v0.9h-21.3z"/>
				<path id="&lt;Path&gt;" class="s1" d="m347.2 834.5h315.2v0.8h-315.2z"/>
			</g>
		</g>
		<g id="&lt;Group&gt;">
			<g id="&lt;Group&gt;">
				<path id="&lt;Path&gt;" class="s2" d="m1323.5 812.4c4.8-5.8 14-9.7 24-11.6-0.7 2.9-0.2 5.5 1.6 6.2 1.9 0.7 4.4-1.3 5.7-4.6q0.5-1.4 0.6-2.7c10.2-0.8 20.3 0.4 27.1 3.6 0 0-6.6 6-14.2 21.8q-0.3 0-0.7 0c-4.8 0-8.8 2.4-8.7 5.2 0 2.1 2.1 3.9 5.2 4.7q-0.6 1.5-1.2 3.1c-7.2 19.4-26.3 5.3-26.2-8 0 0-23.8-4.5-13.2-17.7z"/>
				<g id="&lt;Group&gt;">
					<path id="&lt;Path&gt;" class="s2" d="m1299.9 787.4c-5.8-6.4-16.6-10.1-28.2-11.5 1.1 3.2 0.6 6.3-1.3 7.2-2.1 0.9-5.2-1.2-6.8-4.8-0.5-1-0.8-2-0.9-3-11.7-0.2-23.2 1.9-30.7 6.1 0 0 8 6.3 17.8 23.7q0.4 0 0.8 0c5.5-0.3 10.2 2.1 10.4 5.3 0.1 2.4-2.2 4.6-5.6 5.7q0.8 1.7 1.6 3.4c9.6 21.6 30.4 4.2 29.2-10.9 0 0 26.9-7.1 13.7-21.2z"/>
					<g id="&lt;Group&gt;">
						<g id="&lt;Group&gt;">
							<g id="&lt;Group&gt;">
								<path id="&lt;Path&gt;" class="s1" d="m1285.7 782.6c2.5-12.1 12.9-24.8 26.2-35.2 1 4.8 3.9 8.3 6.9 7.9 3.3-0.4 5.5-5.3 4.9-10.9-0.2-1.6-0.6-3.1-1.2-4.4 14.2-8.9 29.9-14.9 42.3-15.3 0 0-5.1 13.7-4.2 42.4q-0.5 0.2-1 0.5c-7.1 3.8-11 10.2-8.8 14.3 1.6 3 6.1 4 11.1 2.8q0.3 2.7 0.6 5.4c4.3 33.8-34.3 27.8-44.1 8.3 0 0-38.3 11.4-32.7-15.8z"/>
							</g>
						</g>
					</g>
					<path id="&lt;Path&gt;" class="s3" d="m1313.5 859.6c-6.5-35.7 3.1-73.9 25.6-102.3"/>
					<path id="&lt;Path&gt;" class="s4" d="m1265.9 791c26.9 14 41.8 44.1 45.8 55.8 0 0 33-24 48.9-34.2"/>
					<g id="&lt;Group&gt;">
						<path id="&lt;Path&gt;" class="s0" d="m1353 871h-81v-14.9h80.9z"/>
						<path id="&lt;Path&gt;" class="s0" d="m1277.8 866.1l12.7 52.7h46.6l11.3-52.7z"/>
					</g>
				</g>
			</g>
			<path id="&lt;Path&gt;" class="s5" d="m1276.5 853.1q3.6 0 7.2 0"/>
			<path id="&lt;Path&gt;" class="s5" d="m1287 853.1q9.9 0 19.7 0"/>
		</g>
		<g id="&lt;Group&gt;">
			<g id="&lt;Group&gt;">
				<path id="&lt;Path&gt;" class="s2" d="m207.2 823c-4.7-5.9-13.9-9.8-24-11.7 0.8 2.9 0.2 5.6-1.5 6.2-1.9 0.7-4.5-1.3-5.7-4.6q-0.5-1.3-0.6-2.6c-10.2-0.9-20.4 0.3-27.2 3.6 0 0 6.7 6 14.2 21.7q0.4 0 0.7 0c4.9 0 8.8 2.4 8.8 5.2 0 2.1-2.2 3.9-5.2 4.7q0.6 1.5 1.2 3.1c7.1 19.4 26.3 5.4 26.1-7.9 0 0 23.9-4.6 13.2-17.7z"/>
				<g id="&lt;Group&gt;">
					<path id="&lt;Path&gt;" class="s2" d="m230.8 797.9c5.9-6.3 16.6-10.1 28.3-11.5-1.1 3.2-0.7 6.3 1.2 7.2 2.2 1 5.2-1.2 6.9-4.8 0.4-1 0.7-2 0.9-3 11.6-0.2 23.2 1.9 30.7 6.1 0 0-8.1 6.4-17.8 23.8q-0.4-0.1-0.8-0.1c-5.6-0.3-10.2 2.1-10.4 5.3-0.2 2.4 2.1 4.6 5.6 5.7q-0.8 1.7-1.6 3.5c-9.7 21.6-30.4 4.1-29.2-11 0 0-26.9-7-13.8-21.2z"/>
					<g id="&lt;Group&gt;">
						<g id="&lt;Group&gt;">
							<g id="&lt;Group&gt;">
								<path id="&lt;Path&gt;" class="s1" d="m245 793.2c-2.5-12.2-12.9-24.8-26.2-35.2-1 4.8-3.9 8.2-6.9 7.9-3.3-0.4-5.5-5.3-4.8-11 0.2-1.6 0.6-3.1 1.1-4.4-14.2-8.9-29.9-14.9-42.3-15.3 0 0 5.2 13.8 4.2 42.4q0.5 0.3 1.1 0.5c7 3.8 11 10.2 8.8 14.3-1.7 3.1-6.1 4-11.1 2.9q-0.3 2.6-0.7 5.4c-4.2 33.7 34.3 27.8 44.1 8.3 0 0 38.3 11.4 32.7-15.8z"/>
							</g>
						</g>
					</g>
					<path id="&lt;Path&gt;" class="s3" d="m217.3 870.1c6.4-35.7-3.2-73.9-25.7-102.3"/>
					<path id="&lt;Path&gt;" class="s4" d="m264.9 801.6c-27 14-41.9 44-45.9 55.7 0 0-33-23.9-48.9-34.1"/>
					<g id="&lt;Group&gt;">
						<path id="&lt;Path&gt;" class="s0" d="m177.7 881.5h81.1l-0.1-14.8h-80.9z"/>
						<path id="&lt;Path&gt;" class="s0" d="m252.9 876.7l-12.7 52.6h-46.6l-11.3-52.6z"/>
					</g>
				</g>
			</g>
			<path id="&lt;Path&gt;" class="s5" d="m254.3 863.6q-3.7 0-7.3 0"/>
			<path id="&lt;Path&gt;" class="s5" d="m243.7 863.6q-9.8 0-19.7 0"/>
		</g>
		<path id="&lt;Compound Path&gt;" fill-rule="evenodd" class="s6" d="m210.8 485l16.5-16.5 9.4 7.7c6.7-4.4 14-7.4 21.6-8.9l1.2-12.1h23.4l1.1 12.1c7.6 1.5 15 4.5 21.7 8.9l9.3-7.7 16.6 16.5-7.7 9.4c4.4 6.7 7.4 14 8.9 21.6l12.1 1.2v23.4l-12.1 1.2c-1.5 7.6-4.5 14.9-8.9 21.6l7.7 9.4-16.6 16.5-9.3-7.7c-6.7 4.4-14.1 7.4-21.7 8.9l-1.1 12.1h-23.4l-1.2-12.1c-7.6-1.5-14.9-4.5-21.6-8.9l-9.4 7.7-16.5-16.5 7.7-9.4c-4.4-6.7-7.4-14-9-21.6l-12.1-1.2v-23.4l12.1-1.2c1.6-7.6 4.6-14.9 9-21.6zm38 21.4c-12.4 12.4-12.4 32.5 0 44.9 12.4 12.4 32.5 12.4 44.8 0 12.4-12.4 12.4-32.5 0-44.9-12.3-12.4-32.4-12.4-44.8 0z"/>
		<path id="&lt;Compound Path&gt;" fill-rule="evenodd" class="s6" d="m538.4 779l7.3-7.3 4.1 3.4c3-2 6.3-3.3 9.6-4l0.5-5.3h10.4l0.5 5.3c3.4 0.7 6.6 2 9.6 4l4.1-3.4 7.3 7.3-3.4 4.1c2 3 3.3 6.2 4 9.6l5.3 0.5v10.4l-5.3 0.5c-0.7 3.3-2 6.6-4 9.6l3.4 4.1-7.3 7.3-4.1-3.4c-3 1.9-6.2 3.2-9.6 3.9l-0.5 5.4h-10.4l-0.5-5.4c-3.3-0.7-6.6-2-9.6-3.9l-4.1 3.4-7.3-7.3 3.4-4.1c-1.9-3-3.2-6.3-3.9-9.6l-5.4-0.5v-10.4l5.4-0.5c0.7-3.4 2-6.6 3.9-9.6zm16.8 9.5c-5.5 5.5-5.5 14.4 0 19.8 5.5 5.5 14.4 5.5 19.9 0 5.4-5.4 5.4-14.3 0-19.8-5.5-5.5-14.4-5.5-19.9 0z"/>
		<path id="&lt;Compound Path&gt;" fill-rule="evenodd" class="s6" d="m918.9 707.7l6.4-6.5 3.7 3c2.6-1.7 5.4-2.8 8.4-3.4l0.4-4.7h9.1l0.4 4.7c3 0.6 5.8 1.7 8.4 3.4l3.6-3 6.5 6.5-3 3.6c1.7 2.6 2.8 5.4 3.4 8.4l4.7 0.4v9.1l-4.7 0.4c-0.6 3-1.7 5.8-3.4 8.4l3 3.7-6.5 6.4-3.6-3c-2.6 1.7-5.4 2.8-8.4 3.4l-0.4 4.7h-9.1l-0.4-4.7c-3-0.6-5.8-1.7-8.4-3.4l-3.7 3-6.4-6.4 3-3.7c-1.7-2.6-2.8-5.4-3.5-8.4l-4.6-0.4v-9.1l4.6-0.4c0.7-3 1.8-5.8 3.5-8.4zm14.7 8.3c-4.8 4.8-4.8 12.6 0 17.4 4.8 4.8 12.6 4.8 17.4 0 4.8-4.8 4.8-12.6 0-17.4-4.8-4.8-12.6-4.8-17.4 0z"/>
		<path id="&lt;Compound Path&gt;" fill-rule="evenodd" class="s6" d="m1241.1 660.8l6.4-6.4 3.6 2.9c2.6-1.7 5.5-2.8 8.4-3.4l0.4-4.7h9.1l0.5 4.7c2.9 0.6 5.8 1.7 8.4 3.4l3.6-2.9 6.4 6.4-3 3.6c1.7 2.6 2.9 5.4 3.5 8.4l4.7 0.4v9.1l-4.7 0.5c-0.6 2.9-1.8 5.8-3.5 8.4l3 3.6-6.4 6.4-3.6-3c-2.6 1.7-5.5 2.9-8.4 3.5l-0.5 4.7h-9.1l-0.4-4.7c-2.9-0.6-5.8-1.8-8.4-3.5l-3.6 3-6.4-6.4 3-3.6c-1.8-2.6-2.9-5.5-3.5-8.4l-4.7-0.5v-9.1l4.7-0.4c0.6-3 1.7-5.8 3.5-8.4zm14.7 8.3c-4.8 4.8-4.8 12.6 0 17.4 4.8 4.8 12.6 4.8 17.4 0 4.8-4.8 4.8-12.6 0-17.4-4.8-4.8-12.6-4.8-17.4 0z"/>
		<path id="&lt;Compound Path&gt;" fill-rule="evenodd" class="s0" d="m693.1 157.5l20.6-19.2 10.9 9.7c8.2-5 17.2-8.2 26.4-9.7l1.9-14.5 28.2 1 0.8 14.6c9 2.2 17.8 6.1 25.6 11.7l11.6-8.9 19.1 20.6-9.7 10.9c5 8.2 8.3 17.2 9.8 26.4l14.5 1.9-1 28.1-14.6 0.9c-2.2 9-6.1 17.7-11.7 25.6l8.9 11.6-20.6 19.1-10.9-9.7c-8.3 5-17.2 8.3-26.4 9.8l-1.9 14.5-28.2-1-0.8-14.6c-9-2.2-17.8-6.1-25.6-11.7l-11.6 8.9-19.1-20.6 9.6-10.9c-4.9-8.3-8.2-17.2-9.7-26.4l-14.5-1.9 1-28.2 14.6-0.8c2.2-9.1 6.1-17.8 11.7-25.6zm44.7 27.4c-15.5 14.3-16.3 38.4-2 53.8 14.3 15.5 38.5 16.3 53.9 2 15.4-14.3 16.3-38.4 1.9-53.9-14.3-15.4-38.4-16.3-53.8-1.9z"/>
		<path id="&lt;Compound Path&gt;" fill-rule="evenodd" class="s0" d="m484.7 644l15.2-15.3 8.6 7.1c6.2-4 13-6.7 19.9-8.2l1.1-11.1h21.6l1 11.1c7 1.4 13.8 4.2 19.9 8.2l8.6-7.1 15.3 15.3-7.1 8.5c4 6.2 6.7 13 8.2 20l11.1 1v21.6l-11.1 1c-1.5 7-4.2 13.8-8.2 20l7.1 8.6-15.3 15.2-8.6-7.1c-6.1 4-12.9 6.8-19.9 8.2l-1 11.2h-21.6l-1.1-11.2c-6.9-1.4-13.7-4.2-19.9-8.2l-8.6 7.1-15.2-15.2 7.1-8.6c-4.1-6.2-6.8-13-8.2-20l-11.2-1v-21.6l11.2-1c1.4-7 4.1-13.8 8.2-20zm34.9 19.8c-11.4 11.4-11.4 29.8 0 41.2 11.4 11.4 29.9 11.4 41.3 0 11.4-11.4 11.4-29.8 0-41.2-11.4-11.4-29.9-11.4-41.3 0z"/>
		<path id="&lt;Compound Path&gt;" fill-rule="evenodd" class="s6" d="m529.3 175l10.4-10.5 5.9 4.9c4.3-2.8 8.9-4.6 13.7-5.6l0.7-7.7h14.8l0.7 7.7c4.8 1 9.4 2.8 13.6 5.6l5.9-4.9 10.5 10.5-4.9 5.9c2.8 4.2 4.6 8.8 5.6 13.6l7.7 0.7v14.8l-7.7 0.7c-1 4.8-2.8 9.5-5.6 13.7l4.9 5.9-10.5 10.4-5.8-4.9c-4.3 2.8-8.9 4.7-13.7 5.7l-0.7 7.6h-14.8l-0.7-7.6c-4.8-1-9.4-2.9-13.7-5.7l-5.9 4.9-10.4-10.4 4.9-5.9c-2.8-4.2-4.7-8.9-5.7-13.7l-7.6-0.7v-14.8l7.6-0.7c1-4.8 2.9-9.4 5.7-13.6zm23.9 13.5c-7.8 7.8-7.8 20.4 0 28.3 7.8 7.8 20.5 7.8 28.3 0 7.8-7.9 7.8-20.5 0-28.3-7.8-7.8-20.5-7.8-28.3 0z"/>
		<g id="&lt;Group&gt;">
			<path id="&lt;Path&gt;" class="s0" d="m1248.8 343.8l-245.4-10 7.2-175.7 245.4 10.1z"/>
			<path id="&lt;Path&gt;" class="s6" d="m1239.5 336.6l-226.2-9.3 6.6-162 226.2 9.3z"/>
			<path id="&lt;Path&gt;" class="s1" d="m1013.3 327.3l1-24.4c14.9-23.7 51.1-55.7 62.9-55.7 19.5-0.1 48.5 36.3 48.5 36.3 0 0 53.4-52.5 66.5-54.7 20.9-3.6 49.6 50.4 49.6 50.4l-2.3 57.4z"/>
			<path id="&lt;Path&gt;" class="s1" d="m1146 222.4c-1.4 10.9-11.4 18.7-22.3 17.3-10.9-1.3-18.7-11.3-17.3-22.2 1.4-10.9 11.3-18.7 22.2-17.3 11 1.3 18.7 11.3 17.4 22.2z"/>
		</g>
		<g id="&lt;Group&gt;">
			<path id="&lt;Path&gt;" class="s0" d="m1353.1 599.6l-145.5 24.5-17.5-104.2 145.5-24.4z"/>
			<path id="&lt;Path&gt;" class="s7" d="m1346.8 596.5l-134.2 22.6-16.1-96.1 134.1-22.5z"/>
			<path id="&lt;Path&gt;" class="s1" d="m1212.6 619.1l-2.4-14.5c5.9-15.8 23.2-39 30.1-40.5 11.5-2.5 33 15.3 33 15.3 0 0 24.9-37.5 32.4-40.4 11.8-4.7 35.4 23.5 35.4 23.5l5.7 34z"/>
			<path id="&lt;Path&gt;" class="s1" d="m1277.7 541c0.5 6.6-4.4 12.4-11 12.9-6.6 0.6-12.3-4.3-12.9-10.9-0.6-6.6 4.3-12.4 10.9-12.9 6.6-0.6 12.4 4.3 13 10.9z"/>
		</g>
		<g id="&lt;Group&gt;">
			<path id="&lt;Path&gt;" class="s0" d="m371.1 707.3l-122.3 18.1-12.9-87.6 122.3-18.1z"/>
			<path id="&lt;Path&gt;" class="s7" d="m365.9 704.6l-112.8 16.6-11.9-80.7 112.7-16.6z"/>
			<path id="&lt;Path&gt;" class="s1" d="m253.1 721.2l-1.8-12.1c5.2-13.1 20.1-32.4 25.9-33.5 9.7-1.8 27.4 13.4 27.4 13.4 0 0 21.5-31 27.8-33.3 10-3.7 29.2 20.3 29.2 20.3l4.3 28.6z"/>
			<path id="&lt;Path&gt;" class="s1" d="m308.9 656.9c0.3 5.5-3.9 10.3-9.4 10.7-5.5 0.3-10.3-3.9-10.6-9.4-0.4-5.5 3.8-10.3 9.3-10.7 5.6-0.3 10.3 3.9 10.7 9.4z"/>
		</g>
		<path id="&lt;Compound Path&gt;" fill-rule="evenodd" class="s6" d="m1273 287.6l7.8-7.9 4.5 3.7c3.2-2.1 6.7-3.5 10.3-4.3l0.5-5.7h11.1l0.6 5.7c3.6 0.8 7.1 2.2 10.3 4.3l4.4-3.7 7.9 7.9-3.7 4.4c2.1 3.2 3.5 6.7 4.3 10.3l5.7 0.5v11.2l-5.7 0.5c-0.8 3.6-2.2 7.1-4.3 10.3l3.7 4.4-7.9 7.9-4.4-3.7c-3.2 2.1-6.7 3.5-10.3 4.3l-0.6 5.7h-11.1l-0.5-5.7c-3.6-0.8-7.1-2.2-10.3-4.3l-4.5 3.7-7.8-7.9 3.6-4.4c-2.1-3.2-3.5-6.7-4.2-10.3l-5.8-0.5v-11.2l5.8-0.5c0.7-3.6 2.1-7.1 4.2-10.3zm18.1 10.2c-5.9 5.9-5.9 15.4 0 21.3 5.9 5.9 15.4 5.9 21.3 0 5.9-5.9 5.9-15.4 0-21.3-5.9-5.9-15.4-5.9-21.3 0z"/>
		<path id="&lt;Compound Path&gt;" fill-rule="evenodd" class="s6" d="m1076.1 395.6l13.3-13.3 7.6 6.2c5.4-3.5 11.3-5.9 17.4-7.2l1-9.8h18.9l0.9 9.8c6.1 1.3 12 3.7 17.4 7.2l7.6-6.2 13.3 13.3-6.2 7.6c3.6 5.4 5.9 11.3 7.2 17.4l9.8 1v18.9l-9.8 0.9c-1.3 6.1-3.6 12-7.2 17.4l6.2 7.6-13.3 13.3-7.5-6.2c-5.5 3.6-11.4 5.9-17.5 7.2l-0.9 9.8h-18.9l-1-9.8c-6.1-1.3-12-3.6-17.4-7.2l-7.6 6.2-13.3-13.3 6.2-7.6c-3.5-5.4-5.9-11.3-7.2-17.4l-9.8-0.9v-18.9l9.8-1c1.3-6.1 3.7-12 7.2-17.4zm30.7 17.2c-10 10-10 26.2 0 36.2 9.9 10 26.1 10 36.1 0 10-10 10-26.2 0-36.2-10-9.9-26.2-9.9-36.1 0z"/>
		<path id="&lt;Compound Path&gt;" fill-rule="evenodd" class="s0" d="m179.7 400.5l7.9-7.8 4.4 3.6c3.2-2.1 6.7-3.5 10.3-4.2l0.6-5.8h11.1l0.5 5.8c3.6 0.7 7.1 2.1 10.3 4.2l4.5-3.6 7.8 7.8-3.6 4.5c2 3.2 3.5 6.7 4.2 10.3l5.8 0.5v11.1l-5.8 0.6c-0.7 3.6-2.1 7.1-4.2 10.3l3.6 4.4-7.8 7.9-4.5-3.7c-3.2 2.1-6.7 3.5-10.3 4.2l-0.5 5.8h-11.1l-0.6-5.8c-3.6-0.7-7.1-2.1-10.3-4.2l-4.4 3.7-7.9-7.9 3.7-4.4c-2.1-3.2-3.5-6.7-4.3-10.3l-5.7-0.6v-11.1l5.7-0.5c0.8-3.6 2.2-7.1 4.3-10.3zm18 10.1c-5.8 5.9-5.8 15.5 0 21.4 5.9 5.8 15.5 5.8 21.4 0 5.8-5.9 5.8-15.5 0-21.4-5.9-5.8-15.5-5.8-21.4 0z"/>
		<path id="&lt;Compound Path&gt;" fill-rule="evenodd" class="s0" d="m607.7 103.9l9.8-9.8 5.5 4.6c4-2.6 8.3-4.4 12.8-5.3l0.7-7.1h13.8l0.6 7.1c4.5 0.9 8.9 2.7 12.8 5.3l5.5-4.6 9.8 9.8-4.6 5.5c2.6 3.9 4.4 8.3 5.3 12.8l7.1 0.6v13.8l-7.1 0.7c-0.9 4.5-2.7 8.8-5.3 12.8l4.6 5.5-9.8 9.8-5.5-4.6c-3.9 2.6-8.3 4.3-12.8 5.3l-0.6 7.1h-13.8l-0.7-7.1c-4.5-1-8.8-2.7-12.8-5.3l-5.5 4.6-9.8-9.8 4.6-5.5c-2.6-4-4.3-8.3-5.3-12.8l-7.1-0.7v-13.8l7.1-0.6c1-4.5 2.7-8.9 5.3-12.8zm22.4 12.6c-7.3 7.3-7.3 19.2 0 26.5 7.3 7.3 19.1 7.3 26.4 0 7.3-7.3 7.3-19.2 0-26.5-7.3-7.3-19.1-7.3-26.4 0z"/>
	</g>
	<g id="Shadow">
		<g id="&lt;Group&gt;">
			<g id="&lt;Group&gt;">
				<path id="&lt;Path&gt;" class="s6" d="m1379.2 938.1c0 6.7-272.6 12.2-608.9 12.2-336.3 0-609-5.5-609-12.2 0-6.8 272.7-12.3 609-12.3 336.3 0 608.9 5.5 608.9 12.3z"/>
			</g>
		</g>
	</g>
	<g id="Screen">
		<g id="&lt;Group&gt;">
			<g id="&lt;Group&gt;">
				<path id="&lt;Path&gt;" class="s8" d="m1073.8 672h-614.3c-17.1 0-31-13.9-31-31v-415.9c0-17.1 13.9-31 31-31h614.3c17.2 0 31 13.9 31 31v415.9c0 17.1-13.8 31-31 31z"/>
				<path id="&lt;Path&gt;" class="s9" d="m1073.8 672.1h-614.3c-17.1 0-31-13.8-31-31v-415.9c0-17.1 13.9-31 31-31h614.3c17.2 0 31 13.9 31 31v415.9c0 17.2-13.8 31-31 31z"/>
				<path id="&lt;Path&gt;" class="s8" d="m1104.8 254.2h-676.3v-28.7c0-17.4 14.1-31.4 31.4-31.4h614.1c17 0 30.8 13.8 30.8 30.8z"/>
				<g id="&lt;Group&gt;">
					<path id="&lt;Path&gt;" class="s10" d="m482.1 225.5c0 5.3-4.2 9.5-9.5 9.5-5.2 0-9.4-4.2-9.4-9.5 0-5.2 4.2-9.5 9.4-9.5 5.3 0 9.5 4.3 9.5 9.5z"/>
					<path id="&lt;Path&gt;" class="s10" d="m505 225.5c0 5.3-4.2 9.5-9.5 9.5-5.2 0-9.5-4.2-9.5-9.5 0-5.2 4.3-9.5 9.5-9.5 5.3 0 9.5 4.3 9.5 9.5z"/>
					<path id="&lt;Path&gt;" class="s10" d="m528.6 225.5c0 5.3-4.3 9.5-9.5 9.5-5.2 0-9.5-4.2-9.5-9.5 0-5.2 4.3-9.5 9.5-9.5 5.2 0 9.5 4.3 9.5 9.5z"/>
				</g>
			</g>
			<g id="&lt;Group&gt;">
				<g id="&lt;Group&gt;">
					<path id="&lt;Path&gt;" class="s8" d="m701.6 481.3h-213.2c-3.8 0-6.9-3.1-6.9-6.9v-184.2c0-3.8 3.1-6.8 6.9-6.8h213.2c3.8 0 6.9 3 6.9 6.8v184.2c0 3.8-3.1 6.9-6.9 6.9z"/>
					<path id="&lt;Path&gt;" class="s11" d="m481.5 449.4l58.8-57.7c5.4-5.4 13.8-6.6 20.6-3.1l46.6 24.3 41.5-45c7.3-7.9 19.5-8.6 27.7-1.7l31.8 27.1v75.4c-1 7-8.9 12.6-13.6 12.6h-198.9c-18.8 0-15.4-26.8-14.5-31.9z"/>
					<path id="&lt;Path&gt;" class="s11" d="m633.2 339.5c0 13.6-10.7 24.5-23.9 24.5-13.3 0-24-10.9-24-24.5 0-13.5 10.7-24.5 24-24.5 13.2 0 23.9 11 23.9 24.5z"/>
				</g>
			</g>
			<g id="&lt;Group&gt;">
				<g id="&lt;Group&gt;">
					<path id="&lt;Path&gt;" class="s12" d="m708.5 525h-219.2v-17.3h219.2z"/>
					<path id="&lt;Path&gt;" class="s12" d="m708.5 557.3h-219.2v-17.3h219.2z"/>
				</g>
				<g id="&lt;Group&gt;">
					<path id="&lt;Path&gt;" class="s12" d="m708.5 589.1h-219.2v-17.3h219.2z"/>
					<path id="&lt;Path&gt;" class="s12" d="m708.5 621.4h-219.2v-17.3h219.2z"/>
				</g>
			</g>
			<g id="&lt;Group&gt;">
				<g id="&lt;Group&gt;">
					<g id="&lt;Group&gt;">
						<path id="&lt;Path&gt;" class="s12" d="m901.7 389.5h-97c-3.8 0-6.9-3.1-6.9-6.8v-82.9c0-3.8 3.1-6.8 6.9-6.8h97c3.8 0 6.8 3 6.8 6.8v82.9c0 3.7-3 6.8-6.8 6.8z"/>
						<path id="&lt;Path&gt;" class="s12" d="m797.8 374l28.7-28.2c2.7-2.6 6.7-3.2 10-1.5l22.8 11.9 20.2-22c3.6-3.8 9.5-4.2 13.5-0.8l15.5 13.2v36.8c-0.5 3.4-4.3 6.1-6.6 6.1h-97c-9.1 0-7.5-13.1-7.1-15.5z"/>
						<path id="&lt;Path&gt;" class="s12" d="m866.5 320.4c0 6.6-5.2 11.9-11.7 11.9-6.4 0-11.7-5.3-11.7-11.9 0-6.6 5.3-12 11.7-12 6.5 0 11.7 5.4 11.7 12z"/>
					</g>
				</g>
				<path id="&lt;Path&gt;" class="s12" d="m863.8 416.2h-61.7v-13.3h61.7z"/>
				<path id="&lt;Path&gt;" class="s12" d="m912.5 449.4h-110.4v-13.3h110.4z"/>
				<path id="&lt;Path&gt;" class="s12" d="m912.5 474.3h-110.4v-13.3h110.4z"/>
				<path id="&lt;Path&gt;" class="s12" d="m866.4 500.3h-64.3v-13.3h64.3z"/>
			</g>
			<g id="&lt;Group&gt;">
				<g id="&lt;Group&gt;">
					<g id="&lt;Group&gt;">
						<path id="&lt;Path&gt;" class="s12" d="m1047.7 389.5h-97c-3.8 0-6.9-3.1-6.9-6.8v-82.9c0-3.8 3.1-6.8 6.9-6.8h97c3.7 0 6.8 3 6.8 6.8v82.9c0 3.7-3.1 6.8-6.8 6.8z"/>
						<path id="&lt;Path&gt;" class="s12" d="m943.8 374l28.7-28.2c2.6-2.6 6.7-3.2 10-1.5l22.8 11.9 20.2-22c3.5-3.8 9.5-4.2 13.5-0.8l15.5 13.2v36.8c-0.5 3.4-4.3 6.1-6.6 6.1h-97c-9.2 0-7.5-13.1-7.1-15.5z"/>
						<path id="&lt;Path&gt;" class="s12" d="m1012.5 320.4c0 6.6-5.2 11.9-11.7 11.9-6.4 0-11.7-5.3-11.7-11.9 0-6.6 5.3-12 11.7-12 6.5 0 11.7 5.4 11.7 12z"/>
					</g>
				</g>
				<path id="&lt;Path&gt;" class="s12" d="m1009.8 416.2h-61.7v-13.3h61.7z"/>
				<path id="&lt;Path&gt;" class="s12" d="m1058.4 449.4h-110.3v-13.3h110.3z"/>
				<path id="&lt;Path&gt;" class="s12" d="m1058.4 474.3h-110.3v-13.3h110.3z"/>
				<path id="&lt;Path&gt;" class="s12" d="m1012.4 500.3h-64.3v-13.3h64.3z"/>
			</g>
			<path id="&lt;Path&gt;" class="s12" d="m1058.4 550.6h-263.1v-13h263.1z"/>
			<path id="&lt;Path&gt;" class="s12" d="m1058.4 631.3h-263.1v-71.5h263.1z"/>
		</g>
	</g>
	<g id="Plant">
		<g id="&lt;Group&gt;">
			<g id="&lt;Group&gt;">
				<g id="&lt;Group&gt;">
					<path id="&lt;Path&gt;" class="s8" d="m880.7 663.5c-28 32.7-36.1 81-20.4 121 17.4-15.5 29.6-39.2 30.4-59.9 0.8-20.7-4.7-41.1-10-61.1z"/>
				</g>
				<g id="&lt;Group&gt;">
					<path id="&lt;Path&gt;" class="s8" d="m875.8 788.3c-9.5 14.5-14 32.2-12.7 49.4 15.1-5.2 28.4-22.3 36.4-36.1 8-13.8 12.4-29.4 16.5-44.9-16.4 5.8-30.7 17.1-40.2 31.6z"/>
				</g>
				<g id="&lt;Group&gt;">
					<g id="&lt;Group&gt;">
						<path id="&lt;Path&gt;" class="s13" d="m872.1 720.5c-11.2 40.3-16.9 82.1-16.9 123.9q0.1 17.9 1.5 35.7c0 1 1.5 1 1.5 0-3.3-41.7-0.9-83.8 7.2-124.9q3.5-17.3 8.2-34.3c0.3-0.9-1.2-1.3-1.5-0.4z"/>
					</g>
				</g>
				<g id="&lt;Group&gt;">
					<g id="&lt;Group&gt;">
						<path id="&lt;Path&gt;" class="s13" d="m857.3 851.4c11.5-27.2 26.5-52.7 43.9-76.6 0.6-0.8-0.7-1.5-1.3-0.8-17.4 24-32.5 49.7-44 77-0.4 0.9 1.1 1.3 1.4 0.4z"/>
					</g>
				</g>
				<g id="&lt;Group&gt;">
					<path id="&lt;Path&gt;" class="s8" d="m840.9 810.9c7.9 12.1 11.7 26.8 10.6 41.2-12.6-4.3-23.7-18.6-30.3-30.1-6.7-11.5-10.4-24.5-13.8-37.4 13.6 4.8 25.6 14.2 33.5 26.3z"/>
				</g>
				<g id="&lt;Group&gt;">
					<g id="&lt;Group&gt;">
						<path id="&lt;Path&gt;" class="s13" d="m857 861.6c-9.4-22.3-21.8-43.1-36.1-62.7-0.6-0.7-1.9 0-1.3 0.8 14.2 19.5 26.6 40.1 35.9 62.3 0.4 0.9 1.9 0.5 1.5-0.4z"/>
					</g>
				</g>
				<g id="&lt;Group&gt;">
					<g id="&lt;Group&gt;">
						<path id="&lt;Path&gt;" class="s13" d="m857.4 869.2c17.7-18.2 35.9-36.1 53.6-54.4 0.7-0.7-0.4-1.8-1-1.1-17.8 18.3-35.9 36.2-53.7 54.5-0.7 0.7 0.4 1.7 1.1 1z"/>
					</g>
				</g>
				<g id="&lt;Group&gt;">
					<path id="&lt;Path&gt;" class="s8" d="m911.6 806.3c-15.4 14.8-29.5 31.1-41.9 48.5h2.8c11.7-0.5 23.1-6.3 30.5-15.4 7.3-9.2 10.5-21.5 8.6-33.1z"/>
				</g>
				<g id="&lt;Group&gt;">
					<g id="&lt;Group&gt;">
						<g id="&lt;Group&gt;">
							<path id="&lt;Path&gt;" class="s13" d="m838.5 770.9q9.9 16.3 18.7 33.2c0.4 0.8 1.7 0.1 1.3-0.8q-8.8-16.9-18.7-33.1c-0.5-0.8-1.8-0.1-1.3 0.7z"/>
						</g>
					</g>
					<g id="&lt;Group&gt;">
						<path id="&lt;Path&gt;" class="s8" d="m822.7 716.2c-2.5 11.4-5 26.1-5.1 37.9 0 11.9 3.6 23.4 10.3 31.3 6.7 7.9 20.3 11.4 25.8 6.9z"/>
					</g>
				</g>
			</g>
			<path id="&lt;Path&gt;" class="s13" d="m889.6 886.9h-67.3v-12.5h67.3z"/>
			<path id="&lt;Path&gt;" class="s13" d="m878.7 931.3h-41.7l-7.6-47.3h55.3z"/>
			<path id="&lt;Path&gt;" class="s11" d="m829.9 887.1h54.5l-0.7 5.4h-53z"/>
		</g>
	</g>
	<g id="Speech Bubble 3">
		<g id="&lt;Group&gt;">
			<g id="&lt;Group&gt;">
				<g id="&lt;Group&gt;">
					<path id="&lt;Path&gt;" class="s8" d="m1274 438.8c15.7-17.5 14.2-44.3-3.3-60-17.5-15.6-44.3-14.1-59.9 3.3-12.1 13.5-13.9 32.6-6.1 47.8l-4.6 11.9 13.5-0.2q0.2 0.2 0.5 0.5c17.5 15.6 44.3 14.1 59.9-3.3z"/>
				</g>
				<path id="&lt;Path&gt;" class="s14" d="m1266.4 368.3c12.3 6.1 21.1 18.9 22.6 32.6"/>
				<path id="&lt;Path&gt;" class="s14" d="m1289.4 407.2c0.4 2.1 0.3 4.2-0.1 6.3"/>
			</g>
			<g id="&lt;Group&gt;">
				<path id="&lt;Path&gt;" class="s10" d="m1241.6 428.5l-19.5-14.5 5.1-6.7 13 9.7 17.9-21.4 6.5 5.4z"/>
			</g>
		</g>
	</g>
	<g id="Speech Bubble 2">
		<path id="&lt;Path&gt;" class="s15" d="m892.7 263c-10.5-18.8-34.1-24.9-52.7-13.7-18.6 11.3-25.2 35.6-14.6 54.4q0.1 0.3 0.3 0.5l-2.8 12.4 11.5-2.1c12 9.8 29.4 11.5 43.7 2.9 18.6-11.3 25.2-35.6 14.6-54.4z"/>
		<g id="&lt;Group&gt;">
			<g id="&lt;Group&gt;">
				<g id="&lt;Group&gt;">
					<g id="&lt;Group&gt;">
						<path id="&lt;Path&gt;" class="s10" d="m883.7 254.3c10.5 18.8 4 43.1-14.6 54.3-14.4 8.7-31.7 7-43.7-2.8l-11.5 2 2.8-12.3q-0.2-0.3-0.4-0.5c-10.5-18.8-3.9-43.2 14.7-54.4 18.6-11.2 42.2-5.1 52.7 13.7z"/>
					</g>
				</g>
			</g>
			<path id="&lt;Path&gt;" class="s8" d="m840.5 273.8c0 2.8-2.4 5.1-5.3 5.1-3 0-5.4-2.3-5.4-5.1 0-2.9 2.4-5.2 5.4-5.2 2.9 0 5.3 2.3 5.3 5.2z"/>
			<path id="&lt;Path&gt;" class="s8" d="m856.9 273.8c0 2.8-2.4 5.1-5.4 5.1-2.9 0-5.3-2.3-5.3-5.1 0-2.9 2.4-5.2 5.3-5.2 3 0 5.4 2.3 5.4 5.2z"/>
			<path id="&lt;Path&gt;" class="s8" d="m873.3 273.8c0 2.8-2.4 5.1-5.4 5.1-2.9 0-5.3-2.3-5.3-5.1 0-2.9 2.4-5.2 5.3-5.2 3 0 5.4 2.3 5.4 5.2z"/>
		</g>
	</g>
	<g id="Speech Bubble 1">
		<g id="&lt;Group&gt;">
			<g id="&lt;Group&gt;">
				<path id="&lt;Path&gt;" class="s8" d="m273.7 342.2c1.4 1.1 30.5 30.5 30.5 30.5v-30.5z"/>
				<path id="&lt;Path&gt;" class="s9" d="m273.7 342.2c1.4 1.1 30.5 30.5 30.5 30.5v-30.5z"/>
				<path id="&lt;Path&gt;" class="s8" d="m372.8 345.8h-172.7c-8 0-14.4-6.5-14.4-14.5v-158.6c0-8 6.4-14.4 14.4-14.4h172.7c8 0 14.4 6.4 14.4 14.4v158.6c0 8-6.4 14.5-14.4 14.5z"/>
				<path id="&lt;Path&gt;" class="s9" d="m372.8 345.8h-172.7c-8 0-14.4-6.5-14.4-14.5v-158.6c0-8 6.4-14.4 14.4-14.4h172.7c8 0 14.4 6.4 14.4 14.4v158.6c0 8-6.4 14.5-14.4 14.5z"/>
			</g>
			<g id="&lt;Group&gt;">
				<g id="&lt;Group&gt;">
					<path id="&lt;Path&gt;" class="s13" d="m282.6 181.6c3.3-3.4 16.1 3.5 28.5 15.5 12.5 12 19.8 24.5 16.5 28-3.3 3.4-16.1-3.5-28.5-15.5-12.5-12-19.8-24.5-16.5-28z"/>
					<path id="&lt;Path&gt;" class="s8" d="m299.1 209.6c-12.4-12-19.8-24.5-16.5-27.9l-39.3 40.7c-3.3 3.5 4.1 16 16.5 28 12.4 12 25.2 19 28.4 15.4l39.3-40.7c-3.2 3.4-16-3.5-28.4-15.5z"/>
					<path id="&lt;Path&gt;" class="s16" d="m299.1 209.6c-12.4-12-19.8-24.5-16.5-27.9l-39.3 40.7c-3.3 3.5 4.1 16 16.5 28 12.4 12 25.2 19 28.4 15.4l39.3-40.7c-3.2 3.4-16-3.5-28.4-15.5z"/>
					<path id="&lt;Path&gt;" class="s8" d="m355.2 211.6c-7.4 13.2-18.7 17.1-31.7 14.2h-0.1c-5.6-1.2-15.1-7.3-24.3-16.2-4.7-4.5-9-9.5-12.6-14.9 0.3-4.6 6.5-8.4 12-8.9 7.2-0.7 16.5 0.8 25.7 13.4 10.9 15.2 22.4 12.7 24.1 7 2.9-9.8 13.6-6.6 6.9 5.4z"/>
					<path id="&lt;Path&gt;" class="s8" d="m344.8 202.2c0.4-4.1-3.1-5.7-2.8-1.7 0.3 3.9 2.5 4.7 2.8 1.7z"/>
					<path id="&lt;Path&gt;" class="s8" d="m353.1 222.1c3.1-0.9 3-3.8 0.3-2.5-2.7 1.4-2.5 3.2-0.3 2.5z"/>
				</g>
				<path id="&lt;Path&gt;" class="s8" d="m231.2 281.8c-7.2 7.1-7.1 18.8 0.2 26.2 7.3 7.5 19 7.8 26.2 0.7 7.2-7 7.1-18.8-0.2-26.2-7.3-7.4-19-7.7-26.2-0.7z"/>
				<path id="&lt;Path&gt;" class="s17" d="m276.6 283.8c-7.2 7-7.1 18.8 0.2 26.2 7.3 7.5 19 7.8 26.2 0.7 7.2-7 7.1-18.8-0.2-26.2-7.3-7.4-19-7.8-26.2-0.7z"/>
				<path id="&lt;Path&gt;" class="s18" d="m334.9 315.8c9.8 0.4 18.1-7.2 18.5-16.9q0-0.5 0-1c0-10.3-8.2-18.7-18.5-19.2-9.8-0.4-18.1 7.2-18.5 17q0 0.4 0 0.9c0 10.3 8.2 18.8 18.5 19.2z"/>
			</g>
			<path id="&lt;Path&gt;" class="s12" d="m266.4 295.3c0 12.1-9.9 21.9-22 21.9-12.1 0-22-9.8-22-21.9 0-12.2 9.9-22 22-22 12.1 0 22 9.8 22 22z"/>
		</g>
	</g>
	<g id="Character 3">
		<g id="&lt;Group&gt;">
			<g id="&lt;Group&gt;">
				<g id="&lt;Group&gt;">
					<g id="&lt;Group&gt;">
						<g id="&lt;Group&gt;">
							<path id="&lt;Path&gt;" class="s8" d="m1273 932.7h-199.1c-3.8 0-6.8-3.1-6.8-6.9v-157.8c0-3.7 3-6.8 6.8-6.8h203.4c3.8 0 6.8 3.1 6.8 6.8v153.5c0 6.2-4.9 11.2-11.1 11.2z"/>
						</g>
					</g>
					<path id="&lt;Path&gt;" class="s19" d="m1137.2 846.9v-35.9c0-3.6 3.9-5.8 7.1-4l31.1 17.9 31 17.9c3.2 1.9 3.2 6.4 0 8.2l-31 17.9-31.1 18c-3.2 1.8-7.1-0.5-7.1-4.1z"/>
					<path id="&lt;Path&gt;" class="s15" d="m1273.2 932.7h-28.4v-171.5h32.8c3.6 0 6.5 2.9 6.5 6.5v154c0 6.1-4.9 11-10.9 11z"/>
				</g>
				<path id="&lt;Path&gt;" class="s15" d="m1116.9 919c0 0 9.5-4.2 9.3-3.6-0.1 0.6-14.8-63.9-20-87.5-5.2-23.6-14.6-56-14.6-56l75.9-10.4c0 0-114.2-9.8-112.2-8.3 1.4 1 22.2 107.9 39.6 155.7 6.8 18.6 22 10.1 22 10.1z"/>
			</g>
			<g id="&lt;Group&gt;">
				<g id="&lt;Group&gt;">
					<g id="&lt;Group&gt;">
						<g id="&lt;Group&gt;">
							<g id="&lt;Group&gt;">
								<path id="&lt;Path&gt;" class="s20" d="m1004.8 825l-22.1 40.4-19.2-5.7 17.5-46.9z"/>
							</g>
						</g>
					</g>
				</g>
				<g id="&lt;Group&gt;">
					<g id="&lt;Group&gt;">
						<g id="&lt;Group&gt;">
							<g id="&lt;Group&gt;">
								<g id="&lt;Group&gt;">
									<g id="&lt;Group&gt;">
										<g id="&lt;Group&gt;">
											<g id="&lt;Group&gt;">
												<g id="&lt;Group&gt;">
													<g id="&lt;Group&gt;">
														<g id="&lt;Group&gt;">
															<g id="&lt;Group&gt;">
																<path id="&lt;Path&gt;" class="s13" d="m977.8 887.2l-13.8-3c0 0-0.8-2.8-3.7-3.5-1.6-0.4-5.9 1.1-5.9 1.1l-38-7.8c0 0 0.5-2.6 1.2-3.6q1.2-1.9 2.5-3.2c3-2.9 7.6-3.5 11-3.9 5.7-0.5 22.2-4.9 22.2-4.9 0 0 4.3-1.5 7.8-6.4 2-2.7 4.6-4 6.3-3.9 3.4 0.3 4.9 2.6 4.7 5.8l-0.2 3.8c2.1 2.5 5.5 3.1 8.6 1.2 0 0 8-2.7 6.9 0.8-0.7 2-4 10.8-6.3 17.8-0.6 1.7-1.1 3.2-1.6 4.6-1 3-1.7 5.1-1.7 5.1z"/>
															</g>
														</g>
													</g>
												</g>
											</g>
										</g>
										<g id="&lt;Group&gt;">
											<g id="&lt;Group&gt;">
												<g id="&lt;Group&gt;">
													<g id="&lt;Group&gt;">
														<path id="&lt;Path&gt;" class="s8" d="m944.5 860.4c0.2-0.1 0.4-0.1 0.6 0.1 0.8 0.8 1.4 1.7 1.7 2.8 0.2 0.6-0.8 0.9-0.9 0.3-0.3-0.9-0.8-1.8-1.5-2.4-0.2-0.3-0.2-0.6 0.1-0.8q0 0 0 0z"/>
													</g>
												</g>
											</g>
										</g>
										<g id="&lt;Group&gt;">
											<g id="&lt;Group&gt;">
												<g id="&lt;Group&gt;">
													<g id="&lt;Group&gt;">
														<path id="&lt;Path&gt;" class="s8" d="m947.7 859.4c0.2-0.1 0.5 0 0.7 0.1 0.7 0.8 1.3 1.7 1.6 2.8 0.2 0.6-0.7 1-0.9 0.4-0.3-1-0.8-1.9-1.5-2.5-0.2-0.2-0.2-0.6 0.1-0.7q0 0 0-0.1z"/>
													</g>
												</g>
											</g>
										</g>
										<g id="&lt;Group&gt;">
											<g id="&lt;Group&gt;">
												<g id="&lt;Group&gt;">
													<g id="&lt;Group&gt;">
														<path id="&lt;Path&gt;" class="s8" d="m951 858.6c0.2-0.1 0.5-0.1 0.7 0.1 0.8 0.7 1.4 1.7 1.7 2.8 0.1 0.6-0.8 0.9-1 0.3-0.2-1-0.8-1.8-1.4-2.5-0.3-0.2-0.2-0.5 0-0.7q0 0 0 0z"/>
													</g>
												</g>
											</g>
										</g>
									</g>
								</g>
							</g>
						</g>
					</g>
				</g>
				<path id="&lt;Path&gt;" class="s21" d="m960.3 880.7c-1.6-0.4-5.9 1.1-5.9 1.1l-38-7.8c0 0 0.5-2.6 1.2-3.6q0.5-0.9 1.1-1.6l61.1 12.5q-0.1 0.4-0.3 0.8c-1 3-1.7 5.1-1.7 5.1l-13.8-3c0 0-0.8-2.8-3.7-3.5z"/>
				<path id="&lt;Path&gt;" class="s22" d="m951.3 859.1c0.4-1.3 0.8-2.6 0.9-3.9 0.2-1.4 0.1-2.8-0.5-4-0.2-0.6-0.6-1.2-1.3-1.2-0.6-0.1-1.2 0.4-1.5 0.9-0.7 1.1-0.8 2.5-0.5 3.7 0.3 1.2 2.1 3.5 2.9 4.5z"/>
				<path id="&lt;Path&gt;" class="s22" d="m951.5 859.1c0.7-1.1 1.5-2.2 2.5-3.1 0.9-1 2.1-1.8 3.4-2.1 0.6-0.2 1.3-0.2 1.7 0.2 0.5 0.4 0.5 1.2 0.3 1.8-0.4 1.2-1.4 2.2-2.6 2.7-1.2 0.5-4.1 0.6-5.3 0.5z"/>
			</g>
			<g id="&lt;Group&gt;">
				<g id="&lt;Group&gt;">
					<g id="&lt;Group&gt;">
						<g id="&lt;Group&gt;">
							<g id="&lt;Group&gt;">
								<path id="&lt;Path&gt;" class="s20" d="m1096.1 854.7l10 44.9-18.2 8.4-17.8-46.8z"/>
							</g>
						</g>
					</g>
				</g>
				<g id="&lt;Group&gt;">
					<g id="&lt;Group&gt;">
						<g id="&lt;Group&gt;">
							<g id="&lt;Group&gt;">
								<g id="&lt;Group&gt;">
									<g id="&lt;Group&gt;">
										<g id="&lt;Group&gt;">
											<g id="&lt;Group&gt;">
												<g id="&lt;Group&gt;">
													<g id="&lt;Group&gt;">
														<g id="&lt;Group&gt;">
															<g id="&lt;Group&gt;">
																<path id="&lt;Path&gt;" class="s13" d="m1116.8 919.1l-12.3 6.9c0 0-2.4-1.6-5.1-0.2-1.5 0.8-3.7 4.8-3.7 4.8l-33.7 19.2c0 0-1.3-2.3-1.5-3.5q-0.4-2.2-0.2-4c0.3-4.2 3.3-7.7 5.7-10.2 3.9-4.2 13.4-18.4 13.4-18.4 0 0 2.2-3.9 1.7-9.9-0.3-3.4 0.7-6.1 2.1-7.1 2.7-2.1 5.4-1.3 7.4 1.3l2.3 2.9c3.3 0.5 6.2-1.3 7.3-4.8 0 0 4.2-7.3 5.6-3.9 0.9 1.9 4.2 10.7 7.1 17.5 0.7 1.6 1.3 3.2 1.8 4.5 1.3 2.9 2.1 4.9 2.1 4.9z"/>
															</g>
														</g>
													</g>
												</g>
											</g>
										</g>
										<g id="&lt;Group&gt;">
											<g id="&lt;Group&gt;">
												<g id="&lt;Group&gt;">
													<g id="&lt;Group&gt;">
														<path id="&lt;Path&gt;" class="s8" d="m1074.1 921.1c0.1-0.2 0.3-0.4 0.5-0.4 1.1 0.1 2.2 0.4 3.2 1 0.5 0.3 0 1.2-0.5 0.9-0.9-0.6-1.8-0.9-2.8-0.9-0.3 0-0.5-0.3-0.4-0.6q0 0 0 0z"/>
													</g>
												</g>
											</g>
										</g>
										<g id="&lt;Group&gt;">
											<g id="&lt;Group&gt;">
												<g id="&lt;Group&gt;">
													<g id="&lt;Group&gt;">
														<path id="&lt;Path&gt;" class="s8" d="m1075.9 918.2c0.1-0.2 0.3-0.4 0.5-0.4 1.1 0.1 2.2 0.4 3.2 1 0.5 0.4 0 1.2-0.5 0.9-0.9-0.6-1.8-0.9-2.8-0.9-0.3 0-0.5-0.3-0.4-0.6q0 0 0 0z"/>
													</g>
												</g>
											</g>
										</g>
										<g id="&lt;Group&gt;">
											<g id="&lt;Group&gt;">
												<g id="&lt;Group&gt;">
													<g id="&lt;Group&gt;">
														<path id="&lt;Path&gt;" class="s8" d="m1077.8 915.4c0.1-0.3 0.3-0.4 0.6-0.4 1.1 0 2.1 0.4 3.1 1 0.5 0.3 0 1.2-0.5 0.9-0.8-0.6-1.8-0.9-2.7-0.9-0.4 0-0.6-0.3-0.5-0.6q0 0 0 0z"/>
													</g>
												</g>
											</g>
										</g>
									</g>
								</g>
							</g>
						</g>
					</g>
				</g>
				<path id="&lt;Path&gt;" class="s21" d="m1099.4 925.8c-1.5 0.8-3.7 4.8-3.7 4.8l-33.7 19.2c0 0-1.3-2.3-1.5-3.5q-0.2-1-0.2-1.9l54.1-31q0.2 0.4 0.3 0.8c1.3 2.9 2.1 4.9 2.1 4.9l-12.3 6.9c0 0-2.4-1.6-5.1-0.2z"/>
				<path id="&lt;Path&gt;" class="s22" d="m1078.4 915.6c-0.6-1.3-1.2-2.5-1.9-3.6-0.8-1.1-1.8-2.1-3-2.7-0.6-0.2-1.3-0.4-1.8 0-0.6 0.3-0.7 1.1-0.6 1.7 0.2 1.3 1.1 2.4 2.1 3.1 1.1 0.7 3.9 1.3 5.2 1.5z"/>
				<path id="&lt;Path&gt;" class="s22" d="m1078.5 915.5c-0.1-1.4-0.3-2.7-0.2-4 0.1-1.4 0.4-2.8 1.1-3.9 0.4-0.5 0.9-1 1.5-1 0.7 0 1.2 0.6 1.4 1.3 0.5 1.1 0.4 2.5-0.2 3.6-0.5 1.2-2.6 3.2-3.6 4z"/>
			</g>
			<g id="&lt;Group&gt;">
				<g id="freepik--Character--inject-281 00000005252941569225955230000005281706764941849498 ">
					<path id="&lt;Path&gt;" class="s13" d="m1024.9 739c0.7 7.2 2.3 17 4.1 24 5.1 19.7 11 38.7 18.3 58.3 14.2 38.7 25.6 74.6 25.6 74.6l36-10.8c0 0-23.8-112-39.9-123.5h98.4q2.8 0 5.5-0.3c-16.9-2.2-43.3-12.7-67.8-23.1-21.7-9.3-41.9-18.5-52.9-22-13.4 5.7-28.4 11.5-27.3 22.8z"/>
					<path id="&lt;Path&gt;" class="s23" d="m1052.2 716.3c11 3.6 31.2 12.7 52.9 22 24.5 10.4 50.9 20.9 67.8 23.1 28.6-3.8 39.3-37.9 9.5-77.1-19.4 0-38.9 18.5-38.9 18.5 0 0-58.6-0.3-91.3 13.5z"/>
					<path id="&lt;Path&gt;" class="s13" d="m972 836.8l23.8 14.4c0 0 19.9-41.7 38.9-88.7-1.9-7-3.2-14.1-3.9-21.3-1.1-11.3 7.9-19.3 21.3-24.9 11 3.6 31.3 12.8 52.9 22 24.5 10.5 50.9 20.9 67.9 23.1q2.9 0.4 5.8 0.4c32.6 0 43.8-28.5 30.7-77-19.4 0-52.6-2-52.6-2 0 0-64-15.4-110.1-10.2-22.4 2.6-40.6 19.5-44.9 41.6-11.9 58.8-29.8 122.6-29.8 122.6z"/>
					<path id="&lt;Path&gt;" class="s13" d="m968.3 838.6l27.5 12.6c0 0 19.9-41.7 38.9-88.7-1.9-7-3.2-14.1-3.9-21.3-1.1-11.3 7.9-19.3 21.3-24.9 11 3.6 31.3 12.8 52.9 22 24.5 10.5 50.9 20.9 67.9 23.1q2.9 0.4 5.8 0.4c32.6 0 43.8-28.5 30.7-77-19.4 0-52.6-2-52.6-2 0 0-64-15.4-110.1-10.2-22.4 2.6-40.6 19.5-44.9 41.6-11.9 58.8-33.5 124.4-33.5 124.4z"/>
				</g>
				<path id="&lt;Path&gt;" class="s11" d="m1024.9 739c0.7 7.2 2.3 17 4.1 24 5.1 19.7 11 38.7 18.3 58.3 14.2 38.7 25.6 74.6 25.6 74.6l36-10.8c0 0-23.8-112-39.9-123.5h98.4q2.8 0 5.5-0.3c-16.9-2.2-43.3-12.7-67.8-23.1-21.7-9.3-41.9-18.5-52.9-22-13.4 5.7-28.4 11.5-27.3 22.8z"/>
			</g>
			<g id="&lt;Group&gt;">
				<path id="&lt;Path&gt;" class="s8" d="m1136.3 532.7l10.9-8.9 31.1-2.1c0 0 7.8 6.4 8.2 6.5 0.4 0.1 4.9 1.9 4.9 1.9l-3 7.6z"/>
				<path id="&lt;Path&gt;" class="s20" d="m1106.5 577.4c0 0-16.3 51.4-17.9 54.3-5.3 9.6-40.8 26-40.8 26l-18.1-3.8-13 10.8 8.5 6.7 10.1-3.8c5.4 1 11 1.5 16.6 1.5 9.3 0 54.4-11.5 61.9-24 7.6-12.6 11-70.8 11-70.8z"/>
				<g id="freepik--group--inject-39">
					<path id="&lt;Path&gt;" class="s8" d="m1211.8 694.7l-108.6-16.3c1.6-70.5 17.7-144.2 17.7-144.2 31.3-3.5 62.9-3.7 94.3-0.5-14.6 45.2-3.4 161-3.4 161z"/>
					<path id="&lt;Path&gt;" class="s16" d="m1202.6 693.5l-99.4-15.1c1.6-70.5 17.7-144.2 17.7-144.2 31.3-3.5 62.9-3.7 94.3-0.5-14.6 45.2-12.6 159.8-12.6 159.8z"/>
					<path id="&lt;Path&gt;" class="s8" d="m1215.2 533.7c-5.9 51.1 9.4 159.8 9.4 159.8-6.9 14.7-25.3 17.5-47 16.7-19.5-84 8.4-182 8.4-182z"/>
					<path id="&lt;Path&gt;" class="s8" d="m1120.9 534.1c-14.5 38.2-23.2 143.1-23.2 143.1l8.7 2c11.2-126.6 35.3-149.5 35.3-149.5z"/>
					<g id="&lt;Group&gt;">
						<path id="&lt;Path&gt;" class="s8" d="m1130.9 578.7l1-14.5c0-0.8 0.6-1.4 1.4-1.4l35.5 1.1q0 0 0.1 0c0.7 0.1 1.3 0.8 1.2 1.7l-0.7 14.9-0.8 15q0 0 0 0c0 0.9-0.6 1.6-1.4 1.5l-36.1-2.5q0 0 0 0c-0.7-0.1-1.3-0.8-1.2-1.7z"/>
						<path id="&lt;Path&gt;" class="s24" d="m1130.9 578.7l1-14.5c0-0.8 0.6-1.4 1.4-1.4l35.5 1.1q0 0 0.1 0c0.7 0.1 1.3 0.8 1.2 1.7l-0.7 14.9-0.8 15q0 0 0 0c0 0.9-0.6 1.6-1.4 1.5l-36.1-2.5q0 0 0 0c-0.7-0.1-1.3-0.8-1.2-1.7z"/>
						<path id="&lt;Path&gt;" class="s25" d="m1130.9 578.7c6.1 1.5 17.1 4.1 17.3 3.3 0.3-1.2 0.1-5.8 0.8-7.1 0.7-1.3 6.7 12.2 8.7 10.3 2-2 0.1-16.5 4.1-16.6 2.1-0.1 5.3 6.2 7.6 11.9l-0.8 15q0 0 0 0c0 0.9-0.6 1.6-1.4 1.5l-36.1-2.5q0 0 0 0c-0.7-0.1-1.3-0.8-1.2-1.7z"/>
					</g>
					<path id="&lt;Path&gt;" class="s8" d="m1081.3 604.9l21.9 6.1h1.7l7.7-40 8.3-36.7c-20.7 2.8-39.6 70.6-39.6 70.6z"/>
					<path id="&lt;Path&gt;" class="s8" d="m1178.3 521.9l1.9 32.3 6.3-26z"/>
				</g>
			</g>
			<g id="&lt;Group&gt;">
				<g id="&lt;Group&gt;">
					<path id="&lt;Path&gt;" class="s13" d="m1073.9 672.8h32.7 34.7q0 0 0 0c0 2.6-2.9 4.6-6.4 4.6h-34.7-19.8q0 0-0.1 0 0 0 0 0h-55.2c-3.5 0-6.3-2.1-6.3-4.6z"/>
				</g>
				<path id="&lt;Path&gt;" class="s13" d="m1024.1 677.2h61.6c1.1-0.1 1.9-0.8 1.9-1.6q0-0.2-0.1-0.5l-27.4-62.8c-0.7-1.8-2.7-3-5.1-3h-61.6c-1 0-1.9 0.7-1.9 1.5q0 0.3 0.2 0.5l27.3 62.8c0.7 1.8 2.8 3 5.1 3.1z"/>
				<path id="&lt;Path&gt;" class="s19" d="m993.4 609.3h61.6c2.4 0 4.4 1.2 5.1 3l26.4 60.5h20.1 34.7q0 0 0 0c0 2.6-2.9 4.6-6.4 4.6h-34.7-19.8q0 0-0.1 0 0 0 0 0h-55.2c-1.1 0-2.1-0.2-3-0.6-1.4-0.5-2.6-1.4-3.1-2.7l-27.3-62.8q-0.2-0.2-0.2-0.5c0-0.8 0.9-1.5 1.9-1.5z"/>
				<path id="&lt;Path&gt;" class="s10" d="m1030.4 642.7c1.4 3.1 4 5.1 6.1 4.7 2-0.4 2.5-3.2 1.2-6.2-1.3-3-4-5-6-4.6-2 0.4-2.6 3-1.3 6.1z"/>
				<g id="&lt;Group&gt;" style="opacity: .3">
					<path id="&lt;Path&gt;" class="s26" d="m1087.6 672.8h-1.1"/>
					<path id="&lt;Path&gt;" class="s27" d="m1060.1 612.3l26.4 60.5h-2.9l-28.6-63.5c2.4 0 4.4 1.2 5.1 3z"/>
				</g>
			</g>
			<g id="&lt;Group&gt;">
				<g id="&lt;Group&gt;">
					<path id="&lt;Path&gt;" class="s20" d="m1199.5 567.9c0 0-4.3 63.2-9.4 68.6-8.6 9.3-55.7 29.3-55.7 29.3l-21.3-7.4c-1.5-0.5-3.1-0.2-4.3 0.7l-14.6 11.1 1.4 1.2c0.6 0.5 1.5 0.6 2.2 0.2l2.3-1.1-2.6 2.5 0.8 0.6c0.8 0.7 1.9 1 3 0.7l6.5-1.8-6 4c1.3 1.2 3.2 1.6 4.9 1.1l9.5-2.7c6.5 1.4 13.1 2.4 19.7 2.8 11.2 0.7 66.9-9.5 76.8-23.1 9.8-13.5 17.1-77.9 17.1-77.9z"/>
				</g>
				<path id="&lt;Path&gt;" class="s8" d="m1215.2 533.7c0 0 17.8 2.3 17.7 21.3-0.1 16.4-6 59.1-6 59.1l-37.6-7.1 8.3-47.2c1.9-10.8 8.3-20.3 17.6-26.1z"/>
			</g>
			<g id="&lt;Group&gt;">
				<g id="&lt;Group&gt;">
					<path id="&lt;Path&gt;" class="s13" d="m1132.3 453c0.8-1-1.3-22.7 36-11.9 27.7 8 17.3 29.8 17.3 29.8l-31.7-22.9z"/>
					<path id="&lt;Path&gt;" class="s20" d="m1177.5 532c-2.7-1.6-3.1-2.9-4-5.7-2.3-7.5 0.2-32.8 0.2-32.8l-27.7 11.4c0 0 0.2 0.6 0.5 1.7 0.9 2.9 2.7 9.1 3.2 14.4 0.4 3.2 0.2 6.1-0.9 7.5-1.1 1.5-4.4 3.6-6.5 4.3 0 0 3.5 7.5 15.9 6.6 12.4-1 19.3-7.4 19.3-7.4z"/>
					<path id="&lt;Path&gt;" class="s11" d="m1169.1 507.5c0 0-5.9 12.3-19.6 11.9-0.6-5.2-2.3-11.5-3.2-14.4 1-0.4 1.7-0.6 1.7-0.6z"/>
					<path id="&lt;Path&gt;" class="s13" d="m1133.8 448.5c0 0-8 22.8 2.7 34.2 10.8 11.5 19.1-32.2 19.1-32.2z"/>
					<path id="&lt;Path&gt;" class="s20" d="m1169.1 508.3c-8.4 6.4-18 7.9-26 3.6-5.2-2.8-9.4-7.5-11.5-13.6q-0.4-1.2-0.6-2.5c-3.4-15.5-0.6-41 16.4-47.5 12-4.7 25.7 1.3 30.4 13.3 1.4 3.5 1.9 7.2 1.5 10.9-1.3 17.1-0.3 28.4-10.2 35.8z"/>
					<path id="&lt;Path&gt;" class="s13" d="m1153.3 477.7c0.1 1.8-1 3.3-2.2 3.2-1.2 0-2.1-1.5-2.1-3.3 0-1.8 1-3.2 2.2-3.2 1.2 0 2.1 1.5 2.1 3.3z"/>
					<path id="&lt;Path&gt;" class="s13" d="m1137.5 477.7c0.1 1.8-1 3.2-2.2 3.2-1.1 0-2.1-1.5-2-3.3 0-1.8 1-3.2 2.2-3.2 1.1 0 2.1 1.6 2 3.3z"/>
					<path id="&lt;Path&gt;" class="s28" d="m1142.4 477.2c-1.8 4.3-4.1 8.3-7 11.9 2 1.4 4.4 1.9 6.7 1.4z"/>
					<path id="&lt;Path&gt;" class="s13" d="m1131.6 469.6c0.3 0.1 0.6 0.1 0.9 0 1.8-1.1 3.9-1.4 5.9-0.6 0.4 0.2 0.9 0 1.1-0.4 0.2-0.4 0-0.9-0.4-1.1q0 0 0 0c-2.4-1-5.2-0.7-7.4 0.7-0.4 0.2-0.6 0.7-0.4 1.1q0 0 0 0 0.2 0.2 0.3 0.3z"/>
					<path id="&lt;Path&gt;" class="s13" d="m1156.4 470.5q0.3 0 0.5-0.2c0.3-0.3 0.3-0.8-0.1-1.1q0 0 0 0c-1.9-1.8-4.6-2.6-7.2-2-0.4 0.1-0.7 0.5-0.6 1 0.1 0.4 0.6 0.7 1 0.5 2.1-0.3 4.2 0.3 5.7 1.7 0.2 0.1 0.5 0.2 0.7 0.1z"/>
					<path id="&lt;Path&gt;" class="s13" d="m1167.2 450.8l-1.5 7.5c2.4 1.5 3.7 4.4 2.4 7.3-2.9 6.2 0 16.3 4.7 20.5 0 0 0.3-2.7 2.6-1.9 2.2 0.8 0.1 12.3-2.4 19.4 0 0 5.3-3.5 10.2-18.3 4.5-13.7 5.8-25.2 3.3-30.8z"/>
					<path id="&lt;Path&gt;" class="s24" d="m1167.2 450.8l-1.5 7.5c2.4 1.5 3.7 4.4 2.4 7.3-2.9 6.2 0 16.3 4.7 20.5 0 0 0.3-2.7 2.6-1.9 2.2 0.8 0.1 12.3-2.4 19.4 0 0 5.3-3.5 10.2-18.3 4.5-13.7 5.8-25.2 3.3-30.8z"/>
					<path id="&lt;Path&gt;" class="s20" d="m1186.6 486.7c-2 3.8-5.5 6.8-9.6 8.1-5.4 1.7-8.4-3.2-7-8.4 1.2-4.7 5.6-11.4 11.1-10.7 5.6 0.6 7.8 6.2 5.5 11z"/>
					<path id="&lt;Path&gt;" class="s29" d="m1173.7 487.6c0.5-2.9 2.4-5.5 4.9-6.9 1.1-0.6 2.6-1 3.5-0.2"/>
					<g id="&lt;Group&gt;">
						<path id="&lt;Path&gt;" class="s13" d="m1127.8 454.7c-3.2 0.8-6.7-0.3-8.9-2.6 4.4-0.3 8.8-1.7 12.7-3.9-3.9 1-8.3 0-11.4-2.7 5.9-0.9 11.4-3.8 17-5.8 12.5-4.5 26.7-4.9 39.1-0.1 2.9 1.1 5.8 2.6 7.8 5.1 1.9 2.4 4 7.1 2.4 9.8l-20.3 0.9c-3.2-6-8.3-3.9-15.7 0.5-3 1.8-9.8 5.2-13.2 6-4.3 1.1-7.7 1.6-10.3 1.5-4.6-0.2-6.4-1.6-9.2-3.7 4.1-1.5 6.8-2 10-5z"/>
					</g>
				</g>
				<g id="&lt;Group&gt;">
					<path id="&lt;Path&gt;" class="s13" d="m1148.5 492.9c3.2-0.9 6.2-2.5 8.8-4.7q0.4 0.7 0.6 1.6c0.3 1 0.3 2.1 0 3.1-0.5 2-2.2 4.3-7 5.7q-0.6 0.1-1.1 0.3-1.3-2.9-3.1-5.5c0 0 0.7-0.2 1.8-0.5z"/>
					<path id="&lt;Path&gt;" class="s10" d="m1157.2 488.2q0.5 0.7 0.7 1.6c-1.1 1.8-4.1 3.3-8.6 4.7l-0.9-1.6c3.2-0.9 6.3-2.5 8.8-4.7z"/>
					<path id="&lt;Path&gt;" class="s30" d="m1152.9 495.5c1.5-1.2 3.2-2.1 5-2.6-0.5 2-2.2 4.3-7 5.7 0.3-1.3 1-2.3 2-3.1z"/>
				</g>
			</g>
		</g>
	</g>
	<g id="Character 2">
		<g id="freepik--character-1--inject-2 00000169534973332008825670000001233928088400013704 ">
			<g id="&lt;Group&gt;">
				<path id="&lt;Compound Path&gt;" fill-rule="evenodd" class="s15" d="m900.3 448.4c-0.4 2.3-6.5 8.1-8.6 10.5q0 0-0.1 0l5.3 5.5c2.1 2.2 2.3 5.7 0.4 8.1l-5.4 7.3c0 0-5 9.5-11.3 11.8-6.5 10.7-37.2 60.5-50.5 56.4-8.7-2.7-19.9-27.6-27.6-47.7l-4.5 1.6-1-2.8 1.4-0.5-2.4-4.3-4.1-7.6q-6.5 15.5-13.7 30.6c-5.1 10.9-8.1 23.9-10 35.5-0.3 1.9-0.6 3.9-0.8 5.7-0.6 4.4-1 8.5-1.3 12q-0.1 1.2-0.2 2.3c-0.4 6-0.4 9.7-0.4 9.8 0 0 0 0.1 0 0.1q-0.5 0-0.9 0l0.9 5.1q-1 0-1.9 0c3.3 22.7 7 52.3 9.7 86.2h-46.1c-1.6-14.7-3.6-32.5-3.6-32.5h0.1c0 0-0.1-0.1-0.1-0.2-0.7 9.5-1.6 20.7-2.6 32.7h-55q0-0.3 0-0.5l-87.9-14c-5.7-0.9-9.6-6.3-8.7-12l9.6-60.9c1-5.7 6.3-9.6 12.1-8.7l34.9 5.5c0.2-3.8 0.8-10.6 0.8-12.1 0-3.6 2.5-8.6 2.5-8.6 0 0-0.2-80.2 5.3-88.2 2.2-3.1 11.2-12 21.5-21.6l-0.1-0.1c0 0 21.3-20.9 34.2-32.9 8.4-8.1 19-13.4 30.4-15.5q1.5-0.5 3.2-0.9 0.7-0.2 1.4-0.3 0.2-0.1 0.5-0.1c7.8-1.7 17.9-2.2 32.5-1.6 3.9-4.1 7.2-10 10-16.1-1.3-2.2-2.6-5.1-3.7-8.4-1.4-1.6-2.4-3.5-3.1-5.5-0.3-1-0.5-2-0.5-2.9 0.1-1.4 0.5-2.7 1.2-3.7-0.8-6.5-1-11.8-0.6-16.2-0.8-0.5-6-4-6.2-9-0.3-5.4 10.2-6.4 10.2-6.4 0-6.3 4.5-11.8 10.7-13 8.9-2.2 16.6 5.2 16.6 5.2 0 0 6.1-5.7 12.3-3.4 6.1 2.3 8.9 9.8 8.9 9.8 0 0 9.3 1.1 9.9 7.8 0.2 4.3-1.5 8.5-4.7 11.4 0 3.1-0.1 6.7-0.9 10.4 3.3 1.2 5.5 4.4 5.3 8.1-0.5 3.4-3.3 6-6.6 6.4-0.7 5-1.8 9.6-3.1 13-0.3 0.8-0.7 1.6-1.1 2.3-2.8 5.4-7.5 9.5-13.2 11.5-5.5 2-11.3 1.7-16.4-0.7q-0.7 1.7-1.2 3.5c12.3 4.2 23.3 11.6 32 21.6 4.6 5 17.1 50.7 19.2 58.6l1.2-0.5 1.1 3.2-6.5 2.3c3.6 10.7 7.4 21.8 8.2 22.3 1.2 0.8 22.2-18.9 31.9-28.5l4.3-15.3c0.7-1.6 1.7-3.1 2.9-4.3l2.1-2.1c0.6-0.6 1.4-1.4 2.3-2.3l1.8-1.8q0.4-0.3 0.7-0.6c1.9-1.8 3.9-3.6 5.2-5 3.1-3.2 7.4-6.8 8.7-8 1.3-1.2 3.6 0.9 3.2 3.2zm-218.4 26.9c-1.9 1.2-3.9 2.5-5.9 3.7l-1-1.3-14.5 11.8-16 76.6 10.3 20.5-5-0.8q-0.5 0.6-1.1 1.2l18.5 3q0-5.1 0.1-9.6c-2.8-0.3-4.4-0.5-4.4-0.5l1.5-8q-0.8-0.2-1.5-0.4c0 0 5.9-36.5 14.1-74.4q0.2-1 0.4-2 0.9-3.9 1.8-7.9 1.3-6 2.7-11.9z"/>
			</g>
			<g id="&lt;Group&gt;">
				<path id="&lt;Path&gt;" class="s31" d="m739.4 925.2l18-1.6 3.4-38.8-24 3.2z"/>
				<g id="&lt;Group&gt;">
					<g id="&lt;Group&gt;">
						<path id="&lt;Path&gt;" class="s13" d="m759.9 911.5h-6.3c-1.4 0-2.7 0.7-3.6 1.9-3.6 4.9-6.3 3-10.2-1.6-2.5-0.3-3.2 2.6-3.4 3.3l-4.7 17.1c-0.4 1.4 0.4 2.9 1.8 3.3q0.4 0.1 0.8 0.1c7.6 0 11.2 0 20.7 0h29c7.9 0 9.5-7.9 6.3-8.7-14.7-3.2-25-7.5-29.6-11.8-0.8-0.7 0.1-1.3-0.8-3.6z"/>
						<path id="&lt;Compound Path&gt;" fill-rule="evenodd" class="s8" d="m769.2 917.3q-3-0.1-5.9-0.7c-0.2-0.1-0.2-0.3-0.2-0.5q0.1-0.1 0.2-0.2c0.9-0.4 8.7-4.1 10.7-2.7 0.4 0.2 0.6 0.7 0.5 1.1 0 0.8-0.4 1.6-1 2.1-1.3 0.7-2.8 1.1-4.3 0.9zm-4.6-1.2c2.3 0.4 6.6 1 8.3-0.3 0.5-0.4 0.8-0.9 0.8-1.5 0.1-0.2 0-0.4-0.2-0.5-1.1-0.8-5.7 0.9-8.9 2.3z"/>
						<path id="&lt;Compound Path&gt;" fill-rule="evenodd" class="s8" d="m763.4 916.6q-0.1 0-0.2 0c-0.1-0.1-0.2-0.3-0.1-0.4 0-0.3 1.8-8 6.1-7.5 1.1 0.1 1.4 0.6 1.4 1 0.3 2.1-4.7 6-7 6.9zm5.4-7.3c-2.8 0-4.3 4.5-4.9 6.3 2.6-1.3 6.2-4.5 5.9-5.8 0-0.1 0-0.4-0.8-0.4z"/>
						<path id="&lt;Path&gt;" class="s14" d="m764.2 916.3c-2.2 0.3-4.2 1.6-5.3 3.5"/>
						<path id="&lt;Path&gt;" class="s14" d="m768.1 919.3c-2.2 0.3-4.2 1.6-5.3 3.4"/>
						<path id="&lt;Path&gt;" class="s14" d="m772.9 921.7c-2.1 0.3-4.1 1.6-5.3 3.5"/>
					</g>
				</g>
			</g>
			<g id="&lt;Group&gt;">
				<path id="&lt;Path&gt;" class="s31" d="m651.1 925.4h17l8.4-39.4h-24.3z"/>
				<g id="&lt;Group&gt;">
					<g id="&lt;Group&gt;">
						<path id="&lt;Path&gt;" class="s13" d="m671.8 914h-6.3c-1.4 0-2.7 0.7-3.6 1.8-3.6 5-6.3 3.1-10.2-1.5-2.5-0.3-3.2 2.5-3.4 3.3l-4.7 17.1c-0.4 1.4 0.4 2.9 1.8 3.3q0.4 0.1 0.8 0.1c7.6 0 11.2 0 20.7 0h29c7.9 0 9.5-8 6.3-8.7-14.7-3.3-25-7.6-29.6-11.8-0.8-0.8 0.1-1.3-0.8-3.6z"/>
						<path id="&lt;Compound Path&gt;" fill-rule="evenodd" class="s8" d="m681.1 919.8q-3-0.1-5.9-0.8c-0.1 0-0.2-0.2-0.2-0.4q0.1-0.2 0.2-0.2c0.9-0.5 8.8-4.1 10.7-2.7 0.4 0.2 0.6 0.6 0.5 1.1 0 0.8-0.4 1.5-1 2-1.3 0.8-2.8 1.1-4.3 1zm-4.6-1.2c2.3 0.4 6.6 1 8.4-0.4 0.4-0.3 0.7-0.9 0.7-1.5 0.1-0.2 0-0.3-0.2-0.4-1.1-0.8-5.7 0.8-8.9 2.3z"/>
						<path id="&lt;Compound Path&gt;" fill-rule="evenodd" class="s8" d="m675.3 919q-0.1 0.1-0.2 0c-0.1 0-0.2-0.2-0.1-0.3 0-0.4 1.8-8.1 6.1-7.6 1.1 0.2 1.4 0.7 1.4 1.1 0.3 2.1-4.6 5.9-7 6.9zm5.4-7.3c-2.8 0-4.3 4.5-4.9 6.3 2.6-1.3 6.2-4.6 5.9-5.8 0-0.1 0-0.4-0.8-0.5z"/>
						<path id="&lt;Path&gt;" class="s14" d="m676.1 918.8c-2.1 0.3-4.1 1.6-5.3 3.4"/>
						<path id="&lt;Path&gt;" class="s14" d="m680 921.7c-2.2 0.3-4.2 1.6-5.3 3.5"/>
						<path id="&lt;Path&gt;" class="s14" d="m684.9 924.2c-2.2 0.3-4.2 1.6-5.4 3.4"/>
					</g>
				</g>
			</g>
			<g id="&lt;Group&gt;">
				<path id="&lt;Path&gt;" class="s13" d="m657.5 539.4h90.4c5.4 29.5 17.6 106.1 19.1 195.8 1.1 61.5 2.6 161.1 0 166.4l-36 0.1c0 0-1.5-76.9-6.3-153.2-2.7-44-10.1-118.4-11.1-121-3.1 38.8-8.4 108.7-11.5 130.7-7.9 54.2-17.2 144.4-17.2 144.4h-37.6c0 0 2.9-96.3 5.8-149.5 3.3-57.8 4.4-201.9 4.4-213.7z"/>
				<path id="&lt;Path&gt;" class="s25" d="m713.7 627.7c0 0 3.6 32.9 4.9 46.3 2.6-34.5 5.1-59.2 5.1-59.2z"/>
			</g>
			<path id="&lt;Path&gt;" class="s31" d="m864 465.7c-1.1 1.9-35.2 34.5-36.8 33.6-1.6-1-14.5-42-14.5-42l-29.3 3.2c0 0 21.8 69 36.7 73.6 15 4.6 51.7-58.4 51.7-58.4"/>
			<g id="&lt;Group&gt;">
				<path id="&lt;Path&gt;" class="s8" d="m655 555.1l-2.1 10.9c0 0 63.3 8.2 102.6 8l-1.4-7.5z"/>
				<path id="&lt;Path&gt;" class="s8" d="m770.9 452.6l2.7 4.9 12.5 23 2.5 4.7 35-12.1c0 0-14.6-54.2-19.6-59.8z"/>
				<path id="&lt;Path&gt;" class="s24" d="m770.9 452.6l2.7 4.9 12.5 23 2.5 4.7 35-12.1c0 0-14.6-54.2-19.6-59.8z"/>
				<path id="&lt;Path&gt;" class="s25" d="m773.6 457.5l12.5 23c7.7-15.1 5.4-35.8 5.4-35.8z"/>
				<path id="&lt;Path&gt;" class="s8" d="m804 413.3c-13.3-15.3-32.3-24.6-52.6-25.5-34.2-1.6-45 1.8-57.5 13-18.3 16.3-41 156.9-41 156.9 33.4 9.2 68 13 102.6 11.1 0 0 0.4-39.1 12.8-65.3 13.9-29.2 25.8-59.4 35.7-90.2z"/>
				<path id="&lt;Compound Path&gt;" fill-rule="evenodd" class="s24" d="m654.1 550.6c1.1-6.5 3-16.9 5.3-29.3 1.6-8.6 3.5-18.3 5.5-28.2q1.2-5.9 2.5-11.9 0.9-3.9 1.8-7.8c2-9.2 4.2-18.3 6.5-26.8l1.5-5.6c2.7-10.4 6.2-20.6 10.5-30.5 1.3-3.6 3.4-6.8 6-9.7q4.1-3.8 9-6.7c10-5.8 22.4-7.5 48.5-6.2h1.1c18 1.1 35 8.7 47.8 21.3q2 2 3.7 4.1c0 0-0.7 2.3-2.1 6.6-1.1 3.2-2.6 7.5-4.4 12.8-1.7 4.7-3.8 10.2-6.1 16.3-3.2 8.6-7.1 18.4-11.7 29.1-2.1 5-4.5 10.3-6.9 15.8q-2.2 4.7-4.5 9.6c-2.7 5.9-4.9 12.2-6.5 18.6-0.7 2.7-1.3 5.4-1.9 8.1-0.9 5-1.7 10-2.3 14.4-0.6 4.4-1 8.5-1.2 12-0.7 7.4-0.7 12.2-0.7 12.2-34.6 1.9-69.2-1.9-102.6-11.1 0 0 0.4-2.6 1.2-7.1zm99.3-161.4c-8.4-0.3-17.3 0.6-16.6 3.2 0.6 2.3 6.1 9 13.7 14.1 4 2.7 8.5 4.6 13.3 5.5 13.7 2.2 19.1-6.7 19.5-10.2 0.3-3.5-13.8-10.9-23-12.2q-3.5-0.4-6.9-0.5z"/>
				<path id="&lt;Path&gt;" class="s25" d="m667.4 481.3c21.7-9 38.9-46.2 38.9-46.2l-12.3-7.5-16.8 13.5-1.5 5.5c-2.3 8.6-4.5 17.7-6.5 26.9q-0.9 3.9-1.8 7.8z"/>
				<path id="&lt;Path&gt;" class="s8" d="m787 485.2l37.4-13.7 1.1 3.2-37.5 13.3z"/>
				<path id="&lt;Path&gt;" class="s8" d="m581.1 564l111.6 17.7c5.7 0.9 9.6 6.3 8.7 12.1l-9.6 60.8c-0.9 5.8-6.3 9.7-12.1 8.8l-111.5-17.7c-5.8-0.9-9.7-6.3-8.8-12.1l9.7-60.8c0.9-5.8 6.3-9.7 12-8.8z"/>
				<path id="&lt;Path&gt;" class="s32" d="m619.9 598.2l-22 11.4 17.4 17.7"/>
				<path id="&lt;Path&gt;" class="s32" d="m641 631.3l22-11.4-17.4-17.7"/>
				<path id="&lt;Path&gt;" class="s32" d="m623 628.5l14.9-27.5"/>
				<path id="&lt;Path&gt;" class="s31" d="m681 406.8c0 0-50.8 45.9-56.3 53.9-5.6 7.9-5.3 88.1-5.3 88.1 0 0-2.5 5.1-2.6 8.7 0 1.9-1.1 13.5-0.7 14.7 0 0 6.8 18.8 23.8-0.3l4.9 0.8-10.3-20.5 16-76.6 39.8-32.2z"/>
				<path id="&lt;Path&gt;" class="s8" d="m712.4 390.2c6 12.7 1.4 39.2-9.6 48.6-11.6 9.7-23.9 18.5-36.7 26.4l-20.1-26.3c0 0 21.3-20.8 34.3-32.8 8.7-8.5 20-14.1 32.1-15.9z"/>
				<path id="&lt;Path&gt;" class="s24" d="m712.4 390.2c6 12.7 1.4 39.2-9.6 48.6-11.6 9.7-23.9 18.5-36.7 26.4l-20.1-26.3c0 0 21.3-20.8 34.3-32.8 8.7-8.5 20-14.1 32.1-15.9z"/>
			</g>
			<g id="&lt;Group&gt;">
				<path id="&lt;Path&gt;" class="s31" d="m741.4 392.6c3.7 10.5 17.4 15.4 24.6 16.1 5.5 0.8 10.9-2.1 13.2-7.1 0 0-8.3-4.1-7.5-8.8 0.6-2.8 1.8-5.5 3.4-7.8q1.3-2 2.8-3.9l-13.2-28.4c-2.9 12.3-12 35.9-23.3 39.9z"/>
				<path id="&lt;Path&gt;" class="s25" d="m764.2 365.8c-6.3 13.8 2.6 23.3 7.5 26.9 0.6-2.8 1.8-5.5 3.4-7.8z"/>
				<path id="&lt;Path&gt;" class="s31" d="m808.5 329c0 0 4.2 23.4-7.9 32.7-12.2 9.4-13.5-34.3-13.5-34.3z"/>
				<path id="&lt;Path&gt;" class="s33" d="m808.5 329c0 0 4.2 23.4-7.9 32.7-12.2 9.4-13.5-34.3-13.5-34.3z"/>
				<path id="&lt;Path&gt;" class="s31" d="m764.9 381.4c5.6 7.8 15.7 10.9 24.7 7.6 5.7-2.1 10.5-6.2 13.2-11.5 0.4-0.8 0.8-1.5 1.1-2.3 5.7-14.5 6.9-50-8.4-48.6-12.7 1-25.2-2.9-31.6 8.1-1.9 3.1-3 6.6-3.2 10.2-1.4 17-3 26.8 4.2 36.5z"/>
				<path id="&lt;Path&gt;" class="s13" d="m785.4 353.3c-0.3 1.3 0.3 2.6 1.2 2.7 0.9 0.1 1.8-0.9 2-2.3 0.2-1.4-0.4-2.5-1.3-2.7-0.8-0.1-1.7 0.9-1.9 2.3z"/>
				<path id="&lt;Path&gt;" class="s13" d="m800.7 355.5c-0.2 1.3 0.4 2.6 1.3 2.7 0.9 0.1 1.8-0.9 2-2.3 0.1-1.4-0.4-2.6-1.3-2.7-0.9-0.1-1.8 1-2 2.3z"/>
				<path id="&lt;Path&gt;" class="s34" d="m795.8 355.5c1 4.4 2.6 8.6 4.8 12.5-2.1 1.1-4.5 1.2-6.7 0.3z"/>
				<path id="&lt;Path&gt;" class="s13" d="m781.3 347.7c0.3 0 0.6 0 0.8-0.2 1.4-1.5 3.5-2.2 5.5-2 0.5 0.1 0.9-0.2 1-0.6 0.1-0.4-0.2-0.8-0.6-0.9q0 0 0 0c-2.6-0.4-5.1 0.4-6.9 2.3-0.3 0.3-0.3 0.8 0 1.1q0.1 0.1 0.2 0.3z"/>
				<path id="&lt;Path&gt;" class="s13" d="m808.1 351.1q0.2 0.1 0.5 0c0.4-0.1 0.6-0.5 0.5-0.9q0 0 0-0.1c-0.8-2.4-2.7-4.4-5.1-5.2-0.4-0.2-0.9 0.1-1 0.5q0 0 0 0c-0.1 0.4 0.1 0.9 0.5 1 2 0.7 3.5 2.3 4 4.2 0.1 0.3 0.3 0.5 0.6 0.5z"/>
				<path id="&lt;Path&gt;" class="s35" d="m783.2 368.9c0 0 2.9 6.1 8.6 5.9"/>
				<path id="&lt;Path&gt;" class="s31" d="m775.9 326l0.2 7.4c-2.7 1-4.2 4-3.4 6.7 1.8 6.5-2.7 15.8-7.8 19.2 0 0 0-2.7-2.3-2.3-2.3 0.4-3 14.5 0.8 21.7 0 0-8.1-7.5-10.5-22.6-2.3-14-1.9-22.8 0-29.5z"/>
				<path id="&lt;Path&gt;" class="s33" d="m775.9 326l0.2 7.4c-2.7 1-4.2 4-3.4 6.7 1.8 6.5-2.7 15.8-7.8 19.2 0 0 0-2.7-2.3-2.3-2.3 0.4-3 14.5 0.8 21.7 0 0-8.1-7.5-10.5-22.6-2.3-14-1.9-22.8 0-29.5z"/>
				<path id="&lt;Path&gt;" class="s13" d="m751.6 334.9c8.2 0.8 16.5 0.3 24.5-1.5 23.2-4.5 33 4 33 4 3.3-3 5-7.2 4.8-11.5-0.6-6.7-9.9-7.8-9.9-7.8 0 0-2.8-7.6-8.9-9.8-6.2-2.3-12.3 3.4-12.3 3.4 0 0-7.7-7.4-16.6-5.3-6.2 1.3-10.6 6.7-10.7 13 0 0-10.4 1.1-10.2 6.5 0.2 5.3 6.3 9 6.3 9z"/>
				<path id="&lt;Path&gt;" class="s35" d="m787.2 345.8c4.1 0 7.5 3.9 7.5 8.6 0 4.8-3.4 8.7-7.5 8.7-4.2 0-7.6-3.9-7.6-8.7 0-4.7 3.4-8.6 7.6-8.6z"/>
				<path id="&lt;Path&gt;" class="s35" d="m813.6 355.7c-0.6 4.2-4.5 7.1-8.6 6.5-4.2-0.6-7-4.5-6.4-8.6 0.5-3.8 3.7-6.5 7.5-6.5 4.4 0.3 7.8 4.2 7.5 8.6z"/>
				<path id="&lt;Path&gt;" class="s35" d="m794.6 355.5c0 0 2.5-1.5 3.9 0.2"/>
				<path id="&lt;Path&gt;" class="s35" d="m779.6 354.4l-13.1-1.7c-1.8-0.3-3.5 0.2-4.9 1.3l-0.6 0.4"/>
				<path id="&lt;Path&gt;" class="s31" d="m751.4 357.6c1.4 4.1 4.2 7.4 8 9.4 5.1 2.5 8.6-1.8 8.1-7.1-0.4-4.7-3.6-11.8-9.2-12.1-3.9-0.2-7.2 2.9-7.4 6.9 0 1 0.2 2 0.5 2.9z"/>
			</g>
			<path id="&lt;Path&gt;" class="s31" d="m890.3 434.6c0.4-2.3-1.8-4.4-3.2-3.3-1.3 1.2-5.6 4.8-8.7 8.1-1.3 1.3-3.3 3.2-5.1 4.9q-0.4 0.3-0.8 0.6l-1.8 1.8c-0.9 0.9-1.7 1.7-2.3 2.3l-2.1 2.1c-1.2 1.3-2.2 2.8-2.9 4.4l-4.3 15.7 6.7 6.7c8.5 2.8 16.1-12 16.1-12l5.5-7.2c1.8-2.5 1.6-5.9-0.5-8.1l-5.3-5.5q0.1 0 0.1-0.1c2.1-2.4 8.2-8.2 8.6-10.4z"/>
		</g>
	</g>
	<g id="Character 1">
		<path id="&lt;Path&gt;" class="s15" d="m568.4 365.6h-1.2v-10.2h-65v10.2h-0.1c-2.5 0-4.5 2-4.5 4.5v8.6c0 2.5 2 4.5 4.5 4.5h30.1c1.4 0 2.6 1.2 2.6 2.7v11.9h-7.3v10.2c-3.4 1.6-6.2 2.9-6.9 3.4-2.1 1.5-3.7 8.3-3.7 8.3l-3.3 5c-1-0.6-1.6-0.8-1.6-0.8l-34 46.5c-20.7-12.9-42.5-24.1-65.1-33.6-12.6 25.2 1.2 59.8 1.2 59.8 0 0 47.6 25.8 70.3 19.2 22.7-6.6 40.2-73.1 40.2-73.1-0.7-3.2-1.6-5.8-2.6-8l2.8-5.7c0.3-0.1 0.9-0.1 1.9-0.3q0.3-0.1 0.8-0.2v14.1c0 4 3.2 7.2 7.2 7.2h2.3c4 0 7.2-3.2 7.2-7.2v-21.9c0.4-0.4 0.8-0.7 1.1-1 2.3-2.6 2.4-18.4 0-18.4-0.3 0-0.7 0.1-1.1 0.2v-3.7h-7.4v-11.9c0-2.6-2-4.7-4.6-4.7h-30.1c-1.4 0-2.5-1.1-2.5-2.5v-8.6c0-1.4 1.1-2.5 2.5-2.5h0.1v10.1h65v-10.1h1.2z"/>
		<g id="&lt;Group&gt;">
			<g id="&lt;Group&gt;">
				<path id="&lt;Path&gt;" class="s13" d="m323.7 446.8c-8.3 9.6-50.3 90.4-42.1 109.3 8.1 18.8 75.3-2.9 75.3-2.9l-4-26.7c0 0-26.1 1-28.6-1.5-2.5-2.5 35.3-40.3 35.3-40.3z"/>
				<g id="&lt;Group&gt;" style="opacity: .2">
					<path id="&lt;Path&gt;" class="s10" d="m281.6 556.2c1 2.2 2.7 4 4.9 5l1.3 0.6h0.2q0.6 0.3 1.3 0.5 2.8 0.9 5.8 1.2l1.7 0.1c0.8 0 1.7 0.1 2.5 0.2h2.3c22.5 0.2 55.3-10.4 55.4-10.6l-4.1-26.7c0 0-6.7 0.3-13.7 0.2-6.7-0.1-13.7-0.5-14.9-1.7-0.6-0.6 1.2-3.3 4.2-7 7.4-9.1 22.2-24.2 28.4-30.4l2.7-2.8-36-37.8c-8.2 9.4-50.2 90.3-42 109.2z"/>
				</g>
				<path id="&lt;Path&gt;" class="s25" d="m337.4 558.5l2.6-9.9-1.9-21.9h6.8l3.8 23.9-3.6 6z"/>
				<path id="&lt;Path&gt;" class="s25" d="m338.1 507l-8.4-24.8 2.2 31.8z"/>
				<path id="&lt;Path&gt;" class="s25" d="m324.6 525.3c0 0-3.5 9.1-10.7 15.1 0 0 11.5-4.5 13.5-14.4z"/>
			</g>
			<g id="&lt;Group&gt;">
				<path id="&lt;Path&gt;" class="s20" d="m387 895.6l11.6 0.2c11.8-55.6 20.2-124.4 25.4-176.2 0.8-8.2 1.5-15.8 2.3-23q0.5-5.1 0.9-9.9c1.4-15.6 2.3-27.9 2.9-35.6 0.4-5.6 0.6-8.6 0.6-8.6h-42.2l0.4 10.7 1.4 35.3 0.1 4.1 0.9 23.3 1.5 39.8c-14.5 56-5.8 139.9-5.8 139.9z"/>
				<path id="&lt;Path&gt;" class="s20" d="m292.6 892.6l11.5 2.2c22.9-57.4 44.5-130.8 58.5-182.1 2.1-7.9 4.1-15.3 5.9-22.1 0-0.3 0.2-0.7 0.3-1 3.5-13.4 6.2-24 7.9-30.8l2-8.2-41.3-7.2-2.3 17.5-3.5 25.5-0.7 5.1-2.3 17.4-6.3 46.8c-23.9 52.8-29.7 136.9-29.7 136.9z"/>
				<path id="&lt;Path&gt;" class="s13" d="m421.3 934.2c-2.1-1.7-4.6-3.1-7.2-4 0 0-8-7.8-11.8-31.5l-10.4-2.7c-3.6-0.9-7.3 0.6-9.4 3.7q-0.4 0.6-0.6 1.3-0.9 3.9-1.2 7.7-0.8 13-0.1 26h1.9l0.7-16.2c0.3-5.6 4.5 0.9 5.7 6.9 1.2 6 3.8 12.3 16 12.6 14.1 0.2 20-0.3 16.4-3.8z"/>
				<path id="&lt;Path&gt;" class="s13" d="m382.1 900c-0.6-5.5-0.9-15.1-0.9-15.1l23.1 2.5c0 0-2.8 11-0.5 19.2-11.6-3.2-21.7-6.6-21.7-6.6z"/>
				<path id="&lt;Path&gt;" class="s13" d="m327.5 934.2c-2.1-1.7-4.6-3.1-7.2-4 0 0-8-7.8-11.8-31.5l-10.4-2.7c-3.6-0.9-7.3 0.6-9.4 3.7q-0.4 0.6-0.6 1.4-0.8 3.8-1.2 7.7-0.8 13-0.1 25.9h1.8l0.7-16.2c0.3-5.6 4.5 0.9 5.8 6.9 1.2 6.1 3.7 12.3 15.9 12.6 14.2 0.2 20.1-0.3 16.5-3.8z"/>
				<path id="&lt;Path&gt;" class="s13" d="m288.4 900c-0.7-5.5-0.9-15.1-0.9-15.1l23 2.5c0 0-2.8 11-0.5 19.2-11.6-3.2-21.6-6.6-21.6-6.6z"/>
			</g>
			<path id="&lt;Path&gt;" class="s25" d="m356.9 405.5c2.7 1.9 5.7 3.3 8.9 4 9.4 2.2 15.9 0.6 20.1-3.8-5.7 1.4-11.6 0.9-16.9-1.4-4-1.4-8.4-1-12.1 1.2z"/>
			<g id="&lt;Group&gt;">
				<path id="&lt;Path&gt;" class="s35" d="m387.8 375.8c0 4.9 2.2 8.8 4.7 8.8 2.5 0 4.8-3.9 4.8-8.8 0-4.8-2.2-8.7-4.8-8.7-2.7 0-4.7 3.9-4.7 8.7z"/>
				<path id="&lt;Path&gt;" class="s20" d="m356.4 405q0.2 0.3 0.5 0.4c2.7 2.1 5.7 3.5 8.9 4.4 9.4 2.2 15.9 0.9 20.1-3.4 5.9-6.4 7.3-17.7 6.5-31.4-0.2-5.4-1.2-10.8-3-15.9 0 0 0-0.2 0-0.3 0 0-0.1-0.4-0.2-0.5-2.4-5.9-7.5-10.2-13.7-11.4q-4-0.9-8.1-0.9c-26.7-0.2-31.4 43.9-11 59z"/>
				<path id="&lt;Path&gt;" class="s20" d="m354.2 429.6c-1.6 7.5 8.2 10.6 8.2 10.6 16.1-6.9 19-15.4 19-15.4-13.4-7-9.5-26.7-9.5-26.7l-2.7 1.3-19.1 3.8c0 0 5.3 10.1 6 12.5 3.6 12.2-1.9 13.9-1.9 13.9z"/>
				<path id="&lt;Path&gt;" class="s13" d="m389.4 359c0 0 1.5 18.6-16.2 26.7 0 0-7.6 19.4-18.8 19.6-15.3 0.4-28.7-21.3-23.4-43.4 6.9-28.6 50.3-31 58.4-2.9z"/>
				<path id="&lt;Path&gt;" class="s13" d="m356.9 339.1c0 0 17.8-4.5 27.7 2.7 11.5 8.4 15.8 17 2.3 30.5 0 0-29.9-9.7-39.9-7.7q-8.7 1.8-17 5c-2.2-19.8 17-34.5 26.9-30.5z"/>
				<path id="&lt;Path&gt;" class="s13" d="m382.2 375.8c0 0-4.7 21.5 2.6 39.9l-5.6 1.2-1.4-5.3c-1.1 0.3-1.5 6.8-2.8 7.1-13 3.8-36.5 9.5-47.2 3.7-14.7-8-1.2-34.7-0.6-50.1 0.6-15.5 7.3-38.3 29.7-33.2 22.4 5.1 25.3 36.7 25.3 36.7z"/>
				<path id="&lt;Path&gt;" class="s35" d="m396.6 374.5h-17.1"/>
				<g id="&lt;Group&gt;">
					<path id="&lt;Path&gt;" class="s13" d="m339.1 354.5c1.7-4.8 0.9-10.4-2.3-14.3-3.2-3.9-8.9-5.8-13.7-4.2-4.8 1.5-8.3 6.5-7.9 11.5 0.3 3.4 2.2 6.5 4.9 8.5 2.8 2 6.2 3 9.5 3.1-5 3.4-11.2 5.1-17.2 4.6 4.6 3.6 10.9 5 16.6 3.9-3.2 2.3-6.8 4.1-10.6 5.4 4.1 1.9 9 2 13.3 0.4 4.2-1.6 7.8-5 9.6-9.1z"/>
				</g>
			</g>
			<g id="&lt;Group&gt;">
				<g id="&lt;Group&gt;">
					<path id="&lt;Path&gt;" class="s8" d="m316.9 738.5c-13 25.3-19.6 90.7-26.6 140.2l22.2 3.6 30.4-92.9 30.1-108.5 9-33.1 2.4 91.7c-10.1 32.9-7 85.6-7.7 137.3l27.6 2.8 27.1-198.8c20.9-122.9-14.9-151.9-14.9-151.9l-63.7 12.8c-28.9 49.1-22 106.1-22 106.1z"/>
					<path id="&lt;Path&gt;" class="s25" d="m371.3 680.7l1.7 0.2 9-33.1c0 0-19.3-33-13.3-50.2-0.8 1.2-21.6 32.1 2.6 83.1z"/>
				</g>
				<path id="&lt;Path&gt;" class="s25" d="m346.6 553.4l83.9 1.1c0 0-1.1-4.8-2.5-7-1.4-2.2-0.6 0-0.6 0l-79.4 3z"/>
			</g>
			<g id="&lt;Group&gt;">
				<g id="&lt;Group&gt;">
					<path id="&lt;Path&gt;" class="s36" d="m530.4 405v-28c0-2.1-1.6-3.7-3.6-3.7h-30.1c-1.9 0-3.5-1.6-3.5-3.5v-8.7c0-1.9 1.6-3.5 3.5-3.5h66.3"/>
					<path id="&lt;Path&gt;" class="s8" d="m496.8 368.8h65v-22.3h-65z"/>
					<path id="&lt;Path&gt;" class="s37" d="m496.8 368.8h65v-22.3h-65z"/>
					<path id="&lt;Path&gt;" class="s13" d="m529.3 440.8h2.3c3.9 0 7.1-3.2 7.1-7.1v-44.8h-16.6v44.8c0 3.9 3.2 7.1 7.2 7.1z"/>
					<g id="&lt;Group&gt;" style="opacity: .3">
						<path id="&lt;Path&gt;" class="s10" d="m496.8 355.3c0.9-0.4 2.5 0.3 2.9 1.1 0.4 0.9 0.5 1.8 1 2.7 1 2.2 4.3 2.9 6.2 1.4 1.4-1.2 2.2-3.3 4-3.5 1.6-0.2 2.8 1.3 3.4 2.7 0.6 1.4 1 3 2.1 4.1 1 0.9 2.5 1.2 3.9 1.2 1.9 0.1 3.9-0.2 5.3-1.4 1.4-1 2.1-2.6 2.8-4.2 0.7-1.6 1.4-3.2 2.7-4.3 1.3-1 3.5-1.3 4.7-0.1 0.9 0.9 1 2.2 1.8 3.2 0.7 1 2 1.4 3.1 1.2 1.2-0.2 2.2-1.1 2.5-2.2 0.2-1 0.1-2.1 0.9-2.7 1-0.9 2.6 0.1 3 1.4 0.4 1.3 0.1 2.6 0.2 4 0.1 2 1.3 3.9 3.1 4.7 1.8 0.8 4.3 0.1 5.2-1.6 0.9-1.6 0.5-3.7 1.4-5.2 0.8-1.4 3.2-2.5 4.7-2l0.1-9.3h-65z"/>
					</g>
				</g>
				<path id="&lt;Path&gt;" class="s13" d="m407.5 427.9c0 0-21.2-7.6-53.3 1.7-32 9.2-33.2 22.8-33.2 22.8 0 0 20.3 46.1 23.5 98.2l83.5-3.1c0 0 10-73.6-20.5-119.6z"/>
				<path id="&lt;Path&gt;" class="s21" d="m321 452.4c0 0 20.3 46.1 23.5 98.2l83.5-3.1q1.5-12.7 1.5-25.6c0.2-12.5-0.6-25-2.3-37.4-2.8-19.2-8.5-39.8-19.7-56.7 0 0-21.2-7.6-53.3 1.7-32 9.2-33.2 22.9-33.2 22.9z"/>
				<path id="&lt;Path&gt;" class="s25" d="m408.7 487.8c0 0 3.5 21.2 20.9 34.2 0.2-12.5-0.6-25-2.3-37.4z"/>
				<path id="&lt;Path&gt;" class="s20" d="m501 426.4l10.5-15.6c0 0 1.6-6.8 3.7-8.3 2-1.5 22.2-10.2 24.7-10.1 2.4 0 2.3 15.7 0 18.4-2.4 2.7-15.2 8.4-18.6 9-3.4 0.6-1.8 0-1.8 0l-9.3 18.6z"/>
				<path id="&lt;Path&gt;" class="s13" d="m407.5 427.9c22.6 9.4 44.3 20.7 65.1 33.6l34-46.5c0 0 9.2 2.8 12.5 18.8 0 0-17.4 66.5-40.1 73.1-22.7 6.6-70.4-19.2-70.4-19.2 0 0-13.8-34.6-1.1-59.8z"/>
				<path id="&lt;Path&gt;" class="s21" d="m407.5 427.9c22.6 9.4 44.3 20.7 65.1 33.6l34-46.5c0 0 9.2 2.8 12.5 18.8 0 0-17.4 66.5-40.1 73.1-22.7 6.6-70.4-19.2-70.4-19.2 0 0-13.8-34.6-1.1-59.8z"/>
				<path id="&lt;Path&gt;" class="s25" d="m350.1 484.2c0 0 9.5 3.3 18-5.4 8.5-8.7 13.3-36.2 13.3-36.2z"/>
				<path id="&lt;Path&gt;" class="s13" d="m385.9 424.9c0 0-8.4 56.8-35.2 59.3-26.9 2.4-39-42.6-34.4-47.9 4.5-5.3 39-11.8 69.6-11.4z"/>
				<path id="&lt;Path&gt;" class="s37" d="m385.9 424.9c0 0-8.4 56.8-35.2 59.3-26.9 2.4-39-42.6-34.4-47.9 4.5-5.3 39-11.8 69.6-11.4z"/>
			</g>
			<path id="&lt;Path&gt;" class="s20" d="m382.2 380.3c0-2.9-2.3-7.8-7-7.1-4.6 0.7-7.3 12.2 4.2 14.8 1.8 0.4 2.8-1.6 2.8-7.7z"/>
		</g>
		<path id="&lt;Path&gt;" class="s25" d="m472.6 461.5c0 0 7.9 5.5 8.6 8 0 0-0.4-6.6-7-10.2z"/>
	</g>
</svg>