<svg version="1.2" xmlns="http://www.w3.org/2000/svg" viewBox="0 0 1500 1000" width="1500" height="1000">
	<title>6511564-ai</title>
	<style>
		.s0 { fill:  #BA68C8 } 
		.s1 { opacity: .7;fill: #F7B9C7 } 
		.s2 { fill: none;stroke: #263238;stroke-linecap: round;stroke-linejoin: round;stroke-width: 2 } 
		.s3 { fill: #263238 } 
		.s4 { fill: none;stroke: #263238;stroke-miterlimit:10;stroke-width: 2 } 
		.s5 { fill: #263238;stroke: #263238;stroke-linecap: round;stroke-linejoin: round;stroke-width: 2 } 
		.s6 { fill: #8a8a8a;stroke: #263238;stroke-miterlimit:10;stroke-width: 2 } 
		.s7 { fill: #F7B9C7;stroke: #263238;stroke-miterlimit:10;stroke-width: 2 } 
		.s8 { fill:  #BA68C8;stroke: #263238;stroke-linecap: round;stroke-linejoin: round;stroke-width: 2 } 
		.s9 { fill: #F7B9C7;stroke: #263238;stroke-linecap: round;stroke-linejoin: round;stroke-width: 2 } 
		.s10 { fill: none;stroke: #F7B9C7;stroke-linecap: round;stroke-linejoin: round;stroke-width: 2 } 
		.s11 { fill: none;stroke: #263238;stroke-linecap: round;stroke-linejoin: round;stroke-width: 6 } 
		.s12 { fill: #8a8a8a } 
		.s13 { fill: #263238;stroke: #263238;stroke-linejoin: round;stroke-width: 2 } 
		.s14 { fill:  #BA68C8;stroke: #263238;stroke-miterlimit:10;stroke-width: 2 } 
	</style>
	<g id="Background Simple">
		<g id="&lt;Group&gt;">
			<path id="&lt;Path&gt;" class="s0" d="m1408.9 593c-5.1-186.7-169.1-332.1-333.1-410.1-90-42.8-193.8-73.3-295.1-60-53.3 6.9-100.5 32.3-146.9 56.7-49.5 26-100.3 44.4-153.1 63-75 26.4-150.8 51.7-223 84.9-57.8 26.5-116.4 58.1-157.4 106.4-70.7 83.3-75.1 220.5-22.4 313.3 29 51.1 81 83.3 136.5 103.9 102.7 38.1 214.7 50 324.2 49.7 98.9-0.3 192.1-21.9 289.6-32.7 48.5-5.4 96.9-3.6 144.7 5.5 140.2 26.8 318.6-12 397.2-135.6 28.7-45.1 40.2-94.9 38.8-145z"/>
			<path id="&lt;Path&gt;" class="s1" d="m1408.9 593c-5.1-186.7-169.1-332.1-333.1-410.1-90-42.8-193.8-73.3-295.1-60-53.3 6.9-100.5 32.3-146.9 56.7-49.5 26-100.3 44.4-153.1 63-75 26.4-150.8 51.7-223 84.9-57.8 26.5-116.4 58.1-157.4 106.4-70.7 83.3-75.1 220.5-22.4 313.3 29 51.1 81 83.3 136.5 103.9 102.7 38.1 214.7 50 324.2 49.7 98.9-0.3 192.1-21.9 289.6-32.7 48.5-5.4 96.9-3.6 144.7 5.5 140.2 26.8 318.6-12 397.2-135.6 28.7-45.1 40.2-94.9 38.8-145z"/>
		</g>
	</g>
	<g id="Floor">
		<path id="&lt;Path&gt;" class="s2" d="m27.3 830.2h1456.3"/>
	</g>
	<g id="Plants">
		<g id="&lt;Group&gt;">
			<path id="&lt;Path&gt;" class="s3" d="m182.2 236.1c7.7 3.3 26.5 2.9 26.5 2.9 0.2 0-4-12.3-4.4-13-4.1-8.7-17.2-22.9-27.8-21.5-7.6 1.1-11.9 8.7-10.1 15.9 1.7 7.4 9.3 12.8 15.8 15.7z"/>
			<path id="&lt;Path&gt;" class="s3" d="m188.7 290.5c8 1.2 24.7-3.7 26.1-4.1 2.6 9.4 6.1 18.8 10.1 28.1 2.3 5.4 4.8 10.7 7.4 16-1.5-2.3-2.9-4.3-3.2-4.5-6.2-7.3-22.5-17.5-32.4-13.4-7.1 3.1-9.2 11.6-5.6 18 3.6 6.7 12.4 9.9 19.4 11 7.2 1 21.6-2.9 25.4-3.9q1.4 3 2.9 6c4.9 9.7 9.8 19.3 14.3 28.9 1.6 3.4 3 6.8 4.5 10.2-1.4-2-2.5-3.7-2.8-3.9-6.2-7.3-22.5-17.5-32.4-13.4-7.1 3.1-9.2 11.5-5.6 18 3.6 6.7 12.4 9.9 19.4 11 6.9 1 20.2-2.5 24.7-3.7 1.4 3.5 2.7 7 3.9 10.4 0.8 2.4 1.7 4.7 2.3 7.1q1 3.6 2 7.1c1.1 4.6 2.2 9.3 3.2 13.8 0.7 3.1 1.3 6.1 1.9 9.1-1.5-3.4-4.7-9.9-5-10.5-5.1-8.1-19.7-20.7-30.1-18.1-7.4 1.9-10.8 10-8.2 17 2.6 7.1 10.7 11.6 17.5 13.7 7.5 2.3 24.2 0.2 26.2-0.1 1 5 2 9.9 2.7 14.4q0.9 5.1 1.7 9.8h6.7q-1-5.2-2.1-10.9c-1-5.1-2.2-10.5-3.4-16 1.2-0.5 8.3-3.3 14.6-6.8 5.5 5.9 19.5 12.8 21.4 13.7-2 4.7-3.9 9.3-5.7 13.5-1 2.3-2 4.4-2.9 6.5h7c0.6-1.3 1.1-2.6 1.7-4 2-4.8 4-9.9 6-15.2 2 0.4 18.5 3.8 26.1 2.1 7-1.6 15.4-5.6 18.6-12.4 3-6.8 0.3-15.1-7-17.5-10.2-3.5-25.7 8.1-31.3 15.8-0.4 0.4-3.5 5.7-5.3 9.1 0.8-2.1 1.6-4.2 2.4-6.5 1.6-4.4 3.1-8.8 4.7-13.6q1-3.5 2.1-7.1c0.8-2.3 1.3-4.9 1.9-7.4 1.4-5.8 2.5-11.7 3.5-17.7 3.9 1.4 17.7 6.2 24.8 5.7 7.2-0.5 16.1-3.2 20.2-9.5 4-6.2 2.6-14.8-4.2-18.3-9.6-5-26.6 4.1-33.4 10.8-0.4 0.5-4.7 5.8-7 8.8 0.5-3.6 1.1-7.2 1.6-10.9 1.3-10.6 2.3-21.3 3.3-32.1q0.5-4.9 1.1-9.9c1.3 0.6 17.6 6.6 25.6 6.1 7.2-0.5 16.1-3.2 20.2-9.5 4-6.2 2.6-14.8-4.3-18.3-9.5-5-26.5 4.1-33.3 10.8-0.5 0.5-6.7 8.3-8.2 10.3 0.8-7.2 1.6-14.4 2.7-21.4 1.5-9.8 3.6-19.3 6.2-28.3 0.6 0.2 17.6 6.6 25.8 6.1 7.1-0.5 16.1-3.2 20.2-9.5 4-6.2 2.6-14.8-4.3-18.3-9.5-5-26.5 4.1-33.3 10.8-0.5 0.6-7.2 8.9-8.3 10.5 0.1-0.5 0.2-1.1 0.4-1.6 3-9.6 7-18.6 11.2-26.8 2.4-4.7 5-9.2 7.7-13.4 3 1.5 17 8.3 24.4 8.6 7.1 0.3 16.3-1.3 21.1-7.2 4.7-5.7 4.2-14.4-2.2-18.7-8.9-5.9-26.9 1.2-34.4 7.2-0.4 0.3-4.1 4-6.8 6.8 1.2-1.9 2.4-3.9 3.6-5.7 4.5-6.7 9-12.6 13-17.8 2.3-2.9 4.5-5.5 6.5-8 3.8 0 19-0.5 25.6-3.6 6.4-3 13.8-8.7 15.4-16.1 1.5-7.2-2.9-14.7-10.6-15.6-10.6-1.1-23.3 13.5-27.2 22.2-0.3 0.8-4.2 13.2-4 13.2 0 0 0.2 0 0.2 0-2 2.2-4.1 4.7-6.4 7.5-4.2 5.1-8.8 10.9-13.5 17.6-4.6 6.6-9.5 14-13.9 22.2-4.5 8.2-8.7 17.1-12 26.8q0 0.2 0 0.4c0-3.2-0.1-11.9-0.2-12.6-1.2-9.5-9.2-27.1-19.7-29-7.6-1.4-14 4.5-14.6 11.9-0.6 7.5 4.8 15.1 10.1 19.8 6 5.4 22.7 10.6 24 11-2.9 9.3-5.2 19-7 29.1-1 5.7-1.9 11.5-2.7 17.3 0-2.7 0-5.1-0.1-5.5-1.2-9.4-9.2-27-19.7-29-7.6-1.4-14 4.6-14.6 11.9-0.6 7.6 4.8 15.1 10.2 19.8 5.4 4.9 19.5 9.6 23.2 10.8q-0.4 3.3-0.8 6.7c-1.3 10.7-2.5 21.5-4.1 31.9-0.5 3.7-1.2 7.4-1.8 11 0-2.4-0.1-4.5-0.1-4.8-1.3-9.5-9.2-27-19.7-29-7.6-1.4-14 4.6-14.6 11.9-0.7 7.6 4.8 15.1 10.1 19.8 5.2 4.7 18.2 9.1 22.6 10.6-0.8 3.7-1.5 7.3-2.5 10.9-0.6 2.4-1.1 4.8-2 7.1q-1.1 3.6-2.2 7.1c-1.6 4.4-3.3 9-4.9 13.2-1.2 3-2.3 5.8-3.5 8.7 0.6-3.7 1.6-10.9 1.6-11.5 0.1-6.4-2.1-16.7-6.6-24q0.1-1.4-0.2-2.8c-1.1-7.3-8-12.7-15.5-10.7-10.3 2.8-16.9 20.9-17.3 30.5-0.1 0.5 0.3 6.7 0.6 10.5-0.5-2.2-1-4.4-1.6-6.7-1.1-4.6-2.3-9.1-3.6-14q-1-3.5-2.1-7.1c-0.7-2.4-1.7-4.8-2.5-7.2-2.1-5.6-4.4-11.2-6.9-16.7 4-1 18.2-4.6 23.9-9 5.6-4.3 11.6-11.4 11.6-19-0.1-7.4-6-13.8-13.7-12.9-10.6 1.1-19.9 18.1-21.8 27.4-0.1 0.6-0.7 7.5-1 11.3-1.5-3.4-3-6.7-4.7-10-4.7-9.6-9.9-19.1-14.9-28.7q-2.3-4.4-4.6-8.8c1.4-0.3 18.4-4.2 24.7-9.1 5.7-4.4 11.7-11.5 11.7-19-0.1-7.4-6.1-13.8-13.7-13-10.7 1.2-19.9 18.1-21.8 27.5-0.2 0.7-1.1 10.6-1.2 13.1-3.3-6.5-6.6-12.9-9.6-19.4-4.1-9-7.6-18-10.4-27 0.6-0.1 18.3-4.2 24.9-9.2 5.6-4.3 11.6-11.4 11.6-19-0.1-7.4-6-13.8-13.7-12.9-10.6 1.1-19.9 18.1-21.8 27.4-0.2 0.8-1.1 11.4-1.2 13.3-0.1-0.5-0.4-1-0.5-1.6-2.9-9.6-4.4-19.3-5.4-28.5-0.6-5.3-0.9-10.4-1-15.4 3.3-0.4 18.7-2.4 25.1-6.3 6.1-3.7 12.8-10.1 13.6-17.6 0.8-7.4-4.4-14.4-12.2-14.4-10.7 0-21.7 15.8-24.6 24.9-0.2 0.5-1.3 5.7-2 9.5 0-2.2-0.1-4.6-0.1-6.7 0-8.1 0.5-15.5 1-22.1 0.3-3.7 0.7-7.1 1.1-10.2 3.1-2.1 15.4-10.9 19.3-17.1 3.7-6.1 6.7-14.9 3.9-21.9-2.7-6.9-10.5-10.7-17.4-7.2-9.5 4.9-12 24-10.4 33.5 0.1 0.8 3.7 13.3 3.9 13.2 0 0 0.1-0.1 0.1-0.2-0.4 3.1-0.8 6.3-1.2 9.9-0.6 6.5-1.3 13.9-1.5 22.1-0.2 8.1-0.2 16.9 0.6 26.2 0.9 9.3 2.2 19.1 4.9 29q0.1 0.1 0.1 0.3c-1.7-2.6-6.6-9.9-7.1-10.4-6.2-7.2-22.6-17.5-32.4-13.3-7.1 3-9.2 11.5-5.6 18 3.6 6.6 12.3 9.9 19.4 10.9z"/>
			<path id="&lt;Path&gt;" class="s3" d="m372.2 240.2c0.2 0.1 3.4-12.5 3.6-13.3 1.3-9.5-1.7-28.5-11.4-33.2-6.9-3.3-14.7 0.7-17.2 7.7-2.6 7 0.7 15.8 4.6 21.8 4.5 7 20.4 17 20.4 17z"/>
		</g>
		<g id="&lt;Group&gt;">
			<path id="&lt;Path&gt;" class="s3" d="m1287 646.4c5.7 2.5 19.5 2.2 19.5 2.2 0.2 0-3-9.1-3.2-9.6-3.1-6.4-12.7-16.9-20.5-15.8-5.6 0.7-8.8 6.4-7.5 11.7 1.3 5.4 6.9 9.4 11.7 11.5z"/>
			<path id="&lt;Path&gt;" class="s3" d="m1291.8 686.5c5.9 0.9 18.2-2.7 19.2-3 1.9 6.9 4.5 13.9 7.5 20.8 1.7 3.9 3.5 7.8 5.4 11.7-1.1-1.6-2.1-3.1-2.3-3.3-4.6-5.3-16.6-12.9-23.9-9.8-5.2 2.2-6.8 8.5-4.1 13.2 2.6 4.9 9.1 7.3 14.3 8.1 5.3 0.8 15.9-2.1 18.6-2.9q1.1 2.3 2.3 4.5c3.5 7.1 7.1 14.2 10.5 21.3 1.1 2.5 2.2 5 3.3 7.5-1-1.5-1.9-2.7-2-2.9-4.7-5.3-16.7-12.9-24-9.8-5.2 2.2-6.7 8.5-4.1 13.3 2.7 4.8 9.1 7.3 14.3 8 5.1 0.7 14.9-1.8 18.2-2.7 1 2.6 2 5.2 2.9 7.7 0.6 1.8 1.2 3.4 1.7 5.2q0.7 2.7 1.5 5.3c0.8 3.3 1.6 6.8 2.3 10.1 0.5 2.3 1 4.5 1.4 6.7-1.1-2.5-3.4-7.3-3.7-7.7-3.7-5.9-14.5-15.3-22.1-13.3-5.5 1.4-8 7.3-6.1 12.5 1.9 5.2 7.9 8.6 12.9 10.1 5.5 1.7 17.8 0.1 19.3-0.1 0.8 3.7 1.5 7.3 2 10.7q0.7 3.7 1.3 7.2h4.9q-0.7-3.9-1.6-8.1c-0.7-3.7-1.5-7.7-2.5-11.8 1-0.3 6.2-2.4 10.8-5 4.1 4.3 14.4 9.5 15.8 10.1-1.4 3.5-2.9 6.8-4.2 10-0.8 1.6-1.5 3.2-2.2 4.8h5.2c0.5-1 0.9-2 1.3-3 1.4-3.5 2.9-7.3 4.4-11.2 1.5 0.3 13.6 2.8 19.3 1.5 5.1-1.1 11.3-4.1 13.6-9.1 2.3-5 0.3-11.1-5.1-12.9-7.5-2.5-18.9 5.9-23.1 11.6-0.3 0.4-2.5 4.3-3.9 6.8 0.6-1.6 1.2-3.2 1.8-4.8 1.1-3.3 2.2-6.5 3.4-10.1q0.8-2.6 1.6-5.2c0.6-1.7 0.9-3.6 1.4-5.5 1-4.2 1.8-8.6 2.6-13 2.8 1 13 4.5 18.3 4.2 5.2-0.4 11.8-2.3 14.9-7 2.9-4.6 1.9-10.9-3.2-13.5-7-3.7-19.6 3-24.6 8-0.3 0.3-3.5 4.3-5.2 6.5 0.5-2.7 0.9-5.3 1.2-8.1 1-7.8 1.7-15.7 2.5-23.7q0.4-3.6 0.8-7.2c1 0.4 13 4.8 18.9 4.4 5.2-0.4 11.8-2.3 14.9-7 2.9-4.5 1.9-10.9-3.2-13.5-7-3.6-19.6 3.1-24.6 8-0.3 0.4-4.9 6.1-6 7.6 0.6-5.3 1.2-10.6 2-15.8 1.1-7.2 2.6-14.2 4.5-20.9 0.5 0.2 13 5 19.1 4.5 5.2-0.3 11.8-2.3 14.9-6.9 2.9-4.6 1.9-11-3.2-13.6-7-3.6-19.6 3.1-24.6 8-0.4 0.4-5.3 6.6-6.1 7.8 0.1-0.4 0.2-0.9 0.3-1.2 2.2-7.1 5.2-13.7 8.3-19.8 1.8-3.5 3.7-6.7 5.6-9.9 2.3 1.2 12.6 6.2 18.1 6.4 5.2 0.2 12-1 15.5-5.3 3.5-4.2 3.1-10.7-1.6-13.8-6.6-4.4-19.8 0.9-25.3 5.3-0.3 0.2-3.1 3-5.1 5 0.9-1.4 1.8-2.9 2.7-4.2 3.3-4.9 6.6-9.3 9.6-13.1 1.7-2.2 3.3-4.1 4.8-5.9 2.7 0 13.9-0.4 18.8-2.7 4.8-2.2 10.2-6.4 11.4-11.8 1.1-5.4-2.2-10.9-7.8-11.5-7.9-0.9-17.2 9.9-20.1 16.3-0.2 0.6-3.1 9.7-3 9.7 0 0 0.2 0 0.2 0-1.5 1.7-3.1 3.5-4.7 5.6-3.1 3.7-6.5 8-10 12.9-3.4 4.9-7 10.4-10.2 16.4-3.3 6.1-6.5 12.6-8.8 19.8q-0.1 0.1-0.1 0.3c0-2.3-0.1-8.8-0.1-9.3-0.9-7-6.8-20-14.6-21.4-5.5-1-10.3 3.3-10.7 8.8-0.5 5.5 3.5 11.1 7.5 14.6 4.4 4 16.7 7.8 17.7 8.1-2.2 6.8-3.9 14-5.2 21.4-0.8 4.2-1.4 8.5-2 12.8 0-2-0.1-3.8-0.1-4-0.9-7-6.8-20-14.5-21.4-5.6-1.1-10.3 3.3-10.8 8.8-0.4 5.5 3.6 11.1 7.5 14.6 4 3.5 14.4 7 17.2 7.9q-0.3 2.5-0.6 4.9c-1 8-1.9 15.9-3 23.6-0.4 2.7-0.9 5.4-1.4 8.1 0-1.8-0.1-3.3-0.1-3.5-0.9-7-6.8-20-14.5-21.4-5.6-1.1-10.3 3.3-10.8 8.8-0.5 5.5 3.6 11.1 7.5 14.6 3.8 3.4 13.4 6.7 16.7 7.7-0.6 2.7-1.2 5.5-1.9 8.1-0.5 1.8-0.8 3.5-1.4 5.2q-0.9 2.7-1.7 5.2c-1.2 3.3-2.4 6.7-3.6 9.8-0.9 2.2-1.7 4.3-2.6 6.4 0.5-2.7 1.2-8 1.2-8.5 0.1-4.7-1.6-12.3-4.9-17.6q0.1-1.1-0.1-2.1c-0.9-5.4-5.9-9.4-11.4-7.9-7.6 2-12.5 15.4-12.8 22.4-0.1 0.4 0.2 5 0.4 7.8-0.4-1.6-0.7-3.2-1.1-4.9-0.8-3.4-1.7-6.8-2.7-10.4q-0.8-2.5-1.6-5.2c-0.4-1.7-1.2-3.5-1.8-5.3-1.5-4.1-3.2-8.2-5.1-12.3 3-0.7 13.4-3.4 17.6-6.6 4.2-3.2 8.6-8.5 8.6-14 0-5.5-4.4-10.2-10.1-9.6-7.8 0.8-14.7 13.3-16.1 20.2-0.1 0.5-0.5 5.5-0.7 8.3-1.2-2.4-2.3-4.9-3.5-7.3-3.5-7.1-7.2-14.1-11-21.2q-1.7-3.2-3.4-6.4c1.1-0.3 13.6-3.2 18.3-6.8 4.2-3.2 8.6-8.4 8.5-14 0-5.5-4.4-10.2-10-9.6-7.9 0.9-14.7 13.4-16.1 20.3-0.1 0.5-0.8 7.8-0.9 9.7-2.4-4.8-4.9-9.6-7-14.3-3.1-6.7-5.7-13.3-7.7-19.9 0.4-0.2 13.5-3.1 18.3-6.8 4.2-3.2 8.6-8.5 8.6-14-0.1-5.5-4.5-10.2-10.1-9.6-7.9 0.9-14.7 13.4-16.1 20.3-0.1 0.5-0.8 8.4-0.8 9.8-0.2-0.4-0.3-0.8-0.5-1.2-2.1-7.1-3.2-14.3-3.9-21-0.5-3.9-0.7-7.7-0.8-11.4 2.5-0.3 13.8-1.8 18.5-4.6 4.5-2.8 9.5-7.5 10.1-13 0.5-5.4-3.3-10.6-9-10.6-7.9 0-16 11.6-18.2 18.3-0.1 0.4-0.9 4.2-1.4 7-0.1-1.6-0.1-3.3-0.1-4.9 0-6 0.4-11.4 0.7-16.3 0.3-2.7 0.5-5.2 0.8-7.5 2.3-1.6 11.4-8 14.2-12.6 2.8-4.5 5-11 3-16.2-2-5.1-7.8-7.9-12.9-5.3-7 3.6-8.8 17.7-7.7 24.7 0.1 0.6 2.8 9.8 2.9 9.7 0 0 0.1 0 0.1-0.1-0.3 2.3-0.6 4.6-0.9 7.3-0.4 4.8-0.9 10.3-1.1 16.3-0.1 6-0.1 12.5 0.5 19.3 0.6 6.9 1.6 14.1 3.6 21.4q0 0.1 0 0.2c-1.2-1.9-4.9-7.3-5.2-7.6-4.6-5.4-16.6-13-23.9-9.9-5.2 2.2-6.8 8.5-4.1 13.3 2.6 4.9 9.1 7.3 14.3 8z"/>
			<path id="&lt;Path&gt;" class="s3" d="m1427.1 649.5c0.1 0 2.5-9.2 2.6-9.8 1-7-1.2-21.1-8.3-24.5-5.2-2.5-10.9 0.5-12.8 5.6-1.9 5.3 0.6 11.7 3.4 16.1 3.4 5.2 15.1 12.6 15.1 12.6z"/>
		</g>
		<g id="&lt;Group&gt;">
			<path id="&lt;Path&gt;" class="s3" d="m319.6 601.7c-7.7 3.4-26.5 3-26.5 3-0.2 0 4-12.3 4.4-13.1 4.1-8.6 17.1-22.8 27.7-21.4 7.7 1 11.9 8.7 10.2 15.9-1.8 7.3-9.3 12.8-15.8 15.6z"/>
			<path id="&lt;Path&gt;" class="s3" d="m313.1 656.1c-8 1.2-24.8-3.7-26.1-4.1-2.6 9.4-6.1 18.9-10.2 28.2-2.3 5.3-4.7 10.6-7.3 15.9 1.5-2.2 2.9-4.2 3.1-4.5 6.3-7.2 22.6-17.5 32.5-13.3 7.1 3 9.1 11.5 5.6 18-3.7 6.6-12.4 9.9-19.4 10.9-7.2 1.1-21.6-2.8-25.4-3.9q-1.5 3.1-3 6.1c-4.8 9.7-9.7 19.3-14.2 28.9-1.6 3.3-3 6.7-4.5 10.1 1.4-2 2.5-3.6 2.7-3.9 6.3-7.2 22.6-17.5 32.5-13.3 7.1 3 9.1 11.5 5.6 18-3.7 6.6-12.4 9.9-19.4 10.9-6.9 1-20.2-2.4-24.7-3.7-1.4 3.5-2.8 7-4 10.5-0.7 2.4-1.6 4.6-2.2 7.1q-1 3.5-2 7.1c-1.1 4.5-2.3 9.3-3.2 13.7-0.7 3.2-1.3 6.1-1.9 9.1 1.5-3.3 4.7-9.9 5-10.4 5.1-8.1 19.7-20.7 30-18.1 7.5 1.9 10.9 10 8.3 16.9-2.6 7.1-10.7 11.7-17.5 13.8-7.5 2.3-24.2 0.2-26.3-0.1-1 5-1.9 9.8-2.7 14.4q-0.9 5.1-1.6 9.8h-6.7q1-5.2 2.1-11c1-5 2.1-10.4 3.4-15.9-1.3-0.5-8.4-3.4-14.6-6.9-5.5 5.9-19.6 12.9-21.4 13.8 1.9 4.7 3.8 9.2 5.7 13.5 1 2.2 1.9 4.4 2.9 6.5h-7.1c-0.5-1.4-1.1-2.7-1.6-4.1-2-4.7-4-9.8-6-15.1-2 0.4-18.5 3.7-26.2 2-6.9-1.6-15.4-5.5-18.5-12.4-3-6.7-0.3-15 7-17.5 10.2-3.4 25.6 8.1 31.3 15.8 0.4 0.5 3.4 5.8 5.3 9.2-0.8-2.2-1.6-4.3-2.4-6.5-1.6-4.4-3.1-8.9-4.7-13.7q-1.1-3.5-2.1-7c-0.8-2.4-1.3-5-1.9-7.5-1.4-5.7-2.5-11.7-3.5-17.7-3.9 1.4-17.7 6.2-24.9 5.7-7.1-0.5-16-3.1-20.1-9.4-4.1-6.2-2.6-14.9 4.2-18.4 9.5-4.9 26.6 4.1 33.4 10.9 0.4 0.4 4.7 5.8 7 8.8-0.6-3.6-1.1-7.2-1.6-10.9-1.3-10.6-2.3-21.4-3.4-32.1q-0.5-5-1-9.9c-1.4 0.5-17.6 6.6-25.7 6-7.1-0.5-16-3.1-20.1-9.4-4.1-6.2-2.6-14.9 4.2-18.4 9.5-4.9 26.6 4.1 33.4 10.9 0.5 0.5 6.7 8.2 8.2 10.3-0.8-7.2-1.6-14.4-2.7-21.5-1.6-9.7-3.6-19.2-6.2-28.3-0.6 0.3-17.6 6.7-25.8 6.1-7.1-0.5-16.1-3.1-20.2-9.4-4-6.2-2.6-14.9 4.3-18.4 9.5-4.9 26.5 4.1 33.3 10.9 0.5 0.5 7.2 8.9 8.3 10.5-0.2-0.6-0.3-1.1-0.4-1.7-3-9.6-7-18.5-11.2-26.7-2.5-4.8-5.1-9.2-7.7-13.4-3 1.5-17 8.3-24.4 8.6-7.2 0.2-16.3-1.4-21.1-7.2-4.7-5.7-4.2-14.5 2.2-18.7 8.9-6 26.9 1.2 34.3 7.1 0.4 0.3 4.2 4.1 6.9 6.9-1.2-1.9-2.4-3.9-3.6-5.7-4.5-6.8-9-12.7-13-17.8-2.4-3-4.5-5.6-6.6-8-3.7-0.1-18.9-0.5-25.5-3.6-6.5-3.1-13.8-8.7-15.4-16.1-1.5-7.3 2.9-14.8 10.6-15.6 10.6-1.2 23.3 13.4 27.2 22.2 0.3 0.7 4.2 13.1 4 13.1 0 0-0.2 0-0.2 0 2 2.3 4.1 4.8 6.4 7.5 4.2 5.1 8.8 10.9 13.4 17.6 4.7 6.7 9.6 14 14 22.3 4.5 8.2 8.7 17.1 11.9 26.8q0.1 0.2 0.1 0.3c0-3.1 0.1-11.9 0.2-12.5 1.2-9.5 9.2-27.1 19.7-29.1 7.6-1.4 14 4.6 14.6 11.9 0.6 7.6-4.8 15.1-10.2 19.9-6 5.3-22.6 10.5-24 10.9 3 9.3 5.3 19.1 7.1 29.1 1 5.7 1.8 11.5 2.6 17.4 0.1-2.8 0.1-5.2 0.2-5.5 1.2-9.5 9.1-27.1 19.7-29 7.5-1.4 14 4.5 14.6 11.9 0.6 7.5-4.9 15-10.2 19.8-5.4 4.8-19.5 9.5-23.3 10.7q0.5 3.4 0.9 6.7c1.3 10.8 2.5 21.5 4 32 0.6 3.7 1.2 7.3 1.9 10.9 0-2.4 0.1-4.4 0.1-4.7 1.2-9.5 9.2-27.1 19.7-29 7.6-1.4 14 4.5 14.6 11.9 0.6 7.5-4.8 15-10.1 19.8-5.2 4.6-18.2 9.1-22.7 10.5 0.8 3.7 1.6 7.4 2.5 10.9 0.7 2.4 1.2 4.8 2 7.2q1.2 3.5 2.3 7c1.6 4.4 3.2 9 4.9 13.3 1.2 3 2.3 5.8 3.4 8.6-0.5-3.7-1.5-10.9-1.5-11.5-0.2-6.3 2.1-16.6 6.6-23.9q-0.1-1.4 0.1-2.8c1.2-7.3 8.1-12.7 15.5-10.7 10.4 2.7 16.9 20.9 17.4 30.4 0.1 0.6-0.3 6.7-0.6 10.6 0.5-2.3 1-4.5 1.6-6.8 1-4.5 2.3-9.1 3.5-14q1.1-3.5 2.2-7c0.6-2.4 1.7-4.8 2.5-7.3 2-5.6 4.4-11.1 6.9-16.7-4-0.9-18.2-4.5-23.9-8.9-5.7-4.4-11.7-11.5-11.6-19 0-7.4 6-13.8 13.7-13 10.6 1.2 19.8 18.1 21.8 27.5 0.1 0.6 0.7 7.4 1 11.2 1.5-3.3 3-6.6 4.7-10 4.7-9.5 9.8-19.1 14.9-28.6q2.3-4.4 4.6-8.8c-1.5-0.3-18.4-4.3-24.8-9.2-5.6-4.3-11.6-11.4-11.6-19 0.1-7.4 6-13.8 13.7-12.9 10.6 1.1 19.9 18.1 21.8 27.4 0.2 0.7 1 10.6 1.2 13.1 3.3-6.4 6.6-12.9 9.6-19.4 4.1-8.9 7.6-17.9 10.4-26.9-0.7-0.2-18.4-4.2-24.9-9.2-5.6-4.4-11.6-11.5-11.6-19 0.1-7.4 6-13.8 13.7-13 10.6 1.2 19.9 18.1 21.8 27.5 0.1 0.7 1.1 11.3 1.1 13.3 0.2-0.5 0.4-1.1 0.6-1.6 2.8-9.7 4.4-19.4 5.4-28.5 0.6-5.3 0.9-10.4 1-15.4-3.3-0.4-18.7-2.5-25.1-6.3-6.1-3.7-12.9-10.1-13.6-17.7-0.8-7.3 4.4-14.3 12.1-14.3 10.7-0.1 21.8 15.8 24.7 24.9 0.2 0.5 1.3 5.7 2 9.5 0-2.3 0.1-4.6 0.1-6.8 0-8.1-0.5-15.5-1-22-0.4-3.8-0.7-7.1-1.1-10.3-3.1-2.1-15.5-10.8-19.3-17.1-3.7-6.1-6.7-14.9-4-21.9 2.8-6.9 10.6-10.7 17.5-7.2 9.5 5 12 24.1 10.4 33.5-0.1 0.8-3.7 13.3-3.9 13.2 0 0-0.1-0.1-0.2-0.1 0.5 3 0.9 6.3 1.2 9.8 0.7 6.6 1.4 14 1.6 22.1 0.2 8.1 0.2 17-0.7 26.3-0.8 9.3-2.1 19-4.8 28.9q-0.1 0.2-0.1 0.4c1.6-2.7 6.6-9.9 7-10.4 6.3-7.3 22.6-17.6 32.5-13.4 7.1 3 9.2 11.5 5.6 18-3.6 6.6-12.4 9.9-19.4 10.9z"/>
			<path id="&lt;Path&gt;" class="s3" d="m129.6 605.9c-0.2 0.1-3.5-12.5-3.6-13.3-1.3-9.5 1.7-28.6 11.4-33.2 6.9-3.4 14.7 0.7 17.2 7.6 2.6 7.1-0.7 15.8-4.6 21.8-4.5 7-20.4 17.1-20.4 17.1z"/>
		</g>
	</g>
	<g id="Graphics">
		<path id="&lt;Path&gt;" class="s4" d="m1296.4 229.1l-21.1 21.1-21.1-21.1 21.1-21.1z"/>
		<path id="&lt;Path&gt;" class="s4" d="m1106.4 358.3l-13.7 13.7-13.7-13.7 13.7-13.6z"/>
		<path id="&lt;Path&gt;" class="s4" d="m1164.3 669.8l-17.6 17.6-17.6-17.6 17.6-17.6z"/>
		<path id="&lt;Path&gt;" class="s4" d="m738.5 166.2l-13.7 13.7-13.7-13.7 13.7-13.7z"/>
		<path id="&lt;Path&gt;" class="s4" d="m1381.7 611.8l-13.6 13.7-13.7-13.7 13.7-13.7z"/>
		<path id="&lt;Path&gt;" class="s4" d="m320.3 210.4l-25.8 25.8-25.8-25.8 25.8-25.9z"/>
	</g>
	<g id="Money">
		<g id="&lt;Group&gt;">
			<g id="&lt;Group&gt;">
				<path id="&lt;Compound Path&gt;" class="s4" d="m1023.1 250.2v-8.5q-9.4-0.4-14.1-6.1-4.6-5.7-5-16.9l12.9-2.2q0.2 4.6 1 7.6 0.7 3.1 2.3 4.6 1.6 1.5 4 1.5 2.9 0 3.9-1.8 1.1-1.8 1.1-4.2 0-4.7-2.2-7.9-2.1-3.1-5.9-6.3l-7.8-6.7q-2.6-2.5-4.7-5-2.1-2.6-3.4-5.9-1.2-3.3-1.2-7.8 0-8.6 4.9-13.4 4.9-4.8 13.1-5.4v-8.2h4.4v8.2q5 0.2 8.1 2.2 3.2 2 4.8 5 1.7 2.9 2.4 6.5 0.7 3.5 0.9 6.8l-13.1 1.9q-0.1-3.4-0.5-6-0.5-2.6-1.7-4.1-1.2-1.4-3.6-1.3-2.6 0-3.9 2-1.3 1.9-1.3 4.3 0 4.2 2 6.7 2 2.6 4.5 5l7.6 6.6q3.1 2.7 5.6 5.9 2.6 3.2 4.2 7.1 1.5 3.9 1.5 9 0 4.8-2 8.8-1.9 4-5.6 6.4-3.7 2.5-8.8 3v8.6z"/>
			</g>
			<path id="&lt;Path&gt;" class="s4" d="m1093.3 203.9c0-38.4-31.2-69.6-69.6-69.6-38.4 0-69.6 31.2-69.6 69.6 0 38.4 31.2 69.6 69.6 69.6 38.4 0 69.6-31.2 69.6-69.6z"/>
			<path id="&lt;Path&gt;" class="s4" d="m1082.2 203.9c0-32.3-26.2-58.5-58.5-58.5-32.3 0-58.5 26.2-58.5 58.5 0 32.3 26.2 58.5 58.5 58.5 32.3 0 58.5-26.2 58.5-58.5z"/>
		</g>
		<g id="&lt;Group&gt;">
			<g id="&lt;Group&gt;">
				<path id="&lt;Compound Path&gt;" class="s4" d="m952.3 598.3v-8.5q-9.4-0.4-14.1-6-4.6-5.7-5-17l12.9-2.2q0.2 4.6 1 7.7 0.8 3 2.3 4.5 1.6 1.5 4 1.5 2.9 0 3.9-1.8 1.1-1.8 1.1-4.2 0-4.7-2.2-7.8-2.1-3.2-5.9-6.4l-7.8-6.7q-2.6-2.4-4.7-5-2.1-2.6-3.4-5.9-1.2-3.3-1.2-7.7 0-8.6 4.9-13.5 4.9-4.8 13.1-5.4v-8.1h4.4v8.1q5 0.3 8.1 2.2 3.2 2 4.8 5 1.7 3 2.4 6.5 0.8 3.5 0.9 6.8l-13.1 1.9q0-3.4-0.5-6-0.5-2.6-1.6-4-1.2-1.5-3.7-1.4-2.6 0.1-3.9 2-1.3 1.9-1.3 4.3 0 4.2 2 6.8 2 2.5 4.6 4.9l7.6 6.6q3 2.8 5.5 6 2.6 3.2 4.2 7.1 1.5 3.8 1.5 8.9 0 4.8-1.9 8.8-2 4-5.7 6.5-3.7 2.4-8.8 2.9v8.6z"/>
			</g>
			<path id="&lt;Path&gt;" class="s4" d="m1022.5 552c0-38.4-31.2-69.6-69.6-69.6-38.4 0-69.6 31.2-69.6 69.6 0 38.5 31.2 69.6 69.6 69.6 38.4 0 69.6-31.1 69.6-69.6z"/>
			<path id="&lt;Path&gt;" class="s4" d="m1011.4 552c0-32.3-26.2-58.5-58.5-58.5-32.3 0-58.5 26.2-58.5 58.5 0 32.3 26.2 58.5 58.5 58.5 32.3 0 58.5-26.2 58.5-58.5z"/>
		</g>
		<g id="&lt;Group&gt;">
			<g id="&lt;Group&gt;">
				<path id="&lt;Compound Path&gt;" class="s4" d="m163.9 519.2v-8.5q-9.4-0.4-14.1-6.1-4.6-5.6-5-16.9l12.9-2.2q0.2 4.6 1 7.7 0.7 3 2.3 4.5 1.5 1.5 4 1.5 2.9 0 3.9-1.8 1.1-1.8 1.1-4.2 0-4.7-2.2-7.8-2.1-3.2-5.9-6.4l-7.8-6.7q-2.6-2.4-4.7-5-2.1-2.6-3.4-5.9-1.2-3.3-1.2-7.7 0-8.7 4.9-13.5 4.9-4.8 13.1-5.4v-8.2h4.4v8.2q5 0.3 8.1 2.2 3.2 2 4.8 5 1.7 3 2.4 6.5 0.7 3.5 0.9 6.8l-13.1 1.9q-0.1-3.4-0.5-6-0.5-2.6-1.7-4-1.2-1.5-3.6-1.4-2.6 0.1-3.9 2-1.3 1.9-1.3 4.3 0 4.2 2 6.8 2 2.5 4.5 4.9l7.6 6.6q3.1 2.8 5.6 6 2.6 3.2 4.1 7.1 1.6 3.8 1.6 8.9 0 4.8-2 8.8-1.9 4-5.6 6.5-3.8 2.4-8.8 2.9v8.6z"/>
			</g>
			<path id="&lt;Path&gt;" class="s4" d="m234.1 472.9c0-38.4-31.2-69.6-69.6-69.6-38.4 0-69.6 31.2-69.6 69.6 0 38.5 31.2 69.6 69.6 69.6 38.4 0 69.6-31.1 69.6-69.6z"/>
			<path id="&lt;Path&gt;" class="s4" d="m223 472.9c0-32.3-26.2-58.5-58.5-58.5-32.3 0-58.5 26.2-58.5 58.5 0 32.3 26.2 58.5 58.5 58.5 32.3 0 58.5-26.2 58.5-58.5z"/>
		</g>
		<g id="&lt;Group&gt;">
			<g id="&lt;Group&gt;">
				<path id="&lt;Compound Path&gt;" class="s4" d="m611.6 342.7v-8.5q-9.4-0.4-14.1-6.1-4.7-5.7-5-16.9l12.9-2.2q0.2 4.6 0.9 7.6 0.8 3.1 2.4 4.6 1.5 1.5 4 1.5 2.8 0 3.9-1.8 1-1.8 1-4.2 0-4.7-2.1-7.8-2.2-3.2-5.9-6.4l-7.8-6.7q-2.6-2.5-4.8-5-2.1-2.6-3.3-5.9-1.2-3.3-1.2-7.8 0-8.6 4.9-13.4 4.9-4.8 13.1-5.4v-8.2h4.4v8.2q4.9 0.2 8.1 2.2 3.2 2 4.8 5 1.7 2.9 2.4 6.5 0.7 3.5 0.9 6.8l-13.1 1.9q-0.1-3.4-0.5-6-0.5-2.6-1.7-4.1-1.2-1.4-3.6-1.3-2.6 0-3.9 2-1.4 1.9-1.4 4.3 0 4.2 2 6.7 2.1 2.6 4.6 5l7.6 6.6q3 2.7 5.6 5.9 2.6 3.2 4.1 7.1 1.6 3.9 1.6 9 0 4.8-2 8.8-2 4-5.7 6.4-3.7 2.5-8.7 3v8.6z"/>
			</g>
			<path id="&lt;Path&gt;" class="s4" d="m681.8 296.4c0-38.4-31.2-69.6-69.6-69.6-38.5 0-69.6 31.2-69.6 69.6 0 38.4 31.1 69.6 69.6 69.6 38.4 0 69.6-31.2 69.6-69.6z"/>
			<path id="&lt;Path&gt;" class="s4" d="m670.7 296.4c0-32.3-26.2-58.5-58.5-58.5-32.3 0-58.5 26.2-58.5 58.5 0 32.3 26.2 58.5 58.5 58.5 32.3 0 58.5-26.2 58.5-58.5z"/>
		</g>
		<g id="&lt;Group&gt;">
			<g id="&lt;Group&gt;">
				<path id="&lt;Compound Path&gt;" class="s4" d="m1385.2 522.8v-9.2q-10.2-0.4-15.3-6.6-5.1-6.1-5.5-18.3l14.1-2.4q0.2 4.9 1 8.3 0.8 3.3 2.5 4.9 1.7 1.7 4.4 1.7 3.1 0 4.2-2 1.2-2 1.2-4.6 0-5-2.4-8.5-2.3-3.4-6.4-6.9l-8.4-7.2q-2.9-2.7-5.2-5.5-2.3-2.8-3.6-6.3-1.4-3.6-1.4-8.5 0-9.3 5.4-14.5 5.3-5.2 14.2-5.9v-8.9h4.8v8.9q5.3 0.3 8.8 2.4 3.4 2.1 5.2 5.4 1.8 3.2 2.6 7 0.8 3.8 1 7.4l-14.2 2.1q-0.1-3.7-0.6-6.5-0.5-2.8-1.8-4.4-1.3-1.6-4-1.5-2.8 0.1-4.2 2.2-1.5 2-1.5 4.6 0 4.6 2.2 7.4 2.2 2.8 5 5.3l8.2 7.2q3.3 3 6.1 6.4 2.8 3.5 4.5 7.7 1.7 4.3 1.7 9.7 0 5.3-2.2 9.6-2.1 4.3-6.1 7-4.1 2.7-9.5 3.2v9.3z"/>
			</g>
			<path id="&lt;Path&gt;" class="s4" d="m1461.3 472.6c0-41.7-33.8-75.5-75.5-75.5-41.7 0-75.5 33.8-75.5 75.5 0 41.7 33.8 75.5 75.5 75.5 41.7 0 75.5-33.8 75.5-75.5z"/>
			<path id="&lt;Path&gt;" class="s4" d="m1449.3 472.6c0-35-28.4-63.4-63.5-63.4-35 0-63.4 28.4-63.4 63.4 0 35.1 28.4 63.5 63.4 63.5 35.1 0 63.5-28.4 63.5-63.5z"/>
		</g>
	</g>
	<g id="Device">
		<g id="&lt;Group&gt;">
			<path id="&lt;Path&gt;" class="s5" d="m1040.5 830.2h-788.7l-110.4-533.5c-1.5-7.1 3.1-12.8 10.1-12.8h763.1c7.1 0 14 5.7 15.5 12.8z"/>
			<path id="&lt;Path&gt;" class="s6" d="m1048.8 830.2h-788.7l-110.4-533.5c-1.5-7.1 3.1-12.8 10.1-12.8h763.1c7.1 0 14 5.7 15.5 12.8z"/>
			<path id="&lt;Path&gt;" class="s7" d="m1023.4 810h-746.3l-104.7-505.9h746.3z"/>
			<path id="&lt;Path&gt;" class="s7" d="m340.7 304.1l104.7 505.9h409.9l-104.7-505.9z"/>
			<path id="&lt;Path&gt;" class="s8" d="m926.3 340.8l-7.6-36.7h-746.3l7.6 36.7z"/>
			<g id="&lt;Group&gt;">
				<path id="&lt;Path&gt;" class="s7" d="m928.8 441.4l-6.6-31.8c-0.2-1.1-1.3-2-2.4-2h-84c-1.6 0-2.8 1.5-2.5 3l6.6 31.8c0.3 1.1 1.3 2 2.5 2h83.9c1.6 0 2.8-1.5 2.5-3z"/>
				<path id="&lt;Path&gt;" class="s7" d="m940.5 497l-6.6-31.8c-0.2-1.1-1.3-1.9-2.4-1.9h-84c-1.6 0-2.8 1.4-2.4 3l6.5 31.7c0.3 1.2 1.3 2 2.5 2h83.9c1.6 0 2.8-1.4 2.5-3z"/>
				<path id="&lt;Path&gt;" class="s7" d="m952.2 552.7l-6.6-31.8c-0.2-1.2-1.2-2-2.4-2h-84c-1.6 0-2.7 1.4-2.4 3l6.5 31.8c0.3 1.1 1.3 1.9 2.5 1.9h84c1.5 0 2.7-1.4 2.4-2.9z"/>
				<path id="&lt;Path&gt;" class="s7" d="m963.9 608.3l-6.6-31.8c-0.2-1.1-1.2-2-2.4-2h-84c-1.6 0-2.7 1.5-2.4 3l6.6 31.8c0.2 1.2 1.2 2 2.4 2h84c1.5 0 2.7-1.5 2.4-3z"/>
			</g>
			<g id="&lt;Group&gt;">
				<path id="&lt;Path&gt;" class="s7" d="m309.5 441.4l-6.6-31.8c-0.3-1.1-1.3-2-2.5-2h-83.9c-1.6 0-2.8 1.5-2.5 3l6.6 31.8c0.2 1.1 1.3 2 2.4 2h84c1.6 0 2.8-1.5 2.5-3z"/>
				<path id="&lt;Path&gt;" class="s7" d="m321.2 497l-6.6-31.8c-0.2-1.1-1.3-1.9-2.4-1.9h-84c-1.6 0-2.8 1.4-2.5 3l6.6 31.7c0.3 1.2 1.3 2 2.5 2h83.9c1.6 0 2.8-1.4 2.5-3z"/>
				<path id="&lt;Path&gt;" class="s7" d="m332.9 552.7l-6.6-31.8c-0.2-1.2-1.2-2-2.4-2h-84c-1.6 0-2.8 1.4-2.4 3l6.5 31.8c0.3 1.1 1.3 1.9 2.5 1.9h83.9c1.6 0 2.8-1.4 2.5-2.9z"/>
				<path id="&lt;Path&gt;" class="s7" d="m344.6 608.3l-6.6-31.8c-0.2-1.1-1.2-2-2.4-2h-84c-1.6 0-2.7 1.5-2.4 3l6.5 31.8c0.3 1.2 1.3 2 2.5 2h84c1.5 0 2.7-1.5 2.4-3z"/>
			</g>
			<path id="&lt;Path&gt;" class="s8" d="m271.4 782.2l5.7 27.8h746.3l-5.7-27.8z"/>
			<path id="&lt;Path&gt;" class="s5" d="m1399.7 830.2h-1147.8v-22.3h1147.8z"/>
			<path id="&lt;Path&gt;" class="s6" d="m786.7 807.9v22.3h613v-22.3z"/>
		</g>
	</g>
	<g id="Character">
		<g id="&lt;Group&gt;">
			<g id="&lt;Group&gt;">
				<path id="&lt;Path&gt;" class="s5" d="m1197 421c0 0-7.5-7.3-10.8-1.1-3.4 6.2 3.7 10.7 3.1 12-0.5 1.3-1.6 2.8 0 4.7 1.7 1.9 10.7-6.2 11.3-7.2 0.6-0.9-3.6-8.4-3.6-8.4z"/>
				<g id="&lt;Group&gt;">
					<path id="&lt;Path&gt;" class="s9" d="m1278.3 758.8c0 0 10.5 28 11.6 31.4 1.1 3.4 3.4 7.6-0.3 9.3-3.7 1.7-8.5 0.6-10.4 0.6-2 0-5.7 2.2-8.5 3.9-2.8 1.7-12.4 2-13.6 2-1.1 0-3.1-2.5-2.2-4 0.8-1.4 6.7-4.2 9.6-6.2 2.8-1.9 8.4-11.6 8.2-13.8-0.3-2.3-7.9-17.8-7.9-17.8z"/>
					<path id="&lt;Path&gt;" class="s5" d="m1254.9 802c0.8-1.4 6.7-4.2 9.6-6.2 1.9-1.3 5.1-6.2 6.9-9.9 0.4 0.1 2 0.3 3 1.7 1.1 1.7 1.7 3.1 1.7 3.1 0 0 7.1-1.9 12.5-4.3 0.6 1.8 1.1 3.2 1.3 3.8 1.1 3.4 3.4 7.6-0.3 9.3-3.7 1.7-8.5 0.6-10.4 0.6-2 0-5.7 2.2-8.5 3.9-2.8 1.7-12.4 2-13.6 2-1.1 0-3.1-2.5-2.2-4z"/>
				</g>
				<path id="&lt;Path&gt;" class="s5" d="m1244.7 647.2c0 0-1.7 37.3-0.6 41.3 1.2 3.9 12.2 13.8 14.7 22 2.6 8.2 22.3 53.1 22.3 53.1l-21.7 10.2c0 0-29.4-46.9-34.2-61-4.8-14.2-17.8-44.4-17.8-44.4z"/>
				<g id="&lt;Group&gt;">
					<path id="&lt;Path&gt;" class="s9" d="m1146.1 764.6l-15.6 19c0 0-12.4 0.5-17.2-0.9-4.8-1.4-10.2-7-10.7-4.2-0.6 2.8 1.7 9.9 5.3 13.8 3.7 4 19.2 11.3 23.2 12.7 4 1.5 6.2-2.8 7.1-4.8 0.8-1.9 1.7-6.5 2.5-8.1 0.8-1.7 20.6-21 20.6-21z"/>
					<path id="&lt;Path&gt;" class="s5" d="m1113.3 782.7c1.9 0.6 5.2 0.9 8.3 0.9l-0.7 6.5c0 0 11.4 4.7 18.5 5.9-0.4 1.6-0.8 3.2-1.2 4.2-0.9 2-3.1 6.3-7.1 4.8-4-1.4-19.5-8.7-23.2-12.7-3.6-3.9-5.9-11-5.3-13.8 0.5-2.8 5.9 2.8 10.7 4.2z"/>
				</g>
				<g id="&lt;Group&gt;">
					<path id="&lt;Path&gt;" class="s5" d="m1234.2 576.2l2.3 7.3c0 0 21 22.3 22 37.4 1 15.1-5.2 26.5-11.5 30.8-6.3 4.2-46 50-48.3 53.8-2.2 3.8-7.4 29.2-14 40-6.5 10.9-22.6 37.4-22.6 37.4l-22-15.1c0 0 25.7-49 31-64.6 5.3-15.6 8.3-27.1 11.3-33.2 3-6 10.3-28.9 10.3-28.9 0 0-5.5-18.9-6.3-33.7-0.7-14.8 0.3-33.7 0.3-33.7z"/>
					<path id="&lt;Path&gt;" class="s10" d="m1217.5 684.1l20.8-27.4"/>
					<path id="&lt;Path&gt;" class="s10" d="m1192.7 641.1c0 0 5.3-13.1 11.3-19.9"/>
				</g>
				<path id="&lt;Path&gt;" class="s9" d="m1236.1 582.2l-49.7-1c0.1-4.5 0.3-7.5 0.3-7.5l47.5 2.5z"/>
				<path id="&lt;Path&gt;" class="s9" d="m1181.5 546.3l-5.4 16.8-63.6 10.4 82 9.8-2.8-35.8c0 0-6.6-8.4-10.2-1.2z"/>
				<g id="&lt;Group&gt;">
					<g id="&lt;Group&gt;">
						<path id="&lt;Path&gt;" class="s8" d="m1248.2 528.5c-0.3-10.6-3.1-19.1-4.3-22.2-3-2.2-6.9-4.2-11.7-5.5-18.6-5.1-28.6-1.5-32.1 1.3-3.5 2.8-14.9 13-17.5 23.1-2.5 10-1 50.3-1 50.3 16.6 5.2 56.6 5 56.6 5l7.8-25.6c1.1-7.6 2.4-18.5 2.2-26.4z"/>
					</g>
				</g>
				<g id="&lt;Group&gt;">
					<path id="&lt;Path&gt;" class="s9" d="m1195.9 431.9c0 0-6.5 6.9-7.4 9.9-1 3-3.2 8.8-6 11.3-2.8 2.5-7.3 2.7-6.8 5.1 0.4 2.4 3 5.6 3 5.6 0 0-0.3 6.3 0.4 10.2 0.6 3.9 1.1 8.6 2.6 9.2 1.5 0.6 15.1-0.9 15.1-0.9 0 0 8.1 7.5 8.1 11.4 0 4-9.2 12.2-9.2 12.2 0 0-4.7 5.6 0.6 8.8 5.2 3.2 22.9-10 25.2-12.1 2.2-2.1-4 3.9 0.9-11.3 4.9-15.2 5.6-22.4 0.8-34.7-4.8-12.4-27.3-24.7-27.3-24.7z"/>
					<path id="&lt;Path&gt;" class="s5" d="m1196.8 482.3l5.5-2.4-0.9 7.7z"/>
					<path id="&lt;Path&gt;" class="s2" d="m1195.4 448.9c0 0-0.7-5.6-5.5-5.2"/>
					<path id="&lt;Path&gt;" class="s2" d="m1192 464c0 0-3.2 4.1-9.4 2.7"/>
					<path id="&lt;Path&gt;" class="s3" d="m1189.7 452.8c-0.8 1.4-1.9 2.4-2.6 2-0.7-0.3-0.6-1.8 0.1-3.2 0.7-1.5 1.9-2.4 2.6-2.1 0.6 0.4 0.6 1.8-0.1 3.3z"/>
				</g>
				<path id="&lt;Path&gt;" class="s5" d="m1231.1 426.2c0 0-6.9-8.6-16.8-11-9.8-2.4-16.2 0.8-19 4.8-2.8 4.1-1.8 8.3 4.1 15.4 6 7.1 9.9 10.7 9.8 12.4-0.1 1.7-2.4 8.5-1.4 10.3 0 0 4.9-5.5 8.9-1.9 3.9 3.6 2.4 11.2-0.8 12.7-3.2 1.4-6.6 0.7-6.6 0.7 0 0 4.3 3.6 4.9 7.5 0.6 3.9-7 10.5-5.6 20.3 1.5 9.9 8.2 15.9 12.8 15 4.7-0.8 9.4-8.7 13.5-8.2 4 0.6 2.9 8.3 7.4 9.8 4.6 1.4 5-2.7 8.3-0.7 3.3 2 1.5 5.3 4.7 6.2 3.2 0.8 9.7-3.7 10.7-3.1 1.1 0.6-0.2 1.2-0.9 5.1-0.8 3.9 1.7 6.6 6.7 5.6 5-0.9 11-5.4 8.8-12.4-2.2-7.1-7.5-4.3-8-6.8-0.6-2.6 6.9 0.3 5.7-14.3-1.2-14.7-7.2-10.6-11.5-9.9-4.3 0.6-8.7-5-5.1-10.3 3.6-5.3 8.7-5.6 3-14.7-5.7-9-14.3-4.3-17.3-6.4-2.9-2 2-9.6-5-17.7-7.1-8-11.3-8.4-11.3-8.4z"/>
			</g>
			<g id="&lt;Group&gt;">
				<g id="&lt;Group&gt;">
					<g id="&lt;Group&gt;">
						<path id="&lt;Path&gt;" class="s2" d="m1066.3 639.7l-8.8 94.2"/>
						<path id="&lt;Path&gt;" class="s2" d="m1044.9 639.7l-5.3 94.2"/>
						<path id="&lt;Path&gt;" class="s2" d="m1023.5 639.7l-1.9 94.2"/>
						<path id="&lt;Path&gt;" class="s2" d="m1002 639.7l1.7 94.2"/>
						<path id="&lt;Path&gt;" class="s2" d="m980.6 639.7l5.2 94.2"/>
						<path id="&lt;Path&gt;" class="s2" d="m959.2 639.7l8.7 94.2"/>
						<path id="&lt;Path&gt;" class="s2" d="m937.8 639.7l12.1 94.2"/>
					</g>
					<path id="&lt;Path&gt;" class="s2" d="m1084.4 659.7h-166.2"/>
					<path id="&lt;Path&gt;" class="s2" d="m1081.9 680h-160.4"/>
					<path id="&lt;Path&gt;" class="s2" d="m1080 700.3h-155.9"/>
					<path id="&lt;Path&gt;" class="s2" d="m1078.5 720.6h-150"/>
				</g>
				<path id="&lt;Path&gt;" class="s9" d="m1243.4 533.9c0 0-29.1 54.3-31.8 54.3-2.7 0-85.1-10.1-85.1-10.1l-4 3.2-13 5.8c0 0-6.8 0.1-5.2-3.7 1.6-3.9-2.7-4.4 1.2-8.3 3.8-3.8 6.4-4.1 6.4-4.1l89.3-6.4c0 0 17-43.9 20.2-52.2 3.3-8.2 17.1-5.4 17.1-5.4 0 0 11.2 6.9 4.9 26.9z"/>
				<path id="&lt;Path&gt;" class="s5" d="m1106.9 579.1c0-3.1 2.5-5.6 5.6-5.6 3.2 0 5.7 2.5 5.7 5.6 0 3.1-2.5 5.7-5.7 5.7-3.1 0-5.6-2.6-5.6-5.7z"/>
				<path id="&lt;Path&gt;" class="s11" d="m1112.5 579.1l-18.8 13.3-18.1 144.1h-144.5l-17.7-97.5h171.4"/>
				<g id="&lt;Group&gt;">
					<path id="&lt;Path&gt;" class="s5" d="m1069.2 794.2c0-6.6 5.3-11.8 11.9-11.8 6.5 0 11.8 5.2 11.8 11.8 0 6.5-5.3 11.8-11.8 11.8-6.6 0-11.9-5.3-11.9-11.8z"/>
					<path id="&lt;Path&gt;" class="s12" d="m1083 779v14.4h-5.6c0 0 2.2-6.2-1.5-7.7-3.6-1.5-9.6-5.2-10.3-7.4z"/>
				</g>
				<g id="&lt;Group&gt;">
					<path id="&lt;Path&gt;" class="s5" d="m941.8 794.2c0-6.6 5.2-11.8 11.8-11.8 6.5 0 11.8 5.2 11.8 11.8 0 6.5-5.3 11.8-11.8 11.8-6.6 0-11.8-5.3-11.8-11.8z"/>
					<path id="&lt;Path&gt;" class="s12" d="m955.5 779v14.4h-5.6c0 0 2.3-6.2-1.4-7.7-3.7-1.5-9.6-5.2-10.4-7.4z"/>
				</g>
				<path id="&lt;Path&gt;" class="s11" d="m1075.6 736.5l14.7 23.7c1.9 3 2.1 6.7 0.7 10-1.7 3.8-5.5 6.2-9.7 6.2h-147.2"/>
			</g>
		</g>
	</g>
	<g id="Awning">
		<path id="&lt;Path&gt;" class="s13" d="m784.4 418.8l-0.6-1.1v-3.2l-41.4-72.6h-58.3-58.2-0.1-58.2-58.2-0.1-58.2-53.9-4.4-58.4l39.7 72.6h-0.3v27.6c0 13.1 10.4 23.7 23.2 23.7h12.2c9.8 0 20.5-6.2 25.1-15 3.4 8.8 11.7 15 21.5 15h12.2c12.6 0 22.9-10.3 23.2-23.1 0.3 12.8 10.5 23.1 23.2 23.1h12.1c12.6 0 22.9-10.3 23.2-23.1 0.3 12.8 10.5 23.1 23.2 23.1h12.1c12.7 0 22.9-10.3 23.2-23.1 0.3 12.8 10.6 23.1 23.2 23.1h12.1c12.7 0 22.9-10.3 23.2-23.1 0.3 12.8 10.6 23.1 23.2 23.1h12.2c12.6 0 22.8-10.3 23.1-23.1 0.3 12.8 10.6 23.1 23.2 23.1h12.2c12.8 0 23.2-10.6 23.2-23.7z"/>
		<g id="&lt;Group&gt;">
			<g id="&lt;Group&gt;">
				<path id="&lt;Path&gt;" class="s14" d="m508 403.7h-58.6l-42.3-62.3h58.7z"/>
				<path id="&lt;Path&gt;" class="s7" d="m566.7 403.7h-58.7l-42.3-62.3h58.7z"/>
				<path id="&lt;Path&gt;" class="s7" d="m449.3 403.7h-58.7l-42.2-62.3h58.6z"/>
				<path id="&lt;Path&gt;" class="s14" d="m625.3 403.7h-58.7l-42.3-62.3h58.7z"/>
				<path id="&lt;Path&gt;" class="s7" d="m683.9 403.7h-58.7l-42.2-62.3h58.6z"/>
				<path id="&lt;Path&gt;" class="s14" d="m742.5 403.7h-58.7l-42.2-62.3h58.7z"/>
				<path id="&lt;Path&gt;" class="s7" d="m801.1 403.7h-58.6l-42.3-62.3h58.7z"/>
			</g>
			<g id="&lt;Group&gt;">
				<path id="&lt;Path&gt;" class="s14" d="m485.4 448.4h-12.1c-12.9 0-23.2-10.4-23.2-23.2v-21.1h58.5v21.1c0 12.8-10.4 23.2-23.2 23.2z"/>
				<path id="&lt;Path&gt;" class="s7" d="m543.9 448.4h-12.1c-12.8 0-23.2-10.4-23.2-23.2v-21.1h58.5v21.1c0 12.8-10.4 23.2-23.2 23.2z"/>
				<path id="&lt;Path&gt;" class="s7" d="m426.6 448.4h-12.2c-12.8 0-23.2-10.4-23.2-23.2v-21.1h58.6v21.1c0 12.8-10.4 23.2-23.2 23.2z"/>
				<path id="&lt;Path&gt;" class="s14" d="m602.4 448.4h-12.1c-12.8 0-23.2-10.4-23.2-23.2v-21.1h58.6v21.1c0 12.8-10.4 23.2-23.3 23.2z"/>
				<path id="&lt;Path&gt;" class="s7" d="m661 448.4h-12.2c-12.8 0-23.2-10.4-23.2-23.2v-21.1h58.6v21.1c0 12.8-10.4 23.2-23.2 23.2z"/>
				<path id="&lt;Path&gt;" class="s14" d="m719.5 448.4h-12.2c-12.8 0-23.2-10.4-23.2-23.2v-21.1h58.6v21.1c0 12.8-10.4 23.2-23.2 23.2z"/>
				<path id="&lt;Path&gt;" class="s7" d="m778 448.4h-12.2c-12.8 0-23.2-10.4-23.2-23.2v-21.1h58.6v21.1c0 12.8-10.4 23.2-23.2 23.2z"/>
			</g>
		</g>
	</g>
	<g id="Button">
		<path id="&lt;Path&gt;" class="s14" d="m715.9 620.6h-193.8c-9.1 0-18-7.3-19.9-16.4l-12.5-58.3c-2-9 3.8-16.4 12.9-16.4h193.8c9.1 0 18 7.4 19.9 16.4l12.5 58.3c2 9.1-3.8 16.4-12.9 16.4z"/>
	</g>
	<g id="Text">
		<g id="&lt;Group&gt;">
			<g id="&lt;Group&gt;">
				<path id="&lt;Compound Path&gt;" class="s3" d="m534.2 590.9q-4 0-6.6-1.5-2.6-1.4-4.1-4.1-1.5-2.7-2.3-6.2l-2.7-12.8q-0.8-3.7-0.5-6.3 0.4-2.7 2.4-4.1 2-1.5 5.9-1.5 3.9 0 6.3 1.3 2.5 1.3 3.9 3.6 1.4 2.3 2 5.4l0.7 3h-7.1l-0.7-3.4q-0.3-1.2-0.6-2.3-0.4-1-1.1-1.7-0.8-0.7-2.2-0.7-1.5 0-2 0.7-0.5 0.7-0.4 1.8 0.1 1.2 0.3 2.5l3.5 16.2q0.3 1.5 0.8 2.6 0.5 1.1 1.3 1.7 0.8 0.6 2.1 0.6 1.4 0 1.8-0.7 0.5-0.7 0.4-1.8-0.1-1.1-0.4-2.4l-0.7-3.5h7l0.7 3q0.6 3.1 0.3 5.5-0.4 2.4-2.3 3.8-1.8 1.3-5.7 1.3z"/>
				<path id="&lt;Compound Path&gt;" class="s3" d="m548.6 590.5l-7.7-35.6h7.3l3.1 14.6h6.3l-3.1-14.6h7.2l7.7 35.6h-7.3l-3.4-15.8h-6.3l3.4 15.8z"/>
				<path id="&lt;Compound Path&gt;" class="s3" d="m574.8 590.5l-7.6-35.6h15.5l1.1 5h-8.3l2.1 9.4h6.3l1.1 5.1h-6.3l2.3 11.1h8.4l1 5z"/>
				<path id="&lt;Compound Path&gt;" class="s3" d="m604.1 590.9q-4 0-6.6-1.5-2.6-1.4-4.1-4.1-1.5-2.7-2.3-6.2l-2.7-12.8q-0.8-3.7-0.4-6.3 0.3-2.7 2.3-4.1 2-1.5 6-1.5 3.8 0 6.2 1.3 2.5 1.3 3.9 3.6 1.4 2.3 2 5.4l0.7 3h-7l-0.8-3.4q-0.2-1.2-0.6-2.3-0.4-1-1.1-1.7-0.7-0.7-2.2-0.7-1.4 0-1.9 0.7-0.6 0.7-0.5 1.8 0.1 1.2 0.4 2.5l3.4 16.2q0.4 1.5 0.8 2.6 0.5 1.1 1.3 1.7 0.8 0.6 2.1 0.6 1.4 0 1.9-0.7 0.4-0.7 0.3-1.8-0.1-1.1-0.3-2.4l-0.8-3.5h7l0.7 3q0.6 3.1 0.3 5.5-0.4 2.4-2.2 3.8-1.9 1.3-5.8 1.3z"/>
				<path id="&lt;Compound Path&gt;" class="s3" d="m618.4 590.5l-7.6-35.6h7.2l3.2 15 3.2-15h7.1l-3.3 16 11.4 19.6h-7.3l-8.9-16-0.7 2 3 14z"/>
				<path id="&lt;Compound Path&gt;" fill-rule="evenodd" class="s3" d="m651.9 590.9q-3.9 0-6.4-1.4-2.6-1.4-4.2-4-1.5-2.6-2.3-6.3l-2.9-13.2q-0.7-3.7-0.3-6.3 0.4-2.6 2.4-3.9 2-1.4 5.9-1.4 4 0 6.6 1.4 2.6 1.4 4.1 4 1.6 2.5 2.3 6.2l2.9 13.2q0.8 3.7 0.3 6.3-0.4 2.6-2.4 4-2 1.4-6 1.4zm-1.1-5.2q1.4 0 2-0.6 0.5-0.7 0.5-1.7 0-1.1-0.3-2.4l-3.6-16.8q-0.3-1.2-0.7-2.3-0.5-1-1.3-1.7-0.8-0.6-2.2-0.6-1.3 0-1.8 0.6-0.5 0.7-0.5 1.7 0 1.1 0.2 2.3l3.7 16.8q0.2 1.3 0.6 2.4 0.5 1 1.3 1.7 0.8 0.6 2.1 0.6z"/>
				<path id="&lt;Compound Path&gt;" class="s3" d="m677.4 590.9q-4.1 0-6.6-1.3-2.6-1.4-4-4-1.5-2.7-2.3-6.4l-5.2-24.3h7.2l5.4 25.3q0.3 1.3 0.7 2.6 0.5 1.3 1.4 2.1 0.8 0.8 2.2 0.8 1.5 0 2-0.8 0.5-0.8 0.4-2.1-0.1-1.3-0.4-2.6l-5.4-25.3h7.1l5.3 24.3q0.8 3.7 0.4 6.4-0.3 2.6-2.3 4-1.9 1.3-5.9 1.3z"/>
				<path id="&lt;Compound Path&gt;" class="s3" d="m696 590.5l-6.5-30.2h-5.5l-1.2-5.4h18.2l1.2 5.4h-5.4l6.5 30.2z"/>
			</g>
		</g>
	</g>
</svg>