<svg version="1.2" xmlns="http://www.w3.org/2000/svg" viewBox="0 0 1500 1000" width="1500" height="1000">
	<title>8459326-ai</title>
	<style>
		.s0 { fill: #e0e0e0 } 
		.s1 { fill: #F7B9C7 } 
		.s2 { fill: #F7B9C7 } 
		.s3 { fill: #F7B9C7 } 
		.s4 { fill: #F7B9C7 } 
		.s5 { fill:  #BA68C8 } 
		.s6 { opacity: .7;fill: #F7B9C7 } 
		.s7 { opacity: .3;fill: #F7B9C7 } 
		.s8 { opacity: .3;fill: #000000 } 
		.s9 { fill: none;stroke:  #BA68C8;stroke-linecap: round;stroke-linejoin: round;stroke-width: 2 } 
		.s10 { opacity: .1;fill: #000000 } 
		.s11 { fill: #F7B9C7 } 
		.s12 { fill: none;stroke:  #BA68C8;stroke-miterlimit:10;stroke-width: 2 } 
		.s13 { fill: none;stroke:  #BA68C8;stroke-miterlimit:10;stroke-width: 1.5 } 
		.s14 { opacity: .2;fill: #000000 } 
		.s15 { opacity: .5;fill: #F7B9C7 } 
		.s16 { opacity: .8;fill: #F7B9C7 } 
		.s17 { fill: #263238 } 
		.s18 { opacity: .3;fill: none;stroke: #000000;stroke-linecap: round;stroke-linejoin: round } 
		.s19 { fill: #cd877b } 
		.s20 { fill: #7f2e2e } 
		.s21 { fill: #9f5b53 } 
		.s22 { fill:  #BA68C8} 
		.s23 { opacity: .5;fill: #000000 } 
		.s24 { opacity: .4;fill: #000000 } 
		.s25 { fill: #c15854 } 
		.s26 { fill: #895555 } 
		.s27 { fill: #6d3939 } 
		.s28 { opacity: .2;fill: none;stroke: #000000;stroke-linecap: round;stroke-linejoin: round } 
		.s29 { fill: none;stroke:  #BA68C8;stroke-linecap: round;stroke-linejoin: round } 
	</style>
	<g id="Background complete">
		<g id="&lt;Group&gt;">
			<g id="&lt;Group&gt;">
				<g id="&lt;Group&gt;">
					<g id="&lt;Group&gt;">
						<g id="&lt;Group&gt;">
							<path id="&lt;Compound Path&gt;" fill-rule="evenodd" class="s0" d="m1347.5 668h-361.5c-6.5 0-11.7-5.3-11.7-11.7v-526.6c0-6.4 5.2-11.7 11.7-11.7h361.5c6.4 0 11.7 5.3 11.7 11.7v526.6c0 6.4-5.3 11.7-11.7 11.7zm-361.5-549.5c-6.2 0-11.2 5-11.2 11.2v526.6c0 6.2 5 11.2 11.2 11.2h361.5c6.2 0 11.2-5 11.2-11.2v-526.6c0-6.2-5-11.2-11.2-11.2z"/>
						</g>
					</g>
					<g id="&lt;Group&gt;">
						<g id="&lt;Group&gt;">
							<path id="&lt;Compound Path&gt;" fill-rule="evenodd" class="s0" d="m930.6 668h-361.5c-6.4 0-11.7-5.3-11.7-11.7v-526.6c0-6.4 5.3-11.7 11.7-11.7h361.5c6.5 0 11.7 5.3 11.7 11.7v526.6c0 6.4-5.2 11.7-11.7 11.7zm-361.5-549.5c-6.2 0-11.2 5-11.2 11.2v526.6c0 6.2 5 11.2 11.2 11.2h361.5c6.2 0 11.2-5 11.2-11.2v-526.6c0-6.2-5-11.2-11.2-11.2z"/>
						</g>
					</g>
				</g>
				<g id="&lt;Group&gt;">
					<g id="&lt;Group&gt;">
						<g id="&lt;Group&gt;">
							<path id="&lt;Compound Path&gt;" fill-rule="evenodd" class="s0" d="m514 668h-361.5c-6.4 0-11.7-5.3-11.7-11.7v-526.6c0-6.4 5.3-11.7 11.7-11.7h361.5c6.5 0 11.7 5.3 11.7 11.7v526.6c0 6.4-5.2 11.7-11.7 11.7zm-361.5-549.5c-6.2 0-11.2 5-11.2 11.2v526.6c0 6.2 5 11.2 11.2 11.2h361.5c6.2 0 11.2-5 11.2-11.2v-526.6c0-6.2-5-11.2-11.2-11.2z"/>
						</g>
					</g>
				</g>
				<g id="&lt;Group&gt;">
					<g id="&lt;Group&gt;">
						<path id="&lt;Path&gt;" class="s0" d="m1500 730.9h-1500v-0.3h1500z"/>
					</g>
				</g>
			</g>
			<g id="&lt;Group&gt;">
				<path id="&lt;Path&gt;" class="s0" d="m1302.9 767.5h111.4v0.8h-111.4z"/>
				<path id="&lt;Path&gt;" class="s0" d="m985.7 776.6h29.2v0.8h-29.2z"/>
				<path id="&lt;Path&gt;" class="s0" d="m76.9 741.9h145.3v0.8h-145.3z"/>
				<path id="&lt;Path&gt;" class="s0" d="m252.2 741.9h21.3v0.8h-21.3z"/>
				<path id="&lt;Path&gt;" class="s0" d="m342.8 756.1h315.2v0.8h-315.2z"/>
			</g>
		</g>
		<g id="&lt;Group&gt;">
			<g id="&lt;Group&gt;">
				<g id="&lt;Group&gt;">
					<path id="&lt;Path&gt;" class="s0" d="m1322.6 864.7c0-0.9-3.2-94.2-18.4-109-14.7-14.3-31.7-0.5-32.4 0.1l-1.5-1.8c0.2-0.2 19.3-15.8 35.6 0 15.8 15.5 18.9 106.7 19.1 110.6z"/>
				</g>
				<g id="&lt;Group&gt;">
					<path id="&lt;Path&gt;" class="s0" d="m1323.9 883c-0.1-1.1-10.4-111.9 30.1-158.4l1.8 1.6c-39.8 45.6-29.7 155.5-29.5 156.6z"/>
				</g>
				<g id="&lt;Group&gt;">
					<path id="&lt;Path&gt;" class="s0" d="m1322.4 871.3l-2.4-0.2c0.1-1.2 7.9-126-21.8-153.3l1.7-1.7c30.5 28 22.8 150 22.5 155.2z"/>
				</g>
				<g id="&lt;Group&gt;">
					<path id="&lt;Path&gt;" class="s0" d="m1326.3 871.2h-2.4c0-3.4 1-84.3 23.9-97.4 5.1-2.9 10.1-3.4 14.9-1.5 13.9 5.8 20.7 30.5 21 31.5l-2.3 0.7c0-0.3-6.8-24.7-19.6-30-4.1-1.6-8.4-1.2-12.8 1.3-21.8 12.5-22.7 94.6-22.7 95.4z"/>
				</g>
				<g id="&lt;Group&gt;">
					<path id="&lt;Path&gt;" class="s0" d="m1317.3 871.3l-2.4-0.1c0.1-0.7 3.5-63.9-13.6-86.2-4.1-5.4-8.6-8-13.3-7.6-11.2 0.7-20.6 17.1-20.7 17.3l-2.1-1.2c0.5-0.7 10.1-17.6 22.6-18.5 5.6-0.4 10.8 2.5 15.4 8.6 17.6 22.9 14.3 85.1 14.1 87.7z"/>
				</g>
				<g id="&lt;Group&gt;">
					<path id="&lt;Path&gt;" class="s0" d="m1321.1 879.9c-0.5-6.1-11.2-150.5 7.6-176l1.9 1.4c-18.3 24.8-7.3 172.9-7.2 174.4z"/>
				</g>
			</g>
			<g id="&lt;Group&gt;">
				<path id="&lt;Path&gt;" class="s1" d="m1367.8 787c0 0-11.3 4.1-7.9 14 3.3 9.8 39 25.9 39 25.9 0 0 15-13.7 1.2-35.9-13.7-22.3-32-11.1-32.3-4z"/>
			</g>
			<g id="&lt;Group&gt;">
				<path id="&lt;Path&gt;" class="s1" d="m1318.7 768.3c0 0 12.1-0.5 12.7 9.8 0.7 10.4-26 39-26 39 0 0-19.1-6.9-15-32.7 4.1-25.9 25.3-22.5 28.3-16.1z"/>
			</g>
			<g id="&lt;Group&gt;">
				<path id="&lt;Path&gt;" class="s1" d="m1308.6 718.7c0 0 8-0.9 7.3-5.8-0.6-4.8-31.1-17.4-49.1 2.9 0 0 11.5 19.8 28.2 20.1 16.6 0.2 13.6-17.2 13.6-17.2z"/>
			</g>
			<g id="&lt;Group&gt;">
				<path id="&lt;Path&gt;" class="s1" d="m1323.5 706.8c0 0-7.3 3.5-9.3-0.9-2-4.5 17.2-31.3 43.2-23.6 0 0 0.7 22.9-13.3 31.9-14 9.1-20.6-7.4-20.6-7.4z"/>
			</g>
			<g id="&lt;Group&gt;">
				<path id="&lt;Path&gt;" class="s1" d="m1285.5 783c0 0 5.6-4.4-0.4-6.6-6-2.2-35.2-1.6-35.5 27.4 0 0 34.1 5.7 38.3-5.4 4.2-11-2.4-15.4-2.4-15.4z"/>
			</g>
			<g id="&lt;Group&gt;">
				<path id="&lt;Path&gt;" class="s1" d="m1355.1 718c0 0-5.5-4.5 0.4-6.7 6-2.2 35.3-1.6 35.6 27.5 0 0-34.1 5.6-38.3-5.4-4.3-11.1 2.3-15.4 2.3-15.4z"/>
			</g>
			<g id="&lt;Group&gt;">
				<path id="&lt;Path&gt;" class="s1" d="m1337.1 741.3c0 0-0.5-5.4 3.9-3.3 4.3 2.2 19.6 18.6 3.8 34.3 0 0-21.3-15.8-17.5-24 3.9-8.3 9.8-7 9.8-7z"/>
			</g>
			<g id="&lt;Group&gt;">
				<path id="&lt;Path&gt;" class="s1" d="m1280.6 749.1c0 0 3.3-4.4-1.5-4.9-4.9-0.5-26.6 5.2-21.5 26.9 0 0 26.4-2 27.5-11 1.2-9-4.5-11-4.5-11z"/>
			</g>
			<path id="&lt;Path&gt;" class="s2" d="m1348.5 913.1h-53.3l-14.2-65.4h80.3z"/>
			<path id="&lt;Path&gt;" class="s3" d="m1365.9 865.5h-89.8v-18.8h89.8z"/>
		</g>
		<path id="&lt;Compound Path&gt;" fill-rule="evenodd" class="s2" d="m1231.7 213.8v34.8l-17.9 1.7c-2.4 11.6-7 22.4-13.3 32l11.5 13.9-24.6 24.6-13.8-11.5c-9.7 6.3-20.5 10.9-32.1 13.3l-1.7 17.9h-34.7l-1.7-17.9c-11.7-2.4-22.5-7-32.1-13.3l-13.9 11.5-24.5-24.6 11.5-13.9c-6.4-9.6-11-20.4-13.4-32l-17.9-1.7v-34.8l17.9-1.6c2.4-11.7 7-22.5 13.4-32.1l-11.5-13.9 24.5-24.6 13.9 11.5c9.6-6.3 20.4-10.9 32.1-13.3l1.7-17.9h34.7l1.7 17.9c11.6 2.4 22.4 7 32.1 13.3l13.8-11.5 24.6 24.6-11.5 13.9c6.3 9.6 10.9 20.4 13.3 32.1zm-109.3-29.7c-25.9 0-47 21.1-47 47 0 26 21.1 47 47 47 26 0 47.1-21 47.1-47 0-25.9-21.1-47-47.1-47z"/>
		<path id="&lt;Compound Path&gt;" fill-rule="evenodd" class="s2" d="m557.1 178.6v28.1l-14.5 1.3c-2 9.4-5.7 18.2-10.8 26l9.3 11.2-19.9 19.9-11.2-9.3c-7.8 5.1-16.5 8.8-26 10.8l-1.3 14.4h-28.1l-1.4-14.4c-9.4-2-18.2-5.7-25.9-10.8l-11.3 9.3-19.8-19.9 9.3-11.2c-5.2-7.8-8.9-16.6-10.8-26l-14.5-1.3v-28.1l14.5-1.4c1.9-9.4 5.6-18.2 10.8-26l-9.3-11.2 19.8-19.9 11.3 9.3c7.7-5.1 16.5-8.8 25.9-10.8l1.4-14.4h28.1l1.3 14.4c9.5 2 18.2 5.7 26 10.8l11.2-9.3 19.9 19.9-9.3 11.2c5.1 7.8 8.8 16.6 10.8 26zm-88.4-24c-21.1 0-38.1 17-38.1 38 0 21.1 17 38.1 38.1 38.1 21 0 38-17 38-38.1 0-21-17-38-38-38z"/>
		<path id="&lt;Compound Path&gt;" fill-rule="evenodd" class="s2" d="m692 629.7v28.1l-14.4 1.4c-2 9.4-5.7 18.2-10.8 25.9l9.3 11.3-19.9 19.8-11.2-9.3c-7.8 5.2-16.6 8.9-26 10.8l-1.3 14.5h-28.1l-1.4-14.5c-9.4-1.9-18.2-5.6-26-10.8l-11.2 9.3-19.9-19.8 9.3-11.3c-5.1-7.7-8.8-16.5-10.7-25.9l-14.5-1.4v-28.1l14.5-1.3c1.9-9.5 5.6-18.2 10.7-26l-9.3-11.2 19.9-19.9 11.2 9.3c7.8-5.1 16.6-8.8 26-10.8l1.4-14.4h28.1l1.3 14.4c9.4 2 18.2 5.7 26 10.8l11.2-9.3 19.9 19.9-9.3 11.2c5.1 7.8 8.8 16.5 10.8 26zm-88.5-24c-21 0-38 17-38 38 0 21 17 38.1 38 38.1 21.1 0 38.1-17.1 38.1-38.1 0-21-17-38-38.1-38z"/>
		<path id="&lt;Compound Path&gt;" fill-rule="evenodd" class="s2" d="m697.9 169.3v13.1l-6.8 0.7c-0.9 4.4-2.7 8.5-5.1 12.1l4.4 5.3-9.3 9.3-5.3-4.4c-3.6 2.4-7.7 4.2-12.1 5.1l-0.7 6.8h-13.1l-0.7-6.8c-4.4-0.9-8.5-2.7-12.1-5.1l-5.3 4.4-9.3-9.3 4.4-5.3c-2.4-3.6-4.2-7.7-5.1-12.1l-6.7-0.7v-13.1l6.7-0.7c0.9-4.4 2.7-8.5 5.1-12.1l-4.4-5.3 9.3-9.3 5.3 4.4c3.6-2.4 7.7-4.2 12.1-5.1l0.7-6.8h13.1l0.7 6.8c4.4 0.9 8.5 2.7 12.1 5.1l5.3-4.4 9.3 9.3-4.4 5.3c2.4 3.6 4.2 7.7 5.1 12.1zm-41.4-11.2c-9.8 0-17.8 8-17.8 17.8 0 9.9 8 17.8 17.8 17.8 9.8 0 17.8-7.9 17.8-17.8 0-9.8-8-17.8-17.8-17.8z"/>
		<path id="&lt;Compound Path&gt;" fill-rule="evenodd" class="s2" d="m628.6 117.6v8.7l-4.5 0.4c-0.6 2.9-1.8 5.6-3.4 8l2.9 3.5-6.1 6.1-3.5-2.8c-2.4 1.5-5.1 2.7-8 3.3l-0.4 4.5h-8.7l-0.5-4.5c-2.9-0.6-5.6-1.8-8-3.3l-3.5 2.8-6.1-6.1 2.9-3.5c-1.6-2.4-2.8-5.1-3.4-8l-4.4-0.4v-8.7l4.4-0.5c0.6-2.9 1.8-5.6 3.4-8l-2.9-3.5 6.1-6.1 3.5 2.9c2.4-1.6 5.1-2.8 8-3.4l0.5-4.4h8.7l0.4 4.4c2.9 0.6 5.6 1.8 8 3.4l3.5-2.9 6.1 6.1-2.9 3.5c1.6 2.4 2.8 5.1 3.4 8zm-27.4-7.4c-6.5 0-11.7 5.3-11.7 11.8 0 6.5 5.2 11.8 11.7 11.8 6.5 0 11.8-5.3 11.8-11.8 0-6.5-5.3-11.8-11.8-11.8z"/>
		<path id="&lt;Compound Path&gt;" fill-rule="evenodd" class="s2" d="m334.5 572.3v17.7l-9.1 0.9c-1.2 5.9-3.6 11.5-6.8 16.4l5.9 7.1-12.6 12.5-7.1-5.8c-4.9 3.2-10.4 5.5-16.4 6.8l-0.8 9.1h-17.8l-0.9-9.1c-5.9-1.3-11.4-3.6-16.3-6.8l-7.1 5.8-12.6-12.5 5.9-7.1c-3.2-4.9-5.6-10.5-6.8-16.4l-9.2-0.9v-17.7l9.2-0.9c1.2-5.9 3.6-11.5 6.8-16.4l-5.9-7.1 12.6-12.5 7.1 5.8c4.9-3.2 10.4-5.5 16.3-6.8l0.9-9.1h17.8l0.8 9.1c6 1.3 11.5 3.6 16.4 6.8l7.1-5.8 12.6 12.5-5.9 7.1c3.2 4.9 5.6 10.5 6.8 16.4zm-55.9-15.1c-13.2 0-24 10.7-24 24 0 13.3 10.8 24 24 24 13.3 0 24.1-10.7 24.1-24 0-13.3-10.8-24-24.1-24z"/>
		<path id="&lt;Compound Path&gt;" fill-rule="evenodd" class="s2" d="m1379.6 294v20.2l-10.4 1c-1.4 6.8-4.1 13.1-7.8 18.7l6.7 8.1-14.3 14.3-8.1-6.7c-5.6 3.7-11.9 6.4-18.6 7.8l-1 10.4h-20.2l-1-10.4c-6.8-1.4-13.1-4.1-18.7-7.8l-8.1 6.7-14.3-14.3 6.7-8.1c-3.7-5.6-6.4-11.9-7.8-18.7l-10.4-1v-20.2l10.4-1c1.4-6.7 4.1-13 7.8-18.6l-6.7-8.1 14.3-14.3 8.1 6.7c5.6-3.7 11.9-6.4 18.7-7.8l1-10.4h20.2l1 10.4c6.7 1.4 13 4.1 18.6 7.8l8.1-6.7 14.3 14.3-6.7 8.1c3.7 5.6 6.4 11.9 7.8 18.6zm-63.7-17.2c-15.1 0-27.3 12.2-27.3 27.4 0 15.1 12.2 27.3 27.3 27.3 15.2 0 27.4-12.2 27.4-27.3 0-15.2-12.2-27.4-27.4-27.4z"/>
	</g>
	<g id="Shadow">
		<g id="&lt;Group&gt;">
			<g id="&lt;Group&gt;">
				<path id="&lt;Path&gt;" class="s4" d="m1344 928c0 7.4-231.3 13.4-516.7 13.4-285.4 0-516.7-6-516.7-13.4 0-7.4 231.3-13.4 516.7-13.4 285.4 0 516.7 6 516.7 13.4z"/>
			</g>
		</g>
	</g>
	<g id="Colors">
		<g id="&lt;Group&gt;">
			<path id="&lt;Path&gt;" class="s5" d="m1087.9 799h-265.4c-6.7 0-12.1-5.3-12.1-12v-85c0-6.7 5.4-12 12.1-12h265.4c6.6 0 12 5.3 12 12v85c0 6.7-5.4 12-12 12z"/>
			<path id="&lt;Path&gt;" class="s6" d="m1087.9 799h-265.4c-6.7 0-12.1-5.3-12.1-12v-85c0-6.7 5.4-12 12.1-12h265.4c6.6 0 12 5.3 12 12v85c0 6.7-5.4 12-12 12z"/>
			<path id="&lt;Path&gt;" class="s5" d="m893.8 775.1h-51.4c-2.7 0-4.9-2.2-4.9-4.9v-51.4c0-2.7 2.2-4.9 4.9-4.9h51.4c2.7 0 4.9 2.2 4.9 4.9v51.4c0 2.7-2.2 4.9-4.9 4.9z"/>
			<path id="&lt;Path&gt;" class="s7" d="m893.8 775.1h-51.4c-2.7 0-4.9-2.2-4.9-4.9v-51.4c0-2.7 2.2-4.9 4.9-4.9h51.4c2.7 0 4.9 2.2 4.9 4.9v51.4c0 2.7-2.2 4.9-4.9 4.9z"/>
			<path id="&lt;Path&gt;" class="s5" d="m977.8 775.1h-51.4c-2.7 0-4.9-2.2-4.9-4.9v-51.4c0-2.7 2.2-4.9 4.9-4.9h51.4c2.7 0 4.9 2.2 4.9 4.9v51.4c0 2.7-2.2 4.9-4.9 4.9z"/>
			<path id="&lt;Path&gt;" class="s5" d="m1061.8 775.1h-51.4c-2.7 0-4.9-2.2-4.9-4.9v-51.4c0-2.7 2.2-4.9 4.9-4.9h51.4c2.7 0 4.9 2.2 4.9 4.9v51.4c0 2.7-2.2 4.9-4.9 4.9z"/>
			<path id="&lt;Path&gt;" class="s8" d="m1061.8 775.1h-51.4c-2.7 0-4.9-2.2-4.9-4.9v-51.4c0-2.7 2.2-4.9 4.9-4.9h51.4c2.7 0 4.9 2.2 4.9 4.9v51.4c0 2.7-2.2 4.9-4.9 4.9z"/>
		</g>
	</g>
	<g id="Screen 2">
		<g id="&lt;Group&gt;">
			<path id="&lt;Path&gt;" class="s5" d="m1075.8 651.6h-635c-12.9 0-23.3-10.4-23.3-23.3v-422.7c0-12.9 10.4-23.4 23.3-23.4h635c12.9 0 23.3 10.5 23.3 23.4v422.7c0 12.9-10.4 23.3-23.3 23.3z"/>
			<path id="&lt;Path&gt;" class="s6" d="m1075.8 651.6h-635c-12.9 0-23.3-10.4-23.3-23.3v-422.7c0-12.9 10.4-23.4 23.3-23.4h635c12.9 0 23.3 10.5 23.3 23.4v422.7c0 12.9-10.4 23.3-23.3 23.3z"/>
			<g id="&lt;Group&gt;">
				<path id="&lt;Path&gt;" class="s5" d="m1099.1 217.5h-681.6v-20.7c0-8.1 6.5-14.6 14.5-14.6h646.5c11.4 0 20.6 9.2 20.6 20.6z"/>
				<path id="&lt;Path&gt;" class="s7" d="m1072.9 199.9c0 4.1-3.4 7.4-7.5 7.4-4.2 0-7.5-3.3-7.5-7.4 0-4.2 3.3-7.5 7.5-7.5 4.1 0 7.5 3.3 7.5 7.5z"/>
				<path id="&lt;Path&gt;" class="s7" d="m1051.6 199.9c0 4.1-3.4 7.4-7.5 7.4-4.2 0-7.5-3.3-7.5-7.4 0-4.2 3.3-7.5 7.5-7.5 4.1 0 7.5 3.3 7.5 7.5z"/>
				<path id="&lt;Path&gt;" class="s7" d="m1030.3 199.9c0 4.1-3.4 7.4-7.5 7.4-4.2 0-7.5-3.3-7.5-7.4 0-4.2 3.3-7.5 7.5-7.5 4.1 0 7.5 3.3 7.5 7.5z"/>
				<g id="&lt;Group&gt;">
					<path id="&lt;Path&gt;" class="s9" d="m536.6 166.5q29.4 0 58.8 0"/>
					<path id="&lt;Path&gt;" class="s9" d="m611.6 166.5q6.1 0 12.2 0"/>
				</g>
			</g>
			<path id="&lt;Path&gt;" class="s10" d="m1001.3 258.4h-501.4c-11.8 0-21.4 9.6-21.4 21.4 0 11.8 9.6 21.4 21.4 21.4h501.4c11.8 0 21.4-9.6 21.4-21.4 0-11.8-9.6-21.4-21.4-21.4z"/>
			<g id="&lt;Group&gt;">
				<path id="&lt;Path&gt;" class="s11" d="m1001.3 289.5h-501.4c-11.8 0-21.4-9.5-21.4-21.3 0-11.9 9.6-21.4 21.4-21.4h501.4c11.8 0 21.4 9.5 21.4 21.4 0 11.8-9.6 21.3-21.4 21.3z"/>
				<g id="&lt;Group&gt;">
					<path id="&lt;Path&gt;" class="s12" d="m999.4 267c0 2-0.6 3.8-1.6 5.3-1.7 2.5-4.6 4.1-7.8 4.1-5.2 0-9.5-4.2-9.5-9.4 0-5.2 4.3-9.4 9.5-9.4 5.2 0 9.4 4.2 9.4 9.4z"/>
					<path id="&lt;Path&gt;" class="s9" d="m1003.7 278.7l-6.5-5"/>
				</g>
			</g>
			<g id="&lt;Group&gt;">
				<path id="&lt;Path&gt;" class="s13" d="m869.6 485.1h-115.9c-4.5 0-8.1-3.6-8.1-8.1v-115.9c0-4.5 3.6-8.1 8.1-8.1h115.9c4.5 0 8.1 3.6 8.1 8.1v115.9c0 4.5-3.6 8.1-8.1 8.1z"/>
				<path id="&lt;Path&gt;" class="s13" d="m747.8 482.9l127.5-127.5"/>
				<path id="&lt;Path&gt;" class="s13" d="m747.8 355.2l127.5 127.5"/>
			</g>
			<g id="&lt;Group&gt;">
				<path id="&lt;Path&gt;" class="s13" d="m1034.5 485.1h-115.9c-4.4 0-8.1-3.6-8.1-8.1v-115.9c0-4.5 3.7-8.1 8.1-8.1h115.9c4.5 0 8.2 3.6 8.2 8.1v115.9c0 4.5-3.7 8.1-8.2 8.1z"/>
				<path id="&lt;Path&gt;" class="s13" d="m912.7 482.9l127.5-127.5"/>
				<path id="&lt;Path&gt;" class="s13" d="m912.7 355.2l127.5 127.5"/>
			</g>
			<path id="&lt;Path&gt;" class="s5" d="m874.9 516.1h-129.4v-6.2h129.4z"/>
			<path id="&lt;Path&gt;" class="s5" d="m874.9 534.6h-129.4v-6.2h129.4z"/>
			<path id="&lt;Path&gt;" class="s5" d="m825.1 552.9h-79.6v-6.2h79.6z"/>
			<path id="&lt;Path&gt;" class="s5" d="m1047.1 516.1h-129.4v-6.2h129.4z"/>
			<path id="&lt;Path&gt;" class="s5" d="m1047.1 534.6h-129.4v-6.2h129.4z"/>
			<path id="&lt;Path&gt;" class="s5" d="m997.3 552.9h-79.6v-6.2h79.6z"/>
			<path id="&lt;Path&gt;" class="s14" d="m682.6 502.7h-190.3c-5.4 0-9.9-4.4-9.9-9.9v-190c0-5.4 4.5-9.8 9.9-9.8h190.3c5.5 0 9.9 4.4 9.9 9.8v190c0 5.5-4.4 9.9-9.9 9.9z"/>
			<g id="&lt;Group&gt;">
				<g id="&lt;Group&gt;">
					<g id="&lt;Group&gt;">
						<g id="&lt;Group&gt;">
							<path id="&lt;Path&gt;" class="s5" d="m667.3 487.8h-190.3c-5.5 0-9.9-4.4-9.9-9.9v-189.9c0-5.5 4.4-9.9 9.9-9.9h190.3c5.5 0 9.9 4.4 9.9 9.9v189.9c0 5.5-4.4 9.9-9.9 9.9z"/>
							<path id="&lt;Path&gt;" class="s15" d="m667.3 487.8h-190.3c-5.5 0-9.9-4.4-9.9-9.9v-189.9c0-5.5 4.4-9.9 9.9-9.9h190.3c5.5 0 9.9 4.4 9.9 9.9v189.9c0 5.5-4.4 9.9-9.9 9.9z"/>
							<path id="&lt;Path&gt;" class="s5" d="m677.2 304.1h-210.1v-16.8c0-5.1 4.2-9.2 9.3-9.2h191.7c5 0 9.1 4.1 9.1 9.1z"/>
						</g>
						<g id="&lt;Group&gt;">
							<path id="&lt;Path&gt;" class="s15" d="m648.6 292.6c0 3-2.5 5.5-5.5 5.5-3.1 0-5.5-2.5-5.5-5.5 0-3.1 2.4-5.6 5.5-5.6 3 0 5.5 2.5 5.5 5.6z"/>
							<path id="&lt;Path&gt;" class="s15" d="m632.9 292.6c0 3-2.5 5.5-5.5 5.5-3 0-5.5-2.5-5.5-5.5 0-3.1 2.5-5.6 5.5-5.6 3 0 5.5 2.5 5.5 5.6z"/>
							<path id="&lt;Path&gt;" class="s15" d="m617.2 292.6c0 3-2.4 5.5-5.5 5.5-3 0-5.5-2.5-5.5-5.5 0-3.1 2.5-5.6 5.5-5.6 3.1 0 5.5 2.5 5.5 5.6z"/>
						</g>
					</g>
				</g>
				<g id="&lt;Group&gt;">
					<path id="&lt;Path&gt;" class="s15" d="m642.2 452.8h-140.1c-6.7 0-12.2-5.4-12.2-12.2v-92.3c0-10.7 8.7-19.4 19.4-19.4h132.9c6.7 0 12.2 5.5 12.2 12.2v99.5c0 6.8-5.5 12.2-12.2 12.2z"/>
					<g id="&lt;Group&gt;">
						<path id="&lt;Compound Path&gt;" fill-rule="evenodd" class="s5" d="m564.5 406.9h-34.9l-7.2 16.4h-9.6l29.7-65.6h9.3l29.8 65.6h-9.8zm-3.3-7.5l-14.2-32.2-14.2 32.2z"/>
						<path id="&lt;Compound Path&gt;" fill-rule="evenodd" class="s5" d="m629.4 393.3v30h-8.5v-6.6c-3 4.5-8.6 7.2-16.3 7.2-11.3 0-18.4-6-18.4-14.7 0-7.9 5.1-14.5 20-14.5h14.2v-1.8c0-7.6-4.4-12-13.3-12-5.9 0-11.9 2.1-15.8 5.4l-3.7-6.8c5.1-4.1 12.6-6.4 20.5-6.4 13.6 0 21.3 6.6 21.3 20.2zm-9 14.8v-6.9h-13.9c-8.9 0-11.4 3.4-11.4 7.7 0 4.9 4.1 8 11 8 6.7 0 12.1-3.1 14.3-8.8z"/>
					</g>
				</g>
			</g>
			<path id="&lt;Path&gt;" class="s13" d="m1051.8 616.6h-305.4v-24.9h305.4z"/>
			<path id="&lt;Path&gt;" class="s13" d="m692.5 538.9h-211.9v-12h211.9z"/>
			<path id="&lt;Path&gt;" class="s13" d="m692.5 566.6h-211.9v-12h211.9z"/>
			<path id="&lt;Path&gt;" class="s13" d="m692.5 594.3h-211.9v-12h211.9z"/>
		</g>
	</g>
	<g id="Screen 3">
		<g id="&lt;Group&gt;">
			<g id="&lt;Group&gt;">
				<g id="&lt;Group&gt;">
					<path id="&lt;Path&gt;" class="s5" d="m327.7 378.5h-162.7c-5.5 0-9.9-4.4-9.9-9.8v-133.7c0-5.4 4.4-9.8 9.9-9.8h162.7c5.4 0 9.8 4.4 9.8 9.8v133.7c0 5.4-4.4 9.8-9.8 9.8z"/>
					<path id="&lt;Path&gt;" class="s15" d="m327.7 378.5h-162.7c-5.5 0-9.9-4.4-9.9-9.8v-133.7c0-5.4 4.4-9.8 9.9-9.8h162.7c5.4 0 9.8 4.4 9.8 9.8v133.7c0 5.4-4.4 9.8-9.8 9.8z"/>
					<path id="&lt;Path&gt;" class="s5" d="m337.5 251.9h-182.4v-17.5c0-5.1 4.2-9.2 9.3-9.2h164c5.1 0 9.1 4 9.1 9.1z"/>
				</g>
				<g id="&lt;Group&gt;">
					<path id="&lt;Path&gt;" class="s15" d="m327.2 240.5c0 3.2-2.6 5.8-5.8 5.8-3.2 0-5.8-2.6-5.8-5.8 0-3.2 2.6-5.9 5.8-5.9 3.2 0 5.8 2.7 5.8 5.9z"/>
					<path id="&lt;Path&gt;" class="s15" d="m310.6 240.5c0 3.2-2.6 5.8-5.8 5.8-3.2 0-5.8-2.6-5.8-5.8 0-3.2 2.6-5.9 5.8-5.9 3.2 0 5.8 2.7 5.8 5.9z"/>
					<path id="&lt;Path&gt;" class="s15" d="m294 240.5c0 3.2-2.6 5.8-5.8 5.8-3.2 0-5.8-2.6-5.8-5.8 0-3.2 2.6-5.9 5.8-5.9 3.2 0 5.8 2.7 5.8 5.9z"/>
				</g>
			</g>
			<g id="&lt;Group&gt;">
				<path id="&lt;Path&gt;" class="s4" d="m243.5 314.8l15.8-43.5c5.9 2.2 11.3 5.5 15.8 9.8 4.6 4.3 8.3 9.5 10.8 15.2z"/>
				<path id="&lt;Path&gt;" class="s5" d="m243.5 314.8l13.4 44.2c-4.3 1.4-8.9 2-13.4 2-25.4 0-46.3-20.8-46.3-46.2 0-25.4 20.9-46.2 46.3-46.2 5.3 0 10.6 0.9 15.6 2.7z"/>
				<path id="&lt;Path&gt;" class="s5" d="m243.5 314.8l42.4-18.3c2.5 5.8 3.8 12 3.8 18.3 0 20.2-13.3 38.2-32.6 44.2z"/>
				<path id="&lt;Path&gt;" class="s8" d="m243.5 314.8l42.4-18.3c2.5 5.8 3.8 12 3.8 18.3 0 20.2-13.3 38.2-32.6 44.2z"/>
			</g>
		</g>
	</g>
	<g id="Screen 1">
		<g id="&lt;Group&gt;">
			<g id="&lt;Group&gt;">
				<g id="&lt;Group&gt;">
					<path id="&lt;Path&gt;" class="s5" d="m1309.7 298.1h-172.5c-5.4 0-9.8-4.4-9.8-9.9v-141.9c0-5.4 4.4-9.9 9.8-9.9h172.5c5.5 0 9.9 4.5 9.9 9.9v141.9c0 5.5-4.4 9.9-9.9 9.9z"/>
					<path id="&lt;Path&gt;" class="s15" d="m1309.7 298.1h-172.5c-5.4 0-9.8-4.4-9.8-9.9v-141.9c0-5.4 4.4-9.9 9.8-9.9h172.5c5.5 0 9.9 4.5 9.9 9.9v141.9c0 5.5-4.4 9.9-9.9 9.9z"/>
					<path id="&lt;Path&gt;" class="s5" d="m1319.6 164.6h-192.2v-18.9c0-5.1 4.1-9.3 9.2-9.3h173.9c5 0 9.1 4.1 9.1 9.1z"/>
				</g>
				<g id="&lt;Group&gt;">
					<path id="&lt;Path&gt;" class="s15" d="m1308.7 152.6c0 3.4-2.7 6.1-6.1 6.1-3.4 0-6.2-2.7-6.2-6.1 0-3.4 2.8-6.2 6.2-6.2 3.4 0 6.1 2.8 6.1 6.2z"/>
					<path id="&lt;Path&gt;" class="s15" d="m1291.2 152.6c0 3.4-2.7 6.1-6.1 6.1-3.4 0-6.2-2.7-6.2-6.1 0-3.4 2.8-6.2 6.2-6.2 3.4 0 6.1 2.8 6.1 6.2z"/>
					<path id="&lt;Path&gt;" class="s15" d="m1273.8 152.6c0 3.4-2.8 6.1-6.2 6.1-3.4 0-6.1-2.7-6.1-6.1 0-3.4 2.7-6.2 6.1-6.2 3.4 0 6.2 2.8 6.2 6.2z"/>
				</g>
			</g>
			<g id="&lt;Group&gt;">
				<path id="&lt;Path&gt;" class="s5" d="m1287.5 279.9h-124.5c-3.7 0-6.8-3.1-6.8-6.9v-80.8c0-3.8 3.1-6.9 6.8-6.9h124.5c3.8 0 6.9 3.1 6.9 6.9v80.8c0 3.8-3.1 6.9-6.9 6.9z"/>
				<path id="&lt;Path&gt;" class="s16" d="m1287.5 279.9h-124.5c-3.7 0-6.8-3.1-6.8-6.9v-80.8c0-3.8 3.1-6.9 6.8-6.9h124.5c3.8 0 6.9 3.1 6.9 6.9v80.8c0 3.8-3.1 6.9-6.9 6.9z"/>
				<path id="&lt;Path&gt;" class="s5" d="m1160 276.4l43.1-39.2 31.1 14.5 37.5-28.3 22.7 14.5v38.4c0 2-2.4 3.6-5.2 3.6h-126.7c-2.6 0-4.1-2-2.5-3.5z"/>
				<path id="&lt;Path&gt;" class="s5" d="m1244.1 208.1c0 6.5-5.3 11.7-11.9 11.7-6.6 0-11.9-5.2-11.9-11.7 0-6.5 5.3-11.7 11.9-11.7 6.6 0 11.9 5.2 11.9 11.7z"/>
			</g>
		</g>
	</g>
	<g id="Plant">
		<g id="&lt;Group&gt;">
			<g id="&lt;Group&gt;">
				<g id="&lt;Group&gt;">
					<g id="&lt;Group&gt;">
						<path id="&lt;Path&gt;" class="s17" d="m210.2 860.2c0-0.9-2.8-83.8-16.3-97-13.1-12.7-28.2-0.4-28.8 0.1l-1.4-1.6c0.2-0.2 17.2-14 31.7 0 14.1 13.7 16.8 94.9 17 98.4z"/>
					</g>
					<g id="&lt;Group&gt;">
						<path id="&lt;Path&gt;" class="s17" d="m211.4 876.5c-0.1-1-9.2-99.6 26.8-141l1.6 1.4c-35.4 40.7-26.4 138.4-26.3 139.4z"/>
					</g>
					<g id="&lt;Group&gt;">
						<path id="&lt;Path&gt;" class="s17" d="m210.1 866l-2.1-0.1c0-1.1 7-112.1-19.4-136.4l1.4-1.6c27.2 25 20.4 133.5 20.1 138.1z"/>
					</g>
					<g id="&lt;Group&gt;">
						<path id="&lt;Path&gt;" class="s17" d="m213.5 866h-2.1c0-3.1 0.9-75 21.3-86.7 4.5-2.6 9-3 13.2-1.3 12.4 5.1 18.5 27.1 18.7 28l-2 0.6c-0.1-0.2-6.1-21.9-17.5-26.6-3.6-1.5-7.4-1.1-11.4 1.1-19.3 11.1-20.2 84.1-20.2 84.9z"/>
					</g>
					<g id="&lt;Group&gt;">
						<path id="&lt;Path&gt;" class="s17" d="m205.6 866l-2.2-0.1c0.1-0.6 3.1-56.8-12.1-76.6-3.6-4.8-7.6-7.1-11.8-6.8-10 0.7-18.3 15.2-18.4 15.4l-1.9-1.1c0.4-0.6 9-15.7 20.1-16.4 5-0.4 9.6 2.2 13.7 7.6 15.7 20.4 12.7 75.7 12.6 78z"/>
					</g>
					<g id="&lt;Group&gt;">
						<path id="&lt;Path&gt;" class="s17" d="m208.9 873.7c-0.4-5.5-9.9-133.9 6.8-156.6l1.7 1.3c-16.3 22-6.5 153.8-6.4 155.1z"/>
					</g>
				</g>
				<g id="&lt;Group&gt;">
					<path id="&lt;Path&gt;" class="s5" d="m253.5 785.1c0 0-10.7 3.9-7.1 12.4 10.2 24 34.6 26.5 34.6 26.5 0 0 11.4-18.1 2.1-32.1-13-19.4-29.3-13.1-29.6-6.8z"/>
				</g>
				<g id="&lt;Group&gt;">
					<path id="&lt;Path&gt;" class="s5" d="m206.8 774.4c0 0 10.7-0.5 11.3 8.8 0.6 9.2-23.2 34.7-23.2 34.7 0 0-16.9-6.2-13.3-29.2 3.7-23 22.6-20 25.2-14.3z"/>
				</g>
				<g id="&lt;Group&gt;">
					<path id="&lt;Path&gt;" class="s5" d="m212 720.7c0 0-4.5-0.6-6.2-4.6-5-12.1 12.3-25 35.4-18.2 0 0 0.6 20.4-11.8 28.4-12.5 8-17.4-5.6-17.4-5.6z"/>
				</g>
				<g id="&lt;Group&gt;">
					<path id="&lt;Path&gt;" class="s5" d="m172.3 783.9c0 0 3.8-5.2-1.9-5.7-5.6-0.5-30 10.5-23.6 35.5 0 0 31.4-10.3 32.5-20.7 1.1-10.5-7-9.1-7-9.1z"/>
				</g>
				<g id="&lt;Group&gt;">
					<path id="&lt;Path&gt;" class="s5" d="m239.2 729.6c0 0 1.4-4.6 6.7-6.5 5.3-2 25-0.8 25.3 25 0 0-30.4 5.1-34.1-4.7-3.8-9.9 2.1-13.8 2.1-13.8z"/>
				</g>
				<g id="&lt;Group&gt;">
					<path id="&lt;Path&gt;" class="s5" d="m222.8 751.1c0 0 2-3.6 5.9-1.7 3.9 1.9 15.4 13.8 4.5 28 0 0-20.4-12.2-18.7-20.8 1.5-7.9 8.3-5.5 8.3-5.5z"/>
				</g>
				<g id="&lt;Group&gt;">
					<path id="&lt;Path&gt;" class="s5" d="m172.9 757.3c0 0 2.9-3.9-1.4-4.3-4.3-0.5-23.6 4.6-19.1 23.9 0 0 23.5-1.8 24.5-9.8 1-8-4-9.8-4-9.8z"/>
				</g>
				<path id="&lt;Path&gt;" class="s17" d="m240.1 917.5h-57.4l-6.2-59.5h69.8z"/>
				<path id="&lt;Path&gt;" class="s17" d="m256 866.2h-89.2v-16.3h89.2z"/>
			</g>
			<path id="&lt;Path&gt;" class="s18" d="m192.8 809.4c-1.7-12.6 4.6-26.5 14-35"/>
			<path id="&lt;Path&gt;" class="s18" d="m222.8 751.8c4.8 4.8 8.2 11.1 9.6 17.8"/>
			<path id="&lt;Path&gt;" class="s18" d="m253.5 785.1c9.7 4.3 18.8 13.4 23.5 22.9"/>
			<path id="&lt;Path&gt;" class="s18" d="m239.2 729.6c5-1.4 9.5 0.1 14.4 2 4.9 1.9 9.1 5.3 11.9 9.8"/>
			<g id="&lt;Group&gt;">
				<path id="&lt;Path&gt;" class="s5" d="m196.6 734c0 0 7.1 0.8 7.5-3.5 0.5-4.4-23.5-21.4-43.1-7.3 0 0 6 19.4 20.4 23 14.4 3.5 15.2-12.2 15.2-12.2z"/>
			</g>
			<path id="&lt;Path&gt;" class="s18" d="m196.4 734.3c-7.5-10-25.9-13.3-32.1-11"/>
			<path id="&lt;Path&gt;" class="s18" d="m173.1 757.6c-6.1 2.3-12.6 6.2-16 11.8"/>
			<path id="&lt;Path&gt;" class="s18" d="m150.2 804.2c4.8-9.2 12.8-16.6 22.3-20.6"/>
			<path id="&lt;Path&gt;" class="s18" d="m212.9 720.2c3.8-8.1 11.2-14.5 19.7-17.3"/>
			<path id="&lt;Path&gt;" class="s8" d="m177.3 866.2l1.1 10.7h66l1.1-10.7z"/>
		</g>
	</g>
	<g id="Character 3">
		<g id="freepik--character-1--inject-2 00000000939534679290525070000004405581844031296902 ">
			<path id="&lt;Path&gt;" class="s19" d="m1176.5 861.1l6.6 51.1h15.4l4-50.2z"/>
			<path id="&lt;Path&gt;" class="s19" d="m1287.2 861.6l20.5 49.4 15.2-2.5-9.2-55z"/>
			<g id="&lt;Group&gt;">
				<path id="&lt;Path&gt;" class="s17" d="m1300.3 900.5h6.9c1.6 0 3 0.8 4 2.1 4 5.4 7 3.4 11.3-1.7 2.8-0.4 3.5 2.8 3.7 3.6l5.2 18.9c0.4 1.5-0.5 3.2-2 3.6q-0.5 0.1-0.9 0.1c-8.4 0-12.4 0-22.8 0h-32c-8.7 0-10.5-8.8-7-9.6 16.2-3.5 27.6-8.3 32.6-13 1-0.8 0-1.4 1-4z"/>
				<path id="&lt;Compound Path&gt;" fill-rule="evenodd" class="s5" d="m1286.2 905.8c-0.8-0.6-1.2-1.4-1.2-2.3-0.1-0.5 0.2-0.9 0.6-1.2 2.1-1.5 10.8 2.5 11.8 3q0.1 0 0.2 0.2c0.1 0.2 0 0.4-0.2 0.5q-3.2 0.7-6.5 0.8c-1.7 0.2-3.3-0.2-4.7-1zm-0.1-2.9c-0.2 0.2-0.3 0.4-0.2 0.6 0 0.6 0.3 1.2 0.8 1.6 2 1.5 6.7 0.8 9.3 0.4-3.6-1.6-8.7-3.4-9.9-2.6z"/>
				<path id="&lt;Compound Path&gt;" fill-rule="evenodd" class="s5" d="m1297.1 906.1c-2.6-1.1-8.1-5.4-7.8-7.6 0.1-0.5 0.4-1.1 1.6-1.2 4.7-0.6 6.7 7.9 6.7 8.3 0.1 0.2 0 0.3-0.1 0.4q-0.1 0.1-0.2 0zm-6.1-8.1c-0.8 0.1-0.8 0.4-0.8 0.5-0.3 1.4 3.7 4.9 6.5 6.4-0.6-1.9-2.3-6.9-5.4-6.9z"/>
			</g>
			<g id="&lt;Group&gt;">
				<g id="&lt;Group&gt;">
					<path id="&lt;Path&gt;" class="s17" d="m1176.6 901.4h6.9c1.6 0 3 0.8 3.9 2 4 5.5 7 3.4 11.4-1.7 2.7-0.3 3.5 2.8 3.7 3.7l5.2 18.8c0.4 1.6-0.5 3.2-2.1 3.7q-0.4 0.1-0.8 0.1c-8.4 0-12.4 0-22.9 0h-31.9c-8.8 0-10.6-8.8-7-9.6 16.2-3.6 27.6-8.3 32.6-13 0.9-0.9 0-1.5 1-4z"/>
					<path id="&lt;Compound Path&gt;" fill-rule="evenodd" class="s5" d="m1162.4 906.6c-0.7-0.5-1.1-1.3-1.1-2.2-0.1-0.5 0.1-1 0.5-1.3 2.2-1.5 10.9 2.5 11.8 3q0.2 0.1 0.3 0.2c0 0.2-0.1 0.5-0.3 0.5q-3.2 0.8-6.5 0.9c-1.6 0.1-3.2-0.2-4.7-1.1zm0-2.8c-0.2 0.1-0.3 0.3-0.2 0.5 0 0.7 0.3 1.3 0.8 1.7 2 1.4 6.7 0.8 9.3 0.3-3.6-1.6-8.7-3.3-9.9-2.5z"/>
					<path id="&lt;Compound Path&gt;" fill-rule="evenodd" class="s5" d="m1173.3 906.9c-2.6-1.1-8-5.3-7.7-7.6 0-0.5 0.4-1 1.5-1.2 4.8-0.5 6.8 8 6.8 8.4 0.1 0.1 0 0.3-0.1 0.4q-0.1 0-0.3 0zm-6-8.1c-0.9 0-0.9 0.4-0.9 0.5-0.2 1.4 3.7 4.9 6.6 6.4-0.6-2-2.4-7-5.4-7z"/>
				</g>
			</g>
			<path id="&lt;Path&gt;" class="s14" d="m1223.6 561h-184c-3.8 0-6.9-3.1-6.9-6.9v-184c0-3.8 3.1-6.9 6.9-6.9h184c3.8 0 6.9 3.1 6.9 6.9v184c0 3.8-3.1 6.9-6.9 6.9z"/>
			<g id="&lt;Group&gt;">
				<path id="&lt;Path&gt;" class="s5" d="m1239.4 547.3h-184c-3.8 0-6.9-3-6.9-6.8v-184.1c0-3.8 3.1-6.8 6.9-6.8h184c3.8 0 6.9 3 6.9 6.8v184.1c0 3.8-3.1 6.8-6.9 6.8z"/>
				<path id="&lt;Path&gt;" class="s7" d="m1239.4 547.3h-184c-3.8 0-6.9-3-6.9-6.8v-184.1c0-3.8 3.1-6.8 6.9-6.8h184c3.8 0 6.9 3 6.9 6.8v184.1c0 3.8-3.1 6.8-6.9 6.8z"/>
				<path id="&lt;Path&gt;" class="s5" d="m1054 540.1l61.7-82.1 44.5 30.4 53.6-59.3 32.5 30.4v80.4c0 4.1-3.4 7.4-7.5 7.4h-181.2c-3.7 0-5.9-4.2-3.6-7.2z"/>
				<path id="&lt;Path&gt;" class="s5" d="m1171.9 397.1c0 13.6-11 24.5-24.5 24.5-13.5 0-24.5-10.9-24.5-24.5 0-13.5 11-24.5 24.5-24.5 13.5 0 24.5 11 24.5 24.5z"/>
			</g>
			<g id="&lt;Group&gt;">
				<path id="&lt;Path&gt;" class="s17" d="m1167 353.2c-0.3 1.4-1.2 2.3-2.1 2.2-0.9-0.2-1.4-1.4-1.1-2.8 0.3-1.3 1.2-2.3 2.1-2.1 0.9 0.1 1.4 1.4 1.1 2.7z"/>
				<path id="&lt;Path&gt;" class="s20" d="m1166.7 355.6c-2.4 3.7-5.4 7.2-8.7 10.1 1.6 1.7 3.8 2.7 6.1 2.6z"/>
				<path id="&lt;Path&gt;" class="s17" d="m1173.4 346.6c0.5 0 0.8-0.4 0.8-0.8q0-0.3-0.2-0.5c-1.7-2-4.2-3-6.8-2.7q-0.1 0-0.3 0c-0.4 0.1-0.7 0.5-0.7 1 0.1 0.4 0.5 0.7 1 0.7h0.3c2-0.2 4 0.7 5.3 2.3q0.3 0.1 0.6 0z"/>
				<path id="&lt;Path&gt;" class="s21" d="m1204.3 377.7c-2.3 12.4-3.9 29.6 4.8 37.9 0 0-3.5 12.6-26.5 12.6-25.4 0-12.2-11-12.2-11 10.5-3.3 10.4-15.3 8-25z"/>
				<path id="&lt;Path&gt;" class="s21" d="m1212.3 359.5c-4.2 16.3-6.1 26-16.1 32.8-15.1 10.2-34-1.5-34.5-18.7-0.5-15.6 6.7-39.6 24.1-42.9 12.5-2.4 24.6 5.8 27 18.3 0.7 3.5 0.5 7.1-0.5 10.5z"/>
				<path id="&lt;Path&gt;" class="s17" d="m1175 346c-2.4-3.5-3-7.9-1.7-11.9 0 0-11.8-0.2-9.6-3.8 9.4-2 30.7-19.7 38.8-1.2 3.5 1.4 7.4 2.3 11.2 3.4 13.9 4 12.7 24.5-1.6 26.7q-0.1 0-0.3 0c-13.2 1.8-28.8-2.6-36.8-13.2z"/>
				<path id="&lt;Path&gt;" class="s17" d="m1219.7 348.1c-5 6.8-45.4-2.5-45.4-2.5l2.2 20.1 8.3 20.7 18.4-0.2 16.6-26.6c0 0 5-18.4-0.1-11.5z"/>
				<path id="&lt;Path&gt;" class="s21" d="m1182.4 360c-1 4-3.3 7.6-6.6 10.3-4.3 3.4-7.7 0.2-7.5-4.8 0.1-4.5 2.7-11.7 7.4-13.2 4.8-1.4 7.8 2.7 6.7 7.7z"/>
			</g>
			<path id="&lt;Path&gt;" class="s5" d="m1168.1 413c0 0 3.4-8.9 7.1-10.6 3.7-1.7 27.7-6.5 33.3-3.3 5.7 3.3 9.9 14.4 9.9 14.4z"/>
			<path id="&lt;Path&gt;" class="s17" d="m1168.1 413c0 0 3.4-8.9 7.1-10.6 3.7-1.7 27.7-6.5 33.3-3.3 5.7 3.3 9.9 14.4 9.9 14.4z"/>
			<path id="&lt;Path&gt;" class="s17" d="m1143.8 432.9c-3.6 18.3-8.8 55.2 0.6 129.9l90.8 0.5c-1.4-11.9-8.1-71.1 2-131.5q0.1-0.3 0.1-0.7c1.1-9-5.3-17.2-14.3-18.2q-6.6-0.9-13.2-1.3c-17-0.5-33.9-0.1-50.8 1.1-4.1 0.7-9.8 2.6-12 5.4-3.1 3.8-2.1 9.1-3.2 14.8z"/>
			<path id="&lt;Path&gt;" class="s5" d="m1176.5 563.2c15.3 30 28.2 61.2 38.4 93.3 16.2 53 78 228.9 78 228.9l30-6.5c0 0-42.4-151.1-59.9-225.1-13.5-56.7-27.9-90.5-27.9-90.5z"/>
			<path id="&lt;Path&gt;" class="s8" d="m1203.7 610.5c4.7 14.4 21.8 44.5 25 88.7-0.4-1.4-6-23.2-32.7-95.9 1-0.3 6.6 7 7.7 7.2z"/>
			<path id="&lt;Path&gt;" class="s22" d="m1144.3 563.3c-1.2 31.1-0.2 62.2 3.2 93.1 5.9 53.8 28 230.3 28 230.3h28.9c0 0 1.1-173 0-225.9-1.3-57.7-0.2-97.5-0.2-97.5z"/>
			<path id="&lt;Path&gt;" class="s21" d="m1073.1 554.1h-4.6c-2.8 0-5.5-0.5-8-1.5-3.9-1.5-8.7-3.8-7.3-5.8 0 0 3.8-2 9.2-6.1 3-2.3 11.2-7.7 12.3-7.7l9.7 7.8c0 0-4.9 5.5-11.3 13.3z"/>
			<path id="&lt;Path&gt;" class="s17" d="m1159.6 417.6c-6.4-3.3-12.4-1.7-17 5.2-7.2 19.7-32.7 67.2-32.7 67.2l-39.8 41.3 15.6 16 27.9-23.6c10.2-9.2 16.1-12 18-15.9 0 0 24.9-37.5 38.7-66.3 4.2-8.8-2.1-19.3-10.7-23.9z"/>
			<path id="&lt;Path&gt;" class="s21" d="m1250.2 413l-3.5-11.6 13.1-12.3c0 0 1 22.4 0.3 22.8-8.9 5-9.9 1.1-9.9 1.1z"/>
			<path id="&lt;Path&gt;" class="s21" d="m1246.8 401.4l-4-6.3c-0.9-1.5-0.9-3.4 0-5l3.8-6.2q0.3-0.6 0.9-1.1c1.9-1.7 4.9-1.6 6.6 0.3l5.7 6c-1.5 9.3-13 12.3-13 12.3z"/>
			<path id="&lt;Path&gt;" class="s17" d="m1245.3 427.3l0.3-10.5c0-2.6 2.1-4.7 4.7-4.7l8.5-0.4q0.1 0 0.2 0c2.4 0.1 4.3 2.1 4.2 4.5 1.3 35.5 2.9 54.3 3.8 63 0.7 5-1.9 9.9-6.4 12.4-1.4 0.8-3 1.1-4.6 0.9q-1.4-0.3-2.8-0.8c-1.8-0.8-3.5-1.9-4.9-3.2-1.9-2-3.4-4.2-4.6-6.7z"/>
			<path id="&lt;Path&gt;" class="s17" d="m1266 480.3c0.8 4.5-1.4 9.1-5.4 11.3-1.4 0.8-3 1.1-4.6 0.9q-1.4-0.3-2.8-0.8c-1.8-0.8-3.5-1.9-4.9-3.2-1.9-2-3.4-4.2-4.6-6.7-10.2-19-26-69.6-26-69.6 6.6 0.1 23.8 5.7 26.4 11.7l1.4 3.4 20 48.7z"/>
		</g>
	</g>
	<g id="Character 2">
		<g id="&lt;Group&gt;">
			<g id="&lt;Group&gt;">
				<path id="&lt;Path&gt;" class="s19" d="m681.4 864.8l-12.6 42.7-12.7-0.8 2.7-46.2z"/>
				<path id="&lt;Path&gt;" class="s5" d="m747.4 549c0 0 15.5 31.2 0.6 88.4-14.9 57.2-74.5 256.6-74.5 256.6l-16.8-2c0 0-1-71.6 22.6-129.2 0 0 11.3-98.2 5.8-121.3-3.9-16.1-6.2-29.6 0.4-54 2.6-10.4 6.2-20.6 10.8-30.4 4.3-8.8 3.1-12.1 3.1-12.1z"/>
				<path id="&lt;Path&gt;" class="s23" d="m747.4 549c0 0 15.5 31.2 0.6 88.4-14.9 57.2-74.5 256.6-74.5 256.6l-16.8-2c0 0-1-71.6 22.6-129.2 0 0 11.3-98.2 5.8-121.3-3.9-16.1-6.2-29.6 0.4-54 2.6-10.4 6.2-20.6 10.8-30.4 4.3-8.8 3.1-12.1 3.1-12.1z"/>
				<path id="&lt;Path&gt;" class="s24" d="m727.6 710.3c-21.5-59.8-15.6-103.2-15.6-103.2l13.4-1.8 10.5 18.8 7.4 30.6c-4.2 15.2-9.7 34.5-15.7 55.6z"/>
				<path id="&lt;Path&gt;" class="s19" d="m745.6 867.7l-5.5 42.5h-12.8l-3.3-41.7z"/>
				<path id="&lt;Path&gt;" class="s5" d="m767.8 544.3c0.5 3.8 1.5 7.6 3.1 11.1 5.2 13.3 10.9 55.1 9.7 76.3-3.3 59.1-38.3 264.4-38.3 264.4h-16.8c0 0-11.6-69.9 2.2-131.4 0 0 4.8-86.7-2.4-109.3-5-15.7-19.2-30.9-15.6-64.2 3.7-33.2 12.5-44.6 12.5-44.6z"/>
				<path id="&lt;Path&gt;" class="s23" d="m767.8 544.3c0.5 3.8 1.5 7.6 3.1 11.1 5.2 13.3 10.9 55.1 9.7 76.3-3.3 59.1-38.3 264.4-38.3 264.4h-16.8c0 0-11.6-69.9 2.2-131.4 0 0 4.8-86.7-2.4-109.3-5-15.7-19.2-30.9-15.6-64.2 3.7-33.2 12.5-44.6 12.5-44.6z"/>
				<path id="&lt;Path&gt;" class="s5" d="m696.8 561.7l3.2-6.6 3.4 0.5-2 6.8z"/>
				<path id="&lt;Path&gt;" class="s5" d="m745.4 556.6c9.2-0.5 16.6-1.4 21.3-2.1l2.4 6.7q-11.8 1.9-23.7 2.6z"/>
				<path id="&lt;Path&gt;" class="s5" d="m708.5 556.1c10.5 1 21.1 1.3 31.6 0.8v7.1c-3 0-6.2 0.2-9.5 0.2q-12 0-23.9-1.2z"/>
				<g id="&lt;Group&gt;">
					<g id="&lt;Group&gt;">
						<path id="&lt;Path&gt;" class="s17" d="m745.5 901.2h-5.7c-1.3 0-2.5 0.7-3.3 1.7-3.3 4.6-5.8 2.9-9.4-1.4-2.3-0.3-2.9 2.4-3.1 3.1l-4.3 15.6c-0.4 1.3 0.4 2.7 1.7 3.1q0.3 0.1 0.7 0.1c7 0 10.3 0 19 0h26.6c7.2 0 8.7-7.3 5.8-8-13.5-3-23-6.9-27.1-10.8-0.8-0.7 0-1.2-0.9-3.4z"/>
						<path id="&lt;Compound Path&gt;" fill-rule="evenodd" class="s5" d="m753.4 906.5q-2.7-0.1-5.4-0.7c-0.2-0.1-0.3-0.3-0.2-0.4q0.1-0.2 0.2-0.2c0.8-0.4 8-3.8 9.8-2.5 0.3 0.2 0.5 0.6 0.5 1 0 0.8-0.4 1.5-1 1.9-1.2 0.7-2.5 1-3.9 0.9zm-4.3-1.2c2.1 0.4 6.1 1 7.7-0.3 0.4-0.3 0.7-0.8 0.7-1.3 0.1-0.2 0-0.4-0.1-0.5-1-0.7-5.3 0.8-8.3 2.1z"/>
						<path id="&lt;Compound Path&gt;" fill-rule="evenodd" class="s5" d="m748.1 905.8q-0.1 0-0.3 0-0.1-0.1 0-0.3c0-0.3 1.6-7.4 5.6-7 1 0.2 1.2 0.6 1.3 1 0.2 1.9-4.3 5.5-6.5 6.4zm5-6.8c-2.5 0-4 4.2-4.5 5.8 2.4-1.2 5.7-4.2 5.5-5.3 0-0.1 0-0.4-0.8-0.4z"/>
					</g>
					<g id="&lt;Group&gt;">
						<path id="&lt;Path&gt;" class="s17" d="m675.2 901.2h-5.8c-1.3 0-2.5 0.7-3.2 1.7-3.3 4.6-5.8 2.9-9.5-1.4-2.2-0.3-2.9 2.4-3.1 3.1l-4.3 15.6c-0.3 1.3 0.4 2.7 1.7 3.1q0.4 0.1 0.8 0.1c6.9 0 10.2 0 18.9 0h26.6c7.3 0 8.8-7.3 5.8-8-13.4-3-22.9-6.9-27.1-10.8-0.8-0.7 0-1.2-0.8-3.4z"/>
						<path id="&lt;Compound Path&gt;" fill-rule="evenodd" class="s5" d="m683.1 906.5q-2.8-0.1-5.4-0.7c-0.2-0.1-0.3-0.3-0.2-0.4q0-0.2 0.2-0.2c0.8-0.4 8-3.8 9.8-2.5 0.3 0.2 0.5 0.6 0.4 1 0 0.8-0.3 1.5-0.9 1.9-1.2 0.7-2.6 1-3.9 0.9zm-4.3-1.2c2.1 0.4 6.1 1 7.7-0.3 0.4-0.3 0.7-0.8 0.7-1.3 0-0.2 0-0.4-0.2-0.5-1-0.7-5.2 0.8-8.2 2.1z"/>
						<path id="&lt;Compound Path&gt;" fill-rule="evenodd" class="s5" d="m677.7 905.8q-0.1 0-0.2 0-0.1-0.1-0.1-0.3c0-0.3 1.7-7.4 5.7-7 0.9 0.2 1.2 0.6 1.2 1 0.3 1.9-4.2 5.5-6.4 6.4zm4.9-6.8c-2.5 0-3.9 4.2-4.4 5.8 2.3-1.2 5.6-4.2 5.4-5.3 0-0.1 0-0.4-0.7-0.4z"/>
					</g>
				</g>
			</g>
			<path id="&lt;Path&gt;" class="s19" d="m668.9 472.6c0 0-25.7 52.7-14.9 57 10.7 4.4 46.8 6.8 46.8 6.8l15.7 15.1 9.1-6-2.3-15.3-20.7-4.4-27.6-8.6c-2.3-0.7-3.6-3.2-2.8-5.5q0.1-0.2 0.1-0.4l13.4-29.3z"/>
			<g id="&lt;Group&gt;">
				<path id="&lt;Path&gt;" class="s17" d="m724.5 379.1c-0.4-1.3 0-2.6 0.9-2.9 0.9-0.2 1.9 0.7 2.3 2 0.4 1.4 0 2.7-0.9 2.9-0.9 0.2-1.9-0.6-2.3-2z"/>
				<path id="&lt;Path&gt;" class="s25" d="m724.4 381.2l10.3 6.5c-1.6 2.5-4.2 4-7.1 4.2z"/>
				<path id="&lt;Path&gt;" class="s17" d="m721.2 376.6c0.3-0.1 0.5-0.3 0.6-0.5 0.5-2.1 2-3.7 4-4.4 0.4-0.1 0.7-0.6 0.6-1q0 0 0 0c-0.2-0.5-0.6-0.7-1.1-0.6-2.5 0.9-4.4 2.9-5.1 5.5-0.1 0.4 0.1 0.8 0.5 1q0.2 0.1 0.5 0z"/>
				<path id="&lt;Path&gt;" class="s19" d="m678.2 393.8c7 16.4 9.5 23.5 21 29.1 16 4.1 35.9-3.7 34-21.8-1.7-16.3-12.7-40.3-31.5-41.2-13.4-0.7-24.8 9.5-25.5 22.9-0.2 3.8 0.5 7.6 2 11z"/>
				<path id="&lt;Path&gt;" class="s14" d="m716.4 415.2c0 0 11.9 2.4 16.6-8-1.6 8.4-8.6 13.6-16.9 15.8l-2.9-2.1 1.6-4.2z"/>
				<path id="&lt;Path&gt;" class="s19" d="m694.7 442.3c0 0 10.3-5 2.9-24.6 0 0 8.2-8.2 16.8-4.7 8.5 3.4 1.3 21.5 11.4 24.3 0 0-5.3 7.2-31.1 5z"/>
				<path id="&lt;Path&gt;" class="s17" d="m714.8 389.6q-3.9-3.8-7.1-8.4c-3.5-5 4.7-10.8 3.3-20.1-1.4-9.3-11-3.6-11-3.6 0 0-23.2-2.7-26.2 21.5-8.6 13.2-4.8 30.8 8.5 39.3 6 3.9 13.3 5.4 20.4 4.1l1.5-0.3c6.2-2.1 10.4-7.8 10.4-14.4z"/>
				<path id="&lt;Path&gt;" class="s5" d="m679.8 384.5c-0.4-5.5-1.8-9.9-7.3-9.6-5.5 0.4-5.8 5-5.4 10.5 0.3 5.4 1.3 9.8 6.8 9.5 5.5-0.4 6.3-5 5.9-10.4z"/>
				<path id="&lt;Path&gt;" class="s19" d="m709.9 388.6c3.4 1.3 6.1 4 7.5 7.3 1.8 4.4-2 7.3-6.6 6.6-4-0.7-9.9-3.8-9.8-8.5 0-3.4 2.9-6.1 6.3-6.1 0.9 0 1.8 0.3 2.6 0.7z"/>
				<path id="&lt;Path&gt;" class="s17" d="m652.4 386.4c0.5 8.1 7.6 14.2 15.7 13.7 8.2-0.6 8.7-7.3 8.1-15.4-0.6-8.1-2-14.6-10.1-14-8.2 0.5-14.3 7.6-13.7 15.7z"/>
				<path id="&lt;Path&gt;" class="s17" d="m708.3 354.1c-1.5 2.1-3.1 5.3-1.4 7.5 0.9 1.3 2.7 1.7 3.8 2.9 1.1 1.3 1.8 3 1.9 4.8q1.6 9.4 1.6 19c4.4-7.5 9.1-15.6 9.3-24.3 0.1-2.7-0.4-5.3-1.6-7.6-1.2-2.4-3.4-4.1-6-4.6-2.6-0.3-7.6 2.3-7.6 2.3z"/>
			</g>
			<path id="&lt;Path&gt;" class="s19" d="m765.6 452.7l26 16.6c1.9 1.2 4.4 0.7 5.6-1.2q0.1-0.1 0.2-0.2l21.1-37.9 7.7-19.7 2.2-2.4 13.1-11.2h5.1l-9.8 8.8 2.7 4.6 4.4 10-17.4 15.3c0 0-10.1 45.5-21 55.2-8.6 7.7-51.9-22.9-51.9-22.9z"/>
			<g id="&lt;Group&gt;">
				<path id="&lt;Path&gt;" class="s11" d="m676.6 453.4c-0.6-1.5-2.2-2.3-3.8-1.8q-0.7 0.2-1.2 0.8c-2.7 3-6.6 9-11.2 21.1l-4.7 12.5 23.8 16.3 9-13.6z"/>
				<path id="&lt;Path&gt;" class="s14" d="m674 468.1l2.6-3.4 5.1 3.9 6.8 20.1-9 13.6-4.5-3.1c1.4-12.9-1-31.1-1-31.1z"/>
				<path id="&lt;Path&gt;" class="s5" d="m682.9 500.1l-27.2-19.2-1.9 5.9 25.7 17.9z"/>
				<path id="&lt;Path&gt;" class="s15" d="m682.9 500.1l-27.2-19.2-1.9 5.9 25.7 17.9z"/>
				<path id="&lt;Path&gt;" class="s5" d="m732.3 438.3c0 0 1-12.5-23.2-7.4-24.3 5-8 12-8 12z"/>
				<path id="&lt;Path&gt;" class="s15" d="m732.3 438.3c0 0 1-12.5-23.2-7.4-24.3 5-8 12-8 12z"/>
				<path id="&lt;Path&gt;" class="s11" d="m767.3 548.8c-27.1 5.2-58.2 3.1-69.7 2-2.5-0.3 2.2-30.7-25.2-85.7-2.8-5.2-1.6-11.7 2.8-15.6 18.7-15.4 52.6-14.8 68.1-13.6 5.5 0.4 10.6 3.4 13.6 8 5.4 9.1 9 19.2 10.7 29.7 1.9 10 2.9 20.2 3.2 30.3 0.7 24.1-2.2 44.6-3.5 44.9z"/>
				<path id="&lt;Path&gt;" class="s14" d="m770.8 503.9c-8.8-1.6-21.1-33.9-21.1-33.9l17.9 3.6c1.9 10 2.9 20.2 3.2 30.3z"/>
				<path id="&lt;Path&gt;" class="s11" d="m747.6 436.9c6.8 2 21.7 8.7 45 30.7l-17.2 23c-11.3-2.5-20.8-10.1-25.7-20.6-4.4-9.3-6.7-19.6-6.6-29.9 0.1-1.9 1.6-3.4 3.5-3.4q0.5 0 1 0.2z"/>
				<path id="&lt;Path&gt;" class="s5" d="m789.9 463l-19.4 28 6.5 1.4 18.3-25.1z"/>
				<path id="&lt;Path&gt;" class="s15" d="m789.9 463l-19.4 28 6.5 1.4 18.3-25.1z"/>
			</g>
		</g>
	</g>
	<g id="Character 1">
		<g id="&lt;Group&gt;">
			<g id="&lt;Group&gt;">
				<g id="&lt;Group&gt;">
					<path id="&lt;Path&gt;" class="s26" d="m325.6 419.5c7.4-8.8 3.7-29.2 0.4-40.1l28.1 17.4q-0.6 2-0.9 4.1c-0.4 2.6-0.2 5.1 0.6 7.6 0.8 1.9 4 7.3 4 7.3 0 0 2.3 6.2-14.6 8.6-7.3 1.8-17.6-4.9-17.6-4.9z"/>
					<path id="&lt;Path&gt;" class="s14" d="m332.2 390c0.6 13.3 14.7 17.5 21.6 18.5-0.8-2.4-1-5-0.5-7.5z"/>
					<g id="&lt;Group&gt;">
						<g id="&lt;Group&gt;">
							<path id="&lt;Path&gt;" class="s17" d="m350.5 337.7c12.9-2.7 6.2 7.7 20.4 9.6 0.4 8.7-9.4 18.4-13.2 13.1-4.1-5.8-17.9-20.6-7.2-22.7z"/>
							<path id="&lt;Path&gt;" class="s17" d="m299.7 350.8c0.2 10.3 10 8.3 10 8.3-8.8 3.8-15.1 2.1-10-8.3z"/>
							<path id="&lt;Path&gt;" class="s26" d="m320.1 370.3c5.6 14.9 8.4 23.4 18.6 28.8 15.4 8.1 32.3-4.3 31.4-20.6-0.7-14.6-9.7-36.5-26.8-37.9-16.8-1.3-28.7 14.8-23.2 29.7z"/>
							<path id="&lt;Path&gt;" class="s17" d="m341.7 367.6c0.5 1.6 1.7 2.6 2.8 2.3 1-0.3 1.5-1.9 1-3.4-0.4-1.6-1.7-2.6-2.7-2.3-1.1 0.4-1.5 1.9-1.1 3.4z"/>
							<path id="&lt;Path&gt;" class="s17" d="m357.7 364.1c0.4 1.6 1.6 2.6 2.7 2.3 1-0.4 1.5-1.9 1-3.4-0.4-1.6-1.7-2.6-2.7-2.3-1 0.3-1.5 1.9-1 3.4z"/>
							<path id="&lt;Path&gt;" class="s27" d="m354.3 364.4c0 0 7.3 6.2 9.9 8.9-1.6 2.6-5.7 2.8-5.7 2.8z"/>
							<path id="&lt;Path&gt;" class="s17" d="m337.7 361.9c0.3 0.1 0.6-0.1 0.7-0.3 2.1-2.8 5-2.7 5-2.7 0.4 0 0.8-0.4 0.8-0.8 0-0.4-0.3-0.7-0.7-0.8-0.2 0-3.8 0-6.3 3.4-0.3 0.4-0.2 0.9 0.2 1.1q0.1 0.1 0.3 0.1z"/>
							<path id="&lt;Path&gt;" class="s17" d="m364.6 355.1q0.2-0.1 0.3-0.3c0.2-0.3 0-0.8-0.3-1-3.8-1.9-7-0.2-7.1-0.2-0.4 0.2-0.5 0.7-0.3 1.1 0.2 0.3 0.6 0.5 1 0.3 0.1-0.1 2.6-1.4 5.6 0.2 0.3 0.1 0.5 0.1 0.8-0.1z"/>
						</g>
						<g id="&lt;Group&gt;">
							<path id="&lt;Path&gt;" class="s17" d="m358.7 381.5q-1.5 2.9-2.7 6-0.6-0.1-1.1-0.3c-5.2-1-7.2-3.2-7.9-5.3-0.3-1.1-0.4-2.2-0.2-3.2q0.2-0.9 0.6-1.8c2.3 2.2 7 3.6 9.6 4.2 1.1 0.2 1.7 0.4 1.7 0.4z"/>
							<path id="&lt;Path&gt;" class="s11" d="m357 381.1l-0.9 1.7c-4.8-1-8-2.3-9.3-4.1q0.2-0.9 0.6-1.8c2.4 2.2 7.1 3.6 9.6 4.2z"/>
							<path id="&lt;Path&gt;" class="s25" d="m354.9 387.3c-5.1-1-7.2-3.2-7.8-5.3 1.9 0.4 3.7 1.2 5.4 2.3 1.1 0.7 1.9 1.8 2.4 3z"/>
						</g>
					</g>
				</g>
				<path id="&lt;Path&gt;" class="s17" d="m306.5 356.7c0 0-6.5-11.8-0.3-18.1 9.7-9.8 18.4-1.7 38.4-18.9 0.8 5.2-5 9.8 1.6 11.2 6.6 1.4 9.8-5 20.3-4-4.4 3.2 3.3 11.5-5.3 18.7-8.5 7.2-24.6 2.5-24.6 2.5-0.2 6.4-9.1 11.7-9.1 11.7 1.3 2.7 2.2 5.6 2.7 8.5 0.3 3.7 0.1 7.5-0.6 11.2-32.9-6-23.1-22.8-23.1-22.8z"/>
				<g id="&lt;Group&gt;">
					<path id="&lt;Path&gt;" class="s26" d="m317.8 384.8c2.4 3.5 6.3 5.6 9.9 6.2 5.3 0.9 5.5-4.6 3.7-9.2-1.7-4.2-4.6-9.1-9.8-7.8-5.1 1.2-6.6 6.8-3.8 10.8z"/>
					<path id="&lt;Path&gt;" class="s28" d="m320.1 379.6c0.3-1.1 1.5-1.8 2.7-1.9 1.2-0.1 2.3 0.4 3.2 1.1 1.2 0.8 2.1 1.9 2.6 3.2"/>
				</g>
			</g>
			<path id="&lt;Path&gt;" class="s26" d="m323.7 900c-0.3-1.1-4.4-23.2-4.4-23.2l21.6-2.9 2.3 23.4-12.8 7.4z"/>
			<g id="&lt;Group&gt;">
				<g id="&lt;Group&gt;">
					<path id="&lt;Path&gt;" class="s17" d="m345.4 894.4h-6.8c-1.6 0-3 0.8-3.9 2-3.9 5.4-6.9 3.3-11.2-1.7-2.7-0.3-3.4 2.8-3.6 3.6l-5.1 18.6c-0.5 1.5 0.4 3.1 2 3.6q0.4 0.1 0.8 0.1c8.3 0 12.2 0 22.5 0h31.5c8.6 0 10.4-8.7 6.8-9.5-15.9-3.5-27.1-8.2-32-12.8-1-0.8 0-1.4-1-3.9z"/>
					<path id="&lt;Compound Path&gt;" fill-rule="evenodd" class="s5" d="m355.5 900.7q-3.2-0.1-6.3-0.8c-0.2-0.1-0.3-0.3-0.3-0.5q0.1-0.2 0.3-0.2c0.9-0.5 9.4-4.5 11.6-3 0.4 0.3 0.6 0.7 0.5 1.2 0 0.9-0.4 1.7-1.1 2.2-1.4 0.9-3 1.2-4.7 1.1zm-5-1.3c2.5 0.4 7.2 1 9.1-0.4 0.5-0.4 0.8-1 0.9-1.6 0-0.2-0.1-0.4-0.3-0.5-1.1-0.9-6.2 0.9-9.7 2.5z"/>
					<path id="&lt;Compound Path&gt;" fill-rule="evenodd" class="s5" d="m349.3 899.9q-0.2 0-0.3 0c-0.1-0.1-0.2-0.3-0.1-0.4 0-0.4 2-8.8 6.6-8.2 1.2 0.1 1.5 0.7 1.6 1.2 0.3 2.2-5.1 6.4-7.6 7.5zm5.8-8c-3 0-4.7 4.9-5.3 6.9 2.8-1.5 6.7-5 6.5-6.4 0-0.1 0-0.4-0.9-0.5z"/>
					<path id="&lt;Path&gt;" class="s29" d="m350.1 899.6c-2.3 0.4-4.5 1.8-5.8 3.8"/>
					<path id="&lt;Path&gt;" class="s29" d="m354.4 902.8c-2.4 0.3-4.6 1.7-5.8 3.7"/>
					<path id="&lt;Path&gt;" class="s29" d="m359.6 905.5c-2.3 0.3-4.5 1.7-5.8 3.7"/>
				</g>
			</g>
			<path id="&lt;Path&gt;" class="s26" d="m433.3 900c-0.2-1.1-4.4-23.2-4.4-23.2l21.7-2.9 2.2 23.4-12.8 7.4z"/>
			<g id="&lt;Group&gt;">
				<path id="&lt;Path&gt;" class="s5" d="m439.2 728.5c-5.9-48.1-31.1-172.5-31.1-172.5l-61.6 3.9c0 0 5.7 17.7 13.2 42.7 7.2 23.8 15.9 54.1 22.9 82.2 5.5 22.3 9.1 43.1 11.4 58 8.9 56.1 34.6 150.5 34.6 150.5l25.7-3.2c0 0-9-111.7-15.1-161.6z"/>
				<path id="&lt;Path&gt;" class="s8" d="m439.2 728.5c-5.9-48.1-31.1-172.5-31.1-172.5l-61.6 3.9c0 0 5.7 17.7 13.2 42.7 7.2 23.8 15.9 54.1 22.9 82.2 5.5 22.3 9.1 43.1 11.4 58 8.9 56.1 34.6 150.5 34.6 150.5l25.7-3.2c0 0-9-111.7-15.1-161.6z"/>
				<path id="&lt;Path&gt;" class="s14" d="m366.7 592.9l-5.8 12.4c6.5 23.8 13.9 49.9 21.3 77.8 2.7-27.5-1.7-73.9-15.5-90.2z"/>
				<path id="&lt;Path&gt;" class="s5" d="m314.3 561.9c0 0 6.2 116.7 0.9 172.9-4.7 49.4 4.1 157.1 4.1 157.1l27.9-1.4c0 0 5.4-100.6 13.6-150.9 7.4-45.9 14-181.5 14-181.5z"/>
				<path id="&lt;Path&gt;" class="s8" d="m314.3 561.9c0 0 6.2 116.7 0.9 172.9-4.7 49.4 4.1 157.1 4.1 157.1l27.9-1.4c0 0 5.4-100.6 13.6-150.9 7.4-45.9 14-181.5 14-181.5z"/>
			</g>
			<path id="&lt;Path&gt;" class="s14" d="m303.9 448.6c2 9.7 3.4 19.2 4.5 28.4q0.5 3.7 0.9 7.3c6.9-10.9 10.6-23.7 10.4-36.6z"/>
			<g id="&lt;Group&gt;">
				<path id="&lt;Path&gt;" class="s26" d="m274.4 463c0 0-26.5 49.3-23.6 59.9 2.8 10.6 43.3 39.8 43.3 39.8l9.8-10.2c0 0-28.4-34.6-28.4-37.1 0-2.6 27.4-41.4 27.4-41.4z"/>
				<path id="&lt;Path&gt;" class="s26" d="m408.5 455.6l13.2 23.5 14.4-37.6 8.8 7.3c0 0-15.8 69.4-24.8 70.5-9 1.1-31.9-48.3-31.9-48.3z"/>
				<path id="&lt;Path&gt;" class="s17" d="m395.6 424.3c14.2 13.5 30 27.7 30 27.7l-30 26.1c0 0-34-30.8-32.9-45.9 1.3-16.3 23.2-17.2 32.9-7.9z"/>
				<path id="&lt;Path&gt;" class="s17" d="m319.7 420.4c2.2-0.4 4.5-0.7 6.7-1q17.9-2.3 35.9-2.5 2.3 0 4.4 0.1 10.2 0.7 20.2 2.5c0 0 11.9 64.8 23.5 148.2l-97.5-5.8c-0.7-6.4-0.2-25.4-1.5-50.3-0.6-10.6-1.5-22.4-3-34.6-2-17.6-5.4-35-10-52.1 0 0 9.9-2.8 21.3-4.5z"/>
				<path id="&lt;Path&gt;" class="s17" d="m319.8 453.2c-8.2 17.8-18.3 36.2-18.3 36.2l-36.8-16.1c0 0 27.6-48.6 33.7-48.4 17.9-3.6 30.2 8.9 21.4 28.3z"/>
			</g>
			<g id="&lt;Group&gt;">
				<g id="&lt;Group&gt;">
					<path id="&lt;Path&gt;" class="s17" d="m455.1 894.4h-6.9c-1.5 0-2.9 0.8-3.8 2-4 5.4-6.9 3.3-11.2-1.7-2.7-0.3-3.4 2.8-3.7 3.6l-5 18.6c-0.5 1.5 0.4 3.1 2 3.6q0.4 0.1 0.8 0.1c8.3 0 12.2 0 22.5 0h31.5c8.6 0 10.3-8.7 6.8-9.5-15.9-3.5-27.2-8.2-32.1-12.8-0.9-0.8 0.1-1.4-0.9-3.9z"/>
					<path id="&lt;Compound Path&gt;" fill-rule="evenodd" class="s5" d="m465.2 900.7q-3.2-0.1-6.4-0.8c-0.2-0.1-0.3-0.3-0.2-0.5q0.1-0.2 0.2-0.2c1-0.5 9.5-4.5 11.6-3 0.4 0.3 0.7 0.7 0.6 1.2 0 0.9-0.4 1.7-1.2 2.2-1.3 0.9-3 1.2-4.6 1.1zm-5-1.3c2.5 0.4 7.2 1 9.1-0.4 0.5-0.4 0.8-1 0.8-1.6 0.1-0.2 0-0.4-0.2-0.5-1.2-0.9-6.2 0.9-9.7 2.5z"/>
					<path id="&lt;Compound Path&gt;" fill-rule="evenodd" class="s5" d="m458.9 899.9q-0.1 0-0.2 0c-0.2-0.1-0.2-0.3-0.2-0.4 0-0.4 2-8.8 6.7-8.2 1.2 0.1 1.5 0.7 1.6 1.2 0.2 2.2-5.1 6.4-7.7 7.5zm5.9-8c-3 0-4.7 4.9-5.3 6.9 2.8-1.5 6.7-5 6.4-6.4 0-0.1 0-0.4-0.8-0.5z"/>
					<path id="&lt;Path&gt;" class="s29" d="m459.8 899.6c-2.4 0.4-4.5 1.8-5.8 3.8"/>
					<path id="&lt;Path&gt;" class="s29" d="m464 902.8c-2.3 0.3-4.5 1.7-5.8 3.7"/>
					<path id="&lt;Path&gt;" class="s29" d="m469.3 905.5c-2.4 0.3-4.5 1.7-5.8 3.7"/>
				</g>
			</g>
			<g id="&lt;Group&gt;">
				<path id="&lt;Compound Path&gt;" fill-rule="evenodd" class="s5" d="m398.9 400.9l28.2 14.8-6.3 15.2c8.5 6.9 15.3 15.3 20.4 24.5l16.2-3.4 9.5 30.3-15.3 6.4c1.1 10.5 0.2 21.3-2.8 31.7l13.8 9-14.7 28.2-15.3-6.2c-6.9 8.4-15.2 15.2-24.4 20.4l3.4 16.1-30.4 9.5-6.4-15.2c-10.5 1-21.2 0.2-31.7-2.8l-9 13.8-28.2-14.8 6.3-15.2c-8.5-6.9-15.3-15.3-20.4-24.5l-16.2 3.4-9.5-30.3 15.3-6.4c-1.1-10.5-0.2-21.3 2.8-31.7l-13.8-9 14.7-28.2 15.3 6.2c6.9-8.4 15.2-15.2 24.4-20.4l-3.4-16.1 30.4-9.5 6.4 15.2c10.5-1 21.2-0.2 31.7 2.8zm-68.3 72.4c-15 22.9-5.5 53.5 19.9 63.8 18.8 7.6 40.8 0.7 52-16.3 15-22.9 5.4-53.5-20-63.8-18.8-7.5-40.8-0.7-51.9 16.3z"/>
				<g id="&lt;Group&gt;">
					<g id="&lt;Group&gt;">
						<path id="&lt;Path&gt;" class="s26" d="m294.9 544.9c0 0 13.8-4 17.2-2 3.4 2.1-1.4 5-1.4 5 0 0 5.5-2.9 7.1-0.7 1.8 2.7-3.3 5.7-3.3 5.7 0 0 4.6-2.2 5.9-0.1 1.2 2.1-4.3 5.9-4.3 5.9 0 0 3.6-0.9 3.6 1 0.1 1.9-11.5 10.3-16.5 10.4-5 0.1-15.2-15.1-16.7-19-0.4-1.1-0.8-3 2.6-7.3 0.7-0.9 1.9-1.1 2.9-0.4l2.5 1.6z"/>
					</g>
					<g id="&lt;Group&gt;">
						<path id="&lt;Path&gt;" class="s14" d="m310.8 548.2q0 0 0 0l-9.9 4.5c-0.2 0.1-0.3 0-0.4-0.1-0.1-0.2 0-0.4 0.1-0.4l9.9-4.6c0.2 0 0.3 0 0.4 0.2 0.1 0.1 0 0.3-0.1 0.4z"/>
					</g>
					<g id="&lt;Group&gt;">
						<path id="&lt;Path&gt;" class="s14" d="m314.4 553.3q0 0 0 0l-9.2 5.1c-0.1 0.1-0.3 0-0.4-0.1q-0.1-0.2 0.1-0.4l9.2-5.1c0.1-0.1 0.3 0 0.4 0.1 0 0.2 0 0.3-0.1 0.4z"/>
					</g>
					<g id="&lt;Group&gt;">
						<path id="&lt;Path&gt;" class="s14" d="m316 559.2l-6.8 4c-0.1 0-0.3 0-0.3-0.2-0.1-0.1-0.1-0.3 0-0.4l6.7-4c0.2 0 0.3 0 0.4 0.2 0.1 0.1 0.1 0.3 0 0.4z"/>
					</g>
				</g>
				<g id="&lt;Group&gt;">
					<g id="&lt;Group&gt;">
						<path id="&lt;Path&gt;" class="s26" d="m438 451.9c0 0-13.5 5.1-17 3.3-3.6-1.7 1-5 1-5 0 0-5.3 3.3-7 1.2-2-2.5 2.8-5.9 2.8-5.9 0 0-4.4 2.5-5.8 0.6-1.5-2 3.7-6.3 3.7-6.3 0 0-3.4 1.2-3.7-0.7-0.2-1.9 10.7-11.1 15.7-11.7 4.9-0.5 16.4 13.9 18.1 17.6 0.5 1 1.1 3-1.9 7.5-0.7 0.9-1.9 1.2-2.9 0.7l-2.6-1.5z"/>
					</g>
					<g id="&lt;Group&gt;">
						<path id="&lt;Path&gt;" class="s14" d="m421.8 449.9q0.1 0 0.1 0l9.5-5.3c0.1-0.1 0.3 0 0.4 0.1 0.1 0.1 0 0.3-0.1 0.4l-9.5 5.3c-0.2 0.1-0.3 0-0.4-0.1-0.1-0.1-0.1-0.3 0-0.4z"/>
					</g>
					<g id="&lt;Group&gt;">
						<path id="&lt;Path&gt;" class="s14" d="m417.9 445.1q0 0 0 0l8.7-5.9c0.2-0.1 0.3 0 0.4 0.1q0.2 0.2 0 0.4l-8.8 5.9c-0.1 0.1-0.3 0-0.4-0.1-0.1-0.2 0-0.3 0.1-0.4z"/>
					</g>
					<g id="&lt;Group&gt;">
						<path id="&lt;Path&gt;" class="s14" d="m415.8 439.4l6.4-4.6c0.1-0.1 0.3 0 0.4 0.1 0.1 0.2 0.1 0.3 0 0.4l-6.4 4.6c-0.1 0-0.3 0-0.4-0.1-0.1-0.2-0.1-0.3 0-0.4z"/>
					</g>
				</g>
			</g>
		</g>
	</g>
</svg>