<?xml version="1.0" encoding="UTF-8"?><svg id="uuid-fb0e0a70-e97d-4741-b027-4b05f4dbfc19" xmlns="http://www.w3.org/2000/svg" xmlns:xlink="http://www.w3.org/1999/xlink" viewBox="0 0 1129.62 251.15"><defs><linearGradient id="uuid-432a26cc-5050-4570-89bd-1655e397a579" x1="40.57" y1="9.46" x2="169.49" y2="190.29" gradientUnits="userSpaceOnUse"><stop offset=".15" stop-color="#ff7f47"/><stop offset=".27" stop-color="#ff7948"/><stop offset=".43" stop-color="#ff694e"/><stop offset=".61" stop-color="#ff4f57"/><stop offset=".8" stop-color="#ff2a63"/><stop offset=".99" stop-color="#ff0072"/></linearGradient></defs><g id="uuid-47b4b838-7f8d-4554-beb4-aa8db880c729"><path d="m50.53,251.15l.24-.17c20.04-37.78,72.73-133.57,213.65-154.93l.15-.11h-101.06L132.28,0l-31.23,95.93H0l81.76,59.29-31.23,95.93Z" fill="url(#uuid-432a26cc-5050-4570-89bd-1655e397a579)"/><path d="m188.78,173.54l-5.75-19.24c14.5-8.27,29.67-15.79,44.53-21.27-97.85,17.58-131.42,80.37-131.42,80.37l32.85-23.56,19.94,14.08s0,0-.01.01l65.12,47.22-25.26-77.61h0Z" fill="#404040"/><path d="m282.96,61.48h27.78l10,52.99,14.64-52.99h27.68l14.67,52.92,10.01-52.92h27.64l-20.87,94.66h-28.68l-16.6-59.6-16.54,59.6h-28.68l-21.06-94.66Z" fill="#404040"/><path d="m421.57,61.48h78.38v20.21h-49.07v15.04h45.52v19.31h-45.52v18.66h50.49v21.44h-79.81V61.48Z" fill="#404040"/><path d="m513.89,61.48h54.75c9.13,0,16.13,2.26,21.02,6.78,4.89,4.52,7.33,10.12,7.33,16.79,0,5.6-1.74,10.4-5.23,14.4-2.32,2.67-5.73,4.78-10.2,6.33,6.8,1.64,11.8,4.44,15.01,8.43,3.21,3.98,4.81,8.99,4.81,15.01,0,4.91-1.14,9.32-3.42,13.24-2.28,3.92-5.4,7.02-9.36,9.3-2.45,1.42-6.16,2.45-11.11,3.1-6.59.86-10.96,1.29-13.11,1.29h-50.49V61.48Zm29.51,37.13h12.72c4.56,0,7.74-.79,9.52-2.36,1.79-1.57,2.68-3.84,2.68-6.81,0-2.75-.89-4.91-2.68-6.46-1.79-1.55-4.9-2.32-9.33-2.32h-12.91v17.95Zm0,37.19h14.92c5.04,0,8.59-.89,10.65-2.68,2.07-1.79,3.1-4.19,3.1-7.2,0-2.8-1.02-5.05-3.07-6.75-2.04-1.7-5.63-2.55-10.75-2.55h-14.85v19.18Z" fill="#404040"/><path d="m608.27,124.82l27.83-1.74c.6,4.52,1.83,7.96,3.68,10.33,3.01,3.83,7.32,5.75,12.91,5.75,4.18,0,7.39-.98,9.65-2.94,2.26-1.96,3.39-4.23,3.39-6.81s-1.08-4.65-3.23-6.59-7.15-3.77-14.98-5.49c-12.83-2.88-21.98-6.72-27.44-11.49-5.51-4.78-8.26-10.87-8.26-18.27,0-4.86,1.41-9.46,4.23-13.79,2.82-4.33,7.06-7.73,12.72-10.2,5.66-2.47,13.42-3.71,23.28-3.71,12.1,0,21.32,2.25,27.67,6.75,6.35,4.5,10.13,11.65,11.33,21.47l-27.57,1.61c-.73-4.26-2.27-7.36-4.62-9.3-2.35-1.94-5.58-2.91-9.72-2.91-3.4,0-5.96.72-7.68,2.16-1.72,1.44-2.58,3.2-2.58,5.26,0,1.51.71,2.86,2.13,4.07,1.38,1.25,4.65,2.41,9.81,3.49,12.78,2.75,21.94,5.54,27.47,8.36,5.53,2.82,9.56,6.32,12.07,10.49,2.52,4.18,3.78,8.85,3.78,14.01,0,6.07-1.68,11.67-5.04,16.79-3.36,5.12-8.05,9.01-14.08,11.65-6.03,2.65-13.62,3.97-22.79,3.97-16.1,0-27.25-3.1-33.45-9.3-6.2-6.2-9.71-14.08-10.52-23.63Z" fill="#404040"/><path d="m706.73,61.48h29.31v94.66h-29.31V61.48Z" fill="#404040"/><path d="m747.07,61.48h88.91v23.37h-29.83v71.28h-29.25v-71.28h-29.83v-23.37Z" fill="#404040"/><path d="m895.13,140.51h-33.21l-4.61,15.63h-29.86l35.58-94.66h31.9l35.57,94.66h-30.63l-4.74-15.63Zm-6.07-20.47l-10.45-34.03-10.34,34.03h20.79Z" fill="#404040"/><path d="m936.87,156.13V61.48h48.75c9.04,0,15.95.77,20.73,2.32,4.78,1.55,8.63,4.42,11.56,8.62s4.39,9.31,4.39,15.33c0,5.25-1.12,9.78-3.36,13.59s-5.32,6.9-9.24,9.27c-2.5,1.51-5.92,2.76-10.27,3.75,3.48,1.16,6.02,2.33,7.61,3.49,1.08.78,2.63,2.43,4.68,4.98s3.41,4.5,4.1,5.88l14.16,27.43h-33.05l-15.63-28.93c-1.98-3.74-3.74-6.18-5.29-7.3-2.11-1.46-4.5-2.2-7.17-2.2h-2.58v38.42h-29.38Zm29.38-56.3h12.33c1.33,0,3.92-.43,7.75-1.29,1.94-.39,3.52-1.38,4.75-2.97,1.23-1.59,1.84-3.42,1.84-5.49,0-3.06-.97-5.4-2.91-7.04-1.94-1.64-5.58-2.45-10.91-2.45h-12.85v19.24Z" fill="#404040"/><path d="m1094.22,140.51h-33.21l-4.61,15.63h-29.86l35.58-94.66h31.9l35.57,94.66h-30.63l-4.74-15.63Zm-6.07-20.47l-10.45-34.03-10.34,34.03h20.79Z" fill="#404040"/><path d="m317.34,230.51l-10.01-38.69h9.89l3.29,16.1c.93,4.67,1.88,9.88,2.55,13.52h.11c.64-4.02,1.6-8.78,2.64-13.65l3.5-15.97h10.36l3.27,16.68c.87,4.57,1.52,8.65,2.11,12.67h.11c.65-4.07,1.57-8.67,2.55-13.37l3.54-15.98h9.4l-11.04,38.69h-10l-3.63-17.99c-.82-3.96-1.43-7.36-1.91-11.63h-.11c-.64,4.25-1.26,7.71-2.23,11.65l-4.06,17.97h-10.32Z" fill="#404040"/><path d="m390.51,214.36h-16.04v8.77h17.91v7.38h-27.06v-38.69h26.17v7.38h-17.02v7.78h16.04v7.38Z" fill="#404040"/><path d="m398.61,192.34c2.31-.43,7.45-.86,12.2-.86,5.92,0,9.11.55,11.99,1.98,2.92,1.34,5.17,3.99,5.17,7.82,0,3.39-2.07,6.57-6.6,8.16v.13c4.4,1.12,7.99,4.38,7.99,9.57,0,3.65-1.83,6.51-4.42,8.42-3.01,2.2-7.93,3.39-16.05,3.39-4.8,0-8.24-.32-10.28-.62v-37.99Zm9.06,14.64h3.24c5.27,0,7.81-1.8,7.81-4.59,0-2.97-2.52-4.31-6.77-4.31-2.27,0-3.48.14-4.28.28v8.62Zm0,17.1c.96.15,2.16.16,3.91.16,4.27,0,8.1-1.42,8.1-5.54,0-3.87-3.75-5.26-8.57-5.26h-3.44v10.64Z" fill="#404040"/><path d="m436.24,221.04c2.57,1.36,6.53,2.73,10.81,2.73s6.42-1.61,6.42-4.16c0-2.25-1.88-3.64-6.96-5.12-6.84-1.97-11.8-5.31-11.8-11.67,0-6.72,6.01-11.7,15.44-11.7,5.03,0,8.48.93,11.15,2.13l-2.18,7.2c-1.68-.75-4.84-2.01-9.13-2.01-4,0-5.91,1.7-5.91,3.66,0,2.5,2.47,3.54,7.77,5.24,7.42,2.39,11.03,5.82,11.03,11.76,0,6.24-4.85,12.09-16.54,12.09-4.81,0-9.65-1.33-12.1-2.69l2-7.47Z" fill="#404040"/><path d="m478.53,191.82v38.69h-9.15v-38.69h9.15Z" fill="#404040"/><path d="m495.06,199.29h-11.65v-7.47h32.62v7.47h-11.83v31.22h-9.15v-31.22Z" fill="#404040"/><path d="m546.06,214.36h-16.04v8.77h17.91v7.38h-27.06v-38.69h26.17v7.38h-17.02v7.78h16.04v7.38Z" fill="#404040"/><path d="m554.83,221.04c2.57,1.36,6.53,2.73,10.81,2.73s6.42-1.61,6.42-4.16c0-2.25-1.88-3.64-6.96-5.12-6.84-1.97-11.8-5.31-11.8-11.67,0-6.72,6.01-11.7,15.44-11.7,5.03,0,8.48.93,11.15,2.13l-2.18,7.2c-1.68-.75-4.84-2.01-9.13-2.01-4,0-5.91,1.7-5.91,3.66,0,2.5,2.47,3.54,7.77,5.24,7.42,2.39,11.03,5.82,11.03,11.76,0,6.24-4.85,12.09-16.54,12.09-4.81,0-9.65-1.33-12.1-2.69l2-7.47Z" fill="#404040"/><path d="m600.36,191.82h25.9v7.38h-16.75v8.51h15.65v7.38h-15.65v15.42h-9.15v-38.69Z" fill="#404040"/><path d="m672.76,210.88c0,12.06-8.49,20.32-21.13,20.32s-20.23-8.48-20.23-19.65c0-11.9,8.52-20.42,20.85-20.42s20.5,8.43,20.5,19.74Zm-31.63.42c0,7.18,4.22,12.81,10.98,12.81s10.93-5.53,10.93-12.95c0-7.02-4.05-12.92-10.94-12.92s-10.98,5.8-10.98,13.07Z" fill="#404040"/><path d="m678.88,192.34c2.96-.47,7.52-.86,12.76-.86,6.28,0,10.4.97,13.25,3.13,2.3,1.73,3.75,4.5,3.75,8.13,0,5.15-4,8.47-7.12,9.46v.21c2.71,1.09,4.27,3.7,5.33,7.05,1.34,4.41,2.56,9.53,3.34,11.06h-9.32c-.63-1.14-1.63-3.98-2.9-8.94-1.22-4.84-2.97-6.11-6.94-6.17h-3.09v15.11h-9.06v-38.17Zm9.06,16.56h4.11c4.7,0,7.54-2.06,7.54-5.43,0-3.62-2.8-5.26-7.01-5.26-2.57,0-3.96.16-4.64.31v10.37Z" fill="#404040"/><path d="m752.86,214.36h-16.04v8.77h17.91v7.38h-27.06v-38.69h26.17v7.38h-17.02v7.78h16.04v7.38Z" fill="#404040"/><path d="m771.79,230.51l-13.67-38.69h10l5.33,16.27c1.58,4.75,2.88,9.01,4,13.93h.12c1.14-4.66,2.59-9.25,4.12-13.7l5.67-16.51h9.65l-14.4,38.69h-10.81Z" fill="#404040"/><path d="m826.68,214.36h-16.04v8.77h17.91v7.38h-27.06v-38.69h26.17v7.38h-17.02v7.78h16.04v7.38Z" fill="#404040"/><path d="m834.77,192.34c2.96-.47,7.52-.86,12.76-.86,6.28,0,10.4.97,13.25,3.13,2.3,1.73,3.75,4.5,3.75,8.13,0,5.15-4,8.47-7.12,9.46v.21c2.71,1.09,4.27,3.7,5.33,7.05,1.34,4.41,2.56,9.53,3.34,11.06h-9.32c-.63-1.14-1.63-3.98-2.9-8.94-1.22-4.84-2.97-6.11-6.94-6.17h-3.09v15.11h-9.06v-38.17Zm9.06,16.56h4.11c4.7,0,7.54-2.06,7.54-5.43,0-3.62-2.8-5.26-7.01-5.26-2.57,0-3.96.16-4.64.31v10.37Z" fill="#404040"/><path d="m880.24,230.51v-16.22l-13.46-22.47h10.68l4.37,9.34c1.34,2.87,2.23,4.67,3.3,7.14h.11c.99-2.29,2.02-4.37,3.28-7.1l4.44-9.38h10.55l-14.14,22.18v16.51h-9.15Z" fill="#404040"/><path d="m920.64,192.34c2.31-.43,7.45-.86,12.2-.86,5.92,0,9.11.55,11.99,1.98,2.92,1.34,5.17,3.99,5.17,7.82,0,3.39-2.07,6.57-6.6,8.16v.13c4.4,1.12,7.99,4.38,7.99,9.57,0,3.65-1.83,6.51-4.42,8.42-3.01,2.2-7.93,3.39-16.05,3.39-4.8,0-8.24-.32-10.28-.62v-37.99Zm9.06,14.64h3.24c5.27,0,7.81-1.8,7.81-4.59,0-2.97-2.53-4.31-6.77-4.31-2.27,0-3.49.14-4.28.28v8.62Zm0,17.1c.96.15,2.16.16,3.91.16,4.27,0,8.1-1.42,8.1-5.54,0-3.87-3.75-5.26-8.57-5.26h-3.44v10.64Z" fill="#404040"/><path d="m957.6,192.34c2.96-.47,7.52-.86,12.76-.86,6.28,0,10.4.97,13.25,3.13,2.3,1.73,3.75,4.5,3.75,8.13,0,5.15-4,8.47-7.12,9.46v.21c2.71,1.09,4.27,3.7,5.33,7.05,1.34,4.41,2.56,9.53,3.34,11.06h-9.32c-.63-1.14-1.63-3.98-2.9-8.94-1.22-4.84-2.97-6.11-6.94-6.17h-3.09v15.11h-9.06v-38.17Zm9.06,16.56h4.11c4.7,0,7.54-2.06,7.54-5.43,0-3.62-2.8-5.26-7.01-5.26-2.57,0-3.96.16-4.64.31v10.37Z" fill="#404040"/><path d="m1004.54,220.21l-3.08,10.3h-9.63l12.94-38.69h12.26l13.55,38.69h-10.13l-3.42-10.3h-12.51Zm11.01-6.75l-2.78-8.26c-.76-2.27-1.5-4.84-2.17-7h-.11c-.62,2.18-1.21,4.76-1.9,7.01l-2.61,8.25h9.58Z" fill="#404040"/><path d="m1036.06,230.51v-38.69h11.29l8.73,13.86c2.7,4.42,5.09,9.22,7.05,13.93l.16-.02c-.63-5.47-.69-10.16-.69-15.58v-12.19h8.5v38.69h-9.92l-9.1-14.96c-2.64-4.48-5.44-9.46-7.64-14.35l-.22.02c.29,5.54.34,10.85.34,16.68v12.61h-8.5Z" fill="#404040"/><path d="m1079.06,192.34c3.67-.55,8.33-.86,13.18-.86,8.16,0,13.42,1.42,17.54,4.39,4.26,3,7.05,7.59,7.05,14.21,0,7.27-2.9,12.26-6.74,15.43-4.55,3.69-11.59,5.43-19.85,5.43-5.27,0-8.8-.28-11.18-.62v-37.99Zm9.15,31.38c.89.15,2.33.16,3.62.16,9.35.09,15.25-4.56,15.25-13.34.02-8.07-5.56-12.1-14.07-12.1-2.37,0-3.92.21-4.8.38v24.89Z" fill="#404040"/></g></svg>